<?xml version='1.0' encoding='UTF-8'?>
<!-- Created with Inkscape (http://www.inkscape.org/) and export_objects.py -->
<svg xmlns:cc="http://creativecommons.org/ns#" xmlns:dc="http://purl.org/dc/elements/1.1/" xmlns:inkscape="http://www.inkscape.org/namespaces/inkscape" xmlns:rdf="http://www.w3.org/1999/02/22-rdf-syntax-ns#" xmlns:sodipodi="http://sodipodi.sourceforge.net/DTD/sodipodi-0.dtd" xmlns:xlink="http://www.w3.org/1999/xlink" xmlns="http://www.w3.org/2000/svg" version="1.1" width="0.75000003125in" height="0.75000003125in" viewBox="0 0 19.0500007937 19.0500007937" id="svg8" inkscape:version="0.92.3 (2405546, 2018-03-11)" sodipodi:docname="club-06.svg"><sodipodi:namedview id="base" pagecolor="#ffffff" bordercolor="#666666" borderopacity="1.0" inkscape:pageopacity="0.0" inkscape:pageshadow="2" inkscape:zoom="0.88357843" inkscape:cx="528" inkscape:cy="408" inkscape:document-units="in" inkscape:current-layer="layer3" showgrid="false" units="in" inkscape:snap-others="true" inkscape:snap-grids="true" inkscape:window-width="1920" inkscape:window-height="986" inkscape:window-x="-11" inkscape:window-y="-11" inkscape:window-maximized="1" inkscape:snap-midpoints="true" inkscape:object-nodes="true" inkscape:snap-text-baseline="true" inkscape:snap-smooth-nodes="false" showguides="false" inkscape:snap-object-midpoints="true" inkscape:snap-center="true" inkscape:snap-to-guides="false" inkscape:snap-nodes="true" inkscape:snap-intersection-paths="true">
    <inkscape:grid type="xygrid" id="grid10" units="pt" spacingx="1.5875" spacingy="1.5875"/>
    <sodipodi:guide position="380.20625,103.1875" orientation="0,1" id="guide9455" inkscape:locked="false"/>
  </sodipodi:namedview>
  <metadata id="metadata5">
    <rdf:RDF>
      <cc:Work rdf:about="">
        <dc:format>image/svg+xml</dc:format>
        <dc:type rdf:resource="http://purl.org/dc/dcmitype/StillImage"/>
        <dc:title/>
      </cc:Work>
    </rdf:RDF>
  </metadata>
  <g inkscape:groupmode="layer" inkscape:label="club-" transform="matrix(1.000000,0.000000,0.000000,1.000000,-126.999997,-180.975016)"><g id="g1963" inkscape:label="06">
      <rect y="262.07501" x="127" height="19.050001" width="19.050001" id="rect15173" style="display:inline;opacity:1;fill:#ffffff;fill-opacity:1;stroke:none;stroke-width:0.17638889;stroke-linecap:butt;stroke-linejoin:miter;stroke-miterlimit:47.14606857;stroke-dasharray:none;stroke-dashoffset:0;stroke-opacity:1;paint-order:markers fill stroke" transform="translate(0,-81.099993)"/>
      <path inkscape:export-ydpi="96" inkscape:export-xdpi="96" inkscape:export-filename="C:\mine\Vira\Vira table excerpts\Tourne.png" id="path15215" d="m 139.70002,185.73747 c -0.91105,0 -1.70845,0.61189 -1.94425,1.49188 -0.23578,0.88002 0.14888,1.80863 0.9378,2.26414 -0.78898,-0.45551 -1.78556,-0.32426 -2.42975,0.31993 -0.6442,0.6442 -0.77535,1.64076 -0.31984,2.42974 0.45553,0.78898 1.38416,1.1736 2.26415,0.93782 0.52969,-0.14195 0.96197,-0.4875 1.22241,-0.93872 l -0.80919,3.02021 h 2.15733 l -0.80928,-3.02045 c 0.26042,0.45133 0.6927,0.79698 1.2225,0.93896 0.87999,0.23578 1.8087,-0.14888 2.26423,-0.93782 0.45551,-0.78898 0.32428,-1.78554 -0.31993,-2.42974 -0.6442,-0.64421 -1.64078,-0.77544 -2.42976,-0.31993 0.78898,-0.45551 1.17368,-1.38414 0.93789,-2.26414 -0.23579,-0.87999 -1.03329,-1.49188 -1.94431,-1.49188 z" style="opacity:1;fill:#000000;fill-opacity:1;stroke:none;stroke-width:0.07055556;stroke-linecap:butt;stroke-linejoin:miter;stroke-miterlimit:4;stroke-dasharray:none;stroke-dashoffset:0;paint-order:normal" inkscape:connector-curvature="0"/>
      <g id="text15237" style="font-style:normal;font-variant:normal;font-weight:normal;font-stretch:normal;font-size:14.11111164px;line-height:125%;font-family:'Stint Ultra Condensed';-inkscape-font-specification:'Stint Ultra Condensed, ';font-variant-ligatures:normal;font-variant-caps:normal;font-variant-numeric:normal;text-align:end;letter-spacing:0px;word-spacing:0px;writing-mode:lr-tb;text-anchor:end;fill:#000000;fill-opacity:1;stroke:none;stroke-width:0.26458335" aria-label="9">
        <path inkscape:connector-curvature="0" id="path1849" style="font-style:normal;font-variant:normal;font-weight:normal;font-stretch:normal;font-size:14.11111164px;font-family:'Stint Ultra Condensed';-inkscape-font-specification:'Stint Ultra Condensed, ';text-align:end;text-anchor:end;stroke-width:0.26458335" d="m 133.06681,190.72188 q -0.0482,0.12402 -0.14469,0.31694 -0.0896,0.19293 -0.24805,0.37208 -0.15158,0.17914 -0.37207,0.31005 -0.22048,0.12403 -0.52365,0.12403 -0.33762,0 -0.6339,-0.18604 -0.29628,-0.19292 -0.51676,-0.57877 -0.2136,-0.38585 -0.34451,-0.96463 -0.12403,-0.58567 -0.12403,-1.37115 0,-0.64768 0.11714,-1.21267 0.11713,-0.57189 0.34451,-0.99219 0.22737,-0.42719 0.5581,-0.66835 0.33073,-0.24805 0.75792,-0.24805 0.4203,0 0.77859,0.28939 0.36518,0.2825 0.6339,0.86128 0.26872,0.57188 0.4203,1.44005 0.15848,0.86816 0.15848,2.03949 0,1.1989 -0.11714,2.16352 -0.11713,0.95774 -0.36518,1.63298 -0.24115,0.67524 -0.62011,1.04042 -0.37207,0.35829 -0.88884,0.35829 -0.33073,0 -0.62701,-0.18604 -0.29627,-0.17914 -0.52365,-0.53743 -0.22049,-0.35829 -0.3514,-0.88884 -0.12402,-0.53743 -0.12402,-1.24023 h 0.84749 q 0,1.02664 0.19982,1.56407 0.2067,0.53744 0.62011,0.53744 0.28939,0 0.4961,-0.31695 0.2067,-0.32384 0.33762,-0.86817 0.13091,-0.54432 0.19292,-1.2609 0.062,-0.72347 0.062,-1.52962 z m -1.11621,0.37896 q 0.2136,0 0.38585,-0.19982 0.17226,-0.19981 0.30317,-0.4892 0.13781,-0.28939 0.22738,-0.62012 0.0896,-0.33073 0.13091,-0.59945 0.0138,-0.50987 -0.062,-1.01285 -0.0689,-0.50988 -0.2136,-0.90951 -0.1378,-0.39963 -0.34451,-0.64768 -0.19981,-0.24804 -0.44097,-0.24804 -0.22048,0 -0.39274,0.17225 -0.17225,0.16536 -0.28939,0.47542 -0.11713,0.31006 -0.17914,0.75103 -0.0551,0.43409 -0.0551,0.97152 0,0.55122 0.0551,0.99219 0.0551,0.43408 0.16536,0.73725 0.11714,0.30317 0.28939,0.46853 0.17915,0.15848 0.4203,0.15848 z"/>
      </g>
    </g>
    </g></svg>
