<?xml version='1.0' encoding='UTF-8'?>
<!-- Created with Inkscape (http://www.inkscape.org/) and export_objects.py -->
<svg xmlns:cc="http://creativecommons.org/ns#" xmlns:dc="http://purl.org/dc/elements/1.1/" xmlns:inkscape="http://www.inkscape.org/namespaces/inkscape" xmlns:rdf="http://www.w3.org/1999/02/22-rdf-syntax-ns#" xmlns:sodipodi="http://sodipodi.sourceforge.net/DTD/sodipodi-0.dtd" xmlns:xlink="http://www.w3.org/1999/xlink" xmlns="http://www.w3.org/2000/svg" version="1.1" width="0.75000003125in" height="0.75000003125in" viewBox="0 0 19.0500007937 19.0500007937" id="svg8" inkscape:version="0.92.3 (2405546, 2018-03-11)" sodipodi:docname="club-04.svg"><sodipodi:namedview id="base" pagecolor="#ffffff" bordercolor="#666666" borderopacity="1.0" inkscape:pageopacity="0.0" inkscape:pageshadow="2" inkscape:zoom="0.88357843" inkscape:cx="528" inkscape:cy="408" inkscape:document-units="in" inkscape:current-layer="layer3" showgrid="false" units="in" inkscape:snap-others="true" inkscape:snap-grids="true" inkscape:window-width="1920" inkscape:window-height="986" inkscape:window-x="-11" inkscape:window-y="-11" inkscape:window-maximized="1" inkscape:snap-midpoints="true" inkscape:object-nodes="true" inkscape:snap-text-baseline="true" inkscape:snap-smooth-nodes="false" showguides="false" inkscape:snap-object-midpoints="true" inkscape:snap-center="true" inkscape:snap-to-guides="false" inkscape:snap-nodes="true" inkscape:snap-intersection-paths="true">
    <inkscape:grid type="xygrid" id="grid10" units="pt" spacingx="1.5875" spacingy="1.5875"/>
    <sodipodi:guide position="380.20625,103.1875" orientation="0,1" id="guide9455" inkscape:locked="false"/>
  </sodipodi:namedview>
  <metadata id="metadata5">
    <rdf:RDF>
      <cc:Work rdf:about="">
        <dc:format>image/svg+xml</dc:format>
        <dc:type rdf:resource="http://purl.org/dc/dcmitype/StillImage"/>
        <dc:title/>
      </cc:Work>
    </rdf:RDF>
  </metadata>
  <g inkscape:groupmode="layer" inkscape:label="club-" transform="matrix(1.000000,0.000000,0.000000,1.000000,-82.550000,-180.975016)"><g id="g1946" inkscape:label="04">
      <rect y="262.07501" x="82.550003" height="19.050001" width="19.050001" id="rect15109" style="display:inline;opacity:1;fill:#ffffff;fill-opacity:1;stroke:none;stroke-width:0.17638889;stroke-linecap:butt;stroke-linejoin:miter;stroke-miterlimit:47.14606857;stroke-dasharray:none;stroke-dashoffset:0;stroke-opacity:1;paint-order:markers fill stroke" transform="translate(0,-81.099993)"/>
      <path inkscape:export-ydpi="96" inkscape:export-xdpi="96" inkscape:export-filename="C:\mine\Vira\Vira table excerpts\Tourne.png" id="path15135" d="m 95.249996,185.73749 c -0.911043,0 -1.708443,0.61189 -1.944243,1.49188 -0.235782,0.88002 0.148875,1.80863 0.9378,2.26414 -0.78898,-0.45551 -1.785563,-0.32426 -2.429757,0.31993 -0.644193,0.6442 -0.775349,1.64076 -0.319837,2.42974 0.455531,0.78898 1.384163,1.1736 2.264156,0.93782 0.529688,-0.14195 0.96197,-0.4875 1.222407,-0.93872 l -0.809194,3.02021 h 2.157337 l -0.809287,-3.02045 c 0.260419,0.45133 0.692701,0.79698 1.2225,0.93896 0.879994,0.23578 1.8087,-0.14888 2.264232,-0.93782 0.455512,-0.78898 0.324282,-1.78554 -0.319932,-2.42974 -0.644193,-0.64421 -1.640774,-0.77544 -2.429756,-0.31993 0.788982,-0.45551 1.173674,-1.38414 0.937893,-2.26414 -0.235799,-0.87999 -1.033293,-1.49188 -1.944319,-1.49188 z" style="opacity:1;fill:#000000;fill-opacity:1;stroke:none;stroke-width:0.07055556;stroke-linecap:butt;stroke-linejoin:miter;stroke-miterlimit:4;stroke-dasharray:none;stroke-dashoffset:0;paint-order:normal" inkscape:connector-curvature="0"/>
      <g id="text15157" style="font-style:normal;font-variant:normal;font-weight:normal;font-stretch:normal;font-size:14.11111164px;line-height:125%;font-family:'Stint Ultra Condensed';-inkscape-font-specification:'Stint Ultra Condensed, ';font-variant-ligatures:normal;font-variant-caps:normal;font-variant-numeric:normal;text-align:end;letter-spacing:0px;word-spacing:0px;writing-mode:lr-tb;text-anchor:end;fill:#000000;fill-opacity:1;stroke:none;stroke-width:0.26458335" aria-label="J">
        <path inkscape:connector-curvature="0" id="path1881" style="font-style:normal;font-variant:normal;font-weight:normal;font-stretch:normal;font-size:14.11111164px;font-family:'Stint Ultra Condensed';-inkscape-font-specification:'Stint Ultra Condensed, ';text-align:end;text-anchor:end;stroke-width:0.26458335" d="m 87.207773,185.7954 h 2.700955 v 0.77171 h -0.847494 v 6.1116 q 0,0.74414 -0.117133,1.2609 -0.110243,0.50987 -0.323839,0.83371 -0.206706,0.31695 -0.509874,0.46165 -0.296278,0.1378 -0.675239,0.1378 -0.37207,0 -0.668348,-0.12402 -0.289388,-0.12403 -0.496094,-0.46165 -0.206706,-0.34451 -0.316949,-0.95084 -0.110243,-0.60634 -0.110243,-1.56408 h 0.861274 q 0.0069,0.64768 0.02756,1.08865 0.02756,0.44098 0.09646,0.71658 0.07579,0.26872 0.220486,0.39275 0.144695,0.11713 0.385851,0.11713 0.241157,0 0.392741,-0.12402 0.151584,-0.13092 0.234267,-0.37208 0.08268,-0.24804 0.110243,-0.61322 0.02756,-0.36518 0.02756,-0.84061 v -6.07025 H 87.20777 Z"/>
      </g>
    </g>
    </g></svg>
