<?xml version='1.0' encoding='UTF-8'?>
<!-- Created with Inkscape (http://www.inkscape.org/) and export_objects.py -->
<svg xmlns:cc="http://creativecommons.org/ns#" xmlns:dc="http://purl.org/dc/elements/1.1/" xmlns:inkscape="http://www.inkscape.org/namespaces/inkscape" xmlns:rdf="http://www.w3.org/1999/02/22-rdf-syntax-ns#" xmlns:sodipodi="http://sodipodi.sourceforge.net/DTD/sodipodi-0.dtd" xmlns:xlink="http://www.w3.org/1999/xlink" xmlns="http://www.w3.org/2000/svg" version="1.1" width="0.75000003125in" height="0.75000003125in" viewBox="0 0 19.0500007937 19.0500007937" id="svg8" inkscape:version="0.92.3 (2405546, 2018-03-11)" sodipodi:docname="diamond-009.svg"><sodipodi:namedview id="base" pagecolor="#ffffff" bordercolor="#666666" borderopacity="1.0" inkscape:pageopacity="0.0" inkscape:pageshadow="2" inkscape:zoom="0.88357843" inkscape:cx="528" inkscape:cy="408" inkscape:document-units="in" inkscape:current-layer="layer3" showgrid="false" units="in" inkscape:snap-others="true" inkscape:snap-grids="true" inkscape:window-width="1920" inkscape:window-height="986" inkscape:window-x="-11" inkscape:window-y="-11" inkscape:window-maximized="1" inkscape:snap-midpoints="true" inkscape:object-nodes="true" inkscape:snap-text-baseline="true" inkscape:snap-smooth-nodes="false" showguides="false" inkscape:snap-object-midpoints="true" inkscape:snap-center="true" inkscape:snap-to-guides="false" inkscape:snap-nodes="true" inkscape:snap-intersection-paths="true">
    <inkscape:grid type="xygrid" id="grid10" units="pt" spacingx="1.5875" spacingy="1.5875"/>
    <sodipodi:guide position="380.20625,103.1875" orientation="0,1" id="guide9455" inkscape:locked="false"/>
  </sodipodi:namedview>
  <metadata id="metadata5">
    <rdf:RDF>
      <cc:Work rdf:about="">
        <dc:format>image/svg+xml</dc:format>
        <dc:type rdf:resource="http://purl.org/dc/dcmitype/StillImage"/>
        <dc:title/>
      </cc:Work>
    </rdf:RDF>
  </metadata>
  <g inkscape:groupmode="layer" inkscape:label="diamond-" transform="matrix(1.000000,0.000000,0.000000,1.000000,-193.674997,-158.749979)"><g id="g2027" inkscape:label="009">
      <rect style="display:inline;opacity:1;fill:#ffffff;fill-opacity:1;stroke:none;stroke-width:0.17638889;stroke-linecap:butt;stroke-linejoin:miter;stroke-miterlimit:47.14606857;stroke-dasharray:none;stroke-dashoffset:0;stroke-opacity:1;paint-order:markers fill stroke" id="rect15291" width="19.050001" height="19.050001" x="193.675" y="239.84998" transform="translate(0,-81.099993)"/>
      <path inkscape:export-ydpi="96" inkscape:export-xdpi="96" inkscape:export-filename="C:\mine\Vira\Vira table excerpts\diamond-icon.png" inkscape:connector-curvature="0" id="path15325" d="m 206.37502,163.51245 -4.02573,4.7625 4.02573,4.7625 4.02576,-4.7625 z" style="display:inline;opacity:1;fill:#800000;fill-opacity:1;stroke:none;stroke-width:0.07055555;stroke-linecap:butt;stroke-linejoin:miter;stroke-miterlimit:4;stroke-dasharray:none;stroke-dashoffset:0;paint-order:normal"/>
      <g id="text15337" style="font-style:normal;font-variant:normal;font-weight:normal;font-stretch:normal;font-size:14.11111164px;line-height:125%;font-family:'Stint Ultra Condensed';-inkscape-font-specification:'Stint Ultra Condensed, ';font-variant-ligatures:normal;font-variant-caps:normal;font-variant-numeric:normal;text-align:end;letter-spacing:0px;word-spacing:0px;writing-mode:lr-tb;text-anchor:end;fill:#800000;fill-opacity:1;stroke:none;stroke-width:0.26458335" aria-label="6">
        <path inkscape:connector-curvature="0" id="path1816" style="font-style:normal;font-variant:normal;font-weight:normal;font-stretch:normal;font-size:14.11111164px;font-family:'Stint Ultra Condensed';-inkscape-font-specification:'Stint Ultra Condensed, ';text-align:end;text-anchor:end;fill:#800000;stroke-width:0.26458335" d="m 197.77811,168.12478 q 0.0482,-0.12402 0.13781,-0.31694 0.0965,-0.19293 0.24804,-0.37207 0.15848,-0.18604 0.37896,-0.31006 0.22049,-0.13092 0.52366,-0.13092 0.33762,0 0.6339,0.19293 0.29627,0.19292 0.50987,0.57877 0.22049,0.38586 0.34451,0.97152 0.13091,0.57878 0.13091,1.36426 0,0.64768 -0.12402,1.21956 -0.11713,0.565 -0.34451,0.99219 -0.22738,0.4203 -0.55811,0.66835 -0.33073,0.24116 -0.75103,0.24116 -0.4203,0 -0.78548,-0.2825 -0.35829,-0.28939 -0.62701,-0.86128 -0.26871,-0.57877 -0.42719,-1.44694 -0.15158,-0.86816 -0.15158,-2.03949 0,-1.1989 0.11713,-2.15663 0.11713,-0.96463 0.35829,-1.63987 0.24805,-0.67524 0.62012,-1.03353 0.37896,-0.36518 0.89572,-0.36518 0.33073,0 0.62701,0.18604 0.29628,0.17914 0.51676,0.53743 0.22738,0.35829 0.3514,0.89573 0.13092,0.53054 0.13092,1.23334 h -0.8475 q 0,-1.02664 -0.2067,-1.56407 -0.19982,-0.53744 -0.61323,-0.53744 -0.28939,0 -0.49609,0.32384 -0.20671,0.31695 -0.33762,0.86128 -0.13091,0.54432 -0.19293,1.26779 -0.062,0.71658 -0.062,1.52273 z m 1.11621,-0.37896 q -0.21359,0 -0.38585,0.19982 -0.17225,0.19982 -0.31006,0.4892 -0.13091,0.28939 -0.22048,0.62012 -0.0896,0.33073 -0.13092,0.59256 -0.0138,0.51676 0.0551,1.01975 0.0758,0.50298 0.21359,0.9095 0.1447,0.39963 0.34451,0.64768 0.20671,0.24805 0.44786,0.24805 0.22049,0 0.39274,-0.16537 0.17226,-0.17225 0.28939,-0.48231 0.11714,-0.31006 0.17226,-0.74414 0.062,-0.44098 0.062,-0.97841 0,-0.55122 -0.0551,-0.9853 -0.0551,-0.44097 -0.17226,-0.74414 -0.11024,-0.30317 -0.28939,-0.46164 -0.17225,-0.16537 -0.41341,-0.16537 z"/>
      </g>
    </g>
    </g></svg>
