<?xml version='1.0' encoding='UTF-8'?>
<!-- Created with Inkscape (http://www.inkscape.org/) and export_objects.py -->
<svg xmlns:cc="http://creativecommons.org/ns#" xmlns:dc="http://purl.org/dc/elements/1.1/" xmlns:inkscape="http://www.inkscape.org/namespaces/inkscape" xmlns:rdf="http://www.w3.org/1999/02/22-rdf-syntax-ns#" xmlns:sodipodi="http://sodipodi.sourceforge.net/DTD/sodipodi-0.dtd" xmlns:xlink="http://www.w3.org/1999/xlink" xmlns="http://www.w3.org/2000/svg" version="1.1" width="0.75000003125in" height="0.75000003125in" viewBox="0 0 19.0500007937 19.0500007937" id="svg8" inkscape:version="0.92.3 (2405546, 2018-03-11)" sodipodi:docname="diamond-012.svg"><sodipodi:namedview id="base" pagecolor="#ffffff" bordercolor="#666666" borderopacity="1.0" inkscape:pageopacity="0.0" inkscape:pageshadow="2" inkscape:zoom="0.88357843" inkscape:cx="528" inkscape:cy="408" inkscape:document-units="in" inkscape:current-layer="layer3" showgrid="false" units="in" inkscape:snap-others="true" inkscape:snap-grids="true" inkscape:window-width="1920" inkscape:window-height="986" inkscape:window-x="-11" inkscape:window-y="-11" inkscape:window-maximized="1" inkscape:snap-midpoints="true" inkscape:object-nodes="true" inkscape:snap-text-baseline="true" inkscape:snap-smooth-nodes="false" showguides="false" inkscape:snap-object-midpoints="true" inkscape:snap-center="true" inkscape:snap-to-guides="false" inkscape:snap-nodes="true" inkscape:snap-intersection-paths="true">
    <inkscape:grid type="xygrid" id="grid10" units="pt" spacingx="1.5875" spacingy="1.5875"/>
    <sodipodi:guide position="380.20625,103.1875" orientation="0,1" id="guide9455" inkscape:locked="false"/>
  </sodipodi:namedview>
  <metadata id="metadata5">
    <rdf:RDF>
      <cc:Work rdf:about="">
        <dc:format>image/svg+xml</dc:format>
        <dc:type rdf:resource="http://purl.org/dc/dcmitype/StillImage"/>
        <dc:title/>
      </cc:Work>
    </rdf:RDF>
  </metadata>
  <g inkscape:groupmode="layer" inkscape:label="diamond-" transform="matrix(1.000000,0.000000,0.000000,1.000000,-263.524987,-158.749979)"><g id="g2247" inkscape:label="012">
      <rect style="display:inline;opacity:1;fill:#ffffff;fill-opacity:1;stroke:none;stroke-width:0.17638889;stroke-linecap:butt;stroke-linejoin:miter;stroke-miterlimit:47.14606857;stroke-dasharray:none;stroke-dashoffset:0;stroke-opacity:1;paint-order:markers fill stroke" id="rect15315" width="19.050001" height="19.050001" x="263.52499" y="239.84998" transform="translate(0,-81.099993)"/>
      <path inkscape:export-ydpi="96" inkscape:export-xdpi="96" inkscape:export-filename="C:\mine\Vira\Vira table excerpts\diamond-icon.png" inkscape:connector-curvature="0" id="path15397" d="m 276.22501,163.51245 -4.02573,4.7625 4.02573,4.7625 4.02576,-4.7625 z" style="display:inline;opacity:1;fill:#800000;fill-opacity:1;stroke:none;stroke-width:0.07055555;stroke-linecap:butt;stroke-linejoin:miter;stroke-miterlimit:4;stroke-dasharray:none;stroke-dashoffset:0;paint-order:normal"/>
      <g id="text15409" style="font-style:normal;font-variant:normal;font-weight:normal;font-stretch:normal;font-size:14.11111164px;line-height:125%;font-family:'Stint Ultra Condensed';-inkscape-font-specification:'Stint Ultra Condensed, ';font-variant-ligatures:normal;font-variant-caps:normal;font-variant-numeric:normal;text-align:end;letter-spacing:0px;word-spacing:0px;writing-mode:lr-tb;text-anchor:end;fill:#800000;fill-opacity:1;stroke:none;stroke-width:0.26458335" aria-label="3">
        <path inkscape:connector-curvature="0" id="path1780" style="font-style:normal;font-variant:normal;font-weight:normal;font-stretch:normal;font-size:14.11111164px;font-family:'Stint Ultra Condensed';-inkscape-font-specification:'Stint Ultra Condensed, ';text-align:end;text-anchor:end;fill:#800000;stroke-width:0.26458335" d="m 268.7684,167.15328 q 0.55122,0.13781 0.87506,0.47543 0.33073,0.33073 0.49609,0.75792 0.17225,0.4203 0.22049,0.88194 0.0551,0.45475 0.0551,0.83371 0,0.74415 -0.13092,1.32981 -0.13091,0.57878 -0.37896,0.97841 -0.24804,0.39963 -0.59944,0.60634 -0.34451,0.2067 -0.77859,0.2067 -0.36518,0 -0.68902,-0.17914 -0.31695,-0.17226 -0.55811,-0.565 -0.24116,-0.39274 -0.37896,-1.01286 -0.1378,-0.627 -0.1378,-1.52273 h 0.84749 q 0,1.31603 0.23427,1.92236 0.23426,0.60634 0.72347,0.60634 0.26871,0 0.45475,-0.18603 0.18603,-0.19293 0.29628,-0.51677 0.11713,-0.32384 0.16536,-0.75103 0.0551,-0.42719 0.0551,-0.90261 0,-0.51677 -0.0827,-0.93707 -0.0827,-0.42719 -0.26872,-0.73036 -0.17914,-0.30317 -0.47542,-0.46853 -0.29628,-0.17226 -0.72347,-0.17915 v -0.74414 l 1.41249,-2.70095 h -1.70877 v 1.48828 h -0.75103 v -2.27377 h 3.43132 v 0.59256 z"/>
      </g>
    </g>
    </g></svg>
