<?xml version='1.0' encoding='UTF-8'?>
<!-- Created with Inkscape (http://www.inkscape.org/) and export_objects.py -->
<svg xmlns:cc="http://creativecommons.org/ns#" xmlns:dc="http://purl.org/dc/elements/1.1/" xmlns:inkscape="http://www.inkscape.org/namespaces/inkscape" xmlns:rdf="http://www.w3.org/1999/02/22-rdf-syntax-ns#" xmlns:sodipodi="http://sodipodi.sourceforge.net/DTD/sodipodi-0.dtd" xmlns:xlink="http://www.w3.org/1999/xlink" xmlns="http://www.w3.org/2000/svg" version="1.1" width="0.75000003125in" height="0.75000003125in" viewBox="0 0 19.0500007937 19.0500007937" id="svg8" inkscape:version="0.92.3 (2405546, 2018-03-11)" sodipodi:docname="diamond-003.svg"><sodipodi:namedview id="base" pagecolor="#ffffff" bordercolor="#666666" borderopacity="1.0" inkscape:pageopacity="0.0" inkscape:pageshadow="2" inkscape:zoom="0.88357843" inkscape:cx="528" inkscape:cy="408" inkscape:document-units="in" inkscape:current-layer="layer3" showgrid="false" units="in" inkscape:snap-others="true" inkscape:snap-grids="true" inkscape:window-width="1920" inkscape:window-height="986" inkscape:window-x="-11" inkscape:window-y="-11" inkscape:window-maximized="1" inkscape:snap-midpoints="true" inkscape:object-nodes="true" inkscape:snap-text-baseline="true" inkscape:snap-smooth-nodes="false" showguides="false" inkscape:snap-object-midpoints="true" inkscape:snap-center="true" inkscape:snap-to-guides="false" inkscape:snap-nodes="true" inkscape:snap-intersection-paths="true">
    <inkscape:grid type="xygrid" id="grid10" units="pt" spacingx="1.5875" spacingy="1.5875"/>
    <sodipodi:guide position="380.20625,103.1875" orientation="0,1" id="guide9455" inkscape:locked="false"/>
  </sodipodi:namedview>
  <metadata id="metadata5">
    <rdf:RDF>
      <cc:Work rdf:about="">
        <dc:format>image/svg+xml</dc:format>
        <dc:type rdf:resource="http://purl.org/dc/dcmitype/StillImage"/>
        <dc:title/>
      </cc:Work>
    </rdf:RDF>
  </metadata>
  <g inkscape:groupmode="layer" inkscape:label="diamond-" transform="matrix(1.000000,0.000000,0.000000,1.000000,-60.325000,-158.749995)"><g id="g1898" inkscape:label="003">
      <rect y="239.84999" x="60.325001" height="19.050001" width="19.050001" id="rect15099" style="display:inline;opacity:1;fill:#ffffff;fill-opacity:1;stroke:none;stroke-width:0.17638889;stroke-linecap:butt;stroke-linejoin:miter;stroke-miterlimit:47.14606857;stroke-dasharray:none;stroke-dashoffset:0;stroke-opacity:1;paint-order:markers fill stroke" transform="translate(0,-81.099993)"/>
      <path style="display:inline;opacity:1;fill:#800000;fill-opacity:1;stroke:none;stroke-width:0.07055555;stroke-linecap:butt;stroke-linejoin:miter;stroke-miterlimit:4;stroke-dasharray:none;stroke-dashoffset:0;paint-order:normal" d="m 73.024999,163.51246 -4.02573,4.7625 4.02573,4.7625 4.025759,-4.7625 z" id="path15117" inkscape:connector-curvature="0" inkscape:export-filename="C:\mine\Vira\Vira table excerpts\diamond-icon.png" inkscape:export-xdpi="96" inkscape:export-ydpi="96"/>
      <g id="text15129" style="font-style:normal;font-variant:normal;font-weight:normal;font-stretch:normal;font-size:14.11111164px;line-height:125%;font-family:'Stint Ultra Condensed';-inkscape-font-specification:'Stint Ultra Condensed, ';font-variant-ligatures:normal;font-variant-caps:normal;font-variant-numeric:normal;text-align:end;letter-spacing:0px;word-spacing:0px;writing-mode:lr-tb;text-anchor:end;fill:#800000;fill-opacity:1;stroke:none;stroke-width:0.26458335" aria-label="Q">
        <path inkscape:connector-curvature="0" id="path1896" style="font-style:normal;font-variant:normal;font-weight:normal;font-stretch:normal;font-size:14.11111164px;font-family:'Stint Ultra Condensed';-inkscape-font-specification:'Stint Ultra Condensed, ';text-align:end;text-anchor:end;fill:#800000;stroke-width:0.26458335" d="m 68.186714,168.31083 q 0,1.21268 -0.172255,2.10151 -0.165364,0.88884 -0.461642,1.49517 0.351399,0.2136 0.73036,0.36518 0.37896,0.15159 0.751031,0.2136 l -0.34451,0.86127 q -0.392741,-0.1378 -0.778591,-0.3514 -0.378961,-0.21359 -0.744141,-0.46853 -0.289388,0.3514 -0.640788,0.52366 -0.344509,0.17225 -0.73725,0.17225 -0.516765,0 -0.957737,-0.28939 -0.440972,-0.28938 -0.764811,-0.88883 -0.323839,-0.60634 -0.509874,-1.52962 -0.186036,-0.93018 -0.186036,-2.20487 0,-1.26779 0.186036,-2.19108 0.186035,-0.93017 0.509874,-1.53651 0.330729,-0.60634 0.771701,-0.89572 0.440972,-0.28939 0.950847,-0.28939 0.502984,0 0.943956,0.28939 0.440972,0.28938 0.757921,0.89572 0.323839,0.59945 0.509874,1.52962 0.186035,0.92329 0.186035,2.19797 z m -0.950846,0 q 0,-2.01193 -0.36518,-3.06613 -0.365181,-1.0542 -1.08176,-1.0542 -0.737251,0 -1.102431,1.06798 -0.36518,1.06109 -0.36518,3.05235 0,2.01194 0.36518,3.06614 0.36518,1.0542 1.102431,1.0542 0.434082,0 0.757921,-0.42719 -0.33762,-0.31006 -0.606337,-0.66146 l 0.3514,-0.55122 q 0.227376,0.33073 0.564995,0.62012 0.378961,-1.04731 0.378961,-3.10059 z"/>
      </g>
    </g>
    </g></svg>
