<?xml version='1.0' encoding='UTF-8'?>
<!-- Created with Inkscape (http://www.inkscape.org/) and export_objects.py -->
<svg xmlns:cc="http://creativecommons.org/ns#" xmlns:dc="http://purl.org/dc/elements/1.1/" xmlns:inkscape="http://www.inkscape.org/namespaces/inkscape" xmlns:rdf="http://www.w3.org/1999/02/22-rdf-syntax-ns#" xmlns:sodipodi="http://sodipodi.sourceforge.net/DTD/sodipodi-0.dtd" xmlns:xlink="http://www.w3.org/1999/xlink" xmlns="http://www.w3.org/2000/svg" version="1.1" width="0.75000003125in" height="0.75000003125in" viewBox="0 0 19.0500007937 19.0500007937" id="svg8" inkscape:version="0.92.3 (2405546, 2018-03-11)" sodipodi:docname="heart-006.svg"><sodipodi:namedview id="base" pagecolor="#ffffff" bordercolor="#666666" borderopacity="1.0" inkscape:pageopacity="0.0" inkscape:pageshadow="2" inkscape:zoom="0.88357843" inkscape:cx="528" inkscape:cy="408" inkscape:document-units="in" inkscape:current-layer="layer3" showgrid="false" units="in" inkscape:snap-others="true" inkscape:snap-grids="true" inkscape:window-width="1920" inkscape:window-height="986" inkscape:window-x="-11" inkscape:window-y="-11" inkscape:window-maximized="1" inkscape:snap-midpoints="true" inkscape:object-nodes="true" inkscape:snap-text-baseline="true" inkscape:snap-smooth-nodes="false" showguides="false" inkscape:snap-object-midpoints="true" inkscape:snap-center="true" inkscape:snap-to-guides="false" inkscape:snap-nodes="true" inkscape:snap-intersection-paths="true">
    <inkscape:grid type="xygrid" id="grid10" units="pt" spacingx="1.5875" spacingy="1.5875"/>
    <sodipodi:guide position="380.20625,103.1875" orientation="0,1" id="guide9455" inkscape:locked="false"/>
  </sodipodi:namedview>
  <metadata id="metadata5">
    <rdf:RDF>
      <cc:Work rdf:about="">
        <dc:format>image/svg+xml</dc:format>
        <dc:type rdf:resource="http://purl.org/dc/dcmitype/StillImage"/>
        <dc:title/>
      </cc:Work>
    </rdf:RDF>
  </metadata>
  <g inkscape:groupmode="layer" inkscape:label="heart-" transform="matrix(1.000000,0.000000,0.000000,1.000000,-126.999997,-136.525003)"><g id="g2059" inkscape:label="006">
      <rect y="217.625" x="127" height="19.050001" width="19.050001" id="rect15169" style="display:inline;opacity:1;fill:#ffffff;fill-opacity:1;stroke:none;stroke-width:0.17638889;stroke-linecap:butt;stroke-linejoin:miter;stroke-miterlimit:47.14606857;stroke-dasharray:none;stroke-dashoffset:0;stroke-opacity:1;paint-order:markers fill stroke" transform="translate(0,-81.099993)"/>
      <path inkscape:export-ydpi="96" inkscape:export-xdpi="96" inkscape:export-filename="C:\mine\Vira\Vira table excerpts\heart-icon.png" inkscape:connector-curvature="0" id="path15219" d="m 139.70003,150.81245 -3.7562,-6.50571 0.001,-4.8e-4 a 2.0128707,2.0128707 0 0 1 -0.2715,-1.00594 2.0128707,2.0128707 0 0 1 2.01286,-2.01287 2.0128707,2.0128707 0 0 1 2.01287,2.01287 2.0128707,2.0128707 0 0 1 2.01287,-2.01287 2.0128707,2.0128707 0 0 1 2.01288,2.01287 2.0128707,2.0128707 0 0 1 -0.27152,1.00594 l 10e-4,4.8e-4 z" style="display:inline;opacity:1;fill:#800000;fill-opacity:1;stroke:none;stroke-width:0.07055553;stroke-linecap:butt;stroke-linejoin:miter;stroke-miterlimit:4;stroke-dasharray:none;stroke-dashoffset:0;paint-order:normal"/>
      <g id="text15229" style="font-style:normal;font-variant:normal;font-weight:normal;font-stretch:normal;font-size:14.11111164px;line-height:125%;font-family:'Stint Ultra Condensed';-inkscape-font-specification:'Stint Ultra Condensed, ';font-variant-ligatures:normal;font-variant-caps:normal;font-variant-numeric:normal;text-align:end;letter-spacing:0px;word-spacing:0px;writing-mode:lr-tb;text-anchor:end;fill:#800000;fill-opacity:1;stroke:none;stroke-width:0.26458335" aria-label="9">
        <path inkscape:connector-curvature="0" id="path1855" style="font-style:normal;font-variant:normal;font-weight:normal;font-stretch:normal;font-size:14.11111164px;font-family:'Stint Ultra Condensed';-inkscape-font-specification:'Stint Ultra Condensed, ';text-align:end;text-anchor:end;fill:#800000;stroke-width:0.26458335" d="m 133.0668,146.27186 q -0.0482,0.12403 -0.1447,0.31695 -0.0896,0.19293 -0.24804,0.37207 -0.15159,0.17915 -0.37207,0.31006 -0.22049,0.12403 -0.52366,0.12403 -0.33762,0 -0.6339,-0.18604 -0.29627,-0.19293 -0.51676,-0.57878 -0.2136,-0.38585 -0.34451,-0.96462 -0.12402,-0.58567 -0.12402,-1.37115 0,-0.64768 0.11713,-1.21267 0.11713,-0.57189 0.34451,-0.99219 0.22738,-0.42719 0.55811,-0.66835 0.33072,-0.24805 0.75792,-0.24805 0.4203,0 0.77859,0.28939 0.36518,0.2825 0.6339,0.86127 0.26871,0.57189 0.4203,1.44005 0.15847,0.86817 0.15847,2.0395 0,1.19889 -0.11713,2.16352 -0.11713,0.95774 -0.36518,1.63298 -0.24116,0.67524 -0.62012,1.04042 -0.37207,0.35829 -0.88883,0.35829 -0.33073,0 -0.62701,-0.18604 -0.29628,-0.17914 -0.52366,-0.53743 -0.22048,-0.35829 -0.3514,-0.88884 -0.12402,-0.53743 -0.12402,-1.24023 h 0.84749 q 0,1.02663 0.19982,1.56407 0.20671,0.53743 0.62012,0.53743 0.28939,0 0.49609,-0.31694 0.20671,-0.32384 0.33762,-0.86817 0.13091,-0.54432 0.19293,-1.2609 0.062,-0.72347 0.062,-1.52963 z m -1.11621,0.37896 q 0.21359,0 0.38585,-0.19981 0.17225,-0.19982 0.30317,-0.4892 0.1378,-0.28939 0.22737,-0.62012 0.0896,-0.33073 0.13092,-0.59945 0.0138,-0.50987 -0.062,-1.01286 -0.0689,-0.50987 -0.21359,-0.9095 -0.13781,-0.39963 -0.34451,-0.64768 -0.19982,-0.24805 -0.44097,-0.24805 -0.22049,0 -0.39274,0.17226 -0.17226,0.16536 -0.28939,0.47542 -0.11714,0.31006 -0.17915,0.75103 -0.0551,0.43408 -0.0551,0.97152 0,0.55121 0.0551,0.99219 0.0551,0.43408 0.16537,0.73725 0.11713,0.30317 0.28939,0.46853 0.17914,0.15847 0.4203,0.15847 z"/>
      </g>
    </g>
    </g></svg>
