<?xml version='1.0' encoding='UTF-8'?>
<!-- Created with Inkscape (http://www.inkscape.org/) and export_objects.py -->
<svg xmlns:cc="http://creativecommons.org/ns#" xmlns:dc="http://purl.org/dc/elements/1.1/" xmlns:inkscape="http://www.inkscape.org/namespaces/inkscape" xmlns:rdf="http://www.w3.org/1999/02/22-rdf-syntax-ns#" xmlns:sodipodi="http://sodipodi.sourceforge.net/DTD/sodipodi-0.dtd" xmlns:xlink="http://www.w3.org/1999/xlink" xmlns="http://www.w3.org/2000/svg" version="1.1" width="0.75000003125in" height="0.75000003125in" viewBox="0 0 19.0500007937 19.0500007937" id="svg8" inkscape:version="0.92.3 (2405546, 2018-03-11)" sodipodi:docname="heart-010.svg"><sodipodi:namedview id="base" pagecolor="#ffffff" bordercolor="#666666" borderopacity="1.0" inkscape:pageopacity="0.0" inkscape:pageshadow="2" inkscape:zoom="0.88357843" inkscape:cx="528" inkscape:cy="408" inkscape:document-units="in" inkscape:current-layer="layer3" showgrid="false" units="in" inkscape:snap-others="true" inkscape:snap-grids="true" inkscape:window-width="1920" inkscape:window-height="986" inkscape:window-x="-11" inkscape:window-y="-11" inkscape:window-maximized="1" inkscape:snap-midpoints="true" inkscape:object-nodes="true" inkscape:snap-text-baseline="true" inkscape:snap-smooth-nodes="false" showguides="false" inkscape:snap-object-midpoints="true" inkscape:snap-center="true" inkscape:snap-to-guides="false" inkscape:snap-nodes="true" inkscape:snap-intersection-paths="true">
    <inkscape:grid type="xygrid" id="grid10" units="pt" spacingx="1.5875" spacingy="1.5875"/>
    <sodipodi:guide position="380.20625,103.1875" orientation="0,1" id="guide9455" inkscape:locked="false"/>
  </sodipodi:namedview>
  <metadata id="metadata5">
    <rdf:RDF>
      <cc:Work rdf:about="">
        <dc:format>image/svg+xml</dc:format>
        <dc:type rdf:resource="http://purl.org/dc/dcmitype/StillImage"/>
        <dc:title/>
      </cc:Work>
    </rdf:RDF>
  </metadata>
  <g inkscape:groupmode="layer" inkscape:label="heart-" transform="matrix(1.000000,0.000000,0.000000,1.000000,-215.899989,-136.525003)"><g id="g2091" inkscape:label="010">
      <rect style="display:inline;opacity:1;fill:#ffffff;fill-opacity:1;stroke:none;stroke-width:0.17638889;stroke-linecap:butt;stroke-linejoin:miter;stroke-miterlimit:47.14606857;stroke-dasharray:none;stroke-dashoffset:0;stroke-opacity:1;paint-order:markers fill stroke" id="rect15297" width="19.050001" height="19.050001" x="215.89999" y="217.625" transform="translate(0,-81.099993)"/>
      <path style="display:inline;opacity:1;fill:#800000;fill-opacity:1;stroke:none;stroke-width:0.07055553;stroke-linecap:butt;stroke-linejoin:miter;stroke-miterlimit:4;stroke-dasharray:none;stroke-dashoffset:0;paint-order:normal" d="m 228.60004,150.81245 -3.7562,-6.50571 0.001,-4.8e-4 a 2.0128707,2.0128707 0 0 1 -0.2715,-1.00594 2.0128707,2.0128707 0 0 1 2.01286,-2.01287 2.0128707,2.0128707 0 0 1 2.01287,2.01287 2.0128707,2.0128707 0 0 1 2.01287,-2.01287 2.0128707,2.0128707 0 0 1 2.01288,2.01287 2.0128707,2.0128707 0 0 1 -0.27152,1.00594 l 0.001,4.8e-4 z" id="path15347" inkscape:connector-curvature="0" inkscape:export-filename="C:\mine\Vira\Vira table excerpts\heart-icon.png" inkscape:export-xdpi="96" inkscape:export-ydpi="96"/>
      <g id="text15357" style="font-style:normal;font-variant:normal;font-weight:normal;font-stretch:normal;font-size:14.11111164px;line-height:125%;font-family:'Stint Ultra Condensed';-inkscape-font-specification:'Stint Ultra Condensed, ';font-variant-ligatures:normal;font-variant-caps:normal;font-variant-numeric:normal;text-align:end;letter-spacing:0px;word-spacing:0px;writing-mode:lr-tb;text-anchor:end;fill:#800000;fill-opacity:1;stroke:none;stroke-width:0.26458335" aria-label="5">
        <path inkscape:connector-curvature="0" id="path1807" style="font-style:normal;font-variant:normal;font-weight:normal;font-stretch:normal;font-size:14.11111164px;font-family:'Stint Ultra Condensed';-inkscape-font-specification:'Stint Ultra Condensed, ';text-align:end;text-anchor:end;fill:#800000;stroke-width:0.26458335" d="m 220.10301,145.0661 q 0.22048,-0.25494 0.46164,-0.33762 0.24805,-0.0827 0.51676,-0.0827 0.39274,0 0.7028,0.24116 0.31695,0.24116 0.53055,0.67524 0.22048,0.42719 0.33762,1.01975 0.11713,0.59255 0.11713,1.29535 0,0.64768 -0.10335,1.21957 -0.10335,0.56499 -0.32384,0.99219 -0.2136,0.4203 -0.55811,0.66834 -0.34451,0.24116 -0.81993,0.24116 -0.3514,0.0138 -0.68213,-0.15847 -0.32384,-0.17226 -0.58566,-0.54433 -0.25494,-0.37896 -0.41342,-0.97841 -0.15158,-0.59944 -0.15158,-1.44005 h 0.86127 q 0,1.20579 0.27561,1.79834 0.2825,0.58567 0.69591,0.58567 0.23427,0 0.40652,-0.17225 0.17226,-0.17915 0.28939,-0.4961 0.11713,-0.31695 0.17225,-0.75103 0.062,-0.44097 0.062,-0.96463 0,-1.21267 -0.24116,-1.85346 -0.24116,-0.64079 -0.7717,-0.64079 -0.31006,0 -0.53744,0.20671 -0.22048,0.19982 -0.33762,0.60634 h -0.7028 l 0.16537,-4.8507 h 2.99034 v 0.78548 h -2.23931 z"/>
      </g>
    </g>
    </g></svg>
