<?xml version='1.0' encoding='UTF-8'?>
<!-- Created with Inkscape (http://www.inkscape.org/) and export_objects.py -->
<svg xmlns:cc="http://creativecommons.org/ns#" xmlns:dc="http://purl.org/dc/elements/1.1/" xmlns:inkscape="http://www.inkscape.org/namespaces/inkscape" xmlns:rdf="http://www.w3.org/1999/02/22-rdf-syntax-ns#" xmlns:sodipodi="http://sodipodi.sourceforge.net/DTD/sodipodi-0.dtd" xmlns:xlink="http://www.w3.org/1999/xlink" xmlns="http://www.w3.org/2000/svg" version="1.1" width="0.75000003125in" height="0.75000003125in" viewBox="0 0 19.0500007937 19.0500007937" id="svg8" inkscape:version="0.92.3 (2405546, 2018-03-11)" sodipodi:docname="indicator-016.svg"><sodipodi:namedview id="base" pagecolor="#ffffff" bordercolor="#666666" borderopacity="1.0" inkscape:pageopacity="0.0" inkscape:pageshadow="2" inkscape:zoom="0.88357843" inkscape:cx="528" inkscape:cy="408" inkscape:document-units="in" inkscape:current-layer="layer3" showgrid="false" units="in" inkscape:snap-others="true" inkscape:snap-grids="true" inkscape:window-width="1920" inkscape:window-height="986" inkscape:window-x="-11" inkscape:window-y="-11" inkscape:window-maximized="1" inkscape:snap-midpoints="true" inkscape:object-nodes="true" inkscape:snap-text-baseline="true" inkscape:snap-smooth-nodes="false" showguides="false" inkscape:snap-object-midpoints="true" inkscape:snap-center="true" inkscape:snap-to-guides="false" inkscape:snap-nodes="true" inkscape:snap-intersection-paths="true">
    <inkscape:grid type="xygrid" id="grid10" units="pt" spacingx="1.5875" spacingy="1.5875"/>
    <sodipodi:guide position="380.20625,103.1875" orientation="0,1" id="guide9455" inkscape:locked="false"/>
  </sodipodi:namedview>
  <metadata id="metadata5">
    <rdf:RDF>
      <cc:Work rdf:about="">
        <dc:format>image/svg+xml</dc:format>
        <dc:type rdf:resource="http://purl.org/dc/dcmitype/StillImage"/>
        <dc:title/>
      </cc:Work>
    </rdf:RDF>
  </metadata>
  <g inkscape:groupmode="layer" inkscape:label="indicator-" transform="matrix(1.000000,0.000000,0.000000,1.000000,-263.524987,-92.074976)"><g id="g2195" inkscape:label="016">
      <rect y="173.17497" x="263.52499" height="19.050001" width="19.050001" id="rect1057" style="display:inline;opacity:1;fill:#ffffff;fill-opacity:1;stroke:none;stroke-width:0.17638889;stroke-linecap:butt;stroke-linejoin:miter;stroke-miterlimit:47.14606857;stroke-dasharray:none;stroke-dashoffset:0;stroke-opacity:1;paint-order:markers fill stroke" transform="translate(0,-81.099993)"/>
      <g id="text1107" style="font-style:normal;font-variant:normal;font-weight:normal;font-stretch:ultra-condensed;font-size:19.05000114px;line-height:125%;font-family:'Stint Ultra Condensed';-inkscape-font-specification:'Stint Ultra Condensed, Ultra-Condensed';font-variant-ligatures:normal;font-variant-caps:normal;font-variant-numeric:normal;font-feature-settings:normal;text-align:center;letter-spacing:0px;word-spacing:0px;writing-mode:lr-tb;text-anchor:middle;fill:#3771c8;fill-opacity:1;stroke:none;stroke-width:0.26458335" aria-label="3">
        <path inkscape:connector-curvature="0" id="path1727" style="font-style:normal;font-variant:normal;font-weight:normal;font-stretch:ultra-condensed;font-size:19.05000114px;font-family:'Stint Ultra Condensed';-inkscape-font-specification:'Stint Ultra Condensed, Ultra-Condensed';font-variant-ligatures:normal;font-variant-caps:normal;font-variant-numeric:normal;font-feature-settings:normal;text-align:center;writing-mode:lr-tb;text-anchor:middle;stroke-width:0.26458335;fill:#3771c8" d="m 273.23599,100.0063 q 0.74414,0.18603 1.18133,0.64182 0.44648,0.44648 0.66972,1.02319 0.23255,0.56741 0.29766,1.19063 0.0744,0.61391 0.0744,1.12551 0,1.00459 -0.17673,1.79524 -0.17673,0.78134 -0.5116,1.32085 -0.33486,0.5395 -0.80925,0.81855 -0.46509,0.27905 -1.0511,0.27905 -0.49299,0 -0.93017,-0.24184 -0.42789,-0.23255 -0.75345,-0.76275 -0.32556,-0.5302 -0.51159,-1.36735 -0.18604,-0.84646 -0.18604,-2.05569 h 1.14412 q 0,1.77663 0.31626,2.59519 0.31626,0.81855 0.97668,0.81855 0.36277,0 0.61392,-0.25114 0.25114,-0.26045 0.39997,-0.69764 0.15813,-0.43718 0.22325,-1.01389 0.0744,-0.57671 0.0744,-1.21853 0,-0.69763 -0.11162,-1.26504 -0.11162,-0.57671 -0.36277,-0.98598 -0.24185,-0.40928 -0.64182,-0.63252 -0.39998,-0.23255 -0.97669,-0.24185 v -1.004589 l 1.90686,-3.64629 h -2.30683 v 2.00918 h -1.01389 v -3.06958 h 4.63227 v 0.799951 z"/>
      </g>
    </g>
    </g></svg>
