<?xml version='1.0' encoding='UTF-8'?>
<!-- Created with Inkscape (http://www.inkscape.org/) and export_objects.py -->
<svg xmlns:cc="http://creativecommons.org/ns#" xmlns:dc="http://purl.org/dc/elements/1.1/" xmlns:inkscape="http://www.inkscape.org/namespaces/inkscape" xmlns:rdf="http://www.w3.org/1999/02/22-rdf-syntax-ns#" xmlns:sodipodi="http://sodipodi.sourceforge.net/DTD/sodipodi-0.dtd" xmlns:xlink="http://www.w3.org/1999/xlink" xmlns="http://www.w3.org/2000/svg" version="1.1" width="0.75000003125in" height="0.75000003125in" viewBox="0 0 19.0500007937 19.0500007937" id="svg8" inkscape:version="0.92.3 (2405546, 2018-03-11)" sodipodi:docname="indicator-007.svg"><sodipodi:namedview id="base" pagecolor="#ffffff" bordercolor="#666666" borderopacity="1.0" inkscape:pageopacity="0.0" inkscape:pageshadow="2" inkscape:zoom="0.88357843" inkscape:cx="528" inkscape:cy="408" inkscape:document-units="in" inkscape:current-layer="layer3" showgrid="false" units="in" inkscape:snap-others="true" inkscape:snap-grids="true" inkscape:window-width="1920" inkscape:window-height="986" inkscape:window-x="-11" inkscape:window-y="-11" inkscape:window-maximized="1" inkscape:snap-midpoints="true" inkscape:object-nodes="true" inkscape:snap-text-baseline="true" inkscape:snap-smooth-nodes="false" showguides="false" inkscape:snap-object-midpoints="true" inkscape:snap-center="true" inkscape:snap-to-guides="false" inkscape:snap-nodes="true" inkscape:snap-intersection-paths="true">
    <inkscape:grid type="xygrid" id="grid10" units="pt" spacingx="1.5875" spacingy="1.5875"/>
    <sodipodi:guide position="380.20625,103.1875" orientation="0,1" id="guide9455" inkscape:locked="false"/>
  </sodipodi:namedview>
  <metadata id="metadata5">
    <rdf:RDF>
      <cc:Work rdf:about="">
        <dc:format>image/svg+xml</dc:format>
        <dc:type rdf:resource="http://purl.org/dc/dcmitype/StillImage"/>
        <dc:title/>
      </cc:Work>
    </rdf:RDF>
  </metadata>
  <g inkscape:groupmode="layer" inkscape:label="indicator-" transform="matrix(1.000000,0.000000,0.000000,1.000000,-60.325000,-92.074992)"><g id="g1771" inkscape:label="007">
      <rect style="display:inline;opacity:1;fill:#ffffff;fill-opacity:1;stroke:none;stroke-width:0.17638889;stroke-linecap:butt;stroke-linejoin:miter;stroke-miterlimit:47.14606857;stroke-dasharray:none;stroke-dashoffset:0;stroke-opacity:1;paint-order:markers fill stroke" id="rect1039" width="19.050001" height="19.050001" x="60.325001" y="173.17499" transform="translate(0,-81.099993)"/>
      <g id="text1071" style="font-style:normal;font-variant:normal;font-weight:normal;font-stretch:ultra-condensed;font-size:19.05000114px;line-height:125%;font-family:'Stint Ultra Condensed';-inkscape-font-specification:'Stint Ultra Condensed, Ultra-Condensed';font-variant-ligatures:normal;font-variant-caps:normal;font-variant-numeric:normal;font-feature-settings:normal;text-align:center;letter-spacing:0px;word-spacing:0px;writing-mode:lr-tb;text-anchor:middle;fill:#3771c8;fill-opacity:1;stroke:none;stroke-width:0.26458335" aria-label="Q">
        <path inkscape:connector-curvature="0" id="path1756" style="font-style:normal;font-variant:normal;font-weight:normal;font-stretch:ultra-condensed;font-size:19.05000114px;font-family:'Stint Ultra Condensed';-inkscape-font-specification:'Stint Ultra Condensed, Ultra-Condensed';font-variant-ligatures:normal;font-variant-caps:normal;font-variant-numeric:normal;font-feature-settings:normal;text-align:center;writing-mode:lr-tb;text-anchor:middle;stroke-width:0.26458335;fill:#3771c8" d="m 73.105629,101.56896 q 0,1.63711 -0.232544,2.83704 -0.223242,1.19992 -0.623218,2.01848 0.47439,0.28835 0.985987,0.49299 0.511596,0.20464 1.013891,0.28836 l -0.465087,1.16272 q -0.530201,-0.18604 -1.051099,-0.47439 -0.511597,-0.28836 -1.00459,-0.63252 -0.390674,0.47439 -0.865064,0.70693 -0.465088,0.23254 -0.995288,0.23254 -0.697632,0 -1.292944,-0.39067 -0.595313,-0.39067 -1.032495,-1.19993 -0.437183,-0.81855 -0.68833,-2.06499 -0.251148,-1.25573 -0.251148,-2.97656 0,-1.711523 0.251148,-2.957959 0.251147,-1.255737 0.68833,-2.074292 0.446484,-0.818555 1.041797,-1.209229 0.595312,-0.390674 1.283642,-0.390674 0.679029,0 1.274341,0.390674 0.595313,0.390674 1.023194,1.209229 0.437182,0.809253 0.68833,2.06499 0.251147,1.246436 0.251147,2.967261 z m -1.283642,0 q 0,-2.716113 -0.492994,-4.139282 -0.492993,-1.423169 -1.460376,-1.423169 -0.995288,0 -1.488281,1.441772 -0.492993,1.432471 -0.492993,4.120679 0,2.71611 0.492993,4.13928 0.492993,1.42317 1.488281,1.42317 0.586011,0 1.023194,-0.57671 -0.455786,-0.41858 -0.818555,-0.89297 l 0.47439,-0.74414 q 0.306958,0.44649 0.762744,0.83716 0.511597,-1.41387 0.511597,-4.18579 z"/>
      </g>
    </g>
    </g></svg>
