<?xml version='1.0' encoding='UTF-8'?>
<!-- Created with Inkscape (http://www.inkscape.org/) and export_objects.py -->
<svg xmlns:cc="http://creativecommons.org/ns#" xmlns:dc="http://purl.org/dc/elements/1.1/" xmlns:inkscape="http://www.inkscape.org/namespaces/inkscape" xmlns:rdf="http://www.w3.org/1999/02/22-rdf-syntax-ns#" xmlns:sodipodi="http://sodipodi.sourceforge.net/DTD/sodipodi-0.dtd" xmlns:xlink="http://www.w3.org/1999/xlink" xmlns="http://www.w3.org/2000/svg" version="1.1" width="0.75000003125in" height="0.75000003125in" viewBox="0 0 19.0500007937 19.0500007937" id="svg8" inkscape:version="0.92.3 (2405546, 2018-03-11)" sodipodi:docname="indicator-018.svg"><sodipodi:namedview id="base" pagecolor="#ffffff" bordercolor="#666666" borderopacity="1.0" inkscape:pageopacity="0.0" inkscape:pageshadow="2" inkscape:zoom="0.88357843" inkscape:cx="528" inkscape:cy="408" inkscape:document-units="in" inkscape:current-layer="layer3" showgrid="false" units="in" inkscape:snap-others="true" inkscape:snap-grids="true" inkscape:window-width="1920" inkscape:window-height="986" inkscape:window-x="-11" inkscape:window-y="-11" inkscape:window-maximized="1" inkscape:snap-midpoints="true" inkscape:object-nodes="true" inkscape:snap-text-baseline="true" inkscape:snap-smooth-nodes="false" showguides="false" inkscape:snap-object-midpoints="true" inkscape:snap-center="true" inkscape:snap-to-guides="false" inkscape:snap-nodes="true" inkscape:snap-intersection-paths="true">
    <inkscape:grid type="xygrid" id="grid10" units="pt" spacingx="1.5875" spacingy="1.5875"/>
    <sodipodi:guide position="380.20625,103.1875" orientation="0,1" id="guide9455" inkscape:locked="false"/>
  </sodipodi:namedview>
  <metadata id="metadata5">
    <rdf:RDF>
      <cc:Work rdf:about="">
        <dc:format>image/svg+xml</dc:format>
        <dc:type rdf:resource="http://purl.org/dc/dcmitype/StillImage"/>
        <dc:title/>
      </cc:Work>
    </rdf:RDF>
  </metadata>
  <g inkscape:groupmode="layer" inkscape:label="indicator-" transform="matrix(1.000000,0.000000,0.000000,1.000000,-38.099997,-47.624997)"><g id="g1722" inkscape:label="018">
      <rect style="display:inline;opacity:1;fill:#ffffff;fill-opacity:1;stroke:none;stroke-width:0.17638889;stroke-linecap:butt;stroke-linejoin:miter;stroke-miterlimit:47.14606857;stroke-dasharray:none;stroke-dashoffset:0;stroke-opacity:1;paint-order:markers fill stroke" id="rect1651" width="19.050001" height="19.050001" x="38.099998" y="128.72499" transform="translate(0,-81.099993)"/>
      <path inkscape:export-ydpi="96" inkscape:export-xdpi="96" inkscape:export-filename="C:\mine\Vira\Vira table excerpts\diamond-icon.png" inkscape:connector-curvature="0" id="path777" d="m 42.8625,58.737509 -2.683822,3.175003 2.683822,3.174997 2.683842,-3.174997 z" style="display:inline;opacity:1;fill:#800000;fill-opacity:1;stroke:none;stroke-width:0.07055555;stroke-linecap:butt;stroke-linejoin:miter;stroke-miterlimit:4;stroke-dasharray:none;stroke-dashoffset:0;paint-order:normal"/>
      <path inkscape:export-ydpi="96" inkscape:export-xdpi="96" inkscape:export-filename="C:\mine\Vira\Vira table excerpts\Tourne.png" id="path779" d="m 52.387502,58.737508 c -0.607365,0 -1.138965,0.407928 -1.296165,0.994588 -0.157185,0.586674 0.09925,1.205747 0.6252,1.509428 -0.525985,-0.303681 -1.190374,-0.21618 -1.619837,0.213287 -0.429462,0.42946 -0.5169,1.09384 -0.213225,1.619828 0.303688,0.525987 0.922776,0.7824 1.509437,0.625214 0.353125,-0.09463 0.641315,-0.325007 0.81494,-0.625814 l -0.539465,2.01347 h 1.438226 l -0.539525,-2.013637 c 0.173615,0.300887 0.461805,0.531327 0.815005,0.625981 0.58666,0.157186 1.2058,-0.09925 1.509485,-0.625214 0.303674,-0.525988 0.216189,-1.190368 -0.213285,-1.619828 -0.429465,-0.429474 -1.09385,-0.516968 -1.61984,-0.213287 0.52599,-0.303681 0.78245,-0.922768 0.625265,-1.509428 -0.1572,-0.58666 -0.688865,-0.994588 -1.296216,-0.994588 z" style="opacity:1;fill:#000000;fill-opacity:1;stroke:none;stroke-width:0.07055556;stroke-linecap:butt;stroke-linejoin:miter;stroke-miterlimit:4;stroke-dasharray:none;stroke-dashoffset:0;paint-order:normal" inkscape:connector-curvature="0"/>
      <path inkscape:export-ydpi="96" inkscape:export-xdpi="96" inkscape:export-filename="C:\mine\Vira\Vira table excerpts\heart-icon.png" inkscape:connector-curvature="0" id="path775" d="m 52.3875,55.562509 -2.504132,-4.337138 0.001,-3.2e-4 a 1.3419151,1.3419151 0 0 1 -0.181001,-0.670627 1.3419151,1.3419151 0 0 1 1.341906,-1.341915 1.3419151,1.3419151 0 0 1 1.341917,1.341915 1.3419151,1.3419151 0 0 1 1.341916,-1.341915 1.3419151,1.3419151 0 0 1 1.341916,1.341915 1.3419151,1.3419151 0 0 1 -0.181011,0.670627 l 10e-4,3.2e-4 z" style="display:inline;opacity:1;fill:#800000;fill-opacity:1;stroke:none;stroke-width:0.07055553;stroke-linecap:butt;stroke-linejoin:miter;stroke-miterlimit:4;stroke-dasharray:none;stroke-dashoffset:0;paint-order:normal"/>
      <path inkscape:export-ydpi="96" inkscape:export-xdpi="96" inkscape:export-filename="C:\mine\Vira\Vira table excerpts\Tourne.png" id="path773" d="m 42.8625,49.212509 -2.366752,2.79991 h 2.25e-4 a 1.3419122,1.3419122 0 0 0 -0.317239,0.866267 1.3419122,1.3419122 0 0 0 1.341914,1.341914 1.3419122,1.3419122 0 0 0 1.163801,-0.677173 l -0.541062,2.019082 h 1.438288 l -0.5404,-2.016909 a 1.3419122,1.3419122 0 0 0 1.163202,0.675 1.3419122,1.3419122 0 0 0 1.3419,-1.341914 1.3419122,1.3419122 0 0 0 -0.317237,-0.866267 h 1.75e-4 z" style="opacity:1;fill:#000000;fill-opacity:1;stroke:none;stroke-width:0.07055559;stroke-linecap:butt;stroke-linejoin:miter;stroke-miterlimit:4;stroke-dasharray:none;stroke-dashoffset:0;paint-order:normal" inkscape:connector-curvature="0"/>
      <circle transform="rotate(45)" r="3.1750028" cy="6.7351985" cx="74.08712" id="path784" style="opacity:1;fill:none;fill-opacity:1;stroke:#ff0000;stroke-width:0.79375005;stroke-linecap:butt;stroke-linejoin:round;stroke-miterlimit:1;stroke-dasharray:none;stroke-dashoffset:0;stroke-opacity:1;paint-order:markers fill stroke"/>
      <path inkscape:connector-curvature="0" id="path1591" d="m 49.870066,54.904943 -4.490133,4.490132" style="opacity:1;fill:none;fill-opacity:1;stroke:#ff0000;stroke-width:0.79375005;stroke-linecap:butt;stroke-linejoin:round;stroke-miterlimit:1;stroke-dasharray:none;stroke-dashoffset:0;stroke-opacity:1;paint-order:markers fill stroke"/>
    </g>
  </g></svg>
