<?xml version='1.0' encoding='UTF-8'?>
<!-- Created with Inkscape (http://www.inkscape.org/) and export_objects.py -->
<svg xmlns:cc="http://creativecommons.org/ns#" xmlns:dc="http://purl.org/dc/elements/1.1/" xmlns:inkscape="http://www.inkscape.org/namespaces/inkscape" xmlns:rdf="http://www.w3.org/1999/02/22-rdf-syntax-ns#" xmlns:sodipodi="http://sodipodi.sourceforge.net/DTD/sodipodi-0.dtd" xmlns:xlink="http://www.w3.org/1999/xlink" xmlns="http://www.w3.org/2000/svg" version="1.1" width="0.75000003125in" height="0.75000003125in" viewBox="0 0 19.0500007937 19.0500007937" id="svg8" inkscape:version="0.92.3 (2405546, 2018-03-11)" sodipodi:docname="indicator-013.svg"><sodipodi:namedview id="base" pagecolor="#ffffff" bordercolor="#666666" borderopacity="1.0" inkscape:pageopacity="0.0" inkscape:pageshadow="2" inkscape:zoom="0.88357843" inkscape:cx="528" inkscape:cy="408" inkscape:document-units="in" inkscape:current-layer="layer3" showgrid="false" units="in" inkscape:snap-others="true" inkscape:snap-grids="true" inkscape:window-width="1920" inkscape:window-height="986" inkscape:window-x="-11" inkscape:window-y="-11" inkscape:window-maximized="1" inkscape:snap-midpoints="true" inkscape:object-nodes="true" inkscape:snap-text-baseline="true" inkscape:snap-smooth-nodes="false" showguides="false" inkscape:snap-object-midpoints="true" inkscape:snap-center="true" inkscape:snap-to-guides="false" inkscape:snap-nodes="true" inkscape:snap-intersection-paths="true">
    <inkscape:grid type="xygrid" id="grid10" units="pt" spacingx="1.5875" spacingy="1.5875"/>
    <sodipodi:guide position="380.20625,103.1875" orientation="0,1" id="guide9455" inkscape:locked="false"/>
  </sodipodi:namedview>
  <metadata id="metadata5">
    <rdf:RDF>
      <cc:Work rdf:about="">
        <dc:format>image/svg+xml</dc:format>
        <dc:type rdf:resource="http://purl.org/dc/dcmitype/StillImage"/>
        <dc:title/>
      </cc:Work>
    </rdf:RDF>
  </metadata>
  <g inkscape:groupmode="layer" inkscape:label="indicator-" transform="matrix(1.000000,0.000000,0.000000,1.000000,-193.674984,-92.074976)"><g id="g2171" inkscape:label="013">
      <rect y="173.17497" x="193.67499" height="19.050001" width="19.050001" id="rect1051" style="display:inline;opacity:1;fill:#ffffff;fill-opacity:1;stroke:none;stroke-width:0.17638889;stroke-linecap:butt;stroke-linejoin:miter;stroke-miterlimit:47.14606857;stroke-dasharray:none;stroke-dashoffset:0;stroke-opacity:1;paint-order:markers fill stroke" transform="translate(0,-81.099993)"/>
      <g id="text1095" style="font-style:normal;font-variant:normal;font-weight:normal;font-stretch:ultra-condensed;font-size:19.05000114px;line-height:125%;font-family:'Stint Ultra Condensed';-inkscape-font-specification:'Stint Ultra Condensed, Ultra-Condensed';font-variant-ligatures:normal;font-variant-caps:normal;font-variant-numeric:normal;font-feature-settings:normal;text-align:center;letter-spacing:0px;word-spacing:0px;writing-mode:lr-tb;text-anchor:middle;fill:#3771c8;fill-opacity:1;stroke:none;stroke-width:0.26458335" aria-label="6">
        <path inkscape:connector-curvature="0" id="path1736" style="font-style:normal;font-variant:normal;font-weight:normal;font-stretch:ultra-condensed;font-size:19.05000114px;font-family:'Stint Ultra Condensed';-inkscape-font-specification:'Stint Ultra Condensed, Ultra-Condensed';font-variant-ligatures:normal;font-variant-caps:normal;font-variant-numeric:normal;font-feature-settings:normal;text-align:center;writing-mode:lr-tb;text-anchor:middle;stroke-width:0.26458335;fill:#3771c8" d="m 201.87915,101.3178 q 0.0651,-0.16743 0.18603,-0.42788 0.13023,-0.26045 0.33487,-0.5023 0.21394,-0.25115 0.51159,-0.418578 0.29766,-0.176733 0.70694,-0.176733 0.45578,0 0.85576,0.260451 0.39997,0.26045 0.68833,0.78135 0.29765,0.52089 0.46509,1.31154 0.17673,0.78135 0.17673,1.84175 0,0.87437 -0.16743,1.64641 -0.15813,0.76275 -0.46509,1.33946 -0.30696,0.5674 -0.75344,0.90227 -0.44649,0.32556 -1.01389,0.32556 -0.56741,0 -1.0604,-0.38137 -0.4837,-0.39068 -0.84646,-1.16272 -0.36277,-0.78135 -0.57671,-1.95337 -0.20464,-1.17202 -0.20464,-2.75332 0,-1.61851 0.15813,-2.911453 0.15813,-1.302247 0.48369,-2.213819 0.33486,-0.911572 0.83716,-1.395264 0.51159,-0.492993 1.20923,-0.492993 0.44648,0 0.84646,0.251148 0.39997,0.241845 0.69763,0.725537 0.30696,0.483691 0.47439,1.209228 0.17673,0.716236 0.17673,1.665015 h -1.14412 q 0,-1.385962 -0.27905,-2.111499 -0.26975,-0.725537 -0.82785,-0.725537 -0.39068,0 -0.66973,0.437183 -0.27905,0.42788 -0.45579,1.162719 -0.17673,0.734839 -0.26045,1.711524 -0.0837,0.967381 -0.0837,2.055691 z m 1.50688,-0.5116 q -0.28835,0 -0.5209,0.26975 -0.23254,0.26975 -0.41858,0.66043 -0.17673,0.39067 -0.29765,0.83715 -0.12092,0.44649 -0.17674,0.79996 -0.0186,0.69763 0.0744,1.37666 0.10232,0.67902 0.28835,1.22783 0.19534,0.5395 0.46509,0.87436 0.27905,0.33487 0.60462,0.33487 0.29765,0 0.5302,-0.22325 0.23254,-0.23254 0.39067,-0.65112 0.15813,-0.41858 0.23254,-1.00459 0.0837,-0.59531 0.0837,-1.32085 0,-0.74414 -0.0744,-1.33015 -0.0744,-0.59531 -0.23255,-1.00459 -0.14883,-0.40928 -0.39067,-0.62322 -0.23255,-0.22324 -0.55811,-0.22324 z"/>
      </g>
    </g>
    </g></svg>
