<?xml version='1.0' encoding='UTF-8'?>
<!-- Created with Inkscape (http://www.inkscape.org/) and export_objects.py -->
<svg xmlns:cc="http://creativecommons.org/ns#" xmlns:dc="http://purl.org/dc/elements/1.1/" xmlns:inkscape="http://www.inkscape.org/namespaces/inkscape" xmlns:rdf="http://www.w3.org/1999/02/22-rdf-syntax-ns#" xmlns:sodipodi="http://sodipodi.sourceforge.net/DTD/sodipodi-0.dtd" xmlns:xlink="http://www.w3.org/1999/xlink" xmlns="http://www.w3.org/2000/svg" version="1.1" width="0.75000003125in" height="0.75000003125in" viewBox="0 0 19.0500007937 19.0500007937" id="svg8" inkscape:version="0.92.3 (2405546, 2018-03-11)" sodipodi:docname="indicator-011.svg"><sodipodi:namedview id="base" pagecolor="#ffffff" bordercolor="#666666" borderopacity="1.0" inkscape:pageopacity="0.0" inkscape:pageshadow="2" inkscape:zoom="0.88357843" inkscape:cx="528" inkscape:cy="408" inkscape:document-units="in" inkscape:current-layer="layer3" showgrid="false" units="in" inkscape:snap-others="true" inkscape:snap-grids="true" inkscape:window-width="1920" inkscape:window-height="986" inkscape:window-x="-11" inkscape:window-y="-11" inkscape:window-maximized="1" inkscape:snap-midpoints="true" inkscape:object-nodes="true" inkscape:snap-text-baseline="true" inkscape:snap-smooth-nodes="false" showguides="false" inkscape:snap-object-midpoints="true" inkscape:snap-center="true" inkscape:snap-to-guides="false" inkscape:snap-nodes="true" inkscape:snap-intersection-paths="true">
    <inkscape:grid type="xygrid" id="grid10" units="pt" spacingx="1.5875" spacingy="1.5875"/>
    <sodipodi:guide position="380.20625,103.1875" orientation="0,1" id="guide9455" inkscape:locked="false"/>
  </sodipodi:namedview>
  <metadata id="metadata5">
    <rdf:RDF>
      <cc:Work rdf:about="">
        <dc:format>image/svg+xml</dc:format>
        <dc:type rdf:resource="http://purl.org/dc/dcmitype/StillImage"/>
        <dc:title/>
      </cc:Work>
    </rdf:RDF>
  </metadata>
  <g inkscape:groupmode="layer" inkscape:label="indicator-" transform="matrix(1.000000,0.000000,0.000000,1.000000,-149.224987,-92.074976)"><g id="g2159" inkscape:label="011">
      <rect y="173.17497" x="149.22499" height="19.050001" width="19.050001" id="rect1047" style="display:inline;opacity:1;fill:#ffffff;fill-opacity:1;stroke:none;stroke-width:0.17638889;stroke-linecap:butt;stroke-linejoin:miter;stroke-miterlimit:47.14606857;stroke-dasharray:none;stroke-dashoffset:0;stroke-opacity:1;paint-order:markers fill stroke" transform="translate(0,-81.099993)"/>
      <g id="text1087" style="font-style:normal;font-variant:normal;font-weight:normal;font-stretch:ultra-condensed;font-size:19.05000114px;line-height:125%;font-family:'Stint Ultra Condensed';-inkscape-font-specification:'Stint Ultra Condensed, Ultra-Condensed';font-variant-ligatures:normal;font-variant-caps:normal;font-variant-numeric:normal;font-feature-settings:normal;text-align:center;letter-spacing:0px;word-spacing:0px;writing-mode:lr-tb;text-anchor:middle;fill:#3771c8;fill-opacity:1;stroke:none;stroke-width:0.26458335" aria-label="8">
        <path inkscape:connector-curvature="0" id="path1742" style="font-style:normal;font-variant:normal;font-weight:normal;font-stretch:ultra-condensed;font-size:19.05000114px;font-family:'Stint Ultra Condensed';-inkscape-font-specification:'Stint Ultra Condensed, Ultra-Condensed';font-variant-ligatures:normal;font-variant-caps:normal;font-variant-numeric:normal;font-feature-settings:normal;text-align:center;writing-mode:lr-tb;text-anchor:middle;stroke-width:0.26458335;fill:#3771c8" d="m 159.66156,100.97363 q 0.84646,0.31626 1.26504,1.22783 0.42788,0.91158 0.42788,2.26033 0,0.82786 -0.17674,1.51619 -0.17673,0.68833 -0.51159,1.18132 -0.33487,0.49299 -0.81856,0.77205 -0.48369,0.26975 -1.09761,0.26975 -0.61391,0 -1.0976,-0.26975 -0.48369,-0.27906 -0.82786,-0.77205 -0.33486,-0.49299 -0.5116,-1.18132 -0.17673,-0.68833 -0.17673,-1.51619 0,-0.66972 0.11162,-1.24643 0.11162,-0.57671 0.32556,-1.0232 0.21394,-0.45578 0.5302,-0.77204 0.31626,-0.32556 0.72554,-0.48369 -0.33486,-0.19534 -0.58601,-0.5023 -0.24185,-0.31626 -0.40928,-0.679028 -0.15813,-0.37207 -0.24184,-0.781348 -0.0744,-0.409277 -0.0744,-0.799951 0,-0.716235 0.15813,-1.311548 0.15813,-0.595312 0.44649,-1.023193 0.29765,-0.427881 0.70693,-0.660425 0.40928,-0.241846 0.90227,-0.241846 0.49299,0 0.90227,0.241846 0.40928,0.232544 0.70694,0.660425 0.29765,0.427881 0.46508,1.023193 0.16743,0.595313 0.16743,1.311548 0,0.390674 -0.0837,0.809253 -0.0744,0.409277 -0.24185,0.79065 -0.15813,0.372074 -0.40927,0.688334 -0.24185,0.31626 -0.57671,0.51159 z m 0.16743,-2.734715 q 0,-0.455786 -0.0651,-0.874365 -0.0558,-0.418579 -0.18604,-0.734839 -0.12092,-0.325561 -0.33486,-0.511596 -0.20464,-0.186036 -0.493,-0.186036 -0.29765,0 -0.51159,0.186036 -0.20464,0.186035 -0.33487,0.511596 -0.13022,0.31626 -0.18603,0.734839 -0.0558,0.418579 -0.0558,0.874365 0,0.455787 0.0651,0.874366 0.0651,0.418579 0.19534,0.734839 0.13952,0.31626 0.34416,0.50229 0.20464,0.18604 0.48369,0.18604 0.27906,0 0.4837,-0.18604 0.20463,-0.18603 0.33486,-0.50229 0.13022,-0.31626 0.19534,-0.734839 0.0651,-0.418579 0.0651,-0.874366 z m -1.07901,3.237015 q -0.67902,0 -1.0604,0.75344 -0.37207,0.75344 -0.37207,2.1022 0,1.33945 0.36277,2.1115 0.36277,0.76274 1.0697,0.76274 0.69764,0 1.06041,-0.76274 0.36276,-0.77205 0.36276,-2.1115 0,-0.66973 -0.10232,-1.19993 -0.093,-0.5302 -0.27905,-0.89297 -0.18603,-0.37207 -0.45578,-0.56741 -0.26045,-0.19533 -0.58602,-0.19533 z"/>
      </g>
    </g>
    </g></svg>
