<?xml version='1.0' encoding='UTF-8'?>
<!-- Created with Inkscape (http://www.inkscape.org/) and export_objects.py -->
<svg xmlns:cc="http://creativecommons.org/ns#" xmlns:dc="http://purl.org/dc/elements/1.1/" xmlns:inkscape="http://www.inkscape.org/namespaces/inkscape" xmlns:rdf="http://www.w3.org/1999/02/22-rdf-syntax-ns#" xmlns:sodipodi="http://sodipodi.sourceforge.net/DTD/sodipodi-0.dtd" xmlns:xlink="http://www.w3.org/1999/xlink" xmlns="http://www.w3.org/2000/svg" version="1.1" width="0.75000003125in" height="0.75000003125in" viewBox="0 0 19.0500007937 19.0500007937" id="svg8" inkscape:version="0.92.3 (2405546, 2018-03-11)" sodipodi:docname="indicator-009.svg"><sodipodi:namedview id="base" pagecolor="#ffffff" bordercolor="#666666" borderopacity="1.0" inkscape:pageopacity="0.0" inkscape:pageshadow="2" inkscape:zoom="0.88357843" inkscape:cx="528" inkscape:cy="408" inkscape:document-units="in" inkscape:current-layer="layer3" showgrid="false" units="in" inkscape:snap-others="true" inkscape:snap-grids="true" inkscape:window-width="1920" inkscape:window-height="986" inkscape:window-x="-11" inkscape:window-y="-11" inkscape:window-maximized="1" inkscape:snap-midpoints="true" inkscape:object-nodes="true" inkscape:snap-text-baseline="true" inkscape:snap-smooth-nodes="false" showguides="false" inkscape:snap-object-midpoints="true" inkscape:snap-center="true" inkscape:snap-to-guides="false" inkscape:snap-nodes="true" inkscape:snap-intersection-paths="true">
    <inkscape:grid type="xygrid" id="grid10" units="pt" spacingx="1.5875" spacingy="1.5875"/>
    <sodipodi:guide position="380.20625,103.1875" orientation="0,1" id="guide9455" inkscape:locked="false"/>
  </sodipodi:namedview>
  <metadata id="metadata5">
    <rdf:RDF>
      <cc:Work rdf:about="">
        <dc:format>image/svg+xml</dc:format>
        <dc:type rdf:resource="http://purl.org/dc/dcmitype/StillImage"/>
        <dc:title/>
      </cc:Work>
    </rdf:RDF>
  </metadata>
  <g inkscape:groupmode="layer" inkscape:label="indicator-" transform="matrix(1.000000,0.000000,0.000000,1.000000,-104.775008,-92.074976)"><g id="g1759" inkscape:label="009">
      <rect style="display:inline;opacity:1;fill:#ffffff;fill-opacity:1;stroke:none;stroke-width:0.17638889;stroke-linecap:butt;stroke-linejoin:miter;stroke-miterlimit:47.14606857;stroke-dasharray:none;stroke-dashoffset:0;stroke-opacity:1;paint-order:markers fill stroke" id="rect1043" width="19.050001" height="19.050001" x="104.77501" y="173.17497" transform="translate(0,-81.099993)"/>
      <g id="text1079" style="font-style:normal;font-variant:normal;font-weight:normal;font-stretch:ultra-condensed;font-size:19.05000114px;line-height:125%;font-family:'Stint Ultra Condensed';-inkscape-font-specification:'Stint Ultra Condensed, Ultra-Condensed';font-variant-ligatures:normal;font-variant-caps:normal;font-variant-numeric:normal;font-feature-settings:normal;text-align:center;letter-spacing:0px;word-spacing:0px;writing-mode:lr-tb;text-anchor:middle;fill:#3771c8;fill-opacity:1;stroke:none;stroke-width:0.26458335" aria-label="10">
        <path inkscape:connector-curvature="0" id="path1748" style="font-style:normal;font-variant:normal;font-weight:normal;font-stretch:ultra-condensed;font-size:19.05000114px;font-family:'Stint Ultra Condensed';-inkscape-font-specification:'Stint Ultra Condensed, Ultra-Condensed';font-variant-ligatures:normal;font-variant-caps:normal;font-variant-numeric:normal;font-feature-settings:normal;text-align:center;writing-mode:lr-tb;text-anchor:middle;stroke-width:0.26458335;fill:#3771c8" d="m 109.37939,106.89885 h 1.23713 V 96.192529 l -1.52549,0.958081 v -1.032495 l 1.52549,-0.94878 h 1.14412 v 11.729515 h 1.23713 v 1.0511 h -3.61838 z"/>
        <path inkscape:connector-curvature="0" id="path1750" style="font-style:normal;font-variant:normal;font-weight:normal;font-stretch:ultra-condensed;font-size:19.05000114px;font-family:'Stint Ultra Condensed';-inkscape-font-specification:'Stint Ultra Condensed, Ultra-Condensed';font-variant-ligatures:normal;font-variant-caps:normal;font-variant-numeric:normal;font-feature-settings:normal;text-align:center;writing-mode:lr-tb;text-anchor:middle;stroke-width:0.26458335;fill:#3771c8" d="m 119.18344,101.56894 q 0,1.74874 -0.20464,3.00447 -0.20464,1.25574 -0.5674,2.06499 -0.36277,0.79995 -0.86507,1.18133 -0.49299,0.38137 -1.0697,0.38137 -0.58601,0 -1.08831,-0.38137 -0.49299,-0.38138 -0.86506,-1.18133 -0.36277,-0.80925 -0.56741,-2.06499 -0.20464,-1.25573 -0.20464,-3.00447 0,-1.739424 0.20464,-2.995161 0.20464,-1.255738 0.56741,-2.064991 0.37207,-0.809253 0.86506,-1.190625 0.5023,-0.381372 1.08831,-0.381372 0.57671,0 1.0697,0.381372 0.5023,0.381372 0.86507,1.190625 0.36276,0.809253 0.5674,2.064991 0.20464,1.255737 0.20464,2.995161 z m -1.18132,0 q 0,-1.49758 -0.12092,-2.557979 -0.11163,-1.069702 -0.31626,-1.74873 -0.20464,-0.679029 -0.4837,-0.995288 -0.27905,-0.31626 -0.60461,-0.31626 -0.32556,0 -0.61392,0.31626 -0.27905,0.316259 -0.49299,0.995288 -0.20464,0.679028 -0.32556,1.74873 -0.11162,1.060399 -0.11162,2.557979 0,1.49759 0.11162,2.56729 0.12092,1.0604 0.32556,1.73943 0.21394,0.67903 0.49299,0.99529 0.28836,0.31626 0.61392,0.31626 0.32556,0 0.60461,-0.31626 0.27906,-0.31626 0.4837,-0.99529 0.20463,-0.68833 0.31626,-1.74873 0.12092,-1.0604 0.12092,-2.55799 z"/>
      </g>
    </g>
    </g></svg>
