<?xml version='1.0' encoding='UTF-8'?>
<!-- Created with Inkscape (http://www.inkscape.org/) and export_objects.py -->
<svg xmlns:cc="http://creativecommons.org/ns#" xmlns:dc="http://purl.org/dc/elements/1.1/" xmlns:inkscape="http://www.inkscape.org/namespaces/inkscape" xmlns:rdf="http://www.w3.org/1999/02/22-rdf-syntax-ns#" xmlns:sodipodi="http://sodipodi.sourceforge.net/DTD/sodipodi-0.dtd" xmlns:xlink="http://www.w3.org/1999/xlink" xmlns="http://www.w3.org/2000/svg" version="1.1" width="0.75000003125in" height="0.75000003125in" viewBox="0 0 19.0500007937 19.0500007937" id="svg8" inkscape:version="0.92.3 (2405546, 2018-03-11)" sodipodi:docname="indicator-004.svg"><sodipodi:namedview id="base" pagecolor="#ffffff" bordercolor="#666666" borderopacity="1.0" inkscape:pageopacity="0.0" inkscape:pageshadow="2" inkscape:zoom="0.88357843" inkscape:cx="528" inkscape:cy="408" inkscape:document-units="in" inkscape:current-layer="layer3" showgrid="false" units="in" inkscape:snap-others="true" inkscape:snap-grids="true" inkscape:window-width="1920" inkscape:window-height="986" inkscape:window-x="-11" inkscape:window-y="-11" inkscape:window-maximized="1" inkscape:snap-midpoints="true" inkscape:object-nodes="true" inkscape:snap-text-baseline="true" inkscape:snap-smooth-nodes="false" showguides="false" inkscape:snap-object-midpoints="true" inkscape:snap-center="true" inkscape:snap-to-guides="false" inkscape:snap-nodes="true" inkscape:snap-intersection-paths="true">
    <inkscape:grid type="xygrid" id="grid10" units="pt" spacingx="1.5875" spacingy="1.5875"/>
    <sodipodi:guide position="380.20625,103.1875" orientation="0,1" id="guide9455" inkscape:locked="false"/>
  </sodipodi:namedview>
  <metadata id="metadata5">
    <rdf:RDF>
      <cc:Work rdf:about="">
        <dc:format>image/svg+xml</dc:format>
        <dc:type rdf:resource="http://purl.org/dc/dcmitype/StillImage"/>
        <dc:title/>
      </cc:Work>
    </rdf:RDF>
  </metadata>
  <g inkscape:groupmode="layer" inkscape:label="indicator-" transform="matrix(1.000000,0.000000,0.000000,1.000000,-82.549931,-69.850003)"><g id="g1752" inkscape:label="004">
      <rect style="display:inline;opacity:1;fill:#ffffff;fill-opacity:1;stroke:none;stroke-width:0.17638889;stroke-linecap:butt;stroke-linejoin:miter;stroke-miterlimit:47.14606857;stroke-dasharray:none;stroke-dashoffset:0;stroke-opacity:1;paint-order:markers fill stroke" id="rect1119" width="19.050001" height="19.050001" x="82.549934" y="150.95" transform="translate(0,-81.099993)"/>
      <path inkscape:connector-curvature="0" style="opacity:1;fill:#000000;fill-opacity:1;stroke:none;stroke-width:0.07055556;stroke-linecap:butt;stroke-linejoin:miter;stroke-miterlimit:4;stroke-dasharray:none;stroke-dashoffset:0;paint-order:normal" d="m 92.074893,73.025 c -1.21473,0 -2.27793,0.815854 -2.59233,1.989175 -0.31437,1.173347 0.1985,2.411494 1.2504,3.018855 -1.05197,-0.607361 -2.380748,-0.432361 -3.239674,0.426573 -0.858924,0.858921 -1.033799,2.187681 -0.42645,3.239655 0.607376,1.051974 1.845552,1.564801 3.018874,1.250428 0.70625,-0.189267 1.28263,-0.650014 1.62988,-1.251628 l -1.07893,4.026939 h 2.87645 l -1.07905,-4.027272 c 0.34723,0.601774 0.92361,1.062654 1.63001,1.251961 1.17332,0.314373 2.4116,-0.198507 3.01897,-1.250428 0.607348,-1.051974 0.432378,-2.380734 -0.42657,-3.239655 -0.85893,-0.858947 -2.1877,-1.033934 -3.23968,-0.426573 1.05198,-0.607361 1.5649,-1.845535 1.25053,-3.018855 -0.3144,-1.173321 -1.37773,-1.989175 -2.59243,-1.989175 z" id="path1131" inkscape:export-filename="C:\mine\Vira\Vira table excerpts\Tourne.png" inkscape:export-xdpi="96" inkscape:export-ydpi="96"/>
    </g>
    </g></svg>
