<?xml version='1.0' encoding='UTF-8'?>
<!-- Created with Inkscape (http://www.inkscape.org/) and export_objects.py -->
<svg xmlns:cc="http://creativecommons.org/ns#" xmlns:dc="http://purl.org/dc/elements/1.1/" xmlns:inkscape="http://www.inkscape.org/namespaces/inkscape" xmlns:rdf="http://www.w3.org/1999/02/22-rdf-syntax-ns#" xmlns:sodipodi="http://sodipodi.sourceforge.net/DTD/sodipodi-0.dtd" xmlns:xlink="http://www.w3.org/1999/xlink" xmlns="http://www.w3.org/2000/svg" version="1.1" width="0.75000003125in" height="0.75000003125in" viewBox="0 0 19.0500007937 19.0500007937" id="svg8" inkscape:version="0.92.3 (2405546, 2018-03-11)" sodipodi:docname="number-050.svg"><sodipodi:namedview id="base" pagecolor="#ffffff" bordercolor="#666666" borderopacity="1.0" inkscape:pageopacity="0.0" inkscape:pageshadow="2" inkscape:zoom="1.2308896" inkscape:cx="4900.5869" inkscape:cy="472.54354" inkscape:document-units="in" inkscape:current-layer="layer3" showgrid="true" units="in" inkscape:snap-others="true" inkscape:snap-grids="true" inkscape:window-width="1280" inkscape:window-height="940" inkscape:window-x="1909" inkscape:window-y="43" inkscape:window-maximized="1" inkscape:snap-midpoints="true" inkscape:object-nodes="true" inkscape:snap-text-baseline="true" inkscape:snap-smooth-nodes="false" showguides="false" inkscape:snap-object-midpoints="true" inkscape:snap-center="true" inkscape:snap-to-guides="false" inkscape:snap-nodes="true" inkscape:snap-intersection-paths="true">
    <inkscape:grid type="xygrid" id="grid10" units="pt" spacingx="3.1750001" spacingy="3.1750001"/>
    <sodipodi:guide position="380.20625,103.1875" orientation="0,1" id="guide9455" inkscape:locked="false"/>
  </sodipodi:namedview>
  <metadata id="metadata5">
    <rdf:RDF>
      <cc:Work rdf:about="">
        <dc:format>image/svg+xml</dc:format>
        <dc:type rdf:resource="http://purl.org/dc/dcmitype/StillImage"/>
        <dc:title/>
      </cc:Work>
    </rdf:RDF>
  </metadata>
  <g inkscape:groupmode="layer" inkscape:label="number-" transform="matrix(1.000000,0.000000,0.000000,1.000000,-1193.800106,-69.850019)"><g id="g1292" transform="translate(885.82507,88.900013)" inkscape:label="050">
      <rect y="62.049999" x="307.97507" height="19.050001" width="19.050001" id="rect1656" style="display:inline;opacity:1;fill:#4d4d4d;fill-opacity:1;stroke:none;stroke-width:0.17638889;stroke-linecap:butt;stroke-linejoin:miter;stroke-miterlimit:47.14606857;stroke-dasharray:none;stroke-dashoffset:0;stroke-opacity:1;paint-order:markers fill stroke" transform="translate(0,-81.099993)"/>
      <circle r="7.9432073" cy="-9.5307198" cx="317.50009" id="circle1676" style="opacity:1;fill:#e6e6e6;fill-opacity:1;stroke:none;stroke-width:0.1763889;stroke-linecap:butt;stroke-linejoin:miter;stroke-miterlimit:47.14606857;stroke-dasharray:none;stroke-dashoffset:0;stroke-opacity:1;paint-order:markers fill stroke"/>
      <g id="text1716" style="font-style:normal;font-variant:normal;font-weight:bold;font-stretch:normal;font-size:11.99444485px;line-height:125%;font-family:Paddington;-inkscape-font-specification:'Paddington Bold';font-variant-ligatures:normal;font-variant-caps:normal;font-variant-numeric:normal;text-align:center;letter-spacing:0px;word-spacing:0px;writing-mode:lr-tb;text-anchor:middle;fill:#000000;fill-opacity:1;stroke:none;stroke-width:0.26458335" aria-label="50">
        <path inkscape:connector-curvature="0" id="path1492" style="font-style:normal;font-variant:normal;font-weight:normal;font-stretch:normal;font-size:11.99444485px;font-family:Paddington;-inkscape-font-specification:Paddington;stroke:none;stroke-width:0.26458335" d="m 316.86436,-13.304657 -0.58773,1.18745 h -2.11102 l -0.16793,1.415344 q 1.23543,0.05997 2.02706,0.7436559 0.82762,0.7316612 0.82762,1.9071168 0,1.1274778 -0.80363,1.8711334 -0.80362,0.7316611 -2.00307,0.7316611 -1.18745,0 -2.07504,-1.1754556 l 0.81562,-1.0435167 h 0.072 q 0.55175,0.9475611 1.31939,0.9475611 0.47978,0 0.83961,-0.3838222 0.37183,-0.3958167 0.37183,-0.9235722 0,-0.6237112 -0.52776,-1.0435167 -0.47977,-0.3838223 -1.11548,-0.3838223 -0.40781,0 -1.34338,0.2758723 l 0.51576,-4.1260889 z"/>
        <path inkscape:connector-curvature="0" id="path1494" style="font-style:normal;font-variant:normal;font-weight:normal;font-stretch:normal;font-size:11.99444485px;font-family:Paddington;-inkscape-font-specification:Paddington;stroke:none;stroke-width:0.26458335" d="m 323.0563,-9.4424459 q 0,1.4153445 -0.55174,2.5188334 -0.71967,1.4273389 -2.08704,1.4273389 -1.35537,0 -2.07504,-1.4273389 -0.55174,-1.1034889 -0.55174,-2.5188334 0,-1.4153441 0.55174,-2.5188331 0.71967,-1.427339 2.07504,-1.427339 1.37936,0 2.08704,1.415344 0.55174,1.103489 0.55174,2.5308281 z m -1.34338,0 q 0,-0.8755941 -0.25188,-1.6552331 -0.34784,-1.0795 -1.01953,-1.0795 -0.4198,0 -0.75565,0.575733 -0.27587,0.455789 -0.39582,1.067506 -0.10795,0.5397496 -0.10795,1.0914941 0,0.8995833 0.23989,1.6552334 0.33585,1.0675055 1.01953,1.0675055 0.69568,0 1.03152,-1.0675055 0.23989,-0.7556501 0.23989,-1.6552334 z"/>
      </g>
    </g>
    </g></svg>
