<?xml version='1.0' encoding='UTF-8'?>
<!-- Created with Inkscape (http://www.inkscape.org/) and export_objects.py -->
<svg xmlns:cc="http://creativecommons.org/ns#" xmlns:dc="http://purl.org/dc/elements/1.1/" xmlns:inkscape="http://www.inkscape.org/namespaces/inkscape" xmlns:rdf="http://www.w3.org/1999/02/22-rdf-syntax-ns#" xmlns:sodipodi="http://sodipodi.sourceforge.net/DTD/sodipodi-0.dtd" xmlns:xlink="http://www.w3.org/1999/xlink" xmlns="http://www.w3.org/2000/svg" version="1.1" width="0.749999979167in" height="0.7500000625in" viewBox="0 0 19.0499994708 19.0500015875" id="svg8" inkscape:version="0.92.3 (2405546, 2018-03-11)" sodipodi:docname="number-063.svg"><sodipodi:namedview id="base" pagecolor="#ffffff" bordercolor="#666666" borderopacity="1.0" inkscape:pageopacity="0.0" inkscape:pageshadow="2" inkscape:zoom="1.2308896" inkscape:cx="4521.2719" inkscape:cy="472.54354" inkscape:document-units="in" inkscape:current-layer="layer3" showgrid="true" units="in" inkscape:snap-others="true" inkscape:snap-grids="true" inkscape:window-width="1280" inkscape:window-height="940" inkscape:window-x="1909" inkscape:window-y="43" inkscape:window-maximized="1" inkscape:snap-midpoints="true" inkscape:object-nodes="true" inkscape:snap-text-baseline="true" inkscape:snap-smooth-nodes="false" showguides="false" inkscape:snap-object-midpoints="true" inkscape:snap-center="true" inkscape:snap-to-guides="false" inkscape:snap-nodes="true" inkscape:snap-intersection-paths="true">
    <inkscape:grid type="xygrid" id="grid10" units="pt" spacingx="3.1750001" spacingy="3.1750001"/>
    <sodipodi:guide position="380.20625,103.1875" orientation="0,1" id="guide9455" inkscape:locked="false"/>
  </sodipodi:namedview>
  <metadata id="metadata5">
    <rdf:RDF>
      <cc:Work rdf:about="">
        <dc:format>image/svg+xml</dc:format>
        <dc:type rdf:resource="http://purl.org/dc/dcmitype/StillImage"/>
        <dc:title/>
      </cc:Work>
    </rdf:RDF>
  </metadata>
  <g inkscape:groupmode="layer" inkscape:label="number-" transform="matrix(1.000000,0.000000,0.000000,1.000000,-371.475000,-47.624995)"><g id="g3758" transform="translate(212.72501,139.7)" inkscape:label="063">
      <path id="rect2254" d="m 158.75,-92.075005 h 19.05 v 19.050002 h -19.05 z" style="display:inline;opacity:1;fill:#4d4d4d;fill-opacity:1;stroke:none;stroke-width:0.1763889;stroke-linecap:butt;stroke-linejoin:miter;stroke-miterlimit:47.14606857;stroke-dasharray:none;stroke-dashoffset:0;stroke-opacity:1;paint-order:markers fill stroke" inkscape:connector-curvature="0"/>
      <path id="circle2354" d="m 176.21822,-82.555725 a 7.9432073,7.9432073 0 0 1 -7.94321,7.943207 7.9432073,7.9432073 0 0 1 -7.94321,-7.943207 7.9432073,7.9432073 0 0 1 7.94321,-7.943207 7.9432073,7.9432073 0 0 1 7.94321,7.943207 z" style="opacity:1;fill:#e6e6e6;fill-opacity:1;stroke:none;stroke-width:0.1763889;stroke-linecap:butt;stroke-linejoin:miter;stroke-miterlimit:47.14606857;stroke-dasharray:none;stroke-dashoffset:0;stroke-opacity:1;paint-order:markers fill stroke" inkscape:connector-curvature="0"/>
      <g id="text2480" style="font-style:normal;font-variant:normal;font-weight:bold;font-stretch:normal;font-size:11.9944458px;line-height:125%;font-family:Paddington;-inkscape-font-specification:'Paddington Bold';font-variant-ligatures:normal;font-variant-caps:normal;font-variant-numeric:normal;text-align:center;letter-spacing:0px;word-spacing:0px;writing-mode:lr-tb;text-anchor:middle;fill:#000000;fill-opacity:1;stroke:none;stroke-width:0.26458335" aria-label="63">
        <path id="path3442" style="font-style:normal;font-variant:normal;font-weight:normal;font-stretch:normal;font-size:11.9944458px;font-family:Paddington;-inkscape-font-specification:Paddington;stroke:none;stroke-width:0.26458335" d="m 167.8711,-80.992137 q 0,1.0795 -0.77964,1.811162 -0.76764,0.719666 -1.90711,0.719666 -1.2954,0 -2.03906,-0.923572 -0.68368,-0.839611 -0.68368,-2.075039 0,-1.319389 0.73166,-2.710745 0.74365,-1.391356 1.85914,-2.170994 h 1.97908 q -1.87113,0.935566 -2.83069,3.166533 0.52776,-0.239889 1.19945,-0.239889 1.05551,0 1.76318,0.719667 0.70767,0.707672 0.70767,1.703211 z m -1.41534,0.08396 q 0,-0.491772 -0.34784,-0.8636 -0.34784,-0.383822 -0.80363,-0.383822 -0.89958,0 -1.30739,0.515761 -0.11995,0.155928 -0.11995,0.611717 0,0.575733 0.4318,0.959556 0.4318,0.371827 0.99554,0.371827 0.46779,0 0.80363,-0.347838 0.34784,-0.359834 0.34784,-0.863601 z" inkscape:connector-curvature="0"/>
        <path id="path3444" style="font-style:normal;font-variant:normal;font-weight:normal;font-stretch:normal;font-size:11.9944458px;font-family:Paddington;-inkscape-font-specification:Paddington;stroke:none;stroke-width:0.26458335" d="m 174.1054,-86.329665 -1.7152,2.998611 q 0.70767,0.251884 1.12748,0.983545 0.39581,0.659694 0.39581,1.40335 0,1.067506 -0.80363,1.763184 -0.80362,0.683683 -1.9311,0.683683 -0.4438,0 -0.82762,-0.131939 -0.49177,-0.167922 -0.93556,-0.515761 -0.56374,-0.4318 -0.6597,-0.887589 l 0.89958,-0.947561 h 0.072 q 0.61172,1.175455 1.54728,1.175455 0.45579,0 0.80363,-0.32385 0.34784,-0.32385 0.34784,-0.791633 0,-0.827617 -0.57573,-1.175456 -0.50377,-0.299861 -1.54729,-0.299861 l 1.57128,-2.710745 h -3.01061 v -1.223433 z" inkscape:connector-curvature="0"/>
      </g>
    </g>
    </g></svg>
