<?xml version='1.0' encoding='UTF-8'?>
<!-- Created with Inkscape (http://www.inkscape.org/) and export_objects.py -->
<svg xmlns:cc="http://creativecommons.org/ns#" xmlns:dc="http://purl.org/dc/elements/1.1/" xmlns:inkscape="http://www.inkscape.org/namespaces/inkscape" xmlns:rdf="http://www.w3.org/1999/02/22-rdf-syntax-ns#" xmlns:sodipodi="http://sodipodi.sourceforge.net/DTD/sodipodi-0.dtd" xmlns:xlink="http://www.w3.org/1999/xlink" xmlns="http://www.w3.org/2000/svg" version="1.1" width="0.749999979167in" height="0.750000375in" viewBox="0 0 19.0499994708 19.050009525" id="svg8" inkscape:version="0.92.3 (2405546, 2018-03-11)" sodipodi:docname="number-095.svg"><sodipodi:namedview id="base" pagecolor="#ffffff" bordercolor="#666666" borderopacity="1.0" inkscape:pageopacity="0.0" inkscape:pageshadow="2" inkscape:zoom="1.2308896" inkscape:cx="4521.2719" inkscape:cy="472.54354" inkscape:document-units="in" inkscape:current-layer="layer3" showgrid="true" units="in" inkscape:snap-others="true" inkscape:snap-grids="true" inkscape:window-width="1280" inkscape:window-height="940" inkscape:window-x="1909" inkscape:window-y="43" inkscape:window-maximized="1" inkscape:snap-midpoints="true" inkscape:object-nodes="true" inkscape:snap-text-baseline="true" inkscape:snap-smooth-nodes="false" showguides="false" inkscape:snap-object-midpoints="true" inkscape:snap-center="true" inkscape:snap-to-guides="false" inkscape:snap-nodes="true" inkscape:snap-intersection-paths="true">
    <inkscape:grid type="xygrid" id="grid10" units="pt" spacingx="3.1750001" spacingy="3.1750001"/>
    <sodipodi:guide position="380.20625,103.1875" orientation="0,1" id="guide9455" inkscape:locked="false"/>
  </sodipodi:namedview>
  <metadata id="metadata5">
    <rdf:RDF>
      <cc:Work rdf:about="">
        <dc:format>image/svg+xml</dc:format>
        <dc:type rdf:resource="http://purl.org/dc/dcmitype/StillImage"/>
        <dc:title/>
      </cc:Work>
    </rdf:RDF>
  </metadata>
  <g inkscape:groupmode="layer" inkscape:label="number-" transform="matrix(1.000000,0.000000,0.000000,1.000000,-1082.675026,-47.624989)"><g id="g3646" transform="translate(879.47503,206.37501)" inkscape:label="095">
      <path id="rect2318" d="m 203.20001,-158.75002 h 19.05 v 19.05001 h -19.05 z" style="display:inline;opacity:1;fill:#4d4d4d;fill-opacity:1;stroke:none;stroke-width:0.1763889;stroke-linecap:butt;stroke-linejoin:miter;stroke-miterlimit:47.14606857;stroke-dasharray:none;stroke-dashoffset:0;stroke-opacity:1;paint-order:markers fill stroke" inkscape:connector-curvature="0"/>
      <path id="circle2418" d="m 220.66823,-149.23074 a 7.9432073,7.9432073 0 0 1 -7.94321,7.9432 7.9432073,7.9432073 0 0 1 -7.94321,-7.9432 7.9432073,7.9432073 0 0 1 7.94321,-7.94321 7.9432073,7.9432073 0 0 1 7.94321,7.94321 z" style="opacity:1;fill:#e6e6e6;fill-opacity:1;stroke:none;stroke-width:0.1763889;stroke-linecap:butt;stroke-linejoin:miter;stroke-miterlimit:47.14606857;stroke-dasharray:none;stroke-dashoffset:0;stroke-opacity:1;paint-order:markers fill stroke" inkscape:connector-curvature="0"/>
      <g id="text2608" style="font-style:normal;font-variant:normal;font-weight:bold;font-stretch:normal;font-size:11.9944458px;line-height:125%;font-family:Paddington;-inkscape-font-specification:'Paddington Bold';font-variant-ligatures:normal;font-variant-caps:normal;font-variant-numeric:normal;text-align:center;letter-spacing:0px;word-spacing:0px;writing-mode:lr-tb;text-anchor:middle;fill:#000000;fill-opacity:1;stroke:none;stroke-width:0.26458335" aria-label="95">
        <path id="path3282" style="font-style:normal;font-variant:normal;font-weight:normal;font-stretch:normal;font-size:11.9944458px;font-family:Paddington;-inkscape-font-specification:Paddington;stroke:none;stroke-width:0.26458335" d="m 212.40256,-150.03006 q 0,1.36737 -0.80363,2.68676 -0.75565,1.24742 -1.97908,2.08703 h -1.84714 q 2.30293,-1.65523 2.91465,-3.2385 -0.68369,0.28786 -1.13948,0.28786 -1.05551,0 -1.78717,-0.69567 -0.71967,-0.69568 -0.71967,-1.69122 0,-1.0795 0.81563,-1.79917 0.82761,-0.73166 1.97908,-0.73166 1.23543,0 1.95509,1.01953 0.61172,0.87559 0.61172,2.07504 z m -1.34338,-0.036 q -0.024,-0.71967 -0.33584,-1.23543 -0.37183,-0.58773 -0.97155,-0.58773 -0.51576,0 -0.93557,0.33584 -0.4198,0.33585 -0.4198,0.85161 0,0.50377 0.34784,0.88759 0.34783,0.38382 0.80362,0.38382 0.46779,0 0.80363,-0.15593 0.28787,-0.11994 0.70767,-0.47977 z" inkscape:connector-curvature="0"/>
        <path id="path3284" style="font-style:normal;font-variant:normal;font-weight:normal;font-stretch:normal;font-size:11.9944458px;font-family:Paddington;-inkscape-font-specification:Paddington;stroke:none;stroke-width:0.26458335" d="m 218.26222,-153.00468 -0.58772,1.18745 h -2.11103 l -0.16792,1.41534 q 1.23543,0.06 2.02706,0.74366 0.82762,0.73166 0.82762,1.90711 0,1.12748 -0.80363,1.87114 -0.80363,0.73166 -2.00307,0.73166 -1.18745,0 -2.07504,-1.17546 l 0.81562,-1.04351 h 0.072 q 0.55174,0.94756 1.31939,0.94756 0.47978,0 0.83961,-0.38382 0.37183,-0.39582 0.37183,-0.92358 0,-0.62371 -0.52776,-1.04351 -0.47978,-0.38383 -1.11548,-0.38383 -0.40781,0 -1.34338,0.27588 l 0.51576,-4.12609 z" inkscape:connector-curvature="0"/>
      </g>
    </g>
    </g></svg>
