<?xml version='1.0' encoding='UTF-8'?>
<!-- Created with Inkscape (http://www.inkscape.org/) and export_objects.py -->
<svg xmlns:cc="http://creativecommons.org/ns#" xmlns:dc="http://purl.org/dc/elements/1.1/" xmlns:inkscape="http://www.inkscape.org/namespaces/inkscape" xmlns:rdf="http://www.w3.org/1999/02/22-rdf-syntax-ns#" xmlns:sodipodi="http://sodipodi.sourceforge.net/DTD/sodipodi-0.dtd" xmlns:xlink="http://www.w3.org/1999/xlink" xmlns="http://www.w3.org/2000/svg" version="1.1" width="0.749999979167in" height="0.750000020833in" viewBox="0 0 19.0499994708 19.0500005292" id="svg8" inkscape:version="0.92.3 (2405546, 2018-03-11)" sodipodi:docname="number-060.svg"><sodipodi:namedview id="base" pagecolor="#ffffff" bordercolor="#666666" borderopacity="1.0" inkscape:pageopacity="0.0" inkscape:pageshadow="2" inkscape:zoom="1.2308896" inkscape:cx="4521.2719" inkscape:cy="472.54354" inkscape:document-units="in" inkscape:current-layer="layer3" showgrid="true" units="in" inkscape:snap-others="true" inkscape:snap-grids="true" inkscape:window-width="1280" inkscape:window-height="940" inkscape:window-x="1909" inkscape:window-y="43" inkscape:window-maximized="1" inkscape:snap-midpoints="true" inkscape:object-nodes="true" inkscape:snap-text-baseline="true" inkscape:snap-smooth-nodes="false" showguides="false" inkscape:snap-object-midpoints="true" inkscape:snap-center="true" inkscape:snap-to-guides="false" inkscape:snap-nodes="true" inkscape:snap-intersection-paths="true">
    <inkscape:grid type="xygrid" id="grid10" units="pt" spacingx="3.1750001" spacingy="3.1750001"/>
    <sodipodi:guide position="380.20625,103.1875" orientation="0,1" id="guide9455" inkscape:locked="false"/>
  </sodipodi:namedview>
  <metadata id="metadata5">
    <rdf:RDF>
      <cc:Work rdf:about="">
        <dc:format>image/svg+xml</dc:format>
        <dc:type rdf:resource="http://purl.org/dc/dcmitype/StillImage"/>
        <dc:title/>
      </cc:Work>
    </rdf:RDF>
  </metadata>
  <g inkscape:groupmode="layer" inkscape:label="number-" transform="matrix(1.000000,0.000000,0.000000,1.000000,-304.800000,-47.625003)"><g id="g3962" transform="translate(-9.5249967,117.47501)" inkscape:label="060">
      <path id="rect2248" d="m 314.32501,-69.850006 h 19.05 v 19.050001 h -19.05 z" style="display:inline;opacity:1;fill:#4d4d4d;fill-opacity:1;stroke:none;stroke-width:0.1763889;stroke-linecap:butt;stroke-linejoin:miter;stroke-miterlimit:47.14606857;stroke-dasharray:none;stroke-dashoffset:0;stroke-opacity:1;paint-order:markers fill stroke" inkscape:connector-curvature="0"/>
      <path id="circle2348" d="m 331.79324,-60.33073 a 7.9432073,7.9432073 0 0 1 -7.9432,7.943207 7.9432073,7.9432073 0 0 1 -7.94321,-7.943207 7.9432073,7.9432073 0 0 1 7.94321,-7.943208 7.9432073,7.9432073 0 0 1 7.9432,7.943208 z" style="opacity:1;fill:#e6e6e6;fill-opacity:1;stroke:none;stroke-width:0.1763889;stroke-linecap:butt;stroke-linejoin:miter;stroke-miterlimit:47.14606857;stroke-dasharray:none;stroke-dashoffset:0;stroke-opacity:1;paint-order:markers fill stroke" inkscape:connector-curvature="0"/>
      <g id="text2468" style="font-style:normal;font-variant:normal;font-weight:bold;font-stretch:normal;font-size:11.9944458px;line-height:125%;font-family:Paddington;-inkscape-font-specification:'Paddington Bold';font-variant-ligatures:normal;font-variant-caps:normal;font-variant-numeric:normal;text-align:center;letter-spacing:0px;word-spacing:0px;writing-mode:lr-tb;text-anchor:middle;fill:#000000;fill-opacity:1;stroke:none;stroke-width:0.26458335" aria-label="60">
        <path id="path3457" style="font-style:normal;font-variant:normal;font-weight:normal;font-stretch:normal;font-size:11.9944458px;font-family:Paddington;-inkscape-font-specification:Paddington;stroke:none;stroke-width:0.26458335" d="m 323.49298,-58.767138 q 0,1.0795 -0.77964,1.811161 -0.76764,0.719667 -1.90711,0.719667 -1.2954,0 -2.03906,-0.923572 -0.68368,-0.839612 -0.68368,-2.07504 0,-1.319389 0.73166,-2.710744 0.74366,-1.391356 1.85914,-2.170995 h 1.97908 q -1.87113,0.935567 -2.83069,3.166534 0.52776,-0.239889 1.19945,-0.239889 1.05551,0 1.76318,0.719667 0.70767,0.707672 0.70767,1.703211 z m -1.41534,0.08396 q 0,-0.491772 -0.34784,-0.8636 -0.34784,-0.383822 -0.80363,-0.383822 -0.89958,0 -1.30739,0.515761 -0.11995,0.155928 -0.11995,0.611716 0,0.575734 0.4318,0.959556 0.4318,0.371828 0.99554,0.371828 0.46779,0 0.80363,-0.347839 0.34784,-0.359833 0.34784,-0.8636 z" inkscape:connector-curvature="0"/>
        <path id="path3459" style="font-style:normal;font-variant:normal;font-weight:normal;font-stretch:normal;font-size:11.9944458px;font-family:Paddington;-inkscape-font-specification:Paddington;stroke:none;stroke-width:0.26458335" d="m 329.52338,-60.242455 q 0,1.415345 -0.55175,2.518834 -0.71966,1.427339 -2.08703,1.427339 -1.35537,0 -2.07504,-1.427339 -0.55174,-1.103489 -0.55174,-2.518834 0,-1.415345 0.55174,-2.518834 0.71967,-1.427339 2.07504,-1.427339 1.37936,0 2.08703,1.415345 0.55175,1.103489 0.55175,2.530828 z m -1.34338,0 q 0,-0.875595 -0.25188,-1.655234 -0.34784,-1.0795 -1.01953,-1.0795 -0.41981,0 -0.75565,0.575734 -0.27587,0.455789 -0.39582,1.067505 -0.10795,0.53975 -0.10795,1.091495 0,0.899583 0.23989,1.655234 0.33585,1.067505 1.01953,1.067505 0.69568,0 1.03152,-1.067505 0.23989,-0.755651 0.23989,-1.655234 z" inkscape:connector-curvature="0"/>
      </g>
    </g>
    </g></svg>
