<?xml version='1.0' encoding='UTF-8'?>
<!-- Created with Inkscape (http://www.inkscape.org/) and export_objects.py -->
<svg xmlns:cc="http://creativecommons.org/ns#" xmlns:dc="http://purl.org/dc/elements/1.1/" xmlns:inkscape="http://www.inkscape.org/namespaces/inkscape" xmlns:rdf="http://www.w3.org/1999/02/22-rdf-syntax-ns#" xmlns:sodipodi="http://sodipodi.sourceforge.net/DTD/sodipodi-0.dtd" xmlns:xlink="http://www.w3.org/1999/xlink" xmlns="http://www.w3.org/2000/svg" version="1.1" width="0.749999979167in" height="0.750000020833in" viewBox="0 0 19.0499994708 19.0500005292" id="svg8" inkscape:version="0.92.3 (2405546, 2018-03-11)" sodipodi:docname="number-053.svg"><sodipodi:namedview id="base" pagecolor="#ffffff" bordercolor="#666666" borderopacity="1.0" inkscape:pageopacity="0.0" inkscape:pageshadow="2" inkscape:zoom="1.2308896" inkscape:cx="4521.2719" inkscape:cy="472.54354" inkscape:document-units="in" inkscape:current-layer="layer3" showgrid="true" units="in" inkscape:snap-others="true" inkscape:snap-grids="true" inkscape:window-width="1280" inkscape:window-height="940" inkscape:window-x="1909" inkscape:window-y="43" inkscape:window-maximized="1" inkscape:snap-midpoints="true" inkscape:object-nodes="true" inkscape:snap-text-baseline="true" inkscape:snap-smooth-nodes="false" showguides="false" inkscape:snap-object-midpoints="true" inkscape:snap-center="true" inkscape:snap-to-guides="false" inkscape:snap-nodes="true" inkscape:snap-intersection-paths="true">
    <inkscape:grid type="xygrid" id="grid10" units="pt" spacingx="3.1750001" spacingy="3.1750001"/>
    <sodipodi:guide position="380.20625,103.1875" orientation="0,1" id="guide9455" inkscape:locked="false"/>
  </sodipodi:namedview>
  <metadata id="metadata5">
    <rdf:RDF>
      <cc:Work rdf:about="">
        <dc:format>image/svg+xml</dc:format>
        <dc:type rdf:resource="http://purl.org/dc/dcmitype/StillImage"/>
        <dc:title/>
      </cc:Work>
    </rdf:RDF>
  </metadata>
  <g inkscape:groupmode="layer" inkscape:label="number-" transform="matrix(1.000000,0.000000,0.000000,1.000000,-149.225000,-47.625003)"><g id="g3800" transform="translate(-9.5249967,117.47501)" inkscape:label="053">
      <path id="rect2234" d="m 158.75,-69.850006 h 19.05 v 19.050001 h -19.05 z" style="display:inline;opacity:1;fill:#4d4d4d;fill-opacity:1;stroke:none;stroke-width:0.1763889;stroke-linecap:butt;stroke-linejoin:miter;stroke-miterlimit:47.14606857;stroke-dasharray:none;stroke-dashoffset:0;stroke-opacity:1;paint-order:markers fill stroke" inkscape:connector-curvature="0"/>
      <path id="circle2334" d="m 176.21822,-60.33073 a 7.9432073,7.9432073 0 0 1 -7.94321,7.943207 7.9432073,7.9432073 0 0 1 -7.94321,-7.943207 7.9432073,7.9432073 0 0 1 7.94321,-7.943208 7.9432073,7.9432073 0 0 1 7.94321,7.943208 z" style="opacity:1;fill:#e6e6e6;fill-opacity:1;stroke:none;stroke-width:0.1763889;stroke-linecap:butt;stroke-linejoin:miter;stroke-miterlimit:47.14606857;stroke-dasharray:none;stroke-dashoffset:0;stroke-opacity:1;paint-order:markers fill stroke" inkscape:connector-curvature="0"/>
      <g id="text2440" style="font-style:normal;font-variant:normal;font-weight:bold;font-stretch:normal;font-size:11.9944458px;line-height:125%;font-family:Paddington;-inkscape-font-specification:'Paddington Bold';font-variant-ligatures:normal;font-variant-caps:normal;font-variant-numeric:normal;text-align:center;letter-spacing:0px;word-spacing:0px;writing-mode:lr-tb;text-anchor:middle;fill:#000000;fill-opacity:1;stroke:none;stroke-width:0.26458335" aria-label="53">
        <path id="path3492" style="font-style:normal;font-variant:normal;font-weight:normal;font-stretch:normal;font-size:11.9944458px;font-family:Paddington;-inkscape-font-specification:Paddington;stroke:none;stroke-width:0.26458335" d="m 167.59242,-64.104667 -0.58773,1.187451 h -2.11102 l -0.16792,1.415344 q 1.23543,0.05997 2.02706,0.743656 0.82762,0.731661 0.82762,1.907117 0,1.127478 -0.80363,1.871133 -0.80363,0.731661 -2.00308,0.731661 -1.18745,0 -2.07503,-1.175455 l 0.81562,-1.043517 h 0.072 q 0.55175,0.947561 1.31939,0.947561 0.47978,0 0.83962,-0.383822 0.37182,-0.395817 0.37182,-0.923572 0,-0.623712 -0.52775,-1.043517 -0.47978,-0.383822 -1.11549,-0.383822 -0.40781,0 -1.34337,0.275872 l 0.51576,-4.12609 z" inkscape:connector-curvature="0"/>
        <path id="path3494" style="font-style:normal;font-variant:normal;font-weight:normal;font-stretch:normal;font-size:11.9944458px;font-family:Paddington;-inkscape-font-specification:Paddington;stroke:none;stroke-width:0.26458335" d="m 173.98827,-64.104667 -1.71521,2.998612 q 0.70768,0.251883 1.12748,0.983544 0.39582,0.659695 0.39582,1.403351 0,1.067505 -0.80363,1.763183 -0.80363,0.683684 -1.9311,0.683684 -0.4438,0 -0.82762,-0.131939 -0.49177,-0.167923 -0.93557,-0.515762 -0.56374,-0.4318 -0.65969,-0.887589 l 0.89958,-0.947561 h 0.072 q 0.61171,1.175456 1.54728,1.175456 0.45579,0 0.80363,-0.32385 0.34784,-0.32385 0.34784,-0.791634 0,-0.827616 -0.57574,-1.175455 -0.50376,-0.299861 -1.54728,-0.299861 l 1.57127,-2.710745 h -3.0106 v -1.223434 z" inkscape:connector-curvature="0"/>
      </g>
    </g>
    </g></svg>
