<?xml version='1.0' encoding='UTF-8'?>
<!-- Created with Inkscape (http://www.inkscape.org/) and export_objects.py -->
<svg xmlns:cc="http://creativecommons.org/ns#" xmlns:dc="http://purl.org/dc/elements/1.1/" xmlns:inkscape="http://www.inkscape.org/namespaces/inkscape" xmlns:rdf="http://www.w3.org/1999/02/22-rdf-syntax-ns#" xmlns:sodipodi="http://sodipodi.sourceforge.net/DTD/sodipodi-0.dtd" xmlns:xlink="http://www.w3.org/1999/xlink" xmlns="http://www.w3.org/2000/svg" version="1.1" width="0.749999979167in" height="0.7500000625in" viewBox="0 0 19.0499994708 19.0500015875" id="svg8" inkscape:version="0.92.3 (2405546, 2018-03-11)" sodipodi:docname="number-070.svg"><sodipodi:namedview id="base" pagecolor="#ffffff" bordercolor="#666666" borderopacity="1.0" inkscape:pageopacity="0.0" inkscape:pageshadow="2" inkscape:zoom="1.2308896" inkscape:cx="4521.2719" inkscape:cy="472.54354" inkscape:document-units="in" inkscape:current-layer="layer3" showgrid="true" units="in" inkscape:snap-others="true" inkscape:snap-grids="true" inkscape:window-width="1280" inkscape:window-height="940" inkscape:window-x="1909" inkscape:window-y="43" inkscape:window-maximized="1" inkscape:snap-midpoints="true" inkscape:object-nodes="true" inkscape:snap-text-baseline="true" inkscape:snap-smooth-nodes="false" showguides="false" inkscape:snap-object-midpoints="true" inkscape:snap-center="true" inkscape:snap-to-guides="false" inkscape:snap-nodes="true" inkscape:snap-intersection-paths="true">
    <inkscape:grid type="xygrid" id="grid10" units="pt" spacingx="3.1750001" spacingy="3.1750001"/>
    <sodipodi:guide position="380.20625,103.1875" orientation="0,1" id="guide9455" inkscape:locked="false"/>
  </sodipodi:namedview>
  <metadata id="metadata5">
    <rdf:RDF>
      <cc:Work rdf:about="">
        <dc:format>image/svg+xml</dc:format>
        <dc:type rdf:resource="http://purl.org/dc/dcmitype/StillImage"/>
        <dc:title/>
      </cc:Work>
    </rdf:RDF>
  </metadata>
  <g inkscape:groupmode="layer" inkscape:label="number-" transform="matrix(1.000000,0.000000,0.000000,1.000000,-527.050000,-47.624995)"><g id="g3934" transform="translate(212.72501,139.7)" inkscape:label="070">
      <path id="rect2268" d="m 314.32501,-92.075005 h 19.05 v 19.050002 h -19.05 z" style="display:inline;opacity:1;fill:#4d4d4d;fill-opacity:1;stroke:none;stroke-width:0.1763889;stroke-linecap:butt;stroke-linejoin:miter;stroke-miterlimit:47.14606857;stroke-dasharray:none;stroke-dashoffset:0;stroke-opacity:1;paint-order:markers fill stroke" inkscape:connector-curvature="0"/>
      <path id="circle2368" d="m 331.79324,-82.555725 a 7.9432073,7.9432073 0 0 1 -7.9432,7.943207 7.9432073,7.9432073 0 0 1 -7.94321,-7.943207 7.9432073,7.9432073 0 0 1 7.94321,-7.943207 7.9432073,7.9432073 0 0 1 7.9432,7.943207 z" style="opacity:1;fill:#e6e6e6;fill-opacity:1;stroke:none;stroke-width:0.1763889;stroke-linecap:butt;stroke-linejoin:miter;stroke-miterlimit:47.14606857;stroke-dasharray:none;stroke-dashoffset:0;stroke-opacity:1;paint-order:markers fill stroke" inkscape:connector-curvature="0"/>
      <g id="text2508" style="font-style:normal;font-variant:normal;font-weight:bold;font-stretch:normal;font-size:11.9944458px;line-height:125%;font-family:Paddington;-inkscape-font-specification:'Paddington Bold';font-variant-ligatures:normal;font-variant-caps:normal;font-variant-numeric:normal;text-align:center;letter-spacing:0px;word-spacing:0px;writing-mode:lr-tb;text-anchor:middle;fill:#000000;fill-opacity:1;stroke:none;stroke-width:0.26458335" aria-label="70">
        <path id="path3407" style="font-style:normal;font-variant:normal;font-weight:normal;font-stretch:normal;font-size:11.9944458px;font-family:Paddington;-inkscape-font-specification:Paddington;stroke:none;stroke-width:0.26458335" d="m 323.72313,-86.329665 -4.34199,7.748412 h -1.5113 l 3.58634,-6.50099 h -3.19053 v -1.247422 z" inkscape:connector-curvature="0"/>
        <path id="path3409" style="font-style:normal;font-variant:normal;font-weight:normal;font-stretch:normal;font-size:11.9944458px;font-family:Paddington;-inkscape-font-specification:Paddington;stroke:none;stroke-width:0.26458335" d="m 329.61709,-82.467453 q 0,1.415344 -0.55175,2.518833 -0.71967,1.427339 -2.08703,1.427339 -1.35537,0 -2.07504,-1.427339 -0.55175,-1.103489 -0.55175,-2.518833 0,-1.415345 0.55175,-2.518834 0.71967,-1.427339 2.07504,-1.427339 1.37936,0 2.08703,1.415344 0.55175,1.103489 0.55175,2.530829 z m -1.34338,0 q 0,-0.875595 -0.25189,-1.655234 -0.34783,-1.0795 -1.01952,-1.0795 -0.41981,0 -0.75565,0.575733 -0.27588,0.455789 -0.39582,1.067506 -0.10795,0.53975 -0.10795,1.091495 0,0.899583 0.23989,1.655233 0.33584,1.067506 1.01953,1.067506 0.69567,0 1.03152,-1.067506 0.23989,-0.75565 0.23989,-1.655233 z" inkscape:connector-curvature="0"/>
      </g>
    </g>
    </g></svg>
