<?xml version='1.0' encoding='UTF-8'?>
<!-- Created with Inkscape (http://www.inkscape.org/) and export_objects.py -->
<svg xmlns:cc="http://creativecommons.org/ns#" xmlns:dc="http://purl.org/dc/elements/1.1/" xmlns:inkscape="http://www.inkscape.org/namespaces/inkscape" xmlns:rdf="http://www.w3.org/1999/02/22-rdf-syntax-ns#" xmlns:sodipodi="http://sodipodi.sourceforge.net/DTD/sodipodi-0.dtd" xmlns:xlink="http://www.w3.org/1999/xlink" xmlns="http://www.w3.org/2000/svg" version="1.1" width="0.75000003125in" height="0.75000003125in" viewBox="0 0 19.0500007937 19.0500007937" id="svg8" inkscape:version="0.92.3 (2405546, 2018-03-11)" sodipodi:docname="number-024.svg"><sodipodi:namedview id="base" pagecolor="#ffffff" bordercolor="#666666" borderopacity="1.0" inkscape:pageopacity="0.0" inkscape:pageshadow="2" inkscape:zoom="1.2308896" inkscape:cx="4900.5869" inkscape:cy="472.54354" inkscape:document-units="in" inkscape:current-layer="layer3" showgrid="true" units="in" inkscape:snap-others="true" inkscape:snap-grids="true" inkscape:window-width="1280" inkscape:window-height="940" inkscape:window-x="1909" inkscape:window-y="43" inkscape:window-maximized="1" inkscape:snap-midpoints="true" inkscape:object-nodes="true" inkscape:snap-text-baseline="true" inkscape:snap-smooth-nodes="false" showguides="false" inkscape:snap-object-midpoints="true" inkscape:snap-center="true" inkscape:snap-to-guides="false" inkscape:snap-nodes="true" inkscape:snap-intersection-paths="true">
    <inkscape:grid type="xygrid" id="grid10" units="pt" spacingx="3.1750001" spacingy="3.1750001"/>
    <sodipodi:guide position="380.20625,103.1875" orientation="0,1" id="guide9455" inkscape:locked="false"/>
  </sodipodi:namedview>
  <metadata id="metadata5">
    <rdf:RDF>
      <cc:Work rdf:about="">
        <dc:format>image/svg+xml</dc:format>
        <dc:type rdf:resource="http://purl.org/dc/dcmitype/StillImage"/>
        <dc:title/>
      </cc:Work>
    </rdf:RDF>
  </metadata>
  <g inkscape:groupmode="layer" inkscape:label="number-" transform="matrix(1.000000,0.000000,0.000000,1.000000,-593.724974,-69.849997)"><g id="g1049" transform="translate(444.50002,44.449999)" inkscape:label="024">
      <rect y="106.49999" x="149.22498" height="19.050001" width="19.050001" id="rect1484" style="display:inline;opacity:1;fill:#4d4d4d;fill-opacity:1;stroke:none;stroke-width:0.17638889;stroke-linecap:butt;stroke-linejoin:miter;stroke-miterlimit:47.14606857;stroke-dasharray:none;stroke-dashoffset:0;stroke-opacity:1;paint-order:markers fill stroke" transform="translate(0,-81.099993)"/>
      <circle r="7.9432073" cy="34.919281" cx="158.74998" id="circle1504" style="opacity:1;fill:#e6e6e6;fill-opacity:1;stroke:none;stroke-width:0.1763889;stroke-linecap:butt;stroke-linejoin:miter;stroke-miterlimit:47.14606857;stroke-dasharray:none;stroke-dashoffset:0;stroke-opacity:1;paint-order:markers fill stroke"/>
      <g id="text1532" style="font-style:normal;font-variant:normal;font-weight:bold;font-stretch:normal;font-size:11.99444485px;line-height:125%;font-family:Paddington;-inkscape-font-specification:'Paddington Bold';font-variant-ligatures:normal;font-variant-caps:normal;font-variant-numeric:normal;text-align:center;letter-spacing:0px;word-spacing:0px;writing-mode:lr-tb;text-anchor:middle;fill:#000000;fill-opacity:1;stroke:none;stroke-width:0.26458335" aria-label="23">
        <path inkscape:connector-curvature="0" id="path1622" style="font-style:normal;font-variant:normal;font-weight:normal;font-stretch:normal;font-size:11.99444485px;font-family:Paddington;-inkscape-font-specification:Paddington;stroke:none;stroke-width:0.26458335" d="m 158.20385,38.893753 h -5.09764 l 2.85468,-4.389967 q 0.16792,-0.263878 0.32385,-0.695678 0.15592,-0.443794 0.15592,-0.719666 0,-0.359834 -0.29986,-0.587728 -0.28786,-0.227895 -0.65969,-0.227895 -1.12748,0 -2.171,1.415345 h -0.06 v -1.883128 q 1.12748,-0.839611 2.23097,-0.839611 1.12748,0 1.77518,0.587728 0.65969,0.587728 0.65969,1.655233 0,0.911578 -0.92357,2.350911 -0.74366,1.091495 -1.48731,2.170995 h 2.69875 z"/>
        <path inkscape:connector-curvature="0" id="path1624" style="font-style:normal;font-variant:normal;font-weight:normal;font-stretch:normal;font-size:11.99444485px;font-family:Paddington;-inkscape-font-specification:Paddington;stroke:none;stroke-width:0.26458335" d="m 164.65067,31.145342 -1.7152,2.998611 q 0.70767,0.251883 1.12748,0.983544 0.39581,0.659695 0.39581,1.40335 0,1.067506 -0.80362,1.763184 -0.80363,0.683683 -1.93111,0.683683 -0.44379,0 -0.82762,-0.131939 -0.49177,-0.167922 -0.93556,-0.515761 -0.56374,-0.4318 -0.6597,-0.887589 l 0.89959,-0.947561 h 0.072 q 0.61172,1.175456 1.54729,1.175456 0.45578,0 0.80362,-0.32385 0.34784,-0.32385 0.34784,-0.791634 0,-0.827616 -0.57573,-1.175455 -0.50377,-0.299861 -1.54728,-0.299861 l 1.57127,-2.710745 h -3.01061 v -1.223433 z"/>
      </g>
    </g>
    </g></svg>
