<?xml version='1.0' encoding='UTF-8'?>
<!-- Created with Inkscape (http://www.inkscape.org/) and export_objects.py -->
<svg xmlns:cc="http://creativecommons.org/ns#" xmlns:dc="http://purl.org/dc/elements/1.1/" xmlns:inkscape="http://www.inkscape.org/namespaces/inkscape" xmlns:rdf="http://www.w3.org/1999/02/22-rdf-syntax-ns#" xmlns:sodipodi="http://sodipodi.sourceforge.net/DTD/sodipodi-0.dtd" xmlns:xlink="http://www.w3.org/1999/xlink" xmlns="http://www.w3.org/2000/svg" version="1.1" width="0.75000003125in" height="0.75000003125in" viewBox="0 0 19.0500007937 19.0500007937" id="svg8" inkscape:version="0.92.3 (2405546, 2018-03-11)" sodipodi:docname="number-048.svg"><sodipodi:namedview id="base" pagecolor="#ffffff" bordercolor="#666666" borderopacity="1.0" inkscape:pageopacity="0.0" inkscape:pageshadow="2" inkscape:zoom="1.2308896" inkscape:cx="4900.5869" inkscape:cy="472.54354" inkscape:document-units="in" inkscape:current-layer="layer3" showgrid="true" units="in" inkscape:snap-others="true" inkscape:snap-grids="true" inkscape:window-width="1280" inkscape:window-height="940" inkscape:window-x="1909" inkscape:window-y="43" inkscape:window-maximized="1" inkscape:snap-midpoints="true" inkscape:object-nodes="true" inkscape:snap-text-baseline="true" inkscape:snap-smooth-nodes="false" showguides="false" inkscape:snap-object-midpoints="true" inkscape:snap-center="true" inkscape:snap-to-guides="false" inkscape:snap-nodes="true" inkscape:snap-intersection-paths="true">
    <inkscape:grid type="xygrid" id="grid10" units="pt" spacingx="3.1750001" spacingy="3.1750001"/>
    <sodipodi:guide position="380.20625,103.1875" orientation="0,1" id="guide9455" inkscape:locked="false"/>
  </sodipodi:namedview>
  <metadata id="metadata5">
    <rdf:RDF>
      <cc:Work rdf:about="">
        <dc:format>image/svg+xml</dc:format>
        <dc:type rdf:resource="http://purl.org/dc/dcmitype/StillImage"/>
        <dc:title/>
      </cc:Work>
    </rdf:RDF>
  </metadata>
  <g inkscape:groupmode="layer" inkscape:label="number-" transform="matrix(1.000000,0.000000,0.000000,1.000000,-1149.350000,-69.850005)"><g id="g1274" transform="translate(885.82507,88.900013)" inkscape:label="048">
      <rect y="62.049988" x="263.52496" height="19.050001" width="19.050001" id="rect1652" style="display:inline;opacity:1;fill:#4d4d4d;fill-opacity:1;stroke:none;stroke-width:0.17638889;stroke-linecap:butt;stroke-linejoin:miter;stroke-miterlimit:47.14606857;stroke-dasharray:none;stroke-dashoffset:0;stroke-opacity:1;paint-order:markers fill stroke" transform="translate(0,-81.099993)"/>
      <circle r="7.9432073" cy="-9.5307283" cx="273.04996" id="circle1672" style="opacity:1;fill:#e6e6e6;fill-opacity:1;stroke:none;stroke-width:0.1763889;stroke-linecap:butt;stroke-linejoin:miter;stroke-miterlimit:47.14606857;stroke-dasharray:none;stroke-dashoffset:0;stroke-opacity:1;paint-order:markers fill stroke"/>
      <g id="text1708" style="font-style:normal;font-variant:normal;font-weight:bold;font-stretch:normal;font-size:11.99444485px;line-height:125%;font-family:Paddington;-inkscape-font-specification:'Paddington Bold';font-variant-ligatures:normal;font-variant-caps:normal;font-variant-numeric:normal;text-align:center;letter-spacing:0px;word-spacing:0px;writing-mode:lr-tb;text-anchor:middle;fill:#000000;fill-opacity:1;stroke:none;stroke-width:0.26458335" aria-label="48">
        <path inkscape:connector-curvature="0" id="path1502" style="font-style:normal;font-variant:normal;font-weight:normal;font-stretch:normal;font-size:11.99444485px;font-family:Paddington;-inkscape-font-specification:Paddington;stroke:none;stroke-width:0.26458335" d="m 273.56075,-7.6552808 h -1.78717 v 2.0990278 h -1.37936 v -2.0990278 h -3.81423 l 5.13362,-6.1411562 h 0.06 v 4.9057284 h 1.78717 z m -3.19052,-1.2354278 v -1.6552334 l -1.37936,1.6552334 z"/>
        <path inkscape:connector-curvature="0" id="path1504" style="font-style:normal;font-variant:normal;font-weight:normal;font-stretch:normal;font-size:11.99444485px;font-family:Paddington;-inkscape-font-specification:Paddington;stroke:none;stroke-width:0.26458335" d="m 279.02891,-7.8351975 q 0,0.9475612 -0.73166,1.6672279 -0.73167,0.7196666 -1.7392,0.7196666 -1.10349,0 -1.78717,-0.5877278 -0.67169,-0.5997222 -0.67169,-1.6432389 0,-1.2834056 1.28341,-2.1709945 -0.94757,-0.7796388 -0.94757,-1.7751778 0,-0.827617 0.6477,-1.319389 0.59973,-0.455789 1.48732,-0.455789 0.88758,0 1.47531,0.467783 0.59972,0.503767 0.59972,1.331384 0,1.007533 -0.91157,1.7751777 1.2954,0.8396111 1.2954,1.9910778 z m -1.67923,-3.7542615 q 0,-0.311855 -0.25188,-0.551744 -0.25188,-0.239889 -0.52775,-0.239889 -0.31186,0 -0.53975,0.179917 -0.26388,0.203905 -0.26388,0.515761 0,0.671689 0.81562,1.211439 0.76764,-0.53975 0.76764,-1.115484 z m 0.34784,3.7422671 q 0,-0.5517445 -1.21144,-1.2714112 -1.04351,0.6596945 -1.04351,1.3793612 0,0.4318 0.33584,0.75565 0.34784,0.3118556 0.75565,0.3118556 0.41981,0 0.79164,-0.3598334 0.37182,-0.3598333 0.37182,-0.8156222 z"/>
      </g>
    </g>
    </g></svg>
