<?xml version='1.0' encoding='UTF-8'?>
<!-- Created with Inkscape (http://www.inkscape.org/) and export_objects.py -->
<svg xmlns:cc="http://creativecommons.org/ns#" xmlns:dc="http://purl.org/dc/elements/1.1/" xmlns:inkscape="http://www.inkscape.org/namespaces/inkscape" xmlns:rdf="http://www.w3.org/1999/02/22-rdf-syntax-ns#" xmlns:sodipodi="http://sodipodi.sourceforge.net/DTD/sodipodi-0.dtd" xmlns:xlink="http://www.w3.org/1999/xlink" xmlns="http://www.w3.org/2000/svg" version="1.1" width="0.75000003125in" height="0.75000003125in" viewBox="0 0 19.0500007937 19.0500007937" id="svg8" inkscape:version="0.92.3 (2405546, 2018-03-11)" sodipodi:docname="number-038.svg"><sodipodi:namedview id="base" pagecolor="#ffffff" bordercolor="#666666" borderopacity="1.0" inkscape:pageopacity="0.0" inkscape:pageshadow="2" inkscape:zoom="1.2308896" inkscape:cx="4900.5869" inkscape:cy="472.54354" inkscape:document-units="in" inkscape:current-layer="layer3" showgrid="true" units="in" inkscape:snap-others="true" inkscape:snap-grids="true" inkscape:window-width="1280" inkscape:window-height="940" inkscape:window-x="1909" inkscape:window-y="43" inkscape:window-maximized="1" inkscape:snap-midpoints="true" inkscape:object-nodes="true" inkscape:snap-text-baseline="true" inkscape:snap-smooth-nodes="false" showguides="false" inkscape:snap-object-midpoints="true" inkscape:snap-center="true" inkscape:snap-to-guides="false" inkscape:snap-nodes="true" inkscape:snap-intersection-paths="true">
    <inkscape:grid type="xygrid" id="grid10" units="pt" spacingx="3.1750001" spacingy="3.1750001"/>
    <sodipodi:guide position="380.20625,103.1875" orientation="0,1" id="guide9455" inkscape:locked="false"/>
  </sodipodi:namedview>
  <metadata id="metadata5">
    <rdf:RDF>
      <cc:Work rdf:about="">
        <dc:format>image/svg+xml</dc:format>
        <dc:type rdf:resource="http://purl.org/dc/dcmitype/StillImage"/>
        <dc:title/>
      </cc:Work>
    </rdf:RDF>
  </metadata>
  <g inkscape:groupmode="layer" inkscape:label="number-" transform="matrix(1.000000,0.000000,0.000000,1.000000,-927.100000,-69.850008)"><g id="g1139" transform="translate(663.57506,66.675015)" inkscape:label="038">
      <rect style="display:inline;opacity:1;fill:#4d4d4d;fill-opacity:1;stroke:none;stroke-width:0.17638889;stroke-linecap:butt;stroke-linejoin:miter;stroke-miterlimit:47.14606857;stroke-dasharray:none;stroke-dashoffset:0;stroke-opacity:1;paint-order:markers fill stroke" id="rect1572" width="19.050001" height="19.050001" x="263.52496" y="84.274986" transform="translate(0,-81.099993)"/>
      <circle style="opacity:1;fill:#e6e6e6;fill-opacity:1;stroke:none;stroke-width:0.1763889;stroke-linecap:butt;stroke-linejoin:miter;stroke-miterlimit:47.14606857;stroke-dasharray:none;stroke-dashoffset:0;stroke-opacity:1;paint-order:markers fill stroke" id="circle1592" cx="273.04996" cy="12.694231" r="7.9432073"/>
      <g id="text1628" style="font-style:normal;font-variant:normal;font-weight:bold;font-stretch:normal;font-size:11.99444485px;line-height:125%;font-family:Paddington;-inkscape-font-specification:'Paddington Bold';font-variant-ligatures:normal;font-variant-caps:normal;font-variant-numeric:normal;text-align:center;letter-spacing:0px;word-spacing:0px;writing-mode:lr-tb;text-anchor:middle;fill:#000000;fill-opacity:1;stroke:none;stroke-width:0.26458335" aria-label="38">
        <path inkscape:connector-curvature="0" id="path1552" style="font-style:normal;font-variant:normal;font-weight:normal;font-stretch:normal;font-size:11.99444485px;font-family:Paddington;-inkscape-font-specification:Paddington;stroke:none;stroke-width:0.26458335" d="m 273.05886,8.9202898 -1.71521,2.9986112 q 0.70768,0.251883 1.12748,0.983544 0.39582,0.659695 0.39582,1.403351 0,1.067505 -0.80363,1.763183 -0.80363,0.683683 -1.93111,0.683683 -0.44379,0 -0.82761,-0.131939 -0.49177,-0.167922 -0.93557,-0.515761 -0.56374,-0.4318 -0.65969,-0.887589 l 0.89958,-0.947561 h 0.072 q 0.61171,1.175456 1.54728,1.175456 0.45579,0 0.80363,-0.32385 0.34784,-0.32385 0.34784,-0.791634 0,-0.827616 -0.57574,-1.175455 -0.50376,-0.299861 -1.54728,-0.299861 l 1.57127,-2.710745 h -3.0106 V 8.9202898 Z"/>
        <path inkscape:connector-curvature="0" id="path1554" style="font-style:normal;font-variant:normal;font-weight:normal;font-stretch:normal;font-size:11.99444485px;font-family:Paddington;-inkscape-font-specification:Paddington;stroke:none;stroke-width:0.26458335" d="m 278.60723,14.389757 q 0,0.947561 -0.73166,1.667227 -0.73167,0.719667 -1.7392,0.719667 -1.10349,0 -1.78717,-0.587728 -0.67169,-0.599722 -0.67169,-1.643239 0,-1.283405 1.28341,-2.170994 -0.94757,-0.779639 -0.94757,-1.775178 0,-0.8276166 0.6477,-1.3193889 0.59973,-0.4557889 1.48732,-0.4557889 0.88758,0 1.47531,0.4677834 0.59972,0.5037667 0.59972,1.3313834 0,1.007533 -0.91157,1.775178 1.2954,0.839611 1.2954,1.991078 z M 276.928,10.635495 q 0,-0.311855 -0.25188,-0.551744 -0.25188,-0.2398889 -0.52775,-0.2398889 -0.31186,0 -0.53975,0.1799169 -0.26388,0.203905 -0.26388,0.515761 0,0.671689 0.81562,1.211439 0.76764,-0.53975 0.76764,-1.115484 z m 0.34784,3.742267 q 0,-0.551744 -1.21144,-1.271411 -1.04351,0.659695 -1.04351,1.379361 0,0.4318 0.33584,0.75565 0.34784,0.311856 0.75565,0.311856 0.41981,0 0.79164,-0.359834 0.37182,-0.359833 0.37182,-0.815622 z"/>
      </g>
    </g>
    </g></svg>
