<?xml version='1.0' encoding='UTF-8'?>
<!-- Created with Inkscape (http://www.inkscape.org/) and export_objects.py -->
<svg xmlns:cc="http://creativecommons.org/ns#" xmlns:dc="http://purl.org/dc/elements/1.1/" xmlns:inkscape="http://www.inkscape.org/namespaces/inkscape" xmlns:rdf="http://www.w3.org/1999/02/22-rdf-syntax-ns#" xmlns:sodipodi="http://sodipodi.sourceforge.net/DTD/sodipodi-0.dtd" xmlns:xlink="http://www.w3.org/1999/xlink" xmlns="http://www.w3.org/2000/svg" version="1.1" width="0.749999979167in" height="0.750000020833in" viewBox="0 0 19.0499994708 19.0500005292" id="svg8" inkscape:version="0.92.3 (2405546, 2018-03-11)" sodipodi:docname="number-059.svg"><sodipodi:namedview id="base" pagecolor="#ffffff" bordercolor="#666666" borderopacity="1.0" inkscape:pageopacity="0.0" inkscape:pageshadow="2" inkscape:zoom="1.2308896" inkscape:cx="4521.2719" inkscape:cy="472.54354" inkscape:document-units="in" inkscape:current-layer="layer3" showgrid="true" units="in" inkscape:snap-others="true" inkscape:snap-grids="true" inkscape:window-width="1280" inkscape:window-height="940" inkscape:window-x="1909" inkscape:window-y="43" inkscape:window-maximized="1" inkscape:snap-midpoints="true" inkscape:object-nodes="true" inkscape:snap-text-baseline="true" inkscape:snap-smooth-nodes="false" showguides="false" inkscape:snap-object-midpoints="true" inkscape:snap-center="true" inkscape:snap-to-guides="false" inkscape:snap-nodes="true" inkscape:snap-intersection-paths="true">
    <inkscape:grid type="xygrid" id="grid10" units="pt" spacingx="3.1750001" spacingy="3.1750001"/>
    <sodipodi:guide position="380.20625,103.1875" orientation="0,1" id="guide9455" inkscape:locked="false"/>
  </sodipodi:namedview>
  <metadata id="metadata5">
    <rdf:RDF>
      <cc:Work rdf:about="">
        <dc:format>image/svg+xml</dc:format>
        <dc:type rdf:resource="http://purl.org/dc/dcmitype/StillImage"/>
        <dc:title/>
      </cc:Work>
    </rdf:RDF>
  </metadata>
  <g inkscape:groupmode="layer" inkscape:label="number-" transform="matrix(1.000000,0.000000,0.000000,1.000000,-282.575000,-47.625003)"><g id="g3955" transform="translate(-9.5249967,117.47501)" inkscape:label="059">
      <path id="rect2246" d="m 292.10001,-69.850006 h 19.05 v 19.050001 h -19.05 z" style="display:inline;opacity:1;fill:#4d4d4d;fill-opacity:1;stroke:none;stroke-width:0.1763889;stroke-linecap:butt;stroke-linejoin:miter;stroke-miterlimit:47.14606857;stroke-dasharray:none;stroke-dashoffset:0;stroke-opacity:1;paint-order:markers fill stroke" inkscape:connector-curvature="0"/>
      <path id="circle2346" d="m 309.56824,-60.33073 a 7.9432073,7.9432073 0 0 1 -7.94321,7.943207 7.9432073,7.9432073 0 0 1 -7.94321,-7.943207 7.9432073,7.9432073 0 0 1 7.94321,-7.943208 7.9432073,7.9432073 0 0 1 7.94321,7.943208 z" style="opacity:1;fill:#e6e6e6;fill-opacity:1;stroke:none;stroke-width:0.1763889;stroke-linecap:butt;stroke-linejoin:miter;stroke-miterlimit:47.14606857;stroke-dasharray:none;stroke-dashoffset:0;stroke-opacity:1;paint-order:markers fill stroke" inkscape:connector-curvature="0"/>
      <g id="text2464" style="font-style:normal;font-variant:normal;font-weight:bold;font-stretch:normal;font-size:11.9944458px;line-height:125%;font-family:Paddington;-inkscape-font-specification:'Paddington Bold';font-variant-ligatures:normal;font-variant-caps:normal;font-variant-numeric:normal;text-align:center;letter-spacing:0px;word-spacing:0px;writing-mode:lr-tb;text-anchor:middle;fill:#000000;fill-opacity:1;stroke:none;stroke-width:0.26458335" aria-label="59">
        <path id="path3462" style="font-style:normal;font-variant:normal;font-weight:normal;font-stretch:normal;font-size:11.9944458px;font-family:Paddington;-inkscape-font-specification:Paddington;stroke:none;stroke-width:0.26458335" d="m 300.93073,-64.104667 -0.58773,1.187451 h -2.11102 l -0.16792,1.415344 q 1.23542,0.05997 2.02706,0.743656 0.82761,0.731661 0.82761,1.907117 0,1.127478 -0.80362,1.871133 -0.80363,0.731661 -2.00308,0.731661 -1.18745,0 -2.07504,-1.175455 l 0.81563,-1.043517 h 0.072 q 0.55175,0.947561 1.31939,0.947561 0.47978,0 0.83961,-0.383822 0.37183,-0.395817 0.37183,-0.923572 0,-0.623712 -0.52775,-1.043517 -0.47978,-0.383822 -1.11549,-0.383822 -0.40781,0 -1.34338,0.275872 l 0.51577,-4.12609 z" inkscape:connector-curvature="0"/>
        <path id="path3464" style="font-style:normal;font-variant:normal;font-weight:normal;font-stretch:normal;font-size:11.9944458px;font-family:Paddington;-inkscape-font-specification:Paddington;stroke:none;stroke-width:0.26458335" d="m 307.18265,-61.130044 q 0,1.367367 -0.80363,2.686756 -0.75565,1.247422 -1.97909,2.087033 h -1.84714 q 2.30293,-1.655233 2.91465,-3.2385 -0.68368,0.287867 -1.13947,0.287867 -1.05551,0 -1.78718,-0.695678 -0.71966,-0.695678 -0.71966,-1.691217 0,-1.0795 0.81562,-1.799167 0.82762,-0.731661 1.97908,-0.731661 1.23543,0 1.9551,1.019528 0.61172,0.875594 0.61172,2.075039 z m -1.34338,-0.03598 q -0.024,-0.719667 -0.33585,-1.235428 -0.37182,-0.587728 -0.97155,-0.587728 -0.51576,0 -0.93556,0.335844 -0.41981,0.335845 -0.41981,0.851606 0,0.503767 0.34784,0.887589 0.34784,0.383822 0.80363,0.383822 0.46778,0 0.80363,-0.155928 0.28786,-0.119944 0.70767,-0.479777 z" inkscape:connector-curvature="0"/>
      </g>
    </g>
    </g></svg>
