<?xml version='1.0' encoding='UTF-8'?>
<!-- Created with Inkscape (http://www.inkscape.org/) and export_objects.py -->
<svg xmlns:cc="http://creativecommons.org/ns#" xmlns:dc="http://purl.org/dc/elements/1.1/" xmlns:inkscape="http://www.inkscape.org/namespaces/inkscape" xmlns:rdf="http://www.w3.org/1999/02/22-rdf-syntax-ns#" xmlns:sodipodi="http://sodipodi.sourceforge.net/DTD/sodipodi-0.dtd" xmlns:xlink="http://www.w3.org/1999/xlink" xmlns="http://www.w3.org/2000/svg" version="1.1" width="0.75000003125in" height="0.75000003125in" viewBox="0 0 19.0500007937 19.0500007937" id="svg8" inkscape:version="0.92.3 (2405546, 2018-03-11)" sodipodi:docname="number-036.svg"><sodipodi:namedview id="base" pagecolor="#ffffff" bordercolor="#666666" borderopacity="1.0" inkscape:pageopacity="0.0" inkscape:pageshadow="2" inkscape:zoom="1.2308896" inkscape:cx="4900.5869" inkscape:cy="472.54354" inkscape:document-units="in" inkscape:current-layer="layer3" showgrid="true" units="in" inkscape:snap-others="true" inkscape:snap-grids="true" inkscape:window-width="1280" inkscape:window-height="940" inkscape:window-x="1909" inkscape:window-y="43" inkscape:window-maximized="1" inkscape:snap-midpoints="true" inkscape:object-nodes="true" inkscape:snap-text-baseline="true" inkscape:snap-smooth-nodes="false" showguides="false" inkscape:snap-object-midpoints="true" inkscape:snap-center="true" inkscape:snap-to-guides="false" inkscape:snap-nodes="true" inkscape:snap-intersection-paths="true">
    <inkscape:grid type="xygrid" id="grid10" units="pt" spacingx="3.1750001" spacingy="3.1750001"/>
    <sodipodi:guide position="380.20625,103.1875" orientation="0,1" id="guide9455" inkscape:locked="false"/>
  </sodipodi:namedview>
  <metadata id="metadata5">
    <rdf:RDF>
      <cc:Work rdf:about="">
        <dc:format>image/svg+xml</dc:format>
        <dc:type rdf:resource="http://purl.org/dc/dcmitype/StillImage"/>
        <dc:title/>
      </cc:Work>
    </rdf:RDF>
  </metadata>
  <g inkscape:groupmode="layer" inkscape:label="number-" transform="matrix(1.000000,0.000000,0.000000,1.000000,-882.649974,-69.849997)"><g id="g1157" transform="translate(666.75002,66.675005)" inkscape:label="036">
      <rect style="display:inline;opacity:1;fill:#4d4d4d;fill-opacity:1;stroke:none;stroke-width:0.17638889;stroke-linecap:butt;stroke-linejoin:miter;stroke-miterlimit:47.14606857;stroke-dasharray:none;stroke-dashoffset:0;stroke-opacity:1;paint-order:markers fill stroke" id="rect1568" width="19.050001" height="19.050001" x="215.89998" y="84.274986" transform="translate(0,-81.099993)"/>
      <circle style="opacity:1;fill:#e6e6e6;fill-opacity:1;stroke:none;stroke-width:0.1763889;stroke-linecap:butt;stroke-linejoin:miter;stroke-miterlimit:47.14606857;stroke-dasharray:none;stroke-dashoffset:0;stroke-opacity:1;paint-order:markers fill stroke" id="circle1588" cx="225.42499" cy="12.694239" r="7.9432073"/>
      <g id="text1620" style="font-style:normal;font-variant:normal;font-weight:bold;font-stretch:normal;font-size:11.99444485px;line-height:125%;font-family:Paddington;-inkscape-font-specification:'Paddington Bold';font-variant-ligatures:normal;font-variant-caps:normal;font-variant-numeric:normal;text-align:center;letter-spacing:0px;word-spacing:0px;writing-mode:lr-tb;text-anchor:middle;fill:#000000;fill-opacity:1;stroke:none;stroke-width:0.26458335" aria-label="36">
        <path inkscape:connector-curvature="0" id="path1562" style="font-style:normal;font-variant:normal;font-weight:normal;font-stretch:normal;font-size:11.99444485px;font-family:Paddington;-inkscape-font-specification:Paddington;stroke:none;stroke-width:0.26458335" d="m 225.14103,8.9202974 -1.71521,2.9986116 q 0.70767,0.251883 1.12748,0.983544 0.39582,0.659695 0.39582,1.40335 0,1.067506 -0.80363,1.763184 -0.80363,0.683683 -1.93111,0.683683 -0.44379,0 -0.82761,-0.131939 -0.49178,-0.167922 -0.93557,-0.515761 -0.56374,-0.4318 -0.6597,-0.887589 l 0.89959,-0.947561 h 0.072 q 0.61172,1.175455 1.54729,1.175455 0.45579,0 0.80363,-0.32385 0.34783,-0.32385 0.34783,-0.791633 0,-0.827617 -0.57573,-1.175456 -0.50377,-0.299861 -1.54728,-0.299861 l 1.57127,-2.710744 h -3.01061 V 8.9202974 Z"/>
        <path inkscape:connector-curvature="0" id="path1564" style="font-style:normal;font-variant:normal;font-weight:normal;font-stretch:normal;font-size:11.99444485px;font-family:Paddington;-inkscape-font-specification:Paddington;stroke:none;stroke-width:0.26458335" d="m 231.22914,14.257825 q 0,1.0795 -0.77963,1.811162 -0.76765,0.719666 -1.90712,0.719666 -1.2954,0 -2.03906,-0.923572 -0.68368,-0.839611 -0.68368,-2.075039 0,-1.319389 0.73166,-2.710744 0.74366,-1.3913561 1.85914,-2.170995 h 1.97908 q -1.87113,0.9355667 -2.83069,3.166533 0.52776,-0.239888 1.19945,-0.239888 1.05551,0 1.76318,0.719666 0.70767,0.707672 0.70767,1.703211 z m -1.41534,0.08396 q 0,-0.491773 -0.34784,-0.863601 -0.34784,-0.383822 -0.80363,-0.383822 -0.89958,0 -1.30739,0.515761 -0.11995,0.155928 -0.11995,0.611717 0,0.575733 0.4318,0.959556 0.4318,0.371827 0.99554,0.371827 0.46779,0 0.80363,-0.347838 0.34784,-0.359834 0.34784,-0.8636 z"/>
      </g>
    </g>
    </g></svg>
