<?xml version='1.0' encoding='UTF-8'?>
<!-- Created with Inkscape (http://www.inkscape.org/) and export_objects.py -->
<svg xmlns:cc="http://creativecommons.org/ns#" xmlns:dc="http://purl.org/dc/elements/1.1/" xmlns:inkscape="http://www.inkscape.org/namespaces/inkscape" xmlns:rdf="http://www.w3.org/1999/02/22-rdf-syntax-ns#" xmlns:sodipodi="http://sodipodi.sourceforge.net/DTD/sodipodi-0.dtd" xmlns:xlink="http://www.w3.org/1999/xlink" xmlns="http://www.w3.org/2000/svg" version="1.1" width="0.749999979167in" height="0.749999979167in" viewBox="0 0 19.0499994708 19.0499994708" id="svg8" inkscape:version="0.92.3 (2405546, 2018-03-11)" sodipodi:docname="number-083.svg"><sodipodi:namedview id="base" pagecolor="#ffffff" bordercolor="#666666" borderopacity="1.0" inkscape:pageopacity="0.0" inkscape:pageshadow="2" inkscape:zoom="1.2308896" inkscape:cx="4521.2719" inkscape:cy="472.54354" inkscape:document-units="in" inkscape:current-layer="layer3" showgrid="true" units="in" inkscape:snap-others="true" inkscape:snap-grids="true" inkscape:window-width="1280" inkscape:window-height="940" inkscape:window-x="1909" inkscape:window-y="43" inkscape:window-maximized="1" inkscape:snap-midpoints="true" inkscape:object-nodes="true" inkscape:snap-text-baseline="true" inkscape:snap-smooth-nodes="false" showguides="false" inkscape:snap-object-midpoints="true" inkscape:snap-center="true" inkscape:snap-to-guides="false" inkscape:snap-nodes="true" inkscape:snap-intersection-paths="true">
    <inkscape:grid type="xygrid" id="grid10" units="pt" spacingx="3.1750001" spacingy="3.1750001"/>
    <sodipodi:guide position="380.20625,103.1875" orientation="0,1" id="guide9455" inkscape:locked="false"/>
  </sodipodi:namedview>
  <metadata id="metadata5">
    <rdf:RDF>
      <cc:Work rdf:about="">
        <dc:format>image/svg+xml</dc:format>
        <dc:type rdf:resource="http://purl.org/dc/dcmitype/StillImage"/>
        <dc:title/>
      </cc:Work>
    </rdf:RDF>
  </metadata>
  <g inkscape:groupmode="layer" inkscape:label="number-" transform="matrix(1.000000,0.000000,0.000000,1.000000,-815.975000,-47.625000)"><g id="g3674" transform="translate(657.22502,184.15001)" inkscape:label="083">
      <path id="rect2294" d="m 158.75,-136.52501 h 19.05 v 19.05 h -19.05 z" style="display:inline;opacity:1;fill:#4d4d4d;fill-opacity:1;stroke:none;stroke-width:0.1763889;stroke-linecap:butt;stroke-linejoin:miter;stroke-miterlimit:47.14606857;stroke-dasharray:none;stroke-dashoffset:0;stroke-opacity:1;paint-order:markers fill stroke" inkscape:connector-curvature="0"/>
      <path id="circle2394" d="m 176.21822,-127.00572 a 7.9432073,7.9432073 0 0 1 -7.94321,7.94321 7.9432073,7.9432073 0 0 1 -7.94321,-7.94321 7.9432073,7.9432073 0 0 1 7.94321,-7.94321 7.9432073,7.9432073 0 0 1 7.94321,7.94321 z" style="opacity:1;fill:#e6e6e6;fill-opacity:1;stroke:none;stroke-width:0.1763889;stroke-linecap:butt;stroke-linejoin:miter;stroke-miterlimit:47.14606857;stroke-dasharray:none;stroke-dashoffset:0;stroke-opacity:1;paint-order:markers fill stroke" inkscape:connector-curvature="0"/>
      <g id="text2560" style="font-style:normal;font-variant:normal;font-weight:bold;font-stretch:normal;font-size:11.9944458px;line-height:125%;font-family:Paddington;-inkscape-font-specification:'Paddington Bold';font-variant-ligatures:normal;font-variant-caps:normal;font-variant-numeric:normal;text-align:center;letter-spacing:0px;word-spacing:0px;writing-mode:lr-tb;text-anchor:middle;fill:#000000;fill-opacity:1;stroke:none;stroke-width:0.26458335" aria-label="83">
        <path id="path3342" style="font-style:normal;font-variant:normal;font-weight:normal;font-stretch:normal;font-size:11.9944458px;font-family:Paddington;-inkscape-font-specification:Paddington;stroke:none;stroke-width:0.26458335" d="m 167.62419,-125.31019 q 0,0.94756 -0.73166,1.66723 -0.73167,0.71967 -1.7392,0.71967 -1.10349,0 -1.78717,-0.58773 -0.67169,-0.59972 -0.67169,-1.64324 0,-1.2834 1.2834,-2.17099 -0.94756,-0.77964 -0.94756,-1.77518 0,-0.82762 0.6477,-1.31939 0.59973,-0.45579 1.48731,-0.45579 0.88759,0 1.47532,0.46778 0.59972,0.50377 0.59972,1.33139 0,1.00753 -0.91157,1.77517 1.2954,0.83962 1.2954,1.99108 z m -1.67923,-3.75426 q 0,-0.31185 -0.25188,-0.55174 -0.25188,-0.23989 -0.52776,-0.23989 -0.31185,0 -0.53975,0.17991 -0.26387,0.20391 -0.26387,0.51577 0,0.67168 0.81562,1.21143 0.76764,-0.53975 0.76764,-1.11548 z m 0.34784,3.74227 q 0,-0.55175 -1.21144,-1.27141 -1.04351,0.65969 -1.04351,1.37936 0,0.4318 0.33584,0.75565 0.34784,0.31185 0.75565,0.31185 0.41981,0 0.79163,-0.35983 0.37183,-0.35983 0.37183,-0.81562 z" inkscape:connector-curvature="0"/>
        <path id="path3344" style="font-style:normal;font-variant:normal;font-weight:normal;font-stretch:normal;font-size:11.9944458px;font-family:Paddington;-inkscape-font-specification:Paddington;stroke:none;stroke-width:0.26458335" d="m 173.81257,-130.77965 -1.71521,2.99861 q 0.70768,0.25188 1.12748,0.98354 0.39582,0.6597 0.39582,1.40335 0,1.06751 -0.80363,1.76319 -0.80363,0.68368 -1.9311,0.68368 -0.4438,0 -0.82762,-0.13194 -0.49177,-0.16792 -0.93557,-0.51576 -0.56374,-0.4318 -0.65969,-0.88759 l 0.89958,-0.94756 h 0.072 q 0.61171,1.17545 1.54728,1.17545 0.45579,0 0.80363,-0.32385 0.34784,-0.32385 0.34784,-0.79163 0,-0.82762 -0.57574,-1.17545 -0.50376,-0.29987 -1.54728,-0.29987 l 1.57127,-2.71074 h -3.0106 v -1.22343 z" inkscape:connector-curvature="0"/>
      </g>
    </g>
    </g></svg>
