<?xml version='1.0' encoding='UTF-8'?>
<!-- Created with Inkscape (http://www.inkscape.org/) and export_objects.py -->
<svg xmlns:cc="http://creativecommons.org/ns#" xmlns:dc="http://purl.org/dc/elements/1.1/" xmlns:inkscape="http://www.inkscape.org/namespaces/inkscape" xmlns:rdf="http://www.w3.org/1999/02/22-rdf-syntax-ns#" xmlns:sodipodi="http://sodipodi.sourceforge.net/DTD/sodipodi-0.dtd" xmlns:xlink="http://www.w3.org/1999/xlink" xmlns="http://www.w3.org/2000/svg" version="1.1" width="0.75000003125in" height="0.75000003125in" viewBox="0 0 19.0500007937 19.0500007937" id="svg8" inkscape:version="0.92.3 (2405546, 2018-03-11)" sodipodi:docname="number-039.svg"><sodipodi:namedview id="base" pagecolor="#ffffff" bordercolor="#666666" borderopacity="1.0" inkscape:pageopacity="0.0" inkscape:pageshadow="2" inkscape:zoom="1.2308896" inkscape:cx="4900.5869" inkscape:cy="472.54354" inkscape:document-units="in" inkscape:current-layer="layer3" showgrid="true" units="in" inkscape:snap-others="true" inkscape:snap-grids="true" inkscape:window-width="1280" inkscape:window-height="940" inkscape:window-x="1909" inkscape:window-y="43" inkscape:window-maximized="1" inkscape:snap-midpoints="true" inkscape:object-nodes="true" inkscape:snap-text-baseline="true" inkscape:snap-smooth-nodes="false" showguides="false" inkscape:snap-object-midpoints="true" inkscape:snap-center="true" inkscape:snap-to-guides="false" inkscape:snap-nodes="true" inkscape:snap-intersection-paths="true">
    <inkscape:grid type="xygrid" id="grid10" units="pt" spacingx="3.1750001" spacingy="3.1750001"/>
    <sodipodi:guide position="380.20625,103.1875" orientation="0,1" id="guide9455" inkscape:locked="false"/>
  </sodipodi:namedview>
  <metadata id="metadata5">
    <rdf:RDF>
      <cc:Work rdf:about="">
        <dc:format>image/svg+xml</dc:format>
        <dc:type rdf:resource="http://purl.org/dc/dcmitype/StillImage"/>
        <dc:title/>
      </cc:Work>
    </rdf:RDF>
  </metadata>
  <g inkscape:groupmode="layer" inkscape:label="number-" transform="matrix(1.000000,0.000000,0.000000,1.000000,-949.325000,-69.850008)"><g id="g1130" transform="translate(663.57506,66.675015)" inkscape:label="039">
      <rect y="84.274986" x="285.74997" height="19.050001" width="19.050001" id="rect1574" style="display:inline;opacity:1;fill:#4d4d4d;fill-opacity:1;stroke:none;stroke-width:0.17638889;stroke-linecap:butt;stroke-linejoin:miter;stroke-miterlimit:47.14606857;stroke-dasharray:none;stroke-dashoffset:0;stroke-opacity:1;paint-order:markers fill stroke" transform="translate(0,-81.099993)"/>
      <circle r="7.9432073" cy="12.694227" cx="295.27496" id="circle1594" style="opacity:1;fill:#e6e6e6;fill-opacity:1;stroke:none;stroke-width:0.1763889;stroke-linecap:butt;stroke-linejoin:miter;stroke-miterlimit:47.14606857;stroke-dasharray:none;stroke-dashoffset:0;stroke-opacity:1;paint-order:markers fill stroke"/>
      <g id="text1632" style="font-style:normal;font-variant:normal;font-weight:bold;font-stretch:normal;font-size:11.99444485px;line-height:125%;font-family:Paddington;-inkscape-font-specification:'Paddington Bold';font-variant-ligatures:normal;font-variant-caps:normal;font-variant-numeric:normal;text-align:center;letter-spacing:0px;word-spacing:0px;writing-mode:lr-tb;text-anchor:middle;fill:#000000;fill-opacity:1;stroke:none;stroke-width:0.26458335" aria-label="39">
        <path inkscape:connector-curvature="0" id="path1547" style="font-style:normal;font-variant:normal;font-weight:normal;font-stretch:normal;font-size:11.99444485px;font-family:Paddington;-inkscape-font-specification:Paddington;stroke:none;stroke-width:0.26458335" d="m 294.93244,8.920286 -1.71521,2.998611 q 0.70767,0.251884 1.12748,0.983545 0.39581,0.659694 0.39581,1.40335 0,1.067505 -0.80362,1.763183 -0.80363,0.683683 -1.93111,0.683683 -0.44379,0 -0.82762,-0.131938 -0.49177,-0.167923 -0.93556,-0.515762 -0.56374,-0.4318 -0.6597,-0.887588 l 0.89959,-0.947562 h 0.072 q 0.61172,1.175456 1.54729,1.175456 0.45579,0 0.80362,-0.32385 0.34784,-0.32385 0.34784,-0.791633 0,-0.827617 -0.57573,-1.175456 -0.50377,-0.299861 -1.54728,-0.299861 l 1.57127,-2.710745 H 289.6909 V 8.920286 Z"/>
        <path inkscape:connector-curvature="0" id="path1549" style="font-style:normal;font-variant:normal;font-weight:normal;font-stretch:normal;font-size:11.99444485px;font-family:Paddington;-inkscape-font-specification:Paddington;stroke:none;stroke-width:0.26458335" d="m 300.99656,11.894908 q 0,1.367367 -0.80362,2.686756 -0.75565,1.247422 -1.97909,2.087033 h -1.84714 q 2.30293,-1.655233 2.91465,-3.2385 -0.68368,0.287867 -1.13947,0.287867 -1.05551,0 -1.78718,-0.695678 -0.71966,-0.695678 -0.71966,-1.691217 0,-1.0795 0.81562,-1.7991663 0.82762,-0.7316612 1.97908,-0.7316612 1.23543,0 1.9551,1.0195278 0.61171,0.8755947 0.61171,2.0750387 z m -1.34337,-0.03598 q -0.024,-0.719667 -0.33585,-1.235428 -0.37183,-0.587728 -0.97155,-0.587728 -0.51576,0 -0.93556,0.335845 -0.41981,0.335844 -0.41981,0.851605 0,0.503767 0.34784,0.887589 0.34784,0.383823 0.80363,0.383823 0.46778,0 0.80362,-0.155928 0.28787,-0.119945 0.70768,-0.479778 z"/>
      </g>
    </g>
    </g></svg>
