<?xml version='1.0' encoding='UTF-8'?>
<!-- Created with Inkscape (http://www.inkscape.org/) and export_objects.py -->
<svg xmlns:cc="http://creativecommons.org/ns#" xmlns:dc="http://purl.org/dc/elements/1.1/" xmlns:inkscape="http://www.inkscape.org/namespaces/inkscape" xmlns:rdf="http://www.w3.org/1999/02/22-rdf-syntax-ns#" xmlns:sodipodi="http://sodipodi.sourceforge.net/DTD/sodipodi-0.dtd" xmlns:xlink="http://www.w3.org/1999/xlink" xmlns="http://www.w3.org/2000/svg" version="1.1" width="0.75000003125in" height="0.75000003125in" viewBox="0 0 19.0500007937 19.0500007937" id="svg8" inkscape:version="0.92.3 (2405546, 2018-03-11)" sodipodi:docname="number-029.svg"><sodipodi:namedview id="base" pagecolor="#ffffff" bordercolor="#666666" borderopacity="1.0" inkscape:pageopacity="0.0" inkscape:pageshadow="2" inkscape:zoom="1.2308896" inkscape:cx="4900.5869" inkscape:cy="472.54354" inkscape:document-units="in" inkscape:current-layer="layer3" showgrid="true" units="in" inkscape:snap-others="true" inkscape:snap-grids="true" inkscape:window-width="1280" inkscape:window-height="940" inkscape:window-x="1909" inkscape:window-y="43" inkscape:window-maximized="1" inkscape:snap-midpoints="true" inkscape:object-nodes="true" inkscape:snap-text-baseline="true" inkscape:snap-smooth-nodes="false" showguides="false" inkscape:snap-object-midpoints="true" inkscape:snap-center="true" inkscape:snap-to-guides="false" inkscape:snap-nodes="true" inkscape:snap-intersection-paths="true">
    <inkscape:grid type="xygrid" id="grid10" units="pt" spacingx="3.1750001" spacingy="3.1750001"/>
    <sodipodi:guide position="380.20625,103.1875" orientation="0,1" id="guide9455" inkscape:locked="false"/>
  </sodipodi:namedview>
  <metadata id="metadata5">
    <rdf:RDF>
      <cc:Work rdf:about="">
        <dc:format>image/svg+xml</dc:format>
        <dc:type rdf:resource="http://purl.org/dc/dcmitype/StillImage"/>
        <dc:title/>
      </cc:Work>
    </rdf:RDF>
  </metadata>
  <g inkscape:groupmode="layer" inkscape:label="number-" transform="matrix(1.000000,0.000000,0.000000,1.000000,-704.850000,-69.850008)"><g id="g1094" transform="translate(441.32506,44.450009)" inkscape:label="029">
      <rect style="display:inline;opacity:1;fill:#4d4d4d;fill-opacity:1;stroke:none;stroke-width:0.17638889;stroke-linecap:butt;stroke-linejoin:miter;stroke-miterlimit:47.14606857;stroke-dasharray:none;stroke-dashoffset:0;stroke-opacity:1;paint-order:markers fill stroke" id="rect1494" width="19.050001" height="19.050001" x="263.52496" y="106.49999" transform="translate(0,-81.099993)"/>
      <circle style="opacity:1;fill:#e6e6e6;fill-opacity:1;stroke:none;stroke-width:0.1763889;stroke-linecap:butt;stroke-linejoin:miter;stroke-miterlimit:47.14606857;stroke-dasharray:none;stroke-dashoffset:0;stroke-opacity:1;paint-order:markers fill stroke" id="circle1514" cx="273.04996" cy="34.919262" r="7.9432073"/>
      <g id="text1552" style="font-style:normal;font-variant:normal;font-weight:bold;font-stretch:normal;font-size:11.99444485px;line-height:125%;font-family:Paddington;-inkscape-font-specification:'Paddington Bold';font-variant-ligatures:normal;font-variant-caps:normal;font-variant-numeric:normal;text-align:center;letter-spacing:0px;word-spacing:0px;writing-mode:lr-tb;text-anchor:middle;fill:#000000;fill-opacity:1;stroke:none;stroke-width:0.26458335" aria-label="28">
        <path inkscape:connector-curvature="0" id="path1597" style="font-style:normal;font-variant:normal;font-weight:normal;font-stretch:normal;font-size:11.99444485px;font-family:Paddington;-inkscape-font-specification:Paddington;stroke:none;stroke-width:0.26458335" d="m 272.84349,38.893734 h -5.09764 l 2.85468,-4.389967 q 0.16792,-0.263878 0.32385,-0.695678 0.15593,-0.443794 0.15593,-0.719666 0,-0.359834 -0.29986,-0.587728 -0.28787,-0.227895 -0.6597,-0.227895 -1.12748,0 -2.17099,1.415345 h -0.06 v -1.883128 q 1.12747,-0.839611 2.23096,-0.839611 1.12748,0 1.77518,0.587728 0.65969,0.587728 0.65969,1.655233 0,0.911578 -0.92357,2.350911 -0.74365,1.091495 -1.48731,2.170995 h 2.69875 z"/>
        <path inkscape:connector-curvature="0" id="path1599" style="font-style:normal;font-variant:normal;font-weight:normal;font-stretch:normal;font-size:11.99444485px;font-family:Paddington;-inkscape-font-specification:Paddington;stroke:none;stroke-width:0.26458335" d="m 278.63062,36.614789 q 0,0.947562 -0.73166,1.667228 -0.73166,0.719667 -1.73919,0.719667 -1.10349,0 -1.78717,-0.587728 -0.67169,-0.599722 -0.67169,-1.643239 0,-1.283405 1.2834,-2.170994 -0.94756,-0.779639 -0.94756,-1.775178 0,-0.827617 0.6477,-1.319389 0.59972,-0.455789 1.48731,-0.455789 0.88759,0 1.47532,0.467783 0.59972,0.503767 0.59972,1.331384 0,1.007533 -0.91158,1.775178 1.2954,0.839611 1.2954,1.991077 z m -1.67922,-3.754261 q 0,-0.311855 -0.25188,-0.551744 -0.25189,-0.239889 -0.52776,-0.239889 -0.31185,0 -0.53975,0.179917 -0.26388,0.203905 -0.26388,0.515761 0,0.671689 0.81563,1.211439 0.76764,-0.53975 0.76764,-1.115484 z m 0.34784,3.742267 q 0,-0.551744 -1.21144,-1.271411 -1.04352,0.659694 -1.04352,1.379361 0,0.4318 0.33585,0.75565 0.34784,0.311856 0.75565,0.311856 0.4198,0 0.79163,-0.359834 0.37183,-0.359833 0.37183,-0.815622 z"/>
      </g>
    </g>
    </g></svg>
