<?xml version='1.0' encoding='UTF-8'?>
<!-- Created with Inkscape (http://www.inkscape.org/) and export_objects.py -->
<svg xmlns:cc="http://creativecommons.org/ns#" xmlns:dc="http://purl.org/dc/elements/1.1/" xmlns:inkscape="http://www.inkscape.org/namespaces/inkscape" xmlns:rdf="http://www.w3.org/1999/02/22-rdf-syntax-ns#" xmlns:sodipodi="http://sodipodi.sourceforge.net/DTD/sodipodi-0.dtd" xmlns:xlink="http://www.w3.org/1999/xlink" xmlns="http://www.w3.org/2000/svg" version="1.1" width="0.75000003125in" height="0.75000003125in" viewBox="0 0 19.0500007937 19.0500007937" id="svg8" inkscape:version="0.92.3 (2405546, 2018-03-11)" sodipodi:docname="number-021.svg"><sodipodi:namedview id="base" pagecolor="#ffffff" bordercolor="#666666" borderopacity="1.0" inkscape:pageopacity="0.0" inkscape:pageshadow="2" inkscape:zoom="1.2308896" inkscape:cx="4900.5869" inkscape:cy="472.54354" inkscape:document-units="in" inkscape:current-layer="layer3" showgrid="true" units="in" inkscape:snap-others="true" inkscape:snap-grids="true" inkscape:window-width="1280" inkscape:window-height="940" inkscape:window-x="1909" inkscape:window-y="43" inkscape:window-maximized="1" inkscape:snap-midpoints="true" inkscape:object-nodes="true" inkscape:snap-text-baseline="true" inkscape:snap-smooth-nodes="false" showguides="false" inkscape:snap-object-midpoints="true" inkscape:snap-center="true" inkscape:snap-to-guides="false" inkscape:snap-nodes="true" inkscape:snap-intersection-paths="true">
    <inkscape:grid type="xygrid" id="grid10" units="pt" spacingx="3.1750001" spacingy="3.1750001"/>
    <sodipodi:guide position="380.20625,103.1875" orientation="0,1" id="guide9455" inkscape:locked="false"/>
  </sodipodi:namedview>
  <metadata id="metadata5">
    <rdf:RDF>
      <cc:Work rdf:about="">
        <dc:format>image/svg+xml</dc:format>
        <dc:type rdf:resource="http://purl.org/dc/dcmitype/StillImage"/>
        <dc:title/>
      </cc:Work>
    </rdf:RDF>
  </metadata>
  <g inkscape:groupmode="layer" inkscape:label="number-" transform="matrix(1.000000,0.000000,0.000000,1.000000,-749.300106,-69.850013)"><g id="g1112" transform="translate(441.32506,44.450009)" inkscape:label="021">
      <rect style="display:inline;opacity:1;fill:#4d4d4d;fill-opacity:1;stroke:none;stroke-width:0.17638889;stroke-linecap:butt;stroke-linejoin:miter;stroke-miterlimit:47.14606857;stroke-dasharray:none;stroke-dashoffset:0;stroke-opacity:1;paint-order:markers fill stroke" id="rect1478" width="19.050001" height="19.050001" x="307.97507" y="106.5" transform="translate(0,-81.099993)"/>
      <circle style="opacity:1;fill:#e6e6e6;fill-opacity:1;stroke:none;stroke-width:0.1763889;stroke-linecap:butt;stroke-linejoin:miter;stroke-miterlimit:47.14606857;stroke-dasharray:none;stroke-dashoffset:0;stroke-opacity:1;paint-order:markers fill stroke" id="circle1498" cx="317.50009" cy="34.919277" r="7.9432073"/>
      <g id="text1520" style="font-style:normal;font-variant:normal;font-weight:bold;font-stretch:normal;font-size:11.99444485px;line-height:125%;font-family:Paddington;-inkscape-font-specification:'Paddington Bold';font-variant-ligatures:normal;font-variant-caps:normal;font-variant-numeric:normal;text-align:center;letter-spacing:0px;word-spacing:0px;writing-mode:lr-tb;text-anchor:middle;fill:#000000;fill-opacity:1;stroke:none;stroke-width:0.26458335" aria-label="30">
        <path inkscape:connector-curvature="0" id="path1637" style="font-style:normal;font-variant:normal;font-weight:normal;font-stretch:normal;font-size:11.99444485px;font-family:Paddington;-inkscape-font-specification:Paddington;stroke:none;stroke-width:0.26458335" d="m 317.21613,31.145338 -1.71521,2.998611 q 0.70768,0.251883 1.12748,0.983545 0.39582,0.659694 0.39582,1.40335 0,1.067505 -0.80363,1.763183 -0.80363,0.683683 -1.9311,0.683683 -0.4438,0 -0.82762,-0.131939 -0.49177,-0.167922 -0.93557,-0.515761 -0.56374,-0.4318 -0.65969,-0.887589 l 0.89958,-0.947561 h 0.072 q 0.61171,1.175456 1.54728,1.175456 0.45579,0 0.80363,-0.32385 0.34784,-0.32385 0.34784,-0.791634 0,-0.827616 -0.57574,-1.175455 -0.50376,-0.299861 -1.54728,-0.299861 l 1.57127,-2.710745 h -3.0106 v -1.223433 z"/>
        <path inkscape:connector-curvature="0" id="path1639" style="font-style:normal;font-variant:normal;font-weight:normal;font-stretch:normal;font-size:11.99444485px;font-family:Paddington;-inkscape-font-specification:Paddington;stroke:none;stroke-width:0.26458335" d="m 323.22029,35.007549 q 0,1.415345 -0.55175,2.518834 -0.71966,1.427338 -2.08703,1.427338 -1.35537,0 -2.07504,-1.427338 -0.55174,-1.103489 -0.55174,-2.518834 0,-1.415344 0.55174,-2.518833 0.71967,-1.427339 2.07504,-1.427339 1.37936,0 2.08703,1.415344 0.55175,1.103489 0.55175,2.530828 z m -1.34338,0 q 0,-0.875594 -0.25188,-1.655233 -0.34784,-1.0795 -1.01953,-1.0795 -0.41981,0 -0.75565,0.575733 -0.27587,0.455789 -0.39582,1.067506 -0.10795,0.53975 -0.10795,1.091494 0,0.899583 0.23989,1.655233 0.33584,1.067506 1.01953,1.067506 0.69568,0 1.03152,-1.067506 0.23989,-0.75565 0.23989,-1.655233 z"/>
      </g>
    </g>
    </g></svg>
