<?xml version='1.0' encoding='UTF-8'?>
<!-- Created with Inkscape (http://www.inkscape.org/) and export_objects.py -->
<svg xmlns:cc="http://creativecommons.org/ns#" xmlns:dc="http://purl.org/dc/elements/1.1/" xmlns:inkscape="http://www.inkscape.org/namespaces/inkscape" xmlns:rdf="http://www.w3.org/1999/02/22-rdf-syntax-ns#" xmlns:sodipodi="http://sodipodi.sourceforge.net/DTD/sodipodi-0.dtd" xmlns:xlink="http://www.w3.org/1999/xlink" xmlns="http://www.w3.org/2000/svg" version="1.1" width="0.75000003125in" height="0.75000003125in" viewBox="0 0 19.0500007937 19.0500007937" id="svg8" inkscape:version="0.92.3 (2405546, 2018-03-11)" sodipodi:docname="spade-007.svg"><sodipodi:namedview id="base" pagecolor="#ffffff" bordercolor="#666666" borderopacity="1.0" inkscape:pageopacity="0.0" inkscape:pageshadow="2" inkscape:zoom="0.88357843" inkscape:cx="528" inkscape:cy="408" inkscape:document-units="in" inkscape:current-layer="layer3" showgrid="false" units="in" inkscape:snap-others="true" inkscape:snap-grids="true" inkscape:window-width="1920" inkscape:window-height="986" inkscape:window-x="-11" inkscape:window-y="-11" inkscape:window-maximized="1" inkscape:snap-midpoints="true" inkscape:object-nodes="true" inkscape:snap-text-baseline="true" inkscape:snap-smooth-nodes="false" showguides="false" inkscape:snap-object-midpoints="true" inkscape:snap-center="true" inkscape:snap-to-guides="false" inkscape:snap-nodes="true" inkscape:snap-intersection-paths="true">
    <inkscape:grid type="xygrid" id="grid10" units="pt" spacingx="1.5875" spacingy="1.5875"/>
    <sodipodi:guide position="380.20625,103.1875" orientation="0,1" id="guide9455" inkscape:locked="false"/>
  </sodipodi:namedview>
  <metadata id="metadata5">
    <rdf:RDF>
      <cc:Work rdf:about="">
        <dc:format>image/svg+xml</dc:format>
        <dc:type rdf:resource="http://purl.org/dc/dcmitype/StillImage"/>
        <dc:title/>
      </cc:Work>
    </rdf:RDF>
  </metadata>
  <g inkscape:groupmode="layer" inkscape:label="spade-" transform="matrix(1.000000,0.000000,0.000000,1.000000,-149.224987,-114.299984)"><g id="g2139" inkscape:label="007">
      <rect style="display:inline;opacity:1;fill:#ffffff;fill-opacity:1;stroke:none;stroke-width:0.17638889;stroke-linecap:butt;stroke-linejoin:miter;stroke-miterlimit:47.14606857;stroke-dasharray:none;stroke-dashoffset:0;stroke-opacity:1;paint-order:markers fill stroke" id="rect15175" width="19.050001" height="19.050001" x="149.22499" y="195.39998" transform="translate(0,-81.099993)"/>
      <path inkscape:export-ydpi="96" inkscape:export-xdpi="96" inkscape:export-filename="C:\mine\Vira\Vira table excerpts\Tourne.png" id="path15241" d="m 161.92502,119.06245 -3.55013,4.19987 h 3.4e-4 a 2.0128663,2.0128663 0 0 0 -0.47586,1.29939 2.0128663,2.0128663 0 0 0 2.01287,2.01287 2.0128663,2.0128663 0 0 0 1.7457,-1.01576 l -0.81159,3.02863 h 2.15743 l -0.8106,-3.02537 a 2.0128663,2.0128663 0 0 0 1.7448,1.0125 2.0128663,2.0128663 0 0 0 2.01285,-2.01287 2.0128663,2.0128663 0 0 0 -0.47586,-1.29939 h 2.7e-4 z" style="opacity:1;fill:#000000;fill-opacity:1;stroke:none;stroke-width:0.07055558;stroke-linecap:butt;stroke-linejoin:miter;stroke-miterlimit:4;stroke-dasharray:none;stroke-dashoffset:0;paint-order:normal" inkscape:connector-curvature="0"/>
      <g id="text15249" style="font-style:normal;font-variant:normal;font-weight:normal;font-stretch:normal;font-size:14.11111164px;line-height:125%;font-family:'Stint Ultra Condensed';-inkscape-font-specification:'Stint Ultra Condensed, ';font-variant-ligatures:normal;font-variant-caps:normal;font-variant-numeric:normal;text-align:end;letter-spacing:0px;word-spacing:0px;writing-mode:lr-tb;text-anchor:end;fill:#000000;fill-opacity:1;stroke:none;stroke-width:0.26458335" aria-label="8">
        <path inkscape:connector-curvature="0" id="path1846" style="font-style:normal;font-variant:normal;font-weight:normal;font-stretch:normal;font-size:14.11111164px;font-family:'Stint Ultra Condensed';-inkscape-font-specification:'Stint Ultra Condensed, ';text-align:end;text-anchor:end;stroke-width:0.26458335" d="m 154.96106,123.41987 q 0.62701,0.23426 0.93707,0.9095 0.31695,0.67524 0.31695,1.67432 0,0.61322 -0.13092,1.1231 -0.13091,0.50987 -0.37896,0.87505 -0.24805,0.36518 -0.60633,0.57189 -0.35829,0.19981 -0.81305,0.19981 -0.45475,0 -0.81304,-0.19981 -0.35829,-0.20671 -0.61323,-0.57189 -0.24804,-0.36518 -0.37896,-0.87505 -0.13091,-0.50988 -0.13091,-1.1231 0,-0.4961 0.0827,-0.92329 0.0827,-0.42719 0.24116,-0.75792 0.15847,-0.33762 0.39274,-0.57189 0.23427,-0.24115 0.53743,-0.35829 -0.24804,-0.14469 -0.43408,-0.37207 -0.17914,-0.23426 -0.30317,-0.50298 -0.11713,-0.27561 -0.17914,-0.57878 -0.0551,-0.30316 -0.0551,-0.59255 0,-0.53055 0.11713,-0.97152 0.11713,-0.44097 0.33073,-0.75792 0.22049,-0.31695 0.52365,-0.4892 0.30317,-0.17915 0.66835,-0.17915 0.36518,0 0.66835,0.17915 0.30317,0.17225 0.52366,0.4892 0.22048,0.31695 0.3445,0.75792 0.12403,0.44097 0.12403,0.97152 0,0.28939 -0.062,0.59944 -0.0551,0.30317 -0.17915,0.58567 -0.11713,0.27561 -0.30317,0.50988 -0.17914,0.23426 -0.42719,0.37896 z m 0.12402,-2.02572 q 0,-0.33762 -0.0482,-0.64768 -0.0413,-0.31006 -0.1378,-0.54432 -0.0896,-0.24116 -0.24805,-0.37896 -0.15158,-0.13781 -0.36518,-0.13781 -0.22048,0 -0.37896,0.13781 -0.15158,0.1378 -0.24804,0.37896 -0.0965,0.23426 -0.13781,0.54432 -0.0413,0.31006 -0.0413,0.64768 0,0.33762 0.0482,0.64768 0.0482,0.31006 0.1447,0.54432 0.10335,0.23427 0.25493,0.37207 0.15159,0.13781 0.35829,0.13781 0.20671,0 0.35829,-0.13781 0.15159,-0.1378 0.24805,-0.37207 0.0965,-0.23426 0.14469,-0.54432 0.0482,-0.31006 0.0482,-0.64768 z m -0.79926,2.39779 q -0.50298,0 -0.78548,0.5581 -0.27561,0.55811 -0.27561,1.55718 0,0.99219 0.26872,1.56408 0.26872,0.56499 0.79237,0.56499 0.51677,0 0.78548,-0.56499 0.26872,-0.57189 0.26872,-1.56408 0,-0.49609 -0.0758,-0.88883 -0.0689,-0.39274 -0.20671,-0.66146 -0.1378,-0.27561 -0.33762,-0.4203 -0.19292,-0.14469 -0.43408,-0.14469 z"/>
      </g>
    </g>
    </g></svg>
