<?xml version='1.0' encoding='UTF-8'?>
<!-- Created with Inkscape (http://www.inkscape.org/) and export_objects.py -->
<svg xmlns:cc="http://creativecommons.org/ns#" xmlns:dc="http://purl.org/dc/elements/1.1/" xmlns:inkscape="http://www.inkscape.org/namespaces/inkscape" xmlns:rdf="http://www.w3.org/1999/02/22-rdf-syntax-ns#" xmlns:sodipodi="http://sodipodi.sourceforge.net/DTD/sodipodi-0.dtd" xmlns:xlink="http://www.w3.org/1999/xlink" xmlns="http://www.w3.org/2000/svg" version="1.1" width="0.75000003125in" height="0.75000003125in" viewBox="0 0 19.0500007937 19.0500007937" id="svg8" inkscape:version="0.92.3 (2405546, 2018-03-11)" sodipodi:docname="spade-004.svg"><sodipodi:namedview id="base" pagecolor="#ffffff" bordercolor="#666666" borderopacity="1.0" inkscape:pageopacity="0.0" inkscape:pageshadow="2" inkscape:zoom="0.88357843" inkscape:cx="528" inkscape:cy="408" inkscape:document-units="in" inkscape:current-layer="layer3" showgrid="false" units="in" inkscape:snap-others="true" inkscape:snap-grids="true" inkscape:window-width="1920" inkscape:window-height="986" inkscape:window-x="-11" inkscape:window-y="-11" inkscape:window-maximized="1" inkscape:snap-midpoints="true" inkscape:object-nodes="true" inkscape:snap-text-baseline="true" inkscape:snap-smooth-nodes="false" showguides="false" inkscape:snap-object-midpoints="true" inkscape:snap-center="true" inkscape:snap-to-guides="false" inkscape:snap-nodes="true" inkscape:snap-intersection-paths="true">
    <inkscape:grid type="xygrid" id="grid10" units="pt" spacingx="1.5875" spacingy="1.5875"/>
    <sodipodi:guide position="380.20625,103.1875" orientation="0,1" id="guide9455" inkscape:locked="false"/>
  </sodipodi:namedview>
  <metadata id="metadata5">
    <rdf:RDF>
      <cc:Work rdf:about="">
        <dc:format>image/svg+xml</dc:format>
        <dc:type rdf:resource="http://purl.org/dc/dcmitype/StillImage"/>
        <dc:title/>
      </cc:Work>
    </rdf:RDF>
  </metadata>
  <g inkscape:groupmode="layer" inkscape:label="spade-" transform="matrix(1.000000,0.000000,0.000000,1.000000,-82.550008,-114.299997)"><g id="g1823" inkscape:label="004">
      <g id="g1697" style="display:inline" transform="translate(0,-81.099993)">
        <rect y="195.39999" x="82.550011" height="19.050001" width="19.050001" id="rect15103" style="opacity:1;fill:#ffffff;fill-opacity:1;stroke:none;stroke-width:0.17638889;stroke-linecap:butt;stroke-linejoin:miter;stroke-miterlimit:47.14606857;stroke-dasharray:none;stroke-dashoffset:0;stroke-opacity:1;paint-order:markers fill stroke"/>
      </g>
      <path inkscape:export-ydpi="96" inkscape:export-xdpi="96" inkscape:export-filename="C:\mine\Vira\Vira table excerpts\Tourne.png" id="path15137" d="m 95.249998,119.06247 -3.550124,4.19987 h 3.37e-4 a 2.0128663,2.0128663 0 0 0 -0.475858,1.29939 2.0128663,2.0128663 0 0 0 2.01287,2.01287 2.0128663,2.0128663 0 0 0 1.7457,-1.01576 l -0.811593,3.02863 h 2.15743 l -0.810599,-3.02537 a 2.0128663,2.0128663 0 0 0 1.7448,1.0125 2.0128663,2.0128663 0 0 0 2.012853,-2.01287 2.0128663,2.0128663 0 0 0 -0.47586,-1.29939 h 2.6e-4 z" style="opacity:1;fill:#000000;fill-opacity:1;stroke:none;stroke-width:0.07055558;stroke-linecap:butt;stroke-linejoin:miter;stroke-miterlimit:4;stroke-dasharray:none;stroke-dashoffset:0;paint-order:normal" inkscape:connector-curvature="0"/>
      <g id="text15145" style="font-style:normal;font-variant:normal;font-weight:normal;font-stretch:normal;font-size:14.11111164px;line-height:125%;font-family:'Stint Ultra Condensed';-inkscape-font-specification:'Stint Ultra Condensed, ';font-variant-ligatures:normal;font-variant-caps:normal;font-variant-numeric:normal;text-align:end;letter-spacing:0px;word-spacing:0px;writing-mode:lr-tb;text-anchor:end;fill:#000000;fill-opacity:1;stroke:none;stroke-width:0.26458335" aria-label="J">
        <path inkscape:connector-curvature="0" id="path1890" style="font-style:normal;font-variant:normal;font-weight:normal;font-stretch:normal;font-size:14.11111164px;font-family:'Stint Ultra Condensed';-inkscape-font-specification:'Stint Ultra Condensed, ';text-align:end;text-anchor:end;stroke-width:0.26458335" d="m 87.207781,119.1204 h 2.700954 v 0.7717 h -0.847493 v 6.1116 q 0,0.74414 -0.117133,1.26091 -0.110243,0.50987 -0.323839,0.83371 -0.206706,0.31695 -0.509874,0.46164 -0.296279,0.13781 -0.675239,0.13781 -0.37207,0 -0.668349,-0.12403 -0.289388,-0.12402 -0.496093,-0.46164 -0.206706,-0.34451 -0.316949,-0.95085 -0.110243,-0.60633 -0.110243,-1.56407 h 0.861274 q 0.0069,0.64768 0.02756,1.08865 0.02756,0.44097 0.09646,0.71658 0.07579,0.26872 0.220486,0.39274 0.144694,0.11714 0.385851,0.11714 0.241157,0 0.392741,-0.12403 0.151584,-0.13091 0.234266,-0.37207 0.08268,-0.24804 0.110243,-0.61323 0.02756,-0.36518 0.02756,-0.8406 v -6.07026 h -0.992187 z"/>
      </g>
    </g>
    </g></svg>
