<?xml version='1.0' encoding='UTF-8'?>
<!-- Created with Inkscape (http://www.inkscape.org/) and export_objects.py -->
<svg xmlns:cc="http://creativecommons.org/ns#" xmlns:dc="http://purl.org/dc/elements/1.1/" xmlns:inkscape="http://www.inkscape.org/namespaces/inkscape" xmlns:rdf="http://www.w3.org/1999/02/22-rdf-syntax-ns#" xmlns:sodipodi="http://sodipodi.sourceforge.net/DTD/sodipodi-0.dtd" xmlns:xlink="http://www.w3.org/1999/xlink" xmlns="http://www.w3.org/2000/svg" version="1.1" width="0.75000003125in" height="0.75000003125in" viewBox="0 0 19.0500007937 19.0500007937" id="svg8" inkscape:version="0.92.3 (2405546, 2018-03-11)" sodipodi:docname="spade-003.svg"><sodipodi:namedview id="base" pagecolor="#ffffff" bordercolor="#666666" borderopacity="1.0" inkscape:pageopacity="0.0" inkscape:pageshadow="2" inkscape:zoom="0.88357843" inkscape:cx="528" inkscape:cy="408" inkscape:document-units="in" inkscape:current-layer="layer3" showgrid="false" units="in" inkscape:snap-others="true" inkscape:snap-grids="true" inkscape:window-width="1920" inkscape:window-height="986" inkscape:window-x="-11" inkscape:window-y="-11" inkscape:window-maximized="1" inkscape:snap-midpoints="true" inkscape:object-nodes="true" inkscape:snap-text-baseline="true" inkscape:snap-smooth-nodes="false" showguides="false" inkscape:snap-object-midpoints="true" inkscape:snap-center="true" inkscape:snap-to-guides="false" inkscape:snap-nodes="true" inkscape:snap-intersection-paths="true">
    <inkscape:grid type="xygrid" id="grid10" units="pt" spacingx="1.5875" spacingy="1.5875"/>
    <sodipodi:guide position="380.20625,103.1875" orientation="0,1" id="guide9455" inkscape:locked="false"/>
  </sodipodi:namedview>
  <metadata id="metadata5">
    <rdf:RDF>
      <cc:Work rdf:about="">
        <dc:format>image/svg+xml</dc:format>
        <dc:type rdf:resource="http://purl.org/dc/dcmitype/StillImage"/>
        <dc:title/>
      </cc:Work>
    </rdf:RDF>
  </metadata>
  <g inkscape:groupmode="layer" inkscape:label="spade-" transform="matrix(1.000000,0.000000,0.000000,1.000000,-60.325000,-114.299997)"><g id="g1813" inkscape:label="003">
      <g id="g1694" style="display:inline" transform="translate(0,-81.099993)">
        <rect style="opacity:1;fill:#ffffff;fill-opacity:1;stroke:none;stroke-width:0.17638889;stroke-linecap:butt;stroke-linejoin:miter;stroke-miterlimit:47.14606857;stroke-dasharray:none;stroke-dashoffset:0;stroke-opacity:1;paint-order:markers fill stroke" id="rect15095" width="19.050001" height="19.050001" x="60.325001" y="195.39999"/>
      </g>
      <path inkscape:connector-curvature="0" style="opacity:1;fill:#000000;fill-opacity:1;stroke:none;stroke-width:0.07055558;stroke-linecap:butt;stroke-linejoin:miter;stroke-miterlimit:4;stroke-dasharray:none;stroke-dashoffset:0;paint-order:normal" d="m 73.025001,119.06246 -3.550124,4.19987 h 3.37e-4 a 2.0128663,2.0128663 0 0 0 -0.475858,1.29939 2.0128663,2.0128663 0 0 0 2.01287,2.01287 2.0128663,2.0128663 0 0 0 1.7457,-1.01576 l -0.811593,3.02863 h 2.15743 l -0.810599,-3.02537 a 2.0128663,2.0128663 0 0 0 1.7448,1.0125 2.0128663,2.0128663 0 0 0 2.012849,-2.01287 2.0128663,2.0128663 0 0 0 -0.475855,-1.29939 h 2.62e-4 z" id="path15113" inkscape:export-filename="C:\mine\Vira\Vira table excerpts\Tourne.png" inkscape:export-xdpi="96" inkscape:export-ydpi="96"/>
      <g id="text15121" style="font-style:normal;font-variant:normal;font-weight:normal;font-stretch:normal;font-size:14.11111164px;line-height:125%;font-family:'Stint Ultra Condensed';-inkscape-font-specification:'Stint Ultra Condensed, ';font-variant-ligatures:normal;font-variant-caps:normal;font-variant-numeric:normal;text-align:end;letter-spacing:0px;word-spacing:0px;writing-mode:lr-tb;text-anchor:end;fill:#000000;fill-opacity:1;stroke:none;stroke-width:0.26458335" aria-label="Q">
        <path inkscape:connector-curvature="0" id="path1902" style="font-style:normal;font-variant:normal;font-weight:normal;font-stretch:normal;font-size:14.11111164px;font-family:'Stint Ultra Condensed';-inkscape-font-specification:'Stint Ultra Condensed, ';text-align:end;text-anchor:end;stroke-width:0.26458335" d="m 68.186722,123.86084 q 0,1.21267 -0.172255,2.10151 -0.165365,0.88883 -0.461643,1.49517 0.3514,0.21359 0.73036,0.36518 0.378961,0.15158 0.751031,0.21359 l -0.344509,0.86128 q -0.392741,-0.13781 -0.778592,-0.3514 -0.37896,-0.2136 -0.744141,-0.46853 -0.289388,0.35139 -0.640787,0.52365 -0.34451,0.17225 -0.737251,0.17225 -0.516764,0 -0.957736,-0.28938 -0.440973,-0.28939 -0.764812,-0.88884 -0.323839,-0.60634 -0.509874,-1.52962 -0.186035,-0.93018 -0.186035,-2.20486 0,-1.2678 0.186035,-2.19108 0.186035,-0.93018 0.509874,-1.53652 0.33073,-0.60633 0.771702,-0.89572 0.440972,-0.28939 0.950846,-0.28939 0.502984,0 0.943956,0.28939 0.440973,0.28939 0.757921,0.89572 0.323839,0.59945 0.509875,1.52963 0.186035,0.92328 0.186035,2.19797 z m -0.950847,0 q 0,-2.01194 -0.36518,-3.06614 -0.36518,-1.0542 -1.08176,-1.0542 -0.73725,0 -1.10243,1.06798 -0.36518,1.06109 -0.36518,3.05236 0,2.01193 0.36518,3.06613 0.36518,1.0542 1.10243,1.0542 0.434082,0 0.757921,-0.42719 -0.337619,-0.31006 -0.606337,-0.66146 l 0.3514,-0.55121 q 0.227377,0.33073 0.564996,0.62011 0.37896,-1.04731 0.37896,-3.10058 z"/>
      </g>
    </g>
    </g></svg>
