<?xml version="1.0" encoding="UTF-8" standalone="no"?>
<svg
   xmlns:dc="http://purl.org/dc/elements/1.1/"
   xmlns:cc="http://creativecommons.org/ns#"
   xmlns:rdf="http://www.w3.org/1999/02/22-rdf-syntax-ns#"
   xmlns:svg="http://www.w3.org/2000/svg"
   xmlns="http://www.w3.org/2000/svg"
   xmlns:sodipodi="http://sodipodi.sourceforge.net/DTD/sodipodi-0.dtd"
   xmlns:inkscape="http://www.inkscape.org/namespaces/inkscape"
   viewBox="0 0 96 96"
   version="1.1"
   id="svg30"
   sodipodi:docname="broadsword.svg"
   inkscape:version="0.92.3 (2405546, 2018-03-11)"
   width="72pt"
   height="72pt">
  <metadata
     id="metadata36">
    <rdf:RDF>
      <cc:Work
         rdf:about="">
        <dc:format>image/svg+xml</dc:format>
        <dc:type
           rdf:resource="http://purl.org/dc/dcmitype/StillImage" />
        <dc:title></dc:title>
      </cc:Work>
    </rdf:RDF>
  </metadata>
  <defs
     id="defs34" />
  <sodipodi:namedview
     pagecolor="#ffffff"
     bordercolor="#666666"
     borderopacity="1"
     objecttolerance="10"
     gridtolerance="10"
     guidetolerance="10"
     inkscape:pageopacity="0"
     inkscape:pageshadow="2"
     inkscape:window-width="1920"
     inkscape:window-height="1017"
     id="namedview32"
     showgrid="true"
     inkscape:zoom="3.5398416"
     inkscape:cx="-16.800286"
     inkscape:cy="9.6780488"
     inkscape:window-x="-8"
     inkscape:window-y="-8"
     inkscape:window-maximized="1"
     inkscape:current-layer="layer2"
     units="pt"
     fit-margin-top="0"
     fit-margin-left="0"
     fit-margin-right="0"
     fit-margin-bottom="0">
    <inkscape:grid
       type="xygrid"
       id="grid3742"
       units="pt"
       spacingx="6"
       spacingy="6"
       originx="0"
       originy="1.1368684e-013" />
  </sodipodi:namedview>
  <g
     inkscape:groupmode="layer"
     id="layer2"
     inkscape:label="back"
     transform="translate(0,-416)">
    <path
       style="opacity:1;fill:#000000;fill-opacity:1;stroke:none;stroke-width:5.6692915;stroke-linecap:square;stroke-linejoin:miter;stroke-miterlimit:50;stroke-dasharray:none;stroke-dashoffset:0;stroke-opacity:1;paint-order:markers fill stroke"
       d="m 6,416 c -3.324,0 -6,2.676 -6,6 v 84 c 0,3.324 2.676,6 6,6 h 84 c 3.324,0 6,-2.676 6,-6 v -84 c 0,-3.324 -2.676,-6 -6,-6 z m 86.220703,4.22461 -2.787109,15.64062 -39.722656,39.72266 c -0.889501,-0.59718 -1.933282,-0.92969 -3.097657,-0.92969 -1.120688,-1.9e-4 -2.167015,0.3343 -3.048828,0.9043 0.277313,0.915 0.427735,1.88239 0.427735,2.88477 -10e-7,2.94843 -1.29125,5.60671 -3.335938,7.4414 l 1.716797,1.71875 3.232422,-3.23242 c 1.0815,0.84582 2.182906,1.67023 3.300781,2.47461 l -3.646484,3.64453 2.478515,2.47852 4.091797,-4.09375 c 1.234125,0.82463 2.489234,1.62462 3.763672,2.39843 L 47.943359,498.92773 37,487.98438 c -0.951563,0.30243 -1.963031,0.46679 -3.011719,0.46679 -1.4325,0 -2.796375,-0.30759 -4.03125,-0.85547 l -13.529297,13.53125 2.730469,2.72852 -4.650391,4.65039 -2.730468,-2.73047 -1.613282,1.61523 -5.1074214,-5.10937 1.6132813,-1.61328 -2.7304688,-2.73047 4.6503907,-4.65039 2.7285152,2.73047 13.527344,-13.52539 c -0.551625,-1.23825 -0.861328,-2.60755 -0.861328,-4.04492 0,-1.04869 0.16436,-2.06015 0.466797,-3.01172 l -10.933594,-10.9336 7.650391,-7.65039 c 0.772875,1.27312 1.572875,2.52804 2.398437,3.76367 l -4.09375,4.0918 2.478516,2.47852 3.646484,-3.64453 c 0.803063,1.11657 1.626095,2.21657 2.472656,3.29882 l -3.232421,3.23243 1.708984,1.70898 c 1.834875,-2.04488 4.493156,-3.33789 7.441406,-3.33789 1.046062,0 2.056172,0.16372 3.00586,0.46484 0.549937,-0.87112 0.86914,-1.90069 0.86914,-3 0,-1.16476 -0.394234,-2.271 -1.005859,-3.17382 l 39.722656,-39.72266 z m -12.417969,9.93945 -35.939453,35.94141 2.476563,2.47656 35.941406,-35.93945 z m -45.814453,41.78321 c -3.6105,0 -6.5,2.88969 -6.5,6.5 0,3.61031 2.8895,6.5 6.5,6.5 3.610688,0 6.5,-2.8895 6.5,-6.5 0,-3.61031 -2.889312,-6.5 -6.5,-6.5 z"
       id="rect3765"
       inkscape:connector-curvature="0" />
  </g>
  <g
     inkscape:groupmode="layer"
     id="layer1"
     inkscape:label="Symbol"
     transform="translate(0,-416)" />
</svg>
