<?xml version="1.0" encoding="UTF-8" standalone="no"?>
<svg
   xmlns:dc="http://purl.org/dc/elements/1.1/"
   xmlns:cc="http://creativecommons.org/ns#"
   xmlns:rdf="http://www.w3.org/1999/02/22-rdf-syntax-ns#"
   xmlns:svg="http://www.w3.org/2000/svg"
   xmlns="http://www.w3.org/2000/svg"
   xmlns:sodipodi="http://sodipodi.sourceforge.net/DTD/sodipodi-0.dtd"
   xmlns:inkscape="http://www.inkscape.org/namespaces/inkscape"
   viewBox="0 0 96 96"
   version="1.1"
   id="svg8"
   sodipodi:docname="crown-coin.svg"
   width="72pt"
   height="72pt"
   inkscape:version="0.92.3 (2405546, 2018-03-11)">
  <metadata
     id="metadata14">
    <rdf:RDF>
      <cc:Work
         rdf:about="">
        <dc:format>image/svg+xml</dc:format>
        <dc:type
           rdf:resource="http://purl.org/dc/dcmitype/StillImage" />
        <dc:title></dc:title>
      </cc:Work>
    </rdf:RDF>
  </metadata>
  <defs
     id="defs12" />
  <sodipodi:namedview
     pagecolor="#ffffff"
     bordercolor="#666666"
     borderopacity="1"
     objecttolerance="10"
     gridtolerance="10"
     guidetolerance="10"
     inkscape:pageopacity="0"
     inkscape:pageshadow="2"
     inkscape:window-width="1920"
     inkscape:window-height="1017"
     id="namedview10"
     showgrid="true"
     showguides="false"
     units="pt"
     fit-margin-top="0"
     fit-margin-left="0"
     fit-margin-right="0"
     fit-margin-bottom="0"
     inkscape:zoom="4.0546098"
     inkscape:cx="-28.263854"
     inkscape:cy="33.336089"
     inkscape:window-x="-8"
     inkscape:window-y="-8"
     inkscape:window-maximized="1"
     inkscape:current-layer="layer1">
    <inkscape:grid
       type="xygrid"
       id="grid821"
       originx="0"
       originy="1.1368684e-013"
       units="pt"
       spacingx="6"
       spacingy="6" />
  </sodipodi:namedview>
  <g
     inkscape:groupmode="layer"
     id="layer1"
     inkscape:label="Layer 1"
     transform="translate(0,-416)">
    <path
       id="rect906"
       style="opacity:1;fill:#808000;fill-opacity:1;stroke:none;stroke-width:2.66666675;stroke-linecap:round;stroke-linejoin:miter;stroke-miterlimit:6.70588255;stroke-dasharray:none;stroke-dashoffset:0;stroke-opacity:1;paint-order:markers fill stroke"
       d="m 6,416 h 84 c 3.324,0 6,2.676 6,6 v 84 c 0,3.324 -2.676,6 -6,6 H 6 c -3.324,0 -6,-2.676 -6,-6 v -84 c 0,-3.324 2.676,-6 6,-6 z m 39.675,76.275 v 6.7875 c 1.3125,0.0562 2.34375,0.0375 3.65625,0.0375 v -6.7875 c -1.21875,0 -2.5875,0.0188 -3.65625,-0.0375 z m 11.38125,-0.56255 c -1.3875,0.1875 -2.775,0.3375 -4.2,0.43125 v 6.7875 c 1.425,-0.1125 2.8125,-0.2625 4.2,-0.45 z M 38.25,491.61875 v 6.75 c 1.275,0.20625 2.5875,0.35625 3.91875,0.4875 v -6.7875 c -1.33125,-0.1125 -2.64375,-0.2625 -3.91875,-0.45 z m 26.08125,-1.3125 c -1.2375,0.31875 -2.5125,0.6 -3.80625,0.84375 v 6.7125 c 1.29375,-0.2625 2.56875,-0.54375 3.80625,-0.88125 z m -33.39375,-0.1875 v 6.65625 c 1.2375,0.35625 2.5125,0.675 3.80625,0.95625 v -6.7125 c -1.29375,-0.2625 -2.56875,-0.5625 -3.80625,-0.9 z m 40.81875,-2.23125 c -1.275,0.50625 -2.5875,0.975 -3.91875,1.40625 v 6.6 c 1.35,-0.46875 2.6625,-0.975 3.91875,-1.51875 z m -48.24375,-0.3 v 6.46875 c 1.25625,0.5625 2.56875,1.10625 3.91875,1.59375 v -6.58125 c -1.33125,-0.45 -2.64375,-0.9375 -3.91875,-1.48125 z m 55.425,-3.2625 c -1.18125,0.7125 -2.4,1.36875 -3.675,1.9875 v 6.35625 c 1.29375,-0.69375 2.5125,-1.425 3.675,-2.19375 z m -62.578125,-0.43125 v 6.09375 c 1.2,0.84375 2.540625,1.66875 3.646875,2.2875 v -6.31875 c -1.265625,-0.6375 -2.484375,-1.33125 -3.646875,-2.0625 z m 35.371875,-2.4 0.1875,3.50625 c -1.275,0.0937 -2.68125,0.15 -4.0125,0.0937 l 0.01875,-3.4875 c 1.275,0 2.53125,-0.0375 3.80625,-0.1125 z m -10.575,-0.35625 c 1.125,0.15 2.25,0.2625 3.39375,0.3375 l -0.24375,3.4875 c -1.2,-0.075 -2.4,-0.1875 -3.6,-0.3375 z m 17.2875,-0.46875 0.675,3.45 c -1.2375,0.20625 -2.5125,0.43125 -3.58125,0.54375 l -0.43125,-3.46875 c 1.2,-0.20625 2.25,-0.375 3.3375,-0.525 z M 34.5,479.84375 c 1.0875,0.28125 2.19375,0.525 3.3,0.75 l -0.65625,3.45 c -1.2,-0.225 -2.3625,-0.525 -3.525,-0.825 z M 85.575,479.45 c -0.99375,0.88125 -2.025,1.74375 -3.13125,2.55 v 5.83125 c 1.125,-0.95625 2.175,-1.96875 3.13125,-3.01875 z M 64.9875,478.98125 66.13125,482.3 c -1.18125,0.39375 -2.45625,0.73125 -3.4875,1.03125 l -0.9,-3.39375 c 1.1625,-0.2625 2.23125,-0.675 3.24375,-0.95625 z m -55.284375,-0.1875 v 5.2125 c 0.95625,1.10625 2.00625,2.19375 3.15,3.20625 v -5.7375 c -1.10625,-0.8625 -2.15625,-1.74375 -3.15,-2.68125 z M 28.125,477.63125 c 1.0125,0.46875 2.1,0.80625 3.15,1.21875 l -1.125,3.31875 c -1.14375,-0.375 -2.26875,-0.8625 -3.39375,-1.3125 z m 43.05,-1.29375 1.63125,3.1125 c -1.06875,0.58125 -2.15625,1.06875 -3.28125,1.55625 l -1.3875,-3.225 c 1.06875,-0.43125 2.15625,-0.975 3.0375,-1.44375 z m -48.9,-1.9125 c 0.91875,0.6375 1.89375,1.2 2.86875,1.74375 l -1.6875,3.075 c -1.0875,-0.5625 -2.1,-1.25625 -3.13125,-1.89375 z M 76.74375,472.68125 78.9375,475.4 c -1.14375,0.91875 -1.85625,1.44375 -2.9625,2.175 l -1.93125,-2.925 c 0.9375,-0.6 1.81875,-1.275 2.7,-1.96875 z m 15.20625,-0.9 c -0.825,1.40625 -1.8,2.75625 -2.86875,4.03125 v 4.25625 c 1.51875,-2.625 2.49375,-5.4 2.86875,-8.2875 z m -87.909375,0 c 0.31875,2.41875 1.05,4.74375 2.15625,6.95625 v -3.80625 c -0.7875,-1.0125 -1.5,-2.0625 -2.15625,-3.15 z m 15.590625,0.65625 -2.240625,2.68125 c -0.976875,-0.80625 -1.95,-1.7625 -2.71875,-2.5875 l 2.5875,-2.3625 c 0.815625,0.76875 1.621875,1.65 2.371875,2.26875 z m 61.5,-4.5 2.90625,1.96875 c -0.73125,1.06875 -1.6125,2.1375 -2.34375,2.9625 -0.9,-0.8625 -1.6875,-1.6125 -2.56875,-2.41875 v -0.0188 c 0.76875,-0.84375 1.4625,-1.725 2.00625,-2.49375 z m -67.340625,-3.09375 c 0.465,0.975 0.975,1.93125 1.5,2.775 l -2.90625,1.95 c -0.785625,-1.2 -1.3275,-2.25 -1.89375,-3.375 1.0125,-0.46875 2.180625,-0.9375 3.3,-1.35 z M 83.7375,462.2 87.15,462.93125 c -0.28125,1.29375 -0.76875,2.64375 -1.2375,3.675 l -3.1875,-1.4625 C 83.15625,464.1125 83.49375,463.1 83.7375,462.2 Z m -71.165625,-3.4687 c 0.01875,1.0875 0.129375,2.15625 0.3,3.075 l -3.43125,0.73125 c -0.166875,-1.3125 -0.31125,-2.68125 -0.31875,-3.88125 0.84375,0.0188 2.390625,0.0562 3.45,0.075 z m 74.634375,-3.4875 c 0.20625,1.35 0.39375,2.625 0.39375,3.88125 l -3.50625,-0.0562 c -0.075,-1.06875 -0.1125,-2.175 -0.31875,-3.075 1.14375,-0.24375 2.2875,-0.50625 3.43125,-0.75 z m -76.378125,-4.05 3.1875,1.4625 c -0.466875,0.95625 -0.78375,1.96875 -1.05,3 l -3.369375,-0.9 c 0.328125,-1.48125 0.6675,-2.4 1.231875,-3.5625 z m 73.340625,-2.94375 c 0.69375,1.06875 1.33125,2.25 1.85625,3.3 l -3.1875,1.4625 C 82.40625,452.01875 81.825,451.11875 81.28125,450.2 Z M 76.6875,448.0063 C 73.35,455.225 69.825,462.3875 66.35625,469.55 l 4.78125,-15.45 -10.725,4.425 -1.59375,-3.15 z M 23.4,447.9875 c 6.3375,3.1875 12.375,7.59375 18.375,11.45625 l -12.80625,-5.325 4.95,16.0125 16.05,1.18125 16.10625,-1.18125 -1.7625,3.6375 -14.34375,1.05 -18.675,-1.36875 z m 26.56875,-2.2125 c 2.5125,4.44375 4.70625,9.1125 6.99375,13.6875 l -6.99375,-8.26875 -5.1375,6.05625 -2.94375,-1.9125 c 2.7,-3.1875 5.38125,-6.375 8.08125,-9.5625 z m -32.296875,1.63125 c -0.766875,0.825 -1.50375,1.725 -2.0625,2.5125 l -2.85,-2.04375 c 0.9,-1.14375 1.515,-2.00625 2.41875,-2.90625 0.67875,0.73125 1.689375,1.66875 2.49375,2.4375 z M 79.125,442.7375 c 0.9375,0.825 1.89375,1.6125 2.71875,2.56875 l -2.5875,2.3625 c -0.80625,-0.80625 -1.6125,-1.63125 -2.38125,-2.25 z m -58.25625,-2.45625 c 0.61875,0.99375 1.2375,1.96875 1.89375,2.94375 -0.9375,0.6 -1.81875,1.25625 -2.68125,1.95 l -2.203125,-2.71875 c 1.228125,-1.3125 2.409375,-1.93125 2.990625,-2.175 z m 52.125,-1.65 0.01875,0.0187 c 1.10625,0.61875 2.25,1.25625 3.15,1.875 l -1.93125,2.925 c -0.91875,-0.61875 -1.875,-1.18125 -2.85,-1.70625 L 71.3625,441.725 c 0.58125,-1.0125 1.0875,-2.0625 1.63125,-3.09375 z m -45.675,-1.725 1.36875,3.20625 c -1.14375,0.525 -2.025,0.9 -3.0375,1.44375 l -1.63125,-3.1125 c 1.2,-0.65625 2.1,-1.03125 3.3,-1.5375 z m 39,-1.14375 c 1.14375,0.39375 2.30625,0.80625 3.4125,1.29375 l -1.3875,3.225 c -1.03125,-0.46875 -2.1,-0.825 -3.15,-1.21875 z m -31.25625,2.23125 c -1.10625,0.3 -2.25,0.6375 -3.24375,0.95625 l -1.18125,-3.31875 c 1.125,-0.35625 2.49375,-0.7875 3.61875,-1.09313 0.3,1.13063 0.54375,2.34938 0.80625,3.45563 z m 24.28125,-4.10813 c 1.18125,0.24001 2.3625,0.48188 3.525,0.82688 l -0.9,3.375 c -1.0875,-0.28125 -2.2125,-0.525 -3.31875,-0.73125 z M 41.325,433.2875 l 0.43125,3.4875 c -1.125,0.1125 -2.25,0.31875 -3.375,0.50625 l -0.61875,-3.45 C 39,433.60437 40.29375,433.43187 41.325,433.2875 Z m 10.8,-0.3 c 1.2,0.0694 2.41875,0.17437 3.61875,0.33562 l -0.43125,3.47063 c -1.10625,-0.1875 -2.11875,-0.20625 -3.35625,-0.31875 z m -3.5625,-0.1125 -0.0375,3.50625 c -1.125,-0.0188 -2.25,0.0375 -3.375,0.0937 l -0.225,-3.50625 c 1.21875,-0.0656 2.41875,-0.0937 3.6375,-0.0937 z M 48,428.9 c -12.35625,0 -23.475,3.4875 -31.434375,8.98125 C 8.596875,443.375 3.871875,450.8 3.871875,458.8625 c 0,8.0625 4.725,15.46875 12.69375,20.98125 C 24.50625,485.3375 35.64375,488.825 48,488.825 c 12.3375,0 23.49375,-3.4875 31.4625,-8.98125 7.93125,-5.5125 12.675,-12.91875 12.675,-20.98125 0,-8.0625 -4.74375,-15.4875 -12.675,-20.98125 C 71.49375,432.38562 60.35625,428.9 48,428.9 Z" />
  </g>
</svg>
