<?xml version="1.0" encoding="UTF-8" standalone="no"?>
<svg
   xmlns:dc="http://purl.org/dc/elements/1.1/"
   xmlns:cc="http://creativecommons.org/ns#"
   xmlns:rdf="http://www.w3.org/1999/02/22-rdf-syntax-ns#"
   xmlns:svg="http://www.w3.org/2000/svg"
   xmlns="http://www.w3.org/2000/svg"
   xmlns:sodipodi="http://sodipodi.sourceforge.net/DTD/sodipodi-0.dtd"
   xmlns:inkscape="http://www.inkscape.org/namespaces/inkscape"
   viewBox="0 0 95.999997 95.999997"
   version="1.1"
   id="svg8"
   sodipodi:docname="jeweled-chalice.svg"
   width="1in"
   height="1in"
   inkscape:version="0.92.3 (2405546, 2018-03-11)">
  <metadata
     id="metadata14">
    <rdf:RDF>
      <cc:Work
         rdf:about="">
        <dc:format>image/svg+xml</dc:format>
        <dc:type
           rdf:resource="http://purl.org/dc/dcmitype/StillImage" />
        <dc:title></dc:title>
      </cc:Work>
    </rdf:RDF>
  </metadata>
  <defs
     id="defs12" />
  <sodipodi:namedview
     pagecolor="#ffffff"
     bordercolor="#666666"
     borderopacity="1"
     objecttolerance="10"
     gridtolerance="10"
     guidetolerance="10"
     inkscape:pageopacity="0"
     inkscape:pageshadow="2"
     inkscape:window-width="1920"
     inkscape:window-height="1017"
     id="namedview10"
     showgrid="true"
     units="in"
     fit-margin-top="0"
     fit-margin-left="0"
     fit-margin-right="0"
     fit-margin-bottom="0"
     inkscape:zoom="3.7909825"
     inkscape:cx="-44.647733"
     inkscape:cy="68.156211"
     inkscape:window-x="-8"
     inkscape:window-y="-8"
     inkscape:window-maximized="1"
     inkscape:current-layer="layer1">
    <inkscape:grid
       type="xygrid"
       id="grid841"
       units="pt"
       spacingx="5.9999998"
       spacingy="5.9999998" />
  </sodipodi:namedview>
  <g
     inkscape:groupmode="layer"
     id="layer1"
     inkscape:label="Layer 1">
    <path
       id="rect834"
       style="opacity:1;fill:#800000;fill-opacity:1;stroke:none;stroke-width:2.66666675;stroke-linecap:round;stroke-linejoin:miter;stroke-miterlimit:6.70588255;stroke-dasharray:none;stroke-dashoffset:0;stroke-opacity:1;paint-order:markers fill stroke"
       d="M 6.0000029,0 H 89.999997 C 93.323999,0 96,2.6760013 96,6.0000029 V 89.999997 C 96,93.323999 93.323999,96 89.999997,96 H 6.0000029 C 2.6760013,96 0,93.323999 0,89.999997 V 6.0000029 C 0,2.6760013 2.6760013,0 6.0000029,0 Z M 68.777437,80.542875 c -0.375,0.591 -0.870749,1.11525 -1.423875,1.5645 -1.198124,0.973125 -2.744999,1.729875 -4.5825,2.361375 -3.675,1.263187 -8.543625,1.992187 -13.915687,1.992187 -5.37225,0 -10.23525,-0.729 -13.91025,-1.992187 -1.8375,-0.6315 -3.384375,-1.388437 -4.582125,-2.361375 -0.541875,-0.44025 -1.02825,-0.952875 -1.40025,-1.52925 -0.075,0.03375 -0.14775,0.07462 -0.223125,0.105562 -2.202187,0.903188 -3.951187,2.140875 -4.40025,4.036875 -0.84,3.549375 11.034,7.183125 24.726563,7.183688 13.69275,3.75e-4 24.826312,-3.238688 24.826312,-7.1835 0,-1.61925 -2.1375,-2.506875 -5.115,-4.1775 z M 40.171875,60.621 c -2.198625,7.998 -5.045625,14.47125 -8.373,17.882813 0.09338,0.215624 0.309375,0.508125 0.773437,0.884999 0.712875,0.579001 1.930875,1.221001 3.509625,1.763626 3.157125,1.085062 7.726876,1.804687 12.773438,1.804687 5.046188,0 9.621938,-0.719625 12.77925,-1.804687 1.578375,-0.542625 2.796375,-1.184625 3.509438,-1.763813 0.593062,-0.4815 0.780374,-0.822187 0.826312,-1.042875 -3.229875,-3.433875 -6.241313,-9.79125 -8.6775,-17.642625 -2.293687,0.730875 -5.2185,1.136813 -8.437875,1.136813 -3.312,0 -6.309375,-0.430125 -8.630625,-1.201313 -0.018,-0.0056 -0.03506,-0.01162 -0.05288,-0.01762 z m 1.622813,-6.743812 c -0.238875,1.131375 -0.487501,2.249062 -0.75,3.339375 0.09375,0.03431 0.188437,0.06694 0.28725,0.09994 1.815937,0.603188 4.526249,1.019438 7.523437,1.019438 2.956875,0 5.638125,-0.406125 7.453125,-0.996188 -0.280312,-1.018125 -0.547875,-2.061562 -0.8085,-3.117187 -1.869375,0.402187 -3.950625,0.627 -6.14625,0.627 -2.7675,0 -5.352375,-0.35325 -7.558875,-0.972375 z m 7.353749,-24.135001 c -0.863625,0 -1.741875,0.492 -2.513625,1.599376 -0.772499,1.107749 -1.3185,2.780625 -1.3185,4.66425 0,0.871874 0.12,1.69725 0.322125,2.4435 0.362813,-1.469438 1.681875,-2.560501 3.263625,-2.560501 1.861125,0 3.369375,1.508063 3.369375,3.369376 0,0.116249 -0.0062,0.2325 -0.01762,0.345562 0.44625,-1.00425 0.732375,-2.245313 0.732375,-3.598125 0,-1.88325 -0.552187,-3.556313 -1.324312,-4.663875 -0.77175,-1.107563 -1.65,-1.599375 -2.513438,-1.599375 z m 0,-3.503812 c 2.221876,0 4.140375,1.305937 5.390625,3.099375 1.25025,1.793625 1.951126,4.124625 1.951126,6.668063 0,2.543625 -0.700688,4.874624 -1.950938,6.668249 -1.25025,1.793438 -3.16875,3.099375 -5.390625,3.099375 -2.221875,0 -4.134375,-1.305937 -5.385,-3.099375 C 42.51375,40.88025 41.8125,38.549438 41.8125,36.005625 c 0,-2.54325 0.70125,-4.87425 1.951125,-6.6675 1.25025,-1.793813 3.16275,-3.09975 5.385,-3.09975 z m 27.919688,-2.214938 c -0.09788,0.0013 -0.202125,0.0099 -0.310313,0.02344 -0.865875,0.108187 -2.008124,0.83325 -2.964937,2.161875 -0.95625,1.329 -1.688625,3.18375 -1.880625,5.121375 -0.02962,0.29625 -0.04387,0.582187 -0.04687,0.861375 0.616875,-0.805313 1.5855,-1.324313 2.6775,-1.324313 1.861125,0 3.369375,1.508063 3.369375,3.369375 0,0.04313 -0.0043,0.08569 -0.006,0.128626 0.839438,-1.29525 1.464375,-2.999625 1.640625,-4.77525 0.192,-1.937438 -0.205125,-3.527625 -0.79125,-4.447125 -0.439125,-0.69 -0.85875,-1.023 -1.40625,-1.101563 -0.09094,-0.01313 -0.183,-0.01913 -0.28125,-0.01781 z m -56.53125,0 c -0.09787,-0.0013 -0.18975,0.0045 -0.28125,0.01762 -0.546938,0.07838 -0.966563,0.411563 -1.40625,1.101375 -0.58575,0.9195 -0.982875,2.509688 -0.790875,4.4475 0.153375,1.546875 0.65025,3.0375 1.330125,4.253625 0.194062,-1.676249 1.617187,-2.976562 3.34575,-2.976562 1.3095,0 2.442375,0.748875 3,1.839937 0.01875,-0.43425 0.0068,-0.89475 -0.04125,-1.377 C 25.501312,29.392307 24.76875,27.537557 23.8125,26.208745 22.85625,24.88012 21.713438,24.155057 20.847562,24.04687 c -0.108187,-0.0135 -0.212437,-0.02212 -0.3105,-0.02344 z M 28.64625,9.135 c -0.839438,0.698625 -1.3005,1.451625 -1.3005,2.238 0,3.62775 9.748125,6.5685 21.767625,6.5685 C 61.1325,17.9415 70.875,15 70.875,11.373 c 0,-0.7875 -0.465,-1.538625 -1.306875,-2.2381875 2.475,0.758625 4.434937,1.6548745 5.654625,2.5252495 1.243875,0.887625 1.576125,1.590563 1.576125,2.033063 0,0.4425 -0.33225,1.145625 -1.576125,2.033438 -1.244062,0.887624 -3.255,1.803749 -5.800875,2.572499 -5.091562,1.536375 -12.321937,2.525251 -20.308687,2.525251 -7.986563,0 -15.216938,-0.988876 -20.308501,-2.525626 -2.545687,-0.768187 -4.556812,-1.6845 -5.800875,-2.572124 -1.243875,-0.887625 -1.576125,-1.59075 -1.576125,-2.03325 0,-0.4425 0.332438,-1.14525 1.576313,-2.033063 1.217812,-0.868875 3.172875,-1.7671875 5.642625,-2.52525 z M 49.113375,3.0525 c -8.2725,0 -15.758813,0.9988125 -21.3225,2.677875 C 25.009312,6.57 22.705875,7.56825 20.97075,8.8066875 19.238625,10.042313 17.928937,11.675438 17.923875,13.681687 l -0.0056,0.0056 c 0,2.496563 0.196875,4.94025 0.568125,7.3125 0.616875,-0.277125 1.285875,-0.443999 1.980375,-0.46875 0.269437,-0.0094 0.538875,7.5e-4 0.8145,0.03525 2.205562,0.275625 4.030125,1.723688 5.379,3.597563 1.348688,1.873875 2.265,4.254375 2.519437,6.820312 0.254438,2.566126 -0.189937,4.893751 -1.324312,6.673875 -0.477,0.748875 -1.11825,1.38825 -1.863188,1.863188 5.674875,7.7325 13.88325,12.627187 23.121188,12.627187 9.133125,0 17.256187,-4.787999 22.921875,-12.369374 -0.928125,-0.485626 -1.719,-1.23225 -2.28525,-2.120626 -1.134375,-1.780312 -1.57875,-4.108124 -1.324312,-6.674062 0.254437,-2.566125 1.17675,-4.94625 2.525624,-6.820313 1.348688,-1.873874 3.167438,-3.322125 5.373001,-3.59775 0.137812,-0.01687 0.2745,-0.02944 0.410062,-0.03506 0.135563,-0.0056 0.269625,-0.0049 0.40425,0 0.9135,0.03262 1.782375,0.314437 2.548875,0.767625 0.401813,-2.463188 0.615,-5.006625 0.615,-7.605563 v -0.0058 c -0.0023,-2.0085 -1.3129,-3.643687 -3.0469,-4.880625 C 75.5205,7.56825 73.21725,6.57 70.4355,5.7305625 64.872,4.0513125 57.3855,3.0526875 49.113,3.0526875 Z" />
  </g>
</svg>
