<?xml version="1.0" encoding="UTF-8" standalone="no"?>
<!-- Created with Inkscape (http://www.inkscape.org/) and export_objects.py -->

<svg
   xmlns:dc="http://purl.org/dc/elements/1.1/"
   xmlns:cc="http://creativecommons.org/ns#"
   xmlns:rdf="http://www.w3.org/1999/02/22-rdf-syntax-ns#"
   xmlns:svg="http://www.w3.org/2000/svg"
   xmlns="http://www.w3.org/2000/svg"
   xmlns:sodipodi="http://sodipodi.sourceforge.net/DTD/sodipodi-0.dtd"
   xmlns:inkscape="http://www.inkscape.org/namespaces/inkscape"
   version="1.1"
   id="Layer_1"
   x="0px"
   y="0px"
   width="2in"
   height="3in"
   viewBox="0 0 191.99999 287.99999"
   enable-background="new 0 0 1400 980"
   xml:space="preserve"
   sodipodi:docname="suit-baton.svg"
   inkscape:version="0.92.3 (2405546, 2018-03-11)"><defs
   id="defs12" /><sodipodi:namedview
   pagecolor="#ffffff"
   bordercolor="#666666"
   borderopacity="1"
   objecttolerance="10"
   gridtolerance="10"
   guidetolerance="10"
   inkscape:pageopacity="0"
   inkscape:pageshadow="2"
   inkscape:window-width="1280"
   inkscape:window-height="940"
   id="namedview349"
   showgrid="false"
   inkscape:zoom="1"
   inkscape:cx="21.962"
   inkscape:cy="116.1385"
   inkscape:window-x="1909"
   inkscape:window-y="43"
   inkscape:window-maximized="1"
   inkscape:current-layer="g9"
   fit-margin-top="0"
   fit-margin-left="0"
   fit-margin-right="0"
   fit-margin-bottom="0"
   inkscape:document-units="in"
   units="in" />
<metadata
   id="metadata353"><rdf:RDF><cc:Work
       rdf:about=""><dc:format>image/svg+xml</dc:format><dc:type
         rdf:resource="http://purl.org/dc/dcmitype/StillImage" /><dc:title></dc:title></cc:Work></rdf:RDF></metadata><g
   inkscape:groupmode="layer"
   inkscape:label="suit-"
   transform="translate(-314.1605,-459.13429)"
   id="g9"><g
     id="g835"
     transform="matrix(1.2398989,0,0,1.2398989,-6.5974222,-179.23669)"
     style="stroke-width:0.80651742"><path
       style="fill:#007400;fill-opacity:1;stroke-width:0.80651742"
       inkscape:connector-curvature="0"
       id="path312"
       d="m 336.1215,558.77928 c -12.108,0 -21.961,-9.851 -21.961,-21.962 0,-12.107 9.853,-21.96 21.961,-21.96 12.11,0 21.963,9.853 21.963,21.96 0,12.111 -9.852,21.962 -21.963,21.962 z m 0,-39.375 c -9.603,0 -17.416,7.812 -17.416,17.413 0,9.604 7.813,17.417 17.416,17.417 9.604,0 17.416,-7.813 17.416,-17.417 0,-9.602 -7.812,-17.413 -17.416,-17.413 z" /><path
       style="fill:#007400;fill-opacity:1;stroke-width:0.80651742"
       inkscape:connector-curvature="0"
       id="path316"
       d="m 333.2505,557.44028 c -0.543,0 -1.024,-0.393 -1.118,-0.947 -0.105,-0.618 0.311,-1.207 0.93,-1.311 6.377,-1.087 11.007,-6.579 11.007,-13.061 0,-3.216 -1.165,-6.314 -3.282,-8.73 -0.415,-0.472 -0.368,-1.189 0.104,-1.603 0.472,-0.413 1.191,-0.367 1.604,0.105 2.481,2.83 3.847,6.461 3.847,10.228 0,7.592 -5.424,14.027 -12.899,15.3 -0.064,0.012 -0.128,0.019 -0.193,0.019 z" /><path
       style="fill:#007400;fill-opacity:1;stroke-width:0.80651742"
       inkscape:connector-curvature="0"
       id="path320"
       d="m 339.6445,531.89728 c -0.244,0 -0.49,-0.079 -0.697,-0.239 -1.004,-0.779 -2.106,-1.409 -3.283,-1.873 -0.586,-0.229 -0.872,-0.889 -0.643,-1.471 0.228,-0.584 0.888,-0.872 1.473,-0.644 1.379,0.541 2.674,1.28 3.85,2.193 0.494,0.386 0.583,1.099 0.196,1.595 -0.222,0.287 -0.557,0.439 -0.896,0.439 z" /><path
       style="fill:#007400;fill-opacity:1;stroke-width:0.80651742"
       inkscape:connector-curvature="0"
       id="path324"
       d="m 316.6415,540.81928 c -0.064,0 -0.129,-0.005 -0.193,-0.016 -0.618,-0.105 -1.033,-0.693 -0.928,-1.311 1.275,-7.471 7.709,-12.893 15.299,-12.893 0.628,0 1.136,0.51 1.136,1.138 0,0.625 -0.508,1.135 -1.136,1.135 -6.478,0 -11.971,4.626 -13.059,11.001 -0.094,0.554 -0.574,0.946 -1.119,0.946 z" /><path
       style="fill:#007400;fill-opacity:1;stroke-width:0.80651742"
       inkscape:connector-curvature="0"
       id="path328"
       d="m 344.2045,588.96628 c -0.013,0 -0.022,0 -0.034,-0.002 -1.204,-0.016 -2.166,-1.008 -2.148,-2.213 l 0.471,-32.225 c 0.018,-1.206 1.022,-2.171 2.213,-2.149 1.204,0.017 2.167,1.008 2.148,2.212 l -0.47,32.227 c -0.016,1.194 -0.991,2.15 -2.18,2.15 z" /><path
       style="fill:#007400;fill-opacity:1;stroke-width:0.80651742"
       inkscape:connector-curvature="0"
       id="path332"
       d="m 341.8985,747.13428 h -11.551 c -1.191,0 -2.164,-0.957 -2.18,-2.149 l -2.097,-143.774 c -0.018,-1.205 0.945,-2.195 2.149,-2.214 1.216,-0.015 2.195,0.945 2.212,2.15 l 2.064,141.626 h 7.252 l 2.064,-141.626 c 0.019,-1.194 0.992,-2.15 2.182,-2.15 0.01,0 0.021,0 0.032,0 1.204,0.019 2.166,1.009 2.148,2.214 l -2.097,143.774 c -0.014,1.192 -0.985,2.149 -2.178,2.149 z" /><path
       style="fill:#007400;fill-opacity:1;stroke-width:0.80651742"
       inkscape:connector-curvature="0"
       id="path336"
       d="m 328.0415,588.96428 c -1.191,0 -2.164,-0.954 -2.181,-2.148 l -0.47,-32.227 c -0.018,-1.204 0.944,-2.195 2.148,-2.212 1.202,-0.014 2.196,0.945 2.212,2.149 l 0.471,32.225 c 0.018,1.205 -0.945,2.197 -2.149,2.213 -0.01,0 -0.021,0 -0.031,0 z" /><path
       style="fill:#007400;fill-opacity:1;stroke-width:0.80651742"
       inkscape:connector-curvature="0"
       id="path340"
       d="m 351.4625,603.35928 h -29.548 c -1.204,0 -2.18,-0.977 -2.18,-2.183 v -14.392 c 0,-1.204 0.976,-2.182 2.18,-2.182 h 29.548 c 1.203,0 2.182,0.978 2.182,2.182 v 14.392 c 0,1.206 -0.979,2.183 -2.182,2.183 z m -27.366,-4.363 h 25.183 v -10.03 h -25.183 z" /><path
       style="fill:#007400;fill-opacity:1;stroke-width:0.80651742"
       inkscape:connector-curvature="0"
       id="path408"
       d="m 334.2595,586.50228 c -0.628,0 -1.136,-0.507 -1.136,-1.138 v -29.276 c 0,-0.625 0.508,-1.136 1.136,-1.136 0.628,0 1.138,0.511 1.138,1.136 v 29.276 c -10e-4,0.631 -0.51,1.138 -1.138,1.138 z" /><path
       style="fill:#007400;fill-opacity:1;stroke-width:0.80651742"
       inkscape:connector-curvature="0"
       id="path412"
       d="m 334.5575,745.42828 c -0.625,0 -1.133,-0.508 -1.136,-1.135 l -0.298,-143.113 c -0.002,-0.626 0.505,-1.137 1.135,-1.14 h 10e-4 c 0.628,0 1.135,0.509 1.138,1.135 l 0.298,143.113 c 0.001,0.628 -0.506,1.138 -1.134,1.14 -0.002,0 -0.002,0 -0.004,0 z" /></g></g></svg>