<?xml version="1.0" encoding="UTF-8" standalone="no"?>
<!-- Created with Inkscape (http://www.inkscape.org/) and export_objects.py -->

<svg
   xmlns:dc="http://purl.org/dc/elements/1.1/"
   xmlns:cc="http://creativecommons.org/ns#"
   xmlns:rdf="http://www.w3.org/1999/02/22-rdf-syntax-ns#"
   xmlns:svg="http://www.w3.org/2000/svg"
   xmlns="http://www.w3.org/2000/svg"
   xmlns:sodipodi="http://sodipodi.sourceforge.net/DTD/sodipodi-0.dtd"
   xmlns:inkscape="http://www.inkscape.org/namespaces/inkscape"
   version="1.1"
   id="Layer_1"
   x="0px"
   y="0px"
   width="2in"
   height="3in"
   viewBox="0 0 192 288"
   enable-background="new 0 0 1400 980"
   xml:space="preserve"
   sodipodi:docname="suit-coin.svg"
   inkscape:version="0.92.3 (2405546, 2018-03-11)"><defs
   id="defs16">
		
		
	
			
			
			
			
			
		</defs><sodipodi:namedview
   pagecolor="#ffffff"
   bordercolor="#666666"
   borderopacity="1"
   objecttolerance="10"
   gridtolerance="10"
   guidetolerance="10"
   inkscape:pageopacity="0"
   inkscape:pageshadow="2"
   inkscape:window-width="1280"
   inkscape:window-height="940"
   id="namedview349"
   showgrid="true"
   inkscape:zoom="1.7694842"
   inkscape:cx="113.87225"
   inkscape:cy="112.70619"
   inkscape:window-x="1909"
   inkscape:window-y="43"
   inkscape:window-maximized="1"
   inkscape:current-layer="g13"
   units="in"
   inkscape:document-units="in"
   inkscape:snap-smooth-nodes="false"
   inkscape:snap-midpoints="false"
   inkscape:object-paths="false"
   inkscape:snap-intersection-paths="false"
   inkscape:snap-bbox="true"
   inkscape:bbox-paths="false"
   inkscape:bbox-nodes="true"
   inkscape:snap-bbox-edge-midpoints="true"><inkscape:grid
     type="xygrid"
     id="grid866" /></sodipodi:namedview>
<metadata
   id="metadata353"><rdf:RDF><cc:Work
       rdf:about=""><dc:format>image/svg+xml</dc:format><dc:type
         rdf:resource="http://purl.org/dc/dcmitype/StillImage" /><dc:title></dc:title></cc:Work></rdf:RDF></metadata><g
   inkscape:groupmode="layer"
   inkscape:label="suit-"
   transform="translate(-785.73861,-316.502)"
   id="g13"><path
     style="clip-rule:evenodd;fill:#808000;fill-opacity:1;fill-rule:evenodd;stroke-width:0.99999988"
     inkscape:connector-curvature="0"
     id="path18"
     d="m 895.15004,462.30176 c -0.27054,0.81045 -0.27054,2.27151 -1.37169,2.27151 -1.17037,0.44925 -2.36213,0 -3.17256,-0.81044 0,-2.65281 -3.01398,-2.1142 -4.38569,-3.28329 2.47412,-1.28236 5.736,-0.26932 8.18748,0.81043 z m -7.37825,-25.95669 c -1.12507,0.89979 -3.01525,2.43006 -3.08068,2.90197 0.58391,0.24666 2.51814,-1.91158 3.44057,-2.99133 0.81044,-0.13465 1.91159,-0.15729 2.83404,-0.15729 1.25969,2.18088 1.25969,5.46542 -0.0894,7.64756 -1.91282,1.1691 -3.64445,3.26189 -6.09589,2.81137 -1.28363,-0.71983 -1.10242,-2.3621 -2.38477,-3.28454 -1.07974,0.92244 -2.27274,1.01305 -3.53118,1.19174 -1.01307,0.8998 -2.09156,3.19394 -3.82443,2.0928 -2.18089,-1.73288 -3.19393,-3.73507 -5.19487,-4.99477 -0.53986,0.27057 -0.35992,0.71983 -0.0906,0.9904 l 7.82755,9.82971 c 0.62922,1.28237 -0.53988,2.1809 -1.28235,2.81012 -2.81139,0.35992 -6.36522,1.37296 -8.72734,-0.2693 -1.37297,-0.71984 -1.55165,-2.72203 -3.17252,-2.72203 -2.65408,-0.2693 -5.19489,0.35992 -6.83715,2.27275 -0.0906,2.45147 -0.71982,4.99352 -3.08192,6.18526 -0.56253,0.81044 -0.65188,1.73162 0.0906,2.3621 0.89978,1.0118 2.18089,3.28204 3.6432,1.73165 2.63141,-1.73165 3.08192,-5.55606 6.0959,-6.63455 4.81356,0.35866 9.98704,-1.19175 13.99015,1.34906 0.65186,0.56127 1.64228,0.38256 1.91157,1.01179 -2.81136,0.89978 -6.18526,0 -8.36741,2.00219 -0.35992,0.81043 0,2.18088 -0.80916,2.45144 -2.72202,0.63048 -7.01836,-1.64226 -7.64758,1.91284 1.64226,0.81044 3.55384,1.46106 5.46542,1.91157 5.55603,-3.10332 9.82972,2.27275 15.27249,1.73289 4.56564,-0.63048 9.73911,-4.00438 14.10214,-0.63048 1.82223,-2.29415 4.65626,-2.56346 6.92774,-4.29507 0.35993,-0.18121 0.71983,0.0894 0.98915,0.38256 -1.25844,5.53212 -7.17439,8.09683 -10.99757,11.71864 -1.10238,0.38257 -2.27275,0.92244 -3.28328,1.55167 -3.35123,1.3717 -5.64539,-1.55167 -8.81791,-1.55167 -3.55259,-2.54206 -8.2768,-0.62922 -11.5601,1.28235 -4.36428,0.54114 -7.73691,-2.6314 -10.81885,-5.55477 -0.47192,-3.17254 -3.82316,-3.91377 -6.0053,-5.26408 -2.45146,-3.10458 -6.27587,-5.82534 -8.2768,-9.7391 -0.17994,-1.55167 1.07976,-2.18089 1.91158,-3.46325 2.45147,-6.0959 1.07976,-13.65287 2.72202,-20.1087 0,-0.9904 -0.92243,-1.73161 -1.73163,-2.27275 -1.82096,0 -3.73254,-0.17995 -4.54298,-2.09153 -1.01179,-1.28236 -0.3599,-3.28328 -0.83308,-4.8123 -2.00218,-4.27368 -0.71983,-10.00968 -3.91376,-13.74222 -0.26933,-2.00219 -0.44928,-3.91376 1.19174,-5.28547 0.45052,-6.90509 8.09685,-9.08724 13.38357,-10.99882 8.81667,-2.45145 18.10524,0.35992 27.19248,0.53987 l 20.55797,1.01179 0.65312,-0.29196 c -8.83932,-4.18307 -19.47947,-3.71115 -29.30792,-5.26281 -7.64757,-0.53987 -14.82198,0.89979 -22.28958,1.2597 -0.62922,-0.27057 -0.71984,-1.17035 -0.0906,-1.53027 1.3717,-2.27149 4.00437,-1.73162 6.0959,-2.92337 15.4751,-4.27368 32.83913,-1.46232 47.86246,2.2715 l 0.18121,-0.0894 -0.92117,-0.81044 c -5.89456,-2.72202 -12.10121,-5.19612 -18.91571,-5.91595 -6.63577,0.71983 -13.4729,0.62922 -19.65817,-1.10114 -3.26189,0.17996 -7.17566,0.17996 -10.3696,0.65187 h -1.55164 c -0.62922,-1.4623 0.83308,-2.09154 2.0928,-1.91157 12.75308,-2.18215 25.7528,0.0894 38.3939,0.0894 4.92556,1.2597 9.7391,3.55385 15.47509,2.90197 -0.35991,-0.9904 -1.55166,-1.2597 -2.27274,-1.73162 -4.54298,-0.63048 -7.73568,-4.54425 -12.55049,-4.36304 -11.74128,-0.63048 -22.46954,-4.36428 -35.04267,-3.26188 -1.70897,0.81044 -4.18307,1.43966 -5.80269,0.62922 0.35993,-2.09153 2.81136,-2.63141 4.18433,-4.00438 4.18307,1.37171 6.09592,-5.37481 9.71647,-2.18214 0.74248,2.18214 3.01397,1.55166 4.65623,2.00219 2.09154,-1.19175 3.44059,0.81044 5.17222,1.17036 10.18964,1.73161 21.20984,1.28235 31.57943,2.92337 2.09155,-0.53988 3.91251,1.91283 6.2746,1.64227 l 1.01307,1.2597 0.62922,7.19831 c -3.3739,1.73162 3.17255,4.00311 0.0906,6.2746 -2.36212,0.26931 -5.01617,-0.17996 -7.01836,1.1024 -0.2693,0.62923 0.47319,1.07848 0.83309,1.1691 2.2715,0.44926 5.08285,-0.35992 6.81449,1.19174 -2.27275,2.2715 0,5.44278 -0.71982,8.09684 0.71982,1.2597 1.91282,2.2715 1.91282,3.91377 2.00219,2.99132 6.81574,4.81355 4.9935,9.44714 l -1.82221,9.91781 c -0.62922,0.35992 -0.62922,1.64353 -1.61838,1.1024 -1.28236,-2.92336 0.17996,-5.64412 -0.29196,-8.92993 -0.53986,-0.80917 -0.98912,0.0906 -1.53026,0.47319 -1.01178,1.16908 0.18121,2.45144 0.27057,3.6218 0.0894,2.4741 0.35993,5.37481 -2.18087,6.83713 -1.64229,0.89979 -3.28455,3.7338 -5.19613,1.91284 -3.55387,-5.55604 -10.54955,-3.91377 -15.09255,-7.64758 -0.92117,-0.81043 -2.09152,-1.10113 -2.92336,-1.91157 6.0053,-0.18122 12.84245,1.01179 18.55578,-1.19301 1.01305,0.20261 1.73161,-0.71857 2.38474,-1.34905 0.35994,-1.37171 -1.37169,-1.19176 -2.00218,-1.73162 2.00218,-1.28236 5.71336,0.81043 6.54518,-2.45146 0.27057,-1.10239 0.89979,-2.56345 0,-3.55385 -3.91251,-4.92555 -9.46854,-7.46761 -15.6538,-7.55696 -1.73162,0.35991 -3.82316,0.62922 -5.55604,0.17996 0.38383,-1.43966 2.38602,-0.71983 3.28453,-1.73162 -2.99256,-1.35031 -6.81572,-1.1691 -10.18962,-1.35031 -2.45145,0.18121 -4.72295,-1.28236 -6.63452,0.63048 -1.28363,1.01179 0.62922,2.09154 -0.47319,2.90071 -6.09464,1.82223 -8.72731,-4.99351 -14.37144,-4.99351 -1.34905,0.17996 -3.26188,-0.9904 -4.27368,0.53988 0.27056,1.3717 1.91284,1.3717 2.83402,2.09152 1.70898,0.56254 3.62056,0.83184 4.99228,1.91159 0.17994,0.65313 -0.0894,1.19175 -0.62924,1.28236 -6.36522,-0.45053 -12.10122,-2.92463 -17.65599,-5.46544 -4.00438,0 -6.36648,4.36303 -8.81665,7.0171 -0.26932,1.61961 0,3.62054 0.3599,5.44278 1.73161,0.74247 3.17126,2.38475 5.26282,2.00219 1.19174,-0.99041 2.65406,-1.25972 4.29633,-1.17036 2.81136,1.73162 6.09592,2.3621 9.5365,2.45145 v 0.27057 c -3.26064,-0.63048 -7.44497,-0.90105 -10.36833,0.71857 0,4.20698 4.63359,1.82096 6.92775,2.92337 4.27367,0.89978 9.17657,0.63048 12.37049,-2.72076 1.34905,-0.47192 1.16911,1.1691 1.16911,2.09154 0,4.72293 0.74247,8.99661 -0.17995,13.54087 -0.44927,0.74121 -1.34907,0.92118 -2.27151,1.01179 -1.64227,-0.35992 -2.72201,-2.36084 -4.63359,-1.64227 -4.92556,3.55385 -7.73692,9.10862 -12.93304,11.83064 -0.99041,0.62922 -1.34905,1.64227 -1.34905,2.72201 -0.27059,0.65188 0.35991,0.83184 0.62922,1.28236 3.37389,0 5.64539,-2.54206 8.45676,-4.00437 3.19392,-2.45145 5.10551,-5.91469 7.55695,-8.92993 1.64228,0.29196 2.0928,2.56471 3.91376,2.65406 1.64228,0.0894 2.0928,-1.1024 2.45146,-2.3621 1.37171,-6.65718 -0.98915,-14.57532 1.46232,-20.94053 1.82096,-1.25971 4.27368,1.10239 5.55478,-0.53988 0.0906,-0.35991 -0.29196,-0.53987 -0.56128,-0.80917 -1.64226,-0.38257 -3.53245,-0.38257 -5.08411,-1.46232 v -0.45053 c 2.54207,-0.0894 5.64539,-0.56126 7.26499,1.52902 0.7425,3.82441 0.38258,8.57001 4.56565,10.66154 5.62399,2.90199 11.44932,5.82535 16.10434,10.5483 2.5433,6.81574 3.17253,15.83501 0.63047,22.74011 h -0.63047 c 0.27054,-4.27368 -0.3826,-8.63671 -4.38444,-10.81886 -0.63048,-0.35992 -1.2597,-1.01304 -1.17035,-1.82223 -0.0894,-0.44927 0.35992,-0.53987 0.62922,-1.01305 2.18213,-0.17995 3.91375,1.19176 5.55604,1.82224 0.62922,-0.8998 1.28235,-2.18216 0.62922,-3.2619 -1.34906,-1.64226 -4.18308,-0.56127 -5.91471,-0.92118 -4.27367,-2.54206 -8.45673,-8.99663 -13.71955,-5.44277 l -0.83185,0.89978 c 0.0176,10e-4 0.0629,10e-4 0.0844,-0.0214 z m -5.26284,17.94795 c 0,0.54113 -0.11196,0.9904 -0.65188,1.17035 -0.71982,-0.17995 -1.73161,0.38257 -2.27148,-0.35992 l 0.26931,-1.91157 c 1.0118,0.0906 1.91157,0.35991 2.65405,1.10114 z m 10.6389,-10.18712 c 2.81137,2.00219 5.26407,4.72295 8.45801,5.91469 2.90198,2.3621 2.81012,6.45583 2.36086,9.73912 -0.35868,0.35992 -0.81043,0 -0.98916,-0.56253 0.63048,-2.27148 -0.74247,-4.00437 -2.4741,-4.99351 -3.35124,-1.55167 -6.45583,0.63048 -9.71772,0.71983 -2.27146,-0.27057 -5.01489,1.28237 -6.74652,-0.35991 v -1.91284 c 2.83402,-2.2715 5.82536,-4.8123 7.55697,-7.91688 0.35991,-0.53862 0.89853,-0.62797 1.55166,-0.62797 z m 22.64949,10.54829 c -1.55166,1.64228 -3.19393,3.4645 -3.55382,5.55603 -0.35868,0.26932 -0.89981,0.53988 -1.52903,0.44927 -0.56252,-1.46231 0.35992,-3.19393 0.53987,-4.72421 0.44927,-1.01178 1.73162,-1.73161 1.46233,-3.19393 l 4.45362,-11.38012 h 0.26931 z m -77.77821,-28.29615 c 0.99039,2.18215 -0.38256,3.91377 -1.64227,5.46669 -1.91158,-0.56253 -0.74248,-3.01523 -1.55166,-4.56689 -0.71984,-0.8998 -1.10115,-2.00093 -0.71984,-3.17129 l 0.26931,-0.63048 c 1.35031,0.81044 1.44092,3.26189 3.64446,2.90197 z m 29.46525,-3.55259 c -0.26931,1.19175 -1.55167,1.82098 -2.09155,2.74342 -2.36083,-0.29071 -5.73599,1.17035 -7.17565,-1.28236 -0.11196,-0.81044 0.62922,-1.19175 0.99041,-1.82097 2.81136,0.1787 5.55477,-0.35992 8.27679,0.35991 z m 43.23011,-4.7242 c -1.91282,1.82223 -5.19612,1.46232 -7.5582,0.81044 1.91283,-0.81044 4.54296,-0.0894 6.45581,-1.07975 0.3599,-0.17995 0.71983,0.0894 1.10239,0.26931 z m -70.42387,0.18122 c 1.70898,6.18526 2.54207,12.63982 5.17348,18.46643 1.37172,-0.90106 2.2715,0.62922 3.01398,1.55041 -0.35991,6.18524 0.17995,13.00099 -3.91377,17.56663 -1.73162,0 -3.01398,-1.19175 -3.64446,-2.65279 -0.0894,-3.73508 1.64227,-7.8288 -0.26931,-11.18004 -0.45052,-5.64413 -0.0906,-11.56134 -1.73162,-16.93616 v -8.2768 c 0.9904,-10e-4 0.9904,1.01053 1.3717,1.46232 z m 18.82636,-6.45583 c 0.0906,0.0906 -0.26932,0.26931 -0.26932,0.35991 h -0.3599 c -0.0906,-0.35991 0.3599,-0.45051 0.62922,-0.35991 z m 50.2258,0.0894 c -1.28361,0.80918 -3.10458,0 -4.18432,-0.53987 1.25971,-0.92244 2.99132,-0.29196 4.18432,0.53987 z m -46.94126,-3.46324 c -1.73162,-0.27057 -4.56565,0.17995 -6.29725,1.64227 -0.27059,-0.17996 -0.17998,-0.53988 -0.17998,-0.92245 1.5504,-1.61961 4.56438,-2.00217 6.47723,-0.71982 z m 65.5864,-2.54207 c -0.18123,1.37171 -0.35992,2.90199 -1.46232,3.91377 -0.98914,0.62923 -1.82097,-0.35992 -2.2715,-0.92118 -0.89978,-2.27149 0.35866,-4.6336 0.0894,-7.17565 1.19175,-0.35992 2.83402,-0.0906 3.46324,-1.55166 0.45053,1.64227 -0.53861,3.9125 0.18122,5.73472 z M 839.5494,394.51062 c 0.44928,1.28235 -1.1691,3.55385 0.74248,4.18307 0.53988,0.83184 1.61963,2.09154 0.71983,3.28328 -1.82096,2.27149 -4.63359,4.6336 -3.10332,7.91814 -0.89979,-2.54206 -1.25971,-5.37608 -2.54207,-7.82753 0.0906,-2.36084 2.09154,-4.18308 1.10241,-6.81575 0.62796,-0.74121 2.09029,-0.47191 3.08067,-0.74121 z m 96.53535,-5.08413 c 0,1.52902 0.54115,3.08194 0.18121,4.54299 -1.46231,-0.44926 -0.63048,-2.09153 -1.2597,-3.01397 -1.28236,-0.71983 -1.01305,-2.63141 -2.65406,-3.17129 2.00218,2.54207 0.18122,7.08505 2.00218,9.91907 -0.17995,0.35992 -0.26929,0.71983 -0.81043,0.81044 -4.63359,-1.91158 -2.09154,-7.82754 -3.37389,-11.7413 -0.27056,-0.2693 -0.0894,-0.62922 -0.0894,-0.98914 1.37168,-1.01305 2.63138,1.37171 4.0937,1.37171 z m -9.55915,-5.64538 c 0.83184,0.35991 2.09154,0.26931 2.74468,1.28235 v 2.09154 c -3.01398,-0.0894 -5.91471,-1.73162 -7.82755,-4.20572 l -0.74247,-0.35992 c 0.65187,1.01179 0,2.83402 0.65187,3.91377 1.07974,1.01179 2.72201,1.82097 3.3525,2.92336 -1.25971,0.8998 -3.17253,0.53988 -4.27367,-0.2693 -1.34907,-2.4741 -0.98916,-5.736 -2.1809,-8.4794 l 0.56252,-1.43967 c 2.63015,1.25844 5.53215,2.36085 7.71302,4.54299 z m -72.87406,-5.10551 c -0.81044,6.47721 -7.82753,12.28117 -13.74222,13.65287 -0.8998,1.46232 -2.63141,0.62923 -3.80177,1.28235 v -1.01304 c 3.44059,-2.99132 6.18526,-8.36615 10.99882,-9.44589 1.91283,-1.37171 5.28547,-0.92244 5.82534,-3.55385 l -0.35991,-0.26931 c -5.46543,0.26931 -10.00968,2.54206 -14.19276,5.73599 -0.2693,0.62922 -0.74247,1.07975 -1.10239,1.70897 -0.80918,-1.07975 -0.80918,-2.90197 -0.80918,-4.36303 2.54205,-1.91284 6.0053,-2.18214 9.08724,-2.72201 2.18088,-1.91284 4.74559,-0.44927 7.28765,-1.1024 z m -18.55578,9.7391 c -0.44927,2.65407 -2.09153,5.19612 -3.82441,7.46763 -0.71983,0.2693 -0.81045,-0.45053 -0.98914,-1.0118 -0.18122,-6.09591 4.18307,-10.46019 2.90071,-16.64546 -1.3717,2.27149 -0.98913,5.28547 -2.6314,7.46762 -0.65314,3.26189 -1.28236,6.63453 -2.54206,9.73911 -1.73162,-7.46761 -1.01179,-17.47603 6.36521,-22.28958 0.72109,4.90416 -0.17869,10.45893 0.72109,15.27248 z m 24.29178,-21.84031 -11.65068,10.84151 c -3.82442,1.17035 -7.44498,2.27275 -11.26813,3.08192 -1.10241,-1.91157 0.80918,-3.26063 1.64227,-4.72293 5.71334,-0.17997 8.27681,-7.28766 13.53961,-8.27806 2.36086,-1.64101 4.83621,-3.55385 8.00749,-3.10333 l 0.83183,-0.81043 c -10e-4,0.98913 -0.47317,2.09152 -1.10239,2.99132 z m 74.0658,5.01616 c 1.64227,2.90198 3.64446,6.0053 2.99132,9.6485 -4.27368,-2.18088 -5.17221,-6.83713 -9.44715,-8.57002 -4.65498,-3.08192 -8.18619,-8.90727 -14.3941,-8.54736 -0.2693,0 -0.2693,0 -0.35991,0.17997 2.74467,2.27149 6.27586,3.28328 9.46855,5.19486 -0.53988,3.35124 3.82441,3.35124 5.28546,6.0959 2.18215,2.36085 3.80177,4.90291 4.90291,7.64758 -2.3621,0.35991 -4.00438,-2.27149 -6.63452,-2.00219 -5.10552,-4.92556 -9.3792,-10.7509 -14.46206,-15.92437 -0.20262,-0.56253 -0.83184,-1.3717 -0.38257,-1.91158 8.65936,0.001 16.57624,2.81263 23.03207,8.18871 z m -72.33419,-9.10989 -0.35991,0.92244 c 0.0894,-0.27056 -0.0906,-0.35991 -0.27057,-0.45051 -10.18837,-1.82098 -16.01497,7.62492 -24.67308,10.27897 -0.35991,-1.01304 0.20261,-1.82223 0.56253,-2.74467 -0.26931,-0.2693 -0.56253,-0.62922 -0.92118,-0.35991 l -4.27368,4.00437 c 0.2693,-3.26188 0.35991,-7.46762 3.82441,-8.54736 2.72076,-3.28328 7.19705,-2.54206 10.99881,-3.55386 4.74309,-0.71857 10.47909,-0.62922 15.11267,0.45053 z m -9.82971,-6.36522 c -0.98914,0.74249 -0.35992,2.74468 -2.18088,2.36085 -0.81045,-0.26931 -0.0894,-0.89979 -0.0894,-1.52901 0.44926,-0.65187 1.37044,-0.74123 2.27023,-0.83184 z m 53.30776,-0.44925 c 1.91158,1.64227 3.37388,3.55384 4.47629,5.64537 -1.73163,0.35992 -0.35993,1.82224 -0.27059,2.81137 0.6305,1.19175 3.4406,2.09154 2.54207,3.82442 -1.91157,0.26931 -2.00093,-1.64228 -3.55259,-2.09153 -2.27276,-1.55167 -2.99258,-3.91377 -4.81356,-5.82535 0.35993,-1.46231 0.17997,-3.08193 0.89979,-4.36304 h 0.71859 z m -35.65052,-4.09378 c -3.28453,0.44927 -5.91593,2.99132 -7.82752,5.736 -0.26931,1.16909 -0.71983,2.36084 -1.37172,3.35124 l -2.00217,-0.17996 c 0.74249,-2.54206 1.01178,-5.53212 3.6432,-7.08506 3.01397,-1.10239 6.09591,-2.00217 9.01928,-3.37388 0.17995,0.74122 -0.83184,1.37171 -1.46107,1.55166 z m 37.29152,-1.46231 c 0,1.19175 0.26932,2.54206 -0.71983,3.10332 -1.37171,0.0906 -1.10239,-1.64227 -2.54207,-1.64227 0.17998,-1.46231 2.09156,-2.09154 2.2715,-3.28328 0.9904,0.0906 0.54115,1.3717 0.9904,1.82223 z m -18.55578,-2.99132 c -0.81044,0.71982 -2.09154,0.71982 -2.99131,1.25844 -0.0906,-0.89979 0.62922,-1.52902 1.34905,-2.00093 0.56253,0.17995 1.3717,0.38257 1.64226,0.74249 z m -1.37296,-2.36211 c -1.2597,0.98914 -2.99132,2.00219 -3.17128,3.71116 0.53987,1.82222 -0.74249,3.46324 -1.55167,4.92556 -0.27055,-0.74249 -0.27055,-1.64228 -0.62922,-2.27151 -2.27149,0.53988 -3.55385,3.08194 -5.82533,3.53121 0,-1.07975 -0.0894,-3.08194 1.64226,-3.26189 1.07849,-2.27149 -0.47192,-6.00531 3.08068,-6.92775 0.83308,-0.62922 1.37169,0.38256 2.09278,0.29196 1.46108,0.001 3.01272,-0.65061 4.36178,0.001 z m 2.2048,-1.19175 c 0.81045,0.35991 0.0894,1.19175 0.62922,1.64227 2.27274,0.71983 4.54299,-1.10113 6.36648,0.35992 0,1.46232 -2.63266,1.82097 -1.37298,3.46324 0.7425,0.98914 2.0022,0.89979 2.18217,2.2715 0,0.62922 -0.53989,1.2597 -1.17037,1.64227 -2.09154,0.98913 -3.28328,-1.55166 -5.01617,-2.00219 -0.26929,0.17995 -0.17995,0.62922 -0.17995,0.9904 l 3.91376,3.73381 c 2.74343,0.17995 4.36303,-4.72295 6.83839,-1.82224 -1.10239,7.28766 3.89113,12.01061 7.71429,17.29608 -4.54299,0.71983 -7.08507,-5.736 -10.81887,-7.37701 -0.54114,1.28236 0.62922,2.54206 1.37171,3.73381 l 2.72201,3.37389 c -3.37515,0.35991 -3.4645,-4.00312 -5.64537,-5.91596 -2.36211,-1.19174 0.0893,-3.91376 -1.55168,-5.1055 -1.2597,2.6314 0.20261,5.46542 1.19176,7.73692 1.01305,1.55166 2.3621,2.81136 2.92338,4.45364 -3.55262,0.81044 -6.83716,-0.89979 -9.37922,-3.73382 -2.00091,-2.09152 -2.27149,-4.9029 -2.92336,-7.64756 l -0.71858,-0.81044 c -0.81044,2.18214 -0.35991,5.19612 -0.27055,7.37701 1.07974,1.43965 2.63141,2.36084 3.19393,4.18433 -2.83402,-0.65314 -5.46669,-2.27276 -7.1983,-5.01617 -2.00094,-2.72201 -1.01181,-6.72513 -2.45147,-9.82972 -1.64226,0 -2.74467,1.91158 -3.82441,3.10333 l -0.53987,5.55604 c 0.81043,1.64227 2.18214,2.90197 2.54205,4.54424 -0.44926,0.71858 -1.10239,0 -1.46229,-0.44926 -3.73383,-1.73162 -0.44928,-8.54736 -5.6454,-7.28766 -0.62922,1.10114 0.2693,2.92338 -0.71982,3.91377 -3.64321,-0.89979 -2.00094,-4.90291 -3.2833,-7.17566 -1.61961,0.0906 -1.91282,3.6218 -3.6218,1.88893 0.44925,-2.18215 1.88892,-4.09373 2.90197,-6.09592 3.10333,-1.79956 6.81574,-2.90197 9.55915,-5.71333 0.26931,-0.56253 0.26931,-1.82223 -0.65187,-2.00219 -4.3643,0.9904 -9.71772,-0.47192 -13.00101,3.08193 -0.62922,0.83184 -1.73161,1.37171 -2.72201,1.46232 1.61962,-6.45583 9.08723,-3.64446 12.73043,-7.55697 5.46795,-1.81971 11.83191,-0.89727 17.38795,-0.26805 z m 16.55486,0.71983 14.37268,9.10988 c 3.3739,3.91378 7.55697,7.64758 9.82972,12.19056 3.17255,4.99352 9.26596,8.90729 8.0981,16.01499 -0.35991,2.00219 1.1691,4.54298 -1.64227,5.35343 0.35866,1.01179 0.98914,2.00218 1.5504,3.01396 0.35993,3.64446 1.61962,8.90729 -2.27149,10.81887 -1.46231,-0.26932 -2.29414,0.65312 -3.19393,1.46231 -2.18089,6.18525 -1.55166,13.38231 -5.82535,18.73573 0.0894,6.36648 -6.54518,10.09903 -6.0959,16.66686 -1.64228,11.62803 -1.82098,24.47047 -12.55048,31.82607 -4.3643,7.19831 -11.38138,12.75309 -19.02896,15.02459 -7.44496,-1.1024 -16.46422,1.34905 -22.37893,-3.37515 h -0.71983 c -4.36303,-2.81012 -7.64758,-6.09465 -11.56134,-9.91907 -4.99351,-7.17439 -13.74222,-12.09995 -14.1034,-21.45775 0.74248,-4.655 -1.43966,-9.46854 0,-14.10214 -2.27149,-1.28236 -6.09465,-2.56345 -6.09465,-6.0053 -1.07975,-3.3739 1.01179,-8.18619 -3.64446,-9.55916 l -0.53987,-0.62922 c -0.44927,-4.74559 -1.91158,-9.37918 -0.62922,-14.10339 0.17995,-1.73163 -1.28236,-4.18433 0.62922,-5.55604 -0.62922,-1.37171 -2.27149,-2.00219 -2.90071,-3.55385 -1.37297,-6.18526 -0.65314,-13.38231 2.90071,-18.46642 -0.0894,-6.00531 1.64227,-11.74131 7.37701,-14.82197 7.17565,-8.65937 16.01499,-15.74442 26.02341,-19.11831 6.18524,-1.64227 12.3705,-4.27368 19.72611,-2.99132 7.55823,0.71982 15.65507,0.71982 22.67343,3.44184 z" /><circle
     style="opacity:1;fill:none;fill-opacity:1;stroke:#808000;stroke-width:12;stroke-linecap:butt;stroke-linejoin:miter;stroke-miterlimit:100;stroke-dasharray:none;stroke-dashoffset:0;stroke-opacity:1;paint-order:markers fill stroke"
     id="path873"
     cx="881.73859"
     cy="412.50201"
     r="90" /></g></svg>