<?xml version='1.0' encoding='UTF-8'?>
<!-- Created with Inkscape (http://www.inkscape.org/) and export_objects.py -->
<svg xmlns:cc="http://creativecommons.org/ns#" xmlns:dc="http://purl.org/dc/elements/1.1/" xmlns:inkscape="http://www.inkscape.org/namespaces/inkscape" xmlns:rdf="http://www.w3.org/1999/02/22-rdf-syntax-ns#" xmlns:sodipodi="http://sodipodi.sourceforge.net/DTD/sodipodi-0.dtd" xmlns:xlink="http://www.w3.org/1999/xlink" xmlns="http://www.w3.org/2000/svg" version="1.1" id="Layer_1" x="0px" y="0px" width="154.46441px" height="212.135px" viewBox="0 0 154.46441 212.135" enable-background="new 0 0 1400 980" xml:space="preserve" sodipodi:docname="suit-2.svg"><sodipodi:namedview pagecolor="#ffffff" bordercolor="#666666" borderopacity="1" objecttolerance="10" gridtolerance="10" guidetolerance="10" inkscape:pageopacity="0" inkscape:pageshadow="2" inkscape:window-width="1280" inkscape:window-height="940" id="namedview349" showgrid="false" inkscape:zoom="0.59890233" inkscape:cx="469.30719" inkscape:cy="490.0005" inkscape:window-x="1909" inkscape:window-y="43" inkscape:window-maximized="1" inkscape:current-layer="Layer_1"/>
<metadata id="metadata353"><rdf:RDF><cc:Work rdf:about=""><dc:format>image/svg+xml</dc:format><dc:type rdf:resource="http://purl.org/dc/dcmitype/StillImage"/></cc:Work></rdf:RDF></metadata><g inkscape:groupmode="layer" inkscape:label="suit-" transform="matrix(1.000000,0.000000,0.000000,1.000000,-416.467000,-424.752000)"><g id="g1364" inkscape:label="2"><path style="fill:#800000;fill-opacity:1" inkscape:connector-curvature="0" id="path154" d="m 493.457,478.852 c -37.323,0 -76.99,-9.48 -76.99,-27.051 0,-17.57 39.667,-27.049 76.99,-27.049 37.322,0 76.989,9.479 76.989,27.049 0,17.57 -39.667,27.051 -76.989,27.051 z m 0,-46.61 c -43.059,0 -69.499,11.391 -69.499,19.559 0,8.168 26.439,19.56 69.499,19.56 43.059,0 69.499,-11.393 69.499,-19.56 0,-8.167 -26.44,-19.559 -69.499,-19.559 z"/><path style="fill:#800000;fill-opacity:1" inkscape:connector-curvature="0" id="path156" d="m 493.453,557.091 c -1.725,0 -3.277,-1.2 -3.656,-2.954 -0.438,-2.021 0.845,-4.013 2.864,-4.453 v 0 c 0.196,-0.042 19.795,-4.445 38.151,-18.718 24.315,-18.905 35.135,-45.428 32.158,-78.832 -0.183,-2.061 1.337,-3.879 3.398,-4.063 2.041,-0.177 3.879,1.337 4.063,3.398 4.02,45.113 -16.952,71.446 -35.253,85.59 -19.69,15.221 -40.07,19.76 -40.929,19.946 -0.267,0.058 -0.534,0.086 -0.796,0.086 z"/><path style="fill:#800000;fill-opacity:1" inkscape:connector-curvature="0" id="path158" d="m 493.452,574.566 c -1.88,0 -3.502,-1.411 -3.718,-3.325 -0.231,-2.054 1.245,-3.907 3.298,-4.141 1.122,-0.132 26.187,-3.356 26.159,-26.203 -0.002,-2.069 1.673,-3.748 3.741,-3.751 10e-4,0 0.003,0 0.005,0 2.066,0 3.743,1.674 3.745,3.741 0.029,23.691 -21.446,32.375 -32.806,33.654 -0.143,0.019 -0.284,0.025 -0.424,0.025 z"/><path style="fill:#800000;fill-opacity:1" inkscape:connector-curvature="0" id="path160" d="m 493.952,557.091 c -0.262,0 -0.529,-0.028 -0.796,-0.086 -0.858,-0.187 -21.239,-4.726 -40.929,-19.946 -18.302,-14.145 -39.273,-40.478 -35.253,-85.59 0.183,-2.061 2.01,-3.575 4.063,-3.398 2.061,0.184 3.581,2.003 3.398,4.063 -2.986,33.508 7.905,60.086 32.373,79 18.365,14.194 37.739,18.508 37.933,18.549 2.021,0.439 3.305,2.433 2.868,4.454 -0.38,1.754 -1.932,2.954 -3.657,2.954 z"/><path style="fill:#800000;fill-opacity:1" inkscape:connector-curvature="0" id="path162" d="m 493.953,574.566 c -0.14,0 -0.282,-0.007 -0.424,-0.024 -11.361,-1.279 -32.836,-9.963 -32.807,-33.654 0.002,-2.067 1.679,-3.741 3.746,-3.741 10e-4,0 0.002,0 0.005,0 2.068,0.003 3.743,1.682 3.741,3.751 -0.028,22.984 25.085,26.081 26.154,26.203 2.056,0.231 3.535,2.085 3.303,4.141 -0.216,1.911 -1.838,3.324 -3.718,3.324 z"/><path style="fill:#800000;fill-opacity:1" inkscape:connector-curvature="0" id="path164" d="m 493.702,613.581 c -4.158,0 -14.199,-0.56 -17.619,-5.738 -0.405,-0.613 -0.621,-1.33 -0.621,-2.064 V 565.84 c 0,-2.069 1.677,-3.746 3.746,-3.746 2.069,0 3.746,1.677 3.746,3.746 v 38.357 c 1.459,0.832 5.148,1.895 10.749,1.895 5.597,0 9.285,-1.061 10.75,-1.897 v -38.354 c 0,-2.069 1.676,-3.746 3.746,-3.746 2.069,0 3.745,1.677 3.745,3.746 v 39.939 c 0,0.734 -0.216,1.451 -0.621,2.064 -3.421,5.177 -13.462,5.737 -17.621,5.737 z"/><path style="fill:#800000;fill-opacity:1" inkscape:connector-curvature="0" id="path166" d="m 493.948,620.656 c -11.085,0 -22.599,-4.695 -24.639,-10.049 -1.048,-2.75 -0.973,-5.314 0.223,-7.617 2.473,-4.759 8.94,-6.448 9.215,-6.518 1.003,-0.255 2.021,0.352 2.276,1.354 0.253,1.001 -0.351,2.019 -1.351,2.274 v 0 c -0.051,0.014 -5.133,1.358 -6.82,4.625 -0.688,1.33 -0.702,2.818 -0.043,4.548 1.173,3.075 10.565,7.637 21.14,7.637 10.665,0 19.49,-4.597 20.648,-7.636 0.66,-1.734 0.644,-3.225 -0.049,-4.558 -1.679,-3.233 -6.76,-4.602 -6.812,-4.614 -1.002,-0.255 -1.609,-1.274 -1.354,-2.276 0.256,-1.003 1.271,-1.609 2.276,-1.354 0.274,0.069 6.742,1.759 9.214,6.518 1.196,2.303 1.272,4.867 0.223,7.617 -2.073,5.447 -13.131,10.049 -24.147,10.049 z"/><path style="fill:#800000;fill-opacity:1" inkscape:connector-curvature="0" id="path168" d="m 493.707,636.887 c -0.004,0 -0.002,0 -0.005,0 -24.044,0 -48.349,-8.768 -54.178,-19.545 -2.404,-4.444 -2.208,-9.439 0.55,-14.067 5.722,-9.603 21.083,-15.806 39.134,-15.806 2.069,0 3.746,1.678 3.746,3.745 0,2.067 -1.677,3.745 -3.746,3.745 -17.587,0 -29.095,6.103 -32.699,12.148 -1.393,2.337 -1.526,4.582 -0.396,6.669 3.529,6.522 23.339,15.619 47.59,15.619 0.001,0 0.003,0 0.005,0 24.751,0 44.928,-9.182 47.414,-15.256 0.872,-2.129 0.767,-4.007 -0.331,-5.91 -3.432,-5.955 -15.808,-10.93 -33.103,-13.305 -2.049,-0.282 -3.482,-2.171 -3.2,-4.221 0.28,-2.05 2.157,-3.485 4.219,-3.201 20.449,2.809 33.788,8.683 38.574,16.985 2.252,3.905 2.519,8.224 0.773,12.49 -4.417,10.793 -29.306,19.909 -54.347,19.91 z"/><path style="fill:#800000;fill-opacity:1" inkscape:connector-curvature="0" id="path170" d="m 423.93,461.018 c -0.567,0 -1.126,-0.256 -1.495,-0.744 -0.624,-0.825 -0.461,-2 0.364,-2.623 12.228,-9.243 40.925,-15.214 73.112,-15.214 29.379,0 56.141,4.998 69.841,13.044 0.891,0.523 1.19,1.67 0.666,2.563 -0.524,0.894 -1.669,1.189 -2.563,0.666 -13.158,-7.728 -39.193,-12.528 -67.944,-12.528 -30.941,0 -59.414,5.81 -70.854,14.457 -0.337,0.256 -0.733,0.379 -1.127,0.379 z"/><path style="fill:#800000;fill-opacity:1" inkscape:connector-curvature="0" id="path172" d="m 495.912,493.625 c -35.799,0 -67.262,-7.548 -76.514,-18.355 -0.673,-0.785 -0.58,-1.968 0.205,-2.641 0.789,-0.673 1.969,-0.578 2.641,0.205 8.454,9.877 39.437,17.046 73.668,17.046 29.462,0 56.591,-5.2 69.115,-13.247 0.869,-0.56 2.029,-0.308 2.587,0.563 0.56,0.871 0.307,2.029 -0.563,2.587 -13.287,8.538 -40.545,13.842 -71.139,13.842 z"/><path style="fill:#800000;fill-opacity:1" inkscape:connector-curvature="0" id="path174" d="m 494.291,525.669 c -7.229,0 -13.109,-5.974 -13.109,-13.317 0,-7.343 5.88,-13.317 13.109,-13.317 7.229,0 13.109,5.975 13.109,13.317 0,7.343 -5.88,13.317 -13.109,13.317 z m 0,-22.89 c -5.164,0 -9.364,4.295 -9.364,9.572 0,5.278 4.2,9.572 9.364,9.572 5.163,0 9.363,-4.294 9.363,-9.572 0,-5.277 -4.2,-9.572 -9.363,-9.572 z"/></g></g></svg>
