<?xml version="1.0" encoding="UTF-8" standalone="no"?>
<!-- Created with Inkscape (http://www.inkscape.org/) and export_objects.py -->

<svg
   xmlns:dc="http://purl.org/dc/elements/1.1/"
   xmlns:cc="http://creativecommons.org/ns#"
   xmlns:rdf="http://www.w3.org/1999/02/22-rdf-syntax-ns#"
   xmlns:svg="http://www.w3.org/2000/svg"
   xmlns="http://www.w3.org/2000/svg"
   xmlns:sodipodi="http://sodipodi.sourceforge.net/DTD/sodipodi-0.dtd"
   xmlns:inkscape="http://www.inkscape.org/namespaces/inkscape"
   version="1.1"
   id="Layer_1"
   x="0px"
   y="0px"
   width="50.48325pt"
   height="205.49776pt"
   viewBox="0 0 67.310995 273.997"
   enable-background="new 0 0 1400 980"
   xml:space="preserve"
   sodipodi:docname="suit-sword.svg"
   inkscape:version="0.92.3 (2405546, 2018-03-11)"><defs
   id="defs29" /><sodipodi:namedview
   pagecolor="#ffffff"
   bordercolor="#666666"
   borderopacity="1"
   objecttolerance="10"
   gridtolerance="10"
   guidetolerance="10"
   inkscape:pageopacity="0"
   inkscape:pageshadow="2"
   inkscape:window-width="1280"
   inkscape:window-height="940"
   id="namedview349"
   showgrid="false"
   inkscape:zoom="2.4963777"
   inkscape:cx="33.65549"
   inkscape:cy="136.99848"
   inkscape:window-x="1909"
   inkscape:window-y="43"
   inkscape:window-maximized="1"
   inkscape:current-layer="g26"
   fit-margin-top="0"
   fit-margin-left="0"
   fit-margin-right="0"
   fit-margin-bottom="0"
   units="pt" />
<metadata
   id="metadata353"><rdf:RDF><cc:Work
       rdf:about=""><dc:format>image/svg+xml</dc:format><dc:type
         rdf:resource="http://purl.org/dc/dcmitype/StillImage" /><dc:title></dc:title></cc:Work></rdf:RDF></metadata><g
   inkscape:groupmode="layer"
   inkscape:label="suit-"
   transform="translate(-1144.3399,-293.07711)"
   id="g26"><g
     transform="translate(722.82991,-256.44289)"
     id="g224"><path
       inkscape:connector-curvature="0"
       id="path222"
       d="m 455.166,569.566 c -5.527,0 -10.024,-4.496 -10.024,-10.022 0,-5.527 4.497,-10.024 10.024,-10.024 5.526,0 10.022,4.497 10.022,10.024 0,5.526 -4.496,10.022 -10.022,10.022 z m 0,-15.502 c -3.021,0 -5.479,2.458 -5.479,5.479 0,3.02 2.458,5.478 5.479,5.478 3.021,0 5.478,-2.458 5.478,-5.478 -0.001,-3.021 -2.457,-5.479 -5.478,-5.479 z" /></g><g
     transform="translate(722.82991,-256.44289)"
     id="g228"><path
       inkscape:connector-curvature="0"
       id="path226"
       d="m 455.166,822.381 c -0.628,0 -1.136,-0.51 -1.136,-1.137 V 641.418 c 0,-0.626 0.508,-1.136 1.136,-1.136 0.628,0 1.135,0.51 1.135,1.136 v 179.826 c 0,0.627 -0.508,1.137 -1.135,1.137 z" /></g><g
     transform="translate(722.82991,-256.44289)"
     id="g232"><path
       inkscape:connector-curvature="0"
       id="path230"
       d="m 455.166,823.517 c -1,0 -1.881,-0.652 -2.174,-1.606 -0.32,-1.049 -7.851,-25.887 -7.851,-47.173 v -133.32 c 0,-1.254 1.018,-2.271 2.272,-2.271 1.257,0 2.272,1.017 2.272,2.271 v 133.319 c 0,13.42 3.216,28.708 5.479,37.802 2.262,-9.094 5.478,-24.382 5.478,-37.802 V 641.418 c 0,-1.254 1.018,-2.271 2.272,-2.271 1.256,0 2.272,1.017 2.272,2.271 v 133.319 c 0,21.286 -7.529,46.124 -7.851,47.173 -0.289,0.954 -1.171,1.607 -2.169,1.607 z" /></g><g
     transform="translate(722.82991,-256.44289)"
     id="g236"><path
       inkscape:connector-curvature="0"
       id="path234"
       d="M 465.121,643.691 H 445.21 c -1.256,0 -2.272,-1.018 -2.272,-2.273 v -9.714 c 0,-1.253 1.017,-2.271 2.272,-2.271 h 19.911 c 1.255,0 2.271,1.018 2.271,2.271 v 9.714 c 10e-4,1.256 -1.016,2.273 -2.271,2.273 z m -17.639,-4.544 h 15.365 v -5.17 h -15.365 z" /></g><g
     transform="translate(722.82991,-256.44289)"
     id="g254"><g
       id="g240"><path
         inkscape:connector-curvature="0"
         id="path238"
         d="m 428.949,636.381 c -4.102,0 -7.439,-3.338 -7.439,-7.441 0,-4.102 3.337,-7.439 7.439,-7.439 4.102,0 7.439,3.338 7.439,7.439 0,4.103 -3.337,7.441 -7.439,7.441 z m 0,-10.336 c -1.596,0 -2.895,1.299 -2.895,2.895 0,1.596 1.299,2.895 2.895,2.895 1.597,0 2.895,-1.299 2.895,-2.895 0,-1.596 -1.298,-2.895 -2.895,-2.895 z" /></g><g
       id="g244"><path
         inkscape:connector-curvature="0"
         id="path242"
         d="m 481.381,636.381 c -4.102,0 -7.44,-3.338 -7.44,-7.441 0,-4.102 3.338,-7.439 7.44,-7.439 4.103,0 7.44,3.338 7.44,7.439 10e-4,4.103 -3.337,7.441 -7.44,7.441 z m 0,-10.336 c -1.595,0 -2.894,1.299 -2.894,2.895 0,1.596 1.299,2.895 2.894,2.895 1.596,0 2.894,-1.299 2.894,-2.895 0,-1.596 -1.298,-2.895 -2.894,-2.895 z" /></g><g
       id="g248"><path
         inkscape:connector-curvature="0"
         id="path246"
         d="m 477.017,633.978 h -43.704 c -1.254,0 -2.272,-1.018 -2.272,-2.273 0,-1.253 1.019,-2.271 2.272,-2.271 h 43.704 c 1.255,0 2.271,1.018 2.271,2.271 10e-4,1.255 -1.016,2.273 -2.271,2.273 z" /></g><g
       id="g252"><path
         inkscape:connector-curvature="0"
         id="path250"
         d="m 477.017,628.448 h -43.704 c -1.254,0 -2.272,-1.018 -2.272,-2.273 0,-1.255 1.019,-2.271 2.272,-2.271 h 43.704 c 1.255,0 2.271,1.017 2.271,2.271 10e-4,1.256 -1.016,2.273 -2.271,2.273 z" /></g></g><g
     transform="translate(722.82991,-256.44289)"
     id="g264"><g
       id="g258"><path
         inkscape:connector-curvature="0"
         id="path256"
         d="m 461.994,628.448 c -1.207,0 -2.211,-0.948 -2.269,-2.165 l -2.901,-60.881 c -0.059,-1.254 0.908,-2.319 2.162,-2.378 1.238,-0.067 2.317,0.907 2.378,2.161 l 2.901,60.881 c 0.061,1.254 -0.907,2.32 -2.161,2.379 -0.038,0.002 -0.074,0.003 -0.11,0.003 z" /></g><g
       id="g262"><path
         inkscape:connector-curvature="0"
         id="path260"
         d="m 448.336,628.448 c -0.036,0 -0.073,-10e-4 -0.11,-0.003 -1.252,-0.059 -2.222,-1.125 -2.161,-2.379 l 2.887,-60.581 c 0.06,-1.253 1.121,-2.227 2.378,-2.16 1.254,0.059 2.222,1.124 2.162,2.377 l -2.888,60.581 c -0.058,1.217 -1.062,2.165 -2.268,2.165 z" /></g></g></g></svg>