<?xml version='1.0' encoding='UTF-8'?>
<!-- Created with Inkscape (http://www.inkscape.org/) and export_objects.py -->
<svg xmlns:cc="http://creativecommons.org/ns#" xmlns:dc="http://purl.org/dc/elements/1.1/" xmlns:inkscape="http://www.inkscape.org/namespaces/inkscape" xmlns:rdf="http://www.w3.org/1999/02/22-rdf-syntax-ns#" xmlns:sodipodi="http://sodipodi.sourceforge.net/DTD/sodipodi-0.dtd" xmlns:xlink="http://www.w3.org/1999/xlink" xmlns="http://www.w3.org/2000/svg" version="1.1" id="Layer_1" x="0px" y="0px" width="62.1963px" height="281.09607px" viewBox="0 0 62.1963 281.09607" enable-background="new 0 0 1400 980" xml:space="preserve" sodipodi:docname="suit-3.svg"><sodipodi:namedview pagecolor="#ffffff" bordercolor="#666666" borderopacity="1" objecttolerance="10" gridtolerance="10" guidetolerance="10" inkscape:pageopacity="0" inkscape:pageshadow="2" inkscape:window-width="1280" inkscape:window-height="940" id="namedview349" showgrid="false" inkscape:zoom="0.59890233" inkscape:cx="469.30719" inkscape:cy="490.0005" inkscape:window-x="1909" inkscape:window-y="43" inkscape:window-maximized="1" inkscape:current-layer="Layer_1"/>
<metadata id="metadata353"><rdf:RDF><cc:Work rdf:about=""><dc:format>image/svg+xml</dc:format><dc:type rdf:resource="http://purl.org/dc/dcmitype/StillImage"/></cc:Work></rdf:RDF></metadata><g inkscape:groupmode="layer" inkscape:label="suit-" transform="matrix(1.000000,0.000000,0.000000,1.000000,-157.340220,-416.541930)"><g id="g1351" inkscape:label="3"><path style="fill:#007400;fill-opacity:1" inkscape:connector-curvature="0" id="path178" d="m 195.044,697.638 c -0.866,0 -1.729,-0.179 -2.565,-0.537 -7.506,-3.226 -11.602,-22.936 -12.175,-58.585 -0.646,-40.197 0.491,-84.477 0.683,-91.479 -2.95,-5.769 -7.97,-13.927 -10.79,-15.52 -4.322,-2.438 -9.064,-2.505 -9.111,-2.505 -1.669,0 -3.137,-1.105 -3.599,-2.708 -0.462,-1.604 0.192,-3.32 1.605,-4.209 0.441,-0.278 10.944,-6.736 20.949,-0.423 0.059,0.036 0.118,0.074 0.175,0.11 -0.538,-19.98 -2.686,-65.449 -5.686,-70.914 -6.071,-7.2 0.83,-20.317 1.641,-21.797 0.2,-0.366 0.46,-0.695 0.77,-0.974 1.6,-1.449 15.961,-14.081 27.479,-11.102 7.844,2.033 11.619,7.307 13.171,10.27 1.935,3.694 2.465,7.602 1.417,10.452 -1.229,3.703 -4.72,40.074 -5.069,69.654 -0.178,15.058 -1.699,59.979 -3.982,101.814 -4.44,81.348 -7.926,84.55 -9.799,86.269 -1.566,1.44 -3.343,2.184 -5.114,2.184 z M 179.43,530.306 c 4.138,5.284 7.76,12.369 8.682,14.226 0.273,0.55 0.406,1.16 0.389,1.774 -0.015,0.481 -1.406,48.688 -0.706,92.088 0.583,36.267 5.02,48.842 7.2,51.409 5.188,-13.007 10.994,-143.718 11.452,-182.52 0.347,-29.264 3.798,-67.438 5.531,-72.15 0.165,-0.45 0.136,-2.179 -1.022,-4.392 -0.977,-1.864 -3.369,-5.187 -8.414,-6.494 -6.188,-1.602 -16.345,5.731 -20.093,8.977 -2.16,4.218 -4.027,10.709 -2.169,12.843 1.337,1.536 3.83,4.397 6.001,42.46 0.944,16.555 1.433,33.048 1.538,38.878 3.321,2.873 4.967,4.963 5.074,5.099 1.271,1.632 0.978,3.984 -0.655,5.257 -1.63,1.267 -3.977,0.979 -5.25,-0.646 -0.088,-0.111 -2.541,-3.143 -7.558,-6.809 z"/><path style="fill:#007400;fill-opacity:1" inkscape:connector-curvature="0" id="path180" d="m 185.803,523.865 c -0.013,0 -0.025,0 -0.039,-0.002 -1.034,-0.02 -1.854,-0.873 -1.835,-1.906 0.006,-0.288 0.166,-7.161 2.69,-17.493 2.631,-10.772 6.899,-43.555 5.398,-50.103 -6.28,2.728 -14.718,-3.584 -15.709,-4.353 -0.817,-0.634 -0.965,-1.808 -0.333,-2.626 0.632,-0.817 1.807,-0.968 2.626,-0.337 2.27,1.753 8.932,5.818 12.458,3.599 1,-0.634 2.132,-0.628 3.025,0.015 1.154,0.832 3.303,2.377 0.728,25.484 -1.337,11.999 -3.405,24.504 -4.555,29.209 -2.417,9.896 -2.581,16.611 -2.583,16.678 -0.022,1.022 -0.856,1.835 -1.871,1.835 z"/><path style="fill:#007400;fill-opacity:1" inkscape:connector-curvature="0" id="path182" d="m 194.033,680.275 c -0.796,0 -1.869,-0.336 -2.826,-1.772 -2.854,-4.271 -2.008,-9.207 -0.835,-16.037 1.113,-6.489 2.639,-15.377 1.469,-27.535 -1.203,-12.514 -3.499,-26.476 -5.345,-37.697 -1.822,-11.083 -3.262,-19.837 -3.141,-23.759 0.031,-1.035 0.927,-1.85 1.929,-1.815 1.034,0.032 1.846,0.897 1.814,1.93 -0.11,3.559 1.375,12.586 3.094,23.037 1.854,11.275 4.161,25.309 5.377,37.946 1.218,12.658 -0.357,21.829 -1.506,28.527 -1.023,5.957 -1.712,9.971 0.033,12.963 2.952,-4.696 6.386,-30.624 5.749,-40.909 -0.343,-5.521 -2.892,-22.953 -5.358,-39.813 -2.692,-18.4 -5.234,-35.78 -5.478,-41.085 -0.371,-8.1 5.766,-46.639 9.827,-72.142 1.147,-7.203 2.137,-13.423 2.674,-17.059 2.213,-14.981 -4.504,-23.831 -4.572,-23.918 -0.634,-0.817 -0.486,-1.995 0.331,-2.628 0.817,-0.634 1.992,-0.485 2.627,0.329 0.318,0.41 7.763,10.217 5.321,26.765 -0.541,3.657 -1.533,9.887 -2.681,17.102 -3.792,23.812 -10.138,63.665 -9.786,71.38 0.237,5.119 2.884,23.215 5.443,40.714 2.592,17.716 5.04,34.448 5.391,40.124 0.427,6.887 -2.073,42.989 -8.637,45.204 -0.212,0.071 -0.531,0.148 -0.914,0.148 z"/><path style="fill:#007400;fill-opacity:1" inkscape:connector-curvature="0" id="path184" d="m 203.828,595.337 c -0.871,0 -1.649,-0.61 -1.833,-1.495 -0.068,-0.335 -6.818,-33.702 -3.523,-60.744 0.557,-4.567 1.306,-10.178 2.171,-16.674 3.66,-27.436 10.472,-78.506 5.56,-84.021 -3.593,-4.036 -13.125,-1.641 -17.552,1.88 -0.862,0.687 -2.773,2.414 -1.903,3.643 0.417,0.588 0.703,0.871 0.862,1.001 0.327,-0.272 0.851,-0.919 1.251,-1.413 1.556,-1.921 3.906,-4.826 8.176,-5.155 1.027,-0.071 1.933,0.692 2.012,1.724 0.078,1.031 -0.694,1.931 -1.724,2.012 -2.661,0.204 -4.132,2.019 -5.552,3.774 -1.171,1.449 -2.4,2.948 -4.261,2.885 -1.771,-0.056 -3.027,-1.546 -3.818,-2.663 -1.887,-2.662 -0.906,-5.928 2.626,-8.739 5.72,-4.55 17.397,-7.374 22.681,-1.441 5.6,6.287 1.209,43.124 -4.644,87.008 -0.864,6.486 -1.612,12.085 -2.165,16.633 -3.221,26.441 3.406,59.207 3.475,59.536 0.207,1.012 -0.445,2.002 -1.458,2.21 -0.129,0.026 -0.256,0.039 -0.381,0.039 z"/></g></g></svg>
