<?xml version='1.0' encoding='UTF-8'?>
<!-- Created with Inkscape (http://www.inkscape.org/) and export_objects.py -->
<svg xmlns:cc="http://creativecommons.org/ns#" xmlns:dc="http://purl.org/dc/elements/1.1/" xmlns:inkscape="http://www.inkscape.org/namespaces/inkscape" xmlns:rdf="http://www.w3.org/1999/02/22-rdf-syntax-ns#" xmlns:sodipodi="http://sodipodi.sourceforge.net/DTD/sodipodi-0.dtd" xmlns:xlink="http://www.w3.org/1999/xlink" xmlns="http://www.w3.org/2000/svg" version="1.1" id="Layer_1" x="0px" y="0px" width="188.11062px" height="184.299px" viewBox="0 0 188.11062 184.299" enable-background="new 0 0 1400 980" xml:space="preserve" sodipodi:docname="suit-4.svg"><sodipodi:namedview pagecolor="#ffffff" bordercolor="#666666" borderopacity="1" objecttolerance="10" gridtolerance="10" guidetolerance="10" inkscape:pageopacity="0" inkscape:pageshadow="2" inkscape:window-width="1280" inkscape:window-height="940" id="namedview349" showgrid="false" inkscape:zoom="0.59890233" inkscape:cx="469.30719" inkscape:cy="490.0005" inkscape:window-x="1909" inkscape:window-y="43" inkscape:window-maximized="1" inkscape:current-layer="Layer_1"/>
<metadata id="metadata353"><rdf:RDF><cc:Work rdf:about=""><dc:format>image/svg+xml</dc:format><dc:type rdf:resource="http://purl.org/dc/dcmitype/StillImage"/></cc:Work></rdf:RDF></metadata><g inkscape:groupmode="layer" inkscape:label="suit-" transform="matrix(1.000000,0.000000,0.000000,1.000000,-785.738610,-420.203000)"><g id="g1374" inkscape:label="4"><g style="fill:#808000;fill-opacity:1" id="g234">
		<path style="fill:#808000;fill-opacity:1" d="m 879.788,604.502 c -16.641,0 -32.802,-4.735 -46.734,-13.696 -1.741,-1.117 -2.245,-3.436 -1.126,-5.175 1.118,-1.741 3.438,-2.243 5.176,-1.126 12.724,8.181 27.483,12.507 42.685,12.507 15.199,0 29.959,-4.326 42.686,-12.507 1.74,-1.119 4.057,-0.615 5.176,1.126 1.119,1.739 0.614,4.058 -1.125,5.175 -13.938,8.961 -30.1,13.696 -46.738,13.696 z" id="path220" inkscape:connector-curvature="0"/>
		<g style="fill:#808000;fill-opacity:1" id="g232">
			<path style="fill:#808000;fill-opacity:1" d="m 802.013,493.306 c -0.428,0 -0.862,-0.075 -1.286,-0.229 -1.942,-0.71 -2.942,-2.86 -2.231,-4.804 12.038,-32.936 42.439,-55.208 77.449,-56.74 2.056,-0.081 3.814,1.512 3.905,3.577 0.09,2.067 -1.512,3.816 -3.579,3.907 -31.976,1.399 -59.743,21.743 -70.74,51.827 -0.555,1.517 -1.991,2.462 -3.518,2.462 z" id="path222" inkscape:connector-curvature="0"/>
			<path style="fill:#808000;fill-opacity:1" d="m 828.198,586.465 c -0.819,0 -1.644,-0.268 -2.333,-0.819 -20.72,-16.527 -32.604,-41.194 -32.604,-67.671 0,-7.432 0.944,-14.815 2.807,-21.943 0.523,-2.002 2.57,-3.204 4.57,-2.677 2.002,0.521 3.2,2.568 2.677,4.569 -1.7,6.511 -2.563,13.256 -2.563,20.051 0,24.185 10.856,46.716 29.784,61.816 1.616,1.29 1.883,3.646 0.592,5.265 -0.738,0.926 -1.828,1.409 -2.93,1.409 z" id="path224" inkscape:connector-curvature="0"/>
			<path style="fill:#808000;fill-opacity:1" d="m 931.379,586.465 c -1.101,0 -2.19,-0.482 -2.93,-1.409 -1.29,-1.616 -1.025,-3.972 0.592,-5.265 18.927,-15.101 29.782,-37.632 29.782,-61.816 0,-6.796 -0.863,-13.542 -2.563,-20.049 -0.523,-2.002 0.674,-4.048 2.676,-4.57 2.001,-0.523 4.048,0.675 4.571,2.676 1.862,7.125 2.808,14.509 2.808,21.943 0,26.477 -11.883,51.143 -32.602,67.674 -0.691,0.55 -1.515,0.816 -2.334,0.816 z" id="path226" inkscape:connector-curvature="0"/>
			<path style="fill:#808000;fill-opacity:1" d="m 957.565,493.311 c -1.528,0 -2.963,-0.941 -3.518,-2.461 -10.993,-30.087 -38.763,-50.434 -70.742,-51.833 -2.066,-0.09 -3.669,-1.84 -3.578,-3.907 0.09,-2.065 1.867,-3.658 3.905,-3.577 35.014,1.531 65.415,23.807 77.45,56.746 0.71,1.943 -0.289,4.093 -2.232,4.804 -0.424,0.154 -0.858,0.228 -1.285,0.228 z" id="path228" inkscape:connector-curvature="0"/>
			<path style="fill:#808000;fill-opacity:1" d="m 935.602,599.467 c -0.773,0 -1.545,-0.236 -2.202,-0.715 l -53.61,-38.951 -53.609,38.951 c -1.314,0.954 -3.09,0.954 -4.404,0 -1.312,-0.953 -1.861,-2.643 -1.36,-4.187 l 20.478,-63.025 -53.613,-38.951 c -1.312,-0.954 -1.861,-2.645 -1.36,-4.188 0.502,-1.542 1.939,-2.588 3.563,-2.588 h 66.269 l 20.476,-63.022 c 0.503,-1.542 1.939,-2.588 3.563,-2.588 1.624,0 3.061,1.046 3.563,2.588 l 20.477,63.022 h 66.27 c 1.622,0 3.06,1.046 3.563,2.588 0.501,1.543 -0.049,3.234 -1.361,4.188 l -53.612,38.952 20.479,63.024 c 0.501,1.544 -0.049,3.233 -1.361,4.187 -0.665,0.478 -1.437,0.715 -2.209,0.715 z m -88.337,-63.297 -16.163,49.746 42.315,-30.744 z m 38.896,19.002 42.316,30.744 -16.164,-49.746 z m -36.463,-26.492 30.091,21.862 30.091,-21.862 -11.495,-35.377 h -37.193 z m 56.564,-35.377 9.989,30.746 42.319,-30.746 z m -105.253,0 42.317,30.746 9.989,-30.746 z m 62.617,-7.491 h 32.325 l -16.163,-49.744 z" id="path230" inkscape:connector-curvature="0"/>
		</g>
	</g></g></g></svg>
