<?xml version='1.0' encoding='UTF-8'?>
<!-- Created with Inkscape (http://www.inkscape.org/) and export_objects.py -->
<svg xmlns:cc="http://creativecommons.org/ns#" xmlns:dc="http://purl.org/dc/elements/1.1/" xmlns:inkscape="http://www.inkscape.org/namespaces/inkscape" xmlns:rdf="http://www.w3.org/1999/02/22-rdf-syntax-ns#" xmlns:sodipodi="http://sodipodi.sourceforge.net/DTD/sodipodi-0.dtd" xmlns:xlink="http://www.w3.org/1999/xlink" xmlns="http://www.w3.org/2000/svg" version="1.1" id="Layer_1" x="0px" y="0px" width="105.4511px" height="297.195px" viewBox="0 0 105.4511 297.195" enable-background="new 0 0 1400 980" xml:space="preserve" sodipodi:docname="suit-1.svg"><sodipodi:namedview pagecolor="#ffffff" bordercolor="#666666" borderopacity="1" objecttolerance="10" gridtolerance="10" guidetolerance="10" inkscape:pageopacity="0" inkscape:pageshadow="2" inkscape:window-width="1280" inkscape:window-height="940" id="namedview349" showgrid="false" inkscape:zoom="0.59890233" inkscape:cx="469.30719" inkscape:cy="490.0005" inkscape:window-x="1909" inkscape:window-y="43" inkscape:window-maximized="1" inkscape:current-layer="Layer_1"/>
<metadata id="metadata353"><rdf:RDF><cc:Work rdf:about=""><dc:format>image/svg+xml</dc:format><dc:type rdf:resource="http://purl.org/dc/dcmitype/StillImage"/></cc:Work></rdf:RDF></metadata><g inkscape:groupmode="layer" inkscape:label="suit-" transform="matrix(1.000000,0.000000,0.000000,1.000000,-1137.208000,-388.548000)"><g id="g1397" inkscape:label="1"><g id="g152">
		<path d="m 1166.576,499.24 c -0.47,0 -0.948,-0.089 -1.41,-0.276 -1.916,-0.78 -2.837,-2.967 -2.057,-4.882 l 8.799,-21.614 c 0.78,-1.917 2.967,-2.836 4.881,-2.057 1.916,0.78 2.837,2.965 2.057,4.882 l -8.799,21.614 c -0.592,1.453 -1.992,2.333 -3.471,2.333 z" id="path112" inkscape:connector-curvature="0"/>
		<path d="m 1189.938,479.978 c -0.07,0 -0.141,-0.001 -0.213,-0.006 -0.795,-0.044 -19.585,-1.155 -30.121,-6.7 -6.516,-3.432 -9.332,1.128 -9.631,1.659 -1.015,1.803 -3.3,2.443 -5.102,1.429 -1.803,-1.015 -2.442,-3.298 -1.429,-5.101 1.808,-3.209 8.856,-10.295 19.651,-4.616 9.108,4.794 26.872,5.84 27.051,5.85 2.064,0.116 3.645,1.884 3.529,3.949 -0.11,1.995 -1.763,3.536 -3.735,3.536 z" id="path114" inkscape:connector-curvature="0"/>
		<path d="m 1147.987,484.311 c -1.845,0 -3.75,-0.417 -5.496,-1.423 -2.013,-1.159 -5.377,-4.091 -5.281,-10.707 0.065,-4.511 1.833,-8.229 5.112,-10.75 7.488,-5.762 20.095,-3.434 25.164,-2.167 9.683,2.424 16.271,-1.517 16.545,-1.687 1.757,-1.074 4.06,-0.538 5.147,1.208 1.087,1.747 0.574,4.036 -1.165,5.137 -0.379,0.24 -9.437,5.835 -22.344,2.609 -3.899,-0.976 -7.628,-1.41 -10.816,-1.308 0.363,0.207 0.698,0.478 0.985,0.813 2.636,3.062 3.801,6.531 3.277,9.771 -0.452,2.809 -2.132,5.216 -4.729,6.774 -1.71,1.028 -4.003,1.729 -6.399,1.73 z m 2.398,-18.511 c -1.42,0.36 -2.605,0.884 -3.496,1.569 -1.46,1.123 -2.156,2.687 -2.188,4.921 -0.021,1.459 0.228,3.357 1.529,4.107 1.246,0.717 3.167,0.442 4.304,-0.239 0.689,-0.413 1.09,-0.933 1.188,-1.542 0.162,-1.007 -0.405,-2.352 -1.56,-3.692 -1.298,-1.508 -1.183,-3.754 0.223,-5.124 z" id="path116" inkscape:connector-curvature="0"/>
		<path d="m 1189.935,479.978 c -5.862,0 -10.631,-5.491 -10.631,-12.242 0,-6.75 4.769,-12.243 10.631,-12.243 2.068,0 3.745,1.678 3.745,3.746 0,2.069 -1.677,3.745 -3.745,3.745 -1.485,0 -3.14,1.952 -3.14,4.752 0,2.801 1.654,4.751 3.14,4.751 2.068,0 3.745,1.678 3.745,3.746 0,2.069 -1.677,3.745 -3.745,3.745 z" id="path118" inkscape:connector-curvature="0"/>
		<path d="m 1179.445,466.926 c -1.92,0 -3.557,-1.47 -3.726,-3.419 -0.087,-0.985 -2.049,-24.239 2.852,-35.444 0.425,-0.969 1.237,-1.714 2.241,-2.051 1.001,-0.336 2.1,-0.233 3.022,0.284 0.805,0.44 3.411,1.541 5.609,1.253 2.065,-0.267 3.933,1.173 4.204,3.224 0.27,2.051 -1.174,3.933 -3.224,4.203 -2.216,0.293 -4.355,-0.027 -6.106,-0.502 -2.161,8.751 -1.607,22.984 -1.137,28.382 0.18,2.061 -1.346,3.877 -3.406,4.057 -0.109,0.009 -0.219,0.013 -0.329,0.013 z" id="path120" inkscape:connector-curvature="0"/>
		<path d="m 1182.005,433.311 c -1.458,0 -2.845,-0.857 -3.449,-2.285 -0.279,-0.656 -1.604,-4.084 -0.307,-7.063 0.666,-1.531 1.917,-2.696 3.521,-3.278 3.569,-1.301 8.033,-0.911 8.528,-0.862 2.06,0.203 3.564,2.035 3.362,4.093 -0.201,2.057 -2.061,3.558 -4.084,3.364 -1.006,-0.094 -2.855,-0.099 -4.313,0.192 0.057,0.252 0.133,0.499 0.188,0.629 0.809,1.905 -0.08,4.103 -1.984,4.911 -0.479,0.202 -0.975,0.299 -1.462,0.299 z" id="path122" inkscape:connector-curvature="0"/>
		<path d="m 1183.621,427.763 c -1.846,0 -3.454,-1.366 -3.707,-3.247 -0.427,-3.173 -1.789,-13.766 -1.356,-16.792 0.672,-4.694 4.503,-6.459 4.937,-6.646 l 2.946,6.887 c 0,0 0.048,-0.016 0.126,-0.058 -0.152,0.083 -0.516,0.334 -0.594,0.877 -0.185,1.462 0.564,8.787 1.366,14.732 0.275,2.051 -1.163,3.936 -3.213,4.212 -0.169,0.023 -0.338,0.035 -0.505,0.035 z" id="path124" inkscape:connector-curvature="0"/>
		<path d="m 1189.935,410.29 c -5.994,0 -10.871,-4.877 -10.871,-10.871 0,-5.994 4.877,-10.871 10.871,-10.871 2.068,0 3.745,1.678 3.745,3.746 0,2.069 -1.677,3.745 -3.745,3.745 -1.863,0 -3.38,1.517 -3.38,3.38 0,1.863 1.517,3.379 3.38,3.379 2.068,0 3.745,1.677 3.745,3.746 0,2.068 -1.677,3.746 -3.745,3.746 z" id="path126" inkscape:connector-curvature="0"/>
		<path d="m 1189.93,685.743 c -1.86,0 -3.475,-1.386 -3.712,-3.28 L 1162.862,495.96 c -0.257,-2.053 1.199,-3.925 3.251,-4.183 2.067,-0.256 3.926,1.2 4.182,3.252 l 23.356,186.502 c 0.258,2.054 -1.198,3.924 -3.25,4.183 -0.16,0.019 -0.317,0.029 -0.471,0.029 z" id="path128" inkscape:connector-curvature="0"/>
		<path d="m 1184.897,643.637 c -0.164,0 -0.331,-0.022 -0.497,-0.066 -0.997,-0.275 -1.584,-1.305 -1.31,-2.302 l 4.971,-18.088 V 502.876 l -21.944,-5.566 c -1.002,-0.255 -1.608,-1.273 -1.354,-2.275 0.256,-1.004 1.271,-1.608 2.276,-1.355 l 23.356,5.925 c 0.83,0.211 1.411,0.959 1.411,1.815 v 122.013 c 0,0.168 -0.021,0.334 -0.066,0.497 l -5.038,18.332 c -0.227,0.828 -0.982,1.375 -1.805,1.375 z" id="path130" inkscape:connector-curvature="0"/>
		<path d="m 1213.292,499.24 c -1.478,0 -2.878,-0.88 -3.47,-2.333 l -8.798,-21.614 c -0.78,-1.917 0.139,-4.102 2.056,-4.882 1.914,-0.779 4.102,0.14 4.882,2.057 l 8.798,21.614 c 0.78,1.915 -0.14,4.102 -2.056,4.882 -0.464,0.187 -0.941,0.276 -1.412,0.276 z" id="path132" inkscape:connector-curvature="0"/>
		<path d="m 1189.931,479.978 c -1.972,0 -3.624,-1.541 -3.735,-3.534 -0.116,-2.065 1.464,-3.833 3.528,-3.951 0.179,-0.01 17.962,-1.065 27.053,-5.85 10.788,-5.682 17.845,1.406 19.651,4.616 1.012,1.803 0.373,4.086 -1.429,5.101 -1.805,1.014 -4.087,0.374 -5.102,-1.429 -0.702,-1.169 -3.536,-4.871 -9.632,-1.659 -10.536,5.545 -29.326,6.656 -30.121,6.7 -0.072,0.005 -0.143,0.006 -0.213,0.006 z" id="path134" inkscape:connector-curvature="0"/>
		<path d="m 1231.88,484.311 c -2.395,0 -4.687,-0.702 -6.396,-1.729 -2.6,-1.558 -4.279,-3.965 -4.73,-6.774 -0.524,-3.24 0.641,-6.709 3.277,-9.771 0.287,-0.335 0.621,-0.606 0.984,-0.813 -3.182,-0.102 -6.915,0.333 -10.816,1.308 -12.914,3.229 -21.964,-2.369 -22.345,-2.609 -1.747,-1.107 -2.268,-3.42 -1.162,-5.168 1.103,-1.742 3.4,-2.264 5.149,-1.174 0.33,0.201 6.906,4.096 16.541,1.684 5.071,-1.267 17.673,-3.594 25.164,2.167 3.279,2.521 5.045,6.239 5.111,10.75 0.098,6.616 -3.268,9.548 -5.279,10.707 -1.745,1.005 -3.652,1.422 -5.498,1.422 z m -2.395,-18.511 c 1.404,1.371 1.52,3.616 0.222,5.125 -1.153,1.34 -1.721,2.685 -1.561,3.692 0.101,0.609 0.5,1.129 1.19,1.543 1.134,0.679 3.056,0.955 4.304,0.238 1.302,-0.75 1.549,-2.647 1.526,-4.106 -0.032,-2.235 -0.727,-3.799 -2.188,-4.922 -0.888,-0.686 -2.076,-1.209 -3.493,-1.57 z" id="path136" inkscape:connector-curvature="0"/>
		<path d="m 1189.935,479.978 c -2.069,0 -3.746,-1.676 -3.746,-3.745 0,-2.068 1.677,-3.746 3.746,-3.746 1.484,0 3.14,-1.951 3.14,-4.751 0,-2.8 -1.655,-4.752 -3.14,-4.752 -2.069,0 -3.746,-1.676 -3.746,-3.745 0,-2.068 1.677,-3.746 3.746,-3.746 5.861,0 10.631,5.493 10.631,12.243 -10e-4,6.751 -4.77,12.242 -10.631,12.242 z" id="path138" inkscape:connector-curvature="0"/>
		<path d="m 1200.425,466.926 c -0.11,0 -0.22,-0.004 -0.332,-0.014 -2.061,-0.18 -3.585,-1.996 -3.405,-4.057 0.47,-5.4 1.018,-19.637 -1.14,-28.382 -1.751,0.477 -3.894,0.793 -6.104,0.502 -2.051,-0.27 -3.493,-2.152 -3.224,-4.203 0.271,-2.051 2.148,-3.491 4.204,-3.224 2.19,0.284 4.804,-0.813 5.624,-1.262 0.924,-0.504 2.022,-0.602 3.018,-0.263 0.994,0.339 1.809,1.075 2.229,2.037 4.903,11.206 2.94,34.46 2.855,35.445 -0.171,1.951 -1.806,3.421 -3.725,3.421 z" id="path140" inkscape:connector-curvature="0"/>
		<path d="m 1197.863,433.311 c -0.489,0 -0.985,-0.096 -1.462,-0.299 -1.905,-0.808 -2.794,-3.008 -1.985,-4.912 0.072,-0.178 0.141,-0.407 0.19,-0.629 -1.532,-0.305 -3.459,-0.276 -4.308,-0.193 -2.056,0.195 -3.892,-1.305 -4.092,-3.363 -0.202,-2.058 1.304,-3.89 3.363,-4.093 0.494,-0.049 4.957,-0.439 8.53,0.862 1.603,0.583 2.853,1.747 3.519,3.278 1.297,2.979 -0.029,6.407 -0.307,7.064 -0.604,1.427 -1.991,2.283 -3.448,2.285 z" id="path142" inkscape:connector-curvature="0"/>
		<path d="m 1196.247,427.763 c -0.167,0 -0.335,-0.012 -0.505,-0.034 -2.049,-0.277 -3.487,-2.162 -3.212,-4.212 0.801,-5.945 1.551,-13.27 1.364,-14.735 -0.076,-0.534 -0.462,-0.813 -0.466,-0.816 -1.902,-0.813 -2.785,-3.014 -1.972,-4.916 0.814,-1.902 3.016,-2.785 4.917,-1.972 0.435,0.187 4.265,1.952 4.938,6.646 0.431,3.026 -0.93,13.619 -1.356,16.792 -0.252,1.881 -1.861,3.247 -3.708,3.247 z" id="path144" inkscape:connector-curvature="0"/>
		<path d="m 1189.935,410.29 c -2.069,0 -3.746,-1.678 -3.746,-3.746 0,-2.069 1.677,-3.746 3.746,-3.746 1.862,0 3.38,-1.517 3.38,-3.379 0,-1.862 -1.518,-3.38 -3.38,-3.38 -2.069,0 -3.746,-1.676 -3.746,-3.745 0,-2.068 1.677,-3.746 3.746,-3.746 5.993,0 10.87,4.877 10.87,10.871 0,5.994 -4.877,10.871 -10.87,10.871 z" id="path146" inkscape:connector-curvature="0"/>
		<path d="m 1189.939,685.743 c -0.156,0 -0.313,-0.01 -0.471,-0.029 -2.052,-0.259 -3.508,-2.129 -3.251,-4.183 l 23.358,-186.502 c 0.256,-2.053 2.128,-3.508 4.182,-3.252 2.051,0.258 3.506,2.13 3.25,4.183 l -23.357,186.503 c -0.236,1.894 -1.85,3.28 -3.711,3.28 z" id="path148" inkscape:connector-curvature="0"/>
		<path d="m 1194.971,643.637 c -0.821,0 -1.576,-0.544 -1.805,-1.376 l -5.037,-18.332 c -0.045,-0.163 -0.067,-0.329 -0.067,-0.497 V 501.419 c 0,-0.856 0.582,-1.604 1.412,-1.815 l 23.357,-5.925 c 1.005,-0.253 2.021,0.352 2.275,1.355 0.253,1.002 -0.352,2.021 -1.354,2.275 l -21.946,5.566 V 623.18 l 4.971,18.088 c 0.274,0.997 -0.312,2.026 -1.309,2.302 -0.165,0.044 -0.332,0.067 -0.497,0.067 z" id="path150" inkscape:connector-curvature="0"/>
	</g></g></g></svg>
