<?xml version="1.0" encoding="UTF-8" standalone="no"?>
<svg
   xmlns:dc="http://purl.org/dc/elements/1.1/"
   xmlns:cc="http://creativecommons.org/ns#"
   xmlns:rdf="http://www.w3.org/1999/02/22-rdf-syntax-ns#"
   xmlns:svg="http://www.w3.org/2000/svg"
   xmlns="http://www.w3.org/2000/svg"
   xmlns:sodipodi="http://sodipodi.sourceforge.net/DTD/sodipodi-0.dtd"
   xmlns:inkscape="http://www.inkscape.org/namespaces/inkscape"
   viewBox="0 0 96 96"
   version="1.1"
   id="svg3789"
   sodipodi:docname="wood-club.svg"
   inkscape:version="0.92.3 (2405546, 2018-03-11)"
   width="72pt"
   height="72pt">
  <metadata
     id="metadata3795">
    <rdf:RDF>
      <cc:Work
         rdf:about="">
        <dc:format>image/svg+xml</dc:format>
        <dc:type
           rdf:resource="http://purl.org/dc/dcmitype/StillImage" />
        <dc:title></dc:title>
      </cc:Work>
    </rdf:RDF>
  </metadata>
  <defs
     id="defs3793" />
  <sodipodi:namedview
     pagecolor="#ffffff"
     bordercolor="#666666"
     borderopacity="1"
     objecttolerance="10"
     gridtolerance="10"
     guidetolerance="10"
     inkscape:pageopacity="0"
     inkscape:pageshadow="2"
     inkscape:window-width="1920"
     inkscape:window-height="1017"
     id="namedview3791"
     showgrid="true"
     inkscape:zoom="5.426782"
     inkscape:cx="9.7488636"
     inkscape:cy="39.960976"
     inkscape:window-x="-8"
     inkscape:window-y="-8"
     inkscape:window-maximized="1"
     inkscape:current-layer="layer4"
     fit-margin-top="0"
     fit-margin-left="0"
     fit-margin-right="0"
     fit-margin-bottom="0"
     units="pt">
    <inkscape:grid
       type="xygrid"
       id="grid3797"
       units="pt"
       spacingx="6"
       spacingy="6"
       originx="0"
       originy="0" />
  </sodipodi:namedview>
  <g
     inkscape:groupmode="layer"
     id="layer4"
     inkscape:label="square"
     transform="translate(0,-416)">
    <path
       style="opacity:1;fill:#007400;fill-opacity:1;stroke:none;stroke-width:5.6692915;stroke-linecap:square;stroke-linejoin:miter;stroke-miterlimit:50;stroke-dasharray:none;stroke-dashoffset:0;stroke-opacity:1;paint-order:markers fill stroke"
       d="m 6,416 c -3.324,0 -6,2.676 -6,6 v 84 c 0,3.324 2.676,6 6,6 h 84 c 3.324,0 6,-2.676 6,-6 v -84 c 0,-3.324 -2.676,-6 -6,-6 z m -0.6425781,4.61914 6.2988281,2.87695 c -0.177,0.18262 -0.34875,0.37405 -0.515625,0.57618 -0.6645,0.80437 -1.2279219,1.66586 -1.7011719,2.57617 z m 41.4707031,2.70508 h 0.002 l -0.791016,7.97461 c -1.354312,-1.30931 -2.788828,-2.54848 -4.30664,-3.66992 z m -26.84375,0.44336 c 0.375,0.006 0.762656,0.0237 1.160156,0.0547 2.17125,0.16987 4.567016,0.7461 6.939453,1.38867 l -4.414062,6.78515 -0.07617,0.11524 -0.05664,0.12695 c -0.58125,1.3275 -0.430397,2.71776 0.002,4.01563 0.43275,1.29825 1.201422,2.54367 2.341797,3.47461 1.140375,0.93037 2.766657,1.5063 4.464844,1.14648 1.698,-0.35999 3.298875,-1.53976 4.78125,-3.52539 l 0.322266,-0.43164 0.207031,-9.10156 c 4.712813,2.42625 8.913578,6.43708 12.408203,10.69726 l -3.212891,1.76758 -0.542968,0.29687 -0.220703,0.57813 c -0.91725,2.39663 -0.963657,4.89888 0.269531,6.96289 1.232812,2.06437 3.497266,3.51426 6.642578,4.55469 l 1.294922,0.42773 2.183594,-3.71679 c 0.320625,0.70537 0.639516,1.4189 0.955078,2.14453 l 3.230468,20.36718 0.515626,-11.55078 c 1.958249,4.53844 4.091953,9.07866 6.767578,13.13672 7.620562,11.5575 24.742187,29.14453 24.742187,29.14453 l 0.01367,0.0137 0.01367,0.0137 c 0.732188,0.72188 0.731953,1.0439 0.650391,1.4414 -0.05437,0.26587 -0.2525,0.63096 -0.59375,1.01758 l -18.21875,-14.75781 15.751953,16.36914 c -1.083375,0.43218 -2.232531,0.67155 -2.980469,0.6543 -1.29091,-1.21537 -12.509547,-11.7191 -20.083984,-16.6211 C 58.09525,486.13218 52.157969,480.61769 45.308594,475.375 l -2.291016,-13.25977 -0.06836,-0.40234 -0.246094,-0.32617 c -1.271813,-1.68693 -2.923016,-2.66987 -4.595703,-2.875 a 5.9821875,5.9821875 0 0 0 -1.234375,-0.0215 c -1.212,0.105 -2.343625,0.57201 -3.296875,1.23633 -2.230313,1.55381 -3.782703,4.27596 -3.376953,7.06446 -1.2675,-0.5625 -2.519703,-1.12618 -3.728516,-1.7168 -3.875625,-1.89375 -7.257094,-3.9979 -9.574219,-7.04102 1.316813,-0.102 2.546485,-0.69002 3.56836,-1.47265 1.397813,-1.07006 2.51475,-2.54173 3.234375,-4.16211 0.72,-1.62 1.072078,-3.42874 0.55664,-5.17774 -0.515625,-1.74862 -2.089187,-3.23895 -4.28125,-3.75195 l -0.121093,-0.0293 -8.560547,-0.71093 c -0.1725,-0.9765 -0.312094,-1.95438 -0.410157,-2.92188 -0.191625,-1.89375 -0.221089,-3.73641 -0.06641,-5.47266 l 5.423828,5.85938 -3.726562,-12.11524 c 0.352501,-0.66788 0.759765,-1.28986 1.228516,-1.85742 1.3245,-1.60313 3.035577,-2.29093 5.15039,-2.42968 a 13.546875,13.546875 0 0 1 1.091797,-0.0234 z m 12.363281,1.08203 -0.246094,10.86133 c -1.021312,1.24275 -1.883281,1.74178 -2.457031,1.86328 -0.634688,0.13444 -1.096108,-0.0247 -1.630859,-0.46094 -0.534749,-0.43632 -1.028376,-1.19003 -1.273438,-1.92578 -0.234938,-0.70444 -0.189562,-1.33203 -0.117187,-1.54297 z m 25.511719,12.12891 -7.054687,11.99609 c -1.88775,-0.79725 -3.02522,-1.70776 -3.550782,-2.58789 -0.565688,-0.94687 -0.638687,-2.01275 -0.179687,-3.47656 z m -53.2617188,8.58007 14.6874998,1.22071 c 1.224,0.30413 1.54275,0.74585 1.734375,1.39648 0.196875,0.66712 0.08564,1.75102 -0.404297,2.85352 -0.490125,1.1025 -1.327421,2.18237 -2.201172,2.85156 -0.769124,0.58875 -1.47564,0.81217 -2.048828,0.77148 -0.1125,-0.0812 -0.228047,-0.16562 -0.404296,-0.29687 a 180.09113,180.09113 0 0 1 -1.917969,-1.45508 c -1.57275,-1.20562 -3.642422,-2.81056 -5.7011721,-4.41406 -1.882125,-1.46625 -2.2647656,-1.77012 -3.7441407,-2.92774 z m 32.8222658,16.28516 a 2.6428125,2.6428125 0 0 1 0.0078,0 h 0.002 c 0.09,10e-4 0.17889,0.006 0.267578,0.0176 0.642,0.0788 1.328905,0.4081 2.074218,1.28711 l 3.09375,17.91211 -9.220703,-14.34571 c -0.377625,-1.33369 0.466063,-3.24983 1.859375,-4.2207 0.538688,-0.37538 1.104282,-0.59187 1.652344,-0.64062 a 2.6428125,2.6428125 0 0 1 0.263672,-0.01 z m -13.869141,5.53516 a 61.650938,61.650938 0 0 0 1.439453,0.72851 c 0.961312,0.46969 1.931094,0.91578 2.902344,1.35547 L 22.6875,472.6582 Z"
       id="rect3801"
       inkscape:connector-curvature="0" />
  </g>
  <g
     inkscape:groupmode="layer"
     id="layer3"
     inkscape:label="symbol"
     transform="translate(0,-416)" />
</svg>
