<?xml version="1.0" encoding="UTF-8" standalone="no"?>
<!-- Created with Inkscape (http://www.inkscape.org/) -->

<svg
   xmlns:dc="http://purl.org/dc/elements/1.1/"
   xmlns:cc="http://creativecommons.org/ns#"
   xmlns:rdf="http://www.w3.org/1999/02/22-rdf-syntax-ns#"
   xmlns:svg="http://www.w3.org/2000/svg"
   xmlns="http://www.w3.org/2000/svg"
   xmlns:sodipodi="http://sodipodi.sourceforge.net/DTD/sodipodi-0.dtd"
   xmlns:inkscape="http://www.inkscape.org/namespaces/inkscape"
   width="32in"
   height="26.500002in"
   viewBox="0 0 812.79998 673.10007"
   version="1.1"
   id="svg8"
   inkscape:version="0.92.3 (2405546, 2018-03-11)"
   sodipodi:docname="sleepers player aid.svg">
  <sodipodi:namedview
     id="base"
     pagecolor="#ffffff"
     bordercolor="#666666"
     borderopacity="1.0"
     inkscape:pageopacity="0.0"
     inkscape:pageshadow="2"
     inkscape:zoom="0.21151399"
     inkscape:cx="1753.9776"
     inkscape:cy="1426.5961"
     inkscape:document-units="pt"
     inkscape:current-layer="layer2"
     showgrid="false"
     units="in"
     inkscape:snap-object-midpoints="true"
     inkscape:snap-midpoints="false"
     showguides="true"
     inkscape:snap-smooth-nodes="false"
     inkscape:snap-grids="true"
     inkscape:snap-to-guides="false"
     inkscape:guide-bbox="true"
     inkscape:snap-bbox="false"
     inkscape:bbox-nodes="true"
     inkscape:snap-page="false"
     inkscape:snap-center="true"
     inkscape:snap-text-baseline="true"
     inkscape:snap-intersection-paths="false"
     inkscape:object-paths="false"
     inkscape:snap-others="true"
     inkscape:window-width="1280"
     inkscape:window-height="940"
     inkscape:window-x="1909"
     inkscape:window-y="43"
     inkscape:window-maximized="1"
     inkscape:bbox-paths="true"
     inkscape:snap-bbox-edge-midpoints="true"
     inkscape:snap-bbox-midpoints="true"
     inkscape:snap-global="true"
     inkscape:snap-nodes="true"
     guidetolerance="10000"
     objecttolerance="50"
     inkscape:snap-perpendicular="true"
     inkscape:snap-tangential="true"
     inkscape:snap-path-clip="true"
     inkscape:snap-path-mask="true"
     inkscape:object-nodes="true"
     fit-margin-top="0"
     fit-margin-left="0"
     fit-margin-right="0"
     fit-margin-bottom="0">
    <inkscape:grid
       spacingy="1.5875"
       spacingx="1.5875"
       units="pt"
       id="grid18"
       type="xygrid"
       originx="0"
       originy="0" />
    <sodipodi:guide
       position="787.39998,507.99999"
       orientation="1,0"
       id="guide308"
       inkscape:locked="false" />
    <sodipodi:guide
       position="1066.8,507.99999"
       orientation="1,0"
       id="guide318"
       inkscape:locked="false" />
  </sodipodi:namedview>
  <defs
     id="defs2" />
  <metadata
     id="metadata5">
    <rdf:RDF>
      <cc:Work
         rdf:about="">
        <dc:format>image/svg+xml</dc:format>
        <dc:type
           rdf:resource="http://purl.org/dc/dcmitype/StillImage" />
        <dc:title></dc:title>
      </cc:Work>
    </rdf:RDF>
  </metadata>
  <g
     inkscape:label="piece"
     id="layer2"
     inkscape:groupmode="layer"
     style="display:inline"
     transform="translate(-50.799999,342.90002)">
    <rect
       style="opacity:1;fill:#800000;fill-opacity:1;stroke:none;stroke-width:1.41111112;stroke-linecap:butt;stroke-linejoin:miter;stroke-miterlimit:47.14606857;stroke-dasharray:none;stroke-dashoffset:0;stroke-opacity:1;paint-order:markers fill stroke"
       id="rect1411"
       width="101.6"
       height="101.60001"
       x="50.799999"
       y="-342.90002" />
    <rect
       y="-228.60002"
       x="50.799999"
       height="101.60001"
       width="101.6"
       id="rect1413"
       style="opacity:1;fill:#800000;fill-opacity:1;stroke:none;stroke-width:1.41111112;stroke-linecap:butt;stroke-linejoin:miter;stroke-miterlimit:47.14606857;stroke-dasharray:none;stroke-dashoffset:0;stroke-opacity:1;paint-order:markers fill stroke" />
    <rect
       style="opacity:1;fill:#800000;fill-opacity:1;stroke:none;stroke-width:1.41111112;stroke-linecap:butt;stroke-linejoin:miter;stroke-miterlimit:47.14606857;stroke-dasharray:none;stroke-dashoffset:0;stroke-opacity:1;paint-order:markers fill stroke"
       id="rect1415"
       width="101.6"
       height="101.60001"
       x="50.799999"
       y="-114.30002" />
    <rect
       y="-1.6587757e-005"
       x="50.799999"
       height="101.60001"
       width="101.6"
       id="rect1417"
       style="opacity:1;fill:#800000;fill-opacity:1;stroke:none;stroke-width:1.41111112;stroke-linecap:butt;stroke-linejoin:miter;stroke-miterlimit:47.14606857;stroke-dasharray:none;stroke-dashoffset:0;stroke-opacity:1;paint-order:markers fill stroke" />
    <rect
       y="114.29998"
       x="50.799999"
       height="101.60001"
       width="101.6"
       id="rect1419"
       style="opacity:1;fill:#800000;fill-opacity:1;stroke:none;stroke-width:1.41111112;stroke-linecap:butt;stroke-linejoin:miter;stroke-miterlimit:47.14606857;stroke-dasharray:none;stroke-dashoffset:0;stroke-opacity:1;paint-order:markers fill stroke" />
    <rect
       style="opacity:1;fill:#800000;fill-opacity:1;stroke:none;stroke-width:1.41111112;stroke-linecap:butt;stroke-linejoin:miter;stroke-miterlimit:47.14606857;stroke-dasharray:none;stroke-dashoffset:0;stroke-opacity:1;paint-order:markers fill stroke"
       id="rect1421"
       width="101.6"
       height="101.60001"
       x="50.799999"
       y="228.59999" />
    <rect
       y="-342.90002"
       x="469.89999"
       height="101.60001"
       width="101.6"
       id="rect1423"
       style="opacity:1;fill:#800000;fill-opacity:1;stroke:none;stroke-width:1.41111112;stroke-linecap:butt;stroke-linejoin:miter;stroke-miterlimit:47.14606857;stroke-dasharray:none;stroke-dashoffset:0;stroke-opacity:1;paint-order:markers fill stroke" />
    <rect
       style="opacity:1;fill:#800000;fill-opacity:1;stroke:none;stroke-width:1.41111112;stroke-linecap:butt;stroke-linejoin:miter;stroke-miterlimit:47.14606857;stroke-dasharray:none;stroke-dashoffset:0;stroke-opacity:1;paint-order:markers fill stroke"
       id="rect1425"
       width="101.6"
       height="101.60001"
       x="469.89999"
       y="-228.60002" />
    <rect
       style="opacity:1;fill:#800000;fill-opacity:1;stroke:none;stroke-width:1.41111112;stroke-linecap:butt;stroke-linejoin:miter;stroke-miterlimit:47.14606857;stroke-dasharray:none;stroke-dashoffset:0;stroke-opacity:1;paint-order:markers fill stroke"
       id="rect1427"
       width="101.6"
       height="101.60001"
       x="469.89999"
       y="-114.30002" />
    <rect
       y="-1.6587757e-005"
       x="469.89999"
       height="101.60001"
       width="101.6"
       id="rect1429"
       style="opacity:1;fill:#800000;fill-opacity:1;stroke:none;stroke-width:1.41111112;stroke-linecap:butt;stroke-linejoin:miter;stroke-miterlimit:47.14606857;stroke-dasharray:none;stroke-dashoffset:0;stroke-opacity:1;paint-order:markers fill stroke" />
    <rect
       style="opacity:1;fill:#800000;fill-opacity:1;stroke:none;stroke-width:1.41111112;stroke-linecap:butt;stroke-linejoin:miter;stroke-miterlimit:47.14606857;stroke-dasharray:none;stroke-dashoffset:0;stroke-opacity:1;paint-order:markers fill stroke"
       id="rect1431"
       width="101.6"
       height="101.60001"
       x="469.89999"
       y="114.29998" />
  </g>
  <g
     inkscape:label="circle"
     id="layer4"
     inkscape:groupmode="layer"
     style="display:inline"
     transform="translate(-50.799999,342.90002)">
    <circle
       cy="-63.499962"
       cx="101.59999"
       id="path1028"
       style="opacity:1;fill:#ffffff;fill-opacity:1;stroke:none;stroke-width:0.70555556;stroke-linecap:butt;stroke-linejoin:miter;stroke-miterlimit:47.14606857;stroke-dasharray:none;stroke-dashoffset:0;stroke-opacity:1;paint-order:markers fill stroke"
       r="44.450001" />
    <circle
       style="opacity:1;fill:#ffffff;fill-opacity:1;stroke:none;stroke-width:0.70555556;stroke-linecap:butt;stroke-linejoin:miter;stroke-miterlimit:47.14606857;stroke-dasharray:none;stroke-dashoffset:0;stroke-opacity:1;paint-order:markers fill stroke"
       id="circle1034"
       cx="101.60005"
       cy="-177.86583"
       r="44.450001" />
    <circle
       r="44.450001"
       cy="165.09998"
       cx="101.60005"
       id="circle1036"
       style="opacity:1;fill:#ffffff;fill-opacity:1;stroke:none;stroke-width:0.7055555;stroke-linecap:butt;stroke-linejoin:miter;stroke-miterlimit:47.14606857;stroke-dasharray:none;stroke-dashoffset:0;stroke-opacity:1;paint-order:markers fill stroke" />
    <circle
       style="opacity:1;fill:#ffffff;fill-opacity:1;stroke:none;stroke-width:0.70555556;stroke-linecap:butt;stroke-linejoin:miter;stroke-miterlimit:47.14606857;stroke-dasharray:none;stroke-dashoffset:0;stroke-opacity:1;paint-order:markers fill stroke"
       id="circle1052"
       cx="520.70001"
       cy="-177.80002"
       r="44.450001" />
    <circle
       r="44.449993"
       cy="50.800003"
       cx="101.59999"
       id="circle1054"
       style="opacity:1;fill:#ffffff;fill-opacity:1;stroke:none;stroke-width:0.7055555;stroke-linecap:butt;stroke-linejoin:miter;stroke-miterlimit:47.14606857;stroke-dasharray:none;stroke-dashoffset:0;stroke-opacity:1;paint-order:markers fill stroke" />
    <circle
       style="opacity:1;fill:#ffffff;fill-opacity:1;stroke:none;stroke-width:0.7055555;stroke-linecap:butt;stroke-linejoin:miter;stroke-miterlimit:47.14606857;stroke-dasharray:none;stroke-dashoffset:0;stroke-opacity:1;paint-order:markers fill stroke"
       id="circle1056"
       cx="520.70062"
       cy="50.79982"
       r="44.450001" />
    <circle
       r="44.450001"
       cy="-63.500031"
       cx="520.70001"
       id="circle1216"
       style="opacity:1;fill:#ffffff;fill-opacity:1;stroke:none;stroke-width:0.7055555;stroke-linecap:butt;stroke-linejoin:miter;stroke-miterlimit:47.14606857;stroke-dasharray:none;stroke-dashoffset:0;stroke-opacity:1;paint-order:markers fill stroke" />
    <circle
       style="opacity:1;fill:#ffffff;fill-opacity:1;stroke:none;stroke-width:0.7055555;stroke-linecap:butt;stroke-linejoin:miter;stroke-miterlimit:47.14606857;stroke-dasharray:none;stroke-dashoffset:0;stroke-opacity:1;paint-order:markers fill stroke"
       id="circle1219"
       cx="520.70007"
       cy="165.10077"
       r="44.450001" />
    <circle
       r="44.450001"
       cy="279.39999"
       cx="101.59999"
       id="circle1221"
       style="opacity:1;fill:#ffffff;fill-opacity:1;stroke:none;stroke-width:0.7055555;stroke-linecap:butt;stroke-linejoin:miter;stroke-miterlimit:47.14606857;stroke-dasharray:none;stroke-dashoffset:0;stroke-opacity:1;paint-order:markers fill stroke" />
    <circle
       style="opacity:1;fill:#ffffff;fill-opacity:1;stroke:none;stroke-width:0.7055555;stroke-linecap:butt;stroke-linejoin:miter;stroke-miterlimit:47.14606857;stroke-dasharray:none;stroke-dashoffset:0;stroke-opacity:1;paint-order:markers fill stroke"
       id="circle1223"
       cx="520.70001"
       cy="-292.10001"
       r="44.450001" />
    <circle
       r="44.450001"
       cy="-292.10001"
       cx="100.80626"
       id="circle1225"
       style="opacity:1;fill:#ffffff;fill-opacity:1;stroke:none;stroke-width:0.7055555;stroke-linecap:butt;stroke-linejoin:miter;stroke-miterlimit:47.14606857;stroke-dasharray:none;stroke-dashoffset:0;stroke-opacity:1;paint-order:markers fill stroke" />
  </g>
  <g
     id="layer1"
     inkscape:groupmode="layer"
     inkscape:label="boards"
     style="display:inline"
     transform="translate(-50.799999,261.80002)">
    <path
       id="rect916"
       style="color:#000000;font-style:normal;font-variant:normal;font-weight:normal;font-stretch:normal;font-size:medium;line-height:normal;font-family:sans-serif;font-variant-ligatures:normal;font-variant-position:normal;font-variant-caps:normal;font-variant-numeric:normal;font-variant-alternates:normal;font-feature-settings:normal;text-indent:0;text-align:start;text-decoration:none;text-decoration-line:none;text-decoration-style:solid;text-decoration-color:#000000;letter-spacing:normal;word-spacing:normal;text-transform:none;writing-mode:lr-tb;direction:ltr;text-orientation:mixed;dominant-baseline:auto;baseline-shift:baseline;text-anchor:start;white-space:normal;shape-padding:0;clip-rule:nonzero;display:inline;overflow:visible;visibility:visible;opacity:1;isolation:auto;mix-blend-mode:normal;color-interpolation:sRGB;color-interpolation-filters:linearRGB;solid-color:#000000;solid-opacity:1;vector-effect:none;fill:#000000;fill-opacity:1;fill-rule:nonzero;stroke:none;stroke-width:1.41111112;stroke-linecap:butt;stroke-linejoin:miter;stroke-miterlimit:47.14606857;stroke-dasharray:none;stroke-dashoffset:0;stroke-opacity:1;paint-order:markers fill stroke;color-rendering:auto;image-rendering:auto;shape-rendering:auto;text-rendering:auto;enable-background:accumulate"
       d="m 500.9442,245.49493 v 0.70508 26.10547 h 26.81055 v -26.81055 z m 1.41211,1.41211 h 23.98828 v 23.98828 h -23.98828 z m 11.28906,-26.8125 v 0.70703 26.10547 h 26.81055 v -26.8125 z m 1.41016,1.41211 h 23.98828 v 23.98828 h -23.98828 z"
       inkscape:connector-curvature="0" />
    <path
       id="rect1011"
       style="color:#000000;font-style:normal;font-variant:normal;font-weight:normal;font-stretch:normal;font-size:medium;line-height:normal;font-family:sans-serif;font-variant-ligatures:normal;font-variant-position:normal;font-variant-caps:normal;font-variant-numeric:normal;font-variant-alternates:normal;font-feature-settings:normal;text-indent:0;text-align:start;text-decoration:none;text-decoration-line:none;text-decoration-style:solid;text-decoration-color:#000000;letter-spacing:normal;word-spacing:normal;text-transform:none;writing-mode:lr-tb;direction:ltr;text-orientation:mixed;dominant-baseline:auto;baseline-shift:baseline;text-anchor:start;white-space:normal;shape-padding:0;clip-rule:nonzero;display:inline;overflow:visible;visibility:visible;opacity:1;isolation:auto;mix-blend-mode:normal;color-interpolation:sRGB;color-interpolation-filters:linearRGB;solid-color:#000000;solid-opacity:1;vector-effect:none;fill:#000000;fill-opacity:1;fill-rule:nonzero;stroke:none;stroke-width:1.41111112;stroke-linecap:butt;stroke-linejoin:miter;stroke-miterlimit:47.14606857;stroke-dasharray:none;stroke-dashoffset:0;stroke-opacity:1;paint-order:markers fill stroke;color-rendering:auto;image-rendering:auto;shape-rendering:auto;text-rendering:auto;enable-background:accumulate"
       d="m 532.69513,118.49472 v 0.70508 26.10548 h 26.81055 v -26.81055 z m 1.41016,1.41017 h 23.99023 v 23.99022 h -23.99023 z m -52.21094,-1.41017 v 0.70508 26.10548 h 26.8125 v -26.81055 z m 1.41211,1.41017 h 23.98828 v 23.99022 h -23.98828 z"
       inkscape:connector-curvature="0" />
  </g>
  <g
     inkscape:groupmode="layer"
     id="layer5"
     inkscape:label="player"
     style="display:inline"
     transform="translate(-50.799999,342.90002)">
    <path
       id="circle39"
       style="opacity:1;fill:#800000;fill-opacity:1;stroke:none;stroke-width:0.35277778;stroke-linecap:butt;stroke-linejoin:miter;stroke-miterlimit:47.14606857;stroke-dasharray:none;stroke-dashoffset:0;stroke-opacity:1;paint-order:markers fill stroke"
       d="m 141.28752,-292.10001 a 7.1437497,7.1437497 0 0 1 -7.14375,7.14375 7.1437497,7.1437497 0 0 1 -7.14375,-7.14375 7.1437497,7.1437497 0 0 1 7.14375,-7.14375 7.1437497,7.1437497 0 0 1 7.14375,7.14375 z m -16.66876,0 a 7.1437497,7.1437497 0 0 1 -7.14375,7.14375 7.1437497,7.1437497 0 0 1 -7.14375,-7.14375 7.1437497,7.1437497 0 0 1 7.14375,-7.14375 7.1437497,7.1437497 0 0 1 7.14375,7.14375 z m -16.66875,0 a 7.1437497,7.1437497 0 0 1 -7.14375,7.14375 7.1437497,7.1437497 0 0 1 -7.143748,-7.14375 7.1437497,7.1437497 0 0 1 7.143748,-7.14375 7.1437497,7.1437497 0 0 1 7.14375,7.14375 z m -16.668748,0 a 7.1437497,7.1437497 0 0 1 -7.14375,7.14375 7.1437497,7.1437497 0 0 1 -7.14375,-7.14375 7.1437497,7.1437497 0 0 1 7.14375,-7.14375 7.1437497,7.1437497 0 0 1 7.14375,7.14375 z m -16.66876,0 a 7.1437497,7.1437497 0 0 1 -7.14375,7.14375 7.1437497,7.1437497 0 0 1 -7.14375,-7.14375 7.1437497,7.1437497 0 0 1 7.14375,-7.14375 7.1437497,7.1437497 0 0 1 7.14375,7.14375 z"
       inkscape:connector-curvature="0" />
    <path
       id="circle137"
       style="opacity:1;fill:#800000;fill-opacity:1;stroke:none;stroke-width:0.35277778;stroke-linecap:butt;stroke-linejoin:miter;stroke-miterlimit:47.14606857;stroke-dasharray:none;stroke-dashoffset:0;stroke-opacity:1;paint-order:markers fill stroke"
       d="m 136.52506,50.80002 a 9.5249996,9.5249996 0 0 1 -9.525,9.525 9.5249996,9.5249996 0 0 1 -9.525,-9.525 9.5249996,9.5249996 0 0 1 9.525,-9.52499 9.5249996,9.5249996 0 0 1 9.525,9.52499 z m -34.92501,-9.52498 a 9.5249996,9.5249996 0 0 0 -9.525004,9.525 9.5249996,9.5249996 0 0 0 9.525004,9.525 9.5249996,9.5249996 0 0 0 9.525,-9.525 9.5249996,9.5249996 0 0 0 -9.525,-9.525 z m 0,3.175 a 6.3499999,6.3499999 0 0 1 6.35,6.35 6.3499999,6.3499999 0 0 1 -6.35,6.35 6.3499999,6.3499999 0 0 1 -6.350004,-6.35 6.3499999,6.3499999 0 0 1 6.350004,-6.35 z m -15.875014,6.34998 a 9.5249996,9.5249996 0 0 1 -9.525,9.525 9.5249996,9.5249996 0 0 1 -9.525,-9.525 9.5249996,9.5249996 0 0 1 9.525,-9.52499 9.5249996,9.5249996 0 0 1 9.525,9.52499 z"
       inkscape:connector-curvature="0" />
    <circle
       style="opacity:1;fill:#800000;fill-opacity:1;stroke:none;stroke-width:0.35277778;stroke-linecap:butt;stroke-linejoin:miter;stroke-miterlimit:47.14606857;stroke-dasharray:none;stroke-dashoffset:0;stroke-opacity:1;paint-order:markers fill stroke"
       id="circle903"
       cx="114.3"
       cy="279.39999"
       r="9.5249996" />
    <circle
       r="9.5249996"
       cy="152.40076"
       cx="527.05005"
       id="circle914"
       style="opacity:1;fill:#800000;fill-opacity:1;stroke:none;stroke-width:0.35277778;stroke-linecap:butt;stroke-linejoin:miter;stroke-miterlimit:47.14606857;stroke-dasharray:none;stroke-dashoffset:0;stroke-opacity:1;paint-order:markers fill stroke" />
    <path
       id="circle930"
       style="opacity:1;fill:#800000;fill-opacity:1;stroke:none;stroke-width:0.35277778;stroke-linecap:butt;stroke-linejoin:miter;stroke-miterlimit:47.14606857;stroke-dasharray:none;stroke-dashoffset:0;stroke-opacity:1;paint-order:markers fill stroke"
       d="m 122.23753,-158.55258 a 9.5249996,9.5249996 0 0 1 -9.525,9.525 9.5249996,9.5249996 0 0 1 -9.525,-9.525 9.5249996,9.5249996 0 0 1 9.525,-9.525 9.5249996,9.5249996 0 0 1 9.525,9.525 z m -22.22501,-1e-5 a 9.5249996,9.5249996 0 0 1 -9.524998,9.525 9.5249996,9.5249996 0 0 1 -9.525,-9.525 9.5249996,9.5249996 0 0 1 9.525,-9.525 9.5249996,9.5249996 0 0 1 9.524998,9.525 z m 22.22501,-38.49483 a 9.5249996,9.5249996 0 0 1 -9.525,9.525 9.5249996,9.5249996 0 0 1 -9.525,-9.525 9.5249996,9.5249996 0 0 1 9.525,-9.525 9.5249996,9.5249996 0 0 1 9.525,9.525 z m 11.11249,19.18161 a 9.5249996,9.5249996 0 0 1 -9.525,9.525 9.5249996,9.5249996 0 0 1 -9.525,-9.525 9.5249996,9.5249996 0 0 1 9.525,-9.525 9.5249996,9.5249996 0 0 1 9.525,9.525 z m -31.75,-9.525 a 9.5249996,9.5249996 0 0 0 -9.524998,9.525 9.5249996,9.5249996 0 0 0 9.524998,9.525 9.5249996,9.5249996 0 0 0 9.525,-9.525 9.5249996,9.5249996 0 0 0 -9.525,-9.525 z m 0,3.175 a 6.3499999,6.3499999 0 0 1 6.35,6.35 6.3499999,6.3499999 0 0 1 -6.35,6.35 6.3499999,6.3499999 0 0 1 -6.349998,-6.35 6.3499999,6.3499999 0 0 1 6.349998,-6.35 z m -12.699998,6.35 a 9.5249996,9.5249996 0 0 1 -9.525,9.525 9.5249996,9.5249996 0 0 1 -9.525,-9.525 9.5249996,9.5249996 0 0 1 9.525,-9.525 9.5249996,9.5249996 0 0 1 9.525,9.525 z m 11.112498,-19.18161 a 9.5249996,9.5249996 0 0 1 -9.524998,9.525 9.5249996,9.5249996 0 0 1 -9.525,-9.525 9.5249996,9.5249996 0 0 1 9.525,-9.525 9.5249996,9.5249996 0 0 1 9.524998,9.525 z"
       inkscape:connector-curvature="0" />
    <path
       id="path971"
       style="opacity:1;fill:#800000;fill-opacity:1;stroke:none;stroke-width:0.35277778;stroke-linecap:butt;stroke-linejoin:miter;stroke-miterlimit:47.14606857;stroke-dasharray:none;stroke-dashoffset:0;stroke-opacity:1;paint-order:markers fill stroke"
       d="m 90.487556,-53.777551 a 9.5249996,9.5249996 0 0 0 -9.525,9.524974 9.5249996,9.5249996 0 0 0 9.525,9.525 9.5249996,9.5249996 0 0 0 9.525004,-9.525 9.5249996,9.5249996 0 0 0 -9.525004,-9.524974 z m 0,3.175 a 6.3499999,6.3499999 0 0 1 6.35,6.349974 6.3499999,6.3499999 0 0 1 -6.35,6.35 6.3499999,6.3499999 0 0 1 -6.35,-6.35 6.3499999,6.3499999 0 0 1 6.35,-6.349974 z m 22.225004,-3.175 a 9.5249996,9.5249996 0 0 0 -9.525,9.524974 9.5249996,9.5249996 0 0 0 9.525,9.52501 9.5249996,9.5249996 0 0 0 9.525,-9.52501 9.5249996,9.5249996 0 0 0 -9.525,-9.524974 z m 0,3.175 a 6.3499999,6.3499999 0 0 1 6.35,6.349974 6.3499999,6.3499999 0 0 1 -6.35,6.35001 6.3499999,6.3499999 0 0 1 -6.35,-6.35001 6.3499999,6.3499999 0 0 1 6.35,-6.349974 z m 0,-41.66983 a 9.5249996,9.5249996 0 0 0 -9.525,9.525 9.5249996,9.5249996 0 0 0 9.525,9.525 9.5249996,9.5249996 0 0 0 9.525,-9.525 9.5249996,9.5249996 0 0 0 -9.525,-9.525 z m 0,3.175 a 6.3499999,6.3499999 0 0 1 6.35,6.35 6.3499999,6.3499999 0 0 1 -6.35,6.35 6.3499999,6.3499999 0 0 1 -6.35,-6.35 6.3499999,6.3499999 0 0 1 6.35,-6.35 z m -22.225014,-3.175 a 9.5249996,9.5249996 0 0 0 -9.525,9.525 9.5249996,9.5249996 0 0 0 9.525,9.525 9.5249996,9.5249996 0 0 0 9.525004,-9.525 9.5249996,9.5249996 0 0 0 -9.525004,-9.525 z m 0,3.175 a 6.3499999,6.3499999 0 0 1 6.35,6.35 6.3499999,6.3499999 0 0 1 -6.35,6.35 6.3499999,6.3499999 0 0 1 -6.35,-6.35 6.3499999,6.3499999 0 0 1 6.35,-6.35 z m -11.1125,16.0724 a 9.5249996,9.5249996 0 0 0 -9.525,9.525 9.5249996,9.5249996 0 0 0 9.525,9.525 9.5249996,9.5249996 0 0 0 9.525,-9.525 9.5249996,9.5249996 0 0 0 -9.525,-9.525 z m 0,3.175 a 6.3499999,6.3499999 0 0 1 6.35,6.35 6.3499999,6.3499999 0 0 1 -6.35,6.35 6.3499999,6.3499999 0 0 1 -6.35,-6.35 6.3499999,6.3499999 0 0 1 6.35,-6.35 z m 44.450014,-3.17498 a 9.5249996,9.5249996 0 0 0 -9.525,9.525 9.5249996,9.5249996 0 0 0 9.525,9.525 9.5249996,9.5249996 0 0 0 9.525,-9.525 9.5249996,9.5249996 0 0 0 -9.525,-9.525 z m 0,3.175 a 6.3499999,6.3499999 0 0 1 6.35,6.35 6.3499999,6.3499999 0 0 1 -6.35,6.35 6.3499999,6.3499999 0 0 1 -6.35,-6.35 6.3499999,6.3499999 0 0 1 6.35,-6.35 z m -22.225,-3.17502 a 9.5249996,9.5249996 0 0 0 -9.525004,9.525 9.5249996,9.5249996 0 0 0 9.525004,9.525 9.5249996,9.5249996 0 0 0 9.525,-9.525 9.5249996,9.5249996 0 0 0 -9.525,-9.525 z m 0,3.175 a 6.3499999,6.3499999 0 0 1 6.35,6.35 6.3499999,6.3499999 0 0 1 -6.35,6.35 6.3499999,6.3499999 0 0 1 -6.350004,-6.35 6.3499999,6.3499999 0 0 1 6.350004,-6.35 z"
       inkscape:connector-curvature="0" />
    <circle
       r="9.5249996"
       cy="165.09998"
       cx="84.137527"
       id="circle975"
       style="opacity:1;fill:#800000;fill-opacity:1;stroke:none;stroke-width:0.35277778;stroke-linecap:butt;stroke-linejoin:miter;stroke-miterlimit:47.14606857;stroke-dasharray:none;stroke-dashoffset:0;stroke-opacity:1;paint-order:markers fill stroke" />
    <path
       id="path977"
       d="m 84.137537,149.22496 a 15.875,15.875 0 0 0 -15.875,15.875 15.875,15.875 0 0 0 15.875,15.875 15.875,15.875 0 0 0 15.875003,-15.875 15.875,15.875 0 0 0 -15.875003,-15.875 z m 0,3.175 a 12.7,12.7 0 0 1 12.7,12.7 12.7,12.7 0 0 1 -12.7,12.7 12.7,12.7 0 0 1 -12.7,-12.7 12.7,12.7 0 0 1 12.7,-12.7 z"
       style="opacity:1;fill:#84884c;fill-opacity:1;stroke:none;stroke-width:3.17499995;stroke-linecap:butt;stroke-linejoin:miter;stroke-miterlimit:47.14606857;stroke-dasharray:none;stroke-dashoffset:0;stroke-opacity:1;paint-order:markers fill stroke"
       inkscape:connector-curvature="0" />
    <circle
       style="opacity:1;fill:#800000;fill-opacity:1;stroke:none;stroke-width:0.35277778;stroke-linecap:butt;stroke-linejoin:miter;stroke-miterlimit:47.14606857;stroke-dasharray:none;stroke-dashoffset:0;stroke-opacity:1;paint-order:markers fill stroke"
       id="circle983"
       cx="119.06252"
       cy="165.09998"
       r="9.5249996" />
    <path
       inkscape:connector-curvature="0"
       style="opacity:1;fill:#84884c;fill-opacity:1;stroke:none;stroke-width:3.17499995;stroke-linecap:butt;stroke-linejoin:miter;stroke-miterlimit:47.14606857;stroke-dasharray:none;stroke-dashoffset:0;stroke-opacity:1;paint-order:markers fill stroke"
       d="m 119.06254,149.22496 a 15.875,15.875 0 0 0 -15.875,15.875 15.875,15.875 0 0 0 15.875,15.875 15.875,15.875 0 0 0 15.875,-15.875 15.875,15.875 0 0 0 -15.875,-15.875 z m 0,3.175 a 12.7,12.7 0 0 1 12.7,12.7 12.7,12.7 0 0 1 -12.7,12.7 12.7,12.7 0 0 1 -12.7,-12.7 12.7,12.7 0 0 1 12.7,-12.7 z"
       id="path985" />
    <circle
       style="opacity:1;fill:#800000;fill-opacity:1;stroke:none;stroke-width:0.35277778;stroke-linecap:butt;stroke-linejoin:miter;stroke-miterlimit:47.14606857;stroke-dasharray:none;stroke-dashoffset:0;stroke-opacity:1;paint-order:markers fill stroke"
       id="circle1013"
       cx="495.3006"
       cy="50.799759"
       r="9.5249996" />
    <path
       id="path997"
       style="opacity:1;fill:#800000;fill-opacity:1;stroke:none;stroke-width:0.35277778;stroke-linecap:butt;stroke-linejoin:miter;stroke-miterlimit:47.14606857;stroke-dasharray:none;stroke-dashoffset:0;stroke-opacity:1;paint-order:markers fill stroke"
       d="m 533.40005,-187.32496 a 9.5249996,9.5249996 0 0 0 -9.525,9.525 9.5249996,9.5249996 0 0 0 9.525,9.525 9.5249996,9.5249996 0 0 0 9.525,-9.525 9.5249996,9.5249996 0 0 0 -9.525,-9.525 z m 0,3.175 a 6.3499999,6.3499999 0 0 1 6.35,6.35 6.3499999,6.3499999 0 0 1 -6.35,6.35 6.3499999,6.3499999 0 0 1 -6.35,-6.35 6.3499999,6.3499999 0 0 1 6.35,-6.35 z m -25.4,-3.17501 a 9.5249996,9.5249996 0 0 0 -9.525,9.525 9.5249996,9.5249996 0 0 0 9.525,9.525 9.5249996,9.5249996 0 0 0 9.525,-9.525 9.5249996,9.5249996 0 0 0 -9.525,-9.525 z m 0,3.175 a 6.3499999,6.3499999 0 0 1 6.35,6.35 6.3499999,6.3499999 0 0 1 -6.35,6.35 6.3499999,6.3499999 0 0 1 -6.35,-6.35 6.3499999,6.3499999 0 0 1 6.35,-6.35 z"
       inkscape:connector-curvature="0" />
    <circle
       style="opacity:1;fill:#800000;fill-opacity:1;stroke:none;stroke-width:0.35277778;stroke-linecap:butt;stroke-linejoin:miter;stroke-miterlimit:47.14606857;stroke-dasharray:none;stroke-dashoffset:0;stroke-opacity:1;paint-order:markers fill stroke"
       id="circle1483"
       cx="520.70001"
       cy="-292.09998"
       r="9.5249996" />
  </g>
  <g
     inkscape:label="cross"
     id="layer3"
     inkscape:groupmode="layer"
     style="display:inline"
     transform="translate(-50.799999,342.90002)">
    <path
       sodipodi:nodetypes="ccccccccccccc"
       inkscape:connector-curvature="0"
       id="path905"
       d="m 87.312522,269.87502 v 7.9375 h -7.93751 v 3.175 h 7.93751 l -1e-5,7.9375 h 3.17501 v -7.9375 h 7.93749 v -3.175 h -7.93749 v -7.9375 z"
       style="opacity:1;fill:#84884c;fill-opacity:1;stroke:none;stroke-width:3.17499995;stroke-linecap:butt;stroke-linejoin:miter;stroke-miterlimit:47.14606857;stroke-dasharray:none;stroke-dashoffset:0;stroke-opacity:1;paint-order:markers fill stroke" />
    <path
       style="opacity:1;fill:#84884c;fill-opacity:1;stroke:none;stroke-width:0.35277778;stroke-linecap:butt;stroke-linejoin:miter;stroke-miterlimit:47.14606857;stroke-dasharray:none;stroke-dashoffset:0;stroke-opacity:1;paint-order:markers fill stroke"
       d="m 108.33524,41.81979 -6.73519,6.73519 -6.735194,-6.73519 -2.24507,2.24506 6.7352,6.7352 -6.7352,6.73519 2.24507,2.24507 6.735194,-6.7352 6.73519,6.7352 2.24507,-2.24507 -6.7352,-6.73519 6.7352,-6.7352 z"
       id="path139"
       inkscape:connector-curvature="0" />
    <path
       inkscape:connector-curvature="0"
       id="path950"
       d="m 101.72356,34.54884 c -0.93582,-0.004 -1.876014,0.0354 -2.817924,0.11783 -10.04705,0.87901 -19.03695,6.6054 -24.07967,15.33963 l 2.74867,1.58698 c 4.52643,-7.83999 12.58907,-12.97604 21.60747,-13.76505 8.140154,-0.71217 16.127664,2.19991 21.885494,7.87342 l -2.23552,1.71514 8.16797,3.38326 -1.15393,-8.76536 -2.23914,1.71824 c -5.77962,-5.85881 -13.66236,-9.1721 -21.88342,-9.20409 z"
       style="opacity:1;fill:#84884c;fill-opacity:1;stroke:none;stroke-width:3.17499804;stroke-linecap:butt;stroke-linejoin:miter;stroke-miterlimit:47.14606857;stroke-dasharray:none;stroke-dashoffset:0;stroke-opacity:1;paint-order:markers fill stroke" />
    <path
       d="m 504.82508,179.3883 v 3.175 h 19.05 v -3.175 z m 0,-6.35 v 3.175 h 19.05 v -3.175 z"
       style="opacity:1;fill:#84884c;fill-opacity:1;stroke:none;stroke-width:3.17499995;stroke-linecap:butt;stroke-linejoin:miter;stroke-miterlimit:47.14606857;stroke-dasharray:none;stroke-dashoffset:0;stroke-opacity:1;paint-order:markers fill stroke"
       id="path907"
       inkscape:connector-curvature="0" />
    <path
       style="opacity:1;fill:#84884c;fill-opacity:1;stroke:none;stroke-width:3.17499995;stroke-linecap:butt;stroke-linejoin:miter;stroke-miterlimit:47.14606857;stroke-dasharray:none;stroke-dashoffset:0;stroke-opacity:1;paint-order:markers fill stroke"
       d="m 511.17504,-73.025021 -16.4977,9.525 16.4977,9.525 v -6.35 h 19.05 v 6.35 l 16.4977,-9.525 -16.4977,-9.525 v 6.35 h -19.05 z"
       id="path920"
       inkscape:connector-curvature="0" />
    <path
       id="path973"
       style="opacity:1;fill:#84884c;fill-opacity:1;stroke:none;stroke-width:0.35277778;stroke-linecap:butt;stroke-linejoin:miter;stroke-miterlimit:47.14606857;stroke-dasharray:none;stroke-dashoffset:0;stroke-opacity:1;paint-order:markers fill stroke"
       d="m 97.222746,-53.232791 -6.73519,6.735174 -6.73519,-6.735174 -2.24507,2.24506 6.7352,6.735174 -6.7352,6.73519 2.24507,2.24507 6.73519,-6.73519 6.73519,6.73519 2.24507,-2.24507 -6.7352,-6.73519 6.7352,-6.735174 z m 22.225004,0 -6.73519,6.735174 -6.73519,-6.735174 -2.24507,2.24506 6.7352,6.735174 -6.7352,6.73519 2.24507,2.24507 6.73519,-6.73519 6.73519,6.73519 2.24507,-2.24507 -6.7352,-6.73519 6.7352,-6.735174 z m 0,-38.49483 -6.73519,6.7352 -6.73519,-6.7352 -2.24507,2.24507 6.7352,6.73519 -6.7352,6.73519 2.24507,2.24507 6.73519,-6.7352 6.73519,6.7352 2.24507,-2.24507 -6.7352,-6.73519 6.7352,-6.73519 z m -22.225014,0 -6.73519,6.7352 -6.73519,-6.7352 -2.24507,2.24507 6.7352,6.73519 -6.7352,6.73519 2.24507,2.24507 6.73519,-6.7352 6.73519,6.7352 2.24507,-2.24507 -6.7352,-6.73519 6.7352,-6.73519 z m -11.1125,19.2474 -6.73519,6.7352 -6.73519,-6.7352 -2.24507,2.24507 6.7352,6.73519 -6.7352,6.73519 2.24507,2.24507 6.73519,-6.7352 6.73519,6.7352 2.24507,-2.24507 -6.7352,-6.73519 6.7352,-6.73519 z m 44.450014,2e-5 -6.73519,6.73519 -6.73519,-6.73519 -2.24507,2.24507 6.7352,6.73519 -6.7352,6.73519 2.24507,2.24506 6.73519,-6.73519 6.73519,6.73519 2.24507,-2.24506 -6.7352,-6.73519 6.7352,-6.73519 z m -22.225,-2e-5 -6.73519,6.7352 -6.735194,-6.7352 -2.24507,2.24507 6.7352,6.73519 -6.7352,6.73519 2.24507,2.24507 6.735194,-6.7352 6.73519,6.7352 2.24507,-2.24507 -6.7352,-6.73519 6.7352,-6.73519 z"
       inkscape:connector-curvature="0" />
    <path
       id="rect1005"
       style="opacity:1;fill:#84884c;fill-opacity:1;stroke:none;stroke-width:3.17499995;stroke-linecap:butt;stroke-linejoin:miter;stroke-miterlimit:47.14606857;stroke-dasharray:none;stroke-dashoffset:0;stroke-opacity:1;paint-order:markers fill stroke"
       d="m 501.26485,-168.81971 -2.24506,-2.24506 15.71545,-15.71545 2.24506,2.24507 z m 25.40001,10e-6 -2.24507,-2.24506 15.71545,-15.71545 2.24507,2.24506 z"
       inkscape:connector-curvature="0" />
    <path
       inkscape:connector-curvature="0"
       style="opacity:1;fill:#84884c;fill-opacity:1;stroke:none;stroke-width:3.17499804;stroke-linecap:butt;stroke-linejoin:miter;stroke-miterlimit:47.14606857;stroke-dasharray:none;stroke-dashoffset:0;stroke-opacity:1;paint-order:markers fill stroke"
       d="m 520.82412,34.54862 c -0.93582,-0.004 -1.87601,0.0354 -2.81792,0.11782 -10.04705,0.87901 -19.03695,6.6054 -24.07967,15.33963 l 2.74867,1.58699 c 4.52643,-7.83999 12.58906,-12.97604 21.60747,-13.76505 8.14015,-0.71218 16.12766,2.1999 21.88548,7.87342 l -2.23552,1.71514 8.16798,3.38325 -1.15394,-8.76535 -2.23914,1.71824 c -5.77961,-5.85881 -13.66235,-9.1721 -21.88341,-9.20409 z"
       id="path1021" />
  </g>
  <g
     inkscape:groupmode="layer"
     id="layer6"
     inkscape:label="text"
     transform="translate(-50.799999,342.90002)">
    <flowRoot
       xml:space="preserve"
       id="flowRoot202"
       style="font-style:normal;font-variant:normal;font-weight:normal;font-stretch:normal;font-size:80px;line-height:125%;font-family:'Officina Sans ITC';-inkscape-font-specification:'Officina Sans ITC';font-variant-ligatures:normal;font-variant-caps:normal;font-variant-numeric:normal;text-align:center;letter-spacing:0px;word-spacing:0px;writing-mode:lr-tb;text-anchor:middle;fill:#000000;fill-opacity:1;stroke:none"
       transform="scale(0.26458333)"><flowRegion
         id="flowRegion204"><rect
           id="rect206"
           width="672"
           height="2208"
           x="3072"
           y="-720" /></flowRegion><flowPara
         id="flowPara208" /></flowRoot>    <flowRoot
       xml:space="preserve"
       id="flowRoot214"
       style="font-style:normal;font-variant:normal;font-weight:normal;font-stretch:normal;font-size:85.33333588px;line-height:125%;font-family:'Officina Sans ITC';-inkscape-font-specification:'Officina Sans ITC';font-variant-ligatures:normal;font-variant-caps:normal;font-variant-numeric:normal;text-align:start;letter-spacing:0px;word-spacing:0px;writing-mode:lr-tb;text-anchor:start;fill:#000000;fill-opacity:1;stroke:none"
       transform="scale(0.26458333)"><flowRegion
         id="flowRegion216"><rect
           id="rect218"
           width="1968"
           height="912"
           x="960"
           y="-768" /></flowRegion><flowPara
         id="flowPara220" /></flowRoot>    <flowRoot
       xml:space="preserve"
       id="flowRoot230"
       style="font-style:normal;font-variant:normal;font-weight:normal;font-stretch:normal;font-size:80px;line-height:100%;font-family:'Officina Sans ITC';-inkscape-font-specification:'Officina Sans ITC';font-variant-ligatures:normal;font-variant-caps:normal;font-variant-numeric:normal;text-align:start;letter-spacing:0px;word-spacing:0px;writing-mode:lr-tb;text-anchor:start;fill:#000000;fill-opacity:1;stroke:none"
       transform="scale(0.26458333)"><flowRegion
         id="flowRegion232"><rect
           id="rect234"
           width="1152"
           height="384"
           x="1584"
           y="336" /></flowRegion><flowPara
         id="flowPara236" /></flowRoot>    <flowRoot
       xml:space="preserve"
       id="flowRoot238"
       style="font-style:normal;font-variant:normal;font-weight:normal;font-stretch:normal;font-size:80px;line-height:100%;font-family:'Officina Sans ITC';-inkscape-font-specification:'Officina Sans ITC';font-variant-ligatures:normal;font-variant-caps:normal;font-variant-numeric:normal;text-align:start;letter-spacing:0px;word-spacing:0px;writing-mode:lr-tb;text-anchor:start;fill:#000000;fill-opacity:1;stroke:none"
       transform="matrix(0.26458333,0,0,0.26458333,165.10004,-203.20002)"><flowRegion
         id="flowRegion240"><rect
           id="rect242"
           width="1104"
           height="384"
           x="1584"
           y="336" /></flowRegion><flowPara
         id="flowPara244"><flowSpan
   style="font-weight:bold"
   id="flowSpan246">Double agent (2)</flowSpan>: When activated, swap this agent with any other tile in play.</flowPara></flowRoot>    <flowRoot
       xml:space="preserve"
       id="flowRoot248"
       style="font-style:normal;font-variant:normal;font-weight:normal;font-stretch:normal;font-size:80px;line-height:100%;font-family:'Officina Sans ITC';-inkscape-font-specification:'Officina Sans ITC';font-variant-ligatures:normal;font-variant-caps:normal;font-variant-numeric:normal;text-align:start;letter-spacing:0px;word-spacing:0px;writing-mode:lr-tb;text-anchor:start;fill:#000000;fill-opacity:1;stroke:none"
       transform="scale(0.26458333)"><flowRegion
         id="flowRegion250"><rect
           id="rect252"
           width="1104"
           height="384"
           x="1584"
           y="816" /></flowRegion><flowPara
         id="flowPara254" /></flowRoot>    <flowRoot
       xml:space="preserve"
       id="flowRoot256"
       style="font-style:normal;font-variant:normal;font-weight:normal;font-stretch:normal;font-size:80px;line-height:100%;font-family:'Officina Sans ITC';-inkscape-font-specification:'Officina Sans ITC';font-variant-ligatures:normal;font-variant-caps:normal;font-variant-numeric:normal;text-align:start;letter-spacing:0px;word-spacing:0px;writing-mode:lr-tb;text-anchor:start;fill:#000000;fill-opacity:1;stroke:none"
       transform="matrix(0.26458333,0,0,0.26458333,-253.99999,-444.50001)"><flowRegion
         id="flowRegion258"><rect
           id="rect260"
           width="1104"
           height="432"
           x="1584"
           y="816" /></flowRegion><flowPara
         id="flowPara262"><flowSpan
   style="font-weight:bold"
   id="flowSpan264">Militia (5)</flowSpan>: If at any time you surround an opponent's agent with militia and/or the edge of the board, that player is eliminated (capture goal).</flowPara></flowRoot>    <flowRoot
       xml:space="preserve"
       id="flowRoot266"
       style="font-style:normal;font-variant:normal;font-weight:normal;font-stretch:normal;font-size:80px;line-height:100%;font-family:'Officina Sans ITC';-inkscape-font-specification:'Officina Sans ITC';font-variant-ligatures:normal;font-variant-caps:normal;font-variant-numeric:normal;text-align:start;letter-spacing:0px;word-spacing:0px;writing-mode:lr-tb;text-anchor:start;fill:#000000;fill-opacity:1;stroke:none"
       transform="matrix(0.26458333,0,0,0.26458333,-253.99999,-177.80001)"><flowRegion
         id="flowRegion268"><rect
           id="rect270"
           width="1104"
           height="384"
           x="1584"
           y="-624" /></flowRegion><flowPara
         id="flowPara272"><flowSpan
   style="font-weight:bold"
   id="flowSpan282">Scientist (8)</flowSpan>: If at any time you have a straight, unbroken row of five active Scientists (liberation goal), you win.</flowPara></flowRoot>    <flowRoot
       xml:space="preserve"
       id="flowRoot274"
       style="font-style:normal;font-variant:normal;font-weight:normal;font-stretch:normal;font-size:80px;line-height:100%;font-family:'Officina Sans ITC';-inkscape-font-specification:'Officina Sans ITC';font-variant-ligatures:normal;font-variant-caps:normal;font-variant-numeric:normal;text-align:start;letter-spacing:0px;word-spacing:0px;writing-mode:lr-tb;text-anchor:start;fill:#000000;fill-opacity:1;stroke:none"
       transform="matrix(0.26458333,0,0,0.26458333,-253.99996,152.39996)"><flowRegion
         id="flowRegion276"><rect
           id="rect278"
           width="1104"
           height="384"
           x="1584"
           y="-144" /></flowRegion><flowPara
         id="flowPara280"><flowSpan
   style="font-weight:bold"
   id="flowSpan284">Ringleader (2):</flowSpan> When activated, activate up to two more friendly sleeper agents.</flowPara></flowRoot>    <flowRoot
       xml:space="preserve"
       id="flowRoot286"
       style="font-style:normal;font-variant:normal;font-weight:normal;font-stretch:normal;font-size:80px;line-height:100%;font-family:'Officina Sans ITC';-inkscape-font-specification:'Officina Sans ITC';font-variant-ligatures:normal;font-variant-caps:normal;font-variant-numeric:normal;text-align:start;letter-spacing:0px;word-spacing:0px;writing-mode:lr-tb;text-anchor:start;fill:#000000;fill-opacity:1;stroke:none"
       transform="matrix(0.26458333,0,0,0.26458333,-253.99999,-114.30001)"><flowRegion
         id="flowRegion288"><rect
           id="rect290"
           width="1104"
           height="384"
           x="1584"
           y="1296" /></flowRegion><flowPara
         id="flowPara292"><flowSpan
   style="font-weight:bold"
   id="flowSpan294">Recruiter (2)</flowSpan>: When activated, place another sleeper agent on the board.</flowPara></flowRoot>    <flowRoot
       xml:space="preserve"
       id="flowRoot296"
       style="font-style:normal;font-variant:normal;font-weight:normal;font-stretch:normal;font-size:80px;line-height:100%;font-family:'Officina Sans ITC';-inkscape-font-specification:'Officina Sans ITC';font-variant-ligatures:normal;font-variant-caps:normal;font-variant-numeric:normal;text-align:start;letter-spacing:0px;word-spacing:0px;writing-mode:lr-tb;text-anchor:start;fill:#000000;fill-opacity:1;stroke:none"
       transform="matrix(0.26458333,0,0,0.26458333,165.10001,-469.90001)"><flowRegion
         id="flowRegion298"><rect
           id="rect300"
           width="1104"
           height="384"
           x="1584"
           y="1776" /></flowRegion><flowPara
         id="flowPara302"><flowSpan
   style="font-weight:bold"
   id="flowSpan304">Diversion (2)</flowSpan>: When activated, move any agent to an empty space.</flowPara></flowRoot>    <flowRoot
       xml:space="preserve"
       id="flowRoot310"
       style="font-style:normal;font-variant:normal;font-weight:normal;font-stretch:normal;font-size:80px;line-height:100%;font-family:'Officina Sans ITC';-inkscape-font-specification:'Officina Sans ITC';font-variant-ligatures:normal;font-variant-caps:normal;font-variant-numeric:normal;text-align:start;letter-spacing:0px;word-spacing:0px;writing-mode:lr-tb;text-anchor:start;fill:#000000;fill-opacity:1;stroke:none"
       transform="matrix(0.26458333,0,0,0.26458333,-673.10002,50.799989)"><flowRegion
         id="flowRegion312"><rect
           id="rect314"
           width="1056"
           height="384"
           x="3168"
           y="-624" /></flowRegion><flowPara
         id="flowPara316"><flowSpan
   style="font-weight:bold"
   id="flowSpan338">Saboteur (1)</flowSpan>: When activated, kill this agent and all adjacent tiles. Saboteurs count as killed agents.</flowPara></flowRoot>    <flowRoot
       xml:space="preserve"
       id="flowRoot320"
       style="font-style:normal;font-variant:normal;font-weight:normal;font-stretch:normal;font-size:80px;line-height:100%;font-family:'Officina Sans ITC';-inkscape-font-specification:'Officina Sans ITC';font-variant-ligatures:normal;font-variant-caps:normal;font-variant-numeric:normal;text-align:start;letter-spacing:0px;word-spacing:0px;writing-mode:lr-tb;text-anchor:start;fill:#000000;fill-opacity:1;stroke:none"
       transform="matrix(0.26458333,0,0,0.26458333,-254.00001,-304.80003)"><flowRegion
         id="flowRegion322"><rect
           id="rect324"
           width="1056"
           height="384"
           x="3168"
           y="-144" /></flowRegion><flowPara
         id="flowPara326"><flowSpan
   style="font-weight:bold"
   id="flowSpan328">Informant (2)</flowSpan>: When activated, flip any agent belonging to any player. Don't activate this agent, even if it is flipped face-up.</flowPara></flowRoot>    <flowRoot
       xml:space="preserve"
       id="flowRoot330"
       style="font-style:normal;font-variant:normal;font-weight:normal;font-stretch:normal;font-size:80px;line-height:100%;font-family:'Officina Sans ITC';-inkscape-font-specification:'Officina Sans ITC';font-variant-ligatures:normal;font-variant-caps:normal;font-variant-numeric:normal;text-align:start;letter-spacing:0px;word-spacing:0px;writing-mode:lr-tb;text-anchor:start;fill:#000000;fill-opacity:1;stroke:none"
       transform="matrix(0.26458333,0,0,0.26458333,-254.00002,25.399959)"><flowRegion
         id="flowRegion332"><rect
           id="rect334"
           width="1008.0001"
           height="576"
           x="3168"
           y="336" /></flowRegion><flowPara
         id="flowPara336"><flowSpan
   style="font-weight:bold"
   id="flowSpan340">Master of disguise (2)</flowSpan>: When activated, may use the activation ability of one adjacent active agent (any owner). When face up, counts for both the liberation and capture goals.</flowPara></flowRoot>    <flowRoot
       xml:space="preserve"
       id="flowRoot342"
       style="font-style:normal;font-variant:normal;font-weight:normal;font-stretch:normal;font-size:80px;line-height:100%;font-family:'Officina Sans ITC';-inkscape-font-specification:'Officina Sans ITC';font-variant-ligatures:normal;font-variant-caps:normal;font-variant-numeric:normal;text-align:start;letter-spacing:0px;word-spacing:0px;writing-mode:lr-tb;text-anchor:start;fill:#000000;fill-opacity:1;stroke:none"
       transform="matrix(0.26458333,0,0,0.26458333,0,-378.1)"><flowRegion
         id="flowRegion344"><rect
           id="rect346"
           width="1056"
           height="384"
           x="624"
           y="1429.0393" /></flowRegion><flowPara
         id="flowPara348"><flowSpan
   style="font-weight:bold"
   id="flowSpan350">Police (2)</flowSpan>: When activated, activate up to two more friendly sleeper agents.</flowPara></flowRoot>    <flowRoot
       xml:space="preserve"
       id="flowRoot352"
       style="font-style:normal;font-variant:normal;font-weight:normal;font-stretch:normal;font-size:80px;line-height:100%;font-family:'Officina Sans ITC';-inkscape-font-specification:'Officina Sans ITC';font-variant-ligatures:normal;font-variant-caps:normal;font-variant-numeric:normal;text-align:start;letter-spacing:0px;word-spacing:0px;writing-mode:lr-tb;text-anchor:start;fill:#000000;fill-opacity:1;stroke:none"
       transform="matrix(0.26458333,0,0,0.26458333,0,-378.1)"><flowRegion
         id="flowRegion354"><rect
           id="rect356"
           width="1056"
           height="384"
           x="2208"
           y="565.03931" /></flowRegion><flowPara
         id="flowPara358" /></flowRoot>    <flowRoot
       xml:space="preserve"
       id="flowRoot360"
       style="font-style:normal;font-variant:normal;font-weight:normal;font-stretch:normal;font-size:80px;line-height:100%;font-family:'Officina Sans ITC';-inkscape-font-specification:'Officina Sans ITC';font-variant-ligatures:normal;font-variant-caps:normal;font-variant-numeric:normal;text-align:start;letter-spacing:0px;word-spacing:0px;writing-mode:lr-tb;text-anchor:start;fill:#000000;fill-opacity:1;stroke:none"
       transform="matrix(0.26458333,0,0,0.26458333,0,-378.1)"><flowRegion
         id="flowRegion362"><rect
           id="rect364"
           width="1056"
           height="432"
           x="2208"
           y="565.03931" /></flowRegion><flowPara
         id="flowPara366"><flowSpan
   style="font-weight:bold"
   id="flowSpan368">Immigration (2)</flowSpan>: When activated, return up to two other agents to their owners' hand. Bounced sleeper agents are not revealed.</flowPara></flowRoot>  </g>
  <g
     inkscape:groupmode="layer"
     id="layer7"
     inkscape:label="temp">
    <path
       style="color:#000000;font-style:normal;font-variant:normal;font-weight:normal;font-stretch:normal;font-size:medium;line-height:normal;font-family:sans-serif;font-variant-ligatures:normal;font-variant-position:normal;font-variant-caps:normal;font-variant-numeric:normal;font-variant-alternates:normal;font-feature-settings:normal;text-indent:0;text-align:start;text-decoration:none;text-decoration-line:none;text-decoration-style:solid;text-decoration-color:#000000;letter-spacing:normal;word-spacing:normal;text-transform:none;writing-mode:lr-tb;direction:ltr;text-orientation:mixed;dominant-baseline:auto;baseline-shift:baseline;text-anchor:start;white-space:normal;shape-padding:0;clip-rule:nonzero;display:inline;overflow:visible;visibility:visible;opacity:1;isolation:auto;mix-blend-mode:normal;color-interpolation:sRGB;color-interpolation-filters:linearRGB;solid-color:#000000;solid-opacity:1;vector-effect:none;fill:#84884c;fill-opacity:1;fill-rule:nonzero;stroke:none;stroke-width:6.3499999;stroke-linecap:butt;stroke-linejoin:miter;stroke-miterlimit:47.14606857;stroke-dasharray:none;stroke-dashoffset:0;stroke-opacity:1;paint-order:markers fill stroke;color-rendering:auto;image-rendering:auto;shape-rendering:auto;text-rendering:auto;enable-background:accumulate"
       d="m 499.22945,36.13532 -4.17081,1.11776 c -6.04055,-11.22285 -19.02755,-17.27255 -31.74896,-14.25752 -14.08234,3.33759 -23.47107,16.74654 -21.79092,31.12111 1.68015,14.37455 13.90826,25.25787 28.38069,25.25787 v -6.34947 c -11.30216,0 -20.762,-8.41854 -22.0741,-19.64428 -1.3121,-11.22574 5.95185,-21.60085 16.94935,-24.20731 9.43059,-2.2351 18.96618,1.87057 23.93084,9.78183 l -4.14083,1.1095 10.73526,10.73526 z"
       id="path1490"
       inkscape:connector-curvature="0" />
  </g>
</svg>
