<?xml version='1.0' encoding='UTF-8'?>
<!-- Created with Inkscape (http://www.inkscape.org/) and export_objects.py -->
<svg xmlns:cc="http://creativecommons.org/ns#" xmlns:dc="http://purl.org/dc/elements/1.1/" xmlns:inkscape="http://www.inkscape.org/namespaces/inkscape" xmlns:rdf="http://www.w3.org/1999/02/22-rdf-syntax-ns#" xmlns:sodipodi="http://sodipodi.sourceforge.net/DTD/sodipodi-0.dtd" xmlns:xlink="http://www.w3.org/1999/xlink" xmlns="http://www.w3.org/2000/svg" version="1.1" width="287.9999925pt" height="288.0000375pt" viewBox="0 0 101.599997354 101.600013229" id="svg8" inkscape:version="0.92.3 (2405546, 2018-03-11)" sodipodi:docname="tile-02.svg"><sodipodi:namedview id="base" pagecolor="#ffffff" bordercolor="#666666" borderopacity="1.0" inkscape:pageopacity="0.0" inkscape:pageshadow="2" inkscape:zoom="0.24245689" inkscape:cx="2064.0001" inkscape:cy="47.999997" inkscape:document-units="pt" inkscape:current-layer="layer3" showgrid="true" units="pt" inkscape:snap-object-midpoints="true" inkscape:snap-midpoints="false" showguides="true" inkscape:snap-smooth-nodes="false" inkscape:snap-grids="true" inkscape:snap-to-guides="false" inkscape:guide-bbox="true" inkscape:snap-bbox="false" inkscape:bbox-nodes="true" inkscape:snap-page="false" inkscape:snap-center="true" inkscape:snap-text-baseline="true" inkscape:snap-intersection-paths="true" inkscape:object-paths="false" inkscape:snap-others="true" inkscape:window-width="1280" inkscape:window-height="940" inkscape:window-x="1909" inkscape:window-y="43" inkscape:window-maximized="1" inkscape:bbox-paths="true" inkscape:snap-bbox-edge-midpoints="true" inkscape:snap-bbox-midpoints="true" inkscape:snap-global="true" inkscape:snap-nodes="true" guidetolerance="10000" objecttolerance="50" inkscape:snap-perpendicular="true" inkscape:snap-tangential="true" inkscape:snap-path-clip="true" inkscape:snap-path-mask="true" inkscape:object-nodes="true">
    <inkscape:grid spacingy="12.7" spacingx="12.7" units="in" id="grid18" type="xygrid"/>
  </sodipodi:namedview>
  <metadata id="metadata5">
    <rdf:RDF>
      <cc:Work rdf:about="">
        <dc:format>image/svg+xml</dc:format>
        <dc:type rdf:resource="http://purl.org/dc/dcmitype/StillImage"/>
        <dc:title/>
      </cc:Work>
    </rdf:RDF>
  </metadata>
  <g inkscape:groupmode="layer" inkscape:label="tile-" transform="matrix(1.000000,0.000000,0.000000,1.000000,-685.800053,-215.899995)"><g id="g2513" inkscape:label="02">
      <rect y="215.89999" x="685.80005" height="101.60001" width="101.6" id="rect1441" style="display:inline;opacity:1;fill:#3771c8;fill-opacity:1;stroke:none;stroke-width:1.41111112;stroke-linecap:butt;stroke-linejoin:miter;stroke-miterlimit:47.14606857;stroke-dasharray:none;stroke-dashoffset:0;stroke-opacity:1;paint-order:markers fill stroke"/>
      <circle r="44.449993" cy="266.69998" cx="736.60004" id="circle1467" style="display:inline;opacity:1;fill:#ffffff;fill-opacity:1;stroke:none;stroke-width:0.7055555;stroke-linecap:butt;stroke-linejoin:miter;stroke-miterlimit:47.14606857;stroke-dasharray:none;stroke-dashoffset:0;stroke-opacity:1;paint-order:markers fill stroke"/>
      <path id="path1507" style="display:inline;opacity:1;fill:#3771c8;fill-opacity:1;stroke:none;stroke-width:0.35277778;stroke-linecap:butt;stroke-linejoin:miter;stroke-miterlimit:47.14606857;stroke-dasharray:none;stroke-dashoffset:0;stroke-opacity:1;paint-order:markers fill stroke" d="m 771.52501,266.69998 a 9.5249996,9.5249996 0 0 1 -9.525,9.525 9.5249996,9.5249996 0 0 1 -9.525,-9.525 9.5249996,9.5249996 0 0 1 9.525,-9.52499 9.5249996,9.5249996 0 0 1 9.525,9.52499 z M 736.6,257.175 a 9.5249996,9.5249996 0 0 0 -9.525,9.525 9.5249996,9.5249996 0 0 0 9.525,9.525 9.5249996,9.5249996 0 0 0 9.525,-9.525 9.5249996,9.5249996 0 0 0 -9.525,-9.525 z m 0,3.175 a 6.3499999,6.3499999 0 0 1 6.35,6.35 6.3499999,6.3499999 0 0 1 -6.35,6.35 6.3499999,6.3499999 0 0 1 -6.35,-6.35 6.3499999,6.3499999 0 0 1 6.35,-6.35 z m -15.87501,6.34998 a 9.5249996,9.5249996 0 0 1 -9.525,9.525 9.5249996,9.5249996 0 0 1 -9.525,-9.525 9.5249996,9.5249996 0 0 1 9.525,-9.52499 9.5249996,9.5249996 0 0 1 9.525,9.52499 z" inkscape:connector-curvature="0"/>
      <path style="opacity:1;fill:#84884c;fill-opacity:1;stroke:none;stroke-width:0.35277778;stroke-linecap:butt;stroke-linejoin:miter;stroke-miterlimit:47.14606857;stroke-dasharray:none;stroke-dashoffset:0;stroke-opacity:1;paint-order:markers fill stroke" d="m 743.33519,257.71975 -6.73519,6.73519 -6.73519,-6.73519 -2.24507,2.24506 6.7352,6.7352 -6.7352,6.73519 2.24507,2.24507 6.73519,-6.7352 6.73519,6.7352 2.24507,-2.24507 -6.7352,-6.73519 6.7352,-6.7352 z" id="path1489" inkscape:connector-curvature="0"/>
      <path inkscape:connector-curvature="0" id="path1491" d="m 736.72351,250.4488 c -0.93582,-0.004 -1.87601,0.0354 -2.81792,0.11783 -10.04705,0.87901 -19.03695,6.6054 -24.07967,15.33963 l 2.74867,1.58698 c 4.52643,-7.83999 12.58907,-12.97604 21.60747,-13.76505 8.14015,-0.71217 16.12766,2.19991 21.88549,7.87342 l -2.23552,1.71514 8.16797,3.38326 -1.15393,-8.76536 -2.23914,1.71824 c -5.77962,-5.85881 -13.66236,-9.1721 -21.88342,-9.20409 z" style="opacity:1;fill:#84884c;fill-opacity:1;stroke:none;stroke-width:3.17499804;stroke-linecap:butt;stroke-linejoin:miter;stroke-miterlimit:47.14606857;stroke-dasharray:none;stroke-dashoffset:0;stroke-opacity:1;paint-order:markers fill stroke"/>
    </g>
    </g></svg>
