<?xml version='1.0' encoding='UTF-8'?>
<!-- Created with Inkscape (http://www.inkscape.org/) and export_objects.py -->
<svg xmlns:cc="http://creativecommons.org/ns#" xmlns:dc="http://purl.org/dc/elements/1.1/" xmlns:inkscape="http://www.inkscape.org/namespaces/inkscape" xmlns:rdf="http://www.w3.org/1999/02/22-rdf-syntax-ns#" xmlns:sodipodi="http://sodipodi.sourceforge.net/DTD/sodipodi-0.dtd" xmlns:xlink="http://www.w3.org/1999/xlink" xmlns="http://www.w3.org/2000/svg" version="1.1" width="287.9999925pt" height="288.0000375pt" viewBox="0 0 101.599997354 101.600013229" id="svg8" inkscape:version="0.92.3 (2405546, 2018-03-11)" sodipodi:docname="tile-12.svg"><sodipodi:namedview id="base" pagecolor="#ffffff" bordercolor="#666666" borderopacity="1.0" inkscape:pageopacity="0.0" inkscape:pageshadow="2" inkscape:zoom="0.17144291" inkscape:cx="2064.0001" inkscape:cy="47.999997" inkscape:document-units="pt" inkscape:current-layer="layer2" showgrid="true" units="pt" inkscape:snap-object-midpoints="true" inkscape:snap-midpoints="false" showguides="true" inkscape:snap-smooth-nodes="false" inkscape:snap-grids="true" inkscape:snap-to-guides="false" inkscape:guide-bbox="true" inkscape:snap-bbox="false" inkscape:bbox-nodes="true" inkscape:snap-page="false" inkscape:snap-center="true" inkscape:snap-text-baseline="true" inkscape:snap-intersection-paths="true" inkscape:object-paths="false" inkscape:snap-others="true" inkscape:window-width="1280" inkscape:window-height="940" inkscape:window-x="1909" inkscape:window-y="43" inkscape:window-maximized="1" inkscape:bbox-paths="true" inkscape:snap-bbox-edge-midpoints="true" inkscape:snap-bbox-midpoints="true" inkscape:snap-global="true" inkscape:snap-nodes="true" guidetolerance="10000" objecttolerance="50" inkscape:snap-perpendicular="true" inkscape:snap-tangential="true" inkscape:snap-path-clip="true" inkscape:snap-path-mask="true" inkscape:object-nodes="true">
    <inkscape:grid spacingy="12.7" spacingx="12.7" units="in" id="grid18" type="xygrid"/>
  </sodipodi:namedview>
  <metadata id="metadata5">
    <rdf:RDF>
      <cc:Work rdf:about="">
        <dc:format>image/svg+xml</dc:format>
        <dc:type rdf:resource="http://purl.org/dc/dcmitype/StillImage"/>
        <dc:title/>
      </cc:Work>
    </rdf:RDF>
  </metadata>
  <g inkscape:groupmode="layer" inkscape:label="tile-" transform="matrix(1.000000,0.000000,0.000000,1.000000,-558.800000,165.100005)"><g id="g1554" inkscape:label="12">
      <rect y="-165.10001" x="558.79999" height="101.60001" width="101.6" id="rect1415" style="display:inline;opacity:1;fill:#800000;fill-opacity:1;stroke:none;stroke-width:1.41111112;stroke-linecap:butt;stroke-linejoin:miter;stroke-miterlimit:47.14606857;stroke-dasharray:none;stroke-dashoffset:0;stroke-opacity:1;paint-order:markers fill stroke"/>
      <circle r="44.450001" style="display:inline;opacity:1;fill:#ffffff;fill-opacity:1;stroke:none;stroke-width:0.70555556;stroke-linecap:butt;stroke-linejoin:miter;stroke-miterlimit:47.14606857;stroke-dasharray:none;stroke-dashoffset:0;stroke-opacity:1;paint-order:markers fill stroke" id="path1028" cx="609.59998" cy="-114.3"/>
      <path inkscape:connector-curvature="0" d="m 598.4875,-104.57759 a 9.5249996,9.5249996 0 0 0 -9.525,9.524994 9.5249996,9.5249996 0 0 0 9.525,9.525 9.5249996,9.5249996 0 0 0 9.525,-9.525 9.5249996,9.5249996 0 0 0 -9.525,-9.524994 z m 0,3.175 a 6.3499999,6.3499999 0 0 1 6.35,6.349994 6.3499999,6.3499999 0 0 1 -6.35,6.35 6.3499999,6.3499999 0 0 1 -6.35,-6.35 6.3499999,6.3499999 0 0 1 6.35,-6.349994 z m 22.225,-3.175 a 9.5249996,9.5249996 0 0 0 -9.525,9.524994 9.5249996,9.5249996 0 0 0 9.525,9.52501 9.5249996,9.5249996 0 0 0 9.525,-9.52501 9.5249996,9.5249996 0 0 0 -9.525,-9.524994 z m 0,3.175 a 6.3499999,6.3499999 0 0 1 6.35,6.349994 6.3499999,6.3499999 0 0 1 -6.35,6.35001 6.3499999,6.3499999 0 0 1 -6.35,-6.35001 6.3499999,6.3499999 0 0 1 6.35,-6.349994 z m 0,-41.66983 a 9.5249996,9.5249996 0 0 0 -9.525,9.525 9.5249996,9.5249996 0 0 0 9.525,9.525 9.5249996,9.5249996 0 0 0 9.525,-9.525 9.5249996,9.5249996 0 0 0 -9.525,-9.525 z m 0,3.175 a 6.3499999,6.3499999 0 0 1 6.35,6.35 6.3499999,6.3499999 0 0 1 -6.35,6.35 6.3499999,6.3499999 0 0 1 -6.35,-6.35 6.3499999,6.3499999 0 0 1 6.35,-6.35 z m -22.22501,-3.175 a 9.5249996,9.5249996 0 0 0 -9.525,9.525 9.5249996,9.5249996 0 0 0 9.525,9.525 9.5249996,9.5249996 0 0 0 9.525,-9.525 9.5249996,9.5249996 0 0 0 -9.525,-9.525 z m 0,3.175 a 6.3499999,6.3499999 0 0 1 6.35,6.35 6.3499999,6.3499999 0 0 1 -6.35,6.35 6.3499999,6.3499999 0 0 1 -6.35,-6.35 6.3499999,6.3499999 0 0 1 6.35,-6.35 z m -11.1125,16.0724 a 9.5249996,9.5249996 0 0 0 -9.525,9.525 9.5249996,9.5249996 0 0 0 9.525,9.525 9.5249996,9.5249996 0 0 0 9.525,-9.525 9.5249996,9.5249996 0 0 0 -9.525,-9.525 z m 0,3.175 a 6.3499999,6.3499999 0 0 1 6.35,6.35 6.3499999,6.3499999 0 0 1 -6.35,6.35 6.3499999,6.3499999 0 0 1 -6.35,-6.35 6.3499999,6.3499999 0 0 1 6.35,-6.35 z M 631.825,-123.825 a 9.5249996,9.5249996 0 0 0 -9.525,9.525 9.5249996,9.5249996 0 0 0 9.525,9.525 9.5249996,9.5249996 0 0 0 9.525,-9.525 9.5249996,9.5249996 0 0 0 -9.525,-9.525 z m 0,3.175 a 6.3499999,6.3499999 0 0 1 6.35,6.35 6.3499999,6.3499999 0 0 1 -6.35,6.35 6.3499999,6.3499999 0 0 1 -6.35,-6.35 6.3499999,6.3499999 0 0 1 6.35,-6.35 z m -22.225,-3.17502 a 9.5249996,9.5249996 0 0 0 -9.525,9.525 9.5249996,9.5249996 0 0 0 9.525,9.525 9.5249996,9.5249996 0 0 0 9.525,-9.525 9.5249996,9.5249996 0 0 0 -9.525,-9.525 z m 0,3.175 a 6.3499999,6.3499999 0 0 1 6.35,6.35 6.3499999,6.3499999 0 0 1 -6.35,6.35 6.3499999,6.3499999 0 0 1 -6.35,-6.35 6.3499999,6.3499999 0 0 1 6.35,-6.35 z" style="display:inline;opacity:1;fill:#800000;fill-opacity:1;stroke:none;stroke-width:0.35277778;stroke-linecap:butt;stroke-linejoin:miter;stroke-miterlimit:47.14606857;stroke-dasharray:none;stroke-dashoffset:0;stroke-opacity:1;paint-order:markers fill stroke" id="path971"/>
      <path inkscape:connector-curvature="0" d="m 605.22269,-104.03283 -6.73519,6.735194 -6.73519,-6.735194 -2.24507,2.24506 6.7352,6.735194 -6.7352,6.73519 2.24507,2.24507 6.73519,-6.73519 6.73519,6.73519 2.24507,-2.24507 -6.7352,-6.73519 6.7352,-6.735194 z m 22.225,0 -6.73519,6.735194 -6.73519,-6.735194 -2.24507,2.24506 6.7352,6.735194 -6.7352,6.73519 2.24507,2.24507 6.73519,-6.73519 6.73519,6.73519 2.24507,-2.24507 -6.7352,-6.73519 6.7352,-6.735194 z m 0,-38.49483 -6.73519,6.7352 -6.73519,-6.7352 -2.24507,2.24507 6.7352,6.73519 -6.7352,6.73519 2.24507,2.24507 6.73519,-6.7352 6.73519,6.7352 2.24507,-2.24507 -6.7352,-6.73519 6.7352,-6.73519 z m -22.22501,0 -6.73519,6.7352 -6.73519,-6.7352 -2.24507,2.24507 6.7352,6.73519 -6.7352,6.73519 2.24507,2.24507 6.73519,-6.7352 6.73519,6.7352 2.24507,-2.24507 -6.7352,-6.73519 6.7352,-6.73519 z m -11.1125,19.2474 -6.73519,6.7352 -6.73519,-6.7352 -2.24507,2.24507 6.7352,6.73519 -6.7352,6.73519 2.24507,2.24507 6.73519,-6.7352 6.73519,6.7352 2.24507,-2.24507 -6.7352,-6.73519 6.7352,-6.73519 z m 44.45001,2e-5 -6.73519,6.73519 -6.73519,-6.73519 -2.24507,2.24507 6.7352,6.73519 -6.7352,6.73519 2.24507,2.24506 6.73519,-6.73519 6.73519,6.73519 2.24507,-2.24506 -6.7352,-6.73519 6.7352,-6.73519 z m -22.225,-2e-5 -6.73519,6.7352 -6.73519,-6.7352 -2.24507,2.24507 6.7352,6.73519 -6.7352,6.73519 2.24507,2.24507 6.73519,-6.7352 6.73519,6.7352 2.24507,-2.24507 -6.7352,-6.73519 6.7352,-6.73519 z" style="opacity:1;fill:#84884c;fill-opacity:1;stroke:none;stroke-width:0.35277778;stroke-linecap:butt;stroke-linejoin:miter;stroke-miterlimit:47.14606857;stroke-dasharray:none;stroke-dashoffset:0;stroke-opacity:1;paint-order:markers fill stroke" id="path973"/>
    </g>
    </g></svg>
