<?xml version='1.0' encoding='UTF-8'?>
<!-- Created with Inkscape (http://www.inkscape.org/) and export_objects.py -->
<svg xmlns:cc="http://creativecommons.org/ns#" xmlns:dc="http://purl.org/dc/elements/1.1/" xmlns:inkscape="http://www.inkscape.org/namespaces/inkscape" xmlns:rdf="http://www.w3.org/1999/02/22-rdf-syntax-ns#" xmlns:sodipodi="http://sodipodi.sourceforge.net/DTD/sodipodi-0.dtd" xmlns:xlink="http://www.w3.org/1999/xlink" xmlns="http://www.w3.org/2000/svg" version="1.1" width="287.9999925pt" height="288.0000375pt" viewBox="0 0 101.599997354 101.600013229" id="svg8" inkscape:version="0.92.3 (2405546, 2018-03-11)" sodipodi:docname="tile-06.svg"><sodipodi:namedview id="base" pagecolor="#ffffff" bordercolor="#666666" borderopacity="1.0" inkscape:pageopacity="0.0" inkscape:pageshadow="2" inkscape:zoom="0.17144291" inkscape:cx="2064.0001" inkscape:cy="47.999997" inkscape:document-units="pt" inkscape:current-layer="layer2" showgrid="true" units="pt" inkscape:snap-object-midpoints="true" inkscape:snap-midpoints="false" showguides="true" inkscape:snap-smooth-nodes="false" inkscape:snap-grids="true" inkscape:snap-to-guides="false" inkscape:guide-bbox="true" inkscape:snap-bbox="false" inkscape:bbox-nodes="true" inkscape:snap-page="false" inkscape:snap-center="true" inkscape:snap-text-baseline="true" inkscape:snap-intersection-paths="true" inkscape:object-paths="false" inkscape:snap-others="true" inkscape:window-width="1280" inkscape:window-height="940" inkscape:window-x="1909" inkscape:window-y="43" inkscape:window-maximized="1" inkscape:bbox-paths="true" inkscape:snap-bbox-edge-midpoints="true" inkscape:snap-bbox-midpoints="true" inkscape:snap-global="true" inkscape:snap-nodes="true" guidetolerance="10000" objecttolerance="50" inkscape:snap-perpendicular="true" inkscape:snap-tangential="true" inkscape:snap-path-clip="true" inkscape:snap-path-mask="true" inkscape:object-nodes="true">
    <inkscape:grid spacingy="12.7" spacingx="12.7" units="in" id="grid18" type="xygrid"/>
  </sodipodi:namedview>
  <metadata id="metadata5">
    <rdf:RDF>
      <cc:Work rdf:about="">
        <dc:format>image/svg+xml</dc:format>
        <dc:type rdf:resource="http://purl.org/dc/dcmitype/StillImage"/>
        <dc:title/>
      </cc:Work>
    </rdf:RDF>
  </metadata>
  <g inkscape:groupmode="layer" inkscape:label="tile-" transform="matrix(1.000000,0.000000,0.000000,1.000000,-431.800000,-215.899995)"><g id="g1668" inkscape:label="06">
      <rect y="215.89999" x="431.79999" height="101.60001" width="101.6" id="rect1437" style="display:inline;opacity:1;fill:#3771c8;fill-opacity:1;stroke:none;stroke-width:1.41111112;stroke-linecap:butt;stroke-linejoin:miter;stroke-miterlimit:47.14606857;stroke-dasharray:none;stroke-dashoffset:0;stroke-opacity:1;paint-order:markers fill stroke"/>
      <circle style="display:inline;opacity:1;fill:#ffffff;fill-opacity:1;stroke:none;stroke-width:0.70555556;stroke-linecap:butt;stroke-linejoin:miter;stroke-miterlimit:47.14606857;stroke-dasharray:none;stroke-dashoffset:0;stroke-opacity:1;paint-order:markers fill stroke" id="circle1461" cx="482.60004" cy="266.63419" r="44.450001"/>
      <path id="path1515" style="opacity:1;fill:#3771c8;fill-opacity:1;stroke:none;stroke-width:0.35277778;stroke-linecap:butt;stroke-linejoin:miter;stroke-miterlimit:47.14606857;stroke-dasharray:none;stroke-dashoffset:0;stroke-opacity:1;paint-order:markers fill stroke" d="m 503.23751,285.94742 a 9.5249996,9.5249996 0 0 1 -9.525,9.525 9.5249996,9.5249996 0 0 1 -9.525,-9.525 9.5249996,9.5249996 0 0 1 9.525,-9.525 9.5249996,9.5249996 0 0 1 9.525,9.525 z m -22.22501,-1e-5 a 9.5249996,9.5249996 0 0 1 -9.525,9.525 9.5249996,9.5249996 0 0 1 -9.525,-9.525 9.5249996,9.5249996 0 0 1 9.525,-9.525 9.5249996,9.5249996 0 0 1 9.525,9.525 z m 22.22501,-38.49483 a 9.5249996,9.5249996 0 0 1 -9.525,9.525 9.5249996,9.5249996 0 0 1 -9.525,-9.525 9.5249996,9.5249996 0 0 1 9.525,-9.525 9.5249996,9.5249996 0 0 1 9.525,9.525 z M 514.35,266.63419 a 9.5249996,9.5249996 0 0 1 -9.525,9.525 9.5249996,9.5249996 0 0 1 -9.525,-9.525 9.5249996,9.5249996 0 0 1 9.525,-9.525 9.5249996,9.5249996 0 0 1 9.525,9.525 z m -31.75,-9.525 a 9.5249996,9.5249996 0 0 0 -9.525,9.525 9.5249996,9.5249996 0 0 0 9.525,9.525 9.5249996,9.5249996 0 0 0 9.525,-9.525 9.5249996,9.5249996 0 0 0 -9.525,-9.525 z m 0,3.175 a 6.3499999,6.3499999 0 0 1 6.35,6.35 6.3499999,6.3499999 0 0 1 -6.35,6.35 6.3499999,6.3499999 0 0 1 -6.35,-6.35 6.3499999,6.3499999 0 0 1 6.35,-6.35 z m -12.7,6.35 a 9.5249996,9.5249996 0 0 1 -9.525,9.525 9.5249996,9.5249996 0 0 1 -9.525,-9.525 9.5249996,9.5249996 0 0 1 9.525,-9.525 9.5249996,9.5249996 0 0 1 9.525,9.525 z m 11.1125,-19.18161 a 9.5249996,9.5249996 0 0 1 -9.525,9.525 9.5249996,9.5249996 0 0 1 -9.525,-9.525 9.5249996,9.5249996 0 0 1 9.525,-9.525 9.5249996,9.5249996 0 0 1 9.525,9.525 z" inkscape:connector-curvature="0"/>
    </g>
  </g></svg>
