<?xml version='1.0' encoding='UTF-8'?>
<!-- Created with Inkscape (http://www.inkscape.org/) and export_objects.py -->
<svg xmlns:cc="http://creativecommons.org/ns#" xmlns:dc="http://purl.org/dc/elements/1.1/" xmlns:inkscape="http://www.inkscape.org/namespaces/inkscape" xmlns:rdf="http://www.w3.org/1999/02/22-rdf-syntax-ns#" xmlns:sodipodi="http://sodipodi.sourceforge.net/DTD/sodipodi-0.dtd" xmlns:xlink="http://www.w3.org/1999/xlink" xmlns="http://www.w3.org/2000/svg" version="1.1" width="72.000003pt" height="72.000003pt" viewBox="0 0 25.4000010583 25.4000010583" id="svg3896" inkscape:version="0.92.3 (2405546, 2018-03-11)" sodipodi:docname="tile3.svg"><sodipodi:namedview id="base" pagecolor="#ffffff" bordercolor="#666666" borderopacity="1.0" inkscape:pageopacity="0.0" inkscape:pageshadow="2" inkscape:zoom="1.6386131" inkscape:cx="427.48543" inkscape:cy="233.53846" inkscape:document-units="pt" inkscape:current-layer="layer2" showgrid="true" units="pt" inkscape:snap-text-baseline="true" inkscape:window-width="1280" inkscape:window-height="940" inkscape:window-x="1909" inkscape:window-y="43" inkscape:window-maximized="1" showguides="true" inkscape:guide-bbox="true">
    <inkscape:grid type="xygrid" id="grid3898" units="pt" spacingx="1.5875" spacingy="1.5875"/>
  </sodipodi:namedview>
  <metadata id="metadata3893">
    <rdf:RDF>
      <cc:Work rdf:about="">
        <dc:format>image/svg+xml</dc:format>
        <dc:type rdf:resource="http://purl.org/dc/dcmitype/StillImage"/>
        <dc:title/>
      </cc:Work>
    </rdf:RDF>
  </metadata>
  <g inkscape:groupmode="layer" inkscape:label="tile" transform="matrix(1.000000,0.000000,0.000000,1.000000,-82.550003,-252.549999)"><g id="g790" inkscape:label="3">
      <g style="stroke-width:0.44788888" id="g158" transform="matrix(0.78764576,0,0,-0.78764576,51.517745,307.48042)">
        <g style="stroke-width:0.44788888" clip-path="url(#clipPath164)" id="g160">
          <g style="stroke-width:0.44788888" transform="translate(61.107,55.8895)" id="g166">
            <path inkscape:connector-curvature="0" id="path168" style="fill:#231f20;fill-opacity:1;fill-rule:nonzero;stroke:none;stroke-width:0.44788888" d="m 0,0 c 0,-0.987 0.801,-1.787 1.787,-1.787 0.988,0 1.788,0.8 1.788,1.787 0,0.987 -0.8,1.787 -1.788,1.787 C 0.801,1.787 0,0.987 0,0"/>
          </g>
          <g style="stroke-width:0.44788888" transform="translate(63.7883,53.7164)" id="g170">
            <path inkscape:connector-curvature="0" id="path172" style="fill:#231f20;fill-opacity:1;fill-rule:nonzero;stroke:none;stroke-width:0.44788888" d="m 0,0 h -1.787 c -0.987,0 -1.788,-1.512 -1.788,-3.377 v -1.69 c 0,-0.932 0.4,-1.688 0.894,-1.688 h 3.575 c 0.494,0 0.893,0.756 0.893,1.688 v 1.69 C 1.787,-1.512 0.987,0 0,0"/>
          </g>
          <g style="stroke-width:0.44788888" transform="translate(52.8619,58.9974)" id="g174">
            <path inkscape:connector-curvature="0" id="path176" style="fill:#231f20;fill-opacity:1;fill-rule:nonzero;stroke:none;stroke-width:0.44788888" d="m 0,0 c 0,-1.481 1.201,-2.681 2.681,-2.681 1.481,0 2.682,1.2 2.682,2.681 0,1.481 -1.201,2.681 -2.682,2.681 C 1.201,2.681 0,1.481 0,0"/>
          </g>
          <g style="stroke-width:0.44788888" transform="translate(56.8839,55.687)" id="g178">
            <path inkscape:connector-curvature="0" id="path180" style="fill:#231f20;fill-opacity:1;fill-rule:nonzero;stroke:none;stroke-width:0.44788888" d="M 0,0 H -2.681 C -4.162,0 -5.362,-2.268 -5.362,-5.066 V -7.6 c 0,-1.399 0.6,-2.533 1.34,-2.533 h 5.363 c 0.74,0 1.34,1.134 1.34,2.533 v 2.534 C 2.681,-2.268 1.481,0 0,0"/>
          </g>
          <g style="stroke-width:0.44788888" transform="translate(48.1514,54.102)" id="g182">
            <path inkscape:connector-curvature="0" id="path184" style="fill:#231f20;fill-opacity:1;fill-rule:nonzero;stroke:none;stroke-width:0.44788888" d="m 0,0 c 0.987,0 1.787,0.8 1.787,1.787 0,0.988 -0.8,1.788 -1.787,1.788 -0.987,0 -1.787,-0.8 -1.787,-1.788 C -1.787,0.8 -0.987,0 0,0"/>
          </g>
          <g style="stroke-width:0.44788888" transform="translate(49.0452,53.7164)" id="g186">
            <path inkscape:connector-curvature="0" id="path188" style="fill:#231f20;fill-opacity:1;fill-rule:nonzero;stroke:none;stroke-width:0.44788888" d="m 0,0 h -1.787 c -0.987,0 -1.788,-1.512 -1.788,-3.377 v -1.69 c 0,-0.932 0.4,-1.688 0.894,-1.688 h 3.575 c 0.493,0 0.893,0.756 0.893,1.688 v 1.69 C 1.787,-1.512 0.987,0 0,0"/>
          </g>
        </g>
      </g>
      <rect style="opacity:1;fill:none;fill-opacity:0.90562289;stroke:none;stroke-width:0.35277781;stroke-linecap:butt;stroke-linejoin:miter;stroke-miterlimit:47.14606857;stroke-dasharray:none;stroke-dashoffset:0;stroke-opacity:1;paint-order:markers fill stroke" id="rect752" width="25.400002" height="25.400002" x="82.550003" y="252.55"/>
    </g>
  </g></svg>
