<?xml version='1.0' encoding='UTF-8'?>
<!-- Created with Inkscape (http://www.inkscape.org/) and export_objects.py -->
<svg xmlns:cc="http://creativecommons.org/ns#" xmlns:dc="http://purl.org/dc/elements/1.1/" xmlns:inkscape="http://www.inkscape.org/namespaces/inkscape" xmlns:rdf="http://www.w3.org/1999/02/22-rdf-syntax-ns#" xmlns:sodipodi="http://sodipodi.sourceforge.net/DTD/sodipodi-0.dtd" xmlns:xlink="http://www.w3.org/1999/xlink" xmlns="http://www.w3.org/2000/svg" version="1.1" width="0.75000003125in" height="0.75000003125in" viewBox="0 0 19.0500007937 19.0500007937" id="svg8" inkscape:version="0.92.3 (2405546, 2018-03-11)" sodipodi:docname="dk-05.svg"><sodipodi:namedview id="base" pagecolor="#ffffff" bordercolor="#666666" borderopacity="1.0" inkscape:pageopacity="0.0" inkscape:pageshadow="2" inkscape:zoom="1.0266509" inkscape:cx="313.2" inkscape:cy="369.7173" inkscape:document-units="in" inkscape:current-layer="layer3" showgrid="true" units="in" inkscape:snap-others="true" inkscape:snap-grids="true" inkscape:window-width="1280" inkscape:window-height="940" inkscape:window-x="1909" inkscape:window-y="43" inkscape:window-maximized="1" inkscape:snap-midpoints="false" inkscape:object-nodes="true" inkscape:snap-text-baseline="true" inkscape:snap-smooth-nodes="false" showguides="false" inkscape:snap-object-midpoints="true" inkscape:snap-center="true" inkscape:snap-to-guides="false" inkscape:snap-nodes="true" inkscape:snap-intersection-paths="true" inkscape:snap-bbox="false" inkscape:bbox-nodes="true" inkscape:snap-bbox-edge-midpoints="true">
    <inkscape:grid type="xygrid" id="grid10" units="pt" spacingx="0.39687501" spacingy="0.39687501"/>
    <sodipodi:guide position="380.20625,103.1875" orientation="0,1" id="guide9455" inkscape:locked="false"/>
  </sodipodi:namedview>
  <metadata id="metadata5">
    <rdf:RDF>
      <cc:Work rdf:about="">
        <dc:format>image/svg+xml</dc:format>
        <dc:type rdf:resource="http://purl.org/dc/dcmitype/StillImage"/>
        <dc:title/>
      </cc:Work>
    </rdf:RDF>
  </metadata>
  <g inkscape:groupmode="layer" inkscape:label="dk-" transform="matrix(1.000000,0.000000,0.000000,1.000000,-63.500005,-73.025008)"><g id="g4639" inkscape:label="05">
      <rect y="73.025009" x="63.500008" height="19.050001" width="19.050001" id="rect3448" style="display:inline;opacity:1;fill:#ffffff;fill-opacity:1;stroke:none;stroke-width:0.1763889;stroke-linecap:butt;stroke-linejoin:miter;stroke-miterlimit:47.14606857;stroke-dasharray:none;stroke-dashoffset:0;stroke-opacity:1;paint-order:markers fill stroke"/>
      <path inkscape:export-ydpi="96" inkscape:export-xdpi="96" inkscape:export-filename="C:\mine\Vira\Vira table excerpts\Tourne.png" id="path3450" d="m 76.200002,77.78747 c -0.911042,0 -1.708444,0.611888 -1.944243,1.49189 -0.235783,0.880009 0.148873,1.80862 0.9378,2.26413 -0.78898,-0.45551 -1.785565,-0.324261 -2.429756,0.319939 -0.644195,0.644192 -0.775351,1.64075 -0.319839,2.42973 0.45553,0.788982 1.384162,1.173601 2.264156,0.937821 0.529688,-0.141941 0.961969,-0.4875 1.222407,-0.938721 l -0.809194,3.020211 h 2.157338 l -0.809289,-3.020452 c 0.260422,0.451332 0.692703,0.796991 1.222502,0.938962 0.879994,0.23578 1.8087,-0.148871 2.26423,-0.937821 0.455512,-0.78898 0.324284,-1.785538 -0.319931,-2.42973 -0.644192,-0.644218 -1.640774,-0.775449 -2.429756,-0.319939 0.788982,-0.45551 1.173676,-1.384139 0.937892,-2.26413 -0.235796,-0.880002 -1.03329,-1.49189 -1.944317,-1.49189 z" style="display:inline;opacity:1;fill:#000000;fill-opacity:1;stroke:none;stroke-width:0.07055556;stroke-linecap:butt;stroke-linejoin:miter;stroke-miterlimit:4;stroke-dasharray:none;stroke-dashoffset:0;paint-order:normal" inkscape:connector-curvature="0"/>
      <path inkscape:connector-curvature="0" id="path3452" style="display:inline;font-style:normal;font-variant:normal;font-weight:normal;font-stretch:normal;font-size:14.11111164px;line-height:125%;font-family:'Stint Ultra Condensed';-inkscape-font-specification:'Stint Ultra Condensed, ';font-variant-ligatures:normal;font-variant-caps:normal;font-variant-numeric:normal;text-align:end;letter-spacing:0px;word-spacing:0px;writing-mode:lr-tb;text-anchor:end;fill:#000000;fill-opacity:1;stroke:none;stroke-width:0.26458335" d="m 66.311202,77.84539 h 2.549369 v 0.77171 h -0.847492 v 3.231499 L 69.763187,78.6171 h -0.516766 v -0.77171 h 2.101512 v 0.77171 h -0.709692 l -1.77767,3.29351 1.949927,4.623321 h 0.778589 v 0.778589 h -2.246201 v -0.778589 h 0.578776 l -1.598526,-3.89296 -0.310057,0.564988 v 3.327972 h 0.847492 v 0.778589 h -2.549369 v -0.778589 h 0.840603 V 78.6171 h -0.840603 z"/>
      <path d="m 77.163282,80.345142 h -0.52564 v 0.61736 h -0.405694 v -0.61736 h -1.121833 l 1.509887,-1.806223 h 0.01765 v 1.44286 h 0.525637 z m -0.93839,-0.363363 v -0.486831 l -0.405694,0.486831 z" style="font-style:normal;font-variant:normal;font-weight:normal;font-stretch:normal;font-size:3.52777791px;line-height:100%;font-family:Paddington;-inkscape-font-specification:Paddington;font-variant-ligatures:normal;font-variant-caps:normal;font-variant-numeric:normal;text-align:center;letter-spacing:0px;word-spacing:0px;writing-mode:lr-tb;text-anchor:middle;display:inline;fill:#ffffff;fill-opacity:1;stroke:none;stroke-width:0.26458335" id="path3871" inkscape:connector-curvature="0"/>
    </g>
    </g></svg>
