<?xml version='1.0' encoding='UTF-8'?>
<!-- Created with Inkscape (http://www.inkscape.org/) and export_objects.py -->
<svg xmlns:cc="http://creativecommons.org/ns#" xmlns:dc="http://purl.org/dc/elements/1.1/" xmlns:inkscape="http://www.inkscape.org/namespaces/inkscape" xmlns:rdf="http://www.w3.org/1999/02/22-rdf-syntax-ns#" xmlns:sodipodi="http://sodipodi.sourceforge.net/DTD/sodipodi-0.dtd" xmlns:xlink="http://www.w3.org/1999/xlink" xmlns="http://www.w3.org/2000/svg" version="1.1" width="0.75000003125in" height="0.75000003125in" viewBox="0 0 19.0500007937 19.0500007937" id="svg8" inkscape:version="0.92.3 (2405546, 2018-03-11)" sodipodi:docname="dk-04.svg"><sodipodi:namedview id="base" pagecolor="#ffffff" bordercolor="#666666" borderopacity="1.0" inkscape:pageopacity="0.0" inkscape:pageshadow="2" inkscape:zoom="1.0266509" inkscape:cx="313.2" inkscape:cy="369.7173" inkscape:document-units="in" inkscape:current-layer="layer3" showgrid="true" units="in" inkscape:snap-others="true" inkscape:snap-grids="true" inkscape:window-width="1280" inkscape:window-height="940" inkscape:window-x="1909" inkscape:window-y="43" inkscape:window-maximized="1" inkscape:snap-midpoints="false" inkscape:object-nodes="true" inkscape:snap-text-baseline="true" inkscape:snap-smooth-nodes="false" showguides="false" inkscape:snap-object-midpoints="true" inkscape:snap-center="true" inkscape:snap-to-guides="false" inkscape:snap-nodes="true" inkscape:snap-intersection-paths="true" inkscape:snap-bbox="false" inkscape:bbox-nodes="true" inkscape:snap-bbox-edge-midpoints="true">
    <inkscape:grid type="xygrid" id="grid10" units="pt" spacingx="0.39687501" spacingy="0.39687501"/>
    <sodipodi:guide position="380.20625,103.1875" orientation="0,1" id="guide9455" inkscape:locked="false"/>
  </sodipodi:namedview>
  <metadata id="metadata5">
    <rdf:RDF>
      <cc:Work rdf:about="">
        <dc:format>image/svg+xml</dc:format>
        <dc:type rdf:resource="http://purl.org/dc/dcmitype/StillImage"/>
        <dc:title/>
      </cc:Work>
    </rdf:RDF>
  </metadata>
  <g inkscape:groupmode="layer" inkscape:label="dk-" transform="matrix(1.000000,0.000000,0.000000,1.000000,-139.700008,-73.025008)"><g id="g4673" inkscape:label="04">
      <rect style="display:inline;opacity:1;fill:#ffffff;fill-opacity:1;stroke:none;stroke-width:0.1763889;stroke-linecap:butt;stroke-linejoin:miter;stroke-miterlimit:47.14606857;stroke-dasharray:none;stroke-dashoffset:0;stroke-opacity:1;paint-order:markers fill stroke" id="rect3486" width="19.050001" height="19.050001" x="139.70001" y="73.025009"/>
      <path inkscape:connector-curvature="0" style="display:inline;opacity:1;fill:#000000;fill-opacity:1;stroke:none;stroke-width:0.07055556;stroke-linecap:butt;stroke-linejoin:miter;stroke-miterlimit:4;stroke-dasharray:none;stroke-dashoffset:0;paint-order:normal" d="m 152.40003,77.787459 c -0.91105,0 -1.70845,0.611891 -1.94425,1.49188 -0.23578,0.88002 0.14888,1.808631 0.9378,2.26414 -0.78898,-0.455509 -1.78556,-0.32426 -2.42975,0.319931 -0.6442,0.6442 -0.77535,1.640759 -0.31984,2.429741 0.45553,0.788979 1.38416,1.173599 2.26415,0.937818 0.52969,-0.141949 0.96197,-0.4875 1.22241,-0.93872 l -0.80919,3.02021 h 2.15733 l -0.80928,-3.020449 c 0.26042,0.451329 0.6927,0.796978 1.2225,0.938959 0.87999,0.235781 1.8087,-0.148878 2.26423,-0.937818 0.45551,-0.788982 0.32428,-1.785541 -0.31993,-2.429741 -0.6442,-0.64421 -1.64078,-0.77544 -2.42976,-0.319931 0.78898,-0.455509 1.17368,-1.384139 0.93789,-2.26414 -0.23579,-0.879989 -1.03329,-1.49188 -1.94431,-1.49188 z" id="path3488" inkscape:export-filename="C:\mine\Vira\Vira table excerpts\Tourne.png" inkscape:export-xdpi="96" inkscape:export-ydpi="96"/>
      <path inkscape:connector-curvature="0" id="path3490" style="font-style:normal;font-variant:normal;font-weight:normal;font-stretch:normal;font-size:14.11111164px;line-height:125%;font-family:'Stint Ultra Condensed';-inkscape-font-specification:'Stint Ultra Condensed, ';font-variant-ligatures:normal;font-variant-caps:normal;font-variant-numeric:normal;text-align:end;letter-spacing:0px;word-spacing:0px;writing-mode:lr-tb;text-anchor:end;display:inline;fill:#000000;fill-opacity:1;stroke:none;stroke-width:0.26458335" d="m 145.76682,82.771871 q -0.0482,0.124018 -0.14469,0.316939 -0.0896,0.192929 -0.24805,0.372081 -0.15158,0.179138 -0.37207,0.310049 -0.22048,0.124029 -0.52365,0.124029 -0.33762,0 -0.6339,-0.186039 -0.29628,-0.192921 -0.51676,-0.578771 -0.2136,-0.38585 -0.34451,-0.964629 -0.12403,-0.585671 -0.12403,-1.37115 0,-0.647681 0.11714,-1.21267 0.11713,-0.571892 0.34451,-0.99219 0.22737,-0.427191 0.5581,-0.668351 0.33073,-0.24805 0.75792,-0.24805 0.4203,0 0.77859,0.289391 0.36518,0.282498 0.6339,0.86128 0.26872,0.571881 0.4203,1.44005 0.15848,0.868159 0.15848,2.039491 0,1.198898 -0.11714,2.163519 -0.11713,0.957738 -0.36518,1.632979 -0.24115,0.67524 -0.62011,1.040421 -0.37207,0.358291 -0.88884,0.358291 -0.33073,0 -0.62701,-0.186042 -0.29627,-0.179139 -0.52365,-0.53743 -0.22049,-0.35829 -0.3514,-0.888838 -0.12402,-0.537432 -0.12402,-1.240232 h 0.84749 q 0,1.026642 0.19982,1.564071 0.2067,0.53744 0.62011,0.53744 0.28939,0 0.4961,-0.316949 0.2067,-0.323842 0.33762,-0.868172 0.13091,-0.54432 0.19292,-1.260899 0.062,-0.723471 0.062,-1.529619 z m -1.11621,0.37896 q 0.2136,0 0.38585,-0.199822 0.17226,-0.19981 0.30317,-0.489198 0.13781,-0.289391 0.22738,-0.62012 0.0896,-0.330732 0.13091,-0.599451 0.0138,-0.50987 -0.062,-1.012851 -0.0689,-0.509879 -0.2136,-0.909508 -0.1378,-0.399632 -0.34451,-0.647682 -0.19981,-0.248039 -0.44097,-0.248039 -0.22048,0 -0.39274,0.172249 -0.17225,0.16536 -0.28939,0.47542 -0.11713,0.31006 -0.17914,0.75103 -0.0551,0.434091 -0.0551,0.971521 0,0.55122 0.0551,0.99219 0.0551,0.434081 0.16536,0.737248 0.11714,0.303171 0.28939,0.468533 0.17915,0.15848 0.4203,0.15848 z"/>
    </g>
  </g></svg>
