<?xml version='1.0' encoding='UTF-8'?>
<!-- Created with Inkscape (http://www.inkscape.org/) and export_objects.py -->
<svg xmlns:cc="http://creativecommons.org/ns#" xmlns:dc="http://purl.org/dc/elements/1.1/" xmlns:inkscape="http://www.inkscape.org/namespaces/inkscape" xmlns:rdf="http://www.w3.org/1999/02/22-rdf-syntax-ns#" xmlns:sodipodi="http://sodipodi.sourceforge.net/DTD/sodipodi-0.dtd" xmlns:xlink="http://www.w3.org/1999/xlink" xmlns="http://www.w3.org/2000/svg" version="1.1" width="0.75000003125in" height="0.750000177083in" viewBox="0 0 19.0500007937 19.0500044979" id="svg8" inkscape:version="0.92.3 (2405546, 2018-03-11)" sodipodi:docname="dk-24.svg"><sodipodi:namedview id="base" pagecolor="#ffffff" bordercolor="#666666" borderopacity="1.0" inkscape:pageopacity="0.0" inkscape:pageshadow="2" inkscape:zoom="1.0266509" inkscape:cx="313.2" inkscape:cy="369.7173" inkscape:document-units="in" inkscape:current-layer="layer3" showgrid="true" units="in" inkscape:snap-others="true" inkscape:snap-grids="true" inkscape:window-width="1280" inkscape:window-height="940" inkscape:window-x="1909" inkscape:window-y="43" inkscape:window-maximized="1" inkscape:snap-midpoints="false" inkscape:object-nodes="true" inkscape:snap-text-baseline="true" inkscape:snap-smooth-nodes="false" showguides="false" inkscape:snap-object-midpoints="true" inkscape:snap-center="true" inkscape:snap-to-guides="false" inkscape:snap-nodes="true" inkscape:snap-intersection-paths="true" inkscape:snap-bbox="false" inkscape:bbox-nodes="true" inkscape:snap-bbox-edge-midpoints="true">
    <inkscape:grid type="xygrid" id="grid10" units="pt" spacingx="0.39687501" spacingy="0.39687501"/>
    <sodipodi:guide position="380.20625,103.1875" orientation="0,1" id="guide9455" inkscape:locked="false"/>
  </sodipodi:namedview>
  <metadata id="metadata5">
    <rdf:RDF>
      <cc:Work rdf:about="">
        <dc:format>image/svg+xml</dc:format>
        <dc:type rdf:resource="http://purl.org/dc/dcmitype/StillImage"/>
        <dc:title/>
      </cc:Work>
    </rdf:RDF>
  </metadata>
  <g inkscape:groupmode="layer" inkscape:label="dk-" transform="matrix(1.000000,0.000000,0.000000,1.000000,-114.300016,-73.025000)"><g id="g4667" inkscape:label="24">
      <rect y="73.025002" x="114.30002" height="19.050005" width="19.050001" id="rect1201" style="display:inline;opacity:1;fill:#cccccc;fill-opacity:1;stroke:none;stroke-width:0.1763889;stroke-linecap:butt;stroke-linejoin:miter;stroke-miterlimit:47.14606857;stroke-dasharray:none;stroke-dashoffset:0;stroke-opacity:1;paint-order:markers fill stroke"/>
      <path d="m 123.50531,77.321735 v -0.01381 q -0.57051,-0.336251 -0.57051,-0.953612 0,-0.438208 0.25356,-0.711059 0.25631,-0.275609 0.67248,-0.275609 0.39412,0 0.6339,0.25631 0.23978,0.25632 0.23978,0.669729 0,0.658699 -0.62012,1.008719 v 0.01101 q 0.71107,0.31695 0.71107,1.055579 0,0.496092 -0.2701,0.77996 -0.26734,0.28112 -0.76343,0.28112 -0.42719,0 -0.69453,-0.28112 -0.26459,-0.281119 -0.26459,-0.73311 0,-0.733118 0.67249,-1.094158 z m 0.3197,-0.181901 q 0.5209,-0.2701 0.5209,-0.80754 0,-0.2949 -0.1378,-0.46853 -0.13781,-0.17363 -0.36656,-0.17363 -0.22324,0 -0.37483,0.179139 -0.14883,0.179152 -0.14883,0.463021 0,0.53468 0.50712,0.80754 z m -0.0165,0.344501 q -0.58705,0.305929 -0.58705,0.903999 0,0.319698 0.16261,0.515379 0.16536,0.195691 0.44648,0.195691 0.28388,0 0.44373,-0.192931 0.15986,-0.195678 0.15986,-0.518139 0,-0.628391 -0.62563,-0.903999 z" style="display:inline;font-style:normal;font-variant:normal;font-weight:normal;font-stretch:normal;font-size:5.64444447px;line-height:100%;font-family:'Segoe Condensed';-inkscape-font-specification:'Segoe Condensed, ';font-variant-ligatures:normal;font-variant-caps:normal;font-variant-numeric:normal;text-align:center;letter-spacing:0px;word-spacing:0px;writing-mode:lr-tb;text-anchor:middle;fill:#000080;fill-opacity:1;stroke:none;stroke-width:0.26458335" id="path1758" inkscape:connector-curvature="0"/>
      <path inkscape:export-ydpi="96" inkscape:export-xdpi="96" inkscape:export-filename="C:\mine\Vira\Vira table excerpts\Tourne.png" id="path3298" d="m 126.99999,80.168773 c -0.91105,0 -1.70845,0.611888 -1.94425,1.491879 -0.23578,0.88002 0.14888,1.808629 0.9378,2.264141 -0.78898,-0.455512 -1.78556,-0.324261 -2.42975,0.319928 -0.6442,0.6442 -0.77535,1.640761 -0.31984,2.429741 0.45553,0.788979 1.38416,1.173599 2.26415,0.937821 0.52969,-0.141952 0.96198,-0.487501 1.22241,-0.938721 l -0.80919,3.020211 h 2.15733 l -0.80928,-3.020452 c 0.26042,0.451332 0.6927,0.796981 1.2225,0.938962 0.87999,0.235778 1.8087,-0.148881 2.26423,-0.937821 0.45551,-0.78898 0.32428,-1.785541 -0.31993,-2.429741 -0.6442,-0.64421 -1.64078,-0.77544 -2.42976,-0.319928 0.78898,-0.455512 1.17368,-1.384142 0.93789,-2.264141 -0.23579,-0.879991 -1.03329,-1.491879 -1.94431,-1.491879 z" style="display:inline;opacity:1;fill:#000000;fill-opacity:1;stroke:none;stroke-width:0.07055556;stroke-linecap:butt;stroke-linejoin:miter;stroke-miterlimit:4;stroke-dasharray:none;stroke-dashoffset:0;paint-order:normal" inkscape:connector-curvature="0"/>
      <path d="m 118.95777,80.142582 h 2.70096 v 0.77171 h -0.8475 v 6.1116 q 0,0.74414 -0.11713,1.260901 -0.11024,0.50987 -0.32384,0.83371 -0.2067,0.31695 -0.50987,0.46165 -0.29628,0.1378 -0.67524,0.1378 -0.37207,0 -0.66835,-0.12402 -0.28939,-0.124029 -0.49609,-0.461651 -0.20671,-0.344508 -0.31695,-0.950838 -0.11025,-0.60634 -0.11025,-1.564082 h 0.86128 q 0.007,0.647682 0.0276,1.088649 0.0276,0.440982 0.0965,0.716582 0.0758,0.268719 0.22048,0.39275 0.1447,0.117129 0.38585,0.117129 0.24116,0 0.39275,-0.124018 0.15158,-0.130922 0.23426,-0.372081 0.0827,-0.248039 0.11025,-0.61322 0.0276,-0.36518 0.0276,-0.84061 v -6.070251 h -0.99219 z" style="display:inline;font-style:normal;font-variant:normal;font-weight:normal;font-stretch:normal;font-size:14.11111164px;line-height:125%;font-family:'Stint Ultra Condensed';-inkscape-font-specification:'Stint Ultra Condensed, ';font-variant-ligatures:normal;font-variant-caps:normal;font-variant-numeric:normal;text-align:end;letter-spacing:0px;word-spacing:0px;writing-mode:lr-tb;text-anchor:end;fill:#000000;fill-opacity:1;stroke:none;stroke-width:0.26458335" id="path3300" inkscape:connector-curvature="0"/>
      <path inkscape:connector-curvature="0" id="path3388" style="font-style:normal;font-variant:normal;font-weight:normal;font-stretch:normal;font-size:3.52777791px;line-height:100%;font-family:Paddington;-inkscape-font-specification:Paddington;font-variant-ligatures:normal;font-variant-caps:normal;font-variant-numeric:normal;text-align:center;letter-spacing:0px;word-spacing:0px;writing-mode:lr-tb;text-anchor:middle;display:inline;fill:#ffffff;fill-opacity:1;stroke:none;stroke-width:0.26458335" d="m 127.75234,86.494059 h -1.4993 l 0.83961,-1.291167 q 0.0494,-0.07761 0.0953,-0.20461 0.0459,-0.13053 0.0459,-0.211667 0,-0.105833 -0.0882,-0.172863 -0.0847,-0.06703 -0.19403,-0.06703 -0.33161,0 -0.63852,0.416279 h -0.0176 v -0.553863 q 0.33161,-0.246943 0.65616,-0.246943 0.33161,0 0.52211,0.17286 0.19403,0.17286 0.19403,0.486833 0,0.268113 -0.27164,0.691447 -0.21872,0.321027 -0.43744,0.638527 h 0.79375 z"/>
      <g transform="matrix(0.66782616,0,0,0.66782616,131.72247,77.912431)" id="text4558" style="font-style:normal;font-variant:normal;font-weight:normal;font-stretch:normal;font-size:4.23333359px;line-height:100%;font-family:'Segoe Condensed';-inkscape-font-specification:'Segoe Condensed, ';font-variant-ligatures:normal;font-variant-caps:normal;font-variant-numeric:normal;text-align:start;letter-spacing:0px;word-spacing:0px;writing-mode:lr-tb;text-anchor:start;display:inline;fill:#ffffff;fill-opacity:1;stroke:none;stroke-width:0.39618596" aria-label="🧔">
        <path inkscape:connector-curvature="0" id="path4590" style="fill:#ffffff;stroke-width:0.39618596" d="m -5.1573077,5.6492673 q 0.07028,0.031006 0.1281576,0.080615 0.059945,0.049609 0.099219,0.1116211 0.041341,0.062012 0.064079,0.1343587 0.022738,0.072347 0.022738,0.1508952 V 6.573242 q 0,0.074414 -0.022738,0.1467611 -0.02067,0.07028 -0.059945,0.1322916 -0.037207,0.059945 -0.093018,0.1095541 -0.053743,0.049609 -0.1219564,0.080615 v 0.1984375 q 0,0.2046387 -0.053744,0.394808 -0.051676,0.1901693 -0.1488281,0.3534668 -0.097152,0.1653646 -0.2335775,0.3017904 -0.1343587,0.1364258 -0.2997233,0.2315104 -0.1653646,0.097152 -0.3555339,0.1508952 -0.1881022,0.053743 -0.3927409,0.053743 H -7.517888 q -0.3079916,0 -0.5787761,-0.1178223 Q -8.3653808,8.4935383 -8.5679524,8.2909667 -8.768457,8.0883951 -8.8862792,7.8196776 -9.0020345,7.5488931 -9.0020345,7.2409015 V 7.042464 Q -9.0702475,7.011458 -9.1260579,6.961849 -9.1798019,6.91224 -9.2190759,6.8522949 -9.2562829,6.7902829 -9.2790209,6.7200033 -9.2996919,6.6476563 -9.2996919,6.5732422 V 6.1267576 q 0,-0.076481 0.022738,-0.1488282 0.022738,-0.074414 0.064079,-0.1364257 0.041341,-0.062012 0.099219,-0.1116211 0.057878,-0.049609 0.1281576,-0.080615 0.031006,-0.2397786 0.1178223,-0.4568197 0.086816,-0.217041 0.2191081,-0.4030762 0.1322916,-0.1860351 0.3038574,-0.3369303 0.1736328,-0.1508952 0.3762045,-0.2563151 0.2025716,-0.107487 0.4278808,-0.1653646 0.2273764,-0.057878 0.4692221,-0.057878 0.2418457,0 0.4671549,0.057878 0.2273764,0.057878 0.429948,0.1653646 0.2025716,0.1054199 0.3741374,0.2563151 0.1736328,0.1488281 0.3059245,0.3369303 0.1322917,0.1860352 0.2191081,0.4030762 0.086816,0.2170411 0.1178225,0.4568194 z m -1.6164389,1.1472169 q 0,0.059945 -0.022738,0.1136881 -0.022738,0.051677 -0.062012,0.093018 -0.037207,0.039274 -0.09095,0.064079 -0.051677,0.022738 -0.1095541,0.024805 h 0.7296713 q 0.062012,0 0.1157552,0.024805 0.053744,0.022738 0.093018,0.064079 0.041341,0.039274 0.064079,0.093018 0.024805,0.053743 0.024805,0.1157553 0.062012,0 0.1157552,-0.022738 0.053743,-0.022738 0.093018,-0.062012 0.041341,-0.041341 0.064079,-0.095085 0.024805,-0.055811 0.024805,-0.1178223 v -1.188558 q 0,-0.2273763 -0.078548,-0.4444174 h -1.1100098 q -0.179834,0 -0.3265951,-0.066146 -0.144694,-0.068213 -0.2687174,-0.1922363 l -0.359668,-0.359668 q -0.1240235,0.095085 -0.2232422,0.2149739 -0.099219,0.1178223 -0.1674317,0.2542481 -0.068213,0.1364258 -0.1054199,0.287321 -0.03514,0.1488281 -0.03514,0.3059245 v 1.188558 q 0,0.062012 0.022738,0.1178223 0.022738,0.053744 0.062012,0.095085 0.041341,0.039274 0.095085,0.062012 0.055811,0.022738 0.1178223,0.022738 0,-0.062012 0.022738,-0.1157553 0.024805,-0.053743 0.064079,-0.093018 0.041341,-0.041341 0.095085,-0.064079 0.053743,-0.024805 0.1157553,-0.024805 h 0.7296712 q -0.059945,-0.00207 -0.1116211,-0.024805 -0.051676,-0.024805 -0.09095,-0.064079 -0.039274,-0.041341 -0.062012,-0.093018 -0.020671,-0.053743 -0.020671,-0.1136881 z m -0.8929688,0.5932455 q -0.059945,0 -0.1054199,0.045475 -0.043408,0.043408 -0.043408,0.1033529 0,0.041341 0.020671,0.076481 0.022738,0.033073 0.059945,0.053744 0.1488282,0.082682 0.322461,0.1260905 0.1736328,0.041341 0.3431315,0.041341 0.1715658,0 0.3410645,-0.041341 0.1694987,-0.043408 0.3203939,-0.1260905 0.037207,-0.020671 0.057878,-0.053744 0.022738,-0.033073 0.022738,-0.076481 0,-0.059945 -0.045475,-0.1033529 -0.043408,-0.045475 -0.1033529,-0.045475 -0.018604,0 -0.037207,0.0062 -0.016536,0.00413 -0.033073,0.012402 -0.1281576,0.062012 -0.2563152,0.095085 -0.1260905,0.033073 -0.2687174,0.033073 -0.142627,0 -0.2707846,-0.033073 -0.1260905,-0.033073 -0.254248,-0.095085 -0.016536,-0.00827 -0.03514,-0.012402 -0.016536,-0.0062 -0.03514,-0.0062 z M -7.8878905,5.9055824 q 0.045475,0 0.084749,0.018604 0.041341,0.016536 0.072347,0.047542 0.031006,0.028939 0.047542,0.07028 0.018604,0.039274 0.018604,0.084749 v 0.2976563 q 0,0.045475 -0.018604,0.086816 -0.016536,0.039274 -0.047542,0.07028 -0.031006,0.031006 -0.072347,0.049609 -0.039274,0.016536 -0.084749,0.016536 -0.047542,0 -0.088883,-0.016536 -0.039274,-0.018604 -0.07028,-0.047542 -0.028939,-0.031006 -0.047542,-0.07028 -0.016537,-0.041341 -0.016537,-0.088883 V 6.1267576 q 0,-0.045475 0.016537,-0.086816 0.018603,-0.041341 0.049609,-0.07028 0.031006,-0.028939 0.07028,-0.045475 0.041341,-0.018604 0.086816,-0.018604 z m 1.6329754,0 q 0.045475,0 0.084749,0.018604 0.041341,0.016536 0.072347,0.045475 0.031006,0.028939 0.047542,0.07028 0.018604,0.041341 0.018604,0.086816 v 0.2976563 q 0,0.047542 -0.018604,0.088883 -0.016536,0.039274 -0.047542,0.07028 -0.028939,0.028939 -0.07028,0.047542 -0.041341,0.016536 -0.086816,0.016536 -0.047542,0 -0.088884,-0.016536 -0.039274,-0.018604 -0.068213,-0.049609 -0.028939,-0.031006 -0.047542,-0.07028 -0.016536,-0.041341 -0.016536,-0.086816 V 6.1267576 q 0,-0.045475 0.016536,-0.084749 0.018604,-0.041341 0.047542,-0.07028 0.031006,-0.031006 0.07028,-0.047542 0.041341,-0.018604 0.086817,-0.018604 z m 1.1141439,0.2211752 q 0,-0.045475 -0.018604,-0.084749 -0.016536,-0.041341 -0.047542,-0.072347 -0.028939,-0.031006 -0.07028,-0.047542 -0.039274,-0.018604 -0.084749,-0.018604 h -0.074414 v 0.8929688 h 0.074414 q 0.045475,0 0.084749,-0.016536 0.041341,-0.018604 0.07028,-0.049609 0.031006,-0.031006 0.047542,-0.07028 0.018604,-0.041341 0.018604,-0.086816 z M -9.0020345,6.573242 q 0,0.045475 0.016537,0.086816 0.018603,0.039274 0.049609,0.07028 0.031006,0.031006 0.07028,0.049609 0.041341,0.016536 0.086816,0.016536 h 0.072347 V 5.9035154 h -0.072347 q -0.045475,0 -0.086816,0.018604 -0.039274,0.016536 -0.07028,0.047542 -0.031006,0.031006 -0.049609,0.072347 -0.016537,0.039274 -0.016537,0.084749 z"/>
      </g>
    </g>
  </g></svg>
