<?xml version='1.0' encoding='UTF-8'?>
<!-- Created with Inkscape (http://www.inkscape.org/) and export_objects.py -->
<svg xmlns:cc="http://creativecommons.org/ns#" xmlns:dc="http://purl.org/dc/elements/1.1/" xmlns:inkscape="http://www.inkscape.org/namespaces/inkscape" xmlns:rdf="http://www.w3.org/1999/02/22-rdf-syntax-ns#" xmlns:sodipodi="http://sodipodi.sourceforge.net/DTD/sodipodi-0.dtd" xmlns:xlink="http://www.w3.org/1999/xlink" xmlns="http://www.w3.org/2000/svg" version="1.1" width="0.75000003125in" height="0.74999965625in" viewBox="0 0 19.0500007937 19.0499912687" id="svg8" inkscape:version="0.92.3 (2405546, 2018-03-11)" sodipodi:docname="dk-10.svg"><sodipodi:namedview id="base" pagecolor="#ffffff" bordercolor="#666666" borderopacity="1.0" inkscape:pageopacity="0.0" inkscape:pageshadow="2" inkscape:zoom="1.0266509" inkscape:cx="313.2" inkscape:cy="369.7173" inkscape:document-units="in" inkscape:current-layer="layer3" showgrid="true" units="in" inkscape:snap-others="true" inkscape:snap-grids="true" inkscape:window-width="1280" inkscape:window-height="940" inkscape:window-x="1909" inkscape:window-y="43" inkscape:window-maximized="1" inkscape:snap-midpoints="false" inkscape:object-nodes="true" inkscape:snap-text-baseline="true" inkscape:snap-smooth-nodes="false" showguides="false" inkscape:snap-object-midpoints="true" inkscape:snap-center="true" inkscape:snap-to-guides="false" inkscape:snap-nodes="true" inkscape:snap-intersection-paths="true" inkscape:snap-bbox="false" inkscape:bbox-nodes="true" inkscape:snap-bbox-edge-midpoints="true">
    <inkscape:grid type="xygrid" id="grid10" units="pt" spacingx="0.39687501" spacingy="0.39687501"/>
    <sodipodi:guide position="380.20625,103.1875" orientation="0,1" id="guide9455" inkscape:locked="false"/>
  </sodipodi:namedview>
  <metadata id="metadata5">
    <rdf:RDF>
      <cc:Work rdf:about="">
        <dc:format>image/svg+xml</dc:format>
        <dc:type rdf:resource="http://purl.org/dc/dcmitype/StillImage"/>
        <dc:title/>
      </cc:Work>
    </rdf:RDF>
  </metadata>
  <g inkscape:groupmode="layer" inkscape:label="dk-" transform="matrix(1.000000,0.000000,0.000000,1.000000,-38.100005,-73.025008)"><g id="g4630" inkscape:label="10">
      <rect style="display:inline;opacity:1;fill:#ffffff;fill-opacity:1;stroke:none;stroke-width:0.1763889;stroke-linecap:butt;stroke-linejoin:miter;stroke-miterlimit:47.14606857;stroke-dasharray:none;stroke-dashoffset:0;stroke-opacity:1;paint-order:markers fill stroke" id="rect3230" width="19.050001" height="19.049992" x="38.100006" y="73.025009"/>
      <path inkscape:connector-curvature="0" style="display:inline;opacity:1;fill:#000000;fill-opacity:1;stroke:none;stroke-width:0.07055556;stroke-linecap:butt;stroke-linejoin:miter;stroke-miterlimit:4;stroke-dasharray:none;stroke-dashoffset:0;paint-order:normal" d="m 51.593767,77.787504 c -0.911039,0 -1.708441,0.611889 -1.94424,1.49188 -0.235781,0.88002 0.148881,1.808631 0.9378,2.26414 -0.78898,-0.455509 -1.785559,-0.32426 -2.429759,0.319929 -0.644192,0.644199 -0.775351,1.64076 -0.319831,2.42974 0.45553,0.78898 1.38416,1.173602 2.264151,0.937821 0.52969,-0.141952 0.961969,-0.4875 1.222409,-0.938721 l -0.809191,3.020211 h 2.157331 l -0.809279,-3.020451 c 0.260408,0.451331 0.692701,0.79698 1.2225,0.938961 0.879991,0.235781 1.808699,-0.148881 2.26423,-0.937821 0.455509,-0.78898 0.324278,-1.785541 -0.319932,-2.42974 -0.644199,-0.64421 -1.640779,-0.775438 -2.429759,-0.319929 0.78898,-0.455509 1.173671,-1.384141 0.93789,-2.26414 -0.235799,-0.879991 -1.03329,-1.49188 -1.94432,-1.49188 z" id="path3328" inkscape:export-filename="C:\mine\Vira\Vira table excerpts\Tourne.png" inkscape:export-xdpi="96" inkscape:export-ydpi="96"/>
      <path d="m 39.626193,86.498098 h 0.91639 v -7.930607 l -1.12999,0.709689 v -0.76481 l 1.12999,-0.7028 h 0.8475 v 8.688528 h 0.916391 v 0.778592 h -2.680281 z" style="display:inline;font-style:normal;font-variant:normal;font-weight:normal;font-stretch:normal;font-size:14.11111164px;line-height:125%;font-family:'Stint Ultra Condensed';-inkscape-font-specification:'Stint Ultra Condensed, ';font-variant-ligatures:normal;font-variant-caps:normal;font-variant-numeric:normal;text-align:end;letter-spacing:0px;word-spacing:0px;writing-mode:lr-tb;text-anchor:end;fill:#000000;fill-opacity:1;stroke:none;stroke-width:0.26458335" id="path3330" inkscape:connector-curvature="0"/>
      <path d="m 46.888454,82.55002 q 0,1.29536 -0.151579,2.22553 -0.151591,0.930179 -0.420302,1.52963 -0.268718,0.59255 -0.640789,0.875049 -0.36518,0.2825 -0.792371,0.2825 -0.434089,0 -0.806159,-0.2825 -0.365181,-0.282499 -0.640781,-0.875049 -0.268719,-0.599451 -0.42031,-1.52963 -0.151579,-0.93017 -0.151579,-2.22553 0,-1.28846 0.151579,-2.21864 0.151591,-0.930179 0.42031,-1.529619 0.2756,-0.599451 0.640781,-0.881952 0.37207,-0.282498 0.806159,-0.282498 0.427191,0 0.792371,0.282498 0.372071,0.282501 0.640789,0.881952 0.268711,0.59944 0.420302,1.529619 0.151579,0.93018 0.151579,2.21864 z m -0.875051,0 q 0,-1.109321 -0.0896,-1.8948 -0.0827,-0.792369 -0.234259,-1.295361 -0.151591,-0.50298 -0.358289,-0.73725 -0.206711,-0.23426 -0.44786,-0.23426 -0.24116,0 -0.45476,0.23426 -0.206701,0.23427 -0.365181,0.73725 -0.15158,0.502992 -0.241149,1.295361 -0.0827,0.785479 -0.0827,1.8948 0,1.109319 0.0827,1.90169 0.0896,0.78549 0.241149,1.288471 0.15848,0.502978 0.365181,0.737248 0.2136,0.23427 0.45476,0.23427 0.241149,0 0.44786,-0.23427 0.206698,-0.23427 0.358289,-0.737248 0.151579,-0.509871 0.234259,-1.295361 0.0896,-0.785481 0.0896,-1.8948 z" style="display:inline;font-style:normal;font-variant:normal;font-weight:normal;font-stretch:normal;font-size:14.11111164px;line-height:125%;font-family:'Stint Ultra Condensed';-inkscape-font-specification:'Stint Ultra Condensed, ';font-variant-ligatures:normal;font-variant-caps:normal;font-variant-numeric:normal;text-align:end;letter-spacing:0px;word-spacing:0px;writing-mode:lr-tb;text-anchor:end;fill:#000000;fill-opacity:1;stroke:none;stroke-width:0.26458335" id="path3332" inkscape:connector-curvature="0"/>
      <path inkscape:connector-curvature="0" id="path3342" style="font-style:normal;font-variant:normal;font-weight:normal;font-stretch:normal;font-size:3.52777791px;line-height:100%;font-family:Paddington;-inkscape-font-specification:Paddington;font-variant-ligatures:normal;font-variant-caps:normal;font-variant-numeric:normal;text-align:center;letter-spacing:0px;word-spacing:0px;writing-mode:lr-tb;text-anchor:middle;display:inline;fill:#ffffff;fill-opacity:1;stroke:none;stroke-width:0.26458335" d="m 50.902659,80.962605 h -0.40923 v -2.282473 h 0.40923 z"/>
      <path inkscape:connector-curvature="0" id="path3344" style="font-style:normal;font-variant:normal;font-weight:normal;font-stretch:normal;font-size:3.52777791px;line-height:100%;font-family:Paddington;-inkscape-font-specification:Paddington;font-variant-ligatures:normal;font-variant-caps:normal;font-variant-numeric:normal;text-align:center;letter-spacing:0px;word-spacing:0px;writing-mode:lr-tb;text-anchor:middle;display:inline;fill:#ffffff;fill-opacity:1;stroke:none;stroke-width:0.26458335" d="m 52.800768,79.819605 q 0,0.416277 -0.16228,0.740834 -0.211669,0.419806 -0.613838,0.419806 -0.398632,0 -0.610301,-0.419806 -0.16228,-0.324557 -0.16228,-0.740834 0,-0.416277 0.16228,-0.740833 0.211669,-0.419807 0.610301,-0.419807 0.405699,0 0.613838,0.41628 0.16228,0.324556 0.16228,0.74436 z m -0.395118,0 q 0,-0.257527 -0.0741,-0.486833 -0.102299,-0.3175 -0.299858,-0.3175 -0.12347,0 -0.22225,0.169333 -0.0811,0.134057 -0.116422,0.313973 -0.0318,0.15875 -0.0318,0.321027 0,0.264584 0.0706,0.486834 0.0988,0.313973 0.299861,0.313973 0.20461,0 0.303389,-0.313973 0.0705,-0.22225 0.0705,-0.486834 z"/>
    </g>
    </g></svg>
