<?xml version='1.0' encoding='UTF-8'?>
<!-- Created with Inkscape (http://www.inkscape.org/) and export_objects.py -->
<svg xmlns:cc="http://creativecommons.org/ns#" xmlns:dc="http://purl.org/dc/elements/1.1/" xmlns:inkscape="http://www.inkscape.org/namespaces/inkscape" xmlns:rdf="http://www.w3.org/1999/02/22-rdf-syntax-ns#" xmlns:sodipodi="http://sodipodi.sourceforge.net/DTD/sodipodi-0.dtd" xmlns:xlink="http://www.w3.org/1999/xlink" xmlns="http://www.w3.org/2000/svg" version="1.1" width="0.75000003125in" height="0.74999965625in" viewBox="0 0 19.0500007937 19.0499912687" id="svg8" inkscape:version="0.92.3 (2405546, 2018-03-11)" sodipodi:docname="dk-23.svg"><sodipodi:namedview id="base" pagecolor="#ffffff" bordercolor="#666666" borderopacity="1.0" inkscape:pageopacity="0.0" inkscape:pageshadow="2" inkscape:zoom="1.0266509" inkscape:cx="313.2" inkscape:cy="369.7173" inkscape:document-units="in" inkscape:current-layer="layer3" showgrid="true" units="in" inkscape:snap-others="true" inkscape:snap-grids="true" inkscape:window-width="1280" inkscape:window-height="940" inkscape:window-x="1909" inkscape:window-y="43" inkscape:window-maximized="1" inkscape:snap-midpoints="false" inkscape:object-nodes="true" inkscape:snap-text-baseline="true" inkscape:snap-smooth-nodes="false" showguides="false" inkscape:snap-object-midpoints="true" inkscape:snap-center="true" inkscape:snap-to-guides="false" inkscape:snap-nodes="true" inkscape:snap-intersection-paths="true" inkscape:snap-bbox="false" inkscape:bbox-nodes="true" inkscape:snap-bbox-edge-midpoints="true">
    <inkscape:grid type="xygrid" id="grid10" units="pt" spacingx="0.39687501" spacingy="0.39687501"/>
    <sodipodi:guide position="380.20625,103.1875" orientation="0,1" id="guide9455" inkscape:locked="false"/>
  </sodipodi:namedview>
  <metadata id="metadata5">
    <rdf:RDF>
      <cc:Work rdf:about="">
        <dc:format>image/svg+xml</dc:format>
        <dc:type rdf:resource="http://purl.org/dc/dcmitype/StillImage"/>
        <dc:title/>
      </cc:Work>
    </rdf:RDF>
  </metadata>
  <g inkscape:groupmode="layer" inkscape:label="dk-" transform="matrix(1.000000,0.000000,0.000000,1.000000,-88.900008,-73.025000)"><g id="g4654" inkscape:label="23">
      <rect style="display:inline;opacity:1;fill:#d7f4d7;fill-opacity:1;stroke:none;stroke-width:0.1763889;stroke-linecap:butt;stroke-linejoin:miter;stroke-miterlimit:47.14606857;stroke-dasharray:none;stroke-dashoffset:0;stroke-opacity:1;paint-order:markers fill stroke" id="rect1217" width="19.050001" height="19.049992" x="88.900009" y="73.025002"/>
      <path d="M 96.382741,79.374999 V 79.041511 H 97.06625 V 75.77832 l -0.72209,0.27836 v -0.355531 l 1.121722,-0.391359 v 3.731721 h 0.677997 v 0.333488 z" style="display:inline;font-style:normal;font-variant:normal;font-weight:normal;font-stretch:normal;font-size:5.64444447px;line-height:100%;font-family:'Segoe Condensed';-inkscape-font-specification:'Segoe Condensed, ';font-variant-ligatures:normal;font-variant-caps:normal;font-variant-numeric:normal;text-align:center;letter-spacing:0px;word-spacing:0px;writing-mode:lr-tb;text-anchor:middle;fill:#000080;fill-opacity:1;stroke:none;stroke-width:0.26458335" id="path1727" inkscape:connector-curvature="0"/>
      <path d="m 98.628951,79.374999 v -0.322461 l 0.829569,-1.143769 q 0.37207,-0.512631 0.518152,-0.837849 0.146068,-0.32522 0.146068,-0.636651 0,-0.33624 -0.154339,-0.52366 -0.15159,-0.18741 -0.41892,-0.18741 -0.38586,0 -0.768951,0.405141 v -0.42168 q 0.377582,-0.339 0.851631,-0.339 0.427189,0 0.666969,0.272859 0.24253,0.27009 0.24253,0.738622 0,0.350028 -0.15158,0.716579 -0.15159,0.366559 -0.644919,1.01424 l -0.683511,0.909511 v 0.01101 h 1.46348 v 0.344511 z" style="display:inline;font-style:normal;font-variant:normal;font-weight:normal;font-stretch:normal;font-size:5.64444447px;line-height:100%;font-family:'Segoe Condensed';-inkscape-font-specification:'Segoe Condensed, ';font-variant-ligatures:normal;font-variant-caps:normal;font-variant-numeric:normal;text-align:center;letter-spacing:0px;word-spacing:0px;writing-mode:lr-tb;text-anchor:middle;fill:#000080;fill-opacity:1;stroke:none;stroke-width:0.26458335" id="path1729" inkscape:connector-curvature="0"/>
      <path inkscape:connector-curvature="0" style="display:inline;opacity:1;fill:#000000;fill-opacity:1;stroke:none;stroke-width:0.07055556;stroke-linecap:butt;stroke-linejoin:miter;stroke-miterlimit:4;stroke-dasharray:none;stroke-dashoffset:0;paint-order:normal" d="m 101.59998,80.168757 c -0.91104,0 -1.708442,0.611889 -1.944242,1.49189 -0.235788,0.88001 0.148871,1.80862 0.937802,2.26413 -0.788981,-0.45551 -1.785572,-0.32426 -2.429761,0.319939 -0.644191,0.644192 -0.77535,1.64075 -0.319841,2.42973 0.45553,0.788979 1.38416,1.173599 2.264162,0.937821 0.52969,-0.141941 0.96197,-0.4875 1.2224,-0.938721 l -0.80919,3.020208 h 2.15734 l -0.80929,-3.020449 c 0.26042,0.451332 0.6927,0.796992 1.2225,0.938962 0.87999,0.235778 1.8087,-0.148871 2.26423,-0.937821 0.45551,-0.78898 0.32428,-1.785538 -0.31993,-2.42973 -0.64419,-0.644221 -1.64077,-0.775449 -2.42976,-0.319939 0.78899,-0.45551 1.17368,-1.384142 0.9379,-2.26413 -0.2358,-0.880001 -1.0333,-1.49189 -1.94432,-1.49189 z" id="path3274" inkscape:export-filename="C:\mine\Vira\Vira table excerpts\Tourne.png" inkscape:export-xdpi="96" inkscape:export-ydpi="96"/>
      <path d="m 96.761694,84.869252 q 0,1.21267 -0.172254,2.101501 -0.165365,0.888841 -0.461643,1.495179 0.351399,0.21359 0.730362,0.36518 0.37896,0.15158 0.75103,0.21359 l -0.344511,0.86128 q -0.39274,-0.137808 -0.77859,-0.351398 -0.378962,-0.213601 -0.74414,-0.46854 -0.289388,0.351398 -0.640789,0.523658 -0.344509,0.172251 -0.737251,0.172251 -0.516763,0 -0.957737,-0.28939 -0.440973,-0.28938 -0.764809,-0.888831 -0.32384,-0.60634 -0.509876,-1.52962 -0.186034,-0.93018 -0.186034,-2.20486 0,-1.267799 0.186034,-2.191078 0.186036,-0.930183 0.509876,-1.53652 0.330729,-0.60633 0.771699,-0.895721 0.440973,-0.289391 0.950847,-0.289391 0.502986,0 0.943956,0.289391 0.440973,0.289391 0.75792,0.895721 0.32384,0.599448 0.509876,1.529627 0.186034,0.923282 0.186034,2.197971 z m -0.950846,0 q 0,-2.011939 -0.365178,-3.06614 -0.365183,-1.054201 -1.081762,-1.054201 -0.737251,0 -1.102429,1.06798 -0.365181,1.061091 -0.365181,3.052361 0,2.011931 0.365181,3.066132 0.365178,1.054198 1.102429,1.054198 0.434083,0 0.757922,-0.427189 -0.337621,-0.31006 -0.606337,-0.661461 l 0.351401,-0.551209 q 0.227375,0.330719 0.564994,0.62011 0.37896,-1.047311 0.37896,-3.100581 z" style="display:inline;font-style:normal;font-variant:normal;font-weight:normal;font-stretch:normal;font-size:14.11111164px;line-height:125%;font-family:'Stint Ultra Condensed';-inkscape-font-specification:'Stint Ultra Condensed, ';font-variant-ligatures:normal;font-variant-caps:normal;font-variant-numeric:normal;text-align:end;letter-spacing:0px;word-spacing:0px;writing-mode:lr-tb;text-anchor:end;fill:#000000;fill-opacity:1;stroke:none;stroke-width:0.26458335" id="path3276" inkscape:connector-curvature="0"/>
      <path inkscape:connector-curvature="0" id="path3372" style="font-style:normal;font-variant:normal;font-weight:normal;font-stretch:normal;font-size:3.52777791px;line-height:100%;font-family:Paddington;-inkscape-font-specification:Paddington;font-variant-ligatures:normal;font-variant-caps:normal;font-variant-numeric:normal;text-align:center;letter-spacing:0px;word-spacing:0px;writing-mode:lr-tb;text-anchor:middle;display:inline;fill:#ffffff;fill-opacity:1;stroke:none;stroke-width:0.26458335" d="m 102.41566,84.176308 -0.50447,0.881944 q 0.20814,0.07408 0.33161,0.289277 0.11642,0.194029 0.11642,0.41275 0,0.313973 -0.23637,0.518583 -0.23636,0.201084 -0.56797,0.201084 -0.13053,0 -0.24341,-0.03881 -0.14464,-0.04939 -0.27517,-0.151694 -0.16581,-0.127 -0.19403,-0.261057 l 0.26458,-0.278693 h 0.0212 q 0.17992,0.34572 0.45509,0.34572 0.13405,0 0.23636,-0.09525 0.1023,-0.09525 0.1023,-0.232833 0,-0.243417 -0.16933,-0.34572 -0.14817,-0.08819 -0.45508,-0.08819 l 0.46214,-0.79728 h -0.88548 v -0.359831 z"/>
      <g transform="matrix(0.80137107,0,0,0.80137107,15.09202,13.776391)" id="text4542" style="font-style:normal;font-variant:normal;font-weight:normal;font-stretch:normal;font-size:3.52777791px;line-height:100%;font-family:'Segoe Condensed';-inkscape-font-specification:'Segoe Condensed, ';font-variant-ligatures:normal;font-variant-caps:normal;font-variant-numeric:normal;text-align:start;letter-spacing:0px;word-spacing:0px;writing-mode:lr-tb;text-anchor:start;display:inline;fill:#ffffff;fill-opacity:1;stroke:none;stroke-width:0.33016333" aria-label="👵">
        <path inkscape:connector-curvature="0" id="path4587" style="font-size:3.52777791px;fill:#ffffff;stroke-width:0.33016333" d="m 109.37627,84.210194 q 0.11541,0 0.21532,0.04479 0.10163,0.04306 0.1757,0.120579 0.0758,0.07579 0.11886,0.177422 0.0448,0.10163 0.0448,0.215318 v 1.112766 q 0,0.201538 -0.0724,0.384129 -0.0723,0.180867 -0.19981,0.322116 -0.12747,0.141249 -0.30145,0.230821 -0.17225,0.0913 -0.37379,0.110243 -0.21876,0.18259 -0.48404,0.279053 -0.26527,0.09819 -0.54949,0.09819 -0.28422,0 -0.54949,-0.09819 -0.26527,-0.09646 -0.48404,-0.279053 -0.20154,-0.01895 -0.37551,-0.110243 -0.17226,-0.08957 -0.29973,-0.230821 -0.12746,-0.141249 -0.19981,-0.322116 -0.0724,-0.182591 -0.0724,-0.384129 v -1.112766 q 0,-0.113688 0.0431,-0.215318 0.0448,-0.10163 0.11886,-0.177422 0.0758,-0.07751 0.1757,-0.120579 0.10163,-0.04479 0.21704,-0.04479 0.10335,-0.199816 0.25494,-0.360013 0.15158,-0.160196 0.3359,-0.272162 0.18603,-0.113688 0.3979,-0.173977 0.21188,-0.06029 0.43753,-0.06029 0.22393,0 0.43581,0.06029 0.21359,0.06029 0.3979,0.173977 0.18604,0.111966 0.33762,0.272162 0.15159,0.160197 0.25494,0.360013 z m 0.30661,0.558105 q 0,-0.06373 -0.0241,-0.120578 -0.0241,-0.05684 -0.0672,-0.09819 -0.0413,-0.04306 -0.0982,-0.06718 -0.0551,-0.02412 -0.11885,-0.02412 h -0.15675 q -0.0758,-0.196371 -0.20499,-0.356568 -0.12747,-0.160196 -0.29455,-0.272162 -0.16709,-0.113688 -0.36346,-0.1757 -0.19465,-0.06201 -0.4048,-0.06201 -0.21015,0 -0.40652,0.06201 -0.19465,0.06201 -0.36174,0.1757 -0.16708,0.111966 -0.29627,0.272162 -0.12747,0.160197 -0.20326,0.356568 h -0.15676 q -0.0637,0 -0.12057,0.02412 -0.0551,0.02412 -0.0982,0.06718 -0.0413,0.04134 -0.0655,0.09819 -0.0241,0.05684 -0.0241,0.120578 v 1.112766 q 0,0.142972 0.0465,0.272163 0.0465,0.127468 0.13091,0.232544 0.0844,0.105075 0.19982,0.177422 0.11713,0.07407 0.25493,0.105076 -0.0603,-0.07407 -0.11196,-0.15503 -0.0517,-0.08096 -0.0879,-0.168809 v -1.576132 h 0.18603 q 0.24288,0 0.44614,-0.08785 0.20326,-0.08957 0.38069,-0.253215 l 0.53226,-0.45992 q 0.14642,0.363457 0.40652,0.56155 0.26011,0.196371 0.6494,0.237712 v 1.577854 q -0.0258,0.04306 -0.0482,0.08441 -0.0224,0.03962 -0.0448,0.07924 -0.0207,0.03962 -0.0465,0.07924 -0.0258,0.03962 -0.0603,0.08096 0.1378,-0.03101 0.25321,-0.105076 0.11714,-0.07407 0.19982,-0.177422 0.0844,-0.105076 0.13091,-0.234267 0.0482,-0.129191 0.0482,-0.27044 z M 107.95,87.057565 q 0.19293,0 0.36863,-0.04995 0.17742,-0.04995 0.329,-0.146417 0.15159,-0.09474 0.27389,-0.232544 0.1223,-0.137804 0.20498,-0.311781 v -0.62184 q -0.0448,0.05684 -0.11196,0.0913 -0.0655,0.03273 -0.13781,0.03273 h -0.49437 q -0.0517,0 -0.10163,-0.0155 -0.05,-0.01723 -0.0913,-0.04995 -0.0103,0.04134 -0.0345,0.07579 -0.0224,0.03445 -0.0551,0.06029 -0.031,0.02584 -0.0706,0.03962 -0.0379,0.01378 -0.081,0.01378 -0.0431,0 -0.0827,-0.01378 -0.0379,-0.01378 -0.0706,-0.03962 -0.031,-0.02584 -0.0551,-0.06029 -0.0224,-0.03445 -0.0327,-0.07579 -0.0396,0.03273 -0.0896,0.04995 -0.0499,0.0155 -0.10163,0.0155 h -0.49609 q -0.0724,0 -0.13781,-0.03273 -0.0637,-0.03273 -0.10852,-0.08785 v 0.618395 q 0.0827,0.173977 0.20498,0.311781 0.12231,0.137804 0.27389,0.232544 0.15158,0.09646 0.32728,0.146417 0.17743,0.04995 0.37035,0.04995 z m 1.1765,-1.732883 V 84.87682 q -0.15675,-0.02412 -0.30317,-0.08268 -0.14469,-0.06029 -0.27216,-0.149862 -0.12575,-0.0913 -0.2291,-0.210151 -0.10335,-0.118856 -0.17398,-0.261827 l -0.44097,0.382406 q -0.10507,0.0913 -0.21187,0.155029 -0.1068,0.06373 -0.22221,0.105075 -0.11369,0.03962 -0.23771,0.05857 -0.12403,0.01895 -0.26183,0.01895 v 0.432359 h 0.30834 v -0.186035 q 0,-0.0379 0.0138,-0.07062 0.0155,-0.03445 0.0413,-0.06029 0.0258,-0.02584 0.0586,-0.03962 0.0344,-0.0155 0.0723,-0.0155 0.0379,0 0.0706,0.0155 0.0345,0.01378 0.0603,0.03962 0.0258,0.02584 0.0396,0.06029 0.0155,0.03273 0.0155,0.07062 v 0.186035 h 0.28077 q 0.0345,-0.05512 0.0913,-0.08957 0.0568,-0.03445 0.1223,-0.03445 0.0655,0 0.1223,0.03445 0.0568,0.03445 0.0913,0.08957 h 0.2825 v -0.186035 q 0,-0.0379 0.0138,-0.07062 0.0155,-0.03445 0.0413,-0.06029 0.0258,-0.02584 0.0586,-0.03962 0.0345,-0.0155 0.0724,-0.0155 0.0379,0 0.0706,0.0155 0.0344,0.01378 0.0586,0.03962 0.0258,0.02584 0.0396,0.06029 0.0155,0.03273 0.0155,0.07062 v 0.186035 z m -1.1765,0.990465 q 0.0637,0 0.12058,-0.01895 0.0568,-0.01895 0.10335,-0.04134 0.0482,-0.02411 0.0844,-0.04306 0.0379,-0.02067 0.0637,-0.02067 0.05,0 0.0861,0.0379 0.0379,0.03617 0.0379,0.08613 0,0.04134 -0.0276,0.07579 -0.0276,0.03445 -0.0723,0.06201 -0.0448,0.02756 -0.0999,0.04823 -0.0551,0.02067 -0.11024,0.03445 -0.0551,0.01378 -0.10508,0.02067 -0.0482,0.0069 -0.081,0.0069 -0.0327,0 -0.0827,-0.0069 -0.0482,-0.0069 -0.10335,-0.02067 -0.0551,-0.01378 -0.11025,-0.03445 -0.0551,-0.02067 -0.0999,-0.04823 -0.0448,-0.02756 -0.0724,-0.06201 -0.0276,-0.03445 -0.0276,-0.07579 0,-0.04995 0.0362,-0.08613 0.0379,-0.0379 0.0878,-0.0379 0.0258,0 0.062,0.02067 0.0379,0.01895 0.0844,0.04306 0.0482,0.02239 0.10335,0.04134 0.0568,0.01895 0.1223,0.01895 z m -1.11621,-0.866441 v 0.06201 q 0,0.0379 0.0138,0.07235 0.0155,0.03273 0.0413,0.05857 0.0258,0.02584 0.0586,0.04134 0.0345,0.01378 0.0724,0.01378 h 0.49609 q 0.0379,0 0.0706,-0.01378 0.0345,-0.0155 0.0586,-0.04134 0.0258,-0.02584 0.0396,-0.05857 0.0155,-0.03445 0.0155,-0.07235 v -0.06201 z m 1.36254,0 v 0.06201 q 0,0.0379 0.0138,0.07235 0.0155,0.03273 0.0413,0.05857 0.0258,0.02584 0.0586,0.04134 0.0344,0.01378 0.0724,0.01378 h 0.49437 q 0.0379,0 0.0706,-0.01378 0.0344,-0.0155 0.0603,-0.04134 0.0258,-0.02584 0.0396,-0.05857 0.0155,-0.03445 0.0155,-0.07235 v -0.06201 z m -0.062,0.248047 q -0.031,-0.03962 -0.0465,-0.08785 -0.0155,-0.04823 -0.0155,-0.09819 v -0.06201 q 0,-0.05168 -0.0362,-0.08785 -0.0362,-0.03617 -0.0879,-0.03617 -0.0517,0 -0.0879,0.03617 -0.0362,0.03617 -0.0362,0.08785 v 0.06201 q 0,0.04995 -0.0155,0.09819 -0.0155,0.04823 -0.0465,0.08785 z"/>
      </g>
    </g>
    </g></svg>
