<?xml version='1.0' encoding='UTF-8'?>
<!-- Created with Inkscape (http://www.inkscape.org/) and export_objects.py -->
<svg xmlns:cc="http://creativecommons.org/ns#" xmlns:dc="http://purl.org/dc/elements/1.1/" xmlns:inkscape="http://www.inkscape.org/namespaces/inkscape" xmlns:rdf="http://www.w3.org/1999/02/22-rdf-syntax-ns#" xmlns:sodipodi="http://sodipodi.sourceforge.net/DTD/sodipodi-0.dtd" xmlns:xlink="http://www.w3.org/1999/xlink" xmlns="http://www.w3.org/2000/svg" version="1.1" width="0.75000003125in" height="0.750000177083in" viewBox="0 0 19.0500007937 19.0500044979" id="svg8" inkscape:version="0.92.3 (2405546, 2018-03-11)" sodipodi:docname="dk-21.svg"><sodipodi:namedview id="base" pagecolor="#ffffff" bordercolor="#666666" borderopacity="1.0" inkscape:pageopacity="0.0" inkscape:pageshadow="2" inkscape:zoom="1.0266509" inkscape:cx="313.2" inkscape:cy="369.7173" inkscape:document-units="in" inkscape:current-layer="layer3" showgrid="true" units="in" inkscape:snap-others="true" inkscape:snap-grids="true" inkscape:window-width="1280" inkscape:window-height="940" inkscape:window-x="1909" inkscape:window-y="43" inkscape:window-maximized="1" inkscape:snap-midpoints="false" inkscape:object-nodes="true" inkscape:snap-text-baseline="true" inkscape:snap-smooth-nodes="false" showguides="false" inkscape:snap-object-midpoints="true" inkscape:snap-center="true" inkscape:snap-to-guides="false" inkscape:snap-nodes="true" inkscape:snap-intersection-paths="true" inkscape:snap-bbox="false" inkscape:bbox-nodes="true" inkscape:snap-bbox-edge-midpoints="true">
    <inkscape:grid type="xygrid" id="grid10" units="pt" spacingx="0.39687501" spacingy="0.39687501"/>
    <sodipodi:guide position="380.20625,103.1875" orientation="0,1" id="guide9455" inkscape:locked="false"/>
  </sodipodi:namedview>
  <metadata id="metadata5">
    <rdf:RDF>
      <cc:Work rdf:about="">
        <dc:format>image/svg+xml</dc:format>
        <dc:type rdf:resource="http://purl.org/dc/dcmitype/StillImage"/>
        <dc:title/>
      </cc:Work>
    </rdf:RDF>
  </metadata>
  <g inkscape:groupmode="layer" inkscape:label="dk-" transform="matrix(1.000000,0.000000,0.000000,1.000000,-38.100005,-149.225003)"><g id="g4828" inkscape:label="21">
      <rect y="149.22501" x="38.100006" height="19.050005" width="19.050001" id="rect1213" style="display:inline;opacity:1;fill:#ffffff;fill-opacity:1;stroke:none;stroke-width:0.1763889;stroke-linecap:butt;stroke-linejoin:miter;stroke-miterlimit:47.14606857;stroke-dasharray:none;stroke-dashoffset:0;stroke-opacity:1;paint-order:markers fill stroke"/>
      <path d="m 46.68794,155.42893 v -0.42444 q 0.32797,0.27837 0.67248,0.27837 0.32798,0 0.52641,-0.21222 0.201199,-0.21497 0.201199,-0.56775 0,-0.38585 -0.22325,-0.5898 -0.223239,-0.20671 -0.617359,-0.20671 h -0.24804 v -0.35002 h 0.19843 q 0.37207,0 0.57327,-0.19844 0.203951,-0.19843 0.203951,-0.55121 0,-0.31419 -0.148831,-0.49885 -0.14883,-0.18466 -0.42719,-0.18466 -0.27285,0 -0.59256,0.25907 v -0.39963 q 0.31695,-0.21497 0.68902,-0.21497 0.418921,0 0.655951,0.26182 0.237019,0.25908 0.237019,0.69178 0,0.77446 -0.639411,0.98667 v 0.0138 q 0.35002,0.0717 0.553972,0.32797 0.203948,0.25631 0.203948,0.63665 0,0.51263 -0.305919,0.82958 -0.30317,0.31419 -0.80202,0.31419 -0.4079,0 -0.71107,-0.20119 z" style="display:inline;font-style:normal;font-variant:normal;font-weight:normal;font-stretch:normal;font-size:5.64444447px;line-height:100%;font-family:'Segoe Condensed';-inkscape-font-specification:'Segoe Condensed, ';font-variant-ligatures:normal;font-variant-caps:normal;font-variant-numeric:normal;text-align:center;letter-spacing:0px;word-spacing:0px;writing-mode:lr-tb;text-anchor:middle;fill:#000080;fill-opacity:1;stroke:none;stroke-width:0.26458335" id="path1743" inkscape:connector-curvature="0"/>
      <path style="display:inline;opacity:1;fill:#800000;fill-opacity:1;stroke:none;stroke-width:0.07055555;stroke-linecap:butt;stroke-linejoin:miter;stroke-miterlimit:4;stroke-dasharray:none;stroke-dashoffset:0;paint-order:normal" d="m 51.593738,156.36875 -4.02573,4.7625 4.02573,4.7625 4.02576,-4.7625 z" id="path3320" inkscape:connector-curvature="0" inkscape:export-filename="C:\mine\Vira\Vira table excerpts\diamond-icon.png" inkscape:export-xdpi="96" inkscape:export-ydpi="96"/>
      <path d="m 39.626168,165.07934 h 0.91639 v -7.93061 l -1.12999,0.70969 v -0.76481 l 1.12999,-0.7028 h 0.8475 v 8.68853 h 0.91639 v 0.77859 h -2.68028 z" style="display:inline;font-style:normal;font-variant:normal;font-weight:normal;font-stretch:normal;font-size:14.11111164px;line-height:125%;font-family:'Stint Ultra Condensed';-inkscape-font-specification:'Stint Ultra Condensed, ';font-variant-ligatures:normal;font-variant-caps:normal;font-variant-numeric:normal;text-align:end;letter-spacing:0px;word-spacing:0px;writing-mode:lr-tb;text-anchor:end;fill:#800000;fill-opacity:1;stroke:none;stroke-width:0.26458335" id="path3322" inkscape:connector-curvature="0"/>
      <path d="m 46.888428,161.13126 q 0,1.29536 -0.15158,2.22553 -0.15159,0.93018 -0.420299,1.52962 -0.268721,0.59256 -0.640791,0.87506 -0.365181,0.2825 -0.792369,0.2825 -0.434091,0 -0.806162,-0.2825 -0.365178,-0.2825 -0.640778,-0.87506 -0.268722,-0.59944 -0.420312,-1.52962 -0.15158,-0.93017 -0.15158,-2.22553 0,-1.28847 0.15158,-2.21864 0.15159,-0.93018 0.420312,-1.52962 0.2756,-0.59945 0.640778,-0.88195 0.372071,-0.2825 0.806162,-0.2825 0.427188,0 0.792369,0.2825 0.37207,0.2825 0.640791,0.88195 0.268709,0.59944 0.420299,1.52962 0.15158,0.93017 0.15158,2.21864 z m -0.875049,0 q 0,-1.10932 -0.0896,-1.8948 -0.0827,-0.79237 -0.234259,-1.29536 -0.151591,-0.50298 -0.358291,-0.73725 -0.206708,-0.23427 -0.44786,-0.23427 -0.24116,0 -0.454761,0.23427 -0.206698,0.23427 -0.365178,0.73725 -0.15158,0.50299 -0.241152,1.29536 -0.0827,0.78548 -0.0827,1.8948 0,1.10932 0.0827,1.90169 0.0896,0.78548 0.241152,1.28847 0.15848,0.50298 0.365178,0.73725 0.213601,0.23427 0.454761,0.23427 0.241152,0 0.44786,-0.23427 0.2067,-0.23427 0.358291,-0.73725 0.15158,-0.50988 0.234259,-1.29536 0.0896,-0.78548 0.0896,-1.8948 z" style="display:inline;font-style:normal;font-variant:normal;font-weight:normal;font-stretch:normal;font-size:14.11111164px;line-height:125%;font-family:'Stint Ultra Condensed';-inkscape-font-specification:'Stint Ultra Condensed, ';font-variant-ligatures:normal;font-variant-caps:normal;font-variant-numeric:normal;text-align:end;letter-spacing:0px;word-spacing:0px;writing-mode:lr-tb;text-anchor:end;fill:#800000;fill-opacity:1;stroke:none;stroke-width:0.26458335" id="path3324" inkscape:connector-curvature="0"/>
      <path inkscape:connector-curvature="0" id="path3410" style="font-style:normal;font-variant:normal;font-weight:normal;font-stretch:normal;font-size:3.52777791px;line-height:100%;font-family:Paddington;-inkscape-font-specification:Paddington;font-variant-ligatures:normal;font-variant-caps:normal;font-variant-numeric:normal;text-align:center;letter-spacing:0px;word-spacing:0px;writing-mode:lr-tb;text-anchor:middle;display:inline;fill:#ffffff;fill-opacity:1;stroke:none;stroke-width:0.26458335" d="m 50.849308,162.27427 h -0.40922 v -2.28247 h 0.40922 z"/>
      <path inkscape:connector-curvature="0" id="path3412" style="font-style:normal;font-variant:normal;font-weight:normal;font-stretch:normal;font-size:3.52777791px;line-height:100%;font-family:Paddington;-inkscape-font-specification:Paddington;font-variant-ligatures:normal;font-variant-caps:normal;font-variant-numeric:normal;text-align:center;letter-spacing:0px;word-spacing:0px;writing-mode:lr-tb;text-anchor:middle;display:inline;fill:#ffffff;fill-opacity:1;stroke:none;stroke-width:0.26458335" d="m 52.747417,161.13127 q 0,0.41628 -0.162269,0.74084 -0.211669,0.4198 -0.613841,0.4198 -0.39864,0 -0.610298,-0.4198 -0.16228,-0.32456 -0.16228,-0.74084 0,-0.41627 0.16228,-0.74083 0.211658,-0.41981 0.610298,-0.41981 0.405702,0 0.613841,0.41628 0.162269,0.32456 0.162269,0.74436 z m -0.39511,0 q 0,-0.25752 -0.0741,-0.48683 -0.102309,-0.3175 -0.29986,-0.3175 -0.123471,0 -0.22225,0.16933 -0.0811,0.13406 -0.11642,0.31398 -0.0318,0.15875 -0.0318,0.32102 0,0.26459 0.0706,0.48684 0.0988,0.31397 0.299858,0.31397 0.20461,0 0.303392,-0.31397 0.0705,-0.22225 0.0705,-0.48684 z"/>
    </g>
    </g></svg>
