<?xml version='1.0' encoding='UTF-8'?>
<!-- Created with Inkscape (http://www.inkscape.org/) and export_objects.py -->
<svg xmlns:cc="http://creativecommons.org/ns#" xmlns:dc="http://purl.org/dc/elements/1.1/" xmlns:inkscape="http://www.inkscape.org/namespaces/inkscape" xmlns:rdf="http://www.w3.org/1999/02/22-rdf-syntax-ns#" xmlns:sodipodi="http://sodipodi.sourceforge.net/DTD/sodipodi-0.dtd" xmlns:xlink="http://www.w3.org/1999/xlink" xmlns="http://www.w3.org/2000/svg" version="1.1" width="0.75000003125in" height="0.750000177083in" viewBox="0 0 19.0500007937 19.0500044979" id="svg8" inkscape:version="0.92.3 (2405546, 2018-03-11)" sodipodi:docname="dk-22.svg"><sodipodi:namedview id="base" pagecolor="#ffffff" bordercolor="#666666" borderopacity="1.0" inkscape:pageopacity="0.0" inkscape:pageshadow="2" inkscape:zoom="1.0266509" inkscape:cx="313.2" inkscape:cy="369.7173" inkscape:document-units="in" inkscape:current-layer="layer3" showgrid="true" units="in" inkscape:snap-others="true" inkscape:snap-grids="true" inkscape:window-width="1280" inkscape:window-height="940" inkscape:window-x="1909" inkscape:window-y="43" inkscape:window-maximized="1" inkscape:snap-midpoints="false" inkscape:object-nodes="true" inkscape:snap-text-baseline="true" inkscape:snap-smooth-nodes="false" showguides="false" inkscape:snap-object-midpoints="true" inkscape:snap-center="true" inkscape:snap-to-guides="false" inkscape:snap-nodes="true" inkscape:snap-intersection-paths="true" inkscape:snap-bbox="false" inkscape:bbox-nodes="true" inkscape:snap-bbox-edge-midpoints="true">
    <inkscape:grid type="xygrid" id="grid10" units="pt" spacingx="0.39687501" spacingy="0.39687501"/>
    <sodipodi:guide position="380.20625,103.1875" orientation="0,1" id="guide9455" inkscape:locked="false"/>
  </sodipodi:namedview>
  <metadata id="metadata5">
    <rdf:RDF>
      <cc:Work rdf:about="">
        <dc:format>image/svg+xml</dc:format>
        <dc:type rdf:resource="http://purl.org/dc/dcmitype/StillImage"/>
        <dc:title/>
      </cc:Work>
    </rdf:RDF>
  </metadata>
  <g inkscape:groupmode="layer" inkscape:label="dk-" transform="matrix(1.000000,0.000000,0.000000,1.000000,-12.700001,-149.225003)"><g id="g4814" inkscape:label="22">
      <rect style="display:inline;opacity:1;fill:#dcc078;fill-opacity:1;stroke:none;stroke-width:0.1763889;stroke-linecap:butt;stroke-linejoin:miter;stroke-miterlimit:47.14606857;stroke-dasharray:none;stroke-dashoffset:0;stroke-opacity:1;paint-order:markers fill stroke" id="rect1211" width="19.050001" height="19.050005" x="12.700001" y="149.22501"/>
      <path d="m 22.86992,154.49738 v 1.07762 h -0.38585 v -1.07762 h -1.40284 v -0.27837 l 1.39181,-2.59622 h 0.39688 v 2.56315 h 0.39963 v 0.31144 z m -0.38585,-2.32613 q -0.0248,0.0606 -0.0496,0.13229 -0.0276,0.0744 -0.0606,0.13229 l -0.95085,1.75011 h 1.06109 v -1.60679 q 0,-0.13505 0.0138,-0.4079 z" style="display:inline;font-style:normal;font-variant:normal;font-weight:normal;font-stretch:normal;font-size:5.64444447px;line-height:100%;font-family:'Segoe Condensed';-inkscape-font-specification:'Segoe Condensed, ';font-variant-ligatures:normal;font-variant-caps:normal;font-variant-numeric:normal;text-align:center;letter-spacing:0px;word-spacing:0px;writing-mode:lr-tb;text-anchor:middle;fill:#000080;fill-opacity:1;stroke:none;stroke-width:0.26458335" id="path1746" inkscape:connector-curvature="0"/>
      <path inkscape:export-ydpi="96" inkscape:export-xdpi="96" inkscape:export-filename="C:\mine\Vira\Vira table excerpts\diamond-icon.png" inkscape:connector-curvature="0" id="path3244" d="m 25.399992,156.36876 -4.02573,4.7625 4.02573,4.7625 4.02575,-4.7625 z" style="display:inline;opacity:1;fill:#800000;fill-opacity:1;stroke:none;stroke-width:0.07055555;stroke-linecap:butt;stroke-linejoin:miter;stroke-miterlimit:4;stroke-dasharray:none;stroke-dashoffset:0;paint-order:normal"/>
      <path d="m 18.646231,162.64711 h -1.391819 l -0.337619,2.43913 h 0.74414 v 0.77859 h -2.232422 v -0.77859 h 0.654568 l 1.267796,-7.91683 h -0.930176 v -0.7717 h 2.018826 l 1.426269,8.68853 h 0.633898 v 0.77859 H 18.26727 v -0.77859 h 0.751031 z m -1.295356,-0.73036 h 1.185112 l -0.606336,-4.12033 z" style="display:inline;font-style:normal;font-variant:normal;font-weight:normal;font-stretch:normal;font-size:14.11111164px;line-height:125%;font-family:'Stint Ultra Condensed';-inkscape-font-specification:'Stint Ultra Condensed, ';font-variant-ligatures:normal;font-variant-caps:normal;font-variant-numeric:normal;text-align:end;letter-spacing:0px;word-spacing:0px;writing-mode:lr-tb;text-anchor:end;fill:#800000;fill-opacity:1;stroke:none;stroke-width:0.26458335" id="path3246" inkscape:connector-curvature="0"/>
      <g transform="translate(-8.1704149,99.218749)" id="g4576">
        <path d="m 33.337501,60.672487 h -0.409223 v -2.282471 h 0.409223 z" style="font-style:normal;font-variant:normal;font-weight:normal;font-stretch:normal;font-size:3.52777791px;line-height:100%;font-family:Paddington;-inkscape-font-specification:Paddington;font-variant-ligatures:normal;font-variant-caps:normal;font-variant-numeric:normal;text-align:center;letter-spacing:0px;word-spacing:0px;writing-mode:lr-tb;text-anchor:middle;display:inline;fill:#ffffff;fill-opacity:1;stroke:none;stroke-width:0.26458335" id="path3404" inkscape:connector-curvature="0"/>
        <path d="m 34.212555,60.672487 h -0.409222 v -2.282471 h 0.409222 z" style="font-style:normal;font-variant:normal;font-weight:normal;font-stretch:normal;font-size:3.52777791px;line-height:100%;font-family:Paddington;-inkscape-font-specification:Paddington;font-variant-ligatures:normal;font-variant-caps:normal;font-variant-numeric:normal;text-align:center;letter-spacing:0px;word-spacing:0px;writing-mode:lr-tb;text-anchor:middle;display:inline;fill:#ffffff;fill-opacity:1;stroke:none;stroke-width:0.26458335" id="path3406" inkscape:connector-curvature="0"/>
      </g>
      <g transform="translate(1.6970617e-6,101.99945)" id="text4538" style="font-style:normal;font-variant:normal;font-weight:normal;font-stretch:normal;font-size:3.52777791px;line-height:100%;font-family:'Segoe Condensed';-inkscape-font-specification:'Segoe Condensed, ';font-variant-ligatures:normal;font-variant-caps:normal;font-variant-numeric:normal;text-align:start;letter-spacing:0px;word-spacing:0px;writing-mode:lr-tb;text-anchor:start;display:inline;fill:#ffffff;fill-opacity:1;stroke:none;stroke-width:0.26458335" aria-label="🦊">
        <path inkscape:connector-curvature="0" id="path4578" style="font-size:3.52777791px;fill:#ffffff;stroke-width:0.26458335" d="m 27.100155,60.944258 0.199815,0.37207 h -1.033528 q -0.04995,0 -0.08785,0.03617 -0.03617,0.03617 -0.03617,0.08613 v 0.124024 q 0,0.153306 -0.05857,0.287665 -0.05857,0.136081 -0.160197,0.237712 -0.09991,0.10163 -0.235989,0.160197 -0.134359,0.05857 -0.287666,0.05857 -0.153307,0 -0.289388,-0.05857 -0.134359,-0.05857 -0.235989,-0.160197 -0.09991,-0.101631 -0.158474,-0.237712 -0.05857,-0.134359 -0.05857,-0.287665 v -0.124024 q 0,-0.04995 -0.0379,-0.08613 -0.03617,-0.03617 -0.08613,-0.03617 H 23.50003 l 0.199815,-0.37207 H 23.41907 l 0.496094,-0.990465 v -1.238512 q 0,-0.07751 0.02928,-0.144694 0.02928,-0.06718 0.07924,-0.117133 0.04995,-0.05168 0.117134,-0.08096 0.06718,-0.02928 0.144694,-0.02928 0.07235,0 0.134358,0.02584 0.06374,0.02584 0.117134,0.07407 l 0.709689,0.644232 h 0.303169 l 0.71658,-0.645955 q 0.10852,-0.09819 0.248047,-0.09819 0.07751,0 0.144694,0.02928 0.06718,0.02928 0.117133,0.08096 0.05168,0.04995 0.08096,0.117133 0.02928,0.06718 0.02928,0.144694 v 1.238512 l 0.494371,0.990465 z m -2.938667,-0.618395 0.806153,0.494371 q 0.04823,0.02928 0.0844,0.05685 0.03617,0.02584 0.05857,0.05857 0.02239,0.03101 0.03273,0.07235 0.01206,0.04134 0.01206,0.09991 0,0.05168 -0.0017,0.105075 -0.0017,0.05168 -0.0017,0.103353 h 0.496094 q 0,-0.03273 -0.0017,-0.07579 -0.0017,-0.04479 -0.0017,-0.09129 0,-0.04995 0.0034,-0.09474 0.0034,-0.04651 0.01723,-0.08096 0.02067,-0.04995 0.0689,-0.08613 0.04995,-0.03617 0.09474,-0.06373 l 0.0052,-0.0034 0.80443,-0.494371 v -0.620117 l -0.520209,-0.298001 q -0.02412,-0.01378 -0.03962,-0.0379 -0.0155,-0.02584 -0.0155,-0.05512 0,-0.01895 0.0069,-0.03962 0.0086,-0.02067 0.02239,-0.03445 l 0.546048,-0.492649 v -0.03273 q 0,-0.05168 -0.03617,-0.08785 -0.03617,-0.03617 -0.08785,-0.03617 -0.04479,0 -0.08268,0.03273 -0.198093,0.177422 -0.392741,0.354845 -0.194648,0.177422 -0.392741,0.354845 h -0.496093 l -0.780314,-0.70969 q -0.0155,-0.01378 -0.03962,-0.02239 -0.02412,-0.01033 -0.04479,-0.01033 -0.03617,0 -0.06029,0.01378 -0.02412,0.01378 -0.0379,0.03617 -0.01378,0.02067 -0.02067,0.04995 -0.0052,0.02756 -0.0052,0.05857 l 0.544325,0.490926 q 0.01378,0.01378 0.02067,0.03445 0.0086,0.02067 0.0086,0.03962 0,0.02756 -0.0155,0.0534 -0.01378,0.02584 -0.0379,0.03962 l -0.52021,0.296279 z m 2.525255,0.370348 h 0.323839 l -0.248047,-0.461643 v 0.160197 l -0.862996,0.530545 q -0.02067,0.01378 -0.04306,0.02756 -0.02239,0.01206 -0.04134,0.02928 -0.01895,0.0155 -0.03101,0.0379 -0.01206,0.02067 -0.01206,0.04823 v 0.370348 l -0.28422,0.335897 q -0.01378,0.01722 -0.03962,0.02584 -0.02584,0.01033 -0.04823,0.01033 -0.02239,0 -0.04823,-0.01033 -0.02584,-0.0086 -0.03962,-0.02584 L 25.029651,61.438628 V 61.06828 q 0,-0.02412 -0.01033,-0.04306 -0.01034,-0.02067 -0.02756,-0.03617 -0.0155,-0.01722 -0.03617,-0.02928 -0.02067,-0.01378 -0.03962,-0.02584 l -0.09474,-0.06029 q -0.194648,-0.1223 -0.391018,-0.242879 -0.194648,-0.120578 -0.392741,-0.235989 v -0.160197 l -0.246325,0.461643 h 0.322117 l -0.198093,0.37207 h 0.618395 q 0.07579,0 0.142971,0.02928 0.06718,0.02928 0.117133,0.08096 0.05168,0.04995 0.08096,0.117134 0.03101,0.06718 0.03101,0.142971 v 0.124024 q 0,0.103352 0.0379,0.192925 0.03962,0.0913 0.106798,0.158474 0.06718,0.06718 0.156752,0.105076 0.08957,0.03962 0.192925,0.03962 0.103353,0 0.192925,-0.03962 0.0913,-0.0379 0.158475,-0.105076 0.06718,-0.06718 0.105075,-0.158474 0.03962,-0.08957 0.03962,-0.192925 v -0.124024 q 0,-0.07579 0.02928,-0.142971 0.02928,-0.06718 0.07924,-0.117134 0.05168,-0.05168 0.118856,-0.08096 0.06718,-0.02928 0.142972,-0.02928 h 0.620117 z m -1.967149,-0.866442 q 0.0379,0 0.07062,0.0155 0.03445,0.01378 0.06029,0.03962 0.02584,0.02584 0.03962,0.06029 0.0155,0.03273 0.0155,0.07062 v 0.246324 q 0,0.0379 -0.0155,0.07235 -0.01378,0.03273 -0.03962,0.05857 -0.02584,0.02584 -0.06029,0.04134 -0.03273,0.01378 -0.07062,0.01378 -0.03962,0 -0.07407,-0.01378 -0.03273,-0.0155 -0.05857,-0.03962 -0.02412,-0.02584 -0.03962,-0.05857 -0.01378,-0.03445 -0.01378,-0.07407 v -0.258382 q 0,-0.03617 0.0155,-0.06718 0.01722,-0.03273 0.04306,-0.05512 0.02584,-0.02412 0.05857,-0.0379 0.03445,-0.01378 0.0689,-0.01378 z m 1.360813,0 q 0.03445,0 0.06718,0.01378 0.03445,0.01378 0.06029,0.0379 0.02584,0.02239 0.04134,0.05512 0.01723,0.03101 0.01723,0.06718 v 0.258382 q 0,0.03962 -0.0155,0.07407 -0.01378,0.03273 -0.03962,0.05857 -0.02412,0.02412 -0.05857,0.03962 -0.03445,0.01378 -0.07235,0.01378 -0.03962,0 -0.07407,-0.01378 -0.03273,-0.0155 -0.05684,-0.04134 -0.02412,-0.02584 -0.03962,-0.05857 -0.01378,-0.03445 -0.01378,-0.07235 v -0.258382 q 0,-0.03617 0.0155,-0.06718 0.0155,-0.03273 0.04134,-0.05512 0.02584,-0.02412 0.05857,-0.0379 0.03445,-0.01378 0.0689,-0.01378 z"/>
      </g>
    </g>
    </g></svg>
