<?xml version='1.0' encoding='UTF-8'?>
<!-- Created with Inkscape (http://www.inkscape.org/) and export_objects.py -->
<svg xmlns:cc="http://creativecommons.org/ns#" xmlns:dc="http://purl.org/dc/elements/1.1/" xmlns:inkscape="http://www.inkscape.org/namespaces/inkscape" xmlns:rdf="http://www.w3.org/1999/02/22-rdf-syntax-ns#" xmlns:sodipodi="http://sodipodi.sourceforge.net/DTD/sodipodi-0.dtd" xmlns:xlink="http://www.w3.org/1999/xlink" xmlns="http://www.w3.org/2000/svg" version="1.1" width="0.75000003125in" height="0.75000003125in" viewBox="0 0 19.0500007937 19.0500007937" id="svg8" inkscape:version="0.92.3 (2405546, 2018-03-11)" sodipodi:docname="dk-20.svg"><sodipodi:namedview id="base" pagecolor="#ffffff" bordercolor="#666666" borderopacity="1.0" inkscape:pageopacity="0.0" inkscape:pageshadow="2" inkscape:zoom="1.0266509" inkscape:cx="313.2" inkscape:cy="369.7173" inkscape:document-units="in" inkscape:current-layer="layer3" showgrid="true" units="in" inkscape:snap-others="true" inkscape:snap-grids="true" inkscape:window-width="1280" inkscape:window-height="940" inkscape:window-x="1909" inkscape:window-y="43" inkscape:window-maximized="1" inkscape:snap-midpoints="false" inkscape:object-nodes="true" inkscape:snap-text-baseline="true" inkscape:snap-smooth-nodes="false" showguides="false" inkscape:snap-object-midpoints="true" inkscape:snap-center="true" inkscape:snap-to-guides="false" inkscape:snap-nodes="true" inkscape:snap-intersection-paths="true" inkscape:snap-bbox="false" inkscape:bbox-nodes="true" inkscape:snap-bbox-edge-midpoints="true">
    <inkscape:grid type="xygrid" id="grid10" units="pt" spacingx="0.39687501" spacingy="0.39687501"/>
    <sodipodi:guide position="380.20625,103.1875" orientation="0,1" id="guide9455" inkscape:locked="false"/>
  </sodipodi:namedview>
  <metadata id="metadata5">
    <rdf:RDF>
      <cc:Work rdf:about="">
        <dc:format>image/svg+xml</dc:format>
        <dc:type rdf:resource="http://purl.org/dc/dcmitype/StillImage"/>
        <dc:title/>
      </cc:Work>
    </rdf:RDF>
  </metadata>
  <g inkscape:groupmode="layer" inkscape:label="dk-" transform="matrix(1.000000,0.000000,0.000000,1.000000,-114.300016,-149.225003)"><g id="g4861" inkscape:label="20">
      <rect y="149.22501" x="114.30002" height="19.050001" width="19.050001" id="rect1207" style="display:inline;opacity:1;fill:#ffffff;fill-opacity:1;stroke:none;stroke-width:0.17638886;stroke-linecap:butt;stroke-linejoin:miter;stroke-miterlimit:47.14606857;stroke-dasharray:none;stroke-dashoffset:0;stroke-opacity:1;paint-order:markers fill stroke"/>
      <path d="m 122.96236,155.47308 v -0.40515 q 0.3197,0.226 0.6146,0.226 0.34176,0 0.53744,-0.24804 0.19568,-0.25081 0.19568,-0.63941 0,-0.41066 -0.20395,-0.64217 -0.20395,-0.23151 -0.5898,-0.23151 -0.20119,0 -0.46853,0.0441 v -1.95406 h 1.54615 v 0.34451 h -1.1796 v 1.2485 q 0.2012,-0.0221 0.27561,-0.0221 0.50712,0 0.7717,0.31144 0.26734,0.31144 0.26734,0.86265 0,0.565 -0.29765,0.91502 -0.29766,0.34726 -0.82683,0.34726 -0.39412,0 -0.64216,-0.15709 z" style="display:inline;font-style:normal;font-variant:normal;font-weight:normal;font-stretch:normal;font-size:5.64444447px;line-height:100%;font-family:'Segoe Condensed';-inkscape-font-specification:'Segoe Condensed, ';font-variant-ligatures:normal;font-variant-caps:normal;font-variant-numeric:normal;text-align:center;letter-spacing:0px;word-spacing:0px;writing-mode:lr-tb;text-anchor:middle;fill:#000080;fill-opacity:1;stroke:none;stroke-width:0.26458335" id="path1749" inkscape:connector-curvature="0"/>
      <path inkscape:export-ydpi="96" inkscape:export-xdpi="96" inkscape:export-filename="C:\mine\Vira\Vira table excerpts\diamond-icon.png" inkscape:connector-curvature="0" id="path3292" d="m 127.00003,156.36876 -4.02573,4.7625 4.02573,4.7625 4.02575,-4.7625 z" style="display:inline;opacity:1;fill:#800000;fill-opacity:1;stroke:none;stroke-width:0.07055555;stroke-linecap:butt;stroke-linejoin:miter;stroke-miterlimit:4;stroke-dasharray:none;stroke-dashoffset:0;paint-order:normal"/>
      <path d="m 118.9578,156.34258 h 2.70096 v 0.7717 h -0.8475 v 6.1116 q 0,0.74415 -0.11713,1.26091 -0.11024,0.50987 -0.32384,0.83371 -0.2067,0.31695 -0.50987,0.46165 -0.29628,0.1378 -0.67524,0.1378 -0.37207,0 -0.66835,-0.12402 -0.28939,-0.12403 -0.49609,-0.46165 -0.20671,-0.34451 -0.31695,-0.95084 -0.11025,-0.60634 -0.11025,-1.56408 h 0.86128 q 0.007,0.64768 0.0276,1.08865 0.0276,0.44098 0.0965,0.71658 0.0758,0.26872 0.22048,0.39274 0.1447,0.11714 0.38585,0.11714 0.24116,0 0.39275,-0.12403 0.15158,-0.13091 0.23426,-0.37207 0.0827,-0.24804 0.11025,-0.61322 0.0276,-0.36518 0.0276,-0.84061 v -6.07026 h -0.99219 z" style="display:inline;font-style:normal;font-variant:normal;font-weight:normal;font-stretch:normal;font-size:14.11111164px;line-height:125%;font-family:'Stint Ultra Condensed';-inkscape-font-specification:'Stint Ultra Condensed, ';font-variant-ligatures:normal;font-variant-caps:normal;font-variant-numeric:normal;text-align:end;letter-spacing:0px;word-spacing:0px;writing-mode:lr-tb;text-anchor:end;fill:#800000;fill-opacity:1;stroke:none;stroke-width:0.26458335" id="path3294" inkscape:connector-curvature="0"/>
      <path inkscape:connector-curvature="0" id="path3400" style="font-style:normal;font-variant:normal;font-weight:normal;font-stretch:normal;font-size:3.52777791px;line-height:100%;font-family:Paddington;-inkscape-font-specification:Paddington;font-variant-ligatures:normal;font-variant-caps:normal;font-variant-numeric:normal;text-align:center;letter-spacing:0px;word-spacing:0px;writing-mode:lr-tb;text-anchor:middle;display:inline;fill:#ffffff;fill-opacity:1;stroke:none;stroke-width:0.26458335" d="m 127.75235,162.27427 h -1.4993 l 0.83961,-1.29116 q 0.0494,-0.0776 0.0952,-0.20461 0.0459,-0.13053 0.0459,-0.21167 0,-0.10583 -0.0882,-0.17286 -0.0847,-0.067 -0.19403,-0.067 -0.33161,0 -0.63853,0.41628 h -0.0176 v -0.55386 q 0.33161,-0.24695 0.65617,-0.24695 0.33161,0 0.52211,0.17286 0.19403,0.17286 0.19403,0.48684 0,0.26811 -0.27164,0.69144 -0.21872,0.32103 -0.43745,0.63853 h 0.79375 z"/>
    </g>
    </g></svg>
