<?xml version='1.0' encoding='UTF-8'?>
<!-- Created with Inkscape (http://www.inkscape.org/) and export_objects.py -->
<svg xmlns:cc="http://creativecommons.org/ns#" xmlns:dc="http://purl.org/dc/elements/1.1/" xmlns:inkscape="http://www.inkscape.org/namespaces/inkscape" xmlns:rdf="http://www.w3.org/1999/02/22-rdf-syntax-ns#" xmlns:sodipodi="http://sodipodi.sourceforge.net/DTD/sodipodi-0.dtd" xmlns:xlink="http://www.w3.org/1999/xlink" xmlns="http://www.w3.org/2000/svg" version="1.1" width="0.75000003125in" height="0.74999965625in" viewBox="0 0 19.0500007937 19.0499912687" id="svg8" inkscape:version="0.92.3 (2405546, 2018-03-11)" sodipodi:docname="dk-14.svg"><sodipodi:namedview id="base" pagecolor="#ffffff" bordercolor="#666666" borderopacity="1.0" inkscape:pageopacity="0.0" inkscape:pageshadow="2" inkscape:zoom="1.0266509" inkscape:cx="313.2" inkscape:cy="369.7173" inkscape:document-units="in" inkscape:current-layer="layer3" showgrid="true" units="in" inkscape:snap-others="true" inkscape:snap-grids="true" inkscape:window-width="1280" inkscape:window-height="940" inkscape:window-x="1909" inkscape:window-y="43" inkscape:window-maximized="1" inkscape:snap-midpoints="false" inkscape:object-nodes="true" inkscape:snap-text-baseline="true" inkscape:snap-smooth-nodes="false" showguides="false" inkscape:snap-object-midpoints="true" inkscape:snap-center="true" inkscape:snap-to-guides="false" inkscape:snap-nodes="true" inkscape:snap-intersection-paths="true" inkscape:snap-bbox="false" inkscape:bbox-nodes="true" inkscape:snap-bbox-edge-midpoints="true">
    <inkscape:grid type="xygrid" id="grid10" units="pt" spacingx="0.39687501" spacingy="0.39687501"/>
    <sodipodi:guide position="380.20625,103.1875" orientation="0,1" id="guide9455" inkscape:locked="false"/>
  </sodipodi:namedview>
  <metadata id="metadata5">
    <rdf:RDF>
      <cc:Work rdf:about="">
        <dc:format>image/svg+xml</dc:format>
        <dc:type rdf:resource="http://purl.org/dc/dcmitype/StillImage"/>
        <dc:title/>
      </cc:Work>
    </rdf:RDF>
  </metadata>
  <g inkscape:groupmode="layer" inkscape:label="dk-" transform="matrix(1.000000,0.000000,0.000000,1.000000,-38.099995,-123.824995)"><g id="g4760" inkscape:label="14">
      <rect y="123.825" x="38.099995" height="19.049992" width="19.050001" id="rect1223" style="display:inline;opacity:1;fill:#ffffff;fill-opacity:1;stroke:none;stroke-width:0.1763889;stroke-linecap:butt;stroke-linejoin:miter;stroke-miterlimit:47.14606857;stroke-dasharray:none;stroke-dashoffset:0;stroke-opacity:1;paint-order:markers fill stroke"/>
      <path d="m 45.582739,130.175 v -0.33349 h 0.6835 v -3.26319 l -0.72209,0.27836 v -0.35553 l 1.12172,-0.39136 v 3.73172 h 0.678 v 0.33349 z" style="display:inline;font-style:normal;font-variant:normal;font-weight:normal;font-stretch:normal;font-size:5.64444447px;line-height:100%;font-family:'Segoe Condensed';-inkscape-font-specification:'Segoe Condensed, ';font-variant-ligatures:normal;font-variant-caps:normal;font-variant-numeric:normal;text-align:center;letter-spacing:0px;word-spacing:0px;writing-mode:lr-tb;text-anchor:middle;fill:#000080;fill-opacity:1;stroke:none;stroke-width:0.26458335" id="path1732" inkscape:connector-curvature="0"/>
      <path d="m 47.895079,130.02893 v -0.42444 q 0.32798,0.27837 0.672491,0.27837 0.32797,0 0.52641,-0.21222 0.201189,-0.21498 0.201189,-0.56775 0,-0.38585 -0.223239,-0.5898 -0.22324,-0.20671 -0.617361,-0.20671 H 48.20652 v -0.35002 h 0.19844 q 0.37207,0 0.57326,-0.19844 0.203948,-0.19844 0.203948,-0.55121 0,-0.3142 -0.148828,-0.49885 -0.14882,-0.18466 -0.427191,-0.18466 -0.272849,0 -0.59255,0.25907 v -0.39963 q 0.316939,-0.21498 0.689009,-0.21498 0.418931,0 0.65595,0.26183 0.237022,0.25907 0.237022,0.69178 0,0.77445 -0.639411,0.98667 v 0.0138 q 0.350031,0.0717 0.553979,0.32798 0.203941,0.25631 0.203941,0.63665 0,0.51263 -0.305919,0.82958 -0.30317,0.31419 -0.802021,0.31419 -0.4079,0 -0.71107,-0.20119 z" style="display:inline;font-style:normal;font-variant:normal;font-weight:normal;font-stretch:normal;font-size:5.64444447px;line-height:100%;font-family:'Segoe Condensed';-inkscape-font-specification:'Segoe Condensed, ';font-variant-ligatures:normal;font-variant-caps:normal;font-variant-numeric:normal;text-align:center;letter-spacing:0px;word-spacing:0px;writing-mode:lr-tb;text-anchor:middle;fill:#000080;fill-opacity:1;stroke:none;stroke-width:0.26458335" id="path1734" inkscape:connector-curvature="0"/>
      <path style="display:inline;opacity:1;fill:#800000;fill-opacity:1;stroke:none;stroke-width:0.07055553;stroke-linecap:butt;stroke-linejoin:miter;stroke-miterlimit:4;stroke-dasharray:none;stroke-dashoffset:0;paint-order:normal" d="m 51.593741,140.49374 -3.75619,-6.50571 0.0011,-5.3e-4 a 2.0128707,2.0128707 0 0 1 -0.271502,-1.00594 2.0128707,2.0128707 0 0 1 2.012852,-2.01287 2.0128707,2.0128707 0 0 1 2.012878,2.01287 2.0128707,2.0128707 0 0 1 2.012871,-2.01287 2.0128707,2.0128707 0 0 1 2.01286,2.01287 2.0128707,2.0128707 0 0 1 -0.2715,1.00594 l 0.0021,5.3e-4 z" id="path3312" inkscape:connector-curvature="0" inkscape:export-filename="C:\mine\Vira\Vira table excerpts\heart-icon.png" inkscape:export-xdpi="96" inkscape:export-ydpi="96"/>
      <path d="m 39.626177,139.67932 h 0.91639 v -7.93061 l -1.12999,0.70969 v -0.76481 l 1.12999,-0.7028 h 0.8475 v 8.68853 h 0.916391 v 0.77859 h -2.680281 z" style="display:inline;font-style:normal;font-variant:normal;font-weight:normal;font-stretch:normal;font-size:14.11111164px;line-height:125%;font-family:'Stint Ultra Condensed';-inkscape-font-specification:'Stint Ultra Condensed, ';font-variant-ligatures:normal;font-variant-caps:normal;font-variant-numeric:normal;text-align:end;letter-spacing:0px;word-spacing:0px;writing-mode:lr-tb;text-anchor:end;fill:#800000;fill-opacity:1;stroke:none;stroke-width:0.26458335" id="path3314" inkscape:connector-curvature="0"/>
      <path d="m 46.888438,135.73124 q 0,1.29535 -0.15159,2.22553 -0.15158,0.93018 -0.420302,1.52962 -0.268708,0.59256 -0.640778,0.87506 -0.365191,0.2825 -0.79238,0.2825 -0.43408,0 -0.806151,-0.2825 -0.36518,-0.2825 -0.640789,-0.87506 -0.268711,-0.59944 -0.420301,-1.52962 -0.15158,-0.93018 -0.15158,-2.22553 0,-1.28847 0.15158,-2.21864 0.15159,-0.93018 0.420301,-1.52963 0.275609,-0.59944 0.640789,-0.88194 0.372071,-0.2825 0.806151,-0.2825 0.427189,0 0.79238,0.2825 0.37207,0.2825 0.640778,0.88194 0.268722,0.59945 0.420302,1.52963 0.15159,0.93017 0.15159,2.21864 z m -0.875062,0 q 0,-1.10932 -0.0896,-1.8948 -0.0827,-0.79238 -0.23426,-1.29536 -0.15159,-0.50298 -0.358291,-0.73725 -0.206711,-0.23427 -0.44787,-0.23427 -0.24115,0 -0.45475,0.23427 -0.206709,0.23427 -0.365181,0.73725 -0.15158,0.50298 -0.24116,1.29536 -0.0827,0.78548 -0.0827,1.8948 0,1.10932 0.0827,1.90169 0.0896,0.78548 0.24116,1.28847 0.158472,0.50298 0.365181,0.73725 0.2136,0.23426 0.45475,0.23426 0.241159,0 0.44787,-0.23426 0.206701,-0.23427 0.358291,-0.73725 0.15158,-0.50988 0.23426,-1.29536 0.0896,-0.78548 0.0896,-1.8948 z" style="display:inline;font-style:normal;font-variant:normal;font-weight:normal;font-stretch:normal;font-size:14.11111164px;line-height:125%;font-family:'Stint Ultra Condensed';-inkscape-font-specification:'Stint Ultra Condensed, ';font-variant-ligatures:normal;font-variant-caps:normal;font-variant-numeric:normal;text-align:end;letter-spacing:0px;word-spacing:0px;writing-mode:lr-tb;text-anchor:end;fill:#800000;fill-opacity:1;stroke:none;stroke-width:0.26458335" id="path3316" inkscape:connector-curvature="0"/>
      <path inkscape:connector-curvature="0" id="path3366" style="font-style:normal;font-variant:normal;font-weight:normal;font-stretch:normal;font-size:3.52777791px;line-height:100%;font-family:Paddington;-inkscape-font-specification:Paddington;font-variant-ligatures:normal;font-variant-caps:normal;font-variant-numeric:normal;text-align:center;letter-spacing:0px;word-spacing:0px;writing-mode:lr-tb;text-anchor:middle;display:inline;fill:#ffffff;fill-opacity:1;stroke:none;stroke-width:0.26458335" d="m 50.902633,136.87425 h -0.409222 v -2.28247 h 0.409222 z"/>
      <path inkscape:connector-curvature="0" id="path3368" style="font-style:normal;font-variant:normal;font-weight:normal;font-stretch:normal;font-size:3.52777791px;line-height:100%;font-family:Paddington;-inkscape-font-specification:Paddington;font-variant-ligatures:normal;font-variant-caps:normal;font-variant-numeric:normal;text-align:center;letter-spacing:0px;word-spacing:0px;writing-mode:lr-tb;text-anchor:middle;display:inline;fill:#ffffff;fill-opacity:1;stroke:none;stroke-width:0.26458335" d="m 52.800744,135.73125 q 0,0.41628 -0.162277,0.74084 -0.211667,0.4198 -0.613834,0.4198 -0.398639,0 -0.610306,-0.4198 -0.162277,-0.32456 -0.162277,-0.74084 0,-0.41627 0.162277,-0.74083 0.211667,-0.41981 0.610306,-0.41981 0.405694,0 0.613834,0.41628 0.162277,0.32456 0.162277,0.74436 z m -0.395111,0 q 0,-0.25752 -0.07408,-0.48683 -0.102307,-0.3175 -0.29986,-0.3175 -0.123474,0 -0.22225,0.16933 -0.08114,0.13406 -0.11642,0.31398 -0.03175,0.15875 -0.03175,0.32102 0,0.26459 0.07056,0.48684 0.09878,0.31397 0.29986,0.31397 0.20461,0 0.30339,-0.31397 0.07056,-0.22225 0.07056,-0.48684 z"/>
    </g>
    </g></svg>
