<?xml version='1.0' encoding='UTF-8'?>
<!-- Created with Inkscape (http://www.inkscape.org/) and export_objects.py -->
<svg xmlns:cc="http://creativecommons.org/ns#" xmlns:dc="http://purl.org/dc/elements/1.1/" xmlns:inkscape="http://www.inkscape.org/namespaces/inkscape" xmlns:rdf="http://www.w3.org/1999/02/22-rdf-syntax-ns#" xmlns:sodipodi="http://sodipodi.sourceforge.net/DTD/sodipodi-0.dtd" xmlns:xlink="http://www.w3.org/1999/xlink" xmlns="http://www.w3.org/2000/svg" version="1.1" width="0.75000003125in" height="0.750000177083in" viewBox="0 0 19.0500007937 19.0500044979" id="svg8" inkscape:version="0.92.3 (2405546, 2018-03-11)" sodipodi:docname="dk-15.svg"><sodipodi:namedview id="base" pagecolor="#ffffff" bordercolor="#666666" borderopacity="1.0" inkscape:pageopacity="0.0" inkscape:pageshadow="2" inkscape:zoom="1.0266509" inkscape:cx="313.2" inkscape:cy="369.7173" inkscape:document-units="in" inkscape:current-layer="layer3" showgrid="true" units="in" inkscape:snap-others="true" inkscape:snap-grids="true" inkscape:window-width="1280" inkscape:window-height="940" inkscape:window-x="1909" inkscape:window-y="43" inkscape:window-maximized="1" inkscape:snap-midpoints="false" inkscape:object-nodes="true" inkscape:snap-text-baseline="true" inkscape:snap-smooth-nodes="false" showguides="false" inkscape:snap-object-midpoints="true" inkscape:snap-center="true" inkscape:snap-to-guides="false" inkscape:snap-nodes="true" inkscape:snap-intersection-paths="true" inkscape:snap-bbox="false" inkscape:bbox-nodes="true" inkscape:snap-bbox-edge-midpoints="true">
    <inkscape:grid type="xygrid" id="grid10" units="pt" spacingx="0.39687501" spacingy="0.39687501"/>
    <sodipodi:guide position="380.20625,103.1875" orientation="0,1" id="guide9455" inkscape:locked="false"/>
  </sodipodi:namedview>
  <metadata id="metadata5">
    <rdf:RDF>
      <cc:Work rdf:about="">
        <dc:format>image/svg+xml</dc:format>
        <dc:type rdf:resource="http://purl.org/dc/dcmitype/StillImage"/>
        <dc:title/>
      </cc:Work>
    </rdf:RDF>
  </metadata>
  <g inkscape:groupmode="layer" inkscape:label="dk-" transform="matrix(1.000000,0.000000,0.000000,1.000000,-88.899992,-98.425000)"><g id="g4717" inkscape:label="15">
      <rect y="98.425003" x="88.899994" height="19.050005" width="19.050001" id="rect1219" style="display:inline;opacity:1;fill:#ffffff;fill-opacity:1;stroke:none;stroke-width:0.1763889;stroke-linecap:butt;stroke-linejoin:miter;stroke-miterlimit:47.14606857;stroke-dasharray:none;stroke-dashoffset:0;stroke-opacity:1;paint-order:markers fill stroke"/>
      <path d="m 96.382724,104.775 v -0.33349 h 0.683509 v -3.26319 l -0.72209,0.27836 v -0.35553 l 1.121722,-0.39136 v 3.73172 h 0.678 v 0.33349 z" style="display:inline;font-style:normal;font-variant:normal;font-weight:normal;font-stretch:normal;font-size:5.64444447px;line-height:100%;font-family:'Segoe Condensed';-inkscape-font-specification:'Segoe Condensed, ';font-variant-ligatures:normal;font-variant-caps:normal;font-variant-numeric:normal;text-align:center;letter-spacing:0px;word-spacing:0px;writing-mode:lr-tb;text-anchor:middle;fill:#000080;fill-opacity:1;stroke:none;stroke-width:0.26458335" id="path1769" inkscape:connector-curvature="0"/>
      <path d="m 98.797055,104.775 v -0.33349 h 0.6835 v -3.26319 l -0.72209,0.27836 v -0.35553 l 1.12172,-0.39136 v 3.73172 h 0.677995 v 0.33349 z" style="display:inline;font-style:normal;font-variant:normal;font-weight:normal;font-stretch:normal;font-size:5.64444447px;line-height:100%;font-family:'Segoe Condensed';-inkscape-font-specification:'Segoe Condensed, ';font-variant-ligatures:normal;font-variant-caps:normal;font-variant-numeric:normal;text-align:center;letter-spacing:0px;word-spacing:0px;writing-mode:lr-tb;text-anchor:middle;fill:#000080;fill-opacity:1;stroke:none;stroke-width:0.26458335" id="path1771" inkscape:connector-curvature="0"/>
      <path inkscape:connector-curvature="0" style="display:inline;opacity:1;fill:#000000;fill-opacity:1;stroke:none;stroke-width:0.07055558;stroke-linecap:butt;stroke-linejoin:miter;stroke-miterlimit:4;stroke-dasharray:none;stroke-dashoffset:0;paint-order:normal" d="m 101.59997,105.56881 -3.550115,4.19986 h 2.6e-4 a 2.0128663,2.0128663 0 0 0 -0.47586,1.2994 2.0128663,2.0128663 0 0 0 2.01287,2.01287 2.0128663,2.0128663 0 0 0 1.745685,-1.01576 l -0.81158,3.02863 h 2.15742 l -0.8106,-3.02537 a 2.0128663,2.0128663 0 0 0 1.74481,1.0125 2.0128663,2.0128663 0 0 0 2.01285,-2.01287 2.0128663,2.0128663 0 0 0 -0.47586,-1.2994 h 2.7e-4 z" id="path3256" inkscape:export-filename="C:\mine\Vira\Vira table excerpts\Tourne.png" inkscape:export-xdpi="96" inkscape:export-ydpi="96"/>
      <path d="m 96.761709,110.2693 q 0,1.21267 -0.172254,2.10151 -0.165365,0.88883 -0.461643,1.49517 0.351399,0.21359 0.730359,0.36518 0.378962,0.15158 0.751033,0.21359 l -0.344512,0.86128 q -0.392739,-0.13781 -0.778592,-0.3514 -0.37896,-0.2136 -0.74414,-0.46853 -0.289388,0.35139 -0.640787,0.52365 -0.344508,0.17225 -0.737251,0.17225 -0.516763,0 -0.957736,-0.28938 -0.440973,-0.28939 -0.764812,-0.88884 -0.32384,-0.60634 -0.509874,-1.52962 -0.186033,-0.93018 -0.186033,-2.20486 0,-1.2678 0.186033,-2.19108 0.186034,-0.93018 0.509874,-1.53652 0.330732,-0.60633 0.771702,-0.89572 0.440973,-0.28939 0.950846,-0.28939 0.502984,0 0.943957,0.28939 0.440973,0.28939 0.75792,0.89572 0.32384,0.59945 0.509876,1.52963 0.186034,0.92328 0.186034,2.19797 z m -0.950846,0 q 0,-2.01194 -0.365181,-3.06614 -0.365181,-1.0542 -1.08176,-1.0542 -0.737251,0 -1.102428,1.06798 -0.365181,1.06109 -0.365181,3.05236 0,2.01193 0.365181,3.06613 0.365177,1.0542 1.102428,1.0542 0.434084,0 0.757921,-0.42719 -0.337619,-0.31006 -0.606336,-0.66146 l 0.351399,-0.55121 q 0.227378,0.33073 0.564996,0.62011 0.378961,-1.0473 0.378961,-3.10058 z" style="display:inline;font-style:normal;font-variant:normal;font-weight:normal;font-stretch:normal;font-size:14.11111164px;line-height:125%;font-family:'Stint Ultra Condensed';-inkscape-font-specification:'Stint Ultra Condensed, ';font-variant-ligatures:normal;font-variant-caps:normal;font-variant-numeric:normal;text-align:end;letter-spacing:0px;word-spacing:0px;writing-mode:lr-tb;text-anchor:end;fill:#000000;fill-opacity:1;stroke:none;stroke-width:0.26458335" id="path3258" inkscape:connector-curvature="0"/>
      <path inkscape:connector-curvature="0" id="path3376" style="font-style:normal;font-variant:normal;font-weight:normal;font-stretch:normal;font-size:3.52777791px;line-height:100%;font-family:Paddington;-inkscape-font-specification:Paddington;font-variant-ligatures:normal;font-variant-caps:normal;font-variant-numeric:normal;text-align:center;letter-spacing:0px;word-spacing:0px;writing-mode:lr-tb;text-anchor:middle;display:inline;fill:#ffffff;fill-opacity:1;stroke:none;stroke-width:0.26458335" d="m 102.41564,109.19537 -0.50447,0.88194 q 0.20814,0.0741 0.33161,0.28928 0.11642,0.19403 0.11642,0.41275 0,0.31397 -0.23636,0.51859 -0.23636,0.20108 -0.56797,0.20108 -0.13053,0 -0.24342,-0.0388 -0.14464,-0.0494 -0.27517,-0.1517 -0.1658,-0.127 -0.19402,-0.26105 l 0.26458,-0.2787 h 0.0212 q 0.17992,0.34573 0.45509,0.34573 0.13405,0 0.23636,-0.0952 0.1023,-0.0953 0.1023,-0.23284 0,-0.24341 -0.16933,-0.34572 -0.14817,-0.0882 -0.45508,-0.0882 l 0.46214,-0.79728 h -0.88548 v -0.35983 z"/>
    </g>
    </g></svg>
