<?xml version='1.0' encoding='UTF-8'?>
<!-- Created with Inkscape (http://www.inkscape.org/) and export_objects.py -->
<svg xmlns:cc="http://creativecommons.org/ns#" xmlns:dc="http://purl.org/dc/elements/1.1/" xmlns:inkscape="http://www.inkscape.org/namespaces/inkscape" xmlns:rdf="http://www.w3.org/1999/02/22-rdf-syntax-ns#" xmlns:sodipodi="http://sodipodi.sourceforge.net/DTD/sodipodi-0.dtd" xmlns:xlink="http://www.w3.org/1999/xlink" xmlns="http://www.w3.org/2000/svg" version="1.1" width="0.75000003125in" height="0.75000003125in" viewBox="0 0 19.0500007937 19.0500007937" id="svg8" inkscape:version="0.92.3 (2405546, 2018-03-11)" sodipodi:docname="kop14-12.svg"><sodipodi:namedview id="base" pagecolor="#ffffff" bordercolor="#666666" borderopacity="1.0" inkscape:pageopacity="0.0" inkscape:pageshadow="2" inkscape:zoom="1.7296259" inkscape:cx="846.70257" inkscape:cy="113.68814" inkscape:document-units="in" inkscape:current-layer="layer2" showgrid="false" units="in" inkscape:snap-others="true" inkscape:snap-grids="true" inkscape:window-width="1280" inkscape:window-height="940" inkscape:window-x="1909" inkscape:window-y="43" inkscape:window-maximized="1" inkscape:snap-midpoints="true" inkscape:object-nodes="true" inkscape:snap-text-baseline="true" inkscape:snap-smooth-nodes="false" showguides="false" inkscape:snap-object-midpoints="true" inkscape:snap-center="true" inkscape:snap-to-guides="false" inkscape:snap-nodes="true" inkscape:snap-intersection-paths="true">
    <inkscape:grid type="xygrid" id="grid10" units="pt" spacingx="3.1750001" spacingy="3.1750001"/>
    <sodipodi:guide position="380.20625,103.1875" orientation="0,1" id="guide9455" inkscape:locked="false"/>
  </sodipodi:namedview>
  <metadata id="metadata5">
    <rdf:RDF>
      <cc:Work rdf:about="">
        <dc:format>image/svg+xml</dc:format>
        <dc:type rdf:resource="http://purl.org/dc/dcmitype/StillImage"/>
        <dc:title/>
      </cc:Work>
    </rdf:RDF>
  </metadata>
  <g inkscape:groupmode="layer" inkscape:label="kop14-" transform="matrix(1.000000,0.000000,0.000000,1.000000,-206.374995,-155.574944)"><g id="g2498" inkscape:label="12">
      <g transform="translate(123.82499,-39.825045)" style="display:inline;stroke-width:0.99999988" id="g1209">
        <rect style="opacity:1;fill:#ffffff;fill-opacity:1;stroke:none;stroke-width:0.17638886;stroke-linecap:butt;stroke-linejoin:miter;stroke-miterlimit:47.14606857;stroke-dasharray:none;stroke-dashoffset:0;stroke-opacity:1;paint-order:markers fill stroke" id="rect1207" width="19.050001" height="19.050001" x="82.550011" y="195.39999"/>
      </g>
      <g id="text1255" style="display:inline;font-style:normal;font-variant:normal;font-weight:normal;font-stretch:normal;font-size:5.64444447px;line-height:100%;font-family:'Segoe Condensed';-inkscape-font-specification:'Segoe Condensed, ';font-variant-ligatures:normal;font-variant-caps:normal;font-variant-numeric:normal;text-align:center;letter-spacing:0px;word-spacing:0px;writing-mode:lr-tb;text-anchor:middle;fill:#000080;fill-opacity:1;stroke:none;stroke-width:0.26458335" aria-label="5">
        <path inkscape:connector-curvature="0" id="path1749" style="font-size:5.64444447px;text-align:center;text-anchor:middle;fill:#000080;stroke-width:0.26458335" d="m 215.03736,161.82303 v -0.40515 q 0.3197,0.226 0.6146,0.226 0.34176,0 0.53744,-0.24804 0.19568,-0.25081 0.19568,-0.63941 0,-0.41066 -0.20395,-0.64217 -0.20395,-0.23151 -0.5898,-0.23151 -0.20119,0 -0.46853,0.0441 v -1.95406 h 1.54615 v 0.34451 h -1.1796 v 1.2485 q 0.2012,-0.0221 0.27561,-0.0221 0.50712,0 0.7717,0.31144 0.26734,0.31144 0.26734,0.86265 0,0.565 -0.29765,0.91502 -0.29766,0.34726 -0.82683,0.34726 -0.39412,0 -0.64216,-0.15709 z"/>
      </g>
      <path inkscape:connector-curvature="0" style="display:inline;opacity:1;fill:#000000;fill-opacity:1;stroke:none;stroke-width:0.07055558;stroke-linecap:butt;stroke-linejoin:miter;stroke-miterlimit:4;stroke-dasharray:none;stroke-dashoffset:0;paint-order:normal" d="m 219.07498,162.71875 -3.55013,4.19987 h 3.4e-4 a 2.0128663,2.0128663 0 0 0 -0.47586,1.29939 2.0128663,2.0128663 0 0 0 2.01287,2.01287 2.0128663,2.0128663 0 0 0 1.7457,-1.01576 l -0.81159,3.02863 h 2.15743 l -0.8106,-3.02537 a 2.0128663,2.0128663 0 0 0 1.7448,1.0125 2.0128663,2.0128663 0 0 0 2.01285,-2.01287 2.0128663,2.0128663 0 0 0 -0.47586,-1.29939 h 2.6e-4 z" id="path1321" inkscape:export-filename="C:\mine\Vira\Vira table excerpts\Tourne.png" inkscape:export-xdpi="96" inkscape:export-ydpi="96"/>
      <g aria-label="J" style="font-style:normal;font-variant:normal;font-weight:normal;font-stretch:normal;font-size:14.11111164px;line-height:125%;font-family:'Stint Ultra Condensed';-inkscape-font-specification:'Stint Ultra Condensed, ';font-variant-ligatures:normal;font-variant-caps:normal;font-variant-numeric:normal;text-align:end;letter-spacing:0px;word-spacing:0px;writing-mode:lr-tb;text-anchor:end;display:inline;fill:#000000;fill-opacity:1;stroke:none;stroke-width:0.26458335" id="g1325" transform="translate(123.82497,43.572174)">
        <path d="m 87.207781,119.1204 h 2.700954 v 0.7717 h -0.847493 v 6.1116 q 0,0.74414 -0.117133,1.26091 -0.110243,0.50987 -0.323839,0.83371 -0.206706,0.31695 -0.509874,0.46164 -0.296279,0.13781 -0.675239,0.13781 -0.37207,0 -0.668349,-0.12403 -0.289388,-0.12402 -0.496093,-0.46164 -0.206706,-0.34451 -0.316949,-0.95085 -0.110243,-0.60633 -0.110243,-1.56407 h 0.861274 q 0.0069,0.64768 0.02756,1.08865 0.02756,0.44097 0.09646,0.71658 0.07579,0.26872 0.220486,0.39274 0.144694,0.11714 0.385851,0.11714 0.241157,0 0.392741,-0.12403 0.151584,-0.13091 0.234266,-0.37207 0.08268,-0.24804 0.110243,-0.61323 0.02756,-0.36518 0.02756,-0.8406 v -6.07026 h -0.992187 z" style="font-style:normal;font-variant:normal;font-weight:normal;font-stretch:normal;font-size:14.11111164px;font-family:'Stint Ultra Condensed';-inkscape-font-specification:'Stint Ultra Condensed, ';text-align:end;text-anchor:end;fill:#000000;stroke:none;stroke-width:0.26458335" id="path1323" inkscape:connector-curvature="0"/>
      </g>
      <g id="text1423" style="font-style:normal;font-variant:normal;font-weight:normal;font-stretch:normal;font-size:3.52777791px;line-height:100%;font-family:Paddington;-inkscape-font-specification:Paddington;font-variant-ligatures:normal;font-variant-caps:normal;font-variant-numeric:normal;text-align:center;letter-spacing:0px;word-spacing:0px;writing-mode:lr-tb;text-anchor:middle;display:inline;fill:#ffffff;fill-opacity:1;stroke:none;stroke-width:0.26458335" aria-label="2">
        <path id="path1903" style="font-style:normal;font-variant:normal;font-weight:normal;font-stretch:normal;font-size:3.52777791px;font-family:Paddington;-inkscape-font-specification:Paddington;text-align:center;text-anchor:middle;fill:#ffffff;stroke-width:0.26458335" d="M 219.82731,168.62425 H 218.328 l 0.83961,-1.29116 q 0.0494,-0.0776 0.0952,-0.20462 0.0459,-0.13052 0.0459,-0.21166 0,-0.10584 -0.0882,-0.17286 -0.0847,-0.067 -0.19403,-0.067 -0.33161,0 -0.63853,0.41628 h -0.0176 v -0.55386 q 0.33161,-0.24695 0.65616,-0.24695 0.33161,0 0.52211,0.17286 0.19403,0.17286 0.19403,0.48684 0,0.26811 -0.27164,0.69144 -0.21872,0.32103 -0.43744,0.63853 h 0.79375 z"/>
      </g>
    </g>
    </g></svg>
