<?xml version='1.0' encoding='UTF-8'?>
<!-- Created with Inkscape (http://www.inkscape.org/) and export_objects.py -->
<svg xmlns:cc="http://creativecommons.org/ns#" xmlns:dc="http://purl.org/dc/elements/1.1/" xmlns:inkscape="http://www.inkscape.org/namespaces/inkscape" xmlns:rdf="http://www.w3.org/1999/02/22-rdf-syntax-ns#" xmlns:sodipodi="http://sodipodi.sourceforge.net/DTD/sodipodi-0.dtd" xmlns:xlink="http://www.w3.org/1999/xlink" xmlns="http://www.w3.org/2000/svg" version="1.1" width="0.75000003125in" height="0.750000177083in" viewBox="0 0 19.0500007937 19.0500044979" id="svg8" inkscape:version="0.92.3 (2405546, 2018-03-11)" sodipodi:docname="kop14-07.svg"><sodipodi:namedview id="base" pagecolor="#ffffff" bordercolor="#666666" borderopacity="1.0" inkscape:pageopacity="0.0" inkscape:pageshadow="2" inkscape:zoom="1.7296259" inkscape:cx="846.70257" inkscape:cy="113.68814" inkscape:document-units="in" inkscape:current-layer="layer2" showgrid="false" units="in" inkscape:snap-others="true" inkscape:snap-grids="true" inkscape:window-width="1280" inkscape:window-height="940" inkscape:window-x="1909" inkscape:window-y="43" inkscape:window-maximized="1" inkscape:snap-midpoints="true" inkscape:object-nodes="true" inkscape:snap-text-baseline="true" inkscape:snap-smooth-nodes="false" showguides="false" inkscape:snap-object-midpoints="true" inkscape:snap-center="true" inkscape:snap-to-guides="false" inkscape:snap-nodes="true" inkscape:snap-intersection-paths="true">
    <inkscape:grid type="xygrid" id="grid10" units="pt" spacingx="3.1750001" spacingy="3.1750001"/>
    <sodipodi:guide position="380.20625,103.1875" orientation="0,1" id="guide9455" inkscape:locked="false"/>
  </sodipodi:namedview>
  <metadata id="metadata5">
    <rdf:RDF>
      <cc:Work rdf:about="">
        <dc:format>image/svg+xml</dc:format>
        <dc:type rdf:resource="http://purl.org/dc/dcmitype/StillImage"/>
        <dc:title/>
      </cc:Work>
    </rdf:RDF>
  </metadata>
  <g inkscape:groupmode="layer" inkscape:label="kop14-" transform="matrix(1.000000,0.000000,0.000000,1.000000,-180.975016,-130.175000)"><g id="g2414" inkscape:label="07">
      <rect y="130.175" x="180.97502" height="19.050005" width="19.050001" id="rect1205" style="display:inline;opacity:1;fill:#d7f4d7;fill-opacity:1;stroke:none;stroke-width:0.17638889;stroke-linecap:butt;stroke-linejoin:miter;stroke-miterlimit:47.14606857;stroke-dasharray:none;stroke-dashoffset:0;stroke-opacity:1;paint-order:markers fill stroke"/>
      <g id="text1235" style="display:inline;font-style:normal;font-variant:normal;font-weight:normal;font-stretch:normal;font-size:5.64444447px;line-height:100%;font-family:'Segoe Condensed';-inkscape-font-specification:'Segoe Condensed, ';font-variant-ligatures:normal;font-variant-caps:normal;font-variant-numeric:normal;text-align:center;letter-spacing:0px;word-spacing:0px;writing-mode:lr-tb;text-anchor:middle;fill:#000080;fill-opacity:1;stroke:none;stroke-width:0.26458335" aria-label="10">
        <path inkscape:connector-curvature="0" id="path1764" style="font-size:5.64444447px;text-align:center;text-anchor:middle;fill:#000080;stroke-width:0.26458335" d="m 188.45775,136.52501 v -0.33349 h 0.6835 v -3.26319 l -0.72209,0.27836 v -0.35553 l 1.12173,-0.39136 v 3.73172 h 0.67799 v 0.33349 z"/>
        <path inkscape:connector-curvature="0" id="path1766" style="font-size:5.64444447px;text-align:center;text-anchor:middle;fill:#000080;stroke-width:0.26458335" d="m 191.68511,136.59391 q -0.46853,0 -0.73311,-0.50436 -0.26459,-0.50712 -0.26459,-1.46623 0,-2.11667 1.0666,-2.11667 0.97014,0 0.97014,2.0202 0,1.02251 -0.27285,1.54616 -0.27285,0.5209 -0.76619,0.5209 z m 0.0386,-3.73724 q -0.62012,0 -0.62012,1.73909 0,1.64813 0.60358,1.64813 0.60358,0 0.60358,-1.68396 0,-0.87644 -0.14331,-1.28985 -0.14056,-0.41341 -0.44373,-0.41341 z"/>
      </g>
      <path inkscape:export-ydpi="96" inkscape:export-xdpi="96" inkscape:export-filename="C:\mine\Vira\Vira table excerpts\Tourne.png" id="path1315" d="m 193.67498,137.31875 c -0.91104,0 -1.70844,0.61189 -1.94424,1.49189 -0.23579,0.88001 0.14887,1.80862 0.9378,2.26413 -0.78898,-0.45551 -1.78557,-0.32426 -2.42976,0.31994 -0.64419,0.64419 -0.77535,1.64075 -0.31984,2.42973 0.45553,0.78898 1.38416,1.1736 2.26416,0.93782 0.52969,-0.14194 0.96197,-0.4875 1.2224,-0.93872 l -0.80919,3.02021 h 2.15734 l -0.80929,-3.02045 c 0.26042,0.45133 0.6927,0.79699 1.2225,0.93896 0.87999,0.23578 1.8087,-0.14887 2.26423,-0.93782 0.45551,-0.78898 0.32428,-1.78554 -0.31993,-2.42973 -0.64419,-0.64422 -1.64077,-0.77545 -2.42976,-0.31994 0.78899,-0.45551 1.17368,-1.38414 0.9379,-2.26413 -0.2358,-0.88 -1.0333,-1.49189 -1.94432,-1.49189 z" style="display:inline;opacity:1;fill:#000000;fill-opacity:1;stroke:none;stroke-width:0.07055556;stroke-linecap:butt;stroke-linejoin:miter;stroke-miterlimit:4;stroke-dasharray:none;stroke-dashoffset:0;paint-order:normal" inkscape:connector-curvature="0"/>
      <g aria-label="Q" style="font-style:normal;font-variant:normal;font-weight:normal;font-stretch:normal;font-size:14.11111164px;line-height:125%;font-family:'Stint Ultra Condensed';-inkscape-font-specification:'Stint Ultra Condensed, ';font-variant-ligatures:normal;font-variant-caps:normal;font-variant-numeric:normal;text-align:end;letter-spacing:0px;word-spacing:0px;writing-mode:lr-tb;text-anchor:end;display:inline;fill:#000000;fill-opacity:1;stroke:none;stroke-width:0.26458335" id="g1319" transform="translate(120.64997,-48.51661)">
        <path d="m 68.186714,190.53586 q 0,1.21267 -0.172255,2.1015 -0.165364,0.88884 -0.461642,1.49518 0.351399,0.21359 0.73036,0.36518 0.37896,0.15158 0.751031,0.21359 l -0.34451,0.86128 q -0.392741,-0.13781 -0.778591,-0.3514 -0.378961,-0.2136 -0.744141,-0.46854 -0.289388,0.3514 -0.640788,0.52366 -0.344509,0.17225 -0.73725,0.17225 -0.516765,0 -0.957737,-0.28939 -0.440972,-0.28938 -0.764811,-0.88883 -0.323839,-0.60634 -0.509874,-1.52962 -0.186036,-0.93018 -0.186036,-2.20486 0,-1.2678 0.186036,-2.19108 0.186035,-0.93018 0.509874,-1.53652 0.330729,-0.60633 0.771701,-0.89572 0.440972,-0.28939 0.950847,-0.28939 0.502984,0 0.943956,0.28939 0.440972,0.28939 0.757921,0.89572 0.323839,0.59945 0.509874,1.52963 0.186035,0.92328 0.186035,2.19797 z m -0.950846,0 q 0,-2.01194 -0.36518,-3.06614 -0.365181,-1.0542 -1.08176,-1.0542 -0.737251,0 -1.102431,1.06798 -0.36518,1.06109 -0.36518,3.05236 0,2.01193 0.36518,3.06613 0.36518,1.0542 1.102431,1.0542 0.434082,0 0.757921,-0.42719 -0.33762,-0.31006 -0.606337,-0.66146 l 0.3514,-0.55121 q 0.227376,0.33072 0.564995,0.62011 0.378961,-1.04731 0.378961,-3.10058 z" style="font-style:normal;font-variant:normal;font-weight:normal;font-stretch:normal;font-size:14.11111164px;font-family:'Stint Ultra Condensed';-inkscape-font-specification:'Stint Ultra Condensed, ';text-align:end;text-anchor:end;fill:#000000;stroke:none;stroke-width:0.26458335" id="path1317" inkscape:connector-curvature="0"/>
      </g>
      <g id="text1403" style="font-style:normal;font-variant:normal;font-weight:normal;font-stretch:normal;font-size:3.52777791px;line-height:100%;font-family:Paddington;-inkscape-font-specification:Paddington;font-variant-ligatures:normal;font-variant-caps:normal;font-variant-numeric:normal;text-align:center;letter-spacing:0px;word-spacing:0px;writing-mode:lr-tb;text-anchor:middle;display:inline;fill:#ffffff;fill-opacity:1;stroke:none;stroke-width:0.26458335" aria-label="3">
        <path id="path1918" style="font-style:normal;font-variant:normal;font-weight:normal;font-stretch:normal;font-size:3.52777791px;font-family:Paddington;-inkscape-font-specification:Paddington;text-align:center;text-anchor:middle;fill:#ffffff;stroke-width:0.26458335" d="m 194.49065,138.21481 -0.50447,0.88195 q 0.20814,0.0741 0.33161,0.28928 0.11641,0.19402 0.11641,0.41275 0,0.31397 -0.23636,0.51858 -0.23636,0.20108 -0.56797,0.20108 -0.13053,0 -0.24342,-0.0388 -0.14463,-0.0494 -0.27516,-0.1517 -0.16581,-0.127 -0.19403,-0.26105 l 0.26458,-0.2787 h 0.0212 q 0.17992,0.34573 0.45508,0.34573 0.13406,0 0.23636,-0.0952 0.10231,-0.0952 0.10231,-0.23284 0,-0.24341 -0.16933,-0.34572 -0.14817,-0.0882 -0.45509,-0.0882 l 0.46214,-0.79728 h -0.88547 v -0.35984 z"/>
      </g>
    </g>
    </g></svg>
