<?xml version='1.0' encoding='UTF-8'?>
<!-- Created with Inkscape (http://www.inkscape.org/) and export_objects.py -->
<svg xmlns:cc="http://creativecommons.org/ns#" xmlns:dc="http://purl.org/dc/elements/1.1/" xmlns:inkscape="http://www.inkscape.org/namespaces/inkscape" xmlns:rdf="http://www.w3.org/1999/02/22-rdf-syntax-ns#" xmlns:sodipodi="http://sodipodi.sourceforge.net/DTD/sodipodi-0.dtd" xmlns:xlink="http://www.w3.org/1999/xlink" xmlns="http://www.w3.org/2000/svg" version="1.1" width="0.75000003125in" height="0.750000177083in" viewBox="0 0 19.0500007937 19.0500044979" id="svg8" inkscape:version="0.92.3 (2405546, 2018-03-11)" sodipodi:docname="kop14-09.svg"><sodipodi:namedview id="base" pagecolor="#ffffff" bordercolor="#666666" borderopacity="1.0" inkscape:pageopacity="0.0" inkscape:pageshadow="2" inkscape:zoom="1.7296259" inkscape:cx="846.70257" inkscape:cy="113.68814" inkscape:document-units="in" inkscape:current-layer="layer2" showgrid="false" units="in" inkscape:snap-others="true" inkscape:snap-grids="true" inkscape:window-width="1280" inkscape:window-height="940" inkscape:window-x="1909" inkscape:window-y="43" inkscape:window-maximized="1" inkscape:snap-midpoints="true" inkscape:object-nodes="true" inkscape:snap-text-baseline="true" inkscape:snap-smooth-nodes="false" showguides="false" inkscape:snap-object-midpoints="true" inkscape:snap-center="true" inkscape:snap-to-guides="false" inkscape:snap-nodes="true" inkscape:snap-intersection-paths="true">
    <inkscape:grid type="xygrid" id="grid10" units="pt" spacingx="3.1750001" spacingy="3.1750001"/>
    <sodipodi:guide position="380.20625,103.1875" orientation="0,1" id="guide9455" inkscape:locked="false"/>
  </sodipodi:namedview>
  <metadata id="metadata5">
    <rdf:RDF>
      <cc:Work rdf:about="">
        <dc:format>image/svg+xml</dc:format>
        <dc:type rdf:resource="http://purl.org/dc/dcmitype/StillImage"/>
        <dc:title/>
      </cc:Work>
    </rdf:RDF>
  </metadata>
  <g inkscape:groupmode="layer" inkscape:label="kop14-" transform="matrix(1.000000,0.000000,0.000000,1.000000,-130.175000,-155.574992)"><g id="g2448" inkscape:label="09">
      <rect y="155.575" x="130.175" height="19.050005" width="19.050001" id="rect1201" style="display:inline;opacity:1;fill:#ffffff;fill-opacity:1;stroke:none;stroke-width:0.17638889;stroke-linecap:butt;stroke-linejoin:miter;stroke-miterlimit:47.14606857;stroke-dasharray:none;stroke-dashoffset:0;stroke-opacity:1;paint-order:markers fill stroke"/>
      <g id="text1243" style="display:inline;font-style:normal;font-variant:normal;font-weight:normal;font-stretch:normal;font-size:5.64444447px;line-height:100%;font-family:'Segoe Condensed';-inkscape-font-specification:'Segoe Condensed, ';font-variant-ligatures:normal;font-variant-caps:normal;font-variant-numeric:normal;text-align:center;letter-spacing:0px;word-spacing:0px;writing-mode:lr-tb;text-anchor:middle;fill:#000080;fill-opacity:1;stroke:none;stroke-width:0.26458335" aria-label="8">
        <path inkscape:connector-curvature="0" id="path1758" style="font-size:5.64444447px;text-align:center;text-anchor:middle;fill:#000080;stroke-width:0.26458335" d="m 139.38031,159.87173 v -0.0138 q -0.57051,-0.33625 -0.57051,-0.95361 0,-0.43821 0.25356,-0.71106 0.25631,-0.27561 0.67248,-0.27561 0.39412,0 0.6339,0.25631 0.23978,0.25632 0.23978,0.66973 0,0.6587 -0.62012,1.00872 v 0.011 q 0.71107,0.31695 0.71107,1.05558 0,0.49609 -0.2701,0.77996 -0.26734,0.28112 -0.76343,0.28112 -0.42719,0 -0.69453,-0.28112 -0.26459,-0.28112 -0.26459,-0.73311 0,-0.73312 0.67249,-1.09416 z m 0.3197,-0.1819 q 0.5209,-0.2701 0.5209,-0.80754 0,-0.2949 -0.1378,-0.46853 -0.13781,-0.17363 -0.36656,-0.17363 -0.22324,0 -0.37483,0.17914 -0.14883,0.17915 -0.14883,0.46302 0,0.53468 0.50712,0.80754 z m -0.0165,0.3445 q -0.58705,0.30593 -0.58705,0.904 0,0.3197 0.16261,0.51538 0.16536,0.19569 0.44648,0.19569 0.28388,0 0.44373,-0.19293 0.15986,-0.19568 0.15986,-0.51814 0,-0.62839 -0.62563,-0.904 z"/>
      </g>
      <path inkscape:export-ydpi="96" inkscape:export-xdpi="96" inkscape:export-filename="C:\mine\Vira\Vira table excerpts\heart-icon.png" inkscape:connector-curvature="0" id="path1303" d="m 142.875,172.24376 -3.75619,-6.50569 0.002,-4.9e-4 a 2.0128707,2.0128707 0 0 1 -0.2715,-1.00594 2.0128707,2.0128707 0 0 1 2.01286,-2.01288 2.0128707,2.0128707 0 0 1 2.01287,2.01288 2.0128707,2.0128707 0 0 1 2.01287,-2.01288 2.0128707,2.0128707 0 0 1 2.01287,2.01288 2.0128707,2.0128707 0 0 1 -0.27151,1.00594 l 0.001,4.9e-4 z" style="display:inline;opacity:1;fill:#800000;fill-opacity:1;stroke:none;stroke-width:0.07055553;stroke-linecap:butt;stroke-linejoin:miter;stroke-miterlimit:4;stroke-dasharray:none;stroke-dashoffset:0;paint-order:normal"/>
      <g aria-label="Q" style="font-style:normal;font-variant:normal;font-weight:normal;font-stretch:normal;font-size:14.11111164px;line-height:125%;font-family:'Stint Ultra Condensed';-inkscape-font-specification:'Stint Ultra Condensed, ';font-variant-ligatures:normal;font-variant-caps:normal;font-variant-numeric:normal;text-align:end;letter-spacing:0px;word-spacing:0px;writing-mode:lr-tb;text-anchor:end;display:inline;fill:#800000;fill-opacity:1;stroke:none;stroke-width:0.26458335" id="g1307" transform="translate(69.849999,21.333417)">
        <path d="m 68.186722,146.08584 q 0,1.21268 -0.172255,2.10151 -0.165365,0.88884 -0.461643,1.49517 0.3514,0.2136 0.73036,0.36518 0.378961,0.15159 0.751031,0.2136 l -0.344509,0.86127 q -0.392741,-0.1378 -0.778592,-0.3514 -0.37896,-0.21359 -0.744141,-0.46853 -0.289388,0.3514 -0.640787,0.52366 -0.34451,0.17225 -0.737251,0.17225 -0.516764,0 -0.957736,-0.28939 -0.440973,-0.28939 -0.764812,-0.88883 -0.323839,-0.60634 -0.509874,-1.52962 -0.186035,-0.93018 -0.186035,-2.20487 0,-1.26779 0.186035,-2.19108 0.186035,-0.93017 0.509874,-1.53651 0.33073,-0.60634 0.771702,-0.89572 0.440972,-0.28939 0.950846,-0.28939 0.502984,0 0.943956,0.28939 0.440973,0.28938 0.757921,0.89572 0.323839,0.59945 0.509875,1.52962 0.186035,0.92329 0.186035,2.19797 z m -0.950847,0 q 0,-2.01193 -0.36518,-3.06613 -0.36518,-1.0542 -1.08176,-1.0542 -0.73725,0 -1.10243,1.06798 -0.36518,1.06109 -0.36518,3.05235 0,2.01194 0.36518,3.06614 0.36518,1.0542 1.10243,1.0542 0.434082,0 0.757921,-0.42719 -0.337619,-0.31006 -0.606337,-0.66146 l 0.3514,-0.55122 q 0.227377,0.33073 0.564996,0.62012 0.37896,-1.04731 0.37896,-3.10059 z" style="font-style:normal;font-variant:normal;font-weight:normal;font-stretch:normal;font-size:14.11111164px;font-family:'Stint Ultra Condensed';-inkscape-font-specification:'Stint Ultra Condensed, ';text-align:end;text-anchor:end;fill:#800000;stroke:none;stroke-width:0.26458335" id="path1305" inkscape:connector-curvature="0"/>
      </g>
      <g id="text1411" style="font-style:normal;font-variant:normal;font-weight:normal;font-stretch:normal;font-size:3.52777791px;line-height:100%;font-family:Paddington;-inkscape-font-specification:Paddington;font-variant-ligatures:normal;font-variant-caps:normal;font-variant-numeric:normal;text-align:center;letter-spacing:0px;word-spacing:0px;writing-mode:lr-tb;text-anchor:middle;display:inline;fill:#ffffff;fill-opacity:1;stroke:none;stroke-width:0.26458335" aria-label="3">
        <path id="path1912" style="font-style:normal;font-variant:normal;font-weight:normal;font-stretch:normal;font-size:3.52777791px;font-family:Paddington;-inkscape-font-specification:Paddington;text-align:center;text-anchor:middle;fill:#ffffff;stroke-width:0.26458335" d="m 143.69066,166.34531 -0.50447,0.88194 q 0.20814,0.0741 0.33161,0.28928 0.11642,0.19403 0.11642,0.41275 0,0.31397 -0.23636,0.51858 -0.23637,0.20109 -0.56798,0.20109 -0.13052,0 -0.24341,-0.0388 -0.14464,-0.0494 -0.27517,-0.15169 -0.16581,-0.127 -0.19403,-0.26106 l 0.26459,-0.27869 h 0.0212 q 0.17992,0.34572 0.45509,0.34572 0.13405,0 0.23636,-0.0952 0.1023,-0.0953 0.1023,-0.23283 0,-0.24342 -0.16933,-0.34573 -0.14817,-0.0882 -0.45508,-0.0882 l 0.46213,-0.79728 h -0.88547 v -0.35983 z"/>
      </g>
    </g>
    </g></svg>
