<?xml version='1.0' encoding='UTF-8'?>
<!-- Created with Inkscape (http://www.inkscape.org/) and export_objects.py -->
<svg xmlns:cc="http://creativecommons.org/ns#" xmlns:dc="http://purl.org/dc/elements/1.1/" xmlns:inkscape="http://www.inkscape.org/namespaces/inkscape" xmlns:rdf="http://www.w3.org/1999/02/22-rdf-syntax-ns#" xmlns:sodipodi="http://sodipodi.sourceforge.net/DTD/sodipodi-0.dtd" xmlns:xlink="http://www.w3.org/1999/xlink" xmlns="http://www.w3.org/2000/svg" version="1.1" width="0.75000003125in" height="0.750000177083in" viewBox="0 0 19.0500007937 19.0500044979" id="svg8" inkscape:version="0.92.3 (2405546, 2018-03-11)" sodipodi:docname="kop12-11.svg"><sodipodi:namedview id="base" pagecolor="#ffffff" bordercolor="#666666" borderopacity="1.0" inkscape:pageopacity="0.0" inkscape:pageshadow="2" inkscape:zoom="1.7296259" inkscape:cx="295.71692" inkscape:cy="272.0908" inkscape:document-units="in" inkscape:current-layer="layer2" showgrid="false" units="in" inkscape:snap-others="true" inkscape:snap-grids="true" inkscape:window-width="1280" inkscape:window-height="940" inkscape:window-x="1909" inkscape:window-y="43" inkscape:window-maximized="1" inkscape:snap-midpoints="true" inkscape:object-nodes="true" inkscape:snap-text-baseline="true" inkscape:snap-smooth-nodes="false" showguides="false" inkscape:snap-object-midpoints="true" inkscape:snap-center="true" inkscape:snap-to-guides="false" inkscape:snap-nodes="true" inkscape:snap-intersection-paths="true">
    <inkscape:grid type="xygrid" id="grid10" units="pt" spacingx="3.1750001" spacingy="3.1750001"/>
    <sodipodi:guide position="380.20625,103.1875" orientation="0,1" id="guide9455" inkscape:locked="false"/>
  </sodipodi:namedview>
  <metadata id="metadata5">
    <rdf:RDF>
      <cc:Work rdf:about="">
        <dc:format>image/svg+xml</dc:format>
        <dc:type rdf:resource="http://purl.org/dc/dcmitype/StillImage"/>
        <dc:title/>
      </cc:Work>
    </rdf:RDF>
  </metadata>
  <g inkscape:groupmode="layer" inkscape:label="kop12-" transform="matrix(1.000000,0.000000,0.000000,1.000000,-73.025000,-155.574992)"><g id="g2202" inkscape:label="11">
      <rect y="155.575" x="73.025002" height="19.050005" width="19.050001" id="rect15109" style="display:inline;opacity:1;fill:#ffffff;fill-opacity:1;stroke:none;stroke-width:0.17638889;stroke-linecap:butt;stroke-linejoin:miter;stroke-miterlimit:47.14606857;stroke-dasharray:none;stroke-dashoffset:0;stroke-opacity:1;paint-order:markers fill stroke"/>
      <g id="text2519" style="display:inline;font-style:normal;font-variant:normal;font-weight:normal;font-stretch:normal;font-size:5.64444447px;line-height:100%;font-family:'Segoe Condensed';-inkscape-font-specification:'Segoe Condensed, ';font-variant-ligatures:normal;font-variant-caps:normal;font-variant-numeric:normal;text-align:center;letter-spacing:0px;word-spacing:0px;writing-mode:lr-tb;text-anchor:middle;fill:#000080;fill-opacity:1;stroke:none;stroke-width:0.26458335" aria-label="6">
        <path inkscape:connector-curvature="0" id="path1794" style="font-size:5.64444447px;text-align:center;text-anchor:middle;fill:#000080;stroke-width:0.26458335" d="m 83.390606,158.01964 v 0.3831 q -0.228754,-0.14607 -0.479557,-0.14607 -0.416167,0 -0.66697,0.46577 -0.248047,0.46302 -0.264584,1.27882 h 0.01378 q 0.234266,-0.57602 0.738628,-0.57602 0.383095,0 0.622873,0.339 0.239779,0.339 0.239779,0.87919 0,0.56499 -0.278364,0.95084 -0.278363,0.38585 -0.73036,0.38585 -0.476801,0 -0.738628,-0.4575 -0.261828,-0.46027 -0.261828,-1.34221 0,-1.05007 0.341754,-1.65641 0.344509,-0.60633 0.967383,-0.60633 0.289388,0 0.496093,0.10197 z m -0.777213,1.73909 q -0.256315,0 -0.424436,0.27009 -0.168121,0.26734 -0.168121,0.60358 0,0.42168 0.165365,0.71658 0.165365,0.2949 0.42168,0.2949 0.250803,0 0.413411,-0.27285 0.162609,-0.27285 0.162609,-0.66972 0,-0.41342 -0.151585,-0.678 -0.151584,-0.26458 -0.418923,-0.26458 z"/>
      </g>
      <path inkscape:export-ydpi="96" inkscape:export-xdpi="96" inkscape:export-filename="C:\mine\Vira\Vira table excerpts\Tourne.png" id="path15135" d="m 85.724966,162.71876 c -0.91105,0 -1.70845,0.61189 -1.94425,1.49188 -0.23578,0.88002 0.14888,1.80863 0.9378,2.26414 -0.78898,-0.45551 -1.78556,-0.32426 -2.42975,0.31993 -0.6442,0.6442 -0.77535,1.64076 -0.31984,2.42974 0.45553,0.78898 1.38416,1.1736 2.26415,0.93782 0.52969,-0.14195 0.96198,-0.4875 1.22241,-0.93872 l -0.80919,3.02021 h 2.15733 l -0.80928,-3.02045 c 0.26042,0.45133 0.6927,0.79698 1.2225,0.93896 0.87999,0.23578 1.8087,-0.14888 2.26423,-0.93782 0.45551,-0.78898 0.32428,-1.78554 -0.31993,-2.42974 -0.6442,-0.64421 -1.64078,-0.77544 -2.42976,-0.31993 0.78898,-0.45551 1.17368,-1.38414 0.93789,-2.26414 -0.23579,-0.87999 -1.03329,-1.49188 -1.94431,-1.49188 z" style="display:inline;opacity:1;fill:#000000;fill-opacity:1;stroke:none;stroke-width:0.07055556;stroke-linecap:butt;stroke-linejoin:miter;stroke-miterlimit:4;stroke-dasharray:none;stroke-dashoffset:0;paint-order:normal" inkscape:connector-curvature="0"/>
      <g transform="translate(-9.5250314,-23.102825)" id="text15157" style="font-style:normal;font-variant:normal;font-weight:normal;font-stretch:normal;font-size:14.11111164px;line-height:125%;font-family:'Stint Ultra Condensed';-inkscape-font-specification:'Stint Ultra Condensed, ';font-variant-ligatures:normal;font-variant-caps:normal;font-variant-numeric:normal;text-align:end;letter-spacing:0px;word-spacing:0px;writing-mode:lr-tb;text-anchor:end;display:inline;fill:#000000;fill-opacity:1;stroke:none;stroke-width:0.26458335" aria-label="J">
        <path inkscape:connector-curvature="0" id="path1881" style="font-style:normal;font-variant:normal;font-weight:normal;font-stretch:normal;font-size:14.11111164px;font-family:'Stint Ultra Condensed';-inkscape-font-specification:'Stint Ultra Condensed, ';text-align:end;text-anchor:end;fill:#000000;stroke:none;stroke-width:0.26458335" d="m 87.207773,185.7954 h 2.700955 v 0.77171 h -0.847494 v 6.1116 q 0,0.74414 -0.117133,1.2609 -0.110243,0.50987 -0.323839,0.83371 -0.206706,0.31695 -0.509874,0.46165 -0.296278,0.1378 -0.675239,0.1378 -0.37207,0 -0.668348,-0.12402 -0.289388,-0.12403 -0.496094,-0.46165 -0.206706,-0.34451 -0.316949,-0.95084 -0.110243,-0.60634 -0.110243,-1.56408 h 0.861274 q 0.0069,0.64768 0.02756,1.08865 0.02756,0.44098 0.09646,0.71658 0.07579,0.26872 0.220486,0.39275 0.144695,0.11713 0.385851,0.11713 0.241157,0 0.392741,-0.12402 0.151584,-0.13092 0.234267,-0.37208 0.08268,-0.24804 0.110243,-0.61322 0.02756,-0.36518 0.02756,-0.84061 v -6.07025 H 87.20777 Z"/>
      </g>
      <g id="text2591" style="font-style:normal;font-variant:normal;font-weight:normal;font-stretch:normal;font-size:3.52777791px;line-height:100%;font-family:Paddington;-inkscape-font-specification:Paddington;font-variant-ligatures:normal;font-variant-caps:normal;font-variant-numeric:normal;text-align:center;letter-spacing:0px;word-spacing:0px;writing-mode:lr-tb;text-anchor:middle;display:inline;fill:#ffffff;fill-opacity:1;stroke:none;stroke-width:0.26458335" aria-label="2">
        <path id="path1971" style="font-style:normal;font-variant:normal;font-weight:normal;font-stretch:normal;font-size:3.52777791px;font-family:Paddington;-inkscape-font-specification:Paddington;text-align:center;text-anchor:middle;fill:#ffffff;stroke-width:0.26458335" d="m 86.477309,165.89375 h -1.499305 l 0.839611,-1.29116 q 0.04939,-0.0776 0.09525,-0.20461 0.04586,-0.13053 0.04586,-0.21167 0,-0.10583 -0.08819,-0.17286 -0.08467,-0.067 -0.194028,-0.067 -0.331611,0 -0.638528,0.41628 h -0.01764 v -0.55386 q 0.331611,-0.24695 0.656167,-0.24695 0.331611,0 0.522111,0.17286 0.194028,0.17286 0.194028,0.48684 0,0.26811 -0.271639,0.69144 -0.218722,0.32103 -0.437445,0.63853 h 0.79375 z"/>
      </g>
    </g>
    </g></svg>
