<?xml version='1.0' encoding='UTF-8'?>
<!-- Created with Inkscape (http://www.inkscape.org/) and export_objects.py -->
<svg xmlns:cc="http://creativecommons.org/ns#" xmlns:dc="http://purl.org/dc/elements/1.1/" xmlns:inkscape="http://www.inkscape.org/namespaces/inkscape" xmlns:rdf="http://www.w3.org/1999/02/22-rdf-syntax-ns#" xmlns:sodipodi="http://sodipodi.sourceforge.net/DTD/sodipodi-0.dtd" xmlns:xlink="http://www.w3.org/1999/xlink" xmlns="http://www.w3.org/2000/svg" version="1.1" width="0.75000003125in" height="0.75000003125in" viewBox="0 0 19.0500007937 19.0500007937" id="svg8" inkscape:version="0.92.3 (2405546, 2018-03-11)" sodipodi:docname="kop14-08.svg"><sodipodi:namedview id="base" pagecolor="#ffffff" bordercolor="#666666" borderopacity="1.0" inkscape:pageopacity="0.0" inkscape:pageshadow="2" inkscape:zoom="1.7296259" inkscape:cx="846.70257" inkscape:cy="113.68814" inkscape:document-units="in" inkscape:current-layer="layer2" showgrid="false" units="in" inkscape:snap-others="true" inkscape:snap-grids="true" inkscape:window-width="1280" inkscape:window-height="940" inkscape:window-x="1909" inkscape:window-y="43" inkscape:window-maximized="1" inkscape:snap-midpoints="true" inkscape:object-nodes="true" inkscape:snap-text-baseline="true" inkscape:snap-smooth-nodes="false" showguides="false" inkscape:snap-object-midpoints="true" inkscape:snap-center="true" inkscape:snap-to-guides="false" inkscape:snap-nodes="true" inkscape:snap-intersection-paths="true">
    <inkscape:grid type="xygrid" id="grid10" units="pt" spacingx="3.1750001" spacingy="3.1750001"/>
    <sodipodi:guide position="380.20625,103.1875" orientation="0,1" id="guide9455" inkscape:locked="false"/>
  </sodipodi:namedview>
  <metadata id="metadata5">
    <rdf:RDF>
      <cc:Work rdf:about="">
        <dc:format>image/svg+xml</dc:format>
        <dc:type rdf:resource="http://purl.org/dc/dcmitype/StillImage"/>
        <dc:title/>
      </cc:Work>
    </rdf:RDF>
  </metadata>
  <g inkscape:groupmode="layer" inkscape:label="kop14-" transform="matrix(1.000000,0.000000,0.000000,1.000000,-206.374995,-130.174947)"><g id="g2432" inkscape:label="08">
      <g transform="translate(146.05,-65.225045)" style="display:inline;fill:#d7f4d7;stroke-width:0.99999988" id="g1199">
        <rect y="195.39999" x="60.325001" height="19.050001" width="19.050001" id="rect1197" style="opacity:1;fill:#d7f4d7;fill-opacity:1;stroke:none;stroke-width:0.17638886;stroke-linecap:butt;stroke-linejoin:miter;stroke-miterlimit:47.14606857;stroke-dasharray:none;stroke-dashoffset:0;stroke-opacity:1;paint-order:markers fill stroke"/>
      </g>
      <g id="text1239" style="display:inline;font-style:normal;font-variant:normal;font-weight:normal;font-stretch:normal;font-size:5.64444447px;line-height:100%;font-family:'Segoe Condensed';-inkscape-font-specification:'Segoe Condensed, ';font-variant-ligatures:normal;font-variant-caps:normal;font-variant-numeric:normal;text-align:center;letter-spacing:0px;word-spacing:0px;writing-mode:lr-tb;text-anchor:middle;fill:#000080;fill-opacity:1;stroke:none;stroke-width:0.26458335" aria-label="9">
        <path inkscape:connector-curvature="0" id="path1761" style="font-size:5.64444447px;text-align:center;text-anchor:middle;fill:#000080;stroke-width:0.26458335" d="m 215.06493,136.46162 v -0.38861 q 0.25081,0.17088 0.51539,0.17088 0.43546,0 0.66973,-0.43546 0.23702,-0.43546 0.24253,-1.28158 h -0.011 q -0.21222,0.53744 -0.71658,0.53744 -0.38585,0 -0.6339,-0.33349 -0.24529,-0.33348 -0.24529,-0.87092 0,-0.5898 0.28112,-0.96462 0.28112,-0.37759 0.73311,-0.37759 0.47681,0 0.73588,0.45751 0.25907,0.45476 0.25907,1.34772 0,1.09417 -0.33073,1.6757 -0.33073,0.58153 -0.96187,0.58153 -0.29215,0 -0.53744,-0.11851 z m 0.80753,-3.60495 q -0.2508,0 -0.41341,0.26458 -0.16261,0.26183 -0.16261,0.66146 0,0.42995 0.16261,0.68627 0.16537,0.25631 0.41893,0.25631 0.23702,0 0.4079,-0.24805 0.17363,-0.2508 0.17363,-0.59255 0,-0.44373 -0.16812,-0.73587 -0.16537,-0.29215 -0.41893,-0.29215 z"/>
      </g>
      <path inkscape:export-ydpi="96" inkscape:export-xdpi="96" inkscape:export-filename="C:\mine\Vira\Vira table excerpts\Tourne.png" id="path1297" d="m 219.07498,137.31875 -3.55013,4.19987 h 3.4e-4 a 2.0128663,2.0128663 0 0 0 -0.47586,1.29939 2.0128663,2.0128663 0 0 0 2.01287,2.01287 2.0128663,2.0128663 0 0 0 1.7457,-1.01576 l -0.81159,3.02863 h 2.15743 l -0.8106,-3.02537 a 2.0128663,2.0128663 0 0 0 1.74481,1.0125 2.0128663,2.0128663 0 0 0 2.01285,-2.01287 2.0128663,2.0128663 0 0 0 -0.47586,-1.29939 h 2.7e-4 z" style="display:inline;opacity:1;fill:#000000;fill-opacity:1;stroke:none;stroke-width:0.07055558;stroke-linecap:butt;stroke-linejoin:miter;stroke-miterlimit:4;stroke-dasharray:none;stroke-dashoffset:0;paint-order:normal" inkscape:connector-curvature="0"/>
      <g aria-label="Q" style="font-style:normal;font-variant:normal;font-weight:normal;font-stretch:normal;font-size:14.11111164px;line-height:125%;font-family:'Stint Ultra Condensed';-inkscape-font-specification:'Stint Ultra Condensed, ';font-variant-ligatures:normal;font-variant-caps:normal;font-variant-numeric:normal;text-align:end;letter-spacing:0px;word-spacing:0px;writing-mode:lr-tb;text-anchor:end;display:inline;fill:#000000;fill-opacity:1;stroke:none;stroke-width:0.26458335" id="g1301" transform="translate(146.04998,18.15841)">
        <path d="m 68.186722,123.86084 q 0,1.21267 -0.172255,2.10151 -0.165365,0.88883 -0.461643,1.49517 0.3514,0.21359 0.73036,0.36518 0.378961,0.15158 0.751031,0.21359 l -0.344509,0.86128 q -0.392741,-0.13781 -0.778592,-0.3514 -0.37896,-0.2136 -0.744141,-0.46853 -0.289388,0.35139 -0.640787,0.52365 -0.34451,0.17225 -0.737251,0.17225 -0.516764,0 -0.957736,-0.28938 -0.440973,-0.28939 -0.764812,-0.88884 -0.323839,-0.60634 -0.509874,-1.52962 -0.186035,-0.93018 -0.186035,-2.20486 0,-1.2678 0.186035,-2.19108 0.186035,-0.93018 0.509874,-1.53652 0.33073,-0.60633 0.771702,-0.89572 0.440972,-0.28939 0.950846,-0.28939 0.502984,0 0.943956,0.28939 0.440973,0.28939 0.757921,0.89572 0.323839,0.59945 0.509875,1.52963 0.186035,0.92328 0.186035,2.19797 z m -0.950847,0 q 0,-2.01194 -0.36518,-3.06614 -0.36518,-1.0542 -1.08176,-1.0542 -0.73725,0 -1.10243,1.06798 -0.36518,1.06109 -0.36518,3.05236 0,2.01193 0.36518,3.06613 0.36518,1.0542 1.10243,1.0542 0.434082,0 0.757921,-0.42719 -0.337619,-0.31006 -0.606337,-0.66146 l 0.3514,-0.55121 q 0.227377,0.33073 0.564996,0.62011 0.37896,-1.04731 0.37896,-3.10058 z" style="font-style:normal;font-variant:normal;font-weight:normal;font-stretch:normal;font-size:14.11111164px;font-family:'Stint Ultra Condensed';-inkscape-font-specification:'Stint Ultra Condensed, ';text-align:end;text-anchor:end;fill:#000000;stroke:none;stroke-width:0.26458335" id="path1299" inkscape:connector-curvature="0"/>
      </g>
      <g id="text1407" style="font-style:normal;font-variant:normal;font-weight:normal;font-stretch:normal;font-size:3.52777791px;line-height:100%;font-family:Paddington;-inkscape-font-specification:Paddington;font-variant-ligatures:normal;font-variant-caps:normal;font-variant-numeric:normal;text-align:center;letter-spacing:0px;word-spacing:0px;writing-mode:lr-tb;text-anchor:middle;display:inline;fill:#ffffff;fill-opacity:1;stroke:none;stroke-width:0.26458335" aria-label="3">
        <path id="path1915" style="font-style:normal;font-variant:normal;font-weight:normal;font-stretch:normal;font-size:3.52777791px;font-family:Paddington;-inkscape-font-specification:Paddington;text-align:center;text-anchor:middle;fill:#ffffff;stroke-width:0.26458335" d="m 219.89064,140.94531 -0.50447,0.88195 q 0.20814,0.0741 0.33161,0.28928 0.11642,0.19402 0.11642,0.41275 0,0.31397 -0.23636,0.51858 -0.23636,0.20108 -0.56798,0.20108 -0.13052,0 -0.24341,-0.0388 -0.14464,-0.0494 -0.27517,-0.1517 -0.1658,-0.127 -0.19403,-0.26105 l 0.26459,-0.2787 h 0.0212 q 0.17992,0.34573 0.45509,0.34573 0.13405,0 0.23636,-0.0952 0.1023,-0.0952 0.1023,-0.23284 0,-0.24341 -0.16933,-0.34572 -0.14817,-0.0882 -0.45508,-0.0882 l 0.46214,-0.79728 H 218.349 v -0.35984 z"/>
      </g>
    </g>
    </g></svg>
