<?xml version='1.0' encoding='UTF-8'?>
<!-- Created with Inkscape (http://www.inkscape.org/) and export_objects.py -->
<svg xmlns:cc="http://creativecommons.org/ns#" xmlns:dc="http://purl.org/dc/elements/1.1/" xmlns:inkscape="http://www.inkscape.org/namespaces/inkscape" xmlns:rdf="http://www.w3.org/1999/02/22-rdf-syntax-ns#" xmlns:sodipodi="http://sodipodi.sourceforge.net/DTD/sodipodi-0.dtd" xmlns:xlink="http://www.w3.org/1999/xlink" xmlns="http://www.w3.org/2000/svg" version="1.1" width="0.75000003125in" height="0.750000177083in" viewBox="0 0 19.0500007937 19.0500044979" id="svg8" inkscape:version="0.92.3 (2405546, 2018-03-11)" sodipodi:docname="kop12-09.svg"><sodipodi:namedview id="base" pagecolor="#ffffff" bordercolor="#666666" borderopacity="1.0" inkscape:pageopacity="0.0" inkscape:pageshadow="2" inkscape:zoom="1.7296259" inkscape:cx="295.71692" inkscape:cy="272.0908" inkscape:document-units="in" inkscape:current-layer="layer2" showgrid="false" units="in" inkscape:snap-others="true" inkscape:snap-grids="true" inkscape:window-width="1280" inkscape:window-height="940" inkscape:window-x="1909" inkscape:window-y="43" inkscape:window-maximized="1" inkscape:snap-midpoints="true" inkscape:object-nodes="true" inkscape:snap-text-baseline="true" inkscape:snap-smooth-nodes="false" showguides="false" inkscape:snap-object-midpoints="true" inkscape:snap-center="true" inkscape:snap-to-guides="false" inkscape:snap-nodes="true" inkscape:snap-intersection-paths="true">
    <inkscape:grid type="xygrid" id="grid10" units="pt" spacingx="3.1750001" spacingy="3.1750001"/>
    <sodipodi:guide position="380.20625,103.1875" orientation="0,1" id="guide9455" inkscape:locked="false"/>
  </sodipodi:namedview>
  <metadata id="metadata5">
    <rdf:RDF>
      <cc:Work rdf:about="">
        <dc:format>image/svg+xml</dc:format>
        <dc:type rdf:resource="http://purl.org/dc/dcmitype/StillImage"/>
        <dc:title/>
      </cc:Work>
    </rdf:RDF>
  </metadata>
  <g inkscape:groupmode="layer" inkscape:label="kop12-" transform="matrix(1.000000,0.000000,0.000000,1.000000,-22.225000,-155.574992)"><g id="g2170" inkscape:label="09">
      <rect style="display:inline;opacity:1;fill:#ffffff;fill-opacity:1;stroke:none;stroke-width:0.17638889;stroke-linecap:butt;stroke-linejoin:miter;stroke-miterlimit:47.14606857;stroke-dasharray:none;stroke-dashoffset:0;stroke-opacity:1;paint-order:markers fill stroke" id="rect15097" width="19.050001" height="19.050005" x="22.225" y="155.575"/>
      <g id="text2511" style="display:inline;font-style:normal;font-variant:normal;font-weight:normal;font-stretch:normal;font-size:5.64444447px;line-height:100%;font-family:'Segoe Condensed';-inkscape-font-specification:'Segoe Condensed, ';font-variant-ligatures:normal;font-variant-caps:normal;font-variant-numeric:normal;text-align:center;letter-spacing:0px;word-spacing:0px;writing-mode:lr-tb;text-anchor:middle;fill:#000080;fill-opacity:1;stroke:none;stroke-width:0.26458335" aria-label="8">
        <path inkscape:connector-curvature="0" id="path1800" style="font-size:5.64444447px;text-align:center;text-anchor:middle;fill:#000080;stroke-width:0.26458335" d="m 31.430303,159.87173 v -0.0138 q -0.570508,-0.33625 -0.570508,-0.95361 0,-0.43821 0.253559,-0.71106 0.256315,-0.27561 0.672483,-0.27561 0.394119,0 0.633897,0.25631 0.239779,0.25632 0.239779,0.66973 0,0.6587 -0.620117,1.00872 v 0.011 q 0.711067,0.31695 0.711067,1.05558 0,0.49609 -0.270095,0.77996 -0.26734,0.28112 -0.763433,0.28112 -0.427192,0 -0.694532,-0.28112 -0.264583,-0.28112 -0.264583,-0.73311 0,-0.73312 0.672483,-1.09416 z m 0.319705,-0.1819 q 0.520898,-0.2701 0.520898,-0.80754 0,-0.2949 -0.137804,-0.46853 -0.137804,-0.17363 -0.366558,-0.17363 -0.223242,0 -0.374826,0.17914 -0.148828,0.17915 -0.148828,0.46302 0,0.53468 0.507118,0.80754 z m -0.01654,0.3445 q -0.587044,0.30593 -0.587044,0.904 0,0.3197 0.162608,0.51538 0.165365,0.19569 0.446485,0.19569 0.283876,0 0.443728,-0.19293 0.159853,-0.19568 0.159853,-0.51814 0,-0.62839 -0.62563,-0.904 z"/>
      </g>
      <path style="display:inline;opacity:1;fill:#800000;fill-opacity:1;stroke:none;stroke-width:0.07055553;stroke-linecap:butt;stroke-linejoin:miter;stroke-miterlimit:4;stroke-dasharray:none;stroke-dashoffset:0;paint-order:normal" d="m 34.924994,172.24376 -3.75619,-6.50569 0.002,-4.9e-4 a 2.0128707,2.0128707 0 0 1 -0.2715,-1.00594 2.0128707,2.0128707 0 0 1 2.01286,-2.01288 2.0128707,2.0128707 0 0 1 2.01287,2.01288 2.0128707,2.0128707 0 0 1 2.01287,-2.01288 2.0128707,2.0128707 0 0 1 2.01287,2.01288 2.0128707,2.0128707 0 0 1 -0.27151,1.00594 l 10e-4,4.9e-4 z" id="path15115" inkscape:connector-curvature="0" inkscape:export-filename="C:\mine\Vira\Vira table excerpts\heart-icon.png" inkscape:export-xdpi="96" inkscape:export-ydpi="96"/>
      <g transform="translate(-38.100006,21.333415)" id="text15125" style="font-style:normal;font-variant:normal;font-weight:normal;font-stretch:normal;font-size:14.11111164px;line-height:125%;font-family:'Stint Ultra Condensed';-inkscape-font-specification:'Stint Ultra Condensed, ';font-variant-ligatures:normal;font-variant-caps:normal;font-variant-numeric:normal;text-align:end;letter-spacing:0px;word-spacing:0px;writing-mode:lr-tb;text-anchor:end;display:inline;fill:#800000;fill-opacity:1;stroke:none;stroke-width:0.26458335" aria-label="Q">
        <path inkscape:connector-curvature="0" id="path1899" style="font-style:normal;font-variant:normal;font-weight:normal;font-stretch:normal;font-size:14.11111164px;font-family:'Stint Ultra Condensed';-inkscape-font-specification:'Stint Ultra Condensed, ';text-align:end;text-anchor:end;fill:#800000;stroke:none;stroke-width:0.26458335" d="m 68.186722,146.08584 q 0,1.21268 -0.172255,2.10151 -0.165365,0.88884 -0.461643,1.49517 0.3514,0.2136 0.73036,0.36518 0.378961,0.15159 0.751031,0.2136 l -0.344509,0.86127 q -0.392741,-0.1378 -0.778592,-0.3514 -0.37896,-0.21359 -0.744141,-0.46853 -0.289388,0.3514 -0.640787,0.52366 -0.34451,0.17225 -0.737251,0.17225 -0.516764,0 -0.957736,-0.28939 -0.440973,-0.28939 -0.764812,-0.88883 -0.323839,-0.60634 -0.509874,-1.52962 -0.186035,-0.93018 -0.186035,-2.20487 0,-1.26779 0.186035,-2.19108 0.186035,-0.93017 0.509874,-1.53651 0.33073,-0.60634 0.771702,-0.89572 0.440972,-0.28939 0.950846,-0.28939 0.502984,0 0.943956,0.28939 0.440973,0.28938 0.757921,0.89572 0.323839,0.59945 0.509875,1.52962 0.186035,0.92329 0.186035,2.19797 z m -0.950847,0 q 0,-2.01193 -0.36518,-3.06613 -0.36518,-1.0542 -1.08176,-1.0542 -0.73725,0 -1.10243,1.06798 -0.36518,1.06109 -0.36518,3.05235 0,2.01194 0.36518,3.06614 0.36518,1.0542 1.10243,1.0542 0.434082,0 0.757921,-0.42719 -0.337619,-0.31006 -0.606337,-0.66146 l 0.3514,-0.55122 q 0.227377,0.33073 0.564996,0.62012 0.37896,-1.04731 0.37896,-3.10059 z"/>
      </g>
      <g id="text2583" style="font-style:normal;font-variant:normal;font-weight:normal;font-stretch:normal;font-size:3.52777791px;line-height:100%;font-family:Paddington;-inkscape-font-specification:Paddington;font-variant-ligatures:normal;font-variant-caps:normal;font-variant-numeric:normal;text-align:center;letter-spacing:0px;word-spacing:0px;writing-mode:lr-tb;text-anchor:middle;display:inline;fill:#ffffff;fill-opacity:1;stroke:none;stroke-width:0.26458335" aria-label="3">
        <path id="path1977" style="font-style:normal;font-variant:normal;font-weight:normal;font-stretch:normal;font-size:3.52777791px;font-family:Paddington;-inkscape-font-specification:Paddington;text-align:center;text-anchor:middle;fill:#ffffff;stroke-width:0.26458335" d="m 35.740652,166.34531 -0.504472,0.88194 q 0.208139,0.0741 0.331611,0.28928 0.116417,0.19403 0.116417,0.41275 0,0.31397 -0.236361,0.51858 -0.236361,0.20109 -0.567972,0.20109 -0.130528,0 -0.243417,-0.0388 -0.144639,-0.0494 -0.275167,-0.15169 -0.165805,-0.127 -0.194028,-0.26106 l 0.264584,-0.27869 h 0.02117 q 0.179916,0.34572 0.455083,0.34572 0.134055,0 0.236361,-0.0952 0.102306,-0.0953 0.102306,-0.23283 0,-0.24342 -0.169334,-0.34573 -0.148166,-0.0882 -0.455083,-0.0882 l 0.462139,-0.79728 h -0.885473 v -0.35983 z"/>
      </g>
    </g>
    </g></svg>
