<?xml version='1.0' encoding='UTF-8'?>
<!-- Created with Inkscape (http://www.inkscape.org/) and export_objects.py -->
<svg xmlns:cc="http://creativecommons.org/ns#" xmlns:dc="http://purl.org/dc/elements/1.1/" xmlns:inkscape="http://www.inkscape.org/namespaces/inkscape" xmlns:rdf="http://www.w3.org/1999/02/22-rdf-syntax-ns#" xmlns:sodipodi="http://sodipodi.sourceforge.net/DTD/sodipodi-0.dtd" xmlns:xlink="http://www.w3.org/1999/xlink" xmlns="http://www.w3.org/2000/svg" version="1.1" width="0.75000003125in" height="0.74999965625in" viewBox="0 0 19.0500007937 19.0499912687" id="svg8" inkscape:version="0.92.3 (2405546, 2018-03-11)" sodipodi:docname="kop12-02.svg"><sodipodi:namedview id="base" pagecolor="#ffffff" bordercolor="#666666" borderopacity="1.0" inkscape:pageopacity="0.0" inkscape:pageshadow="2" inkscape:zoom="1.7296259" inkscape:cx="295.71692" inkscape:cy="272.0908" inkscape:document-units="in" inkscape:current-layer="layer2" showgrid="false" units="in" inkscape:snap-others="true" inkscape:snap-grids="true" inkscape:window-width="1280" inkscape:window-height="940" inkscape:window-x="1909" inkscape:window-y="43" inkscape:window-maximized="1" inkscape:snap-midpoints="true" inkscape:object-nodes="true" inkscape:snap-text-baseline="true" inkscape:snap-smooth-nodes="false" showguides="false" inkscape:snap-object-midpoints="true" inkscape:snap-center="true" inkscape:snap-to-guides="false" inkscape:snap-nodes="true" inkscape:snap-intersection-paths="true">
    <inkscape:grid type="xygrid" id="grid10" units="pt" spacingx="3.1750001" spacingy="3.1750001"/>
    <sodipodi:guide position="380.20625,103.1875" orientation="0,1" id="guide9455" inkscape:locked="false"/>
  </sodipodi:namedview>
  <metadata id="metadata5">
    <rdf:RDF>
      <cc:Work rdf:about="">
        <dc:format>image/svg+xml</dc:format>
        <dc:type rdf:resource="http://purl.org/dc/dcmitype/StillImage"/>
        <dc:title/>
      </cc:Work>
    </rdf:RDF>
  </metadata>
  <g inkscape:groupmode="layer" inkscape:label="kop12-" transform="matrix(1.000000,0.000000,0.000000,1.000000,-98.425000,-104.775000)"><g id="g2078" inkscape:label="02">
      <rect style="display:inline;opacity:1;fill:#ffffff;fill-opacity:1;stroke:none;stroke-width:0.17638889;stroke-linecap:butt;stroke-linejoin:miter;stroke-miterlimit:47.14606857;stroke-dasharray:none;stroke-dashoffset:0;stroke-opacity:1;paint-order:markers fill stroke" id="rect15165" width="19.050001" height="19.049992" x="98.425003" y="104.775"/>
      <path inkscape:connector-curvature="0" style="display:inline;opacity:1;fill:#000000;fill-opacity:1;stroke:none;stroke-width:0.07055556;stroke-linecap:butt;stroke-linejoin:miter;stroke-miterlimit:4;stroke-dasharray:none;stroke-dashoffset:0;paint-order:normal" d="m 111.91877,109.5375 c -0.91104,0 -1.70844,0.61189 -1.94424,1.49188 -0.23578,0.88002 0.14888,1.80863 0.9378,2.26414 -0.78898,-0.45551 -1.78556,-0.32426 -2.42976,0.31993 -0.64419,0.6442 -0.77535,1.64076 -0.31983,2.42974 0.45553,0.78898 1.38416,1.1736 2.26415,0.93782 0.52969,-0.14195 0.96197,-0.4875 1.22241,-0.93872 l -0.80919,3.02021 h 2.15733 l -0.80928,-3.02045 c 0.26041,0.45133 0.6927,0.79698 1.2225,0.93896 0.87999,0.23578 1.8087,-0.14888 2.26423,-0.93782 0.45551,-0.78898 0.32428,-1.78554 -0.31993,-2.42974 -0.6442,-0.64421 -1.64078,-0.77544 -2.42976,-0.31993 0.78898,-0.45551 1.17367,-1.38414 0.93789,-2.26414 -0.2358,-0.87999 -1.03329,-1.49188 -1.94432,-1.49188 z" id="path15191" inkscape:export-filename="C:\mine\Vira\Vira table excerpts\Tourne.png" inkscape:export-xdpi="96" inkscape:export-ydpi="96"/>
      <path d="m 99.951194,118.2481 h 0.916386 v -7.93061 l -1.129986,0.70969 v -0.76481 l 1.129986,-0.7028 h 0.8475 v 8.68853 h 0.91639 v 0.77859 h -2.680276 z" style="font-style:normal;font-variant:normal;font-weight:normal;font-stretch:normal;font-size:14.11111164px;line-height:125%;font-family:'Stint Ultra Condensed';-inkscape-font-specification:'Stint Ultra Condensed, ';font-variant-ligatures:normal;font-variant-caps:normal;font-variant-numeric:normal;text-align:end;letter-spacing:0px;word-spacing:0px;writing-mode:lr-tb;text-anchor:end;fill:#000000;fill-opacity:1;stroke:none;stroke-width:0.26458335" id="path1861" inkscape:connector-curvature="0"/>
      <path d="m 107.21345,114.30002 q 0,1.29536 -0.15158,2.22553 -0.15159,0.93018 -0.4203,1.52963 -0.26872,0.59255 -0.64079,0.87505 -0.36518,0.2825 -0.79237,0.2825 -0.43409,0 -0.80616,-0.2825 -0.36518,-0.2825 -0.64078,-0.87505 -0.26872,-0.59945 -0.42031,-1.52963 -0.15158,-0.93017 -0.15158,-2.22553 0,-1.28846 0.15158,-2.21864 0.15159,-0.93018 0.42031,-1.52962 0.2756,-0.59945 0.64078,-0.88195 0.37207,-0.2825 0.80616,-0.2825 0.42719,0 0.79237,0.2825 0.37207,0.2825 0.64079,0.88195 0.26871,0.59944 0.4203,1.52962 0.15158,0.93018 0.15158,2.21864 z m -0.87505,0 q 0,-1.10932 -0.0896,-1.8948 -0.0827,-0.79237 -0.23426,-1.29536 -0.15159,-0.50298 -0.35829,-0.73725 -0.20671,-0.23426 -0.44786,-0.23426 -0.24116,0 -0.45476,0.23426 -0.2067,0.23427 -0.36518,0.73725 -0.15158,0.50299 -0.24115,1.29536 -0.0827,0.78548 -0.0827,1.8948 0,1.10932 0.0827,1.90169 0.0896,0.78549 0.24115,1.28847 0.15848,0.50298 0.36518,0.73725 0.2136,0.23427 0.45476,0.23427 0.24115,0 0.44786,-0.23427 0.2067,-0.23427 0.35829,-0.73725 0.15158,-0.50987 0.23426,-1.29536 0.0896,-0.78548 0.0896,-1.8948 z" style="font-style:normal;font-variant:normal;font-weight:normal;font-stretch:normal;font-size:14.11111164px;line-height:125%;font-family:'Stint Ultra Condensed';-inkscape-font-specification:'Stint Ultra Condensed, ';font-variant-ligatures:normal;font-variant-caps:normal;font-variant-numeric:normal;text-align:end;letter-spacing:0px;word-spacing:0px;writing-mode:lr-tb;text-anchor:end;fill:#000000;fill-opacity:1;stroke:none;stroke-width:0.26458335" id="path1863" inkscape:connector-curvature="0"/>
      <path d="m 111.22765,112.7126 h -0.40922 v -2.28247 h 0.40922 z" style="font-style:normal;font-variant:normal;font-weight:normal;font-stretch:normal;font-size:3.52777791px;line-height:100%;font-family:Paddington;-inkscape-font-specification:Paddington;font-variant-ligatures:normal;font-variant-caps:normal;font-variant-numeric:normal;text-align:center;letter-spacing:0px;word-spacing:0px;writing-mode:lr-tb;text-anchor:middle;fill:#ffffff;fill-opacity:1;stroke:none;stroke-width:0.26458335" id="path2006" inkscape:connector-curvature="0"/>
      <path d="m 113.12576,111.5696 q 0,0.41628 -0.16228,0.74083 -0.21167,0.41981 -0.61383,0.41981 -0.39864,0 -0.61031,-0.41981 -0.16228,-0.32455 -0.16228,-0.74083 0,-0.41628 0.16228,-0.74083 0.21167,-0.41981 0.61031,-0.41981 0.40569,0 0.61383,0.41628 0.16228,0.32456 0.16228,0.74436 z m -0.39511,0 q 0,-0.25753 -0.0741,-0.48683 -0.1023,-0.3175 -0.29986,-0.3175 -0.12347,0 -0.22225,0.16933 -0.0811,0.13406 -0.11641,0.31397 -0.0318,0.15875 -0.0318,0.32103 0,0.26458 0.0705,0.48683 0.0988,0.31398 0.29986,0.31398 0.20461,0 0.30339,-0.31398 0.0706,-0.22225 0.0706,-0.48683 z" style="font-style:normal;font-variant:normal;font-weight:normal;font-stretch:normal;font-size:3.52777791px;line-height:100%;font-family:Paddington;-inkscape-font-specification:Paddington;font-variant-ligatures:normal;font-variant-caps:normal;font-variant-numeric:normal;text-align:center;letter-spacing:0px;word-spacing:0px;writing-mode:lr-tb;text-anchor:middle;fill:#ffffff;fill-opacity:1;stroke:none;stroke-width:0.26458335" id="path2008" inkscape:connector-curvature="0"/>
    </g>
    </g></svg>
