<?xml version='1.0' encoding='UTF-8'?>
<!-- Created with Inkscape (http://www.inkscape.org/) and export_objects.py -->
<svg xmlns:cc="http://creativecommons.org/ns#" xmlns:dc="http://purl.org/dc/elements/1.1/" xmlns:inkscape="http://www.inkscape.org/namespaces/inkscape" xmlns:rdf="http://www.w3.org/1999/02/22-rdf-syntax-ns#" xmlns:sodipodi="http://sodipodi.sourceforge.net/DTD/sodipodi-0.dtd" xmlns:xlink="http://www.w3.org/1999/xlink" xmlns="http://www.w3.org/2000/svg" version="1.1" width="0.75000003125in" height="0.74999965625in" viewBox="0 0 19.0500007937 19.0499912687" id="svg8" inkscape:version="0.92.3 (2405546, 2018-03-11)" sodipodi:docname="kop12-03.svg"><sodipodi:namedview id="base" pagecolor="#ffffff" bordercolor="#666666" borderopacity="1.0" inkscape:pageopacity="0.0" inkscape:pageshadow="2" inkscape:zoom="1.7296259" inkscape:cx="295.71692" inkscape:cy="272.0908" inkscape:document-units="in" inkscape:current-layer="layer2" showgrid="false" units="in" inkscape:snap-others="true" inkscape:snap-grids="true" inkscape:window-width="1280" inkscape:window-height="940" inkscape:window-x="1909" inkscape:window-y="43" inkscape:window-maximized="1" inkscape:snap-midpoints="true" inkscape:object-nodes="true" inkscape:snap-text-baseline="true" inkscape:snap-smooth-nodes="false" showguides="false" inkscape:snap-object-midpoints="true" inkscape:snap-center="true" inkscape:snap-to-guides="false" inkscape:snap-nodes="true" inkscape:snap-intersection-paths="true">
    <inkscape:grid type="xygrid" id="grid10" units="pt" spacingx="3.1750001" spacingy="3.1750001"/>
    <sodipodi:guide position="380.20625,103.1875" orientation="0,1" id="guide9455" inkscape:locked="false"/>
  </sodipodi:namedview>
  <metadata id="metadata5">
    <rdf:RDF>
      <cc:Work rdf:about="">
        <dc:format>image/svg+xml</dc:format>
        <dc:type rdf:resource="http://purl.org/dc/dcmitype/StillImage"/>
        <dc:title/>
      </cc:Work>
    </rdf:RDF>
  </metadata>
  <g inkscape:groupmode="layer" inkscape:label="kop12-" transform="matrix(1.000000,0.000000,0.000000,1.000000,-47.625000,-104.775000)"><g id="g2056" inkscape:label="03">
      <rect y="104.775" x="47.625" height="19.049992" width="19.050001" id="rect15159" style="display:inline;opacity:1;fill:#ffffff;fill-opacity:1;stroke:none;stroke-width:0.17638889;stroke-linecap:butt;stroke-linejoin:miter;stroke-miterlimit:47.14606857;stroke-dasharray:none;stroke-dashoffset:0;stroke-opacity:1;paint-order:markers fill stroke"/>
      <path inkscape:connector-curvature="0" style="display:inline;opacity:1;fill:#000000;fill-opacity:1;stroke:none;stroke-width:0.07055558;stroke-linecap:butt;stroke-linejoin:miter;stroke-miterlimit:4;stroke-dasharray:none;stroke-dashoffset:0;paint-order:normal" d="m 61.118759,109.5375 -3.550119,4.19987 h 3.4e-4 a 2.0128663,2.0128663 0 0 0 -0.47586,1.29939 2.0128663,2.0128663 0 0 0 2.012869,2.01287 2.0128663,2.0128663 0 0 0 1.7457,-1.01576 l -0.81159,3.02863 h 2.15743 l -0.8106,-3.02537 a 2.0128663,2.0128663 0 0 0 1.7448,1.0125 2.0128663,2.0128663 0 0 0 2.01285,-2.01287 2.0128663,2.0128663 0 0 0 -0.47586,-1.29939 h 2.6e-4 z" id="path15193" inkscape:export-filename="C:\mine\Vira\Vira table excerpts\Tourne.png" inkscape:export-xdpi="96" inkscape:export-ydpi="96"/>
      <path d="m 49.151185,118.24809 h 0.91639 v -7.93061 l -1.12999,0.70969 v -0.76481 l 1.12999,-0.7028 h 0.8475 v 8.68853 h 0.91639 v 0.77859 h -2.68028 z" style="font-style:normal;font-variant:normal;font-weight:normal;font-stretch:normal;font-size:14.11111164px;line-height:125%;font-family:'Stint Ultra Condensed';-inkscape-font-specification:'Stint Ultra Condensed, ';font-variant-ligatures:normal;font-variant-caps:normal;font-variant-numeric:normal;text-align:end;letter-spacing:0px;word-spacing:0px;writing-mode:lr-tb;text-anchor:end;fill:#000000;fill-opacity:1;stroke:none;stroke-width:0.26458335" id="path1876" inkscape:connector-curvature="0"/>
      <path d="m 56.413445,114.30001 q 0,1.29536 -0.15159,2.22553 -0.15158,0.93018 -0.4203,1.52963 -0.26871,0.59255 -0.64078,0.87505 -0.36519,0.2825 -0.79238,0.2825 -0.43408,0 -0.80615,-0.2825 -0.36518,-0.2825 -0.64079,-0.87505 -0.26871,-0.59945 -0.4203,-1.52963 -0.15158,-0.93017 -0.15158,-2.22553 0,-1.28846 0.15158,-2.21864 0.15159,-0.93017 0.4203,-1.52962 0.27561,-0.59945 0.64079,-0.88195 0.37207,-0.28249 0.80615,-0.28249 0.42719,0 0.79238,0.28249 0.37207,0.2825 0.64078,0.88195 0.26872,0.59945 0.4203,1.52962 0.15159,0.93018 0.15159,2.21864 z m -0.87506,0 q 0,-1.10932 -0.0896,-1.8948 -0.0827,-0.79237 -0.23426,-1.29536 -0.15159,-0.50298 -0.35829,-0.73725 -0.20671,-0.23426 -0.44787,-0.23426 -0.24115,0 -0.45475,0.23426 -0.20671,0.23427 -0.36518,0.73725 -0.15158,0.50299 -0.24116,1.29536 -0.0827,0.78548 -0.0827,1.8948 0,1.10932 0.0827,1.9017 0.0896,0.78548 0.24116,1.28846 0.15847,0.50299 0.36518,0.73725 0.2136,0.23427 0.45475,0.23427 0.24116,0 0.44787,-0.23427 0.2067,-0.23426 0.35829,-0.73725 0.15158,-0.50987 0.23426,-1.29535 0.0896,-0.78549 0.0896,-1.89481 z" style="font-style:normal;font-variant:normal;font-weight:normal;font-stretch:normal;font-size:14.11111164px;line-height:125%;font-family:'Stint Ultra Condensed';-inkscape-font-specification:'Stint Ultra Condensed, ';font-variant-ligatures:normal;font-variant-caps:normal;font-variant-numeric:normal;text-align:end;letter-spacing:0px;word-spacing:0px;writing-mode:lr-tb;text-anchor:end;fill:#000000;fill-opacity:1;stroke:none;stroke-width:0.26458335" id="path1878" inkscape:connector-curvature="0"/>
      <path d="m 60.374404,115.44302 h -0.409223 v -2.28247 h 0.409223 z" style="font-style:normal;font-variant:normal;font-weight:normal;font-stretch:normal;font-size:3.52777791px;line-height:100%;font-family:Paddington;-inkscape-font-specification:Paddington;font-variant-ligatures:normal;font-variant-caps:normal;font-variant-numeric:normal;text-align:center;letter-spacing:0px;word-spacing:0px;writing-mode:lr-tb;text-anchor:middle;fill:#ffffff;fill-opacity:1;stroke:none;stroke-width:0.26458335" id="path2001" inkscape:connector-curvature="0"/>
      <path d="m 62.272514,114.30002 q 0,0.41628 -0.162278,0.74084 -0.211667,0.4198 -0.613834,0.4198 -0.398638,0 -0.610305,-0.4198 -0.162278,-0.32456 -0.162278,-0.74084 0,-0.41627 0.162278,-0.74083 0.211667,-0.41981 0.610305,-0.41981 0.405695,0 0.613834,0.41628 0.162278,0.32456 0.162278,0.74436 z m -0.395112,0 q 0,-0.25752 -0.07408,-0.48683 -0.102305,-0.3175 -0.299861,-0.3175 -0.123472,0 -0.22225,0.16933 -0.08114,0.13406 -0.116417,0.31398 -0.03175,0.15875 -0.03175,0.32102 0,0.26459 0.07056,0.48684 0.09878,0.31397 0.299861,0.31397 0.204611,0 0.303389,-0.31397 0.07055,-0.22225 0.07055,-0.48684 z" style="font-style:normal;font-variant:normal;font-weight:normal;font-stretch:normal;font-size:3.52777791px;line-height:100%;font-family:Paddington;-inkscape-font-specification:Paddington;font-variant-ligatures:normal;font-variant-caps:normal;font-variant-numeric:normal;text-align:center;letter-spacing:0px;word-spacing:0px;writing-mode:lr-tb;text-anchor:middle;fill:#ffffff;fill-opacity:1;stroke:none;stroke-width:0.26458335" id="path2003" inkscape:connector-curvature="0"/>
    </g>
    </g></svg>
