<?xml version='1.0' encoding='UTF-8'?>
<!-- Created with Inkscape (http://www.inkscape.org/) and export_objects.py -->
<svg xmlns:cc="http://creativecommons.org/ns#" xmlns:dc="http://purl.org/dc/elements/1.1/" xmlns:inkscape="http://www.inkscape.org/namespaces/inkscape" xmlns:rdf="http://www.w3.org/1999/02/22-rdf-syntax-ns#" xmlns:sodipodi="http://sodipodi.sourceforge.net/DTD/sodipodi-0.dtd" xmlns:xlink="http://www.w3.org/1999/xlink" xmlns="http://www.w3.org/2000/svg" version="1.1" width="0.75000003125in" height="0.750000177083in" viewBox="0 0 19.0500007937 19.0500044979" id="svg8" inkscape:version="0.92.3 (2405546, 2018-03-11)" sodipodi:docname="kop12-14.svg"><sodipodi:namedview id="base" pagecolor="#ffffff" bordercolor="#666666" borderopacity="1.0" inkscape:pageopacity="0.0" inkscape:pageshadow="2" inkscape:zoom="1.7296259" inkscape:cx="295.71692" inkscape:cy="272.0908" inkscape:document-units="in" inkscape:current-layer="layer2" showgrid="false" units="in" inkscape:snap-others="true" inkscape:snap-grids="true" inkscape:window-width="1280" inkscape:window-height="940" inkscape:window-x="1909" inkscape:window-y="43" inkscape:window-maximized="1" inkscape:snap-midpoints="true" inkscape:object-nodes="true" inkscape:snap-text-baseline="true" inkscape:snap-smooth-nodes="false" showguides="false" inkscape:snap-object-midpoints="true" inkscape:snap-center="true" inkscape:snap-to-guides="false" inkscape:snap-nodes="true" inkscape:snap-intersection-paths="true">
    <inkscape:grid type="xygrid" id="grid10" units="pt" spacingx="3.1750001" spacingy="3.1750001"/>
    <sodipodi:guide position="380.20625,103.1875" orientation="0,1" id="guide9455" inkscape:locked="false"/>
  </sodipodi:namedview>
  <metadata id="metadata5">
    <rdf:RDF>
      <cc:Work rdf:about="">
        <dc:format>image/svg+xml</dc:format>
        <dc:type rdf:resource="http://purl.org/dc/dcmitype/StillImage"/>
        <dc:title/>
      </cc:Work>
    </rdf:RDF>
  </metadata>
  <g inkscape:groupmode="layer" inkscape:label="kop12-" transform="matrix(1.000000,0.000000,0.000000,1.000000,-47.624992,-180.975003)"><g id="g2252" inkscape:label="14">
      <rect style="display:inline;opacity:1;fill:#ffffff;fill-opacity:1;stroke:none;stroke-width:0.17638889;stroke-linecap:butt;stroke-linejoin:miter;stroke-miterlimit:47.14606857;stroke-dasharray:none;stroke-dashoffset:0;stroke-opacity:1;paint-order:markers fill stroke" id="rect15107" width="19.050001" height="19.050005" x="47.624992" y="180.97501"/>
      <g id="text2531" style="display:inline;font-style:normal;font-variant:normal;font-weight:normal;font-stretch:normal;font-size:5.64444447px;line-height:100%;font-family:'Segoe Condensed';-inkscape-font-specification:'Segoe Condensed, ';font-variant-ligatures:normal;font-variant-caps:normal;font-variant-numeric:normal;text-align:center;letter-spacing:0px;word-spacing:0px;writing-mode:lr-tb;text-anchor:middle;fill:#000080;fill-opacity:1;stroke:none;stroke-width:0.26458335" aria-label="3">
        <path inkscape:connector-curvature="0" id="path1785" style="font-size:5.64444447px;text-align:center;text-anchor:middle;fill:#000080;stroke-width:0.26458335" d="m 56.212943,187.17894 v -0.42444 q 0.327973,0.27837 0.672483,0.27837 0.327973,0 0.52641,-0.21222 0.201194,-0.21497 0.201194,-0.56775 0,-0.38585 -0.223242,-0.5898 -0.223242,-0.20671 -0.617361,-0.20671 H 56.52438 v -0.35002 h 0.198437 q 0.372071,0 0.573264,-0.19844 0.20395,-0.19843 0.20395,-0.55121 0,-0.31419 -0.148828,-0.49885 -0.148828,-0.18466 -0.427192,-0.18466 -0.272852,0 -0.592557,0.25907 v -0.39963 q 0.316949,-0.21497 0.68902,-0.21497 0.418923,0 0.655946,0.26182 0.237022,0.25908 0.237022,0.69178 0,0.77446 -0.639409,0.98667 v 0.0138 q 0.350021,0.0717 0.553971,0.32797 0.20395,0.25631 0.20395,0.63665 0,0.51263 -0.305925,0.82958 -0.303168,0.31419 -0.802018,0.31419 -0.407899,0 -0.711068,-0.20119 z"/>
      </g>
      <path inkscape:export-ydpi="96" inkscape:export-xdpi="96" inkscape:export-filename="C:\mine\Vira\Vira table excerpts\diamond-icon.png" inkscape:connector-curvature="0" id="path15141" d="m 60.324993,188.11876 -4.02573,4.7625 4.02573,4.7625 4.02575,-4.7625 z" style="display:inline;opacity:1;fill:#800000;fill-opacity:1;stroke:none;stroke-width:0.07055555;stroke-linecap:butt;stroke-linejoin:miter;stroke-miterlimit:4;stroke-dasharray:none;stroke-dashoffset:0;paint-order:normal"/>
      <g transform="translate(-34.925006,24.522204)" id="text15153" style="font-style:normal;font-variant:normal;font-weight:normal;font-stretch:normal;font-size:14.11111164px;line-height:125%;font-family:'Stint Ultra Condensed';-inkscape-font-specification:'Stint Ultra Condensed, ';font-variant-ligatures:normal;font-variant-caps:normal;font-variant-numeric:normal;text-align:end;letter-spacing:0px;word-spacing:0px;writing-mode:lr-tb;text-anchor:end;display:inline;fill:#800000;fill-opacity:1;stroke:none;stroke-width:0.26458335" aria-label="J">
        <path inkscape:connector-curvature="0" id="path1884" style="font-style:normal;font-variant:normal;font-weight:normal;font-stretch:normal;font-size:14.11111164px;font-family:'Stint Ultra Condensed';-inkscape-font-specification:'Stint Ultra Condensed, ';text-align:end;text-anchor:end;fill:#800000;stroke:none;stroke-width:0.26458335" d="m 87.207773,163.57038 h 2.700955 v 0.7717 h -0.847494 v 6.1116 q 0,0.74415 -0.117133,1.26091 -0.110243,0.50987 -0.323839,0.83371 -0.206706,0.31695 -0.509874,0.46165 -0.296278,0.1378 -0.675239,0.1378 -0.37207,0 -0.668348,-0.12402 -0.289388,-0.12403 -0.496094,-0.46165 -0.206706,-0.34451 -0.316949,-0.95084 -0.110243,-0.60634 -0.110243,-1.56408 h 0.861274 q 0.0069,0.64768 0.02756,1.08865 0.02756,0.44098 0.09646,0.71658 0.07579,0.26872 0.220486,0.39274 0.144695,0.11714 0.385851,0.11714 0.241157,0 0.392741,-0.12403 0.151584,-0.13091 0.234267,-0.37207 0.08268,-0.24804 0.110243,-0.61322 0.02756,-0.36518 0.02756,-0.84061 v -6.07026 H 87.20777 Z"/>
      </g>
      <g id="text2603" style="font-style:normal;font-variant:normal;font-weight:normal;font-stretch:normal;font-size:3.52777791px;line-height:100%;font-family:Paddington;-inkscape-font-specification:Paddington;font-variant-ligatures:normal;font-variant-caps:normal;font-variant-numeric:normal;text-align:center;letter-spacing:0px;word-spacing:0px;writing-mode:lr-tb;text-anchor:middle;display:inline;fill:#ffffff;fill-opacity:1;stroke:none;stroke-width:0.26458335" aria-label="2">
        <path id="path1962" style="font-style:normal;font-variant:normal;font-weight:normal;font-stretch:normal;font-size:3.52777791px;font-family:Paddington;-inkscape-font-specification:Paddington;text-align:center;text-anchor:middle;fill:#ffffff;stroke-width:0.26458335" d="M 61.077316,194.02426 H 59.57801 l 0.839611,-1.29117 q 0.04939,-0.0776 0.09525,-0.20461 0.04586,-0.13052 0.04586,-0.21166 0,-0.10584 -0.08819,-0.17286 -0.08467,-0.067 -0.194028,-0.067 -0.331611,0 -0.638528,0.41628 h -0.01764 v -0.55387 q 0.331611,-0.24694 0.656167,-0.24694 0.331611,0 0.522111,0.17286 0.194028,0.17286 0.194028,0.48683 0,0.26812 -0.271639,0.69145 -0.218722,0.32103 -0.437445,0.63853 h 0.793751 z"/>
      </g>
    </g>
    </g></svg>
