<?xml version='1.0' encoding='UTF-8'?>
<!-- Created with Inkscape (http://www.inkscape.org/) and export_objects.py -->
<svg xmlns:cc="http://creativecommons.org/ns#" xmlns:dc="http://purl.org/dc/elements/1.1/" xmlns:inkscape="http://www.inkscape.org/namespaces/inkscape" xmlns:rdf="http://www.w3.org/1999/02/22-rdf-syntax-ns#" xmlns:sodipodi="http://sodipodi.sourceforge.net/DTD/sodipodi-0.dtd" xmlns:xlink="http://www.w3.org/1999/xlink" xmlns="http://www.w3.org/2000/svg" version="1.1" width="0.75000003125in" height="0.74999965625in" viewBox="0 0 19.0500007937 19.0499912687" id="svg8" inkscape:version="0.92.3 (2405546, 2018-03-11)" sodipodi:docname="kop14-03.svg"><sodipodi:namedview id="base" pagecolor="#ffffff" bordercolor="#666666" borderopacity="1.0" inkscape:pageopacity="0.0" inkscape:pageshadow="2" inkscape:zoom="1.7296259" inkscape:cx="846.70257" inkscape:cy="113.68814" inkscape:document-units="in" inkscape:current-layer="layer2" showgrid="false" units="in" inkscape:snap-others="true" inkscape:snap-grids="true" inkscape:window-width="1280" inkscape:window-height="940" inkscape:window-x="1909" inkscape:window-y="43" inkscape:window-maximized="1" inkscape:snap-midpoints="true" inkscape:object-nodes="true" inkscape:snap-text-baseline="true" inkscape:snap-smooth-nodes="false" showguides="false" inkscape:snap-object-midpoints="true" inkscape:snap-center="true" inkscape:snap-to-guides="false" inkscape:snap-nodes="true" inkscape:snap-intersection-paths="true">
    <inkscape:grid type="xygrid" id="grid10" units="pt" spacingx="3.1750001" spacingy="3.1750001"/>
    <sodipodi:guide position="380.20625,103.1875" orientation="0,1" id="guide9455" inkscape:locked="false"/>
  </sodipodi:namedview>
  <metadata id="metadata5">
    <rdf:RDF>
      <cc:Work rdf:about="">
        <dc:format>image/svg+xml</dc:format>
        <dc:type rdf:resource="http://purl.org/dc/dcmitype/StillImage"/>
        <dc:title/>
      </cc:Work>
    </rdf:RDF>
  </metadata>
  <g inkscape:groupmode="layer" inkscape:label="kop14-" transform="matrix(1.000000,0.000000,0.000000,1.000000,-155.575008,-104.775000)"><g id="g2322" inkscape:label="03">
      <rect style="display:inline;opacity:1;fill:#ffffff;fill-opacity:1;stroke:none;stroke-width:0.17638889;stroke-linecap:butt;stroke-linejoin:miter;stroke-miterlimit:47.14606857;stroke-dasharray:none;stroke-dashoffset:0;stroke-opacity:1;paint-order:markers fill stroke" id="rect1217" width="19.050001" height="19.049992" x="155.57501" y="104.775"/>
      <g id="text1455" style="display:inline;font-style:normal;font-variant:normal;font-weight:normal;font-stretch:normal;font-size:5.64444447px;line-height:100%;font-family:'Segoe Condensed';-inkscape-font-specification:'Segoe Condensed, ';font-variant-ligatures:normal;font-variant-caps:normal;font-variant-numeric:normal;text-align:center;letter-spacing:0px;word-spacing:0px;writing-mode:lr-tb;text-anchor:middle;fill:#000080;fill-opacity:1;stroke:none;stroke-width:0.26458335" aria-label="12">
        <path inkscape:connector-curvature="0" id="path1727" style="font-size:5.64444447px;text-align:center;text-anchor:middle;fill:#000080;stroke-width:0.26458335" d="m 163.05775,111.125 v -0.33349 h 0.68351 v -3.26319 l -0.72209,0.27836 v -0.35553 l 1.12172,-0.39136 v 3.73172 h 0.678 v 0.33349 z"/>
        <path inkscape:connector-curvature="0" id="path1729" style="font-size:5.64444447px;text-align:center;text-anchor:middle;fill:#000080;stroke-width:0.26458335" d="m 165.30396,111.125 v -0.32246 l 0.82957,-1.14377 q 0.37207,-0.51263 0.51815,-0.83785 0.14607,-0.32522 0.14607,-0.63665 0,-0.33624 -0.15434,-0.52366 -0.15159,-0.18741 -0.41892,-0.18741 -0.38586,0 -0.76895,0.40514 v -0.42168 q 0.37758,-0.339 0.85163,-0.339 0.42719,0 0.66697,0.27286 0.24253,0.27009 0.24253,0.73862 0,0.35003 -0.15158,0.71658 -0.15159,0.36656 -0.64492,1.01424 l -0.68351,0.90951 v 0.011 h 1.46348 v 0.34451 z"/>
      </g>
      <path inkscape:export-ydpi="96" inkscape:export-xdpi="96" inkscape:export-filename="C:\mine\Vira\Vira table excerpts\Tourne.png" id="path1345" d="m 169.06875,111.91875 -3.55012,4.19987 h 3.4e-4 a 2.0128663,2.0128663 0 0 0 -0.47586,1.29939 2.0128663,2.0128663 0 0 0 2.01287,2.01287 2.0128663,2.0128663 0 0 0 1.7457,-1.01576 l -0.81159,3.02863 h 2.15743 l -0.8106,-3.02537 a 2.0128663,2.0128663 0 0 0 1.7448,1.0125 2.0128663,2.0128663 0 0 0 2.01285,-2.01287 2.0128663,2.0128663 0 0 0 -0.47586,-1.29939 h 2.6e-4 z" style="display:inline;opacity:1;fill:#000000;fill-opacity:1;stroke:none;stroke-width:0.07055558;stroke-linecap:butt;stroke-linejoin:miter;stroke-miterlimit:4;stroke-dasharray:none;stroke-dashoffset:0;paint-order:normal" inkscape:connector-curvature="0"/>
      <g aria-label="10" style="font-style:normal;font-variant:normal;font-weight:normal;font-stretch:normal;font-size:14.11111164px;line-height:125%;font-family:'Stint Ultra Condensed';-inkscape-font-specification:'Stint Ultra Condensed, ';font-variant-ligatures:normal;font-variant-caps:normal;font-variant-numeric:normal;text-align:end;letter-spacing:0px;word-spacing:0px;writing-mode:lr-tb;text-anchor:end;display:inline;fill:#000000;fill-opacity:1;stroke:none;stroke-width:0.26458335" id="g1351" transform="translate(50.799993,-7.179552)">
        <path d="m 106.30119,127.8089 h 0.91639 v -7.93061 l -1.12999,0.70969 v -0.76481 l 1.12999,-0.7028 h 0.8475 v 8.68853 h 0.91639 v 0.77859 h -2.68028 z" style="font-style:normal;font-variant:normal;font-weight:normal;font-stretch:normal;font-size:14.11111164px;font-family:'Stint Ultra Condensed';-inkscape-font-specification:'Stint Ultra Condensed, ';text-align:end;text-anchor:end;fill:#000000;stroke:none;stroke-width:0.26458335" id="path1347" inkscape:connector-curvature="0"/>
        <path d="m 113.56345,123.86082 q 0,1.29536 -0.15159,2.22553 -0.15158,0.93018 -0.4203,1.52963 -0.26871,0.59255 -0.64078,0.87505 -0.36519,0.2825 -0.79238,0.2825 -0.43408,0 -0.80615,-0.2825 -0.36518,-0.2825 -0.64079,-0.87505 -0.26871,-0.59945 -0.4203,-1.52963 -0.15158,-0.93017 -0.15158,-2.22553 0,-1.28846 0.15158,-2.21864 0.15159,-0.93017 0.4203,-1.52962 0.27561,-0.59945 0.64079,-0.88195 0.37207,-0.28249 0.80615,-0.28249 0.42719,0 0.79238,0.28249 0.37207,0.2825 0.64078,0.88195 0.26872,0.59945 0.4203,1.52962 0.15159,0.93018 0.15159,2.21864 z m -0.87506,0 q 0,-1.10932 -0.0896,-1.8948 -0.0827,-0.79237 -0.23426,-1.29536 -0.15159,-0.50298 -0.35829,-0.73725 -0.20671,-0.23426 -0.44787,-0.23426 -0.24115,0 -0.45475,0.23426 -0.20671,0.23427 -0.36518,0.73725 -0.15158,0.50299 -0.24116,1.29536 -0.0827,0.78548 -0.0827,1.8948 0,1.10932 0.0827,1.9017 0.0896,0.78548 0.24116,1.28846 0.15847,0.50299 0.36518,0.73725 0.2136,0.23427 0.45475,0.23427 0.24116,0 0.44787,-0.23427 0.2067,-0.23426 0.35829,-0.73725 0.15158,-0.50987 0.23426,-1.29535 0.0896,-0.78549 0.0896,-1.89481 z" style="font-style:normal;font-variant:normal;font-weight:normal;font-stretch:normal;font-size:14.11111164px;font-family:'Stint Ultra Condensed';-inkscape-font-specification:'Stint Ultra Condensed, ';text-align:end;text-anchor:end;fill:#000000;stroke:none;stroke-width:0.26458335" id="path1349" inkscape:connector-curvature="0"/>
      </g>
      <g id="text1387" style="font-style:normal;font-variant:normal;font-weight:normal;font-stretch:normal;font-size:3.52777791px;line-height:100%;font-family:Paddington;-inkscape-font-specification:Paddington;font-variant-ligatures:normal;font-variant-caps:normal;font-variant-numeric:normal;text-align:center;letter-spacing:0px;word-spacing:0px;writing-mode:lr-tb;text-anchor:middle;display:inline;fill:#ffffff;fill-opacity:1;stroke:none;stroke-width:0.26458335" aria-label="10">
        <path id="path1937" style="font-style:normal;font-variant:normal;font-weight:normal;font-stretch:normal;font-size:3.52777791px;font-family:Paddington;-inkscape-font-specification:Paddington;text-align:center;text-anchor:middle;fill:#ffffff;stroke-width:0.26458335" d="m 168.3244,117.82428 h -0.40922 v -2.28247 h 0.40922 z"/>
        <path id="path1939" style="font-style:normal;font-variant:normal;font-weight:normal;font-stretch:normal;font-size:3.52777791px;font-family:Paddington;-inkscape-font-specification:Paddington;text-align:center;text-anchor:middle;fill:#ffffff;stroke-width:0.26458335" d="m 170.22251,116.68128 q 0,0.41628 -0.16227,0.74083 -0.21167,0.41981 -0.61384,0.41981 -0.39864,0 -0.6103,-0.41981 -0.16228,-0.32455 -0.16228,-0.74083 0,-0.41628 0.16228,-0.74083 0.21166,-0.41981 0.6103,-0.41981 0.4057,0 0.61384,0.41628 0.16227,0.32455 0.16227,0.74436 z m -0.39511,0 q 0,-0.25753 -0.0741,-0.48683 -0.10231,-0.3175 -0.29986,-0.3175 -0.12347,0 -0.22225,0.16933 -0.0811,0.13406 -0.11642,0.31397 -0.0317,0.15875 -0.0317,0.32103 0,0.26458 0.0706,0.48683 0.0988,0.31398 0.29986,0.31398 0.20461,0 0.30339,-0.31398 0.0706,-0.22225 0.0706,-0.48683 z"/>
      </g>
    </g>
    </g></svg>
