<?xml version='1.0' encoding='UTF-8'?>
<!-- Created with Inkscape (http://www.inkscape.org/) and export_objects.py -->
<svg xmlns:cc="http://creativecommons.org/ns#" xmlns:dc="http://purl.org/dc/elements/1.1/" xmlns:inkscape="http://www.inkscape.org/namespaces/inkscape" xmlns:rdf="http://www.w3.org/1999/02/22-rdf-syntax-ns#" xmlns:sodipodi="http://sodipodi.sourceforge.net/DTD/sodipodi-0.dtd" xmlns:xlink="http://www.w3.org/1999/xlink" xmlns="http://www.w3.org/2000/svg" version="1.1" width="0.75000003125in" height="0.750000177083in" viewBox="0 0 19.0500007937 19.0500044979" id="svg8" inkscape:version="0.92.3 (2405546, 2018-03-11)" sodipodi:docname="kop12-10.svg"><sodipodi:namedview id="base" pagecolor="#ffffff" bordercolor="#666666" borderopacity="1.0" inkscape:pageopacity="0.0" inkscape:pageshadow="2" inkscape:zoom="1.7296259" inkscape:cx="295.71692" inkscape:cy="272.0908" inkscape:document-units="in" inkscape:current-layer="layer2" showgrid="false" units="in" inkscape:snap-others="true" inkscape:snap-grids="true" inkscape:window-width="1280" inkscape:window-height="940" inkscape:window-x="1909" inkscape:window-y="43" inkscape:window-maximized="1" inkscape:snap-midpoints="true" inkscape:object-nodes="true" inkscape:snap-text-baseline="true" inkscape:snap-smooth-nodes="false" showguides="false" inkscape:snap-object-midpoints="true" inkscape:snap-center="true" inkscape:snap-to-guides="false" inkscape:snap-nodes="true" inkscape:snap-intersection-paths="true">
    <inkscape:grid type="xygrid" id="grid10" units="pt" spacingx="3.1750001" spacingy="3.1750001"/>
    <sodipodi:guide position="380.20625,103.1875" orientation="0,1" id="guide9455" inkscape:locked="false"/>
  </sodipodi:namedview>
  <metadata id="metadata5">
    <rdf:RDF>
      <cc:Work rdf:about="">
        <dc:format>image/svg+xml</dc:format>
        <dc:type rdf:resource="http://purl.org/dc/dcmitype/StillImage"/>
        <dc:title/>
      </cc:Work>
    </rdf:RDF>
  </metadata>
  <g inkscape:groupmode="layer" inkscape:label="kop12-" transform="matrix(1.000000,0.000000,0.000000,1.000000,-47.625000,-155.574992)"><g id="g2186" inkscape:label="10">
      <rect y="155.575" x="47.625" height="19.050005" width="19.050001" id="rect15099" style="display:inline;opacity:1;fill:#ffffff;fill-opacity:1;stroke:none;stroke-width:0.17638889;stroke-linecap:butt;stroke-linejoin:miter;stroke-miterlimit:47.14606857;stroke-dasharray:none;stroke-dashoffset:0;stroke-opacity:1;paint-order:markers fill stroke"/>
      <g id="text2515" style="display:inline;font-style:normal;font-variant:normal;font-weight:normal;font-stretch:normal;font-size:5.64444447px;line-height:100%;font-family:'Segoe Condensed';-inkscape-font-specification:'Segoe Condensed, ';font-variant-ligatures:normal;font-variant-caps:normal;font-variant-numeric:normal;text-align:center;letter-spacing:0px;word-spacing:0px;writing-mode:lr-tb;text-anchor:middle;fill:#000080;fill-opacity:1;stroke:none;stroke-width:0.26458335" aria-label="7">
        <path inkscape:connector-curvature="0" id="path1797" style="font-size:5.64444447px;text-align:center;text-anchor:middle;fill:#000080;stroke-width:0.26458335" d="m 56.954335,161.925 h -0.429948 l 1.190625,-3.61321 h -1.573719 v -0.339 h 1.981619 v 0.21497 z"/>
      </g>
      <path style="display:inline;opacity:1;fill:#800000;fill-opacity:1;stroke:none;stroke-width:0.07055555;stroke-linecap:butt;stroke-linejoin:miter;stroke-miterlimit:4;stroke-dasharray:none;stroke-dashoffset:0;paint-order:normal" d="m 60.324988,162.71877 -4.02573,4.7625 4.02573,4.7625 4.02576,-4.7625 z" id="path15117" inkscape:connector-curvature="0" inkscape:export-filename="C:\mine\Vira\Vira table excerpts\diamond-icon.png" inkscape:export-xdpi="96" inkscape:export-ydpi="96"/>
      <g transform="translate(-12.700013,-0.89157423)" id="text15129" style="font-style:normal;font-variant:normal;font-weight:normal;font-stretch:normal;font-size:14.11111164px;line-height:125%;font-family:'Stint Ultra Condensed';-inkscape-font-specification:'Stint Ultra Condensed, ';font-variant-ligatures:normal;font-variant-caps:normal;font-variant-numeric:normal;text-align:end;letter-spacing:0px;word-spacing:0px;writing-mode:lr-tb;text-anchor:end;display:inline;fill:#800000;fill-opacity:1;stroke:none;stroke-width:0.26458335" aria-label="Q">
        <path inkscape:connector-curvature="0" id="path1896" style="font-style:normal;font-variant:normal;font-weight:normal;font-stretch:normal;font-size:14.11111164px;font-family:'Stint Ultra Condensed';-inkscape-font-specification:'Stint Ultra Condensed, ';text-align:end;text-anchor:end;fill:#800000;stroke:none;stroke-width:0.26458335" d="m 68.186714,168.31083 q 0,1.21268 -0.172255,2.10151 -0.165364,0.88884 -0.461642,1.49517 0.351399,0.2136 0.73036,0.36518 0.37896,0.15159 0.751031,0.2136 l -0.34451,0.86127 q -0.392741,-0.1378 -0.778591,-0.3514 -0.378961,-0.21359 -0.744141,-0.46853 -0.289388,0.3514 -0.640788,0.52366 -0.344509,0.17225 -0.73725,0.17225 -0.516765,0 -0.957737,-0.28939 -0.440972,-0.28938 -0.764811,-0.88883 -0.323839,-0.60634 -0.509874,-1.52962 -0.186036,-0.93018 -0.186036,-2.20487 0,-1.26779 0.186036,-2.19108 0.186035,-0.93017 0.509874,-1.53651 0.330729,-0.60634 0.771701,-0.89572 0.440972,-0.28939 0.950847,-0.28939 0.502984,0 0.943956,0.28939 0.440972,0.28938 0.757921,0.89572 0.323839,0.59945 0.509874,1.52962 0.186035,0.92329 0.186035,2.19797 z m -0.950846,0 q 0,-2.01193 -0.36518,-3.06613 -0.365181,-1.0542 -1.08176,-1.0542 -0.737251,0 -1.102431,1.06798 -0.36518,1.06109 -0.36518,3.05235 0,2.01194 0.36518,3.06614 0.36518,1.0542 1.102431,1.0542 0.434082,0 0.757921,-0.42719 -0.33762,-0.31006 -0.606337,-0.66146 l 0.3514,-0.55122 q 0.227376,0.33073 0.564995,0.62012 0.378961,-1.04731 0.378961,-3.10059 z"/>
      </g>
      <g id="text2587" style="font-style:normal;font-variant:normal;font-weight:normal;font-stretch:normal;font-size:3.52777791px;line-height:100%;font-family:Paddington;-inkscape-font-specification:Paddington;font-variant-ligatures:normal;font-variant-caps:normal;font-variant-numeric:normal;text-align:center;letter-spacing:0px;word-spacing:0px;writing-mode:lr-tb;text-anchor:middle;display:inline;fill:#ffffff;fill-opacity:1;stroke:none;stroke-width:0.26458335" aria-label="3">
        <path id="path1974" style="font-style:normal;font-variant:normal;font-weight:normal;font-stretch:normal;font-size:3.52777791px;font-family:Paddington;-inkscape-font-specification:Paddington;text-align:center;text-anchor:middle;fill:#ffffff;stroke-width:0.26458335" d="m 61.140658,166.34531 -0.504472,0.88194 q 0.208138,0.0741 0.331611,0.28928 0.116416,0.19403 0.116416,0.41275 0,0.31397 -0.236361,0.51858 -0.236361,0.20109 -0.567972,0.20109 -0.130528,0 -0.243417,-0.0388 -0.144639,-0.0494 -0.275166,-0.15169 -0.165806,-0.127 -0.194028,-0.26106 l 0.264583,-0.27869 h 0.02117 q 0.179917,0.34572 0.455083,0.34572 0.134056,0 0.236361,-0.0952 0.102306,-0.0953 0.102306,-0.23283 0,-0.24342 -0.169333,-0.34573 -0.148167,-0.0882 -0.455084,-0.0882 l 0.462139,-0.79728 h -0.885472 v -0.35983 z"/>
      </g>
    </g>
    </g></svg>
