<?xml version='1.0' encoding='UTF-8'?>
<!-- Created with Inkscape (http://www.inkscape.org/) and export_objects.py -->
<svg xmlns:cc="http://creativecommons.org/ns#" xmlns:dc="http://purl.org/dc/elements/1.1/" xmlns:inkscape="http://www.inkscape.org/namespaces/inkscape" xmlns:rdf="http://www.w3.org/1999/02/22-rdf-syntax-ns#" xmlns:sodipodi="http://sodipodi.sourceforge.net/DTD/sodipodi-0.dtd" xmlns:xlink="http://www.w3.org/1999/xlink" xmlns="http://www.w3.org/2000/svg" version="1.1" width="0.75000003125in" height="0.750000177083in" viewBox="0 0 19.0500007937 19.0500044979" id="svg8" inkscape:version="0.92.3 (2405546, 2018-03-11)" sodipodi:docname="kop12-13.svg"><sodipodi:namedview id="base" pagecolor="#ffffff" bordercolor="#666666" borderopacity="1.0" inkscape:pageopacity="0.0" inkscape:pageshadow="2" inkscape:zoom="1.7296259" inkscape:cx="295.71692" inkscape:cy="272.0908" inkscape:document-units="in" inkscape:current-layer="layer2" showgrid="false" units="in" inkscape:snap-others="true" inkscape:snap-grids="true" inkscape:window-width="1280" inkscape:window-height="940" inkscape:window-x="1909" inkscape:window-y="43" inkscape:window-maximized="1" inkscape:snap-midpoints="true" inkscape:object-nodes="true" inkscape:snap-text-baseline="true" inkscape:snap-smooth-nodes="false" showguides="false" inkscape:snap-object-midpoints="true" inkscape:snap-center="true" inkscape:snap-to-guides="false" inkscape:snap-nodes="true" inkscape:snap-intersection-paths="true">
    <inkscape:grid type="xygrid" id="grid10" units="pt" spacingx="3.1750001" spacingy="3.1750001"/>
    <sodipodi:guide position="380.20625,103.1875" orientation="0,1" id="guide9455" inkscape:locked="false"/>
  </sodipodi:namedview>
  <metadata id="metadata5">
    <rdf:RDF>
      <cc:Work rdf:about="">
        <dc:format>image/svg+xml</dc:format>
        <dc:type rdf:resource="http://purl.org/dc/dcmitype/StillImage"/>
        <dc:title/>
      </cc:Work>
    </rdf:RDF>
  </metadata>
  <g inkscape:groupmode="layer" inkscape:label="kop12-" transform="matrix(1.000000,0.000000,0.000000,1.000000,-22.225000,-180.975003)"><g id="g2236" inkscape:label="13">
      <rect y="180.97501" x="22.225" height="19.050005" width="19.050001" id="rect15105" style="display:inline;opacity:1;fill:#ffffff;fill-opacity:1;stroke:none;stroke-width:0.17638889;stroke-linecap:butt;stroke-linejoin:miter;stroke-miterlimit:47.14606857;stroke-dasharray:none;stroke-dashoffset:0;stroke-opacity:1;paint-order:markers fill stroke"/>
      <g id="text2527" style="display:inline;font-style:normal;font-variant:normal;font-weight:normal;font-stretch:normal;font-size:5.64444447px;line-height:100%;font-family:'Segoe Condensed';-inkscape-font-specification:'Segoe Condensed, ';font-variant-ligatures:normal;font-variant-caps:normal;font-variant-numeric:normal;text-align:center;letter-spacing:0px;word-spacing:0px;writing-mode:lr-tb;text-anchor:middle;fill:#000080;fill-opacity:1;stroke:none;stroke-width:0.26458335" aria-label="4">
        <path inkscape:connector-curvature="0" id="path1788" style="font-size:5.64444447px;text-align:center;text-anchor:middle;fill:#000080;stroke-width:0.26458335" d="m 32.394922,186.24739 v 1.07762 h -0.385851 v -1.07762 h -1.402843 v -0.27837 l 1.391819,-2.59622 h 0.396875 v 2.56315 h 0.399631 v 0.31144 z m -0.385851,-2.32613 q -0.0248,0.0606 -0.04961,0.13229 -0.02756,0.0744 -0.06063,0.13229 l -0.950846,1.75011 h 1.061089 v -1.60679 q 0,-0.13505 0.01378,-0.4079 z"/>
      </g>
      <path inkscape:export-ydpi="96" inkscape:export-xdpi="96" inkscape:export-filename="C:\mine\Vira\Vira table excerpts\heart-icon.png" inkscape:connector-curvature="0" id="path15139" d="m 34.924959,197.64376 -3.75619,-6.5057 10e-4,-4.9e-4 a 2.0128707,2.0128707 0 0 1 -0.2715,-1.00594 2.0128707,2.0128707 0 0 1 2.01285,-2.01287 2.0128707,2.0128707 0 0 1 2.01288,2.01287 2.0128707,2.0128707 0 0 1 2.01287,-2.01287 2.0128707,2.0128707 0 0 1 2.01287,2.01287 2.0128707,2.0128707 0 0 1 -0.27151,1.00594 l 0.002,4.9e-4 z" style="display:inline;opacity:1;fill:#800000;fill-opacity:1;stroke:none;stroke-width:0.07055553;stroke-linecap:butt;stroke-linejoin:miter;stroke-miterlimit:4;stroke-dasharray:none;stroke-dashoffset:0;paint-order:normal"/>
      <g transform="translate(-60.325041,46.747193)" id="text15149" style="font-style:normal;font-variant:normal;font-weight:normal;font-stretch:normal;font-size:14.11111164px;line-height:125%;font-family:'Stint Ultra Condensed';-inkscape-font-specification:'Stint Ultra Condensed, ';font-variant-ligatures:normal;font-variant-caps:normal;font-variant-numeric:normal;text-align:end;letter-spacing:0px;word-spacing:0px;writing-mode:lr-tb;text-anchor:end;display:inline;fill:#800000;fill-opacity:1;stroke:none;stroke-width:0.26458335" aria-label="J">
        <path inkscape:connector-curvature="0" id="path1887" style="font-style:normal;font-variant:normal;font-weight:normal;font-stretch:normal;font-size:14.11111164px;font-family:'Stint Ultra Condensed';-inkscape-font-specification:'Stint Ultra Condensed, ';text-align:end;text-anchor:end;fill:#800000;stroke:none;stroke-width:0.26458335" d="m 87.207781,141.34539 h 2.700954 v 0.7717 h -0.847493 v 6.1116 q 0,0.74414 -0.117133,1.26091 -0.110243,0.50987 -0.323839,0.83371 -0.206706,0.31695 -0.509874,0.46164 -0.296279,0.13781 -0.675239,0.13781 -0.37207,0 -0.668349,-0.12403 -0.289388,-0.12402 -0.496093,-0.46164 -0.206706,-0.34451 -0.316949,-0.95084 -0.110243,-0.60634 -0.110243,-1.56408 h 0.861274 q 0.0069,0.64768 0.02756,1.08865 0.02756,0.44097 0.09646,0.71658 0.07579,0.26872 0.220486,0.39274 0.144694,0.11714 0.385851,0.11714 0.241157,0 0.392741,-0.12403 0.151584,-0.13091 0.234266,-0.37207 0.08268,-0.24804 0.110243,-0.61322 0.02756,-0.36518 0.02756,-0.84061 v -6.07026 h -0.992187 z"/>
      </g>
      <g id="text2599" style="font-style:normal;font-variant:normal;font-weight:normal;font-stretch:normal;font-size:3.52777791px;line-height:100%;font-family:Paddington;-inkscape-font-specification:Paddington;font-variant-ligatures:normal;font-variant-caps:normal;font-variant-numeric:normal;text-align:center;letter-spacing:0px;word-spacing:0px;writing-mode:lr-tb;text-anchor:middle;display:inline;fill:#ffffff;fill-opacity:1;stroke:none;stroke-width:0.26458335" aria-label="2">
        <path id="path1965" style="font-style:normal;font-variant:normal;font-weight:normal;font-stretch:normal;font-size:3.52777791px;font-family:Paddington;-inkscape-font-specification:Paddington;text-align:center;text-anchor:middle;fill:#ffffff;stroke-width:0.26458335" d="m 35.67731,194.02426 h -1.499305 l 0.839611,-1.29117 q 0.04939,-0.0776 0.09525,-0.20461 0.04586,-0.13052 0.04586,-0.21166 0,-0.10584 -0.08819,-0.17286 -0.08467,-0.067 -0.194027,-0.067 -0.331612,0 -0.638528,0.41628 h -0.01764 v -0.55387 q 0.331611,-0.24694 0.656167,-0.24694 0.331611,0 0.522111,0.17286 0.194028,0.17286 0.194028,0.48683 0,0.26812 -0.271639,0.69145 -0.218723,0.32103 -0.437445,0.63853 h 0.79375 z"/>
      </g>
    </g>
    </g></svg>
