<?xml version='1.0' encoding='UTF-8'?>
<!-- Created with Inkscape (http://www.inkscape.org/) and export_objects.py -->
<svg xmlns:cc="http://creativecommons.org/ns#" xmlns:dc="http://purl.org/dc/elements/1.1/" xmlns:inkscape="http://www.inkscape.org/namespaces/inkscape" xmlns:rdf="http://www.w3.org/1999/02/22-rdf-syntax-ns#" xmlns:sodipodi="http://sodipodi.sourceforge.net/DTD/sodipodi-0.dtd" xmlns:xlink="http://www.w3.org/1999/xlink" xmlns="http://www.w3.org/2000/svg" version="1.1" width="72.000003pt" height="72.000003pt" viewBox="0 0 25.4000010583 25.4000010583" id="svg3896" inkscape:version="0.92.3 (2405546, 2018-03-11)" sodipodi:docname="tile07.svg"><sodipodi:namedview id="base" pagecolor="#ffffff" bordercolor="#666666" borderopacity="1.0" inkscape:pageopacity="0.0" inkscape:pageshadow="2" inkscape:zoom="0.83214792" inkscape:cx="561.01318" inkscape:cy="540.00001" inkscape:document-units="pt" inkscape:current-layer="layer3" showgrid="true" units="pt" inkscape:snap-text-baseline="true" inkscape:window-width="1280" inkscape:window-height="940" inkscape:window-x="1909" inkscape:window-y="43" inkscape:window-maximized="1">
    <inkscape:grid type="xygrid" id="grid3898" units="pt" spacingx="1.5875" spacingy="1.5875"/>
  </sodipodi:namedview>
  <metadata id="metadata3893">
    <rdf:RDF>
      <cc:Work rdf:about="">
        <dc:format>image/svg+xml</dc:format>
        <dc:type rdf:resource="http://purl.org/dc/dcmitype/StillImage"/>
        <dc:title/>
      </cc:Work>
    </rdf:RDF>
  </metadata>
  <g inkscape:groupmode="layer" inkscape:label="tile" transform="matrix(1.000000,0.000000,0.000000,1.000000,-203.199992,-12.700007)"><g id="g421" inkscape:label="07">
      <rect style="opacity:1;fill:none;fill-opacity:0.90562289;stroke:none;stroke-width:0.35277781;stroke-linecap:butt;stroke-linejoin:miter;stroke-miterlimit:47.14606857;stroke-dasharray:none;stroke-dashoffset:0;stroke-opacity:1;paint-order:markers fill stroke" id="rect3962" width="25.400002" height="25.400002" x="203.2" y="93.800011" transform="translate(0,-81.100003)"/>
      <g id="text3966" style="font-style:normal;font-variant:normal;font-weight:normal;font-stretch:normal;font-size:16.93333435px;line-height:100%;font-family:'News Gothic Std';-inkscape-font-specification:'News Gothic Std';font-variant-ligatures:normal;font-variant-caps:normal;font-variant-numeric:normal;text-align:center;letter-spacing:0px;word-spacing:0px;writing-mode:lr-tb;text-anchor:middle;fill:#000000;fill-opacity:1;stroke:none;stroke-width:0.26458335" transform="translate(0,-81.100003)" aria-label="G">
        <path id="path340" style="font-style:normal;font-variant:normal;font-weight:normal;font-stretch:normal;font-size:16.93333435px;font-family:'News Gothic Std';-inkscape-font-specification:'News Gothic Std';text-align:center;text-anchor:middle;stroke-width:0.26458335" d="m 220.36472,103.23189 c -0.44027,-2.16747 -1.91347,-3.826936 -4.33493,-3.826936 -2.7432,0 -4.7752,2.523066 -4.7752,6.857996 0,4.33494 2.032,6.858 4.7752,6.858 1.30386,0 2.4384,-0.57573 3.1496,-1.55786 v 1.28693 h 1.18533 v -6.31613 h -4.064 v 1.18533 h 2.67547 c 0.13546,1.99813 -0.508,4.2672 -2.9464,4.2672 -1.8288,0 -3.38667,-1.7272 -3.38667,-5.72347 0,-3.99626 1.55787,-5.72346 3.38667,-5.72346 1.9304,0 2.62466,1.4732 2.9972,3.01413 z"/>
      </g>
      <g id="text3976" style="font-style:normal;font-variant:normal;font-weight:normal;font-stretch:normal;font-size:6.3499999px;line-height:100%;font-family:'News Gothic Std';-inkscape-font-specification:'News Gothic Std';font-variant-ligatures:normal;font-variant-caps:normal;font-variant-numeric:normal;text-align:end;letter-spacing:0px;word-spacing:0px;writing-mode:lr-tb;text-anchor:end;fill:#000000;fill-opacity:1;stroke:none;stroke-width:0.26458335" aria-label="2">
        <path id="path293" style="font-style:normal;font-variant:normal;font-weight:normal;font-stretch:normal;font-size:6.3499999px;font-family:'News Gothic Std';-inkscape-font-specification:'News Gothic Std';text-align:end;text-anchor:end;stroke-width:0.26458335" d="m 224.26821,36.068001 c 0.43815,-1.397 2.34315,-1.74625 2.34315,-3.2258 0,-0.76835 -0.52705,-1.3716 -1.31445,-1.3716 -0.8001,0 -1.32715,0.59055 -1.47955,1.33985 l 0.45085,0.127 c 0.0762,-0.50165 0.43815,-1.02235 0.9906,-1.02235 0.5207,0 0.83185,0.4572 0.83185,0.94615 0,1.2192 -1.6256,1.397 -2.34315,3.2004 v 0.45085 h 2.86385 v -0.4445 z"/>
      </g>
    </g>
    </g></svg>
