<?xml version='1.0' encoding='UTF-8'?>
<!-- Created with Inkscape (http://www.inkscape.org/) and export_objects.py -->
<svg xmlns:cc="http://creativecommons.org/ns#" xmlns:dc="http://purl.org/dc/elements/1.1/" xmlns:inkscape="http://www.inkscape.org/namespaces/inkscape" xmlns:rdf="http://www.w3.org/1999/02/22-rdf-syntax-ns#" xmlns:sodipodi="http://sodipodi.sourceforge.net/DTD/sodipodi-0.dtd" xmlns:xlink="http://www.w3.org/1999/xlink" xmlns="http://www.w3.org/2000/svg" version="1.1" width="72.000003pt" height="72.000003pt" viewBox="0 0 25.4000010583 25.4000010583" id="svg3896" inkscape:version="0.92.3 (2405546, 2018-03-11)" sodipodi:docname="tile09.svg"><sodipodi:namedview id="base" pagecolor="#ffffff" bordercolor="#666666" borderopacity="1.0" inkscape:pageopacity="0.0" inkscape:pageshadow="2" inkscape:zoom="0.83214792" inkscape:cx="561.01318" inkscape:cy="540.00001" inkscape:document-units="pt" inkscape:current-layer="layer3" showgrid="true" units="pt" inkscape:snap-text-baseline="true" inkscape:window-width="1280" inkscape:window-height="940" inkscape:window-x="1909" inkscape:window-y="43" inkscape:window-maximized="1">
    <inkscape:grid type="xygrid" id="grid3898" units="pt" spacingx="1.5875" spacingy="1.5875"/>
  </sodipodi:namedview>
  <metadata id="metadata3893">
    <rdf:RDF>
      <cc:Work rdf:about="">
        <dc:format>image/svg+xml</dc:format>
        <dc:type rdf:resource="http://purl.org/dc/dcmitype/StillImage"/>
        <dc:title/>
      </cc:Work>
    </rdf:RDF>
  </metadata>
  <g inkscape:groupmode="layer" inkscape:label="tile" transform="matrix(1.000000,0.000000,0.000000,1.000000,-12.699989,-76.200000)"><g id="g501" inkscape:label="09">
      <rect y="157.3" x="12.699989" height="25.400002" width="25.400002" id="rect4062" style="opacity:1;fill:none;fill-opacity:0.90562289;stroke:none;stroke-width:0.35277781;stroke-linecap:butt;stroke-linejoin:miter;stroke-miterlimit:47.14606857;stroke-dasharray:none;stroke-dashoffset:0;stroke-opacity:1;paint-order:markers fill stroke" transform="translate(0,-81.100003)"/>
      <g id="text4066" style="font-style:normal;font-variant:normal;font-weight:normal;font-stretch:normal;font-size:16.93333435px;line-height:100%;font-family:'News Gothic Std';-inkscape-font-specification:'News Gothic Std';font-variant-ligatures:normal;font-variant-caps:normal;font-variant-numeric:normal;text-align:center;letter-spacing:0px;word-spacing:0px;writing-mode:lr-tb;text-anchor:middle;fill:#000000;fill-opacity:1;stroke:none;stroke-width:0.26458335" transform="translate(0,-81.100003)" aria-label="Qu">
        <path id="path332" style="font-style:normal;font-variant:normal;font-weight:normal;font-stretch:normal;font-size:16.93333435px;font-family:'News Gothic Std';-inkscape-font-specification:'News Gothic Std';text-align:center;text-anchor:middle;stroke-width:0.26458335" d="m 24.074692,178.24654 c -0.829733,0 -1.964267,-0.0847 -2.167467,-1.71027 3.302,-0.52493 4.114801,-4.19946 4.114801,-6.77333 0,-4.33493 -2.032001,-6.858 -4.775201,-6.858 -2.7432,0 -4.7752,2.52307 -4.7752,6.858 0,2.57387 0.8128,6.2484 4.080934,6.77333 0.3048,2.5908 1.761066,2.8956 3.522133,2.8956 h 0.931333 v -1.18533 z m -2.827867,-14.20707 c 1.8288,0 3.386667,1.7272 3.386667,5.72347 0,3.99627 -1.557867,5.72347 -3.386667,5.72347 -1.8288,0 -3.386667,-1.7272 -3.386667,-5.72347 0,-3.99627 1.557867,-5.72347 3.386667,-5.72347 z"/>
        <path id="path334" style="font-style:normal;font-variant:normal;font-weight:normal;font-stretch:normal;font-size:16.93333435px;font-family:'News Gothic Std';-inkscape-font-specification:'News Gothic Std';text-align:center;text-anchor:middle;stroke-width:0.26458335" d="m 32.76652,174.11481 c -0.524934,0.62653 -1.591734,1.4224 -2.404534,1.4224 -1.0668,0 -1.236133,-1.43934 -1.236133,-2.42147 v -6.11293 h -1.3208 v 6.4516 c 0,2.4384 1.0668,3.16653 2.3876,3.16653 1.0668,0 1.794933,-0.6096 2.573867,-1.23613 v 0.9652 h 1.3208 v -9.3472 h -1.3208 z"/>
      </g>
      <g id="text4112" style="font-style:normal;font-variant:normal;font-weight:normal;font-stretch:normal;font-size:6.3499999px;line-height:100%;font-family:'News Gothic Std';-inkscape-font-specification:'News Gothic Std';font-variant-ligatures:normal;font-variant-caps:normal;font-variant-numeric:normal;text-align:end;letter-spacing:0px;word-spacing:0px;writing-mode:lr-tb;text-anchor:end;fill:#000000;fill-opacity:1;stroke:none;stroke-width:0.26458335" aria-label="4">
        <path id="path272" style="font-style:normal;font-variant:normal;font-weight:normal;font-stretch:normal;font-size:6.3499999px;font-family:'News Gothic Std';-inkscape-font-specification:'News Gothic Std';text-align:end;text-anchor:end;stroke-width:0.26458335" d="m 36.295494,98.386897 h -0.7493 v -3.3147 h -0.70485 l -1.77165,3.3147 v 0.4445 h 1.9558 v 1.181103 h 0.5207 v -1.181103 h 0.7493 z m -1.27,0 h -1.44145 l 1.42875,-2.77495 h 0.0127 z"/>
      </g>
    </g>
    </g></svg>
