<?xml version='1.0' encoding='UTF-8'?>
<!-- Created with Inkscape (http://www.inkscape.org/) and export_objects.py -->
<svg xmlns:cc="http://creativecommons.org/ns#" xmlns:dc="http://purl.org/dc/elements/1.1/" xmlns:inkscape="http://www.inkscape.org/namespaces/inkscape" xmlns:rdf="http://www.w3.org/1999/02/22-rdf-syntax-ns#" xmlns:sodipodi="http://sodipodi.sourceforge.net/DTD/sodipodi-0.dtd" xmlns:xlink="http://www.w3.org/1999/xlink" xmlns="http://www.w3.org/2000/svg" version="1.1" width="72.000003pt" height="72.000003pt" viewBox="0 0 25.4000010583 25.4000010583" id="svg3896" inkscape:version="0.92.3 (2405546, 2018-03-11)" sodipodi:docname="tile15.svg"><sodipodi:namedview id="base" pagecolor="#ffffff" bordercolor="#666666" borderopacity="1.0" inkscape:pageopacity="0.0" inkscape:pageshadow="2" inkscape:zoom="0.83214792" inkscape:cx="561.01318" inkscape:cy="540.00001" inkscape:document-units="pt" inkscape:current-layer="layer3" showgrid="true" units="pt" inkscape:snap-text-baseline="true" inkscape:window-width="1280" inkscape:window-height="940" inkscape:window-x="1909" inkscape:window-y="43" inkscape:window-maximized="1">
    <inkscape:grid type="xygrid" id="grid3898" units="pt" spacingx="1.5875" spacingy="1.5875"/>
  </sodipodi:namedview>
  <metadata id="metadata3893">
    <rdf:RDF>
      <cc:Work rdf:about="">
        <dc:format>image/svg+xml</dc:format>
        <dc:type rdf:resource="http://purl.org/dc/dcmitype/StillImage"/>
        <dc:title/>
      </cc:Work>
    </rdf:RDF>
  </metadata>
  <g inkscape:groupmode="layer" inkscape:label="tile" transform="matrix(1.000000,0.000000,0.000000,1.000000,-203.199992,-76.200000)"><g id="g561" inkscape:label="15">
      <rect style="opacity:1;fill:none;fill-opacity:0.90562289;stroke:none;stroke-width:0.35277781;stroke-linecap:butt;stroke-linejoin:miter;stroke-miterlimit:47.14606857;stroke-dasharray:none;stroke-dashoffset:0;stroke-opacity:1;paint-order:markers fill stroke" id="rect4098" width="25.400002" height="25.400002" x="203.2" y="157.3" transform="translate(0,-81.100003)"/>
      <g id="text4102" style="font-style:normal;font-variant:normal;font-weight:normal;font-stretch:normal;font-size:16.93333435px;line-height:100%;font-family:'News Gothic Std';-inkscape-font-specification:'News Gothic Std';font-variant-ligatures:normal;font-variant-caps:normal;font-variant-numeric:normal;text-align:center;letter-spacing:0px;word-spacing:0px;writing-mode:lr-tb;text-anchor:middle;fill:#000000;fill-opacity:1;stroke:none;stroke-width:0.26458335" transform="translate(0,-81.100003)" aria-label="W">
        <path id="path311" style="font-style:normal;font-variant:normal;font-weight:normal;font-stretch:normal;font-size:16.93333435px;font-family:'News Gothic Std';-inkscape-font-specification:'News Gothic Std';text-align:center;text-anchor:middle;stroke-width:0.26458335" d="m 222.45797,163.17589 h -1.30386 l -2.31987,10.63413 h -0.0339 l -2.25213,-10.63413 h -1.30387 l -2.37067,10.63413 h -0.0339 l -2.16747,-10.63413 h -1.3208 l 2.76013,13.17413 h 1.35467 l 2.35373,-10.7696 h 0.0339 l 2.2352,10.7696 h 1.35467 z"/>
      </g>
      <g id="text4136" style="font-style:normal;font-variant:normal;font-weight:normal;font-stretch:normal;font-size:6.3499999px;line-height:100%;font-family:'News Gothic Std';-inkscape-font-specification:'News Gothic Std';font-variant-ligatures:normal;font-variant-caps:normal;font-variant-numeric:normal;text-align:end;letter-spacing:0px;word-spacing:0px;writing-mode:lr-tb;text-anchor:end;fill:#000000;fill-opacity:1;stroke:none;stroke-width:0.26458335" aria-label="3">
        <path id="path254" style="font-style:normal;font-variant:normal;font-weight:normal;font-stretch:normal;font-size:6.3499999px;font-family:'News Gothic Std';-inkscape-font-specification:'News Gothic Std';text-align:end;text-anchor:end;stroke-width:0.26458335" d="m 224.92226,97.631247 c 0.73025,0 1.25095,0.26035 1.25095,1.0668 0,0.6096 -0.40005,0.97155 -0.99695,0.97155 -0.52705,0 -0.84455,-0.3048 -1.1049,-0.7239 l -0.40005,0.2413 c 0.3048,0.57785 0.8382,0.927103 1.4986,0.927103 0.89535,0 1.524,-0.565153 1.524,-1.479553 0,-0.59055 -0.29845,-1.04775 -0.86995,-1.23825 0.50165,-0.26035 0.7366,-0.57785 0.7366,-1.1557 0,-0.6858 -0.47625,-1.27 -1.28905,-1.27 -0.59055,0 -1.07315,0.3175 -1.41605,0.7874 l 0.37465,0.26035 c 0.2286,-0.3302 0.51435,-0.60325 0.94615,-0.60325 0.55245,0 0.889,0.33655 0.889,0.889 0,0.50165 -0.32385,0.889 -1.0541,0.889 l -0.41275,-0.0127 v 0.4826 z"/>
      </g>
    </g>
    </g></svg>
