<?xml version="1.0" encoding="UTF-8" standalone="no"?>
<!-- Created with Inkscape (http://www.inkscape.org/) -->

<svg
   width="0.23622036in"
   height="0.51181096in"
   viewBox="0 0 5.9999971 12.999998"
   version="1.1"
   id="svg1"
   inkscape:version="1.4 (86a8ad7, 2024-10-11)"
   sodipodi:docname="heptiamonds-pieces-vector.svg"
   xmlns:inkscape="http://www.inkscape.org/namespaces/inkscape"
   xmlns:sodipodi="http://sodipodi.sourceforge.net/DTD/sodipodi-0.dtd"
   xmlns="http://www.w3.org/2000/svg"
   xmlns:svg="http://www.w3.org/2000/svg">
  <sodipodi:namedview
     id="namedview1"
     pagecolor="#ffffff"
     bordercolor="#cccccc"
     borderopacity="1"
     inkscape:showpageshadow="0"
     inkscape:pageopacity="1"
     inkscape:pagecheckerboard="0"
     inkscape:deskcolor="#d1d1d1"
     inkscape:document-units="mm"
     showgrid="true"
     inkscape:zoom="5.1331977"
     inkscape:cx="577.51526"
     inkscape:cy="-497.54562"
     inkscape:window-width="2560"
     inkscape:window-height="1494"
     inkscape:window-x="-11"
     inkscape:window-y="-11"
     inkscape:window-maximized="1"
     inkscape:current-layer="layer3"
     showguides="true">
    <inkscape:grid
       id="grid1"
       units="mm"
       originx="-134"
       originy="151.99998"
       spacingx="1"
       spacingy="1"
       empcolor="#0099e5"
       empopacity="0.30196078"
       color="#0099e5"
       opacity="0.14901961"
       empspacing="4"
       enabled="true"
       visible="true" />
    <sodipodi:guide
       position="104.71635,-288.5759"
       orientation="1,0"
       id="guide446"
       inkscape:locked="false" />
    <sodipodi:guide
       position="107.33324,-289.2389"
       orientation="1,0"
       id="guide447"
       inkscape:locked="false" />
    <sodipodi:guide
       position="154.71324,-272.58402"
       orientation="1,0"
       id="guide448"
       inkscape:locked="false" />
    <sodipodi:guide
       position="157.31774,-272.95947"
       orientation="1,0"
       id="guide449"
       inkscape:locked="false" />
    <inkscape:page
       x="0"
       y="0"
       width="5.9999971"
       height="12.999998"
       id="page2"
       margin="0"
       bleed="0" />
  </sodipodi:namedview>
  <defs
     id="defs1" />
  <g
     inkscape:groupmode="layer"
     id="layer15"
     inkscape:label="Card back"
     transform="translate(-134,151.99998)">
    <path
       id="rect1040"
       style="display:inline;fill:#ffffff;stroke-width:0.176388"
       d="m 134,-152 h 6 v 13 h -6 z"
       inkscape:export-filename="cards\c-joker.svg"
       inkscape:export-xdpi="96"
       inkscape:export-ydpi="96" />
  </g>
  <g
     inkscape:groupmode="layer"
     id="layer3"
     inkscape:label="Text"
     style="display:inline"
     transform="translate(-134,151.99998)">
    <path
       id="path1094"
       style="font-size:7.58473px;line-height:8.89744px;font-family:'Playing Cards';-inkscape-font-specification:'Playing Cards';text-align:center;letter-spacing:0px;word-spacing:0px;text-anchor:middle;fill:#808080;stroke-width:0.176389"
       d="m 137.16011,-147.82677 q 0.0364,0.33478 0.24745,0.33478 0.13829,0 0.24745,-0.16011 0.11646,-0.1674 0.13101,-0.45124 -0.0437,0.1674 -0.14556,0.2329 -0.0946,0.0655 -0.24745,0.0655 -0.0873,0 -0.2329,-0.0218 z m -0.25472,0 q -0.14557,0.0218 -0.2329,0.0218 -0.15284,0 -0.25473,-0.0655 -0.0946,-0.0655 -0.13829,-0.2329 0.0146,0.27656 0.13101,0.44396 0.11645,0.16739 0.24745,0.16739 0.21106,0 0.24746,-0.33479 z m 0.60407,0.57496 q -0.2329,0.40757 -0.4949,0.40757 -0.25474,0 -0.48035,-0.39302 0.0727,0.34207 0.1965,0.5313 0.13101,0.18195 0.28385,0.18195 0.13828,0 0.26928,-0.18195 0.13828,-0.18923 0.22562,-0.54585 z M 137,-146.10189 q -0.14557,-0.17467 -0.29841,-0.40029 -0.14555,-0.22561 -0.27656,-0.47307 -0.131,-0.24745 -0.21106,-0.48034 -0.08,-0.2329 -0.08,-0.41485 0,-0.21106 0.11644,-0.32751 0.12373,-0.11645 0.37846,-0.11645 0.17467,0 0.40756,0.0582 0.2329,-0.0582 0.40758,-0.0582 0.25472,0 0.37117,0.11645 0.11645,0.10917 0.11645,0.31295 0,0.18195 -0.0873,0.42213 -0.0873,0.23289 -0.22562,0.48035 -0.13829,0.24745 -0.30568,0.48034 -0.16011,0.22562 -0.31295,0.40029 z m 0,0.1019 q 0.53129,-0.57497 0.78602,-1.07715 0.25473,-0.50218 0.25473,-0.84425 0,-0.29112 -0.16011,-0.40757 0.0728,-0.3639 0.23289,-0.5604 0.16012,-0.20379 0.34206,-0.20379 0.15284,0 0.26201,0.14556 0.11646,0.13829 0.14557,0.40757 -0.21107,0.0509 -0.21107,0.2329 0,0.10189 0.08,0.18195 0.08,0.0728 0.20379,0.0728 0.008,0 0.0437,-0.007 0.0219,0 0.0364,0 0.13828,-0.0291 0.20378,-0.10189 0.0728,-0.0801 0.0728,-0.17468 0,-0.0946 -0.0655,-0.16739 -0.0582,-0.0728 -0.16012,-0.0728 -0.0364,0 -0.0728,0.0146 -0.0219,-0.28384 -0.1965,-0.50218 -0.16739,-0.21835 -0.41484,-0.21835 -0.18924,0 -0.40029,0.16012 -0.2038,0.15284 -0.40758,0.48763 0,-0.0146 0,-0.0364 -0.008,-0.0218 -0.008,-0.0364 0,-0.14556 0.0582,-0.32023 0.0655,-0.18195 0.16739,-0.34207 0.10918,-0.1674 0.24745,-0.26929 0.13828,-0.10917 0.28385,-0.10917 0.20378,0 0.37846,0.20379 -0.0219,0.0437 -0.0219,0.0873 0,0.0801 0.0582,0.14556 0.0655,0.0582 0.15284,0.0582 0.14556,0 0.21107,-0.20379 0.0291,-0.0728 0.0291,-0.13828 0,-0.0946 -0.0582,-0.15284 -0.051,-0.0655 -0.12373,-0.0655 -0.13101,0 -0.18923,0.16012 -0.0873,-0.10917 -0.25473,-0.18195 -0.16739,-0.0801 -0.35662,-0.0801 -0.31296,0 -0.58224,0.24017 -0.26201,0.24018 -0.39302,0.77875 0.0437,-0.34934 0.0437,-0.61863 0,-0.7933 -0.40029,-1.12081 0.17467,-0.0509 0.17467,-0.19651 0,-0.16739 -0.1965,-0.16739 -0.11645,0 -0.26201,0.0728 -0.18195,0.0728 -0.18195,0.20378 0,0.0801 0.0583,0.13828 0.0655,0.0582 0.16738,0.0582 0.0655,0 0.13828,-0.0364 0.0655,0.0218 0.1019,0.25473 0.0437,0.2329 0.0437,0.56041 0,0.22562 -0.0219,0.45124 -0.0219,0.22561 -0.0655,0.39301 -0.10188,-0.5313 -0.35662,-0.77147 -0.24745,-0.24017 -0.55313,-0.24017 -0.18922,0 -0.35662,0.0801 -0.16739,0.0728 -0.25473,0.18195 -0.051,-0.16012 -0.18923,-0.16012 -0.0728,0 -0.131,0.0655 -0.051,0.0582 -0.051,0.15284 0,0.0655 0.0291,0.13828 0.0655,0.20378 0.21833,0.20378 0.08,0 0.13829,-0.0582 0.0655,-0.0655 0.0655,-0.14556 0,-0.0437 -0.0219,-0.0873 0.17467,-0.20378 0.37846,-0.20378 0.14555,0 0.28384,0.10917 0.13828,0.10189 0.24017,0.26929 0.10917,0.16011 0.1674,0.34206 0.0655,0.17467 0.0655,0.32023 0,0.0146 -0.008,0.0364 0,0.0218 0,0.0364 -0.20378,-0.33478 -0.41485,-0.48762 -0.20378,-0.16012 -0.393,-0.16012 -0.24018,0 -0.41485,0.21834 -0.17467,0.21834 -0.19651,0.50219 -0.0364,-0.0146 -0.0728,-0.0146 -0.0946,0 -0.16011,0.0728 -0.0655,0.0728 -0.0655,0.16739 0,0.0946 0.0655,0.17467 0.0728,0.0728 0.21106,0.10189 0.0219,0 0.0437,0 0.0291,0.007 0.0364,0.007 0.12373,0 0.20378,-0.0728 0.08,-0.0801 0.08,-0.18195 0,-0.18195 -0.21106,-0.23289 0.0291,-0.26929 0.13829,-0.40757 0.11644,-0.14556 0.26928,-0.14556 0.18195,0 0.34206,0.20378 0.16012,0.19651 0.23291,0.56041 -0.16013,0.11645 -0.16013,0.40757 0,0.34934 0.25474,0.85153 0.25472,0.4949 0.77147,1.06986 z" />
  </g>
  <g
     inkscape:groupmode="layer"
     id="layer8"
     inkscape:label="Clubs"
     style="display:inline"
     transform="translate(-134,151.99998)">
    <path
       style="font-size:4.5861px;line-height:5.37985px;font-family:'Yu Gothic';-inkscape-font-specification:'Yu Gothic';text-align:center;letter-spacing:0px;word-spacing:0px;text-anchor:middle;fill:#808080;stroke-width:0.176389"
       d="m 136.83102,-141.57726 q 0,-0.10997 -0.0483,-0.10997 -0.0563,0 -0.10998,0.0832 -0.45332,0.61963 -1.022,0.61963 -0.46942,0 -0.77253,-0.35139 -0.26019,-0.30311 -0.26019,-0.71889 0,-0.48015 0.32457,-0.78594 0.28702,-0.26824 0.69742,-0.26824 0.20387,0 0.43455,0.11534 0.13949,0.0724 0.39432,0.24678 0.0483,0.0322 0.0858,0.0322 0.0671,0 0.0671,-0.0617 0,-0.051 -0.0563,-0.0805 -0.3353,-0.25215 -0.48552,-0.49893 -0.15558,-0.25751 -0.15558,-0.57403 0,-0.47211 0.35408,-0.794 0.30577,-0.27628 0.71886,-0.27628 0.47478,0 0.79399,0.35407 0.27629,0.3058 0.27629,0.71621 0,0.35676 -0.20118,0.64109 -0.14485,0.20655 -0.43992,0.43187 -0.0563,0.0295 -0.0563,0.0805 0,0.0617 0.0671,0.0617 0.0376,0 0.0858,-0.0322 0.2897,-0.20118 0.44796,-0.27092 0.1985,-0.0912 0.38359,-0.0912 0.47479,0 0.77253,0.34335 0.25483,0.29506 0.25483,0.71083 0,0.48015 -0.33798,0.794 -0.29238,0.27628 -0.70011,0.27628 -0.57135,0 -1.02468,-0.61963 -0.0536,-0.0832 -0.10998,-0.0832 -0.0483,0 -0.0483,0.10998 0,0.40504 0.0939,0.75375 0.1234,0.44797 0.37286,0.8235 -0.31384,-0.0671 -0.63037,-0.0671 -0.31116,0 -0.63305,0.0671 0.24947,-0.37553 0.37286,-0.8235 0.0939,-0.34871 0.0939,-0.75375 z"
       id="path1212" />
  </g>
</svg>
