<?xml version="1.0" encoding="UTF-8" standalone="no"?>
<!-- Created with Inkscape (http://www.inkscape.org/) -->

<svg
   width="0.23622036in"
   height="0.51181126in"
   viewBox="0 0 5.9999971 13.000006"
   version="1.1"
   id="svg1"
   xmlns="http://www.w3.org/2000/svg"
   xmlns:svg="http://www.w3.org/2000/svg">
  <defs
     id="defs1" />
  <g
     id="layer15"
     transform="translate(-128,138.00002)">
    <path
       id="rect1039"
       style="display:inline;fill:#ffffff;stroke-width:0.176388"
       d="m 128,-138 h 6 v 13 h -6 z" />
  </g>
  <g
     id="layer3"
     style="display:inline"
     transform="translate(-128,138.00002)">
    <path
       d="m 130.73705,-132.62959 h 1.79619 V -132 h -3.22203 l 2.40356,-2.5554 q 0.27035,-0.29628 0.27035,-0.65181 0,-0.41849 -0.28516,-0.72588 -0.28517,-0.30739 -0.67033,-0.30739 -0.3185,0 -0.59997,0.20369 -0.27776,0.20369 -0.36294,0.62959 h -0.62218 q 0.0926,-0.69625 0.54811,-1.08141 0.45924,-0.38887 1.07772,-0.38887 0.61848,0 1.07771,0.48886 0.45923,0.48516 0.45923,1.15178 0,0.3222 -0.11851,0.59256 -0.11481,0.26665 -0.41109,0.58144 z"
       id="text1094"
       style="font-size:7.58472px;line-height:8.89744px;font-family:'Tw Cen MT';-inkscape-font-specification:'Tw Cen MT';text-align:center;letter-spacing:0px;word-spacing:0px;text-anchor:middle;fill:#808080;stroke-width:0.176389"
       aria-label="2" />
  </g>
  <g
     id="layer8"
     style="display:inline"
     transform="translate(-128,138.00002)">
    <path
       style="font-size:4.5861px;line-height:5.37985px;font-family:'Yu Gothic';-inkscape-font-specification:'Yu Gothic';text-align:center;letter-spacing:0px;word-spacing:0px;text-anchor:middle;fill:#808080;stroke-width:0.176389"
       d="m 130.83102,-127.57726 q 0,-0.10997 -0.0483,-0.10997 -0.0563,0 -0.10998,0.0832 -0.45332,0.61963 -1.022,0.61963 -0.46942,0 -0.77253,-0.35139 -0.26019,-0.30311 -0.26019,-0.71889 0,-0.48015 0.32457,-0.78594 0.28702,-0.26824 0.69743,-0.26824 0.20386,0 0.43455,0.11534 0.13948,0.0724 0.39431,0.24678 0.0483,0.0322 0.0858,0.0322 0.0671,0 0.0671,-0.0617 0,-0.051 -0.0563,-0.0805 -0.3353,-0.25215 -0.48552,-0.49893 -0.15558,-0.25751 -0.15558,-0.57403 0,-0.47211 0.35408,-0.794 0.3058,-0.27628 0.71889,-0.27628 0.47478,0 0.79399,0.35407 0.27629,0.3058 0.27629,0.71621 0,0.35676 -0.20118,0.64109 -0.14485,0.20655 -0.43992,0.43187 -0.0563,0.0295 -0.0563,0.0805 0,0.0617 0.0671,0.0617 0.0376,0 0.0858,-0.0322 0.2897,-0.20118 0.44796,-0.27092 0.1985,-0.0912 0.38359,-0.0912 0.47479,0 0.77253,0.34335 0.25483,0.29506 0.25483,0.71083 0,0.48015 -0.33798,0.794 -0.29238,0.27628 -0.70011,0.27628 -0.57135,0 -1.02468,-0.61963 -0.0536,-0.0832 -0.10998,-0.0832 -0.0483,0 -0.0483,0.10998 0,0.40504 0.0939,0.75375 0.1234,0.44797 0.37286,0.8235 -0.31384,-0.0671 -0.63037,-0.0671 -0.31116,0 -0.63305,0.0671 0.24947,-0.37553 0.37286,-0.8235 0.0939,-0.34871 0.0939,-0.75375 z"
       id="path1211" />
  </g>
</svg>
