<?xml version="1.0" encoding="UTF-8" standalone="no"?>
<!-- Created with Inkscape (http://www.inkscape.org/) -->

<svg
   width="0.23622069in"
   height="0.51181126in"
   viewBox="0 0 6.0000055 13.000006"
   version="1.1"
   id="svg1"
   xmlns="http://www.w3.org/2000/svg"
   xmlns:svg="http://www.w3.org/2000/svg">
  <defs
     id="defs1" />
  <g
     id="layer15"
     transform="translate(-122,138.00002)">
    <path
       id="rect1038"
       style="display:inline;fill:#ffffff;stroke-width:0.176388"
       d="m 122,-138 h 6 v 13 h -6 z" />
  </g>
  <g
     id="layer3"
     style="display:inline"
     transform="translate(-122,138.00002)">
    <path
       d="m 124.18894,-135.65533 h -0.68885 q 0.0667,-0.59626 0.46664,-0.90735 0.40368,-0.3148 0.97401,-0.3148 0.65552,0 1.08512,0.37405 0.42961,0.37405 0.42961,0.93698 0,0.69996 -0.71107,1.07031 0.83328,0.4296 0.83328,1.18511 0,0.59256 -0.45553,1.02957 -0.45182,0.4333 -1.074,0.4333 -0.62589,0 -1.08512,-0.31109 -0.45553,-0.3148 -0.59997,-0.99253 h 0.70366 q 0.22962,0.73329 0.94069,0.73329 0.36294,0 0.63329,-0.24814 0.27036,-0.25183 0.27036,-0.58515 0,-0.34812 -0.24814,-0.63699 -0.24813,-0.29258 -0.81476,-0.30369 v -0.58515 q 0.4333,-0.007 0.67773,-0.2111 0.24814,-0.20739 0.24814,-0.52959 0,-0.32961 -0.22962,-0.55923 -0.22961,-0.22961 -0.55922,-0.22961 -0.3111,0 -0.49627,0.15554 -0.18517,0.15555 -0.29998,0.49627 z"
       id="text1093"
       style="font-size:7.58472px;line-height:8.89744px;font-family:'Tw Cen MT';-inkscape-font-specification:'Tw Cen MT';text-align:center;letter-spacing:0px;word-spacing:0px;text-anchor:middle;fill:#808080;stroke-width:0.176389"
       aria-label="3" />
  </g>
  <g
     id="layer8"
     style="display:inline"
     transform="translate(-122,138.00002)">
    <path
       style="font-size:4.5861px;line-height:5.37985px;font-family:'Yu Gothic';-inkscape-font-specification:'Yu Gothic';text-align:center;letter-spacing:0px;word-spacing:0px;text-anchor:middle;fill:#808080;stroke-width:0.176389"
       d="m 124.83102,-127.57726 q 0,-0.10997 -0.0483,-0.10997 -0.0563,0 -0.10998,0.0832 -0.45332,0.61963 -1.022,0.61963 -0.46942,0 -0.77253,-0.35139 -0.26019,-0.30311 -0.26019,-0.71889 0,-0.48015 0.32457,-0.78594 0.28702,-0.26824 0.69743,-0.26824 0.20386,0 0.43455,0.11534 0.13948,0.0724 0.39431,0.24678 0.0483,0.0322 0.0858,0.0322 0.0671,0 0.0671,-0.0617 0,-0.051 -0.0563,-0.0805 -0.3353,-0.25215 -0.48552,-0.49893 -0.15558,-0.25751 -0.15558,-0.57403 0,-0.47211 0.35408,-0.794 0.3058,-0.27628 0.71889,-0.27628 0.47478,0 0.79399,0.35407 0.27629,0.3058 0.27629,0.71621 0,0.35676 -0.20118,0.64109 -0.14485,0.20655 -0.43992,0.43187 -0.0563,0.0295 -0.0563,0.0805 0,0.0617 0.0671,0.0617 0.0375,0 0.0858,-0.0322 0.2897,-0.20118 0.44796,-0.27092 0.1985,-0.0912 0.38359,-0.0912 0.47479,0 0.77253,0.34335 0.25483,0.29506 0.25483,0.71083 0,0.48015 -0.33798,0.794 -0.29238,0.27628 -0.70011,0.27628 -0.57135,0 -1.02468,-0.61963 -0.0537,-0.0832 -0.10998,-0.0832 -0.0483,0 -0.0483,0.10998 0,0.40504 0.0939,0.75375 0.1234,0.44797 0.37286,0.8235 -0.31384,-0.0671 -0.63037,-0.0671 -0.31116,0 -0.63305,0.0671 0.24947,-0.37553 0.37286,-0.8235 0.0939,-0.34871 0.0939,-0.75375 z"
       id="path1210" />
  </g>
</svg>
