<?xml version="1.0" encoding="UTF-8" standalone="no"?>
<!-- Created with Inkscape (http://www.inkscape.org/) -->

<svg
   width="0.23622036in"
   height="0.51181126in"
   viewBox="0 0 5.9999971 13.000006"
   version="1.1"
   id="svg1"
   xmlns="http://www.w3.org/2000/svg"
   xmlns:svg="http://www.w3.org/2000/svg">
  <defs
     id="defs1" />
  <g
     id="layer15"
     transform="translate(-104,138.00002)">
    <path
       id="rect1035"
       style="display:inline;fill:#ffffff;stroke-width:0.176388"
       d="m 104,-138 h 6 v 13 h -6 z" />
  </g>
  <g
     id="layer3"
     style="display:inline"
     transform="translate(-104,138.00002)">
    <path
       d="m 107.27406,-136.97377 0.49256,0.34072 -1.03697,1.51472 q 0.12962,-0.0148 0.18147,-0.0148 l 0.13703,-0.007 q 0.65921,0 1.15918,0.47034 0.49997,0.47034 0.49997,1.08512 0,0.72959 -0.49626,1.23696 -0.49627,0.50738 -1.21104,0.50738 -0.71477,0 -1.22215,-0.49627 -0.50737,-0.49997 -0.50737,-1.20363 0,-0.5407 0.3185,-0.99993 z m 0.75921,3.4109 q 0,-0.4296 -0.31109,-0.74069 -0.30739,-0.3148 -0.72959,-0.3148 -0.42219,0 -0.73699,0.3185 -0.31479,0.3148 -0.31479,0.73699 0,0.43701 0.30368,0.7407 0.30739,0.29998 0.7481,0.29998 0.43331,0 0.73699,-0.30369 0.30369,-0.30368 0.30369,-0.73699 z"
       id="text1090"
       style="font-size:7.58472px;line-height:8.89744px;font-family:'Tw Cen MT';-inkscape-font-specification:'Tw Cen MT';text-align:center;letter-spacing:0px;word-spacing:0px;text-anchor:middle;fill:#808080;stroke-width:0.176389"
       aria-label="6" />
  </g>
  <g
     id="layer8"
     style="display:inline"
     transform="translate(-104,138.00002)">
    <path
       style="font-size:4.5861px;line-height:5.37985px;font-family:'Yu Gothic';-inkscape-font-specification:'Yu Gothic';text-align:center;letter-spacing:0px;word-spacing:0px;text-anchor:middle;fill:#808080;stroke-width:0.176389"
       d="m 106.83102,-127.57726 q 0,-0.10997 -0.0483,-0.10997 -0.0563,0 -0.10998,0.0832 -0.45332,0.61963 -1.022,0.61963 -0.46942,0 -0.77253,-0.35139 -0.26019,-0.30311 -0.26019,-0.71889 0,-0.48015 0.32457,-0.78594 0.28702,-0.26824 0.69743,-0.26824 0.20386,0 0.43455,0.11534 0.13948,0.0724 0.39431,0.24678 0.0483,0.0322 0.0858,0.0322 0.0671,0 0.0671,-0.0617 0,-0.051 -0.0563,-0.0805 -0.3353,-0.25215 -0.48552,-0.49893 -0.15558,-0.25751 -0.15558,-0.57403 0,-0.47211 0.35408,-0.794 0.3058,-0.27628 0.71889,-0.27628 0.47478,0 0.79399,0.35407 0.27629,0.3058 0.27629,0.71621 0,0.35676 -0.20118,0.64109 -0.14485,0.20655 -0.43992,0.43187 -0.0563,0.0295 -0.0563,0.0805 0,0.0617 0.0671,0.0617 0.0375,0 0.0858,-0.0322 0.2897,-0.20118 0.44796,-0.27092 0.1985,-0.0912 0.38359,-0.0912 0.47479,0 0.77253,0.34335 0.25483,0.29506 0.25483,0.71083 0,0.48015 -0.33798,0.794 -0.29238,0.27628 -0.70011,0.27628 -0.57135,0 -1.02468,-0.61963 -0.0537,-0.0832 -0.10998,-0.0832 -0.0483,0 -0.0483,0.10998 0,0.40504 0.0939,0.75375 0.1234,0.44797 0.37286,0.8235 -0.31384,-0.0671 -0.63037,-0.0671 -0.31116,0 -0.63305,0.0671 0.24947,-0.37553 0.37286,-0.8235 0.0939,-0.34871 0.0939,-0.75375 z"
       id="path1203" />
  </g>
</svg>
