<?xml version="1.0" encoding="UTF-8" standalone="no"?>
<!-- Created with Inkscape (http://www.inkscape.org/) -->

<svg
   width="0.23622069in"
   height="0.51181126in"
   viewBox="0 0 6.0000055 13.000006"
   version="1.1"
   id="svg1"
   xmlns="http://www.w3.org/2000/svg"
   xmlns:svg="http://www.w3.org/2000/svg">
  <defs
     id="defs1" />
  <g
     id="layer15"
     transform="translate(-92.000002,138.00002)">
    <path
       id="rect1033"
       style="display:inline;fill:#ffffff;stroke-width:0.176388"
       d="m 92,-138 h 6.000001 v 13 H 92 Z" />
  </g>
  <g
     id="layer3"
     style="display:inline"
     transform="translate(-92.000002,138.00002)">
    <path
       d="m 95.903648,-134.44059 q 0.366644,0.20739 0.544411,0.52589 0.177767,0.3148 0.177767,0.64811 0,0.58515 -0.474045,1.00364 -0.474045,0.41479 -1.151781,0.41479 -0.685143,0 -1.159188,-0.41108 -0.470342,-0.41479 -0.470342,-1.00735 0,-0.71477 0.688847,-1.174 -0.292575,-0.25554 -0.4259,-0.50367 -0.133325,-0.24814 -0.133325,-0.58145 0,-0.54441 0.440714,-0.94809 0.444417,-0.40368 1.04438,-0.40368 0.599963,0 1.044381,0.39998 0.444417,0.39997 0.444417,0.93698 0,0.62588 -0.570336,1.09993 z m -0.107401,-1.07031 q 0,-0.33331 -0.237022,-0.56663 -0.237023,-0.23702 -0.574039,-0.23702 -0.333313,0 -0.574039,0.23702 -0.237022,0.23332 -0.237022,0.56663 0,0.33332 0.237022,0.57034 0.240726,0.23332 0.574039,0.23332 0.337016,0 0.574039,-0.23332 0.237022,-0.23702 0.237022,-0.57034 z m 0.151843,2.2295 q 0,-0.35554 -0.288871,-0.61108 -0.285168,-0.25554 -0.688847,-0.25554 -0.392568,0 -0.659219,0.25554 -0.26665,0.25184 -0.26665,0.62589 0,0.36665 0.277761,0.61107 0.281464,0.24443 0.699957,0.24443 0.388865,0 0.655515,-0.25183 0.270354,-0.25184 0.270354,-0.61848 z"
       id="text1088"
       style="font-size:7.58472px;line-height:8.89744px;font-family:'Tw Cen MT';-inkscape-font-specification:'Tw Cen MT';text-align:center;letter-spacing:0px;word-spacing:0px;text-anchor:middle;fill:#808080;stroke-width:0.176389"
       aria-label="8" />
  </g>
  <g
     id="layer8"
     style="display:inline"
     transform="translate(-92.000002,138.00002)">
    <path
       style="font-size:4.5861px;line-height:5.37985px;font-family:'Yu Gothic';-inkscape-font-specification:'Yu Gothic';text-align:center;letter-spacing:0px;word-spacing:0px;text-anchor:middle;fill:#808080;stroke-width:0.176389"
       d="m 94.83102,-127.57726 q 0,-0.10997 -0.0483,-0.10997 -0.0563,0 -0.10998,0.0832 -0.45332,0.61963 -1.021995,0.61963 -0.469422,0 -0.772533,-0.35139 -0.260194,-0.30311 -0.260194,-0.71889 0,-0.48015 0.324571,-0.78594 0.287018,-0.26824 0.697427,-0.26824 0.203863,0 0.434554,0.11534 0.13948,0.0724 0.39431,0.24678 0.0483,0.0322 0.0858,0.0322 0.0671,0 0.0671,-0.0617 0,-0.051 -0.0563,-0.0805 -0.3353,-0.25215 -0.48552,-0.49893 -0.155576,-0.25751 -0.155576,-0.57403 0,-0.47211 0.354076,-0.794 0.3058,-0.27628 0.71889,-0.27628 0.47478,0 0.79399,0.35407 0.27629,0.3058 0.27629,0.71621 0,0.35676 -0.20118,0.64109 -0.14485,0.20655 -0.43992,0.43187 -0.0563,0.0295 -0.0563,0.0805 0,0.0617 0.0671,0.0617 0.0376,0 0.0858,-0.0322 0.2897,-0.20118 0.44797,-0.27092 0.19849,-0.0912 0.38358,-0.0912 0.47479,0 0.77253,0.34335 0.25483,0.29506 0.25483,0.71083 0,0.48015 -0.33798,0.794 -0.29238,0.27628 -0.70011,0.27628 -0.57135,0 -1.02468,-0.61963 -0.0536,-0.0832 -0.10998,-0.0832 -0.0483,0 -0.0483,0.10998 0,0.40504 0.0939,0.75375 0.1234,0.44797 0.37286,0.8235 -0.31384,-0.0671 -0.63037,-0.0671 -0.31116,0 -0.63304,0.0671 0.24946,-0.37553 0.37285,-0.8235 0.0939,-0.34871 0.0939,-0.75375 z"
       id="path1201" />
  </g>
</svg>
