<?xml version="1.0" encoding="UTF-8" standalone="no"?>
<!-- Created with Inkscape (http://www.inkscape.org/) -->

<svg
   width="0.23622069in"
   height="0.51181126in"
   viewBox="0 0 6.0000055 13.000006"
   version="1.1"
   id="svg1"
   xmlns="http://www.w3.org/2000/svg"
   xmlns:svg="http://www.w3.org/2000/svg">
  <defs
     id="defs1" />
  <g
     id="layer15"
     transform="translate(-86.000002,138.00002)">
    <path
       id="rect1032"
       style="display:inline;fill:#ffffff;stroke-width:0.176388"
       d="m 86,-138 h 6.000001 v 13 H 86 Z" />
  </g>
  <g
     id="layer3"
     style="display:inline"
     transform="translate(-86.000002,138.00002)">
    <path
       d="m 88.729646,-131.75557 -0.503673,-0.35183 1.040677,-1.50732 q -0.218505,0.0296 -0.333313,0.0296 -0.699957,0 -1.174002,-0.47034 -0.474045,-0.47404 -0.474045,-1.16659 0,-0.67033 0.514784,-1.1703 0.518486,-0.49997 1.207333,-0.49997 0.68144,0 1.192519,0.51108 0.514784,0.50737 0.514784,1.18141 0,0.54441 -0.348127,1.05178 z m 1.318438,-3.39979 q 0,-0.43701 -0.307389,-0.7481 -0.307388,-0.3148 -0.733288,-0.3148 -0.451824,0 -0.755509,0.31109 -0.303685,0.30739 -0.303685,0.76662 0,0.4222 0.322202,0.72588 0.322203,0.29998 0.77773,0.29998 0.418493,0 0.707364,-0.29998 0.292575,-0.30368 0.292575,-0.74069 z"
       id="text1087"
       style="font-size:7.58472px;line-height:8.89744px;font-family:'Tw Cen MT';-inkscape-font-specification:'Tw Cen MT';text-align:center;letter-spacing:0px;word-spacing:0px;text-anchor:middle;fill:#808080;stroke-width:0.176389"
       aria-label="9" />
  </g>
  <g
     id="layer8"
     style="display:inline"
     transform="translate(-86.000002,138.00002)">
    <path
       style="font-size:4.5861px;line-height:5.37985px;font-family:'Yu Gothic';-inkscape-font-specification:'Yu Gothic';text-align:center;letter-spacing:0px;word-spacing:0px;text-anchor:middle;fill:#808080;stroke-width:0.176389"
       d="m 88.83102,-127.57726 q 0,-0.10997 -0.04829,-0.10997 -0.05634,0 -0.109977,0.0832 -0.453327,0.61963 -1.021998,0.61963 -0.469422,0 -0.772533,-0.35139 -0.260194,-0.30311 -0.260194,-0.71889 0,-0.48015 0.324571,-0.78594 0.287018,-0.26824 0.697427,-0.26824 0.203863,0 0.43455,0.11534 0.139485,0.0724 0.394314,0.24678 0.04829,0.0322 0.08584,0.0322 0.06706,0 0.06706,-0.0617 0,-0.051 -0.05634,-0.0805 -0.335302,-0.25215 -0.485516,-0.49893 -0.15558,-0.25751 -0.15558,-0.57403 0,-0.47211 0.354078,-0.794 0.305795,-0.27628 0.718885,-0.27628 0.474786,0 0.793994,0.35407 0.276287,0.3058 0.276287,0.71621 0,0.35676 -0.201181,0.64109 -0.144849,0.20655 -0.439914,0.43187 -0.05634,0.0295 -0.05634,0.0805 0,0.0617 0.06706,0.0617 0.03755,0 0.08584,-0.0322 0.2897,-0.20118 0.447962,-0.27092 0.198499,-0.0912 0.383585,-0.0912 0.474787,0 0.772534,0.34335 0.254829,0.29506 0.254829,0.71083 0,0.48015 -0.337984,0.794 -0.292382,0.27628 -0.700109,0.27628 -0.571352,0 -1.024679,-0.61963 -0.05365,-0.0832 -0.109977,-0.0832 -0.04829,0 -0.04829,0.10998 0,0.40504 0.09389,0.75375 0.123392,0.44797 0.372855,0.8235 -0.313842,-0.0671 -0.630366,-0.0671 -0.31116,0 -0.633048,0.0671 0.249464,-0.37553 0.372854,-0.8235 0.09389,-0.34871 0.09389,-0.75375 z"
       id="path1200" />
  </g>
</svg>
