<?xml version="1.0" encoding="UTF-8" standalone="no"?>
<!-- Created with Inkscape (http://www.inkscape.org/) -->

<svg
   width="0.23622036in"
   height="0.51181096in"
   viewBox="0 0 5.9999971 12.999998"
   version="1.1"
   id="svg1"
   xmlns="http://www.w3.org/2000/svg"
   xmlns:svg="http://www.w3.org/2000/svg">
  <defs
     id="defs1" />
  <g
     id="layer15"
     transform="translate(-128,126)">
    <path
       id="rect1053"
       style="display:inline;fill:#ffffff;stroke-width:0.176388"
       d="m 128,-126 h 6 v 13 h -6 z" />
  </g>
  <g
     id="layer3"
     style="display:inline"
     transform="translate(-128,126)">
    <path
       d="m 130.73705,-120.62959 h 1.79619 V -120 h -3.22203 l 2.40356,-2.5554 q 0.27035,-0.29628 0.27035,-0.65181 0,-0.41849 -0.28516,-0.72588 -0.28517,-0.30739 -0.67033,-0.30739 -0.3185,0 -0.59997,0.20369 -0.27776,0.20369 -0.36294,0.62959 h -0.62218 q 0.0926,-0.69625 0.54811,-1.08141 0.45924,-0.38887 1.07772,-0.38887 0.61848,0 1.07771,0.48886 0.45923,0.48516 0.45923,1.15178 0,0.3222 -0.11851,0.59256 -0.11481,0.26665 -0.41109,0.58144 z"
       id="text1107"
       style="font-size:7.58472px;line-height:8.89744px;font-family:'Tw Cen MT';-inkscape-font-specification:'Tw Cen MT';text-align:center;letter-spacing:0px;word-spacing:0px;text-anchor:middle;fill:#ff0000;stroke-width:0.176389"
       aria-label="2" />
  </g>
  <g
     id="layer9"
     style="display:inline"
     transform="translate(-128,126)">
    <path
       style="font-size:4.5861px;line-height:5.37985px;font-family:'Yu Gothic';-inkscape-font-specification:'Yu Gothic';text-align:center;letter-spacing:0px;word-spacing:0px;text-anchor:middle;fill:#ff0000;stroke-width:0.176389"
       d="m 131,-118.99999 q 0.70423,1.30281 1.88883,2.45724 -1.17203,1.17958 -1.88883,2.54276 -0.71177,-1.35061 -1.89638,-2.54276 1.18712,-1.1494 1.89638,-2.45724 z"
       id="path1225" />
  </g>
</svg>
