<?xml version="1.0" encoding="UTF-8" standalone="no"?>
<!-- Created with Inkscape (http://www.inkscape.org/) -->

<svg
   width="0.23622069in"
   height="0.51181096in"
   viewBox="0 0 6.0000055 12.999998"
   version="1.1"
   id="svg1"
   xmlns="http://www.w3.org/2000/svg"
   xmlns:svg="http://www.w3.org/2000/svg">
  <defs
     id="defs1" />
  <g
     id="layer15"
     transform="translate(-110,126)">
    <path
       id="rect1050"
       style="display:inline;fill:#ffffff;stroke-width:0.176388"
       d="m 110,-126 h 6 v 13 h -6 z" />
  </g>
  <g
     id="layer3"
     style="display:inline"
     transform="translate(-110,126)">
    <path
       d="m 112.40004,-124.72564 h 2.12579 v 0.637 h -1.62953 l -0.25183,0.90365 q 0.28146,-0.0296 0.3259,-0.0296 0.62219,0 1.08512,0.49627 0.46294,0.49626 0.46294,1.16289 0,0.71477 -0.5296,1.21104 -0.5259,0.49626 -1.28511,0.49626 -0.96661,0 -1.56287,-0.84069 l 0.57775,-0.36664 q 0.4259,0.5333 1.01105,0.5333 0.48145,0 0.79624,-0.29998 0.3185,-0.30369 0.3185,-0.76292 0,-0.44442 -0.32961,-0.7481 -0.3259,-0.30739 -0.80365,-0.30739 -0.28517,0 -0.49627,0.1037 -0.2111,0.1 -0.46664,0.3222 z"
       id="text1104"
       style="font-size:7.58472px;line-height:8.89744px;font-family:'Tw Cen MT';-inkscape-font-specification:'Tw Cen MT';text-align:center;letter-spacing:0px;word-spacing:0px;text-anchor:middle;fill:#ff0000;stroke-width:0.176389"
       aria-label="5" />
  </g>
  <g
     id="layer9"
     style="display:inline"
     transform="translate(-110,126)">
    <path
       style="font-size:4.5861px;line-height:5.37985px;font-family:'Yu Gothic';-inkscape-font-specification:'Yu Gothic';text-align:center;letter-spacing:0px;word-spacing:0px;text-anchor:middle;fill:#ff0000;stroke-width:0.176389"
       d="m 113,-118.99999 q 0.70423,1.30281 1.88883,2.45724 -1.17203,1.17958 -1.88883,2.54276 -0.71177,-1.35061 -1.89638,-2.54276 1.18712,-1.1494 1.89638,-2.45724 z"
       id="path1222" />
  </g>
</svg>
