<?xml version="1.0" encoding="UTF-8" standalone="no"?>
<!-- Created with Inkscape (http://www.inkscape.org/) -->

<svg
   width="0.23622036in"
   height="0.51181096in"
   viewBox="0 0 5.9999971 12.999998"
   version="1.1"
   id="svg1"
   xmlns="http://www.w3.org/2000/svg"
   xmlns:svg="http://www.w3.org/2000/svg">
  <defs
     id="defs1" />
  <g
     id="layer15"
     transform="translate(-104,126)">
    <path
       id="rect1049"
       style="display:inline;fill:#ffffff;stroke-width:0.176388"
       d="m 104,-126 h 6 v 13 h -6 z" />
  </g>
  <g
     id="layer3"
     style="display:inline"
     transform="translate(-104,126)">
    <path
       d="m 107.27406,-124.97377 0.49256,0.34072 -1.03697,1.51472 q 0.12962,-0.0148 0.18147,-0.0148 l 0.13703,-0.007 q 0.65921,0 1.15918,0.47034 0.49997,0.47034 0.49997,1.08512 0,0.72959 -0.49626,1.23696 -0.49627,0.50738 -1.21104,0.50738 -0.71477,0 -1.22215,-0.49627 -0.50737,-0.49997 -0.50737,-1.20363 0,-0.5407 0.3185,-0.99993 z m 0.75921,3.4109 q 0,-0.4296 -0.31109,-0.74069 -0.30739,-0.3148 -0.72959,-0.3148 -0.42219,0 -0.73699,0.3185 -0.31479,0.3148 -0.31479,0.73699 0,0.43701 0.30368,0.7407 0.30739,0.29998 0.7481,0.29998 0.43331,0 0.73699,-0.30369 0.30369,-0.30368 0.30369,-0.73699 z"
       id="text1103"
       style="font-size:7.58472px;line-height:8.89744px;font-family:'Tw Cen MT';-inkscape-font-specification:'Tw Cen MT';text-align:center;letter-spacing:0px;word-spacing:0px;text-anchor:middle;fill:#ff0000;stroke-width:0.176389"
       aria-label="6" />
  </g>
  <g
     id="layer9"
     style="display:inline"
     transform="translate(-104,126)">
    <path
       style="font-size:4.5861px;line-height:5.37985px;font-family:'Yu Gothic';-inkscape-font-specification:'Yu Gothic';text-align:center;letter-spacing:0px;word-spacing:0px;text-anchor:middle;fill:#ff0000;stroke-width:0.176389"
       d="m 107,-118.99999 q 0.70423,1.30281 1.88883,2.45724 -1.17203,1.17958 -1.88883,2.54276 -0.71177,-1.35061 -1.89638,-2.54276 1.18712,-1.1494 1.89638,-2.45724 z"
       id="path1221" />
  </g>
</svg>
