<?xml version="1.0" encoding="UTF-8" standalone="no"?>
<!-- Created with Inkscape (http://www.inkscape.org/) -->

<svg
   width="0.23622069in"
   height="0.51181096in"
   viewBox="0 0 6.0000055 12.999998"
   version="1.1"
   id="svg1"
   xmlns="http://www.w3.org/2000/svg"
   xmlns:svg="http://www.w3.org/2000/svg">
  <defs
     id="defs1" />
  <g
     id="layer15"
     transform="translate(-92.000002,126)">
    <path
       id="rect1047"
       style="display:inline;fill:#ffffff;stroke-width:0.176388"
       d="m 92,-126 h 6.000001 v 13 H 92 Z" />
  </g>
  <g
     id="layer3"
     style="display:inline"
     transform="translate(-92.000002,126)">
    <path
       d="m 95.903648,-122.44059 q 0.366644,0.20739 0.544411,0.52589 0.177767,0.3148 0.177767,0.64811 0,0.58515 -0.474045,1.00364 -0.474045,0.41479 -1.151781,0.41479 -0.685143,0 -1.159188,-0.41108 -0.470342,-0.41479 -0.470342,-1.00735 0,-0.71477 0.688847,-1.174 -0.292575,-0.25554 -0.4259,-0.50367 -0.133325,-0.24814 -0.133325,-0.58145 0,-0.54441 0.440714,-0.94809 0.444417,-0.40368 1.04438,-0.40368 0.599963,0 1.044381,0.39998 0.444417,0.39997 0.444417,0.93698 0,0.62588 -0.570336,1.09993 z m -0.107401,-1.07031 q 0,-0.33331 -0.237022,-0.56663 -0.237023,-0.23702 -0.574039,-0.23702 -0.333313,0 -0.574039,0.23702 -0.237022,0.23332 -0.237022,0.56663 0,0.33332 0.237022,0.57034 0.240726,0.23332 0.574039,0.23332 0.337016,0 0.574039,-0.23332 0.237022,-0.23702 0.237022,-0.57034 z m 0.151843,2.2295 q 0,-0.35554 -0.288871,-0.61108 -0.285168,-0.25554 -0.688847,-0.25554 -0.392568,0 -0.659219,0.25554 -0.26665,0.25184 -0.26665,0.62589 0,0.36665 0.277761,0.61107 0.281464,0.24443 0.699957,0.24443 0.388865,0 0.655515,-0.25183 0.270354,-0.25184 0.270354,-0.61848 z"
       id="text1101"
       style="font-size:7.58472px;line-height:8.89744px;font-family:'Tw Cen MT';-inkscape-font-specification:'Tw Cen MT';text-align:center;letter-spacing:0px;word-spacing:0px;text-anchor:middle;fill:#ff0000;stroke-width:0.176389"
       aria-label="8" />
  </g>
  <g
     id="layer9"
     style="display:inline"
     transform="translate(-92.000002,126)">
    <path
       style="font-size:4.5861px;line-height:5.37985px;font-family:'Yu Gothic';-inkscape-font-specification:'Yu Gothic';text-align:center;letter-spacing:0px;word-spacing:0px;text-anchor:middle;fill:#ff0000;stroke-width:0.176389"
       d="m 95,-118.99999 q 0.70423,1.30281 1.88883,2.45724 -1.17203,1.17958 -1.88883,2.54276 -0.71177,-1.35061 -1.896379,-2.54276 1.187129,-1.1494 1.896379,-2.45724 z"
       id="path1219" />
  </g>
</svg>
