<?xml version="1.0" encoding="UTF-8" standalone="no"?>
<!-- Created with Inkscape (http://www.inkscape.org/) -->

<svg
   width="0.23622036in"
   height="0.51181096in"
   viewBox="0 0 5.9999971 12.999998"
   version="1.1"
   id="svg1"
   xmlns="http://www.w3.org/2000/svg"
   xmlns:svg="http://www.w3.org/2000/svg">
  <defs
     id="defs1" />
  <g
     id="layer15"
     transform="translate(-68,126)">
    <path
       id="rect1043"
       style="display:inline;fill:#ffffff;stroke-width:0.176388"
       d="m 68,-126 h 6.000001 v 13 H 68 Z" />
  </g>
  <g
     id="layer3"
     style="display:inline"
     transform="translate(-68,126)">
    <path
       d="m 72.7573,-120.51478 0.740695,0.80365 h -0.840689 l -0.418493,-0.44071 q -0.670329,0.31109 -1.273996,0.31109 -1.085119,0 -1.844331,-0.7444 -0.75551,-0.7444 -0.75551,-1.80359 0,-1.02216 0.76662,-1.75175 0.76662,-0.72958 1.848035,-0.72958 1.062898,0 1.829517,0.72588 0.76662,0.72588 0.76662,1.73323 0,1.14067 -0.818468,1.89618 z m -0.996236,-0.15925 -1.036973,-1.10734 h 0.840689 l 0.729585,0.77402 q 0.59626,-0.57403 0.59626,-1.35917 0,-0.78144 -0.559225,-1.31103 -0.559225,-0.5333 -1.388804,-0.5333 -0.78884,0 -1.344362,0.5407 -0.551818,0.54071 -0.551818,1.31104 0,0.77032 0.566632,1.30732 0.566632,0.53701 1.381397,0.53701 0.34072,0 0.766619,-0.15925 z"
       id="text1097"
       style="font-size:7.58472px;line-height:8.89744px;font-family:'Tw Cen MT';-inkscape-font-specification:'Tw Cen MT';text-align:center;letter-spacing:0px;word-spacing:0px;text-anchor:middle;fill:#ff0000;stroke-width:0.176389"
       aria-label="Q" />
  </g>
  <g
     id="layer9"
     style="display:inline"
     transform="translate(-68,126)">
    <path
       style="font-size:4.5861px;line-height:5.37985px;font-family:'Yu Gothic';-inkscape-font-specification:'Yu Gothic';text-align:center;letter-spacing:0px;word-spacing:0px;text-anchor:middle;fill:#ff0000;stroke-width:0.176389"
       d="m 71.000001,-118.99999 q 0.704225,1.30281 1.888833,2.45724 -1.172033,1.17958 -1.888833,2.54276 -0.711771,-1.35061 -1.89638,-2.54276 1.187124,-1.1494 1.89638,-2.45724 z"
       id="path1215" />
  </g>
</svg>
