<?xml version="1.0" encoding="UTF-8" standalone="no"?>
<!-- Created with Inkscape (http://www.inkscape.org/) -->

<svg
   width="0.23622069in"
   height="0.51181096in"
   viewBox="0 0 6.0000055 12.999998"
   version="1.1"
   id="svg1"
   xmlns="http://www.w3.org/2000/svg"
   xmlns:svg="http://www.w3.org/2000/svg">
  <defs
     id="defs1" />
  <g
     id="layer15"
     transform="translate(-122,92.999999)">
    <path
       id="rect1080"
       style="display:inline;fill:#ffffff;stroke-width:0.176388"
       d="m 122,-93 h 6 v 13 h -6 z" />
  </g>
  <g
     id="layer3"
     style="display:inline"
     transform="translate(-122,92.999999)">
    <path
       d="m 124.18894,-90.655331 h -0.68885 q 0.0667,-0.59626 0.46664,-0.907352 0.40368,-0.314796 0.97401,-0.314796 0.65552,0 1.08512,0.374051 0.42961,0.374052 0.42961,0.93698 0,0.699957 -0.71107,1.070305 0.83328,0.429603 0.83328,1.185112 0,0.592557 -0.45553,1.029567 -0.45182,0.433307 -1.074,0.433307 -0.62589,0 -1.08512,-0.311092 -0.45553,-0.314796 -0.59997,-0.992532 h 0.70366 q 0.22962,0.733288 0.94069,0.733288 0.36294,0 0.63329,-0.248133 0.27036,-0.251836 0.27036,-0.585149 0,-0.348127 -0.24814,-0.636998 -0.24813,-0.292575 -0.81476,-0.303685 v -0.585149 q 0.4333,-0.0074 0.67773,-0.211099 0.24814,-0.207394 0.24814,-0.529597 0,-0.329609 -0.22962,-0.559225 -0.22961,-0.229615 -0.55922,-0.229615 -0.3111,0 -0.49627,0.155546 -0.18517,0.155546 -0.29998,0.496266 z"
       id="text1136"
       style="font-size:7.58472px;line-height:8.89744px;font-family:'Tw Cen MT';-inkscape-font-specification:'Tw Cen MT';text-align:center;letter-spacing:0px;word-spacing:0px;text-anchor:middle;fill:#800000;stroke-width:0.176389"
       aria-label="3" />
  </g>
  <g
     id="layer7"
     style="display:inline"
     transform="translate(-122,92.999999)">
    <path
       style="font-size:4.5861px;line-height:5.37985px;font-family:'Yu Gothic';-inkscape-font-specification:'Yu Gothic';text-align:center;letter-spacing:0px;word-spacing:0px;text-anchor:middle;fill:#800000;stroke-width:0.176389"
       d="m 125,-80.99999 q -0.60093,-0.64469 -1.0881,-1.26021 -0.56009,-0.70012 -0.82847,-1.14061 -0.2888,-0.46674 -0.38506,-0.77013 -0.0875,-0.27713 -0.0875,-0.62135 0,-0.59218 0.41132,-0.93641 0.32088,-0.27129 0.74095,-0.27129 0.4084,0 0.71471,0.21587 0.26254,0.18378 0.41423,0.50175 0.0525,0.13127 0.10793,0.13127 0.0554,0 0.10793,-0.13127 0.17503,-0.36465 0.49008,-0.55134 0.28297,-0.16628 0.63886,-0.16628 0.49008,0 0.82847,0.35297 0.3238,0.33548 0.3238,0.85473 0,0.3909 -0.11668,0.70595 -0.0992,0.27421 -0.35589,0.68553 -0.26255,0.43174 -0.82264,1.14061 -0.52509,0.65052 -1.09393,1.26021 z"
       id="path1192" />
  </g>
</svg>
