<?xml version="1.0" encoding="UTF-8" standalone="no"?>
<!-- Created with Inkscape (http://www.inkscape.org/) -->

<svg
   width="0.23622069in"
   height="0.51181096in"
   viewBox="0 0 6.0000055 12.999998"
   version="1.1"
   id="svg1"
   xmlns="http://www.w3.org/2000/svg"
   xmlns:svg="http://www.w3.org/2000/svg">
  <defs
     id="defs1" />
  <g
     id="layer15"
     transform="translate(-110,92.999999)">
    <path
       id="rect1078"
       style="display:inline;fill:#ffffff;stroke-width:0.176388"
       d="m 110,-93 h 6 v 13 h -6 z" />
  </g>
  <g
     id="layer3"
     style="display:inline"
     transform="translate(-110,92.999999)">
    <path
       d="m 112.40004,-91.725636 h 2.12579 v 0.636998 h -1.62953 l -0.25183,0.903648 q 0.28146,-0.02963 0.3259,-0.02963 0.62219,0 1.08512,0.496266 0.46294,0.496266 0.46294,1.162892 0,0.714771 -0.5296,1.211037 -0.5259,0.496266 -1.28511,0.496266 -0.96661,0 -1.56287,-0.84069 l 0.57775,-0.366644 q 0.4259,0.533301 1.01105,0.533301 0.48145,0 0.79624,-0.299982 0.3185,-0.303685 0.3185,-0.762916 0,-0.444417 -0.32961,-0.748102 -0.3259,-0.307389 -0.80365,-0.307389 -0.28517,0 -0.49627,0.103698 -0.2111,0.09999 -0.46664,0.322202 z"
       id="text1134"
       style="font-size:7.58472px;line-height:8.89744px;font-family:'Tw Cen MT';-inkscape-font-specification:'Tw Cen MT';text-align:center;letter-spacing:0px;word-spacing:0px;text-anchor:middle;fill:#800000;stroke-width:0.176389"
       aria-label="5" />
  </g>
  <g
     id="layer7"
     style="display:inline"
     transform="translate(-110,92.999999)">
    <path
       style="font-size:4.5861px;line-height:5.37985px;font-family:'Yu Gothic';-inkscape-font-specification:'Yu Gothic';text-align:center;letter-spacing:0px;word-spacing:0px;text-anchor:middle;fill:#800000;stroke-width:0.176389"
       d="m 113,-80.99999 q -0.60093,-0.64469 -1.0881,-1.26021 -0.56009,-0.70012 -0.82847,-1.14061 -0.2888,-0.46674 -0.38506,-0.77013 -0.0875,-0.27713 -0.0875,-0.62135 0,-0.59218 0.41132,-0.93641 0.32088,-0.27129 0.74095,-0.27129 0.4084,0 0.71471,0.21587 0.26254,0.18378 0.41423,0.50175 0.0525,0.13127 0.10793,0.13127 0.0554,0 0.10793,-0.13127 0.17503,-0.36465 0.49008,-0.55134 0.28297,-0.16628 0.63886,-0.16628 0.49008,0 0.82847,0.35297 0.3238,0.33548 0.3238,0.85473 0,0.3909 -0.11668,0.70595 -0.0992,0.27421 -0.35589,0.68553 -0.26255,0.43174 -0.82264,1.14061 -0.52509,0.65052 -1.09393,1.26021 z"
       id="path1188" />
  </g>
</svg>
