<?xml version="1.0" encoding="UTF-8" standalone="no"?>
<!-- Created with Inkscape (http://www.inkscape.org/) -->

<svg
   width="0.23622069in"
   height="0.51181096in"
   viewBox="0 0 6.0000055 12.999998"
   version="1.1"
   id="svg1"
   xmlns="http://www.w3.org/2000/svg"
   xmlns:svg="http://www.w3.org/2000/svg">
  <defs
     id="defs1" />
  <g
     id="layer15"
     transform="translate(-92.000002,92.999999)">
    <path
       id="rect1075"
       style="display:inline;fill:#ffffff;stroke-width:0.176388"
       d="m 92,-93 h 6.000001 v 13 H 92 Z" />
  </g>
  <g
     id="layer3"
     style="display:inline"
     transform="translate(-92.000002,92.999999)">
    <path
       d="m 95.903648,-89.440591 q 0.366644,0.207395 0.544411,0.525894 0.177767,0.314795 0.177767,0.648108 0,0.585149 -0.474045,1.003642 -0.474045,0.41479 -1.151781,0.41479 -0.685143,0 -1.159188,-0.411086 -0.470342,-0.41479 -0.470342,-1.007346 0,-0.714771 0.688847,-1.174002 -0.292575,-0.25554 -0.4259,-0.503673 -0.133325,-0.248133 -0.133325,-0.581446 0,-0.544411 0.440714,-0.94809 0.444417,-0.403679 1.04438,-0.403679 0.599963,0 1.044381,0.399976 0.444417,0.399975 0.444417,0.936979 0,0.625888 -0.570336,1.099933 z m -0.107401,-1.070305 q 0,-0.333313 -0.237022,-0.566632 -0.237023,-0.237022 -0.574039,-0.237022 -0.333313,0 -0.574039,0.237022 -0.237022,0.233319 -0.237022,0.566632 0,0.333313 0.237022,0.570336 0.240726,0.233319 0.574039,0.233319 0.337016,0 0.574039,-0.233319 0.237022,-0.237023 0.237022,-0.570336 z m 0.151843,2.229493 q 0,-0.355534 -0.288871,-0.611074 -0.285168,-0.255539 -0.688847,-0.255539 -0.392568,0 -0.659219,0.255539 -0.26665,0.251837 -0.26665,0.625888 0,0.366644 0.277761,0.611074 0.281464,0.244429 0.699957,0.244429 0.388865,0 0.655515,-0.251836 0.270354,-0.251837 0.270354,-0.618481 z"
       id="text1131"
       style="font-size:7.58472px;line-height:8.89744px;font-family:'Tw Cen MT';-inkscape-font-specification:'Tw Cen MT';text-align:center;letter-spacing:0px;word-spacing:0px;text-anchor:middle;fill:#800000;stroke-width:0.176389"
       aria-label="8" />
  </g>
  <g
     id="layer7"
     style="display:inline"
     transform="translate(-92.000002,92.999999)">
    <path
       style="font-size:4.5861px;line-height:5.37985px;font-family:'Yu Gothic';-inkscape-font-specification:'Yu Gothic';text-align:center;letter-spacing:0px;word-spacing:0px;text-anchor:middle;fill:#800000;stroke-width:0.176389"
       d="m 95,-80.99999 q -0.60093,-0.64469 -1.088096,-1.26021 -0.560093,-0.70012 -0.828473,-1.14061 -0.288797,-0.46674 -0.385063,-0.77013 -0.08752,-0.27713 -0.08752,-0.62135 0,-0.59218 0.411319,-0.93641 0.320887,-0.27129 0.740956,-0.27129 0.408407,0 0.714707,0.21587 0.26254,0.18378 0.41423,0.50175 0.0525,0.13127 0.10793,0.13127 0.0554,0 0.10793,-0.13127 0.17503,-0.36465 0.49008,-0.55134 0.28297,-0.16628 0.63886,-0.16628 0.49008,0 0.82847,0.35297 0.3238,0.33548 0.3238,0.85473 0,0.3909 -0.11668,0.70595 -0.0992,0.27421 -0.35589,0.68553 -0.26255,0.43174 -0.82264,1.14061 -0.52509,0.65052 -1.09393,1.26021 z"
       id="path1185" />
  </g>
</svg>
