<?xml version="1.0" encoding="UTF-8" standalone="no"?>
<!-- Created with Inkscape (http://www.inkscape.org/) -->

<svg
   width="0.23622069in"
   height="0.51181096in"
   viewBox="0 0 6.0000055 12.999998"
   version="1.1"
   id="svg1"
   xmlns="http://www.w3.org/2000/svg"
   xmlns:svg="http://www.w3.org/2000/svg">
  <defs
     id="defs1" />
  <g
     id="layer15"
     transform="translate(-86.000002,92.999999)">
    <path
       id="rect1074"
       style="display:inline;fill:#ffffff;stroke-width:0.176388"
       d="m 86,-93 h 6.000001 v 13 H 86 Z" />
  </g>
  <g
     id="layer3"
     style="display:inline"
     transform="translate(-86.000002,92.999999)">
    <path
       d="m 88.729646,-86.755571 -0.503673,-0.35183 1.040677,-1.507315 q -0.218505,0.02963 -0.333313,0.02963 -0.699957,0 -1.174002,-0.470342 -0.474045,-0.474045 -0.474045,-1.166595 0,-0.670329 0.514784,-1.170298 0.518486,-0.49997 1.207333,-0.49997 0.68144,0 1.192519,0.51108 0.514784,0.507376 0.514784,1.181409 0,0.544411 -0.348127,1.051788 z m 1.318438,-3.399791 q 0,-0.43701 -0.307389,-0.748102 -0.307388,-0.314796 -0.733288,-0.314796 -0.451824,0 -0.755509,0.311092 -0.303685,0.307389 -0.303685,0.76662 0,0.422196 0.322202,0.725881 0.322203,0.299982 0.77773,0.299982 0.418493,0 0.707364,-0.299982 0.292575,-0.303685 0.292575,-0.740695 z"
       id="text1130"
       style="font-size:7.58472px;line-height:8.89744px;font-family:'Tw Cen MT';-inkscape-font-specification:'Tw Cen MT';text-align:center;letter-spacing:0px;word-spacing:0px;text-anchor:middle;fill:#800000;stroke-width:0.176389"
       aria-label="9" />
  </g>
  <g
     id="layer7"
     style="display:inline"
     transform="translate(-86.000002,92.999999)">
    <path
       style="font-size:4.5861px;line-height:5.37985px;font-family:'Yu Gothic';-inkscape-font-specification:'Yu Gothic';text-align:center;letter-spacing:0px;word-spacing:0px;text-anchor:middle;fill:#800000;stroke-width:0.176389"
       d="m 89.000001,-80.99999 q -0.600933,-0.64469 -1.088097,-1.26021 -0.560093,-0.70012 -0.828473,-1.14061 -0.288797,-0.46674 -0.385063,-0.77013 -0.08752,-0.27713 -0.08752,-0.62135 0,-0.59218 0.411319,-0.93641 0.320887,-0.27129 0.740956,-0.27129 0.408402,0 0.714703,0.21587 0.262544,0.18378 0.414236,0.50175 0.05251,0.13127 0.107929,0.13127 0.05543,0 0.107929,-0.13127 0.17503,-0.36465 0.490082,-0.55134 0.282964,-0.16628 0.638856,-0.16628 0.490083,0 0.828472,0.35297 0.323804,0.33548 0.323804,0.85473 0,0.3909 -0.116684,0.70595 -0.09919,0.27421 -0.355893,0.68553 -0.262543,0.43174 -0.822636,1.14061 -0.525088,0.65052 -1.093933,1.26021 z"
       id="path1184" />
  </g>
</svg>
