<?xml version="1.0" encoding="UTF-8" standalone="no"?>
<!-- Created with Inkscape (http://www.inkscape.org/) -->

<svg
   width="0.23622036in"
   height="0.51181096in"
   viewBox="0 0 5.9999971 12.999998"
   version="1.1"
   id="svg1"
   xmlns="http://www.w3.org/2000/svg"
   xmlns:svg="http://www.w3.org/2000/svg">
  <defs
     id="defs1" />
  <g
     id="layer15"
     transform="translate(-80.000001,92.999999)">
    <path
       id="rect1073"
       style="display:inline;fill:#ffffff;stroke-width:0.176388"
       d="m 80,-93 h 6.000001 v 13 H 80 Z" />
  </g>
  <g
     id="layer3"
     style="display:inline"
     transform="translate(-80.000001,92.999999)">
    <path
       d="m 80.561261,-91.718229 h 0.636998 V -87 h -0.636998 z m 3.29239,-0.15925 q 0.77773,0 1.262886,0.699957 0.488859,0.696254 0.488859,1.811 0,1.155485 -0.525894,1.840628 -0.52219,0.685143 -1.255478,0.685143 -0.762917,0 -1.270293,-0.699957 -0.503673,-0.70366 -0.503673,-1.788779 0,-1.20363 0.518487,-1.873959 0.52219,-0.674033 1.248072,-0.674033 z m 1.077712,2.50355 q 0,-0.79995 -0.314795,-1.314734 -0.314796,-0.514783 -0.792544,-0.514783 -0.492563,0 -0.803655,0.51108 -0.311092,0.507376 -0.311092,1.340658 0,0.825876 0.314796,1.329548 0.314795,0.49997 0.814764,0.49997 0.481452,0 0.785137,-0.51108 0.307389,-0.514783 0.307389,-1.340659 z"
       id="text1129"
       style="font-size:7.58472px;line-height:8.89744px;font-family:'Tw Cen MT';-inkscape-font-specification:'Tw Cen MT';text-align:center;letter-spacing:0px;word-spacing:0px;text-anchor:middle;fill:#800000;stroke-width:0.176389"
       aria-label="I0" />
  </g>
  <g
     id="layer7"
     style="display:inline"
     transform="translate(-80.000001,92.999999)">
    <path
       style="font-size:4.5861px;line-height:5.37985px;font-family:'Yu Gothic';-inkscape-font-specification:'Yu Gothic';text-align:center;letter-spacing:0px;word-spacing:0px;text-anchor:middle;fill:#800000;stroke-width:0.176389"
       d="m 83.000001,-80.99999 q -0.600933,-0.64469 -1.088097,-1.26021 -0.560093,-0.70012 -0.828473,-1.14061 -0.288797,-0.46674 -0.385063,-0.77013 -0.08752,-0.27713 -0.08752,-0.62135 0,-0.59218 0.411319,-0.93641 0.320887,-0.27129 0.740956,-0.27129 0.408402,0 0.714703,0.21587 0.262544,0.18378 0.414236,0.50175 0.05251,0.13127 0.107929,0.13127 0.05543,0 0.107929,-0.13127 0.17503,-0.36465 0.490082,-0.55134 0.282964,-0.16628 0.638856,-0.16628 0.490083,0 0.828472,0.35297 0.323804,0.33548 0.323804,0.85473 0,0.3909 -0.116684,0.70595 -0.09919,0.27421 -0.355893,0.68553 -0.262543,0.43174 -0.822636,1.14061 -0.525088,0.65052 -1.093933,1.26021 z"
       id="path1181" />
  </g>
</svg>
