<?xml version="1.0" encoding="UTF-8" standalone="no"?>
<!-- Created with Inkscape (http://www.inkscape.org/) -->

<svg
   width="0.23622036in"
   height="0.51181096in"
   viewBox="0 0 5.9999971 12.999998"
   version="1.1"
   id="svg1"
   xmlns="http://www.w3.org/2000/svg"
   xmlns:svg="http://www.w3.org/2000/svg">
  <defs
     id="defs1" />
  <g
     id="layer15"
     transform="translate(-68,92.999999)">
    <path
       id="rect1071"
       style="display:inline;fill:#ffffff;stroke-width:0.176388"
       d="m 68,-93 h 6.000001 v 13 H 68 Z" />
  </g>
  <g
     id="layer3"
     style="display:inline"
     transform="translate(-68,92.999999)">
    <path
       d="m 72.7573,-87.514783 0.740695,0.803654 h -0.840689 l -0.418493,-0.440714 q -0.670329,0.311092 -1.273996,0.311092 -1.085119,0 -1.844331,-0.744398 -0.75551,-0.744399 -0.75551,-1.803593 0,-1.02216 0.76662,-1.751745 0.76662,-0.729585 1.848035,-0.729585 1.062898,0 1.829517,0.725882 0.76662,0.725881 0.76662,1.733227 0,1.140671 -0.818468,1.89618 z m -0.996236,-0.15925 -1.036973,-1.107339 h 0.840689 l 0.729585,0.774026 q 0.59626,-0.574039 0.59626,-1.359176 0,-0.781433 -0.559225,-1.31103 -0.559225,-0.533301 -1.388804,-0.533301 -0.78884,0 -1.344362,0.540708 -0.551818,0.540707 -0.551818,1.31103 0,0.770324 0.566632,1.307328 0.566632,0.537004 1.381397,0.537004 0.34072,0 0.766619,-0.15925 z"
       id="text1127"
       style="font-size:7.58472px;line-height:8.89744px;font-family:'Tw Cen MT';-inkscape-font-specification:'Tw Cen MT';text-align:center;letter-spacing:0px;word-spacing:0px;text-anchor:middle;fill:#800000;stroke-width:0.176389"
       aria-label="Q" />
  </g>
  <g
     id="layer7"
     style="display:inline"
     transform="translate(-68,92.999999)">
    <path
       style="font-size:4.5861px;line-height:5.37985px;font-family:'Yu Gothic';-inkscape-font-specification:'Yu Gothic';text-align:center;letter-spacing:0px;word-spacing:0px;text-anchor:middle;fill:#800000;stroke-width:0.176389"
       d="m 71.000001,-80.99999 q -0.600933,-0.64469 -1.088097,-1.26021 -0.560093,-0.70012 -0.828473,-1.14061 -0.288797,-0.46674 -0.385063,-0.77013 -0.08752,-0.27713 -0.08752,-0.62135 0,-0.59218 0.411319,-0.93641 0.320887,-0.27129 0.740956,-0.27129 0.408402,0 0.714703,0.21587 0.262544,0.18378 0.414236,0.50175 0.05251,0.13127 0.107929,0.13127 0.05543,0 0.107929,-0.13127 0.17503,-0.36465 0.490082,-0.55134 0.282964,-0.16628 0.638856,-0.16628 0.490083,0 0.828472,0.35297 0.323804,0.33548 0.323804,0.85473 0,0.3909 -0.116684,0.70595 -0.09919,0.27421 -0.355893,0.68553 -0.262543,0.43174 -0.822636,1.14061 -0.525088,0.65052 -1.093933,1.26021 z"
       id="path1179" />
  </g>
</svg>
