<?xml version="1.0" encoding="UTF-8" standalone="no"?>
<!-- Created with Inkscape (http://www.inkscape.org/) -->

<svg
   width="0.23622052in"
   height="0.51181096in"
   viewBox="0 0 6.0000013 12.999998"
   version="1.1"
   id="svg1"
   xmlns="http://www.w3.org/2000/svg"
   xmlns:svg="http://www.w3.org/2000/svg">
  <defs
     id="defs1" />
  <g
     id="layer15"
     transform="translate(-56.000003,92.999999)">
    <path
       id="rect1069"
       style="display:inline;fill:#ffffff;stroke-width:0.176388"
       d="m 56,-93 h 6.000001 v 13 H 56 Z" />
  </g>
  <g
     id="layer3"
     style="display:inline"
     transform="translate(-56.000003,92.999999)">
    <path
       d="M 58.961113,-91.8997 61.190606,-87 h -0.674032 l -0.551818,-1.207333 H 57.961175 L 57.424171,-87 h -0.67033 z m 0,1.477688 -0.759212,1.677675 h 1.518425 z"
       id="text1125"
       style="font-size:7.58472px;line-height:8.89744px;font-family:'Tw Cen MT';-inkscape-font-specification:'Tw Cen MT';text-align:center;letter-spacing:0px;word-spacing:0px;text-anchor:middle;fill:#800000;stroke-width:0.176389"
       aria-label="A" />
  </g>
  <g
     id="layer7"
     style="display:inline"
     transform="translate(-56.000003,92.999999)">
    <path
       style="font-size:4.5861px;line-height:5.37985px;font-family:'Yu Gothic';-inkscape-font-specification:'Yu Gothic';text-align:center;letter-spacing:0px;word-spacing:0px;text-anchor:middle;fill:#800000;stroke-width:0.176389"
       d="m 59.000001,-80.99999 q -0.600933,-0.64469 -1.088097,-1.26021 -0.560093,-0.70012 -0.828473,-1.14061 -0.288797,-0.46674 -0.385063,-0.77013 -0.08752,-0.27713 -0.08752,-0.62135 0,-0.59218 0.411319,-0.93641 0.320887,-0.27129 0.740956,-0.27129 0.408402,0 0.714703,0.21587 0.262544,0.18378 0.414236,0.50175 0.05251,0.13127 0.107929,0.13127 0.05543,0 0.107929,-0.13127 0.17503,-0.36465 0.490082,-0.55134 0.282964,-0.16628 0.638856,-0.16628 0.490083,0 0.828472,0.35297 0.323804,0.33548 0.323804,0.85473 0,0.3909 -0.116684,0.70595 -0.09919,0.27421 -0.355893,0.68553 -0.262543,0.43174 -0.822636,1.14061 -0.525088,0.65052 -1.093933,1.26021 z"
       id="path1177" />
  </g>
</svg>
