<?xml version="1.0" encoding="UTF-8" standalone="no"?>
<!-- Created with Inkscape (http://www.inkscape.org/) -->

<svg
   width="0.23622069in"
   height="0.51181096in"
   viewBox="0 0 6.0000055 12.999998"
   version="1.1"
   id="svg1"
   inkscape:version="1.4 (86a8ad7, 2024-10-11)"
   sodipodi:docname="heptiamonds-pieces-vector.svg"
   xmlns:inkscape="http://www.inkscape.org/namespaces/inkscape"
   xmlns:sodipodi="http://sodipodi.sourceforge.net/DTD/sodipodi-0.dtd"
   xmlns="http://www.w3.org/2000/svg"
   xmlns:svg="http://www.w3.org/2000/svg">
  <sodipodi:namedview
     id="namedview1"
     pagecolor="#ffffff"
     bordercolor="#cccccc"
     borderopacity="1"
     inkscape:showpageshadow="0"
     inkscape:pageopacity="1"
     inkscape:pagecheckerboard="0"
     inkscape:deskcolor="#d1d1d1"
     inkscape:document-units="mm"
     showgrid="true"
     inkscape:zoom="5.1331977"
     inkscape:cx="577.51526"
     inkscape:cy="-497.54562"
     inkscape:window-width="2560"
     inkscape:window-height="1494"
     inkscape:window-x="-11"
     inkscape:window-y="-11"
     inkscape:window-maximized="1"
     inkscape:current-layer="layer3"
     showguides="true">
    <inkscape:grid
       id="grid1"
       units="mm"
       originx="-146"
       originy="92.999999"
       spacingx="1"
       spacingy="1"
       empcolor="#0099e5"
       empopacity="0.30196078"
       color="#0099e5"
       opacity="0.14901961"
       empspacing="4"
       enabled="true"
       visible="true" />
    <sodipodi:guide
       position="92.716347,-229.57591"
       orientation="1,0"
       id="guide446"
       inkscape:locked="false" />
    <sodipodi:guide
       position="95.333237,-230.23891"
       orientation="1,0"
       id="guide447"
       inkscape:locked="false" />
    <sodipodi:guide
       position="142.71324,-213.58403"
       orientation="1,0"
       id="guide448"
       inkscape:locked="false" />
    <sodipodi:guide
       position="145.31774,-213.95948"
       orientation="1,0"
       id="guide449"
       inkscape:locked="false" />
    <inkscape:page
       x="-1.8399147e-13"
       y="0"
       width="6.0000052"
       height="12.999998"
       id="page2"
       margin="0"
       bleed="0" />
  </sodipodi:namedview>
  <defs
     id="defs1" />
  <g
     inkscape:groupmode="layer"
     id="layer5"
     inkscape:label="Temp"
     style="display:inline"
     transform="translate(-146,92.999999)">
    <rect
       style="fill:#ffffff;stroke:none;stroke-width:0.176388"
       id="rect316"
       width="6.000001"
       height="13"
       x="146"
       y="-93"
       inkscape:export-filename="cards\joker-burgundy.svg"
       inkscape:export-xdpi="96"
       inkscape:export-ydpi="96" />
  </g>
  <g
     inkscape:groupmode="layer"
     id="layer3"
     inkscape:label="Text"
     style="display:inline"
     transform="translate(-146,92.999999)">
    <path
       id="path373"
       style="font-size:7.58473px;line-height:8.89744px;font-family:'Playing Cards';-inkscape-font-specification:'Playing Cards';text-align:center;letter-spacing:0px;word-spacing:0px;text-anchor:middle;fill:#800000;fill-opacity:1;stroke-width:0.176389"
       d="m 149.16011,-88.826771 q 0.0364,0.33479 0.24745,0.33479 0.13829,0 0.24745,-0.16012 0.11646,-0.16739 0.13101,-0.45123 -0.0437,0.16739 -0.14556,0.23289 -0.0946,0.0655 -0.24745,0.0655 -0.0873,0 -0.2329,-0.0218 z m -0.25472,0 q -0.14557,0.0218 -0.2329,0.0218 -0.15284,0 -0.25473,-0.0655 -0.0946,-0.0655 -0.13829,-0.2329 0.0146,0.27657 0.13101,0.44396 0.11645,0.1674 0.24745,0.1674 0.21106,0 0.24746,-0.33479 z m 0.60407,0.57496 q -0.2329,0.40757 -0.4949,0.40757 -0.25474,0 -0.48035,-0.39301 0.0727,0.34207 0.1965,0.53129 0.13101,0.18195 0.28385,0.18195 0.13828,0 0.26928,-0.18195 0.13828,-0.18922 0.22562,-0.54585 z M 149,-87.101881 q -0.14557,-0.17467 -0.29841,-0.40029 -0.14555,-0.22562 -0.27656,-0.47307 -0.131,-0.24746 -0.21106,-0.48035 -0.08,-0.2329 -0.08,-0.41485 0,-0.21106 0.11644,-0.32751 0.12373,-0.11645 0.37846,-0.11645 0.17467,0 0.40756,0.0582 0.2329,-0.0582 0.40758,-0.0582 0.25472,0 0.37117,0.11645 0.11645,0.10917 0.11645,0.31295 0,0.18196 -0.0873,0.42213 -0.0873,0.2329 -0.22562,0.48035 -0.13829,0.24745 -0.30568,0.48035 -0.16011,0.22562 -0.31295,0.40029 z m 0,0.10189 q 0.53129,-0.57496 0.78602,-1.07714 0.25473,-0.50219 0.25473,-0.84425 0,-0.29112 -0.16011,-0.40757 0.0728,-0.3639 0.23289,-0.56041 0.16012,-0.20378 0.34206,-0.20378 0.15284,0 0.26201,0.14556 0.11646,0.13828 0.14557,0.40756 -0.21107,0.0509 -0.21107,0.2329 0,0.10189 0.08,0.18195 0.08,0.0728 0.20379,0.0728 0.008,0 0.0437,-0.007 0.0219,0 0.0364,0 0.13828,-0.0291 0.20378,-0.10189 0.0728,-0.0801 0.0728,-0.17467 0,-0.0946 -0.0655,-0.1674 -0.0582,-0.0728 -0.16012,-0.0728 -0.0364,0 -0.0728,0.0146 -0.0219,-0.28384 -0.1965,-0.50218 -0.16739,-0.21834 -0.41484,-0.21834 -0.18924,0 -0.40029,0.16011 -0.2038,0.15284 -0.40758,0.48763 0,-0.0146 0,-0.0364 -0.008,-0.0218 -0.008,-0.0364 0,-0.14556 0.0582,-0.32023 0.0655,-0.18195 0.16739,-0.34207 0.10918,-0.16739 0.24745,-0.26928 0.13828,-0.10917 0.28385,-0.10917 0.20378,0 0.37846,0.20378 -0.0219,0.0437 -0.0219,0.0873 0,0.0801 0.0582,0.14556 0.0655,0.0582 0.15284,0.0582 0.14556,0 0.21107,-0.20378 0.0291,-0.0728 0.0291,-0.13829 0,-0.0946 -0.0582,-0.15283 -0.051,-0.0655 -0.12373,-0.0655 -0.13101,0 -0.18923,0.16011 -0.0873,-0.10917 -0.25473,-0.18195 -0.16739,-0.0801 -0.35662,-0.0801 -0.31296,0 -0.58224,0.24018 -0.26201,0.24017 -0.39302,0.77874 0.0437,-0.34934 0.0437,-0.61863 0,-0.7933 -0.40029,-1.12081 0.17467,-0.0509 0.17467,-0.19651 0,-0.16739 -0.1965,-0.16739 -0.11645,0 -0.26201,0.0728 -0.18195,0.0728 -0.18195,0.20378 0,0.0801 0.0583,0.13829 0.0655,0.0582 0.16738,0.0582 0.0655,0 0.13828,-0.0364 0.0655,0.0218 0.1019,0.25473 0.0437,0.23289 0.0437,0.5604 0,0.22562 -0.0219,0.45124 -0.0219,0.22562 -0.0655,0.39301 -0.10188,-0.53129 -0.35662,-0.77147 -0.24745,-0.24017 -0.55313,-0.24017 -0.18922,0 -0.35662,0.0801 -0.16739,0.0728 -0.25473,0.18195 -0.051,-0.16012 -0.18923,-0.16012 -0.0728,0 -0.131,0.0655 -0.051,0.0582 -0.051,0.15284 0,0.0655 0.0291,0.13828 0.0655,0.20379 0.21833,0.20379 0.08,0 0.13829,-0.0582 0.0655,-0.0655 0.0655,-0.14556 0,-0.0437 -0.0219,-0.0873 0.17467,-0.20379 0.37846,-0.20379 0.14555,0 0.28384,0.10917 0.13828,0.10189 0.24017,0.26929 0.10917,0.16012 0.1674,0.34207 0.0655,0.17467 0.0655,0.32023 0,0.0146 -0.008,0.0364 0,0.0218 0,0.0364 -0.20378,-0.33479 -0.41485,-0.48763 -0.20378,-0.16012 -0.393,-0.16012 -0.24018,0 -0.41485,0.21834 -0.17467,0.21835 -0.19651,0.50219 -0.0364,-0.0146 -0.0728,-0.0146 -0.0946,0 -0.16011,0.0728 -0.0655,0.0728 -0.0655,0.16739 0,0.0946 0.0655,0.17468 0.0728,0.0728 0.21106,0.10189 0.0219,0 0.0437,0 0.0291,0.007 0.0364,0.007 0.12373,0 0.20378,-0.0728 0.08,-0.0801 0.08,-0.18195 0,-0.18195 -0.21106,-0.2329 0.0291,-0.26928 0.13829,-0.40757 0.11644,-0.14556 0.26928,-0.14556 0.18195,0 0.34206,0.20379 0.16012,0.1965 0.23291,0.5604 -0.16013,0.11645 -0.16013,0.40757 0,0.34935 0.25474,0.85153 0.25472,0.4949 0.77147,1.06987 z" />
  </g>
</svg>
