<?xml version="1.0" encoding="UTF-8" standalone="no"?>
<!-- Created with Inkscape (http://www.inkscape.org/) -->

<svg
   width="0.23622036in"
   height="0.51181096in"
   viewBox="0 0 5.9999971 12.999998"
   version="1.1"
   id="svg1"
   inkscape:version="1.4 (86a8ad7, 2024-10-11)"
   sodipodi:docname="heptiamonds-pieces-vector.svg"
   xmlns:inkscape="http://www.inkscape.org/namespaces/inkscape"
   xmlns:sodipodi="http://sodipodi.sourceforge.net/DTD/sodipodi-0.dtd"
   xmlns="http://www.w3.org/2000/svg"
   xmlns:svg="http://www.w3.org/2000/svg">
  <sodipodi:namedview
     id="namedview1"
     pagecolor="#ffffff"
     bordercolor="#cccccc"
     borderopacity="1"
     inkscape:showpageshadow="0"
     inkscape:pageopacity="1"
     inkscape:pagecheckerboard="0"
     inkscape:deskcolor="#d1d1d1"
     inkscape:document-units="mm"
     showgrid="true"
     inkscape:zoom="5.1331977"
     inkscape:cx="577.51526"
     inkscape:cy="-497.54562"
     inkscape:window-width="2560"
     inkscape:window-height="1494"
     inkscape:window-x="-11"
     inkscape:window-y="-11"
     inkscape:window-maximized="1"
     inkscape:current-layer="layer3"
     showguides="true">
    <inkscape:grid
       id="grid1"
       units="mm"
       originx="-134"
       originy="116"
       spacingx="1"
       spacingy="1"
       empcolor="#0099e5"
       empopacity="0.30196078"
       color="#0099e5"
       opacity="0.14901961"
       empspacing="4"
       enabled="true"
       visible="true" />
    <sodipodi:guide
       position="104.71635,-252.57591"
       orientation="1,0"
       id="guide446"
       inkscape:locked="false" />
    <sodipodi:guide
       position="107.33324,-253.23891"
       orientation="1,0"
       id="guide447"
       inkscape:locked="false" />
    <sodipodi:guide
       position="154.71324,-236.58403"
       orientation="1,0"
       id="guide448"
       inkscape:locked="false" />
    <sodipodi:guide
       position="157.31774,-236.95948"
       orientation="1,0"
       id="guide449"
       inkscape:locked="false" />
    <inkscape:page
       x="0"
       y="0"
       width="5.9999971"
       height="12.999998"
       id="page2"
       margin="0"
       bleed="0" />
  </sodipodi:namedview>
  <defs
     id="defs1" />
  <g
     inkscape:groupmode="layer"
     id="layer15"
     inkscape:label="Card back"
     transform="translate(-134,116)">
    <path
       id="rect1068"
       style="display:inline;fill:#ffffff;stroke-width:0.176388"
       d="m 134,-116 h 6 v 13 h -6 z"
       inkscape:export-filename="cards\s-joker.svg"
       inkscape:export-xdpi="96"
       inkscape:export-ydpi="96" />
  </g>
  <g
     inkscape:groupmode="layer"
     id="layer3"
     inkscape:label="Text"
     style="display:inline"
     transform="translate(-134,116)">
    <path
       id="path1124"
       style="font-size:7.58473px;line-height:8.89744px;font-family:'Playing Cards';-inkscape-font-specification:'Playing Cards';text-align:center;letter-spacing:0px;word-spacing:0px;text-anchor:middle;fill:#000000;stroke-width:0.176389"
       d="m 137.16011,-111.82677 q 0.0364,0.33478 0.24745,0.33478 0.13829,0 0.24745,-0.16011 0.11646,-0.1674 0.13101,-0.45124 -0.0437,0.1674 -0.14556,0.2329 -0.0946,0.0655 -0.24745,0.0655 -0.0873,0 -0.2329,-0.0218 z m -0.25472,0 q -0.14557,0.0218 -0.2329,0.0218 -0.15284,0 -0.25473,-0.0655 -0.0946,-0.0655 -0.13829,-0.2329 0.0146,0.27656 0.13101,0.44396 0.11645,0.16739 0.24745,0.16739 0.21106,0 0.24746,-0.33479 z m 0.60407,0.57496 q -0.2329,0.40757 -0.4949,0.40757 -0.25474,0 -0.48035,-0.39302 0.0727,0.34207 0.1965,0.5313 0.13101,0.18195 0.28385,0.18195 0.13828,0 0.26928,-0.18195 0.13828,-0.18923 0.22562,-0.54585 z M 137,-110.10189 q -0.14557,-0.17467 -0.29841,-0.40029 -0.14555,-0.22561 -0.27656,-0.47307 -0.131,-0.24745 -0.21106,-0.48034 -0.08,-0.2329 -0.08,-0.41485 0,-0.21106 0.11644,-0.32751 0.12373,-0.11645 0.37846,-0.11645 0.17467,0 0.40756,0.0582 0.2329,-0.0582 0.40758,-0.0582 0.25472,0 0.37117,0.11645 0.11645,0.10917 0.11645,0.31295 0,0.18195 -0.0873,0.42213 -0.0873,0.23289 -0.22562,0.48035 -0.13829,0.24745 -0.30568,0.48034 -0.16011,0.22562 -0.31295,0.40029 z m 0,0.1019 q 0.53129,-0.57497 0.78602,-1.07715 0.25473,-0.50218 0.25473,-0.84425 0,-0.29112 -0.16011,-0.40757 0.0728,-0.3639 0.23289,-0.5604 0.16012,-0.20379 0.34206,-0.20379 0.15284,0 0.26201,0.14556 0.11646,0.13829 0.14557,0.40757 -0.21107,0.0509 -0.21107,0.2329 0,0.10189 0.08,0.18195 0.08,0.0728 0.20379,0.0728 0.008,0 0.0437,-0.007 0.0219,0 0.0364,0 0.13828,-0.0291 0.20378,-0.10189 0.0728,-0.0801 0.0728,-0.17468 0,-0.0946 -0.0655,-0.16739 -0.0582,-0.0728 -0.16012,-0.0728 -0.0364,0 -0.0728,0.0146 -0.0219,-0.28384 -0.1965,-0.50218 -0.16739,-0.21835 -0.41484,-0.21835 -0.18924,0 -0.40029,0.16012 -0.2038,0.15284 -0.40758,0.48763 0,-0.0146 0,-0.0364 -0.008,-0.0218 -0.008,-0.0364 0,-0.14556 0.0582,-0.32023 0.0655,-0.18195 0.16739,-0.34207 0.10918,-0.1674 0.24745,-0.26929 0.13828,-0.10917 0.28385,-0.10917 0.20378,0 0.37846,0.20379 -0.0219,0.0437 -0.0219,0.0873 0,0.0801 0.0582,0.14556 0.0655,0.0582 0.15284,0.0582 0.14556,0 0.21107,-0.20379 0.0291,-0.0728 0.0291,-0.13828 0,-0.0946 -0.0582,-0.15284 -0.051,-0.0655 -0.12373,-0.0655 -0.13101,0 -0.18923,0.16012 -0.0873,-0.10917 -0.25473,-0.18195 -0.16739,-0.0801 -0.35662,-0.0801 -0.31296,0 -0.58224,0.24017 -0.26201,0.24018 -0.39302,0.77875 0.0437,-0.34934 0.0437,-0.61863 0,-0.7933 -0.40029,-1.12081 0.17467,-0.0509 0.17467,-0.19651 0,-0.16739 -0.1965,-0.16739 -0.11645,0 -0.26201,0.0728 -0.18195,0.0728 -0.18195,0.20378 0,0.0801 0.0583,0.13828 0.0655,0.0582 0.16738,0.0582 0.0655,0 0.13828,-0.0364 0.0655,0.0218 0.1019,0.25473 0.0437,0.2329 0.0437,0.56041 0,0.22562 -0.0219,0.45124 -0.0219,0.22561 -0.0655,0.39301 -0.10188,-0.5313 -0.35662,-0.77147 -0.24745,-0.24017 -0.55313,-0.24017 -0.18922,0 -0.35662,0.0801 -0.16739,0.0728 -0.25473,0.18195 -0.051,-0.16012 -0.18923,-0.16012 -0.0728,0 -0.131,0.0655 -0.051,0.0582 -0.051,0.15284 0,0.0655 0.0291,0.13828 0.0655,0.20378 0.21833,0.20378 0.08,0 0.13829,-0.0582 0.0655,-0.0655 0.0655,-0.14556 0,-0.0437 -0.0219,-0.0873 0.17467,-0.20378 0.37846,-0.20378 0.14555,0 0.28384,0.10917 0.13828,0.10189 0.24017,0.26929 0.10917,0.16011 0.1674,0.34206 0.0655,0.17467 0.0655,0.32023 0,0.0146 -0.008,0.0364 0,0.0218 0,0.0364 -0.20378,-0.33478 -0.41485,-0.48762 -0.20378,-0.16012 -0.393,-0.16012 -0.24018,0 -0.41485,0.21834 -0.17467,0.21834 -0.19651,0.50219 -0.0364,-0.0146 -0.0728,-0.0146 -0.0946,0 -0.16011,0.0728 -0.0655,0.0728 -0.0655,0.16739 0,0.0946 0.0655,0.17467 0.0728,0.0728 0.21106,0.10189 0.0219,0 0.0437,0 0.0291,0.007 0.0364,0.007 0.12373,0 0.20378,-0.0728 0.08,-0.0801 0.08,-0.18195 0,-0.18195 -0.21106,-0.23289 0.0291,-0.26929 0.13829,-0.40757 0.11644,-0.14556 0.26928,-0.14556 0.18195,0 0.34206,0.20378 0.16012,0.19651 0.23291,0.56041 -0.16013,0.11645 -0.16013,0.40757 0,0.34934 0.25474,0.85153 0.25472,0.4949 0.77147,1.06986 z" />
  </g>
  <g
     inkscape:groupmode="layer"
     id="layer6"
     inkscape:label="Spades"
     style="display:inline"
     transform="translate(-134,116)">
    <path
       style="font-size:4.5861px;line-height:5.37985px;font-family:'Yu Gothic';-inkscape-font-specification:'Yu Gothic';text-align:center;letter-spacing:0px;word-spacing:0px;text-anchor:middle;fill:#000000;stroke-width:0.176389"
       d="m 137,-108.99999 q 0.3836,0.4127 0.88889,1.01588 0.43651,0.52645 0.709,0.91799 0.25926,0.39153 0.34391,0.62698 0.0794,0.21958 0.0794,0.49206 0,0.48678 -0.30423,0.76191 -0.23809,0.21958 -0.56878,0.21958 -0.30159,0 -0.50265,-0.13228 -0.15608,-0.10317 -0.31481,-0.33333 -0.0608,-0.0926 -0.11112,-0.0926 -0.0529,0 -0.0529,0.0979 0,0.30423 0.0979,0.6455 0.11904,0.4127 0.35714,0.78043 -0.3254,-0.0661 -0.6217,-0.0661 -0.29629,0 -0.62434,0.0661 0.2381,-0.36773 0.35715,-0.78043 0.0979,-0.34392 0.0979,-0.6455 0,-0.0979 -0.0529,-0.0979 -0.0503,0 -0.10847,0.0926 -0.18254,0.2619 -0.36772,0.36508 -0.18254,0.10052 -0.44974,0.10052 -0.3836,0 -0.63492,-0.28571 -0.23809,-0.26985 -0.23809,-0.69577 0,-0.30688 0.10582,-0.56085 0.0873,-0.21164 0.31746,-0.5582 0.23545,-0.34127 0.70899,-0.91799 0.50257,-0.59788 0.88881,-1.01587 z"
       id="path1176" />
  </g>
</svg>
