<?xml version="1.0" encoding="UTF-8" standalone="no"?>
<!-- Created with Inkscape (http://www.inkscape.org/) -->

<svg
   width="0.23622069in"
   height="0.51181096in"
   viewBox="0 0 6.0000055 12.999998"
   version="1.1"
   id="svg1"
   inkscape:version="1.4 (86a8ad7, 2024-10-11)"
   sodipodi:docname="heptiamonds-pieces-vector.svg"
   xmlns:inkscape="http://www.inkscape.org/namespaces/inkscape"
   xmlns:sodipodi="http://sodipodi.sourceforge.net/DTD/sodipodi-0.dtd"
   xmlns="http://www.w3.org/2000/svg"
   xmlns:svg="http://www.w3.org/2000/svg">
  <sodipodi:namedview
     id="namedview1"
     pagecolor="#ffffff"
     bordercolor="#cccccc"
     borderopacity="1"
     inkscape:showpageshadow="0"
     inkscape:pageopacity="1"
     inkscape:pagecheckerboard="0"
     inkscape:deskcolor="#d1d1d1"
     inkscape:document-units="mm"
     showgrid="true"
     inkscape:zoom="5.1331977"
     inkscape:cx="577.51526"
     inkscape:cy="-497.54562"
     inkscape:window-width="2560"
     inkscape:window-height="1494"
     inkscape:window-x="-11"
     inkscape:window-y="-11"
     inkscape:window-maximized="1"
     inkscape:current-layer="layer3"
     showguides="true">
    <inkscape:grid
       id="grid1"
       units="mm"
       originx="-110"
       originy="116"
       spacingx="1"
       spacingy="1"
       empcolor="#0099e5"
       empopacity="0.30196078"
       color="#0099e5"
       opacity="0.14901961"
       empspacing="4"
       enabled="true"
       visible="true" />
    <sodipodi:guide
       position="128.71635,-252.57591"
       orientation="1,0"
       id="guide446"
       inkscape:locked="false" />
    <sodipodi:guide
       position="131.33324,-253.23891"
       orientation="1,0"
       id="guide447"
       inkscape:locked="false" />
    <sodipodi:guide
       position="178.71324,-236.58403"
       orientation="1,0"
       id="guide448"
       inkscape:locked="false" />
    <sodipodi:guide
       position="181.31774,-236.95948"
       orientation="1,0"
       id="guide449"
       inkscape:locked="false" />
    <inkscape:page
       x="-1.3862372e-13"
       y="0"
       width="6.0000052"
       height="12.999998"
       id="page2"
       margin="0"
       bleed="0" />
  </sodipodi:namedview>
  <defs
     id="defs1" />
  <g
     inkscape:groupmode="layer"
     id="layer15"
     inkscape:label="Card back"
     transform="translate(-110,116)">
    <path
       id="rect1064"
       style="display:inline;fill:#ffffff;stroke-width:0.176388"
       d="m 110,-116 h 6 v 13 h -6 z"
       inkscape:export-filename="cards\s05.svg"
       inkscape:export-xdpi="96"
       inkscape:export-ydpi="96" />
  </g>
  <g
     inkscape:groupmode="layer"
     id="layer3"
     inkscape:label="Text"
     style="display:inline"
     transform="translate(-110,116)">
    <path
       d="m 112.40004,-114.72564 h 2.12579 v 0.637 h -1.62953 l -0.25183,0.90365 q 0.28146,-0.0296 0.3259,-0.0296 0.62219,0 1.08512,0.49627 0.46294,0.49626 0.46294,1.16289 0,0.71477 -0.5296,1.21104 -0.5259,0.49626 -1.28511,0.49626 -0.96661,0 -1.56287,-0.84069 l 0.57775,-0.36664 q 0.4259,0.5333 1.01105,0.5333 0.48145,0 0.79624,-0.29998 0.3185,-0.30369 0.3185,-0.76292 0,-0.44442 -0.32961,-0.7481 -0.3259,-0.30739 -0.80365,-0.30739 -0.28517,0 -0.49627,0.1037 -0.2111,0.1 -0.46664,0.3222 z"
       id="text1121"
       style="font-size:7.58472px;line-height:8.89744px;font-family:'Tw Cen MT';-inkscape-font-specification:'Tw Cen MT';text-align:center;letter-spacing:0px;word-spacing:0px;text-anchor:middle;stroke-width:0.176389"
       aria-label="5" />
  </g>
  <g
     inkscape:groupmode="layer"
     id="layer6"
     inkscape:label="Spades"
     style="display:inline"
     transform="translate(-110,116)">
    <path
       style="font-size:4.5861px;line-height:5.37985px;font-family:'Yu Gothic';-inkscape-font-specification:'Yu Gothic';text-align:center;letter-spacing:0px;word-spacing:0px;text-anchor:middle;fill:#000000;stroke-width:0.176389"
       d="m 113,-108.99999 q 0.3836,0.4127 0.88889,1.01588 0.43651,0.52645 0.709,0.91799 0.25926,0.39153 0.34391,0.62698 0.0794,0.21958 0.0794,0.49206 0,0.48678 -0.30423,0.76191 -0.23809,0.21958 -0.56878,0.21958 -0.30159,0 -0.50265,-0.13228 -0.15608,-0.10317 -0.31481,-0.33333 -0.0609,-0.0926 -0.11111,-0.0926 -0.0529,0 -0.0529,0.0979 0,0.30423 0.0979,0.6455 0.11904,0.4127 0.35714,0.78043 -0.3254,-0.0661 -0.6217,-0.0661 -0.29629,0 -0.62433,0.0661 0.23809,-0.36773 0.35714,-0.78043 0.0979,-0.34392 0.0979,-0.6455 0,-0.0979 -0.0529,-0.0979 -0.0503,0 -0.10847,0.0926 -0.18254,0.2619 -0.36772,0.36508 -0.18254,0.10052 -0.44974,0.10052 -0.3836,0 -0.63492,-0.28571 -0.23809,-0.26985 -0.23809,-0.69577 0,-0.30688 0.10582,-0.56085 0.0873,-0.21164 0.31746,-0.5582 0.23545,-0.34127 0.70899,-0.91799 0.50265,-0.59788 0.88889,-1.01587 z"
       id="path1172" />
  </g>
</svg>
