<?xml version="1.0" encoding="UTF-8" standalone="no"?>
<!-- Created with Inkscape (http://www.inkscape.org/) -->

<svg
   width="0.23622069in"
   height="0.51181096in"
   viewBox="0 0 6.0000055 12.999998"
   version="1.1"
   id="svg1"
   inkscape:version="1.4 (86a8ad7, 2024-10-11)"
   sodipodi:docname="heptiamonds-pieces-vector.svg"
   xmlns:inkscape="http://www.inkscape.org/namespaces/inkscape"
   xmlns:sodipodi="http://sodipodi.sourceforge.net/DTD/sodipodi-0.dtd"
   xmlns="http://www.w3.org/2000/svg"
   xmlns:svg="http://www.w3.org/2000/svg">
  <sodipodi:namedview
     id="namedview1"
     pagecolor="#ffffff"
     bordercolor="#cccccc"
     borderopacity="1"
     inkscape:showpageshadow="0"
     inkscape:pageopacity="1"
     inkscape:pagecheckerboard="0"
     inkscape:deskcolor="#d1d1d1"
     inkscape:document-units="mm"
     showgrid="true"
     inkscape:zoom="5.1331977"
     inkscape:cx="577.51526"
     inkscape:cy="-497.54562"
     inkscape:window-width="2560"
     inkscape:window-height="1494"
     inkscape:window-x="-11"
     inkscape:window-y="-11"
     inkscape:window-maximized="1"
     inkscape:current-layer="layer3"
     showguides="true">
    <inkscape:grid
       id="grid1"
       units="mm"
       originx="-86.000002"
       originy="116"
       spacingx="1"
       spacingy="1"
       empcolor="#0099e5"
       empopacity="0.30196078"
       color="#0099e5"
       opacity="0.14901961"
       empspacing="4"
       enabled="true"
       visible="true" />
    <sodipodi:guide
       position="152.71635,-252.57591"
       orientation="1,0"
       id="guide446"
       inkscape:locked="false" />
    <sodipodi:guide
       position="155.33324,-253.23891"
       orientation="1,0"
       id="guide447"
       inkscape:locked="false" />
    <sodipodi:guide
       position="202.71324,-236.58403"
       orientation="1,0"
       id="guide448"
       inkscape:locked="false" />
    <sodipodi:guide
       position="205.31774,-236.95948"
       orientation="1,0"
       id="guide449"
       inkscape:locked="false" />
    <inkscape:page
       x="-1.0837854e-13"
       y="0"
       width="6.0000052"
       height="12.999998"
       id="page2"
       margin="0"
       bleed="0" />
  </sodipodi:namedview>
  <defs
     id="defs1" />
  <g
     inkscape:groupmode="layer"
     id="layer15"
     inkscape:label="Card back"
     transform="translate(-86.000002,116)">
    <path
       id="rect1060"
       style="display:inline;fill:#ffffff;stroke-width:0.176388"
       d="m 86,-116 h 6.000001 v 13 H 86 Z"
       inkscape:export-filename="cards\s09.svg"
       inkscape:export-xdpi="96"
       inkscape:export-ydpi="96" />
  </g>
  <g
     inkscape:groupmode="layer"
     id="layer3"
     inkscape:label="Text"
     style="display:inline"
     transform="translate(-86.000002,116)">
    <path
       d="m 88.729646,-109.75557 -0.503673,-0.35183 1.040677,-1.50732 q -0.218505,0.0296 -0.333313,0.0296 -0.699957,0 -1.174002,-0.47034 -0.474045,-0.47404 -0.474045,-1.16659 0,-0.67033 0.514784,-1.1703 0.518486,-0.49997 1.207333,-0.49997 0.68144,0 1.192519,0.51108 0.514784,0.50737 0.514784,1.18141 0,0.54441 -0.348127,1.05178 z m 1.318438,-3.39979 q 0,-0.43701 -0.307389,-0.7481 -0.307388,-0.3148 -0.733288,-0.3148 -0.451824,0 -0.755509,0.31109 -0.303685,0.30739 -0.303685,0.76662 0,0.4222 0.322202,0.72588 0.322203,0.29998 0.77773,0.29998 0.418493,0 0.707364,-0.29998 0.292575,-0.30368 0.292575,-0.74069 z"
       id="text1117"
       style="font-size:7.58472px;line-height:8.89744px;font-family:'Tw Cen MT';-inkscape-font-specification:'Tw Cen MT';text-align:center;letter-spacing:0px;word-spacing:0px;text-anchor:middle;stroke-width:0.176389"
       aria-label="9" />
  </g>
  <g
     inkscape:groupmode="layer"
     id="layer6"
     inkscape:label="Spades"
     style="display:inline"
     transform="translate(-86.000002,116)">
    <path
       style="font-size:4.5861px;line-height:5.37985px;font-family:'Yu Gothic';-inkscape-font-specification:'Yu Gothic';text-align:center;letter-spacing:0px;word-spacing:0px;text-anchor:middle;fill:#000000;stroke-width:0.176389"
       d="m 89.000004,-108.99999 q 0.383598,0.4127 0.88889,1.01588 0.436507,0.52645 0.708995,0.91799 0.259259,0.39153 0.343916,0.62698 0.07937,0.21958 0.07937,0.49206 0,0.48678 -0.304233,0.76191 -0.238096,0.21958 -0.568784,0.21958 -0.301587,0 -0.502646,-0.13228 -0.156084,-0.10317 -0.314815,-0.33333 -0.06085,-0.0926 -0.111111,-0.0926 -0.05291,0 -0.05291,0.0979 0,0.30423 0.09788,0.6455 0.119048,0.4127 0.357143,0.78043 -0.325397,-0.0661 -0.621694,-0.0661 -0.296296,0 -0.624339,0.0661 0.238096,-0.36773 0.357144,-0.78043 0.09788,-0.34392 0.09788,-0.6455 0,-0.0979 -0.05291,-0.0979 -0.05027,0 -0.108467,0.0926 -0.18254,0.2619 -0.367725,0.36508 -0.18254,0.10052 -0.449736,0.10052 -0.383598,0 -0.634921,-0.28571 -0.238095,-0.26985 -0.238095,-0.69577 0,-0.30688 0.10582,-0.56085 0.0873,-0.21164 0.31746,-0.5582 0.23545,-0.34127 0.708995,-0.91799 0.502646,-0.59788 0.88889,-1.01587 z"
       id="path1168" />
  </g>
</svg>
