<?xml version='1.0' encoding='UTF-8'?>
<!-- Created with Inkscape (http://www.inkscape.org/) and export_objects.py -->
<svg xmlns:cc="http://creativecommons.org/ns#" xmlns:dc="http://purl.org/dc/elements/1.1/" xmlns:inkscape="http://www.inkscape.org/namespaces/inkscape" xmlns:rdf="http://www.w3.org/1999/02/22-rdf-syntax-ns#" xmlns:sodipodi="http://sodipodi.sourceforge.net/DTD/sodipodi-0.dtd" xmlns:xlink="http://www.w3.org/1999/xlink" xmlns="http://www.w3.org/2000/svg" version="1.1" width="108.0pt" height="108.0000225pt" viewBox="0 0 38.1 38.1000079375" id="svg8" inkscape:version="0.92.3 (2405546, 2018-03-11)" sodipodi:docname="tile-21.svg"><sodipodi:namedview id="base" pagecolor="#ffffff" bordercolor="#666666" borderopacity="1.0" inkscape:pageopacity="0.0" inkscape:pageshadow="2" inkscape:zoom="0.67119558" inkscape:cx="647.99999" inkscape:cy="776.95238" inkscape:document-units="pt" inkscape:current-layer="layer6" showgrid="false" units="pt" inkscape:snap-object-midpoints="true" inkscape:snap-grids="true" inkscape:snap-smooth-nodes="true" showguides="false" inkscape:guide-bbox="true" inkscape:snap-text-baseline="true" inkscape:window-width="1920" inkscape:window-height="1006" inkscape:window-x="1909" inkscape:window-y="-11" inkscape:window-maximized="1">
    <inkscape:grid type="xygrid" id="grid815" units="pt" spacingx="1.5875" spacingy="1.5875"/>
  </sodipodi:namedview>
  <metadata id="metadata5">
    <rdf:RDF>
      <cc:Work rdf:about="">
        <dc:format>image/svg+xml</dc:format>
        <dc:type rdf:resource="http://purl.org/dc/dcmitype/StillImage"/>
        <dc:title/>
      </cc:Work>
    </rdf:RDF>
  </metadata>
  <g inkscape:groupmode="layer" inkscape:label="tile-" transform="matrix(1.000000,0.000000,0.000000,1.000000,-127.000000,-165.099997)"><g id="g1896" inkscape:label="21">
      <rect style="fill:none;stroke-width:0;stroke-linecap:round;stroke-miterlimit:44.95529938;paint-order:markers fill stroke" id="rect853" width="38.099998" height="38.099998" x="127" y="165.10001"/>
      <circle style="fill:#808000;stroke-width:0;stroke-linecap:round;stroke-miterlimit:44.95529938;paint-order:markers fill stroke" id="circle1055" cx="146.05" cy="171.45" r="6.3499999"/>
      <circle r="6.3499999" cy="184.15001" cx="146.05" id="circle1057" style="fill:#808000;stroke-width:0;stroke-linecap:round;stroke-miterlimit:44.95529938;paint-order:markers fill stroke"/>
      <circle style="fill:#808000;stroke-width:0;stroke-linecap:round;stroke-miterlimit:44.95529938;paint-order:markers fill stroke" id="circle1059" cx="158.75" cy="184.15001" r="6.3499999"/>
      <g id="text1252" style="font-style:normal;font-variant:normal;font-weight:bold;font-stretch:normal;font-size:6.3499999px;line-height:100%;font-family:'Century Gothic';-inkscape-font-specification:'Century Gothic Bold';text-align:end;letter-spacing:0px;word-spacing:0px;writing-mode:lr-tb;text-anchor:end;stroke-width:0.26458332" aria-label="4-3">
        <path id="path1419" style="font-style:normal;font-variant:normal;font-weight:bold;font-stretch:normal;font-size:6.3499999px;font-family:'Century Gothic';-inkscape-font-specification:'Century Gothic Bold';text-align:end;text-anchor:end;stroke-width:0.26458332" d="m 155.82925,196.93682 h 0.86816 v 2.93625 h 0.40618 v 0.80306 h -0.40618 v 0.93637 h -0.84956 v -0.93637 h -1.99058 v -0.80306 z m 0.0186,2.93625 v -1.52858 l -1.0418,1.52858 z"/>
        <path id="path1421" style="font-style:normal;font-variant:normal;font-weight:bold;font-stretch:normal;font-size:6.3499999px;font-family:'Century Gothic';-inkscape-font-specification:'Century Gothic Bold';text-align:end;text-anchor:end;stroke-width:0.26458332" d="m 157.83222,199.53821 h 1.5751 v 0.78755 h -1.5751 z"/>
        <path id="path1423" style="font-style:normal;font-variant:normal;font-weight:bold;font-stretch:normal;font-size:6.3499999px;font-family:'Century Gothic';-inkscape-font-specification:'Century Gothic Bold';text-align:end;text-anchor:end;stroke-width:0.26458332" d="m 161.15915,198.17705 h -0.83406 q 0.0651,-0.50539 0.36277,-0.81235 0.41548,-0.42788 1.0449,-0.42788 0.56121,0 0.93948,0.35657 0.38137,0.35656 0.38137,0.84646 0,0.30385 -0.16743,0.555 -0.16433,0.25115 -0.48059,0.40618 0.41548,0.12402 0.64802,0.43408 0.23564,0.30696 0.23564,0.72554 0,0.61391 -0.45268,1.04179 -0.45269,0.42478 -1.15342,0.42478 -0.66352,0 -1.0821,-0.39997 -0.41858,-0.40308 -0.45889,-1.09451 h 0.85886 q 0.0558,0.35347 0.24495,0.5271 0.19223,0.17053 0.48369,0.17053 0.30386,0 0.50229,-0.19533 0.20154,-0.19534 0.20154,-0.47749 0,-0.31006 -0.26975,-0.524 -0.26975,-0.21394 -0.77824,-0.22014 v -0.74414 q 0.31315,-0.0248 0.46508,-0.0961 0.15503,-0.0744 0.23875,-0.20154 0.0868,-0.12712 0.0868,-0.26975 0,-0.18604 -0.13022,-0.30696 -0.13022,-0.12402 -0.34106,-0.12402 -0.18604,0 -0.33797,0.11472 -0.15193,0.11162 -0.20774,0.29145 z"/>
      </g>
    </g>
    </g></svg>
