<?xml version='1.0' encoding='UTF-8'?>
<!-- Created with Inkscape (http://www.inkscape.org/) and export_objects.py -->
<svg xmlns:cc="http://creativecommons.org/ns#" xmlns:dc="http://purl.org/dc/elements/1.1/" xmlns:inkscape="http://www.inkscape.org/namespaces/inkscape" xmlns:rdf="http://www.w3.org/1999/02/22-rdf-syntax-ns#" xmlns:sodipodi="http://sodipodi.sourceforge.net/DTD/sodipodi-0.dtd" xmlns:xlink="http://www.w3.org/1999/xlink" xmlns="http://www.w3.org/2000/svg" version="1.1" width="108.000045pt" height="107.9999925pt" viewBox="0 0 38.100015875 38.0999973542" id="svg8" inkscape:version="0.92.3 (2405546, 2018-03-11)" sodipodi:docname="tile-24.svg"><sodipodi:namedview id="base" pagecolor="#ffffff" bordercolor="#666666" borderopacity="1.0" inkscape:pageopacity="0.0" inkscape:pageshadow="2" inkscape:zoom="0.67119558" inkscape:cx="647.99999" inkscape:cy="776.95238" inkscape:document-units="pt" inkscape:current-layer="layer6" showgrid="false" units="pt" inkscape:snap-object-midpoints="true" inkscape:snap-grids="true" inkscape:snap-smooth-nodes="true" showguides="false" inkscape:guide-bbox="true" inkscape:snap-text-baseline="true" inkscape:window-width="1920" inkscape:window-height="1006" inkscape:window-x="1909" inkscape:window-y="-11" inkscape:window-maximized="1">
    <inkscape:grid type="xygrid" id="grid815" units="pt" spacingx="1.5875" spacingy="1.5875"/>
  </sodipodi:namedview>
  <metadata id="metadata5">
    <rdf:RDF>
      <cc:Work rdf:about="">
        <dc:format>image/svg+xml</dc:format>
        <dc:type rdf:resource="http://purl.org/dc/dcmitype/StillImage"/>
        <dc:title/>
      </cc:Work>
    </rdf:RDF>
  </metadata>
  <g inkscape:groupmode="layer" inkscape:label="tile-" transform="matrix(1.000000,0.000000,0.000000,1.000000,-127.000000,-12.699994)"><g id="g1616" inkscape:label="24">
      <rect y="12.699994" x="127" height="38.099998" width="38.099998" id="rect847" style="fill:none;stroke-width:0;stroke-linecap:round;stroke-miterlimit:44.95529938;paint-order:markers fill stroke"/>
      <circle style="fill:#808000;stroke-width:0;stroke-linecap:round;stroke-miterlimit:44.95529938;paint-order:markers fill stroke" id="circle1001" cx="133.35001" cy="31.75" r="6.3499999"/>
      <circle r="6.3499999" cy="31.75" cx="146.05" id="circle1003" style="fill:#808000;stroke-width:0;stroke-linecap:round;stroke-miterlimit:44.95529938;paint-order:markers fill stroke"/>
      <circle style="fill:#808000;stroke-width:0;stroke-linecap:round;stroke-miterlimit:44.95529938;paint-order:markers fill stroke" id="circle1005" cx="158.75002" cy="31.75" r="6.3499999"/>
      <g id="text1264" style="font-style:normal;font-variant:normal;font-weight:bold;font-stretch:normal;font-size:6.3499999px;line-height:100%;font-family:'Century Gothic';-inkscape-font-specification:'Century Gothic Bold';text-align:end;letter-spacing:0px;word-spacing:0px;writing-mode:lr-tb;text-anchor:end;stroke-width:0.26458332" aria-label="1-3">
        <path id="path1398" style="font-style:normal;font-variant:normal;font-weight:bold;font-stretch:normal;font-size:6.3499999px;font-family:'Century Gothic';-inkscape-font-specification:'Century Gothic Bold';text-align:end;text-anchor:end;stroke-width:0.26458332" d="m 154.77195,44.65154 h 1.29914 v 4.560962 h -0.86196 v -3.745508 h -0.93948 z"/>
        <path id="path1400" style="font-style:normal;font-variant:normal;font-weight:bold;font-stretch:normal;font-size:6.3499999px;font-family:'Century Gothic';-inkscape-font-specification:'Century Gothic Bold';text-align:end;text-anchor:end;stroke-width:0.26458332" d="m 157.83222,47.13821 h 1.5751 v 0.787548 h -1.5751 z"/>
        <path id="path1402" style="font-style:normal;font-variant:normal;font-weight:bold;font-stretch:normal;font-size:6.3499999px;font-family:'Century Gothic';-inkscape-font-specification:'Century Gothic Bold';text-align:end;text-anchor:end;stroke-width:0.26458332" d="m 161.15915,45.777052 h -0.83406 q 0.0651,-0.505395 0.36277,-0.812353 0.41548,-0.427881 1.0449,-0.427881 0.56121,0 0.93948,0.356567 0.38137,0.356568 0.38137,0.84646 0,0.303858 -0.16743,0.555005 -0.16433,0.251148 -0.48059,0.406177 0.41548,0.124023 0.64802,0.434082 0.23564,0.306958 0.23564,0.725537 0,0.613916 -0.45268,1.041797 -0.45269,0.42478 -1.15342,0.42478 -0.66352,0 -1.0821,-0.399975 -0.41858,-0.403077 -0.45889,-1.094507 h 0.85886 q 0.0558,0.353467 0.24495,0.527099 0.19223,0.170533 0.48369,0.170533 0.30386,0 0.50229,-0.195337 0.20154,-0.195337 0.20154,-0.477491 0,-0.310058 -0.26975,-0.523999 -0.26975,-0.21394 -0.77824,-0.220141 v -0.744141 q 0.31315,-0.0248 0.46508,-0.09612 0.15503,-0.07441 0.23875,-0.201538 0.0868,-0.127124 0.0868,-0.269751 0,-0.186035 -0.13022,-0.306958 -0.13022,-0.124023 -0.34106,-0.124023 -0.18604,0 -0.33797,0.114721 -0.15193,0.111621 -0.20774,0.291455 z"/>
      </g>
    </g>
    </g></svg>
