<?xml version='1.0' encoding='UTF-8'?>
<!-- Created with Inkscape (http://www.inkscape.org/) and export_objects.py -->
<svg xmlns:cc="http://creativecommons.org/ns#" xmlns:dc="http://purl.org/dc/elements/1.1/" xmlns:inkscape="http://www.inkscape.org/namespaces/inkscape" xmlns:rdf="http://www.w3.org/1999/02/22-rdf-syntax-ns#" xmlns:sodipodi="http://sodipodi.sourceforge.net/DTD/sodipodi-0.dtd" xmlns:xlink="http://www.w3.org/1999/xlink" xmlns="http://www.w3.org/2000/svg" version="1.1" width="107.9999925pt" height="108.0001275pt" viewBox="0 0 38.0999973542 38.1000449792" id="svg8" inkscape:version="0.92.3 (2405546, 2018-03-11)" sodipodi:docname="tile-04.svg"><sodipodi:namedview id="base" pagecolor="#ffffff" bordercolor="#666666" borderopacity="1.0" inkscape:pageopacity="0.0" inkscape:pageshadow="2" inkscape:zoom="0.67119558" inkscape:cx="647.99999" inkscape:cy="776.95238" inkscape:document-units="pt" inkscape:current-layer="layer6" showgrid="false" units="pt" inkscape:snap-object-midpoints="true" inkscape:snap-grids="true" inkscape:snap-smooth-nodes="true" showguides="false" inkscape:guide-bbox="true" inkscape:snap-text-baseline="true" inkscape:window-width="1920" inkscape:window-height="1006" inkscape:window-x="1909" inkscape:window-y="-11" inkscape:window-maximized="1">
    <inkscape:grid type="xygrid" id="grid815" units="pt" spacingx="1.5875" spacingy="1.5875"/>
  </sodipodi:namedview>
  <metadata id="metadata5">
    <rdf:RDF>
      <cc:Work rdf:about="">
        <dc:format>image/svg+xml</dc:format>
        <dc:type rdf:resource="http://purl.org/dc/dcmitype/StillImage"/>
        <dc:title/>
      </cc:Work>
    </rdf:RDF>
  </metadata>
  <g inkscape:groupmode="layer" inkscape:label="tile-" transform="matrix(1.000000,0.000000,0.000000,1.000000,-279.400000,-114.300003)"><g id="g1836" inkscape:label="04">
      <rect style="fill:none;stroke-width:0;stroke-linecap:round;stroke-miterlimit:44.95529938;paint-order:markers fill stroke" id="rect887" width="38.099998" height="38.099998" x="279.39999" y="114.30005"/>
      <circle r="6.3499999" cy="120.65" cx="298.45001" id="circle919" style="fill:#008000;stroke-width:0;stroke-linecap:round;stroke-miterlimit:44.95529938;paint-order:markers fill stroke"/>
      <circle style="fill:#008000;stroke-width:0;stroke-linecap:round;stroke-miterlimit:44.95529938;paint-order:markers fill stroke" id="circle921" cx="298.45001" cy="133.35001" r="6.3499999"/>
      <circle r="6.3499999" cy="146.05" cx="298.45001" id="circle923" style="fill:#008000;stroke-width:0;stroke-linecap:round;stroke-miterlimit:44.95529938;paint-order:markers fill stroke"/>
      <g id="text1158" style="font-style:normal;font-variant:normal;font-weight:bold;font-stretch:normal;font-size:6.3499999px;line-height:100%;font-family:'Century Gothic';-inkscape-font-specification:'Century Gothic Bold';text-align:end;letter-spacing:0px;word-spacing:0px;writing-mode:lr-tb;text-anchor:end;stroke-width:0.26458332" aria-label="3-6">
        <path id="path1538" style="font-style:normal;font-variant:normal;font-weight:bold;font-stretch:normal;font-size:6.3499999px;font-family:'Century Gothic';-inkscape-font-specification:'Century Gothic Bold';text-align:end;text-anchor:end;stroke-width:0.26458332" d="m 307.33318,147.37705 h -0.83405 q 0.0651,-0.50539 0.36277,-0.81235 0.41547,-0.42788 1.04489,-0.42788 0.56121,0 0.93948,0.35656 0.38137,0.35657 0.38137,0.84646 0,0.30386 -0.16743,0.55501 -0.16433,0.25115 -0.48059,0.40618 0.41548,0.12402 0.64802,0.43408 0.23565,0.30696 0.23565,0.72553 0,0.61392 -0.45269,1.0418 -0.45268,0.42478 -1.15342,0.42478 -0.66352,0 -1.0821,-0.39997 -0.41858,-0.40308 -0.45889,-1.09451 h 0.85887 q 0.0558,0.35347 0.24494,0.5271 0.19224,0.17053 0.48369,0.17053 0.30386,0 0.5023,-0.19534 0.20154,-0.19533 0.20154,-0.47749 0,-0.31005 -0.26976,-0.524 -0.26975,-0.21394 -0.77824,-0.22014 v -0.74414 q 0.31316,-0.0248 0.46509,-0.0961 0.15502,-0.0744 0.23874,-0.20153 0.0868,-0.12713 0.0868,-0.26975 0,-0.18604 -0.13023,-0.30696 -0.13022,-0.12403 -0.34106,-0.12403 -0.18604,0 -0.33797,0.11473 -0.15192,0.11162 -0.20774,0.29145 z"/>
        <path id="path1540" style="font-style:normal;font-variant:normal;font-weight:bold;font-stretch:normal;font-size:6.3499999px;font-family:'Century Gothic';-inkscape-font-specification:'Century Gothic Bold';text-align:end;text-anchor:end;stroke-width:0.26458332" d="m 310.23223,148.73821 h 1.5751 v 0.78755 h -1.5751 z"/>
        <path id="path1542" style="font-style:normal;font-variant:normal;font-weight:bold;font-stretch:normal;font-size:6.3499999px;font-family:'Century Gothic';-inkscape-font-specification:'Century Gothic Bold';text-align:end;text-anchor:end;stroke-width:0.26458332" d="m 314.19478,146.13682 0.73794,0.36897 -0.79685,1.55029 q 0.57981,0 0.98599,0.41548 0.40617,0.41548 0.40617,1.03249 0,0.59532 -0.41858,1.01079 -0.41547,0.41238 -1.00459,0.41238 -0.61701,0 -1.02939,-0.42788 -0.40928,-0.43098 -0.40928,-0.98599 0,-0.21084 0.062,-0.42478 0.0651,-0.21394 0.29456,-0.65732 z m -0.10852,2.74091 q -0.24184,0 -0.40618,0.17674 -0.16433,0.17363 -0.16433,0.43718 0,0.26355 0.17054,0.44338 0.17363,0.17984 0.40307,0.17984 0.24185,0 0.41548,-0.17674 0.17363,-0.17673 0.17363,-0.44648 0,-0.26355 -0.17053,-0.43718 -0.16743,-0.17674 -0.42168,-0.17674 z"/>
      </g>
    </g>
    </g></svg>
