<?xml version='1.0' encoding='UTF-8'?>
<!-- Created with Inkscape (http://www.inkscape.org/) and export_objects.py -->
<svg xmlns:cc="http://creativecommons.org/ns#" xmlns:dc="http://purl.org/dc/elements/1.1/" xmlns:inkscape="http://www.inkscape.org/namespaces/inkscape" xmlns:rdf="http://www.w3.org/1999/02/22-rdf-syntax-ns#" xmlns:sodipodi="http://sodipodi.sourceforge.net/DTD/sodipodi-0.dtd" xmlns:xlink="http://www.w3.org/1999/xlink" xmlns="http://www.w3.org/2000/svg" version="1.1" width="107.9999925pt" height="108.000075pt" viewBox="0 0 38.0999973542 38.1000264583" id="svg8" inkscape:version="0.92.3 (2405546, 2018-03-11)" sodipodi:docname="tile-05.svg"><sodipodi:namedview id="base" pagecolor="#ffffff" bordercolor="#666666" borderopacity="1.0" inkscape:pageopacity="0.0" inkscape:pageshadow="2" inkscape:zoom="0.67119558" inkscape:cx="647.99999" inkscape:cy="776.95238" inkscape:document-units="pt" inkscape:current-layer="layer6" showgrid="false" units="pt" inkscape:snap-object-midpoints="true" inkscape:snap-grids="true" inkscape:snap-smooth-nodes="true" showguides="false" inkscape:guide-bbox="true" inkscape:snap-text-baseline="true" inkscape:window-width="1920" inkscape:window-height="1006" inkscape:window-x="1909" inkscape:window-y="-11" inkscape:window-maximized="1">
    <inkscape:grid type="xygrid" id="grid815" units="pt" spacingx="1.5875" spacingy="1.5875"/>
  </sodipodi:namedview>
  <metadata id="metadata5">
    <rdf:RDF>
      <cc:Work rdf:about="">
        <dc:format>image/svg+xml</dc:format>
        <dc:type rdf:resource="http://purl.org/dc/dcmitype/StillImage"/>
        <dc:title/>
      </cc:Work>
    </rdf:RDF>
  </metadata>
  <g inkscape:groupmode="layer" inkscape:label="tile-" transform="matrix(1.000000,0.000000,0.000000,1.000000,-279.400000,-63.499997)"><g id="g1746" inkscape:label="05">
      <rect y="63.500027" x="279.39999" height="38.099998" width="38.099998" id="rect885" style="fill:none;stroke-width:0;stroke-linecap:round;stroke-miterlimit:44.95529938;paint-order:markers fill stroke"/>
      <circle r="6.3499999" cy="69.849998" cx="298.45001" id="circle989" style="fill:#808000;stroke-width:0;stroke-linecap:round;stroke-miterlimit:44.95529938;paint-order:markers fill stroke"/>
      <circle style="fill:#808000;stroke-width:0;stroke-linecap:round;stroke-miterlimit:44.95529938;paint-order:markers fill stroke" id="circle991" cx="298.45001" cy="82.550011" r="6.3499999"/>
      <circle r="6.3499999" cy="95.250008" cx="298.45001" id="circle993" style="fill:#808000;stroke-width:0;stroke-linecap:round;stroke-miterlimit:44.95529938;paint-order:markers fill stroke"/>
      <g id="text1162" style="font-style:normal;font-variant:normal;font-weight:bold;font-stretch:normal;font-size:6.3499999px;line-height:100%;font-family:'Century Gothic';-inkscape-font-specification:'Century Gothic Bold';text-align:end;letter-spacing:0px;word-spacing:0px;writing-mode:lr-tb;text-anchor:end;stroke-width:0.26458332" aria-label="2-6">
        <path id="path1531" style="font-style:normal;font-variant:normal;font-weight:bold;font-stretch:normal;font-size:6.3499999px;font-family:'Century Gothic';-inkscape-font-specification:'Century Gothic Bold';text-align:end;text-anchor:end;stroke-width:0.26458332" d="m 307.23397,96.921213 h -0.84646 q 0.0341,-0.73794 0.46198,-1.159619 0.43098,-0.424781 1.10381,-0.424781 0.41548,0 0.73174,0.176734 0.31936,0.173633 0.5085,0.505395 0.19223,0.328662 0.19223,0.669727 0,0.406177 -0.23254,0.874365 -0.22944,0.468189 -0.84336,1.106909 l -0.5116,0.539502 h 1.62471 v 0.803055 h -3.1595 v -0.415482 l 1.41077,-1.438671 q 0.5116,-0.517798 0.67903,-0.830957 0.17053,-0.31626 0.17053,-0.570508 0,-0.26355 -0.17673,-0.434082 -0.17364,-0.173633 -0.44959,-0.173633 -0.27905,0 -0.46509,0.207739 -0.18603,0.207739 -0.19843,0.564307 z"/>
        <path id="path1533" style="font-style:normal;font-variant:normal;font-weight:bold;font-stretch:normal;font-size:6.3499999px;font-family:'Century Gothic';-inkscape-font-specification:'Century Gothic Bold';text-align:end;text-anchor:end;stroke-width:0.26458332" d="m 310.23223,97.938205 h 1.5751 v 0.787549 h -1.5751 z"/>
        <path id="path1535" style="font-style:normal;font-variant:normal;font-weight:bold;font-stretch:normal;font-size:6.3499999px;font-family:'Century Gothic';-inkscape-font-specification:'Century Gothic Bold';text-align:end;text-anchor:end;stroke-width:0.26458332" d="m 314.19478,95.336813 0.73794,0.36897 -0.79685,1.550293 q 0.57981,0 0.98599,0.415479 0.40617,0.415478 0.40617,1.032495 0,0.595312 -0.41858,1.010791 -0.41547,0.412379 -1.00459,0.412379 -0.61701,0 -1.02939,-0.427882 -0.40928,-0.430982 -0.40928,-0.985987 0,-0.210839 0.062,-0.42478 0.0651,-0.21394 0.29456,-0.657324 z m -0.10852,2.740918 q -0.24184,0 -0.40618,0.176734 -0.16433,0.173633 -0.16433,0.437182 0,0.26355 0.17054,0.443384 0.17363,0.179834 0.40307,0.179834 0.24185,0 0.41548,-0.176733 0.17363,-0.176734 0.17363,-0.446485 0,-0.263549 -0.17053,-0.437182 -0.16743,-0.176734 -0.42168,-0.176734 z"/>
      </g>
    </g>
    </g></svg>
