<?xml version='1.0' encoding='UTF-8'?>
<!-- Created with Inkscape (http://www.inkscape.org/) and export_objects.py -->
<svg xmlns:cc="http://creativecommons.org/ns#" xmlns:dc="http://purl.org/dc/elements/1.1/" xmlns:inkscape="http://www.inkscape.org/namespaces/inkscape" xmlns:rdf="http://www.w3.org/1999/02/22-rdf-syntax-ns#" xmlns:sodipodi="http://sodipodi.sourceforge.net/DTD/sodipodi-0.dtd" xmlns:xlink="http://www.w3.org/1999/xlink" xmlns="http://www.w3.org/2000/svg" version="1.1" width="108.000045pt" height="107.9999925pt" viewBox="0 0 38.100015875 38.0999973542" id="svg8" inkscape:version="0.92.3 (2405546, 2018-03-11)" sodipodi:docname="tile-20.svg"><sodipodi:namedview id="base" pagecolor="#ffffff" bordercolor="#666666" borderopacity="1.0" inkscape:pageopacity="0.0" inkscape:pageshadow="2" inkscape:zoom="0.67119558" inkscape:cx="647.99999" inkscape:cy="776.95238" inkscape:document-units="pt" inkscape:current-layer="layer6" showgrid="false" units="pt" inkscape:snap-object-midpoints="true" inkscape:snap-grids="true" inkscape:snap-smooth-nodes="true" showguides="false" inkscape:guide-bbox="true" inkscape:snap-text-baseline="true" inkscape:window-width="1920" inkscape:window-height="1006" inkscape:window-x="1909" inkscape:window-y="-11" inkscape:window-maximized="1">
    <inkscape:grid type="xygrid" id="grid815" units="pt" spacingx="1.5875" spacingy="1.5875"/>
  </sodipodi:namedview>
  <metadata id="metadata5">
    <rdf:RDF>
      <cc:Work rdf:about="">
        <dc:format>image/svg+xml</dc:format>
        <dc:type rdf:resource="http://purl.org/dc/dcmitype/StillImage"/>
        <dc:title/>
      </cc:Work>
    </rdf:RDF>
  </metadata>
  <g inkscape:groupmode="layer" inkscape:label="tile-" transform="matrix(1.000000,0.000000,0.000000,1.000000,-127.000000,-215.899995)"><g id="g1966" inkscape:label="20">
      <rect y="215.89999" x="127" height="38.099998" width="38.099998" id="rect855" style="fill:none;stroke-width:0;stroke-linecap:round;stroke-miterlimit:44.95529938;paint-order:markers fill stroke"/>
      <circle r="6.3499999" cy="234.95" cx="158.75002" id="circle1129" style="fill:#008000;stroke-width:0;stroke-linecap:round;stroke-miterlimit:44.95529938;paint-order:markers fill stroke"/>
      <circle style="fill:#008000;stroke-width:0;stroke-linecap:round;stroke-miterlimit:44.95529938;paint-order:markers fill stroke" id="circle1131" cx="146.05002" cy="234.95" r="6.3499999"/>
      <circle r="6.3499999" cy="234.95" cx="133.35001" id="circle1133" style="fill:#008000;stroke-width:0;stroke-linecap:round;stroke-miterlimit:44.95529938;paint-order:markers fill stroke"/>
      <g id="text1248" style="font-style:normal;font-variant:normal;font-weight:bold;font-stretch:normal;font-size:6.3499999px;line-height:100%;font-family:'Century Gothic';-inkscape-font-specification:'Century Gothic Bold';text-align:end;letter-spacing:0px;word-spacing:0px;writing-mode:lr-tb;text-anchor:end;stroke-width:0.26458332" aria-label="5-3">
        <path id="path1426" style="font-style:normal;font-variant:normal;font-weight:bold;font-stretch:normal;font-size:6.3499999px;font-family:'Century Gothic';-inkscape-font-specification:'Century Gothic Bold';text-align:end;text-anchor:end;stroke-width:0.26458332" d="m 154.78745,247.85154 h 2.1363 v 0.79996 h -1.48828 l -0.18603,0.83095 q 0.0775,-0.0217 0.15192,-0.031 0.0744,-0.0124 0.14263,-0.0124 0.62012,0 1.0294,0.42478 0.41237,0.42168 0.41237,1.08211 0,0.66662 -0.45578,1.12551 -0.45269,0.45579 -1.10381,0.45579 -0.58291,0 -1.00149,-0.33176 -0.41858,-0.33177 -0.5488,-0.90848 h 0.91157 q 0.10542,0.21394 0.27595,0.32556 0.17363,0.10853 0.38137,0.10853 0.28836,0 0.4899,-0.20774 0.20153,-0.20774 0.20153,-0.5333 0,-0.31626 -0.18913,-0.5178 -0.18604,-0.20464 -0.45269,-0.20464 -0.14263,0 -0.28215,0.0713 -0.13643,0.0713 -0.26975,0.21394 l -0.70694,-0.15813 z"/>
        <path id="path1428" style="font-style:normal;font-variant:normal;font-weight:bold;font-stretch:normal;font-size:6.3499999px;font-family:'Century Gothic';-inkscape-font-specification:'Century Gothic Bold';text-align:end;text-anchor:end;stroke-width:0.26458332" d="m 157.83222,250.33821 h 1.5751 v 0.78755 h -1.5751 z"/>
        <path id="path1430" style="font-style:normal;font-variant:normal;font-weight:bold;font-stretch:normal;font-size:6.3499999px;font-family:'Century Gothic';-inkscape-font-specification:'Century Gothic Bold';text-align:end;text-anchor:end;stroke-width:0.26458332" d="m 161.15915,248.97706 h -0.83406 q 0.0651,-0.5054 0.36277,-0.81236 0.41548,-0.42788 1.0449,-0.42788 0.56121,0 0.93948,0.35657 0.38137,0.35657 0.38137,0.84646 0,0.30386 -0.16743,0.555 -0.16433,0.25115 -0.48059,0.40618 0.41548,0.12402 0.64802,0.43408 0.23564,0.30696 0.23564,0.72554 0,0.61392 -0.45268,1.0418 -0.45269,0.42478 -1.15342,0.42478 -0.66352,0 -1.0821,-0.39998 -0.41858,-0.40307 -0.45889,-1.0945 h 0.85886 q 0.0558,0.35346 0.24495,0.52709 0.19223,0.17054 0.48369,0.17054 0.30386,0 0.50229,-0.19534 0.20154,-0.19534 0.20154,-0.47749 0,-0.31006 -0.26975,-0.524 -0.26975,-0.21394 -0.77824,-0.22014 v -0.74414 q 0.31315,-0.0248 0.46508,-0.0961 0.15503,-0.0744 0.23875,-0.20154 0.0868,-0.12712 0.0868,-0.26975 0,-0.18603 -0.13022,-0.30696 -0.13022,-0.12402 -0.34106,-0.12402 -0.18604,0 -0.33797,0.11472 -0.15193,0.11162 -0.20774,0.29146 z"/>
      </g>
    </g>
    </g></svg>
