<?xml version='1.0' encoding='UTF-8'?>
<!-- Created with Inkscape (http://www.inkscape.org/) and export_objects.py -->
<svg xmlns:cc="http://creativecommons.org/ns#" xmlns:dc="http://purl.org/dc/elements/1.1/" xmlns:inkscape="http://www.inkscape.org/namespaces/inkscape" xmlns:rdf="http://www.w3.org/1999/02/22-rdf-syntax-ns#" xmlns:sodipodi="http://sodipodi.sourceforge.net/DTD/sodipodi-0.dtd" xmlns:xlink="http://www.w3.org/1999/xlink" xmlns="http://www.w3.org/2000/svg" version="1.1" width="108.0000225pt" height="107.9999925pt" viewBox="0 0 38.1000079375 38.0999973542" id="svg8" inkscape:version="0.92.3 (2405546, 2018-03-11)" sodipodi:docname="tile-11.svg"><sodipodi:namedview id="base" pagecolor="#ffffff" bordercolor="#666666" borderopacity="1.0" inkscape:pageopacity="0.0" inkscape:pageshadow="2" inkscape:zoom="0.67119558" inkscape:cx="647.99999" inkscape:cy="776.95238" inkscape:document-units="pt" inkscape:current-layer="layer6" showgrid="false" units="pt" inkscape:snap-object-midpoints="true" inkscape:snap-grids="true" inkscape:snap-smooth-nodes="true" showguides="false" inkscape:guide-bbox="true" inkscape:snap-text-baseline="true" inkscape:window-width="1920" inkscape:window-height="1006" inkscape:window-x="1909" inkscape:window-y="-11" inkscape:window-maximized="1">
    <inkscape:grid type="xygrid" id="grid815" units="pt" spacingx="1.5875" spacingy="1.5875"/>
  </sodipodi:namedview>
  <metadata id="metadata5">
    <rdf:RDF>
      <cc:Work rdf:about="">
        <dc:format>image/svg+xml</dc:format>
        <dc:type rdf:resource="http://purl.org/dc/dcmitype/StillImage"/>
        <dc:title/>
      </cc:Work>
    </rdf:RDF>
  </metadata>
  <g inkscape:groupmode="layer" inkscape:label="tile-" transform="matrix(1.000000,0.000000,0.000000,1.000000,-228.599997,-63.500016)"><g id="g1732" inkscape:label="11">
      <rect style="fill:none;stroke-width:0;stroke-linecap:round;stroke-miterlimit:44.95529938;paint-order:markers fill stroke" id="rect873" width="38.099998" height="38.099998" x="228.60001" y="63.500015"/>
      <circle r="6.3499999" cy="95.25" cx="247.64999" id="circle943" style="fill:#008000;stroke-width:0;stroke-linecap:round;stroke-miterlimit:44.95529938;paint-order:markers fill stroke"/>
      <circle style="fill:#008000;stroke-width:0;stroke-linecap:round;stroke-miterlimit:44.95529938;paint-order:markers fill stroke" id="circle945" cx="247.64999" cy="82.550003" r="6.3499999"/>
      <circle r="6.3499999" cy="82.550003" cx="234.95" id="circle947" style="fill:#008000;stroke-width:0;stroke-linecap:round;stroke-miterlimit:44.95529938;paint-order:markers fill stroke"/>
      <g id="text1212" style="font-style:normal;font-variant:normal;font-weight:bold;font-stretch:normal;font-size:6.3499999px;line-height:100%;font-family:'Century Gothic';-inkscape-font-specification:'Century Gothic Bold';text-align:end;letter-spacing:0px;word-spacing:0px;writing-mode:lr-tb;text-anchor:end;stroke-width:0.26458332" aria-label="2-5">
        <path id="path1489" style="font-style:normal;font-variant:normal;font-weight:bold;font-stretch:normal;font-size:6.3499999px;font-family:'Century Gothic';-inkscape-font-specification:'Century Gothic Bold';text-align:end;text-anchor:end;stroke-width:0.26458332" d="m 256.43395,96.921213 h -0.84646 q 0.0341,-0.73794 0.46199,-1.159619 0.43098,-0.424781 1.1038,-0.424781 0.41548,0 0.73174,0.176734 0.31936,0.173633 0.5085,0.505395 0.19223,0.328662 0.19223,0.669727 0,0.406177 -0.23254,0.874365 -0.22944,0.468189 -0.84336,1.106909 l -0.5116,0.539502 h 1.62471 v 0.803055 h -3.1595 v -0.415482 l 1.41077,-1.438671 q 0.5116,-0.517798 0.67903,-0.830957 0.17053,-0.31626 0.17053,-0.570508 0,-0.26355 -0.17673,-0.434082 -0.17363,-0.173633 -0.44959,-0.173633 -0.27905,0 -0.46508,0.207739 -0.18604,0.207739 -0.19844,0.564307 z"/>
        <path id="path1491" style="font-style:normal;font-variant:normal;font-weight:bold;font-stretch:normal;font-size:6.3499999px;font-family:'Century Gothic';-inkscape-font-specification:'Century Gothic Bold';text-align:end;text-anchor:end;stroke-width:0.26458332" d="m 259.43221,97.938205 h 1.5751 v 0.787549 h -1.5751 z"/>
        <path id="path1493" style="font-style:normal;font-variant:normal;font-weight:bold;font-stretch:normal;font-size:6.3499999px;font-family:'Century Gothic';-inkscape-font-specification:'Century Gothic Bold';text-align:end;text-anchor:end;stroke-width:0.26458332" d="m 262.61342,95.451535 h 2.1363 v 0.799951 h -1.48828 l -0.18604,0.830957 q 0.0775,-0.0217 0.15193,-0.03101 0.0744,-0.0124 0.14263,-0.0124 0.62012,0 1.02939,0.42478 0.41238,0.42168 0.41238,1.082105 0,0.666626 -0.45579,1.125513 -0.45268,0.455787 -1.1038,0.455787 -0.58291,0 -1.00149,-0.331764 -0.41858,-0.331763 -0.54881,-0.908472 h 0.91158 q 0.10542,0.213941 0.27595,0.325562 0.17363,0.10852 0.38137,0.10852 0.28835,0 0.48989,-0.207739 0.20154,-0.207739 0.20154,-0.533301 0,-0.316259 -0.18914,-0.517798 -0.18603,-0.204638 -0.45268,-0.204638 -0.14263,0 -0.28215,0.07131 -0.13643,0.07131 -0.26976,0.213941 l -0.70693,-0.15813 z"/>
      </g>
    </g>
    </g></svg>
