<?xml version='1.0' encoding='UTF-8'?>
<!-- Created with Inkscape (http://www.inkscape.org/) and export_objects.py -->
<svg xmlns:cc="http://creativecommons.org/ns#" xmlns:dc="http://purl.org/dc/elements/1.1/" xmlns:inkscape="http://www.inkscape.org/namespaces/inkscape" xmlns:rdf="http://www.w3.org/1999/02/22-rdf-syntax-ns#" xmlns:sodipodi="http://sodipodi.sourceforge.net/DTD/sodipodi-0.dtd" xmlns:xlink="http://www.w3.org/1999/xlink" xmlns="http://www.w3.org/2000/svg" version="1.1" width="108.0pt" height="108.0000225pt" viewBox="0 0 38.1 38.1000079375" id="svg8" inkscape:version="0.92.3 (2405546, 2018-03-11)" sodipodi:docname="tile-23.svg"><sodipodi:namedview id="base" pagecolor="#ffffff" bordercolor="#666666" borderopacity="1.0" inkscape:pageopacity="0.0" inkscape:pageshadow="2" inkscape:zoom="0.67119558" inkscape:cx="647.99999" inkscape:cy="776.95238" inkscape:document-units="pt" inkscape:current-layer="layer6" showgrid="false" units="pt" inkscape:snap-object-midpoints="true" inkscape:snap-grids="true" inkscape:snap-smooth-nodes="true" showguides="false" inkscape:guide-bbox="true" inkscape:snap-text-baseline="true" inkscape:window-width="1920" inkscape:window-height="1006" inkscape:window-x="1909" inkscape:window-y="-11" inkscape:window-maximized="1">
    <inkscape:grid type="xygrid" id="grid815" units="pt" spacingx="1.5875" spacingy="1.5875"/>
  </sodipodi:namedview>
  <metadata id="metadata5">
    <rdf:RDF>
      <cc:Work rdf:about="">
        <dc:format>image/svg+xml</dc:format>
        <dc:type rdf:resource="http://purl.org/dc/dcmitype/StillImage"/>
        <dc:title/>
      </cc:Work>
    </rdf:RDF>
  </metadata>
  <g inkscape:groupmode="layer" inkscape:label="tile-" transform="matrix(1.000000,0.000000,0.000000,1.000000,-127.000000,-63.499992)"><g id="g1704" inkscape:label="23">
      <rect style="fill:none;stroke-width:0;stroke-linecap:round;stroke-miterlimit:44.95529938;paint-order:markers fill stroke" id="rect849" width="38.099998" height="38.099998" x="127" y="63.499992"/>
      <circle style="fill:#808000;stroke-width:0;stroke-linecap:round;stroke-miterlimit:44.95529938;paint-order:markers fill stroke" id="circle1047" cx="146.05" cy="82.550003" r="6.3499999"/>
      <circle r="6.3499999" cy="82.550003" cx="158.75" id="circle1049" style="fill:#808000;stroke-width:0;stroke-linecap:round;stroke-miterlimit:44.95529938;paint-order:markers fill stroke"/>
      <circle style="fill:#808000;stroke-width:0;stroke-linecap:round;stroke-miterlimit:44.95529938;paint-order:markers fill stroke" id="circle1051" cx="146.05" cy="95.25" r="6.3499999"/>
      <g id="text1260" style="font-style:normal;font-variant:normal;font-weight:bold;font-stretch:normal;font-size:6.3499999px;line-height:100%;font-family:'Century Gothic';-inkscape-font-specification:'Century Gothic Bold';text-align:end;letter-spacing:0px;word-spacing:0px;writing-mode:lr-tb;text-anchor:end;stroke-width:0.26458332" aria-label="2-3">
        <path id="path1405" style="font-style:normal;font-variant:normal;font-weight:bold;font-stretch:normal;font-size:6.3499999px;font-family:'Century Gothic';-inkscape-font-specification:'Century Gothic Bold';text-align:end;text-anchor:end;stroke-width:0.26458332" d="m 154.83396,96.921213 h -0.84646 q 0.0341,-0.73794 0.46198,-1.159619 0.43099,-0.424781 1.10381,-0.424781 0.41548,0 0.73174,0.176734 0.31936,0.173633 0.5085,0.505395 0.19223,0.328662 0.19223,0.669727 0,0.406177 -0.23254,0.874365 -0.22944,0.468189 -0.84336,1.106909 l -0.5116,0.539502 h 1.62471 v 0.803055 h -3.1595 v -0.415482 l 1.41077,-1.438671 q 0.5116,-0.517798 0.67903,-0.830957 0.17053,-0.31626 0.17053,-0.570508 0,-0.26355 -0.17673,-0.434082 -0.17364,-0.173633 -0.44959,-0.173633 -0.27905,0 -0.46509,0.207739 -0.18603,0.207739 -0.19843,0.564307 z"/>
        <path id="path1407" style="font-style:normal;font-variant:normal;font-weight:bold;font-stretch:normal;font-size:6.3499999px;font-family:'Century Gothic';-inkscape-font-specification:'Century Gothic Bold';text-align:end;text-anchor:end;stroke-width:0.26458332" d="m 157.83222,97.938205 h 1.5751 v 0.787549 h -1.5751 z"/>
        <path id="path1409" style="font-style:normal;font-variant:normal;font-weight:bold;font-stretch:normal;font-size:6.3499999px;font-family:'Century Gothic';-inkscape-font-specification:'Century Gothic Bold';text-align:end;text-anchor:end;stroke-width:0.26458332" d="m 161.15915,96.577048 h -0.83406 q 0.0651,-0.505396 0.36277,-0.812354 0.41548,-0.427881 1.0449,-0.427881 0.56121,0 0.93948,0.356568 0.38137,0.356567 0.38137,0.84646 0,0.303857 -0.16743,0.555005 -0.16433,0.251147 -0.48059,0.406176 0.41548,0.124024 0.64802,0.434082 0.23564,0.306958 0.23564,0.725537 0,0.613917 -0.45268,1.041797 -0.45269,0.424782 -1.15342,0.424782 -0.66352,0 -1.0821,-0.399977 -0.41858,-0.403076 -0.45889,-1.094507 h 0.85886 q 0.0558,0.353467 0.24495,0.5271 0.19223,0.170532 0.48369,0.170532 0.30386,0 0.50229,-0.195337 0.20154,-0.195337 0.20154,-0.47749 0,-0.310059 -0.26975,-0.523999 -0.26975,-0.213941 -0.77824,-0.220142 v -0.74414 q 0.31315,-0.02481 0.46508,-0.09612 0.15503,-0.07442 0.23875,-0.201539 0.0868,-0.127124 0.0868,-0.269751 0,-0.186035 -0.13022,-0.306958 -0.13022,-0.124023 -0.34106,-0.124023 -0.18604,0 -0.33797,0.114722 -0.15193,0.111621 -0.20774,0.291455 z"/>
      </g>
    </g>
    </g></svg>
