<?xml version='1.0' encoding='UTF-8'?>
<!-- Created with Inkscape (http://www.inkscape.org/) and export_objects.py -->
<svg xmlns:cc="http://creativecommons.org/ns#" xmlns:dc="http://purl.org/dc/elements/1.1/" xmlns:inkscape="http://www.inkscape.org/namespaces/inkscape" xmlns:rdf="http://www.w3.org/1999/02/22-rdf-syntax-ns#" xmlns:sodipodi="http://sodipodi.sourceforge.net/DTD/sodipodi-0.dtd" xmlns:xlink="http://www.w3.org/1999/xlink" xmlns="http://www.w3.org/2000/svg" version="1.1" width="107.9999925pt" height="108.0000075pt" viewBox="0 0 38.0999973542 38.1000026458" id="svg8" inkscape:version="0.92.3 (2405546, 2018-03-11)" sodipodi:docname="tile-34.svg"><sodipodi:namedview id="base" pagecolor="#ffffff" bordercolor="#666666" borderopacity="1.0" inkscape:pageopacity="0.0" inkscape:pageshadow="2" inkscape:zoom="0.67119558" inkscape:cx="647.99999" inkscape:cy="776.95238" inkscape:document-units="pt" inkscape:current-layer="layer6" showgrid="false" units="pt" inkscape:snap-object-midpoints="true" inkscape:snap-grids="true" inkscape:snap-smooth-nodes="true" showguides="false" inkscape:guide-bbox="true" inkscape:snap-text-baseline="true" inkscape:window-width="1920" inkscape:window-height="1006" inkscape:window-x="1909" inkscape:window-y="-11" inkscape:window-maximized="1">
    <inkscape:grid type="xygrid" id="grid815" units="pt" spacingx="1.5875" spacingy="1.5875"/>
  </sodipodi:namedview>
  <metadata id="metadata5">
    <rdf:RDF>
      <cc:Work rdf:about="">
        <dc:format>image/svg+xml</dc:format>
        <dc:type rdf:resource="http://purl.org/dc/dcmitype/StillImage"/>
        <dc:title/>
      </cc:Work>
    </rdf:RDF>
  </metadata>
  <g inkscape:groupmode="layer" inkscape:label="tile-" transform="matrix(1.000000,0.000000,0.000000,1.000000,-25.400000,-114.300003)"><g id="g1760" inkscape:label="34">
      <rect y="114.3" x="25.4" height="38.099998" width="38.099998" id="rect827" style="fill:none;stroke-width:0;stroke-linecap:round;stroke-miterlimit:44.95529938;paint-order:markers fill stroke"/>
      <circle r="6.3499999" cy="120.65" cx="44.450001" id="path1069" style="fill:#800000;stroke-width:0;stroke-linecap:round;stroke-miterlimit:44.95529938;paint-order:markers fill stroke"/>
      <circle r="6.3499999" cy="133.35001" cx="44.450001" id="circle1073" style="fill:#800000;stroke-width:0;stroke-linecap:round;stroke-miterlimit:44.95529938;paint-order:markers fill stroke"/>
      <circle style="fill:#800000;stroke-width:0;stroke-linecap:round;stroke-miterlimit:44.95529938;paint-order:markers fill stroke" id="circle1075" cx="44.450001" cy="146.05" r="6.3499999"/>
      <g id="text1304" style="font-style:normal;font-variant:normal;font-weight:bold;font-stretch:normal;font-size:6.3499999px;line-height:100%;font-family:'Century Gothic';-inkscape-font-specification:'Century Gothic Bold';text-align:end;letter-spacing:0px;word-spacing:0px;writing-mode:lr-tb;text-anchor:end;stroke-width:0.26458332" aria-label="3-1">
        <path id="path1328" style="font-style:normal;font-variant:normal;font-weight:bold;font-stretch:normal;font-size:6.3499999px;font-family:'Century Gothic';-inkscape-font-specification:'Century Gothic Bold';text-align:end;text-anchor:end;stroke-width:0.26458332" d="M 53.333177,147.37705 H 52.49912 q 0.06511,-0.50539 0.362768,-0.81235 0.415479,-0.42788 1.044898,-0.42788 0.561206,0 0.939477,0.35656 0.381372,0.35657 0.381372,0.84646 0,0.30386 -0.167431,0.55501 -0.164331,0.25115 -0.480591,0.40618 0.415478,0.12402 0.648022,0.43408 0.235645,0.30696 0.235645,0.72553 0,0.61392 -0.452686,1.0418 -0.452685,0.42478 -1.153418,0.42478 -0.663525,0 -1.082104,-0.39997 -0.418579,-0.40308 -0.458887,-1.09451 h 0.858862 q 0.05581,0.35347 0.244947,0.5271 0.192236,0.17053 0.483691,0.17053 0.303858,0 0.502295,-0.19534 0.201538,-0.19533 0.201538,-0.47749 0,-0.31005 -0.269751,-0.524 -0.269751,-0.21394 -0.778247,-0.22014 v -0.74414 q 0.313159,-0.0248 0.465088,-0.0961 0.155029,-0.0744 0.238745,-0.20153 0.08682,-0.12713 0.08682,-0.26975 0,-0.18604 -0.130224,-0.30696 -0.130225,-0.12403 -0.341065,-0.12403 -0.186035,0 -0.337963,0.11473 -0.151929,0.11162 -0.20774,0.29145 z"/>
        <path id="path1330" style="font-style:normal;font-variant:normal;font-weight:bold;font-stretch:normal;font-size:6.3499999px;font-family:'Century Gothic';-inkscape-font-specification:'Century Gothic Bold';text-align:end;text-anchor:end;stroke-width:0.26458332" d="m 56.232225,148.73821 h 1.575098 v 0.78755 h -1.575098 z"/>
        <path id="path1332" style="font-style:normal;font-variant:normal;font-weight:bold;font-stretch:normal;font-size:6.3499999px;font-family:'Century Gothic';-inkscape-font-specification:'Century Gothic Bold';text-align:end;text-anchor:end;stroke-width:0.26458332" d="m 59.397923,146.25154 h 1.299146 v 4.56096 h -0.861963 v -3.74551 h -0.939478 z"/>
      </g>
    </g>
    </g></svg>
