<?xml version='1.0' encoding='UTF-8'?>
<!-- Created with Inkscape (http://www.inkscape.org/) and export_objects.py -->
<svg xmlns:cc="http://creativecommons.org/ns#" xmlns:dc="http://purl.org/dc/elements/1.1/" xmlns:inkscape="http://www.inkscape.org/namespaces/inkscape" xmlns:rdf="http://www.w3.org/1999/02/22-rdf-syntax-ns#" xmlns:sodipodi="http://sodipodi.sourceforge.net/DTD/sodipodi-0.dtd" xmlns:xlink="http://www.w3.org/1999/xlink" xmlns="http://www.w3.org/2000/svg" version="1.1" width="107.9999925pt" height="108.0000825pt" viewBox="0 0 38.0999973542 38.1000291042" id="svg8" inkscape:version="0.92.3 (2405546, 2018-03-11)" sodipodi:docname="tile-10.svg"><sodipodi:namedview id="base" pagecolor="#ffffff" bordercolor="#666666" borderopacity="1.0" inkscape:pageopacity="0.0" inkscape:pageshadow="2" inkscape:zoom="0.67119558" inkscape:cx="647.99999" inkscape:cy="776.95238" inkscape:document-units="pt" inkscape:current-layer="layer6" showgrid="false" units="pt" inkscape:snap-object-midpoints="true" inkscape:snap-grids="true" inkscape:snap-smooth-nodes="true" showguides="false" inkscape:guide-bbox="true" inkscape:snap-text-baseline="true" inkscape:window-width="1920" inkscape:window-height="1006" inkscape:window-x="1909" inkscape:window-y="-11" inkscape:window-maximized="1">
    <inkscape:grid type="xygrid" id="grid815" units="pt" spacingx="1.5875" spacingy="1.5875"/>
  </sodipodi:namedview>
  <metadata id="metadata5">
    <rdf:RDF>
      <cc:Work rdf:about="">
        <dc:format>image/svg+xml</dc:format>
        <dc:type rdf:resource="http://purl.org/dc/dcmitype/StillImage"/>
        <dc:title/>
      </cc:Work>
    </rdf:RDF>
  </metadata>
  <g inkscape:groupmode="layer" inkscape:label="tile-" transform="matrix(1.000000,0.000000,0.000000,1.000000,-228.600005,-114.300003)"><g id="g1822" inkscape:label="10">
      <rect y="114.30003" x="228.60001" height="38.099998" width="38.099998" id="rect875" style="fill:none;stroke-width:0;stroke-linecap:round;stroke-miterlimit:44.95529938;paint-order:markers fill stroke"/>
      <circle r="6.3499999" cy="120.65" cx="247.64999" id="circle1035" style="fill:#808000;stroke-width:0;stroke-linecap:round;stroke-miterlimit:44.95529938;paint-order:markers fill stroke"/>
      <circle style="fill:#808000;stroke-width:0;stroke-linecap:round;stroke-miterlimit:44.95529938;paint-order:markers fill stroke" id="circle1037" cx="247.64999" cy="133.35001" r="6.3499999"/>
      <circle r="6.3499999" cy="146.05" cx="247.64999" id="circle1039" style="fill:#808000;stroke-width:0;stroke-linecap:round;stroke-miterlimit:44.95529938;paint-order:markers fill stroke"/>
      <g id="text1208" style="font-style:normal;font-variant:normal;font-weight:bold;font-stretch:normal;font-size:6.3499999px;line-height:100%;font-family:'Century Gothic';-inkscape-font-specification:'Century Gothic Bold';text-align:end;letter-spacing:0px;word-spacing:0px;writing-mode:lr-tb;text-anchor:end;stroke-width:0.26458332" aria-label="3-5">
        <path id="path1496" style="font-style:normal;font-variant:normal;font-weight:bold;font-stretch:normal;font-size:6.3499999px;font-family:'Century Gothic';-inkscape-font-specification:'Century Gothic Bold';text-align:end;text-anchor:end;stroke-width:0.26458332" d="m 256.53317,147.37705 h -0.83406 q 0.0651,-0.50539 0.36277,-0.81235 0.41548,-0.42788 1.0449,-0.42788 0.5612,0 0.93947,0.35656 0.38137,0.35657 0.38137,0.84646 0,0.30386 -0.16743,0.55501 -0.16433,0.25115 -0.48059,0.40618 0.41548,0.12402 0.64802,0.43408 0.23565,0.30696 0.23565,0.72553 0,0.61392 -0.45269,1.0418 -0.45268,0.42478 -1.15341,0.42478 -0.66353,0 -1.08211,-0.39997 -0.41858,-0.40308 -0.45889,-1.09451 h 0.85887 q 0.0558,0.35347 0.24494,0.5271 0.19224,0.17053 0.48369,0.17053 0.30386,0 0.5023,-0.19534 0.20154,-0.19533 0.20154,-0.47749 0,-0.31005 -0.26975,-0.524 -0.26975,-0.21394 -0.77825,-0.22014 v -0.74414 q 0.31316,-0.0248 0.46509,-0.0961 0.15503,-0.0744 0.23874,-0.20153 0.0868,-0.12713 0.0868,-0.26975 0,-0.18604 -0.13023,-0.30696 -0.13022,-0.12403 -0.34106,-0.12403 -0.18604,0 -0.33796,0.11473 -0.15193,0.11162 -0.20774,0.29145 z"/>
        <path id="path1498" style="font-style:normal;font-variant:normal;font-weight:bold;font-stretch:normal;font-size:6.3499999px;font-family:'Century Gothic';-inkscape-font-specification:'Century Gothic Bold';text-align:end;text-anchor:end;stroke-width:0.26458332" d="m 259.43221,148.73821 h 1.5751 v 0.78755 h -1.5751 z"/>
        <path id="path1500" style="font-style:normal;font-variant:normal;font-weight:bold;font-stretch:normal;font-size:6.3499999px;font-family:'Century Gothic';-inkscape-font-specification:'Century Gothic Bold';text-align:end;text-anchor:end;stroke-width:0.26458332" d="m 262.61342,146.25154 h 2.1363 v 0.79995 h -1.48828 l -0.18604,0.83096 q 0.0775,-0.0217 0.15193,-0.031 0.0744,-0.0124 0.14263,-0.0124 0.62012,0 1.02939,0.42478 0.41238,0.42168 0.41238,1.0821 0,0.66663 -0.45579,1.12552 -0.45268,0.45578 -1.1038,0.45578 -0.58291,0 -1.00149,-0.33176 -0.41858,-0.33176 -0.54881,-0.90847 h 0.91158 q 0.10542,0.21394 0.27595,0.32556 0.17363,0.10852 0.38137,0.10852 0.28835,0 0.48989,-0.20774 0.20154,-0.20774 0.20154,-0.5333 0,-0.31626 -0.18914,-0.5178 -0.18603,-0.20464 -0.45268,-0.20464 -0.14263,0 -0.28215,0.0713 -0.13643,0.0713 -0.26976,0.21394 l -0.70693,-0.15813 z"/>
      </g>
    </g>
    </g></svg>
