<?xml version='1.0' encoding='UTF-8'?>
<!-- Created with Inkscape (http://www.inkscape.org/) and export_objects.py -->
<svg xmlns:cc="http://creativecommons.org/ns#" xmlns:dc="http://purl.org/dc/elements/1.1/" xmlns:inkscape="http://www.inkscape.org/namespaces/inkscape" xmlns:rdf="http://www.w3.org/1999/02/22-rdf-syntax-ns#" xmlns:sodipodi="http://sodipodi.sourceforge.net/DTD/sodipodi-0.dtd" xmlns:xlink="http://www.w3.org/1999/xlink" xmlns="http://www.w3.org/2000/svg" version="1.1" width="108.0000225pt" height="107.9999925pt" viewBox="0 0 38.1000079375 38.0999973542" id="svg8" inkscape:version="0.92.3 (2405546, 2018-03-11)" sodipodi:docname="tile-07.svg"><sodipodi:namedview id="base" pagecolor="#ffffff" bordercolor="#666666" borderopacity="1.0" inkscape:pageopacity="0.0" inkscape:pageshadow="2" inkscape:zoom="0.67119558" inkscape:cx="647.99999" inkscape:cy="776.95238" inkscape:document-units="pt" inkscape:current-layer="layer6" showgrid="false" units="pt" inkscape:snap-object-midpoints="true" inkscape:snap-grids="true" inkscape:snap-smooth-nodes="true" showguides="false" inkscape:guide-bbox="true" inkscape:snap-text-baseline="true" inkscape:window-width="1920" inkscape:window-height="1006" inkscape:window-x="1909" inkscape:window-y="-11" inkscape:window-maximized="1">
    <inkscape:grid type="xygrid" id="grid815" units="pt" spacingx="1.5875" spacingy="1.5875"/>
  </sodipodi:namedview>
  <metadata id="metadata5">
    <rdf:RDF>
      <cc:Work rdf:about="">
        <dc:format>image/svg+xml</dc:format>
        <dc:type rdf:resource="http://purl.org/dc/dcmitype/StillImage"/>
        <dc:title/>
      </cc:Work>
    </rdf:RDF>
  </metadata>
  <g inkscape:groupmode="layer" inkscape:label="tile-" transform="matrix(1.000000,0.000000,0.000000,1.000000,-228.599997,-266.699974)"><g id="g2044" inkscape:label="07">
      <rect style="fill:none;stroke-width:0;stroke-linecap:round;stroke-miterlimit:44.95529938;paint-order:markers fill stroke" id="rect881" width="38.099998" height="38.099998" x="228.60001" y="266.69998"/>
      <circle r="6.3499999" cy="285.75" cx="234.95" id="circle977" style="fill:#808000;stroke-width:0;stroke-linecap:round;stroke-miterlimit:44.95529938;paint-order:markers fill stroke"/>
      <circle style="fill:#808000;stroke-width:0;stroke-linecap:round;stroke-miterlimit:44.95529938;paint-order:markers fill stroke" id="circle979" cx="247.64999" cy="285.75" r="6.3499999"/>
      <circle r="6.3499999" cy="285.75" cx="260.35001" id="circle981" style="fill:#808000;stroke-width:0;stroke-linecap:round;stroke-miterlimit:44.95529938;paint-order:markers fill stroke"/>
      <g id="text1196" style="font-style:normal;font-variant:normal;font-weight:bold;font-stretch:normal;font-size:6.3499999px;line-height:100%;font-family:'Century Gothic';-inkscape-font-specification:'Century Gothic Bold';text-align:end;letter-spacing:0px;word-spacing:0px;writing-mode:lr-tb;text-anchor:end;stroke-width:0.26458332" aria-label="6-5">
        <path id="path1517" style="font-style:normal;font-variant:normal;font-weight:bold;font-stretch:normal;font-size:6.3499999px;font-family:'Century Gothic';-inkscape-font-specification:'Century Gothic Bold';text-align:end;text-anchor:end;stroke-width:0.26458332" d="m 257.16879,298.53681 0.73794,0.36897 -0.79685,1.55029 q 0.57981,0 0.98598,0.41548 0.40618,0.41548 0.40618,1.0325 0,0.59531 -0.41858,1.01079 -0.41548,0.41238 -1.00459,0.41238 -0.61702,0 -1.02939,-0.42789 -0.40928,-0.43098 -0.40928,-0.98598 0,-0.21084 0.062,-0.42478 0.0651,-0.21394 0.29456,-0.65733 z m -0.10852,2.74092 q -0.24185,0 -0.40618,0.17673 -0.16433,0.17363 -0.16433,0.43718 0,0.26355 0.17053,0.44339 0.17363,0.17983 0.40308,0.17983 0.24184,0 0.41548,-0.17673 0.17363,-0.17673 0.17363,-0.44649 0,-0.26355 -0.17053,-0.43718 -0.16744,-0.17673 -0.42168,-0.17673 z"/>
        <path id="path1519" style="font-style:normal;font-variant:normal;font-weight:bold;font-stretch:normal;font-size:6.3499999px;font-family:'Century Gothic';-inkscape-font-specification:'Century Gothic Bold';text-align:end;text-anchor:end;stroke-width:0.26458332" d="m 259.43221,301.1382 h 1.5751 v 0.78755 h -1.5751 z"/>
        <path id="path1521" style="font-style:normal;font-variant:normal;font-weight:bold;font-stretch:normal;font-size:6.3499999px;font-family:'Century Gothic';-inkscape-font-specification:'Century Gothic Bold';text-align:end;text-anchor:end;stroke-width:0.26458332" d="m 262.61342,298.65153 h 2.1363 v 0.79995 h -1.48828 l -0.18604,0.83096 q 0.0775,-0.0217 0.15193,-0.031 0.0744,-0.0124 0.14263,-0.0124 0.62012,0 1.02939,0.42478 0.41238,0.42168 0.41238,1.08211 0,0.66662 -0.45579,1.12551 -0.45268,0.45579 -1.1038,0.45579 -0.58291,0 -1.00149,-0.33177 -0.41858,-0.33176 -0.54881,-0.90847 h 0.91158 q 0.10542,0.21394 0.27595,0.32556 0.17363,0.10852 0.38137,0.10852 0.28835,0 0.48989,-0.20774 0.20154,-0.20774 0.20154,-0.5333 0,-0.31626 -0.18914,-0.51779 -0.18603,-0.20464 -0.45268,-0.20464 -0.14263,0 -0.28215,0.0713 -0.13643,0.0713 -0.26976,0.21394 l -0.70693,-0.15813 z"/>
      </g>
    </g>
    </g></svg>
