<?xml version='1.0' encoding='UTF-8'?>
<!-- Created with Inkscape (http://www.inkscape.org/) and export_objects.py -->
<svg xmlns:cc="http://creativecommons.org/ns#" xmlns:dc="http://purl.org/dc/elements/1.1/" xmlns:inkscape="http://www.inkscape.org/namespaces/inkscape" xmlns:rdf="http://www.w3.org/1999/02/22-rdf-syntax-ns#" xmlns:sodipodi="http://sodipodi.sourceforge.net/DTD/sodipodi-0.dtd" xmlns:xlink="http://www.w3.org/1999/xlink" xmlns="http://www.w3.org/2000/svg" version="1.1" width="108.0pt" height="107.9999925pt" viewBox="0 0 38.1 38.0999973542" id="svg8" inkscape:version="0.92.3 (2405546, 2018-03-11)" sodipodi:docname="tile-26.svg"><sodipodi:namedview id="base" pagecolor="#ffffff" bordercolor="#666666" borderopacity="1.0" inkscape:pageopacity="0.0" inkscape:pageshadow="2" inkscape:zoom="0.67119558" inkscape:cx="647.99999" inkscape:cy="776.95238" inkscape:document-units="pt" inkscape:current-layer="layer6" showgrid="false" units="pt" inkscape:snap-object-midpoints="true" inkscape:snap-grids="true" inkscape:snap-smooth-nodes="true" showguides="false" inkscape:guide-bbox="true" inkscape:snap-text-baseline="true" inkscape:window-width="1920" inkscape:window-height="1006" inkscape:window-x="1909" inkscape:window-y="-11" inkscape:window-maximized="1">
    <inkscape:grid type="xygrid" id="grid815" units="pt" spacingx="1.5875" spacingy="1.5875"/>
  </sodipodi:namedview>
  <metadata id="metadata5">
    <rdf:RDF>
      <cc:Work rdf:about="">
        <dc:format>image/svg+xml</dc:format>
        <dc:type rdf:resource="http://purl.org/dc/dcmitype/StillImage"/>
        <dc:title/>
      </cc:Work>
    </rdf:RDF>
  </metadata>
  <g inkscape:groupmode="layer" inkscape:label="tile-" transform="matrix(1.000000,0.000000,0.000000,1.000000,-76.199997,-215.899979)"><g id="g1952" inkscape:label="26">
      <rect style="fill:none;stroke-width:0;stroke-linecap:round;stroke-miterlimit:44.95529938;paint-order:markers fill stroke" id="rect843" width="38.099998" height="38.099998" x="76.199997" y="215.89998"/>
      <circle r="6.3499999" cy="222.25" cx="95.25" id="circle1021" style="fill:#808000;stroke-width:0;stroke-linecap:round;stroke-miterlimit:44.95529938;paint-order:markers fill stroke"/>
      <circle style="fill:#808000;stroke-width:0;stroke-linecap:round;stroke-miterlimit:44.95529938;paint-order:markers fill stroke" id="circle1023" cx="95.25" cy="234.95001" r="6.3499999"/>
      <circle r="6.3499999" cy="234.95001" cx="107.95" id="circle1025" style="fill:#808000;stroke-width:0;stroke-linecap:round;stroke-miterlimit:44.95529938;paint-order:markers fill stroke"/>
      <g id="text1272" style="font-style:normal;font-variant:normal;font-weight:bold;font-stretch:normal;font-size:6.3499999px;line-height:100%;font-family:'Century Gothic';-inkscape-font-specification:'Century Gothic Bold';text-align:end;letter-spacing:0px;word-spacing:0px;writing-mode:lr-tb;text-anchor:end;stroke-width:0.26458332" aria-label="5-2">
        <path id="path1384" style="font-style:normal;font-variant:normal;font-weight:bold;font-stretch:normal;font-size:6.3499999px;font-family:'Century Gothic';-inkscape-font-specification:'Century Gothic Bold';text-align:end;text-anchor:end;stroke-width:0.26458332" d="m 103.98745,247.85154 h 2.13631 v 0.79996 h -1.48828 l -0.18604,0.83095 q 0.0775,-0.0217 0.15193,-0.031 0.0744,-0.0124 0.14263,-0.0124 0.62011,0 1.02939,0.42478 0.41238,0.42168 0.41238,1.08211 0,0.66662 -0.45579,1.12551 -0.45268,0.45579 -1.10381,0.45579 -0.58291,0 -1.00149,-0.33176 -0.41857,-0.33177 -0.5488,-0.90848 h 0.91157 q 0.10542,0.21394 0.27595,0.32556 0.17364,0.10853 0.38138,0.10853 0.28835,0 0.48989,-0.20774 0.20154,-0.20774 0.20154,-0.5333 0,-0.31626 -0.18914,-0.5178 -0.18603,-0.20464 -0.45268,-0.20464 -0.14263,0 -0.28216,0.0713 -0.13642,0.0713 -0.26975,0.21394 l -0.70693,-0.15813 z"/>
        <path id="path1386" style="font-style:normal;font-variant:normal;font-weight:bold;font-stretch:normal;font-size:6.3499999px;font-family:'Century Gothic';-inkscape-font-specification:'Century Gothic Bold';text-align:end;text-anchor:end;stroke-width:0.26458332" d="m 107.03223,250.33821 h 1.5751 v 0.78755 h -1.5751 z"/>
        <path id="path1388" style="font-style:normal;font-variant:normal;font-weight:bold;font-stretch:normal;font-size:6.3499999px;font-family:'Century Gothic';-inkscape-font-specification:'Century Gothic Bold';text-align:end;text-anchor:end;stroke-width:0.26458332" d="m 110.25994,249.32122 h -0.84646 q 0.0341,-0.73794 0.46199,-1.15962 0.43098,-0.42478 1.1038,-0.42478 0.41548,0 0.73174,0.17674 0.31936,0.17363 0.5085,0.50539 0.19223,0.32866 0.19223,0.66973 0,0.40617 -0.23254,0.87436 -0.22944,0.46819 -0.84336,1.10691 l -0.5116,0.5395 h 1.62471 v 0.80306 h -3.1595 v -0.41548 l 1.41077,-1.43867 q 0.5116,-0.5178 0.67903,-0.83096 0.17053,-0.31626 0.17053,-0.57051 0,-0.26355 -0.17673,-0.43408 -0.17363,-0.17363 -0.44959,-0.17363 -0.27905,0 -0.46508,0.20774 -0.18604,0.20773 -0.19844,0.5643 z"/>
      </g>
    </g>
    </g></svg>
