<?xml version='1.0' encoding='UTF-8'?>
<!-- Created with Inkscape (http://www.inkscape.org/) and export_objects.py -->
<svg xmlns:cc="http://creativecommons.org/ns#" xmlns:dc="http://purl.org/dc/elements/1.1/" xmlns:inkscape="http://www.inkscape.org/namespaces/inkscape" xmlns:rdf="http://www.w3.org/1999/02/22-rdf-syntax-ns#" xmlns:sodipodi="http://sodipodi.sourceforge.net/DTD/sodipodi-0.dtd" xmlns:xlink="http://www.w3.org/1999/xlink" xmlns="http://www.w3.org/2000/svg" version="1.1" width="107.9999925pt" height="108.000045pt" viewBox="0 0 38.0999973542 38.100015875" id="svg8" inkscape:version="0.92.3 (2405546, 2018-03-11)" sodipodi:docname="tile-28.svg"><sodipodi:namedview id="base" pagecolor="#ffffff" bordercolor="#666666" borderopacity="1.0" inkscape:pageopacity="0.0" inkscape:pageshadow="2" inkscape:zoom="0.67119558" inkscape:cx="647.99999" inkscape:cy="776.95238" inkscape:document-units="pt" inkscape:current-layer="layer6" showgrid="false" units="pt" inkscape:snap-object-midpoints="true" inkscape:snap-grids="true" inkscape:snap-smooth-nodes="true" showguides="false" inkscape:guide-bbox="true" inkscape:snap-text-baseline="true" inkscape:window-width="1920" inkscape:window-height="1006" inkscape:window-x="1909" inkscape:window-y="-11" inkscape:window-maximized="1">
    <inkscape:grid type="xygrid" id="grid815" units="pt" spacingx="1.5875" spacingy="1.5875"/>
  </sodipodi:namedview>
  <metadata id="metadata5">
    <rdf:RDF>
      <cc:Work rdf:about="">
        <dc:format>image/svg+xml</dc:format>
        <dc:type rdf:resource="http://purl.org/dc/dcmitype/StillImage"/>
        <dc:title/>
      </cc:Work>
    </rdf:RDF>
  </metadata>
  <g inkscape:groupmode="layer" inkscape:label="tile-" transform="matrix(1.000000,0.000000,0.000000,1.000000,-76.199997,-114.299987)"><g id="g1774" inkscape:label="28">
      <rect style="fill:none;stroke-width:0;stroke-linecap:round;stroke-miterlimit:44.95529938;paint-order:markers fill stroke" id="rect839" width="38.099998" height="38.099998" x="76.199997" y="114.29999"/>
      <circle r="6.3499999" cy="120.65" cx="95.25" id="circle1013" style="fill:#808000;stroke-width:0;stroke-linecap:round;stroke-miterlimit:44.95529938;paint-order:markers fill stroke"/>
      <circle style="fill:#808000;stroke-width:0;stroke-linecap:round;stroke-miterlimit:44.95529938;paint-order:markers fill stroke" id="circle1015" cx="95.25" cy="133.35001" r="6.3499999"/>
      <circle r="6.3499999" cy="146.05" cx="95.25" id="circle1017" style="fill:#808000;stroke-width:0;stroke-linecap:round;stroke-miterlimit:44.95529938;paint-order:markers fill stroke"/>
      <g id="text1280" style="font-style:normal;font-variant:normal;font-weight:bold;font-stretch:normal;font-size:6.3499999px;line-height:100%;font-family:'Century Gothic';-inkscape-font-specification:'Century Gothic Bold';text-align:end;letter-spacing:0px;word-spacing:0px;writing-mode:lr-tb;text-anchor:end;stroke-width:0.26458332" aria-label="3-2">
        <path id="path1370" style="font-style:normal;font-variant:normal;font-weight:bold;font-stretch:normal;font-size:6.3499999px;font-family:'Century Gothic';-inkscape-font-specification:'Century Gothic Bold';text-align:end;text-anchor:end;stroke-width:0.26458332" d="m 104.13318,147.37705 h -0.83406 q 0.0651,-0.50539 0.36277,-0.81235 0.41548,-0.42788 1.0449,-0.42788 0.5612,0 0.93948,0.35656 0.38137,0.35657 0.38137,0.84646 0,0.30386 -0.16743,0.55501 -0.16433,0.25115 -0.48059,0.40618 0.41547,0.12402 0.64802,0.43408 0.23564,0.30696 0.23564,0.72553 0,0.61392 -0.45268,1.0418 -0.45269,0.42478 -1.15342,0.42478 -0.66353,0 -1.08211,-0.39997 -0.41857,-0.40308 -0.45888,-1.09451 h 0.85886 q 0.0558,0.35347 0.24495,0.5271 0.19223,0.17053 0.48369,0.17053 0.30386,0 0.50229,-0.19534 0.20154,-0.19533 0.20154,-0.47749 0,-0.31005 -0.26975,-0.524 -0.26975,-0.21394 -0.77825,-0.22014 v -0.74414 q 0.31316,-0.0248 0.46509,-0.0961 0.15503,-0.0744 0.23875,-0.20153 0.0868,-0.12713 0.0868,-0.26975 0,-0.18604 -0.13022,-0.30696 -0.13023,-0.12403 -0.34107,-0.12403 -0.18603,0 -0.33796,0.11473 -0.15193,0.11162 -0.20774,0.29145 z"/>
        <path id="path1372" style="font-style:normal;font-variant:normal;font-weight:bold;font-stretch:normal;font-size:6.3499999px;font-family:'Century Gothic';-inkscape-font-specification:'Century Gothic Bold';text-align:end;text-anchor:end;stroke-width:0.26458332" d="m 107.03223,148.73821 h 1.5751 v 0.78755 h -1.5751 z"/>
        <path id="path1374" style="font-style:normal;font-variant:normal;font-weight:bold;font-stretch:normal;font-size:6.3499999px;font-family:'Century Gothic';-inkscape-font-specification:'Century Gothic Bold';text-align:end;text-anchor:end;stroke-width:0.26458332" d="m 110.25994,147.72122 h -0.84646 q 0.0341,-0.73794 0.46199,-1.15962 0.43098,-0.42478 1.1038,-0.42478 0.41548,0 0.73174,0.17673 0.31936,0.17363 0.5085,0.5054 0.19223,0.32866 0.19223,0.66972 0,0.40618 -0.23254,0.87437 -0.22944,0.46819 -0.84336,1.10691 l -0.5116,0.5395 h 1.62471 v 0.80305 h -3.1595 v -0.41548 l 1.41077,-1.43867 q 0.5116,-0.5178 0.67903,-0.83096 0.17053,-0.31626 0.17053,-0.57051 0,-0.26354 -0.17673,-0.43408 -0.17363,-0.17363 -0.44959,-0.17363 -0.27905,0 -0.46508,0.20774 -0.18604,0.20774 -0.19844,0.56431 z"/>
      </g>
    </g>
    </g></svg>
