<?xml version='1.0' encoding='UTF-8'?>
<!-- Created with Inkscape (http://www.inkscape.org/) and export_objects.py -->
<svg xmlns:cc="http://creativecommons.org/ns#" xmlns:dc="http://purl.org/dc/elements/1.1/" xmlns:inkscape="http://www.inkscape.org/namespaces/inkscape" xmlns:rdf="http://www.w3.org/1999/02/22-rdf-syntax-ns#" xmlns:sodipodi="http://sodipodi.sourceforge.net/DTD/sodipodi-0.dtd" xmlns:xlink="http://www.w3.org/1999/xlink" xmlns="http://www.w3.org/2000/svg" version="1.1" width="108.0pt" height="108.0000075pt" viewBox="0 0 38.1 38.1000026458" id="svg8" inkscape:version="0.92.3 (2405546, 2018-03-11)" sodipodi:docname="tile-22.svg"><sodipodi:namedview id="base" pagecolor="#ffffff" bordercolor="#666666" borderopacity="1.0" inkscape:pageopacity="0.0" inkscape:pageshadow="2" inkscape:zoom="0.67119558" inkscape:cx="647.99999" inkscape:cy="776.95238" inkscape:document-units="pt" inkscape:current-layer="layer6" showgrid="false" units="pt" inkscape:snap-object-midpoints="true" inkscape:snap-grids="true" inkscape:snap-smooth-nodes="true" showguides="false" inkscape:guide-bbox="true" inkscape:snap-text-baseline="true" inkscape:window-width="1920" inkscape:window-height="1006" inkscape:window-x="1909" inkscape:window-y="-11" inkscape:window-maximized="1">
    <inkscape:grid type="xygrid" id="grid815" units="pt" spacingx="1.5875" spacingy="1.5875"/>
  </sodipodi:namedview>
  <metadata id="metadata5">
    <rdf:RDF>
      <cc:Work rdf:about="">
        <dc:format>image/svg+xml</dc:format>
        <dc:type rdf:resource="http://purl.org/dc/dcmitype/StillImage"/>
        <dc:title/>
      </cc:Work>
    </rdf:RDF>
  </metadata>
  <g inkscape:groupmode="layer" inkscape:label="tile-" transform="matrix(1.000000,0.000000,0.000000,1.000000,-127.000000,-114.300003)"><g id="g1792" inkscape:label="22">
      <rect y="114.3" x="127" height="38.099998" width="38.099998" id="rect851" style="fill:none;stroke-width:0;stroke-linecap:round;stroke-miterlimit:44.95529938;paint-order:markers fill stroke"/>
      <circle r="6.3499999" cy="133.35001" cx="133.35001" id="circle935" style="fill:#008000;stroke-width:0;stroke-linecap:round;stroke-miterlimit:44.95529938;paint-order:markers fill stroke"/>
      <circle style="fill:#008000;stroke-width:0;stroke-linecap:round;stroke-miterlimit:44.95529938;paint-order:markers fill stroke" id="circle937" cx="146.05" cy="120.65" r="6.3499999"/>
      <circle r="6.3499999" cy="133.35001" cx="146.05" id="circle1053" style="fill:#808000;stroke-width:0;stroke-linecap:round;stroke-miterlimit:44.95529938;paint-order:markers fill stroke"/>
      <circle style="fill:#800000;stroke-width:0;stroke-linecap:round;stroke-miterlimit:44.95529938;paint-order:markers fill stroke" id="circle1125" cx="146.05" cy="146.05" r="6.3499999"/>
      <circle r="6.3499999" cy="133.35001" cx="158.75" id="circle1127" style="fill:#800000;stroke-width:0;stroke-linecap:round;stroke-miterlimit:44.95529938;paint-order:markers fill stroke"/>
      <g id="text1256" style="font-style:normal;font-variant:normal;font-weight:bold;font-stretch:normal;font-size:6.3499999px;line-height:100%;font-family:'Century Gothic';-inkscape-font-specification:'Century Gothic Bold';text-align:end;letter-spacing:0px;word-spacing:0px;writing-mode:lr-tb;text-anchor:end;stroke-width:0.26458332" aria-label="3-3">
        <path id="path1412" style="font-style:normal;font-variant:normal;font-weight:bold;font-stretch:normal;font-size:6.3499999px;font-family:'Century Gothic';-inkscape-font-specification:'Century Gothic Bold';text-align:end;text-anchor:end;stroke-width:0.26458332" d="m 154.93318,147.37705 h -0.83406 q 0.0651,-0.50539 0.36277,-0.81235 0.41548,-0.42788 1.04489,-0.42788 0.56121,0 0.93948,0.35656 0.38137,0.35657 0.38137,0.84646 0,0.30386 -0.16743,0.55501 -0.16433,0.25115 -0.48059,0.40618 0.41548,0.12402 0.64802,0.43408 0.23565,0.30696 0.23565,0.72553 0,0.61392 -0.45269,1.0418 -0.45268,0.42478 -1.15342,0.42478 -0.66352,0 -1.0821,-0.39997 -0.41858,-0.40308 -0.45889,-1.09451 h 0.85887 q 0.0558,0.35347 0.24494,0.5271 0.19224,0.17053 0.48369,0.17053 0.30386,0 0.5023,-0.19534 0.20154,-0.19533 0.20154,-0.47749 0,-0.31005 -0.26975,-0.524 -0.26976,-0.21394 -0.77825,-0.22014 v -0.74414 q 0.31316,-0.0248 0.46509,-0.0961 0.15503,-0.0744 0.23874,-0.20153 0.0868,-0.12713 0.0868,-0.26975 0,-0.18604 -0.13023,-0.30696 -0.13022,-0.12403 -0.34106,-0.12403 -0.18604,0 -0.33796,0.11473 -0.15193,0.11162 -0.20774,0.29145 z"/>
        <path id="path1414" style="font-style:normal;font-variant:normal;font-weight:bold;font-stretch:normal;font-size:6.3499999px;font-family:'Century Gothic';-inkscape-font-specification:'Century Gothic Bold';text-align:end;text-anchor:end;stroke-width:0.26458332" d="m 157.83222,148.73821 h 1.5751 v 0.78755 h -1.5751 z"/>
        <path id="path1416" style="font-style:normal;font-variant:normal;font-weight:bold;font-stretch:normal;font-size:6.3499999px;font-family:'Century Gothic';-inkscape-font-specification:'Century Gothic Bold';text-align:end;text-anchor:end;stroke-width:0.26458332" d="m 161.15915,147.37705 h -0.83406 q 0.0651,-0.50539 0.36277,-0.81235 0.41548,-0.42788 1.0449,-0.42788 0.56121,0 0.93948,0.35656 0.38137,0.35657 0.38137,0.84646 0,0.30386 -0.16743,0.55501 -0.16433,0.25115 -0.48059,0.40618 0.41548,0.12402 0.64802,0.43408 0.23564,0.30696 0.23564,0.72553 0,0.61392 -0.45268,1.0418 -0.45269,0.42478 -1.15342,0.42478 -0.66352,0 -1.0821,-0.39997 -0.41858,-0.40308 -0.45889,-1.09451 h 0.85886 q 0.0558,0.35347 0.24495,0.5271 0.19223,0.17053 0.48369,0.17053 0.30386,0 0.50229,-0.19534 0.20154,-0.19533 0.20154,-0.47749 0,-0.31005 -0.26975,-0.524 -0.26975,-0.21394 -0.77824,-0.22014 v -0.74414 q 0.31315,-0.0248 0.46508,-0.0961 0.15503,-0.0744 0.23875,-0.20153 0.0868,-0.12713 0.0868,-0.26975 0,-0.18604 -0.13022,-0.30696 -0.13022,-0.12403 -0.34106,-0.12403 -0.18604,0 -0.33797,0.11473 -0.15193,0.11162 -0.20774,0.29145 z"/>
      </g>
    </g>
    </g></svg>
