<?xml version='1.0' encoding='UTF-8'?>
<!-- Created with Inkscape (http://www.inkscape.org/) and export_objects.py -->
<svg xmlns:cc="http://creativecommons.org/ns#" xmlns:dc="http://purl.org/dc/elements/1.1/" xmlns:inkscape="http://www.inkscape.org/namespaces/inkscape" xmlns:rdf="http://www.w3.org/1999/02/22-rdf-syntax-ns#" xmlns:sodipodi="http://sodipodi.sourceforge.net/DTD/sodipodi-0.dtd" xmlns:xlink="http://www.w3.org/1999/xlink" xmlns="http://www.w3.org/2000/svg" version="1.1" width="108.0pt" height="107.9999925pt" viewBox="0 0 38.1 38.0999973542" id="svg8" inkscape:version="0.92.3 (2405546, 2018-03-11)" sodipodi:docname="tile-19.svg"><sodipodi:namedview id="base" pagecolor="#ffffff" bordercolor="#666666" borderopacity="1.0" inkscape:pageopacity="0.0" inkscape:pageshadow="2" inkscape:zoom="0.67119558" inkscape:cx="647.99999" inkscape:cy="776.95238" inkscape:document-units="pt" inkscape:current-layer="layer6" showgrid="false" units="pt" inkscape:snap-object-midpoints="true" inkscape:snap-grids="true" inkscape:snap-smooth-nodes="true" showguides="false" inkscape:guide-bbox="true" inkscape:snap-text-baseline="true" inkscape:window-width="1920" inkscape:window-height="1006" inkscape:window-x="1909" inkscape:window-y="-11" inkscape:window-maximized="1">
    <inkscape:grid type="xygrid" id="grid815" units="pt" spacingx="1.5875" spacingy="1.5875"/>
  </sodipodi:namedview>
  <metadata id="metadata5">
    <rdf:RDF>
      <cc:Work rdf:about="">
        <dc:format>image/svg+xml</dc:format>
        <dc:type rdf:resource="http://purl.org/dc/dcmitype/StillImage"/>
        <dc:title/>
      </cc:Work>
    </rdf:RDF>
  </metadata>
  <g inkscape:groupmode="layer" inkscape:label="tile-" transform="matrix(1.000000,0.000000,0.000000,1.000000,-127.000000,-266.699974)"><g id="g2072" inkscape:label="19">
      <rect style="fill:none;stroke-width:0;stroke-linecap:round;stroke-miterlimit:44.95529938;paint-order:markers fill stroke" id="rect857" width="38.099998" height="38.099998" x="127" y="266.69998"/>
      <circle style="fill:#808000;stroke-width:0;stroke-linecap:round;stroke-miterlimit:44.95529938;paint-order:markers fill stroke" id="circle971" cx="133.35001" cy="285.75" r="6.3499999"/>
      <circle r="6.3499999" cy="285.75" cx="146.05" id="circle973" style="fill:#808000;stroke-width:0;stroke-linecap:round;stroke-miterlimit:44.95529938;paint-order:markers fill stroke"/>
      <circle style="fill:#808000;stroke-width:0;stroke-linecap:round;stroke-miterlimit:44.95529938;paint-order:markers fill stroke" id="circle975" cx="158.75" cy="285.75" r="6.3499999"/>
      <g id="text1244" style="font-style:normal;font-variant:normal;font-weight:bold;font-stretch:normal;font-size:6.3499999px;line-height:100%;font-family:'Century Gothic';-inkscape-font-specification:'Century Gothic Bold';text-align:end;letter-spacing:0px;word-spacing:0px;writing-mode:lr-tb;text-anchor:end;stroke-width:0.26458332" aria-label="6-3">
        <path id="path1433" style="font-style:normal;font-variant:normal;font-weight:bold;font-stretch:normal;font-size:6.3499999px;font-family:'Century Gothic';-inkscape-font-specification:'Century Gothic Bold';text-align:end;text-anchor:end;stroke-width:0.26458332" d="m 155.5688,298.53681 0.73794,0.36897 -0.79686,1.55029 q 0.57981,0 0.98599,0.41548 0.40618,0.41548 0.40618,1.0325 0,0.59531 -0.41858,1.01079 -0.41548,0.41238 -1.00459,0.41238 -0.61702,0 -1.0294,-0.42789 -0.40927,-0.43098 -0.40927,-0.98598 0,-0.21084 0.062,-0.42478 0.0651,-0.21394 0.29455,-0.65733 z m -0.10852,2.74092 q -0.24185,0 -0.40618,0.17673 -0.16433,0.17363 -0.16433,0.43718 0,0.26355 0.17053,0.44339 0.17363,0.17983 0.40308,0.17983 0.24184,0 0.41547,-0.17673 0.17364,-0.17673 0.17364,-0.44649 0,-0.26355 -0.17053,-0.43718 -0.16744,-0.17673 -0.42168,-0.17673 z"/>
        <path id="path1435" style="font-style:normal;font-variant:normal;font-weight:bold;font-stretch:normal;font-size:6.3499999px;font-family:'Century Gothic';-inkscape-font-specification:'Century Gothic Bold';text-align:end;text-anchor:end;stroke-width:0.26458332" d="m 157.83222,301.1382 h 1.5751 v 0.78755 h -1.5751 z"/>
        <path id="path1437" style="font-style:normal;font-variant:normal;font-weight:bold;font-stretch:normal;font-size:6.3499999px;font-family:'Century Gothic';-inkscape-font-specification:'Century Gothic Bold';text-align:end;text-anchor:end;stroke-width:0.26458332" d="m 161.15915,299.77704 h -0.83406 q 0.0651,-0.50539 0.36277,-0.81235 0.41548,-0.42788 1.0449,-0.42788 0.56121,0 0.93948,0.35657 0.38137,0.35657 0.38137,0.84646 0,0.30386 -0.16743,0.555 -0.16433,0.25115 -0.48059,0.40618 0.41548,0.12402 0.64802,0.43408 0.23564,0.30696 0.23564,0.72554 0,0.61391 -0.45268,1.0418 -0.45269,0.42478 -1.15342,0.42478 -0.66352,0 -1.0821,-0.39998 -0.41858,-0.40308 -0.45889,-1.09451 h 0.85886 q 0.0558,0.35347 0.24495,0.5271 0.19223,0.17054 0.48369,0.17054 0.30386,0 0.50229,-0.19534 0.20154,-0.19534 0.20154,-0.47749 0,-0.31006 -0.26975,-0.524 -0.26975,-0.21394 -0.77824,-0.22014 v -0.74414 q 0.31315,-0.0248 0.46508,-0.0961 0.15503,-0.0744 0.23875,-0.20154 0.0868,-0.12712 0.0868,-0.26975 0,-0.18604 -0.13022,-0.30696 -0.13022,-0.12402 -0.34106,-0.12402 -0.18604,0 -0.33797,0.11472 -0.15193,0.11162 -0.20774,0.29145 z"/>
      </g>
    </g>
    </g></svg>
