<?xml version='1.0' encoding='UTF-8'?>
<!-- Created with Inkscape (http://www.inkscape.org/) and export_objects.py -->
<svg xmlns:cc="http://creativecommons.org/ns#" xmlns:dc="http://purl.org/dc/elements/1.1/" xmlns:inkscape="http://www.inkscape.org/namespaces/inkscape" xmlns:rdf="http://www.w3.org/1999/02/22-rdf-syntax-ns#" xmlns:sodipodi="http://sodipodi.sourceforge.net/DTD/sodipodi-0.dtd" xmlns:xlink="http://www.w3.org/1999/xlink" xmlns="http://www.w3.org/2000/svg" version="1.1" width="107.9999925pt" height="108.000045pt" viewBox="0 0 38.0999973542 38.100015875" id="svg8" inkscape:version="0.92.3 (2405546, 2018-03-11)" sodipodi:docname="tile-16.svg"><sodipodi:namedview id="base" pagecolor="#ffffff" bordercolor="#666666" borderopacity="1.0" inkscape:pageopacity="0.0" inkscape:pageshadow="2" inkscape:zoom="0.67119558" inkscape:cx="647.99999" inkscape:cy="776.95238" inkscape:document-units="pt" inkscape:current-layer="layer6" showgrid="false" units="pt" inkscape:snap-object-midpoints="true" inkscape:snap-grids="true" inkscape:snap-smooth-nodes="true" showguides="false" inkscape:guide-bbox="true" inkscape:snap-text-baseline="true" inkscape:window-width="1920" inkscape:window-height="1006" inkscape:window-x="1909" inkscape:window-y="-11" inkscape:window-maximized="1">
    <inkscape:grid type="xygrid" id="grid815" units="pt" spacingx="1.5875" spacingy="1.5875"/>
  </sodipodi:namedview>
  <metadata id="metadata5">
    <rdf:RDF>
      <cc:Work rdf:about="">
        <dc:format>image/svg+xml</dc:format>
        <dc:type rdf:resource="http://purl.org/dc/dcmitype/StillImage"/>
        <dc:title/>
      </cc:Work>
    </rdf:RDF>
  </metadata>
  <g inkscape:groupmode="layer" inkscape:label="tile-" transform="matrix(1.000000,0.000000,0.000000,1.000000,-177.800003,-114.300003)"><g id="g1808" inkscape:label="16">
      <rect style="fill:none;stroke-width:0;stroke-linecap:round;stroke-miterlimit:44.95529938;paint-order:markers fill stroke" id="rect863" width="38.099998" height="38.099998" x="177.8" y="114.30002"/>
      <circle r="6.3499999" cy="120.65" cx="196.85001" id="circle1061" style="fill:#808000;stroke-width:0;stroke-linecap:round;stroke-miterlimit:44.95529938;paint-order:markers fill stroke"/>
      <circle style="fill:#808000;stroke-width:0;stroke-linecap:round;stroke-miterlimit:44.95529938;paint-order:markers fill stroke" id="circle1063" cx="196.85001" cy="133.35001" r="6.3499999"/>
      <circle r="6.3499999" cy="146.05" cx="196.85001" id="circle1065" style="fill:#808000;stroke-width:0;stroke-linecap:round;stroke-miterlimit:44.95529938;paint-order:markers fill stroke"/>
      <g id="text1142" style="font-style:normal;font-variant:normal;font-weight:bold;font-stretch:normal;font-size:3.52777767px;line-height:100%;font-family:'Century Gothic';-inkscape-font-specification:'Century Gothic Bold';letter-spacing:0px;word-spacing:0px;writing-mode:lr-tb;fill:#ffffff;stroke-width:0.26458332" aria-label="F">
        <path id="path1566" style="font-style:normal;font-variant:normal;font-weight:bold;font-stretch:normal;font-size:12.69999981px;font-family:'Century Gothic';-inkscape-font-specification:'Century Gothic Bold';fill:#ffffff;stroke-width:0.26458332" d="m 194.58658,116.08904 h 4.52685 v 1.69292 h -2.80913 v 1.65571 h 2.80913 v 1.66811 h -2.80913 v 4.10518 h -1.71772 z"/>
      </g>
      <g id="text1232" style="font-style:normal;font-variant:normal;font-weight:bold;font-stretch:normal;font-size:6.3499999px;line-height:100%;font-family:'Century Gothic';-inkscape-font-specification:'Century Gothic Bold';text-align:end;letter-spacing:0px;word-spacing:0px;writing-mode:lr-tb;text-anchor:end;stroke-width:0.26458332" aria-label="3-4">
        <path id="path1454" style="font-style:normal;font-variant:normal;font-weight:bold;font-stretch:normal;font-size:6.3499999px;font-family:'Century Gothic';-inkscape-font-specification:'Century Gothic Bold';text-align:end;text-anchor:end;stroke-width:0.26458332" d="m 205.73318,147.37705 h -0.83406 q 0.0651,-0.50539 0.36277,-0.81235 0.41548,-0.42788 1.0449,-0.42788 0.5612,0 0.93947,0.35656 0.38138,0.35657 0.38138,0.84646 0,0.30386 -0.16743,0.55501 -0.16434,0.25115 -0.4806,0.40618 0.41548,0.12402 0.64803,0.43408 0.23564,0.30696 0.23564,0.72553 0,0.61392 -0.45268,1.0418 -0.45269,0.42478 -1.15342,0.42478 -0.66353,0 -1.08211,-0.39997 -0.41858,-0.40308 -0.45888,-1.09451 h 0.85886 q 0.0558,0.35347 0.24495,0.5271 0.19223,0.17053 0.48369,0.17053 0.30385,0 0.50229,-0.19534 0.20154,-0.19533 0.20154,-0.47749 0,-0.31005 -0.26975,-0.524 -0.26975,-0.21394 -0.77825,-0.22014 v -0.74414 q 0.31316,-0.0248 0.46509,-0.0961 0.15503,-0.0744 0.23874,-0.20153 0.0868,-0.12713 0.0868,-0.26975 0,-0.18604 -0.13022,-0.30696 -0.13023,-0.12403 -0.34107,-0.12403 -0.18603,0 -0.33796,0.11473 -0.15193,0.11162 -0.20774,0.29145 z"/>
        <path id="path1456" style="font-style:normal;font-variant:normal;font-weight:bold;font-stretch:normal;font-size:6.3499999px;font-family:'Century Gothic';-inkscape-font-specification:'Century Gothic Bold';text-align:end;text-anchor:end;stroke-width:0.26458332" d="m 208.63223,148.73821 h 1.57509 v 0.78755 h -1.57509 z"/>
        <path id="path1458" style="font-style:normal;font-variant:normal;font-weight:bold;font-stretch:normal;font-size:6.3499999px;font-family:'Century Gothic';-inkscape-font-specification:'Century Gothic Bold';text-align:end;text-anchor:end;stroke-width:0.26458332" d="m 212.85522,146.13682 h 0.86817 v 2.93625 h 0.40618 v 0.80305 h -0.40618 v 0.93638 h -0.84956 v -0.93638 h -1.99058 v -0.80305 z m 0.0186,2.93625 v -1.52859 l -1.0418,1.52859 z"/>
      </g>
    </g>
    </g></svg>
