<?xml version='1.0' encoding='UTF-8'?>
<!-- Created with Inkscape (http://www.inkscape.org/) and export_objects.py -->
<svg xmlns:cc="http://creativecommons.org/ns#" xmlns:dc="http://purl.org/dc/elements/1.1/" xmlns:inkscape="http://www.inkscape.org/namespaces/inkscape" xmlns:rdf="http://www.w3.org/1999/02/22-rdf-syntax-ns#" xmlns:sodipodi="http://sodipodi.sourceforge.net/DTD/sodipodi-0.dtd" xmlns:xlink="http://www.w3.org/1999/xlink" xmlns="http://www.w3.org/2000/svg" version="1.1" width="0.75000003125in" height="1.49999979167in" viewBox="0 0 19.0500007937 38.0999947083" id="svg8" inkscape:version="0.92.3 (2405546, 2018-03-11)" sodipodi:docname="club-13.svg"><sodipodi:namedview id="base" pagecolor="#ffffff" bordercolor="#666666" borderopacity="1.0" inkscape:pageopacity="0.0" inkscape:pageshadow="2" inkscape:zoom="0.7644654" inkscape:cx="1581.9145" inkscape:cy="1075.3584" inkscape:document-units="in" inkscape:current-layer="layer3" showgrid="true" units="in" inkscape:snap-others="true" inkscape:snap-grids="true" inkscape:window-width="1280" inkscape:window-height="940" inkscape:window-x="1909" inkscape:window-y="43" inkscape:window-maximized="1" inkscape:snap-midpoints="false" inkscape:object-nodes="true" inkscape:snap-text-baseline="true" inkscape:snap-smooth-nodes="false" showguides="false" inkscape:snap-object-midpoints="true" inkscape:snap-center="true" inkscape:snap-to-guides="false" inkscape:snap-nodes="true" inkscape:snap-intersection-paths="false">
    <inkscape:grid type="xygrid" id="grid10" units="pt" spacingx="3.1750001" spacingy="3.1750001"/>
    <sodipodi:guide position="380.20625,103.1875" orientation="0,1" id="guide9455" inkscape:locked="false"/>
  </sodipodi:namedview>
  <metadata id="metadata5">
    <rdf:RDF>
      <cc:Work rdf:about="">
        <dc:format>image/svg+xml</dc:format>
        <dc:type rdf:resource="http://purl.org/dc/dcmitype/StillImage"/>
        <dc:title/>
      </cc:Work>
    </rdf:RDF>
  </metadata>
  <g inkscape:groupmode="layer" inkscape:label="club-" transform="matrix(1.000000,0.000000,0.000000,1.000000,-282.575000,15.874997)"><g id="g10321" inkscape:label="13">
      <rect y="-15.874997" x="282.57501" height="38.099995" width="19.050001" id="rect8375" style="display:inline;opacity:1;fill:none;fill-opacity:1;stroke:none;stroke-width:0.17638889;stroke-linecap:butt;stroke-linejoin:miter;stroke-miterlimit:47.14606857;stroke-dasharray:none;stroke-dashoffset:0;stroke-opacity:1;paint-order:markers fill stroke"/>
      <path inkscape:export-ydpi="96" inkscape:export-xdpi="96" inkscape:export-filename="C:\mine\Vira\Vira table excerpts\Tourne.png" id="path8491" d="m 292.10005,4.762534 c -1.36657,0 -2.56267,0.91784 -2.91637,2.23782 -0.35367,1.32001 0.22332,2.71293 1.4067,3.39621 -1.18347,-0.68329 -2.67834,-0.4864 -3.64463,0.47989 -0.96629,0.96629 -1.16302,2.46113 -0.47976,3.644611 0.6833,1.18347 2.07625,1.7604 3.39624,1.40673 0.79453,-0.21292 1.44295,-0.73126 1.83361,-1.40808 l -1.21379,4.53032 h 3.236 l -1.21393,-4.53068 c 0.39063,0.67697 1.03905,1.19547 1.83375,1.40846 1.31999,0.35365 2.71305,-0.22335 3.39635,-1.40675 0.68327,-1.183461 0.48642,-2.678321 -0.4799,-3.644611 -0.96629,-0.9663 -2.46116,-1.16317 -3.64463,-0.47989 1.18347,-0.68328 1.76051,-2.07621 1.40684,-3.39621 -0.3537,-1.31998 -1.54994,-2.23781 -2.91648,-2.23782 z" style="opacity:1;fill:#000000;fill-opacity:1;stroke:none;stroke-width:0.07055556;stroke-linecap:butt;stroke-linejoin:miter;stroke-miterlimit:4;stroke-dasharray:none;stroke-dashoffset:0;paint-order:normal" inkscape:connector-curvature="0"/>
      <g id="text8425" style="font-style:normal;font-variant:normal;font-weight:normal;font-stretch:normal;font-size:21.16666794px;line-height:125%;font-family:'Stint Ultra Condensed';-inkscape-font-specification:'Stint Ultra Condensed, ';font-variant-ligatures:normal;font-variant-caps:normal;font-variant-numeric:normal;text-align:center;letter-spacing:0px;word-spacing:0px;writing-mode:lr-tb;text-anchor:middle;fill:#000000;fill-opacity:1;stroke:none;stroke-width:0.26458335" aria-label="3">
        <path id="path9826" style="font-style:normal;font-variant:normal;font-weight:normal;font-stretch:normal;font-size:21.16666794px;font-family:'Stint Ultra Condensed';-inkscape-font-specification:'Stint Ultra Condensed, ';text-align:center;text-anchor:middle;stroke-width:0.26458335" d="m 292.30674,-7.2388067 q 0.82683,0.2067057 1.31258,0.7131348 0.4961,0.4960938 0.74414,1.1368816 0.25839,0.6304525 0.33073,1.3229167 0.0827,0.682129 0.0827,1.2505698 0,1.116211 -0.19637,1.99471038 -0.19637,0.86816411 -0.56845,1.46761076 -0.37207,0.59944666 -0.89917,0.90950526 -0.51676,0.3100586 -1.16788,0.3100586 -0.54777,0 -1.03353,-0.2687174 -0.47542,-0.2583822 -0.83716,-0.84749359 -0.36173,-0.58911136 -0.56844,-1.5192872 -0.20671,-0.94051111 -0.20671,-2.28409841 h 1.27124 q 0,1.9740398 0.3514,2.88354506 0.3514,0.90950527 1.08521,0.90950527 0.40308,0 0.68213,-0.27905275 0.27905,-0.28938804 0.44442,-0.77514654 0.1757,-0.48575849 0.24804,-1.12654624 0.0827,-0.6407878 0.0827,-1.3539227 0,-0.7751465 -0.12402,-1.405599 -0.12402,-0.6407878 -0.40308,-1.0955404 -0.26871,-0.4547527 -0.71313,-0.7027995 -0.44442,-0.2583822 -1.08521,-0.2687175 v -1.116211 l 2.11874,-4.0514323 h -2.56315 v 2.2324218 h -1.12655 v -3.4106448 h 5.14697 v 0.888835 z"/>
      </g>
    </g>
    </g></svg>
