<?xml version='1.0' encoding='UTF-8'?>
<!-- Created with Inkscape (http://www.inkscape.org/) and export_objects.py -->
<svg xmlns:cc="http://creativecommons.org/ns#" xmlns:dc="http://purl.org/dc/elements/1.1/" xmlns:inkscape="http://www.inkscape.org/namespaces/inkscape" xmlns:rdf="http://www.w3.org/1999/02/22-rdf-syntax-ns#" xmlns:sodipodi="http://sodipodi.sourceforge.net/DTD/sodipodi-0.dtd" xmlns:xlink="http://www.w3.org/1999/xlink" xmlns="http://www.w3.org/2000/svg" version="1.1" width="0.75000003125in" height="1.49999979167in" viewBox="0 0 19.0500007937 38.0999947083" id="svg8" inkscape:version="0.92.3 (2405546, 2018-03-11)" sodipodi:docname="club-08.svg"><sodipodi:namedview id="base" pagecolor="#ffffff" bordercolor="#666666" borderopacity="1.0" inkscape:pageopacity="0.0" inkscape:pageshadow="2" inkscape:zoom="0.7644654" inkscape:cx="1581.9145" inkscape:cy="1075.3584" inkscape:document-units="in" inkscape:current-layer="layer3" showgrid="true" units="in" inkscape:snap-others="true" inkscape:snap-grids="true" inkscape:window-width="1280" inkscape:window-height="940" inkscape:window-x="1909" inkscape:window-y="43" inkscape:window-maximized="1" inkscape:snap-midpoints="false" inkscape:object-nodes="true" inkscape:snap-text-baseline="true" inkscape:snap-smooth-nodes="false" showguides="false" inkscape:snap-object-midpoints="true" inkscape:snap-center="true" inkscape:snap-to-guides="false" inkscape:snap-nodes="true" inkscape:snap-intersection-paths="false">
    <inkscape:grid type="xygrid" id="grid10" units="pt" spacingx="3.1750001" spacingy="3.1750001"/>
    <sodipodi:guide position="380.20625,103.1875" orientation="0,1" id="guide9455" inkscape:locked="false"/>
  </sodipodi:namedview>
  <metadata id="metadata5">
    <rdf:RDF>
      <cc:Work rdf:about="">
        <dc:format>image/svg+xml</dc:format>
        <dc:type rdf:resource="http://purl.org/dc/dcmitype/StillImage"/>
        <dc:title/>
      </cc:Work>
    </rdf:RDF>
  </metadata>
  <g inkscape:groupmode="layer" inkscape:label="club-" transform="matrix(1.000000,0.000000,0.000000,1.000000,-393.700000,15.874996)"><g id="g10351" inkscape:label="08">
      <rect y="-15.874996" x="393.70001" height="38.099995" width="19.050001" id="rect8365" style="display:inline;opacity:1;fill:none;fill-opacity:1;stroke:none;stroke-width:0.17638889;stroke-linecap:butt;stroke-linejoin:miter;stroke-miterlimit:47.14606857;stroke-dasharray:none;stroke-dashoffset:0;stroke-opacity:1;paint-order:markers fill stroke"/>
      <path inkscape:export-ydpi="96" inkscape:export-xdpi="96" inkscape:export-filename="C:\mine\Vira\Vira table excerpts\Tourne.png" id="path8461" d="m 403.22503,4.7625416 c -1.36657,0 -2.56267,0.91783 -2.91637,2.23781 -0.35367,1.32001 0.22332,2.71293 1.4067,3.3962104 -1.18347,-0.6832904 -2.67834,-0.4864004 -3.64463,0.47989 -0.96629,0.96629 -1.16302,2.46115 -0.47976,3.644611 0.6833,1.18348 2.07625,1.7604 3.39624,1.40675 0.79453,-0.21294 1.44295,-0.73127 1.83361,-1.4081 l -1.21379,4.53032 h 3.236 l -1.21393,-4.53068 c 0.39063,0.67697 1.03905,1.19547 1.83375,1.40846 1.31999,0.35365 2.71305,-0.22335 3.39635,-1.40675 0.68327,-1.183461 0.48642,-2.678321 -0.4799,-3.644611 -0.96629,-0.9663004 -2.46116,-1.1631704 -3.64463,-0.47989 1.18347,-0.6832804 1.76051,-2.0762104 1.40684,-3.3962104 -0.3537,-1.31998 -1.54994,-2.23781 -2.91648,-2.23781 z" style="opacity:1;fill:#000000;fill-opacity:1;stroke:none;stroke-width:0.07055556;stroke-linecap:butt;stroke-linejoin:miter;stroke-miterlimit:4;stroke-dasharray:none;stroke-dashoffset:0;paint-order:normal" inkscape:connector-curvature="0"/>
      <g id="text8405" style="font-style:normal;font-variant:normal;font-weight:normal;font-stretch:normal;font-size:21.16666794px;line-height:125%;font-family:'Stint Ultra Condensed';-inkscape-font-specification:'Stint Ultra Condensed, ';font-variant-ligatures:normal;font-variant-caps:normal;font-variant-numeric:normal;text-align:center;letter-spacing:0px;word-spacing:0px;writing-mode:lr-tb;text-anchor:middle;fill:#000000;fill-opacity:1;stroke:none;stroke-width:0.26458335" aria-label="8">
        <path id="path9841" style="font-style:normal;font-variant:normal;font-weight:normal;font-stretch:normal;font-size:21.16666794px;font-family:'Stint Ultra Condensed';-inkscape-font-specification:'Stint Ultra Condensed, ';text-align:center;text-anchor:middle;stroke-width:0.26458335" d="m 404.23786,-6.1639395 q 0.94052,0.3513998 1.4056,1.3642579 0.47543,1.0128582 0.47543,2.5114748 0,0.9198405 -0.19637,1.68465178 -0.19637,0.76481125 -0.56844,1.31258146 -0.37208,0.54777026 -0.90951,0.85782886 -0.53743,0.2997233 -1.21956,0.2997233 -0.68213,0 -1.21957,-0.2997233 -0.53743,-0.3100586 -0.91984,-0.85782886 -0.37207,-0.54777021 -0.56844,-1.31258146 -0.19637,-0.76481128 -0.19637,-1.68465178 0,-0.7441407 0.12402,-1.3849285 0.12403,-0.6407878 0.36174,-1.1368816 0.23771,-0.506429 0.58911,-0.8578288 0.3514,-0.361735 0.80615,-0.5374349 -0.37207,-0.217041 -0.65112,-0.5581055 -0.26872,-0.3513998 -0.45475,-0.754476 -0.1757,-0.4134115 -0.26872,-0.8681641 -0.0827,-0.4547526 -0.0827,-0.8888347 0,-0.7958171 0.1757,-1.4572751 0.1757,-0.661459 0.49609,-1.136882 0.33073,-0.475423 0.78548,-0.733805 0.45476,-0.268718 1.00253,-0.268718 0.54777,0 1.00252,0.268718 0.45475,0.258382 0.78548,0.733805 0.33073,0.475423 0.51676,1.136882 0.18604,0.661458 0.18604,1.4572751 0,0.4340821 -0.093,0.89917 -0.0827,0.4547526 -0.26872,0.8784994 -0.1757,0.4134115 -0.45475,0.7648112 -0.26872,0.3513998 -0.64079,0.5684408 z m 0.18604,-3.0385744 q 0,-0.506429 -0.0724,-0.9715171 -0.062,-0.465088 -0.2067,-0.816488 -0.13436,-0.361735 -0.37207,-0.56844 -0.22738,-0.206706 -0.54777,-0.206706 -0.33073,0 -0.56844,0.206706 -0.22738,0.206705 -0.37208,0.56844 -0.14469,0.3514 -0.2067,0.816488 -0.062,0.4650881 -0.062,0.9715171 0,0.5064291 0.0723,0.971517 0.0723,0.4650879 0.21705,0.8164877 0.15502,0.3513998 0.3824,0.5581055 0.22738,0.2067057 0.53744,0.2067057 0.31005,0 0.53743,-0.2067057 0.22738,-0.2067057 0.37207,-0.5581055 0.1447,-0.3513998 0.21704,-0.8164877 0.0724,-0.4650879 0.0724,-0.971517 z m -1.19889,3.5966799 q -0.75448,0 -1.17823,0.8371583 -0.41341,0.8371582 -0.41341,2.3357749 0,1.48828131 0.40308,2.34611014 0.40307,0.84749354 1.18856,0.84749354 0.77514,0 1.17822,-0.84749354 0.40308,-0.85782883 0.40308,-2.34611014 0,-0.7441407 -0.11369,-1.3332521 -0.10336,-0.5891113 -0.31006,-0.9921875 -0.20671,-0.4134115 -0.50643,-0.6304525 -0.28939,-0.2170411 -0.65112,-0.2170411 z"/>
      </g>
    </g>
    </g></svg>
