<?xml version='1.0' encoding='UTF-8'?>
<!-- Created with Inkscape (http://www.inkscape.org/) and export_objects.py -->
<svg xmlns:cc="http://creativecommons.org/ns#" xmlns:dc="http://purl.org/dc/elements/1.1/" xmlns:inkscape="http://www.inkscape.org/namespaces/inkscape" xmlns:rdf="http://www.w3.org/1999/02/22-rdf-syntax-ns#" xmlns:sodipodi="http://sodipodi.sourceforge.net/DTD/sodipodi-0.dtd" xmlns:xlink="http://www.w3.org/1999/xlink" xmlns="http://www.w3.org/2000/svg" version="1.1" width="0.75000003125in" height="1.49999979167in" viewBox="0 0 19.0500007937 38.0999947083" id="svg8" inkscape:version="0.92.3 (2405546, 2018-03-11)" sodipodi:docname="club-14.svg"><sodipodi:namedview id="base" pagecolor="#ffffff" bordercolor="#666666" borderopacity="1.0" inkscape:pageopacity="0.0" inkscape:pageshadow="2" inkscape:zoom="0.7644654" inkscape:cx="1581.9145" inkscape:cy="1075.3584" inkscape:document-units="in" inkscape:current-layer="layer3" showgrid="true" units="in" inkscape:snap-others="true" inkscape:snap-grids="true" inkscape:window-width="1280" inkscape:window-height="940" inkscape:window-x="1909" inkscape:window-y="43" inkscape:window-maximized="1" inkscape:snap-midpoints="false" inkscape:object-nodes="true" inkscape:snap-text-baseline="true" inkscape:snap-smooth-nodes="false" showguides="false" inkscape:snap-object-midpoints="true" inkscape:snap-center="true" inkscape:snap-to-guides="false" inkscape:snap-nodes="true" inkscape:snap-intersection-paths="false">
    <inkscape:grid type="xygrid" id="grid10" units="pt" spacingx="3.1750001" spacingy="3.1750001"/>
    <sodipodi:guide position="380.20625,103.1875" orientation="0,1" id="guide9455" inkscape:locked="false"/>
  </sodipodi:namedview>
  <metadata id="metadata5">
    <rdf:RDF>
      <cc:Work rdf:about="">
        <dc:format>image/svg+xml</dc:format>
        <dc:type rdf:resource="http://purl.org/dc/dcmitype/StillImage"/>
        <dc:title/>
      </cc:Work>
    </rdf:RDF>
  </metadata>
  <g inkscape:groupmode="layer" inkscape:label="club-" transform="matrix(1.000000,0.000000,0.000000,1.000000,-260.350000,15.874987)"><g id="g10315" inkscape:label="14">
      <rect style="display:inline;opacity:1;fill:none;fill-opacity:1;stroke:none;stroke-width:0.17638889;stroke-linecap:butt;stroke-linejoin:miter;stroke-miterlimit:47.14606857;stroke-dasharray:none;stroke-dashoffset:0;stroke-opacity:1;paint-order:markers fill stroke" id="rect8377" width="19.050001" height="38.099995" x="260.35001" y="-15.874988"/>
      <path inkscape:connector-curvature="0" style="opacity:1;fill:#000000;fill-opacity:1;stroke:none;stroke-width:0.07055556;stroke-linecap:butt;stroke-linejoin:miter;stroke-miterlimit:4;stroke-dasharray:none;stroke-dashoffset:0;paint-order:normal" d="m 269.87503,4.7625437 c -1.36657,0 -2.56267,0.91784 -2.91637,2.23782 -0.35367,1.32001 0.22332,2.71293 1.4067,3.3962093 -1.18347,-0.6832893 -2.67834,-0.4863993 -3.64463,0.47989 -0.96629,0.96629 -1.16302,2.46113 -0.47976,3.644611 0.6833,1.18347 2.07625,1.7604 3.39624,1.40673 0.79453,-0.21292 1.44295,-0.73126 1.83361,-1.40808 l -1.21379,4.53032 h 3.236 l -1.21393,-4.53068 c 0.39063,0.67697 1.03905,1.19547 1.83375,1.40846 1.31999,0.35365 2.71305,-0.22335 3.39635,-1.40675 0.68327,-1.183461 0.48642,-2.678321 -0.4799,-3.644611 -0.96629,-0.9662993 -2.46116,-1.1631693 -3.64463,-0.47989 1.18347,-0.6832793 1.76051,-2.0762093 1.40684,-3.3962093 -0.3537,-1.31998 -1.54994,-2.23781 -2.91648,-2.23782 z" id="path8497" inkscape:export-filename="C:\mine\Vira\Vira table excerpts\Tourne.png" inkscape:export-xdpi="96" inkscape:export-ydpi="96"/>
      <g id="text8429" style="font-style:normal;font-variant:normal;font-weight:normal;font-stretch:normal;font-size:21.16666794px;line-height:125%;font-family:'Stint Ultra Condensed';-inkscape-font-specification:'Stint Ultra Condensed, ';font-variant-ligatures:normal;font-variant-caps:normal;font-variant-numeric:normal;text-align:center;letter-spacing:0px;word-spacing:0px;writing-mode:lr-tb;text-anchor:middle;fill:#000000;fill-opacity:1;stroke:none;stroke-width:0.26458335" aria-label="2">
        <path id="path9823" style="font-style:normal;font-variant:normal;font-weight:normal;font-stretch:normal;font-size:21.16666794px;font-family:'Stint Ultra Condensed';-inkscape-font-specification:'Stint Ultra Condensed, ';text-align:center;text-anchor:middle;stroke-width:0.26458335" d="M 266.96045,1.5875382 V 0.71937413 q 0.93017,-1.31258146 1.66398,-2.51147473 0.74414,-1.2092286 1.26091,-2.3874513 0.51676,-1.1782228 0.78548,-2.3874514 0.27905,-1.2092286 0.27905,-2.5321453 0,-0.5167644 -0.0723,-0.9921874 -0.062,-0.475423 -0.2067,-0.837158 -0.1447,-0.372071 -0.39274,-0.589112 -0.24805,-0.227376 -0.59945,-0.227376 -0.65112,0 -0.98185,0.909505 -0.33073,0.9095054 -0.33073,2.87321 h -1.31258 q 0,-1.3435873 0.21704,-2.273763 0.21704,-0.940511 0.56844,-1.519287 0.36173,-0.589112 0.82682,-0.847494 0.47542,-0.268717 0.97152,-0.268717 0.64079,0 1.12654,0.289388 0.48576,0.289388 0.81649,0.806152 0.33073,0.516764 0.4961,1.229899 0.1757,0.713135 0.1757,1.5502933 0,1.9843751 -0.91984,4.3408205 -0.90951,2.3461102 -2.7802,5.05395543 h 2.74919 V -2.4328884 h 1.12655 v 4.0204266 z"/>
      </g>
    </g>
  </g></svg>
