<?xml version='1.0' encoding='UTF-8'?>
<!-- Created with Inkscape (http://www.inkscape.org/) and export_objects.py -->
<svg xmlns:cc="http://creativecommons.org/ns#" xmlns:dc="http://purl.org/dc/elements/1.1/" xmlns:inkscape="http://www.inkscape.org/namespaces/inkscape" xmlns:rdf="http://www.w3.org/1999/02/22-rdf-syntax-ns#" xmlns:sodipodi="http://sodipodi.sourceforge.net/DTD/sodipodi-0.dtd" xmlns:xlink="http://www.w3.org/1999/xlink" xmlns="http://www.w3.org/2000/svg" version="1.1" width="0.75000003125in" height="1.49999979167in" viewBox="0 0 19.0500007937 38.0999947083" id="svg8" inkscape:version="0.92.3 (2405546, 2018-03-11)" sodipodi:docname="club-11.svg"><sodipodi:namedview id="base" pagecolor="#ffffff" bordercolor="#666666" borderopacity="1.0" inkscape:pageopacity="0.0" inkscape:pageshadow="2" inkscape:zoom="0.7644654" inkscape:cx="1581.9145" inkscape:cy="1075.3584" inkscape:document-units="in" inkscape:current-layer="layer3" showgrid="true" units="in" inkscape:snap-others="true" inkscape:snap-grids="true" inkscape:window-width="1280" inkscape:window-height="940" inkscape:window-x="1909" inkscape:window-y="43" inkscape:window-maximized="1" inkscape:snap-midpoints="false" inkscape:object-nodes="true" inkscape:snap-text-baseline="true" inkscape:snap-smooth-nodes="false" showguides="false" inkscape:snap-object-midpoints="true" inkscape:snap-center="true" inkscape:snap-to-guides="false" inkscape:snap-nodes="true" inkscape:snap-intersection-paths="false">
    <inkscape:grid type="xygrid" id="grid10" units="pt" spacingx="3.1750001" spacingy="3.1750001"/>
    <sodipodi:guide position="380.20625,103.1875" orientation="0,1" id="guide9455" inkscape:locked="false"/>
  </sodipodi:namedview>
  <metadata id="metadata5">
    <rdf:RDF>
      <cc:Work rdf:about="">
        <dc:format>image/svg+xml</dc:format>
        <dc:type rdf:resource="http://purl.org/dc/dcmitype/StillImage"/>
        <dc:title/>
      </cc:Work>
    </rdf:RDF>
  </metadata>
  <g inkscape:groupmode="layer" inkscape:label="club-" transform="matrix(1.000000,0.000000,0.000000,1.000000,-327.025026,15.874997)"><g id="g10333" inkscape:label="11">
      <rect style="display:inline;opacity:1;fill:none;fill-opacity:1;stroke:none;stroke-width:0.17638889;stroke-linecap:butt;stroke-linejoin:miter;stroke-miterlimit:47.14606857;stroke-dasharray:none;stroke-dashoffset:0;stroke-opacity:1;paint-order:markers fill stroke" id="rect8371" width="19.050001" height="38.099995" x="327.02502" y="-15.874997"/>
      <path inkscape:connector-curvature="0" style="opacity:1;fill:#000000;fill-opacity:1;stroke:none;stroke-width:0.07055556;stroke-linecap:butt;stroke-linejoin:miter;stroke-miterlimit:4;stroke-dasharray:none;stroke-dashoffset:0;paint-order:normal" d="m 336.55008,4.7625332 c -1.36657,0 -2.56267,0.91784 -2.91637,2.23782 -0.35367,1.32001 0.22332,2.71293 1.4067,3.3962108 -1.18347,-0.6832908 -2.67834,-0.4864008 -3.64463,0.47989 -0.96629,0.96629 -1.16302,2.46113 -0.47976,3.644611 0.6833,1.18347 2.07625,1.7604 3.39624,1.40673 0.79453,-0.21292 1.44295,-0.73126 1.83361,-1.40808 l -1.21379,4.53032 h 3.236 l -1.21393,-4.53068 c 0.39063,0.67697 1.03905,1.19547 1.83375,1.40846 1.31999,0.35365 2.71305,-0.22335 3.39635,-1.40675 0.68327,-1.183461 0.48642,-2.678321 -0.4799,-3.644611 -0.96629,-0.9663008 -2.46116,-1.1631708 -3.64463,-0.47989 1.18347,-0.6832808 1.76051,-2.0762008 1.40684,-3.3962108 -0.3537,-1.31998 -1.54994,-2.23781 -2.91648,-2.23782 z" id="path8479" inkscape:export-filename="C:\mine\Vira\Vira table excerpts\Tourne.png" inkscape:export-xdpi="96" inkscape:export-ydpi="96"/>
      <g id="text8417" style="font-style:normal;font-variant:normal;font-weight:normal;font-stretch:normal;font-size:21.16666794px;line-height:125%;font-family:'Stint Ultra Condensed';-inkscape-font-specification:'Stint Ultra Condensed, ';font-variant-ligatures:normal;font-variant-caps:normal;font-variant-numeric:normal;text-align:center;letter-spacing:0px;word-spacing:0px;writing-mode:lr-tb;text-anchor:middle;fill:#000000;fill-opacity:1;stroke:none;stroke-width:0.26458335" aria-label="5">
        <path id="path9832" style="font-style:normal;font-variant:normal;font-weight:normal;font-stretch:normal;font-size:21.16666794px;font-family:'Stint Ultra Condensed';-inkscape-font-specification:'Stint Ultra Condensed, ';text-align:center;text-anchor:middle;stroke-width:0.26458335" d="m 335.22713,-7.0321019 q 0.33073,-0.3824056 0.69247,-0.5064291 0.37207,-0.1240234 0.77514,-0.1240234 0.58911,0 1.0542,0.361735 0.47543,0.3617351 0.79582,1.0128582 0.33073,0.6407878 0.50643,1.5296224 0.1757,0.8888347 0.1757,1.943034 0,0.971517 -0.15503,1.82934583 -0.15503,0.84749354 -0.48576,1.48828134 -0.32039,0.63045253 -0.83716,1.00252283 -0.51676,0.3617351 -1.2299,0.3617351 -0.5271,0.02067 -1.02319,-0.2377116 -0.48576,-0.2583822 -0.8785,-0.81648772 -0.38241,-0.56844079 -0.62012,-1.46761076 -0.22737,-0.89917002 -0.22737,-2.16007502 h 1.29191 q 0,1.8086753 0.41341,2.69750995 0.42375,0.8784994 1.04386,0.8784994 0.3514,0 0.60978,-0.25838218 0.25839,-0.26871746 0.43409,-0.74414067 0.1757,-0.47542321 0.25838,-1.1265463 0.093,-0.6614584 0.093,-1.4469402 0,-1.8190105 -0.36174,-2.7801922 -0.36173,-0.9611817 -1.15755,-0.9611817 -0.46509,0 -0.80615,0.3100586 -0.33073,0.2997233 -0.50643,0.9095053 h -1.0542 l 0.24805,-7.2760422 h 4.48551 v 1.178223 h -3.35897 z"/>
      </g>
    </g>
    </g></svg>
