<?xml version='1.0' encoding='UTF-8'?>
<!-- Created with Inkscape (http://www.inkscape.org/) and export_objects.py -->
<svg xmlns:cc="http://creativecommons.org/ns#" xmlns:dc="http://purl.org/dc/elements/1.1/" xmlns:inkscape="http://www.inkscape.org/namespaces/inkscape" xmlns:rdf="http://www.w3.org/1999/02/22-rdf-syntax-ns#" xmlns:sodipodi="http://sodipodi.sourceforge.net/DTD/sodipodi-0.dtd" xmlns:xlink="http://www.w3.org/1999/xlink" xmlns="http://www.w3.org/2000/svg" version="1.1" width="0.75000003125in" height="1.49999979167in" viewBox="0 0 19.0500007937 38.0999947083" id="svg8" inkscape:version="0.92.3 (2405546, 2018-03-11)" sodipodi:docname="club-07.svg"><sodipodi:namedview id="base" pagecolor="#ffffff" bordercolor="#666666" borderopacity="1.0" inkscape:pageopacity="0.0" inkscape:pageshadow="2" inkscape:zoom="0.7644654" inkscape:cx="1581.9145" inkscape:cy="1075.3584" inkscape:document-units="in" inkscape:current-layer="layer3" showgrid="true" units="in" inkscape:snap-others="true" inkscape:snap-grids="true" inkscape:window-width="1280" inkscape:window-height="940" inkscape:window-x="1909" inkscape:window-y="43" inkscape:window-maximized="1" inkscape:snap-midpoints="false" inkscape:object-nodes="true" inkscape:snap-text-baseline="true" inkscape:snap-smooth-nodes="false" showguides="false" inkscape:snap-object-midpoints="true" inkscape:snap-center="true" inkscape:snap-to-guides="false" inkscape:snap-nodes="true" inkscape:snap-intersection-paths="false">
    <inkscape:grid type="xygrid" id="grid10" units="pt" spacingx="3.1750001" spacingy="3.1750001"/>
    <sodipodi:guide position="380.20625,103.1875" orientation="0,1" id="guide9455" inkscape:locked="false"/>
  </sodipodi:namedview>
  <metadata id="metadata5">
    <rdf:RDF>
      <cc:Work rdf:about="">
        <dc:format>image/svg+xml</dc:format>
        <dc:type rdf:resource="http://purl.org/dc/dcmitype/StillImage"/>
        <dc:title/>
      </cc:Work>
    </rdf:RDF>
  </metadata>
  <g inkscape:groupmode="layer" inkscape:label="club-" transform="matrix(1.000000,0.000000,0.000000,1.000000,-415.925000,15.874997)"><g id="g10357" inkscape:label="07">
      <rect y="-15.874997" x="415.92502" height="38.099995" width="19.050001" id="rect8363" style="display:inline;opacity:1;fill:none;fill-opacity:1;stroke:none;stroke-width:0.17638889;stroke-linecap:butt;stroke-linejoin:miter;stroke-miterlimit:47.14606857;stroke-dasharray:none;stroke-dashoffset:0;stroke-opacity:1;paint-order:markers fill stroke"/>
      <path inkscape:export-ydpi="96" inkscape:export-xdpi="96" inkscape:export-filename="C:\mine\Vira\Vira table excerpts\Tourne.png" id="path8455" d="m 425.45,4.7625299 c -1.36657,0 -2.56267,0.91784 -2.91637,2.23782 -0.35367,1.32001 0.22332,2.71293 1.4067,3.3962101 -1.18347,-0.6832901 -2.67834,-0.4864001 -3.64462,0.47989 -0.96629,0.96629 -1.16302,2.46113 -0.47976,3.644611 0.6833,1.18347 2.07624,1.7604 3.39623,1.40673 0.79453,-0.21292 1.44295,-0.73126 1.83361,-1.40808 l -1.21379,4.53032 h 3.236 l -1.21393,-4.53068 c 0.39063,0.67697 1.03905,1.19547 1.83375,1.40844 1.31999,0.35367 2.71305,-0.22333 3.39635,-1.40673 0.68327,-1.183461 0.48642,-2.678321 -0.4799,-3.644611 -0.96629,-0.9663001 -2.46116,-1.1631701 -3.64463,-0.47989 1.18347,-0.6832801 1.76051,-2.0762101 1.40684,-3.3962101 -0.3537,-1.31998 -1.54994,-2.23781 -2.91648,-2.23782 z" style="opacity:1;fill:#000000;fill-opacity:1;stroke:none;stroke-width:0.07055556;stroke-linecap:butt;stroke-linejoin:miter;stroke-miterlimit:4;stroke-dasharray:none;stroke-dashoffset:0;paint-order:normal" inkscape:connector-curvature="0"/>
      <g id="text8401" style="font-style:normal;font-variant:normal;font-weight:normal;font-stretch:normal;font-size:21.16666794px;line-height:125%;font-family:'Stint Ultra Condensed';-inkscape-font-specification:'Stint Ultra Condensed, ';font-variant-ligatures:normal;font-variant-caps:normal;font-variant-numeric:normal;text-align:center;letter-spacing:0px;word-spacing:0px;writing-mode:lr-tb;text-anchor:middle;fill:#000000;fill-opacity:1;stroke:none;stroke-width:0.26458335" aria-label="9">
        <path id="path9844" style="font-style:normal;font-variant:normal;font-weight:normal;font-stretch:normal;font-size:21.16666794px;font-family:'Stint Ultra Condensed';-inkscape-font-specification:'Stint Ultra Condensed, ';text-align:center;text-anchor:middle;stroke-width:0.26458335" d="m 426.92799,-5.22343 q -0.0724,0.1860352 -0.21704,0.4754232 -0.13436,0.289388 -0.37207,0.5581055 -0.22738,0.2687175 -0.55811,0.4650879 -0.33073,0.1860352 -0.78548,0.1860352 -0.50643,0 -0.95085,-0.2790528 -0.44441,-0.289388 -0.77514,-0.8681641 -0.3204,-0.5787761 -0.51677,-1.4469402 -0.18603,-0.8784994 -0.18603,-2.0567221 0,-0.971517 0.1757,-1.8190106 0.1757,-0.857829 0.51676,-1.488281 0.34107,-0.640788 0.83716,-1.002523 0.49609,-0.37207 1.13688,-0.37207 0.63045,0 1.16789,0.434082 0.54777,0.423746 0.95085,1.29191 0.40307,0.857829 0.63045,2.1600755 0.23771,1.3022462 0.23771,3.059245 0,1.7983399 -0.1757,3.2452801 -0.1757,1.4366049 -0.54777,2.44946305 -0.36174,1.01285813 -0.93018,1.56062835 -0.5581,0.5374349 -1.33325,0.5374349 -0.49609,0 -0.94051,-0.2790527 -0.44442,-0.2687175 -0.78548,-0.80615242 -0.33073,-0.53743492 -0.5271,-1.33325203 -0.18604,-0.80615235 -0.18604,-1.86035165 h 1.27124 q 0,1.53995775 0.29973,2.34611014 0.31006,0.8061524 0.93017,0.8061524 0.43409,0 0.74414,-0.47542321 0.31006,-0.48575849 0.50643,-1.30224613 0.19637,-0.8164877 0.28939,-1.8913576 0.093,-1.0852051 0.093,-2.2944337 z m -1.67432,0.5684408 q 0.3204,0 0.57878,-0.2997233 0.25838,-0.2997234 0.45475,-0.7338054 0.20671,-0.4340821 0.34107,-0.9301759 0.13435,-0.4960937 0.19637,-0.8991699 0.0207,-0.7648113 -0.093,-1.5192872 -0.10335,-0.7648113 -0.3204,-1.3642581 -0.2067,-0.599446 -0.51676,-0.971517 -0.29972,-0.37207 -0.66146,-0.37207 -0.33073,0 -0.58911,0.258382 -0.25838,0.248047 -0.43408,0.713135 -0.1757,0.465088 -0.26872,1.1265461 -0.0827,0.6511231 -0.0827,1.4572755 0,0.826823 0.0827,1.4882813 0.0827,0.6511231 0.24805,1.1058758 0.1757,0.4547526 0.43408,0.7027995 0.26872,0.2377116 0.63045,0.2377116 z"/>
      </g>
    </g>
    </g></svg>
