<?xml version='1.0' encoding='UTF-8'?>
<!-- Created with Inkscape (http://www.inkscape.org/) and export_objects.py -->
<svg xmlns:cc="http://creativecommons.org/ns#" xmlns:dc="http://purl.org/dc/elements/1.1/" xmlns:inkscape="http://www.inkscape.org/namespaces/inkscape" xmlns:rdf="http://www.w3.org/1999/02/22-rdf-syntax-ns#" xmlns:sodipodi="http://sodipodi.sourceforge.net/DTD/sodipodi-0.dtd" xmlns:xlink="http://www.w3.org/1999/xlink" xmlns="http://www.w3.org/2000/svg" version="1.1" width="53.9999985pt" height="108.0pt" viewBox="0 0 19.0499994708 38.1" id="svg8" inkscape:version="0.92.3 (2405546, 2018-03-11)" sodipodi:docname="card-12.svg"><sodipodi:namedview id="base" pagecolor="#ffffff" bordercolor="#666666" borderopacity="1.0" inkscape:pageopacity="0.0" inkscape:pageshadow="2" inkscape:zoom="1.5057403" inkscape:cx="1440.9352" inkscape:cy="172.44675" inkscape:document-units="pt" inkscape:current-layer="layer3" showgrid="true" units="pt" inkscape:snap-others="false" inkscape:snap-grids="true" inkscape:window-width="1920" inkscape:window-height="1006" inkscape:window-x="1909" inkscape:window-y="-11" inkscape:window-maximized="1" inkscape:snap-midpoints="false" inkscape:object-nodes="true" inkscape:snap-text-baseline="true" inkscape:snap-smooth-nodes="false" inkscape:snap-bbox="false" inkscape:snap-bbox-edge-midpoints="true" inkscape:snap-nodes="true" inkscape:bbox-nodes="false">
    <inkscape:grid type="xygrid" id="grid10" units="pt" spacingx="0.79375002" spacingy="0.79375002"/>
  </sodipodi:namedview>
  <metadata id="metadata5">
    <rdf:RDF>
      <cc:Work rdf:about="">
        <dc:format>image/svg+xml</dc:format>
        <dc:type rdf:resource="http://purl.org/dc/dcmitype/StillImage"/>
        <dc:title/>
      </cc:Work>
    </rdf:RDF>
  </metadata>
  <g inkscape:groupmode="layer" inkscape:label="card-" transform="matrix(1.000000,0.000000,0.000000,1.000000,-412.750053,-282.574974)"><g id="g14558" inkscape:label="12">
      <path id="rect14174" d="m 412.75006,282.57498 h 19.05 v 38.1 h -19.05 z" style="display:inline;opacity:1;fill:none;fill-opacity:1;stroke:none;stroke-width:0.17638889;stroke-linecap:butt;stroke-linejoin:miter;stroke-miterlimit:47.14606857;stroke-dasharray:none;stroke-dashoffset:0;stroke-opacity:1;paint-order:markers fill stroke"/>
      <path inkscape:connector-curvature="0" style="opacity:1;fill:#808080;fill-opacity:1;stroke:none;stroke-width:0.07055556;stroke-linecap:butt;stroke-linejoin:miter;stroke-miterlimit:4;stroke-dasharray:none;stroke-dashoffset:0;paint-order:normal" d="m 422.27506,303.21252 c -1.36656,0 -2.56266,0.91784 -2.91636,2.23782 -0.35367,1.32002 0.22331,2.71294 1.4067,3.39621 -1.18347,-0.68328 -2.67835,-0.4864 -3.64464,0.47989 -0.96629,0.9663 -1.16302,2.46114 -0.47975,3.64461 0.68329,1.18347 2.07624,1.7604 3.39623,1.40672 0.79453,-0.21291 1.44296,-0.73125 1.83361,-1.40807 l -1.21379,4.53032 h 3.23601 l -1.21393,-4.53068 c 0.39063,0.67698 1.03905,1.19547 1.83374,1.40845 1.32,0.35366 2.71306,-0.22333 3.39635,-1.40674 0.68327,-1.18346 0.48643,-2.67831 -0.47989,-3.6446 -0.96629,-0.96631 -2.46117,-1.16317 -3.64464,-0.4799 1.18347,-0.68327 1.76051,-2.07621 1.40684,-3.39621 -0.3537,-1.31998 -1.54994,-2.23781 -2.91648,-2.23782 z" id="path14202" inkscape:export-filename="C:\mine\Vira\Vira table excerpts\Tourne.png" inkscape:export-xdpi="96" inkscape:export-ydpi="96"/>
      <g id="text14270" style="font-style:normal;font-variant:normal;font-weight:normal;font-stretch:normal;font-size:21.16666794px;line-height:125%;font-family:'Stint Ultra Condensed';-inkscape-font-specification:'Stint Ultra Condensed, ';font-variant-ligatures:normal;font-variant-caps:normal;font-variant-numeric:normal;text-align:center;letter-spacing:0px;word-spacing:0px;writing-mode:lr-tb;text-anchor:middle;fill:#808080;fill-opacity:1;stroke:none;stroke-width:0.26458335" aria-label="Kn">
        <path id="path14479" style="font-style:normal;font-variant:normal;font-weight:normal;font-stretch:normal;font-size:21.16666794px;font-family:'Stint Ultra Condensed';-inkscape-font-specification:'Stint Ultra Condensed, ';text-align:center;text-anchor:middle;fill:#808080;stroke-width:0.26458335" d="m 415.13337,285.83682 h 3.82406 v 1.15755 h -1.27124 v 4.84725 l 2.62516,-4.84725 h -0.77515 v -1.15755 h 3.15227 v 1.15755 h -1.06454 l -2.6665,4.94027 2.92488,6.93498 h 1.16789 v 1.16789 h -3.3693 v -1.16789 h 0.86816 l -2.39778,-5.83944 -0.46509,0.8475 v 4.99194 h 1.27124 v 1.16789 h -3.82406 v -1.16789 h 1.26091 v -11.87525 h -1.26091 z"/>
        <path id="path14481" style="font-style:normal;font-variant:normal;font-weight:normal;font-stretch:normal;font-size:21.16666794px;font-family:'Stint Ultra Condensed';-inkscape-font-specification:'Stint Ultra Condensed, ';text-align:center;text-anchor:middle;fill:#808080;stroke-width:0.26458335" d="m 423.29825,290.19831 h 2.1394 v 1.09554 q 0.36174,-0.62011 0.76481,-0.99218 0.41342,-0.38241 0.94052,-0.38241 0.76481,0 1.09554,0.67179 0.33072,0.6718 0.33072,1.91203 v 6.36654 h 0.8475 v 1.16789 h -2.78019 v -1.16789 h 0.64078 v -5.96346 q 0,-0.56844 -0.031,-0.91984 -0.0207,-0.3514 -0.0827,-0.54777 -0.0517,-0.20671 -0.1447,-0.27906 -0.093,-0.0723 -0.22737,-0.0723 -0.20671,0 -0.42375,0.2067 -0.20671,0.19637 -0.39274,0.51677 -0.18604,0.32039 -0.33073,0.72347 -0.1447,0.39274 -0.20671,0.79581 v 5.53972 h 0.63046 v 1.16789 h -2.76986 v -1.16789 h 0.84749 v -7.51376 h -0.84749 z"/>
      </g>
    </g>
  </g></svg>
