<?xml version='1.0' encoding='UTF-8'?>
<!-- Created with Inkscape (http://www.inkscape.org/) and export_objects.py -->
<svg xmlns:cc="http://creativecommons.org/ns#" xmlns:dc="http://purl.org/dc/elements/1.1/" xmlns:inkscape="http://www.inkscape.org/namespaces/inkscape" xmlns:rdf="http://www.w3.org/1999/02/22-rdf-syntax-ns#" xmlns:sodipodi="http://sodipodi.sourceforge.net/DTD/sodipodi-0.dtd" xmlns:xlink="http://www.w3.org/1999/xlink" xmlns="http://www.w3.org/2000/svg" version="1.1" width="0.75000003125in" height="1.49999979167in" viewBox="0 0 19.0500007937 38.0999947083" id="svg8" inkscape:version="0.92.3 (2405546, 2018-03-11)" sodipodi:docname="club-10.svg"><sodipodi:namedview id="base" pagecolor="#ffffff" bordercolor="#666666" borderopacity="1.0" inkscape:pageopacity="0.0" inkscape:pageshadow="2" inkscape:zoom="0.7644654" inkscape:cx="1581.9145" inkscape:cy="1075.3584" inkscape:document-units="in" inkscape:current-layer="layer3" showgrid="true" units="in" inkscape:snap-others="true" inkscape:snap-grids="true" inkscape:window-width="1280" inkscape:window-height="940" inkscape:window-x="1909" inkscape:window-y="43" inkscape:window-maximized="1" inkscape:snap-midpoints="false" inkscape:object-nodes="true" inkscape:snap-text-baseline="true" inkscape:snap-smooth-nodes="false" showguides="false" inkscape:snap-object-midpoints="true" inkscape:snap-center="true" inkscape:snap-to-guides="false" inkscape:snap-nodes="true" inkscape:snap-intersection-paths="false">
    <inkscape:grid type="xygrid" id="grid10" units="pt" spacingx="3.1750001" spacingy="3.1750001"/>
    <sodipodi:guide position="380.20625,103.1875" orientation="0,1" id="guide9455" inkscape:locked="false"/>
  </sodipodi:namedview>
  <metadata id="metadata5">
    <rdf:RDF>
      <cc:Work rdf:about="">
        <dc:format>image/svg+xml</dc:format>
        <dc:type rdf:resource="http://purl.org/dc/dcmitype/StillImage"/>
        <dc:title/>
      </cc:Work>
    </rdf:RDF>
  </metadata>
  <g inkscape:groupmode="layer" inkscape:label="club-" transform="matrix(1.000000,0.000000,0.000000,1.000000,-349.250026,15.874995)"><g id="g10339" inkscape:label="10">
      <rect y="-15.874995" x="349.25003" height="38.099995" width="19.050001" id="rect8369" style="display:inline;opacity:1;fill:none;fill-opacity:1;stroke:none;stroke-width:0.17638889;stroke-linecap:butt;stroke-linejoin:miter;stroke-miterlimit:47.14606857;stroke-dasharray:none;stroke-dashoffset:0;stroke-opacity:1;paint-order:markers fill stroke"/>
      <path inkscape:export-ydpi="96" inkscape:export-xdpi="96" inkscape:export-filename="C:\mine\Vira\Vira table excerpts\Tourne.png" id="path8473" d="m 358.77506,4.7625336 c -1.36657,0 -2.56266,0.91784 -2.91636,2.23782 -0.35368,1.32001 0.22331,2.71293 1.40669,3.3962104 -1.18346,-0.6832904 -2.67834,-0.4864004 -3.64463,0.47989 -0.96629,0.96629 -1.16302,2.46113 -0.47976,3.644611 0.6833,1.18347 2.07625,1.7604 3.39624,1.40673 0.79453,-0.21292 1.44295,-0.73126 1.83361,-1.40808 l -1.21379,4.53032 h 3.236 l -1.21393,-4.53068 c 0.39063,0.67697 1.03905,1.19547 1.83375,1.40846 1.31999,0.35365 2.71305,-0.22335 3.39635,-1.40675 0.68327,-1.183461 0.48642,-2.678321 -0.4799,-3.644611 -0.96629,-0.9663004 -2.46116,-1.1631704 -3.64463,-0.47989 1.18347,-0.6832804 1.76051,-2.0762104 1.40684,-3.3962104 -0.3537,-1.31998 -1.54994,-2.23781 -2.91648,-2.23782 z" style="opacity:1;fill:#000000;fill-opacity:1;stroke:none;stroke-width:0.07055556;stroke-linecap:butt;stroke-linejoin:miter;stroke-miterlimit:4;stroke-dasharray:none;stroke-dashoffset:0;paint-order:normal" inkscape:connector-curvature="0"/>
      <g id="text8413" style="font-style:normal;font-variant:normal;font-weight:normal;font-stretch:normal;font-size:21.16666794px;line-height:125%;font-family:'Stint Ultra Condensed';-inkscape-font-specification:'Stint Ultra Condensed, ';font-variant-ligatures:normal;font-variant-caps:normal;font-variant-numeric:normal;text-align:center;letter-spacing:0px;word-spacing:0px;writing-mode:lr-tb;text-anchor:middle;fill:#000000;fill-opacity:1;stroke:none;stroke-width:0.26458335" aria-label="6">
        <path id="path9835" style="font-style:normal;font-variant:normal;font-weight:normal;font-stretch:normal;font-size:21.16666794px;font-family:'Stint Ultra Condensed';-inkscape-font-specification:'Stint Ultra Condensed, ';text-align:center;text-anchor:middle;stroke-width:0.26458335" d="m 357.30741,-5.7815318 q 0.0723,-0.1860352 0.20671,-0.4754232 0.14469,-0.2893881 0.37207,-0.5581055 0.23771,-0.2790528 0.56844,-0.4650879 0.33073,-0.1963705 0.78548,-0.1963705 0.50643,0 0.95085,0.289388 0.44442,0.2893881 0.76481,0.8681642 0.33073,0.578776 0.51676,1.4572754 0.19637,0.8681641 0.19637,2.0463869 0,0.971517 -0.18603,1.82934579 -0.1757,0.84749354 -0.51676,1.48828134 -0.34107,0.63045247 -0.83716,1.00252287 -0.4961,0.361735 -1.12655,0.361735 -0.63045,0 -1.17822,-0.4237467 -0.53744,-0.4340821 -0.94051,-1.29191093 -0.40308,-0.86816412 -0.64079,-2.17041027 -0.22738,-1.3022462 -0.22738,-3.059245 0,-1.7983399 0.1757,-3.2349449 0.1757,-1.4469401 0.53744,-2.4597978 0.37207,-1.012859 0.93017,-1.550294 0.56844,-0.54777 1.34359,-0.54777 0.49609,0 0.94051,0.279053 0.44442,0.268717 0.77515,0.806152 0.34106,0.537435 0.5271,1.343588 0.19637,0.7958168 0.19637,1.8500161 h -1.27124 q 0,-1.5399581 -0.31006,-2.3461101 -0.29972,-0.806152 -0.91984,-0.806152 -0.43408,0 -0.74414,0.485758 -0.31006,0.475423 -0.50643,1.2919109 -0.19637,0.8164877 -0.28939,1.9016928 -0.093,1.0748699 -0.093,2.2840985 z m 1.67432,-0.5684408 q -0.32039,0 -0.57878,0.2997233 -0.25838,0.2997233 -0.46508,0.7338054 -0.19637,0.4340821 -0.33073,0.9301758 -0.13436,0.4960938 -0.19637,0.8888347 -0.0207,0.7751466 0.0827,1.5296225 0.11369,0.754476 0.32039,1.36425791 0.21704,0.59944665 0.51677,0.97151699 0.31006,0.37207033 0.67179,0.37207033 0.33073,0 0.58911,-0.24804689 0.25838,-0.25838218 0.43408,-0.72347009 0.1757,-0.46508792 0.25839,-1.11621105 0.093,-0.6614583 0.093,-1.4676107 0,-0.826823 -0.0827,-1.4779461 -0.0827,-0.6614584 -0.25838,-1.116211 -0.16537,-0.4547526 -0.43408,-0.6924642 -0.25838,-0.2480469 -0.62012,-0.2480469 z"/>
      </g>
    </g>
    </g></svg>
