<?xml version='1.0' encoding='UTF-8'?>
<!-- Created with Inkscape (http://www.inkscape.org/) and export_objects.py -->
<svg xmlns:cc="http://creativecommons.org/ns#" xmlns:dc="http://purl.org/dc/elements/1.1/" xmlns:inkscape="http://www.inkscape.org/namespaces/inkscape" xmlns:rdf="http://www.w3.org/1999/02/22-rdf-syntax-ns#" xmlns:sodipodi="http://sodipodi.sourceforge.net/DTD/sodipodi-0.dtd" xmlns:xlink="http://www.w3.org/1999/xlink" xmlns="http://www.w3.org/2000/svg" version="1.1" width="0.75000003125in" height="1.49999979167in" viewBox="0 0 19.0500007937 38.0999947083" id="svg8" inkscape:version="0.92.3 (2405546, 2018-03-11)" sodipodi:docname="club-05.svg"><sodipodi:namedview id="base" pagecolor="#ffffff" bordercolor="#666666" borderopacity="1.0" inkscape:pageopacity="0.0" inkscape:pageshadow="2" inkscape:zoom="0.7644654" inkscape:cx="1581.9145" inkscape:cy="1075.3584" inkscape:document-units="in" inkscape:current-layer="layer3" showgrid="true" units="in" inkscape:snap-others="true" inkscape:snap-grids="true" inkscape:window-width="1280" inkscape:window-height="940" inkscape:window-x="1909" inkscape:window-y="43" inkscape:window-maximized="1" inkscape:snap-midpoints="false" inkscape:object-nodes="true" inkscape:snap-text-baseline="true" inkscape:snap-smooth-nodes="false" showguides="false" inkscape:snap-object-midpoints="true" inkscape:snap-center="true" inkscape:snap-to-guides="false" inkscape:snap-nodes="true" inkscape:snap-intersection-paths="false">
    <inkscape:grid type="xygrid" id="grid10" units="pt" spacingx="3.1750001" spacingy="3.1750001"/>
    <sodipodi:guide position="380.20625,103.1875" orientation="0,1" id="guide9455" inkscape:locked="false"/>
  </sodipodi:namedview>
  <metadata id="metadata5">
    <rdf:RDF>
      <cc:Work rdf:about="">
        <dc:format>image/svg+xml</dc:format>
        <dc:type rdf:resource="http://purl.org/dc/dcmitype/StillImage"/>
        <dc:title/>
      </cc:Work>
    </rdf:RDF>
  </metadata>
  <g inkscape:groupmode="layer" inkscape:label="club-" transform="matrix(1.000000,0.000000,0.000000,1.000000,-482.600000,15.874992)"><g id="g10601" inkscape:label="05">
      <rect y="-15.874992" x="482.60001" height="38.099995" width="19.050001" id="rect8359" style="display:inline;opacity:1;fill:none;fill-opacity:1;stroke:none;stroke-width:0.17638889;stroke-linecap:butt;stroke-linejoin:miter;stroke-miterlimit:47.14606857;stroke-dasharray:none;stroke-dashoffset:0;stroke-opacity:1;paint-order:markers fill stroke"/>
      <path inkscape:export-ydpi="96" inkscape:export-xdpi="96" inkscape:export-filename="C:\mine\Vira\Vira table excerpts\Tourne.png" id="path8443" d="m 492.12502,4.7625352 c -1.36656,0 -2.56266,0.91784 -2.91636,2.2378198 -0.35367,1.32001 0.22331,2.71293 1.4067,3.396209 -1.18347,-0.683289 -2.67834,-0.486399 -3.64464,0.47989 -0.96628,0.96629 -1.16302,2.46113 -0.47975,3.644611 0.6833,1.18347 2.07624,1.7604 3.39623,1.40673 0.79453,-0.21292 1.44296,-0.73126 1.83361,-1.40808 l -1.21379,4.53032 h 3.23601 l -1.21393,-4.53068 c 0.39063,0.67697 1.03905,1.19547 1.83375,1.40844 1.31999,0.35367 2.71305,-0.22333 3.39635,-1.40673 0.68326,-1.183461 0.48642,-2.678321 -0.4799,-3.644611 -0.96629,-0.966299 -2.46116,-1.163169 -3.64464,-0.47989 1.18348,-0.683279 1.76051,-2.076209 1.40684,-3.396209 -0.3537,-1.3199798 -1.54994,-2.2378098 -2.91648,-2.2378198 z" style="opacity:1;fill:#000000;fill-opacity:1;stroke:none;stroke-width:0.07055556;stroke-linecap:butt;stroke-linejoin:miter;stroke-miterlimit:4;stroke-dasharray:none;stroke-dashoffset:0;paint-order:normal" inkscape:connector-curvature="0"/>
      <g id="text8393" style="font-style:normal;font-variant:normal;font-weight:normal;font-stretch:normal;font-size:21.16666794px;line-height:125%;font-family:'Stint Ultra Condensed';-inkscape-font-specification:'Stint Ultra Condensed, ';font-variant-ligatures:normal;font-variant-caps:normal;font-variant-numeric:normal;text-align:center;letter-spacing:0px;word-spacing:0px;writing-mode:lr-tb;text-anchor:middle;fill:#000000;fill-opacity:1;stroke:none;stroke-width:0.26458335" aria-label="J">
        <path id="path9852" style="font-style:normal;font-variant:normal;font-weight:normal;font-stretch:normal;font-size:21.16666794px;font-family:'Stint Ultra Condensed';-inkscape-font-specification:'Stint Ultra Condensed, ';text-align:center;text-anchor:middle;stroke-width:0.26458335" d="m 491.24653,-12.613155 h 4.05143 v 1.157552 h -1.27124 v 9.1673998 q 0,1.116211 -0.1757,1.8913575 -0.16536,0.76481125 -0.48576,1.25056974 -0.31005,0.47542316 -0.76481,0.69246426 -0.44441,0.2067057 -1.01285,0.2067057 -0.55811,0 -1.00253,-0.1860352 -0.43408,-0.1860351 -0.74414,-0.69246419 -0.31006,-0.51676435 -0.47542,-1.42626961 -0.16537,-0.9095053 -0.16537,-2.3461102 h 1.29192 q 0.0103,0.971517 0.0413,1.6329754 0.0413,0.66145836 0.14469,1.07486984 0.11369,0.4030762 0.33073,0.58911137 0.21704,0.17569988 0.57878,0.17569988 0.36173,0 0.58911,-0.18603517 0.22737,-0.19637045 0.3514,-0.5581055 0.12402,-0.37207034 0.16536,-0.91984052 0.0413,-0.5477702 0.0413,-1.2609051 v -9.105388 h -1.48828 z"/>
      </g>
    </g>
    </g></svg>
