<?xml version='1.0' encoding='UTF-8'?>
<!-- Created with Inkscape (http://www.inkscape.org/) and export_objects.py -->
<svg xmlns:cc="http://creativecommons.org/ns#" xmlns:dc="http://purl.org/dc/elements/1.1/" xmlns:inkscape="http://www.inkscape.org/namespaces/inkscape" xmlns:rdf="http://www.w3.org/1999/02/22-rdf-syntax-ns#" xmlns:sodipodi="http://sodipodi.sourceforge.net/DTD/sodipodi-0.dtd" xmlns:xlink="http://www.w3.org/1999/xlink" xmlns="http://www.w3.org/2000/svg" version="1.1" width="0.75000003125in" height="1.49999979167in" viewBox="0 0 19.0500007937 38.0999947083" id="svg8" inkscape:version="0.92.3 (2405546, 2018-03-11)" sodipodi:docname="club-06.svg"><sodipodi:namedview id="base" pagecolor="#ffffff" bordercolor="#666666" borderopacity="1.0" inkscape:pageopacity="0.0" inkscape:pageshadow="2" inkscape:zoom="0.7644654" inkscape:cx="1581.9145" inkscape:cy="1075.3584" inkscape:document-units="in" inkscape:current-layer="layer3" showgrid="true" units="in" inkscape:snap-others="true" inkscape:snap-grids="true" inkscape:window-width="1280" inkscape:window-height="940" inkscape:window-x="1909" inkscape:window-y="43" inkscape:window-maximized="1" inkscape:snap-midpoints="false" inkscape:object-nodes="true" inkscape:snap-text-baseline="true" inkscape:snap-smooth-nodes="false" showguides="false" inkscape:snap-object-midpoints="true" inkscape:snap-center="true" inkscape:snap-to-guides="false" inkscape:snap-nodes="true" inkscape:snap-intersection-paths="false">
    <inkscape:grid type="xygrid" id="grid10" units="pt" spacingx="3.1750001" spacingy="3.1750001"/>
    <sodipodi:guide position="380.20625,103.1875" orientation="0,1" id="guide9455" inkscape:locked="false"/>
  </sodipodi:namedview>
  <metadata id="metadata5">
    <rdf:RDF>
      <cc:Work rdf:about="">
        <dc:format>image/svg+xml</dc:format>
        <dc:type rdf:resource="http://purl.org/dc/dcmitype/StillImage"/>
        <dc:title/>
      </cc:Work>
    </rdf:RDF>
  </metadata>
  <g inkscape:groupmode="layer" inkscape:label="club-" transform="matrix(1.000000,0.000000,0.000000,1.000000,-438.149974,15.874997)"><g id="g10589" inkscape:label="06">
      <rect style="display:inline;opacity:1;fill:none;fill-opacity:1;stroke:none;stroke-width:0.17638889;stroke-linecap:butt;stroke-linejoin:miter;stroke-miterlimit:47.14606857;stroke-dasharray:none;stroke-dashoffset:0;stroke-opacity:1;paint-order:markers fill stroke" id="rect8361" width="19.050001" height="38.099995" x="438.14999" y="-15.874997"/>
      <path inkscape:connector-curvature="0" style="opacity:1;fill:#000000;fill-opacity:1;stroke:none;stroke-width:0.07055556;stroke-linecap:butt;stroke-linejoin:miter;stroke-miterlimit:4;stroke-dasharray:none;stroke-dashoffset:0;paint-order:normal" d="m 447.67501,4.7625306 c -1.36656,0 -2.56266,0.91784 -2.91636,2.23782 -0.35367,1.32001 0.22331,2.71293 1.4067,3.3962094 -1.18347,-0.6832894 -2.67834,-0.4863994 -3.64464,0.47989 -0.96628,0.96629 -1.16302,2.46113 -0.47975,3.644611 0.6833,1.18347 2.07624,1.7604 3.39623,1.40673 0.79453,-0.21292 1.44295,-0.73126 1.83361,-1.40808 l -1.21379,4.53032 h 3.23601 l -1.21393,-4.53068 c 0.39063,0.67697 1.03905,1.19547 1.83375,1.40844 1.31999,0.35367 2.71304,-0.22333 3.39635,-1.40673 0.68326,-1.183461 0.48641,-2.678321 -0.4799,-3.644611 -0.96629,-0.9662994 -2.46116,-1.1631694 -3.64464,-0.47989 1.18348,-0.6832794 1.76052,-2.0762094 1.40684,-3.3962094 -0.3537,-1.31998 -1.54993,-2.23781 -2.91648,-2.23782 z" id="path8449" inkscape:export-filename="C:\mine\Vira\Vira table excerpts\Tourne.png" inkscape:export-xdpi="96" inkscape:export-ydpi="96"/>
      <g id="text8397" style="font-style:normal;font-variant:normal;font-weight:normal;font-stretch:normal;font-size:21.16666794px;line-height:125%;font-family:'Stint Ultra Condensed';-inkscape-font-specification:'Stint Ultra Condensed, ';font-variant-ligatures:normal;font-variant-caps:normal;font-variant-numeric:normal;text-align:center;letter-spacing:0px;word-spacing:0px;writing-mode:lr-tb;text-anchor:middle;fill:#000000;fill-opacity:1;stroke:none;stroke-width:0.26458335" aria-label="10">
        <path id="path9847" style="font-style:normal;font-variant:normal;font-weight:normal;font-stretch:normal;font-size:21.16666794px;font-family:'Stint Ultra Condensed';-inkscape-font-specification:'Stint Ultra Condensed, ';text-align:center;text-anchor:middle;stroke-width:0.26458335" d="m 442.20765,0.41963745 h 1.37459 V -11.476278 l -1.69498,1.064535 v -1.147217 l 1.69498,-1.0542 h 1.27124 V 0.41963745 h 1.3746 V 1.5875249 h -4.02043 z"/>
        <path id="path9849" style="font-style:normal;font-variant:normal;font-weight:normal;font-stretch:normal;font-size:21.16666794px;font-family:'Stint Ultra Condensed';-inkscape-font-specification:'Stint Ultra Condensed, ';text-align:center;text-anchor:middle;stroke-width:0.26458335" d="m 453.10104,-5.502482 q 0,1.9430339 -0.22737,3.3382977 -0.22738,1.39526374 -0.63045,2.29443371 -0.40308,0.88883469 -0.96119,1.31258149 -0.54777,0.4237467 -1.18855,0.4237467 -0.65113,0 -1.20923,-0.4237467 -0.54777,-0.4237468 -0.96118,-1.31258149 -0.40308,-0.89916997 -0.63046,-2.29443371 -0.22737,-1.3952638 -0.22737,-3.3382977 0,-1.9326987 0.22737,-3.3279625 0.22738,-1.3952635 0.63046,-2.2944335 0.41341,-0.89917 0.96118,-1.322917 0.5581,-0.423747 1.20923,-0.423747 0.64078,0 1.18855,0.423747 0.55811,0.423747 0.96119,1.322917 0.40307,0.89917 0.63045,2.2944335 0.22737,1.3952638 0.22737,3.3279625 z m -1.31258,0 q 0,-1.6639813 -0.13436,-2.842204 -0.12402,-1.188558 -0.3514,-1.943034 -0.22737,-0.754476 -0.53743,-1.105876 -0.31006,-0.351399 -0.67179,-0.351399 -0.36174,0 -0.68213,0.351399 -0.31006,0.3514 -0.54777,1.105876 -0.22738,0.754476 -0.36174,1.943034 -0.12402,1.1782227 -0.12402,2.842204 0,1.6639812 0.12402,2.8525392 0.13436,1.1782227 0.36174,1.93269867 0.23771,0.75447596 0.54777,1.10587572 0.32039,0.35139976 0.68213,0.35139976 0.36173,0 0.67179,-0.35139976 0.31006,-0.35139976 0.53743,-1.10587572 0.22738,-0.76481127 0.3514,-1.94303397 0.13436,-1.1782227 0.13436,-2.8422039 z"/>
      </g>
    </g>
    </g></svg>
