<?xml version='1.0' encoding='UTF-8'?>
<!-- Created with Inkscape (http://www.inkscape.org/) and export_objects.py -->
<svg xmlns:cc="http://creativecommons.org/ns#" xmlns:dc="http://purl.org/dc/elements/1.1/" xmlns:inkscape="http://www.inkscape.org/namespaces/inkscape" xmlns:rdf="http://www.w3.org/1999/02/22-rdf-syntax-ns#" xmlns:sodipodi="http://sodipodi.sourceforge.net/DTD/sodipodi-0.dtd" xmlns:xlink="http://www.w3.org/1999/xlink" xmlns="http://www.w3.org/2000/svg" version="1.1" width="0.75000003125in" height="1.49999979167in" viewBox="0 0 19.0500007937 38.0999947083" id="svg8" inkscape:version="0.92.3 (2405546, 2018-03-11)" sodipodi:docname="club-04.svg"><sodipodi:namedview id="base" pagecolor="#ffffff" bordercolor="#666666" borderopacity="1.0" inkscape:pageopacity="0.0" inkscape:pageshadow="2" inkscape:zoom="0.7644654" inkscape:cx="1581.9145" inkscape:cy="1075.3584" inkscape:document-units="in" inkscape:current-layer="layer3" showgrid="true" units="in" inkscape:snap-others="true" inkscape:snap-grids="true" inkscape:window-width="1280" inkscape:window-height="940" inkscape:window-x="1909" inkscape:window-y="43" inkscape:window-maximized="1" inkscape:snap-midpoints="false" inkscape:object-nodes="true" inkscape:snap-text-baseline="true" inkscape:snap-smooth-nodes="false" showguides="false" inkscape:snap-object-midpoints="true" inkscape:snap-center="true" inkscape:snap-to-guides="false" inkscape:snap-nodes="true" inkscape:snap-intersection-paths="false">
    <inkscape:grid type="xygrid" id="grid10" units="pt" spacingx="3.1750001" spacingy="3.1750001"/>
    <sodipodi:guide position="380.20625,103.1875" orientation="0,1" id="guide9455" inkscape:locked="false"/>
  </sodipodi:namedview>
  <metadata id="metadata5">
    <rdf:RDF>
      <cc:Work rdf:about="">
        <dc:format>image/svg+xml</dc:format>
        <dc:type rdf:resource="http://purl.org/dc/dcmitype/StillImage"/>
        <dc:title/>
      </cc:Work>
    </rdf:RDF>
  </metadata>
  <g inkscape:groupmode="layer" inkscape:label="club-" transform="matrix(1.000000,0.000000,0.000000,1.000000,-527.050026,15.874996)"><g id="g10613" inkscape:label="04">
      <rect style="display:inline;opacity:1;fill:none;fill-opacity:1;stroke:none;stroke-width:0.17638889;stroke-linecap:butt;stroke-linejoin:miter;stroke-miterlimit:47.14606857;stroke-dasharray:none;stroke-dashoffset:0;stroke-opacity:1;paint-order:markers fill stroke" id="rect8357" width="19.050001" height="38.099995" x="527.05005" y="-15.874996"/>
      <path inkscape:connector-curvature="0" style="opacity:1;fill:#000000;fill-opacity:1;stroke:none;stroke-width:0.07055556;stroke-linecap:butt;stroke-linejoin:miter;stroke-miterlimit:4;stroke-dasharray:none;stroke-dashoffset:0;paint-order:normal" d="m 536.57505,4.7625405 c -1.36656,0 -2.56266,0.91783 -2.91636,2.23781 -0.35367,1.32001 0.22331,2.71293 1.4067,3.3962095 -1.18347,-0.6832895 -2.67834,-0.4863995 -3.64464,0.47989 -0.96628,0.96629 -1.16302,2.46115 -0.47975,3.644611 0.6833,1.18348 2.07624,1.7604 3.39623,1.40673 0.79453,-0.21292 1.44296,-0.73126 1.83361,-1.40808 l -1.21379,4.53032 h 3.23601 l -1.21393,-4.53068 c 0.39063,0.67697 1.03905,1.19547 1.83375,1.40844 1.31999,0.35367 2.71305,-0.22333 3.39635,-1.40673 0.68326,-1.183461 0.48642,-2.678321 -0.4799,-3.644611 -0.96629,-0.9662995 -2.46117,-1.1631695 -3.64464,-0.47989 1.18347,-0.6832795 1.76052,-2.0762095 1.40684,-3.3962095 -0.3537,-1.31998 -1.54994,-2.23781 -2.91648,-2.23781 z" id="path8437" inkscape:export-filename="C:\mine\Vira\Vira table excerpts\Tourne.png" inkscape:export-xdpi="96" inkscape:export-ydpi="96"/>
      <g id="text8389" style="font-style:normal;font-variant:normal;font-weight:normal;font-stretch:normal;font-size:21.16666794px;line-height:125%;font-family:'Stint Ultra Condensed';-inkscape-font-specification:'Stint Ultra Condensed, ';font-variant-ligatures:normal;font-variant-caps:normal;font-variant-numeric:normal;text-align:center;letter-spacing:0px;word-spacing:0px;writing-mode:lr-tb;text-anchor:middle;fill:#000000;fill-opacity:1;stroke:none;stroke-width:0.26458335" aria-label="Q">
        <path id="path9855" style="font-style:normal;font-variant:normal;font-weight:normal;font-stretch:normal;font-size:21.16666794px;font-family:'Stint Ultra Condensed';-inkscape-font-specification:'Stint Ultra Condensed, ';text-align:center;text-anchor:middle;stroke-width:0.26458335" d="m 540.19242,-5.5024823 q 0,1.8190105 -0.25838,3.1522626 -0.24805,1.333252 -0.69246,2.24275727 0.5271,0.3203939 1.09554,0.54777022 0.56844,0.22737631 1.12654,0.3203939 L 540.9469,2.0526126 Q 540.35779,1.8459068 539.77901,1.5255129 539.21057,1.205119 538.6628,0.82271341 538.22872,1.349813 537.70162,1.6081952 q -0.51676,0.2583822 -1.10588,0.2583822 -0.77514,0 -1.4366,-0.4340821 -0.66146,-0.43408201 -1.14722,-1.33325199 -0.48576,-0.90950526 -0.76481,-2.29443371 -0.27905,-1.3952638 -0.27905,-3.3072919 0,-1.9016928 0.27905,-3.2866213 0.27905,-1.3952634 0.76481,-2.3047694 0.4961,-0.909505 1.15755,-1.343587 0.66146,-0.434082 1.42627,-0.434082 0.75448,0 1.41594,0.434082 0.66146,0.434082 1.13688,1.343587 0.48576,0.89917 0.76481,2.2944341 0.27905,1.3849285 0.27905,3.2969566 z m -1.42627,0 q 0,-3.0179038 -0.54777,-4.5992027 -0.54777,-1.581299 -1.62264,-1.581299 -1.10587,0 -1.65364,1.60197 -0.54777,1.5916338 -0.54777,4.5785317 0,3.0179038 0.54777,4.59920277 0.54777,1.58129892 1.65364,1.58129892 0.65113,0 1.13689,-0.6407878 -0.50643,-0.46508792 -0.90951,-0.99218756 l 0.5271,-0.82682293 q 0.34106,0.4960937 0.84749,0.9301758 0.56844,-1.5709636 0.56844,-4.6508792 z"/>
      </g>
    </g>
    </g></svg>
