<?xml version='1.0' encoding='UTF-8'?>
<!-- Created with Inkscape (http://www.inkscape.org/) and export_objects.py -->
<svg xmlns:cc="http://creativecommons.org/ns#" xmlns:dc="http://purl.org/dc/elements/1.1/" xmlns:inkscape="http://www.inkscape.org/namespaces/inkscape" xmlns:rdf="http://www.w3.org/1999/02/22-rdf-syntax-ns#" xmlns:sodipodi="http://sodipodi.sourceforge.net/DTD/sodipodi-0.dtd" xmlns:xlink="http://www.w3.org/1999/xlink" xmlns="http://www.w3.org/2000/svg" version="1.1" width="0.75000003125in" height="1.49999979167in" viewBox="0 0 19.0500007937 38.0999947083" id="svg8" inkscape:version="0.92.3 (2405546, 2018-03-11)" sodipodi:docname="heart-06.svg"><sodipodi:namedview id="base" pagecolor="#ffffff" bordercolor="#666666" borderopacity="1.0" inkscape:pageopacity="0.0" inkscape:pageshadow="2" inkscape:zoom="0.7644654" inkscape:cx="1581.9145" inkscape:cy="1075.3584" inkscape:document-units="in" inkscape:current-layer="layer3" showgrid="true" units="in" inkscape:snap-others="true" inkscape:snap-grids="true" inkscape:window-width="1280" inkscape:window-height="940" inkscape:window-x="1909" inkscape:window-y="43" inkscape:window-maximized="1" inkscape:snap-midpoints="false" inkscape:object-nodes="true" inkscape:snap-text-baseline="true" inkscape:snap-smooth-nodes="false" showguides="false" inkscape:snap-object-midpoints="true" inkscape:snap-center="true" inkscape:snap-to-guides="false" inkscape:snap-nodes="true" inkscape:snap-intersection-paths="false">
    <inkscape:grid type="xygrid" id="grid10" units="pt" spacingx="3.1750001" spacingy="3.1750001"/>
    <sodipodi:guide position="380.20625,103.1875" orientation="0,1" id="guide9455" inkscape:locked="false"/>
  </sodipodi:namedview>
  <metadata id="metadata5">
    <rdf:RDF>
      <cc:Work rdf:about="">
        <dc:format>image/svg+xml</dc:format>
        <dc:type rdf:resource="http://purl.org/dc/dcmitype/StillImage"/>
        <dc:title/>
      </cc:Work>
    </rdf:RDF>
  </metadata>
  <g inkscape:groupmode="layer" inkscape:label="heart-" transform="matrix(1.000000,0.000000,0.000000,1.000000,-438.149974,98.424979)"><g id="g10401" inkscape:label="06">
      <rect style="display:inline;opacity:1;fill:none;fill-opacity:1;stroke:none;stroke-width:0.17638889;stroke-linecap:butt;stroke-linejoin:miter;stroke-miterlimit:47.14606857;stroke-dasharray:none;stroke-dashoffset:0;stroke-opacity:1;paint-order:markers fill stroke" id="rect8205" width="19.050001" height="38.099995" x="438.14999" y="-98.42498"/>
      <path style="display:inline;opacity:1;fill:#800000;fill-opacity:1;stroke:none;stroke-width:0.07055553;stroke-linecap:butt;stroke-linejoin:miter;stroke-miterlimit:4;stroke-dasharray:none;stroke-dashoffset:0;paint-order:normal" d="m 447.67501,-63.499985 -5.63427,-9.758529 0.002,-7.94e-4 a 3.0192967,3.0192967 0 0 1 -0.40725,-1.508911 3.0192967,3.0192967 0 0 1 3.01928,-3.01929 3.0192967,3.0192967 0 0 1 3.0193,3.01929 3.0192967,3.0192967 0 0 1 3.0193,-3.01929 3.0192967,3.0192967 0 0 1 3.0193,3.01929 3.0192967,3.0192967 0 0 1 -0.40727,1.508911 l 0.002,7.94e-4 z" id="path8451" inkscape:connector-curvature="0" inkscape:export-filename="C:\mine\Vira\Vira table excerpts\heart-icon.png" inkscape:export-xdpi="96" inkscape:export-ydpi="96"/>
      <g id="text8241" style="font-style:normal;font-variant:normal;font-weight:normal;font-stretch:normal;font-size:21.16666794px;line-height:125%;font-family:'Stint Ultra Condensed';-inkscape-font-specification:'Stint Ultra Condensed, ';font-variant-ligatures:normal;font-variant-caps:normal;font-variant-numeric:normal;text-align:center;letter-spacing:0px;word-spacing:0px;writing-mode:lr-tb;text-anchor:middle;fill:#800000;fill-opacity:1;stroke:none;stroke-width:0.26458335" aria-label="10">
        <path id="path9929" style="font-style:normal;font-variant:normal;font-weight:normal;font-stretch:normal;font-size:21.16666794px;font-family:'Stint Ultra Condensed';-inkscape-font-specification:'Stint Ultra Condensed, ';text-align:center;text-anchor:middle;fill:#800000;stroke-width:0.26458335" d="m 442.20765,-82.130366 h 1.37459 v -11.895916 l -1.69498,1.064535 v -1.147217 l 1.69498,-1.054199 h 1.27124 v 13.032797 h 1.3746 v 1.167887 h -4.02043 z"/>
        <path id="path9931" style="font-style:normal;font-variant:normal;font-weight:normal;font-stretch:normal;font-size:21.16666794px;font-family:'Stint Ultra Condensed';-inkscape-font-specification:'Stint Ultra Condensed, ';text-align:center;text-anchor:middle;fill:#800000;stroke-width:0.26458335" d="m 453.10104,-88.052486 q 0,1.943034 -0.22737,3.338298 -0.22738,1.395264 -0.63045,2.294434 -0.40308,0.888835 -0.96119,1.312581 -0.54777,0.423747 -1.18855,0.423747 -0.65113,0 -1.20923,-0.423747 -0.54777,-0.423746 -0.96118,-1.312581 -0.40308,-0.89917 -0.63046,-2.294434 -0.22737,-1.395264 -0.22737,-3.338298 0,-1.932698 0.22737,-3.327962 0.22738,-1.395264 0.63046,-2.294434 0.41341,-0.89917 0.96118,-1.322916 0.5581,-0.423747 1.20923,-0.423747 0.64078,0 1.18855,0.423747 0.55811,0.423746 0.96119,1.322916 0.40307,0.89917 0.63045,2.294434 0.22737,1.395264 0.22737,3.327962 z m -1.31258,0 q 0,-1.663981 -0.13436,-2.842204 -0.12402,-1.188558 -0.3514,-1.943033 -0.22737,-0.754476 -0.53743,-1.105876 -0.31006,-0.3514 -0.67179,-0.3514 -0.36174,0 -0.68213,0.3514 -0.31006,0.3514 -0.54777,1.105876 -0.22738,0.754475 -0.36174,1.943033 -0.12402,1.178223 -0.12402,2.842204 0,1.663982 0.12402,2.85254 0.13436,1.178222 0.36174,1.932698 0.23771,0.754476 0.54777,1.105876 0.32039,0.3514 0.68213,0.3514 0.36173,0 0.67179,-0.3514 0.31006,-0.3514 0.53743,-1.105876 0.22738,-0.764811 0.3514,-1.943034 0.13436,-1.178222 0.13436,-2.842204 z"/>
      </g>
    </g>
    </g></svg>
