<?xml version='1.0' encoding='UTF-8'?>
<!-- Created with Inkscape (http://www.inkscape.org/) and export_objects.py -->
<svg xmlns:cc="http://creativecommons.org/ns#" xmlns:dc="http://purl.org/dc/elements/1.1/" xmlns:inkscape="http://www.inkscape.org/namespaces/inkscape" xmlns:rdf="http://www.w3.org/1999/02/22-rdf-syntax-ns#" xmlns:sodipodi="http://sodipodi.sourceforge.net/DTD/sodipodi-0.dtd" xmlns:xlink="http://www.w3.org/1999/xlink" xmlns="http://www.w3.org/2000/svg" version="1.1" width="53.9999985pt" height="108.0pt" viewBox="0 0 19.0499994708 38.1" id="svg8" inkscape:version="0.92.3 (2405546, 2018-03-11)" sodipodi:docname="card-06.svg"><sodipodi:namedview id="base" pagecolor="#ffffff" bordercolor="#666666" borderopacity="1.0" inkscape:pageopacity="0.0" inkscape:pageshadow="2" inkscape:zoom="1.5057403" inkscape:cx="1440.9352" inkscape:cy="172.44675" inkscape:document-units="pt" inkscape:current-layer="layer3" showgrid="true" units="pt" inkscape:snap-others="false" inkscape:snap-grids="true" inkscape:window-width="1920" inkscape:window-height="1006" inkscape:window-x="1909" inkscape:window-y="-11" inkscape:window-maximized="1" inkscape:snap-midpoints="false" inkscape:object-nodes="true" inkscape:snap-text-baseline="true" inkscape:snap-smooth-nodes="false" inkscape:snap-bbox="false" inkscape:snap-bbox-edge-midpoints="true" inkscape:snap-nodes="true" inkscape:bbox-nodes="false">
    <inkscape:grid type="xygrid" id="grid10" units="pt" spacingx="0.79375002" spacingy="0.79375002"/>
  </sodipodi:namedview>
  <metadata id="metadata5">
    <rdf:RDF>
      <cc:Work rdf:about="">
        <dc:format>image/svg+xml</dc:format>
        <dc:type rdf:resource="http://purl.org/dc/dcmitype/StillImage"/>
        <dc:title/>
      </cc:Work>
    </rdf:RDF>
  </metadata>
  <g inkscape:groupmode="layer" inkscape:label="card-" transform="matrix(1.000000,0.000000,0.000000,1.000000,-412.750026,-193.674937)"><g id="g14520" inkscape:label="06">
      <path id="rect14158" d="m 412.75003,193.67494 h 19.05 v 38.1 h -19.05 z" style="display:inline;opacity:1;fill:none;fill-opacity:1;stroke:none;stroke-width:0.17638889;stroke-linecap:butt;stroke-linejoin:miter;stroke-miterlimit:47.14606857;stroke-dasharray:none;stroke-dashoffset:0;stroke-opacity:1;paint-order:markers fill stroke"/>
      <path style="display:inline;opacity:1;fill:#fb4810;fill-opacity:1;stroke:none;stroke-width:0.07055553;stroke-linecap:butt;stroke-linejoin:miter;stroke-miterlimit:4;stroke-dasharray:none;stroke-dashoffset:0;paint-order:normal" d="m 422.27504,228.6 -5.63427,-9.75853 0.002,-8e-4 a 3.0192967,3.0192967 0 0 1 -0.40725,-1.5089 3.0192967,3.0192967 0 0 1 3.01928,-3.01929 3.0192967,3.0192967 0 0 1 3.0193,3.01929 3.0192967,3.0192967 0 0 1 3.01929,-3.01929 3.0192967,3.0192967 0 0 1 3.0193,3.01929 3.0192967,3.0192967 0 0 1 -0.40727,1.5089 l 0.002,8e-4 z" id="path14204" inkscape:connector-curvature="0" inkscape:export-filename="C:\mine\Vira\Vira table excerpts\heart-icon.png" inkscape:export-xdpi="96" inkscape:export-ydpi="96"/>
      <g id="text14238" style="font-style:normal;font-variant:normal;font-weight:normal;font-stretch:normal;font-size:21.16666794px;line-height:125%;font-family:'Stint Ultra Condensed';-inkscape-font-specification:'Stint Ultra Condensed, ';font-variant-ligatures:normal;font-variant-caps:normal;font-variant-numeric:normal;text-align:center;letter-spacing:0px;word-spacing:0px;writing-mode:lr-tb;text-anchor:middle;fill:#fb4810;fill-opacity:1;stroke:none;stroke-width:0.26458335" aria-label="Kn">
        <path id="path14457" style="font-style:normal;font-variant:normal;font-weight:normal;font-stretch:normal;font-size:21.16666794px;font-family:'Stint Ultra Condensed';-inkscape-font-specification:'Stint Ultra Condensed, ';text-align:center;text-anchor:middle;fill:#fb4810;fill-opacity:1;stroke-width:0.26458335" d="m 415.13337,196.93683 h 3.82406 v 1.15755 h -1.27124 v 4.84725 l 2.62516,-4.84725 h -0.77515 v -1.15755 h 3.15227 v 1.15755 h -1.06454 l -2.6665,4.94027 2.92488,6.93497 h 1.16789 v 1.16789 h -3.3693 v -1.16789 h 0.86816 l -2.39778,-5.83943 -0.46509,0.84749 v 4.99194 h 1.27124 v 1.16789 h -3.82406 v -1.16789 h 1.26091 v -11.87524 h -1.26091 z"/>
        <path id="path14459" style="font-style:normal;font-variant:normal;font-weight:normal;font-stretch:normal;font-size:21.16666794px;font-family:'Stint Ultra Condensed';-inkscape-font-specification:'Stint Ultra Condensed, ';text-align:center;text-anchor:middle;fill:#fb4810;fill-opacity:1;stroke-width:0.26458335" d="m 423.29825,201.29832 h 2.1394 v 1.09554 q 0.36174,-0.62012 0.76481,-0.99219 0.41342,-0.3824 0.94052,-0.3824 0.76481,0 1.09554,0.67179 0.33072,0.67179 0.33072,1.91203 v 6.36653 h 0.8475 v 1.16789 h -2.78019 v -1.16789 h 0.64078 v -5.96346 q 0,-0.56844 -0.031,-0.91984 -0.0207,-0.3514 -0.0827,-0.54777 -0.0517,-0.2067 -0.1447,-0.27905 -0.093,-0.0724 -0.22737,-0.0724 -0.20671,0 -0.42375,0.20671 -0.20671,0.19637 -0.39274,0.51676 -0.18604,0.3204 -0.33073,0.72347 -0.1447,0.39274 -0.20671,0.79582 v 5.53971 h 0.63046 v 1.16789 h -2.76986 v -1.16789 h 0.84749 v -7.51375 h -0.84749 z"/>
      </g>
    </g>
    </g></svg>
