<?xml version='1.0' encoding='UTF-8'?>
<!-- Created with Inkscape (http://www.inkscape.org/) and export_objects.py -->
<svg xmlns:cc="http://creativecommons.org/ns#" xmlns:dc="http://purl.org/dc/elements/1.1/" xmlns:inkscape="http://www.inkscape.org/namespaces/inkscape" xmlns:rdf="http://www.w3.org/1999/02/22-rdf-syntax-ns#" xmlns:sodipodi="http://sodipodi.sourceforge.net/DTD/sodipodi-0.dtd" xmlns:xlink="http://www.w3.org/1999/xlink" xmlns="http://www.w3.org/2000/svg" version="1.1" width="0.75000003125in" height="1.49999979167in" viewBox="0 0 19.0500007937 38.0999947083" id="svg8" inkscape:version="0.92.3 (2405546, 2018-03-11)" sodipodi:docname="heart-07.svg"><sodipodi:namedview id="base" pagecolor="#ffffff" bordercolor="#666666" borderopacity="1.0" inkscape:pageopacity="0.0" inkscape:pageshadow="2" inkscape:zoom="0.7644654" inkscape:cx="1581.9145" inkscape:cy="1075.3584" inkscape:document-units="in" inkscape:current-layer="layer3" showgrid="true" units="in" inkscape:snap-others="true" inkscape:snap-grids="true" inkscape:window-width="1280" inkscape:window-height="940" inkscape:window-x="1909" inkscape:window-y="43" inkscape:window-maximized="1" inkscape:snap-midpoints="false" inkscape:object-nodes="true" inkscape:snap-text-baseline="true" inkscape:snap-smooth-nodes="false" showguides="false" inkscape:snap-object-midpoints="true" inkscape:snap-center="true" inkscape:snap-to-guides="false" inkscape:snap-nodes="true" inkscape:snap-intersection-paths="false">
    <inkscape:grid type="xygrid" id="grid10" units="pt" spacingx="3.1750001" spacingy="3.1750001"/>
    <sodipodi:guide position="380.20625,103.1875" orientation="0,1" id="guide9455" inkscape:locked="false"/>
  </sodipodi:namedview>
  <metadata id="metadata5">
    <rdf:RDF>
      <cc:Work rdf:about="">
        <dc:format>image/svg+xml</dc:format>
        <dc:type rdf:resource="http://purl.org/dc/dcmitype/StillImage"/>
        <dc:title/>
      </cc:Work>
    </rdf:RDF>
  </metadata>
  <g inkscape:groupmode="layer" inkscape:label="heart-" transform="matrix(1.000000,0.000000,0.000000,1.000000,-415.925000,98.424979)"><g id="g10261" inkscape:label="07">
      <rect y="-98.42498" x="415.92502" height="38.099995" width="19.050001" id="rect8207" style="display:inline;opacity:1;fill:none;fill-opacity:1;stroke:none;stroke-width:0.17638889;stroke-linecap:butt;stroke-linejoin:miter;stroke-miterlimit:47.14606857;stroke-dasharray:none;stroke-dashoffset:0;stroke-opacity:1;paint-order:markers fill stroke"/>
      <path inkscape:export-ydpi="96" inkscape:export-xdpi="96" inkscape:export-filename="C:\mine\Vira\Vira table excerpts\heart-icon.png" inkscape:connector-curvature="0" id="path8457" d="m 425.44999,-63.499985 -5.63426,-9.758529 0.002,-7.94e-4 a 3.0192967,3.0192967 0 0 1 -0.40725,-1.508911 3.0192967,3.0192967 0 0 1 3.01926,-3.01929 3.0192967,3.0192967 0 0 1 3.0193,3.01929 3.0192967,3.0192967 0 0 1 3.0193,-3.01929 3.0192967,3.0192967 0 0 1 3.0193,3.01929 3.0192967,3.0192967 0 0 1 -0.40727,1.508911 l 0.002,7.94e-4 z" style="display:inline;opacity:1;fill:#800000;fill-opacity:1;stroke:none;stroke-width:0.07055553;stroke-linecap:butt;stroke-linejoin:miter;stroke-miterlimit:4;stroke-dasharray:none;stroke-dashoffset:0;paint-order:normal"/>
      <g id="text8245" style="font-style:normal;font-variant:normal;font-weight:normal;font-stretch:normal;font-size:21.16666794px;line-height:125%;font-family:'Stint Ultra Condensed';-inkscape-font-specification:'Stint Ultra Condensed, ';font-variant-ligatures:normal;font-variant-caps:normal;font-variant-numeric:normal;text-align:center;letter-spacing:0px;word-spacing:0px;writing-mode:lr-tb;text-anchor:middle;fill:#800000;fill-opacity:1;stroke:none;stroke-width:0.26458335" aria-label="9">
        <path id="path9926" style="font-style:normal;font-variant:normal;font-weight:normal;font-stretch:normal;font-size:21.16666794px;font-family:'Stint Ultra Condensed';-inkscape-font-specification:'Stint Ultra Condensed, ';text-align:center;text-anchor:middle;fill:#800000;stroke-width:0.26458335" d="m 426.92799,-87.773433 q -0.0724,0.186035 -0.21704,0.475423 -0.13436,0.289388 -0.37207,0.558106 -0.22738,0.268717 -0.55811,0.465088 -0.33073,0.186035 -0.78548,0.186035 -0.50643,0 -0.95085,-0.279053 -0.44441,-0.289388 -0.77514,-0.868164 -0.3204,-0.578776 -0.51677,-1.44694 -0.18603,-0.878499 -0.18603,-2.056722 0,-0.971517 0.1757,-1.819011 0.1757,-0.857829 0.51676,-1.488281 0.34107,-0.640788 0.83716,-1.002523 0.49609,-0.37207 1.13688,-0.37207 0.63045,0 1.16789,0.434082 0.54777,0.423747 0.95085,1.291911 0.40307,0.857829 0.63045,2.160075 0.23771,1.302246 0.23771,3.059245 0,1.79834 -0.1757,3.24528 -0.1757,1.436605 -0.54777,2.449463 -0.36174,1.012858 -0.93018,1.560628 -0.5581,0.537435 -1.33325,0.537435 -0.49609,0 -0.94051,-0.279053 -0.44442,-0.268717 -0.78548,-0.806152 -0.33073,-0.537435 -0.5271,-1.333252 -0.18604,-0.806152 -0.18604,-1.860352 h 1.27124 q 0,1.539958 0.29973,2.34611 0.31006,0.806153 0.93017,0.806153 0.43409,0 0.74414,-0.475423 0.31006,-0.485759 0.50643,-1.302247 0.19637,-0.816487 0.28939,-1.891357 0.093,-1.085205 0.093,-2.294434 z m -1.67432,0.568441 q 0.3204,0 0.57878,-0.299723 0.25838,-0.299724 0.45475,-0.733806 0.20671,-0.434082 0.34107,-0.930176 0.13435,-0.496093 0.19637,-0.89917 0.0207,-0.764811 -0.093,-1.519287 -0.10335,-0.764811 -0.3204,-1.364258 -0.2067,-0.599446 -0.51676,-0.971517 -0.29972,-0.37207 -0.66146,-0.37207 -0.33073,0 -0.58911,0.258382 -0.25838,0.248047 -0.43408,0.713135 -0.1757,0.465088 -0.26872,1.126546 -0.0827,0.651123 -0.0827,1.457276 0,0.826823 0.0827,1.488281 0.0827,0.651123 0.24805,1.105876 0.1757,0.454752 0.43408,0.702799 0.26872,0.237712 0.63045,0.237712 z"/>
      </g>
    </g>
    </g></svg>
