<?xml version='1.0' encoding='UTF-8'?>
<!-- Created with Inkscape (http://www.inkscape.org/) and export_objects.py -->
<svg xmlns:cc="http://creativecommons.org/ns#" xmlns:dc="http://purl.org/dc/elements/1.1/" xmlns:inkscape="http://www.inkscape.org/namespaces/inkscape" xmlns:rdf="http://www.w3.org/1999/02/22-rdf-syntax-ns#" xmlns:sodipodi="http://sodipodi.sourceforge.net/DTD/sodipodi-0.dtd" xmlns:xlink="http://www.w3.org/1999/xlink" xmlns="http://www.w3.org/2000/svg" version="1.1" width="0.75000003125in" height="1.49999979167in" viewBox="0 0 19.0500007937 38.0999947083" id="svg8" inkscape:version="0.92.3 (2405546, 2018-03-11)" sodipodi:docname="heart-08.svg"><sodipodi:namedview id="base" pagecolor="#ffffff" bordercolor="#666666" borderopacity="1.0" inkscape:pageopacity="0.0" inkscape:pageshadow="2" inkscape:zoom="0.7644654" inkscape:cx="1581.9145" inkscape:cy="1075.3584" inkscape:document-units="in" inkscape:current-layer="layer3" showgrid="true" units="in" inkscape:snap-others="true" inkscape:snap-grids="true" inkscape:window-width="1280" inkscape:window-height="940" inkscape:window-x="1909" inkscape:window-y="43" inkscape:window-maximized="1" inkscape:snap-midpoints="false" inkscape:object-nodes="true" inkscape:snap-text-baseline="true" inkscape:snap-smooth-nodes="false" showguides="false" inkscape:snap-object-midpoints="true" inkscape:snap-center="true" inkscape:snap-to-guides="false" inkscape:snap-nodes="true" inkscape:snap-intersection-paths="false">
    <inkscape:grid type="xygrid" id="grid10" units="pt" spacingx="3.1750001" spacingy="3.1750001"/>
    <sodipodi:guide position="380.20625,103.1875" orientation="0,1" id="guide9455" inkscape:locked="false"/>
  </sodipodi:namedview>
  <metadata id="metadata5">
    <rdf:RDF>
      <cc:Work rdf:about="">
        <dc:format>image/svg+xml</dc:format>
        <dc:type rdf:resource="http://purl.org/dc/dcmitype/StillImage"/>
        <dc:title/>
      </cc:Work>
    </rdf:RDF>
  </metadata>
  <g inkscape:groupmode="layer" inkscape:label="heart-" transform="matrix(1.000000,0.000000,0.000000,1.000000,-393.700000,98.424979)"><g id="g10255" inkscape:label="08">
      <rect y="-98.42498" x="393.70001" height="38.099995" width="19.050001" id="rect8209" style="display:inline;opacity:1;fill:none;fill-opacity:1;stroke:none;stroke-width:0.17638889;stroke-linecap:butt;stroke-linejoin:miter;stroke-miterlimit:47.14606857;stroke-dasharray:none;stroke-dashoffset:0;stroke-opacity:1;paint-order:markers fill stroke"/>
      <path inkscape:export-ydpi="96" inkscape:export-xdpi="96" inkscape:export-filename="C:\mine\Vira\Vira table excerpts\heart-icon.png" inkscape:connector-curvature="0" id="path8463" d="m 403.22502,-63.499983 -5.63427,-9.758529 0.002,-7.94e-4 a 3.0192967,3.0192967 0 0 1 -0.40725,-1.508911 3.0192967,3.0192967 0 0 1 3.01927,-3.01929 3.0192967,3.0192967 0 0 1 3.0193,3.01929 3.0192967,3.0192967 0 0 1 3.0193,-3.01929 3.0192967,3.0192967 0 0 1 3.0193,3.01929 3.0192967,3.0192967 0 0 1 -0.40727,1.508911 l 0.002,7.94e-4 z" style="display:inline;opacity:1;fill:#800000;fill-opacity:1;stroke:none;stroke-width:0.07055553;stroke-linecap:butt;stroke-linejoin:miter;stroke-miterlimit:4;stroke-dasharray:none;stroke-dashoffset:0;paint-order:normal"/>
      <g id="text8249" style="font-style:normal;font-variant:normal;font-weight:normal;font-stretch:normal;font-size:21.16666794px;line-height:125%;font-family:'Stint Ultra Condensed';-inkscape-font-specification:'Stint Ultra Condensed, ';font-variant-ligatures:normal;font-variant-caps:normal;font-variant-numeric:normal;text-align:center;letter-spacing:0px;word-spacing:0px;writing-mode:lr-tb;text-anchor:middle;fill:#800000;fill-opacity:1;stroke:none;stroke-width:0.26458335" aria-label="8">
        <path id="path9923" style="font-style:normal;font-variant:normal;font-weight:normal;font-stretch:normal;font-size:21.16666794px;font-family:'Stint Ultra Condensed';-inkscape-font-specification:'Stint Ultra Condensed, ';text-align:center;text-anchor:middle;fill:#800000;stroke-width:0.26458335" d="m 404.23786,-88.713944 q 0.94052,0.3514 1.4056,1.364258 0.47543,1.012858 0.47543,2.511475 0,0.91984 -0.19637,1.684652 -0.19637,0.764811 -0.56844,1.312581 -0.37208,0.54777 -0.90951,0.857829 -0.53743,0.299723 -1.21956,0.299723 -0.68213,0 -1.21957,-0.299723 -0.53743,-0.310059 -0.91984,-0.857829 -0.37207,-0.54777 -0.56844,-1.312581 -0.19637,-0.764812 -0.19637,-1.684652 0,-0.744141 0.12402,-1.384929 0.12403,-0.640788 0.36174,-1.136881 0.23771,-0.506429 0.58911,-0.857829 0.3514,-0.361735 0.80615,-0.537435 -0.37207,-0.217041 -0.65112,-0.558106 -0.26872,-0.351399 -0.45475,-0.754476 -0.1757,-0.413411 -0.26872,-0.868164 -0.0827,-0.454752 -0.0827,-0.888834 0,-0.795817 0.1757,-1.457276 0.1757,-0.661458 0.49609,-1.136881 0.33073,-0.475424 0.78548,-0.733806 0.45476,-0.268717 1.00253,-0.268717 0.54777,0 1.00252,0.268717 0.45475,0.258382 0.78548,0.733806 0.33073,0.475423 0.51676,1.136881 0.18604,0.661459 0.18604,1.457276 0,0.434082 -0.093,0.89917 -0.0827,0.454752 -0.26872,0.878499 -0.1757,0.413412 -0.45475,0.764811 -0.26872,0.3514 -0.64079,0.568441 z m 0.18604,-3.038574 q 0,-0.506429 -0.0724,-0.971517 -0.062,-0.465088 -0.2067,-0.816488 -0.13436,-0.361735 -0.37207,-0.568441 -0.22738,-0.206706 -0.54777,-0.206706 -0.33073,0 -0.56844,0.206706 -0.22738,0.206706 -0.37208,0.568441 -0.14469,0.3514 -0.2067,0.816488 -0.062,0.465088 -0.062,0.971517 0,0.506429 0.0723,0.971517 0.0723,0.465088 0.21705,0.816487 0.15502,0.3514 0.3824,0.558106 0.22738,0.206706 0.53744,0.206706 0.31005,0 0.53743,-0.206706 0.22738,-0.206706 0.37207,-0.558106 0.1447,-0.351399 0.21704,-0.816487 0.0724,-0.465088 0.0724,-0.971517 z m -1.19889,3.59668 q -0.75448,0 -1.17823,0.837158 -0.41341,0.837158 -0.41341,2.335775 0,1.488281 0.40308,2.34611 0.40307,0.847493 1.18856,0.847493 0.77514,0 1.17822,-0.847493 0.40308,-0.857829 0.40308,-2.34611 0,-0.744141 -0.11369,-1.333252 -0.10336,-0.589112 -0.31006,-0.992188 -0.20671,-0.413411 -0.50643,-0.630452 -0.28939,-0.217041 -0.65112,-0.217041 z"/>
      </g>
    </g>
    </g></svg>
