<?xml version='1.0' encoding='UTF-8'?>
<!-- Created with Inkscape (http://www.inkscape.org/) and export_objects.py -->
<svg xmlns:cc="http://creativecommons.org/ns#" xmlns:dc="http://purl.org/dc/elements/1.1/" xmlns:inkscape="http://www.inkscape.org/namespaces/inkscape" xmlns:rdf="http://www.w3.org/1999/02/22-rdf-syntax-ns#" xmlns:sodipodi="http://sodipodi.sourceforge.net/DTD/sodipodi-0.dtd" xmlns:xlink="http://www.w3.org/1999/xlink" xmlns="http://www.w3.org/2000/svg" version="1.1" width="53.9999985pt" height="108.0pt" viewBox="0 0 19.0499994708 38.1" id="svg8" inkscape:version="0.92.3 (2405546, 2018-03-11)" sodipodi:docname="card-05.svg"><sodipodi:namedview id="base" pagecolor="#ffffff" bordercolor="#666666" borderopacity="1.0" inkscape:pageopacity="0.0" inkscape:pageshadow="2" inkscape:zoom="1.5057403" inkscape:cx="1440.9352" inkscape:cy="172.44675" inkscape:document-units="pt" inkscape:current-layer="layer3" showgrid="true" units="pt" inkscape:snap-others="false" inkscape:snap-grids="true" inkscape:window-width="1920" inkscape:window-height="1006" inkscape:window-x="1909" inkscape:window-y="-11" inkscape:window-maximized="1" inkscape:snap-midpoints="false" inkscape:object-nodes="true" inkscape:snap-text-baseline="true" inkscape:snap-smooth-nodes="false" inkscape:snap-bbox="false" inkscape:snap-bbox-edge-midpoints="true" inkscape:snap-nodes="true" inkscape:bbox-nodes="false">
    <inkscape:grid type="xygrid" id="grid10" units="pt" spacingx="0.79375002" spacingy="0.79375002"/>
  </sodipodi:namedview>
  <metadata id="metadata5">
    <rdf:RDF>
      <cc:Work rdf:about="">
        <dc:format>image/svg+xml</dc:format>
        <dc:type rdf:resource="http://purl.org/dc/dcmitype/StillImage"/>
        <dc:title/>
      </cc:Work>
    </rdf:RDF>
  </metadata>
  <g inkscape:groupmode="layer" inkscape:label="card-" transform="matrix(1.000000,0.000000,0.000000,1.000000,-387.350026,-193.674937)"><g id="g14513" inkscape:label="05">
      <path id="rect14156" d="m 387.35004,193.67494 h 19.05 v 38.1 h -19.05 z" style="display:inline;opacity:1;fill:none;fill-opacity:1;stroke:none;stroke-width:0.17638889;stroke-linecap:butt;stroke-linejoin:miter;stroke-miterlimit:47.14606857;stroke-dasharray:none;stroke-dashoffset:0;stroke-opacity:1;paint-order:markers fill stroke"/>
      <path inkscape:export-ydpi="96" inkscape:export-xdpi="96" inkscape:export-filename="C:\mine\Vira\Vira table excerpts\heart-icon.png" inkscape:connector-curvature="0" id="path14198" d="m 396.87506,228.6 -5.63428,-9.75853 0.002,-8e-4 a 3.0192967,3.0192967 0 0 1 -0.40725,-1.5089 3.0192967,3.0192967 0 0 1 3.01928,-3.01929 3.0192967,3.0192967 0 0 1 3.0193,3.01929 3.0192967,3.0192967 0 0 1 3.0193,-3.01929 3.0192967,3.0192967 0 0 1 3.01929,3.01929 3.0192967,3.0192967 0 0 1 -0.40727,1.5089 l 0.002,8e-4 z" style="display:inline;opacity:1;fill:#fb4810;fill-opacity:1;stroke:none;stroke-width:0.07055553;stroke-linecap:butt;stroke-linejoin:miter;stroke-miterlimit:4;stroke-dasharray:none;stroke-dashoffset:0;paint-order:normal"/>
      <g id="text14234" style="font-style:normal;font-variant:normal;font-weight:normal;font-stretch:normal;font-size:21.16666794px;line-height:125%;font-family:'Stint Ultra Condensed';-inkscape-font-specification:'Stint Ultra Condensed, ';font-variant-ligatures:normal;font-variant-caps:normal;font-variant-numeric:normal;text-align:center;letter-spacing:0px;word-spacing:0px;writing-mode:lr-tb;text-anchor:middle;fill:#fb4810;fill-opacity:1;stroke:none;stroke-width:0.26458335" aria-label="D">
        <path id="path14454" style="font-style:normal;font-variant:normal;font-weight:normal;font-stretch:normal;font-size:21.16666794px;font-family:'Stint Ultra Condensed';-inkscape-font-specification:'Stint Ultra Condensed, ';text-align:center;text-anchor:middle;fill:#fb4810;fill-opacity:1;stroke-width:0.26458335" d="m 392.97866,196.93683 h 3.97908 q 0.77515,0 1.41594,0.34106 0.64079,0.34107 1.10587,1.16789 0.46509,0.81649 0.71314,2.18075 0.25838,1.36425 0.25838,3.4003 0,2.04639 -0.25838,3.42098 -0.24805,1.36426 -0.71314,2.19109 -0.45475,0.81648 -1.09554,1.15755 -0.64078,0.34106 -1.42627,0.34106 h -3.97908 v -1.16789 h 1.2609 v -11.87524 h -1.2609 z m 6.12882,7.09 q 0,-1.73632 -0.14469,-2.88354 -0.13436,-1.14722 -0.41341,-1.81901 -0.26872,-0.68213 -0.66146,-0.95085 -0.39274,-0.27905 -0.88884,-0.27905 h -1.46761 v 11.87524 h 1.46761 q 0.4961,0 0.88884,-0.27905 0.39274,-0.27905 0.66146,-0.95084 0.27905,-0.68213 0.41341,-1.82935 0.14469,-1.14722 0.14469,-2.88355 z"/>
      </g>
    </g>
    </g></svg>
