<?xml version='1.0' encoding='UTF-8'?>
<!-- Created with Inkscape (http://www.inkscape.org/) and export_objects.py -->
<svg xmlns:cc="http://creativecommons.org/ns#" xmlns:dc="http://purl.org/dc/elements/1.1/" xmlns:inkscape="http://www.inkscape.org/namespaces/inkscape" xmlns:rdf="http://www.w3.org/1999/02/22-rdf-syntax-ns#" xmlns:sodipodi="http://sodipodi.sourceforge.net/DTD/sodipodi-0.dtd" xmlns:xlink="http://www.w3.org/1999/xlink" xmlns="http://www.w3.org/2000/svg" version="1.1" width="0.75000003125in" height="1.49999979167in" viewBox="0 0 19.0500007937 38.0999947083" id="svg8" inkscape:version="0.92.3 (2405546, 2018-03-11)" sodipodi:docname="heart-04.svg"><sodipodi:namedview id="base" pagecolor="#ffffff" bordercolor="#666666" borderopacity="1.0" inkscape:pageopacity="0.0" inkscape:pageshadow="2" inkscape:zoom="0.7644654" inkscape:cx="1581.9145" inkscape:cy="1075.3584" inkscape:document-units="in" inkscape:current-layer="layer3" showgrid="true" units="in" inkscape:snap-others="true" inkscape:snap-grids="true" inkscape:window-width="1280" inkscape:window-height="940" inkscape:window-x="1909" inkscape:window-y="43" inkscape:window-maximized="1" inkscape:snap-midpoints="false" inkscape:object-nodes="true" inkscape:snap-text-baseline="true" inkscape:snap-smooth-nodes="false" showguides="false" inkscape:snap-object-midpoints="true" inkscape:snap-center="true" inkscape:snap-to-guides="false" inkscape:snap-nodes="true" inkscape:snap-intersection-paths="false">
    <inkscape:grid type="xygrid" id="grid10" units="pt" spacingx="3.1750001" spacingy="3.1750001"/>
    <sodipodi:guide position="380.20625,103.1875" orientation="0,1" id="guide9455" inkscape:locked="false"/>
  </sodipodi:namedview>
  <metadata id="metadata5">
    <rdf:RDF>
      <cc:Work rdf:about="">
        <dc:format>image/svg+xml</dc:format>
        <dc:type rdf:resource="http://purl.org/dc/dcmitype/StillImage"/>
        <dc:title/>
      </cc:Work>
    </rdf:RDF>
  </metadata>
  <g inkscape:groupmode="layer" inkscape:label="heart-" transform="matrix(1.000000,0.000000,0.000000,1.000000,-527.050026,98.424979)"><g id="g10425" inkscape:label="04">
      <rect style="display:inline;opacity:1;fill:none;fill-opacity:1;stroke:none;stroke-width:0.17638889;stroke-linecap:butt;stroke-linejoin:miter;stroke-miterlimit:47.14606857;stroke-dasharray:none;stroke-dashoffset:0;stroke-opacity:1;paint-order:markers fill stroke" id="rect8201" width="19.050001" height="38.099995" x="527.05005" y="-98.42498"/>
      <path style="display:inline;opacity:1;fill:#800000;fill-opacity:1;stroke:none;stroke-width:0.07055553;stroke-linecap:butt;stroke-linejoin:miter;stroke-miterlimit:4;stroke-dasharray:none;stroke-dashoffset:0;paint-order:normal" d="m 536.57506,-63.499985 -5.63428,-9.758529 0.002,-7.94e-4 a 3.0192967,3.0192967 0 0 1 -0.40725,-1.508911 3.0192967,3.0192967 0 0 1 3.01928,-3.01929 3.0192967,3.0192967 0 0 1 3.0193,3.01929 3.0192967,3.0192967 0 0 1 3.0193,-3.01929 3.0192967,3.0192967 0 0 1 3.0193,3.01929 3.0192967,3.0192967 0 0 1 -0.40728,1.508911 l 0.002,7.94e-4 z" id="path8439" inkscape:connector-curvature="0" inkscape:export-filename="C:\mine\Vira\Vira table excerpts\heart-icon.png" inkscape:export-xdpi="96" inkscape:export-ydpi="96"/>
      <g id="text8233" style="font-style:normal;font-variant:normal;font-weight:normal;font-stretch:normal;font-size:21.16666794px;line-height:125%;font-family:'Stint Ultra Condensed';-inkscape-font-specification:'Stint Ultra Condensed, ';font-variant-ligatures:normal;font-variant-caps:normal;font-variant-numeric:normal;text-align:center;letter-spacing:0px;word-spacing:0px;writing-mode:lr-tb;text-anchor:middle;fill:#800000;fill-opacity:1;stroke:none;stroke-width:0.26458335" aria-label="Q">
        <path id="path9937" style="font-style:normal;font-variant:normal;font-weight:normal;font-stretch:normal;font-size:21.16666794px;font-family:'Stint Ultra Condensed';-inkscape-font-specification:'Stint Ultra Condensed, ';text-align:center;text-anchor:middle;fill:#800000;stroke-width:0.26458335" d="m 540.19242,-88.052486 q 0,1.819011 -0.25838,3.152263 -0.24805,1.333252 -0.69246,2.242757 0.5271,0.320394 1.09554,0.54777 0.56844,0.227377 1.12654,0.320394 l -0.51676,1.291911 q -0.58911,-0.206705 -1.16789,-0.527099 -0.56844,-0.320394 -1.11621,-0.7028 -0.43408,0.5271 -0.96118,0.785482 -0.51676,0.258382 -1.10588,0.258382 -0.77514,0 -1.4366,-0.434082 -0.66146,-0.434082 -1.14722,-1.333252 -0.48576,-0.909505 -0.76481,-2.294434 -0.27905,-1.395263 -0.27905,-3.307292 0,-1.901692 0.27905,-3.286621 0.27905,-1.395264 0.76481,-2.304769 0.4961,-0.909505 1.15755,-1.343587 0.66146,-0.434082 1.42627,-0.434082 0.75448,0 1.41594,0.434082 0.66146,0.434082 1.13688,1.343587 0.48576,0.89917 0.76481,2.294434 0.27905,1.384928 0.27905,3.296956 z m -1.42627,0 q 0,-3.017903 -0.54777,-4.599202 -0.54777,-1.581299 -1.62264,-1.581299 -1.10587,0 -1.65364,1.601969 -0.54777,1.591634 -0.54777,4.578532 0,3.017904 0.54777,4.599203 0.54777,1.581299 1.65364,1.581299 0.65113,0 1.13689,-0.640788 -0.50643,-0.465088 -0.90951,-0.992187 l 0.5271,-0.826823 q 0.34106,0.496094 0.84749,0.930176 0.56844,-1.570964 0.56844,-4.65088 z"/>
      </g>
    </g>
    </g></svg>
