<?xml version='1.0' encoding='UTF-8'?>
<!-- Created with Inkscape (http://www.inkscape.org/) and export_objects.py -->
<svg xmlns:cc="http://creativecommons.org/ns#" xmlns:dc="http://purl.org/dc/elements/1.1/" xmlns:inkscape="http://www.inkscape.org/namespaces/inkscape" xmlns:rdf="http://www.w3.org/1999/02/22-rdf-syntax-ns#" xmlns:sodipodi="http://sodipodi.sourceforge.net/DTD/sodipodi-0.dtd" xmlns:xlink="http://www.w3.org/1999/xlink" xmlns="http://www.w3.org/2000/svg" version="1.1" width="54.00000225pt" height="107.99997pt" viewBox="0 0 19.0500007937 38.0999894167" id="svg8" inkscape:version="0.92.3 (2405546, 2018-03-11)" sodipodi:docname="joker05.svg"><sodipodi:namedview id="base" pagecolor="#ffffff" bordercolor="#666666" borderopacity="1.0" inkscape:pageopacity="0.0" inkscape:pageshadow="2" inkscape:zoom="0.43945308" inkscape:cx="948.00004" inkscape:cy="106.98243" inkscape:document-units="pt" inkscape:current-layer="layer3" showgrid="true" units="pt" inkscape:snap-others="false" inkscape:snap-grids="true" inkscape:window-width="1280" inkscape:window-height="940" inkscape:window-x="1909" inkscape:window-y="43" inkscape:window-maximized="1" inkscape:snap-midpoints="false" inkscape:object-nodes="true" inkscape:snap-text-baseline="true" inkscape:snap-smooth-nodes="false" inkscape:snap-bbox="false" inkscape:snap-bbox-edge-midpoints="false" inkscape:snap-nodes="true" inkscape:bbox-nodes="true">
    <inkscape:grid type="xygrid" id="grid10" units="pt" spacingx="0.79375002" spacingy="0.79375002"/>
  </sodipodi:namedview>
  <metadata id="metadata5">
    <rdf:RDF>
      <cc:Work rdf:about="">
        <dc:format>image/svg+xml</dc:format>
        <dc:type rdf:resource="http://purl.org/dc/dcmitype/StillImage"/>
        <dc:title/>
      </cc:Work>
    </rdf:RDF>
  </metadata>
  <g inkscape:groupmode="layer" inkscape:label="joker" transform="matrix(1.000000,0.000000,0.000000,1.000000,-6.350021,-238.125069)"><g id="g3149" inkscape:label="05">
      <rect y="319.22507" x="6.3500214" height="38.099991" width="19.050001" id="rect2519" style="display:inline;opacity:1;fill:none;fill-opacity:1;stroke:none;stroke-width:0.17638887;stroke-linecap:butt;stroke-linejoin:miter;stroke-miterlimit:47.14606857;stroke-dasharray:none;stroke-dashoffset:0;stroke-opacity:1;paint-order:markers fill stroke" transform="translate(0,-81.099993)"/>
      <path d="m 17.52247,245.18263 q -0.27939,-0.68402 -0.549148,-1.2717 -0.260123,-0.5877 -0.48171,-1.02125 -0.211952,-0.43353 -0.375734,-0.67436 -0.154148,-0.25051 -0.23122,-0.25051 -0.125249,0 -0.452806,0.57804 -0.327563,0.57805 -0.770736,1.58963 -0.433537,1.00199 -0.944151,2.36039 -0.500976,1.3488 -0.973052,2.89988 l -0.549149,-0.39498 0.183051,-0.55876 q 0.279391,-0.87675 0.587684,-1.74381 0.317929,-0.87671 0.635856,-1.66672 0.317929,-0.79 0.635858,-1.47405 0.317927,-0.684 0.616588,-1.18497 0.298659,-0.50102 0.558783,-0.78041 0.260122,-0.28899 0.472074,-0.28899 0.202319,0 0.472076,0.29867 0.269756,0.29862 0.568417,0.81891 0.308293,0.5202 0.635856,1.23315 0.327563,0.7033 0.655125,1.53184 z m -2.803549,7.34124 -1.040491,-0.77072 q -1.021224,-0.7611 -1.97501,-1.53185 -0.94415,-0.78036 -1.676349,-1.45476 -0.7225632,-0.68403 -1.1657362,-1.20428 -0.4335388,-0.52987 -0.4335388,-0.79963 0,-0.24088 0.317929,-0.41427 0.3275608,-0.17341 0.8959798,-0.28902 0.5684162,-0.12512 1.3391522,-0.19268 0.780368,-0.0678 1.685983,-0.10642 l -0.25049,0.64552 q -0.741832,0.0386 -1.348786,0.0865 -0.59732,0.0386 -1.021224,0.0959 -0.4239052,0.0479 -0.6551252,0.10642 -0.23122,0.0573 -0.23122,0.12511 0,0.0574 0.183049,0.27941 0.18305,0.21191 0.510611,0.53949 0.3275632,0.32758 0.7803702,0.75147 0.452807,0.41428 0.992322,0.88634 0.549149,0.46247 1.165737,0.96343 0.616588,0.50097 1.262078,0.9827 l 1.262079,0.92486 z m 2.196596,0.73221 q 0.558783,0.36611 1.069395,0.67439 0.510612,0.30831 0.934515,0.52988 0.423905,0.22159 0.741834,0.34683 0.317928,0.12511 0.510612,0.12511 0.01928,-0.0865 0.01928,-0.15419 0,-0.0678 0,-0.14471 0,-0.40465 -0.115585,-1.05012 -0.1156,-0.65505 -0.317925,-1.44504 -0.192683,-0.79963 -0.452806,-1.69563 -0.250489,-0.90561 -0.520246,-1.82086 -0.134884,-0.43353 -0.279392,-0.85743 -0.144517,-0.43355 -0.308293,-0.86709 h 0.664755 q 0.134884,0.37574 0.260124,0.77072 0.134884,0.38539 0.260123,0.77076 0.308294,0.95378 0.568417,1.87867 0.269759,0.92488 0.46244,1.74379 0.202318,0.81887 0.308297,1.48365 0.11563,0.65512 0.11563,1.08866 0,0.57807 -0.211953,0.78999 -0.07707,0.0772 -0.192684,0.11577 -0.115645,0.0479 -0.260124,0.0479 -0.240854,0 -0.626222,-0.14485 -0.385367,-0.13446 -0.876711,-0.38539 -0.491344,-0.26011 -1.079029,-0.60693 -0.578052,-0.35648 -1.213908,-0.78041 z m 1.946105,-2.14844 -0.867076,0.64551 q -0.973052,0.74183 -1.965374,1.43549 -0.992322,0.684 -1.869034,1.22353 -0.87671,0.52989 -1.560739,0.85744 -0.674393,0.31795 -1.030857,0.31795 -0.269758,0 -0.433539,-0.16381 -0.221587,-0.20232 -0.221587,-0.73217 0,-0.26015 0.04818,-0.6455 0.05781,-0.395 0.154149,-0.88637 0.09634,-0.49131 0.231221,-1.05974 0.134884,-0.56843 0.298659,-1.17539 l 0.529881,0.51064 q -0.279391,1.07902 -0.452807,1.92683 -0.173415,0.83817 -0.173415,1.32953 0,0.0772 0,0.12511 0,0.0386 0.01927,0.0959 0.202319,0 0.549149,-0.13446 0.356465,-0.14471 0.809271,-0.38538 0.462442,-0.25047 1.01159,-0.59734 0.558783,-0.3468 1.165737,-0.75142 0.606954,-0.41428 1.252445,-0.87675 0.64549,-0.46243 1.281348,-0.94412 l 1.069395,-0.82856 z m 1.387324,-1.97499 q 0.520246,-0.44318 0.944152,-0.83817 0.433538,-0.39502 0.741831,-0.70334 0.308295,-0.31789 0.48171,-0.51059 0.173412,-0.20232 0.173412,-0.2601 0,-0.0959 -0.520244,-0.18307 -0.520246,-0.0865 -1.425859,-0.15417 -0.905614,-0.0678 -2.129156,-0.10642 -1.223542,-0.0479 -2.630134,-0.0479 h -1.454762 l 0.192684,-0.60695 h 1.262078 q 0.924883,0 1.830496,0.0193 0.915248,0.009 1.734155,0.0479 0.82854,0.0386 1.531835,0.10643 0.712931,0.0678 1.233176,0.18304 0.520248,0.11576 0.809272,0.289 0.29866,0.16381 0.29866,0.39502 0,0.16378 -0.221586,0.47205 -0.221587,0.29869 -0.606957,0.70333 -0.385365,0.40462 -0.92488,0.89596 -0.529882,0.48171 -1.146469,1.01163 z" style="font-style:normal;font-variant:normal;font-weight:normal;font-stretch:normal;font-size:medium;line-height:100%;font-family:'Chess Leipzig';-inkscape-font-specification:'Chess Leipzig';font-variant-ligatures:normal;font-variant-caps:normal;font-variant-numeric:normal;text-align:start;letter-spacing:0px;word-spacing:0px;writing-mode:lr-tb;text-anchor:start;fill:#800000;fill-opacity:1;stroke:none;stroke-width:0.26458335" id="path2507" inkscape:connector-curvature="0"/>
    </g>
  </g></svg>
