<?xml version='1.0' encoding='UTF-8'?>
<!-- Created with Inkscape (http://www.inkscape.org/) and export_objects.py -->
<svg xmlns:cc="http://creativecommons.org/ns#" xmlns:dc="http://purl.org/dc/elements/1.1/" xmlns:inkscape="http://www.inkscape.org/namespaces/inkscape" xmlns:rdf="http://www.w3.org/1999/02/22-rdf-syntax-ns#" xmlns:sodipodi="http://sodipodi.sourceforge.net/DTD/sodipodi-0.dtd" xmlns:xlink="http://www.w3.org/1999/xlink" xmlns="http://www.w3.org/2000/svg" version="1.1" width="53.9999985pt" height="107.99997pt" viewBox="0 0 19.0499994708 38.0999894167" id="svg8" inkscape:version="0.92.3 (2405546, 2018-03-11)" sodipodi:docname="card-02.svg"><sodipodi:namedview id="base" pagecolor="#ffffff" bordercolor="#666666" borderopacity="1.0" inkscape:pageopacity="0.0" inkscape:pageshadow="2" inkscape:zoom="1.5057403" inkscape:cx="1440.9352" inkscape:cy="172.44675" inkscape:document-units="pt" inkscape:current-layer="layer3" showgrid="true" units="pt" inkscape:snap-others="false" inkscape:snap-grids="true" inkscape:window-width="1920" inkscape:window-height="1006" inkscape:window-x="1909" inkscape:window-y="-11" inkscape:window-maximized="1" inkscape:snap-midpoints="false" inkscape:object-nodes="true" inkscape:snap-text-baseline="true" inkscape:snap-smooth-nodes="false" inkscape:snap-bbox="false" inkscape:snap-bbox-edge-midpoints="true" inkscape:snap-nodes="true" inkscape:bbox-nodes="false">
    <inkscape:grid type="xygrid" id="grid10" units="pt" spacingx="0.79375002" spacingy="0.79375002"/>
  </sodipodi:namedview>
  <metadata id="metadata5">
    <rdf:RDF>
      <cc:Work rdf:about="">
        <dc:format>image/svg+xml</dc:format>
        <dc:type rdf:resource="http://purl.org/dc/dcmitype/StillImage"/>
        <dc:title/>
      </cc:Work>
    </rdf:RDF>
  </metadata>
  <g inkscape:groupmode="layer" inkscape:label="card-" transform="matrix(1.000000,0.000000,0.000000,1.000000,-387.350026,-149.225005)"><g id="g14494" inkscape:label="02">
      <path id="rect14148" d="m 387.35004,149.22501 h 19.05 V 187.325 h -19.05 z" style="display:inline;opacity:1;fill:none;fill-opacity:1;stroke:none;stroke-width:0.17638889;stroke-linecap:butt;stroke-linejoin:miter;stroke-miterlimit:47.14606857;stroke-dasharray:none;stroke-dashoffset:0;stroke-opacity:1;paint-order:markers fill stroke"/>
      <path inkscape:export-ydpi="96" inkscape:export-xdpi="96" inkscape:export-filename="C:\mine\Vira\Vira table excerpts\Tourne.png" id="path14186" d="m 396.87506,169.86249 -5.32517,6.29978 h 5.3e-4 a 3.0192901,3.0192901 0 0 0 -0.71378,1.94908 3.0192901,3.0192901 0 0 0 3.01929,3.0193 3.0192901,3.0192901 0 0 0 2.61854,-1.52364 l -1.21738,4.54293 h 3.23613 l -1.21589,-4.53804 a 3.0192901,3.0192901 0 0 0 2.61719,1.51875 3.0192901,3.0192901 0 0 0 3.01926,-3.0193 3.0192901,3.0192901 0 0 0 -0.71378,-1.94908 h 2.6e-4 z" style="opacity:1;fill:#000000;fill-opacity:1;stroke:none;stroke-width:0.07055558;stroke-linecap:butt;stroke-linejoin:miter;stroke-miterlimit:4;stroke-dasharray:none;stroke-dashoffset:0;paint-order:normal" inkscape:connector-curvature="0"/>
      <g id="text14218" style="font-style:normal;font-variant:normal;font-weight:normal;font-stretch:normal;font-size:21.16666794px;line-height:125%;font-family:'Stint Ultra Condensed';-inkscape-font-specification:'Stint Ultra Condensed, ';font-variant-ligatures:normal;font-variant-caps:normal;font-variant-numeric:normal;text-align:center;letter-spacing:0px;word-spacing:0px;writing-mode:lr-tb;text-anchor:middle;fill:#000000;fill-opacity:1;stroke:none;stroke-width:0.26458335" aria-label="D">
        <path id="path14443" style="font-style:normal;font-variant:normal;font-weight:normal;font-stretch:normal;font-size:21.16666794px;font-family:'Stint Ultra Condensed';-inkscape-font-specification:'Stint Ultra Condensed, ';text-align:center;text-anchor:middle;stroke-width:0.26458335" d="m 392.97866,152.48683 h 3.97908 q 0.77515,0 1.41594,0.34107 0.64079,0.34106 1.10587,1.16788 0.46509,0.81649 0.71314,2.18075 0.25838,1.36426 0.25838,3.40031 0,2.04638 -0.25838,3.42098 -0.24805,1.36426 -0.71314,2.19108 -0.45475,0.81649 -1.09554,1.15755 -0.64078,0.34107 -1.42627,0.34107 h -3.97908 v -1.16789 h 1.2609 v -11.87525 h -1.2609 z m 6.12882,7.09001 q 0,-1.73633 -0.14469,-2.88355 -0.13436,-1.14721 -0.41341,-1.81901 -0.26872,-0.68213 -0.66146,-0.95084 -0.39274,-0.27906 -0.88884,-0.27906 h -1.46761 v 11.87525 h 1.46761 q 0.4961,0 0.88884,-0.27905 0.39274,-0.27906 0.66146,-0.95085 0.27905,-0.68213 0.41341,-1.82935 0.14469,-1.14721 0.14469,-2.88354 z"/>
      </g>
    </g>
    </g></svg>
