<?xml version='1.0' encoding='UTF-8'?>
<!-- Created with Inkscape (http://www.inkscape.org/) and export_objects.py -->
<svg xmlns:cc="http://creativecommons.org/ns#" xmlns:dc="http://purl.org/dc/elements/1.1/" xmlns:inkscape="http://www.inkscape.org/namespaces/inkscape" xmlns:rdf="http://www.w3.org/1999/02/22-rdf-syntax-ns#" xmlns:sodipodi="http://sodipodi.sourceforge.net/DTD/sodipodi-0.dtd" xmlns:xlink="http://www.w3.org/1999/xlink" xmlns="http://www.w3.org/2000/svg" version="1.1" width="57.6000016pt" height="115.199968pt" viewBox="0 0 20.3200005644 40.6399887111" id="svg8" inkscape:version="1.2-dev (28587f2, 2021-04-23)" sodipodi:docname="club-002.svg"><sodipodi:namedview id="base" pagecolor="#ffffff" bordercolor="#666666" borderopacity="1.0" inkscape:pageopacity="0.0" inkscape:pageshadow="2" inkscape:zoom="0.82096346" inkscape:cx="954.09044" inkscape:cy="371.99993" inkscape:document-units="pt" inkscape:current-layer="layer3" showgrid="true" units="pt" inkscape:snap-others="false" inkscape:snap-grids="true" inkscape:window-width="2880" inkscape:window-height="1526" inkscape:window-x="2869" inkscape:window-y="-11" inkscape:window-maximized="1" inkscape:snap-midpoints="false" inkscape:object-nodes="true" inkscape:snap-text-baseline="true" inkscape:snap-smooth-nodes="false" inkscape:snap-bbox="false" inkscape:snap-bbox-edge-midpoints="false" inkscape:snap-nodes="true" inkscape:bbox-nodes="true" objecttolerance="10.0" gridtolerance="10.0" guidetolerance="10.0" inkscape:pagecheckerboard="0">
    <inkscape:grid type="xygrid" id="grid10" units="pt" spacingx="0.79375002" spacingy="0.79375002"/>
  </sodipodi:namedview>
  <metadata id="metadata5">
    <rdf:RDF>
      <cc:Work rdf:about="">
        <dc:format>image/svg+xml</dc:format>
        <dc:type rdf:resource="http://purl.org/dc/dcmitype/StillImage"/>
        <dc:title/>
      </cc:Work>
    </rdf:RDF>
  </metadata>
  <g inkscape:groupmode="layer" inkscape:label="club-" transform="matrix(1.000000,0.000000,0.000000,1.000000,-60.960028,-301.413333)"><g id="g7062" inkscape:label="002">
      <path id="rect8355" style="display:inline;opacity:1;fill:#ffffff;stroke-width:0.176389;stroke-miterlimit:47.1461;paint-order:markers fill stroke" d="m 57.150028,363.67499 h 19.050001 v 38.09999 H 57.150028 Z" transform="translate(0,-81.099993)"/>
      <path inkscape:export-ydpi="96" inkscape:export-xdpi="96" inkscape:export-filename="C:\mine\Vira\Vira table excerpts\Tourne.png" id="path8431" d="m 66.675023,303.21252 c -1.366564,0 -2.562664,0.91784 -2.916364,2.23782 -0.353673,1.32002 0.223312,2.71294 1.4067,3.39621 -1.18347,-0.68328 -2.678345,-0.4864 -3.644636,0.47989 -0.966289,0.9663 -1.163023,2.46114 -0.479755,3.64461 0.683297,1.18347 2.076244,1.7604 3.396234,1.40673 0.794532,-0.21292 1.442955,-0.73126 1.83361,-1.40808 l -1.213791,4.53032 h 3.236006 l -1.213931,-4.53069 c 0.390629,0.67699 1.039052,1.19548 1.83375,1.40845 1.319991,0.35367 2.71305,-0.22332 3.396348,-1.40673 0.683268,-1.18347 0.486423,-2.67831 -0.479898,-3.64461 -0.966289,-0.96631 -2.461161,-1.16316 -3.644634,-0.47989 1.183473,-0.68328 1.760511,-2.07621 1.40684,-3.39621 -0.353699,-1.31999 -1.54994,-2.23782 -2.916479,-2.23782 z" style="opacity:1;fill:#808080;fill-opacity:1;stroke:none;stroke-width:0.0705556;stroke-linecap:butt;stroke-linejoin:miter;stroke-miterlimit:4;stroke-dasharray:none;stroke-dashoffset:0;paint-order:normal" inkscape:connector-curvature="0"/>
      <g aria-label="K" id="text8385" style="font-size:21.1667px;line-height:125%;font-family:'Stint Ultra Condensed';-inkscape-font-specification:'Stint Ultra Condensed, ';text-align:center;letter-spacing:0px;word-spacing:0px;text-anchor:middle;fill:#808080;stroke-width:0.264583">
        <path d="m 62.892297,285.8368 h 3.824063 v 1.15755 h -1.271243 v 4.84726 l 2.625167,-4.84726 h -0.775148 v -1.15755 h 3.152268 v 1.15755 h -1.064536 l -2.666508,4.94028 2.92489,6.93499 h 1.167889 v 1.16789 h -3.369308 v -1.16789 h 0.868165 l -2.39779,-5.83945 -0.465089,0.8475 v 4.99195 h 1.271243 v 1.16789 h -3.824063 v -1.16789 h 1.260907 v -11.87527 h -1.260907 z" id="path1010"/>
      </g>
    </g>
    </g></svg>
