<?xml version='1.0' encoding='UTF-8'?>
<!-- Created with Inkscape (http://www.inkscape.org/) and export_objects.py -->
<svg xmlns:cc="http://creativecommons.org/ns#" xmlns:dc="http://purl.org/dc/elements/1.1/" xmlns:inkscape="http://www.inkscape.org/namespaces/inkscape" xmlns:rdf="http://www.w3.org/1999/02/22-rdf-syntax-ns#" xmlns:sodipodi="http://sodipodi.sourceforge.net/DTD/sodipodi-0.dtd" xmlns:xlink="http://www.w3.org/1999/xlink" xmlns="http://www.w3.org/2000/svg" version="1.1" width="57.6000048pt" height="115.199968pt" viewBox="0 0 20.3200016933 40.6399887111" id="svg8" inkscape:version="1.2-dev (28587f2, 2021-04-23)" sodipodi:docname="club-003.svg"><sodipodi:namedview id="base" pagecolor="#ffffff" bordercolor="#666666" borderopacity="1.0" inkscape:pageopacity="0.0" inkscape:pageshadow="2" inkscape:zoom="0.82096346" inkscape:cx="954.09044" inkscape:cy="371.99993" inkscape:document-units="pt" inkscape:current-layer="layer3" showgrid="true" units="pt" inkscape:snap-others="false" inkscape:snap-grids="true" inkscape:window-width="2880" inkscape:window-height="1526" inkscape:window-x="2869" inkscape:window-y="-11" inkscape:window-maximized="1" inkscape:snap-midpoints="false" inkscape:object-nodes="true" inkscape:snap-text-baseline="true" inkscape:snap-smooth-nodes="false" inkscape:snap-bbox="false" inkscape:snap-bbox-edge-midpoints="false" inkscape:snap-nodes="true" inkscape:bbox-nodes="true" objecttolerance="10.0" gridtolerance="10.0" guidetolerance="10.0" inkscape:pagecheckerboard="0">
    <inkscape:grid type="xygrid" id="grid10" units="pt" spacingx="0.79375002" spacingy="0.79375002"/>
  </sodipodi:namedview>
  <metadata id="metadata5">
    <rdf:RDF>
      <cc:Work rdf:about="">
        <dc:format>image/svg+xml</dc:format>
        <dc:type rdf:resource="http://purl.org/dc/dcmitype/StillImage"/>
        <dc:title/>
      </cc:Work>
    </rdf:RDF>
  </metadata>
  <g inkscape:groupmode="layer" inkscape:label="club-" transform="matrix(1.000000,0.000000,0.000000,1.000000,-88.053350,-301.413333)"><g id="g7070" inkscape:label="003">
      <path id="rect8357" style="display:inline;opacity:1;fill:#ffffff;stroke-width:0.176389;stroke-miterlimit:47.1461;paint-order:markers fill stroke" d="m 82.550018,363.67499 h 19.050002 v 38.09999 H 82.550018 Z" transform="translate(0,-81.099993)"/>
      <path inkscape:export-ydpi="96" inkscape:export-xdpi="96" inkscape:export-filename="C:\mine\Vira\Vira table excerpts\Tourne.png" id="path8437" d="m 92.075025,303.21253 c -1.366564,0 -2.562664,0.91783 -2.916364,2.23781 -0.353673,1.32002 0.223312,2.71294 1.4067,3.39621 -1.18347,-0.68328 -2.678345,-0.4864 -3.644636,0.4799 -0.966289,0.96629 -1.163023,2.46114 -0.479755,3.6446 0.683297,1.18348 2.076244,1.7604 3.396234,1.40674 0.794532,-0.21293 1.442955,-0.73127 1.83361,-1.40809 l -1.213791,4.53032 h 3.236006 l -1.213931,-4.53068 c 0.390629,0.67698 1.039052,1.19547 1.83375,1.40845 1.319991,0.35366 2.713046,-0.22333 3.396346,-1.40674 0.68327,-1.18346 0.48642,-2.67831 -0.4799,-3.6446 -0.966285,-0.96631 -2.461157,-1.16317 -3.64463,-0.4799 1.183473,-0.68327 1.760511,-2.07621 1.40684,-3.39621 -0.353699,-1.31998 -1.54994,-2.23781 -2.916479,-2.23781 z" style="opacity:1;fill:#808080;fill-opacity:1;stroke:none;stroke-width:0.0705556;stroke-linecap:butt;stroke-linejoin:miter;stroke-miterlimit:4;stroke-dasharray:none;stroke-dashoffset:0;paint-order:normal" inkscape:connector-curvature="0"/>
      <g aria-label="Q" id="text8389" style="font-size:21.1667px;line-height:125%;font-family:'Stint Ultra Condensed';-inkscape-font-specification:'Stint Ultra Condensed, ';text-align:center;letter-spacing:0px;word-spacing:0px;text-anchor:middle;fill:#808080;stroke-width:0.264583">
        <path d="m 95.687208,292.94749 q 0,1.81901 -0.258382,3.15227 -0.248048,1.33325 -0.692466,2.24276 0.527101,0.32039 1.095542,0.54777 0.568442,0.22737 1.126548,0.32039 l -0.516765,1.29191 q -0.589112,-0.2067 -1.167889,-0.5271 -0.568442,-0.32039 -1.116213,-0.7028 -0.434082,0.5271 -0.961183,0.78549 -0.516765,0.25838 -1.105877,0.25838 -0.775148,0 -1.436607,-0.43408 -0.66146,-0.43409 -1.147219,-1.33326 -0.485759,-0.9095 -0.764812,-2.29443 -0.279054,-1.39527 -0.279054,-3.3073 0,-1.9017 0.279054,-3.28663 0.279053,-1.39526 0.764812,-2.30477 0.496095,-0.90951 1.157554,-1.34359 0.661459,-0.43408 1.426272,-0.43408 0.754477,0 1.415936,0.43408 0.66146,0.43408 1.136884,1.34359 0.485759,0.89917 0.764812,2.29444 0.279053,1.38493 0.279053,3.29696 z m -1.426272,0 q 0,-3.01791 -0.547771,-4.59921 -0.547771,-1.5813 -1.622642,-1.5813 -1.105878,0 -1.653649,1.60197 -0.547771,1.59164 -0.547771,4.57854 0,3.01791 0.547771,4.59921 0.547771,1.5813 1.653649,1.5813 0.651124,0 1.136883,-0.64079 -0.50643,-0.46509 -0.909507,-0.99219 L 92.845,296.6682 q 0.341065,0.49609 0.847495,0.93017 0.568441,-1.57096 0.568441,-4.65088 z" id="path1013"/>
      </g>
    </g>
    </g></svg>
