<?xml version='1.0' encoding='UTF-8'?>
<!-- Created with Inkscape (http://www.inkscape.org/) and export_objects.py -->
<svg xmlns:cc="http://creativecommons.org/ns#" xmlns:dc="http://purl.org/dc/elements/1.1/" xmlns:inkscape="http://www.inkscape.org/namespaces/inkscape" xmlns:rdf="http://www.w3.org/1999/02/22-rdf-syntax-ns#" xmlns:sodipodi="http://sodipodi.sourceforge.net/DTD/sodipodi-0.dtd" xmlns:xlink="http://www.w3.org/1999/xlink" xmlns="http://www.w3.org/2000/svg" version="1.1" width="57.5999984pt" height="115.199968pt" viewBox="0 0 20.3199994356 40.6399887111" id="svg8" inkscape:version="1.2-dev (28587f2, 2021-04-23)" sodipodi:docname="club-010.svg"><sodipodi:namedview id="base" pagecolor="#ffffff" bordercolor="#666666" borderopacity="1.0" inkscape:pageopacity="0.0" inkscape:pageshadow="2" inkscape:zoom="0.82096346" inkscape:cx="954.09044" inkscape:cy="371.99993" inkscape:document-units="pt" inkscape:current-layer="layer3" showgrid="true" units="pt" inkscape:snap-others="false" inkscape:snap-grids="true" inkscape:window-width="2880" inkscape:window-height="1526" inkscape:window-x="2869" inkscape:window-y="-11" inkscape:window-maximized="1" inkscape:snap-midpoints="false" inkscape:object-nodes="true" inkscape:snap-text-baseline="true" inkscape:snap-smooth-nodes="false" inkscape:snap-bbox="false" inkscape:snap-bbox-edge-midpoints="false" inkscape:snap-nodes="true" inkscape:bbox-nodes="true" objecttolerance="10.0" gridtolerance="10.0" guidetolerance="10.0" inkscape:pagecheckerboard="0">
    <inkscape:grid type="xygrid" id="grid10" units="pt" spacingx="0.79375002" spacingy="0.79375002"/>
  </sodipodi:namedview>
  <metadata id="metadata5">
    <rdf:RDF>
      <cc:Work rdf:about="">
        <dc:format>image/svg+xml</dc:format>
        <dc:type rdf:resource="http://purl.org/dc/dcmitype/StillImage"/>
        <dc:title/>
      </cc:Work>
    </rdf:RDF>
  </metadata>
  <g inkscape:groupmode="layer" inkscape:label="club-" transform="matrix(1.000000,0.000000,0.000000,1.000000,-274.320048,-301.413333)"><g id="g7998" inkscape:label="010">
      <path id="rect8371" style="display:inline;opacity:1;fill:#ffffff;stroke-width:0.176389;stroke-miterlimit:47.1461;paint-order:markers fill stroke" d="m 257.17505,363.67499 h 19.05 v 38.09999 h -19.05 z" transform="translate(0,-81.099993)"/>
      <path inkscape:export-ydpi="96" inkscape:export-xdpi="96" inkscape:export-filename="C:\mine\Vira\Vira table excerpts\Tourne.png" id="path8479" d="m 266.70004,303.21252 c -1.36657,0 -2.56267,0.91784 -2.91637,2.23782 -0.35367,1.32002 0.22332,2.71294 1.4067,3.39621 -1.18347,-0.68328 -2.67834,-0.4864 -3.64463,0.47989 -0.96629,0.9663 -1.16302,2.46114 -0.47976,3.64461 0.6833,1.18347 2.07625,1.7604 3.39624,1.40673 0.79453,-0.21292 1.44295,-0.73126 1.83361,-1.40808 l -1.21379,4.53032 h 3.236 l -1.21393,-4.53068 c 0.39063,0.67698 1.03905,1.19547 1.83375,1.40846 1.31999,0.35365 2.71305,-0.22334 3.39635,-1.40675 0.68327,-1.18346 0.48642,-2.67831 -0.4799,-3.6446 -0.96629,-0.96631 -2.46116,-1.16317 -3.64463,-0.4799 1.18347,-0.68327 1.76051,-2.07619 1.40684,-3.39621 -0.3537,-1.31998 -1.54994,-2.23781 -2.91648,-2.23782 z" style="opacity:1;fill:#808080;fill-opacity:1;stroke:none;stroke-width:0.0705556;stroke-linecap:butt;stroke-linejoin:miter;stroke-miterlimit:4;stroke-dasharray:none;stroke-dashoffset:0;paint-order:normal" inkscape:connector-curvature="0"/>
      <g aria-label="5" id="text8417" style="font-size:21.1667px;line-height:125%;font-family:'Stint Ultra Condensed';-inkscape-font-specification:'Stint Ultra Condensed, ';text-align:center;letter-spacing:0px;word-spacing:0px;text-anchor:middle;fill:#808080;stroke-width:0.264583">
        <path d="m 265.38746,291.41786 q 0.33073,-0.3824 0.69246,-0.50643 0.37208,-0.12402 0.77515,-0.12402 0.58911,0 1.0542,0.36174 0.47543,0.36173 0.79582,1.01286 0.33073,0.64078 0.50643,1.52962 0.1757,0.88884 0.1757,1.94304 0,0.97152 -0.15503,1.82935 -0.15503,0.84749 -0.48576,1.48828 -0.32039,0.63045 -0.83716,1.00252 -0.51676,0.36174 -1.2299,0.36174 -0.5271,0.0207 -1.02319,-0.23771 -0.48576,-0.25839 -0.8785,-0.81649 -0.38241,-0.56844 -0.62012,-1.46761 -0.22738,-0.89918 -0.22738,-2.16008 h 1.29191 q 0,1.80868 0.41342,2.69751 0.42374,0.8785 1.04386,0.8785 0.3514,0 0.60978,-0.25838 0.25839,-0.26872 0.43409,-0.74414 0.1757,-0.47543 0.25838,-1.12655 0.093,-0.66146 0.093,-1.44694 0,-1.81902 -0.36174,-2.7802 -0.36173,-0.96118 -1.15755,-0.96118 -0.46509,0 -0.80616,0.31006 -0.33072,0.29972 -0.50642,0.9095 h -1.05421 l 0.24805,-7.27605 h 4.48552 v 1.17822 h -3.35897 z" id="path1036"/>
      </g>
    </g>
    </g></svg>
