<?xml version='1.0' encoding='UTF-8'?>
<!-- Created with Inkscape (http://www.inkscape.org/) and export_objects.py -->
<svg xmlns:cc="http://creativecommons.org/ns#" xmlns:dc="http://purl.org/dc/elements/1.1/" xmlns:inkscape="http://www.inkscape.org/namespaces/inkscape" xmlns:rdf="http://www.w3.org/1999/02/22-rdf-syntax-ns#" xmlns:sodipodi="http://sodipodi.sourceforge.net/DTD/sodipodi-0.dtd" xmlns:xlink="http://www.w3.org/1999/xlink" xmlns="http://www.w3.org/2000/svg" version="1.1" width="57.5999984pt" height="115.199968pt" viewBox="0 0 20.3199994356 40.6399887111" id="svg8" inkscape:version="1.2-dev (28587f2, 2021-04-23)" sodipodi:docname="club-006.svg"><sodipodi:namedview id="base" pagecolor="#ffffff" bordercolor="#666666" borderopacity="1.0" inkscape:pageopacity="0.0" inkscape:pageshadow="2" inkscape:zoom="0.82096346" inkscape:cx="954.09044" inkscape:cy="371.99993" inkscape:document-units="pt" inkscape:current-layer="layer3" showgrid="true" units="pt" inkscape:snap-others="false" inkscape:snap-grids="true" inkscape:window-width="2880" inkscape:window-height="1526" inkscape:window-x="2869" inkscape:window-y="-11" inkscape:window-maximized="1" inkscape:snap-midpoints="false" inkscape:object-nodes="true" inkscape:snap-text-baseline="true" inkscape:snap-smooth-nodes="false" inkscape:snap-bbox="false" inkscape:snap-bbox-edge-midpoints="false" inkscape:snap-nodes="true" inkscape:bbox-nodes="true" objecttolerance="10.0" gridtolerance="10.0" guidetolerance="10.0" inkscape:pagecheckerboard="0">
    <inkscape:grid type="xygrid" id="grid10" units="pt" spacingx="0.79375002" spacingy="0.79375002"/>
  </sodipodi:namedview>
  <metadata id="metadata5">
    <rdf:RDF>
      <cc:Work rdf:about="">
        <dc:format>image/svg+xml</dc:format>
        <dc:type rdf:resource="http://purl.org/dc/dcmitype/StillImage"/>
        <dc:title/>
      </cc:Work>
    </rdf:RDF>
  </metadata>
  <g inkscape:groupmode="layer" inkscape:label="club-" transform="matrix(1.000000,0.000000,0.000000,1.000000,-165.946672,-301.413333)"><g id="g7095" inkscape:label="006">
      <path id="rect8363" style="display:inline;opacity:1;fill:#ffffff;stroke-width:0.176389;stroke-miterlimit:47.1461;paint-order:markers fill stroke" d="m 155.57501,363.67499 h 19.05 v 38.09999 h -19.05 z" transform="translate(0,-81.099993)"/>
      <path inkscape:connector-curvature="0" style="opacity:1;fill:#808080;fill-opacity:1;stroke:none;stroke-width:0.0705556;stroke-linecap:butt;stroke-linejoin:miter;stroke-miterlimit:4;stroke-dasharray:none;stroke-dashoffset:0;paint-order:normal" d="m 165.10001,303.21252 c -1.36657,0 -2.56267,0.91784 -2.91637,2.23782 -0.35367,1.32002 0.22332,2.71294 1.4067,3.39621 -1.18347,-0.68328 -2.67834,-0.4864 -3.64463,0.47989 -0.96629,0.9663 -1.16302,2.46114 -0.47976,3.64461 0.6833,1.18347 2.07625,1.7604 3.39624,1.40673 0.79453,-0.21292 1.44295,-0.73126 1.83361,-1.40808 l -1.21379,4.53032 h 3.236 l -1.21393,-4.53068 c 0.39063,0.67698 1.03905,1.19547 1.83375,1.40845 1.31999,0.35366 2.71305,-0.22333 3.39635,-1.40674 0.68327,-1.18346 0.48642,-2.67831 -0.4799,-3.6446 -0.96629,-0.96631 -2.46116,-1.16317 -3.64463,-0.4799 1.18347,-0.68327 1.76051,-2.0762 1.40684,-3.39621 -0.3537,-1.31998 -1.54994,-2.23781 -2.91648,-2.23782 z" id="path8455" inkscape:export-filename="C:\mine\Vira\Vira table excerpts\Tourne.png" inkscape:export-xdpi="96" inkscape:export-ydpi="96"/>
      <g aria-label="9" id="text8401" style="font-size:21.1667px;line-height:125%;font-family:'Stint Ultra Condensed';-inkscape-font-specification:'Stint Ultra Condensed, ';text-align:center;letter-spacing:0px;word-spacing:0px;text-anchor:middle;fill:#808080;stroke-width:0.264583">
        <path d="m 166.57279,293.22654 q -0.0724,0.18604 -0.21704,0.47543 -0.13436,0.28938 -0.37208,0.5581 -0.22737,0.26872 -0.5581,0.46509 -0.33073,0.18604 -0.78548,0.18604 -0.50643,0 -0.95085,-0.27906 -0.44442,-0.28939 -0.77515,-0.86816 -0.32039,-0.57878 -0.51677,-1.44695 -0.18603,-0.8785 -0.18603,-2.05672 0,-0.97152 0.1757,-1.81901 0.1757,-0.85783 0.51676,-1.48829 0.34107,-0.64079 0.83716,-1.00252 0.4961,-0.37207 1.13689,-0.37207 0.63045,0 1.16789,0.43408 0.54777,0.42375 0.95084,1.29191 0.40308,0.85783 0.63046,2.16008 0.23771,1.30225 0.23771,3.05925 0,1.79834 -0.1757,3.24529 -0.1757,1.4366 -0.54777,2.44946 -0.36174,1.01286 -0.93018,1.56063 -0.55811,0.53744 -1.33325,0.53744 -0.4961,0 -0.94052,-0.27905 -0.44441,-0.26872 -0.78548,-0.80616 -0.33073,-0.53743 -0.5271,-1.33325 -0.18603,-0.80616 -0.18603,-1.86036 h 1.27124 q 0,1.53996 0.29972,2.34612 0.31006,0.80615 0.93018,0.80615 0.43408,0 0.74414,-0.47542 0.31006,-0.48576 0.50643,-1.30225 0.19637,-0.81649 0.28939,-1.89136 0.093,-1.08521 0.093,-2.29444 z m -1.67432,0.56844 q 0.32039,0 0.57877,-0.29972 0.25839,-0.29972 0.45476,-0.73381 0.2067,-0.43408 0.34106,-0.93017 0.13436,-0.4961 0.19637,-0.89918 0.0207,-0.76481 -0.093,-1.51929 -0.10336,-0.76481 -0.3204,-1.36426 -0.2067,-0.59944 -0.51676,-0.97151 -0.29973,-0.37207 -0.66146,-0.37207 -0.33073,0 -0.58912,0.25838 -0.25838,0.24805 -0.43408,0.71313 -0.1757,0.46509 -0.26872,1.12655 -0.0827,0.65113 -0.0827,1.45728 0,0.82682 0.0827,1.48828 0.0827,0.65113 0.24805,1.10588 0.1757,0.45475 0.43408,0.7028 0.26872,0.23771 0.63046,0.23771 z" id="path1024"/>
      </g>
    </g>
    </g></svg>
