<?xml version='1.0' encoding='UTF-8'?>
<!-- Created with Inkscape (http://www.inkscape.org/) and export_objects.py -->
<svg xmlns:cc="http://creativecommons.org/ns#" xmlns:dc="http://purl.org/dc/elements/1.1/" xmlns:inkscape="http://www.inkscape.org/namespaces/inkscape" xmlns:rdf="http://www.w3.org/1999/02/22-rdf-syntax-ns#" xmlns:sodipodi="http://sodipodi.sourceforge.net/DTD/sodipodi-0.dtd" xmlns:xlink="http://www.w3.org/1999/xlink" xmlns="http://www.w3.org/2000/svg" version="1.1" width="57.6000288pt" height="115.199968pt" viewBox="0 0 20.32001016 40.6399887111" id="svg8" inkscape:version="1.2-dev (28587f2, 2021-04-23)" sodipodi:docname="club-015.svg"><sodipodi:namedview id="base" pagecolor="#ffffff" bordercolor="#666666" borderopacity="1.0" inkscape:pageopacity="0.0" inkscape:pageshadow="2" inkscape:zoom="0.82096346" inkscape:cx="954.09044" inkscape:cy="371.99993" inkscape:document-units="pt" inkscape:current-layer="layer3" showgrid="true" units="pt" inkscape:snap-others="false" inkscape:snap-grids="true" inkscape:window-width="2880" inkscape:window-height="1526" inkscape:window-x="2869" inkscape:window-y="-11" inkscape:window-maximized="1" inkscape:snap-midpoints="false" inkscape:object-nodes="true" inkscape:snap-text-baseline="true" inkscape:snap-smooth-nodes="false" inkscape:snap-bbox="false" inkscape:snap-bbox-edge-midpoints="false" inkscape:snap-nodes="true" inkscape:bbox-nodes="true" objecttolerance="10.0" gridtolerance="10.0" guidetolerance="10.0" inkscape:pagecheckerboard="0">
    <inkscape:grid type="xygrid" id="grid10" units="pt" spacingx="0.79375002" spacingy="0.79375002"/>
  </sodipodi:namedview>
  <metadata id="metadata5">
    <rdf:RDF>
      <cc:Work rdf:about="">
        <dc:format>image/svg+xml</dc:format>
        <dc:type rdf:resource="http://purl.org/dc/dcmitype/StillImage"/>
        <dc:title/>
      </cc:Work>
    </rdf:RDF>
  </metadata>
  <g inkscape:groupmode="layer" inkscape:label="club-" transform="matrix(1.000000,0.000000,0.000000,1.000000,-382.693333,-301.413362)"><g id="g8030" inkscape:label="015">
      <path id="rect14168" style="display:inline;opacity:1;fill:#ffffff;stroke-width:0.176389;stroke-miterlimit:47.1461;paint-order:markers fill stroke" d="m 358.77502,363.67502 h 19.05001 v 38.09999 h -19.05001 z" transform="translate(0,-81.099993)"/>
      <path inkscape:export-ydpi="96" inkscape:export-xdpi="96" inkscape:export-filename="C:\mine\Vira\Vira table excerpts\Tourne.png" id="path14176" d="m 368.30003,303.21251 c -1.36656,0 -2.56266,0.91784 -2.91636,2.23782 -0.35368,1.32002 0.22331,2.71294 1.4067,3.39621 -1.18347,-0.68328 -2.67835,-0.4864 -3.64464,0.47989 -0.96629,0.9663 -1.16302,2.46114 -0.47975,3.64461 0.68329,1.18347 2.07624,1.7604 3.39623,1.40673 0.79453,-0.21292 1.44295,-0.73126 1.83361,-1.40808 l -1.21379,4.53032 h 3.236 l -1.21393,-4.53069 c 0.39063,0.67699 1.03906,1.19548 1.83375,1.40845 1.31999,0.35367 2.71305,-0.22332 3.39635,-1.40673 0.68327,-1.18347 0.48642,-2.67831 -0.4799,-3.64461 -0.96629,-0.96631 -2.46116,-1.16316 -3.64463,-0.47989 1.18347,-0.68328 1.76051,-2.07622 1.40684,-3.39621 -0.3537,-1.31999 -1.54994,-2.23782 -2.91648,-2.23782 z" style="opacity:1;fill:#808080;fill-opacity:1;stroke:none;stroke-width:0.0705556;stroke-linecap:butt;stroke-linejoin:miter;stroke-miterlimit:4;stroke-dasharray:none;stroke-dashoffset:0;paint-order:normal" inkscape:connector-curvature="0"/>
      <g aria-label="E" id="text14258" style="font-size:21.4263px;line-height:125%;font-family:'Stint Ultra Condensed';-inkscape-font-specification:'Stint Ultra Condensed, ';text-align:center;letter-spacing:0px;word-spacing:0px;text-anchor:middle;fill:#808080;stroke-width:0.264583">
        <path d="m 370.04668,290.08461 v -3.09026 h -2.44946 v 4.96095 h 2.2841 v 1.15755 h -2.2841 v 5.75677 h 2.60449 v -3.29696 h 1.11622 v 4.46485 h -6.38722 v -1.16789 h 1.26091 v -11.87527 h -1.26091 v -1.15755 h 6.24252 v 4.24781 z" style="font-stretch:ultra-condensed;font-size:21.1667px;-inkscape-font-specification:'Stint Ultra Condensed, Ultra-Condensed'" id="path1081"/>
      </g>
    </g>
    </g></svg>
