<?xml version='1.0' encoding='UTF-8'?>
<!-- Created with Inkscape (http://www.inkscape.org/) and export_objects.py -->
<svg xmlns:cc="http://creativecommons.org/ns#" xmlns:dc="http://purl.org/dc/elements/1.1/" xmlns:inkscape="http://www.inkscape.org/namespaces/inkscape" xmlns:rdf="http://www.w3.org/1999/02/22-rdf-syntax-ns#" xmlns:sodipodi="http://sodipodi.sourceforge.net/DTD/sodipodi-0.dtd" xmlns:xlink="http://www.w3.org/1999/xlink" xmlns="http://www.w3.org/2000/svg" version="1.1" width="57.5999984pt" height="115.199968pt" viewBox="0 0 20.3199994356 40.6399887111" id="svg8" inkscape:version="1.2-dev (28587f2, 2021-04-23)" sodipodi:docname="club-004.svg"><sodipodi:namedview id="base" pagecolor="#ffffff" bordercolor="#666666" borderopacity="1.0" inkscape:pageopacity="0.0" inkscape:pageshadow="2" inkscape:zoom="0.82096346" inkscape:cx="954.09044" inkscape:cy="371.99993" inkscape:document-units="pt" inkscape:current-layer="layer3" showgrid="true" units="pt" inkscape:snap-others="false" inkscape:snap-grids="true" inkscape:window-width="2880" inkscape:window-height="1526" inkscape:window-x="2869" inkscape:window-y="-11" inkscape:window-maximized="1" inkscape:snap-midpoints="false" inkscape:object-nodes="true" inkscape:snap-text-baseline="true" inkscape:snap-smooth-nodes="false" inkscape:snap-bbox="false" inkscape:snap-bbox-edge-midpoints="false" inkscape:snap-nodes="true" inkscape:bbox-nodes="true" objecttolerance="10.0" gridtolerance="10.0" guidetolerance="10.0" inkscape:pagecheckerboard="0">
    <inkscape:grid type="xygrid" id="grid10" units="pt" spacingx="0.79375002" spacingy="0.79375002"/>
  </sodipodi:namedview>
  <metadata id="metadata5">
    <rdf:RDF>
      <cc:Work rdf:about="">
        <dc:format>image/svg+xml</dc:format>
        <dc:type rdf:resource="http://purl.org/dc/dcmitype/StillImage"/>
        <dc:title/>
      </cc:Work>
    </rdf:RDF>
  </metadata>
  <g inkscape:groupmode="layer" inkscape:label="club-" transform="matrix(1.000000,0.000000,0.000000,1.000000,-115.146675,-301.413333)"><g id="g7078" inkscape:label="004">
      <path id="rect8359" style="display:inline;opacity:1;fill:#ffffff;stroke-width:0.176389;stroke-miterlimit:47.1461;paint-order:markers fill stroke" d="m 107.95001,363.67499 h 19.05 v 38.09999 h -19.05 z" transform="translate(0,-81.099993)"/>
      <path inkscape:connector-curvature="0" style="opacity:1;fill:#808080;fill-opacity:1;stroke:none;stroke-width:0.0705556;stroke-linecap:butt;stroke-linejoin:miter;stroke-miterlimit:4;stroke-dasharray:none;stroke-dashoffset:0;paint-order:normal" d="m 117.47501,303.21252 c -1.36656,0 -2.56266,0.91784 -2.91636,2.23782 -0.35367,1.32002 0.22331,2.71294 1.4067,3.39621 -1.18347,-0.68328 -2.67835,-0.4864 -3.64464,0.47989 -0.96629,0.9663 -1.16302,2.46114 -0.47975,3.64461 0.68329,1.18347 2.07624,1.7604 3.39623,1.40673 0.79453,-0.21292 1.44296,-0.73126 1.83361,-1.40808 l -1.21379,4.53032 h 3.23601 l -1.21393,-4.53068 c 0.39063,0.67698 1.03905,1.19547 1.83374,1.40845 1.32,0.35366 2.71306,-0.22333 3.39635,-1.40674 0.68327,-1.18346 0.48643,-2.67831 -0.47989,-3.6446 -0.96629,-0.96631 -2.46117,-1.16317 -3.64464,-0.4799 1.18347,-0.68327 1.76051,-2.07621 1.40684,-3.39621 -0.3537,-1.31998 -1.54994,-2.23781 -2.91648,-2.23782 z" id="path8443" inkscape:export-filename="C:\mine\Vira\Vira table excerpts\Tourne.png" inkscape:export-xdpi="96" inkscape:export-ydpi="96"/>
      <g aria-label="J" id="text8393" style="font-size:21.1667px;line-height:125%;font-family:'Stint Ultra Condensed';-inkscape-font-specification:'Stint Ultra Condensed, ';text-align:center;letter-spacing:0px;word-spacing:0px;text-anchor:middle;fill:#808080;stroke-width:0.264583">
        <path d="m 116.60168,285.8368 h 4.05144 v 1.15755 h -1.27124 v 9.16742 q 0,1.11621 -0.1757,1.89136 -0.16537,0.76481 -0.48576,1.25057 -0.31006,0.47542 -0.76481,0.69246 -0.44442,0.20671 -1.01286,0.20671 -0.55811,0 -1.00253,-0.18603 -0.43408,-0.18604 -0.74414,-0.69247 -0.31006,-0.51676 -0.47542,-1.42627 -0.16537,-0.90951 -0.16537,-2.34612 h 1.29191 q 0.0103,0.97152 0.0413,1.63298 0.0413,0.66146 0.1447,1.07487 0.11369,0.40308 0.33073,0.58912 0.21704,0.1757 0.57878,0.1757 0.36173,0 0.58911,-0.18604 0.22737,-0.19637 0.3514,-0.55811 0.12402,-0.37207 0.16536,-0.91984 0.0413,-0.54777 0.0413,-1.2609 v -9.10541 h -1.48828 z" id="path1016"/>
      </g>
    </g>
    </g></svg>
