<?xml version='1.0' encoding='UTF-8'?>
<!-- Created with Inkscape (http://www.inkscape.org/) and export_objects.py -->
<svg xmlns:cc="http://creativecommons.org/ns#" xmlns:dc="http://purl.org/dc/elements/1.1/" xmlns:inkscape="http://www.inkscape.org/namespaces/inkscape" xmlns:rdf="http://www.w3.org/1999/02/22-rdf-syntax-ns#" xmlns:sodipodi="http://sodipodi.sourceforge.net/DTD/sodipodi-0.dtd" xmlns:xlink="http://www.w3.org/1999/xlink" xmlns="http://www.w3.org/2000/svg" version="1.1" width="57.5999984pt" height="115.199968pt" viewBox="0 0 20.3199994356 40.6399887111" id="svg8" inkscape:version="1.2-dev (28587f2, 2021-04-23)" sodipodi:docname="club-017.svg"><sodipodi:namedview id="base" pagecolor="#ffffff" bordercolor="#666666" borderopacity="1.0" inkscape:pageopacity="0.0" inkscape:pageshadow="2" inkscape:zoom="0.82096346" inkscape:cx="954.09044" inkscape:cy="371.99993" inkscape:document-units="pt" inkscape:current-layer="layer3" showgrid="true" units="pt" inkscape:snap-others="false" inkscape:snap-grids="true" inkscape:window-width="2880" inkscape:window-height="1526" inkscape:window-x="2869" inkscape:window-y="-11" inkscape:window-maximized="1" inkscape:snap-midpoints="false" inkscape:object-nodes="true" inkscape:snap-text-baseline="true" inkscape:snap-smooth-nodes="false" inkscape:snap-bbox="false" inkscape:snap-bbox-edge-midpoints="false" inkscape:snap-nodes="true" inkscape:bbox-nodes="true" objecttolerance="10.0" gridtolerance="10.0" guidetolerance="10.0" inkscape:pagecheckerboard="0">
    <inkscape:grid type="xygrid" id="grid10" units="pt" spacingx="0.79375002" spacingy="0.79375002"/>
  </sodipodi:namedview>
  <metadata id="metadata5">
    <rdf:RDF>
      <cc:Work rdf:about="">
        <dc:format>image/svg+xml</dc:format>
        <dc:type rdf:resource="http://purl.org/dc/dcmitype/StillImage"/>
        <dc:title/>
      </cc:Work>
    </rdf:RDF>
  </metadata>
  <g inkscape:groupmode="layer" inkscape:label="club-" transform="matrix(1.000000,0.000000,0.000000,1.000000,-436.880028,-301.413333)"><g id="g8047" inkscape:label="017">
      <path id="rect14174" style="display:inline;opacity:1;fill:#ffffff;stroke-width:0.176389;stroke-miterlimit:47.1461;paint-order:markers fill stroke" d="m 409.57504,363.67499 h 19.05 v 38.09999 h -19.05 z" transform="translate(0,-81.099993)"/>
      <path inkscape:export-ydpi="96" inkscape:export-xdpi="96" inkscape:export-filename="C:\mine\Vira\Vira table excerpts\Tourne.png" id="path14202" d="m 419.10005,303.21252 c -1.36656,0 -2.56266,0.91784 -2.91636,2.23782 -0.35367,1.32002 0.22331,2.71294 1.4067,3.39621 -1.18347,-0.68328 -2.67835,-0.4864 -3.64464,0.47989 -0.96629,0.9663 -1.16302,2.46114 -0.47975,3.64461 0.68329,1.18347 2.07624,1.7604 3.39623,1.40673 0.79453,-0.21292 1.44296,-0.73126 1.83361,-1.40808 l -1.21379,4.53032 h 3.23601 l -1.21393,-4.53068 c 0.39063,0.67698 1.03905,1.19547 1.83374,1.40845 1.32,0.35366 2.71306,-0.22333 3.39635,-1.40674 0.68327,-1.18346 0.48643,-2.67831 -0.47989,-3.6446 -0.96629,-0.96631 -2.46117,-1.16317 -3.64464,-0.4799 1.18347,-0.68327 1.76051,-2.07621 1.40684,-3.39621 -0.3537,-1.31998 -1.54994,-2.23781 -2.91648,-2.23782 z" style="opacity:1;fill:#808080;fill-opacity:1;stroke:none;stroke-width:0.0705556;stroke-linecap:butt;stroke-linejoin:miter;stroke-miterlimit:4;stroke-dasharray:none;stroke-dashoffset:0;paint-order:normal" inkscape:connector-curvature="0"/>
      <g aria-label="Kn" id="text14270" style="font-size:21.1667px;line-height:125%;font-family:'Stint Ultra Condensed';-inkscape-font-specification:'Stint Ultra Condensed, ';text-align:center;letter-spacing:0px;word-spacing:0px;text-anchor:middle;fill:#808080;stroke-width:0.264583">
        <path d="m 411.97385,285.8368 h 3.82406 v 1.15755 h -1.27124 v 4.84726 l 2.62516,-4.84726 h -0.77515 v -1.15755 h 3.15227 v 1.15755 h -1.06453 l -2.66651,4.94028 2.92489,6.93499 h 1.16789 v 1.16789 h -3.36931 v -1.16789 h 0.86816 l -2.39779,-5.83945 -0.46508,0.8475 v 4.99195 h 1.27124 v 1.16789 h -3.82406 v -1.16789 h 1.2609 v -11.87527 h -1.2609 z" id="path1087"/>
        <path d="m 420.11806,290.1983 h 2.13941 v 1.09554 q 0.36174,-0.62012 0.76481,-0.99219 0.41342,-0.38241 0.94052,-0.38241 0.76481,0 1.09554,0.6718 0.33073,0.67179 0.33073,1.91203 v 6.36655 h 0.84749 v 1.16789 h -2.78019 v -1.16789 h 0.64079 v -5.96347 q 0,-0.56844 -0.031,-0.91984 -0.0207,-0.35141 -0.0827,-0.54778 -0.0517,-0.2067 -0.1447,-0.27905 -0.093,-0.0723 -0.22737,-0.0723 -0.20671,0 -0.42375,0.20671 -0.20671,0.19637 -0.39274,0.51676 -0.18604,0.3204 -0.33073,0.72348 -0.1447,0.39274 -0.20671,0.79581 v 5.53973 h 0.63045 v 1.16789 h -2.76986 v -1.16789 h 0.8475 v -7.51377 h -0.8475 z" id="path1089"/>
      </g>
    </g>
  </g></svg>
