<?xml version='1.0' encoding='UTF-8'?>
<!-- Created with Inkscape (http://www.inkscape.org/) and export_objects.py -->
<svg xmlns:cc="http://creativecommons.org/ns#" xmlns:dc="http://purl.org/dc/elements/1.1/" xmlns:inkscape="http://www.inkscape.org/namespaces/inkscape" xmlns:rdf="http://www.w3.org/1999/02/22-rdf-syntax-ns#" xmlns:sodipodi="http://sodipodi.sourceforge.net/DTD/sodipodi-0.dtd" xmlns:xlink="http://www.w3.org/1999/xlink" xmlns="http://www.w3.org/2000/svg" version="1.1" width="57.5999984pt" height="115.199968pt" viewBox="0 0 20.3199994356 40.6399887111" id="svg8" inkscape:version="1.2-dev (28587f2, 2021-04-23)" sodipodi:docname="club-005.svg"><sodipodi:namedview id="base" pagecolor="#ffffff" bordercolor="#666666" borderopacity="1.0" inkscape:pageopacity="0.0" inkscape:pageshadow="2" inkscape:zoom="0.82096346" inkscape:cx="954.09044" inkscape:cy="371.99993" inkscape:document-units="pt" inkscape:current-layer="layer3" showgrid="true" units="pt" inkscape:snap-others="false" inkscape:snap-grids="true" inkscape:window-width="2880" inkscape:window-height="1526" inkscape:window-x="2869" inkscape:window-y="-11" inkscape:window-maximized="1" inkscape:snap-midpoints="false" inkscape:object-nodes="true" inkscape:snap-text-baseline="true" inkscape:snap-smooth-nodes="false" inkscape:snap-bbox="false" inkscape:snap-bbox-edge-midpoints="false" inkscape:snap-nodes="true" inkscape:bbox-nodes="true" objecttolerance="10.0" gridtolerance="10.0" guidetolerance="10.0" inkscape:pagecheckerboard="0">
    <inkscape:grid type="xygrid" id="grid10" units="pt" spacingx="0.79375002" spacingy="0.79375002"/>
  </sodipodi:namedview>
  <metadata id="metadata5">
    <rdf:RDF>
      <cc:Work rdf:about="">
        <dc:format>image/svg+xml</dc:format>
        <dc:type rdf:resource="http://purl.org/dc/dcmitype/StillImage"/>
        <dc:title/>
      </cc:Work>
    </rdf:RDF>
  </metadata>
  <g inkscape:groupmode="layer" inkscape:label="club-" transform="matrix(1.000000,0.000000,0.000000,1.000000,-142.240017,-301.413333)"><g id="g7087" inkscape:label="005">
      <path id="rect8361" style="display:inline;opacity:1;fill:#ffffff;stroke-width:0.176389;stroke-miterlimit:47.1461;paint-order:markers fill stroke" d="m 133.35002,363.67499 h 19.05 v 38.09999 h -19.05 z" transform="translate(0,-81.099993)"/>
      <path inkscape:export-ydpi="96" inkscape:export-xdpi="96" inkscape:export-filename="C:\mine\Vira\Vira table excerpts\Tourne.png" id="path8449" d="m 142.87502,303.21252 c -1.36657,0 -2.56266,0.91784 -2.91636,2.23782 -0.35367,1.32002 0.22331,2.71294 1.40669,3.39621 -1.18346,-0.68328 -2.67834,-0.4864 -3.64463,0.47989 -0.96629,0.9663 -1.16302,2.46114 -0.47975,3.64461 0.6833,1.18347 2.07624,1.7604 3.39623,1.40673 0.79453,-0.21292 1.44295,-0.73126 1.83361,-1.40808 l -1.21379,4.53032 h 3.236 l -1.21393,-4.53068 c 0.39063,0.67698 1.03905,1.19547 1.83375,1.40845 1.31999,0.35366 2.71305,-0.22333 3.39635,-1.40674 0.68327,-1.18346 0.48642,-2.67831 -0.4799,-3.6446 -0.96629,-0.96631 -2.46116,-1.16317 -3.64463,-0.4799 1.18347,-0.68327 1.76051,-2.07621 1.40684,-3.39621 -0.3537,-1.31998 -1.54994,-2.23781 -2.91648,-2.23782 z" style="opacity:1;fill:#808080;fill-opacity:1;stroke:none;stroke-width:0.0705556;stroke-linecap:butt;stroke-linejoin:miter;stroke-miterlimit:4;stroke-dasharray:none;stroke-dashoffset:0;paint-order:normal" inkscape:connector-curvature="0"/>
      <g aria-label="10" id="text8397" style="font-size:21.1667px;line-height:125%;font-family:'Stint Ultra Condensed';-inkscape-font-specification:'Stint Ultra Condensed, ';text-align:center;letter-spacing:0px;word-spacing:0px;text-anchor:middle;fill:#808080;stroke-width:0.264583">
        <path d="m 137.42314,298.86962 h 1.3746 v -11.89594 l -1.69499,1.06454 V 286.891 l 1.69499,-1.0542 h 1.27124 v 13.03282 h 1.3746 v 1.16789 h -4.02044 z" id="path1019"/>
        <path d="m 148.30622,292.94749 q 0,1.94304 -0.22738,3.3383 -0.22738,1.39527 -0.63045,2.29444 -0.40308,0.88883 -0.96119,1.31258 -0.54777,0.42375 -1.18856,0.42375 -0.65112,0 -1.20923,-0.42375 -0.54777,-0.42375 -0.96118,-1.31258 -0.40308,-0.89917 -0.63045,-2.29444 -0.22738,-1.39526 -0.22738,-3.3383 0,-1.9327 0.22738,-3.32797 0.22737,-1.39527 0.63045,-2.29444 0.41341,-0.89917 0.96118,-1.32292 0.55811,-0.42374 1.20923,-0.42374 0.64079,0 1.18856,0.42374 0.55811,0.42375 0.96119,1.32292 0.40307,0.89917 0.63045,2.29444 0.22738,1.39527 0.22738,3.32797 z m -1.31259,0 q 0,-1.66399 -0.13436,-2.84221 -0.12402,-1.18856 -0.3514,-1.94304 -0.22737,-0.75447 -0.53743,-1.10587 -0.31006,-0.3514 -0.6718,-0.3514 -0.36173,0 -0.68213,0.3514 -0.31006,0.3514 -0.54777,1.10587 -0.22737,0.75448 -0.36173,1.94304 -0.12403,1.17822 -0.12403,2.84221 0,1.66398 0.12403,2.85254 0.13436,1.17823 0.36173,1.9327 0.23771,0.75448 0.54777,1.10588 0.3204,0.3514 0.68213,0.3514 0.36174,0 0.6718,-0.3514 0.31006,-0.3514 0.53743,-1.10588 0.22738,-0.76481 0.3514,-1.94303 0.13436,-1.17823 0.13436,-2.84221 z" id="path1021"/>
      </g>
    </g>
    </g></svg>
