<?xml version='1.0' encoding='UTF-8'?>
<!-- Created with Inkscape (http://www.inkscape.org/) and export_objects.py -->
<svg xmlns:cc="http://creativecommons.org/ns#" xmlns:dc="http://purl.org/dc/elements/1.1/" xmlns:inkscape="http://www.inkscape.org/namespaces/inkscape" xmlns:rdf="http://www.w3.org/1999/02/22-rdf-syntax-ns#" xmlns:sodipodi="http://sodipodi.sourceforge.net/DTD/sodipodi-0.dtd" xmlns:xlink="http://www.w3.org/1999/xlink" xmlns="http://www.w3.org/2000/svg" version="1.1" width="57.5999984pt" height="115.199968pt" viewBox="0 0 20.3199994356 40.6399887111" id="svg8" inkscape:version="1.2-dev (28587f2, 2021-04-23)" sodipodi:docname="club-012.svg"><sodipodi:namedview id="base" pagecolor="#ffffff" bordercolor="#666666" borderopacity="1.0" inkscape:pageopacity="0.0" inkscape:pageshadow="2" inkscape:zoom="0.82096346" inkscape:cx="954.09044" inkscape:cy="371.99993" inkscape:document-units="pt" inkscape:current-layer="layer3" showgrid="true" units="pt" inkscape:snap-others="false" inkscape:snap-grids="true" inkscape:window-width="2880" inkscape:window-height="1526" inkscape:window-x="2869" inkscape:window-y="-11" inkscape:window-maximized="1" inkscape:snap-midpoints="false" inkscape:object-nodes="true" inkscape:snap-text-baseline="true" inkscape:snap-smooth-nodes="false" inkscape:snap-bbox="false" inkscape:snap-bbox-edge-midpoints="false" inkscape:snap-nodes="true" inkscape:bbox-nodes="true" objecttolerance="10.0" gridtolerance="10.0" guidetolerance="10.0" inkscape:pagecheckerboard="0">
    <inkscape:grid type="xygrid" id="grid10" units="pt" spacingx="0.79375002" spacingy="0.79375002"/>
  </sodipodi:namedview>
  <metadata id="metadata5">
    <rdf:RDF>
      <cc:Work rdf:about="">
        <dc:format>image/svg+xml</dc:format>
        <dc:type rdf:resource="http://purl.org/dc/dcmitype/StillImage"/>
        <dc:title/>
      </cc:Work>
    </rdf:RDF>
  </metadata>
  <g inkscape:groupmode="layer" inkscape:label="club-" transform="matrix(1.000000,0.000000,0.000000,1.000000,-328.506695,-301.413333)"><g id="g8014" inkscape:label="012">
      <path id="rect8375" style="display:inline;opacity:1;fill:#ffffff;stroke-width:0.176389;stroke-miterlimit:47.1461;paint-order:markers fill stroke" d="m 307.97504,363.67499 h 19.05 v 38.09999 h -19.05 z" transform="translate(0,-81.099993)"/>
      <path inkscape:connector-curvature="0" style="opacity:1;fill:#808080;fill-opacity:1;stroke:none;stroke-width:0.0705556;stroke-linecap:butt;stroke-linejoin:miter;stroke-miterlimit:4;stroke-dasharray:none;stroke-dashoffset:0;paint-order:normal" d="m 317.50002,303.21252 c -1.36657,0 -2.56267,0.91784 -2.91637,2.23782 -0.35367,1.32002 0.22332,2.71294 1.4067,3.39621 -1.18347,-0.68328 -2.67834,-0.4864 -3.64463,0.47989 -0.96629,0.9663 -1.16302,2.46114 -0.47976,3.64461 0.6833,1.18347 2.07625,1.7604 3.39624,1.40673 0.79453,-0.21292 1.44295,-0.73126 1.83361,-1.40808 l -1.21379,4.53032 h 3.236 l -1.21393,-4.53068 c 0.39063,0.67698 1.03905,1.19547 1.83375,1.40846 1.31999,0.35365 2.71305,-0.22334 3.39635,-1.40675 0.68327,-1.18346 0.48642,-2.67831 -0.4799,-3.6446 -0.96629,-0.96631 -2.46116,-1.16317 -3.64463,-0.4799 1.18347,-0.68327 1.76051,-2.07621 1.40684,-3.39621 -0.3537,-1.31998 -1.54994,-2.23781 -2.91648,-2.23782 z" id="path8491" inkscape:export-filename="C:\mine\Vira\Vira table excerpts\Tourne.png" inkscape:export-xdpi="96" inkscape:export-ydpi="96"/>
      <g aria-label="3" id="text8425" style="font-size:21.1667px;line-height:125%;font-family:'Stint Ultra Condensed';-inkscape-font-specification:'Stint Ultra Condensed, ';text-align:center;letter-spacing:0px;word-spacing:0px;text-anchor:middle;fill:#808080;stroke-width:0.264583">
        <path d="m 317.70671,291.21116 q 0.82682,0.2067 1.31258,0.71313 0.49609,0.4961 0.74414,1.13689 0.25838,0.63045 0.33073,1.32292 0.0827,0.68213 0.0827,1.25057 0,1.11621 -0.19637,1.99471 -0.19637,0.86817 -0.56844,1.46761 -0.37207,0.59945 -0.89917,0.90951 -0.51677,0.31006 -1.16789,0.31006 -0.54777,0 -1.03353,-0.26872 -0.47542,-0.25838 -0.83716,-0.84749 -0.36173,-0.58912 -0.56844,-1.51929 -0.20671,-0.94052 -0.20671,-2.2841 h 1.27125 q 0,1.97404 0.3514,2.88354 0.3514,0.90951 1.0852,0.90951 0.40308,0 0.68213,-0.27905 0.27906,-0.28939 0.44442,-0.77515 0.1757,-0.48576 0.24805,-1.12655 0.0827,-0.64079 0.0827,-1.35392 0,-0.77515 -0.12402,-1.4056 -0.12403,-0.64079 -0.40308,-1.09555 -0.26872,-0.45475 -0.71314,-0.7028 -0.44441,-0.25838 -1.0852,-0.26871 v -1.11622 l 2.11873,-4.05144 h -2.56315 v 2.23243 h -1.12655 v -3.41065 h 5.14698 v 0.88884 z" id="path1042"/>
      </g>
    </g>
    </g></svg>
