<?xml version='1.0' encoding='UTF-8'?>
<!-- Created with Inkscape (http://www.inkscape.org/) and export_objects.py -->
<svg xmlns:cc="http://creativecommons.org/ns#" xmlns:dc="http://purl.org/dc/elements/1.1/" xmlns:inkscape="http://www.inkscape.org/namespaces/inkscape" xmlns:rdf="http://www.w3.org/1999/02/22-rdf-syntax-ns#" xmlns:sodipodi="http://sodipodi.sourceforge.net/DTD/sodipodi-0.dtd" xmlns:xlink="http://www.w3.org/1999/xlink" xmlns="http://www.w3.org/2000/svg" version="1.1" width="57.6000288pt" height="115.199968pt" viewBox="0 0 20.32001016 40.6399887111" id="svg8" inkscape:version="1.2-dev (28587f2, 2021-04-23)" sodipodi:docname="diamond-009.svg"><sodipodi:namedview id="base" pagecolor="#ffffff" bordercolor="#666666" borderopacity="1.0" inkscape:pageopacity="0.0" inkscape:pageshadow="2" inkscape:zoom="0.82096346" inkscape:cx="954.09044" inkscape:cy="371.99993" inkscape:document-units="pt" inkscape:current-layer="layer3" showgrid="true" units="pt" inkscape:snap-others="false" inkscape:snap-grids="true" inkscape:window-width="2880" inkscape:window-height="1526" inkscape:window-x="2869" inkscape:window-y="-11" inkscape:window-maximized="1" inkscape:snap-midpoints="false" inkscape:object-nodes="true" inkscape:snap-text-baseline="true" inkscape:snap-smooth-nodes="false" inkscape:snap-bbox="false" inkscape:snap-bbox-edge-midpoints="false" inkscape:snap-nodes="true" inkscape:bbox-nodes="true" objecttolerance="10.0" gridtolerance="10.0" guidetolerance="10.0" inkscape:pagecheckerboard="0">
    <inkscape:grid type="xygrid" id="grid10" units="pt" spacingx="0.79375002" spacingy="0.79375002"/>
  </sodipodi:namedview>
  <metadata id="metadata5">
    <rdf:RDF>
      <cc:Work rdf:about="">
        <dc:format>image/svg+xml</dc:format>
        <dc:type rdf:resource="http://purl.org/dc/dcmitype/StillImage"/>
        <dc:title/>
      </cc:Work>
    </rdf:RDF>
  </metadata>
  <g inkscape:groupmode="layer" inkscape:label="diamond-" transform="matrix(1.000000,0.000000,0.000000,1.000000,-247.226684,-254.000011)"><g id="g6764" inkscape:label="009">
      <path id="rect8291" style="display:inline;opacity:1;fill:#ffffff;stroke-width:0.176389;stroke-miterlimit:47.1461;paint-order:markers fill stroke" d="m 231.77502,319.22501 h 19.05001 V 357.325 h -19.05001 z" transform="translate(0,-81.099993)"/>
      <path style="display:inline;opacity:1;fill:#800000;fill-opacity:1;stroke:none;stroke-width:0.0705556;stroke-linecap:butt;stroke-linejoin:miter;stroke-miterlimit:4;stroke-dasharray:none;stroke-dashoffset:0;paint-order:normal" d="m 241.30003,258.76256 -6.03858,7.14373 6.03858,7.14373 6.03862,-7.14373 z" id="path8477" inkscape:connector-curvature="0" inkscape:export-filename="C:\mine\Vira\Vira table excerpts\diamond-icon.png" inkscape:export-xdpi="96" inkscape:export-ydpi="96"/>
      <g aria-label="6" id="text8335" style="font-size:21.1667px;line-height:125%;font-family:'Stint Ultra Condensed';-inkscape-font-specification:'Stint Ultra Condensed, ';text-align:center;letter-spacing:0px;word-spacing:0px;text-anchor:middle;fill:#800000;stroke-width:0.264583">
        <path d="m 239.82725,248.21851 q 0.0724,-0.18603 0.20671,-0.47542 0.14469,-0.28939 0.37207,-0.55811 0.23771,-0.27905 0.56844,-0.46508 0.33073,-0.19638 0.78548,-0.19638 0.50643,0 0.95085,0.28939 0.44442,0.28939 0.76481,0.86817 0.33073,0.57878 0.51677,1.45728 0.19637,0.86816 0.19637,2.04639 0,0.97151 -0.18603,1.82935 -0.1757,0.84749 -0.51677,1.48828 -0.34106,0.63045 -0.83716,1.00252 -0.49609,0.36174 -1.12655,0.36174 -0.63045,0 -1.17822,-0.42375 -0.53744,-0.43408 -0.94051,-1.29191 -0.40308,-0.86817 -0.64079,-2.17042 -0.22738,-1.30224 -0.22738,-3.05924 0,-1.79835 0.1757,-3.23495 0.1757,-1.44695 0.53744,-2.45981 0.37207,-1.01286 0.93017,-1.55029 0.56844,-0.54777 1.34359,-0.54777 0.4961,0 0.94052,0.27905 0.44441,0.26872 0.77514,0.80615 0.34107,0.53744 0.5271,1.34359 0.19637,0.79582 0.19637,1.85002 h -1.27124 q 0,-1.53996 -0.31006,-2.34611 -0.29972,-0.80616 -0.91984,-0.80616 -0.43408,0 -0.74414,0.48576 -0.31006,0.47543 -0.50643,1.29192 -0.19637,0.81649 -0.28939,1.90169 -0.093,1.07487 -0.093,2.2841 z m 1.67432,-0.56844 q -0.32039,0 -0.57877,0.29973 -0.25839,0.29972 -0.46509,0.7338 -0.19637,0.43409 -0.33073,0.93018 -0.13436,0.49609 -0.19637,0.88884 -0.0207,0.77514 0.0827,1.52962 0.11369,0.75448 0.32039,1.36426 0.21704,0.59945 0.51677,0.97152 0.31006,0.37207 0.67179,0.37207 0.33073,0 0.58911,-0.24805 0.25839,-0.25838 0.43409,-0.72347 0.1757,-0.46509 0.25838,-1.11621 0.093,-0.66146 0.093,-1.46761 0,-0.82683 -0.0827,-1.47795 -0.0827,-0.66146 -0.25839,-1.11621 -0.16536,-0.45476 -0.43408,-0.69247 -0.25838,-0.24805 -0.62012,-0.24805 z" id="path992"/>
      </g>
    </g>
    </g></svg>
