<?xml version='1.0' encoding='UTF-8'?>
<!-- Created with Inkscape (http://www.inkscape.org/) and export_objects.py -->
<svg xmlns:cc="http://creativecommons.org/ns#" xmlns:dc="http://purl.org/dc/elements/1.1/" xmlns:inkscape="http://www.inkscape.org/namespaces/inkscape" xmlns:rdf="http://www.w3.org/1999/02/22-rdf-syntax-ns#" xmlns:sodipodi="http://sodipodi.sourceforge.net/DTD/sodipodi-0.dtd" xmlns:xlink="http://www.w3.org/1999/xlink" xmlns="http://www.w3.org/2000/svg" version="1.1" width="57.5999984pt" height="115.199968pt" viewBox="0 0 20.3199994356 40.6399887111" id="svg8" inkscape:version="1.2-dev (28587f2, 2021-04-23)" sodipodi:docname="diamond-004.svg"><sodipodi:namedview id="base" pagecolor="#ffffff" bordercolor="#666666" borderopacity="1.0" inkscape:pageopacity="0.0" inkscape:pageshadow="2" inkscape:zoom="0.82096346" inkscape:cx="954.09044" inkscape:cy="371.99993" inkscape:document-units="pt" inkscape:current-layer="layer3" showgrid="true" units="pt" inkscape:snap-others="false" inkscape:snap-grids="true" inkscape:window-width="2880" inkscape:window-height="1526" inkscape:window-x="2869" inkscape:window-y="-11" inkscape:window-maximized="1" inkscape:snap-midpoints="false" inkscape:object-nodes="true" inkscape:snap-text-baseline="true" inkscape:snap-smooth-nodes="false" inkscape:snap-bbox="false" inkscape:snap-bbox-edge-midpoints="false" inkscape:snap-nodes="true" inkscape:bbox-nodes="true" objecttolerance="10.0" gridtolerance="10.0" guidetolerance="10.0" inkscape:pagecheckerboard="0">
    <inkscape:grid type="xygrid" id="grid10" units="pt" spacingx="0.79375002" spacingy="0.79375002"/>
  </sodipodi:namedview>
  <metadata id="metadata5">
    <rdf:RDF>
      <cc:Work rdf:about="">
        <dc:format>image/svg+xml</dc:format>
        <dc:type rdf:resource="http://purl.org/dc/dcmitype/StillImage"/>
        <dc:title/>
      </cc:Work>
    </rdf:RDF>
  </metadata>
  <g inkscape:groupmode="layer" inkscape:label="diamond-" transform="matrix(1.000000,0.000000,0.000000,1.000000,-115.146686,-254.000011)"><g id="g6723" inkscape:label="004">
      <path id="rect8281" style="display:inline;opacity:1;fill:#ffffff;stroke-width:0.176389;stroke-miterlimit:47.1461;paint-order:markers fill stroke" d="m 107.95002,319.22501 h 19.05 V 357.325 h -19.05 z" transform="translate(0,-81.099993)"/>
      <path style="display:inline;opacity:1;fill:#800000;fill-opacity:1;stroke:none;stroke-width:0.0705556;stroke-linecap:butt;stroke-linejoin:miter;stroke-miterlimit:4;stroke-dasharray:none;stroke-dashoffset:0;paint-order:normal" d="m 117.47499,258.76256 -6.03857,7.14373 6.03857,7.14373 6.03862,-7.14373 z" id="path8447" inkscape:connector-curvature="0" inkscape:export-filename="C:\mine\Vira\Vira table excerpts\diamond-icon.png" inkscape:export-xdpi="96" inkscape:export-ydpi="96"/>
      <g aria-label="J" id="text8315" style="font-size:21.1667px;line-height:125%;font-family:'Stint Ultra Condensed';-inkscape-font-specification:'Stint Ultra Condensed, ';text-align:center;letter-spacing:0px;word-spacing:0px;text-anchor:middle;fill:#800000;stroke-width:0.264583">
        <path d="m 116.60169,241.38688 h 4.05144 v 1.15755 h -1.27125 v 9.16742 q 0,1.11621 -0.1757,1.89136 -0.16536,0.76481 -0.48575,1.25057 -0.31006,0.47542 -0.76482,0.69246 -0.44442,0.20671 -1.01286,0.20671 -0.5581,0 -1.00252,-0.18604 -0.43408,-0.18603 -0.74414,-0.69246 -0.31006,-0.51677 -0.47543,-1.42627 -0.16536,-0.90951 -0.16536,-2.34612 h 1.29191 q 0.0103,0.97152 0.0413,1.63298 0.0413,0.66146 0.1447,1.07487 0.11368,0.40308 0.33073,0.58912 0.21704,0.1757 0.57877,0.1757 0.36174,0 0.58912,-0.18604 0.22737,-0.19637 0.3514,-0.55811 0.12402,-0.37207 0.16536,-0.91984 0.0413,-0.54777 0.0413,-1.2609 v -9.10541 h -1.48828 z" id="path975"/>
      </g>
    </g>
    </g></svg>
