<?xml version='1.0' encoding='UTF-8'?>
<!-- Created with Inkscape (http://www.inkscape.org/) and export_objects.py -->
<svg xmlns:cc="http://creativecommons.org/ns#" xmlns:dc="http://purl.org/dc/elements/1.1/" xmlns:inkscape="http://www.inkscape.org/namespaces/inkscape" xmlns:rdf="http://www.w3.org/1999/02/22-rdf-syntax-ns#" xmlns:sodipodi="http://sodipodi.sourceforge.net/DTD/sodipodi-0.dtd" xmlns:xlink="http://www.w3.org/1999/xlink" xmlns="http://www.w3.org/2000/svg" version="1.1" width="57.5999984pt" height="115.199968pt" viewBox="0 0 20.3199994356 40.6399887111" id="svg8" inkscape:version="1.2-dev (28587f2, 2021-04-23)" sodipodi:docname="diamond-005.svg"><sodipodi:namedview id="base" pagecolor="#ffffff" bordercolor="#666666" borderopacity="1.0" inkscape:pageopacity="0.0" inkscape:pageshadow="2" inkscape:zoom="0.82096346" inkscape:cx="954.09044" inkscape:cy="371.99993" inkscape:document-units="pt" inkscape:current-layer="layer3" showgrid="true" units="pt" inkscape:snap-others="false" inkscape:snap-grids="true" inkscape:window-width="2880" inkscape:window-height="1526" inkscape:window-x="2869" inkscape:window-y="-11" inkscape:window-maximized="1" inkscape:snap-midpoints="false" inkscape:object-nodes="true" inkscape:snap-text-baseline="true" inkscape:snap-smooth-nodes="false" inkscape:snap-bbox="false" inkscape:snap-bbox-edge-midpoints="false" inkscape:snap-nodes="true" inkscape:bbox-nodes="true" objecttolerance="10.0" gridtolerance="10.0" guidetolerance="10.0" inkscape:pagecheckerboard="0">
    <inkscape:grid type="xygrid" id="grid10" units="pt" spacingx="0.79375002" spacingy="0.79375002"/>
  </sodipodi:namedview>
  <metadata id="metadata5">
    <rdf:RDF>
      <cc:Work rdf:about="">
        <dc:format>image/svg+xml</dc:format>
        <dc:type rdf:resource="http://purl.org/dc/dcmitype/StillImage"/>
        <dc:title/>
      </cc:Work>
    </rdf:RDF>
  </metadata>
  <g inkscape:groupmode="layer" inkscape:label="diamond-" transform="matrix(1.000000,0.000000,0.000000,1.000000,-142.240017,-254.000011)"><g id="g6732" inkscape:label="005">
      <path id="rect8283" style="display:inline;opacity:1;fill:#ffffff;stroke-width:0.176389;stroke-miterlimit:47.1461;paint-order:markers fill stroke" d="m 133.35002,319.22501 h 19.05 V 357.325 h -19.05 z" transform="translate(0,-81.099993)"/>
      <path inkscape:export-ydpi="96" inkscape:export-xdpi="96" inkscape:export-filename="C:\mine\Vira\Vira table excerpts\diamond-icon.png" inkscape:connector-curvature="0" id="path8453" d="m 142.875,258.76256 -6.03857,7.14373 6.03857,7.14373 6.03862,-7.14373 z" style="display:inline;opacity:1;fill:#800000;fill-opacity:1;stroke:none;stroke-width:0.0705556;stroke-linecap:butt;stroke-linejoin:miter;stroke-miterlimit:4;stroke-dasharray:none;stroke-dashoffset:0;paint-order:normal"/>
      <g aria-label="10" id="text8319" style="font-size:21.1667px;line-height:125%;font-family:'Stint Ultra Condensed';-inkscape-font-specification:'Stint Ultra Condensed, ';text-align:center;letter-spacing:0px;word-spacing:0px;text-anchor:middle;fill:#800000;stroke-width:0.264583">
        <path d="m 137.42314,254.4197 h 1.3746 v -11.89594 l -1.69499,1.06454 v -1.14722 l 1.69499,-1.0542 h 1.27124 v 13.03282 h 1.3746 v 1.16789 h -4.02044 z" id="path978"/>
        <path d="m 148.30622,248.49757 q 0,1.94303 -0.22738,3.3383 -0.22738,1.39527 -0.63045,2.29444 -0.40308,0.88883 -0.96119,1.31258 -0.54777,0.42375 -1.18856,0.42375 -0.65112,0 -1.20923,-0.42375 -0.54777,-0.42375 -0.96118,-1.31258 -0.40308,-0.89917 -0.63045,-2.29444 -0.22738,-1.39527 -0.22738,-3.3383 0,-1.9327 0.22738,-3.32797 0.22737,-1.39527 0.63045,-2.29444 0.41341,-0.89917 0.96118,-1.32292 0.55811,-0.42374 1.20923,-0.42374 0.64079,0 1.18856,0.42374 0.55811,0.42375 0.96119,1.32292 0.40307,0.89917 0.63045,2.29444 0.22738,1.39527 0.22738,3.32797 z m -1.31259,0 q 0,-1.66399 -0.13436,-2.84221 -0.12402,-1.18856 -0.3514,-1.94304 -0.22737,-0.75447 -0.53743,-1.10588 -0.31006,-0.3514 -0.6718,-0.3514 -0.36173,0 -0.68213,0.3514 -0.31006,0.35141 -0.54777,1.10588 -0.22737,0.75448 -0.36173,1.94304 -0.12403,1.17822 -0.12403,2.84221 0,1.66398 0.12403,2.85254 0.13436,1.17823 0.36173,1.9327 0.23771,0.75448 0.54777,1.10588 0.3204,0.3514 0.68213,0.3514 0.36174,0 0.6718,-0.3514 0.31006,-0.3514 0.53743,-1.10588 0.22738,-0.76481 0.3514,-1.94303 0.13436,-1.17823 0.13436,-2.84221 z" id="path980"/>
      </g>
    </g>
    </g></svg>
