<?xml version='1.0' encoding='UTF-8'?>
<!-- Created with Inkscape (http://www.inkscape.org/) and export_objects.py -->
<svg xmlns:cc="http://creativecommons.org/ns#" xmlns:dc="http://purl.org/dc/elements/1.1/" xmlns:inkscape="http://www.inkscape.org/namespaces/inkscape" xmlns:rdf="http://www.w3.org/1999/02/22-rdf-syntax-ns#" xmlns:sodipodi="http://sodipodi.sourceforge.net/DTD/sodipodi-0.dtd" xmlns:xlink="http://www.w3.org/1999/xlink" xmlns="http://www.w3.org/2000/svg" version="1.1" width="57.6000104pt" height="115.199968pt" viewBox="0 0 20.3200036689 40.6399887111" id="svg8" inkscape:version="1.2-dev (28587f2, 2021-04-23)" sodipodi:docname="diamond-003.svg"><sodipodi:namedview id="base" pagecolor="#ffffff" bordercolor="#666666" borderopacity="1.0" inkscape:pageopacity="0.0" inkscape:pageshadow="2" inkscape:zoom="0.82096346" inkscape:cx="954.09044" inkscape:cy="371.99993" inkscape:document-units="pt" inkscape:current-layer="layer3" showgrid="true" units="pt" inkscape:snap-others="false" inkscape:snap-grids="true" inkscape:window-width="2880" inkscape:window-height="1526" inkscape:window-x="2869" inkscape:window-y="-11" inkscape:window-maximized="1" inkscape:snap-midpoints="false" inkscape:object-nodes="true" inkscape:snap-text-baseline="true" inkscape:snap-smooth-nodes="false" inkscape:snap-bbox="false" inkscape:snap-bbox-edge-midpoints="false" inkscape:snap-nodes="true" inkscape:bbox-nodes="true" objecttolerance="10.0" gridtolerance="10.0" guidetolerance="10.0" inkscape:pagecheckerboard="0">
    <inkscape:grid type="xygrid" id="grid10" units="pt" spacingx="0.79375002" spacingy="0.79375002"/>
  </sodipodi:namedview>
  <metadata id="metadata5">
    <rdf:RDF>
      <cc:Work rdf:about="">
        <dc:format>image/svg+xml</dc:format>
        <dc:type rdf:resource="http://purl.org/dc/dcmitype/StillImage"/>
        <dc:title/>
      </cc:Work>
    </rdf:RDF>
  </metadata>
  <g inkscape:groupmode="layer" inkscape:label="diamond-" transform="matrix(1.000000,0.000000,0.000000,1.000000,-88.053359,-254.000011)"><g id="g6715" inkscape:label="003">
      <path id="rect8279" style="display:inline;opacity:1;fill:#ffffff;stroke-width:0.176389;stroke-miterlimit:47.1461;paint-order:markers fill stroke" d="M 82.550026,319.22501 H 101.60003 V 357.325 H 82.550026 Z" transform="translate(0,-81.099993)"/>
      <path inkscape:export-ydpi="96" inkscape:export-xdpi="96" inkscape:export-filename="C:\mine\Vira\Vira table excerpts\diamond-icon.png" inkscape:connector-curvature="0" id="path8441" d="m 92.075005,258.76256 -6.038576,7.14373 6.038576,7.14373 6.038618,-7.14373 z" style="display:inline;opacity:1;fill:#800000;fill-opacity:1;stroke:none;stroke-width:0.0705556;stroke-linecap:butt;stroke-linejoin:miter;stroke-miterlimit:4;stroke-dasharray:none;stroke-dashoffset:0;paint-order:normal"/>
      <g aria-label="Q" id="text8311" style="font-size:21.1667px;line-height:125%;font-family:'Stint Ultra Condensed';-inkscape-font-specification:'Stint Ultra Condensed, ';text-align:center;letter-spacing:0px;word-spacing:0px;text-anchor:middle;fill:#800000;stroke-width:0.264583">
        <path d="m 95.687216,248.49757 q 0,1.81901 -0.258383,3.15227 -0.248047,1.33325 -0.692465,2.24276 0.5271,0.32039 1.095542,0.54777 0.568442,0.22737 1.126548,0.32039 l -0.516765,1.29191 q -0.589112,-0.2067 -1.167889,-0.5271 -0.568442,-0.32039 -1.116213,-0.7028 -0.434083,0.5271 -0.961183,0.78549 -0.516765,0.25838 -1.105878,0.25838 -0.775147,0 -1.436607,-0.43408 -0.661459,-0.43409 -1.147218,-1.33326 -0.48576,-0.9095 -0.764813,-2.29444 -0.279053,-1.39526 -0.279053,-3.30729 0,-1.9017 0.279053,-3.28663 0.279053,-1.39526 0.764813,-2.30477 0.496094,-0.90951 1.157554,-1.34359 0.661459,-0.43408 1.426271,-0.43408 0.754478,0 1.415937,0.43408 0.661459,0.43408 1.136883,1.34359 0.485759,0.89917 0.764813,2.29444 0.279053,1.38493 0.279053,3.29696 z m -1.426272,0 q 0,-3.01791 -0.547771,-4.59921 -0.547771,-1.5813 -1.622643,-1.5813 -1.105877,0 -1.653648,1.60197 -0.547771,1.59164 -0.547771,4.57854 0,3.01791 0.547771,4.59921 0.547771,1.5813 1.653648,1.5813 0.651125,0 1.136884,-0.64079 -0.50643,-0.46509 -0.909507,-0.99219 l 0.527101,-0.82682 q 0.341065,0.49609 0.847494,0.93017 0.568442,-1.57096 0.568442,-4.65088 z" id="path972"/>
      </g>
    </g>
    </g></svg>
