<?xml version='1.0' encoding='UTF-8'?>
<!-- Created with Inkscape (http://www.inkscape.org/) and export_objects.py -->
<svg xmlns:cc="http://creativecommons.org/ns#" xmlns:dc="http://purl.org/dc/elements/1.1/" xmlns:inkscape="http://www.inkscape.org/namespaces/inkscape" xmlns:rdf="http://www.w3.org/1999/02/22-rdf-syntax-ns#" xmlns:sodipodi="http://sodipodi.sourceforge.net/DTD/sodipodi-0.dtd" xmlns:xlink="http://www.w3.org/1999/xlink" xmlns="http://www.w3.org/2000/svg" version="1.1" width="57.5999984pt" height="115.199968pt" viewBox="0 0 20.3199994356 40.6399887111" id="svg8" inkscape:version="1.2-dev (28587f2, 2021-04-23)" sodipodi:docname="heart-013.svg"><sodipodi:namedview id="base" pagecolor="#ffffff" bordercolor="#666666" borderopacity="1.0" inkscape:pageopacity="0.0" inkscape:pageshadow="2" inkscape:zoom="0.82096346" inkscape:cx="954.09044" inkscape:cy="371.99993" inkscape:document-units="pt" inkscape:current-layer="layer3" showgrid="true" units="pt" inkscape:snap-others="false" inkscape:snap-grids="true" inkscape:window-width="2880" inkscape:window-height="1526" inkscape:window-x="2869" inkscape:window-y="-11" inkscape:window-maximized="1" inkscape:snap-midpoints="false" inkscape:object-nodes="true" inkscape:snap-text-baseline="true" inkscape:snap-smooth-nodes="false" inkscape:snap-bbox="false" inkscape:snap-bbox-edge-midpoints="false" inkscape:snap-nodes="true" inkscape:bbox-nodes="true" objecttolerance="10.0" gridtolerance="10.0" guidetolerance="10.0" inkscape:pagecheckerboard="0">
    <inkscape:grid type="xygrid" id="grid10" units="pt" spacingx="0.79375002" spacingy="0.79375002"/>
  </sodipodi:namedview>
  <metadata id="metadata5">
    <rdf:RDF>
      <cc:Work rdf:about="">
        <dc:format>image/svg+xml</dc:format>
        <dc:type rdf:resource="http://purl.org/dc/dcmitype/StillImage"/>
        <dc:title/>
      </cc:Work>
    </rdf:RDF>
  </metadata>
  <g inkscape:groupmode="layer" inkscape:label="heart-" transform="matrix(1.000000,0.000000,0.000000,1.000000,-355.600000,-206.586593)"><g id="g5704" inkscape:label="013">
      <path id="rect8221" style="display:inline;opacity:1;fill:#ffffff;stroke-width:0.176389;stroke-miterlimit:47.1461;paint-order:markers fill stroke" d="m 333.375,274.77493 h 19.05 v 38.09999 h -19.05 z" transform="translate(0,-81.099993)"/>
      <path inkscape:export-ydpi="96" inkscape:export-xdpi="96" inkscape:export-filename="C:\mine\Vira\Vira table excerpts\heart-icon.png" inkscape:connector-curvature="0" id="path8499" d="m 342.89998,228.6 -5.63427,-9.75853 0.002,-7.2e-4 a 3.0192966,3.0192966 0 0 1 -0.40725,-1.50891 3.0192966,3.0192966 0 0 1 3.01927,-3.01929 3.0192966,3.0192966 0 0 1 3.0193,3.01929 3.0192966,3.0192966 0 0 1 3.0193,-3.01929 3.0192966,3.0192966 0 0 1 3.0193,3.01929 3.0192966,3.0192966 0 0 1 -0.40727,1.50891 l 0.002,7.2e-4 z" style="display:inline;opacity:1;fill:#fb4810;fill-opacity:1;stroke:none;stroke-width:0.0705555;stroke-linecap:butt;stroke-linejoin:miter;stroke-miterlimit:4;stroke-dasharray:none;stroke-dashoffset:0;paint-order:normal"/>
      <g aria-label="2" id="text8273" style="font-size:21.1667px;line-height:125%;font-family:'Stint Ultra Condensed';-inkscape-font-specification:'Stint Ultra Condensed, ';text-align:center;letter-spacing:0px;word-spacing:0px;text-anchor:middle;fill:#fb4810;stroke-width:0.264583">
        <path d="m 339.99574,211.13751 v -0.86816 q 0.93018,-1.31259 1.66399,-2.51148 0.74414,-1.20923 1.2609,-2.38746 0.51677,-1.17822 0.78549,-2.38745 0.27905,-1.20923 0.27905,-2.53215 0,-0.51677 -0.0723,-0.99219 -0.062,-0.47542 -0.2067,-0.83716 -0.1447,-0.37207 -0.39274,-0.58911 -0.24805,-0.22738 -0.59945,-0.22738 -0.65113,0 -0.98186,0.90951 -0.33073,0.9095 -0.33073,2.87321 h -1.31258 q 0,-1.34359 0.21704,-2.27376 0.21704,-0.94052 0.56844,-1.51929 0.36174,-0.58912 0.82683,-0.8475 0.47542,-0.26872 0.97152,-0.26872 0.64079,0 1.12654,0.28939 0.48576,0.28939 0.81649,0.80616 0.33073,0.51676 0.4961,1.2299 0.1757,0.71313 0.1757,1.55029 0,1.98438 -0.91984,4.34083 -0.90951,2.34611 -2.7802,5.05396 h 2.74919 v -2.83187 h 1.12655 v 4.02043 z" id="path963"/>
      </g>
    </g>
    </g></svg>
