<?xml version='1.0' encoding='UTF-8'?>
<!-- Created with Inkscape (http://www.inkscape.org/) and export_objects.py -->
<svg xmlns:cc="http://creativecommons.org/ns#" xmlns:dc="http://purl.org/dc/elements/1.1/" xmlns:inkscape="http://www.inkscape.org/namespaces/inkscape" xmlns:rdf="http://www.w3.org/1999/02/22-rdf-syntax-ns#" xmlns:sodipodi="http://sodipodi.sourceforge.net/DTD/sodipodi-0.dtd" xmlns:xlink="http://www.w3.org/1999/xlink" xmlns="http://www.w3.org/2000/svg" version="1.1" width="57.5999984pt" height="115.199968pt" viewBox="0 0 20.3199994356 40.6399887111" id="svg8" inkscape:version="1.2-dev (28587f2, 2021-04-23)" sodipodi:docname="heart-008.svg"><sodipodi:namedview id="base" pagecolor="#ffffff" bordercolor="#666666" borderopacity="1.0" inkscape:pageopacity="0.0" inkscape:pageshadow="2" inkscape:zoom="0.82096346" inkscape:cx="954.09044" inkscape:cy="371.99993" inkscape:document-units="pt" inkscape:current-layer="layer3" showgrid="true" units="pt" inkscape:snap-others="false" inkscape:snap-grids="true" inkscape:window-width="2880" inkscape:window-height="1526" inkscape:window-x="2869" inkscape:window-y="-11" inkscape:window-maximized="1" inkscape:snap-midpoints="false" inkscape:object-nodes="true" inkscape:snap-text-baseline="true" inkscape:snap-smooth-nodes="false" inkscape:snap-bbox="false" inkscape:snap-bbox-edge-midpoints="false" inkscape:snap-nodes="true" inkscape:bbox-nodes="true" objecttolerance="10.0" gridtolerance="10.0" guidetolerance="10.0" inkscape:pagecheckerboard="0">
    <inkscape:grid type="xygrid" id="grid10" units="pt" spacingx="0.79375002" spacingy="0.79375002"/>
  </sodipodi:namedview>
  <metadata id="metadata5">
    <rdf:RDF>
      <cc:Work rdf:about="">
        <dc:format>image/svg+xml</dc:format>
        <dc:type rdf:resource="http://purl.org/dc/dcmitype/StillImage"/>
        <dc:title/>
      </cc:Work>
    </rdf:RDF>
  </metadata>
  <g inkscape:groupmode="layer" inkscape:label="heart-" transform="matrix(1.000000,0.000000,0.000000,1.000000,-220.133328,-206.586593)"><g id="g5664" inkscape:label="008">
      <path id="rect8211" style="display:inline;opacity:1;fill:#ffffff;stroke-width:0.176389;stroke-miterlimit:47.1461;paint-order:markers fill stroke" d="m 206.375,274.77493 h 19.05 v 38.09999 h -19.05 z" transform="translate(0,-81.099993)"/>
      <path inkscape:export-ydpi="96" inkscape:export-xdpi="96" inkscape:export-filename="C:\mine\Vira\Vira table excerpts\heart-icon.png" inkscape:connector-curvature="0" id="path8469" d="m 215.90001,228.6 -5.63427,-9.75853 0.002,-7.2e-4 a 3.0192966,3.0192966 0 0 1 -0.40725,-1.50891 3.0192966,3.0192966 0 0 1 3.01927,-3.01929 3.0192966,3.0192966 0 0 1 3.0193,3.01929 3.0192966,3.0192966 0 0 1 3.0193,-3.01929 3.0192966,3.0192966 0 0 1 3.0193,3.01929 3.0192966,3.0192966 0 0 1 -0.40727,1.50891 l 0.002,7.2e-4 z" style="display:inline;opacity:1;fill:#fb4810;fill-opacity:1;stroke:none;stroke-width:0.0705555;stroke-linecap:butt;stroke-linejoin:miter;stroke-miterlimit:4;stroke-dasharray:none;stroke-dashoffset:0;paint-order:normal"/>
      <path d="m 213.37301,200.76087 v -3.82406 h 5.47771 v 0.71313 q -1.29191,2.68718 -2.01538,6.02548 -0.71314,3.33831 -0.71314,7.46209 h -1.35392 q 0,-2.51148 0.27905,-4.5372 0.28939,-2.03605 0.69247,-3.62769 0.40307,-1.60197 0.84749,-2.80086 0.45475,-1.1989 0.78548,-2.05673 h -2.88354 v 2.64584 z" id="path948" style="font-size:21.1667px;line-height:125%;font-family:'Stint Ultra Condensed';-inkscape-font-specification:'Stint Ultra Condensed, ';text-align:center;letter-spacing:0px;word-spacing:0px;text-anchor:middle;fill:#fb4810;stroke-width:0.264583"/>
    </g>
    </g></svg>
