<?xml version='1.0' encoding='UTF-8'?>
<!-- Created with Inkscape (http://www.inkscape.org/) and export_objects.py -->
<svg xmlns:cc="http://creativecommons.org/ns#" xmlns:dc="http://purl.org/dc/elements/1.1/" xmlns:inkscape="http://www.inkscape.org/namespaces/inkscape" xmlns:rdf="http://www.w3.org/1999/02/22-rdf-syntax-ns#" xmlns:sodipodi="http://sodipodi.sourceforge.net/DTD/sodipodi-0.dtd" xmlns:xlink="http://www.w3.org/1999/xlink" xmlns="http://www.w3.org/2000/svg" version="1.1" width="57.5999984pt" height="115.199968pt" viewBox="0 0 20.3199994356 40.6399887111" id="svg8" inkscape:version="1.2-dev (28587f2, 2021-04-23)" sodipodi:docname="heart-007.svg"><sodipodi:namedview id="base" pagecolor="#ffffff" bordercolor="#666666" borderopacity="1.0" inkscape:pageopacity="0.0" inkscape:pageshadow="2" inkscape:zoom="0.82096346" inkscape:cx="954.09044" inkscape:cy="371.99993" inkscape:document-units="pt" inkscape:current-layer="layer3" showgrid="true" units="pt" inkscape:snap-others="false" inkscape:snap-grids="true" inkscape:window-width="2880" inkscape:window-height="1526" inkscape:window-x="2869" inkscape:window-y="-11" inkscape:window-maximized="1" inkscape:snap-midpoints="false" inkscape:object-nodes="true" inkscape:snap-text-baseline="true" inkscape:snap-smooth-nodes="false" inkscape:snap-bbox="false" inkscape:snap-bbox-edge-midpoints="false" inkscape:snap-nodes="true" inkscape:bbox-nodes="true" objecttolerance="10.0" gridtolerance="10.0" guidetolerance="10.0" inkscape:pagecheckerboard="0">
    <inkscape:grid type="xygrid" id="grid10" units="pt" spacingx="0.79375002" spacingy="0.79375002"/>
  </sodipodi:namedview>
  <metadata id="metadata5">
    <rdf:RDF>
      <cc:Work rdf:about="">
        <dc:format>image/svg+xml</dc:format>
        <dc:type rdf:resource="http://purl.org/dc/dcmitype/StillImage"/>
        <dc:title/>
      </cc:Work>
    </rdf:RDF>
  </metadata>
  <g inkscape:groupmode="layer" inkscape:label="heart-" transform="matrix(1.000000,0.000000,0.000000,1.000000,-193.040006,-206.586593)"><g id="g4707" inkscape:label="007">
      <path id="rect8209" style="display:inline;opacity:1;fill:#ffffff;stroke-width:0.176389;stroke-miterlimit:47.1461;paint-order:markers fill stroke" d="m 180.97501,274.77493 h 19.05 v 38.09999 h -19.05 z" transform="translate(0,-81.099993)"/>
      <path style="display:inline;opacity:1;fill:#fb4810;fill-opacity:1;stroke:none;stroke-width:0.0705555;stroke-linecap:butt;stroke-linejoin:miter;stroke-miterlimit:4;stroke-dasharray:none;stroke-dashoffset:0;paint-order:normal" d="m 190.50001,228.6 -5.63427,-9.75853 0.002,-7.2e-4 a 3.0192966,3.0192966 0 0 1 -0.40725,-1.50891 3.0192966,3.0192966 0 0 1 3.01927,-3.01929 3.0192966,3.0192966 0 0 1 3.0193,3.01929 3.0192966,3.0192966 0 0 1 3.0193,-3.01929 3.0192966,3.0192966 0 0 1 3.0193,3.01929 3.0192966,3.0192966 0 0 1 -0.40727,1.50891 l 0.002,7.2e-4 z" id="path8463" inkscape:connector-curvature="0" inkscape:export-filename="C:\mine\Vira\Vira table excerpts\heart-icon.png" inkscape:export-xdpi="96" inkscape:export-ydpi="96"/>
      <g aria-label="8" id="text8249" style="font-size:21.1667px;line-height:125%;font-family:'Stint Ultra Condensed';-inkscape-font-specification:'Stint Ultra Condensed, ';text-align:center;letter-spacing:0px;word-spacing:0px;text-anchor:middle;fill:#fb4810;stroke-width:0.264583">
        <path d="m 191.51803,203.38604 q 0.94051,0.3514 1.4056,1.36426 0.47542,1.01285 0.47542,2.51147 0,0.91985 -0.19637,1.68466 -0.19637,0.76481 -0.56844,1.31258 -0.37207,0.54777 -0.90951,0.85783 -0.53743,0.29973 -1.21956,0.29973 -0.68213,0 -1.21957,-0.29973 -0.53743,-0.31006 -0.91984,-0.85783 -0.37207,-0.54777 -0.56844,-1.31258 -0.19637,-0.76481 -0.19637,-1.68466 0,-0.74414 0.12402,-1.38493 0.12402,-0.64079 0.36174,-1.13688 0.23771,-0.50643 0.58911,-0.85783 0.3514,-0.36174 0.80615,-0.53744 -0.37207,-0.21704 -0.65112,-0.5581 -0.26872,-0.3514 -0.45475,-0.75448 -0.1757,-0.41341 -0.26872,-0.86817 -0.0827,-0.45475 -0.0827,-0.88883 0,-0.79582 0.17571,-1.45728 0.1757,-0.66146 0.49609,-1.13688 0.33073,-0.47543 0.78548,-0.73381 0.45476,-0.26872 1.00253,-0.26872 0.54777,0 1.00252,0.26872 0.45475,0.25838 0.78548,0.73381 0.33073,0.47542 0.51677,1.13688 0.18604,0.66146 0.18604,1.45728 0,0.43408 -0.093,0.89917 -0.0827,0.45475 -0.26872,0.8785 -0.1757,0.41341 -0.45475,0.76481 -0.26872,0.3514 -0.64079,0.56845 z m 0.18603,-3.03858 q 0,-0.50643 -0.0723,-0.97152 -0.062,-0.46509 -0.20671,-0.81649 -0.13436,-0.36174 -0.37207,-0.56844 -0.22738,-0.20671 -0.54777,-0.20671 -0.33073,0 -0.56844,0.20671 -0.22738,0.2067 -0.37207,0.56844 -0.1447,0.3514 -0.20671,0.81649 -0.062,0.46509 -0.062,0.97152 0,0.50643 0.0723,0.97151 0.0724,0.46509 0.21705,0.81649 0.15503,0.3514 0.3824,0.55811 0.22738,0.20671 0.53744,0.20671 0.31006,0 0.53743,-0.20671 0.22738,-0.20671 0.37207,-0.55811 0.1447,-0.3514 0.21705,-0.81649 0.0723,-0.46508 0.0723,-0.97151 z m -1.19889,3.59668 q -0.75448,0 -1.17823,0.83716 -0.41341,0.83716 -0.41341,2.33578 0,1.48828 0.40308,2.34611 0.40307,0.8475 1.18856,0.8475 0.77515,0 1.17822,-0.8475 0.40308,-0.85783 0.40308,-2.34611 0,-0.74414 -0.11369,-1.33325 -0.10335,-0.58912 -0.31006,-0.99219 -0.2067,-0.41342 -0.50643,-0.63046 -0.28939,-0.21704 -0.65112,-0.21704 z" id="path945"/>
      </g>
    </g>
    </g></svg>
