<?xml version='1.0' encoding='UTF-8'?>
<!-- Created with Inkscape (http://www.inkscape.org/) and export_objects.py -->
<svg xmlns:cc="http://creativecommons.org/ns#" xmlns:dc="http://purl.org/dc/elements/1.1/" xmlns:inkscape="http://www.inkscape.org/namespaces/inkscape" xmlns:rdf="http://www.w3.org/1999/02/22-rdf-syntax-ns#" xmlns:sodipodi="http://sodipodi.sourceforge.net/DTD/sodipodi-0.dtd" xmlns:xlink="http://www.w3.org/1999/xlink" xmlns="http://www.w3.org/2000/svg" version="1.1" width="57.5999984pt" height="115.199968pt" viewBox="0 0 20.3199994356 40.6399887111" id="svg8" inkscape:version="1.2-dev (28587f2, 2021-04-23)" sodipodi:docname="heart-006.svg"><sodipodi:namedview id="base" pagecolor="#ffffff" bordercolor="#666666" borderopacity="1.0" inkscape:pageopacity="0.0" inkscape:pageshadow="2" inkscape:zoom="0.82096346" inkscape:cx="954.09044" inkscape:cy="371.99993" inkscape:document-units="pt" inkscape:current-layer="layer3" showgrid="true" units="pt" inkscape:snap-others="false" inkscape:snap-grids="true" inkscape:window-width="2880" inkscape:window-height="1526" inkscape:window-x="2869" inkscape:window-y="-11" inkscape:window-maximized="1" inkscape:snap-midpoints="false" inkscape:object-nodes="true" inkscape:snap-text-baseline="true" inkscape:snap-smooth-nodes="false" inkscape:snap-bbox="false" inkscape:snap-bbox-edge-midpoints="false" inkscape:snap-nodes="true" inkscape:bbox-nodes="true" objecttolerance="10.0" gridtolerance="10.0" guidetolerance="10.0" inkscape:pagecheckerboard="0">
    <inkscape:grid type="xygrid" id="grid10" units="pt" spacingx="0.79375002" spacingy="0.79375002"/>
  </sodipodi:namedview>
  <metadata id="metadata5">
    <rdf:RDF>
      <cc:Work rdf:about="">
        <dc:format>image/svg+xml</dc:format>
        <dc:type rdf:resource="http://purl.org/dc/dcmitype/StillImage"/>
        <dc:title/>
      </cc:Work>
    </rdf:RDF>
  </metadata>
  <g inkscape:groupmode="layer" inkscape:label="heart-" transform="matrix(1.000000,0.000000,0.000000,1.000000,-165.946664,-206.586593)"><g id="g4699" inkscape:label="006">
      <path id="rect8207" style="display:inline;opacity:1;fill:#ffffff;stroke-width:0.176389;stroke-miterlimit:47.1461;paint-order:markers fill stroke" d="m 155.575,274.77493 h 19.05 v 38.09999 h -19.05 z" transform="translate(0,-81.099993)"/>
      <path style="display:inline;opacity:1;fill:#fb4810;fill-opacity:1;stroke:none;stroke-width:0.0705555;stroke-linecap:butt;stroke-linejoin:miter;stroke-miterlimit:4;stroke-dasharray:none;stroke-dashoffset:0;paint-order:normal" d="m 165.09999,228.6 -5.63427,-9.75853 0.002,-7.2e-4 a 3.0192966,3.0192966 0 0 1 -0.40725,-1.50891 3.0192966,3.0192966 0 0 1 3.01927,-3.01929 3.0192966,3.0192966 0 0 1 3.0193,3.01929 3.0192966,3.0192966 0 0 1 3.0193,-3.01929 3.0192966,3.0192966 0 0 1 3.0193,3.01929 3.0192966,3.0192966 0 0 1 -0.40727,1.50891 l 0.002,7.2e-4 z" id="path8457" inkscape:connector-curvature="0" inkscape:export-filename="C:\mine\Vira\Vira table excerpts\heart-icon.png" inkscape:export-xdpi="96" inkscape:export-ydpi="96"/>
      <g aria-label="9" id="text8245" style="font-size:21.1667px;line-height:125%;font-family:'Stint Ultra Condensed';-inkscape-font-specification:'Stint Ultra Condensed, ';text-align:center;letter-spacing:0px;word-spacing:0px;text-anchor:middle;fill:#fb4810;stroke-width:0.264583">
        <path d="m 166.57277,204.32655 q -0.0724,0.18603 -0.21704,0.47542 -0.13436,0.28939 -0.37207,0.55811 -0.22738,0.26872 -0.55811,0.46509 -0.33073,0.18603 -0.78548,0.18603 -0.50643,0 -0.95085,-0.27905 -0.44442,-0.28939 -0.77515,-0.86817 -0.32039,-0.57877 -0.51676,-1.44694 -0.18604,-0.8785 -0.18604,-2.05672 0,-0.97152 0.1757,-1.81902 0.1757,-0.85783 0.51677,-1.48828 0.34106,-0.64079 0.83716,-1.00253 0.49609,-0.37207 1.13688,-0.37207 0.63046,0 1.16789,0.43409 0.54777,0.42374 0.95085,1.29191 0.40308,0.85783 0.63045,2.16008 0.23771,1.30225 0.23771,3.05925 0,1.79834 -0.1757,3.24528 -0.1757,1.43661 -0.54777,2.44947 -0.36173,1.01286 -0.93017,1.56063 -0.55811,0.53744 -1.33326,0.53744 -0.49609,0 -0.94051,-0.27906 -0.44442,-0.26872 -0.78548,-0.80615 -0.33073,-0.53744 -0.5271,-1.33326 -0.18604,-0.80615 -0.18604,-1.86035 h 1.27124 q 0,1.53996 0.29973,2.34611 0.31006,0.80616 0.93017,0.80616 0.43409,0 0.74415,-0.47543 0.31005,-0.48576 0.50643,-1.30224 0.19637,-0.81649 0.28938,-1.89137 0.093,-1.0852 0.093,-2.29443 z m -1.67432,0.56844 q 0.3204,0 0.57878,-0.29972 0.25838,-0.29973 0.45475,-0.73381 0.20671,-0.43408 0.34107,-0.93018 0.13436,-0.49609 0.19637,-0.89917 0.0207,-0.76481 -0.093,-1.51929 -0.10335,-0.76481 -0.32039,-1.36426 -0.20671,-0.59945 -0.51677,-0.97152 -0.29972,-0.37207 -0.66146,-0.37207 -0.33073,0 -0.58911,0.25838 -0.25838,0.24805 -0.43408,0.71314 -0.1757,0.46509 -0.26872,1.12655 -0.0827,0.65112 -0.0827,1.45728 0,0.82682 0.0827,1.48828 0.0827,0.65112 0.24805,1.10588 0.1757,0.45475 0.43408,0.7028 0.26872,0.23771 0.63045,0.23771 z" id="path942"/>
      </g>
    </g>
    </g></svg>
