<?xml version='1.0' encoding='UTF-8'?>
<!-- Created with Inkscape (http://www.inkscape.org/) and export_objects.py -->
<svg xmlns:cc="http://creativecommons.org/ns#" xmlns:dc="http://purl.org/dc/elements/1.1/" xmlns:inkscape="http://www.inkscape.org/namespaces/inkscape" xmlns:rdf="http://www.w3.org/1999/02/22-rdf-syntax-ns#" xmlns:sodipodi="http://sodipodi.sourceforge.net/DTD/sodipodi-0.dtd" xmlns:xlink="http://www.w3.org/1999/xlink" xmlns="http://www.w3.org/2000/svg" version="1.1" width="57.5999984pt" height="115.199968pt" viewBox="0 0 20.3199994356 40.6399887111" id="svg8" inkscape:version="1.2-dev (28587f2, 2021-04-23)" sodipodi:docname="spade-013.svg"><sodipodi:namedview id="base" pagecolor="#ffffff" bordercolor="#666666" borderopacity="1.0" inkscape:pageopacity="0.0" inkscape:pageshadow="2" inkscape:zoom="0.82096346" inkscape:cx="948.00004" inkscape:cy="371.99993" inkscape:document-units="pt" inkscape:current-layer="layer3" showgrid="true" units="pt" inkscape:snap-others="false" inkscape:snap-grids="true" inkscape:window-width="2880" inkscape:window-height="1526" inkscape:window-x="2869" inkscape:window-y="-11" inkscape:window-maximized="1" inkscape:snap-midpoints="false" inkscape:object-nodes="true" inkscape:snap-text-baseline="true" inkscape:snap-smooth-nodes="false" inkscape:snap-bbox="false" inkscape:snap-bbox-edge-midpoints="false" inkscape:snap-nodes="true" inkscape:bbox-nodes="true" objecttolerance="10.0" gridtolerance="10.0" guidetolerance="10.0" inkscape:pagecheckerboard="0">
    <inkscape:grid type="xygrid" id="grid10" units="pt" spacingx="0.79375002" spacingy="0.79375002"/>
  </sodipodi:namedview>
  <metadata id="metadata5">
    <rdf:RDF>
      <cc:Work rdf:about="">
        <dc:format>image/svg+xml</dc:format>
        <dc:type rdf:resource="http://purl.org/dc/dcmitype/StillImage"/>
        <dc:title/>
      </cc:Work>
    </rdf:RDF>
  </metadata>
  <g inkscape:groupmode="layer" inkscape:label="spade-" transform="matrix(1.000000,0.000000,0.000000,1.000000,-355.600000,-159.173336)"><g id="g3789" inkscape:label="013">
      <path id="rect15415" style="display:inline;opacity:1;fill:#ffffff;stroke-width:0.176389;stroke-miterlimit:47.1461;paint-order:markers fill stroke" d="m 333.375,230.325 h 19.05 v 38.09999 h -19.05 z" transform="translate(0,-81.099993)"/>
      <path inkscape:export-ydpi="96" inkscape:export-xdpi="96" inkscape:export-filename="C:\mine\Vira\Vira table excerpts\Tourne.png" id="path15425" d="m 342.89998,169.86249 -5.32518,6.29979 h 5.1e-4 a 3.01929,3.01929 0 0 0 -0.71379,1.94908 3.01929,3.01929 0 0 0 3.01929,3.01929 3.01929,3.01929 0 0 0 2.61855,-1.52363 l -1.21738,4.54293 h 3.23613 l -1.2159,-4.53804 a 3.01929,3.01929 0 0 0 2.6172,1.51874 3.01929,3.01929 0 0 0 3.01926,-3.01929 3.01929,3.01929 0 0 0 -0.71377,-1.94908 h 3.9e-4 z" style="opacity:1;fill:#000000;fill-opacity:1;stroke:none;stroke-width:0.0705556;stroke-linecap:butt;stroke-linejoin:miter;stroke-miterlimit:4;stroke-dasharray:none;stroke-dashoffset:0;paint-order:normal" inkscape:connector-curvature="0"/>
      <g aria-label="2" id="text15433" style="font-size:21.1667px;line-height:125%;font-family:'Stint Ultra Condensed';-inkscape-font-specification:'Stint Ultra Condensed, ';text-align:center;letter-spacing:0px;word-spacing:0px;text-anchor:middle;stroke-width:0.264583">
        <path d="m 339.99574,166.68752 v -0.86817 q 0.93018,-1.31258 1.66399,-2.51148 0.74414,-1.20923 1.2609,-2.38745 0.51677,-1.17823 0.78549,-2.38746 0.27905,-1.20923 0.27905,-2.53215 0,-0.51676 -0.0723,-0.99219 -0.062,-0.47542 -0.2067,-0.83716 -0.1447,-0.37207 -0.39274,-0.58911 -0.24805,-0.22738 -0.59945,-0.22738 -0.65113,0 -0.98186,0.90951 -0.33073,0.90951 -0.33073,2.87322 h -1.31258 q 0,-1.34359 0.21704,-2.27377 0.21704,-0.94051 0.56844,-1.51929 0.36174,-0.58911 0.82683,-0.8475 0.47542,-0.26871 0.97152,-0.26871 0.64079,0 1.12654,0.28938 0.48576,0.28939 0.81649,0.80616 0.33073,0.51676 0.4961,1.2299 0.1757,0.71314 0.1757,1.5503 0,1.98437 -0.91984,4.34082 -0.90951,2.34612 -2.7802,5.05397 h 2.74919 v -2.83188 h 1.12655 v 4.02044 z" id="path922"/>
      </g>
    </g>
    </g></svg>
