<?xml version='1.0' encoding='UTF-8'?>
<!-- Created with Inkscape (http://www.inkscape.org/) and export_objects.py -->
<svg xmlns:cc="http://creativecommons.org/ns#" xmlns:dc="http://purl.org/dc/elements/1.1/" xmlns:inkscape="http://www.inkscape.org/namespaces/inkscape" xmlns:rdf="http://www.w3.org/1999/02/22-rdf-syntax-ns#" xmlns:sodipodi="http://sodipodi.sourceforge.net/DTD/sodipodi-0.dtd" xmlns:xlink="http://www.w3.org/1999/xlink" xmlns="http://www.w3.org/2000/svg" version="1.1" width="57.6000016pt" height="115.199968pt" viewBox="0 0 20.3200005644 40.6399887111" id="svg8" inkscape:version="1.2-dev (28587f2, 2021-04-23)" sodipodi:docname="spade-002.svg"><sodipodi:namedview id="base" pagecolor="#ffffff" bordercolor="#666666" borderopacity="1.0" inkscape:pageopacity="0.0" inkscape:pageshadow="2" inkscape:zoom="0.82096346" inkscape:cx="948.00004" inkscape:cy="371.99993" inkscape:document-units="pt" inkscape:current-layer="layer3" showgrid="true" units="pt" inkscape:snap-others="false" inkscape:snap-grids="true" inkscape:window-width="2880" inkscape:window-height="1526" inkscape:window-x="2869" inkscape:window-y="-11" inkscape:window-maximized="1" inkscape:snap-midpoints="false" inkscape:object-nodes="true" inkscape:snap-text-baseline="true" inkscape:snap-smooth-nodes="false" inkscape:snap-bbox="false" inkscape:snap-bbox-edge-midpoints="false" inkscape:snap-nodes="true" inkscape:bbox-nodes="true" objecttolerance="10.0" gridtolerance="10.0" guidetolerance="10.0" inkscape:pagecheckerboard="0">
    <inkscape:grid type="xygrid" id="grid10" units="pt" spacingx="0.79375002" spacingy="0.79375002"/>
  </sodipodi:namedview>
  <metadata id="metadata5">
    <rdf:RDF>
      <cc:Work rdf:about="">
        <dc:format>image/svg+xml</dc:format>
        <dc:type rdf:resource="http://purl.org/dc/dcmitype/StillImage"/>
        <dc:title/>
      </cc:Work>
    </rdf:RDF>
  </metadata>
  <g inkscape:groupmode="layer" inkscape:label="spade-" transform="matrix(1.000000,0.000000,0.000000,1.000000,-60.960000,-159.173336)"><g id="g1944" inkscape:label="002">
      <path id="rect15063" style="display:inline;opacity:1;fill:#ffffff;stroke-width:0.176389;stroke-miterlimit:47.1461;paint-order:markers fill stroke" d="m 57.150002,230.325 h 19.050001 v 38.09999 H 57.150002 Z" transform="translate(0,-81.099993)"/>
      <path inkscape:export-ydpi="96" inkscape:export-xdpi="96" inkscape:export-filename="C:\mine\Vira\Vira table excerpts\Tourne.png" id="path15073" d="m 67.18734,169.88759 -5.325186,6.29981 h 5.06e-4 a 3.0192995,3.0192995 0 0 0 -0.713787,1.94908 3.0192995,3.0192995 0 0 0 3.019305,3.01931 3.0192995,3.0192995 0 0 0 2.61855,-1.52364 l -1.21739,4.54294 h 3.236146 l -1.2159,-4.53805 a 3.0192995,3.0192995 0 0 0 2.617201,1.51875 3.0192995,3.0192995 0 0 0 3.019273,-3.01931 3.0192995,3.0192995 0 0 0 -0.713782,-1.94908 h 3.93e-4 z" style="opacity:1;fill:#000000;fill-opacity:1;stroke:none;stroke-width:0.0705556;stroke-linecap:butt;stroke-linejoin:miter;stroke-miterlimit:4;stroke-dasharray:none;stroke-dashoffset:0;paint-order:normal" inkscape:connector-curvature="0"/>
      <g aria-label="K" id="text15081" style="font-size:21.1667px;line-height:125%;font-family:'Stint Ultra Condensed';-inkscape-font-specification:'Stint Ultra Condensed, ';text-align:center;letter-spacing:0px;word-spacing:0px;text-anchor:middle;stroke-width:0.264583">
        <path d="m 62.892282,152.48681 h 3.824062 v 1.15755 h -1.271242 v 4.84726 l 2.625167,-4.84726 h -0.775148 v -1.15755 h 3.152268 v 1.15755 h -1.064537 l -2.666508,4.94028 2.924891,6.93499 h 1.167889 v 1.16789 h -3.369309 v -1.16789 h 0.868166 l -2.39779,-5.83945 -0.465089,0.84749 v 4.99196 h 1.271242 v 1.16789 h -3.824062 v -1.16789 h 1.260907 v -11.87527 h -1.260907 z" id="path887"/>
      </g>
    </g>
    </g></svg>
