<?xml version='1.0' encoding='UTF-8'?>
<!-- Created with Inkscape (http://www.inkscape.org/) and export_objects.py -->
<svg xmlns:cc="http://creativecommons.org/ns#" xmlns:dc="http://purl.org/dc/elements/1.1/" xmlns:inkscape="http://www.inkscape.org/namespaces/inkscape" xmlns:rdf="http://www.w3.org/1999/02/22-rdf-syntax-ns#" xmlns:sodipodi="http://sodipodi.sourceforge.net/DTD/sodipodi-0.dtd" xmlns:xlink="http://www.w3.org/1999/xlink" xmlns="http://www.w3.org/2000/svg" version="1.1" width="57.5999984pt" height="115.199968pt" viewBox="0 0 20.3199994356 40.6399887111" id="svg8" inkscape:version="1.2-dev (28587f2, 2021-04-23)" sodipodi:docname="spade-005.svg"><sodipodi:namedview id="base" pagecolor="#ffffff" bordercolor="#666666" borderopacity="1.0" inkscape:pageopacity="0.0" inkscape:pageshadow="2" inkscape:zoom="0.82096346" inkscape:cx="948.00004" inkscape:cy="371.99993" inkscape:document-units="pt" inkscape:current-layer="layer3" showgrid="true" units="pt" inkscape:snap-others="false" inkscape:snap-grids="true" inkscape:window-width="2880" inkscape:window-height="1526" inkscape:window-x="2869" inkscape:window-y="-11" inkscape:window-maximized="1" inkscape:snap-midpoints="false" inkscape:object-nodes="true" inkscape:snap-text-baseline="true" inkscape:snap-smooth-nodes="false" inkscape:snap-bbox="false" inkscape:snap-bbox-edge-midpoints="false" inkscape:snap-nodes="true" inkscape:bbox-nodes="true" objecttolerance="10.0" gridtolerance="10.0" guidetolerance="10.0" inkscape:pagecheckerboard="0">
    <inkscape:grid type="xygrid" id="grid10" units="pt" spacingx="0.79375002" spacingy="0.79375002"/>
  </sodipodi:namedview>
  <metadata id="metadata5">
    <rdf:RDF>
      <cc:Work rdf:about="">
        <dc:format>image/svg+xml</dc:format>
        <dc:type rdf:resource="http://purl.org/dc/dcmitype/StillImage"/>
        <dc:title/>
      </cc:Work>
    </rdf:RDF>
  </metadata>
  <g inkscape:groupmode="layer" inkscape:label="spade-" transform="matrix(1.000000,0.000000,0.000000,1.000000,-142.240008,-159.173336)"><g id="g1969" inkscape:label="005">
      <path id="rect15159" style="display:inline;opacity:1;fill:#ffffff;stroke-width:0.176389;stroke-miterlimit:47.1461;paint-order:markers fill stroke" d="m 133.35001,230.325 h 19.05 v 38.09999 h -19.05 z" transform="translate(0,-81.099993)"/>
      <path inkscape:export-ydpi="96" inkscape:export-xdpi="96" inkscape:export-filename="C:\mine\Vira\Vira table excerpts\Tourne.png" id="path15193" d="m 142.875,169.86249 -5.32517,6.29979 h 5.1e-4 a 3.01929,3.01929 0 0 0 -0.71379,1.94908 3.01929,3.01929 0 0 0 3.0193,3.01929 3.01929,3.01929 0 0 0 2.61854,-1.52363 l -1.21738,4.54293 h 3.23614 l -1.2159,-4.53804 a 3.01929,3.01929 0 0 0 2.61719,1.51874 3.01929,3.01929 0 0 0 3.01927,-3.01929 3.01929,3.01929 0 0 0 -0.71379,-1.94908 h 3.9e-4 z" style="opacity:1;fill:#000000;fill-opacity:1;stroke:none;stroke-width:0.0705556;stroke-linecap:butt;stroke-linejoin:miter;stroke-miterlimit:4;stroke-dasharray:none;stroke-dashoffset:0;paint-order:normal" inkscape:connector-curvature="0"/>
      <g aria-label="10" id="text15201" style="font-size:21.1667px;line-height:125%;font-family:'Stint Ultra Condensed';-inkscape-font-specification:'Stint Ultra Condensed, ';text-align:center;letter-spacing:0px;word-spacing:0px;text-anchor:middle;stroke-width:0.264583">
        <path d="m 137.42313,165.51963 h 1.37459 v -11.89594 l -1.69499,1.06454 v -1.14722 l 1.69499,-1.0542 h 1.27125 v 13.03282 h 1.37459 v 1.16789 h -4.02043 z" id="path896"/>
        <path d="m 148.3062,159.5975 q 0,1.94303 -0.22738,3.3383 -0.22737,1.39527 -0.63045,2.29444 -0.40308,0.88883 -0.96118,1.31258 -0.54777,0.42375 -1.18856,0.42375 -0.65113,0 -1.20923,-0.42375 -0.54777,-0.42375 -0.96119,-1.31258 -0.40307,-0.89917 -0.63045,-2.29444 -0.22738,-1.39527 -0.22738,-3.3383 0,-1.9327 0.22738,-3.32797 0.22738,-1.39527 0.63045,-2.29444 0.41342,-0.89917 0.96119,-1.32292 0.5581,-0.42374 1.20923,-0.42374 0.64079,0 1.18856,0.42374 0.5581,0.42375 0.96118,1.32292 0.40308,0.89917 0.63045,2.29444 0.22738,1.39527 0.22738,3.32797 z m -1.31258,0 q 0,-1.66399 -0.13436,-2.84221 -0.12402,-1.18856 -0.3514,-1.94304 -0.22738,-0.75447 -0.53744,-1.10588 -0.31006,-0.3514 -0.67179,-0.3514 -0.36174,0 -0.68213,0.3514 -0.31006,0.35141 -0.54777,1.10588 -0.22738,0.75448 -0.36174,1.94304 -0.12402,1.17822 -0.12402,2.84221 0,1.66398 0.12402,2.85254 0.13436,1.17823 0.36174,1.9327 0.23771,0.75448 0.54777,1.10588 0.32039,0.3514 0.68213,0.3514 0.36173,0 0.67179,-0.3514 0.31006,-0.3514 0.53744,-1.10588 0.22738,-0.76481 0.3514,-1.94303 0.13436,-1.17823 0.13436,-2.84221 z" id="path898"/>
      </g>
    </g>
    </g></svg>
