<?xml version="1.0" encoding="UTF-8" standalone="no"?>
<!-- Created with Inkscape (http://www.inkscape.org/) -->

<svg
   width="3.1496074in"
   height="1.7047733in"
   viewBox="0 0 80.000028 43.301242"
   version="1.1"
   id="svg1"
   xmlns="http://www.w3.org/2000/svg"
   xmlns:svg="http://www.w3.org/2000/svg">
  <defs
     id="defs1" />
  <g
     id="layer17"
     style="fill:#ffffff"
     transform="translate(1429.9718,-108.69576)">
    <rect
       style="fill:#ffffff;stroke:none;stroke-width:0.176389"
       id="rect639"
       width="79.999992"
       height="43.301239"
       x="-1429.9717"
       y="108.69576" />
  </g>
  <g
     id="layer2"
     transform="translate(1460.0001,17.320499)">
    <path
       style="display:inline;fill:#999999;stroke:none;stroke-width:0.244412"
       id="path640"
       d="M 33,41 46.856406,65 19.143593,65 Z"
       transform="matrix(-0.36084391,0.62499999,-0.62499999,-0.36084391,-1372.4673,7.1599781)" />
  </g>
  <g
     id="layer15"
     transform="translate(1460.0001,17.320499)">
    <path
       style="display:inline;fill:none;fill-opacity:1;stroke:none;stroke-width:0.13338;stroke-linecap:butt"
       id="path645"
       d="m 183.98633,125.75586 6.24804,10.82422 h -12.49609 z"
       transform="matrix(1.3195349,0,0,1.3195349,-1662.7764,-168.24433)" />
  </g>
  <g
     id="layer10"
     transform="translate(1460.0001,17.320499)">
    <path
       style="display:inline;fill:#cccccc;stroke:none;stroke-width:0.244412"
       id="path648"
       d="M 33,41 46.856406,65 19.143593,65 Z"
       transform="matrix(-0.36084394,-0.62500002,-0.62500002,0.36084394,-1362.4672,1.5002482)" />
    <path
       style="display:inline;fill:#cccccc;stroke:none;stroke-width:0.244412"
       id="path649"
       d="M 33,41 46.856406,65 19.143593,65 Z"
       transform="matrix(-0.36084394,-0.62500002,-0.62500002,0.36084394,-1382.4672,1.5002482)" />
  </g>
  <g
     id="layer16"
     style="display:inline"
     transform="translate(1460.0001,17.320499)">
    <path
       style="display:inline;fill:none;fill-opacity:1;stroke:none;stroke-width:0.13338;stroke-linecap:butt"
       id="path652"
       d="m 183.98633,125.75586 6.24804,10.82422 h -12.49609 z"
       transform="matrix(-1.3195349,0,0,-1.3195349,-1167.2237,176.90457)" />
    <path
       style="display:inline;fill:none;fill-opacity:1;stroke:none;stroke-width:0.13338;stroke-linecap:butt"
       id="path653"
       d="m 183.98633,125.75586 6.24804,10.82422 h -12.49609 z"
       transform="matrix(-1.3195349,0,0,-1.3195349,-1187.2237,176.90456)" />
  </g>
</svg>
