<?xml version="1.0" encoding="UTF-8" standalone="no"?>
<!-- Created with Inkscape (http://www.inkscape.org/) -->

<svg
   width="3.1496022in"
   height="1.7047733in"
   viewBox="0 0 79.999895 43.301242"
   version="1.1"
   id="svg1"
   xmlns="http://www.w3.org/2000/svg"
   xmlns:svg="http://www.w3.org/2000/svg">
  <defs
     id="defs1" />
  <g
     id="layer17"
     style="fill:#ffffff"
     transform="translate(1329.9716,-160.65726)">
    <rect
       style="fill:#ffffff;stroke:none;stroke-width:0.176389"
       id="rect277"
       width="79.999992"
       height="43.301239"
       x="-1329.9717"
       y="160.65726" />
  </g>
  <g
     id="layer2"
     transform="translate(1359.9999,-34.640998)">
    <path
       style="display:inline;fill:#999999;stroke:none;stroke-width:0.244412"
       id="path280"
       d="M 33,41 46.856406,65 19.143593,65 Z"
       transform="matrix(-0.36084391,0.62499999,-0.62499999,-0.36084391,-1277.4671,59.121505)" />
    <path
       style="display:inline;fill:#999999;stroke:none;stroke-width:0.244412"
       id="path281"
       d="M 33,41 46.856406,65 19.143593,65 Z"
       transform="matrix(-0.36084391,0.62499999,-0.62499999,-0.36084391,-1257.467,59.121485)" />
  </g>
  <g
     id="layer15"
     transform="translate(1359.9999,-34.640998)">
    <path
       style="display:inline;fill:none;fill-opacity:1;stroke:none;stroke-width:0.13338;stroke-linecap:butt"
       id="path285"
       d="m 183.98633,125.75586 6.24804,10.82422 h -12.49609 z"
       transform="matrix(1.3195349,0,0,1.3195349,-1567.7762,-116.2828)" />
    <path
       style="display:inline;fill:none;fill-opacity:1;stroke:none;stroke-width:0.13338;stroke-linecap:butt"
       id="path286"
       d="m 183.98633,125.75586 6.24804,10.82422 h -12.49609 z"
       transform="matrix(1.3195349,0,0,1.3195349,-1547.7762,-116.28277)" />
  </g>
  <g
     id="layer10"
     transform="translate(1359.9999,-34.640998)">
    <path
       style="display:inline;fill:#cccccc;stroke:none;stroke-width:0.244412"
       id="path289"
       d="M 33,41 46.856406,65 19.143593,65 Z"
       transform="matrix(-0.36084394,-0.62500002,-0.62500002,0.36084394,-1267.467,53.461775)" />
    <path
       style="display:inline;fill:#cccccc;stroke:none;stroke-width:0.244412"
       id="path290"
       d="M 33,41 46.856406,65 19.143593,65 Z"
       transform="matrix(-0.36084394,-0.62500002,-0.62500002,0.36084394,-1287.467,53.461775)" />
  </g>
  <g
     id="layer16"
     style="display:inline"
     transform="translate(1359.9999,-34.640998)">
    <path
       style="display:inline;fill:none;fill-opacity:1;stroke:none;stroke-width:0.13338;stroke-linecap:butt"
       id="path294"
       d="m 183.98633,125.75586 6.24804,10.82422 h -12.49609 z"
       transform="matrix(-1.3195349,0,0,-1.3195349,-1072.2236,228.8661)" />
    <path
       style="display:inline;fill:none;fill-opacity:1;stroke:none;stroke-width:0.13338;stroke-linecap:butt"
       id="path295"
       transform="matrix(-1.3195349,0,0,-1.3195349,-1092.2236,228.86609)"
       d="m 183.98633,125.75586 6.24804,10.82422 h -12.49609 z" />
  </g>
</svg>
