<?xml version="1.0" encoding="UTF-8" standalone="no"?>
<!-- Created with Inkscape (http://www.inkscape.org/) -->

<svg
   width="3.1496022in"
   height="1.7047733in"
   viewBox="0 0 79.999895 43.301242"
   version="1.1"
   id="svg1"
   xmlns="http://www.w3.org/2000/svg"
   xmlns:svg="http://www.w3.org/2000/svg">
  <defs
     id="defs1" />
  <g
     id="layer17"
     style="fill:#ffffff"
     transform="translate(1329.9716,-212.61879)">
    <rect
       style="fill:#ffffff;stroke:none;stroke-width:0.176389"
       id="rect405"
       width="79.999992"
       height="43.301239"
       x="-1329.9717"
       y="212.61879" />
  </g>
  <g
     id="layer2"
     transform="translate(1359.9999,-86.602529)">
    <path
       style="display:inline;fill:#999999;stroke:none;stroke-width:0.244412"
       id="path406"
       d="M 33,41 46.856406,65 19.143593,65 Z"
       transform="matrix(0.36084391,0.62499999,0.62499999,-0.36084391,-1357.348,118.61635)" />
    <path
       style="display:inline;fill:#999999;stroke:none;stroke-width:0.244412"
       id="path407"
       d="M 33,41 46.856406,65 19.143593,65 Z"
       transform="matrix(-0.36084391,0.62499999,-0.62499999,-0.36084391,-1282.2823,118.61635)" />
    <path
       style="display:inline;fill:#999999;stroke:none;stroke-width:0.244412"
       id="path408"
       d="M 33,41 46.856406,65 19.143593,65 Z"
       transform="matrix(0.36084391,0.62499999,0.62499999,-0.36084391,-1367.348,101.29584)" />
  </g>
  <g
     id="layer15"
     transform="translate(1359.9999,-86.602529)">
    <path
       style="display:inline;fill:none;fill-opacity:1;stroke:none;stroke-width:0.13338;stroke-linecap:butt"
       id="path411"
       d="m 183.98633,125.75586 6.24804,10.82422 h -12.49609 z"
       transform="matrix(1.3195349,0,0,1.3195349,-1572.5914,-56.787935)" />
    <path
       style="display:inline;fill:none;fill-opacity:1;stroke:none;stroke-width:0.13338;stroke-linecap:butt"
       id="path412"
       d="m 183.98633,125.75586 6.24804,10.82422 h -12.49609 z"
       transform="matrix(-1.3195349,0,0,1.3195349,-1067.0388,-56.787955)" />
    <path
       style="display:inline;fill:none;fill-opacity:1;stroke:none;stroke-width:0.13338;stroke-linecap:butt"
       id="path413"
       d="m 183.98633,125.75586 6.24804,10.82422 h -12.49609 z"
       transform="matrix(-1.3195349,0,0,1.3195349,-1077.0388,-74.108455)" />
  </g>
  <g
     id="layer10"
     transform="translate(1359.9999,-86.602529)">
    <path
       style="display:inline;fill:#cccccc;stroke:none;stroke-width:0.244412"
       id="path417"
       d="M 33,41 46.856406,65 19.143593,65 Z"
       transform="matrix(-0.36084394,-0.62500002,-0.62500002,0.36084394,-1272.2823,112.95664)" />
  </g>
  <g
     id="layer16"
     style="display:inline"
     transform="translate(1359.9999,-86.602529)">
    <path
       style="display:inline;fill:none;fill-opacity:1;stroke:none;stroke-width:0.13338;stroke-linecap:butt"
       id="path422"
       d="m 183.98633,125.75586 6.24804,10.82422 h -12.49609 z"
       transform="matrix(-1.3195349,0,0,-1.3195349,-1077.0388,288.36092)" />
  </g>
</svg>
