<?xml version="1.0" encoding="UTF-8" standalone="no"?>
<!-- Created with Inkscape (http://www.inkscape.org/) -->

<svg
   width="3.1496022in"
   height="1.7047735in"
   viewBox="0 0 79.999895 43.301248"
   version="1.1"
   id="svg1"
   xmlns="http://www.w3.org/2000/svg"
   xmlns:svg="http://www.w3.org/2000/svg">
  <defs
     id="defs1" />
  <g
     id="layer17"
     style="fill:#ffffff"
     transform="translate(1329.9716,-264.58031)">
    <rect
       style="fill:#ffffff;stroke:none;stroke-width:0.176389"
       id="rect406"
       width="79.999992"
       height="43.301239"
       x="-1329.9717"
       y="264.58032" />
  </g>
  <g
     id="layer2"
     transform="translate(1359.9999,-138.56405)">
    <path
       style="display:inline;fill:#999999;stroke:none;stroke-width:0.244412"
       id="path410"
       d="M 33,41 46.856406,65 19.143593,65 Z"
       transform="matrix(-0.36084391,0.62499999,-0.62499999,-0.36084391,-1272.4672,154.38429)" />
  </g>
  <g
     id="layer15"
     transform="translate(1359.9999,-138.56405)">
    <path
       style="display:inline;fill:none;fill-opacity:1;stroke:none;stroke-width:0.13338;stroke-linecap:butt"
       id="path415"
       d="m 183.98633,125.75586 6.24804,10.82422 h -12.49609 z"
       transform="matrix(1.3195349,0,0,1.3195349,-1562.7763,-21.020004)" />
  </g>
  <g
     id="layer10"
     transform="translate(1359.9999,-138.56405)">
    <path
       style="display:inline;fill:#cccccc;stroke:none;stroke-width:0.244412"
       id="path418"
       d="M 33,41 46.856406,65 19.143593,65 Z"
       transform="matrix(-0.36084394,-0.62500002,-0.62500002,0.36084394,-1262.4671,148.72456)" />
    <path
       style="display:inline;fill:#cccccc;stroke:none;stroke-width:0.244412"
       id="path419"
       d="M 33,41 46.856406,65 19.143593,65 Z"
       transform="matrix(-0.36084394,-0.62500002,-0.62500002,0.36084394,-1282.4672,148.72456)" />
    <path
       style="display:inline;fill:#cccccc;stroke:none;stroke-width:0.244412"
       id="path420"
       d="M 33,41 46.856406,65 19.143593,65 Z"
       transform="matrix(0.36084394,-0.62500002,0.62500002,0.36084394,-1367.5329,166.04509)" />
  </g>
  <g
     id="layer16"
     style="display:inline"
     transform="translate(1359.9999,-138.56405)">
    <path
       style="display:inline;fill:none;fill-opacity:1;stroke:none;stroke-width:0.13338;stroke-linecap:butt"
       id="path423"
       d="m 183.98633,125.75586 6.24804,10.82422 h -12.49609 z"
       transform="matrix(-1.3195349,0,0,-1.3195349,-1087.2237,324.12883)" />
    <path
       style="display:inline;fill:none;fill-opacity:1;stroke:none;stroke-width:0.13338;stroke-linecap:butt"
       id="path424"
       d="m 183.98633,125.75586 6.24804,10.82422 h -12.49609 z"
       transform="matrix(-1.3195349,0,0,-1.3195349,-1067.2237,324.12884)" />
    <path
       style="display:inline;fill:none;fill-opacity:1;stroke:none;stroke-width:0.13338;stroke-linecap:butt"
       id="path425"
       d="m 183.98633,125.75586 6.24804,10.82422 h -12.49609 z"
       transform="matrix(1.3195349,0,0,-1.3195349,-1562.7763,341.44938)" />
  </g>
</svg>
