<?xml version="1.0" encoding="UTF-8" standalone="no"?>
<!-- Created with Inkscape (http://www.inkscape.org/) -->

<svg
   width="3.1496048in"
   height="1.7047728in"
   viewBox="0 0 79.999962 43.30123"
   version="1.1"
   id="svg1"
   xmlns="http://www.w3.org/2000/svg"
   xmlns:svg="http://www.w3.org/2000/svg">
  <defs
     id="defs1" />
  <g
     id="layer17"
     style="fill:#ffffff"
     transform="translate(1129.9717,-437.78542)">
    <rect
       style="fill:#ffffff;stroke:none;stroke-width:0.176389"
       id="rect1213"
       width="79.999992"
       height="43.301239"
       x="-1129.9717"
       y="437.7854" />
  </g>
  <g
     id="layer2"
     transform="translate(1160,-311.76916)">
    <path
       style="display:inline;fill:#000000;stroke:none;stroke-width:0.244412"
       id="path1273"
       d="M 33,41 46.856406,65 19.143593,65 Z"
       transform="matrix(-0.36084391,0.62499999,-0.62499999,-0.36084391,-1072.4673,336.24963)" />
    <path
       style="display:inline;fill:#000000;stroke:none;stroke-width:0.244412"
       id="path1275"
       d="M 33,41 46.856406,65 19.143593,65 Z"
       transform="matrix(-0.36084391,0.62499999,-0.62499999,-0.36084391,-1052.4672,336.24961)" />
    <path
       style="display:inline;fill:#000000;stroke:none;stroke-width:0.244412"
       id="path1277"
       d="M 33,41 46.856406,65 19.143593,65 Z"
       transform="matrix(-0.36084391,0.62499999,-0.62499999,-0.36084391,-1092.4673,336.24963)" />
  </g>
  <g
     id="layer15"
     transform="translate(1160,-311.76916)">
    <path
       style="display:inline;fill:#ffffff;fill-opacity:1;stroke:none;stroke-width:0.13338;stroke-linecap:butt"
       id="path1478"
       transform="matrix(1.3195349,0,0,1.3195349,-1382.7764,160.84534)"
       d="m 183.98633,125.75586 6.24804,10.82422 h -12.49609 z" />
    <path
       style="display:inline;fill:#ffffff;fill-opacity:1;stroke:none;stroke-width:0.13338;stroke-linecap:butt"
       id="path1479"
       d="m 183.98633,125.75586 6.24804,10.82422 h -12.49609 z"
       transform="matrix(1.3195349,0,0,1.3195349,-1362.7764,160.84532)" />
    <path
       style="display:inline;fill:#ffffff;fill-opacity:1;stroke:none;stroke-width:0.13338;stroke-linecap:butt"
       id="path1480"
       transform="matrix(1.3195349,0,0,1.3195349,-1342.7764,160.84535)"
       d="m 183.98633,125.75586 6.24804,10.82422 h -12.49609 z" />
  </g>
  <g
     id="layer10"
     transform="translate(1160,-311.76916)">
    <path
       style="display:inline;fill:#000000;stroke:none;stroke-width:0.244412"
       id="path1559"
       d="M 33,41 46.856406,65 19.143593,65 Z"
       transform="matrix(-0.36084394,-0.62500002,-0.62500002,0.36084394,-1062.4672,330.5899)" />
    <path
       style="display:inline;fill:#000000;stroke:none;stroke-width:0.244412"
       id="path1560"
       d="M 33,41 46.856406,65 19.143593,65 Z"
       transform="matrix(-0.36084394,-0.62500002,-0.62500002,0.36084394,-1082.4672,330.5899)" />
  </g>
  <g
     id="layer16"
     style="display:inline"
     transform="translate(1160,-311.76916)">
    <path
       style="display:inline;fill:#ffffff;fill-opacity:1;stroke:none;stroke-width:0.13338;stroke-linecap:butt"
       id="path1621"
       d="m 183.98633,125.75586 6.24804,10.82422 h -12.49609 z"
       transform="matrix(-1.3195349,0,0,-1.3195349,-867.2238,505.99423)" />
    <path
       style="display:inline;fill:#ffffff;fill-opacity:1;stroke:none;stroke-width:0.13338;stroke-linecap:butt"
       id="path1622"
       d="m 183.98633,125.75586 6.24804,10.82422 h -12.49609 z"
       transform="matrix(-1.3195349,0,0,-1.3195349,-887.22381,505.99422)" />
  </g>
</svg>
