<?xml version="1.0" encoding="UTF-8" standalone="no"?>
<!-- Created with Inkscape (http://www.inkscape.org/) -->

<svg
   width="3.1496048in"
   height="1.7047733in"
   viewBox="0 0 79.999962 43.301242"
   version="1.1"
   id="svg1"
   xmlns="http://www.w3.org/2000/svg"
   xmlns:svg="http://www.w3.org/2000/svg">
  <defs
     id="defs1" />
  <g
     id="layer17"
     style="fill:#ffffff"
     transform="translate(759.97168,-160.65726)">
    <rect
       style="fill:#ffffff;stroke:none;stroke-width:0.176389"
       id="rect4392"
       width="79.999992"
       height="43.301239"
       x="-759.97168"
       y="160.65726" />
  </g>
  <g
     id="layer2"
     transform="translate(790,-34.640998)">
    <path
       style="display:inline;fill:#999999;stroke:none;stroke-width:0.244412"
       id="path3290"
       d="M 33,41 46.856406,65 19.143593,65 Z"
       transform="matrix(0.36084391,0.62499999,0.62499999,-0.36084391,-782.53286,50.46124)" />
    <path
       style="display:inline;fill:#999999;stroke:none;stroke-width:0.244412"
       id="path3291"
       d="M 33,41 46.856406,65 19.143593,65 Z"
       transform="matrix(-0.36084391,0.62499999,-0.62499999,-0.36084391,-707.46718,50.46126)" />
    <path
       style="display:inline;fill:#999999;stroke:none;stroke-width:0.244412"
       id="path3292"
       d="M 33,41 46.856406,65 19.143593,65 Z"
       transform="matrix(0.36084391,0.62499999,0.62499999,-0.36084391,-812.53288,67.78177)" />
  </g>
  <g
     id="layer15"
     transform="translate(790,-34.640998)">
    <path
       style="display:inline;fill:none;fill-opacity:1;stroke:none;stroke-width:0.13338;stroke-linecap:butt"
       id="path3350"
       d="m 183.98633,125.75586 6.24804,10.82422 h -12.49609 z"
       transform="matrix(-1.3195349,0,0,1.3195349,-492.22374,-124.94307)" />
    <path
       style="display:inline;fill:none;fill-opacity:1;stroke:none;stroke-width:0.13338;stroke-linecap:butt"
       id="path3351"
       d="m 183.98633,125.75586 6.24804,10.82422 h -12.49609 z"
       transform="matrix(1.3195349,0,0,1.3195349,-997.77632,-124.94304)" />
    <path
       style="display:inline;fill:none;fill-opacity:1;stroke:none;stroke-width:0.13338;stroke-linecap:butt"
       id="path3352"
       d="m 183.98633,125.75586 6.24804,10.82422 h -12.49609 z"
       transform="matrix(-1.3195349,0,0,1.3195349,-522.22376,-107.62254)" />
  </g>
  <g
     id="layer10"
     transform="translate(790,-34.640998)">
    <path
       style="display:inline;fill:#cccccc;stroke:none;stroke-width:0.244412"
       id="path3409"
       d="M 33,41 46.856406,65 19.143593,65 Z"
       transform="matrix(-0.36084394,-0.62500002,-0.62500002,0.36084394,-697.46716,44.80153)" />
    <path
       style="display:inline;fill:#cccccc;stroke:none;stroke-width:0.244412"
       id="path3410"
       d="M 33,41 46.856406,65 19.143593,65 Z"
       transform="matrix(-0.36084394,-0.62500002,-0.62500002,0.36084394,-717.46717,44.80153)" />
    <path
       style="display:inline;fill:#cccccc;stroke:none;stroke-width:0.244412"
       id="path3411"
       d="M 33,41 46.856406,65 19.143593,65 Z"
       transform="matrix(0.36084394,-0.62500002,0.62500002,0.36084394,-802.53288,62.12206)" />
  </g>
  <g
     id="layer16"
     style="display:inline"
     transform="translate(790,-34.640998)">
    <path
       style="display:inline;fill:none;fill-opacity:1;stroke:none;stroke-width:0.13338;stroke-linecap:butt"
       id="path3468"
       d="m 183.98633,125.75586 6.24804,10.82422 h -12.49609 z"
       transform="matrix(-1.3195349,0,0,-1.3195349,-522.22372,220.20581)" />
    <path
       style="display:inline;fill:none;fill-opacity:1;stroke:none;stroke-width:0.13338;stroke-linecap:butt"
       id="path3469"
       d="m 183.98633,125.75586 6.24804,10.82422 h -12.49609 z"
       transform="matrix(-1.3195349,0,0,-1.3195349,-502.22372,220.20582)" />
    <path
       style="display:inline;fill:none;fill-opacity:1;stroke:none;stroke-width:0.13338;stroke-linecap:butt"
       id="path3470"
       d="m 183.98633,125.75586 6.24804,10.82422 h -12.49609 z"
       transform="matrix(1.3195349,0,0,-1.3195349,-997.77632,237.52636)" />
  </g>
</svg>
