<?xml version="1.0" encoding="UTF-8" standalone="no"?>
<!-- Created with Inkscape (http://www.inkscape.org/) -->

<svg
   width="3.1496048in"
   height="1.7047733in"
   viewBox="0 0 79.999962 43.301242"
   version="1.1"
   id="svg1"
   xmlns="http://www.w3.org/2000/svg"
   xmlns:svg="http://www.w3.org/2000/svg">
  <defs
     id="defs1" />
  <g
     id="layer17"
     style="fill:#ffffff"
     transform="translate(759.97168,-212.61878)">
    <rect
       style="fill:#ffffff;stroke:none;stroke-width:0.176389"
       id="rect4394"
       width="79.999992"
       height="43.301239"
       x="-759.97168"
       y="212.61877" />
  </g>
  <g
     id="layer2"
     transform="translate(790,-86.602514)">
    <path
       style="display:inline;fill:#999999;stroke:none;stroke-width:0.244412"
       id="path3296"
       d="M 33,41 46.856406,65 19.143593,65 Z"
       transform="matrix(0.36084391,0.62499999,0.62499999,-0.36084391,-812.53288,102.42276)" />
    <path
       style="display:inline;fill:#999999;stroke:none;stroke-width:0.244412"
       id="path3297"
       d="M 33,41 46.856406,65 19.143593,65 Z"
       transform="matrix(-0.36084391,0.62499999,-0.62499999,-0.36084391,-697.46718,102.42278)" />
    <path
       style="display:inline;fill:#999999;stroke:none;stroke-width:0.244412"
       id="path3298"
       d="M 33,41 46.856406,65 19.143593,65 Z"
       transform="matrix(0.36084391,0.62499999,0.62499999,-0.36084391,-802.53288,119.74329)" />
  </g>
  <g
     id="layer15"
     transform="translate(790,-86.602514)">
    <path
       style="display:inline;fill:none;fill-opacity:1;stroke:none;stroke-width:0.13338;stroke-linecap:butt"
       id="path3356"
       d="m 183.98633,125.75586 6.24804,10.82422 h -12.49609 z"
       transform="matrix(-1.3195349,0,0,1.3195349,-522.22376,-72.981548)" />
    <path
       style="display:inline;fill:none;fill-opacity:1;stroke:none;stroke-width:0.13338;stroke-linecap:butt"
       id="path3357"
       d="m 183.98633,125.75586 6.24804,10.82422 h -12.49609 z"
       transform="matrix(1.3195349,0,0,1.3195349,-987.77632,-72.981515)" />
    <path
       style="display:inline;fill:none;fill-opacity:1;stroke:none;stroke-width:0.13338;stroke-linecap:butt"
       id="path3358"
       d="m 183.98633,125.75586 6.24804,10.82422 h -12.49609 z"
       transform="matrix(-1.3195349,0,0,1.3195349,-512.22376,-55.661024)" />
  </g>
  <g
     id="layer10"
     transform="translate(790,-86.602514)">
    <path
       style="display:inline;fill:#cccccc;stroke:none;stroke-width:0.244412"
       id="path3415"
       d="M 33,41 46.856406,65 19.143593,65 Z"
       transform="matrix(-0.36084394,-0.62500002,-0.62500002,0.36084394,-687.46716,96.763052)" />
    <path
       style="display:inline;fill:#cccccc;stroke:none;stroke-width:0.244412"
       id="path3416"
       d="M 33,41 46.856406,65 19.143593,65 Z"
       transform="matrix(-0.36084394,-0.62500002,-0.62500002,0.36084394,-707.46717,96.763052)" />
    <path
       style="display:inline;fill:#cccccc;stroke:none;stroke-width:0.244412"
       id="path3417"
       d="M 33,41 46.856406,65 19.143593,65 Z"
       transform="matrix(0.36084394,-0.62500002,0.62500002,0.36084394,-812.53288,114.08356)" />
  </g>
  <g
     id="layer16"
     style="display:inline"
     transform="translate(790,-86.602514)">
    <path
       style="display:inline;fill:none;fill-opacity:1;stroke:none;stroke-width:0.13338;stroke-linecap:butt"
       id="path3474"
       d="m 183.98633,125.75586 6.24804,10.82422 h -12.49609 z"
       transform="matrix(-1.3195349,0,0,-1.3195349,-512.22372,272.16733)" />
    <path
       style="display:inline;fill:none;fill-opacity:1;stroke:none;stroke-width:0.13338;stroke-linecap:butt"
       id="path3475"
       d="m 183.98633,125.75586 6.24804,10.82422 h -12.49609 z"
       transform="matrix(-1.3195349,0,0,-1.3195349,-492.22372,272.16734)" />
    <path
       style="display:inline;fill:none;fill-opacity:1;stroke:none;stroke-width:0.13338;stroke-linecap:butt"
       id="path3476"
       d="m 183.98633,125.75586 6.24804,10.82422 h -12.49609 z"
       transform="matrix(1.3195349,0,0,-1.3195349,-1007.7763,289.48786)" />
  </g>
</svg>
