<?xml version="1.0" encoding="UTF-8" standalone="no"?>
<!-- Created with Inkscape (http://www.inkscape.org/) -->

<svg
   width="3.1496048in"
   height="1.7047728in"
   viewBox="0 0 79.999962 43.30123"
   version="1.1"
   id="svg1"
   xmlns="http://www.w3.org/2000/svg"
   xmlns:svg="http://www.w3.org/2000/svg">
  <defs
     id="defs1" />
  <g
     id="layer17"
     style="fill:#ffffff"
     transform="translate(849.97168,-368.50336)">
    <rect
       style="fill:#ffffff;stroke:none;stroke-width:0.176389"
       id="rect4399"
       width="79.999992"
       height="43.301239"
       x="-849.97168"
       y="368.50336" />
  </g>
  <g
     id="layer2"
     transform="translate(880,-242.4871)">
    <path
       style="display:inline;fill:#999999;stroke:none;stroke-width:0.244412"
       id="path3311"
       d="M 33,41 46.856406,65 19.143593,65 Z"
       transform="matrix(0.36084391,0.62499999,0.62499999,-0.36084391,-882.53285,275.62783)" />
    <path
       style="display:inline;fill:#999999;stroke:none;stroke-width:0.244412"
       id="path3312"
       d="M 33,41 46.856406,65 19.143593,65 Z"
       transform="matrix(-0.36084391,0.62499999,-0.62499999,-0.36084391,-807.46716,275.62783)" />
    <path
       style="display:inline;fill:#999999;stroke:none;stroke-width:0.244412"
       id="path3313"
       d="M 33,41 46.856406,65 19.143593,65 Z"
       transform="matrix(0.36084391,0.62499999,0.62499999,-0.36084391,-892.53285,258.30732)" />
    <path
       style="display:inline;fill:#999999;stroke:none;stroke-width:0.244412"
       id="path3314"
       d="M 33,41 46.856406,65 19.143593,65 Z"
       transform="matrix(0.36084391,0.62499999,0.62499999,-0.36084391,-872.53286,258.3073)" />
  </g>
  <g
     id="layer15"
     transform="translate(880,-242.4871)">
    <path
       style="display:inline;fill:none;fill-opacity:1;stroke:none;stroke-width:0.13338;stroke-linecap:butt"
       id="path3371"
       d="m 183.98633,125.75586 6.24804,10.82422 h -12.49609 z"
       transform="matrix(1.3195349,0,0,1.3195349,-1097.7763,100.22355)" />
    <path
       style="display:inline;fill:none;fill-opacity:1;stroke:none;stroke-width:0.13338;stroke-linecap:butt"
       id="path3372"
       d="m 183.98633,125.75586 6.24804,10.82422 h -12.49609 z"
       transform="matrix(-1.3195349,0,0,1.3195349,-592.22373,100.22353)" />
    <path
       style="display:inline;fill:none;fill-opacity:1;stroke:none;stroke-width:0.13338;stroke-linecap:butt"
       id="path3373"
       d="m 183.98633,125.75586 6.24804,10.82422 h -12.49609 z"
       transform="matrix(-1.3195349,0,0,1.3195349,-602.22373,82.90302)" />
    <path
       style="display:inline;fill:none;fill-opacity:1;stroke:none;stroke-width:0.13338;stroke-linecap:butt"
       id="path3374"
       d="m 183.98633,125.75586 6.24804,10.82422 h -12.49609 z"
       transform="matrix(-1.3195349,0,0,1.3195349,-582.22374,82.90301)" />
  </g>
  <g
     id="layer10"
     transform="translate(880,-242.4871)">
    <path
       style="display:inline;fill:#cccccc;stroke:none;stroke-width:0.244412"
       id="path3430"
       d="M 33,41 46.856406,65 19.143593,65 Z"
       transform="matrix(0.36084394,-0.62500002,0.62500002,0.36084394,-872.53285,269.96812)" />
    <path
       style="display:inline;fill:#cccccc;stroke:none;stroke-width:0.244412"
       id="path3431"
       d="M 33,41 46.856406,65 19.143593,65 Z"
       transform="matrix(-0.36084394,-0.62500002,-0.62500002,0.36084394,-797.46715,269.96812)" />
  </g>
  <g
     id="layer16"
     style="display:inline"
     transform="translate(880,-242.4871)">
    <path
       style="display:inline;fill:none;fill-opacity:1;stroke:none;stroke-width:0.13338;stroke-linecap:butt"
       id="path3489"
       d="m 183.98633,125.75586 6.24804,10.82422 h -12.49609 z"
       transform="matrix(1.3195349,0,0,-1.3195349,-1067.7763,445.37242)" />
    <path
       style="display:inline;fill:none;fill-opacity:1;stroke:none;stroke-width:0.13338;stroke-linecap:butt"
       id="path3490"
       d="m 183.98633,125.75586 6.24804,10.82422 h -12.49609 z"
       transform="matrix(-1.3195349,0,0,-1.3195349,-602.22371,445.3724)" />
  </g>
</svg>
