<?xml version="1.0" encoding="UTF-8" standalone="no"?>
<!-- Created with Inkscape (http://www.inkscape.org/) -->

<svg
   width="3.1496048in"
   height="1.7047728in"
   viewBox="0 0 79.999962 43.30123"
   version="1.1"
   id="svg1"
   xmlns="http://www.w3.org/2000/svg"
   xmlns:svg="http://www.w3.org/2000/svg">
  <defs
     id="defs1" />
  <g
     id="layer17"
     style="fill:#ffffff"
     transform="translate(1029.9717,-316.5418)">
    <rect
       style="fill:#ffffff;stroke:none;stroke-width:0.176389"
       id="rect4387"
       width="79.999992"
       height="43.301239"
       x="-1029.9717"
       y="316.54181" />
  </g>
  <g
     id="layer2"
     transform="translate(1060,-190.52554)">
    <path
       style="display:inline;fill:#999999;stroke:none;stroke-width:0.244412"
       id="path3275"
       d="M 33,41 46.856406,65 19.143593,65 Z"
       transform="matrix(-0.36084391,0.62499999,-0.62499999,-0.36084391,-977.46716,215.00607)" />
    <path
       style="display:inline;fill:#999999;stroke:none;stroke-width:0.244412"
       id="path3276"
       d="M 33,41 46.856406,65 19.143593,65 Z"
       transform="matrix(-0.36084391,0.62499999,-0.62499999,-0.36084391,-957.46714,215.00605)" />
    <path
       style="display:inline;fill:#999999;stroke:none;stroke-width:0.244412"
       id="path3277"
       d="M 33,41 46.856406,65 19.143593,65 Z"
       transform="matrix(-0.36084391,0.62499999,-0.62499999,-0.36084391,-997.46716,215.00607)" />
  </g>
  <g
     id="layer15"
     transform="translate(1060,-190.52554)">
    <path
       style="display:inline;fill:none;fill-opacity:1;stroke:none;stroke-width:0.13338;stroke-linecap:butt"
       id="path3335"
       d="m 183.98633,125.75586 6.24804,10.82422 h -12.49609 z"
       transform="matrix(1.3195349,0,0,1.3195349,-1287.7763,39.601774)" />
    <path
       style="display:inline;fill:none;fill-opacity:1;stroke:none;stroke-width:0.13338;stroke-linecap:butt"
       id="path3336"
       d="m 183.98633,125.75586 6.24804,10.82422 h -12.49609 z"
       transform="matrix(1.3195349,0,0,1.3195349,-1267.7763,39.601754)" />
    <path
       style="display:inline;fill:none;fill-opacity:1;stroke:none;stroke-width:0.13338;stroke-linecap:butt"
       id="path3337"
       d="m 183.98633,125.75586 6.24804,10.82422 h -12.49609 z"
       transform="matrix(1.3195349,0,0,1.3195349,-1247.7763,39.601784)" />
  </g>
  <g
     id="layer10"
     transform="translate(1060,-190.52554)">
    <path
       style="display:inline;fill:#cccccc;stroke:none;stroke-width:0.244412"
       id="path3395"
       d="M 33,41 46.856406,65 19.143593,65 Z"
       transform="matrix(-0.36084394,-0.62500002,-0.62500002,0.36084394,-967.46713,209.34634)" />
    <path
       style="display:inline;fill:#cccccc;stroke:none;stroke-width:0.244412"
       id="path3396"
       d="M 33,41 46.856406,65 19.143593,65 Z"
       transform="matrix(-0.36084394,-0.62500002,-0.62500002,0.36084394,-987.46714,209.34634)" />
    <path
       style="display:inline;fill:#cccccc;stroke:none;stroke-width:0.244412"
       id="path3969"
       d="M 33,41 46.856406,65 19.143593,65 Z"
       transform="matrix(-0.36084394,-0.62500002,-0.62500002,0.36084394,-947.46714,209.34634)" />
  </g>
  <g
     id="layer16"
     style="display:inline"
     transform="translate(1060,-190.52554)">
    <path
       style="display:inline;fill:none;fill-opacity:1;stroke:none;stroke-width:0.13338;stroke-linecap:butt"
       id="path3454"
       d="m 183.98633,125.75586 6.24804,10.82422 h -12.49609 z"
       transform="matrix(-1.3195349,0,0,-1.3195349,-772.2237,384.75066)" />
    <path
       style="display:inline;fill:none;fill-opacity:1;stroke:none;stroke-width:0.13338;stroke-linecap:butt"
       id="path3455"
       d="m 183.98633,125.75586 6.24804,10.82422 h -12.49609 z"
       transform="matrix(-1.3195349,0,0,-1.3195349,-792.22371,384.75065)" />
    <path
       style="display:inline;fill:none;fill-opacity:1;stroke:none;stroke-width:0.13338;stroke-linecap:butt"
       id="path3970"
       d="m 183.98633,125.75586 6.24804,10.82422 h -12.49609 z"
       transform="matrix(-1.3195349,0,0,-1.3195349,-752.22371,384.75066)" />
  </g>
</svg>
