<?xml version="1.0" encoding="UTF-8" standalone="no"?>
<!-- Created with Inkscape (http://www.inkscape.org/) -->

<svg
   width="3.149606in"
   height="1.7047728in"
   viewBox="0 0 79.999992 43.30123"
   version="1.1"
   id="svg1"
   xmlns="http://www.w3.org/2000/svg"
   xmlns:svg="http://www.w3.org/2000/svg">
  <defs
     id="defs1" />
  <g
     id="layer17"
     style="fill:#ffffff"
     transform="translate(569.9717,-368.50336)">
    <rect
       style="fill:#ffffff;stroke:none;stroke-width:0.176389"
       id="rect38"
       width="79.999992"
       height="43.301239"
       x="-569.97168"
       y="368.50336" />
  </g>
  <g
     id="layer2"
     transform="translate(600.00002,-242.4871)">
    <path
       style="display:inline;fill:#000000;stroke:none;stroke-width:0.244412"
       id="path2478"
       d="M 33,41 46.856406,65 19.143593,65 Z"
       transform="matrix(0.36084391,0.62499999,0.62499999,-0.36084391,-602.53286,275.62784)" />
    <path
       style="display:inline;fill:#000000;stroke:none;stroke-width:0.244412"
       id="path2479"
       d="M 33,41 46.856406,65 19.143593,65 Z"
       transform="matrix(-0.36084391,0.62499999,-0.62499999,-0.36084391,-527.46717,275.62784)" />
    <path
       style="display:inline;fill:#000000;stroke:none;stroke-width:0.244412"
       id="path2480"
       d="M 33,41 46.856406,65 19.143593,65 Z"
       transform="matrix(0.36084391,0.62499999,0.62499999,-0.36084391,-612.53286,258.30733)" />
    <path
       style="display:inline;fill:#000000;stroke:none;stroke-width:0.244412"
       id="path2481"
       d="M 33,41 46.856406,65 19.143593,65 Z"
       transform="matrix(0.36084391,0.62499999,0.62499999,-0.36084391,-592.53287,258.30731)" />
  </g>
  <g
     id="layer15"
     transform="translate(600.00002,-242.4871)">
    <path
       style="display:inline;fill:#ffffff;fill-opacity:1;stroke:none;stroke-width:0.13338;stroke-linecap:butt"
       id="path2484"
       d="m 183.98633,125.75586 6.24804,10.82422 h -12.49609 z"
       transform="matrix(1.3195349,0,0,1.3195349,-817.77632,100.22356)" />
    <path
       style="display:inline;fill:#ffffff;fill-opacity:1;stroke:none;stroke-width:0.13338;stroke-linecap:butt"
       id="path2485"
       d="m 183.98633,125.75586 6.24804,10.82422 h -12.49609 z"
       transform="matrix(-1.3195349,0,0,1.3195349,-312.22374,100.22354)" />
    <path
       style="display:inline;fill:#ffffff;fill-opacity:1;stroke:none;stroke-width:0.13338;stroke-linecap:butt"
       id="path2486"
       d="m 183.98633,125.75586 6.24804,10.82422 h -12.49609 z"
       transform="matrix(-1.3195349,0,0,1.3195349,-322.22374,82.903026)" />
    <path
       style="display:inline;fill:#ffffff;fill-opacity:1;stroke:none;stroke-width:0.13338;stroke-linecap:butt"
       id="path2487"
       d="m 183.98633,125.75586 6.24804,10.82422 h -12.49609 z"
       transform="matrix(-1.3195349,0,0,1.3195349,-302.22375,82.903016)" />
  </g>
  <g
     id="layer10"
     transform="translate(600.00002,-242.4871)">
    <path
       style="display:inline;fill:#000000;stroke:none;stroke-width:0.244412"
       id="path2490"
       d="M 33,41 46.856406,65 19.143593,65 Z"
       transform="matrix(0.36084394,-0.62500002,0.62500002,0.36084394,-592.53286,269.96813)" />
    <path
       style="display:inline;fill:#000000;stroke:none;stroke-width:0.244412"
       id="path2491"
       d="M 33,41 46.856406,65 19.143593,65 Z"
       transform="matrix(-0.36084394,-0.62500002,-0.62500002,0.36084394,-517.46716,269.96813)" />
  </g>
  <g
     id="layer16"
     style="display:inline"
     transform="translate(600.00002,-242.4871)">
    <path
       style="display:inline;fill:#ffffff;fill-opacity:1;stroke:none;stroke-width:0.13338;stroke-linecap:butt"
       id="path2496"
       d="m 183.98633,125.75586 6.24804,10.82422 h -12.49609 z"
       transform="matrix(1.3195349,0,0,-1.3195349,-787.7763,445.37243)" />
    <path
       style="display:inline;fill:#ffffff;fill-opacity:1;stroke:none;stroke-width:0.13338;stroke-linecap:butt"
       id="path2497"
       d="m 183.98633,125.75586 6.24804,10.82422 h -12.49609 z"
       transform="matrix(-1.3195349,0,0,-1.3195349,-322.22372,445.37241)" />
  </g>
</svg>
