<?xml version="1.0" encoding="UTF-8" standalone="no"?>
<!-- Created with Inkscape (http://www.inkscape.org/) -->

<svg
   width="3.1496074in"
   height="1.7047728in"
   viewBox="0 0 80.000028 43.30123"
   version="1.1"
   id="svg1"
   xmlns="http://www.w3.org/2000/svg"
   xmlns:svg="http://www.w3.org/2000/svg">
  <defs
     id="defs1" />
  <g
     id="layer17"
     style="fill:#ffffff"
     transform="translate(659.97172,-264.5803)">
    <rect
       style="fill:#ffffff;stroke:none;stroke-width:0.176389"
       id="rect20"
       width="79.999992"
       height="43.301239"
       x="-659.97168"
       y="264.58029" />
  </g>
  <g
     id="layer2"
     transform="translate(690.00004,-138.56404)">
    <path
       style="display:inline;fill:#000000;stroke:none;stroke-width:0.244412"
       id="path1968"
       d="M 33,41 46.856406,65 19.143593,65 Z"
       transform="matrix(-0.36084391,0.62499999,-0.62499999,-0.36084391,-592.46717,154.38431)" />
    <path
       style="display:inline;fill:#000000;stroke:none;stroke-width:0.244412"
       id="path1969"
       d="M 33,41 46.856406,65 19.143593,65 Z"
       transform="matrix(-0.36084391,0.62499999,-0.62499999,-0.36084391,-602.46718,171.70484)" />
    <path
       style="display:inline;fill:#000000;stroke:none;stroke-width:0.244412"
       id="path1970"
       d="M 33,41 46.856406,65 19.143593,65 Z"
       transform="matrix(-0.36084391,0.62499999,-0.62499999,-0.36084391,-612.46717,154.38431)" />
  </g>
  <g
     id="layer15"
     transform="translate(690.00004,-138.56404)">
    <path
       style="display:inline;fill:#ffffff;fill-opacity:1;stroke:none;stroke-width:0.13338;stroke-linecap:butt"
       id="path2104"
       d="m 183.98633,125.75586 6.24804,10.82422 h -12.49609 z"
       transform="matrix(1.3195349,0,0,1.3195349,-902.77631,-21.01999)" />
    <path
       style="display:inline;fill:#ffffff;fill-opacity:1;stroke:none;stroke-width:0.13338;stroke-linecap:butt"
       id="path2105"
       d="m 183.98633,125.75586 6.24804,10.82422 h -12.49609 z"
       transform="matrix(1.3195349,0,0,1.3195349,-882.77628,-21.02001)" />
    <path
       style="display:inline;fill:#ffffff;fill-opacity:1;stroke:none;stroke-width:0.13338;stroke-linecap:butt"
       id="path2111"
       d="m 183.98633,125.75586 6.24804,10.82422 h -12.49609 z"
       transform="matrix(1.3195349,0,0,1.3195349,-892.77632,-3.6994599)" />
  </g>
  <g
     id="layer10"
     transform="translate(690.00004,-138.56404)">
    <path
       style="display:inline;fill:#000000;stroke:none;stroke-width:0.244412"
       id="path1971"
       d="M 33,41 46.856406,65 19.143593,65 Z"
       transform="matrix(-0.36084394,-0.62500002,-0.62500002,0.36084394,-592.46717,166.04511)" />
    <path
       style="display:inline;fill:#000000;stroke:none;stroke-width:0.244412"
       id="path1972"
       d="M 33,41 46.856406,65 19.143593,65 Z"
       transform="matrix(-0.36084394,-0.62500002,-0.62500002,0.36084394,-602.46717,148.7246)" />
    <path
       style="display:inline;fill:#000000;stroke:none;stroke-width:0.244412"
       id="path1973"
       d="M 33,41 46.856406,65 19.143593,65 Z"
       transform="matrix(-0.36084394,-0.62500002,-0.62500002,0.36084394,-612.46717,166.04511)" />
  </g>
  <g
     id="layer16"
     style="display:inline"
     transform="translate(690.00004,-138.56404)">
    <path
       style="display:inline;fill:#ffffff;fill-opacity:1;stroke:none;stroke-width:0.13338;stroke-linecap:butt"
       id="path2106"
       d="m 183.98633,125.75586 6.24804,10.82422 h -12.49609 z"
       transform="matrix(-1.3195349,0,0,-1.3195349,-407.22372,324.12889)" />
    <path
       style="display:inline;fill:#ffffff;fill-opacity:1;stroke:none;stroke-width:0.13338;stroke-linecap:butt"
       id="path2112"
       d="m 183.98633,125.75586 6.24804,10.82422 h -12.49609 z"
       transform="matrix(-1.3195349,0,0,-1.3195349,-417.22372,341.44938)" />
    <path
       style="display:inline;fill:#ffffff;fill-opacity:1;stroke:none;stroke-width:0.13338;stroke-linecap:butt"
       id="path2113"
       d="m 183.98633,125.75586 6.24804,10.82422 h -12.49609 z"
       transform="matrix(-1.3195349,0,0,-1.3195349,-397.22372,341.44939)" />
  </g>
</svg>
