<?xml version="1.0" encoding="UTF-8" standalone="no"?>
<!-- Created with Inkscape (http://www.inkscape.org/) -->

<svg
   width="3.1496067in"
   height="0.68191022in"
   viewBox="0 0 80.00001 17.32052"
   version="1.1"
   id="svg1"
   xmlns="http://www.w3.org/2000/svg"
   xmlns:svg="http://www.w3.org/2000/svg">
  <defs
     id="defs1" />
  <g
     id="layer11"
     style="display:inline"
     transform="translate(74.071495,-300.24904)">
    <path
       style="fill:#ffbdbd;stroke:none;stroke-width:0.13338;stroke-linecap:butt"
       id="path457"
       d="m 183.98627,124.22117 7.57842,13.12622 -15.15685,0 z"
       transform="matrix(-1.3195349,0,0,-1.3195349,208.7048,481.48371)" />
    <path
       style="fill:#ffbdbd;stroke:none;stroke-width:0.13338;stroke-linecap:butt"
       id="path465"
       d="m 183.98627,124.22117 7.57842,13.12622 -15.15685,0 z"
       transform="matrix(1.3195349,0,0,1.3195349,-286.8478,136.33486)" />
    <path
       style="fill:#ffbdbd;stroke:none;stroke-width:0.13338;stroke-linecap:butt"
       id="path473"
       d="m 183.98627,124.22117 7.57842,13.12622 -15.15685,0 z"
       transform="matrix(-1.3195349,0,0,-1.3195349,188.7048,481.48371)" />
    <path
       style="fill:#ffbdbd;stroke:none;stroke-width:0.13338;stroke-linecap:butt"
       id="path475"
       d="m 183.98627,124.22117 7.57842,13.12622 -15.15685,0 z"
       transform="matrix(1.3195349,0,0,1.3195349,-306.8478,136.33486)" />
    <path
       style="fill:#ffbdbd;stroke:none;stroke-width:0.13338;stroke-linecap:butt"
       id="path476"
       d="m 183.98627,124.22117 7.57842,13.12622 -15.15685,0 z"
       transform="matrix(1.3195349,0,0,1.3195349,-266.8478,136.33486)" />
    <path
       style="fill:#ffbdbd;stroke:none;stroke-width:0.13338;stroke-linecap:butt"
       id="path482"
       d="m 183.98627,124.22117 7.57842,13.12622 -15.15685,0 z"
       transform="matrix(-1.3195349,0,0,-1.3195349,228.70479,481.4837)" />
    <path
       style="fill:#ffbdbd;stroke:none;stroke-width:0.13338;stroke-linecap:butt"
       id="path483"
       d="m 183.98627,124.22117 7.57842,13.12622 -15.15685,0 z"
       transform="matrix(1.3195349,0,0,1.3195349,-246.84779,136.33486)" />
  </g>
  <g
     id="layer12"
     style="display:inline"
     transform="translate(74.071495,-300.24904)">
    <path
       style="fill:#c20000;stroke:none;stroke-width:0.13338;stroke-linecap:butt"
       id="path458"
       d="m 183.98633,125.75586 6.24804,10.82422 h -12.49609 z"
       transform="matrix(-1.3195349,0,0,-1.3195349,208.7048,481.48371)" />
    <path
       style="fill:#c20000;stroke:none;stroke-width:0.13338;stroke-linecap:butt"
       id="path466"
       d="m 183.98633,125.75586 6.24804,10.82422 h -12.49609 z"
       transform="matrix(1.3195349,0,0,1.3195349,-286.8478,136.33486)" />
    <path
       style="fill:#c20000;stroke:none;stroke-width:0.13338;stroke-linecap:butt"
       id="path474"
       d="m 183.98633,125.75586 6.24804,10.82422 h -12.49609 z"
       transform="matrix(-1.3195349,0,0,-1.3195349,188.7048,481.48371)" />
    <path
       style="fill:#c20000;stroke:none;stroke-width:0.13338;stroke-linecap:butt"
       id="path477"
       d="m 183.98633,125.75586 6.24804,10.82422 h -12.49609 z"
       transform="matrix(1.3195349,0,0,1.3195349,-306.8478,136.33486)" />
    <path
       style="fill:#c20000;stroke:none;stroke-width:0.13338;stroke-linecap:butt"
       id="path478"
       d="m 183.98633,125.75586 6.24804,10.82422 h -12.49609 z"
       transform="matrix(1.3195349,0,0,1.3195349,-266.8478,136.33486)" />
    <path
       style="fill:#c20000;stroke:none;stroke-width:0.13338;stroke-linecap:butt"
       id="path484"
       d="m 183.98633,125.75586 6.24804,10.82422 h -12.49609 z"
       transform="matrix(-1.3195349,0,0,-1.3195349,228.70479,481.4837)" />
    <path
       style="fill:#c20000;stroke:none;stroke-width:0.13338;stroke-linecap:butt"
       id="path485"
       d="m 183.98633,125.75586 6.24804,10.82422 h -12.49609 z"
       transform="matrix(1.3195349,0,0,1.3195349,-246.84779,136.33486)" />
  </g>
  <g
     id="layer13"
     style="display:inline"
     transform="translate(74.071495,-300.24904)">
    <path
       style="fill:#ffbdbd;stroke:none;stroke-width:0.176;stroke-linecap:butt"
       d="m 179.26758,116.01563 c 2.10236,0 3.76367,1.66131 3.76367,3.76367 0,2.10235 -1.66131,3.76367 -3.76367,3.76367 -2.10236,0 -3.76367,-1.66132 -3.76367,-3.76367 0,-2.10236 1.66131,-3.76368 3.76367,-3.76367 z"
       id="path459"
       transform="translate(-213.33906,186.24319)" />
  </g>
  <g
     id="layer14"
     style="display:inline"
     transform="translate(74.071495,-300.24904)">
    <path
       d="m -34.042029,303.94816 q 0.0155,0 0.21084,-0.006 l 0.09922,0.003 0.195337,0.003 q 0.0124,0.0992 0.0124,0.14572 0,0.0155 -0.0031,0.0961 -0.0031,0.0434 -0.0062,0.33177 l -0.0062,0.46818 0.0031,0.29456 -0.0217,2.09289 v 0.17674 q 0,0.093 0.04341,0.13332 0.04341,0.0403 0.232544,0.0682 0.07441,0.009 0.297656,0.0496 0.0062,0.031 0.0062,0.0589 0,0.0341 -0.0062,0.14882 h -0.133325 q -0.136426,0 -0.396875,-0.0124 -0.15813,-0.009 -0.217041,-0.009 -0.07441,0 -0.548804,0.0155 -0.05271,0.003 -0.08682,0.003 h -0.05581 l -0.08992,-0.006 -0.08372,0.006 -0.155029,-0.006 q -0.03101,0 -0.127124,0.009 -0.0062,-0.0682 -0.0062,-0.10542 0,-0.0341 0.0062,-0.10231 0.124023,-0.0341 0.288354,-0.0682 0.226343,-0.0465 0.275953,-0.0899 0.05271,-0.0465 0.05271,-0.12093 l -0.0031,-0.21084 0.0124,-0.22944 -0.0031,-0.47129 -0.0031,-0.12092 q 0,-0.0248 0.0062,-0.18604 0.0062,-0.0837 0.0062,-0.14883 0,-0.0403 -0.0093,-0.25114 l 0.0124,-0.17674 q -0.0124,-0.20153 -0.0124,-0.23874 0,-0.0465 0.0031,-0.093 l 0.0062,-0.0775 -0.0093,-0.21084 0.0093,-0.0961 q 0.0031,-0.0651 0.0031,-0.17363 0,-0.10542 -0.0031,-0.25735 -0.220142,0.16433 -0.502295,0.32866 -0.03101,0.0186 -0.279053,0.12712 -0.09922,-0.14883 -0.127124,-0.22324 0.328662,-0.17053 0.446484,-0.25115 0.195337,-0.13642 0.42168,-0.34106 0.09612,-0.0899 0.244946,-0.27595 z"
       id="text460"
       style="font-weight:bold;font-size:6.35px;line-height:7.45115px;font-family:Garamond;-inkscape-font-specification:'Garamond Bold';text-align:center;letter-spacing:0px;word-spacing:0px;text-anchor:middle;stroke-width:0.176"
       aria-label="1" />
  </g>
</svg>
