<?xml version="1.0" encoding="UTF-8" standalone="no"?>
<!-- Created with Inkscape (http://www.inkscape.org/) -->

<svg
   width="2.3622046in"
   height="1.3638204in"
   viewBox="0 0 59.999996 34.641039"
   version="1.1"
   id="svg1"
   xmlns="http://www.w3.org/2000/svg"
   xmlns:svg="http://www.w3.org/2000/svg">
  <defs
     id="defs1" />
  <g
     id="layer11"
     style="display:inline"
     transform="translate(59.733208,-334.80193)">
    <path
       style="fill:#ffcdbd;stroke:none;stroke-width:0.13338;stroke-linecap:butt"
       id="path489"
       d="m 183.98627,124.22117 7.57842,13.12622 -15.15685,0 z"
       transform="matrix(-1.3195349,0,0,-1.3195349,213.04309,533.3571)" />
    <path
       style="fill:#ffcdbd;stroke:none;stroke-width:0.13338;stroke-linecap:butt"
       id="path497"
       d="m 183.98627,124.22117 7.57842,13.12622 -15.15685,0 z"
       transform="matrix(1.3195349,0,0,1.3195349,-292.50951,170.88775)" />
    <path
       style="fill:#ffcdbd;stroke:none;stroke-width:0.13338;stroke-linecap:butt"
       id="path505"
       d="m 183.98627,124.22117 7.57842,13.12622 -15.15685,0 z"
       transform="matrix(-1.3195349,0,0,1.3195349,203.04309,188.20826)" />
    <path
       style="fill:#ffcdbd;stroke:none;stroke-width:0.13338;stroke-linecap:butt"
       id="path508"
       d="m 183.98627,124.22117 7.57842,13.12622 -15.15685,0 z"
       transform="matrix(1.3195349,0,0,-1.3195349,-292.50951,533.3571)" />
    <path
       style="fill:#ffcdbd;stroke:none;stroke-width:0.13338;stroke-linecap:butt"
       id="path509"
       d="m 183.98627,124.22117 7.57842,13.12622 -15.15685,0 z"
       transform="matrix(1.3195349,0,0,1.3195349,-262.50951,188.20826)" />
    <path
       style="fill:#ffcdbd;stroke:none;stroke-width:0.13338;stroke-linecap:butt"
       id="path516"
       d="m 183.98627,124.22117 7.57842,13.12622 -15.15685,0 z"
       transform="matrix(1.3195349,0,0,1.3195349,-252.50951,170.88775)" />
    <path
       style="fill:#ffcdbd;stroke:none;stroke-width:0.13338;stroke-linecap:butt"
       id="path517"
       d="m 183.98627,124.22117 7.57842,13.12622 -15.15685,0 z"
       transform="matrix(-1.3195349,0,0,-1.3195349,233.04309,533.35711)" />
  </g>
  <g
     id="layer12"
     style="display:inline"
     transform="translate(59.733208,-334.80193)">
    <path
       style="fill:#c23000;stroke:none;stroke-width:0.13338;stroke-linecap:butt"
       id="path490"
       d="m 183.98633,125.75586 6.24804,10.82422 h -12.49609 z"
       transform="matrix(-1.3195349,0,0,-1.3195349,213.04309,533.3571)" />
    <path
       style="fill:#c23000;stroke:none;stroke-width:0.13338;stroke-linecap:butt"
       id="path498"
       d="m 183.98633,125.75586 6.24804,10.82422 h -12.49609 z"
       transform="matrix(1.3195349,0,0,1.3195349,-292.50951,170.88775)" />
    <path
       style="fill:#c23000;stroke:none;stroke-width:0.13338;stroke-linecap:butt"
       id="path506"
       d="m 183.98633,125.75586 6.24804,10.82422 h -12.49609 z"
       transform="matrix(-1.3195349,0,0,1.3195349,203.04309,188.20826)" />
    <path
       style="fill:#c23000;stroke:none;stroke-width:0.13338;stroke-linecap:butt"
       id="path510"
       d="m 183.98633,125.75586 6.24804,10.82422 h -12.49609 z"
       transform="matrix(1.3195349,0,0,-1.3195349,-292.50951,533.3571)" />
    <path
       style="fill:#c23000;stroke:none;stroke-width:0.13338;stroke-linecap:butt"
       id="path511"
       d="m 183.98633,125.75586 6.24804,10.82422 h -12.49609 z"
       transform="matrix(1.3195349,0,0,1.3195349,-262.50951,188.20826)" />
    <path
       style="fill:#c23000;stroke:none;stroke-width:0.13338;stroke-linecap:butt"
       id="path518"
       d="m 183.98633,125.75586 6.24804,10.82422 h -12.49609 z"
       transform="matrix(1.3195349,0,0,1.3195349,-252.50951,170.88775)" />
    <path
       style="fill:#c23000;stroke:none;stroke-width:0.13338;stroke-linecap:butt"
       id="path519"
       d="m 183.98633,125.75586 6.24804,10.82422 h -12.49609 z"
       transform="matrix(-1.3195349,0,0,-1.3195349,233.04309,533.35711)" />
  </g>
  <g
     id="layer13"
     style="display:inline"
     transform="translate(59.733208,-334.80193)">
    <path
       style="fill:#ffcdbd;stroke:none;stroke-width:0.176;stroke-linecap:butt"
       d="m 179.26758,116.01563 c 2.10236,0 3.76367,1.66131 3.76367,3.76367 0,2.10235 -1.66131,3.76367 -3.76367,3.76367 -2.10236,0 -3.76367,-1.66132 -3.76367,-3.76367 0,-2.10236 1.66131,-3.76368 3.76367,-3.76367 z"
       id="path491"
       transform="translate(-209.00076,238.11659)" />
  </g>
  <g
     id="layer14"
     style="display:inline"
     transform="translate(59.733208,-334.80193)">
    <path
       d="m -28.50535,359.89574 h -0.322461 q -0.114721,0 -0.179834,-0.003 -0.102319,-0.003 -0.124023,-0.003 l -0.21084,0.009 -0.05581,-0.006 q -0.07442,-0.009 -0.182935,-0.009 -0.102319,0 -0.350366,0.009 -0.117823,0.003 -0.142627,0.003 l -0.313159,-0.006 -0.502295,0.006 h -0.198438 v -0.21084 q 0.440283,-0.55811 0.660425,-0.77825 0.223242,-0.22324 0.63252,-0.73794 0.285253,-0.35346 0.390673,-0.63252 0.108521,-0.27905 0.108521,-0.48369 0,-0.22944 -0.06821,-0.41238 -0.06511,-0.18293 -0.235645,-0.28835 -0.167431,-0.10542 -0.365869,-0.10542 -0.201538,0 -0.362768,0.0992 -0.161231,0.0992 -0.235645,0.25115 -0.114721,0.22014 -0.139526,0.45888 h -0.226343 q -0.0093,-0.13332 -0.0093,-0.22324 0,-0.30076 0.232544,-0.57671 0.359668,-0.42788 1.013892,-0.42788 0.545703,0 0.858862,0.31006 0.313159,0.30696 0.313159,0.77515 0,0.18603 -0.05891,0.35036 -0.08372,0.22324 -0.204638,0.38758 -0.117823,0.16433 -0.654224,0.70073 -0.387573,0.38757 -0.970483,0.91777 l 0.344165,0.006 0.564306,-0.0124 0.328662,0.006 q 0.260449,0 0.344165,-0.0558 0.08682,-0.0558 0.15813,-0.26355 0.0155,-0.0496 0.05581,-0.14883 l 0.204638,-0.0124 0.04031,0.0124 q 0.0155,0.0248 0.0155,0.0465 0,0.0496 -0.0155,0.12403 -0.0155,0.0744 -0.03721,0.24494 -0.0186,0.17053 -0.09922,0.67903 z"
       id="text492"
       style="font-weight:bold;font-size:6.35px;line-height:7.45115px;font-family:Garamond;-inkscape-font-specification:'Garamond Bold';text-align:center;letter-spacing:0px;word-spacing:0px;text-anchor:middle;stroke-width:0.176"
       aria-label="2" />
  </g>
</svg>
