<?xml version="1.0" encoding="UTF-8" standalone="no"?>
<!-- Created with Inkscape (http://www.inkscape.org/) -->

<svg
   width="2.3622046in"
   height="1.3638191in"
   viewBox="0 0 59.999996 34.641006"
   version="1.1"
   id="svg1"
   xmlns="http://www.w3.org/2000/svg"
   xmlns:svg="http://www.w3.org/2000/svg">
  <defs
     id="defs1" />
  <g
     id="layer11"
     style="display:inline"
     transform="translate(57.78299,-389.76331)">
    <path
       style="fill:#ffdebd;stroke:none;stroke-width:0.13338;stroke-linecap:butt"
       id="path524"
       d="m 183.98627,124.22117 7.57842,13.12622 -15.15685,0 z"
       transform="matrix(-1.3195349,0,0,-1.3195349,214.99331,570.99801)" />
    <path
       style="fill:#ffdebd;stroke:none;stroke-width:0.13338;stroke-linecap:butt"
       id="path532"
       d="m 183.98627,124.22117 7.57842,13.12622 -15.15685,0 z"
       transform="matrix(1.3195349,0,0,1.3195349,-280.55929,225.84916)" />
    <path
       style="fill:#ffdebd;stroke:none;stroke-width:0.13338;stroke-linecap:butt"
       id="path553"
       d="m 183.98627,124.22117 7.57842,13.12622 -15.15685,0 z"
       transform="matrix(-1.3195349,0,0,-1.3195349,204.99331,588.31851)" />
    <path
       style="fill:#ffdebd;stroke:none;stroke-width:0.13338;stroke-linecap:butt"
       id="path554"
       d="m 183.98627,124.22117 7.57842,13.12622 -15.15685,0 z"
       transform="matrix(1.3195349,0,0,1.3195349,-290.55929,243.16966)" />
    <path
       style="fill:#ffdebd;stroke:none;stroke-width:0.13338;stroke-linecap:butt"
       id="path566"
       d="m 183.98627,124.22117 7.57842,13.12622 -15.15685,0 z"
       transform="matrix(-1.3195349,0,0,1.3195349,234.99331,243.16966)" />
    <path
       style="fill:#ffdebd;stroke:none;stroke-width:0.13338;stroke-linecap:butt"
       id="path567"
       d="m 183.98627,124.22117 7.57842,13.12622 -15.15685,0 z"
       transform="matrix(1.3195349,0,0,-1.3195349,-260.5593,588.31851)" />
    <path
       style="fill:#ffdebd;stroke:none;stroke-width:0.13338;stroke-linecap:butt"
       id="path568"
       d="m 183.98627,124.22117 7.57842,13.12622 -15.15685,0 z"
       transform="matrix(-1.3195349,0,0,1.3195349,224.99331,225.84916)" />
  </g>
  <g
     id="layer12"
     style="display:inline"
     transform="translate(57.78299,-389.76331)">
    <path
       style="fill:#c26100;stroke:none;stroke-width:0.13338;stroke-linecap:butt"
       id="path525"
       d="m 183.98633,125.75586 6.24804,10.82422 h -12.49609 z"
       transform="matrix(-1.3195349,0,0,-1.3195349,214.99331,570.99801)" />
    <path
       style="fill:#c26100;stroke:none;stroke-width:0.13338;stroke-linecap:butt"
       id="path533"
       transform="matrix(1.3195349,0,0,1.3195349,-280.55929,225.84916)"
       d="m 183.98633,125.75586 6.24804,10.82422 h -12.49609 z" />
    <path
       style="fill:#c26100;stroke:none;stroke-width:0.13338;stroke-linecap:butt"
       id="path555"
       d="m 183.98633,125.75586 6.24804,10.82422 h -12.49609 z"
       transform="matrix(-1.3195349,0,0,-1.3195349,204.99331,588.31851)" />
    <path
       style="fill:#c26100;stroke:none;stroke-width:0.13338;stroke-linecap:butt"
       id="path556"
       transform="matrix(1.3195349,0,0,1.3195349,-290.55929,243.16966)"
       d="m 183.98633,125.75586 6.24804,10.82422 h -12.49609 z" />
    <path
       style="fill:#c26100;stroke:none;stroke-width:0.13338;stroke-linecap:butt"
       id="path569"
       d="m 183.98633,125.75586 6.24804,10.82422 h -12.49609 z"
       transform="matrix(-1.3195349,0,0,1.3195349,234.99331,243.16966)" />
    <path
       style="fill:#c26100;stroke:none;stroke-width:0.13338;stroke-linecap:butt"
       id="path570"
       transform="matrix(1.3195349,0,0,-1.3195349,-260.5593,588.31851)"
       d="m 183.98633,125.75586 6.24804,10.82422 h -12.49609 z" />
    <path
       style="fill:#c26100;stroke:none;stroke-width:0.13338;stroke-linecap:butt"
       id="path571"
       d="m 183.98633,125.75586 6.24804,10.82422 h -12.49609 z"
       transform="matrix(-1.3195349,0,0,1.3195349,224.99331,225.84916)" />
  </g>
  <g
     id="layer13"
     style="display:inline"
     transform="translate(57.78299,-389.76331)">
    <path
       style="fill:#ffdebd;stroke:none;stroke-width:0.176;stroke-linecap:butt"
       d="m 179.26758,116.01563 c 2.10236,0 3.76367,1.66131 3.76367,3.76367 0,2.10235 -1.66131,3.76367 -3.76367,3.76367 -2.10236,0 -3.76367,-1.66132 -3.76367,-3.76367 0,-2.10236 1.66131,-3.76368 3.76367,-3.76367 z"
       id="path526"
       transform="translate(-207.05057,275.75749)" />
  </g>
  <g
     id="layer14"
     style="display:inline"
     transform="translate(57.78299,-389.76331)">
    <path
       d="m -28.2202,395.66386 q -0.09302,-0.11783 -0.151928,-0.18604 0.564306,-0.40928 0.753442,-0.66663 0.124024,-0.16433 0.124024,-0.35656 0,-0.19844 -0.142627,-0.34417 -0.142627,-0.14573 -0.325562,-0.14573 -0.378271,0 -0.68833,0.46199 l -0.195337,-0.10542 q 0.148828,-0.32556 0.291455,-0.48679 0.145728,-0.16433 0.412378,-0.27905 0.201538,-0.0868 0.502295,-0.0868 0.406177,0 0.626318,0.20464 0.220142,0.20154 0.220142,0.50849 0,0.24185 -0.151929,0.46509 -0.151928,0.22014 -0.539502,0.48369 h 0.06511 q 0.415478,0 0.675927,0.31936 0.26355,0.31936 0.26355,0.69764 0,0.31936 -0.148828,0.66662 -0.145728,0.34727 -0.539502,0.58601 -0.393774,0.23565 -0.967383,0.23565 -0.555005,0 -0.84646,-0.19534 -0.186035,-0.12402 -0.186035,-0.29145 0,-0.11783 0.08992,-0.20464 0.08992,-0.0868 0.229443,-0.0868 0.117823,0 0.217041,0.062 0.09922,0.062 0.269751,0.27906 0.08682,0.11162 0.167432,0.14262 0.142627,0.0589 0.207739,0.0589 0.164331,0 0.341065,-0.11162 0.179834,-0.11162 0.285254,-0.36897 0.10542,-0.26045 0.10542,-0.60461 0,-0.36897 -0.186036,-0.57981 -0.182934,-0.21394 -0.403076,-0.21394 -0.16123,0 -0.375171,0.14263 z"
       id="text527"
       style="font-weight:bold;font-size:6.35px;line-height:7.45115px;font-family:Garamond;-inkscape-font-specification:'Garamond Bold';text-align:center;letter-spacing:0px;word-spacing:0px;text-anchor:middle;stroke-width:0.176"
       aria-label="3" />
  </g>
</svg>
