<?xml version="1.0" encoding="UTF-8" standalone="no"?>
<!-- Created with Inkscape (http://www.inkscape.org/) -->

<svg
   width="2.362205in"
   height="1.3638204in"
   viewBox="0 0 60.000008 34.641039"
   version="1.1"
   id="svg1"
   xmlns="http://www.w3.org/2000/svg"
   xmlns:svg="http://www.w3.org/2000/svg">
  <defs
     id="defs1" />
  <g
     id="layer11"
     style="display:inline"
     transform="translate(-19.421491,-302.1101)">
    <path
       style="fill:#ffeebd;stroke:none;stroke-width:0.13338;stroke-linecap:butt"
       id="path585"
       d="m 183.98627,124.22117 7.57842,13.12622 -15.15685,0 z"
       transform="matrix(-1.3195349,0,0,-1.3195349,292.19779,483.34477)" />
    <path
       style="fill:#ffeebd;stroke:none;stroke-width:0.13338;stroke-linecap:butt"
       id="path593"
       d="m 183.98627,124.22117 7.57842,13.12622 -15.15685,0 z"
       transform="matrix(1.3195349,0,0,1.3195349,-183.35482,138.19592)" />
    <path
       style="fill:#ffeebd;stroke:none;stroke-width:0.13338;stroke-linecap:butt"
       id="path601"
       d="m 183.98627,124.22117 7.57842,13.12622 -15.15685,0 z"
       transform="matrix(-1.3195349,0,0,-1.3195349,312.19779,483.34477)" />
    <path
       style="fill:#ffeebd;stroke:none;stroke-width:0.13338;stroke-linecap:butt"
       id="path604"
       d="m 183.98627,124.22117 7.57842,13.12622 -15.15685,0 z"
       transform="matrix(1.3195349,0,0,1.3195349,-203.35482,138.19592)" />
    <path
       style="fill:#ffeebd;stroke:none;stroke-width:0.13338;stroke-linecap:butt"
       id="path605"
       d="m 183.98627,124.22117 7.57842,13.12622 -15.15685,0 z"
       transform="matrix(-1.3195349,0,0,-1.3195349,272.19779,483.34477)" />
    <path
       style="fill:#ffeebd;stroke:none;stroke-width:0.13338;stroke-linecap:butt"
       id="path613"
       d="m 183.98627,124.22117 7.57842,13.12622 -15.15685,0 z"
       transform="matrix(-1.3195349,0,0,-1.3195349,302.19779,500.66528)" />
    <path
       style="fill:#ffeebd;stroke:none;stroke-width:0.13338;stroke-linecap:butt"
       id="path617"
       d="m 183.98627,124.22117 7.57842,13.12622 -15.15685,0 z"
       transform="matrix(-1.3195349,0,0,-1.3195349,282.19779,500.66528)" />
  </g>
  <g
     id="layer12"
     style="display:inline"
     transform="translate(-19.421491,-302.1101)">
    <path
       style="fill:#c29100;stroke:none;stroke-width:0.13338;stroke-linecap:butt"
       id="path586"
       d="m 183.98633,125.75586 6.24804,10.82422 h -12.49609 z"
       transform="matrix(-1.3195349,0,0,-1.3195349,292.19779,483.34477)" />
    <path
       style="fill:#c29100;stroke:none;stroke-width:0.13338;stroke-linecap:butt"
       id="path594"
       transform="matrix(1.3195349,0,0,1.3195349,-183.35482,138.19592)"
       d="m 183.98633,125.75586 6.24804,10.82422 h -12.49609 z" />
    <path
       style="fill:#c29100;stroke:none;stroke-width:0.13338;stroke-linecap:butt"
       id="path602"
       transform="matrix(-1.3195349,0,0,-1.3195349,312.19779,483.34477)"
       d="m 183.98633,125.75586 6.24804,10.82422 h -12.49609 z" />
    <path
       style="fill:#c29100;stroke:none;stroke-width:0.13338;stroke-linecap:butt"
       id="path606"
       transform="matrix(1.3195349,0,0,1.3195349,-203.35482,138.19592)"
       d="m 183.98633,125.75586 6.24804,10.82422 h -12.49609 z" />
    <path
       style="fill:#c29100;stroke:none;stroke-width:0.13338;stroke-linecap:butt"
       id="path607"
       transform="matrix(-1.3195349,0,0,-1.3195349,272.19779,483.34477)"
       d="m 183.98633,125.75586 6.24804,10.82422 h -12.49609 z" />
    <path
       style="fill:#c29100;stroke:none;stroke-width:0.13338;stroke-linecap:butt"
       id="path614"
       transform="matrix(-1.3195349,0,0,-1.3195349,302.19779,500.66528)"
       d="m 183.98633,125.75586 6.24804,10.82422 h -12.49609 z" />
    <path
       style="fill:#c29100;stroke:none;stroke-width:0.13338;stroke-linecap:butt"
       id="path618"
       transform="matrix(-1.3195349,0,0,-1.3195349,282.19779,500.66528)"
       d="m 183.98633,125.75586 6.24804,10.82422 h -12.49609 z" />
  </g>
  <g
     id="layer13"
     style="display:inline"
     transform="translate(-19.421491,-302.1101)">
    <path
       style="fill:#ffeebd;stroke:none;stroke-width:0.176;stroke-linecap:butt"
       d="m 179.26758,116.01563 c 2.10236,0 3.76367,1.66131 3.76367,3.76367 0,2.10235 -1.66131,3.76367 -3.76367,3.76367 -2.10236,0 -3.76367,-1.66132 -3.76367,-3.76367 0,-2.10236 1.66131,-3.76368 3.76367,-3.76367 z"
       id="path587"
       transform="translate(-129.84607,188.10425)" />
  </g>
  <g
     id="layer14"
     style="display:inline"
     transform="translate(-19.421491,-302.1101)">
    <path
       d="m 50.776476,308.3951 v 0.5209 q -0.167432,0.009 -0.26355,0.009 -0.08992,0 -0.229444,-0.009 -0.0093,0.0744 -0.0093,0.0899 l 0.0062,0.18604 -0.0031,0.19844 0.0062,0.13642 q 0,0.0372 -0.0093,0.18604 -0.0062,0.0837 -0.0093,0.25115 l -0.266651,-0.003 H 49.8339 q -0.06511,0 -0.09922,-0.003 l -0.05271,-0.006 q -0.0217,0 -0.06821,0.0124 l 0.0062,-0.60152 -0.0124,-0.38757 q 0,-0.0155 0.0062,-0.0589 -0.148828,0.003 -0.443384,0.006 h -0.204639 q -0.263549,0 -0.58601,-0.009 -0.10232,-0.003 -0.133326,-0.003 -0.04651,0 -0.142627,0.006 l -0.0062,-0.0403 0.0093,-0.21394 -0.0062,-0.0682 0.0093,-0.12713 -0.0062,-0.0248 q 0.145728,-0.27595 0.186036,-0.33487 l 0.710034,-1.0914 q 0.238745,-0.35347 0.378271,-0.5364 0.142627,-0.18604 0.198438,-0.27596 0.08682,-0.13952 0.151928,-0.22014 0.09612,-0.12092 0.124024,-0.17053 0.182934,-0.009 0.229443,-0.009 0.05891,0 0.220142,0.009 l 0.0062,0.0372 -0.0124,0.22944 0.0062,0.0806 -0.0093,0.12712 0.0062,0.12712 -0.0062,0.30696 -0.0031,0.13333 0.0031,0.17363 -0.0031,0.16123 0.0031,0.22014 -0.0031,0.21084 0.0031,0.24495 -0.0093,0.5302 q 0.108521,0 0.269751,0.006 h 0.07441 q 0.04961,0 0.148829,-0.006 z m -1.16272,-0.006 q 0.0186,-0.15503 0.0186,-0.23255 0,-0.031 -0.0062,-0.11472 -0.0031,-0.0868 -0.0031,-0.11162 l 0.0093,-0.24184 -0.0062,-0.20774 0.0093,-0.53641 -0.0031,-0.24494 q 0,-0.031 0.0062,-0.14573 -0.0248,0.0372 -0.08682,0.11162 -0.04341,0.0713 -0.07131,0.10542 -0.120923,0.14883 -0.269751,0.36897 l -0.279053,0.44649 q -0.04031,0.062 -0.08992,0.14572 -0.08372,0.13643 -0.201538,0.31316 -0.114722,0.17674 -0.192236,0.34417 0.09302,-0.009 0.127124,-0.009 l 0.148828,0.003 h 0.297656 l 0.415478,0.006 z"
       id="text587"
       style="font-weight:bold;font-size:6.35px;line-height:7.45115px;font-family:Garamond;-inkscape-font-specification:'Garamond Bold';text-align:center;letter-spacing:0px;word-spacing:0px;text-anchor:middle;stroke-width:0.176"
       aria-label="4" />
  </g>
</svg>
