<?xml version="1.0" encoding="UTF-8" standalone="no"?>
<!-- Created with Inkscape (http://www.inkscape.org/) -->

<svg
   width="1.5748034in"
   height="2.045728in"
   viewBox="0 0 40.000005 51.96149"
   version="1.1"
   id="svg1"
   xmlns="http://www.w3.org/2000/svg"
   xmlns:svg="http://www.w3.org/2000/svg">
  <defs
     id="defs1" />
  <g
     id="layer11"
     style="display:inline"
     transform="translate(69.824203,-452.00228)">
    <path
       style="fill:#ffffbd;stroke:none;stroke-width:0.13338;stroke-linecap:butt"
       id="path620"
       d="m 183.98627,124.22117 7.57842,13.12622 -15.15685,0 z"
       transform="matrix(-1.3195349,0,0,-1.3195349,192.95211,650.55742)" />
    <path
       style="fill:#ffffbd;stroke:none;stroke-width:0.13338;stroke-linecap:butt"
       id="path628"
       d="m 183.98627,124.22117 7.57842,13.12622 -15.15685,0 z"
       transform="matrix(1.3195349,0,0,1.3195349,-302.60049,305.40857)" />
    <path
       style="fill:#ffffbd;stroke:none;stroke-width:0.13338;stroke-linecap:butt"
       id="path636"
       d="m 183.98627,124.22117 7.57842,13.12622 -15.15685,0 z"
       transform="matrix(1.3195349,0,0,1.3195349,-292.6005,322.72908)" />
    <path
       style="fill:#ffffbd;stroke:none;stroke-width:0.13338;stroke-linecap:butt"
       id="path638"
       d="m 183.98627,124.22117 7.57842,13.12622 -15.15685,0 z"
       transform="matrix(-1.3195349,0,0,-1.3195349,202.95209,667.87793)" />
    <path
       style="fill:#ffffbd;stroke:none;stroke-width:0.13338;stroke-linecap:butt"
       id="path640"
       d="m 183.98627,124.22117 7.57842,13.12622 -15.15685,0 z"
       transform="matrix(1.3195349,0,0,1.3195349,-292.60049,288.08807)" />
    <path
       style="fill:#ffffbd;stroke:none;stroke-width:0.13338;stroke-linecap:butt"
       id="path641"
       d="m 183.98627,124.22117 7.57842,13.12622 -15.15685,0 z"
       transform="matrix(-1.3195349,0,0,-1.3195349,182.9521,667.87793)" />
    <path
       style="fill:#ffffbd;stroke:none;stroke-width:0.13338;stroke-linecap:butt"
       id="path646"
       d="m 183.98627,124.22117 7.57842,13.12622 -15.15685,0 z"
       transform="matrix(1.3195349,0,0,1.3195349,-282.6005,305.40858)" />
  </g>
  <g
     id="layer12"
     style="display:inline"
     transform="translate(69.824203,-452.00228)">
    <path
       style="fill:#c2c200;stroke:none;stroke-width:0.13338;stroke-linecap:butt"
       id="path621"
       d="m 183.98633,125.75586 6.24804,10.82422 h -12.49609 z"
       transform="matrix(-1.3195349,0,0,-1.3195349,192.95211,650.55742)" />
    <path
       style="fill:#c2c200;stroke:none;stroke-width:0.13338;stroke-linecap:butt"
       id="path629"
       d="m 183.98633,125.75586 6.24804,10.82422 h -12.49609 z"
       transform="matrix(1.3195349,0,0,1.3195349,-302.60049,305.40857)" />
    <path
       style="fill:#c2c200;stroke:none;stroke-width:0.13338;stroke-linecap:butt"
       id="path637"
       d="m 183.98633,125.75586 6.24804,10.82422 h -12.49609 z"
       transform="matrix(1.3195349,0,0,1.3195349,-292.6005,322.72908)" />
    <path
       style="fill:#c2c200;stroke:none;stroke-width:0.13338;stroke-linecap:butt"
       id="path639"
       d="m 183.98633,125.75586 6.24804,10.82422 h -12.49609 z"
       transform="matrix(-1.3195349,0,0,-1.3195349,202.95209,667.87793)" />
    <path
       style="fill:#c2c200;stroke:none;stroke-width:0.13338;stroke-linecap:butt"
       id="path642"
       d="m 183.98633,125.75586 6.24804,10.82422 h -12.49609 z"
       transform="matrix(1.3195349,0,0,1.3195349,-292.60049,288.08807)" />
    <path
       style="fill:#c2c200;stroke:none;stroke-width:0.13338;stroke-linecap:butt"
       id="path643"
       d="m 183.98633,125.75586 6.24804,10.82422 h -12.49609 z"
       transform="matrix(-1.3195349,0,0,-1.3195349,182.9521,667.87793)" />
    <path
       style="fill:#c2c200;stroke:none;stroke-width:0.13338;stroke-linecap:butt"
       id="path647"
       d="m 183.98633,125.75586 6.24804,10.82422 h -12.49609 z"
       transform="matrix(1.3195349,0,0,1.3195349,-282.6005,305.40858)" />
  </g>
  <g
     id="layer13"
     style="display:inline"
     transform="translate(69.824203,-452.00228)">
    <path
       style="fill:#ffffbd;stroke:none;stroke-width:0.176;stroke-linecap:butt"
       d="m 179.26758,116.01563 c 2.10236,0 3.76367,1.66131 3.76367,3.76367 0,2.10235 -1.66131,3.76367 -3.76367,3.76367 -2.10236,0 -3.76367,-1.66132 -3.76367,-3.76367 0,-2.10236 1.66131,-3.76368 3.76367,-3.76367 z"
       id="path622"
       transform="translate(-229.09177,355.31689)" />
  </g>
  <g
     id="layer14"
     style="display:inline"
     transform="translate(69.824203,-452.00228)">
    <path
       d="m -48.999414,473.03733 0.114722,-0.003 q 0.0217,0 0.111621,0.003 -0.130225,0.62322 -0.189136,0.72244 -0.03721,0.062 -0.07441,0.0682 -0.37207,0.0155 -0.393775,0.0155 h -0.08371 l -0.198438,0.003 q -0.04961,0 -0.148828,-0.006 -0.260449,-0.009 -0.378271,-0.009 -0.03411,0 -0.10232,0.003 -0.0124,0.0868 -0.0124,0.12402 l -0.0155,0.40308 -0.0124,0.29145 q 0.133325,-0.0651 0.279052,-0.0961 0.148828,-0.0341 0.306958,-0.0341 0.232544,0 0.452686,0.0899 0.223242,0.0899 0.390674,0.25424 0.124023,0.12403 0.241845,0.33177 0.08372,0.14883 0.09302,0.22324 0.03721,0.27285 0.03721,0.28835 0,0.23875 -0.05271,0.43719 -0.04961,0.19533 -0.223242,0.43718 -0.173633,0.24185 -0.313159,0.33486 -0.21084,0.14263 -0.458887,0.19844 -0.244946,0.0589 -0.601514,0.0589 -0.418579,0 -0.700732,-0.20154 -0.167432,-0.12092 -0.167432,-0.30385 0,-0.13333 0.09612,-0.22945 0.09922,-0.0961 0.241846,-0.0961 0.220142,0 0.446485,0.28216 0.133325,0.17053 0.201538,0.20774 0.10542,0.0589 0.238745,0.0589 0.176733,0 0.344165,-0.10542 0.170532,-0.10852 0.275952,-0.32556 0.10852,-0.22015 0.10852,-0.40928 0,-0.32556 -0.223242,-0.55811 -0.220141,-0.23564 -0.527099,-0.23564 -0.15813,0 -0.275953,0.0372 -0.05891,0.0186 -0.220141,0.12712 l -0.133325,0.0868 q -0.03721,0.0155 -0.07131,0.0155 -0.04651,0 -0.07751,-0.0248 -0.02171,-0.0217 -0.02171,-0.0589 l 0.03721,-0.98288 q 0,-0.0651 0.0062,-0.11472 0.0062,-0.0496 0.0093,-0.25735 0.0062,-0.21084 0.0124,-0.30076 0.0093,-0.13332 0.0124,-0.22014 0,-0.062 0.0062,-0.12092 0.0031,-0.0403 0.0031,-0.0589 l -0.0031,-0.11473 q 0,-0.0713 0.09922,-0.10232 0.05271,-0.0155 0.496094,-0.0155 l 0.713135,0.009 q 0.170532,0 0.217041,-0.0217 0.04961,-0.0248 0.08682,-0.10542 z"
       id="text622"
       style="font-weight:bold;font-size:6.35px;line-height:7.45115px;font-family:Garamond;-inkscape-font-specification:'Garamond Bold';text-align:center;letter-spacing:0px;word-spacing:0px;text-anchor:middle;stroke-width:0.176"
       aria-label="5" />
  </g>
</svg>
