<?xml version="1.0" encoding="UTF-8" standalone="no"?>
<!-- Created with Inkscape (http://www.inkscape.org/) -->

<svg
   width="1.9685042in"
   height="2.0457292in"
   viewBox="0 0 50.000006 51.961521"
   version="1.1"
   id="svg1"
   xmlns="http://www.w3.org/2000/svg"
   xmlns:svg="http://www.w3.org/2000/svg">
  <defs
     id="defs1" />
  <g
     id="layer11"
     style="display:inline"
     transform="translate(-29.002832,-349.46974)">
    <path
       style="fill:#eeffbd;stroke:none;stroke-width:0.13338;stroke-linecap:butt"
       id="path648"
       d="m 183.98627,124.22117 7.57842,13.12622 -15.15685,0 z"
       transform="matrix(-1.3195349,0,0,-1.3195349,291.77913,548.02493)" />
    <path
       style="fill:#eeffbd;stroke:none;stroke-width:0.13338;stroke-linecap:butt"
       id="path657"
       d="m 183.98627,124.22117 7.57842,13.12622 -15.15685,0 z"
       transform="matrix(1.3195349,0,0,1.3195349,-183.77347,202.87608)" />
    <path
       style="fill:#eeffbd;stroke:none;stroke-width:0.13338;stroke-linecap:butt"
       id="path666"
       d="m 183.98627,124.22117 7.57842,13.12622 -15.15685,0 z"
       transform="matrix(-1.3195349,0,0,-1.3195349,311.77913,548.02493)" />
    <path
       style="fill:#eeffbd;stroke:none;stroke-width:0.13338;stroke-linecap:butt"
       id="path668"
       d="m 183.98627,124.22117 7.57842,13.12622 -15.15685,0 z"
       transform="matrix(1.3195349,0,0,1.3195349,-203.77347,202.87608)" />
    <path
       style="fill:#eeffbd;stroke:none;stroke-width:0.13338;stroke-linecap:butt"
       id="path670"
       d="m 183.98627,124.22117 7.57842,13.12622 -15.15685,0 z"
       transform="matrix(1.3195349,0,0,1.3195349,-193.77347,185.55557)" />
    <path
       style="fill:#eeffbd;stroke:none;stroke-width:0.13338;stroke-linecap:butt"
       id="path672"
       d="m 183.98627,124.22117 7.57842,13.12622 -15.15685,0 z"
       transform="matrix(-1.3195349,0,0,-1.3195349,281.77913,530.70442)" />
    <path
       style="fill:#eeffbd;stroke:none;stroke-width:0.13338;stroke-linecap:butt"
       id="path674"
       d="m 183.98627,124.22117 7.57842,13.12622 -15.15685,0 z"
       transform="matrix(-1.3195349,0,0,-1.3195349,281.77913,565.34544)" />
  </g>
  <g
     id="layer12"
     style="display:inline"
     transform="translate(-29.002832,-349.46974)">
    <path
       style="fill:#91c200;stroke:none;stroke-width:0.13338;stroke-linecap:butt"
       id="path649"
       d="m 183.98633,125.75586 6.24804,10.82422 h -12.49609 z"
       transform="matrix(-1.3195349,0,0,-1.3195349,291.77913,548.02493)" />
    <path
       style="fill:#91c200;stroke:none;stroke-width:0.13338;stroke-linecap:butt"
       id="path658"
       d="m 183.98633,125.75586 6.24804,10.82422 h -12.49609 z"
       transform="matrix(1.3195349,0,0,1.3195349,-183.77347,202.87608)" />
    <path
       style="fill:#91c200;stroke:none;stroke-width:0.13338;stroke-linecap:butt"
       id="path667"
       d="m 183.98633,125.75586 6.24804,10.82422 h -12.49609 z"
       transform="matrix(-1.3195349,0,0,-1.3195349,311.77913,548.02493)" />
    <path
       style="fill:#91c200;stroke:none;stroke-width:0.13338;stroke-linecap:butt"
       id="path669"
       d="m 183.98633,125.75586 6.24804,10.82422 h -12.49609 z"
       transform="matrix(1.3195349,0,0,1.3195349,-203.77347,202.87608)" />
    <path
       style="fill:#91c200;stroke:none;stroke-width:0.13338;stroke-linecap:butt"
       id="path671"
       d="m 183.98633,125.75586 6.24804,10.82422 h -12.49609 z"
       transform="matrix(1.3195349,0,0,1.3195349,-193.77347,185.55557)" />
    <path
       style="fill:#91c200;stroke:none;stroke-width:0.13338;stroke-linecap:butt"
       id="path673"
       d="m 183.98633,125.75586 6.24804,10.82422 h -12.49609 z"
       transform="matrix(-1.3195349,0,0,-1.3195349,281.77913,530.70442)" />
    <path
       style="fill:#91c200;stroke:none;stroke-width:0.13338;stroke-linecap:butt"
       id="path675"
       d="m 183.98633,125.75586 6.24804,10.82422 h -12.49609 z"
       transform="matrix(-1.3195349,0,0,-1.3195349,281.77913,565.34544)" />
  </g>
  <g
     id="layer13"
     style="display:inline"
     transform="translate(-29.002832,-349.46974)">
    <path
       style="fill:#eeffbd;stroke:none;stroke-width:0.176;stroke-linecap:butt"
       d="m 179.26758,116.01563 c 2.10236,0 3.76367,1.66131 3.76367,3.76367 0,2.10235 -1.66131,3.76367 -3.76367,3.76367 -2.10236,0 -3.76367,-1.66132 -3.76367,-3.76367 0,-2.10236 1.66131,-3.76368 3.76367,-3.76367 z"
       id="path650"
       transform="translate(-130.26474,252.7844)" />
  </g>
  <g
     id="layer14"
     style="display:inline"
     transform="translate(-29.002832,-349.46974)">
    <path
       style="display:inline;fill:#ffffff;stroke:#000000;stroke-width:0.25;stroke-linecap:butt;stroke-dasharray:none"
       d="m 47.716102,375.33715 h 2.6045"
       id="path651" />
    <path
       d="m 48.773372,372.52335 q -0.003,-0.0682 -0.003,-0.10232 0,-0.0341 0.003,-0.10542 0.0248,-0.006 0.11472,-0.0465 0.21394,-0.0961 0.42789,-0.0961 0.42478,0 0.71313,0.31626 0.29146,0.31626 0.29146,0.86196 0,0.59221 -0.35347,0.94258 -0.35037,0.35037 -0.97049,0.35037 -0.27905,0 -0.49609,-0.11473 -0.21704,-0.11472 -0.38447,-0.32246 -0.16743,-0.21084 -0.25735,-0.43718 -0.14263,-0.37207 -0.14263,-0.80305 0,-0.36897 0.12713,-0.78445 0.12712,-0.41548 0.38447,-0.72864 0.26045,-0.31626 0.58911,-0.5209 0.32866,-0.20773 0.57981,-0.30075 0.48369,-0.17674 0.73174,-0.17674 0.0465,0 0.0713,0.031 0.0279,0.031 0.0279,0.0961 0,0.0682 -0.0155,0.10852 -0.0651,0.0279 -0.23874,0.0682 -0.39377,0.0992 -0.68833,0.32866 -0.29456,0.22945 -0.43718,0.47439 -0.19534,0.33797 -0.26975,0.75965 -0.0744,0.41858 -0.0744,0.83095 0,0.46509 0.0589,0.76275 0.062,0.29455 0.20774,0.42168 0.0992,0.0806 0.28216,0.0806 0.10542,0 0.16433,-0.031 0.13332,-0.0682 0.19223,-0.14883 0.10852,-0.15193 0.14263,-0.35657 0.0372,-0.20464 0.0372,-0.42788 0,-0.5612 -0.15813,-0.77204 -0.15503,-0.21084 -0.38758,-0.21084 -0.10232,0 -0.26975,0.0527 z"
       id="text651"
       style="font-weight:bold;font-size:6.35px;line-height:7.45115px;font-family:Garamond;-inkscape-font-specification:'Garamond Bold';text-align:center;letter-spacing:0px;word-spacing:0px;text-anchor:middle;stroke-width:0.176"
       aria-label="6" />
  </g>
</svg>
