<?xml version="1.0" encoding="UTF-8" standalone="no"?>
<!-- Created with Inkscape (http://www.inkscape.org/) -->

<svg
   width="2.7559056in"
   height="1.3638204in"
   viewBox="0 0 70.000003 34.641039"
   version="1.1"
   id="svg1"
   xmlns="http://www.w3.org/2000/svg"
   xmlns:svg="http://www.w3.org/2000/svg">
  <defs
     id="defs1" />
  <g
     id="layer11"
     style="display:inline"
     transform="translate(-19.016002,-422.26308)">
    <path
       style="fill:#deffbd;stroke:none;stroke-width:0.13338;stroke-linecap:butt"
       id="path2"
       d="m 183.98627,124.22117 7.57842,13.12622 -15.15685,0 z"
       transform="matrix(-1.3195349,0,0,-1.3195349,291.7923,620.81825)" />
    <path
       style="fill:#deffbd;stroke:none;stroke-width:0.13338;stroke-linecap:butt"
       id="path17"
       d="m 183.98627,124.22117 7.57842,13.12622 -15.15685,0 z"
       transform="matrix(-1.3195349,0,0,-1.3195349,311.7923,620.81825)" />
    <path
       style="fill:#deffbd;stroke:none;stroke-width:0.13338;stroke-linecap:butt"
       id="path59"
       d="m 183.98627,124.22117 7.57842,13.12622 -15.15685,0 z"
       transform="matrix(-1.3195349,0,0,1.3195349,321.7923,275.6694)" />
    <path
       style="fill:#deffbd;stroke:none;stroke-width:0.13338;stroke-linecap:butt"
       id="path63"
       d="m 183.98627,124.22117 7.57842,13.12622 -15.15685,0 z"
       transform="matrix(-1.3195349,0,0,1.3195349,301.7923,275.6694)" />
    <path
       style="fill:#deffbd;stroke:none;stroke-width:0.13338;stroke-linecap:butt"
       id="path99"
       d="m 183.98627,124.22117 7.57842,13.12622 -15.15685,0 z"
       transform="matrix(-1.3195349,0,0,-1.3195349,271.7923,620.81825)" />
    <path
       style="fill:#deffbd;stroke:none;stroke-width:0.13338;stroke-linecap:butt"
       id="path100"
       d="m 183.98627,124.22117 7.57842,13.12622 -15.15685,0 z"
       transform="matrix(-1.3195349,0,0,1.3195349,281.7923,275.6694)" />
    <path
       style="fill:#deffbd;stroke:none;stroke-width:0.13338;stroke-linecap:butt"
       id="path118"
       d="m 183.98627,124.22117 7.57842,13.12622 -15.15685,0 z"
       transform="matrix(-1.3195349,0,0,1.3195349,271.7923,258.34889)" />
  </g>
  <g
     id="layer12"
     style="display:inline"
     transform="translate(-19.016002,-422.26308)">
    <path
       style="fill:#61c200;stroke:none;stroke-width:0.13338;stroke-linecap:butt"
       id="path3"
       d="m 183.98633,125.75586 6.24804,10.82422 h -12.49609 z"
       transform="matrix(-1.3195349,0,0,-1.3195349,291.7923,620.81825)" />
    <path
       style="fill:#61c200;stroke:none;stroke-width:0.13338;stroke-linecap:butt"
       id="path18"
       d="m 183.98633,125.75586 6.24804,10.82422 h -12.49609 z"
       transform="matrix(-1.3195349,0,0,-1.3195349,311.7923,620.81825)" />
    <path
       style="fill:#61c200;stroke:none;stroke-width:0.13338;stroke-linecap:butt"
       id="path60"
       d="m 183.98633,125.75586 6.24804,10.82422 h -12.49609 z"
       transform="matrix(-1.3195349,0,0,1.3195349,321.7923,275.6694)" />
    <path
       style="fill:#61c200;stroke:none;stroke-width:0.13338;stroke-linecap:butt"
       id="path64"
       d="m 183.98633,125.75586 6.24804,10.82422 h -12.49609 z"
       transform="matrix(-1.3195349,0,0,1.3195349,301.7923,275.6694)" />
    <path
       style="fill:#61c200;stroke:none;stroke-width:0.13338;stroke-linecap:butt"
       id="path107"
       d="m 183.98633,125.75586 6.24804,10.82422 h -12.49609 z"
       transform="matrix(-1.3195349,0,0,-1.3195349,271.7923,620.81825)" />
    <path
       style="fill:#61c200;stroke:none;stroke-width:0.13338;stroke-linecap:butt"
       id="path108"
       d="m 183.98633,125.75586 6.24804,10.82422 h -12.49609 z"
       transform="matrix(-1.3195349,0,0,1.3195349,281.7923,275.6694)" />
    <path
       style="fill:#61c200;stroke:none;stroke-width:0.13338;stroke-linecap:butt"
       id="path119"
       d="m 183.98633,125.75586 6.24804,10.82422 h -12.49609 z"
       transform="matrix(-1.3195349,0,0,1.3195349,271.7923,258.34889)" />
  </g>
  <g
     id="layer13"
     style="display:inline"
     transform="translate(-19.016002,-422.26308)">
    <path
       style="fill:#deffbd;stroke:none;stroke-width:0.176;stroke-linecap:butt"
       d="m 179.26758,116.01563 c 2.10236,0 3.76367,1.66131 3.76367,3.76367 0,2.10235 -1.66131,3.76367 -3.76367,3.76367 -2.10236,0 -3.76367,-1.66132 -3.76367,-3.76367 0,-2.10236 1.66131,-3.76368 3.76367,-3.76367 z"
       id="path4"
       transform="translate(-130.25156,325.57772)" />
  </g>
  <g
     id="layer14"
     style="display:inline"
     transform="translate(-19.016002,-422.26308)">
    <path
       d="m 47.862618,443.38805 q 0.12402,0 0.38757,-0.009 l 0.75965,0.0155 0.64182,-0.009 0.36897,0.003 0.12712,-0.006 q 0.0403,0 0.11782,0.006 0.009,0.11472 0.009,0.18913 0,0.0899 -0.12713,0.43409 -0.0899,0.24184 -0.16433,0.46818 -0.0713,0.22635 -0.10852,0.32557 -0.0868,0.22324 -0.13643,0.38757 -0.0527,0.12712 -0.11782,0.31006 l -0.15193,0.42478 q -0.0372,0.11162 -0.14572,0.39687 l -0.24805,0.68833 q -0.031,0.0682 -0.031,0.10542 0,0.0496 0.0651,0.0992 0.0682,0.0465 0.0682,0.093 0,0.0589 -0.0527,0.12402 h -0.0806 l -0.23254,-0.003 q -0.0186,-0.003 -0.10852,0 -0.0899,0.006 -0.14263,0.006 -0.0403,0 -0.12402,-0.003 0.009,-0.093 0.12712,-0.33796 0.0682,-0.14573 0.30076,-0.75964 l 0.555,-1.44488 0.13953,-0.36897 q 0.0403,-0.0837 0.0899,-0.23254 0.0155,-0.0465 0.0589,-0.16123 -0.30386,-0.0155 -0.49299,-0.0155 l -0.46199,0.006 -0.36897,-0.006 q -0.17363,0 -0.23565,0.0496 -0.062,0.0465 -0.0868,0.17053 -0.0248,0.12402 -0.0651,0.15813 -0.0372,0.031 -0.13023,0.031 -0.0527,0 -0.0806,-0.031 -0.0279,-0.031 -0.0279,-0.0899 0,-0.14883 0.0372,-0.45579 0.0217,-0.15503 0.0341,-0.30075 0.0155,-0.14883 0.0341,-0.25735 z"
       id="text4"
       style="font-weight:bold;font-size:6.35px;line-height:7.45115px;font-family:Garamond;-inkscape-font-specification:'Garamond Bold';text-align:center;letter-spacing:0px;word-spacing:0px;text-anchor:middle;stroke-width:0.176"
       aria-label="7" />
  </g>
</svg>
