<?xml version="1.0" encoding="UTF-8" standalone="no"?>
<!-- Created with Inkscape (http://www.inkscape.org/) -->

<svg
   width="2.7559056in"
   height="1.3638191in"
   viewBox="0 0 70.000003 34.641006"
   version="1.1"
   id="svg1"
   xmlns="http://www.w3.org/2000/svg"
   xmlns:svg="http://www.w3.org/2000/svg">
  <defs
     id="defs1" />
  <g
     id="layer11"
     style="display:inline"
     transform="translate(-17.517013,-472.31473)">
    <path
       style="fill:#cdffbd;stroke:none;stroke-width:0.13338;stroke-linecap:butt"
       id="path412"
       d="m 183.98627,124.22117 7.57842,13.12622 -15.15685,0 z"
       transform="matrix(-1.3195349,0,0,-1.3195349,290.29331,653.54942)" />
    <path
       style="fill:#cdffbd;stroke:none;stroke-width:0.13338;stroke-linecap:butt"
       id="path413"
       d="m 183.98627,124.22117 7.57842,13.12622 -15.15685,0 z"
       transform="matrix(1.3195349,0,0,-1.3195349,-175.25929,653.54942)" />
    <path
       style="fill:#cdffbd;stroke:none;stroke-width:0.13338;stroke-linecap:butt"
       id="path414"
       d="m 183.98627,124.22117 7.57842,13.12622 -15.15685,0 z"
       transform="matrix(1.3195349,0,0,1.3195349,-215.25929,325.72107)" />
    <path
       style="fill:#cdffbd;stroke:none;stroke-width:0.13338;stroke-linecap:butt"
       id="path415"
       d="m 183.98627,124.22117 7.57842,13.12622 -15.15685,0 z"
       transform="matrix(1.3195349,0,0,-1.3195349,-205.25929,670.86992)" />
    <path
       style="fill:#cdffbd;stroke:none;stroke-width:0.13338;stroke-linecap:butt"
       id="path416"
       d="m 183.98627,124.22117 7.57842,13.12622 -15.15685,0 z"
       transform="matrix(1.3195349,0,0,1.3195349,-205.25929,308.40057)" />
    <path
       style="fill:#cdffbd;stroke:none;stroke-width:0.13338;stroke-linecap:butt"
       id="path417"
       d="m 183.98627,124.22117 7.57842,13.12622 -15.15685,0 z"
       transform="matrix(1.3195349,0,0,1.3195349,-165.25929,308.40057)" />
    <path
       style="fill:#cdffbd;stroke:none;stroke-width:0.13338;stroke-linecap:butt"
       id="path418"
       d="m 183.98627,124.22117 7.57842,13.12622 -15.15685,0 z"
       transform="matrix(1.3195349,0,0,1.3195349,-185.25929,308.40057)" />
  </g>
  <g
     id="layer12"
     style="display:inline"
     transform="translate(-17.517013,-472.31473)">
    <path
       style="fill:#30c200;stroke:none;stroke-width:0.13338;stroke-linecap:butt"
       id="path419"
       d="m 183.98633,125.75586 6.24804,10.82422 h -12.49609 z"
       transform="matrix(-1.3195349,0,0,-1.3195349,290.29331,653.54942)" />
    <path
       style="fill:#30c200;stroke:none;stroke-width:0.13338;stroke-linecap:butt"
       id="path420"
       d="m 183.98633,125.75586 6.24804,10.82422 h -12.49609 z"
       transform="matrix(1.3195349,0,0,-1.3195349,-175.25929,653.54942)" />
    <path
       style="fill:#30c200;stroke:none;stroke-width:0.13338;stroke-linecap:butt"
       id="path421"
       d="m 183.98633,125.75586 6.24804,10.82422 h -12.49609 z"
       transform="matrix(1.3195349,0,0,1.3195349,-215.25929,325.72107)" />
    <path
       style="fill:#30c200;stroke:none;stroke-width:0.13338;stroke-linecap:butt"
       id="path422"
       d="m 183.98633,125.75586 6.24804,10.82422 h -12.49609 z"
       transform="matrix(1.3195349,0,0,-1.3195349,-205.25929,670.86992)" />
    <path
       style="fill:#30c200;stroke:none;stroke-width:0.13338;stroke-linecap:butt"
       id="path423"
       d="m 183.98633,125.75586 6.24804,10.82422 h -12.49609 z"
       transform="matrix(1.3195349,0,0,1.3195349,-205.25929,308.40057)" />
    <path
       style="fill:#30c200;stroke:none;stroke-width:0.13338;stroke-linecap:butt"
       id="path424"
       d="m 183.98633,125.75586 6.24804,10.82422 h -12.49609 z"
       transform="matrix(1.3195349,0,0,1.3195349,-165.25929,308.40057)" />
    <path
       style="fill:#30c200;stroke:none;stroke-width:0.13338;stroke-linecap:butt"
       id="path425"
       d="m 183.98633,125.75586 6.24804,10.82422 h -12.49609 z"
       transform="matrix(1.3195349,0,0,1.3195349,-185.25929,308.40057)" />
  </g>
  <g
     id="layer13"
     style="display:inline"
     transform="translate(-17.517013,-472.31473)">
    <path
       style="fill:#cdffbd;stroke:none;stroke-width:0.176;stroke-linecap:butt"
       d="m 179.26758,116.01563 c 2.10236,0 3.76367,1.66131 3.76367,3.76367 0,2.10235 -1.66131,3.76367 -3.76367,3.76367 -2.10236,0 -3.76367,-1.66132 -3.76367,-3.76367 0,-2.10236 1.66131,-3.76368 3.76367,-3.76367 z"
       id="path426"
       transform="translate(-131.75057,358.30889)" />
  </g>
  <g
     id="layer14"
     style="display:inline"
     transform="translate(-17.517013,-472.31473)">
    <path
       d="m 47.092259,478.16564 q -0.362768,-0.18914 -0.533301,-0.46509 -0.167431,-0.27905 -0.167431,-0.49609 0,-0.18294 0.05891,-0.40308 0.06201,-0.22324 0.207739,-0.38757 0.148828,-0.16744 0.384473,-0.27596 0.235644,-0.11162 0.496094,-0.11162 0.489892,0 0.79685,0.27906 0.310059,0.27905 0.310059,0.69143 0,0.20153 -0.133325,0.41858 -0.130225,0.21394 -0.269751,0.28835 l -0.226343,0.13643 q 0,0.0155 0.167431,0.10852 0.170533,0.0899 0.378272,0.34726 0.145727,0.18604 0.189136,0.31316 0.04651,0.12713 0.04651,0.32556 0,0.29766 -0.05581,0.44339 -0.03411,0.0868 -0.142627,0.25424 -0.10542,0.16434 -0.182935,0.22945 -0.158129,0.13022 -0.443383,0.23564 -0.186036,0.0713 -0.412378,0.0713 -0.266651,0 -0.499195,-0.0558 -0.167431,-0.0403 -0.285254,-0.12713 -0.179834,-0.13332 -0.257348,-0.23564 -0.07751,-0.10232 -0.133325,-0.25115 -0.07441,-0.20464 -0.07441,-0.40618 0,-0.33486 0.263549,-0.60771 0.164331,-0.17364 0.517798,-0.31936 z M 47.3093,477.4339 q 0.09302,0.0651 0.489893,0.27285 l 0.06201,-0.062 q 0.124023,-0.12402 0.170532,-0.24185 0.06821,-0.17363 0.06821,-0.41548 0,-0.32556 -0.161231,-0.49919 -0.16123,-0.17363 -0.406177,-0.17363 -0.244946,0 -0.412378,0.16433 -0.167431,0.16123 -0.167431,0.39377 0,0.16433 0.08372,0.29766 0.08372,0.13332 0.272851,0.26355 z m 0,0.87746 q -0.04961,0 -0.201538,0.17364 -0.204639,0.23874 -0.204639,0.58911 0,0.37827 0.192237,0.59221 0.195337,0.21084 0.471289,0.21084 0.291455,0 0.455786,-0.16433 0.167432,-0.16433 0.167432,-0.44959 0,-0.22944 -0.111621,-0.39377 -0.108521,-0.16433 -0.424781,-0.35967 -0.313159,-0.19844 -0.344165,-0.19844 z"
       id="text426"
       style="font-weight:bold;font-size:6.35px;line-height:7.45115px;font-family:Garamond;-inkscape-font-specification:'Garamond Bold';text-align:center;letter-spacing:0px;word-spacing:0px;text-anchor:middle;stroke-width:0.176"
       aria-label="8" />
  </g>
</svg>
