<?xml version="1.0" encoding="UTF-8" standalone="no"?>
<!-- Created with Inkscape (http://www.inkscape.org/) -->

<svg
   width="2.7559052in"
   height="1.3638191in"
   viewBox="0 0 69.999991 34.641006"
   version="1.1"
   id="svg1"
   xmlns="http://www.w3.org/2000/svg"
   xmlns:svg="http://www.w3.org/2000/svg">
  <defs
     id="defs1" />
  <g
     id="layer11"
     style="display:inline"
     transform="translate(-97.156181,-471.64975)">
    <path
       style="fill:#cdffbd;stroke:none;stroke-width:0.13338;stroke-linecap:butt"
       id="path215"
       d="m 183.98627,124.22117 7.57842,13.12622 -15.15685,0 z"
       transform="matrix(-1.3195349,0,0,-1.3195349,379.93248,652.88444)" />
    <path
       style="fill:#cdffbd;stroke:none;stroke-width:0.13338;stroke-linecap:butt"
       id="path303"
       d="m 183.98627,124.22117 7.57842,13.12622 -15.15685,0 z"
       transform="matrix(-1.3195349,0,0,-1.3195349,359.93248,652.88444)" />
    <path
       style="fill:#cdffbd;stroke:none;stroke-width:0.13338;stroke-linecap:butt"
       id="path365"
       d="m 183.98627,124.22117 7.57842,13.12622 -15.15685,0 z"
       transform="matrix(-1.3195349,0,0,1.3195349,399.93248,325.05609)" />
    <path
       style="fill:#cdffbd;stroke:none;stroke-width:0.13338;stroke-linecap:butt"
       id="path369"
       d="m 183.98627,124.22117 7.57842,13.12622 -15.15685,0 z"
       transform="matrix(-1.3195349,0,0,-1.3195349,389.93248,670.20494)" />
    <path
       style="fill:#cdffbd;stroke:none;stroke-width:0.13338;stroke-linecap:butt"
       id="path377"
       d="m 183.98627,124.22117 7.57842,13.12622 -15.15685,0 z"
       transform="matrix(-1.3195349,0,0,1.3195349,389.93248,307.73559)" />
    <path
       style="fill:#cdffbd;stroke:none;stroke-width:0.13338;stroke-linecap:butt"
       id="path378"
       d="m 183.98627,124.22117 7.57842,13.12622 -15.15685,0 z"
       transform="matrix(-1.3195349,0,0,1.3195349,349.93248,307.73559)" />
    <path
       style="fill:#cdffbd;stroke:none;stroke-width:0.13338;stroke-linecap:butt"
       id="path379"
       d="m 183.98627,124.22117 7.57842,13.12622 -15.15685,0 z"
       transform="matrix(-1.3195349,0,0,1.3195349,369.93248,307.73559)" />
  </g>
  <g
     id="layer12"
     style="display:inline"
     transform="translate(-97.156181,-471.64975)">
    <path
       style="fill:#30c200;stroke:none;stroke-width:0.13338;stroke-linecap:butt"
       id="path216"
       d="m 183.98633,125.75586 6.24804,10.82422 h -12.49609 z"
       transform="matrix(-1.3195349,0,0,-1.3195349,379.93248,652.88444)" />
    <path
       style="fill:#30c200;stroke:none;stroke-width:0.13338;stroke-linecap:butt"
       id="path304"
       d="m 183.98633,125.75586 6.24804,10.82422 h -12.49609 z"
       transform="matrix(-1.3195349,0,0,-1.3195349,359.93248,652.88444)" />
    <path
       style="fill:#30c200;stroke:none;stroke-width:0.13338;stroke-linecap:butt"
       id="path366"
       d="m 183.98633,125.75586 6.24804,10.82422 h -12.49609 z"
       transform="matrix(-1.3195349,0,0,1.3195349,399.93248,325.05609)" />
    <path
       style="fill:#30c200;stroke:none;stroke-width:0.13338;stroke-linecap:butt"
       id="path370"
       d="m 183.98633,125.75586 6.24804,10.82422 h -12.49609 z"
       transform="matrix(-1.3195349,0,0,-1.3195349,389.93248,670.20494)" />
    <path
       style="fill:#30c200;stroke:none;stroke-width:0.13338;stroke-linecap:butt"
       id="path380"
       d="m 183.98633,125.75586 6.24804,10.82422 h -12.49609 z"
       transform="matrix(-1.3195349,0,0,1.3195349,389.93248,307.73559)" />
    <path
       style="fill:#30c200;stroke:none;stroke-width:0.13338;stroke-linecap:butt"
       id="path381"
       d="m 183.98633,125.75586 6.24804,10.82422 h -12.49609 z"
       transform="matrix(-1.3195349,0,0,1.3195349,349.93248,307.73559)" />
    <path
       style="fill:#30c200;stroke:none;stroke-width:0.13338;stroke-linecap:butt"
       id="path382"
       d="m 183.98633,125.75586 6.24804,10.82422 h -12.49609 z"
       transform="matrix(-1.3195349,0,0,1.3195349,369.93248,307.73559)" />
  </g>
  <g
     id="layer13"
     style="display:inline"
     transform="translate(-97.156181,-471.64975)">
    <path
       style="fill:#cdffbd;stroke:none;stroke-width:0.176;stroke-linecap:butt"
       d="m 179.26758,116.01563 c 2.10236,0 3.76367,1.66131 3.76367,3.76367 0,2.10235 -1.66131,3.76367 -3.76367,3.76367 -2.10236,0 -3.76367,-1.66132 -3.76367,-3.76367 0,-2.10236 1.66131,-3.76368 3.76367,-3.76367 z"
       id="path217"
       transform="translate(-42.111395,357.64393)" />
  </g>
  <g
     id="layer14"
     style="display:inline"
     transform="translate(-97.156181,-471.64975)">
    <path
       d="m 136.73146,477.50069 q -0.36277,-0.18914 -0.5333,-0.46509 -0.16743,-0.27905 -0.16743,-0.49609 0,-0.18294 0.0589,-0.40308 0.062,-0.22324 0.20774,-0.38757 0.14882,-0.16743 0.38447,-0.27595 0.23564,-0.11162 0.49609,-0.11162 0.48989,0 0.79685,0.27905 0.31006,0.27905 0.31006,0.69143 0,0.20154 -0.13332,0.41858 -0.13023,0.21394 -0.26976,0.28835 l -0.22634,0.13643 q 0,0.0155 0.16743,0.10852 0.17054,0.0899 0.37828,0.34726 0.14572,0.18604 0.18913,0.31316 0.0465,0.12713 0.0465,0.32557 0,0.29765 -0.0558,0.44338 -0.0341,0.0868 -0.14263,0.25425 -0.10542,0.16433 -0.18293,0.22944 -0.15813,0.13022 -0.44339,0.23564 -0.18603,0.0713 -0.41237,0.0713 -0.26665,0 -0.4992,-0.0558 -0.16743,-0.0403 -0.28525,-0.12713 -0.17984,-0.13332 -0.25735,-0.23564 -0.0775,-0.10232 -0.13333,-0.25115 -0.0744,-0.20464 -0.0744,-0.40618 0,-0.33486 0.26355,-0.60771 0.16433,-0.17363 0.5178,-0.31936 z m 0.21704,-0.73174 q 0.093,0.0651 0.48989,0.27285 l 0.062,-0.062 q 0.12403,-0.12402 0.17054,-0.24184 0.0682,-0.17364 0.0682,-0.41548 0,-0.32556 -0.16123,-0.4992 -0.16123,-0.17363 -0.40618,-0.17363 -0.24495,0 -0.41238,0.16433 -0.16743,0.16123 -0.16743,0.39378 0,0.16433 0.0837,0.29765 0.0837,0.13333 0.27285,0.26355 z m 0,0.87747 q -0.0496,0 -0.20154,0.17363 -0.20464,0.23875 -0.20464,0.58911 0,0.37827 0.19224,0.59221 0.19534,0.21084 0.47129,0.21084 0.29145,0 0.45578,-0.16433 0.16743,-0.16433 0.16743,-0.44958 0,-0.22945 -0.11162,-0.39378 -0.10852,-0.16433 -0.42478,-0.35967 -0.31316,-0.19843 -0.34416,-0.19843 z"
       id="text236"
       style="font-weight:bold;font-size:6.35px;line-height:7.45115px;font-family:Garamond;-inkscape-font-specification:'Garamond Bold';text-align:center;letter-spacing:0px;word-spacing:0px;text-anchor:middle;stroke-width:0.176"
       aria-label="8" />
  </g>
</svg>
