<?xml version="1.0" encoding="UTF-8" standalone="no"?>
<!-- Created with Inkscape (http://www.inkscape.org/) -->

<svg
   width="2.7559052in"
   height="1.3638191in"
   viewBox="0 0 69.999991 34.641006"
   version="1.1"
   id="svg1"
   xmlns="http://www.w3.org/2000/svg"
   xmlns:svg="http://www.w3.org/2000/svg">
  <defs
     id="defs1" />
  <g
     id="layer11"
     style="display:inline"
     transform="translate(-184.57152,-300.87036)">
    <path
       style="fill:#bdffbd;stroke:none;stroke-width:0.13338;stroke-linecap:butt"
       id="path513"
       d="m 183.98627,124.22117 7.57842,13.12622 -15.15685,0 z"
       transform="matrix(-1.3195349,0,0,-1.3195349,457.34781,499.42554)" />
    <path
       style="fill:#bdffbd;stroke:none;stroke-width:0.13338;stroke-linecap:butt"
       id="path514"
       d="m 183.98627,124.22117 7.57842,13.12622 -15.15685,0 z"
       transform="matrix(1.3195349,0,0,-1.3195349,-8.2047897,499.42554)" />
    <path
       style="fill:#bdffbd;stroke:none;stroke-width:0.13338;stroke-linecap:butt"
       id="path515"
       d="m 183.98627,124.22117 7.57842,13.12622 -15.15685,0 z"
       transform="matrix(1.3195349,0,0,1.3195349,-48.20479,136.95619)" />
    <path
       style="fill:#bdffbd;stroke:none;stroke-width:0.13338;stroke-linecap:butt"
       id="path520"
       d="m 183.98627,124.22117 7.57842,13.12622 -15.15685,0 z"
       transform="matrix(1.3195349,0,0,-1.3195349,-38.20479,482.10503)" />
    <path
       style="fill:#bdffbd;stroke:none;stroke-width:0.13338;stroke-linecap:butt"
       id="path521"
       d="m 183.98627,124.22117 7.57842,13.12622 -15.15685,0 z"
       transform="matrix(1.3195349,0,0,1.3195349,-18.20479,154.27669)" />
    <path
       style="fill:#bdffbd;stroke:none;stroke-width:0.13338;stroke-linecap:butt"
       id="path522"
       d="m 183.98627,124.22117 7.57842,13.12622 -15.15685,0 z"
       transform="matrix(1.3195349,0,0,1.3195349,1.7952103,154.27669)" />
    <path
       style="fill:#bdffbd;stroke:none;stroke-width:0.13338;stroke-linecap:butt"
       id="path523"
       d="m 183.98627,124.22117 7.57842,13.12622 -15.15685,0 z"
       transform="matrix(1.3195349,0,0,1.3195349,-28.20479,136.95618)" />
  </g>
  <g
     id="layer12"
     style="display:inline"
     transform="translate(-184.57152,-300.87036)">
    <path
       style="fill:#00c200;stroke:none;stroke-width:0.13338;stroke-linecap:butt"
       id="path528"
       d="m 183.98633,125.75586 6.24804,10.82422 h -12.49609 z"
       transform="matrix(-1.3195349,0,0,-1.3195349,457.34781,499.42554)" />
    <path
       style="fill:#00c200;stroke:none;stroke-width:0.13338;stroke-linecap:butt"
       id="path529"
       d="m 183.98633,125.75586 6.24804,10.82422 h -12.49609 z"
       transform="matrix(1.3195349,0,0,-1.3195349,-8.2047897,499.42554)" />
    <path
       style="fill:#00c200;stroke:none;stroke-width:0.13338;stroke-linecap:butt"
       id="path530"
       d="m 183.98633,125.75586 6.24804,10.82422 h -12.49609 z"
       transform="matrix(1.3195349,0,0,1.3195349,-48.20479,136.95619)" />
    <path
       style="fill:#00c200;stroke:none;stroke-width:0.13338;stroke-linecap:butt"
       id="path531"
       d="m 183.98633,125.75586 6.24804,10.82422 h -12.49609 z"
       transform="matrix(1.3195349,0,0,-1.3195349,-38.20479,482.10503)" />
    <path
       style="fill:#00c200;stroke:none;stroke-width:0.13338;stroke-linecap:butt"
       id="path534"
       d="m 183.98633,125.75586 6.24804,10.82422 h -12.49609 z"
       transform="matrix(1.3195349,0,0,1.3195349,-18.20479,154.27669)" />
    <path
       style="fill:#00c200;stroke:none;stroke-width:0.13338;stroke-linecap:butt"
       id="path535"
       d="m 183.98633,125.75586 6.24804,10.82422 h -12.49609 z"
       transform="matrix(1.3195349,0,0,1.3195349,1.7952103,154.27669)" />
    <path
       style="fill:#00c200;stroke:none;stroke-width:0.13338;stroke-linecap:butt"
       id="path536"
       d="m 183.98633,125.75586 6.24804,10.82422 h -12.49609 z"
       transform="matrix(1.3195349,0,0,1.3195349,-28.20479,136.95618)" />
  </g>
  <g
     id="layer13"
     style="display:inline"
     transform="translate(-184.57152,-300.87036)">
    <path
       style="fill:#bdffbd;stroke:none;stroke-width:0.176;stroke-linecap:butt"
       d="m 179.26758,116.01563 c 2.10236,0 3.76367,1.66131 3.76367,3.76367 0,2.10235 -1.66131,3.76367 -3.76367,3.76367 -2.10236,0 -3.76367,-1.66132 -3.76367,-3.76367 0,-2.10236 1.66131,-3.76368 3.76367,-3.76367 z"
       id="path537"
       transform="translate(35.30396,204.18502)" />
  </g>
  <g
     id="layer14"
     style="display:inline"
     transform="translate(-184.57152,-300.87036)">
    <path
       style="display:inline;fill:#ffbf00;stroke:#000000;stroke-width:0.25;stroke-linecap:butt;stroke-dasharray:none"
       d="m 213.28793,326.73777 h 2.61689"
       id="path538" />
    <path
       d="m 213.65692,326.06341 q -0.0496,-0.0589 -0.0496,-0.11472 0,-0.0527 0.031,-0.0837 0.0155,-0.0217 0.17983,-0.0837 0.32247,-0.12403 0.55501,-0.29766 0.23254,-0.17673 0.39067,-0.42478 0.15813,-0.25115 0.22325,-0.5395 0.0682,-0.29146 0.0744,-0.45889 0.003,-0.0558 0.0279,-0.26975 0.0186,-0.15813 0.0186,-0.38137 0,-0.79065 -0.19224,-1.08521 -0.14573,-0.22014 -0.35967,-0.22014 -0.19843,0 -0.33796,0.18914 -0.18914,0.25735 -0.18914,0.73484 0,0.29455 0.0372,0.5519 0.0248,0.17053 0.11162,0.31316 0.0558,0.093 0.10542,0.12092 0.12093,0.0589 0.24185,0.0589 0.0775,0 0.16123,-0.0248 l 0.0465,-0.009 q 0.0372,0 0.0682,0.0372 0.031,0.0341 0.031,0.10232 0,0.11783 -0.093,0.15193 -0.19844,0.0744 -0.43098,0.0744 -0.14573,0 -0.18294,-0.0124 -0.29145,-0.10542 -0.36277,-0.15813 -0.17983,-0.13022 -0.27595,-0.26355 -0.093,-0.13642 -0.13952,-0.31005 -0.0589,-0.22945 -0.0589,-0.46199 0,-0.36897 0.16434,-0.68213 0.16743,-0.31626 0.45578,-0.47439 0.29146,-0.15813 0.62322,-0.15813 0.58911,0 0.97978,0.44958 0.39378,0.44959 0.39378,1.29915 0,0.41858 -0.16123,0.89297 -0.0403,0.11782 -0.22634,0.44338 -0.18604,0.32246 -0.5023,0.58911 -0.31626,0.26355 -0.66662,0.38758 -0.35037,0.12402 -0.57361,0.12402 -0.0403,0 -0.11783,-0.006 z"
       id="text538"
       style="font-weight:bold;font-size:6.35px;line-height:7.45115px;font-family:Garamond;-inkscape-font-specification:'Garamond Bold';text-align:center;letter-spacing:0px;word-spacing:0px;text-anchor:middle;stroke-width:0.176"
       aria-label="9" />
  </g>
</svg>
