<?xml version="1.0" encoding="UTF-8" standalone="no"?>
<!-- Created with Inkscape (http://www.inkscape.org/) -->

<svg
   width="2.7559056in"
   height="1.3638204in"
   viewBox="0 0 70.000003 34.641039"
   version="1.1"
   id="svg1"
   xmlns="http://www.w3.org/2000/svg"
   xmlns:svg="http://www.w3.org/2000/svg">
  <defs
     id="defs1" />
  <g
     id="layer11"
     style="display:inline"
     transform="translate(-260.48491,-301.81151)">
    <path
       style="fill:#bdffbd;stroke:none;stroke-width:0.13338;stroke-linecap:butt"
       id="path454"
       d="m 183.98627,124.22117 7.57842,13.12622 -15.15685,0 z"
       transform="matrix(-1.3195349,0,0,-1.3195349,543.26122,500.36669)" />
    <path
       style="fill:#bdffbd;stroke:none;stroke-width:0.13338;stroke-linecap:butt"
       id="path470"
       d="m 183.98627,124.22117 7.57842,13.12622 -15.15685,0 z"
       transform="matrix(-1.3195349,0,0,-1.3195349,523.26122,500.36669)" />
    <path
       style="fill:#bdffbd;stroke:none;stroke-width:0.13338;stroke-linecap:butt"
       id="path488"
       d="m 183.98627,124.22117 7.57842,13.12622 -15.15685,0 z"
       transform="matrix(-1.3195349,0,0,1.3195349,563.26122,137.89734)" />
    <path
       style="fill:#bdffbd;stroke:none;stroke-width:0.13338;stroke-linecap:butt"
       id="path496"
       d="m 183.98627,124.22117 7.57842,13.12622 -15.15685,0 z"
       transform="matrix(-1.3195349,0,0,-1.3195349,553.26122,483.04618)" />
    <path
       style="fill:#bdffbd;stroke:none;stroke-width:0.13338;stroke-linecap:butt"
       id="path500"
       d="m 183.98627,124.22117 7.57842,13.12622 -15.15685,0 z"
       transform="matrix(-1.3195349,0,0,1.3195349,533.26122,155.21784)" />
    <path
       style="fill:#bdffbd;stroke:none;stroke-width:0.13338;stroke-linecap:butt"
       id="path501"
       d="m 183.98627,124.22117 7.57842,13.12622 -15.15685,0 z"
       transform="matrix(-1.3195349,0,0,1.3195349,513.26122,155.21784)" />
    <path
       style="fill:#bdffbd;stroke:none;stroke-width:0.13338;stroke-linecap:butt"
       id="path502"
       d="m 183.98627,124.22117 7.57842,13.12622 -15.15685,0 z"
       transform="matrix(-1.3195349,0,0,1.3195349,543.26122,137.89733)" />
  </g>
  <g
     id="layer12"
     style="display:inline"
     transform="translate(-260.48491,-301.81151)">
    <path
       style="fill:#00c200;stroke:none;stroke-width:0.13338;stroke-linecap:butt"
       id="path455"
       d="m 183.98633,125.75586 6.24804,10.82422 h -12.49609 z"
       transform="matrix(-1.3195349,0,0,-1.3195349,543.26122,500.36669)" />
    <path
       style="fill:#00c200;stroke:none;stroke-width:0.13338;stroke-linecap:butt"
       id="path471"
       d="m 183.98633,125.75586 6.24804,10.82422 h -12.49609 z"
       transform="matrix(-1.3195349,0,0,-1.3195349,523.26122,500.36669)" />
    <path
       style="fill:#00c200;stroke:none;stroke-width:0.13338;stroke-linecap:butt"
       id="path493"
       d="m 183.98633,125.75586 6.24804,10.82422 h -12.49609 z"
       transform="matrix(-1.3195349,0,0,1.3195349,563.26122,137.89734)" />
    <path
       style="fill:#00c200;stroke:none;stroke-width:0.13338;stroke-linecap:butt"
       id="path499"
       d="m 183.98633,125.75586 6.24804,10.82422 h -12.49609 z"
       transform="matrix(-1.3195349,0,0,-1.3195349,553.26122,483.04618)" />
    <path
       style="fill:#00c200;stroke:none;stroke-width:0.13338;stroke-linecap:butt"
       id="path503"
       d="m 183.98633,125.75586 6.24804,10.82422 h -12.49609 z"
       transform="matrix(-1.3195349,0,0,1.3195349,533.26122,155.21784)" />
    <path
       style="fill:#00c200;stroke:none;stroke-width:0.13338;stroke-linecap:butt"
       id="path504"
       d="m 183.98633,125.75586 6.24804,10.82422 h -12.49609 z"
       transform="matrix(-1.3195349,0,0,1.3195349,513.26122,155.21784)" />
    <path
       style="fill:#00c200;stroke:none;stroke-width:0.13338;stroke-linecap:butt"
       id="path507"
       d="m 183.98633,125.75586 6.24804,10.82422 h -12.49609 z"
       transform="matrix(-1.3195349,0,0,1.3195349,543.26122,137.89733)" />
  </g>
  <g
     id="layer13"
     style="display:inline"
     transform="translate(-260.48491,-301.81151)">
    <path
       style="fill:#bdffbd;stroke:none;stroke-width:0.176;stroke-linecap:butt"
       d="m 179.26758,116.01563 c 2.10236,0 3.76367,1.66131 3.76367,3.76367 0,2.10235 -1.66131,3.76367 -3.76367,3.76367 -2.10236,0 -3.76367,-1.66132 -3.76367,-3.76367 0,-2.10236 1.66131,-3.76368 3.76367,-3.76367 z"
       id="path456"
       transform="translate(121.21736,205.12616)" />
  </g>
  <g
     id="layer14"
     style="display:inline"
     transform="translate(-260.48491,-301.81151)">
    <path
       style="display:inline;fill:#ffbf00;stroke:#000000;stroke-width:0.25;stroke-linecap:butt;stroke-dasharray:none"
       d="m 299.20132,327.6789 h 2.61689"
       id="path461" />
    <path
       d="m 299.57033,327.00454 q -0.0496,-0.0589 -0.0496,-0.11472 0,-0.0527 0.031,-0.0837 0.0155,-0.0217 0.17983,-0.0837 0.32246,-0.12403 0.55501,-0.29766 0.23254,-0.17673 0.39067,-0.42478 0.15813,-0.25115 0.22324,-0.5395 0.0682,-0.29146 0.0744,-0.45889 0.003,-0.0558 0.0279,-0.26975 0.0186,-0.15813 0.0186,-0.38137 0,-0.79065 -0.19224,-1.08521 -0.14573,-0.22014 -0.35967,-0.22014 -0.19844,0 -0.33796,0.18914 -0.18914,0.25735 -0.18914,0.73484 0,0.29455 0.0372,0.5519 0.0248,0.17053 0.11162,0.31316 0.0558,0.093 0.10542,0.12092 0.12092,0.0589 0.24184,0.0589 0.0775,0 0.16124,-0.0248 l 0.0465,-0.009 q 0.0372,0 0.0682,0.0372 0.031,0.0341 0.031,0.10231 0,0.11783 -0.093,0.15193 -0.19844,0.0744 -0.43099,0.0744 -0.14572,0 -0.18293,-0.0124 -0.29146,-0.10542 -0.36277,-0.15813 -0.17983,-0.13023 -0.27595,-0.26355 -0.093,-0.13643 -0.13953,-0.31006 -0.0589,-0.22945 -0.0589,-0.46199 0,-0.36897 0.16433,-0.68213 0.16743,-0.31626 0.45579,-0.47439 0.29145,-0.15813 0.62322,-0.15813 0.58911,0 0.97978,0.44959 0.39378,0.44958 0.39378,1.29914 0,0.41858 -0.16123,0.89297 -0.0403,0.11782 -0.22635,0.44338 -0.18603,0.32247 -0.50229,0.58912 -0.31626,0.26355 -0.66663,0.38757 -0.35036,0.12402 -0.57361,0.12402 -0.0403,0 -0.11782,-0.006 z"
       id="text461"
       style="font-weight:bold;font-size:6.35px;line-height:7.45115px;font-family:Garamond;-inkscape-font-specification:'Garamond Bold';text-align:center;letter-spacing:0px;word-spacing:0px;text-anchor:middle;stroke-width:0.176"
       aria-label="9" />
  </g>
</svg>
