<?xml version="1.0" encoding="UTF-8" standalone="no"?>
<!-- Created with Inkscape (http://www.inkscape.org/) -->

<svg
   width="2.3622055in"
   height="1.3638191in"
   viewBox="0 0 60.00002 34.641006"
   version="1.1"
   id="svg1"
   xmlns="http://www.w3.org/2000/svg"
   xmlns:svg="http://www.w3.org/2000/svg">
  <defs
     id="defs1" />
  <g
     id="layer11"
     style="display:inline"
     transform="translate(-259.8114,-354.63834)">
    <path
       style="fill:#bdffcd;stroke:none;stroke-width:0.13338;stroke-linecap:butt"
       id="path557"
       d="m 183.98627,124.22117 7.57842,13.12622 -15.15685,0 z"
       transform="matrix(-1.3195349,0,0,-1.3195349,542.58771,535.873)" />
    <path
       style="fill:#bdffcd;stroke:none;stroke-width:0.13338;stroke-linecap:butt"
       id="path572"
       d="m 183.98627,124.22117 7.57842,13.12622 -15.15685,0 z"
       transform="matrix(-1.3195349,0,0,-1.3195349,522.58771,535.873)" />
    <path
       style="fill:#bdffcd;stroke:none;stroke-width:0.13338;stroke-linecap:butt"
       id="path584"
       d="m 183.98627,124.22117 7.57842,13.12622 -15.15685,0 z"
       transform="matrix(-1.3195349,0,0,-1.3195349,552.58771,553.1935)" />
    <path
       style="fill:#bdffcd;stroke:none;stroke-width:0.13338;stroke-linecap:butt"
       id="path592"
       d="m 183.98627,124.22117 7.57842,13.12622 -15.15685,0 z"
       transform="matrix(-1.3195349,0,0,1.3195349,542.58771,208.04465)" />
    <path
       style="fill:#bdffcd;stroke:none;stroke-width:0.13338;stroke-linecap:butt"
       id="path596"
       d="m 183.98627,124.22117 7.57842,13.12622 -15.15685,0 z"
       transform="matrix(-1.3195349,0,0,1.3195349,532.58771,190.72415)" />
    <path
       style="fill:#bdffcd;stroke:none;stroke-width:0.13338;stroke-linecap:butt"
       id="path597"
       d="m 183.98627,124.22117 7.57842,13.12622 -15.15685,0 z"
       transform="matrix(-1.3195349,0,0,1.3195349,512.58771,190.72415)" />
    <path
       style="fill:#bdffcd;stroke:none;stroke-width:0.13338;stroke-linecap:butt"
       id="path598"
       d="m 183.98627,124.22117 7.57842,13.12622 -15.15685,0 z"
       transform="matrix(-1.3195349,0,0,1.3195349,552.58771,190.72415)" />
  </g>
  <g
     id="layer12"
     style="display:inline"
     transform="translate(-259.8114,-354.63834)">
    <path
       style="fill:#00c230;stroke:none;stroke-width:0.13338;stroke-linecap:butt"
       id="path558"
       d="m 183.98633,125.75586 6.24804,10.82422 h -12.49609 z"
       transform="matrix(-1.3195349,0,0,-1.3195349,542.58771,535.873)" />
    <path
       style="fill:#00c230;stroke:none;stroke-width:0.13338;stroke-linecap:butt"
       id="path573"
       d="m 183.98633,125.75586 6.24804,10.82422 h -12.49609 z"
       transform="matrix(-1.3195349,0,0,-1.3195349,522.58771,535.873)" />
    <path
       style="fill:#00c230;stroke:none;stroke-width:0.13338;stroke-linecap:butt"
       id="path589"
       d="m 183.98633,125.75586 6.24804,10.82422 h -12.49609 z"
       transform="matrix(-1.3195349,0,0,-1.3195349,552.58771,553.1935)" />
    <path
       style="fill:#00c230;stroke:none;stroke-width:0.13338;stroke-linecap:butt"
       id="path595"
       d="m 183.98633,125.75586 6.24804,10.82422 h -12.49609 z"
       transform="matrix(-1.3195349,0,0,1.3195349,542.58771,208.04465)" />
    <path
       style="fill:#00c230;stroke:none;stroke-width:0.13338;stroke-linecap:butt"
       id="path599"
       d="m 183.98633,125.75586 6.24804,10.82422 h -12.49609 z"
       transform="matrix(-1.3195349,0,0,1.3195349,532.58771,190.72415)" />
    <path
       style="fill:#00c230;stroke:none;stroke-width:0.13338;stroke-linecap:butt"
       id="path600"
       d="m 183.98633,125.75586 6.24804,10.82422 h -12.49609 z"
       transform="matrix(-1.3195349,0,0,1.3195349,512.58771,190.72415)" />
    <path
       style="fill:#00c230;stroke:none;stroke-width:0.13338;stroke-linecap:butt"
       id="path603"
       d="m 183.98633,125.75586 6.24804,10.82422 h -12.49609 z"
       transform="matrix(-1.3195349,0,0,1.3195349,552.58771,190.72415)" />
  </g>
  <g
     id="layer13"
     style="display:inline"
     transform="translate(-259.8114,-354.63834)">
    <path
       style="fill:#bdffcd;stroke:none;stroke-width:0.176;stroke-linecap:butt"
       d="m 179.26758,116.01563 c 2.10236,0 3.76367,1.66131 3.76367,3.76367 0,2.10235 -1.66131,3.76367 -3.76367,3.76367 -2.10236,0 -3.76367,-1.66132 -3.76367,-3.76367 0,-2.10236 1.66131,-3.76368 3.76367,-3.76367 z"
       id="path560"
       transform="translate(120.54385,240.63246)" />
  </g>
  <g
     id="layer14"
     style="display:inline"
     transform="translate(-259.8114,-354.63834)">
    <path
       d="m 298.35259,358.33735 q 0.0155,0 0.21084,-0.006 l 0.0992,0.003 0.19534,0.003 q 0.0124,0.0992 0.0124,0.14573 0,0.0155 -0.003,0.0961 -0.003,0.0434 -0.006,0.33177 l -0.006,0.46818 0.003,0.29456 -0.0217,2.0929 v 0.17673 q 0,0.093 0.0434,0.13332 0.0434,0.0403 0.23255,0.0682 0.0744,0.009 0.29765,0.0496 0.006,0.031 0.006,0.0589 0,0.0341 -0.006,0.14883 h -0.13332 q -0.13643,0 -0.39688,-0.0124 -0.15813,-0.009 -0.21704,-0.009 -0.0744,0 -0.5488,0.0155 -0.0527,0.003 -0.0868,0.003 h -0.0558 l -0.0899,-0.006 -0.0837,0.006 -0.15503,-0.006 q -0.031,0 -0.12712,0.009 -0.006,-0.0682 -0.006,-0.10542 0,-0.0341 0.006,-0.10232 0.12402,-0.0341 0.28835,-0.0682 0.22634,-0.0465 0.27595,-0.0899 0.0527,-0.0465 0.0527,-0.12093 l -0.003,-0.21084 0.0124,-0.22944 -0.003,-0.47129 -0.003,-0.12092 q 0,-0.0248 0.006,-0.18604 0.006,-0.0837 0.006,-0.14882 0,-0.0403 -0.009,-0.25115 l 0.0124,-0.17674 q -0.0124,-0.20153 -0.0124,-0.23874 0,-0.0465 0.003,-0.093 l 0.006,-0.0775 -0.009,-0.21084 0.009,-0.0961 q 0.003,-0.0651 0.003,-0.17363 0,-0.10542 -0.003,-0.25735 -0.22015,0.16433 -0.5023,0.32866 -0.031,0.0186 -0.27905,0.12712 -0.0992,-0.14882 -0.12713,-0.22324 0.32867,-0.17053 0.44649,-0.25115 0.19533,-0.13642 0.42168,-0.34106 0.0961,-0.0899 0.24494,-0.27595 z m 1.41697,2.07429 q 0,-0.34107 0.0403,-0.5333 0.093,-0.46199 0.17983,-0.66973 0.13643,-0.32246 0.31936,-0.5209 0.18604,-0.20153 0.42788,-0.30385 0.14263,-0.062 0.37828,-0.062 0.28835,0 0.5612,0.20154 0.27285,0.20154 0.48679,0.66663 0.21394,0.46199 0.21394,1.16272 0,0.5178 -0.11782,0.97358 -0.0744,0.27595 -0.21394,0.5116 -0.13642,0.23254 -0.22634,0.32246 -0.15503,0.15193 -0.34107,0.24185 -0.18603,0.0899 -0.30075,0.0899 -0.33797,0 -0.5147,-0.0682 -0.17673,-0.0651 -0.34106,-0.23875 -0.16123,-0.17363 -0.29146,-0.44338 -0.12712,-0.26975 -0.18293,-0.5209 -0.0775,-0.35036 -0.0775,-0.80925 z m 0.80305,0.40928 q 0,0.68213 0.0434,0.92397 0.0434,0.23875 0.16433,0.35967 0.12403,0.11782 0.26045,0.11782 0.13953,0 0.23875,-0.0744 0.0992,-0.0744 0.16743,-0.23255 0.0713,-0.16123 0.0992,-0.50539 0.0465,-0.56121 0.0465,-0.80305 l -0.009,-0.40928 v -0.43718 q 0,-0.31006 -0.0434,-0.57671 -0.0434,-0.26665 -0.11783,-0.38137 -0.0713,-0.11783 -0.17363,-0.16124 -0.0992,-0.0465 -0.19224,-0.0465 -0.11472,0 -0.24804,0.11472 -0.13333,0.11162 -0.19224,0.41238 -0.0589,0.30075 -0.0589,1.02629 l 0.006,0.22014 q 0.009,0.31936 0.009,0.45269 z"
       id="text560"
       style="font-weight:bold;font-size:6.35px;line-height:7.45115px;font-family:Garamond;-inkscape-font-specification:'Garamond Bold';text-align:center;letter-spacing:0px;word-spacing:0px;text-anchor:middle;stroke-width:0.176"
       aria-label="10" />
  </g>
</svg>
