<?xml version="1.0" encoding="UTF-8" standalone="no"?>
<!-- Created with Inkscape (http://www.inkscape.org/) -->

<svg
   width="2.362205in"
   height="1.3638191in"
   viewBox="0 0 60.000008 34.641006"
   version="1.1"
   id="svg1"
   inkscape:version="1.4 (86a8ad7, 2024-10-11)"
   sodipodi:docname="heptiamonds-pieces-vector-2.svg"
   xmlns:inkscape="http://www.inkscape.org/namespaces/inkscape"
   xmlns:sodipodi="http://sodipodi.sourceforge.net/DTD/sodipodi-0.dtd"
   xmlns="http://www.w3.org/2000/svg"
   xmlns:svg="http://www.w3.org/2000/svg">
  <sodipodi:namedview
     id="namedview1"
     pagecolor="#ffffff"
     bordercolor="#cccccc"
     borderopacity="1"
     inkscape:showpageshadow="0"
     inkscape:pageopacity="1"
     inkscape:pagecheckerboard="0"
     inkscape:deskcolor="#d1d1d1"
     inkscape:document-units="mm"
     showgrid="false"
     inkscape:zoom="2.1351378"
     inkscape:cx="31.145531"
     inkscape:cy="1343.7072"
     inkscape:window-width="2560"
     inkscape:window-height="1486"
     inkscape:window-x="-11"
     inkscape:window-y="-11"
     inkscape:window-maximized="1"
     inkscape:current-layer="layer5"
     showguides="false">
    <inkscape:grid
       id="grid1"
       units="mm"
       originx="-198.81594"
       originy="-433.12039"
       spacingx="1"
       spacingy="1"
       empcolor="#0099e5"
       empopacity="0.30196078"
       color="#0099e5"
       opacity="0.14901961"
       empspacing="4"
       enabled="true"
       visible="false" />
    <sodipodi:guide
       position="39.900411,318.18548"
       orientation="1,0"
       id="guide446"
       inkscape:locked="false" />
    <sodipodi:guide
       position="42.517301,317.52248"
       orientation="1,0"
       id="guide447"
       inkscape:locked="false" />
    <sodipodi:guide
       position="89.897301,334.17736"
       orientation="1,0"
       id="guide448"
       inkscape:locked="false" />
    <sodipodi:guide
       position="92.5018,333.80191"
       orientation="1,0"
       id="guide449"
       inkscape:locked="false" />
    <inkscape:page
       x="-1.8292549e-13"
       y="0"
       width="60.000004"
       height="34.641006"
       id="page2"
       margin="0"
       bleed="0" />
  </sodipodi:namedview>
  <defs
     id="defs1">
    <inkscape:path-effect
       effect="offset"
       id="path-effect1781"
       is_visible="true"
       lpeversion="1.3"
       linejoin_type="miter"
       unit="mm"
       offset="-2"
       miter_limit="4"
       attempt_force_join="false"
       update_on_knot_move="true" />
    <inkscape:path-effect
       effect="pts2ellipse"
       id="path-effect1779"
       is_visible="true"
       lpeversion="1"
       method="auto"
       gen_arc="false"
       arc_other="false"
       slice_arc="false"
       gen_isometric_frame="false"
       draw_axes="false"
       gen_perspective_frame="false"
       draw_perspective_axes="false"
       rot_axes="0"
       draw_ori_path="false" />
    <inkscape:path-effect
       effect="offset"
       id="path-effect1777"
       is_visible="true"
       lpeversion="1.3"
       linejoin_type="miter"
       unit="mm"
       offset="-2"
       miter_limit="4"
       attempt_force_join="false"
       update_on_knot_move="true" />
    <inkscape:path-effect
       effect="pts2ellipse"
       id="path-effect1775"
       is_visible="true"
       lpeversion="1"
       method="auto"
       gen_arc="false"
       arc_other="false"
       slice_arc="false"
       gen_isometric_frame="false"
       draw_axes="false"
       gen_perspective_frame="false"
       draw_perspective_axes="false"
       rot_axes="0"
       draw_ori_path="false" />
    <inkscape:path-effect
       effect="offset"
       id="path-effect1773"
       is_visible="true"
       lpeversion="1.3"
       linejoin_type="miter"
       unit="mm"
       offset="-2"
       miter_limit="4"
       attempt_force_join="false"
       update_on_knot_move="true" />
    <inkscape:path-effect
       effect="pts2ellipse"
       id="path-effect1771"
       is_visible="true"
       lpeversion="1"
       method="auto"
       gen_arc="false"
       arc_other="false"
       slice_arc="false"
       gen_isometric_frame="false"
       draw_axes="false"
       gen_perspective_frame="false"
       draw_perspective_axes="false"
       rot_axes="0"
       draw_ori_path="false" />
    <inkscape:path-effect
       effect="offset"
       id="path-effect1765"
       is_visible="true"
       lpeversion="1.3"
       linejoin_type="miter"
       unit="mm"
       offset="-2"
       miter_limit="4"
       attempt_force_join="false"
       update_on_knot_move="true" />
    <inkscape:path-effect
       effect="pts2ellipse"
       id="path-effect1763"
       is_visible="true"
       lpeversion="1"
       method="auto"
       gen_arc="false"
       arc_other="false"
       slice_arc="false"
       gen_isometric_frame="false"
       draw_axes="false"
       gen_perspective_frame="false"
       draw_perspective_axes="false"
       rot_axes="0"
       draw_ori_path="false" />
    <inkscape:path-effect
       effect="offset"
       id="path-effect1761"
       is_visible="true"
       lpeversion="1.3"
       linejoin_type="miter"
       unit="mm"
       offset="-2"
       miter_limit="4"
       attempt_force_join="false"
       update_on_knot_move="true" />
    <inkscape:path-effect
       effect="pts2ellipse"
       id="path-effect1759"
       is_visible="true"
       lpeversion="1"
       method="auto"
       gen_arc="false"
       arc_other="false"
       slice_arc="false"
       gen_isometric_frame="false"
       draw_axes="false"
       gen_perspective_frame="false"
       draw_perspective_axes="false"
       rot_axes="0"
       draw_ori_path="false" />
    <inkscape:path-effect
       effect="offset"
       id="path-effect1757"
       is_visible="true"
       lpeversion="1.3"
       linejoin_type="miter"
       unit="mm"
       offset="-2"
       miter_limit="4"
       attempt_force_join="false"
       update_on_knot_move="true" />
    <inkscape:path-effect
       effect="pts2ellipse"
       id="path-effect1755"
       is_visible="true"
       lpeversion="1"
       method="auto"
       gen_arc="false"
       arc_other="false"
       slice_arc="false"
       gen_isometric_frame="false"
       draw_axes="false"
       gen_perspective_frame="false"
       draw_perspective_axes="false"
       rot_axes="0"
       draw_ori_path="false" />
    <inkscape:path-effect
       effect="offset"
       id="path-effect69"
       is_visible="true"
       lpeversion="1.3"
       linejoin_type="miter"
       unit="mm"
       offset="-1"
       miter_limit="4"
       attempt_force_join="false"
       update_on_knot_move="true" />
    <inkscape:path-effect
       effect="offset"
       id="path-effect67"
       is_visible="true"
       lpeversion="1.3"
       linejoin_type="miter"
       unit="mm"
       offset="-1"
       miter_limit="4"
       attempt_force_join="false"
       update_on_knot_move="true" />
    <inkscape:path-effect
       effect="offset"
       id="path-effect61"
       is_visible="true"
       lpeversion="1.3"
       linejoin_type="miter"
       unit="mm"
       offset="-1"
       miter_limit="4"
       attempt_force_join="false"
       update_on_knot_move="true" />
    <inkscape:path-effect
       effect="offset"
       id="path-effect28"
       is_visible="true"
       lpeversion="1.3"
       linejoin_type="miter"
       unit="mm"
       offset="-1"
       miter_limit="4"
       attempt_force_join="false"
       update_on_knot_move="true" />
    <inkscape:path-effect
       effect="offset"
       id="path-effect26"
       is_visible="true"
       lpeversion="1.3"
       linejoin_type="miter"
       unit="mm"
       offset="-1"
       miter_limit="4"
       attempt_force_join="false"
       update_on_knot_move="true" />
    <inkscape:path-effect
       effect="offset"
       id="path-effect20"
       is_visible="true"
       lpeversion="1.3"
       linejoin_type="miter"
       unit="mm"
       offset="-1"
       miter_limit="4"
       attempt_force_join="false"
       update_on_knot_move="true" />
    <inkscape:path-effect
       effect="offset"
       id="path-effect706"
       is_visible="true"
       lpeversion="1.3"
       linejoin_type="miter"
       unit="mm"
       offset="-2"
       miter_limit="4"
       attempt_force_join="false"
       update_on_knot_move="true" />
    <inkscape:path-effect
       effect="pts2ellipse"
       id="path-effect702"
       is_visible="true"
       lpeversion="1"
       method="auto"
       gen_arc="false"
       arc_other="false"
       slice_arc="false"
       gen_isometric_frame="false"
       draw_axes="false"
       gen_perspective_frame="false"
       draw_perspective_axes="false"
       rot_axes="0"
       draw_ori_path="false" />
    <inkscape:path-effect
       effect="offset"
       id="path-effect698"
       is_visible="true"
       lpeversion="1.3"
       linejoin_type="miter"
       unit="mm"
       offset="-1"
       miter_limit="4"
       attempt_force_join="false"
       update_on_knot_move="true" />
  </defs>
  <g
     inkscape:groupmode="layer"
     id="layer11"
     inkscape:label="Generic triangle"
     style="display:inline"
     transform="translate(-198.81594,-433.12039)">
    <path
       sodipodi:type="star"
       style="fill:#bdffde;stroke:none;stroke-width:0.13338;stroke-linecap:butt"
       id="path693"
       inkscape:flatsided="true"
       sodipodi:sides="3"
       sodipodi:cx="183.98627"
       sodipodi:cy="132.97198"
       sodipodi:r1="8.7508144"
       sodipodi:r2="4.3754072"
       sodipodi:arg1="-1.5707963"
       sodipodi:arg2="-0.52359878"
       inkscape:rounded="0"
       inkscape:randomized="0"
       d="m 183.98627,124.22117 7.57842,13.12622 -15.15685,0 z"
       inkscape:transform-center-y="2.8867499"
       transform="matrix(-1.3195349,0,0,-1.3195349,471.59223,631.67558)"
       inkscape:transform-center-x="1.5471979e-06" />
    <path
       sodipodi:type="star"
       style="fill:#bdffde;stroke:none;stroke-width:0.13338;stroke-linecap:butt"
       id="path6"
       inkscape:flatsided="true"
       sodipodi:sides="3"
       sodipodi:cx="183.98627"
       sodipodi:cy="132.97198"
       sodipodi:r1="8.7508144"
       sodipodi:r2="4.3754072"
       sodipodi:arg1="-1.5707963"
       sodipodi:arg2="-0.52359878"
       inkscape:rounded="0"
       inkscape:randomized="0"
       d="m 183.98627,124.22117 7.57842,13.12622 -15.15685,0 z"
       inkscape:transform-center-y="2.8867499"
       transform="matrix(-1.3195349,0,0,-1.3195349,451.59223,631.67558)"
       inkscape:transform-center-x="1.5471979e-06" />
    <path
       sodipodi:type="star"
       style="fill:#bdffde;stroke:none;stroke-width:0.13338;stroke-linecap:butt"
       id="path24"
       inkscape:flatsided="true"
       sodipodi:sides="3"
       sodipodi:cx="183.98627"
       sodipodi:cy="132.97198"
       sodipodi:r1="8.7508144"
       sodipodi:r2="4.3754072"
       sodipodi:arg1="-1.5707963"
       sodipodi:arg2="-0.52359878"
       inkscape:rounded="0"
       inkscape:randomized="0"
       d="m 183.98627,124.22117 7.57842,13.12622 -15.15685,0 z"
       inkscape:transform-center-y="-2.886745"
       transform="matrix(-1.3195349,0,0,1.3195349,491.59223,269.20622)"
       inkscape:transform-center-x="1.5471979e-06" />
    <path
       sodipodi:type="star"
       style="fill:#bdffde;stroke:none;stroke-width:0.13338;stroke-linecap:butt"
       id="path26"
       inkscape:flatsided="true"
       sodipodi:sides="3"
       sodipodi:cx="183.98627"
       sodipodi:cy="132.97198"
       sodipodi:r1="8.7508144"
       sodipodi:r2="4.3754072"
       sodipodi:arg1="-1.5707963"
       sodipodi:arg2="-0.52359878"
       inkscape:rounded="0"
       inkscape:randomized="0"
       d="m 183.98627,124.22117 7.57842,13.12622 -15.15685,0 z"
       inkscape:transform-center-y="2.8867499"
       transform="matrix(-1.3195349,0,0,-1.3195349,481.59223,614.35507)"
       inkscape:transform-center-x="1.5471979e-06" />
    <path
       sodipodi:type="star"
       style="fill:#bdffde;stroke:none;stroke-width:0.13338;stroke-linecap:butt"
       id="path28"
       inkscape:flatsided="true"
       sodipodi:sides="3"
       sodipodi:cx="183.98627"
       sodipodi:cy="132.97198"
       sodipodi:r1="8.7508144"
       sodipodi:r2="4.3754072"
       sodipodi:arg1="-1.5707963"
       sodipodi:arg2="-0.52359878"
       inkscape:rounded="0"
       inkscape:randomized="0"
       d="m 183.98627,124.22117 7.57842,13.12622 -15.15685,0 z"
       inkscape:transform-center-y="-2.8867529"
       transform="matrix(-1.3195349,0,0,1.3195349,461.59223,286.52673)"
       inkscape:transform-center-x="1.5471979e-06" />
    <path
       sodipodi:type="star"
       style="fill:#bdffde;stroke:none;stroke-width:0.13338;stroke-linecap:butt"
       id="path29"
       inkscape:flatsided="true"
       sodipodi:sides="3"
       sodipodi:cx="183.98627"
       sodipodi:cy="132.97198"
       sodipodi:r1="8.7508144"
       sodipodi:r2="4.3754072"
       sodipodi:arg1="-1.5707963"
       sodipodi:arg2="-0.52359878"
       inkscape:rounded="0"
       inkscape:randomized="0"
       d="m 183.98627,124.22117 7.57842,13.12622 -15.15685,0 z"
       inkscape:transform-center-y="-2.8867529"
       transform="matrix(-1.3195349,0,0,1.3195349,451.59223,269.20622)"
       inkscape:transform-center-x="1.5471979e-06" />
    <path
       sodipodi:type="star"
       style="fill:#bdffde;stroke:none;stroke-width:0.13338;stroke-linecap:butt"
       id="path53"
       inkscape:flatsided="true"
       sodipodi:sides="3"
       sodipodi:cx="183.98627"
       sodipodi:cy="132.97198"
       sodipodi:r1="8.7508144"
       sodipodi:r2="4.3754072"
       sodipodi:arg1="-1.5707963"
       sodipodi:arg2="-0.52359878"
       inkscape:rounded="0"
       inkscape:randomized="0"
       d="m 183.98627,124.22117 7.57842,13.12622 -15.15685,0 z"
       inkscape:transform-center-y="-2.8867529"
       transform="matrix(-1.3195349,0,0,1.3195349,471.59223,269.20622)"
       inkscape:transform-center-x="1.5471979e-06" />
  </g>
  <g
     inkscape:groupmode="layer"
     id="layer12"
     inkscape:label="Top generic triangle"
     style="display:inline"
     transform="translate(-198.81594,-433.12039)">
    <path
       sodipodi:type="star"
       style="fill:#00c261;stroke:none;stroke-width:0.13338;stroke-linecap:butt"
       id="path694"
       inkscape:flatsided="true"
       sodipodi:sides="3"
       sodipodi:cx="183.98627"
       sodipodi:cy="132.97198"
       sodipodi:r1="8.7508144"
       sodipodi:r2="4.3754072"
       sodipodi:arg1="-1.5707963"
       sodipodi:arg2="-0.52359878"
       inkscape:rounded="0"
       inkscape:randomized="0"
       d="m 183.98633,125.75586 6.24804,10.82422 h -12.49609 z"
       inkscape:transform-center-y="2.8867499"
       transform="matrix(-1.3195349,0,0,-1.3195349,471.59223,631.67558)"
       inkscape:transform-center-x="1.5471978e-06"
       inkscape:path-effect="#path-effect698" />
    <path
       sodipodi:type="star"
       style="fill:#00c261;stroke:none;stroke-width:0.13338;stroke-linecap:butt"
       id="path7"
       inkscape:flatsided="true"
       sodipodi:sides="3"
       sodipodi:cx="183.98627"
       sodipodi:cy="132.97198"
       sodipodi:r1="8.7508144"
       sodipodi:r2="4.3754072"
       sodipodi:arg1="-1.5707963"
       sodipodi:arg2="-0.52359878"
       inkscape:rounded="0"
       inkscape:randomized="0"
       d="m 183.98633,125.75586 6.24804,10.82422 h -12.49609 z"
       inkscape:transform-center-y="2.8867499"
       transform="matrix(-1.3195349,0,0,-1.3195349,451.59223,631.67558)"
       inkscape:transform-center-x="1.5471978e-06"
       inkscape:path-effect="#path-effect20" />
    <path
       sodipodi:type="star"
       style="fill:#00c261;stroke:none;stroke-width:0.13338;stroke-linecap:butt"
       id="path25"
       inkscape:flatsided="true"
       sodipodi:sides="3"
       sodipodi:cx="183.98627"
       sodipodi:cy="132.97198"
       sodipodi:r1="8.7508144"
       sodipodi:r2="4.3754072"
       sodipodi:arg1="-1.5707963"
       sodipodi:arg2="-0.52359878"
       inkscape:rounded="0"
       inkscape:randomized="0"
       d="m 183.98633,125.75586 6.24804,10.82422 h -12.49609 z"
       inkscape:transform-center-y="-2.886745"
       transform="matrix(-1.3195349,0,0,1.3195349,491.59223,269.20622)"
       inkscape:transform-center-x="1.5471978e-06"
       inkscape:path-effect="#path-effect26" />
    <path
       sodipodi:type="star"
       style="fill:#00c261;stroke:none;stroke-width:0.13338;stroke-linecap:butt"
       id="path27"
       inkscape:flatsided="true"
       sodipodi:sides="3"
       sodipodi:cx="183.98627"
       sodipodi:cy="132.97198"
       sodipodi:r1="8.7508144"
       sodipodi:r2="4.3754072"
       sodipodi:arg1="-1.5707963"
       sodipodi:arg2="-0.52359878"
       inkscape:rounded="0"
       inkscape:randomized="0"
       d="m 183.98633,125.75586 6.24804,10.82422 h -12.49609 z"
       inkscape:transform-center-y="2.8867499"
       transform="matrix(-1.3195349,0,0,-1.3195349,481.59223,614.35507)"
       inkscape:transform-center-x="1.5471978e-06"
       inkscape:path-effect="#path-effect28" />
    <path
       sodipodi:type="star"
       style="fill:#00c261;stroke:none;stroke-width:0.13338;stroke-linecap:butt"
       id="path54"
       inkscape:flatsided="true"
       sodipodi:sides="3"
       sodipodi:cx="183.98627"
       sodipodi:cy="132.97198"
       sodipodi:r1="8.7508144"
       sodipodi:r2="4.3754072"
       sodipodi:arg1="-1.5707963"
       sodipodi:arg2="-0.52359878"
       inkscape:rounded="0"
       inkscape:randomized="0"
       d="m 183.98633,125.75586 6.24804,10.82422 h -12.49609 z"
       inkscape:transform-center-y="-2.8867529"
       transform="matrix(-1.3195349,0,0,1.3195349,461.59223,286.52673)"
       inkscape:transform-center-x="1.5471978e-06"
       inkscape:path-effect="#path-effect61" />
    <path
       sodipodi:type="star"
       style="fill:#00c261;stroke:none;stroke-width:0.13338;stroke-linecap:butt"
       id="path55"
       inkscape:flatsided="true"
       sodipodi:sides="3"
       sodipodi:cx="183.98627"
       sodipodi:cy="132.97198"
       sodipodi:r1="8.7508144"
       sodipodi:r2="4.3754072"
       sodipodi:arg1="-1.5707963"
       sodipodi:arg2="-0.52359878"
       inkscape:rounded="0"
       inkscape:randomized="0"
       d="m 183.98633,125.75586 6.24804,10.82422 h -12.49609 z"
       inkscape:transform-center-y="-2.8867529"
       transform="matrix(-1.3195349,0,0,1.3195349,451.59223,269.20622)"
       inkscape:transform-center-x="1.5471978e-06"
       inkscape:path-effect="#path-effect67" />
    <path
       sodipodi:type="star"
       style="fill:#00c261;stroke:none;stroke-width:0.13338;stroke-linecap:butt"
       id="path56"
       inkscape:flatsided="true"
       sodipodi:sides="3"
       sodipodi:cx="183.98627"
       sodipodi:cy="132.97198"
       sodipodi:r1="8.7508144"
       sodipodi:r2="4.3754072"
       sodipodi:arg1="-1.5707963"
       sodipodi:arg2="-0.52359878"
       inkscape:rounded="0"
       inkscape:randomized="0"
       d="m 183.98633,125.75586 6.24804,10.82422 h -12.49609 z"
       inkscape:transform-center-y="-2.8867529"
       transform="matrix(-1.3195349,0,0,1.3195349,471.59223,269.20622)"
       inkscape:transform-center-x="1.5471978e-06"
       inkscape:path-effect="#path-effect69" />
  </g>
  <g
     inkscape:groupmode="layer"
     id="layer13"
     inkscape:label="Circle"
     style="display:inline"
     transform="translate(-198.81594,-433.12039)">
    <path
       style="fill:#bdffde;stroke:none;stroke-width:0.176;stroke-linecap:butt"
       d="m 179.26758,116.01563 c 2.10236,0 3.76367,1.66131 3.76367,3.76367 0,2.10235 -1.66131,3.76367 -3.76367,3.76367 -2.10236,0 -3.76367,-1.66132 -3.76367,-3.76367 0,-2.10236 1.66131,-3.76368 3.76367,-3.76367 z"
       id="path695"
       inkscape:path-effect="#path-effect702;#path-effect706"
       inkscape:original-d="m 179.2676,114.00575 v 11.547"
       transform="translate(49.54836,336.43506)" />
  </g>
  <g
     inkscape:groupmode="layer"
     id="layer15"
     inkscape:label="Semi-opaque circle"
     style="display:inline"
     transform="translate(-198.81594,-433.12039)">
    <path
       style="display:inline;opacity:0.25;fill:#ffffff;stroke:none;stroke-width:0.176;stroke-linecap:butt"
       d="m 179.26758,116.01563 c 2.10236,0 3.76367,1.66131 3.76367,3.76367 0,2.10235 -1.66131,3.76367 -3.76367,3.76367 -2.10236,0 -3.76367,-1.66132 -3.76367,-3.76367 0,-2.10236 1.66131,-3.76368 3.76367,-3.76367 z"
       id="path1749"
       inkscape:path-effect="#path-effect1755;#path-effect1757"
       inkscape:original-d="m 179.2676,114.00575 v 11.547"
       transform="matrix(-1,0,0,1,418.08348,319.11455)" />
    <path
       style="display:inline;opacity:0.25;fill:#ffffff;stroke:none;stroke-width:0.176;stroke-linecap:butt"
       d="m 179.26758,116.01563 c 2.10236,0 3.76367,1.66131 3.76367,3.76367 0,2.10235 -1.66131,3.76367 -3.76367,3.76367 -2.10236,0 -3.76367,-1.66132 -3.76367,-3.76367 0,-2.10236 1.66131,-3.76368 3.76367,-3.76367 z"
       id="path1750"
       inkscape:path-effect="#path-effect1759;#path-effect1761"
       inkscape:original-d="m 179.2676,114.00575 v 11.547"
       transform="rotate(180,204.04173,282.22338)" />
    <path
       style="display:inline;opacity:0.25;fill:#ffffff;stroke:none;stroke-width:0.176;stroke-linecap:butt"
       d="m 179.26758,116.01563 c 2.10236,0 3.76367,1.66131 3.76367,3.76367 0,2.10235 -1.66131,3.76367 -3.76367,3.76367 -2.10236,0 -3.76367,-1.66132 -3.76367,-3.76367 0,-2.10236 1.66131,-3.76368 3.76367,-3.76367 z"
       id="path1751"
       inkscape:path-effect="#path-effect1763;#path-effect1765"
       inkscape:original-d="m 179.2676,114.00575 v 11.547"
       transform="rotate(180,214.04173,282.22338)" />
    <path
       style="display:inline;opacity:0.25;fill:#ffffff;stroke:none;stroke-width:0.176;stroke-linecap:butt"
       d="m 179.26758,116.01563 c 2.10236,0 3.76367,1.66131 3.76367,3.76367 0,2.10235 -1.66131,3.76367 -3.76367,3.76367 -2.10236,0 -3.76367,-1.66132 -3.76367,-3.76367 0,-2.10236 1.66131,-3.76368 3.76367,-3.76367 z"
       id="path1765"
       inkscape:path-effect="#path-effect1771;#path-effect1773"
       inkscape:original-d="m 179.2676,114.00575 v 11.547"
       transform="matrix(-1,0,0,1,388.08349,336.43505)" />
    <path
       style="display:inline;opacity:0.25;fill:#ffffff;stroke:none;stroke-width:0.176;stroke-linecap:butt"
       d="m 179.26758,116.01563 c 2.10236,0 3.76367,1.66131 3.76367,3.76367 0,2.10235 -1.66131,3.76367 -3.76367,3.76367 -2.10236,0 -3.76367,-1.66132 -3.76367,-3.76367 0,-2.10236 1.66131,-3.76368 3.76367,-3.76367 z"
       id="path1766"
       inkscape:path-effect="#path-effect1775;#path-effect1777"
       inkscape:original-d="m 179.2676,114.00575 v 11.547"
       transform="rotate(180,199.04173,290.88363)" />
    <path
       style="display:inline;opacity:0.25;fill:#ffffff;stroke:none;stroke-width:0.176;stroke-linecap:butt"
       d="m 179.26758,116.01563 c 2.10236,0 3.76367,1.66131 3.76367,3.76367 0,2.10235 -1.66131,3.76367 -3.76367,3.76367 -2.10236,0 -3.76367,-1.66132 -3.76367,-3.76367 0,-2.10236 1.66131,-3.76368 3.76367,-3.76367 z"
       id="path1767"
       inkscape:path-effect="#path-effect1779;#path-effect1781"
       inkscape:original-d="m 179.2676,114.00575 v 11.547"
       transform="rotate(180,194.04173,282.22337)" />
  </g>
  <g
     inkscape:groupmode="layer"
     id="layer14"
     inkscape:label="Piece label"
     style="display:inline"
     transform="translate(-198.81594,-433.12039)">
    <path
       d="m 227.58812,454.14002 q 0.0155,0 0.21084,-0.006 l 0.0992,0.003 0.19534,0.003 q 0.0124,0.0992 0.0124,0.14573 0,0.0155 -0.003,0.0961 -0.003,0.0434 -0.006,0.33176 l -0.006,0.46819 0.003,0.29455 -0.0217,2.0929 v 0.17673 q 0,0.093 0.0434,0.13333 0.0434,0.0403 0.23254,0.0682 0.0744,0.009 0.29766,0.0496 0.006,0.031 0.006,0.0589 0,0.0341 -0.006,0.14883 h -0.13333 q -0.13642,0 -0.39687,-0.0124 -0.15813,-0.009 -0.21704,-0.009 -0.0744,0 -0.54881,0.0155 -0.0527,0.003 -0.0868,0.003 h -0.0558 l -0.0899,-0.006 -0.0837,0.006 -0.15502,-0.006 q -0.031,0 -0.12713,0.009 -0.006,-0.0682 -0.006,-0.10542 0,-0.0341 0.006,-0.10232 0.12402,-0.0341 0.28836,-0.0682 0.22634,-0.0465 0.27595,-0.0899 0.0527,-0.0465 0.0527,-0.12092 l -0.003,-0.21084 0.0124,-0.22945 -0.003,-0.47129 -0.003,-0.12092 q 0,-0.0248 0.006,-0.18603 0.006,-0.0837 0.006,-0.14883 0,-0.0403 -0.009,-0.25115 l 0.0124,-0.17673 q -0.0124,-0.20154 -0.0124,-0.23875 0,-0.0465 0.003,-0.093 l 0.006,-0.0775 -0.009,-0.21084 0.009,-0.0961 q 0.003,-0.0651 0.003,-0.17363 0,-0.10542 -0.003,-0.25735 -0.22014,0.16433 -0.50229,0.32866 -0.031,0.0186 -0.27906,0.12713 -0.0992,-0.14883 -0.12712,-0.22325 0.32866,-0.17053 0.44648,-0.25114 0.19534,-0.13643 0.42168,-0.34107 0.0961,-0.0899 0.24495,-0.27595 z m 2.51457,0 q 0.0155,0 0.21084,-0.006 l 0.0992,0.003 0.19534,0.003 q 0.0124,0.0992 0.0124,0.14573 0,0.0155 -0.003,0.0961 -0.003,0.0434 -0.006,0.33176 l -0.006,0.46819 0.003,0.29455 -0.0217,2.0929 v 0.17673 q 0,0.093 0.0434,0.13333 0.0434,0.0403 0.23255,0.0682 0.0744,0.009 0.29765,0.0496 0.006,0.031 0.006,0.0589 0,0.0341 -0.006,0.14883 h -0.13332 q -0.13643,0 -0.39688,-0.0124 -0.15813,-0.009 -0.21704,-0.009 -0.0744,0 -0.5488,0.0155 -0.0527,0.003 -0.0868,0.003 h -0.0558 l -0.0899,-0.006 -0.0837,0.006 -0.15503,-0.006 q -0.031,0 -0.12712,0.009 -0.006,-0.0682 -0.006,-0.10542 0,-0.0341 0.006,-0.10232 0.12402,-0.0341 0.28835,-0.0682 0.22634,-0.0465 0.27595,-0.0899 0.0527,-0.0465 0.0527,-0.12092 l -0.003,-0.21084 0.0124,-0.22945 -0.003,-0.47129 -0.003,-0.12092 q 0,-0.0248 0.006,-0.18603 0.006,-0.0837 0.006,-0.14883 0,-0.0403 -0.009,-0.25115 l 0.0124,-0.17673 q -0.0124,-0.20154 -0.0124,-0.23875 0,-0.0465 0.003,-0.093 l 0.006,-0.0775 -0.009,-0.21084 0.009,-0.0961 q 0.003,-0.0651 0.003,-0.17363 0,-0.10542 -0.003,-0.25735 -0.22015,0.16433 -0.5023,0.32866 -0.031,0.0186 -0.27905,0.12713 -0.0992,-0.14883 -0.12713,-0.22325 0.32867,-0.17053 0.44649,-0.25114 0.19534,-0.13643 0.42168,-0.34107 0.0961,-0.0899 0.24494,-0.27595 z"
       id="text695"
       style="font-weight:bold;font-size:6.35px;line-height:7.45115px;font-family:Garamond;-inkscape-font-specification:'Garamond Bold';text-align:center;letter-spacing:0px;word-spacing:0px;text-anchor:middle;stroke-width:0.176"
       aria-label="11" />
  </g>
</svg>
