<?xml version="1.0" encoding="UTF-8" standalone="no"?>
<!-- Created with Inkscape (http://www.inkscape.org/) -->

<svg
   width="2.362205in"
   height="1.3638191in"
   viewBox="0 0 60.000008 34.641006"
   version="1.1"
   id="svg1"
   xmlns="http://www.w3.org/2000/svg"
   xmlns:svg="http://www.w3.org/2000/svg">
  <defs
     id="defs1" />
  <g
     id="layer11"
     style="display:inline"
     transform="translate(-198.81594,-433.12039)">
    <path
       style="fill:#bdffde;stroke:none;stroke-width:0.13338;stroke-linecap:butt"
       id="path693"
       d="m 183.98627,124.22117 7.57842,13.12622 -15.15685,0 z"
       transform="matrix(-1.3195349,0,0,-1.3195349,471.59223,631.67558)" />
    <path
       style="fill:#bdffde;stroke:none;stroke-width:0.13338;stroke-linecap:butt"
       id="path6"
       d="m 183.98627,124.22117 7.57842,13.12622 -15.15685,0 z"
       transform="matrix(-1.3195349,0,0,-1.3195349,451.59223,631.67558)" />
    <path
       style="fill:#bdffde;stroke:none;stroke-width:0.13338;stroke-linecap:butt"
       id="path24"
       d="m 183.98627,124.22117 7.57842,13.12622 -15.15685,0 z"
       transform="matrix(-1.3195349,0,0,1.3195349,491.59223,269.20622)" />
    <path
       style="fill:#bdffde;stroke:none;stroke-width:0.13338;stroke-linecap:butt"
       id="path26"
       d="m 183.98627,124.22117 7.57842,13.12622 -15.15685,0 z"
       transform="matrix(-1.3195349,0,0,-1.3195349,481.59223,614.35507)" />
    <path
       style="fill:#bdffde;stroke:none;stroke-width:0.13338;stroke-linecap:butt"
       id="path28"
       d="m 183.98627,124.22117 7.57842,13.12622 -15.15685,0 z"
       transform="matrix(-1.3195349,0,0,1.3195349,461.59223,286.52673)" />
    <path
       style="fill:#bdffde;stroke:none;stroke-width:0.13338;stroke-linecap:butt"
       id="path29"
       d="m 183.98627,124.22117 7.57842,13.12622 -15.15685,0 z"
       transform="matrix(-1.3195349,0,0,1.3195349,451.59223,269.20622)" />
    <path
       style="fill:#bdffde;stroke:none;stroke-width:0.13338;stroke-linecap:butt"
       id="path53"
       d="m 183.98627,124.22117 7.57842,13.12622 -15.15685,0 z"
       transform="matrix(-1.3195349,0,0,1.3195349,471.59223,269.20622)" />
  </g>
  <g
     id="layer12"
     style="display:inline"
     transform="translate(-198.81594,-433.12039)">
    <path
       style="fill:#00c261;stroke:none;stroke-width:0.13338;stroke-linecap:butt"
       id="path694"
       d="m 183.98633,125.75586 6.24804,10.82422 h -12.49609 z"
       transform="matrix(-1.3195349,0,0,-1.3195349,471.59223,631.67558)" />
    <path
       style="fill:#00c261;stroke:none;stroke-width:0.13338;stroke-linecap:butt"
       id="path7"
       d="m 183.98633,125.75586 6.24804,10.82422 h -12.49609 z"
       transform="matrix(-1.3195349,0,0,-1.3195349,451.59223,631.67558)" />
    <path
       style="fill:#00c261;stroke:none;stroke-width:0.13338;stroke-linecap:butt"
       id="path25"
       d="m 183.98633,125.75586 6.24804,10.82422 h -12.49609 z"
       transform="matrix(-1.3195349,0,0,1.3195349,491.59223,269.20622)" />
    <path
       style="fill:#00c261;stroke:none;stroke-width:0.13338;stroke-linecap:butt"
       id="path27"
       d="m 183.98633,125.75586 6.24804,10.82422 h -12.49609 z"
       transform="matrix(-1.3195349,0,0,-1.3195349,481.59223,614.35507)" />
    <path
       style="fill:#00c261;stroke:none;stroke-width:0.13338;stroke-linecap:butt"
       id="path54"
       d="m 183.98633,125.75586 6.24804,10.82422 h -12.49609 z"
       transform="matrix(-1.3195349,0,0,1.3195349,461.59223,286.52673)" />
    <path
       style="fill:#00c261;stroke:none;stroke-width:0.13338;stroke-linecap:butt"
       id="path55"
       d="m 183.98633,125.75586 6.24804,10.82422 h -12.49609 z"
       transform="matrix(-1.3195349,0,0,1.3195349,451.59223,269.20622)" />
    <path
       style="fill:#00c261;stroke:none;stroke-width:0.13338;stroke-linecap:butt"
       id="path56"
       d="m 183.98633,125.75586 6.24804,10.82422 h -12.49609 z"
       transform="matrix(-1.3195349,0,0,1.3195349,471.59223,269.20622)" />
  </g>
  <g
     id="layer13"
     style="display:inline"
     transform="translate(-198.81594,-433.12039)">
    <path
       style="fill:#bdffde;stroke:none;stroke-width:0.176;stroke-linecap:butt"
       d="m 179.26758,116.01563 c 2.10236,0 3.76367,1.66131 3.76367,3.76367 0,2.10235 -1.66131,3.76367 -3.76367,3.76367 -2.10236,0 -3.76367,-1.66132 -3.76367,-3.76367 0,-2.10236 1.66131,-3.76368 3.76367,-3.76367 z"
       id="path695"
       transform="translate(49.54836,336.43506)" />
  </g>
  <g
     id="layer14"
     style="display:inline"
     transform="translate(-198.81594,-433.12039)">
    <path
       d="m 227.58812,454.14002 q 0.0155,0 0.21084,-0.006 l 0.0992,0.003 0.19534,0.003 q 0.0124,0.0992 0.0124,0.14573 0,0.0155 -0.003,0.0961 -0.003,0.0434 -0.006,0.33176 l -0.006,0.46819 0.003,0.29455 -0.0217,2.0929 v 0.17673 q 0,0.093 0.0434,0.13333 0.0434,0.0403 0.23254,0.0682 0.0744,0.009 0.29766,0.0496 0.006,0.031 0.006,0.0589 0,0.0341 -0.006,0.14883 h -0.13333 q -0.13642,0 -0.39687,-0.0124 -0.15813,-0.009 -0.21704,-0.009 -0.0744,0 -0.54881,0.0155 -0.0527,0.003 -0.0868,0.003 h -0.0558 l -0.0899,-0.006 -0.0837,0.006 -0.15502,-0.006 q -0.031,0 -0.12713,0.009 -0.006,-0.0682 -0.006,-0.10542 0,-0.0341 0.006,-0.10232 0.12402,-0.0341 0.28836,-0.0682 0.22634,-0.0465 0.27595,-0.0899 0.0527,-0.0465 0.0527,-0.12092 l -0.003,-0.21084 0.0124,-0.22945 -0.003,-0.47129 -0.003,-0.12092 q 0,-0.0248 0.006,-0.18603 0.006,-0.0837 0.006,-0.14883 0,-0.0403 -0.009,-0.25115 l 0.0124,-0.17673 q -0.0124,-0.20154 -0.0124,-0.23875 0,-0.0465 0.003,-0.093 l 0.006,-0.0775 -0.009,-0.21084 0.009,-0.0961 q 0.003,-0.0651 0.003,-0.17363 0,-0.10542 -0.003,-0.25735 -0.22014,0.16433 -0.50229,0.32866 -0.031,0.0186 -0.27906,0.12713 -0.0992,-0.14883 -0.12712,-0.22325 0.32866,-0.17053 0.44648,-0.25114 0.19534,-0.13643 0.42168,-0.34107 0.0961,-0.0899 0.24495,-0.27595 z m 2.51457,0 q 0.0155,0 0.21084,-0.006 l 0.0992,0.003 0.19534,0.003 q 0.0124,0.0992 0.0124,0.14573 0,0.0155 -0.003,0.0961 -0.003,0.0434 -0.006,0.33176 l -0.006,0.46819 0.003,0.29455 -0.0217,2.0929 v 0.17673 q 0,0.093 0.0434,0.13333 0.0434,0.0403 0.23255,0.0682 0.0744,0.009 0.29765,0.0496 0.006,0.031 0.006,0.0589 0,0.0341 -0.006,0.14883 h -0.13332 q -0.13643,0 -0.39688,-0.0124 -0.15813,-0.009 -0.21704,-0.009 -0.0744,0 -0.5488,0.0155 -0.0527,0.003 -0.0868,0.003 h -0.0558 l -0.0899,-0.006 -0.0837,0.006 -0.15503,-0.006 q -0.031,0 -0.12712,0.009 -0.006,-0.0682 -0.006,-0.10542 0,-0.0341 0.006,-0.10232 0.12402,-0.0341 0.28835,-0.0682 0.22634,-0.0465 0.27595,-0.0899 0.0527,-0.0465 0.0527,-0.12092 l -0.003,-0.21084 0.0124,-0.22945 -0.003,-0.47129 -0.003,-0.12092 q 0,-0.0248 0.006,-0.18603 0.006,-0.0837 0.006,-0.14883 0,-0.0403 -0.009,-0.25115 l 0.0124,-0.17673 q -0.0124,-0.20154 -0.0124,-0.23875 0,-0.0465 0.003,-0.093 l 0.006,-0.0775 -0.009,-0.21084 0.009,-0.0961 q 0.003,-0.0651 0.003,-0.17363 0,-0.10542 -0.003,-0.25735 -0.22015,0.16433 -0.5023,0.32866 -0.031,0.0186 -0.27905,0.12713 -0.0992,-0.14883 -0.12713,-0.22325 0.32867,-0.17053 0.44649,-0.25114 0.19534,-0.13643 0.42168,-0.34107 0.0961,-0.0899 0.24494,-0.27595 z"
       id="text695"
       style="font-weight:bold;font-size:6.35px;line-height:7.45115px;font-family:Garamond;-inkscape-font-specification:'Garamond Bold';text-align:center;letter-spacing:0px;word-spacing:0px;text-anchor:middle;stroke-width:0.176"
       aria-label="11" />
  </g>
</svg>
