<?xml version="1.0" encoding="UTF-8" standalone="no"?>
<!-- Created with Inkscape (http://www.inkscape.org/) -->

<svg
   width="2.3622041in"
   height="1.3638191in"
   viewBox="0 0 59.999984 34.641006"
   version="1.1"
   id="svg1"
   xmlns="http://www.w3.org/2000/svg"
   xmlns:svg="http://www.w3.org/2000/svg">
  <defs
     id="defs1" />
  <g
     id="layer11"
     style="display:inline"
     transform="translate(-269.68258,-432.08517)">
    <path
       style="fill:#bdffde;stroke:none;stroke-width:0.13338;stroke-linecap:butt"
       id="path109"
       d="m 183.98627,124.22117 7.57842,13.12622 -15.15685,0 z"
       transform="matrix(1.3195349,0,0,-1.3195349,56.9063,630.64034)" />
    <path
       style="fill:#bdffde;stroke:none;stroke-width:0.13338;stroke-linecap:butt"
       id="path110"
       d="m 183.98627,124.22117 7.57842,13.12622 -15.15685,0 z"
       transform="matrix(1.3195349,0,0,-1.3195349,76.9063,630.64034)" />
    <path
       style="fill:#bdffde;stroke:none;stroke-width:0.13338;stroke-linecap:butt"
       id="path175"
       d="m 183.98627,124.22117 7.57842,13.12622 -15.15685,0 z"
       transform="matrix(1.3195349,0,0,1.3195349,36.9063,268.17098)" />
    <path
       style="fill:#bdffde;stroke:none;stroke-width:0.13338;stroke-linecap:butt"
       id="path176"
       d="m 183.98627,124.22117 7.57842,13.12622 -15.15685,0 z"
       transform="matrix(1.3195349,0,0,-1.3195349,46.9063,613.31983)" />
    <path
       style="fill:#bdffde;stroke:none;stroke-width:0.13338;stroke-linecap:butt"
       id="path187"
       d="m 183.98627,124.22117 7.57842,13.12622 -15.15685,0 z"
       transform="matrix(1.3195349,0,0,1.3195349,66.9063,285.49149)" />
    <path
       style="fill:#bdffde;stroke:none;stroke-width:0.13338;stroke-linecap:butt"
       id="path188"
       d="m 183.98627,124.22117 7.57842,13.12622 -15.15685,0 z"
       transform="matrix(1.3195349,0,0,1.3195349,76.9063,268.17098)" />
    <path
       style="fill:#bdffde;stroke:none;stroke-width:0.13338;stroke-linecap:butt"
       id="path189"
       d="m 183.98627,124.22117 7.57842,13.12622 -15.15685,0 z"
       transform="matrix(1.3195349,0,0,1.3195349,56.9063,268.17098)" />
  </g>
  <g
     id="layer12"
     style="display:inline"
     transform="translate(-269.68258,-432.08517)">
    <path
       style="fill:#00c261;stroke:none;stroke-width:0.13338;stroke-linecap:butt"
       id="path190"
       d="m 183.98633,125.75586 6.24804,10.82422 h -12.49609 z"
       transform="matrix(1.3195349,0,0,-1.3195349,56.9063,630.64034)" />
    <path
       style="fill:#00c261;stroke:none;stroke-width:0.13338;stroke-linecap:butt"
       id="path191"
       d="m 183.98633,125.75586 6.24804,10.82422 h -12.49609 z"
       transform="matrix(1.3195349,0,0,-1.3195349,76.9063,630.64034)" />
    <path
       style="fill:#00c261;stroke:none;stroke-width:0.13338;stroke-linecap:butt"
       id="path192"
       d="m 183.98633,125.75586 6.24804,10.82422 h -12.49609 z"
       transform="matrix(1.3195349,0,0,1.3195349,36.9063,268.17098)" />
    <path
       style="fill:#00c261;stroke:none;stroke-width:0.13338;stroke-linecap:butt"
       id="path193"
       d="m 183.98633,125.75586 6.24804,10.82422 h -12.49609 z"
       transform="matrix(1.3195349,0,0,-1.3195349,46.9063,613.31983)" />
    <path
       style="fill:#00c261;stroke:none;stroke-width:0.13338;stroke-linecap:butt"
       id="path194"
       d="m 183.98633,125.75586 6.24804,10.82422 h -12.49609 z"
       transform="matrix(1.3195349,0,0,1.3195349,66.9063,285.49149)" />
    <path
       style="fill:#00c261;stroke:none;stroke-width:0.13338;stroke-linecap:butt"
       id="path195"
       d="m 183.98633,125.75586 6.24804,10.82422 h -12.49609 z"
       transform="matrix(1.3195349,0,0,1.3195349,76.9063,268.17098)" />
    <path
       style="fill:#00c261;stroke:none;stroke-width:0.13338;stroke-linecap:butt"
       id="path218"
       d="m 183.98633,125.75586 6.24804,10.82422 h -12.49609 z"
       transform="matrix(1.3195349,0,0,1.3195349,56.9063,268.17098)" />
  </g>
  <g
     id="layer13"
     style="display:inline"
     transform="translate(-269.68258,-432.08517)">
    <path
       style="fill:#bdffde;stroke:none;stroke-width:0.176;stroke-linecap:butt"
       d="m 179.26758,116.01563 c 2.10236,0 3.76367,1.66131 3.76367,3.76367 0,2.10235 -1.66131,3.76367 -3.76367,3.76367 -2.10236,0 -3.76367,-1.66132 -3.76367,-3.76367 0,-2.10236 1.66131,-3.76368 3.76367,-3.76367 z"
       id="path219"
       transform="translate(120.41501,335.39982)" />
  </g>
  <g
     id="layer14"
     style="display:inline"
     transform="translate(-269.68258,-432.08517)">
    <path
       d="m 298.4548,453.10477 q 0.0155,0 0.21084,-0.006 l 0.0992,0.003 0.19534,0.003 q 0.0124,0.0992 0.0124,0.14573 0,0.0155 -0.003,0.0961 -0.003,0.0434 -0.006,0.33176 l -0.006,0.46819 0.003,0.29456 -0.0217,2.09289 v 0.17673 q 0,0.093 0.0434,0.13333 0.0434,0.0403 0.23255,0.0682 0.0744,0.009 0.29765,0.0496 0.006,0.031 0.006,0.0589 0,0.0341 -0.006,0.14883 h -0.13332 q -0.13643,0 -0.39688,-0.0124 -0.15813,-0.009 -0.21704,-0.009 -0.0744,0 -0.5488,0.0155 -0.0527,0.003 -0.0868,0.003 h -0.0558 l -0.0899,-0.006 -0.0837,0.006 -0.15503,-0.006 q -0.031,0 -0.12712,0.009 -0.006,-0.0682 -0.006,-0.10542 0,-0.0341 0.006,-0.10232 0.12402,-0.0341 0.28835,-0.0682 0.22634,-0.0465 0.27595,-0.0899 0.0527,-0.0465 0.0527,-0.12092 l -0.003,-0.21084 0.0124,-0.22944 -0.003,-0.47129 -0.003,-0.12093 q 0,-0.0248 0.006,-0.18603 0.006,-0.0837 0.006,-0.14883 0,-0.0403 -0.009,-0.25115 l 0.0124,-0.17673 q -0.0124,-0.20154 -0.0124,-0.23875 0,-0.0465 0.003,-0.093 l 0.006,-0.0775 -0.009,-0.21084 0.009,-0.0961 q 0.003,-0.0651 0.003,-0.17363 0,-0.10542 -0.003,-0.25735 -0.22014,0.16433 -0.50229,0.32867 -0.031,0.0186 -0.27905,0.12712 -0.0992,-0.14883 -0.12713,-0.22324 0.32867,-0.17054 0.44649,-0.25115 0.19533,-0.13643 0.42168,-0.34106 0.0961,-0.0899 0.24494,-0.27596 z m 2.51458,0 q 0.0155,0 0.21084,-0.006 l 0.0992,0.003 0.19533,0.003 q 0.0124,0.0992 0.0124,0.14573 0,0.0155 -0.003,0.0961 -0.003,0.0434 -0.006,0.33176 l -0.006,0.46819 0.003,0.29456 -0.0217,2.09289 v 0.17673 q 0,0.093 0.0434,0.13333 0.0434,0.0403 0.23254,0.0682 0.0744,0.009 0.29766,0.0496 0.006,0.031 0.006,0.0589 0,0.0341 -0.006,0.14883 h -0.13333 q -0.13642,0 -0.39687,-0.0124 -0.15813,-0.009 -0.21704,-0.009 -0.0744,0 -0.54881,0.0155 -0.0527,0.003 -0.0868,0.003 h -0.0558 l -0.0899,-0.006 -0.0837,0.006 -0.15503,-0.006 q -0.031,0 -0.12712,0.009 -0.006,-0.0682 -0.006,-0.10542 0,-0.0341 0.006,-0.10232 0.12402,-0.0341 0.28836,-0.0682 0.22634,-0.0465 0.27595,-0.0899 0.0527,-0.0465 0.0527,-0.12092 l -0.003,-0.21084 0.0124,-0.22944 -0.003,-0.47129 -0.003,-0.12093 q 0,-0.0248 0.006,-0.18603 0.006,-0.0837 0.006,-0.14883 0,-0.0403 -0.009,-0.25115 l 0.0124,-0.17673 q -0.0124,-0.20154 -0.0124,-0.23875 0,-0.0465 0.003,-0.093 l 0.006,-0.0775 -0.009,-0.21084 0.009,-0.0961 q 0.003,-0.0651 0.003,-0.17363 0,-0.10542 -0.003,-0.25735 -0.22014,0.16433 -0.50229,0.32867 -0.031,0.0186 -0.27906,0.12712 -0.0992,-0.14883 -0.12712,-0.22324 0.32866,-0.17054 0.44648,-0.25115 0.19534,-0.13643 0.42168,-0.34106 0.0961,-0.0899 0.24495,-0.27596 z"
       id="text237"
       style="font-weight:bold;font-size:6.35px;line-height:7.45115px;font-family:Garamond;-inkscape-font-specification:'Garamond Bold';text-align:center;letter-spacing:0px;word-spacing:0px;text-anchor:middle;stroke-width:0.176"
       aria-label="11" />
  </g>
</svg>
