<?xml version="1.0" encoding="UTF-8" standalone="no"?>
<!-- Created with Inkscape (http://www.inkscape.org/) -->

<svg
   width="2.7559052in"
   height="1.3638204in"
   viewBox="0 0 69.999991 34.641039"
   version="1.1"
   id="svg1"
   xmlns="http://www.w3.org/2000/svg"
   xmlns:svg="http://www.w3.org/2000/svg">
  <defs
     id="defs1" />
  <g
     id="layer11"
     style="display:inline"
     transform="translate(-202.24347,-489.9505)">
    <path
       style="fill:#bdffee;stroke:none;stroke-width:0.13338;stroke-linecap:butt"
       id="path354"
       d="m 183.98627,124.22117 7.57842,13.12622 -15.15685,0 z"
       transform="matrix(-1.3195349,0,0,-1.3195349,465.01977,688.50565)" />
    <path
       style="fill:#bdffee;stroke:none;stroke-width:0.13338;stroke-linecap:butt"
       id="path383"
       d="m 183.98627,124.22117 7.57842,13.12622 -15.15685,0 z"
       transform="matrix(-1.3195349,0,0,-1.3195349,485.01977,688.50564)" />
    <path
       style="fill:#bdffee;stroke:none;stroke-width:0.13338;stroke-linecap:butt"
       id="path443"
       d="m 183.98627,124.22117 7.57842,13.12622 -15.15685,0 z"
       transform="matrix(1.3195349,0,0,1.3195349,9.4671716,343.35679)" />
    <path
       style="fill:#bdffee;stroke:none;stroke-width:0.13338;stroke-linecap:butt"
       id="path450"
       d="m 183.98627,124.22117 7.57842,13.12622 -15.15685,0 z"
       transform="matrix(-1.3195349,0,0,-1.3195349,505.01977,688.50564)" />
    <path
       style="fill:#bdffee;stroke:none;stroke-width:0.13338;stroke-linecap:butt"
       id="path453"
       d="m 183.98627,124.22117 7.57842,13.12622 -15.15685,0 z"
       transform="matrix(-1.3195349,0,0,1.3195349,475.01977,343.3568)" />
    <path
       style="fill:#bdffee;stroke:none;stroke-width:0.13338;stroke-linecap:butt"
       id="path463"
       d="m 183.98627,124.22117 7.57842,13.12622 -15.15685,0 z"
       transform="matrix(-1.3195349,0,0,1.3195349,455.01977,343.3568)" />
    <path
       style="fill:#bdffee;stroke:none;stroke-width:0.13338;stroke-linecap:butt"
       id="path464"
       d="m 183.98627,124.22117 7.57842,13.12622 -15.15685,0 z"
       transform="matrix(-1.3195349,0,0,1.3195349,465.01977,326.03629)" />
  </g>
  <g
     id="layer12"
     style="display:inline"
     transform="translate(-202.24347,-489.9505)">
    <path
       style="fill:#00c291;stroke:none;stroke-width:0.13338;stroke-linecap:butt"
       id="path355"
       d="m 183.98633,125.75586 6.24804,10.82422 h -12.49609 z"
       transform="matrix(-1.3195349,0,0,-1.3195349,465.01977,688.50565)" />
    <path
       style="fill:#00c291;stroke:none;stroke-width:0.13338;stroke-linecap:butt"
       id="path384"
       d="m 183.98633,125.75586 6.24804,10.82422 h -12.49609 z"
       transform="matrix(-1.3195349,0,0,-1.3195349,485.01977,688.50564)" />
    <path
       style="fill:#00c291;stroke:none;stroke-width:0.13338;stroke-linecap:butt"
       id="path444"
       d="m 183.98633,125.75586 6.24804,10.82422 h -12.49609 z"
       transform="matrix(1.3195349,0,0,1.3195349,9.4671716,343.35679)" />
    <path
       style="fill:#00c291;stroke:none;stroke-width:0.13338;stroke-linecap:butt"
       id="path451"
       d="m 183.98633,125.75586 6.24804,10.82422 h -12.49609 z"
       transform="matrix(-1.3195349,0,0,-1.3195349,505.01977,688.50564)" />
    <path
       style="fill:#00c291;stroke:none;stroke-width:0.13338;stroke-linecap:butt"
       id="path467"
       d="m 183.98633,125.75586 6.24804,10.82422 h -12.49609 z"
       transform="matrix(-1.3195349,0,0,1.3195349,475.01977,343.3568)" />
    <path
       style="fill:#00c291;stroke:none;stroke-width:0.13338;stroke-linecap:butt"
       id="path468"
       d="m 183.98633,125.75586 6.24804,10.82422 h -12.49609 z"
       transform="matrix(-1.3195349,0,0,1.3195349,455.01977,343.3568)" />
    <path
       style="fill:#00c291;stroke:none;stroke-width:0.13338;stroke-linecap:butt"
       id="path469"
       d="m 183.98633,125.75586 6.24804,10.82422 h -12.49609 z"
       transform="matrix(-1.3195349,0,0,1.3195349,465.01977,326.03629)" />
  </g>
  <g
     id="layer13"
     style="display:inline"
     transform="translate(-202.24347,-489.9505)">
    <path
       style="fill:#bdffee;stroke:none;stroke-width:0.176;stroke-linecap:butt"
       d="m 179.26758,116.01563 c 2.10236,0 3.76367,1.66131 3.76367,3.76367 0,2.10235 -1.66131,3.76367 -3.76367,3.76367 -2.10236,0 -3.76367,-1.66132 -3.76367,-3.76367 0,-2.10236 1.66131,-3.76368 3.76367,-3.76367 z"
       id="path356"
       transform="translate(42.975922,393.26514)" />
  </g>
  <g
     id="layer14"
     style="display:inline"
     transform="translate(-202.24347,-489.9505)">
    <path
       d="m 220.78468,510.97007 q 0.0155,0 0.21084,-0.006 l 0.0992,0.003 0.19533,0.003 q 0.0124,0.0992 0.0124,0.14573 0,0.0155 -0.003,0.0961 -0.003,0.0434 -0.006,0.33177 l -0.006,0.46819 0.003,0.29455 -0.0217,2.0929 v 0.17673 q 0,0.093 0.0434,0.13333 0.0434,0.0403 0.23254,0.0682 0.0744,0.009 0.29766,0.0496 0.006,0.031 0.006,0.0589 0,0.0341 -0.006,0.14883 h -0.13333 q -0.13642,0 -0.39687,-0.0124 -0.15813,-0.009 -0.21704,-0.009 -0.0744,0 -0.54881,0.0155 -0.0527,0.003 -0.0868,0.003 h -0.0558 l -0.0899,-0.006 -0.0837,0.006 -0.15503,-0.006 q -0.031,0 -0.12712,0.009 -0.006,-0.0682 -0.006,-0.10542 0,-0.0341 0.006,-0.10232 0.12402,-0.0341 0.28835,-0.0682 0.22635,-0.0465 0.27596,-0.0899 0.0527,-0.0465 0.0527,-0.12093 l -0.003,-0.21084 0.0124,-0.22944 -0.003,-0.47129 -0.003,-0.12092 q 0,-0.0248 0.006,-0.18604 0.006,-0.0837 0.006,-0.14882 0,-0.0403 -0.009,-0.25115 l 0.0124,-0.17673 q -0.0124,-0.20154 -0.0124,-0.23875 0,-0.0465 0.003,-0.093 l 0.006,-0.0775 -0.009,-0.21084 0.009,-0.0961 q 0.003,-0.0651 0.003,-0.17363 0,-0.10542 -0.003,-0.25735 -0.22014,0.16433 -0.5023,0.32866 -0.031,0.0186 -0.27905,0.12712 -0.0992,-0.14882 -0.12712,-0.22324 0.32866,-0.17053 0.44648,-0.25114 0.19534,-0.13643 0.42168,-0.34107 0.0961,-0.0899 0.24495,-0.27595 z m 3.94394,4.07417 h -0.32246 q -0.11472,0 -0.17983,-0.003 -0.10232,-0.003 -0.12403,-0.003 l -0.21084,0.009 -0.0558,-0.006 q -0.0744,-0.009 -0.18293,-0.009 -0.10232,0 -0.35037,0.009 -0.11782,0.003 -0.14262,0.003 l -0.31316,-0.006 -0.5023,0.006 h -0.19844 v -0.21084 q 0.44029,-0.55811 0.66043,-0.77825 0.22324,-0.22324 0.63252,-0.73794 0.28525,-0.35346 0.39067,-0.63252 0.10852,-0.27905 0.10852,-0.48369 0,-0.22944 -0.0682,-0.41238 -0.0651,-0.18293 -0.23564,-0.28835 -0.16744,-0.10542 -0.36587,-0.10542 -0.20154,0 -0.36277,0.0992 -0.16123,0.0992 -0.23565,0.25114 -0.11472,0.22015 -0.13952,0.45889 h -0.22635 q -0.009,-0.13332 -0.009,-0.22324 0,-0.30076 0.23255,-0.57671 0.35966,-0.42788 1.01389,-0.42788 0.5457,0 0.85886,0.31006 0.31316,0.30696 0.31316,0.77514 0,0.18604 -0.0589,0.35037 -0.0837,0.22324 -0.20464,0.38757 -0.11782,0.16434 -0.65422,0.70074 -0.38758,0.38757 -0.97049,0.91777 l 0.34417,0.006 0.5643,-0.0124 0.32867,0.006 q 0.26045,0 0.34416,-0.0558 0.0868,-0.0558 0.15813,-0.26355 0.0155,-0.0496 0.0558,-0.14883 l 0.20464,-0.0124 0.0403,0.0124 q 0.0155,0.0248 0.0155,0.0465 0,0.0496 -0.0155,0.12402 -0.0155,0.0744 -0.0372,0.24495 -0.0186,0.17053 -0.0992,0.67903 z"
       id="text357"
       style="font-weight:bold;font-size:6.35px;line-height:7.45115px;font-family:Garamond;-inkscape-font-specification:'Garamond Bold';text-align:center;letter-spacing:0px;word-spacing:0px;text-anchor:middle;stroke-width:0.176"
       aria-label="12" />
  </g>
</svg>
