<?xml version="1.0" encoding="UTF-8" standalone="no"?>
<!-- Created with Inkscape (http://www.inkscape.org/) -->

<svg
   width="2.362205in"
   height="1.3638204in"
   viewBox="0 0 60.000008 34.641039"
   version="1.1"
   id="svg1"
   xmlns="http://www.w3.org/2000/svg"
   xmlns:svg="http://www.w3.org/2000/svg">
  <defs
     id="defs1" />
  <g
     id="layer11"
     style="display:inline"
     transform="translate(-198.49017,-547.00607)">
    <path
       style="fill:#bdffff;stroke:none;stroke-width:0.13338;stroke-linecap:butt"
       id="path9"
       d="m 183.98627,124.22117 7.57842,13.12622 -15.15685,0 z"
       transform="matrix(-1.3195349,0,0,-1.3195349,461.26646,745.56123)" />
    <path
       style="fill:#bdffff;stroke:none;stroke-width:0.13338;stroke-linecap:butt"
       id="path220"
       d="m 183.98627,124.22117 7.57842,13.12622 -15.15685,0 z"
       transform="matrix(-1.3195349,0,0,-1.3195349,481.26646,745.56123)" />
    <path
       style="fill:#bdffff;stroke:none;stroke-width:0.13338;stroke-linecap:butt"
       id="path357"
       d="m 183.98627,124.22117 7.57842,13.12622 -15.15685,0 z"
       transform="matrix(-1.3195349,0,0,1.3195349,461.26646,383.09187)" />
    <path
       style="fill:#bdffff;stroke:none;stroke-width:0.13338;stroke-linecap:butt"
       id="path367"
       d="m 183.98627,124.22117 7.57842,13.12622 -15.15685,0 z"
       transform="matrix(1.3195349,0,0,-1.3195349,5.7138616,728.24072)" />
    <path
       style="fill:#bdffff;stroke:none;stroke-width:0.13338;stroke-linecap:butt"
       id="path385"
       d="m 183.98627,124.22117 7.57842,13.12622 -15.15685,0 z"
       transform="matrix(-1.3195349,0,0,1.3195349,451.26646,400.41238)" />
    <path
       style="fill:#bdffff;stroke:none;stroke-width:0.13338;stroke-linecap:butt"
       id="path428"
       d="m 183.98627,124.22117 7.57842,13.12622 -15.15685,0 z"
       transform="matrix(1.3195349,0,0,1.3195349,-4.2861384,383.09187)" />
    <path
       style="fill:#bdffff;stroke:none;stroke-width:0.13338;stroke-linecap:butt"
       id="path452"
       d="m 183.98627,124.22117 7.57842,13.12622 -15.15685,0 z"
       transform="matrix(-1.3195349,0,0,1.3195349,471.26646,400.41238)" />
  </g>
  <g
     id="layer12"
     style="display:inline"
     transform="translate(-198.49017,-547.00607)">
    <path
       style="fill:#00c2c2;stroke:none;stroke-width:0.13338;stroke-linecap:butt"
       id="path19"
       d="m 183.98633,125.75586 6.24804,10.82422 h -12.49609 z"
       transform="matrix(-1.3195349,0,0,-1.3195349,461.26646,745.56123)" />
    <path
       style="fill:#00c2c2;stroke:none;stroke-width:0.13338;stroke-linecap:butt"
       id="path222"
       d="m 183.98633,125.75586 6.24804,10.82422 h -12.49609 z"
       transform="matrix(-1.3195349,0,0,-1.3195349,481.26646,745.56123)" />
    <path
       style="fill:#00c2c2;stroke:none;stroke-width:0.13338;stroke-linecap:butt"
       id="path359"
       d="m 183.98633,125.75586 6.24804,10.82422 h -12.49609 z"
       transform="matrix(-1.3195349,0,0,1.3195349,461.26646,383.09187)" />
    <path
       style="fill:#00c2c2;stroke:none;stroke-width:0.13338;stroke-linecap:butt"
       id="path368"
       d="m 183.98633,125.75586 6.24804,10.82422 h -12.49609 z"
       transform="matrix(1.3195349,0,0,-1.3195349,5.7138616,728.24072)" />
    <path
       style="fill:#00c2c2;stroke:none;stroke-width:0.13338;stroke-linecap:butt"
       id="path386"
       d="m 183.98633,125.75586 6.24804,10.82422 h -12.49609 z"
       transform="matrix(-1.3195349,0,0,1.3195349,451.26646,400.41238)" />
    <path
       style="fill:#00c2c2;stroke:none;stroke-width:0.13338;stroke-linecap:butt"
       id="path429"
       d="m 183.98633,125.75586 6.24804,10.82422 h -12.49609 z"
       transform="matrix(1.3195349,0,0,1.3195349,-4.2861384,383.09187)" />
    <path
       style="fill:#00c2c2;stroke:none;stroke-width:0.13338;stroke-linecap:butt"
       id="path472"
       d="m 183.98633,125.75586 6.24804,10.82422 h -12.49609 z"
       transform="matrix(-1.3195349,0,0,1.3195349,471.26646,400.41238)" />
  </g>
  <g
     id="layer13"
     style="display:inline"
     transform="translate(-198.49017,-547.00607)">
    <path
       style="fill:#bdffff;stroke:none;stroke-width:0.176;stroke-linecap:butt"
       d="m 179.26758,116.01563 c 2.10236,0 3.76367,1.66131 3.76367,3.76367 0,2.10235 -1.66131,3.76367 -3.76367,3.76367 -2.10236,0 -3.76367,-1.66132 -3.76367,-3.76367 0,-2.10236 1.66131,-3.76368 3.76367,-3.76367 z"
       id="path20"
       transform="translate(39.222592,450.32071)" />
  </g>
  <g
     id="layer14"
     style="display:inline"
     transform="translate(-198.49017,-547.00607)">
    <path
       d="m 217.03135,568.02567 q 0.0155,0 0.21084,-0.006 l 0.0992,0.003 0.19534,0.003 q 0.0124,0.0992 0.0124,0.14573 0,0.0155 -0.003,0.0961 -0.003,0.0434 -0.006,0.33176 l -0.006,0.46819 0.003,0.29455 -0.0217,2.0929 v 0.17673 q 0,0.093 0.0434,0.13333 0.0434,0.0403 0.23254,0.0682 0.0744,0.009 0.29766,0.0496 0.006,0.031 0.006,0.0589 0,0.0341 -0.006,0.14883 h -0.13332 q -0.13643,0 -0.39688,-0.0124 -0.15813,-0.009 -0.21704,-0.009 -0.0744,0 -0.5488,0.0155 -0.0527,0.003 -0.0868,0.003 h -0.0558 l -0.0899,-0.006 -0.0837,0.006 -0.15503,-0.006 q -0.031,0 -0.12713,0.009 -0.006,-0.0682 -0.006,-0.10542 0,-0.0341 0.006,-0.10232 0.12403,-0.0341 0.28836,-0.0682 0.22634,-0.0465 0.27595,-0.0899 0.0527,-0.0465 0.0527,-0.12092 l -0.003,-0.21084 0.0124,-0.22945 -0.003,-0.47128 -0.003,-0.12093 q 0,-0.0248 0.006,-0.18603 0.006,-0.0837 0.006,-0.14883 0,-0.0403 -0.009,-0.25115 l 0.0124,-0.17673 q -0.0124,-0.20154 -0.0124,-0.23875 0,-0.0465 0.003,-0.093 l 0.006,-0.0775 -0.009,-0.21084 0.009,-0.0961 q 0.003,-0.0651 0.003,-0.17363 0,-0.10542 -0.003,-0.25735 -0.22014,0.16433 -0.50229,0.32866 -0.031,0.0186 -0.27906,0.12713 -0.0992,-0.14883 -0.12712,-0.22324 0.32866,-0.17054 0.44648,-0.25115 0.19534,-0.13643 0.42168,-0.34107 0.0961,-0.0899 0.24495,-0.27595 z m 2.27893,2.20142 q -0.093,-0.11782 -0.15193,-0.18604 0.56431,-0.40928 0.75345,-0.66662 0.12402,-0.16433 0.12402,-0.35657 0,-0.19844 -0.14263,-0.34417 -0.14263,-0.14572 -0.32556,-0.14572 -0.37827,0 -0.68833,0.46198 l -0.19534,-0.10542 q 0.14883,-0.32556 0.29146,-0.48679 0.14573,-0.16433 0.41238,-0.27905 0.20153,-0.0868 0.50229,-0.0868 0.40618,0 0.62632,0.20464 0.22014,0.20154 0.22014,0.5085 0,0.24184 -0.15193,0.46509 -0.15193,0.22014 -0.5395,0.48369 h 0.0651 q 0.41548,0 0.67593,0.31936 0.26355,0.31936 0.26355,0.69763 0,0.31936 -0.14883,0.66662 -0.14573,0.34727 -0.5395,0.58602 -0.39377,0.23564 -0.96738,0.23564 -0.55501,0 -0.84646,-0.19534 -0.18604,-0.12402 -0.18604,-0.29145 0,-0.11782 0.0899,-0.20464 0.0899,-0.0868 0.22944,-0.0868 0.11782,0 0.21704,0.062 0.0992,0.062 0.26975,0.27906 0.0868,0.11162 0.16744,0.14262 0.14262,0.0589 0.20774,0.0589 0.16433,0 0.34106,-0.11163 0.17983,-0.11162 0.28525,-0.36897 0.10542,-0.26044 0.10542,-0.60461 0,-0.36897 -0.18603,-0.57981 -0.18294,-0.21394 -0.40308,-0.21394 -0.16123,0 -0.37517,0.14263 z"
       id="text32"
       style="font-weight:bold;font-size:6.35px;line-height:7.45115px;font-family:Garamond;-inkscape-font-specification:'Garamond Bold';text-align:center;letter-spacing:0px;word-spacing:0px;text-anchor:middle;stroke-width:0.176"
       aria-label="13" />
  </g>
</svg>
