<?xml version="1.0" encoding="UTF-8" standalone="no"?>
<!-- Created with Inkscape (http://www.inkscape.org/) -->

<svg
   width="2.3622041in"
   height="1.3638178in"
   viewBox="0 0 59.999984 34.640972"
   version="1.1"
   id="svg1"
   xmlns="http://www.w3.org/2000/svg"
   xmlns:svg="http://www.w3.org/2000/svg">
  <defs
     id="defs1" />
  <g
     id="layer11"
     style="display:inline"
     transform="translate(-293.73369,-545.26064)">
    <path
       style="fill:#bdffff;stroke:none;stroke-width:0.13338;stroke-linecap:butt"
       id="path548"
       d="m 183.98627,124.22117 7.57842,13.12622 -15.15685,0 z"
       transform="matrix(1.3195349,0,0,-1.3195349,90.957382,743.81581)" />
    <path
       style="fill:#bdffff;stroke:none;stroke-width:0.13338;stroke-linecap:butt"
       id="path549"
       d="m 183.98627,124.22117 7.57842,13.12622 -15.15685,0 z"
       transform="matrix(1.3195349,0,0,-1.3195349,70.957382,743.81581)" />
    <path
       style="fill:#bdffff;stroke:none;stroke-width:0.13338;stroke-linecap:butt"
       id="path550"
       d="m 183.98627,124.22117 7.57842,13.12622 -15.15685,0 z"
       transform="matrix(1.3195349,0,0,1.3195349,90.957382,381.34645)" />
    <path
       style="fill:#bdffff;stroke:none;stroke-width:0.13338;stroke-linecap:butt"
       id="path551"
       d="m 183.98627,124.22117 7.57842,13.12622 -15.15685,0 z"
       transform="matrix(-1.3195349,0,0,-1.3195349,546.50998,726.4953)" />
    <path
       style="fill:#bdffff;stroke:none;stroke-width:0.13338;stroke-linecap:butt"
       id="path552"
       d="m 183.98627,124.22117 7.57842,13.12622 -15.15685,0 z"
       transform="matrix(1.3195349,0,0,1.3195349,100.95738,398.66696)" />
    <path
       style="fill:#bdffff;stroke:none;stroke-width:0.13338;stroke-linecap:butt"
       id="path562"
       d="m 183.98627,124.22117 7.57842,13.12622 -15.15685,0 z"
       transform="matrix(-1.3195349,0,0,1.3195349,556.50998,381.34645)" />
    <path
       style="fill:#bdffff;stroke:none;stroke-width:0.13338;stroke-linecap:butt"
       id="path563"
       d="m 183.98627,124.22117 7.57842,13.12622 -15.15685,0 z"
       transform="matrix(1.3195349,0,0,1.3195349,80.957382,398.66696)" />
  </g>
  <g
     id="layer12"
     style="display:inline"
     transform="translate(-293.73369,-545.26064)">
    <path
       style="fill:#00c2c2;stroke:none;stroke-width:0.13338;stroke-linecap:butt"
       id="path564"
       d="m 183.98633,125.75586 6.24804,10.82422 h -12.49609 z"
       transform="matrix(1.3195349,0,0,-1.3195349,90.957382,743.81581)" />
    <path
       style="fill:#00c2c2;stroke:none;stroke-width:0.13338;stroke-linecap:butt"
       id="path565"
       d="m 183.98633,125.75586 6.24804,10.82422 h -12.49609 z"
       transform="matrix(1.3195349,0,0,-1.3195349,70.957382,743.81581)" />
    <path
       style="fill:#00c2c2;stroke:none;stroke-width:0.13338;stroke-linecap:butt"
       id="path574"
       d="m 183.98633,125.75586 6.24804,10.82422 h -12.49609 z"
       transform="matrix(1.3195349,0,0,1.3195349,90.957382,381.34645)" />
    <path
       style="fill:#00c2c2;stroke:none;stroke-width:0.13338;stroke-linecap:butt"
       id="path575"
       d="m 183.98633,125.75586 6.24804,10.82422 h -12.49609 z"
       transform="matrix(-1.3195349,0,0,-1.3195349,546.50998,726.4953)" />
    <path
       style="fill:#00c2c2;stroke:none;stroke-width:0.13338;stroke-linecap:butt"
       id="path576"
       d="m 183.98633,125.75586 6.24804,10.82422 h -12.49609 z"
       transform="matrix(1.3195349,0,0,1.3195349,100.95738,398.66696)" />
    <path
       style="fill:#00c2c2;stroke:none;stroke-width:0.13338;stroke-linecap:butt"
       id="path577"
       d="m 183.98633,125.75586 6.24804,10.82422 h -12.49609 z"
       transform="matrix(-1.3195349,0,0,1.3195349,556.50998,381.34645)" />
    <path
       style="fill:#00c2c2;stroke:none;stroke-width:0.13338;stroke-linecap:butt"
       id="path578"
       d="m 183.98633,125.75586 6.24804,10.82422 h -12.49609 z"
       transform="matrix(1.3195349,0,0,1.3195349,80.957382,398.66696)" />
  </g>
  <g
     id="layer13"
     style="display:inline"
     transform="translate(-293.73369,-545.26064)">
    <path
       style="fill:#bdffff;stroke:none;stroke-width:0.176;stroke-linecap:butt"
       d="m 179.26758,116.01563 c 2.10236,0 3.76367,1.66131 3.76367,3.76367 0,2.10235 -1.66131,3.76367 -3.76367,3.76367 -2.10236,0 -3.76367,-1.66132 -3.76367,-3.76367 0,-2.10236 1.66131,-3.76368 3.76367,-3.76367 z"
       id="path579"
       transform="translate(154.46609,448.57529)" />
  </g>
  <g
     id="layer14"
     style="display:inline"
     transform="translate(-293.73369,-545.26064)">
    <path
       d="m 332.27484,566.28025 q 0.0155,0 0.21084,-0.006 l 0.0992,0.003 0.19534,0.003 q 0.0124,0.0992 0.0124,0.14573 0,0.0155 -0.003,0.0961 -0.003,0.0434 -0.006,0.33177 l -0.006,0.46819 0.003,0.29455 -0.0217,2.0929 v 0.17673 q 0,0.093 0.0434,0.13333 0.0434,0.0403 0.23255,0.0682 0.0744,0.009 0.29766,0.0496 0.006,0.031 0.006,0.0589 0,0.0341 -0.006,0.14883 h -0.13333 q -0.13643,0 -0.39688,-0.0124 -0.15813,-0.009 -0.21704,-0.009 -0.0744,0 -0.5488,0.0155 -0.0527,0.003 -0.0868,0.003 h -0.0558 l -0.0899,-0.006 -0.0837,0.006 -0.15503,-0.006 q -0.031,0 -0.12712,0.009 -0.006,-0.0682 -0.006,-0.10542 0,-0.0341 0.006,-0.10232 0.12402,-0.0341 0.28835,-0.0682 0.22634,-0.0465 0.27595,-0.0899 0.0527,-0.0465 0.0527,-0.12092 l -0.003,-0.21084 0.0124,-0.22945 -0.003,-0.47129 -0.003,-0.12092 q 0,-0.0248 0.006,-0.18604 0.006,-0.0837 0.006,-0.14882 0,-0.0403 -0.009,-0.25115 l 0.0124,-0.17673 q -0.0124,-0.20154 -0.0124,-0.23875 0,-0.0465 0.003,-0.093 l 0.006,-0.0775 -0.009,-0.21084 0.009,-0.0961 q 0.003,-0.0651 0.003,-0.17363 0,-0.10542 -0.003,-0.25735 -0.22015,0.16433 -0.5023,0.32866 -0.031,0.0186 -0.27905,0.12713 -0.0992,-0.14883 -0.12713,-0.22325 0.32867,-0.17053 0.44649,-0.25114 0.19534,-0.13643 0.42168,-0.34107 0.0961,-0.0899 0.24495,-0.27595 z m 2.27893,2.20142 q -0.093,-0.11783 -0.15193,-0.18604 0.5643,-0.40928 0.75344,-0.66663 0.12402,-0.16433 0.12402,-0.35656 0,-0.19844 -0.14262,-0.34417 -0.14263,-0.14573 -0.32557,-0.14573 -0.37827,0 -0.68833,0.46199 l -0.19533,-0.10542 q 0.14883,-0.32556 0.29145,-0.48679 0.14573,-0.16433 0.41238,-0.27905 0.20154,-0.0868 0.5023,-0.0868 0.40617,0 0.62631,0.20464 0.22015,0.20154 0.22015,0.5085 0,0.24184 -0.15193,0.46508 -0.15193,0.22014 -0.53951,0.48369 h 0.0651 q 0.41548,0 0.67592,0.31936 0.26355,0.31936 0.26355,0.69764 0,0.31936 -0.14882,0.66662 -0.14573,0.34727 -0.53951,0.58601 -0.39377,0.23565 -0.96738,0.23565 -0.555,0 -0.84646,-0.19534 -0.18603,-0.12402 -0.18603,-0.29145 0,-0.11783 0.0899,-0.20464 0.0899,-0.0868 0.22945,-0.0868 0.11782,0 0.21704,0.062 0.0992,0.062 0.26975,0.27906 0.0868,0.11162 0.16743,0.14262 0.14263,0.0589 0.20774,0.0589 0.16433,0 0.34106,-0.11162 0.17984,-0.11162 0.28526,-0.36897 0.10542,-0.26045 0.10542,-0.60461 0,-0.36897 -0.18604,-0.57981 -0.18293,-0.21394 -0.40307,-0.21394 -0.16123,0 -0.37517,0.14263 z"
       id="text579"
       style="font-weight:bold;font-size:6.35px;line-height:7.45115px;font-family:Garamond;-inkscape-font-specification:'Garamond Bold';text-align:center;letter-spacing:0px;word-spacing:0px;text-anchor:middle;stroke-width:0.176"
       aria-label="13" />
  </g>
</svg>
