<?xml version="1.0" encoding="UTF-8" standalone="no"?>
<!-- Created with Inkscape (http://www.inkscape.org/) -->

<svg
   width="2.3622041in"
   height="1.3638178in"
   viewBox="0 0 59.999984 34.640972"
   version="1.1"
   id="svg1"
   inkscape:version="1.4 (86a8ad7, 2024-10-11)"
   sodipodi:docname="heptiamonds-pieces-vector-2.svg"
   xmlns:inkscape="http://www.inkscape.org/namespaces/inkscape"
   xmlns:sodipodi="http://sodipodi.sourceforge.net/DTD/sodipodi-0.dtd"
   xmlns="http://www.w3.org/2000/svg"
   xmlns:svg="http://www.w3.org/2000/svg">
  <sodipodi:namedview
     id="namedview1"
     pagecolor="#ffffff"
     bordercolor="#cccccc"
     borderopacity="1"
     inkscape:showpageshadow="0"
     inkscape:pageopacity="1"
     inkscape:pagecheckerboard="0"
     inkscape:deskcolor="#d1d1d1"
     inkscape:document-units="mm"
     showgrid="false"
     inkscape:zoom="2.1351378"
     inkscape:cx="31.145531"
     inkscape:cy="1343.7072"
     inkscape:window-width="2560"
     inkscape:window-height="1486"
     inkscape:window-x="-11"
     inkscape:window-y="-11"
     inkscape:window-maximized="1"
     inkscape:current-layer="layer5"
     showguides="false">
    <inkscape:grid
       id="grid1"
       units="mm"
       originx="-293.73372"
       originy="-545.26064"
       spacingx="1"
       spacingy="1"
       empcolor="#0099e5"
       empopacity="0.30196078"
       color="#0099e5"
       opacity="0.14901961"
       empspacing="4"
       enabled="true"
       visible="false" />
    <sodipodi:guide
       position="-55.017342,430.3257"
       orientation="1,0"
       id="guide446"
       inkscape:locked="false" />
    <sodipodi:guide
       position="-52.400452,429.6627"
       orientation="1,0"
       id="guide447"
       inkscape:locked="false" />
    <sodipodi:guide
       position="-5.0204516,446.31758"
       orientation="1,0"
       id="guide448"
       inkscape:locked="false" />
    <sodipodi:guide
       position="-2.4159516,445.94213"
       orientation="1,0"
       id="guide449"
       inkscape:locked="false" />
    <inkscape:page
       x="-3.9418054e-13"
       y="0"
       width="59.999989"
       height="34.640972"
       id="page2"
       margin="0"
       bleed="0" />
  </sodipodi:namedview>
  <defs
     id="defs1">
    <inkscape:path-effect
       effect="offset"
       id="path-effect1943"
       is_visible="true"
       lpeversion="1.3"
       linejoin_type="miter"
       unit="mm"
       offset="-2"
       miter_limit="4"
       attempt_force_join="false"
       update_on_knot_move="true" />
    <inkscape:path-effect
       effect="pts2ellipse"
       id="path-effect1941"
       is_visible="true"
       lpeversion="1"
       method="auto"
       gen_arc="false"
       arc_other="false"
       slice_arc="false"
       gen_isometric_frame="false"
       draw_axes="false"
       gen_perspective_frame="false"
       draw_perspective_axes="false"
       rot_axes="0"
       draw_ori_path="false" />
    <inkscape:path-effect
       effect="offset"
       id="path-effect1939"
       is_visible="true"
       lpeversion="1.3"
       linejoin_type="miter"
       unit="mm"
       offset="-2"
       miter_limit="4"
       attempt_force_join="false"
       update_on_knot_move="true" />
    <inkscape:path-effect
       effect="pts2ellipse"
       id="path-effect1937"
       is_visible="true"
       lpeversion="1"
       method="auto"
       gen_arc="false"
       arc_other="false"
       slice_arc="false"
       gen_isometric_frame="false"
       draw_axes="false"
       gen_perspective_frame="false"
       draw_perspective_axes="false"
       rot_axes="0"
       draw_ori_path="false" />
    <inkscape:path-effect
       effect="offset"
       id="path-effect1933"
       is_visible="true"
       lpeversion="1.3"
       linejoin_type="miter"
       unit="mm"
       offset="-2"
       miter_limit="4"
       attempt_force_join="false"
       update_on_knot_move="true" />
    <inkscape:path-effect
       effect="pts2ellipse"
       id="path-effect1931"
       is_visible="true"
       lpeversion="1"
       method="auto"
       gen_arc="false"
       arc_other="false"
       slice_arc="false"
       gen_isometric_frame="false"
       draw_axes="false"
       gen_perspective_frame="false"
       draw_perspective_axes="false"
       rot_axes="0"
       draw_ori_path="false" />
    <inkscape:path-effect
       effect="offset"
       id="path-effect1929"
       is_visible="true"
       lpeversion="1.3"
       linejoin_type="miter"
       unit="mm"
       offset="-2"
       miter_limit="4"
       attempt_force_join="false"
       update_on_knot_move="true" />
    <inkscape:path-effect
       effect="pts2ellipse"
       id="path-effect1927"
       is_visible="true"
       lpeversion="1"
       method="auto"
       gen_arc="false"
       arc_other="false"
       slice_arc="false"
       gen_isometric_frame="false"
       draw_axes="false"
       gen_perspective_frame="false"
       draw_perspective_axes="false"
       rot_axes="0"
       draw_ori_path="false" />
    <inkscape:path-effect
       effect="offset"
       id="path-effect1925"
       is_visible="true"
       lpeversion="1.3"
       linejoin_type="miter"
       unit="mm"
       offset="-2"
       miter_limit="4"
       attempt_force_join="false"
       update_on_knot_move="true" />
    <inkscape:path-effect
       effect="pts2ellipse"
       id="path-effect1923"
       is_visible="true"
       lpeversion="1"
       method="auto"
       gen_arc="false"
       arc_other="false"
       slice_arc="false"
       gen_isometric_frame="false"
       draw_axes="false"
       gen_perspective_frame="false"
       draw_perspective_axes="false"
       rot_axes="0"
       draw_ori_path="false" />
    <inkscape:path-effect
       effect="offset"
       id="path-effect1921"
       is_visible="true"
       lpeversion="1.3"
       linejoin_type="miter"
       unit="mm"
       offset="-2"
       miter_limit="4"
       attempt_force_join="false"
       update_on_knot_move="true" />
    <inkscape:path-effect
       effect="pts2ellipse"
       id="path-effect1919"
       is_visible="true"
       lpeversion="1"
       method="auto"
       gen_arc="false"
       arc_other="false"
       slice_arc="false"
       gen_isometric_frame="false"
       draw_axes="false"
       gen_perspective_frame="false"
       draw_perspective_axes="false"
       rot_axes="0"
       draw_ori_path="false" />
    <inkscape:path-effect
       effect="offset"
       id="path-effect618"
       is_visible="true"
       lpeversion="1.3"
       linejoin_type="miter"
       unit="mm"
       offset="-2"
       miter_limit="4"
       attempt_force_join="false"
       update_on_knot_move="true" />
    <inkscape:path-effect
       effect="pts2ellipse"
       id="path-effect615"
       is_visible="true"
       lpeversion="1"
       method="auto"
       gen_arc="false"
       arc_other="false"
       slice_arc="false"
       gen_isometric_frame="false"
       draw_axes="false"
       gen_perspective_frame="false"
       draw_perspective_axes="false"
       rot_axes="0"
       draw_ori_path="false" />
    <inkscape:path-effect
       effect="offset"
       id="path-effect612"
       is_visible="true"
       lpeversion="1.3"
       linejoin_type="miter"
       unit="mm"
       offset="-1"
       miter_limit="4"
       attempt_force_join="false"
       update_on_knot_move="true" />
    <inkscape:path-effect
       effect="offset"
       id="path-effect608"
       is_visible="true"
       lpeversion="1.3"
       linejoin_type="miter"
       unit="mm"
       offset="-1"
       miter_limit="4"
       attempt_force_join="false"
       update_on_knot_move="true" />
    <inkscape:path-effect
       effect="offset"
       id="path-effect603"
       is_visible="true"
       lpeversion="1.3"
       linejoin_type="miter"
       unit="mm"
       offset="-1"
       miter_limit="4"
       attempt_force_join="false"
       update_on_knot_move="true" />
    <inkscape:path-effect
       effect="offset"
       id="path-effect600"
       is_visible="true"
       lpeversion="1.3"
       linejoin_type="miter"
       unit="mm"
       offset="-1"
       miter_limit="4"
       attempt_force_join="false"
       update_on_knot_move="true" />
    <inkscape:path-effect
       effect="offset"
       id="path-effect595"
       is_visible="true"
       lpeversion="1.3"
       linejoin_type="miter"
       unit="mm"
       offset="-1"
       miter_limit="4"
       attempt_force_join="false"
       update_on_knot_move="true" />
    <inkscape:path-effect
       effect="offset"
       id="path-effect590"
       is_visible="true"
       lpeversion="1.3"
       linejoin_type="miter"
       unit="mm"
       offset="-1"
       miter_limit="4"
       attempt_force_join="false"
       update_on_knot_move="true" />
    <inkscape:path-effect
       effect="offset"
       id="path-effect587"
       is_visible="true"
       lpeversion="1.3"
       linejoin_type="miter"
       unit="mm"
       offset="-1"
       miter_limit="4"
       attempt_force_join="false"
       update_on_knot_move="true" />
  </defs>
  <g
     inkscape:groupmode="layer"
     id="layer11"
     inkscape:label="Generic triangle"
     style="display:inline"
     transform="translate(-293.73369,-545.26064)">
    <path
       sodipodi:type="star"
       style="fill:#bdffff;stroke:none;stroke-width:0.13338;stroke-linecap:butt"
       id="path548"
       inkscape:flatsided="true"
       sodipodi:sides="3"
       sodipodi:cx="183.98627"
       sodipodi:cy="132.97198"
       sodipodi:r1="8.7508144"
       sodipodi:r2="4.3754072"
       sodipodi:arg1="-1.5707963"
       sodipodi:arg2="-0.52359878"
       inkscape:rounded="0"
       inkscape:randomized="0"
       d="m 183.98627,124.22117 7.57842,13.12622 -15.15685,0 z"
       inkscape:transform-center-y="2.8867565"
       transform="matrix(1.3195349,0,0,-1.3195349,90.957382,743.81581)"
       inkscape:transform-center-x="1.6428729e-05" />
    <path
       sodipodi:type="star"
       style="fill:#bdffff;stroke:none;stroke-width:0.13338;stroke-linecap:butt"
       id="path549"
       inkscape:flatsided="true"
       sodipodi:sides="3"
       sodipodi:cx="183.98627"
       sodipodi:cy="132.97198"
       sodipodi:r1="8.7508144"
       sodipodi:r2="4.3754072"
       sodipodi:arg1="-1.5707963"
       sodipodi:arg2="-0.52359878"
       inkscape:rounded="0"
       inkscape:randomized="0"
       d="m 183.98627,124.22117 7.57842,13.12622 -15.15685,0 z"
       inkscape:transform-center-y="2.8867565"
       transform="matrix(1.3195349,0,0,-1.3195349,70.957382,743.81581)"
       inkscape:transform-center-x="1.6428729e-05" />
    <path
       sodipodi:type="star"
       style="fill:#bdffff;stroke:none;stroke-width:0.13338;stroke-linecap:butt"
       id="path550"
       inkscape:flatsided="true"
       sodipodi:sides="3"
       sodipodi:cx="183.98627"
       sodipodi:cy="132.97198"
       sodipodi:r1="8.7508144"
       sodipodi:r2="4.3754072"
       sodipodi:arg1="-1.5707963"
       sodipodi:arg2="-0.52359878"
       inkscape:rounded="0"
       inkscape:randomized="0"
       d="m 183.98627,124.22117 7.57842,13.12622 -15.15685,0 z"
       inkscape:transform-center-y="-2.8867563"
       transform="matrix(1.3195349,0,0,1.3195349,90.957382,381.34645)"
       inkscape:transform-center-x="1.6428729e-05" />
    <path
       sodipodi:type="star"
       style="fill:#bdffff;stroke:none;stroke-width:0.13338;stroke-linecap:butt"
       id="path551"
       inkscape:flatsided="true"
       sodipodi:sides="3"
       sodipodi:cx="183.98627"
       sodipodi:cy="132.97198"
       sodipodi:r1="8.7508144"
       sodipodi:r2="4.3754072"
       sodipodi:arg1="-1.5707963"
       sodipodi:arg2="-0.52359878"
       inkscape:rounded="0"
       inkscape:randomized="0"
       d="m 183.98627,124.22117 7.57842,13.12622 -15.15685,0 z"
       inkscape:transform-center-y="2.8867486"
       transform="matrix(-1.3195349,0,0,-1.3195349,546.50998,726.4953)"
       inkscape:transform-center-x="-1.1404347e-05" />
    <path
       sodipodi:type="star"
       style="fill:#bdffff;stroke:none;stroke-width:0.13338;stroke-linecap:butt"
       id="path552"
       inkscape:flatsided="true"
       sodipodi:sides="3"
       sodipodi:cx="183.98627"
       sodipodi:cy="132.97198"
       sodipodi:r1="8.7508144"
       sodipodi:r2="4.3754072"
       sodipodi:arg1="-1.5707963"
       sodipodi:arg2="-0.52359878"
       inkscape:rounded="0"
       inkscape:randomized="0"
       d="m 183.98627,124.22117 7.57842,13.12622 -15.15685,0 z"
       inkscape:transform-center-y="-2.8867563"
       transform="matrix(1.3195349,0,0,1.3195349,100.95738,398.66696)"
       inkscape:transform-center-x="1.6428729e-05" />
    <path
       sodipodi:type="star"
       style="fill:#bdffff;stroke:none;stroke-width:0.13338;stroke-linecap:butt"
       id="path562"
       inkscape:flatsided="true"
       sodipodi:sides="3"
       sodipodi:cx="183.98627"
       sodipodi:cy="132.97198"
       sodipodi:r1="8.7508144"
       sodipodi:r2="4.3754072"
       sodipodi:arg1="-1.5707963"
       sodipodi:arg2="-0.52359878"
       inkscape:rounded="0"
       inkscape:randomized="0"
       d="m 183.98627,124.22117 7.57842,13.12622 -15.15685,0 z"
       inkscape:transform-center-y="-2.8867584"
       transform="matrix(-1.3195349,0,0,1.3195349,556.50998,381.34645)"
       inkscape:transform-center-x="-1.4488783e-06" />
    <path
       sodipodi:type="star"
       style="fill:#bdffff;stroke:none;stroke-width:0.13338;stroke-linecap:butt"
       id="path563"
       inkscape:flatsided="true"
       sodipodi:sides="3"
       sodipodi:cx="183.98627"
       sodipodi:cy="132.97198"
       sodipodi:r1="8.7508144"
       sodipodi:r2="4.3754072"
       sodipodi:arg1="-1.5707963"
       sodipodi:arg2="-0.52359878"
       inkscape:rounded="0"
       inkscape:randomized="0"
       d="m 183.98627,124.22117 7.57842,13.12622 -15.15685,0 z"
       inkscape:transform-center-y="-2.8867563"
       transform="matrix(1.3195349,0,0,1.3195349,80.957382,398.66696)"
       inkscape:transform-center-x="1.6428729e-05" />
  </g>
  <g
     inkscape:groupmode="layer"
     id="layer12"
     inkscape:label="Top generic triangle"
     style="display:inline"
     transform="translate(-293.73369,-545.26064)">
    <path
       sodipodi:type="star"
       style="fill:#00c2c2;stroke:none;stroke-width:0.13338;stroke-linecap:butt"
       id="path564"
       inkscape:flatsided="true"
       sodipodi:sides="3"
       sodipodi:cx="183.98627"
       sodipodi:cy="132.97198"
       sodipodi:r1="8.7508144"
       sodipodi:r2="4.3754072"
       sodipodi:arg1="-1.5707963"
       sodipodi:arg2="-0.52359878"
       inkscape:rounded="0"
       inkscape:randomized="0"
       d="m 183.98633,125.75586 6.24804,10.82422 h -12.49609 z"
       inkscape:transform-center-y="2.8867565"
       transform="matrix(1.3195349,0,0,-1.3195349,90.957382,743.81581)"
       inkscape:transform-center-x="1.6428729e-05"
       inkscape:path-effect="#path-effect587" />
    <path
       sodipodi:type="star"
       style="fill:#00c2c2;stroke:none;stroke-width:0.13338;stroke-linecap:butt"
       id="path565"
       inkscape:flatsided="true"
       sodipodi:sides="3"
       sodipodi:cx="183.98627"
       sodipodi:cy="132.97198"
       sodipodi:r1="8.7508144"
       sodipodi:r2="4.3754072"
       sodipodi:arg1="-1.5707963"
       sodipodi:arg2="-0.52359878"
       inkscape:rounded="0"
       inkscape:randomized="0"
       d="m 183.98633,125.75586 6.24804,10.82422 h -12.49609 z"
       inkscape:transform-center-y="2.8867565"
       transform="matrix(1.3195349,0,0,-1.3195349,70.957382,743.81581)"
       inkscape:transform-center-x="1.6428729e-05"
       inkscape:path-effect="#path-effect590" />
    <path
       sodipodi:type="star"
       style="fill:#00c2c2;stroke:none;stroke-width:0.13338;stroke-linecap:butt"
       id="path574"
       inkscape:flatsided="true"
       sodipodi:sides="3"
       sodipodi:cx="183.98627"
       sodipodi:cy="132.97198"
       sodipodi:r1="8.7508144"
       sodipodi:r2="4.3754072"
       sodipodi:arg1="-1.5707963"
       sodipodi:arg2="-0.52359878"
       inkscape:rounded="0"
       inkscape:randomized="0"
       d="m 183.98633,125.75586 6.24804,10.82422 h -12.49609 z"
       inkscape:transform-center-y="-2.8867563"
       transform="matrix(1.3195349,0,0,1.3195349,90.957382,381.34645)"
       inkscape:transform-center-x="1.6428729e-05"
       inkscape:path-effect="#path-effect595" />
    <path
       sodipodi:type="star"
       style="fill:#00c2c2;stroke:none;stroke-width:0.13338;stroke-linecap:butt"
       id="path575"
       inkscape:flatsided="true"
       sodipodi:sides="3"
       sodipodi:cx="183.98627"
       sodipodi:cy="132.97198"
       sodipodi:r1="8.7508144"
       sodipodi:r2="4.3754072"
       sodipodi:arg1="-1.5707963"
       sodipodi:arg2="-0.52359878"
       inkscape:rounded="0"
       inkscape:randomized="0"
       d="m 183.98633,125.75586 6.24804,10.82422 h -12.49609 z"
       inkscape:transform-center-y="2.8867486"
       transform="matrix(-1.3195349,0,0,-1.3195349,546.50998,726.4953)"
       inkscape:transform-center-x="-1.1404347e-05"
       inkscape:path-effect="#path-effect600" />
    <path
       sodipodi:type="star"
       style="fill:#00c2c2;stroke:none;stroke-width:0.13338;stroke-linecap:butt"
       id="path576"
       inkscape:flatsided="true"
       sodipodi:sides="3"
       sodipodi:cx="183.98627"
       sodipodi:cy="132.97198"
       sodipodi:r1="8.7508144"
       sodipodi:r2="4.3754072"
       sodipodi:arg1="-1.5707963"
       sodipodi:arg2="-0.52359878"
       inkscape:rounded="0"
       inkscape:randomized="0"
       d="m 183.98633,125.75586 6.24804,10.82422 h -12.49609 z"
       inkscape:transform-center-y="-2.8867563"
       transform="matrix(1.3195349,0,0,1.3195349,100.95738,398.66696)"
       inkscape:transform-center-x="1.6428729e-05"
       inkscape:path-effect="#path-effect603" />
    <path
       sodipodi:type="star"
       style="fill:#00c2c2;stroke:none;stroke-width:0.13338;stroke-linecap:butt"
       id="path577"
       inkscape:flatsided="true"
       sodipodi:sides="3"
       sodipodi:cx="183.98627"
       sodipodi:cy="132.97198"
       sodipodi:r1="8.7508144"
       sodipodi:r2="4.3754072"
       sodipodi:arg1="-1.5707963"
       sodipodi:arg2="-0.52359878"
       inkscape:rounded="0"
       inkscape:randomized="0"
       d="m 183.98633,125.75586 6.24804,10.82422 h -12.49609 z"
       inkscape:transform-center-y="-2.8867584"
       transform="matrix(-1.3195349,0,0,1.3195349,556.50998,381.34645)"
       inkscape:transform-center-x="-1.4488783e-06"
       inkscape:path-effect="#path-effect608" />
    <path
       sodipodi:type="star"
       style="fill:#00c2c2;stroke:none;stroke-width:0.13338;stroke-linecap:butt"
       id="path578"
       inkscape:flatsided="true"
       sodipodi:sides="3"
       sodipodi:cx="183.98627"
       sodipodi:cy="132.97198"
       sodipodi:r1="8.7508144"
       sodipodi:r2="4.3754072"
       sodipodi:arg1="-1.5707963"
       sodipodi:arg2="-0.52359878"
       inkscape:rounded="0"
       inkscape:randomized="0"
       d="m 183.98633,125.75586 6.24804,10.82422 h -12.49609 z"
       inkscape:transform-center-y="-2.8867563"
       transform="matrix(1.3195349,0,0,1.3195349,80.957382,398.66696)"
       inkscape:transform-center-x="1.6428729e-05"
       inkscape:path-effect="#path-effect612" />
  </g>
  <g
     inkscape:groupmode="layer"
     id="layer13"
     inkscape:label="Circle"
     style="display:inline"
     transform="translate(-293.73369,-545.26064)">
    <path
       style="fill:#bdffff;stroke:none;stroke-width:0.176;stroke-linecap:butt"
       d="m 179.26758,116.01563 c 2.10236,0 3.76367,1.66131 3.76367,3.76367 0,2.10235 -1.66131,3.76367 -3.76367,3.76367 -2.10236,0 -3.76367,-1.66132 -3.76367,-3.76367 0,-2.10236 1.66131,-3.76368 3.76367,-3.76367 z"
       id="path579"
       inkscape:path-effect="#path-effect615;#path-effect618"
       inkscape:original-d="m 179.2676,114.00575 v 11.547"
       transform="translate(154.46609,448.57529)" />
  </g>
  <g
     inkscape:groupmode="layer"
     id="layer15"
     inkscape:label="Semi-opaque circle"
     style="display:inline"
     transform="translate(-293.73369,-545.26064)">
    <path
       style="display:inline;opacity:0.25;fill:#ffffff;stroke:none;stroke-width:0.176;stroke-linecap:butt"
       d="m 179.26758,116.01563 c 2.10236,0 3.76367,1.66131 3.76367,3.76367 0,2.10235 -1.66131,3.76367 -3.76367,3.76367 -2.10236,0 -3.76367,-1.66132 -3.76367,-3.76367 0,-2.10236 1.66131,-3.76368 3.76367,-3.76367 z"
       id="path1913"
       inkscape:path-effect="#path-effect1919;#path-effect1921"
       inkscape:original-d="m 179.2676,114.00575 v 11.547"
       transform="matrix(-1,0,0,1,493.00123,448.57528)" />
    <path
       style="display:inline;opacity:0.25;fill:#ffffff;stroke:none;stroke-width:0.176;stroke-linecap:butt"
       d="m 179.26758,116.01563 c 2.10236,0 3.76367,1.66131 3.76367,3.76367 0,2.10235 -1.66131,3.76367 -3.76367,3.76367 -2.10236,0 -3.76367,-1.66132 -3.76367,-3.76367 0,-2.10236 1.66131,-3.76368 3.76367,-3.76367 z"
       id="path1914"
       inkscape:path-effect="#path-effect1923;#path-effect1925"
       inkscape:original-d="m 179.2676,114.00575 v 11.547"
       transform="rotate(180,251.50062,346.95375)" />
    <path
       style="display:inline;opacity:0.25;fill:#ffffff;stroke:none;stroke-width:0.176;stroke-linecap:butt"
       d="m 179.26758,116.01563 c 2.10236,0 3.76367,1.66131 3.76367,3.76367 0,2.10235 -1.66131,3.76367 -3.76367,3.76367 -2.10236,0 -3.76367,-1.66132 -3.76367,-3.76367 0,-2.10236 1.66131,-3.76368 3.76367,-3.76367 z"
       id="path1915"
       inkscape:path-effect="#path-effect1927;#path-effect1929"
       inkscape:original-d="m 179.2676,114.00575 v 11.547"
       transform="rotate(180,246.50062,338.29349)" />
    <path
       style="display:inline;opacity:0.25;fill:#ffffff;stroke:none;stroke-width:0.176;stroke-linecap:butt"
       d="m 179.26758,116.01563 c 2.10236,0 3.76367,1.66131 3.76367,3.76367 0,2.10235 -1.66131,3.76367 -3.76367,3.76367 -2.10236,0 -3.76367,-1.66132 -3.76367,-3.76367 0,-2.10236 1.66131,-3.76368 3.76367,-3.76367 z"
       id="path1929"
       inkscape:path-effect="#path-effect1931;#path-effect1933"
       inkscape:original-d="m 179.2676,114.00575 v 11.547"
       transform="matrix(-1,0,0,1,483.00123,431.25477)" />
    <path
       style="display:inline;opacity:0.25;fill:#ffffff;stroke:none;stroke-width:0.176;stroke-linecap:butt"
       d="m 179.26758,116.01563 c 2.10236,0 3.76367,1.66131 3.76367,3.76367 0,2.10235 -1.66131,3.76367 -3.76367,3.76367 -2.10236,0 -3.76367,-1.66132 -3.76367,-3.76367 0,-2.10236 1.66131,-3.76368 3.76367,-3.76367 z"
       id="path1933"
       inkscape:path-effect="#path-effect1937;#path-effect1939"
       inkscape:original-d="m 179.2676,114.00575 v 11.547"
       transform="rotate(180,261.50063,346.95375)" />
    <path
       style="display:inline;opacity:0.25;fill:#ffffff;stroke:none;stroke-width:0.176;stroke-linecap:butt"
       d="m 179.26758,116.01563 c 2.10236,0 3.76367,1.66131 3.76367,3.76367 0,2.10235 -1.66131,3.76367 -3.76367,3.76367 -2.10236,0 -3.76367,-1.66132 -3.76367,-3.76367 0,-2.10236 1.66131,-3.76368 3.76367,-3.76367 z"
       id="path1934"
       inkscape:path-effect="#path-effect1941;#path-effect1943"
       inkscape:original-d="m 179.2676,114.00575 v 11.547"
       transform="rotate(180,256.50063,338.29349)" />
  </g>
  <g
     inkscape:groupmode="layer"
     id="layer14"
     inkscape:label="Piece label"
     style="display:inline"
     transform="translate(-293.73369,-545.26064)">
    <path
       d="m 332.27484,566.28025 q 0.0155,0 0.21084,-0.006 l 0.0992,0.003 0.19534,0.003 q 0.0124,0.0992 0.0124,0.14573 0,0.0155 -0.003,0.0961 -0.003,0.0434 -0.006,0.33177 l -0.006,0.46819 0.003,0.29455 -0.0217,2.0929 v 0.17673 q 0,0.093 0.0434,0.13333 0.0434,0.0403 0.23255,0.0682 0.0744,0.009 0.29766,0.0496 0.006,0.031 0.006,0.0589 0,0.0341 -0.006,0.14883 h -0.13333 q -0.13643,0 -0.39688,-0.0124 -0.15813,-0.009 -0.21704,-0.009 -0.0744,0 -0.5488,0.0155 -0.0527,0.003 -0.0868,0.003 h -0.0558 l -0.0899,-0.006 -0.0837,0.006 -0.15503,-0.006 q -0.031,0 -0.12712,0.009 -0.006,-0.0682 -0.006,-0.10542 0,-0.0341 0.006,-0.10232 0.12402,-0.0341 0.28835,-0.0682 0.22634,-0.0465 0.27595,-0.0899 0.0527,-0.0465 0.0527,-0.12092 l -0.003,-0.21084 0.0124,-0.22945 -0.003,-0.47129 -0.003,-0.12092 q 0,-0.0248 0.006,-0.18604 0.006,-0.0837 0.006,-0.14882 0,-0.0403 -0.009,-0.25115 l 0.0124,-0.17673 q -0.0124,-0.20154 -0.0124,-0.23875 0,-0.0465 0.003,-0.093 l 0.006,-0.0775 -0.009,-0.21084 0.009,-0.0961 q 0.003,-0.0651 0.003,-0.17363 0,-0.10542 -0.003,-0.25735 -0.22015,0.16433 -0.5023,0.32866 -0.031,0.0186 -0.27905,0.12713 -0.0992,-0.14883 -0.12713,-0.22325 0.32867,-0.17053 0.44649,-0.25114 0.19534,-0.13643 0.42168,-0.34107 0.0961,-0.0899 0.24495,-0.27595 z m 2.27893,2.20142 q -0.093,-0.11783 -0.15193,-0.18604 0.5643,-0.40928 0.75344,-0.66663 0.12402,-0.16433 0.12402,-0.35656 0,-0.19844 -0.14262,-0.34417 -0.14263,-0.14573 -0.32557,-0.14573 -0.37827,0 -0.68833,0.46199 l -0.19533,-0.10542 q 0.14883,-0.32556 0.29145,-0.48679 0.14573,-0.16433 0.41238,-0.27905 0.20154,-0.0868 0.5023,-0.0868 0.40617,0 0.62631,0.20464 0.22015,0.20154 0.22015,0.5085 0,0.24184 -0.15193,0.46508 -0.15193,0.22014 -0.53951,0.48369 h 0.0651 q 0.41548,0 0.67592,0.31936 0.26355,0.31936 0.26355,0.69764 0,0.31936 -0.14882,0.66662 -0.14573,0.34727 -0.53951,0.58601 -0.39377,0.23565 -0.96738,0.23565 -0.555,0 -0.84646,-0.19534 -0.18603,-0.12402 -0.18603,-0.29145 0,-0.11783 0.0899,-0.20464 0.0899,-0.0868 0.22945,-0.0868 0.11782,0 0.21704,0.062 0.0992,0.062 0.26975,0.27906 0.0868,0.11162 0.16743,0.14262 0.14263,0.0589 0.20774,0.0589 0.16433,0 0.34106,-0.11162 0.17984,-0.11162 0.28526,-0.36897 0.10542,-0.26045 0.10542,-0.60461 0,-0.36897 -0.18604,-0.57981 -0.18293,-0.21394 -0.40307,-0.21394 -0.16123,0 -0.37517,0.14263 z"
       id="text579"
       style="font-weight:bold;font-size:6.35px;line-height:7.45115px;font-family:Garamond;-inkscape-font-specification:'Garamond Bold';text-align:center;letter-spacing:0px;word-spacing:0px;text-anchor:middle;stroke-width:0.176"
       aria-label="13" />
  </g>
</svg>
