<?xml version="1.0" encoding="UTF-8" standalone="no"?>
<!-- Created with Inkscape (http://www.inkscape.org/) -->

<svg
   width="2.3622055in"
   height="2.0457292in"
   viewBox="0 0 60.00002 51.961521"
   version="1.1"
   id="svg1"
   xmlns="http://www.w3.org/2000/svg"
   xmlns:svg="http://www.w3.org/2000/svg">
  <defs
     id="defs1" />
  <g
     id="layer11"
     style="display:inline"
     transform="translate(-338.64825,-127.57232)">
    <path
       style="fill:#bdeeff;stroke:none;stroke-width:0.13338;stroke-linecap:butt"
       id="path635"
       d="m 183.98627,124.22117 7.57842,13.12622 -15.15685,0 z"
       transform="matrix(-1.3195349,0,0,-1.3195349,601.42457,326.12752)" />
    <path
       style="fill:#bdeeff;stroke:none;stroke-width:0.13338;stroke-linecap:butt"
       id="path697"
       d="m 183.98627,124.22117 7.57842,13.12622 -15.15685,0 z"
       transform="matrix(-1.3195349,0,0,-1.3195349,621.42457,326.12752)" />
    <path
       style="fill:#bdeeff;stroke:none;stroke-width:0.13338;stroke-linecap:butt"
       id="path712"
       d="m 183.98627,124.22117 7.57842,13.12622 -15.15685,0 z"
       transform="matrix(-1.3195349,0,0,-1.3195349,631.42457,343.44802)" />
    <path
       style="fill:#bdeeff;stroke:none;stroke-width:0.13338;stroke-linecap:butt"
       id="path714"
       d="m 183.98627,124.22117 7.57842,13.12622 -15.15685,0 z"
       transform="matrix(-1.3195349,0,0,1.3195349,611.42457,-19.021331)" />
    <path
       style="fill:#bdeeff;stroke:none;stroke-width:0.13338;stroke-linecap:butt"
       id="path715"
       d="m 183.98627,124.22117 7.57842,13.12622 -15.15685,0 z"
       transform="matrix(-1.3195349,0,0,1.3195349,631.42457,-19.021331)" />
    <path
       style="fill:#bdeeff;stroke:none;stroke-width:0.13338;stroke-linecap:butt"
       id="path720"
       d="m 183.98627,124.22117 7.57842,13.12622 -15.15685,0 z"
       transform="matrix(-1.3195349,0,0,1.3195349,591.42457,-19.021331)" />
    <path
       style="fill:#bdeeff;stroke:none;stroke-width:0.13338;stroke-linecap:butt"
       id="path721"
       d="m 183.98627,124.22117 7.57842,13.12622 -15.15685,0 z"
       transform="matrix(-1.3195349,0,0,1.3195349,601.42457,-36.341841)" />
  </g>
  <g
     id="layer12"
     style="display:inline"
     transform="translate(-338.64825,-127.57232)">
    <path
       style="fill:#0091c2;stroke:none;stroke-width:0.13338;stroke-linecap:butt"
       id="path644"
       d="m 183.98633,125.75586 6.24804,10.82422 h -12.49609 z"
       transform="matrix(-1.3195349,0,0,-1.3195349,601.42457,326.12752)" />
    <path
       style="fill:#0091c2;stroke:none;stroke-width:0.13338;stroke-linecap:butt"
       id="path698"
       d="m 183.98633,125.75586 6.24804,10.82422 h -12.49609 z"
       transform="matrix(-1.3195349,0,0,-1.3195349,621.42457,326.12752)" />
    <path
       style="fill:#0091c2;stroke:none;stroke-width:0.13338;stroke-linecap:butt"
       id="path713"
       d="m 183.98633,125.75586 6.24804,10.82422 h -12.49609 z"
       transform="matrix(-1.3195349,0,0,-1.3195349,631.42457,343.44802)" />
    <path
       style="fill:#0091c2;stroke:none;stroke-width:0.13338;stroke-linecap:butt"
       id="path716"
       d="m 183.98633,125.75586 6.24804,10.82422 h -12.49609 z"
       transform="matrix(-1.3195349,0,0,1.3195349,611.42457,-19.021331)" />
    <path
       style="fill:#0091c2;stroke:none;stroke-width:0.13338;stroke-linecap:butt"
       id="path717"
       d="m 183.98633,125.75586 6.24804,10.82422 h -12.49609 z"
       transform="matrix(-1.3195349,0,0,1.3195349,631.42457,-19.021331)" />
    <path
       style="fill:#0091c2;stroke:none;stroke-width:0.13338;stroke-linecap:butt"
       id="path722"
       d="m 183.98633,125.75586 6.24804,10.82422 h -12.49609 z"
       transform="matrix(-1.3195349,0,0,1.3195349,591.42457,-19.021331)" />
    <path
       style="fill:#0091c2;stroke:none;stroke-width:0.13338;stroke-linecap:butt"
       id="path723"
       d="m 183.98633,125.75586 6.24804,10.82422 h -12.49609 z"
       transform="matrix(-1.3195349,0,0,1.3195349,601.42457,-36.341841)" />
  </g>
  <g
     id="layer13"
     style="display:inline"
     transform="translate(-338.64825,-127.57232)">
    <path
       style="fill:#bdeeff;stroke:none;stroke-width:0.176;stroke-linecap:butt"
       d="m 179.26758,116.01563 c 2.10236,0 3.76367,1.66131 3.76367,3.76367 0,2.10235 -1.66131,3.76367 -3.76367,3.76367 -2.10236,0 -3.76367,-1.66132 -3.76367,-3.76367 0,-2.10236 1.66131,-3.76368 3.76367,-3.76367 z"
       id="path645"
       transform="translate(179.38069,30.887019)" />
  </g>
  <g
     id="layer14"
     style="display:inline"
     transform="translate(-338.64825,-127.57232)">
    <path
       d="m 357.18945,148.592 q 0.0155,0 0.21084,-0.006 l 0.0992,0.003 0.19533,0.003 q 0.0124,0.0992 0.0124,0.14573 0,0.0155 -0.003,0.0961 -0.003,0.0434 -0.006,0.33176 l -0.006,0.46819 0.003,0.29455 -0.0217,2.0929 v 0.17673 q 0,0.093 0.0434,0.13333 0.0434,0.0403 0.23254,0.0682 0.0744,0.009 0.29766,0.0496 0.006,0.031 0.006,0.0589 0,0.0341 -0.006,0.14883 h -0.13333 q -0.13642,0 -0.39687,-0.0124 -0.15813,-0.009 -0.21704,-0.009 -0.0744,0 -0.54881,0.0155 -0.0527,0.003 -0.0868,0.003 h -0.0558 l -0.0899,-0.006 -0.0837,0.006 -0.15503,-0.006 q -0.031,0 -0.12712,0.009 -0.006,-0.0682 -0.006,-0.10542 0,-0.0341 0.006,-0.10232 0.12402,-0.0341 0.28835,-0.0682 0.22635,-0.0465 0.27596,-0.0899 0.0527,-0.0465 0.0527,-0.12092 l -0.003,-0.21084 0.0124,-0.22945 -0.003,-0.47128 -0.003,-0.12093 q 0,-0.0248 0.006,-0.18603 0.006,-0.0837 0.006,-0.14883 0,-0.0403 -0.009,-0.25115 l 0.0124,-0.17673 q -0.0124,-0.20154 -0.0124,-0.23875 0,-0.0465 0.003,-0.093 l 0.006,-0.0775 -0.009,-0.21084 0.009,-0.0961 q 0.003,-0.0651 0.003,-0.17363 0,-0.10542 -0.003,-0.25735 -0.22014,0.16433 -0.5023,0.32866 -0.031,0.0186 -0.27905,0.12713 -0.0992,-0.14883 -0.12712,-0.22324 0.32866,-0.17054 0.44648,-0.25115 0.19534,-0.13643 0.42168,-0.34107 0.0961,-0.0899 0.24495,-0.27595 z m 4.07107,2.58589 v 0.5209 q -0.16744,0.009 -0.26355,0.009 -0.0899,0 -0.22945,-0.009 -0.009,0.0744 -0.009,0.0899 l 0.006,0.18603 -0.003,0.19844 0.006,0.13642 q 0,0.0372 -0.009,0.18604 -0.006,0.0837 -0.009,0.25115 l -0.26665,-0.003 h -0.16433 q -0.0651,0 -0.0992,-0.003 l -0.0527,-0.006 q -0.0217,0 -0.0682,0.0124 l 0.006,-0.60152 -0.0124,-0.38757 q 0,-0.0155 0.006,-0.0589 -0.14883,0.003 -0.44339,0.006 h -0.20464 q -0.26355,0 -0.58601,-0.009 -0.10232,-0.003 -0.13332,-0.003 -0.0465,0 -0.14263,0.006 l -0.006,-0.0403 0.009,-0.21394 -0.006,-0.0682 0.009,-0.12713 -0.006,-0.0248 q 0.14573,-0.27595 0.18604,-0.33486 l 0.71003,-1.09141 q 0.23875,-0.35347 0.37827,-0.5364 0.14263,-0.18604 0.19844,-0.27595 0.0868,-0.13953 0.15193,-0.22015 0.0961,-0.12092 0.12402,-0.17053 0.18294,-0.009 0.22945,-0.009 0.0589,0 0.22014,0.009 l 0.006,0.0372 -0.0124,0.22944 0.006,0.0806 -0.009,0.12712 0.006,0.12713 -0.006,0.30695 -0.003,0.13333 0.003,0.17363 -0.003,0.16123 0.003,0.22014 -0.003,0.21084 0.003,0.24495 -0.009,0.5302 q 0.10852,0 0.26975,0.006 h 0.0744 q 0.0496,0 0.14883,-0.006 z m -1.16272,-0.006 q 0.0186,-0.15503 0.0186,-0.23255 0,-0.031 -0.006,-0.11472 -0.003,-0.0868 -0.003,-0.11162 l 0.009,-0.24184 -0.006,-0.20774 0.009,-0.5364 -0.003,-0.24495 q 0,-0.031 0.006,-0.14573 -0.0248,0.0372 -0.0868,0.11162 -0.0434,0.0713 -0.0713,0.10542 -0.12092,0.14883 -0.26975,0.36897 l -0.27905,0.44649 q -0.0403,0.062 -0.0899,0.14572 -0.0837,0.13643 -0.20154,0.31316 -0.11472,0.17674 -0.19223,0.34417 0.093,-0.009 0.12712,-0.009 l 0.14883,0.003 h 0.29765 l 0.41548,0.006 z"
       id="text645"
       style="font-weight:bold;font-size:6.35px;line-height:7.45115px;font-family:Garamond;-inkscape-font-specification:'Garamond Bold';text-align:center;letter-spacing:0px;word-spacing:0px;text-anchor:middle;stroke-width:0.176"
       aria-label="14" />
  </g>
</svg>
