<?xml version="1.0" encoding="UTF-8" standalone="no"?>
<!-- Created with Inkscape (http://www.inkscape.org/) -->

<svg
   width="2.7559066in"
   height="1.3638198in"
   viewBox="0 0 70.000027 34.641024"
   version="1.1"
   id="svg1"
   inkscape:version="1.4 (86a8ad7, 2024-10-11)"
   sodipodi:docname="heptiamonds-pieces-vector-2.svg"
   xmlns:inkscape="http://www.inkscape.org/namespaces/inkscape"
   xmlns:sodipodi="http://sodipodi.sourceforge.net/DTD/sodipodi-0.dtd"
   xmlns="http://www.w3.org/2000/svg"
   xmlns:svg="http://www.w3.org/2000/svg">
  <sodipodi:namedview
     id="namedview1"
     pagecolor="#ffffff"
     bordercolor="#cccccc"
     borderopacity="1"
     inkscape:showpageshadow="0"
     inkscape:pageopacity="1"
     inkscape:pagecheckerboard="0"
     inkscape:deskcolor="#d1d1d1"
     inkscape:document-units="mm"
     showgrid="false"
     inkscape:zoom="2.1351378"
     inkscape:cx="31.145531"
     inkscape:cy="1343.7072"
     inkscape:window-width="2560"
     inkscape:window-height="1486"
     inkscape:window-x="-11"
     inkscape:window-y="-11"
     inkscape:window-maximized="1"
     inkscape:current-layer="layer5"
     showguides="false">
    <inkscape:grid
       id="grid1"
       units="mm"
       originx="-324.12367"
       originy="-189.44698"
       spacingx="1"
       spacingy="1"
       empcolor="#0099e5"
       empopacity="0.30196078"
       color="#0099e5"
       opacity="0.14901961"
       empspacing="4"
       enabled="true"
       visible="false" />
    <sodipodi:guide
       position="-85.407315,74.512093"
       orientation="1,0"
       id="guide446"
       inkscape:locked="false" />
    <sodipodi:guide
       position="-82.790425,73.849093"
       orientation="1,0"
       id="guide447"
       inkscape:locked="false" />
    <sodipodi:guide
       position="-35.410426,90.503973"
       orientation="1,0"
       id="guide448"
       inkscape:locked="false" />
    <sodipodi:guide
       position="-32.805926,90.128523"
       orientation="1,0"
       id="guide449"
       inkscape:locked="false" />
    <inkscape:page
       x="-8.5032665e-13"
       y="-4.0526117e-13"
       width="70.000023"
       height="34.641022"
       id="page2"
       margin="0"
       bleed="0" />
  </sodipodi:namedview>
  <defs
     id="defs1">
    <inkscape:path-effect
       effect="offset"
       id="path-effect2389"
       is_visible="true"
       lpeversion="1.3"
       linejoin_type="miter"
       unit="mm"
       offset="-2"
       miter_limit="4"
       attempt_force_join="false"
       update_on_knot_move="true" />
    <inkscape:path-effect
       effect="pts2ellipse"
       id="path-effect2387"
       is_visible="true"
       lpeversion="1"
       method="auto"
       gen_arc="false"
       arc_other="false"
       slice_arc="false"
       gen_isometric_frame="false"
       draw_axes="false"
       gen_perspective_frame="false"
       draw_perspective_axes="false"
       rot_axes="0"
       draw_ori_path="false" />
    <inkscape:path-effect
       effect="offset"
       id="path-effect2385"
       is_visible="true"
       lpeversion="1.3"
       linejoin_type="miter"
       unit="mm"
       offset="-2"
       miter_limit="4"
       attempt_force_join="false"
       update_on_knot_move="true" />
    <inkscape:path-effect
       effect="pts2ellipse"
       id="path-effect2383"
       is_visible="true"
       lpeversion="1"
       method="auto"
       gen_arc="false"
       arc_other="false"
       slice_arc="false"
       gen_isometric_frame="false"
       draw_axes="false"
       gen_perspective_frame="false"
       draw_perspective_axes="false"
       rot_axes="0"
       draw_ori_path="false" />
    <inkscape:path-effect
       effect="offset"
       id="path-effect2381"
       is_visible="true"
       lpeversion="1.3"
       linejoin_type="miter"
       unit="mm"
       offset="-2"
       miter_limit="4"
       attempt_force_join="false"
       update_on_knot_move="true" />
    <inkscape:path-effect
       effect="pts2ellipse"
       id="path-effect2379"
       is_visible="true"
       lpeversion="1"
       method="auto"
       gen_arc="false"
       arc_other="false"
       slice_arc="false"
       gen_isometric_frame="false"
       draw_axes="false"
       gen_perspective_frame="false"
       draw_perspective_axes="false"
       rot_axes="0"
       draw_ori_path="false" />
    <inkscape:path-effect
       effect="offset"
       id="path-effect2377"
       is_visible="true"
       lpeversion="1.3"
       linejoin_type="miter"
       unit="mm"
       offset="-2"
       miter_limit="4"
       attempt_force_join="false"
       update_on_knot_move="true" />
    <inkscape:path-effect
       effect="pts2ellipse"
       id="path-effect2375"
       is_visible="true"
       lpeversion="1"
       method="auto"
       gen_arc="false"
       arc_other="false"
       slice_arc="false"
       gen_isometric_frame="false"
       draw_axes="false"
       gen_perspective_frame="false"
       draw_perspective_axes="false"
       rot_axes="0"
       draw_ori_path="false" />
    <inkscape:path-effect
       effect="offset"
       id="path-effect2373"
       is_visible="true"
       lpeversion="1.3"
       linejoin_type="miter"
       unit="mm"
       offset="-2"
       miter_limit="4"
       attempt_force_join="false"
       update_on_knot_move="true" />
    <inkscape:path-effect
       effect="pts2ellipse"
       id="path-effect2371"
       is_visible="true"
       lpeversion="1"
       method="auto"
       gen_arc="false"
       arc_other="false"
       slice_arc="false"
       gen_isometric_frame="false"
       draw_axes="false"
       gen_perspective_frame="false"
       draw_perspective_axes="false"
       rot_axes="0"
       draw_ori_path="false" />
    <inkscape:path-effect
       effect="offset"
       id="path-effect2369"
       is_visible="true"
       lpeversion="1.3"
       linejoin_type="miter"
       unit="mm"
       offset="-2"
       miter_limit="4"
       attempt_force_join="false"
       update_on_knot_move="true" />
    <inkscape:path-effect
       effect="pts2ellipse"
       id="path-effect2367"
       is_visible="true"
       lpeversion="1"
       method="auto"
       gen_arc="false"
       arc_other="false"
       slice_arc="false"
       gen_isometric_frame="false"
       draw_axes="false"
       gen_perspective_frame="false"
       draw_perspective_axes="false"
       rot_axes="0"
       draw_ori_path="false" />
    <inkscape:path-effect
       effect="offset"
       id="path-effect794"
       is_visible="true"
       lpeversion="1.3"
       linejoin_type="miter"
       unit="mm"
       offset="-1"
       miter_limit="4"
       attempt_force_join="false"
       update_on_knot_move="true" />
    <inkscape:path-effect
       effect="offset"
       id="path-effect792"
       is_visible="true"
       lpeversion="1.3"
       linejoin_type="miter"
       unit="mm"
       offset="-1"
       miter_limit="4"
       attempt_force_join="false"
       update_on_knot_move="true" />
    <inkscape:path-effect
       effect="offset"
       id="path-effect788"
       is_visible="true"
       lpeversion="1.3"
       linejoin_type="miter"
       unit="mm"
       offset="-1"
       miter_limit="4"
       attempt_force_join="false"
       update_on_knot_move="true" />
    <inkscape:path-effect
       effect="offset"
       id="path-effect786"
       is_visible="true"
       lpeversion="1.3"
       linejoin_type="miter"
       unit="mm"
       offset="-1"
       miter_limit="4"
       attempt_force_join="false"
       update_on_knot_move="true" />
    <inkscape:path-effect
       effect="offset"
       id="path-effect778"
       is_visible="true"
       lpeversion="1.3"
       linejoin_type="miter"
       unit="mm"
       offset="-1"
       miter_limit="4"
       attempt_force_join="false"
       update_on_knot_move="true" />
    <inkscape:path-effect
       effect="offset"
       id="path-effect770"
       is_visible="true"
       lpeversion="1.3"
       linejoin_type="miter"
       unit="mm"
       offset="-1"
       miter_limit="4"
       attempt_force_join="false"
       update_on_knot_move="true" />
    <inkscape:path-effect
       effect="offset"
       id="path-effect766"
       is_visible="true"
       lpeversion="1.3"
       linejoin_type="miter"
       unit="mm"
       offset="-2"
       miter_limit="4"
       attempt_force_join="false"
       update_on_knot_move="true" />
    <inkscape:path-effect
       effect="pts2ellipse"
       id="path-effect764"
       is_visible="true"
       lpeversion="1"
       method="auto"
       gen_arc="false"
       arc_other="false"
       slice_arc="false"
       gen_isometric_frame="false"
       draw_axes="false"
       gen_perspective_frame="false"
       draw_perspective_axes="false"
       rot_axes="0"
       draw_ori_path="false" />
    <inkscape:path-effect
       effect="offset"
       id="path-effect762"
       is_visible="true"
       lpeversion="1.3"
       linejoin_type="miter"
       unit="mm"
       offset="-1"
       miter_limit="4"
       attempt_force_join="false"
       update_on_knot_move="true" />
  </defs>
  <g
     inkscape:groupmode="layer"
     id="layer11"
     inkscape:label="Generic triangle"
     style="display:inline"
     transform="translate(-324.12367,-189.44698)">
    <path
       sodipodi:type="star"
       style="fill:#bddeff;stroke:none;stroke-width:0.13338;stroke-linecap:butt"
       id="path758"
       inkscape:flatsided="true"
       sodipodi:sides="3"
       sodipodi:cx="183.98627"
       sodipodi:cy="132.97198"
       sodipodi:r1="8.7508144"
       sodipodi:r2="4.3754072"
       sodipodi:arg1="-1.5707963"
       sodipodi:arg2="-0.52359878"
       inkscape:rounded="0"
       inkscape:randomized="0"
       d="m 183.98627,124.22117 7.57842,13.12622 -15.15685,0 z"
       inkscape:transform-center-y="2.8867565"
       transform="matrix(-1.3195349,0,0,-1.3195349,596.89997,388.00217)"
       inkscape:transform-center-x="-1.2789131e-05" />
    <path
       sodipodi:type="star"
       style="fill:#bddeff;stroke:none;stroke-width:0.13338;stroke-linecap:butt"
       id="path766"
       inkscape:flatsided="true"
       sodipodi:sides="3"
       sodipodi:cx="183.98627"
       sodipodi:cy="132.97198"
       sodipodi:r1="8.7508144"
       sodipodi:r2="4.3754072"
       sodipodi:arg1="-1.5707963"
       sodipodi:arg2="-0.52359878"
       inkscape:rounded="0"
       inkscape:randomized="0"
       d="m 183.98627,124.22117 7.57842,13.12622 -15.15685,0 z"
       inkscape:transform-center-y="2.8867565"
       transform="matrix(-1.3195349,0,0,-1.3195349,576.89997,388.00217)"
       inkscape:transform-center-x="-1.2789131e-05" />
    <path
       sodipodi:type="star"
       style="fill:#bddeff;stroke:none;stroke-width:0.13338;stroke-linecap:butt"
       id="path774"
       inkscape:flatsided="true"
       sodipodi:sides="3"
       sodipodi:cx="183.98627"
       sodipodi:cy="132.97198"
       sodipodi:r1="8.7508144"
       sodipodi:r2="4.3754072"
       sodipodi:arg1="-1.5707963"
       sodipodi:arg2="-0.52359878"
       inkscape:rounded="0"
       inkscape:randomized="0"
       d="m 183.98627,124.22117 7.57842,13.12622 -15.15685,0 z"
       inkscape:transform-center-y="2.8867565"
       transform="matrix(-1.3195349,0,0,-1.3195349,616.89997,388.00217)"
       inkscape:transform-center-x="-1.2789131e-05" />
    <path
       sodipodi:type="star"
       style="fill:#bddeff;stroke:none;stroke-width:0.13338;stroke-linecap:butt"
       id="path782"
       inkscape:flatsided="true"
       sodipodi:sides="3"
       sodipodi:cx="183.98627"
       sodipodi:cy="132.97198"
       sodipodi:r1="8.7508144"
       sodipodi:r2="4.3754072"
       sodipodi:arg1="-1.5707963"
       sodipodi:arg2="-0.52359878"
       inkscape:rounded="0"
       inkscape:randomized="0"
       d="m 183.98627,124.22117 7.57842,13.12622 -15.15685,0 z"
       inkscape:transform-center-y="-2.8867593"
       transform="matrix(1.3195349,0,0,1.3195349,121.34737,42.853323)"
       inkscape:transform-center-x="1.6389131e-05" />
    <path
       sodipodi:type="star"
       style="fill:#bddeff;stroke:none;stroke-width:0.13338;stroke-linecap:butt"
       id="path783"
       inkscape:flatsided="true"
       sodipodi:sides="3"
       sodipodi:cx="183.98627"
       sodipodi:cy="132.97198"
       sodipodi:r1="8.7508144"
       sodipodi:r2="4.3754072"
       sodipodi:arg1="-1.5707963"
       sodipodi:arg2="-0.52359878"
       inkscape:rounded="0"
       inkscape:randomized="0"
       d="m 183.98627,124.22117 7.57842,13.12622 -15.15685,0 z"
       inkscape:transform-center-y="-2.8867593"
       transform="matrix(1.3195349,0,0,1.3195349,111.34737,25.532815)"
       inkscape:transform-center-x="1.6389131e-05" />
    <path
       sodipodi:type="star"
       style="fill:#bddeff;stroke:none;stroke-width:0.13338;stroke-linecap:butt"
       id="path788"
       inkscape:flatsided="true"
       sodipodi:sides="3"
       sodipodi:cx="183.98627"
       sodipodi:cy="132.97198"
       sodipodi:r1="8.7508144"
       sodipodi:r2="4.3754072"
       sodipodi:arg1="-1.5707963"
       sodipodi:arg2="-0.52359878"
       inkscape:rounded="0"
       inkscape:randomized="0"
       d="m 183.98627,124.22117 7.57842,13.12622 -15.15685,0 z"
       inkscape:transform-center-y="-2.8867593"
       transform="matrix(1.3195349,0,0,1.3195349,141.34737,42.853323)"
       inkscape:transform-center-x="1.6389131e-05" />
    <path
       sodipodi:type="star"
       style="fill:#bddeff;stroke:none;stroke-width:0.13338;stroke-linecap:butt"
       id="path789"
       inkscape:flatsided="true"
       sodipodi:sides="3"
       sodipodi:cx="183.98627"
       sodipodi:cy="132.97198"
       sodipodi:r1="8.7508144"
       sodipodi:r2="4.3754072"
       sodipodi:arg1="-1.5707963"
       sodipodi:arg2="-0.52359878"
       inkscape:rounded="0"
       inkscape:randomized="0"
       d="m 183.98627,124.22117 7.57842,13.12622 -15.15685,0 z"
       inkscape:transform-center-y="-2.8867593"
       transform="matrix(1.3195349,0,0,1.3195349,101.34737,42.853323)"
       inkscape:transform-center-x="1.6389131e-05" />
  </g>
  <g
     inkscape:groupmode="layer"
     id="layer12"
     inkscape:label="Top generic triangle"
     style="display:inline"
     transform="translate(-324.12367,-189.44698)">
    <path
       sodipodi:type="star"
       style="fill:#0061c2;stroke:none;stroke-width:0.13338;stroke-linecap:butt"
       id="path759"
       inkscape:flatsided="true"
       sodipodi:sides="3"
       sodipodi:cx="183.98627"
       sodipodi:cy="132.97198"
       sodipodi:r1="8.7508144"
       sodipodi:r2="4.3754072"
       sodipodi:arg1="-1.5707963"
       sodipodi:arg2="-0.52359878"
       inkscape:rounded="0"
       inkscape:randomized="0"
       d="m 183.98633,125.75586 6.24804,10.82422 h -12.49609 z"
       inkscape:transform-center-y="2.8867575"
       transform="matrix(-1.3195349,0,0,-1.3195349,596.89997,388.00217)"
       inkscape:transform-center-x="-1.2789132e-05"
       inkscape:path-effect="#path-effect762" />
    <path
       sodipodi:type="star"
       style="fill:#0061c2;stroke:none;stroke-width:0.13338;stroke-linecap:butt"
       id="path767"
       inkscape:flatsided="true"
       sodipodi:sides="3"
       sodipodi:cx="183.98627"
       sodipodi:cy="132.97198"
       sodipodi:r1="8.7508144"
       sodipodi:r2="4.3754072"
       sodipodi:arg1="-1.5707963"
       sodipodi:arg2="-0.52359878"
       inkscape:rounded="0"
       inkscape:randomized="0"
       d="m 183.98633,125.75586 6.24804,10.82422 h -12.49609 z"
       inkscape:transform-center-y="2.8867575"
       transform="matrix(-1.3195349,0,0,-1.3195349,576.89997,388.00217)"
       inkscape:transform-center-x="-1.2789132e-05"
       inkscape:path-effect="#path-effect770" />
    <path
       sodipodi:type="star"
       style="fill:#0061c2;stroke:none;stroke-width:0.13338;stroke-linecap:butt"
       id="path775"
       inkscape:flatsided="true"
       sodipodi:sides="3"
       sodipodi:cx="183.98627"
       sodipodi:cy="132.97198"
       sodipodi:r1="8.7508144"
       sodipodi:r2="4.3754072"
       sodipodi:arg1="-1.5707963"
       sodipodi:arg2="-0.52359878"
       inkscape:rounded="0"
       inkscape:randomized="0"
       d="m 183.98633,125.75586 6.24804,10.82422 h -12.49609 z"
       inkscape:transform-center-y="2.8867575"
       transform="matrix(-1.3195349,0,0,-1.3195349,616.89997,388.00217)"
       inkscape:transform-center-x="-1.2789132e-05"
       inkscape:path-effect="#path-effect778" />
    <path
       sodipodi:type="star"
       style="fill:#0061c2;stroke:none;stroke-width:0.13338;stroke-linecap:butt"
       id="path784"
       inkscape:flatsided="true"
       sodipodi:sides="3"
       sodipodi:cx="183.98627"
       sodipodi:cy="132.97198"
       sodipodi:r1="8.7508144"
       sodipodi:r2="4.3754072"
       sodipodi:arg1="-1.5707963"
       sodipodi:arg2="-0.52359878"
       inkscape:rounded="0"
       inkscape:randomized="0"
       d="m 183.98633,125.75586 6.24804,10.82422 h -12.49609 z"
       inkscape:transform-center-y="-2.8867603"
       transform="matrix(1.3195349,0,0,1.3195349,121.34737,42.853323)"
       inkscape:transform-center-x="1.6389132e-05"
       inkscape:path-effect="#path-effect786" />
    <path
       sodipodi:type="star"
       style="fill:#0061c2;stroke:none;stroke-width:0.13338;stroke-linecap:butt"
       id="path785"
       inkscape:flatsided="true"
       sodipodi:sides="3"
       sodipodi:cx="183.98627"
       sodipodi:cy="132.97198"
       sodipodi:r1="8.7508144"
       sodipodi:r2="4.3754072"
       sodipodi:arg1="-1.5707963"
       sodipodi:arg2="-0.52359878"
       inkscape:rounded="0"
       inkscape:randomized="0"
       d="m 183.98633,125.75586 6.24804,10.82422 h -12.49609 z"
       inkscape:transform-center-y="-2.8867603"
       transform="matrix(1.3195349,0,0,1.3195349,111.34737,25.532815)"
       inkscape:transform-center-x="1.6389132e-05"
       inkscape:path-effect="#path-effect788" />
    <path
       sodipodi:type="star"
       style="fill:#0061c2;stroke:none;stroke-width:0.13338;stroke-linecap:butt"
       id="path790"
       inkscape:flatsided="true"
       sodipodi:sides="3"
       sodipodi:cx="183.98627"
       sodipodi:cy="132.97198"
       sodipodi:r1="8.7508144"
       sodipodi:r2="4.3754072"
       sodipodi:arg1="-1.5707963"
       sodipodi:arg2="-0.52359878"
       inkscape:rounded="0"
       inkscape:randomized="0"
       d="m 183.98633,125.75586 6.24804,10.82422 h -12.49609 z"
       inkscape:transform-center-y="-2.8867603"
       transform="matrix(1.3195349,0,0,1.3195349,141.34737,42.853323)"
       inkscape:transform-center-x="1.6389132e-05"
       inkscape:path-effect="#path-effect792" />
    <path
       sodipodi:type="star"
       style="fill:#0061c2;stroke:none;stroke-width:0.13338;stroke-linecap:butt"
       id="path791"
       inkscape:flatsided="true"
       sodipodi:sides="3"
       sodipodi:cx="183.98627"
       sodipodi:cy="132.97198"
       sodipodi:r1="8.7508144"
       sodipodi:r2="4.3754072"
       sodipodi:arg1="-1.5707963"
       sodipodi:arg2="-0.52359878"
       inkscape:rounded="0"
       inkscape:randomized="0"
       d="m 183.98633,125.75586 6.24804,10.82422 h -12.49609 z"
       inkscape:transform-center-y="-2.8867603"
       transform="matrix(1.3195349,0,0,1.3195349,101.34737,42.853323)"
       inkscape:transform-center-x="1.6389132e-05"
       inkscape:path-effect="#path-effect794" />
  </g>
  <g
     inkscape:groupmode="layer"
     id="layer13"
     inkscape:label="Circle"
     style="display:inline"
     transform="translate(-324.12367,-189.44698)">
    <path
       style="fill:#bddeff;stroke:none;stroke-width:0.176;stroke-linecap:butt"
       d="m 179.26758,116.01563 c 2.10236,0 3.76367,1.66131 3.76367,3.76367 0,2.10235 -1.66131,3.76367 -3.76367,3.76367 -2.10236,0 -3.76367,-1.66132 -3.76367,-3.76367 0,-2.10236 1.66131,-3.76368 3.76367,-3.76367 z"
       id="path760"
       inkscape:path-effect="#path-effect764;#path-effect766"
       inkscape:original-d="m 179.2676,114.00575 v 11.547"
       transform="translate(174.8561,92.761661)" />
  </g>
  <g
     inkscape:groupmode="layer"
     id="layer15"
     inkscape:label="Semi-opaque circle"
     style="display:inline"
     transform="translate(-324.12367,-189.44698)">
    <path
       style="display:inline;opacity:0.25;fill:#ffffff;stroke:none;stroke-width:0.176;stroke-linecap:butt"
       d="m 179.26758,116.01563 c 2.10236,0 3.76367,1.66131 3.76367,3.76367 0,2.10235 -1.66131,3.76367 -3.76367,3.76367 -2.10236,0 -3.76367,-1.66132 -3.76367,-3.76367 0,-2.10236 1.66131,-3.76368 3.76367,-3.76367 z"
       id="path2355"
       inkscape:path-effect="#path-effect2367;#path-effect2369"
       inkscape:original-d="m 179.2676,114.00575 v 11.547"
       transform="matrix(1,0,0,-1,184.85611,338.09385)" />
    <path
       style="display:inline;opacity:0.25;fill:#ffffff;stroke:none;stroke-width:0.176;stroke-linecap:butt"
       d="m 179.26758,116.01563 c 2.10236,0 3.76367,1.66131 3.76367,3.76367 0,2.10235 -1.66131,3.76367 -3.76367,3.76367 -2.10236,0 -3.76367,-1.66132 -3.76367,-3.76367 0,-2.10236 1.66131,-3.76368 3.76367,-3.76367 z"
       id="path2356"
       inkscape:path-effect="#path-effect2371;#path-effect2373"
       inkscape:original-d="m 179.2676,114.00575 v 11.547"
       transform="translate(194.85612,92.76164)" />
    <path
       style="display:inline;opacity:0.25;fill:#ffffff;stroke:none;stroke-width:0.176;stroke-linecap:butt"
       d="m 179.26758,116.01563 c 2.10236,0 3.76367,1.66131 3.76367,3.76367 0,2.10235 -1.66131,3.76367 -3.76367,3.76367 -2.10236,0 -3.76367,-1.66132 -3.76367,-3.76367 0,-2.10236 1.66131,-3.76368 3.76367,-3.76367 z"
       id="path2357"
       inkscape:path-effect="#path-effect2375;#path-effect2377"
       inkscape:original-d="m 179.2676,114.00575 v 11.547"
       transform="translate(154.85612,92.761643)" />
    <path
       style="display:inline;opacity:0.25;fill:#ffffff;stroke:none;stroke-width:0.176;stroke-linecap:butt"
       d="m 179.26758,116.01563 c 2.10236,0 3.76367,1.66131 3.76367,3.76367 0,2.10235 -1.66131,3.76367 -3.76367,3.76367 -2.10236,0 -3.76367,-1.66132 -3.76367,-3.76367 0,-2.10236 1.66131,-3.76368 3.76367,-3.76367 z"
       id="path2358"
       inkscape:path-effect="#path-effect2379;#path-effect2381"
       inkscape:original-d="m 179.2676,114.00575 v 11.547"
       transform="matrix(1,0,0,-1,164.85611,338.09385)" />
    <path
       style="display:inline;opacity:0.25;fill:#ffffff;stroke:none;stroke-width:0.176;stroke-linecap:butt"
       d="m 179.26758,116.01563 c 2.10236,0 3.76367,1.66131 3.76367,3.76367 0,2.10235 -1.66131,3.76367 -3.76367,3.76367 -2.10236,0 -3.76367,-1.66132 -3.76367,-3.76367 0,-2.10236 1.66131,-3.76368 3.76367,-3.76367 z"
       id="path2359"
       inkscape:path-effect="#path-effect2383;#path-effect2385"
       inkscape:original-d="m 179.2676,114.00575 v 11.547"
       transform="matrix(1,0,0,-1,204.85611,338.09385)" />
    <path
       style="display:inline;opacity:0.25;fill:#ffffff;stroke:none;stroke-width:0.176;stroke-linecap:butt"
       d="m 179.26758,116.01563 c 2.10236,0 3.76367,1.66131 3.76367,3.76367 0,2.10235 -1.66131,3.76367 -3.76367,3.76367 -2.10236,0 -3.76367,-1.66132 -3.76367,-3.76367 0,-2.10236 1.66131,-3.76368 3.76367,-3.76367 z"
       id="path2360"
       inkscape:path-effect="#path-effect2387;#path-effect2389"
       inkscape:original-d="m 179.2676,114.00575 v 11.547"
       transform="matrix(1,0,0,-1,174.85611,320.77333)" />
  </g>
  <g
     inkscape:groupmode="layer"
     id="layer14"
     inkscape:label="Piece label"
     style="display:inline"
     transform="translate(-324.12367,-189.44698)">
    <path
       d="m 352.66488,210.46662 q 0.0155,0 0.21084,-0.006 l 0.0992,0.003 0.19534,0.003 q 0.0124,0.0992 0.0124,0.14573 0,0.0155 -0.003,0.0961 -0.003,0.0434 -0.006,0.33176 l -0.006,0.46819 0.003,0.29455 -0.0217,2.0929 v 0.17673 q 0,0.093 0.0434,0.13333 0.0434,0.0403 0.23254,0.0682 0.0744,0.009 0.29766,0.0496 0.006,0.031 0.006,0.0589 0,0.0341 -0.006,0.14883 h -0.13333 q -0.13642,0 -0.39687,-0.0124 -0.15813,-0.009 -0.21704,-0.009 -0.0744,0 -0.5488,0.0155 -0.0527,0.003 -0.0868,0.003 h -0.0558 l -0.0899,-0.006 -0.0837,0.006 -0.15503,-0.006 q -0.031,0 -0.12713,0.009 -0.006,-0.0682 -0.006,-0.10542 0,-0.0341 0.006,-0.10232 0.12403,-0.0341 0.28836,-0.0682 0.22634,-0.0465 0.27595,-0.0899 0.0527,-0.0465 0.0527,-0.12092 l -0.003,-0.21084 0.0124,-0.22945 -0.003,-0.47129 -0.003,-0.12092 q 0,-0.0248 0.006,-0.18603 0.006,-0.0837 0.006,-0.14883 0,-0.0403 -0.009,-0.25115 l 0.0124,-0.17673 q -0.0124,-0.20154 -0.0124,-0.23875 0,-0.0465 0.003,-0.093 l 0.006,-0.0775 -0.009,-0.21084 0.009,-0.0961 q 0.003,-0.0651 0.003,-0.17363 0,-0.10542 -0.003,-0.25735 -0.22014,0.16433 -0.50229,0.32866 -0.031,0.0186 -0.27906,0.12713 -0.0992,-0.14883 -0.12712,-0.22325 0.32866,-0.17053 0.44648,-0.25114 0.19534,-0.13643 0.42168,-0.34107 0.0961,-0.0899 0.24495,-0.27595 z m 3.54087,0.0155 0.11472,-0.003 q 0.0217,0 0.11162,0.003 -0.13022,0.62322 -0.18913,0.72244 -0.0372,0.062 -0.0744,0.0682 -0.37207,0.0155 -0.39377,0.0155 h -0.0837 l -0.19844,0.003 q -0.0496,0 -0.14882,-0.006 -0.26045,-0.009 -0.37827,-0.009 -0.0341,0 -0.10232,0.003 -0.0124,0.0868 -0.0124,0.12403 l -0.0155,0.40307 -0.0124,0.29146 q 0.13332,-0.0651 0.27905,-0.0961 0.14883,-0.0341 0.30696,-0.0341 0.23254,0 0.45268,0.0899 0.22325,0.0899 0.39068,0.25425 0.12402,0.12402 0.24184,0.33176 0.0837,0.14883 0.093,0.22324 0.0372,0.27285 0.0372,0.28836 0,0.23874 -0.0527,0.43718 -0.0496,0.19534 -0.22324,0.43718 -0.17364,0.24185 -0.31316,0.33487 -0.21084,0.14262 -0.45889,0.19843 -0.24495,0.0589 -0.60151,0.0589 -0.41858,0 -0.70074,-0.20154 -0.16743,-0.12093 -0.16743,-0.30386 0,-0.13333 0.0961,-0.22944 0.0992,-0.0961 0.24185,-0.0961 0.22014,0 0.44648,0.28215 0.13333,0.17053 0.20154,0.20774 0.10542,0.0589 0.23874,0.0589 0.17674,0 0.34417,-0.10542 0.17053,-0.10852 0.27595,-0.32556 0.10852,-0.22014 0.10852,-0.40928 0,-0.32556 -0.22324,-0.5581 -0.22014,-0.23565 -0.5271,-0.23565 -0.15813,0 -0.27595,0.0372 -0.0589,0.0186 -0.22014,0.12712 l -0.13333,0.0868 q -0.0372,0.0155 -0.0713,0.0155 -0.0465,0 -0.0775,-0.0248 -0.0217,-0.0217 -0.0217,-0.0589 l 0.0372,-0.98289 q 0,-0.0651 0.006,-0.11472 0.006,-0.0496 0.009,-0.25735 0.006,-0.21084 0.0124,-0.30076 0.009,-0.13332 0.0124,-0.22014 0,-0.062 0.006,-0.12092 0.003,-0.0403 0.003,-0.0589 l -0.003,-0.11472 q 0,-0.0713 0.0992,-0.10232 0.0527,-0.0155 0.4961,-0.0155 l 0.71313,0.009 q 0.17053,0 0.21704,-0.0217 0.0496,-0.0248 0.0868,-0.10542 z"
       id="text760"
       style="font-weight:bold;font-size:6.35px;line-height:7.45115px;font-family:Garamond;-inkscape-font-specification:'Garamond Bold';text-align:center;letter-spacing:0px;word-spacing:0px;text-anchor:middle;stroke-width:0.176"
       aria-label="15" />
  </g>
</svg>
