<?xml version="1.0" encoding="UTF-8" standalone="no"?>
<!-- Created with Inkscape (http://www.inkscape.org/) -->

<svg
   width="2.3622041in"
   height="1.3638198in"
   viewBox="0 0 59.999984 34.641024"
   version="1.1"
   id="svg1"
   xmlns="http://www.w3.org/2000/svg"
   xmlns:svg="http://www.w3.org/2000/svg">
  <defs
     id="defs1" />
  <g
     id="layer11"
     style="display:inline"
     transform="translate(-404.94136,-236.19924)">
    <path
       style="fill:#bdcdff;stroke:none;stroke-width:0.13338;stroke-linecap:butt"
       id="path856"
       d="m 183.98627,124.22117 7.57842,13.12622 -15.15685,0 z"
       transform="matrix(1.3195349,0,0,-1.3195349,202.16507,434.75442)" />
    <path
       style="fill:#bdcdff;stroke:none;stroke-width:0.13338;stroke-linecap:butt"
       id="path857"
       d="m 183.98627,124.22117 7.57842,13.12622 -15.15685,0 z"
       transform="matrix(-1.3195349,0,0,1.3195349,687.71767,72.285066)" />
    <path
       style="fill:#bdcdff;stroke:none;stroke-width:0.13338;stroke-linecap:butt"
       id="path858"
       d="m 183.98627,124.22117 7.57842,13.12622 -15.15685,0 z"
       transform="matrix(-1.3195349,0,0,1.3195349,677.71767,89.605566)" />
    <path
       style="fill:#bdcdff;stroke:none;stroke-width:0.13338;stroke-linecap:butt"
       id="path859"
       d="m 183.98627,124.22117 7.57842,13.12622 -15.15685,0 z"
       transform="matrix(-1.3195349,0,0,-1.3195349,667.71767,434.75442)" />
    <path
       style="fill:#bdcdff;stroke:none;stroke-width:0.13338;stroke-linecap:butt"
       id="path860"
       d="m 183.98627,124.22117 7.57842,13.12622 -15.15685,0 z"
       transform="matrix(1.3195349,0,0,1.3195349,212.16507,89.605566)" />
    <path
       style="fill:#bdcdff;stroke:none;stroke-width:0.13338;stroke-linecap:butt"
       id="path861"
       d="m 183.98627,124.22117 7.57842,13.12622 -15.15685,0 z"
       transform="matrix(-1.3195349,0,0,-1.3195349,697.71767,417.43392)" />
    <path
       style="fill:#bdcdff;stroke:none;stroke-width:0.13338;stroke-linecap:butt"
       id="path862"
       d="m 183.98627,124.22117 7.57842,13.12622 -15.15685,0 z"
       transform="matrix(1.3195349,0,0,1.3195349,172.16507,89.605566)" />
  </g>
  <g
     id="layer12"
     style="display:inline"
     transform="translate(-404.94136,-236.19924)">
    <path
       style="fill:#0030c2;stroke:none;stroke-width:0.13338;stroke-linecap:butt"
       id="path863"
       d="m 183.98633,125.75586 6.24804,10.82422 h -12.49609 z"
       transform="matrix(1.3195349,0,0,-1.3195349,202.16507,434.75442)" />
    <path
       style="fill:#0030c2;stroke:none;stroke-width:0.13338;stroke-linecap:butt"
       id="path864"
       d="m 183.98633,125.75586 6.24804,10.82422 h -12.49609 z"
       transform="matrix(-1.3195349,0,0,1.3195349,687.71767,72.285066)" />
    <path
       style="fill:#0030c2;stroke:none;stroke-width:0.13338;stroke-linecap:butt"
       id="path865"
       d="m 183.98633,125.75586 6.24804,10.82422 h -12.49609 z"
       transform="matrix(-1.3195349,0,0,1.3195349,677.71767,89.605566)" />
    <path
       style="fill:#0030c2;stroke:none;stroke-width:0.13338;stroke-linecap:butt"
       id="path866"
       d="m 183.98633,125.75586 6.24804,10.82422 h -12.49609 z"
       transform="matrix(-1.3195349,0,0,-1.3195349,667.71767,434.75442)" />
    <path
       style="fill:#0030c2;stroke:none;stroke-width:0.13338;stroke-linecap:butt"
       id="path867"
       d="m 183.98633,125.75586 6.24804,10.82422 h -12.49609 z"
       transform="matrix(1.3195349,0,0,1.3195349,212.16507,89.605566)" />
    <path
       style="fill:#0030c2;stroke:none;stroke-width:0.13338;stroke-linecap:butt"
       id="path868"
       d="m 183.98633,125.75586 6.24804,10.82422 h -12.49609 z"
       transform="matrix(-1.3195349,0,0,-1.3195349,697.71767,417.43392)" />
    <path
       style="fill:#0030c2;stroke:none;stroke-width:0.13338;stroke-linecap:butt"
       id="path869"
       d="m 183.98633,125.75586 6.24804,10.82422 h -12.49609 z"
       transform="matrix(1.3195349,0,0,1.3195349,172.16507,89.605566)" />
  </g>
  <g
     id="layer13"
     style="display:inline"
     transform="translate(-404.94136,-236.19924)">
    <path
       style="fill:#bdcdff;stroke:none;stroke-width:0.176;stroke-linecap:butt"
       d="m 179.26758,116.01563 c 2.10236,0 3.76367,1.66131 3.76367,3.76367 0,2.10235 -1.66131,3.76367 -3.76367,3.76367 -2.10236,0 -3.76367,-1.66132 -3.76367,-3.76367 0,-2.10236 1.66131,-3.76368 3.76367,-3.76367 z"
       id="path870"
       transform="translate(265.67377,139.5139)" />
  </g>
  <g
     id="layer14"
     style="display:inline"
     transform="translate(-404.94136,-236.19924)">
    <path
       d="m 443.48248,257.21882 q 0.0155,0 0.21084,-0.006 l 0.0992,0.003 0.19533,0.003 q 0.0124,0.0992 0.0124,0.14572 0,0.0155 -0.003,0.0961 -0.003,0.0434 -0.006,0.33177 l -0.006,0.46818 0.003,0.29456 -0.0217,2.0929 v 0.17673 q 0,0.093 0.0434,0.13332 0.0434,0.0403 0.23254,0.0682 0.0744,0.009 0.29766,0.0496 0.006,0.031 0.006,0.0589 0,0.0341 -0.006,0.14883 h -0.13333 q -0.13642,0 -0.39687,-0.0124 -0.15813,-0.009 -0.21704,-0.009 -0.0744,0 -0.54881,0.0155 -0.0527,0.003 -0.0868,0.003 h -0.0558 l -0.0899,-0.006 -0.0837,0.006 -0.15503,-0.006 q -0.031,0 -0.12712,0.009 -0.006,-0.0682 -0.006,-0.10542 0,-0.0341 0.006,-0.10232 0.12402,-0.0341 0.28835,-0.0682 0.22635,-0.0465 0.27596,-0.0899 0.0527,-0.0465 0.0527,-0.12093 l -0.003,-0.21084 0.0124,-0.22944 -0.003,-0.47129 -0.003,-0.12092 q 0,-0.0248 0.006,-0.18604 0.006,-0.0837 0.006,-0.14883 0,-0.0403 -0.009,-0.25114 l 0.0124,-0.17674 q -0.0124,-0.20153 -0.0124,-0.23874 0,-0.0465 0.003,-0.093 l 0.006,-0.0775 -0.009,-0.21084 0.009,-0.0961 q 0.003,-0.0651 0.003,-0.17363 0,-0.10542 -0.003,-0.25735 -0.22014,0.16433 -0.5023,0.32866 -0.031,0.0186 -0.27905,0.12712 -0.0992,-0.14882 -0.12712,-0.22324 0.32866,-0.17053 0.44648,-0.25115 0.19534,-0.13642 0.42168,-0.34106 0.0961,-0.0899 0.24495,-0.27595 z m 2.48667,2.03398 q -0.003,-0.0682 -0.003,-0.10232 0,-0.0341 0.003,-0.10542 0.0248,-0.006 0.11472,-0.0465 0.21394,-0.0961 0.42788,-0.0961 0.42478,0 0.71313,0.31626 0.29146,0.31625 0.29146,0.86196 0,0.59221 -0.35347,0.94258 -0.35036,0.35036 -0.97048,0.35036 -0.27905,0 -0.49609,-0.11472 -0.21705,-0.11472 -0.38448,-0.32246 -0.16743,-0.21084 -0.25735,-0.43718 -0.14262,-0.37207 -0.14262,-0.80305 0,-0.36897 0.12712,-0.78445 0.12713,-0.41548 0.38447,-0.72864 0.26045,-0.31626 0.58912,-0.5209 0.32866,-0.20774 0.5798,-0.30076 0.4837,-0.17673 0.73174,-0.17673 0.0465,0 0.0713,0.031 0.0279,0.031 0.0279,0.0961 0,0.0682 -0.0155,0.10853 -0.0651,0.0279 -0.23875,0.0682 -0.39377,0.0992 -0.68833,0.32866 -0.29455,0.22944 -0.43718,0.47439 -0.19534,0.33796 -0.26975,0.75964 -0.0744,0.41858 -0.0744,0.83096 0,0.46509 0.0589,0.76274 0.062,0.29456 0.20774,0.42168 0.0992,0.0806 0.28215,0.0806 0.10542,0 0.16433,-0.031 0.13333,-0.0682 0.19224,-0.14882 0.10852,-0.15193 0.14262,-0.35657 0.0372,-0.20464 0.0372,-0.42788 0,-0.56121 -0.15813,-0.77205 -0.15503,-0.21084 -0.38757,-0.21084 -0.10232,0 -0.26975,0.0527 z"
       id="text870"
       style="font-weight:bold;font-size:6.35px;line-height:7.45115px;font-family:Garamond;-inkscape-font-specification:'Garamond Bold';text-align:center;letter-spacing:0px;word-spacing:0px;text-anchor:middle;stroke-width:0.176"
       aria-label="16" />
  </g>
</svg>
