<?xml version="1.0" encoding="UTF-8" standalone="no"?>
<!-- Created with Inkscape (http://www.inkscape.org/) -->

<svg
   width="2.3622055in"
   height="1.3638191in"
   viewBox="0 0 60.00002 34.641006"
   version="1.1"
   id="svg1"
   xmlns="http://www.w3.org/2000/svg"
   xmlns:svg="http://www.w3.org/2000/svg">
  <defs
     id="defs1" />
  <g
     id="layer11"
     style="display:inline"
     transform="translate(-402.18323,-276.35715)">
    <path
       style="fill:#bdbdff;stroke:none;stroke-width:0.13338;stroke-linecap:butt"
       id="path918"
       d="m 183.98627,124.22117 7.57842,13.12622 -15.15685,0 z"
       transform="matrix(1.3195349,0,0,-1.3195349,199.40695,474.91234)" />
    <path
       style="fill:#bdbdff;stroke:none;stroke-width:0.13338;stroke-linecap:butt"
       id="path919"
       d="m 183.98627,124.22117 7.57842,13.12622 -15.15685,0 z"
       transform="matrix(1.3195349,0,0,-1.3195349,179.40695,474.91234)" />
    <path
       style="fill:#bdbdff;stroke:none;stroke-width:0.13338;stroke-linecap:butt"
       id="path920"
       d="m 183.98627,124.22117 7.57842,13.12622 -15.15685,0 z"
       transform="matrix(1.3195349,0,0,-1.3195349,189.40695,457.59184)" />
    <path
       style="fill:#bdbdff;stroke:none;stroke-width:0.13338;stroke-linecap:butt"
       id="path921"
       d="m 183.98627,124.22117 7.57842,13.12622 -15.15685,0 z"
       transform="matrix(-1.3195349,0,0,1.3195349,674.95955,129.76349)" />
    <path
       style="fill:#bdbdff;stroke:none;stroke-width:0.13338;stroke-linecap:butt"
       id="path922"
       d="m 183.98627,124.22117 7.57842,13.12622 -15.15685,0 z"
       transform="matrix(-1.3195349,0,0,1.3195349,684.95955,112.44299)" />
    <path
       style="fill:#bdbdff;stroke:none;stroke-width:0.13338;stroke-linecap:butt"
       id="path923"
       d="m 183.98627,124.22117 7.57842,13.12622 -15.15685,0 z"
       transform="matrix(-1.3195349,0,0,1.3195349,654.95955,129.76349)" />
    <path
       style="fill:#bdbdff;stroke:none;stroke-width:0.13338;stroke-linecap:butt"
       id="path924"
       d="m 183.98627,124.22117 7.57842,13.12622 -15.15685,0 z"
       transform="matrix(-1.3195349,0,0,1.3195349,694.95955,129.76349)" />
  </g>
  <g
     id="layer12"
     style="display:inline"
     transform="translate(-402.18323,-276.35715)">
    <path
       style="fill:#0000c2;stroke:none;stroke-width:0.13338;stroke-linecap:butt"
       id="path925"
       d="m 183.98633,125.75586 6.24804,10.82422 h -12.49609 z"
       transform="matrix(1.3195349,0,0,-1.3195349,199.40695,474.91234)" />
    <path
       style="fill:#0000c2;stroke:none;stroke-width:0.13338;stroke-linecap:butt"
       id="path926"
       d="m 183.98633,125.75586 6.24804,10.82422 h -12.49609 z"
       transform="matrix(1.3195349,0,0,-1.3195349,179.40695,474.91234)" />
    <path
       style="fill:#0000c2;stroke:none;stroke-width:0.13338;stroke-linecap:butt"
       id="path927"
       d="m 183.98633,125.75586 6.24804,10.82422 h -12.49609 z"
       transform="matrix(1.3195349,0,0,-1.3195349,189.40695,457.59184)" />
    <path
       style="fill:#0000c2;stroke:none;stroke-width:0.13338;stroke-linecap:butt"
       id="path928"
       d="m 183.98633,125.75586 6.24804,10.82422 h -12.49609 z"
       transform="matrix(-1.3195349,0,0,1.3195349,674.95955,129.76349)" />
    <path
       style="fill:#0000c2;stroke:none;stroke-width:0.13338;stroke-linecap:butt"
       id="path929"
       d="m 183.98633,125.75586 6.24804,10.82422 h -12.49609 z"
       transform="matrix(-1.3195349,0,0,1.3195349,684.95955,112.44299)" />
    <path
       style="fill:#0000c2;stroke:none;stroke-width:0.13338;stroke-linecap:butt"
       id="path930"
       d="m 183.98633,125.75586 6.24804,10.82422 h -12.49609 z"
       transform="matrix(-1.3195349,0,0,1.3195349,654.95955,129.76349)" />
    <path
       style="fill:#0000c2;stroke:none;stroke-width:0.13338;stroke-linecap:butt"
       id="path931"
       d="m 183.98633,125.75586 6.24804,10.82422 h -12.49609 z"
       transform="matrix(-1.3195349,0,0,1.3195349,694.95955,129.76349)" />
  </g>
  <g
     id="layer13"
     style="display:inline"
     transform="translate(-402.18323,-276.35715)">
    <path
       style="fill:#bdbdff;stroke:none;stroke-width:0.176;stroke-linecap:butt"
       d="m 179.26758,116.01563 c 2.10236,0 3.76367,1.66131 3.76367,3.76367 0,2.10235 -1.66131,3.76367 -3.76367,3.76367 -2.10236,0 -3.76367,-1.66132 -3.76367,-3.76367 0,-2.10236 1.66131,-3.76368 3.76367,-3.76367 z"
       id="path932"
       transform="translate(262.91567,179.67181)" />
  </g>
  <g
     id="layer14"
     style="display:inline"
     transform="translate(-402.18323,-276.35715)">
    <path
       d="m 440.72442,297.37681 q 0.0155,0 0.21084,-0.006 l 0.0992,0.003 0.19534,0.003 q 0.0124,0.0992 0.0124,0.14572 0,0.0155 -0.003,0.0961 -0.003,0.0434 -0.006,0.33177 l -0.006,0.46818 0.003,0.29456 -0.0217,2.09289 v 0.17674 q 0,0.093 0.0434,0.13332 0.0434,0.0403 0.23254,0.0682 0.0744,0.009 0.29766,0.0496 0.006,0.031 0.006,0.0589 0,0.0341 -0.006,0.14882 h -0.13333 q -0.13642,0 -0.39687,-0.0124 -0.15813,-0.009 -0.21704,-0.009 -0.0744,0 -0.5488,0.0155 -0.0527,0.003 -0.0868,0.003 h -0.0558 l -0.0899,-0.006 -0.0837,0.006 -0.15503,-0.006 q -0.031,0 -0.12713,0.009 -0.006,-0.0682 -0.006,-0.10542 0,-0.0341 0.006,-0.10231 0.12403,-0.0341 0.28836,-0.0682 0.22634,-0.0465 0.27595,-0.0899 0.0527,-0.0465 0.0527,-0.12093 l -0.003,-0.21084 0.0124,-0.22944 -0.003,-0.47129 -0.003,-0.12092 q 0,-0.0248 0.006,-0.18604 0.006,-0.0837 0.006,-0.14883 0,-0.0403 -0.009,-0.25114 l 0.0124,-0.17674 q -0.0124,-0.20153 -0.0124,-0.23874 0,-0.0465 0.003,-0.093 l 0.006,-0.0775 -0.009,-0.21084 0.009,-0.0961 q 0.003,-0.0651 0.003,-0.17363 0,-0.10542 -0.003,-0.25735 -0.22014,0.16433 -0.50229,0.32866 -0.031,0.0186 -0.27906,0.12712 -0.0992,-0.14883 -0.12712,-0.22324 0.32866,-0.17053 0.44648,-0.25115 0.19534,-0.13642 0.42168,-0.34106 0.0961,-0.0899 0.24495,-0.27595 z m 1.5627,0.10542 q 0.12402,0 0.38757,-0.009 l 0.75964,0.0155 0.64182,-0.009 0.36897,0.003 0.12713,-0.006 q 0.0403,0 0.11782,0.006 0.009,0.11472 0.009,0.18913 0,0.0899 -0.12712,0.43408 -0.0899,0.24185 -0.16433,0.46819 -0.0713,0.22635 -0.10852,0.32556 -0.0868,0.22325 -0.13643,0.38758 -0.0527,0.12712 -0.11782,0.31006 l -0.15193,0.42478 q -0.0372,0.11162 -0.14573,0.39687 l -0.24805,0.68833 q -0.031,0.0682 -0.031,0.10542 0,0.0496 0.0651,0.0992 0.0682,0.0465 0.0682,0.093 0,0.0589 -0.0527,0.12402 h -0.0806 l -0.23255,-0.003 q -0.0186,-0.003 -0.10852,0 -0.0899,0.006 -0.14262,0.006 -0.0403,0 -0.12403,-0.003 0.009,-0.093 0.12713,-0.33796 0.0682,-0.14573 0.30075,-0.75965 l 0.55501,-1.44487 0.13953,-0.36897 q 0.0403,-0.0837 0.0899,-0.23254 0.0155,-0.0465 0.0589,-0.16123 -0.30385,-0.0155 -0.49299,-0.0155 l -0.46199,0.006 -0.36897,-0.006 q -0.17363,0 -0.23564,0.0496 -0.062,0.0465 -0.0868,0.17054 -0.0248,0.12402 -0.0651,0.15813 -0.0372,0.031 -0.13022,0.031 -0.0527,0 -0.0806,-0.031 -0.0279,-0.031 -0.0279,-0.0899 0,-0.14883 0.0372,-0.45579 0.0217,-0.15503 0.0341,-0.30075 0.0155,-0.14883 0.0341,-0.25735 z"
       id="text932"
       style="font-weight:bold;font-size:6.35px;line-height:7.45115px;font-family:Garamond;-inkscape-font-specification:'Garamond Bold';text-align:center;letter-spacing:0px;word-spacing:0px;text-anchor:middle;stroke-width:0.176"
       aria-label="17" />
  </g>
</svg>
