<?xml version="1.0" encoding="UTF-8" standalone="no"?>
<!-- Created with Inkscape (http://www.inkscape.org/) -->

<svg
   width="2.3622055in"
   height="2.0457292in"
   viewBox="0 0 60.00002 51.961521"
   version="1.1"
   id="svg1"
   xmlns="http://www.w3.org/2000/svg"
   xmlns:svg="http://www.w3.org/2000/svg">
  <defs
     id="defs1" />
  <g
     id="layer11"
     style="display:inline"
     transform="translate(-410.57697,-317.65178)">
    <path
       style="fill:#cdbdff;stroke:none;stroke-width:0.13338;stroke-linecap:butt"
       id="path980"
       d="m 183.98627,124.22117 7.57842,13.12622 -15.15685,0 z"
       transform="matrix(1.3195349,0,0,-1.3195349,207.80068,516.20698)" />
    <path
       style="fill:#cdbdff;stroke:none;stroke-width:0.13338;stroke-linecap:butt"
       id="path981"
       d="m 183.98627,124.22117 7.57842,13.12622 -15.15685,0 z"
       transform="matrix(-1.3195349,0,0,1.3195349,663.35328,171.05813)" />
    <path
       style="fill:#cdbdff;stroke:none;stroke-width:0.13338;stroke-linecap:butt"
       id="path982"
       d="m 183.98627,124.22117 7.57842,13.12622 -15.15685,0 z"
       transform="matrix(-1.3195349,0,0,1.3195349,693.35328,153.73762)" />
    <path
       style="fill:#cdbdff;stroke:none;stroke-width:0.13338;stroke-linecap:butt"
       id="path983"
       d="m 183.98627,124.22117 7.57842,13.12622 -15.15685,0 z"
       transform="matrix(-1.3195349,0,0,1.3195349,703.35328,171.05813)" />
    <path
       style="fill:#cdbdff;stroke:none;stroke-width:0.13338;stroke-linecap:butt"
       id="path984"
       d="m 183.98627,124.22117 7.57842,13.12622 -15.15685,0 z"
       transform="matrix(-1.3195349,0,0,1.3195349,683.35328,171.05813)" />
    <path
       style="fill:#cdbdff;stroke:none;stroke-width:0.13338;stroke-linecap:butt"
       id="path985"
       d="m 183.98627,124.22117 7.57842,13.12622 -15.15685,0 z"
       transform="matrix(1.3195349,0,0,-1.3195349,187.80068,516.20698)" />
    <path
       style="fill:#cdbdff;stroke:none;stroke-width:0.13338;stroke-linecap:butt"
       id="path986"
       d="m 183.98627,124.22117 7.57842,13.12622 -15.15685,0 z"
       transform="matrix(1.3195349,0,0,-1.3195349,217.80068,533.52748)" />
  </g>
  <g
     id="layer12"
     style="display:inline"
     transform="translate(-410.57697,-317.65178)">
    <path
       style="fill:#3000c2;stroke:none;stroke-width:0.13338;stroke-linecap:butt"
       id="path987"
       d="m 183.98633,125.75586 6.24804,10.82422 h -12.49609 z"
       transform="matrix(1.3195349,0,0,-1.3195349,207.80068,516.20698)" />
    <path
       style="fill:#3000c2;stroke:none;stroke-width:0.13338;stroke-linecap:butt"
       id="path988"
       d="m 183.98633,125.75586 6.24804,10.82422 h -12.49609 z"
       transform="matrix(-1.3195349,0,0,1.3195349,663.35328,171.05813)" />
    <path
       style="fill:#3000c2;stroke:none;stroke-width:0.13338;stroke-linecap:butt"
       id="path989"
       d="m 183.98633,125.75586 6.24804,10.82422 h -12.49609 z"
       transform="matrix(-1.3195349,0,0,1.3195349,693.35328,153.73762)" />
    <path
       style="fill:#3000c2;stroke:none;stroke-width:0.13338;stroke-linecap:butt"
       id="path990"
       d="m 183.98633,125.75586 6.24804,10.82422 h -12.49609 z"
       transform="matrix(-1.3195349,0,0,1.3195349,703.35328,171.05813)" />
    <path
       style="fill:#3000c2;stroke:none;stroke-width:0.13338;stroke-linecap:butt"
       id="path991"
       d="m 183.98633,125.75586 6.24804,10.82422 h -12.49609 z"
       transform="matrix(-1.3195349,0,0,1.3195349,683.35328,171.05813)" />
    <path
       style="fill:#3000c2;stroke:none;stroke-width:0.13338;stroke-linecap:butt"
       id="path992"
       d="m 183.98633,125.75586 6.24804,10.82422 h -12.49609 z"
       transform="matrix(1.3195349,0,0,-1.3195349,187.80068,516.20698)" />
    <path
       style="fill:#3000c2;stroke:none;stroke-width:0.13338;stroke-linecap:butt"
       id="path993"
       d="m 183.98633,125.75586 6.24804,10.82422 h -12.49609 z"
       transform="matrix(1.3195349,0,0,-1.3195349,217.80068,533.52748)" />
  </g>
  <g
     id="layer13"
     style="display:inline"
     transform="translate(-410.57697,-317.65178)">
    <path
       style="fill:#cdbdff;stroke:none;stroke-width:0.176;stroke-linecap:butt"
       d="m 179.26758,116.01563 c 2.10236,0 3.76367,1.66131 3.76367,3.76367 0,2.10235 -1.66131,3.76367 -3.76367,3.76367 -2.10236,0 -3.76367,-1.66132 -3.76367,-3.76367 0,-2.10236 1.66131,-3.76368 3.76367,-3.76367 z"
       id="path994"
       transform="translate(271.30938,220.96646)" />
  </g>
  <g
     id="layer14"
     style="display:inline"
     transform="translate(-410.57697,-317.65178)">
    <path
       d="m 449.11816,338.67142 q 0.0155,0 0.21084,-0.006 l 0.0992,0.003 0.19533,0.003 q 0.0124,0.0992 0.0124,0.14573 0,0.0155 -0.003,0.0961 -0.003,0.0434 -0.006,0.33176 l -0.006,0.46819 0.003,0.29456 -0.0217,2.09289 v 0.17673 q 0,0.093 0.0434,0.13333 0.0434,0.0403 0.23254,0.0682 0.0744,0.009 0.29766,0.0496 0.006,0.031 0.006,0.0589 0,0.0341 -0.006,0.14883 h -0.13333 q -0.13642,0 -0.39687,-0.0124 -0.15813,-0.009 -0.21704,-0.009 -0.0744,0 -0.54881,0.0155 -0.0527,0.003 -0.0868,0.003 h -0.0558 l -0.0899,-0.006 -0.0837,0.006 -0.15503,-0.006 q -0.031,0 -0.12712,0.009 -0.006,-0.0682 -0.006,-0.10542 0,-0.0341 0.006,-0.10232 0.12402,-0.0341 0.28835,-0.0682 0.22635,-0.0465 0.27596,-0.0899 0.0527,-0.0465 0.0527,-0.12092 l -0.003,-0.21084 0.0124,-0.22944 -0.003,-0.47129 -0.003,-0.12093 q 0,-0.0248 0.006,-0.18603 0.006,-0.0837 0.006,-0.14883 0,-0.0403 -0.009,-0.25115 l 0.0124,-0.17673 q -0.0124,-0.20154 -0.0124,-0.23874 0,-0.0465 0.003,-0.093 l 0.006,-0.0775 -0.009,-0.21084 0.009,-0.0961 q 0.003,-0.0651 0.003,-0.17363 0,-0.10542 -0.003,-0.25735 -0.22014,0.16433 -0.5023,0.32867 -0.031,0.0186 -0.27905,0.12712 -0.0992,-0.14883 -0.12712,-0.22324 0.32866,-0.17053 0.44648,-0.25115 0.19534,-0.13643 0.42168,-0.34106 0.0961,-0.0899 0.24495,-0.27596 z m 2.29133,2.15181 q -0.36277,-0.18914 -0.5333,-0.46509 -0.16743,-0.27905 -0.16743,-0.49609 0,-0.18294 0.0589,-0.40308 0.062,-0.22324 0.20774,-0.38757 0.14883,-0.16743 0.38447,-0.27595 0.23565,-0.11162 0.4961,-0.11162 0.48989,0 0.79685,0.27905 0.31005,0.27905 0.31005,0.69143 0,0.20154 -0.13332,0.41858 -0.13023,0.21394 -0.26975,0.28835 l -0.22634,0.13643 q 0,0.0155 0.16743,0.10852 0.17053,0.0899 0.37827,0.34726 0.14573,0.18604 0.18913,0.31316 0.0465,0.12713 0.0465,0.32557 0,0.29765 -0.0558,0.44338 -0.0341,0.0868 -0.14262,0.25425 -0.10542,0.16433 -0.18294,0.22944 -0.15813,0.13023 -0.44338,0.23565 -0.18604,0.0713 -0.41238,0.0713 -0.26665,0 -0.49919,-0.0558 -0.16744,-0.0403 -0.28526,-0.12713 -0.17983,-0.13332 -0.25735,-0.23564 -0.0775,-0.10232 -0.13332,-0.25115 -0.0744,-0.20464 -0.0744,-0.40617 0,-0.33487 0.26355,-0.60772 0.16433,-0.17363 0.5178,-0.31936 z m 0.21704,-0.73174 q 0.093,0.0651 0.48989,0.27285 l 0.062,-0.062 q 0.12402,-0.12402 0.17053,-0.24184 0.0682,-0.17364 0.0682,-0.41548 0,-0.32556 -0.16123,-0.4992 -0.16123,-0.17363 -0.40618,-0.17363 -0.24494,0 -0.41237,0.16433 -0.16744,0.16123 -0.16744,0.39378 0,0.16433 0.0837,0.29765 0.0837,0.13333 0.27285,0.26355 z m 0,0.87747 q -0.0496,0 -0.20154,0.17363 -0.20463,0.23875 -0.20463,0.58911 0,0.37827 0.19223,0.59221 0.19534,0.21084 0.47129,0.21084 0.29146,0 0.45579,-0.16433 0.16743,-0.16433 0.16743,-0.44958 0,-0.22945 -0.11162,-0.39378 -0.10852,-0.16433 -0.42478,-0.35966 -0.31316,-0.19844 -0.34417,-0.19844 z"
       id="text994"
       style="font-weight:bold;font-size:6.35px;line-height:7.45115px;font-family:Garamond;-inkscape-font-specification:'Garamond Bold';text-align:center;letter-spacing:0px;word-spacing:0px;text-anchor:middle;stroke-width:0.176"
       aria-label="18" />
  </g>
</svg>
