<?xml version="1.0" encoding="UTF-8" standalone="no"?>
<!-- Created with Inkscape (http://www.inkscape.org/) -->

<svg
   width="2.3622041in"
   height="1.3638191in"
   viewBox="0 0 59.999984 34.641006"
   version="1.1"
   id="svg1"
   xmlns="http://www.w3.org/2000/svg"
   xmlns:svg="http://www.w3.org/2000/svg">
  <defs
     id="defs1" />
  <g
     id="layer11"
     style="display:inline"
     transform="translate(-427.01048,-417.90634)">
    <path
       style="fill:#debdff;stroke:none;stroke-width:0.13338;stroke-linecap:butt"
       id="path1096"
       d="m 183.98627,124.22117 7.57842,13.12622 -15.15685,0 z"
       transform="matrix(1.3195349,0,0,-1.3195349,214.23419,616.46151)" />
    <path
       style="fill:#debdff;stroke:none;stroke-width:0.13338;stroke-linecap:butt"
       id="path1097"
       d="m 183.98627,124.22117 7.57842,13.12622 -15.15685,0 z"
       transform="matrix(1.3195349,0,0,-1.3195349,194.23419,616.46151)" />
    <path
       style="fill:#debdff;stroke:none;stroke-width:0.13338;stroke-linecap:butt"
       id="path1098"
       d="m 183.98627,124.22117 7.57842,13.12622 -15.15685,0 z"
       transform="matrix(1.3195349,0,0,-1.3195349,234.23419,616.46151)" />
    <path
       style="fill:#debdff;stroke:none;stroke-width:0.13338;stroke-linecap:butt"
       id="path1099"
       d="m 183.98627,124.22117 7.57842,13.12622 -15.15685,0 z"
       transform="matrix(-1.3195349,0,0,1.3195349,709.78679,271.31266)" />
    <path
       style="fill:#debdff;stroke:none;stroke-width:0.13338;stroke-linecap:butt"
       id="path1100"
       d="m 183.98627,124.22117 7.57842,13.12622 -15.15685,0 z"
       transform="matrix(-1.3195349,0,0,1.3195349,699.78679,253.99216)" />
    <path
       style="fill:#debdff;stroke:none;stroke-width:0.13338;stroke-linecap:butt"
       id="path1101"
       d="m 183.98627,124.22117 7.57842,13.12622 -15.15685,0 z"
       transform="matrix(-1.3195349,0,0,1.3195349,679.78679,253.99216)" />
    <path
       style="fill:#debdff;stroke:none;stroke-width:0.13338;stroke-linecap:butt"
       id="path1102"
       d="m 183.98627,124.22117 7.57842,13.12622 -15.15685,0 z"
       transform="matrix(-1.3195349,0,0,1.3195349,689.78679,271.31266)" />
  </g>
  <g
     id="layer12"
     style="display:inline"
     transform="translate(-427.01048,-417.90634)">
    <path
       style="fill:#6100c2;stroke:none;stroke-width:0.13338;stroke-linecap:butt"
       id="path1103"
       d="m 183.98633,125.75586 6.24804,10.82422 h -12.49609 z"
       transform="matrix(1.3195349,0,0,-1.3195349,214.23419,616.46151)" />
    <path
       style="fill:#6100c2;stroke:none;stroke-width:0.13338;stroke-linecap:butt"
       id="path1104"
       d="m 183.98633,125.75586 6.24804,10.82422 h -12.49609 z"
       transform="matrix(1.3195349,0,0,-1.3195349,194.23419,616.46151)" />
    <path
       style="fill:#6100c2;stroke:none;stroke-width:0.13338;stroke-linecap:butt"
       id="path1105"
       d="m 183.98633,125.75586 6.24804,10.82422 h -12.49609 z"
       transform="matrix(1.3195349,0,0,-1.3195349,234.23419,616.46151)" />
    <path
       style="fill:#6100c2;stroke:none;stroke-width:0.13338;stroke-linecap:butt"
       id="path1106"
       d="m 183.98633,125.75586 6.24804,10.82422 h -12.49609 z"
       transform="matrix(-1.3195349,0,0,1.3195349,709.78679,271.31266)" />
    <path
       style="fill:#6100c2;stroke:none;stroke-width:0.13338;stroke-linecap:butt"
       id="path1107"
       d="m 183.98633,125.75586 6.24804,10.82422 h -12.49609 z"
       transform="matrix(-1.3195349,0,0,1.3195349,699.78679,253.99216)" />
    <path
       style="fill:#6100c2;stroke:none;stroke-width:0.13338;stroke-linecap:butt"
       id="path1108"
       d="m 183.98633,125.75586 6.24804,10.82422 h -12.49609 z"
       transform="matrix(-1.3195349,0,0,1.3195349,679.78679,253.99216)" />
    <path
       style="fill:#6100c2;stroke:none;stroke-width:0.13338;stroke-linecap:butt"
       id="path1109"
       d="m 183.98633,125.75586 6.24804,10.82422 h -12.49609 z"
       transform="matrix(-1.3195349,0,0,1.3195349,689.78679,271.31266)" />
  </g>
  <g
     id="layer13"
     style="display:inline"
     transform="translate(-427.01048,-417.90634)">
    <path
       style="fill:#debdff;stroke:none;stroke-width:0.176;stroke-linecap:butt"
       d="m 179.26758,116.01563 c 2.10236,0 3.76367,1.66131 3.76367,3.76367 0,2.10235 -1.66131,3.76367 -3.76367,3.76367 -2.10236,0 -3.76367,-1.66132 -3.76367,-3.76367 0,-2.10236 1.66131,-3.76368 3.76367,-3.76367 z"
       id="path1110"
       transform="translate(277.74292,321.22098)" />
  </g>
  <g
     id="layer14"
     style="display:inline"
     transform="translate(-427.01048,-417.90634)">
    <path
       d="m 455.55169,438.92594 q 0.0155,0 0.21084,-0.006 l 0.0992,0.003 0.19534,0.003 q 0.0124,0.0992 0.0124,0.14573 0,0.0155 -0.003,0.0961 -0.003,0.0434 -0.006,0.33176 l -0.006,0.46819 0.003,0.29455 -0.0217,2.0929 v 0.17673 q 0,0.093 0.0434,0.13333 0.0434,0.0403 0.23254,0.0682 0.0744,0.009 0.29766,0.0496 0.006,0.031 0.006,0.0589 0,0.0341 -0.006,0.14883 h -0.13332 q -0.13643,0 -0.39688,-0.0124 -0.15813,-0.009 -0.21704,-0.009 -0.0744,0 -0.5488,0.0155 -0.0527,0.003 -0.0868,0.003 h -0.0558 l -0.0899,-0.006 -0.0837,0.006 -0.15503,-0.006 q -0.031,0 -0.12713,0.009 -0.006,-0.0682 -0.006,-0.10542 0,-0.0341 0.006,-0.10232 0.12403,-0.0341 0.28836,-0.0682 0.22634,-0.0465 0.27595,-0.0899 0.0527,-0.0465 0.0527,-0.12092 l -0.003,-0.21084 0.0124,-0.22945 -0.003,-0.47129 -0.003,-0.12092 q 0,-0.0248 0.006,-0.18603 0.006,-0.0837 0.006,-0.14883 0,-0.0403 -0.009,-0.25115 l 0.0124,-0.17673 q -0.0124,-0.20154 -0.0124,-0.23875 0,-0.0465 0.003,-0.093 l 0.006,-0.0775 -0.009,-0.21084 0.009,-0.0961 q 0.003,-0.0651 0.003,-0.17363 0,-0.10542 -0.003,-0.25735 -0.22014,0.16433 -0.50229,0.32866 -0.031,0.0186 -0.27906,0.12713 -0.0992,-0.14883 -0.12712,-0.22325 0.32866,-0.17053 0.44648,-0.25114 0.19534,-0.13643 0.42168,-0.34107 0.0961,-0.0899 0.24495,-0.27595 z m 1.80144,4.17339 q -0.0496,-0.0589 -0.0496,-0.11472 0,-0.0527 0.031,-0.0837 0.0155,-0.0217 0.17983,-0.0837 0.32246,-0.12403 0.55501,-0.29766 0.23254,-0.17673 0.39067,-0.42478 0.15813,-0.25115 0.22324,-0.5395 0.0682,-0.29146 0.0744,-0.45889 0.003,-0.0558 0.0279,-0.26975 0.0186,-0.15813 0.0186,-0.38137 0,-0.79065 -0.19224,-1.08521 -0.14573,-0.22014 -0.35967,-0.22014 -0.19844,0 -0.33796,0.18914 -0.18914,0.25734 -0.18914,0.73484 0,0.29455 0.0372,0.5519 0.0248,0.17053 0.11162,0.31316 0.0558,0.093 0.10542,0.12092 0.12092,0.0589 0.24185,0.0589 0.0775,0 0.16123,-0.0248 l 0.0465,-0.009 q 0.0372,0 0.0682,0.0372 0.031,0.0341 0.031,0.10232 0,0.11782 -0.093,0.15193 -0.19844,0.0744 -0.43099,0.0744 -0.14572,0 -0.18293,-0.0124 -0.29146,-0.10542 -0.36277,-0.15813 -0.17983,-0.13022 -0.27595,-0.26355 -0.093,-0.13642 -0.13953,-0.31006 -0.0589,-0.22944 -0.0589,-0.46198 0,-0.36897 0.16433,-0.68213 0.16743,-0.31626 0.45579,-0.47439 0.29145,-0.15813 0.62322,-0.15813 0.58911,0 0.97978,0.44958 0.39378,0.44959 0.39378,1.29915 0,0.41858 -0.16123,0.89297 -0.0403,0.11782 -0.22635,0.44338 -0.18603,0.32246 -0.50229,0.58911 -0.31626,0.26355 -0.66663,0.38758 -0.35036,0.12402 -0.57361,0.12402 -0.0403,0 -0.11782,-0.006 z"
       id="text1110"
       style="font-weight:bold;font-size:6.35px;line-height:7.45115px;font-family:Garamond;-inkscape-font-specification:'Garamond Bold';text-align:center;letter-spacing:0px;word-spacing:0px;text-anchor:middle;stroke-width:0.176"
       aria-label="19" />
  </g>
</svg>
