<?xml version="1.0" encoding="UTF-8" standalone="no"?>
<!-- Created with Inkscape (http://www.inkscape.org/) -->

<svg
   width="1.9685045in"
   height="1.3638204in"
   viewBox="0 0 50.000016 34.641039"
   version="1.1"
   id="svg1"
   xmlns="http://www.w3.org/2000/svg"
   xmlns:svg="http://www.w3.org/2000/svg">
  <defs
     id="defs1" />
  <g
     id="layer11"
     style="display:inline"
     transform="translate(-373.14719,-464.02066)">
    <path
       style="fill:#eebdff;stroke:none;stroke-width:0.13338;stroke-linecap:butt"
       id="path1013"
       d="m 183.98627,124.22117 7.57842,13.12622 -15.15685,0 z"
       transform="matrix(-1.3195349,0,0,-1.3195349,635.9235,662.57584)" />
    <path
       style="fill:#eebdff;stroke:none;stroke-width:0.13338;stroke-linecap:butt"
       id="path1128"
       d="m 183.98627,124.22117 7.57842,13.12622 -15.15685,0 z"
       transform="matrix(-1.3195349,0,0,-1.3195349,655.9235,662.57584)" />
    <path
       style="fill:#eebdff;stroke:none;stroke-width:0.13338;stroke-linecap:butt"
       id="path1136"
       d="m 183.98627,124.22117 7.57842,13.12622 -15.15685,0 z"
       transform="matrix(-1.3195349,0,0,-1.3195349,625.9235,645.25533)" />
    <path
       style="fill:#eebdff;stroke:none;stroke-width:0.13338;stroke-linecap:butt"
       id="path1138"
       d="m 183.98627,124.22117 7.57842,13.12622 -15.15685,0 z"
       transform="matrix(-1.3195349,0,0,1.3195349,645.9235,317.42699)" />
    <path
       style="fill:#eebdff;stroke:none;stroke-width:0.13338;stroke-linecap:butt"
       id="path1139"
       d="m 183.98627,124.22117 7.57842,13.12622 -15.15685,0 z"
       transform="matrix(-1.3195349,0,0,1.3195349,655.9235,300.10648)" />
    <path
       style="fill:#eebdff;stroke:none;stroke-width:0.13338;stroke-linecap:butt"
       id="path1144"
       d="m 183.98627,124.22117 7.57842,13.12622 -15.15685,0 z"
       transform="matrix(-1.3195349,0,0,1.3195349,635.9235,300.10648)" />
    <path
       style="fill:#eebdff;stroke:none;stroke-width:0.13338;stroke-linecap:butt"
       id="path1145"
       d="m 183.98627,124.22117 7.57842,13.12622 -15.15685,0 z"
       transform="matrix(-1.3195349,0,0,1.3195349,625.9235,317.42699)" />
  </g>
  <g
     id="layer12"
     style="display:inline"
     transform="translate(-373.14719,-464.02066)">
    <path
       style="fill:#9100c2;stroke:none;stroke-width:0.13338;stroke-linecap:butt"
       id="path1019"
       d="m 183.98633,125.75586 6.24804,10.82422 h -12.49609 z"
       transform="matrix(-1.3195349,0,0,-1.3195349,635.9235,662.57584)" />
    <path
       style="fill:#9100c2;stroke:none;stroke-width:0.13338;stroke-linecap:butt"
       id="path1129"
       d="m 183.98633,125.75586 6.24804,10.82422 h -12.49609 z"
       transform="matrix(-1.3195349,0,0,-1.3195349,655.9235,662.57584)" />
    <path
       style="fill:#9100c2;stroke:none;stroke-width:0.13338;stroke-linecap:butt"
       id="path1137"
       d="m 183.98633,125.75586 6.24804,10.82422 h -12.49609 z"
       transform="matrix(-1.3195349,0,0,-1.3195349,625.9235,645.25533)" />
    <path
       style="fill:#9100c2;stroke:none;stroke-width:0.13338;stroke-linecap:butt"
       id="path1140"
       d="m 183.98633,125.75586 6.24804,10.82422 h -12.49609 z"
       transform="matrix(-1.3195349,0,0,1.3195349,645.9235,317.42699)" />
    <path
       style="fill:#9100c2;stroke:none;stroke-width:0.13338;stroke-linecap:butt"
       id="path1141"
       d="m 183.98633,125.75586 6.24804,10.82422 h -12.49609 z"
       transform="matrix(-1.3195349,0,0,1.3195349,655.9235,300.10648)" />
    <path
       style="fill:#9100c2;stroke:none;stroke-width:0.13338;stroke-linecap:butt"
       id="path1146"
       d="m 183.98633,125.75586 6.24804,10.82422 h -12.49609 z"
       transform="matrix(-1.3195349,0,0,1.3195349,635.9235,300.10648)" />
    <path
       style="fill:#9100c2;stroke:none;stroke-width:0.13338;stroke-linecap:butt"
       id="path1147"
       d="m 183.98633,125.75586 6.24804,10.82422 h -12.49609 z"
       transform="matrix(-1.3195349,0,0,1.3195349,625.9235,317.42699)" />
  </g>
  <g
     id="layer13"
     style="display:inline"
     transform="translate(-373.14719,-464.02066)">
    <path
       style="fill:#eebdff;stroke:none;stroke-width:0.176;stroke-linecap:butt"
       d="m 179.26758,116.01563 c 2.10236,0 3.76367,1.66131 3.76367,3.76367 0,2.10235 -1.66131,3.76367 -3.76367,3.76367 -2.10236,0 -3.76367,-1.66132 -3.76367,-3.76367 0,-2.10236 1.66131,-3.76368 3.76367,-3.76367 z"
       id="path1025"
       transform="translate(213.8796,367.33531)" />
  </g>
  <g
     id="layer14"
     style="display:inline"
     transform="translate(-373.14719,-464.02066)">
    <path
       d="m 392.88672,489.11443 h -0.32246 q -0.11472,0 -0.17983,-0.003 -0.10232,-0.003 -0.12402,-0.003 l -0.21084,0.009 -0.0558,-0.006 q -0.0744,-0.009 -0.18294,-0.009 -0.10232,0 -0.35036,0.009 -0.11783,0.003 -0.14263,0.003 l -0.31316,-0.006 -0.5023,0.006 h -0.19843 v -0.21084 q 0.44028,-0.55811 0.66042,-0.77825 0.22324,-0.22324 0.63252,-0.73794 0.28526,-0.35346 0.39067,-0.63252 0.10853,-0.27905 0.10853,-0.48369 0,-0.22944 -0.0682,-0.41238 -0.0651,-0.18293 -0.23564,-0.28835 -0.16743,-0.10542 -0.36587,-0.10542 -0.20154,0 -0.36277,0.0992 -0.16123,0.0992 -0.23564,0.25115 -0.11473,0.22014 -0.13953,0.45888 h -0.22634 q -0.009,-0.13332 -0.009,-0.22324 0,-0.30076 0.23255,-0.57671 0.35967,-0.42788 1.01389,-0.42788 0.5457,0 0.85886,0.31006 0.31316,0.30696 0.31316,0.77515 0,0.18603 -0.0589,0.35036 -0.0837,0.22324 -0.20464,0.38757 -0.11782,0.16434 -0.65422,0.70074 -0.38757,0.38757 -0.97048,0.91777 l 0.34416,0.006 0.56431,-0.0124 0.32866,0.006 q 0.26045,0 0.34416,-0.0558 0.0868,-0.0558 0.15813,-0.26355 0.0155,-0.0496 0.0558,-0.14883 l 0.20464,-0.0124 0.0403,0.0124 q 0.0155,0.0248 0.0155,0.0465 0,0.0496 -0.0155,0.12402 -0.0155,0.0744 -0.0372,0.24495 -0.0186,0.17053 -0.0992,0.67903 z m 0.44959,-1.99988 q 0,-0.34106 0.0403,-0.5333 0.093,-0.46199 0.17983,-0.66973 0.13643,-0.32246 0.31936,-0.52089 0.18604,-0.20154 0.42788,-0.30386 0.14263,-0.062 0.37827,-0.062 0.28836,0 0.56121,0.20153 0.27285,0.20154 0.48679,0.66663 0.21394,0.46199 0.21394,1.16272 0,0.5178 -0.11782,0.97358 -0.0744,0.27596 -0.21394,0.5116 -0.13643,0.23254 -0.22634,0.32246 -0.15503,0.15193 -0.34107,0.24185 -0.18603,0.0899 -0.30075,0.0899 -0.33797,0 -0.5147,-0.0682 -0.17673,-0.0651 -0.34107,-0.23874 -0.16123,-0.17364 -0.29145,-0.44339 -0.12712,-0.26975 -0.18294,-0.5209 -0.0775,-0.35036 -0.0775,-0.80925 z m 0.80305,0.40928 q 0,0.68213 0.0434,0.92397 0.0434,0.23875 0.16433,0.35967 0.12402,0.11782 0.26045,0.11782 0.13953,0 0.23875,-0.0744 0.0992,-0.0744 0.16743,-0.23255 0.0713,-0.16123 0.0992,-0.50539 0.0465,-0.56121 0.0465,-0.80305 l -0.009,-0.40928 v -0.43718 q 0,-0.31006 -0.0434,-0.57671 -0.0434,-0.26665 -0.11782,-0.38137 -0.0713,-0.11783 -0.17363,-0.16123 -0.0992,-0.0465 -0.19224,-0.0465 -0.11472,0 -0.24804,0.11472 -0.13333,0.11162 -0.19224,0.41238 -0.0589,0.30075 -0.0589,1.02629 l 0.006,0.22014 q 0.009,0.31936 0.009,0.45269 z"
       id="text1030"
       style="font-weight:bold;font-size:6.35px;line-height:7.45115px;font-family:Garamond;-inkscape-font-specification:'Garamond Bold';text-align:center;letter-spacing:0px;word-spacing:0px;text-anchor:middle;stroke-width:0.176"
       aria-label="20" />
  </g>
</svg>
