<?xml version="1.0" encoding="UTF-8" standalone="no"?>
<!-- Created with Inkscape (http://www.inkscape.org/) -->

<svg
   width="2.3622041in"
   height="1.3638194in"
   viewBox="0 0 59.999984 34.641012"
   version="1.1"
   id="svg1"
   xmlns="http://www.w3.org/2000/svg"
   xmlns:svg="http://www.w3.org/2000/svg">
  <defs
     id="defs1" />
  <g
     id="layer11"
     style="display:inline"
     transform="translate(-473.97245,-134.06187)">
    <path
       style="fill:#ffbdff;stroke:none;stroke-width:0.13338;stroke-linecap:butt"
       id="path1014"
       d="m 183.98627,124.22117 7.57842,13.12622 -15.15685,0 z"
       transform="matrix(-1.3195349,0,0,-1.3195349,746.74876,332.61707)" />
    <path
       style="fill:#ffbdff;stroke:none;stroke-width:0.13338;stroke-linecap:butt"
       id="path1182"
       d="m 183.98627,124.22117 7.57842,13.12622 -15.15685,0 z"
       transform="matrix(-1.3195349,0,0,1.3195349,746.74876,-29.852285)" />
    <path
       style="fill:#ffbdff;stroke:none;stroke-width:0.13338;stroke-linecap:butt"
       id="path1190"
       d="m 183.98627,124.22117 7.57842,13.12622 -15.15685,0 z"
       transform="matrix(-1.3195349,0,0,1.3195349,766.74876,-29.852287)" />
    <path
       style="fill:#ffbdff;stroke:none;stroke-width:0.13338;stroke-linecap:butt"
       id="path1204"
       d="m 183.98627,124.22117 7.57842,13.12622 -15.15685,0 z"
       transform="matrix(-1.3195349,0,0,1.3195349,756.74876,-12.531777)" />
    <path
       style="fill:#ffbdff;stroke:none;stroke-width:0.13338;stroke-linecap:butt"
       id="path1205"
       d="m 183.98627,124.22117 7.57842,13.12622 -15.15685,0 z"
       transform="matrix(-1.3195349,0,0,1.3195349,736.74876,-12.531777)" />
    <path
       style="fill:#ffbdff;stroke:none;stroke-width:0.13338;stroke-linecap:butt"
       id="path21"
       d="m 183.98627,124.22117 7.57842,13.12622 -15.15685,0 z"
       transform="matrix(1.3195349,0,0,-1.3195349,271.19616,315.29656)" />
    <path
       style="fill:#ffbdff;stroke:none;stroke-width:0.13338;stroke-linecap:butt"
       id="path22"
       d="m 183.98627,124.22117 7.57842,13.12622 -15.15685,0 z"
       transform="matrix(1.3195349,0,0,-1.3195349,241.19616,332.61707)" />
  </g>
  <g
     id="layer12"
     style="display:inline"
     transform="translate(-473.97245,-134.06187)">
    <path
       style="fill:#c200c2;stroke:none;stroke-width:0.13338;stroke-linecap:butt"
       id="path1020"
       d="m 183.98633,125.75586 6.24804,10.82422 h -12.49609 z"
       transform="matrix(-1.3195349,0,0,-1.3195349,746.74876,332.61707)" />
    <path
       style="fill:#c200c2;stroke:none;stroke-width:0.13338;stroke-linecap:butt"
       id="path1183"
       d="m 183.98633,125.75586 6.24804,10.82422 h -12.49609 z"
       transform="matrix(-1.3195349,0,0,1.3195349,746.74876,-29.852285)" />
    <path
       style="fill:#c200c2;stroke:none;stroke-width:0.13338;stroke-linecap:butt"
       id="path1191"
       d="m 183.98633,125.75586 6.24804,10.82422 h -12.49609 z"
       transform="matrix(-1.3195349,0,0,1.3195349,766.74876,-29.852287)" />
    <path
       style="fill:#c200c2;stroke:none;stroke-width:0.13338;stroke-linecap:butt"
       id="path1206"
       d="m 183.98633,125.75586 6.24804,10.82422 h -12.49609 z"
       transform="matrix(-1.3195349,0,0,1.3195349,756.74876,-12.531777)" />
    <path
       style="fill:#c200c2;stroke:none;stroke-width:0.13338;stroke-linecap:butt"
       id="path1207"
       d="m 183.98633,125.75586 6.24804,10.82422 h -12.49609 z"
       transform="matrix(-1.3195349,0,0,1.3195349,736.74876,-12.531777)" />
    <path
       style="fill:#c200c2;stroke:none;stroke-width:0.13338;stroke-linecap:butt"
       id="path23"
       d="m 183.98633,125.75586 6.24804,10.82422 h -12.49609 z"
       transform="matrix(1.3195349,0,0,-1.3195349,271.19616,315.29656)" />
    <path
       style="fill:#c200c2;stroke:none;stroke-width:0.13338;stroke-linecap:butt"
       id="path58"
       d="m 183.98633,125.75586 6.24804,10.82422 h -12.49609 z"
       transform="matrix(1.3195349,0,0,-1.3195349,241.19616,332.61707)" />
  </g>
  <g
     id="layer13"
     style="display:inline"
     transform="translate(-473.97245,-134.06187)">
    <path
       style="fill:#ffbdff;stroke:none;stroke-width:0.176;stroke-linecap:butt"
       d="m 179.26758,116.01563 c 2.10236,0 3.76367,1.66131 3.76367,3.76367 0,2.10235 -1.66131,3.76367 -3.76367,3.76367 -2.10236,0 -3.76367,-1.66132 -3.76367,-3.76367 0,-2.10236 1.66131,-3.76368 3.76367,-3.76367 z"
       id="path1026"
       transform="translate(324.70486,37.376545)" />
  </g>
  <g
     id="layer14"
     style="display:inline"
     transform="translate(-473.97245,-134.06187)">
    <path
       d="m 503.94297,159.15567 h -0.32246 q -0.11472,0 -0.17983,-0.003 -0.10232,-0.003 -0.12402,-0.003 l -0.21084,0.009 -0.0558,-0.006 q -0.0744,-0.009 -0.18294,-0.009 -0.10232,0 -0.35036,0.009 -0.11783,0.003 -0.14263,0.003 l -0.31316,-0.006 -0.5023,0.006 h -0.19843 v -0.21084 q 0.44028,-0.5581 0.66042,-0.77824 0.22324,-0.22325 0.63252,-0.73794 0.28526,-0.35347 0.39067,-0.63252 0.10853,-0.27906 0.10853,-0.48369 0,-0.22945 -0.0682,-0.41238 -0.0651,-0.18294 -0.23564,-0.28836 -0.16743,-0.10542 -0.36587,-0.10542 -0.20154,0 -0.36277,0.0992 -0.16123,0.0992 -0.23564,0.25115 -0.11473,0.22014 -0.13953,0.45889 h -0.22634 q -0.009,-0.13333 -0.009,-0.22325 0,-0.30075 0.23255,-0.5767 0.35967,-0.42789 1.01389,-0.42789 0.5457,0 0.85886,0.31006 0.31316,0.30696 0.31316,0.77515 0,0.18603 -0.0589,0.35037 -0.0837,0.22324 -0.20464,0.38757 -0.11782,0.16433 -0.65422,0.70073 -0.38757,0.38757 -0.97048,0.91777 l 0.34416,0.006 0.56431,-0.0124 0.32866,0.006 q 0.26045,0 0.34416,-0.0558 0.0868,-0.0558 0.15813,-0.26355 0.0155,-0.0496 0.0558,-0.14882 l 0.20464,-0.0124 0.0403,0.0124 q 0.0155,0.0248 0.0155,0.0465 0,0.0496 -0.0155,0.12402 -0.0155,0.0744 -0.0372,0.24494 -0.0186,0.17054 -0.0992,0.67903 z m 1.5472,-4.07417 q 0.0155,0 0.21084,-0.006 l 0.0992,0.003 0.19533,0.003 q 0.0124,0.0992 0.0124,0.14573 0,0.0155 -0.003,0.0961 -0.003,0.0434 -0.006,0.33176 l -0.006,0.46819 0.003,0.29456 -0.0217,2.09289 v 0.17673 q 0,0.093 0.0434,0.13333 0.0434,0.0403 0.23254,0.0682 0.0744,0.009 0.29766,0.0496 0.006,0.031 0.006,0.0589 0,0.0341 -0.006,0.14883 h -0.13333 q -0.13642,0 -0.39687,-0.0124 -0.15813,-0.009 -0.21704,-0.009 -0.0744,0 -0.54881,0.0155 -0.0527,0.003 -0.0868,0.003 h -0.0558 l -0.0899,-0.006 -0.0837,0.006 -0.15503,-0.006 q -0.031,0 -0.12712,0.009 -0.006,-0.0682 -0.006,-0.10542 0,-0.0341 0.006,-0.10232 0.12402,-0.0341 0.28835,-0.0682 0.22635,-0.0465 0.27596,-0.0899 0.0527,-0.0465 0.0527,-0.12092 l -0.003,-0.21084 0.0124,-0.22944 -0.003,-0.47129 -0.003,-0.12093 q 0,-0.0248 0.006,-0.18603 0.006,-0.0837 0.006,-0.14883 0,-0.0403 -0.009,-0.25115 l 0.0124,-0.17673 q -0.0124,-0.20154 -0.0124,-0.23874 0,-0.0465 0.003,-0.093 l 0.006,-0.0775 -0.009,-0.21084 0.009,-0.0961 q 0.003,-0.0651 0.003,-0.17363 0,-0.10542 -0.003,-0.25735 -0.22014,0.16433 -0.5023,0.32867 -0.031,0.0186 -0.27905,0.12712 -0.0992,-0.14883 -0.12712,-0.22324 0.32866,-0.17053 0.44648,-0.25115 0.19534,-0.13643 0.42168,-0.34106 0.0961,-0.0899 0.24495,-0.27596 z"
       id="text1031"
       style="font-weight:bold;font-size:6.35px;line-height:7.45115px;font-family:Garamond;-inkscape-font-specification:'Garamond Bold';text-align:center;letter-spacing:0px;word-spacing:0px;text-anchor:middle;stroke-width:0.176"
       aria-label="21" />
  </g>
</svg>
