<?xml version="1.0" encoding="UTF-8" standalone="no"?>
<!-- Created with Inkscape (http://www.inkscape.org/) -->

<svg
   width="2.3622041in"
   height="1.3638198in"
   viewBox="0 0 59.999984 34.641024"
   version="1.1"
   id="svg1"
   xmlns="http://www.w3.org/2000/svg"
   xmlns:svg="http://www.w3.org/2000/svg">
  <defs
     id="defs1" />
  <g
     id="layer11"
     style="display:inline"
     transform="translate(-477.72789,-178.35667)">
    <path
       style="fill:#ffbdee;stroke:none;stroke-width:0.13338;stroke-linecap:butt"
       id="path360"
       d="m 183.98627,124.22117 7.57842,13.12622 -15.15685,0 z"
       transform="matrix(-1.3195349,0,0,-1.3195349,750.5042,376.91186)" />
    <path
       style="fill:#ffbdee;stroke:none;stroke-width:0.13338;stroke-linecap:butt"
       id="path430"
       d="m 183.98627,124.22117 7.57842,13.12622 -15.15685,0 z"
       transform="matrix(-1.3195349,0,0,-1.3195349,730.5042,376.91186)" />
    <path
       style="fill:#ffbdee;stroke:none;stroke-width:0.13338;stroke-linecap:butt"
       id="path581"
       d="m 183.98627,124.22117 7.57842,13.12622 -15.15685,0 z"
       transform="matrix(-1.3195349,0,0,-1.3195349,770.5042,376.91186)" />
    <path
       style="fill:#ffbdee;stroke:none;stroke-width:0.13338;stroke-linecap:butt"
       id="path590"
       d="m 183.98627,124.22117 7.57842,13.12622 -15.15685,0 z"
       transform="matrix(1.3195349,0,0,1.3195349,254.9516,31.763009)" />
    <path
       style="fill:#ffbdee;stroke:none;stroke-width:0.13338;stroke-linecap:butt"
       id="path591"
       d="m 183.98627,124.22117 7.57842,13.12622 -15.15685,0 z"
       transform="matrix(1.3195349,0,0,1.3195349,274.9516,31.763009)" />
    <path
       style="fill:#ffbdee;stroke:none;stroke-width:0.13338;stroke-linecap:butt"
       id="path699"
       d="m 183.98627,124.22117 7.57842,13.12622 -15.15685,0 z"
       transform="matrix(1.3195349,0,0,1.3195349,264.9516,14.442501)" />
    <path
       style="fill:#ffbdee;stroke:none;stroke-width:0.13338;stroke-linecap:butt"
       id="path718"
       d="m 183.98627,124.22117 7.57842,13.12622 -15.15685,0 z"
       transform="matrix(-1.3195349,0,0,-1.3195349,760.5042,359.59135)" />
  </g>
  <g
     id="layer12"
     style="display:inline"
     transform="translate(-477.72789,-178.35667)">
    <path
       style="fill:#c20091;stroke:none;stroke-width:0.13338;stroke-linecap:butt"
       id="path361"
       d="m 183.98633,125.75586 6.24804,10.82422 h -12.49609 z"
       transform="matrix(-1.3195349,0,0,-1.3195349,750.5042,376.91186)" />
    <path
       style="fill:#c20091;stroke:none;stroke-width:0.13338;stroke-linecap:butt"
       id="path431"
       d="m 183.98633,125.75586 6.24804,10.82422 h -12.49609 z"
       transform="matrix(-1.3195349,0,0,-1.3195349,730.5042,376.91186)" />
    <path
       style="fill:#c20091;stroke:none;stroke-width:0.13338;stroke-linecap:butt"
       id="path582"
       d="m 183.98633,125.75586 6.24804,10.82422 h -12.49609 z"
       transform="matrix(-1.3195349,0,0,-1.3195349,770.5042,376.91186)" />
    <path
       style="fill:#c20091;stroke:none;stroke-width:0.13338;stroke-linecap:butt"
       id="path608"
       d="m 183.98633,125.75586 6.24804,10.82422 h -12.49609 z"
       transform="matrix(1.3195349,0,0,1.3195349,254.9516,31.763009)" />
    <path
       style="fill:#c20091;stroke:none;stroke-width:0.13338;stroke-linecap:butt"
       id="path654"
       d="m 183.98633,125.75586 6.24804,10.82422 h -12.49609 z"
       transform="matrix(1.3195349,0,0,1.3195349,274.9516,31.763009)" />
    <path
       style="fill:#c20091;stroke:none;stroke-width:0.13338;stroke-linecap:butt"
       id="path701"
       d="m 183.98633,125.75586 6.24804,10.82422 h -12.49609 z"
       transform="matrix(1.3195349,0,0,1.3195349,264.9516,14.442501)" />
    <path
       style="fill:#c20091;stroke:none;stroke-width:0.13338;stroke-linecap:butt"
       id="path719"
       d="m 183.98633,125.75586 6.24804,10.82422 h -12.49609 z"
       transform="matrix(-1.3195349,0,0,-1.3195349,760.5042,359.59135)" />
  </g>
  <g
     id="layer13"
     style="display:inline"
     transform="translate(-477.72789,-178.35667)">
    <path
       style="fill:#ffbdee;stroke:none;stroke-width:0.176;stroke-linecap:butt"
       d="m 179.26758,116.01563 c 2.10236,0 3.76367,1.66131 3.76367,3.76367 0,2.10235 -1.66131,3.76367 -3.76367,3.76367 -2.10236,0 -3.76367,-1.66132 -3.76367,-3.76367 0,-2.10236 1.66131,-3.76368 3.76367,-3.76367 z"
       id="path362"
       transform="translate(328.4603,81.67133)" />
  </g>
  <g
     id="layer14"
     style="display:inline"
     transform="translate(-477.72789,-178.35667)">
    <path
       d="m 507.46741,203.45046 h -0.32246 q -0.11472,0 -0.17983,-0.003 -0.10232,-0.003 -0.12403,-0.003 l -0.21083,0.009 -0.0558,-0.006 q -0.0744,-0.009 -0.18293,-0.009 -0.10232,0 -0.35037,0.009 -0.11782,0.003 -0.14262,0.003 l -0.31316,-0.006 -0.5023,0.006 h -0.19843 v -0.21084 q 0.44028,-0.55811 0.66042,-0.77825 0.22324,-0.22324 0.63252,-0.73794 0.28525,-0.35347 0.39067,-0.63252 0.10852,-0.27905 0.10852,-0.48369 0,-0.22944 -0.0682,-0.41238 -0.0651,-0.18293 -0.23564,-0.28835 -0.16744,-0.10542 -0.36587,-0.10542 -0.20154,0 -0.36277,0.0992 -0.16123,0.0992 -0.23565,0.25114 -0.11472,0.22015 -0.13952,0.45889 h -0.22634 q -0.009,-0.13332 -0.009,-0.22324 0,-0.30076 0.23255,-0.57671 0.35967,-0.42788 1.01389,-0.42788 0.5457,0 0.85886,0.31006 0.31316,0.30696 0.31316,0.77514 0,0.18604 -0.0589,0.35037 -0.0837,0.22324 -0.20464,0.38757 -0.11782,0.16433 -0.65422,0.70074 -0.38758,0.38757 -0.97049,0.91777 l 0.34417,0.006 0.56431,-0.0124 0.32866,0.006 q 0.26045,0 0.34416,-0.0558 0.0868,-0.0558 0.15813,-0.26355 0.0155,-0.0496 0.0558,-0.14883 l 0.20464,-0.0124 0.0403,0.0124 q 0.0155,0.0248 0.0155,0.0465 0,0.0496 -0.0155,0.12402 -0.0155,0.0744 -0.0372,0.24495 -0.0186,0.17053 -0.0992,0.67903 z m 2.97657,0 h -0.32247 q -0.11472,0 -0.17983,-0.003 -0.10232,-0.003 -0.12402,-0.003 l -0.21084,0.009 -0.0558,-0.006 q -0.0744,-0.009 -0.18294,-0.009 -0.10232,0 -0.35036,0.009 -0.11783,0.003 -0.14263,0.003 l -0.31316,-0.006 -0.50229,0.006 h -0.19844 v -0.21084 q 0.44028,-0.55811 0.66042,-0.77825 0.22324,-0.22324 0.63252,-0.73794 0.28526,-0.35347 0.39068,-0.63252 0.10852,-0.27905 0.10852,-0.48369 0,-0.22944 -0.0682,-0.41238 -0.0651,-0.18293 -0.23564,-0.28835 -0.16743,-0.10542 -0.36587,-0.10542 -0.20154,0 -0.36277,0.0992 -0.16123,0.0992 -0.23564,0.25114 -0.11472,0.22015 -0.13953,0.45889 h -0.22634 q -0.009,-0.13332 -0.009,-0.22324 0,-0.30076 0.23254,-0.57671 0.35967,-0.42788 1.01389,-0.42788 0.5457,0 0.85886,0.31006 0.31316,0.30696 0.31316,0.77514 0,0.18604 -0.0589,0.35037 -0.0837,0.22324 -0.20464,0.38757 -0.11782,0.16433 -0.65422,0.70074 -0.38757,0.38757 -0.97048,0.91777 l 0.34416,0.006 0.56431,-0.0124 0.32866,0.006 q 0.26045,0 0.34416,-0.0558 0.0868,-0.0558 0.15813,-0.26355 0.0155,-0.0496 0.0558,-0.14883 l 0.20463,-0.0124 0.0403,0.0124 q 0.0155,0.0248 0.0155,0.0465 0,0.0496 -0.0155,0.12402 -0.0155,0.0744 -0.0372,0.24495 -0.0186,0.17053 -0.0992,0.67903 z"
       id="text362"
       style="font-weight:bold;font-size:6.35px;line-height:7.45115px;font-family:Garamond;-inkscape-font-specification:'Garamond Bold';text-align:center;letter-spacing:0px;word-spacing:0px;text-anchor:middle;stroke-width:0.176"
       aria-label="22" />
  </g>
</svg>
