<?xml version="1.0" encoding="UTF-8" standalone="no"?>
<!-- Created with Inkscape (http://www.inkscape.org/) -->

<svg
   width="2.3622055in"
   height="1.3638198in"
   viewBox="0 0 60.00002 34.641024"
   version="1.1"
   id="svg1"
   xmlns="http://www.w3.org/2000/svg"
   xmlns:svg="http://www.w3.org/2000/svg">
  <defs
     id="defs1" />
  <g
     id="layer11"
     style="display:inline"
     transform="translate(-554.12018,-175.85083)">
    <path
       style="fill:#ffbdee;stroke:none;stroke-width:0.13338;stroke-linecap:butt"
       id="path724"
       d="m 183.98627,124.22117 7.57842,13.12622 -15.15685,0 z"
       transform="matrix(1.3195349,0,0,-1.3195349,341.34391,374.40602)" />
    <path
       style="fill:#ffbdee;stroke:none;stroke-width:0.13338;stroke-linecap:butt"
       id="path725"
       d="m 183.98627,124.22117 7.57842,13.12622 -15.15685,0 z"
       transform="matrix(1.3195349,0,0,-1.3195349,361.34391,374.40602)" />
    <path
       style="fill:#ffbdee;stroke:none;stroke-width:0.13338;stroke-linecap:butt"
       id="path742"
       d="m 183.98627,124.22117 7.57842,13.12622 -15.15685,0 z"
       transform="matrix(1.3195349,0,0,-1.3195349,321.34391,374.40602)" />
    <path
       style="fill:#ffbdee;stroke:none;stroke-width:0.13338;stroke-linecap:butt"
       id="path743"
       d="m 183.98627,124.22117 7.57842,13.12622 -15.15685,0 z"
       transform="matrix(-1.3195349,0,0,1.3195349,836.89651,29.257169)" />
    <path
       style="fill:#ffbdee;stroke:none;stroke-width:0.13338;stroke-linecap:butt"
       id="path744"
       d="m 183.98627,124.22117 7.57842,13.12622 -15.15685,0 z"
       transform="matrix(-1.3195349,0,0,1.3195349,816.89651,29.257169)" />
    <path
       style="fill:#ffbdee;stroke:none;stroke-width:0.13338;stroke-linecap:butt"
       id="path745"
       d="m 183.98627,124.22117 7.57842,13.12622 -15.15685,0 z"
       transform="matrix(-1.3195349,0,0,1.3195349,826.89651,11.936661)" />
    <path
       style="fill:#ffbdee;stroke:none;stroke-width:0.13338;stroke-linecap:butt"
       id="path746"
       d="m 183.98627,124.22117 7.57842,13.12622 -15.15685,0 z"
       transform="matrix(1.3195349,0,0,-1.3195349,331.34391,357.08551)" />
  </g>
  <g
     id="layer12"
     style="display:inline"
     transform="translate(-554.12018,-175.85083)">
    <path
       style="fill:#c20091;stroke:none;stroke-width:0.13338;stroke-linecap:butt"
       id="path747"
       d="m 183.98633,125.75586 6.24804,10.82422 h -12.49609 z"
       transform="matrix(1.3195349,0,0,-1.3195349,341.34391,374.40602)" />
    <path
       style="fill:#c20091;stroke:none;stroke-width:0.13338;stroke-linecap:butt"
       id="path748"
       d="m 183.98633,125.75586 6.24804,10.82422 h -12.49609 z"
       transform="matrix(1.3195349,0,0,-1.3195349,361.34391,374.40602)" />
    <path
       style="fill:#c20091;stroke:none;stroke-width:0.13338;stroke-linecap:butt"
       id="path749"
       d="m 183.98633,125.75586 6.24804,10.82422 h -12.49609 z"
       transform="matrix(1.3195349,0,0,-1.3195349,321.34391,374.40602)" />
    <path
       style="fill:#c20091;stroke:none;stroke-width:0.13338;stroke-linecap:butt"
       id="path750"
       d="m 183.98633,125.75586 6.24804,10.82422 h -12.49609 z"
       transform="matrix(-1.3195349,0,0,1.3195349,836.89651,29.257169)" />
    <path
       style="fill:#c20091;stroke:none;stroke-width:0.13338;stroke-linecap:butt"
       id="path751"
       d="m 183.98633,125.75586 6.24804,10.82422 h -12.49609 z"
       transform="matrix(-1.3195349,0,0,1.3195349,816.89651,29.257169)" />
    <path
       style="fill:#c20091;stroke:none;stroke-width:0.13338;stroke-linecap:butt"
       id="path752"
       d="m 183.98633,125.75586 6.24804,10.82422 h -12.49609 z"
       transform="matrix(-1.3195349,0,0,1.3195349,826.89651,11.936661)" />
    <path
       style="fill:#c20091;stroke:none;stroke-width:0.13338;stroke-linecap:butt"
       id="path753"
       d="m 183.98633,125.75586 6.24804,10.82422 h -12.49609 z"
       transform="matrix(1.3195349,0,0,-1.3195349,331.34391,357.08551)" />
  </g>
  <g
     id="layer13"
     style="display:inline"
     transform="translate(-554.12018,-175.85083)">
    <path
       style="fill:#ffbdee;stroke:none;stroke-width:0.176;stroke-linecap:butt"
       d="m 179.26758,116.01563 c 2.10236,0 3.76367,1.66131 3.76367,3.76367 0,2.10235 -1.66131,3.76367 -3.76367,3.76367 -2.10236,0 -3.76367,-1.66132 -3.76367,-3.76367 0,-2.10236 1.66131,-3.76368 3.76367,-3.76367 z"
       id="path754"
       transform="translate(404.85265,79.16549)" />
  </g>
  <g
     id="layer14"
     style="display:inline"
     transform="translate(-554.12018,-175.85083)">
    <path
       d="m 583.85978,200.94461 h -0.32246 q -0.11472,0 -0.17984,-0.003 -0.10232,-0.003 -0.12402,-0.003 l -0.21084,0.009 -0.0558,-0.006 q -0.0744,-0.009 -0.18294,-0.009 -0.10231,0 -0.35036,0.009 -0.11782,0.003 -0.14263,0.003 l -0.31316,-0.006 -0.50229,0.006 H 581.277 v -0.21084 q 0.44028,-0.5581 0.66042,-0.77824 0.22325,-0.22325 0.63252,-0.73794 0.28526,-0.35347 0.39068,-0.63252 0.10852,-0.27905 0.10852,-0.48369 0,-0.22945 -0.0682,-0.41238 -0.0651,-0.18294 -0.23565,-0.28836 -0.16743,-0.10542 -0.36587,-0.10542 -0.20154,0 -0.36277,0.0992 -0.16123,0.0992 -0.23564,0.25115 -0.11472,0.22014 -0.13953,0.45889 h -0.22634 q -0.009,-0.13333 -0.009,-0.22325 0,-0.30075 0.23254,-0.5767 0.35967,-0.42789 1.01389,-0.42789 0.54571,0 0.85887,0.31006 0.31315,0.30696 0.31315,0.77515 0,0.18604 -0.0589,0.35037 -0.0837,0.22324 -0.20463,0.38757 -0.11783,0.16433 -0.65423,0.70073 -0.38757,0.38758 -0.97048,0.91778 l 0.34416,0.006 0.56431,-0.0124 0.32866,0.006 q 0.26045,0 0.34417,-0.0558 0.0868,-0.0558 0.15813,-0.26355 0.0155,-0.0496 0.0558,-0.14882 l 0.20464,-0.0124 0.0403,0.0124 q 0.0155,0.0248 0.0155,0.0465 0,0.0496 -0.0155,0.12402 -0.0155,0.0744 -0.0372,0.24495 -0.0186,0.17053 -0.0992,0.67902 z m 2.97656,0 h -0.32246 q -0.11472,0 -0.17983,-0.003 -0.10232,-0.003 -0.12403,-0.003 l -0.21084,0.009 -0.0558,-0.006 q -0.0744,-0.009 -0.18293,-0.009 -0.10232,0 -0.35037,0.009 -0.11782,0.003 -0.14263,0.003 l -0.31316,-0.006 -0.50229,0.006 h -0.19844 v -0.21084 q 0.44029,-0.5581 0.66043,-0.77824 0.22324,-0.22325 0.63252,-0.73794 0.28525,-0.35347 0.39067,-0.63252 0.10852,-0.27905 0.10852,-0.48369 0,-0.22945 -0.0682,-0.41238 -0.0651,-0.18294 -0.23565,-0.28836 -0.16743,-0.10542 -0.36587,-0.10542 -0.20153,0 -0.36276,0.0992 -0.16123,0.0992 -0.23565,0.25115 -0.11472,0.22014 -0.13953,0.45889 h -0.22634 q -0.009,-0.13333 -0.009,-0.22325 0,-0.30075 0.23254,-0.5767 0.35967,-0.42789 1.0139,-0.42789 0.5457,0 0.85886,0.31006 0.31316,0.30696 0.31316,0.77515 0,0.18604 -0.0589,0.35037 -0.0837,0.22324 -0.20464,0.38757 -0.11782,0.16433 -0.65423,0.70073 -0.38757,0.38758 -0.97048,0.91778 l 0.34417,0.006 0.5643,-0.0124 0.32866,0.006 q 0.26045,0 0.34417,-0.0558 0.0868,-0.0558 0.15813,-0.26355 0.0155,-0.0496 0.0558,-0.14882 l 0.20464,-0.0124 0.0403,0.0124 q 0.0155,0.0248 0.0155,0.0465 0,0.0496 -0.0155,0.12402 -0.0155,0.0744 -0.0372,0.24495 -0.0186,0.17053 -0.0992,0.67902 z"
       id="text754"
       style="font-weight:bold;font-size:6.35px;line-height:7.45115px;font-family:Garamond;-inkscape-font-specification:'Garamond Bold';text-align:center;letter-spacing:0px;word-spacing:0px;text-anchor:middle;stroke-width:0.176"
       aria-label="22" />
  </g>
</svg>
