<?xml version="1.0" encoding="UTF-8" standalone="no"?>
<!-- Created with Inkscape (http://www.inkscape.org/) -->

<svg
   width="1.9685034in"
   height="1.3638198in"
   viewBox="0 0 49.999985 34.641024"
   version="1.1"
   id="svg1"
   xmlns="http://www.w3.org/2000/svg"
   xmlns:svg="http://www.w3.org/2000/svg">
  <defs
     id="defs1" />
  <g
     id="layer11"
     style="display:inline"
     transform="translate(-488.67296,-218.12377)">
    <path
       style="fill:#ffbdde;stroke:none;stroke-width:0.13338;stroke-linecap:butt"
       id="path1016"
       d="m 183.98627,124.22117 7.57842,13.12622 -15.15685,0 z"
       transform="matrix(-1.3195349,0,0,-1.3195349,751.44928,416.67896)" />
    <path
       style="fill:#ffbdde;stroke:none;stroke-width:0.13338;stroke-linecap:butt"
       id="path786"
       d="m 183.98627,124.22117 7.57842,13.12622 -15.15685,0 z"
       transform="matrix(-1.3195349,0,0,-1.3195349,761.44928,399.35845)" />
    <path
       style="fill:#ffbdde;stroke:none;stroke-width:0.13338;stroke-linecap:butt"
       id="path810"
       d="m 183.98627,124.22117 7.57842,13.12622 -15.15685,0 z"
       transform="matrix(-1.3195349,0,0,-1.3195349,771.44928,416.67896)" />
    <path
       style="fill:#ffbdde;stroke:none;stroke-width:0.13338;stroke-linecap:butt"
       id="path813"
       d="m 183.98627,124.22117 7.57842,13.12622 -15.15685,0 z"
       transform="matrix(-1.3195349,0,0,-1.3195349,741.44928,399.35845)" />
    <path
       style="fill:#ffbdde;stroke:none;stroke-width:0.13338;stroke-linecap:butt"
       id="path817"
       d="m 183.98627,124.22117 7.57842,13.12622 -15.15685,0 z"
       transform="matrix(-1.3195349,0,0,1.3195349,751.44928,54.209605)" />
    <path
       style="fill:#ffbdde;stroke:none;stroke-width:0.13338;stroke-linecap:butt"
       id="path818"
       d="m 183.98627,124.22117 7.57842,13.12622 -15.15685,0 z"
       transform="matrix(-1.3195349,0,0,1.3195349,761.44928,71.530113)" />
    <path
       style="fill:#ffbdde;stroke:none;stroke-width:0.13338;stroke-linecap:butt"
       id="path830"
       d="m 183.98627,124.22117 7.57842,13.12622 -15.15685,0 z"
       transform="matrix(-1.3195349,0,0,1.3195349,741.44928,71.530113)" />
  </g>
  <g
     id="layer12"
     style="display:inline"
     transform="translate(-488.67296,-218.12377)">
    <path
       style="fill:#c20061;stroke:none;stroke-width:0.13338;stroke-linecap:butt"
       id="path1022"
       d="m 183.98633,125.75586 6.24804,10.82422 h -12.49609 z"
       transform="matrix(-1.3195349,0,0,-1.3195349,751.44928,416.67896)" />
    <path
       style="fill:#c20061;stroke:none;stroke-width:0.13338;stroke-linecap:butt"
       id="path787"
       d="m 183.98633,125.75586 6.24804,10.82422 h -12.49609 z"
       transform="matrix(-1.3195349,0,0,-1.3195349,761.44928,399.35845)" />
    <path
       style="fill:#c20061;stroke:none;stroke-width:0.13338;stroke-linecap:butt"
       id="path811"
       d="m 183.98633,125.75586 6.24804,10.82422 h -12.49609 z"
       transform="matrix(-1.3195349,0,0,-1.3195349,771.44928,416.67896)" />
    <path
       style="fill:#c20061;stroke:none;stroke-width:0.13338;stroke-linecap:butt"
       id="path814"
       d="m 183.98633,125.75586 6.24804,10.82422 h -12.49609 z"
       transform="matrix(-1.3195349,0,0,-1.3195349,741.44928,399.35845)" />
    <path
       style="fill:#c20061;stroke:none;stroke-width:0.13338;stroke-linecap:butt"
       id="path819"
       d="m 183.98633,125.75586 6.24804,10.82422 h -12.49609 z"
       transform="matrix(-1.3195349,0,0,1.3195349,751.44928,54.209605)" />
    <path
       style="fill:#c20061;stroke:none;stroke-width:0.13338;stroke-linecap:butt"
       id="path820"
       d="m 183.98633,125.75586 6.24804,10.82422 h -12.49609 z"
       transform="matrix(-1.3195349,0,0,1.3195349,761.44928,71.530113)" />
    <path
       style="fill:#c20061;stroke:none;stroke-width:0.13338;stroke-linecap:butt"
       id="path832"
       d="m 183.98633,125.75586 6.24804,10.82422 h -12.49609 z"
       transform="matrix(-1.3195349,0,0,1.3195349,741.44928,71.530113)" />
  </g>
  <g
     id="layer13"
     style="display:inline"
     transform="translate(-488.67296,-218.12377)">
    <path
       style="fill:#ffbdde;stroke:none;stroke-width:0.176;stroke-linecap:butt"
       d="m 179.26758,116.01563 c 2.10236,0 3.76367,1.66131 3.76367,3.76367 0,2.10235 -1.66131,3.76367 -3.76367,3.76367 -2.10236,0 -3.76367,-1.66132 -3.76367,-3.76367 0,-2.10236 1.66131,-3.76368 3.76367,-3.76367 z"
       id="path1028"
       transform="translate(329.40538,121.43843)" />
  </g>
  <g
     id="layer14"
     style="display:inline"
     transform="translate(-488.67296,-218.12377)">
    <path
       d="m 508.41242,243.21756 h -0.32246 q -0.11472,0 -0.17983,-0.003 -0.10232,-0.003 -0.12403,-0.003 l -0.21084,0.009 -0.0558,-0.006 q -0.0744,-0.009 -0.18293,-0.009 -0.10232,0 -0.35037,0.009 -0.11782,0.003 -0.14263,0.003 l -0.31315,-0.006 -0.5023,0.006 h -0.19844 v -0.21084 q 0.44029,-0.5581 0.66043,-0.77824 0.22324,-0.22325 0.63252,-0.73794 0.28525,-0.35347 0.39067,-0.63252 0.10852,-0.27906 0.10852,-0.48369 0,-0.22945 -0.0682,-0.41238 -0.0651,-0.18294 -0.23565,-0.28836 -0.16743,-0.10542 -0.36587,-0.10542 -0.20153,0 -0.36276,0.0992 -0.16123,0.0992 -0.23565,0.25115 -0.11472,0.22014 -0.13952,0.45889 h -0.22635 q -0.009,-0.13333 -0.009,-0.22325 0,-0.30075 0.23254,-0.5767 0.35967,-0.42789 1.0139,-0.42789 0.5457,0 0.85886,0.31006 0.31316,0.30696 0.31316,0.77515 0,0.18603 -0.0589,0.35037 -0.0837,0.22324 -0.20464,0.38757 -0.11782,0.16433 -0.65423,0.70073 -0.38757,0.38757 -0.97048,0.91777 l 0.34417,0.006 0.5643,-0.0124 0.32866,0.006 q 0.26045,0 0.34417,-0.0558 0.0868,-0.0558 0.15813,-0.26355 0.0155,-0.0496 0.0558,-0.14882 l 0.20464,-0.0124 0.0403,0.0124 q 0.0155,0.0248 0.0155,0.0465 0,0.0496 -0.0155,0.12403 -0.0155,0.0744 -0.0372,0.24494 -0.0186,0.17054 -0.0992,0.67903 z m 1.31155,-1.87275 q -0.093,-0.11782 -0.15193,-0.18604 0.56431,-0.40927 0.75344,-0.66662 0.12403,-0.16433 0.12403,-0.35657 0,-0.19844 -0.14263,-0.34416 -0.14263,-0.14573 -0.32556,-0.14573 -0.37827,0 -0.68833,0.46199 l -0.19534,-0.10542 q 0.14883,-0.32557 0.29146,-0.4868 0.14572,-0.16433 0.41237,-0.27905 0.20154,-0.0868 0.5023,-0.0868 0.40617,0 0.62632,0.20464 0.22014,0.20154 0.22014,0.5085 0,0.24184 -0.15193,0.46509 -0.15193,0.22014 -0.5395,0.48369 h 0.0651 q 0.41548,0 0.67593,0.31936 0.26355,0.31936 0.26355,0.69763 0,0.31936 -0.14883,0.66663 -0.14573,0.34726 -0.5395,0.58601 -0.39378,0.23564 -0.96739,0.23564 -0.555,0 -0.84646,-0.19534 -0.18603,-0.12402 -0.18603,-0.29145 0,-0.11782 0.0899,-0.20464 0.0899,-0.0868 0.22944,-0.0868 0.11782,0 0.21704,0.062 0.0992,0.062 0.26975,0.27905 0.0868,0.11162 0.16743,0.14263 0.14263,0.0589 0.20774,0.0589 0.16433,0 0.34107,-0.11162 0.17983,-0.11163 0.28525,-0.36897 0.10542,-0.26045 0.10542,-0.60462 0,-0.36897 -0.18603,-0.57981 -0.18294,-0.21394 -0.40308,-0.21394 -0.16123,0 -0.37517,0.14263 z"
       id="text1033"
       style="font-weight:bold;font-size:6.35px;line-height:7.45115px;font-family:Garamond;-inkscape-font-specification:'Garamond Bold';text-align:center;letter-spacing:0px;word-spacing:0px;text-anchor:middle;stroke-width:0.176"
       aria-label="23" />
  </g>
</svg>
