<?xml version="1.0" encoding="UTF-8" standalone="no"?>
<!-- Created with Inkscape (http://www.inkscape.org/) -->

<svg
   width="1.9685034in"
   height="1.3638198in"
   viewBox="0 0 49.999985 34.641024"
   version="1.1"
   id="svg1"
   xmlns="http://www.w3.org/2000/svg"
   xmlns:svg="http://www.w3.org/2000/svg">
  <defs
     id="defs1" />
  <g
     id="layer11"
     style="display:inline"
     transform="translate(-546.70666,-217.22538)">
    <path
       style="fill:#ffbdde;stroke:none;stroke-width:0.13338;stroke-linecap:butt"
       id="path837"
       d="m 183.98627,124.22117 7.57842,13.12622 -15.15685,0 z"
       transform="matrix(1.3195349,0,0,-1.3195349,333.93039,415.78056)" />
    <path
       style="fill:#ffbdde;stroke:none;stroke-width:0.13338;stroke-linecap:butt"
       id="path838"
       d="m 183.98627,124.22117 7.57842,13.12622 -15.15685,0 z"
       transform="matrix(1.3195349,0,0,-1.3195349,323.93039,398.46005)" />
    <path
       style="fill:#ffbdde;stroke:none;stroke-width:0.13338;stroke-linecap:butt"
       id="path839"
       d="m 183.98627,124.22117 7.57842,13.12622 -15.15685,0 z"
       transform="matrix(1.3195349,0,0,-1.3195349,313.93039,415.78056)" />
    <path
       style="fill:#ffbdde;stroke:none;stroke-width:0.13338;stroke-linecap:butt"
       id="path840"
       d="m 183.98627,124.22117 7.57842,13.12622 -15.15685,0 z"
       transform="matrix(1.3195349,0,0,-1.3195349,343.93039,398.46005)" />
    <path
       style="fill:#ffbdde;stroke:none;stroke-width:0.13338;stroke-linecap:butt"
       id="path841"
       d="m 183.98627,124.22117 7.57842,13.12622 -15.15685,0 z"
       transform="matrix(1.3195349,0,0,1.3195349,333.93039,53.3112)" />
    <path
       style="fill:#ffbdde;stroke:none;stroke-width:0.13338;stroke-linecap:butt"
       id="path848"
       d="m 183.98627,124.22117 7.57842,13.12622 -15.15685,0 z"
       transform="matrix(1.3195349,0,0,1.3195349,323.93039,70.631708)" />
    <path
       style="fill:#ffbdde;stroke:none;stroke-width:0.13338;stroke-linecap:butt"
       id="path849"
       d="m 183.98627,124.22117 7.57842,13.12622 -15.15685,0 z"
       transform="matrix(1.3195349,0,0,1.3195349,343.93039,70.631708)" />
  </g>
  <g
     id="layer12"
     style="display:inline"
     transform="translate(-546.70666,-217.22538)">
    <path
       style="fill:#c20061;stroke:none;stroke-width:0.13338;stroke-linecap:butt"
       id="path854"
       d="m 183.98633,125.75586 6.24804,10.82422 h -12.49609 z"
       transform="matrix(1.3195349,0,0,-1.3195349,333.93039,415.78056)" />
    <path
       style="fill:#c20061;stroke:none;stroke-width:0.13338;stroke-linecap:butt"
       id="path855"
       d="m 183.98633,125.75586 6.24804,10.82422 h -12.49609 z"
       transform="matrix(1.3195349,0,0,-1.3195349,323.93039,398.46005)" />
    <path
       style="fill:#c20061;stroke:none;stroke-width:0.13338;stroke-linecap:butt"
       id="path872"
       d="m 183.98633,125.75586 6.24804,10.82422 h -12.49609 z"
       transform="matrix(1.3195349,0,0,-1.3195349,313.93039,415.78056)" />
    <path
       style="fill:#c20061;stroke:none;stroke-width:0.13338;stroke-linecap:butt"
       id="path873"
       d="m 183.98633,125.75586 6.24804,10.82422 h -12.49609 z"
       transform="matrix(1.3195349,0,0,-1.3195349,343.93039,398.46005)" />
    <path
       style="fill:#c20061;stroke:none;stroke-width:0.13338;stroke-linecap:butt"
       id="path874"
       d="m 183.98633,125.75586 6.24804,10.82422 h -12.49609 z"
       transform="matrix(1.3195349,0,0,1.3195349,333.93039,53.3112)" />
    <path
       style="fill:#c20061;stroke:none;stroke-width:0.13338;stroke-linecap:butt"
       id="path875"
       d="m 183.98633,125.75586 6.24804,10.82422 h -12.49609 z"
       transform="matrix(1.3195349,0,0,1.3195349,323.93039,70.631708)" />
    <path
       style="fill:#c20061;stroke:none;stroke-width:0.13338;stroke-linecap:butt"
       id="path876"
       d="m 183.98633,125.75586 6.24804,10.82422 h -12.49609 z"
       transform="matrix(1.3195349,0,0,1.3195349,343.93039,70.631708)" />
  </g>
  <g
     id="layer13"
     style="display:inline"
     transform="translate(-546.70666,-217.22538)">
    <path
       style="fill:#ffbdde;stroke:none;stroke-width:0.176;stroke-linecap:butt"
       d="m 179.26758,116.01563 c 2.10236,0 3.76367,1.66131 3.76367,3.76367 0,2.10235 -1.66131,3.76367 -3.76367,3.76367 -2.10236,0 -3.76367,-1.66132 -3.76367,-3.76367 0,-2.10236 1.66131,-3.76368 3.76367,-3.76367 z"
       id="path877"
       transform="translate(397.43913,120.54003)" />
  </g>
  <g
     id="layer14"
     style="display:inline"
     transform="translate(-546.70666,-217.22538)">
    <path
       d="m 576.4462,242.31916 h -0.32246 q -0.11472,0 -0.17983,-0.003 -0.10232,-0.003 -0.12402,-0.003 l -0.21084,0.009 -0.0558,-0.006 q -0.0744,-0.009 -0.18293,-0.009 -0.10232,0 -0.35037,0.009 -0.11782,0.003 -0.14262,0.003 l -0.31316,-0.006 -0.5023,0.006 h -0.19843 v -0.21084 q 0.44028,-0.55811 0.66042,-0.77825 0.22324,-0.22324 0.63252,-0.73794 0.28525,-0.35347 0.39067,-0.63252 0.10852,-0.27905 0.10852,-0.48369 0,-0.22944 -0.0682,-0.41238 -0.0651,-0.18293 -0.23564,-0.28835 -0.16743,-0.10542 -0.36587,-0.10542 -0.20154,0 -0.36277,0.0992 -0.16123,0.0992 -0.23565,0.25114 -0.11472,0.22014 -0.13952,0.45889 h -0.22634 q -0.009,-0.13333 -0.009,-0.22324 0,-0.30076 0.23255,-0.57671 0.35967,-0.42788 1.01389,-0.42788 0.5457,0 0.85886,0.31006 0.31316,0.30695 0.31316,0.77514 0,0.18604 -0.0589,0.35037 -0.0837,0.22324 -0.20464,0.38757 -0.11782,0.16433 -0.65422,0.70073 -0.38758,0.38758 -0.97049,0.91778 l 0.34417,0.006 0.56431,-0.0124 0.32866,0.006 q 0.26045,0 0.34416,-0.0558 0.0868,-0.0558 0.15813,-0.26355 0.0155,-0.0496 0.0558,-0.14883 l 0.20464,-0.0124 0.0403,0.0124 q 0.0155,0.0248 0.0155,0.0465 0,0.0496 -0.0155,0.12402 -0.0155,0.0744 -0.0372,0.24495 -0.0186,0.17053 -0.0992,0.67903 z m 1.31155,-1.87276 q -0.093,-0.11782 -0.15193,-0.18603 0.56431,-0.40928 0.75345,-0.66663 0.12402,-0.16433 0.12402,-0.35657 0,-0.19843 -0.14263,-0.34416 -0.14263,-0.14573 -0.32556,-0.14573 -0.37827,0 -0.68833,0.46199 l -0.19534,-0.10542 q 0.14883,-0.32556 0.29146,-0.48679 0.14573,-0.16433 0.41238,-0.27906 0.20153,-0.0868 0.50229,-0.0868 0.40618,0 0.62632,0.20464 0.22014,0.20153 0.22014,0.50849 0,0.24185 -0.15193,0.46509 -0.15193,0.22014 -0.5395,0.48369 h 0.0651 q 0.41548,0 0.67593,0.31936 0.26355,0.31936 0.26355,0.69763 0,0.31936 -0.14883,0.66663 -0.14573,0.34726 -0.5395,0.58601 -0.39377,0.23564 -0.96738,0.23564 -0.55501,0 -0.84646,-0.19533 -0.18604,-0.12403 -0.18604,-0.29146 0,-0.11782 0.0899,-0.20464 0.0899,-0.0868 0.22944,-0.0868 0.11782,0 0.21704,0.062 0.0992,0.062 0.26975,0.27905 0.0868,0.11162 0.16744,0.14263 0.14262,0.0589 0.20774,0.0589 0.16433,0 0.34106,-0.11162 0.17983,-0.11162 0.28525,-0.36897 0.10542,-0.26045 0.10542,-0.60461 0,-0.36897 -0.18603,-0.57981 -0.18294,-0.21394 -0.40308,-0.21394 -0.16123,0 -0.37517,0.14262 z"
       id="text877"
       style="font-weight:bold;font-size:6.35px;line-height:7.45115px;font-family:Garamond;-inkscape-font-specification:'Garamond Bold';text-align:center;letter-spacing:0px;word-spacing:0px;text-anchor:middle;stroke-width:0.176"
       aria-label="23" />
  </g>
</svg>
