<?xml version="1.0" encoding="UTF-8" standalone="no"?>
<!-- Created with Inkscape (http://www.inkscape.org/) -->

<svg
   width="2.3622041in"
   height="2.0457292in"
   viewBox="0 0 59.999984 51.961521"
   version="1.1"
   id="svg1"
   xmlns="http://www.w3.org/2000/svg"
   xmlns:svg="http://www.w3.org/2000/svg">
  <defs
     id="defs1" />
  <g
     id="layer11"
     style="display:inline"
     transform="translate(-484.99684,-259.1057)">
    <path
       style="fill:#ffbdcd;stroke:none;stroke-width:0.13338;stroke-linecap:butt"
       id="path965"
       d="m 183.98627,124.22117 7.57842,13.12622 -15.15685,0 z"
       transform="matrix(1.3195349,0,0,-1.3195349,272.22054,457.66089)" />
    <path
       style="fill:#ffbdcd;stroke:none;stroke-width:0.13338;stroke-linecap:butt"
       id="path972"
       d="m 183.98627,124.22117 7.57842,13.12622 -15.15685,0 z"
       transform="matrix(1.3195349,0,0,-1.3195349,292.22054,457.66089)" />
    <path
       style="fill:#ffbdcd;stroke:none;stroke-width:0.13338;stroke-linecap:butt"
       id="path973"
       d="m 183.98627,124.22117 7.57842,13.12622 -15.15685,0 z"
       transform="matrix(1.3195349,0,0,-1.3195349,252.22054,457.66089)" />
    <path
       style="fill:#ffbdcd;stroke:none;stroke-width:0.13338;stroke-linecap:butt"
       id="path978"
       d="m 183.98627,124.22117 7.57842,13.12622 -15.15685,0 z"
       transform="matrix(1.3195349,0,0,-1.3195349,282.22054,474.9814)" />
    <path
       style="fill:#ffbdcd;stroke:none;stroke-width:0.13338;stroke-linecap:butt"
       id="path979"
       d="m 183.98627,124.22117 7.57842,13.12622 -15.15685,0 z"
       transform="matrix(1.3195349,0,0,1.3195349,272.22054,95.191526)" />
    <path
       style="fill:#ffbdcd;stroke:none;stroke-width:0.13338;stroke-linecap:butt"
       id="path996"
       d="m 183.98627,124.22117 7.57842,13.12622 -15.15685,0 z"
       transform="matrix(1.3195349,0,0,1.3195349,262.22054,112.51204)" />
    <path
       style="fill:#ffbdcd;stroke:none;stroke-width:0.13338;stroke-linecap:butt"
       id="path997"
       d="m 183.98627,124.22117 7.57842,13.12622 -15.15685,0 z"
       transform="matrix(1.3195349,0,0,1.3195349,282.22054,112.51204)" />
  </g>
  <g
     id="layer12"
     style="display:inline"
     transform="translate(-484.99684,-259.1057)">
    <path
       style="fill:#c20030;stroke:none;stroke-width:0.13338;stroke-linecap:butt"
       id="path998"
       d="m 183.98633,125.75586 6.24804,10.82422 h -12.49609 z"
       transform="matrix(1.3195349,0,0,-1.3195349,272.22054,457.66089)" />
    <path
       style="fill:#c20030;stroke:none;stroke-width:0.13338;stroke-linecap:butt"
       id="path999"
       d="m 183.98633,125.75586 6.24804,10.82422 h -12.49609 z"
       transform="matrix(1.3195349,0,0,-1.3195349,292.22054,457.66089)" />
    <path
       style="fill:#c20030;stroke:none;stroke-width:0.13338;stroke-linecap:butt"
       id="path1000"
       d="m 183.98633,125.75586 6.24804,10.82422 h -12.49609 z"
       transform="matrix(1.3195349,0,0,-1.3195349,252.22054,457.66089)" />
    <path
       style="fill:#c20030;stroke:none;stroke-width:0.13338;stroke-linecap:butt"
       id="path1001"
       d="m 183.98633,125.75586 6.24804,10.82422 h -12.49609 z"
       transform="matrix(1.3195349,0,0,-1.3195349,282.22054,474.9814)" />
    <path
       style="fill:#c20030;stroke:none;stroke-width:0.13338;stroke-linecap:butt"
       id="path1002"
       d="m 183.98633,125.75586 6.24804,10.82422 h -12.49609 z"
       transform="matrix(1.3195349,0,0,1.3195349,272.22054,95.191526)" />
    <path
       style="fill:#c20030;stroke:none;stroke-width:0.13338;stroke-linecap:butt"
       id="path1003"
       d="m 183.98633,125.75586 6.24804,10.82422 h -12.49609 z"
       transform="matrix(1.3195349,0,0,1.3195349,262.22054,112.51204)" />
    <path
       style="fill:#c20030;stroke:none;stroke-width:0.13338;stroke-linecap:butt"
       id="path1004"
       d="m 183.98633,125.75586 6.24804,10.82422 h -12.49609 z"
       transform="matrix(1.3195349,0,0,1.3195349,282.22054,112.51204)" />
  </g>
  <g
     id="layer13"
     style="display:inline"
     transform="translate(-484.99684,-259.1057)">
    <path
       style="fill:#ffbdcd;stroke:none;stroke-width:0.176;stroke-linecap:butt"
       d="m 179.26758,116.01563 c 2.10236,0 3.76367,1.66131 3.76367,3.76367 0,2.10235 -1.66131,3.76367 -3.76367,3.76367 -2.10236,0 -3.76367,-1.66132 -3.76367,-3.76367 0,-2.10236 1.66131,-3.76368 3.76367,-3.76367 z"
       id="path1005"
       transform="translate(335.72928,162.42037)" />
  </g>
  <g
     id="layer14"
     style="display:inline"
     transform="translate(-484.99684,-259.1057)">
    <path
       d="m 514.7364,284.19947 h -0.32246 q -0.11472,0 -0.17984,-0.003 -0.10231,-0.003 -0.12402,-0.003 l -0.21084,0.009 -0.0558,-0.006 q -0.0744,-0.009 -0.18293,-0.009 -0.10232,0 -0.35037,0.009 -0.11782,0.003 -0.14263,0.003 l -0.31316,-0.006 -0.50229,0.006 h -0.19844 v -0.21084 q 0.44028,-0.5581 0.66043,-0.77824 0.22324,-0.22325 0.63252,-0.73794 0.28525,-0.35347 0.39067,-0.63252 0.10852,-0.27905 0.10852,-0.48369 0,-0.22945 -0.0682,-0.41238 -0.0651,-0.18294 -0.23565,-0.28836 -0.16743,-0.10542 -0.36587,-0.10542 -0.20153,0 -0.36277,0.0992 -0.16123,0.0992 -0.23564,0.25115 -0.11472,0.22014 -0.13953,0.45889 h -0.22634 q -0.009,-0.13333 -0.009,-0.22325 0,-0.30075 0.23254,-0.5767 0.35967,-0.42788 1.01389,-0.42788 0.54571,0 0.85887,0.31005 0.31316,0.30696 0.31316,0.77515 0,0.18604 -0.0589,0.35037 -0.0837,0.22324 -0.20464,0.38757 -0.11783,0.16433 -0.65423,0.70073 -0.38757,0.38758 -0.97048,0.91778 l 0.34416,0.006 0.56431,-0.0124 0.32866,0.006 q 0.26045,0 0.34417,-0.0558 0.0868,-0.0558 0.15813,-0.26354 0.0155,-0.0496 0.0558,-0.14883 l 0.20464,-0.0124 0.0403,0.0124 q 0.0155,0.0248 0.0155,0.0465 0,0.0496 -0.0155,0.12402 -0.0155,0.0744 -0.0372,0.24495 -0.0186,0.17053 -0.0992,0.67902 z m 3.10369,-1.48828 v 0.5209 q -0.16744,0.009 -0.26355,0.009 -0.0899,0 -0.22945,-0.009 -0.009,0.0744 -0.009,0.0899 l 0.006,0.18603 -0.003,0.19844 0.006,0.13643 q 0,0.0372 -0.009,0.18603 -0.006,0.0837 -0.009,0.25115 l -0.26665,-0.003 h -0.16433 q -0.0651,0 -0.0992,-0.003 l -0.0527,-0.006 q -0.0217,0 -0.0682,0.0124 l 0.006,-0.60151 -0.0124,-0.38758 q 0,-0.0155 0.006,-0.0589 -0.14883,0.003 -0.44339,0.006 h -0.20464 q -0.26355,0 -0.58601,-0.009 -0.10232,-0.003 -0.13332,-0.003 -0.0465,0 -0.14263,0.006 l -0.006,-0.0403 0.009,-0.21394 -0.006,-0.0682 0.009,-0.12712 -0.006,-0.0248 q 0.14573,-0.27595 0.18604,-0.33486 l 0.71003,-1.09141 q 0.23875,-0.35347 0.37827,-0.5364 0.14263,-0.18603 0.19844,-0.27595 0.0868,-0.13953 0.15193,-0.22014 0.0961,-0.12093 0.12402,-0.17054 0.18294,-0.009 0.22944,-0.009 0.0589,0 0.22015,0.009 l 0.006,0.0372 -0.0124,0.22944 0.006,0.0806 -0.009,0.12712 0.006,0.12713 -0.006,0.30696 -0.003,0.13332 0.003,0.17363 -0.003,0.16123 0.003,0.22015 -0.003,0.21084 0.003,0.24494 -0.009,0.5302 q 0.10852,0 0.26975,0.006 h 0.0744 q 0.0496,0 0.14883,-0.006 z m -1.16272,-0.006 q 0.0186,-0.15503 0.0186,-0.23254 0,-0.031 -0.006,-0.11472 -0.003,-0.0868 -0.003,-0.11163 l 0.009,-0.24184 -0.006,-0.20774 0.009,-0.5364 -0.003,-0.24495 q 0,-0.031 0.006,-0.14573 -0.0248,0.0372 -0.0868,0.11163 -0.0434,0.0713 -0.0713,0.10542 -0.12092,0.14882 -0.26975,0.36897 l -0.27905,0.44648 q -0.0403,0.062 -0.0899,0.14573 -0.0837,0.13642 -0.20154,0.31316 -0.11472,0.17673 -0.19223,0.34416 0.093,-0.009 0.12712,-0.009 l 0.14883,0.003 h 0.29765 l 0.41548,0.006 z"
       id="text1005"
       style="font-weight:bold;font-size:6.35px;line-height:7.45115px;font-family:Garamond;-inkscape-font-specification:'Garamond Bold';text-align:center;letter-spacing:0px;word-spacing:0px;text-anchor:middle;stroke-width:0.176"
       aria-label="24" />
  </g>
</svg>
