<?xml version="1.0" encoding="UTF-8" standalone="no"?>
<!-- Created with Inkscape (http://www.inkscape.org/) -->

<svg
   width="2.3622031in"
   height="2.0457292in"
   viewBox="0 0 59.999959 51.961521"
   version="1.1"
   id="svg1"
   inkscape:version="1.4 (86a8ad7, 2024-10-11)"
   sodipodi:docname="heptiamonds-pieces-vector-2.svg"
   xmlns:inkscape="http://www.inkscape.org/namespaces/inkscape"
   xmlns:sodipodi="http://sodipodi.sourceforge.net/DTD/sodipodi-0.dtd"
   xmlns="http://www.w3.org/2000/svg"
   xmlns:svg="http://www.w3.org/2000/svg">
  <sodipodi:namedview
     id="namedview1"
     pagecolor="#ffffff"
     bordercolor="#cccccc"
     borderopacity="1"
     inkscape:showpageshadow="0"
     inkscape:pageopacity="1"
     inkscape:pagecheckerboard="0"
     inkscape:deskcolor="#d1d1d1"
     inkscape:document-units="mm"
     showgrid="false"
     inkscape:zoom="2.1351378"
     inkscape:cx="31.145531"
     inkscape:cy="1343.7072"
     inkscape:window-width="2560"
     inkscape:window-height="1486"
     inkscape:window-x="-11"
     inkscape:window-y="-11"
     inkscape:window-maximized="1"
     inkscape:current-layer="layer5"
     showguides="false">
    <inkscape:grid
       id="grid1"
       units="mm"
       originx="-558.59499"
       originy="-261.05101"
       spacingx="1"
       spacingy="1"
       empcolor="#0099e5"
       empopacity="0.30196078"
       color="#0099e5"
       opacity="0.14901961"
       empspacing="4"
       enabled="true"
       visible="false" />
    <sodipodi:guide
       position="-319.87864,163.43664"
       orientation="1,0"
       id="guide446"
       inkscape:locked="false" />
    <sodipodi:guide
       position="-317.26175,162.77364"
       orientation="1,0"
       id="guide447"
       inkscape:locked="false" />
    <sodipodi:guide
       position="-269.88175,179.42852"
       orientation="1,0"
       id="guide448"
       inkscape:locked="false" />
    <sodipodi:guide
       position="-267.27725,179.05307"
       orientation="1,0"
       id="guide449"
       inkscape:locked="false" />
    <inkscape:page
       x="-6.8247415e-13"
       y="-4.3475599e-13"
       width="59.999954"
       height="51.961525"
       id="page2"
       margin="0"
       bleed="0" />
  </sodipodi:namedview>
  <defs
     id="defs1">
    <inkscape:path-effect
       effect="offset"
       id="path-effect2725"
       is_visible="true"
       lpeversion="1.3"
       linejoin_type="miter"
       unit="mm"
       offset="-2"
       miter_limit="4"
       attempt_force_join="false"
       update_on_knot_move="true" />
    <inkscape:path-effect
       effect="pts2ellipse"
       id="path-effect2723"
       is_visible="true"
       lpeversion="1"
       method="auto"
       gen_arc="false"
       arc_other="false"
       slice_arc="false"
       gen_isometric_frame="false"
       draw_axes="false"
       gen_perspective_frame="false"
       draw_perspective_axes="false"
       rot_axes="0"
       draw_ori_path="false" />
    <inkscape:path-effect
       effect="offset"
       id="path-effect2721"
       is_visible="true"
       lpeversion="1.3"
       linejoin_type="miter"
       unit="mm"
       offset="-2"
       miter_limit="4"
       attempt_force_join="false"
       update_on_knot_move="true" />
    <inkscape:path-effect
       effect="pts2ellipse"
       id="path-effect2719"
       is_visible="true"
       lpeversion="1"
       method="auto"
       gen_arc="false"
       arc_other="false"
       slice_arc="false"
       gen_isometric_frame="false"
       draw_axes="false"
       gen_perspective_frame="false"
       draw_perspective_axes="false"
       rot_axes="0"
       draw_ori_path="false" />
    <inkscape:path-effect
       effect="offset"
       id="path-effect2717"
       is_visible="true"
       lpeversion="1.3"
       linejoin_type="miter"
       unit="mm"
       offset="-2"
       miter_limit="4"
       attempt_force_join="false"
       update_on_knot_move="true" />
    <inkscape:path-effect
       effect="pts2ellipse"
       id="path-effect2715"
       is_visible="true"
       lpeversion="1"
       method="auto"
       gen_arc="false"
       arc_other="false"
       slice_arc="false"
       gen_isometric_frame="false"
       draw_axes="false"
       gen_perspective_frame="false"
       draw_perspective_axes="false"
       rot_axes="0"
       draw_ori_path="false" />
    <inkscape:path-effect
       effect="offset"
       id="path-effect2713"
       is_visible="true"
       lpeversion="1.3"
       linejoin_type="miter"
       unit="mm"
       offset="-2"
       miter_limit="4"
       attempt_force_join="false"
       update_on_knot_move="true" />
    <inkscape:path-effect
       effect="pts2ellipse"
       id="path-effect2711"
       is_visible="true"
       lpeversion="1"
       method="auto"
       gen_arc="false"
       arc_other="false"
       slice_arc="false"
       gen_isometric_frame="false"
       draw_axes="false"
       gen_perspective_frame="false"
       draw_perspective_axes="false"
       rot_axes="0"
       draw_ori_path="false" />
    <inkscape:path-effect
       effect="offset"
       id="path-effect2709"
       is_visible="true"
       lpeversion="1.3"
       linejoin_type="miter"
       unit="mm"
       offset="-2"
       miter_limit="4"
       attempt_force_join="false"
       update_on_knot_move="true" />
    <inkscape:path-effect
       effect="pts2ellipse"
       id="path-effect2707"
       is_visible="true"
       lpeversion="1"
       method="auto"
       gen_arc="false"
       arc_other="false"
       slice_arc="false"
       gen_isometric_frame="false"
       draw_axes="false"
       gen_perspective_frame="false"
       draw_perspective_axes="false"
       rot_axes="0"
       draw_ori_path="false" />
    <inkscape:path-effect
       effect="offset"
       id="path-effect2705"
       is_visible="true"
       lpeversion="1.3"
       linejoin_type="miter"
       unit="mm"
       offset="-2"
       miter_limit="4"
       attempt_force_join="false"
       update_on_knot_move="true" />
    <inkscape:path-effect
       effect="pts2ellipse"
       id="path-effect2703"
       is_visible="true"
       lpeversion="1"
       method="auto"
       gen_arc="false"
       arc_other="false"
       slice_arc="false"
       gen_isometric_frame="false"
       draw_axes="false"
       gen_perspective_frame="false"
       draw_perspective_axes="false"
       rot_axes="0"
       draw_ori_path="false" />
    <inkscape:path-effect
       effect="offset"
       id="path-effect1027"
       is_visible="true"
       lpeversion="1.3"
       linejoin_type="miter"
       unit="mm"
       offset="-2"
       miter_limit="4"
       attempt_force_join="false"
       update_on_knot_move="true" />
    <inkscape:path-effect
       effect="pts2ellipse"
       id="path-effect1025"
       is_visible="true"
       lpeversion="1"
       method="auto"
       gen_arc="false"
       arc_other="false"
       slice_arc="false"
       gen_isometric_frame="false"
       draw_axes="false"
       gen_perspective_frame="false"
       draw_perspective_axes="false"
       rot_axes="0"
       draw_ori_path="false" />
    <inkscape:path-effect
       effect="offset"
       id="path-effect1023"
       is_visible="true"
       lpeversion="1.3"
       linejoin_type="miter"
       unit="mm"
       offset="-1"
       miter_limit="4"
       attempt_force_join="false"
       update_on_knot_move="true" />
    <inkscape:path-effect
       effect="offset"
       id="path-effect1021"
       is_visible="true"
       lpeversion="1.3"
       linejoin_type="miter"
       unit="mm"
       offset="-1"
       miter_limit="4"
       attempt_force_join="false"
       update_on_knot_move="true" />
    <inkscape:path-effect
       effect="offset"
       id="path-effect1019"
       is_visible="true"
       lpeversion="1.3"
       linejoin_type="miter"
       unit="mm"
       offset="-1"
       miter_limit="4"
       attempt_force_join="false"
       update_on_knot_move="true" />
    <inkscape:path-effect
       effect="offset"
       id="path-effect1017"
       is_visible="true"
       lpeversion="1.3"
       linejoin_type="miter"
       unit="mm"
       offset="-1"
       miter_limit="4"
       attempt_force_join="false"
       update_on_knot_move="true" />
    <inkscape:path-effect
       effect="offset"
       id="path-effect1015"
       is_visible="true"
       lpeversion="1.3"
       linejoin_type="miter"
       unit="mm"
       offset="-1"
       miter_limit="4"
       attempt_force_join="false"
       update_on_knot_move="true" />
    <inkscape:path-effect
       effect="offset"
       id="path-effect1013"
       is_visible="true"
       lpeversion="1.3"
       linejoin_type="miter"
       unit="mm"
       offset="-1"
       miter_limit="4"
       attempt_force_join="false"
       update_on_knot_move="true" />
    <inkscape:path-effect
       effect="offset"
       id="path-effect1009"
       is_visible="true"
       lpeversion="1.3"
       linejoin_type="miter"
       unit="mm"
       offset="-1"
       miter_limit="4"
       attempt_force_join="false"
       update_on_knot_move="true" />
  </defs>
  <g
     inkscape:groupmode="layer"
     id="layer11"
     inkscape:label="Generic triangle"
     style="display:inline"
     transform="translate(-558.59499,-261.05102)">
    <path
       sodipodi:type="star"
       style="fill:#ffbdcd;stroke:none;stroke-width:0.13338;stroke-linecap:butt"
       id="path965"
       inkscape:flatsided="true"
       sodipodi:sides="3"
       sodipodi:cx="183.98627"
       sodipodi:cy="132.97198"
       sodipodi:r1="8.7508144"
       sodipodi:r2="4.3754072"
       sodipodi:arg1="-1.5707963"
       sodipodi:arg2="-0.52359878"
       inkscape:rounded="0"
       inkscape:randomized="0"
       d="m 183.98627,124.22117 7.57842,13.12622 -15.15685,0 z"
       inkscape:transform-center-y="2.8867565"
       transform="matrix(1.3195349,0,0,-1.3195349,345.81865,459.60621)"
       inkscape:transform-center-x="1.2006991e-05" />
    <path
       sodipodi:type="star"
       style="fill:#ffbdcd;stroke:none;stroke-width:0.13338;stroke-linecap:butt"
       id="path972"
       inkscape:flatsided="true"
       sodipodi:sides="3"
       sodipodi:cx="183.98627"
       sodipodi:cy="132.97198"
       sodipodi:r1="8.7508144"
       sodipodi:r2="4.3754072"
       sodipodi:arg1="-1.5707963"
       sodipodi:arg2="-0.52359878"
       inkscape:rounded="0"
       inkscape:randomized="0"
       d="m 183.98627,124.22117 7.57842,13.12622 -15.15685,0 z"
       inkscape:transform-center-y="2.8867565"
       transform="matrix(1.3195349,0,0,-1.3195349,365.81865,459.60621)"
       inkscape:transform-center-x="1.2006991e-05" />
    <path
       sodipodi:type="star"
       style="fill:#ffbdcd;stroke:none;stroke-width:0.13338;stroke-linecap:butt"
       id="path973"
       inkscape:flatsided="true"
       sodipodi:sides="3"
       sodipodi:cx="183.98627"
       sodipodi:cy="132.97198"
       sodipodi:r1="8.7508144"
       sodipodi:r2="4.3754072"
       sodipodi:arg1="-1.5707963"
       sodipodi:arg2="-0.52359878"
       inkscape:rounded="0"
       inkscape:randomized="0"
       d="m 183.98627,124.22117 7.57842,13.12622 -15.15685,0 z"
       inkscape:transform-center-y="2.8867565"
       transform="matrix(1.3195349,0,0,-1.3195349,325.81865,459.60621)"
       inkscape:transform-center-x="1.2006991e-05" />
    <path
       sodipodi:type="star"
       style="fill:#ffbdcd;stroke:none;stroke-width:0.13338;stroke-linecap:butt"
       id="path978"
       inkscape:flatsided="true"
       sodipodi:sides="3"
       sodipodi:cx="183.98627"
       sodipodi:cy="132.97198"
       sodipodi:r1="8.7508144"
       sodipodi:r2="4.3754072"
       sodipodi:arg1="-1.5707963"
       sodipodi:arg2="-0.52359878"
       inkscape:rounded="0"
       inkscape:randomized="0"
       d="m 183.98627,124.22117 7.57842,13.12622 -15.15685,0 z"
       inkscape:transform-center-y="2.8867565"
       transform="matrix(1.3195349,0,0,-1.3195349,355.81865,476.92672)"
       inkscape:transform-center-x="1.2006991e-05" />
    <path
       sodipodi:type="star"
       style="fill:#ffbdcd;stroke:none;stroke-width:0.13338;stroke-linecap:butt"
       id="path979"
       inkscape:flatsided="true"
       sodipodi:sides="3"
       sodipodi:cx="183.98627"
       sodipodi:cy="132.97198"
       sodipodi:r1="8.7508144"
       sodipodi:r2="4.3754072"
       sodipodi:arg1="-1.5707963"
       sodipodi:arg2="-0.52359878"
       inkscape:rounded="0"
       inkscape:randomized="0"
       d="m 183.98627,124.22117 7.57842,13.12622 -15.15685,0 z"
       inkscape:transform-center-y="-2.8867563"
       transform="matrix(1.3195349,0,0,1.3195349,345.81865,97.13685)"
       inkscape:transform-center-x="1.2006991e-05" />
    <path
       sodipodi:type="star"
       style="fill:#ffbdcd;stroke:none;stroke-width:0.13338;stroke-linecap:butt"
       id="path996"
       inkscape:flatsided="true"
       sodipodi:sides="3"
       sodipodi:cx="183.98627"
       sodipodi:cy="132.97198"
       sodipodi:r1="8.7508144"
       sodipodi:r2="4.3754072"
       sodipodi:arg1="-1.5707963"
       sodipodi:arg2="-0.52359878"
       inkscape:rounded="0"
       inkscape:randomized="0"
       d="m 183.98627,124.22117 7.57842,13.12622 -15.15685,0 z"
       inkscape:transform-center-y="-2.8867563"
       transform="matrix(1.3195349,0,0,1.3195349,335.81865,114.45736)"
       inkscape:transform-center-x="1.2006991e-05" />
    <path
       sodipodi:type="star"
       style="fill:#ffbdcd;stroke:none;stroke-width:0.13338;stroke-linecap:butt"
       id="path997"
       inkscape:flatsided="true"
       sodipodi:sides="3"
       sodipodi:cx="183.98627"
       sodipodi:cy="132.97198"
       sodipodi:r1="8.7508144"
       sodipodi:r2="4.3754072"
       sodipodi:arg1="-1.5707963"
       sodipodi:arg2="-0.52359878"
       inkscape:rounded="0"
       inkscape:randomized="0"
       d="m 183.98627,124.22117 7.57842,13.12622 -15.15685,0 z"
       inkscape:transform-center-y="-2.8867563"
       transform="matrix(1.3195349,0,0,1.3195349,355.81865,114.45736)"
       inkscape:transform-center-x="1.2006991e-05" />
  </g>
  <g
     inkscape:groupmode="layer"
     id="layer12"
     inkscape:label="Top generic triangle"
     style="display:inline"
     transform="translate(-558.59499,-261.05102)">
    <path
       sodipodi:type="star"
       style="fill:#c20030;stroke:none;stroke-width:0.13338;stroke-linecap:butt"
       id="path998"
       inkscape:flatsided="true"
       sodipodi:sides="3"
       sodipodi:cx="183.98627"
       sodipodi:cy="132.97198"
       sodipodi:r1="8.7508144"
       sodipodi:r2="4.3754072"
       sodipodi:arg1="-1.5707963"
       sodipodi:arg2="-0.52359878"
       inkscape:rounded="0"
       inkscape:randomized="0"
       d="m 183.98633,125.75586 6.24804,10.82422 h -12.49609 z"
       inkscape:transform-center-y="2.8867565"
       transform="matrix(1.3195349,0,0,-1.3195349,345.81865,459.60621)"
       inkscape:transform-center-x="1.2006991e-05"
       inkscape:path-effect="#path-effect1009" />
    <path
       sodipodi:type="star"
       style="fill:#c20030;stroke:none;stroke-width:0.13338;stroke-linecap:butt"
       id="path999"
       inkscape:flatsided="true"
       sodipodi:sides="3"
       sodipodi:cx="183.98627"
       sodipodi:cy="132.97198"
       sodipodi:r1="8.7508144"
       sodipodi:r2="4.3754072"
       sodipodi:arg1="-1.5707963"
       sodipodi:arg2="-0.52359878"
       inkscape:rounded="0"
       inkscape:randomized="0"
       d="m 183.98633,125.75586 6.24804,10.82422 h -12.49609 z"
       inkscape:transform-center-y="2.8867565"
       transform="matrix(1.3195349,0,0,-1.3195349,365.81865,459.60621)"
       inkscape:transform-center-x="1.2006991e-05"
       inkscape:path-effect="#path-effect1013" />
    <path
       sodipodi:type="star"
       style="fill:#c20030;stroke:none;stroke-width:0.13338;stroke-linecap:butt"
       id="path1000"
       inkscape:flatsided="true"
       sodipodi:sides="3"
       sodipodi:cx="183.98627"
       sodipodi:cy="132.97198"
       sodipodi:r1="8.7508144"
       sodipodi:r2="4.3754072"
       sodipodi:arg1="-1.5707963"
       sodipodi:arg2="-0.52359878"
       inkscape:rounded="0"
       inkscape:randomized="0"
       d="m 183.98633,125.75586 6.24804,10.82422 h -12.49609 z"
       inkscape:transform-center-y="2.8867565"
       transform="matrix(1.3195349,0,0,-1.3195349,325.81865,459.60621)"
       inkscape:transform-center-x="1.2006991e-05"
       inkscape:path-effect="#path-effect1015" />
    <path
       sodipodi:type="star"
       style="fill:#c20030;stroke:none;stroke-width:0.13338;stroke-linecap:butt"
       id="path1001"
       inkscape:flatsided="true"
       sodipodi:sides="3"
       sodipodi:cx="183.98627"
       sodipodi:cy="132.97198"
       sodipodi:r1="8.7508144"
       sodipodi:r2="4.3754072"
       sodipodi:arg1="-1.5707963"
       sodipodi:arg2="-0.52359878"
       inkscape:rounded="0"
       inkscape:randomized="0"
       d="m 183.98633,125.75586 6.24804,10.82422 h -12.49609 z"
       inkscape:transform-center-y="2.8867565"
       transform="matrix(1.3195349,0,0,-1.3195349,355.81865,476.92672)"
       inkscape:transform-center-x="1.2006991e-05"
       inkscape:path-effect="#path-effect1017" />
    <path
       sodipodi:type="star"
       style="fill:#c20030;stroke:none;stroke-width:0.13338;stroke-linecap:butt"
       id="path1002"
       inkscape:flatsided="true"
       sodipodi:sides="3"
       sodipodi:cx="183.98627"
       sodipodi:cy="132.97198"
       sodipodi:r1="8.7508144"
       sodipodi:r2="4.3754072"
       sodipodi:arg1="-1.5707963"
       sodipodi:arg2="-0.52359878"
       inkscape:rounded="0"
       inkscape:randomized="0"
       d="m 183.98633,125.75586 6.24804,10.82422 h -12.49609 z"
       inkscape:transform-center-y="-2.8867563"
       transform="matrix(1.3195349,0,0,1.3195349,345.81865,97.13685)"
       inkscape:transform-center-x="1.2006991e-05"
       inkscape:path-effect="#path-effect1019" />
    <path
       sodipodi:type="star"
       style="fill:#c20030;stroke:none;stroke-width:0.13338;stroke-linecap:butt"
       id="path1003"
       inkscape:flatsided="true"
       sodipodi:sides="3"
       sodipodi:cx="183.98627"
       sodipodi:cy="132.97198"
       sodipodi:r1="8.7508144"
       sodipodi:r2="4.3754072"
       sodipodi:arg1="-1.5707963"
       sodipodi:arg2="-0.52359878"
       inkscape:rounded="0"
       inkscape:randomized="0"
       d="m 183.98633,125.75586 6.24804,10.82422 h -12.49609 z"
       inkscape:transform-center-y="-2.8867563"
       transform="matrix(1.3195349,0,0,1.3195349,335.81865,114.45736)"
       inkscape:transform-center-x="1.2006991e-05"
       inkscape:path-effect="#path-effect1021" />
    <path
       sodipodi:type="star"
       style="fill:#c20030;stroke:none;stroke-width:0.13338;stroke-linecap:butt"
       id="path1004"
       inkscape:flatsided="true"
       sodipodi:sides="3"
       sodipodi:cx="183.98627"
       sodipodi:cy="132.97198"
       sodipodi:r1="8.7508144"
       sodipodi:r2="4.3754072"
       sodipodi:arg1="-1.5707963"
       sodipodi:arg2="-0.52359878"
       inkscape:rounded="0"
       inkscape:randomized="0"
       d="m 183.98633,125.75586 6.24804,10.82422 h -12.49609 z"
       inkscape:transform-center-y="-2.8867563"
       transform="matrix(1.3195349,0,0,1.3195349,355.81865,114.45736)"
       inkscape:transform-center-x="1.2006991e-05"
       inkscape:path-effect="#path-effect1023" />
  </g>
  <g
     inkscape:groupmode="layer"
     id="layer13"
     inkscape:label="Circle"
     style="display:inline"
     transform="translate(-558.59499,-261.05102)">
    <path
       style="fill:#ffbdcd;stroke:none;stroke-width:0.176;stroke-linecap:butt"
       d="m 179.26758,116.01563 c 2.10236,0 3.76367,1.66131 3.76367,3.76367 0,2.10235 -1.66131,3.76367 -3.76367,3.76367 -2.10236,0 -3.76367,-1.66132 -3.76367,-3.76367 0,-2.10236 1.66131,-3.76368 3.76367,-3.76367 z"
       id="path1005"
       inkscape:path-effect="#path-effect1025;#path-effect1027"
       inkscape:original-d="m 179.2676,114.00575 v 11.547"
       transform="translate(409.32739,164.36569)" />
  </g>
  <g
     inkscape:groupmode="layer"
     id="layer15"
     inkscape:label="Semi-opaque circle"
     style="display:inline"
     transform="translate(-558.59499,-261.05102)">
    <path
       style="display:inline;opacity:0.25;fill:#ffffff;stroke:none;stroke-width:0.176;stroke-linecap:butt"
       d="m 179.26758,116.01563 c 2.10236,0 3.76367,1.66131 3.76367,3.76367 0,2.10235 -1.66131,3.76367 -3.76367,3.76367 -2.10236,0 -3.76367,-1.66132 -3.76367,-3.76367 0,-2.10236 1.66131,-3.76368 3.76367,-3.76367 z"
       id="path2691"
       inkscape:path-effect="#path-effect2703;#path-effect2705"
       inkscape:original-d="m 179.2676,114.00575 v 11.547"
       transform="translate(389.32739,164.36569)" />
    <path
       style="display:inline;opacity:0.25;fill:#ffffff;stroke:none;stroke-width:0.176;stroke-linecap:butt"
       d="m 179.26758,116.01563 c 2.10236,0 3.76367,1.66131 3.76367,3.76367 0,2.10235 -1.66131,3.76367 -3.76367,3.76367 -2.10236,0 -3.76367,-1.66132 -3.76367,-3.76367 0,-2.10236 1.66131,-3.76368 3.76367,-3.76367 z"
       id="path2692"
       inkscape:path-effect="#path-effect2707;#path-effect2709"
       inkscape:original-d="m 179.2676,114.00575 v 11.547"
       transform="translate(419.3274,181.68621)" />
    <path
       style="display:inline;opacity:0.25;fill:#ffffff;stroke:none;stroke-width:0.176;stroke-linecap:butt"
       d="m 179.26758,116.01563 c 2.10236,0 3.76367,1.66131 3.76367,3.76367 0,2.10235 -1.66131,3.76367 -3.76367,3.76367 -2.10236,0 -3.76367,-1.66132 -3.76367,-3.76367 0,-2.10236 1.66131,-3.76368 3.76367,-3.76367 z"
       id="path2693"
       inkscape:path-effect="#path-effect2711;#path-effect2713"
       inkscape:original-d="m 179.2676,114.00575 v 11.547"
       transform="matrix(1,0,0,-1,409.32739,392.37737)" />
    <path
       style="display:inline;opacity:0.25;fill:#ffffff;stroke:none;stroke-width:0.176;stroke-linecap:butt"
       d="m 179.26758,116.01563 c 2.10236,0 3.76367,1.66131 3.76367,3.76367 0,2.10235 -1.66131,3.76367 -3.76367,3.76367 -2.10236,0 -3.76367,-1.66132 -3.76367,-3.76367 0,-2.10236 1.66131,-3.76368 3.76367,-3.76367 z"
       id="path2694"
       inkscape:path-effect="#path-effect2715;#path-effect2717"
       inkscape:original-d="m 179.2676,114.00575 v 11.547"
       transform="matrix(1,0,0,-1,419.32739,409.69789)" />
    <path
       style="display:inline;opacity:0.25;fill:#ffffff;stroke:none;stroke-width:0.176;stroke-linecap:butt"
       d="m 179.26758,116.01563 c 2.10236,0 3.76367,1.66131 3.76367,3.76367 0,2.10235 -1.66131,3.76367 -3.76367,3.76367 -2.10236,0 -3.76367,-1.66132 -3.76367,-3.76367 0,-2.10236 1.66131,-3.76368 3.76367,-3.76367 z"
       id="path2695"
       inkscape:path-effect="#path-effect2719;#path-effect2721"
       inkscape:original-d="m 179.2676,114.00575 v 11.547"
       transform="translate(429.3274,164.3657)" />
    <path
       style="display:inline;opacity:0.25;fill:#ffffff;stroke:none;stroke-width:0.176;stroke-linecap:butt"
       d="m 179.26758,116.01563 c 2.10236,0 3.76367,1.66131 3.76367,3.76367 0,2.10235 -1.66131,3.76367 -3.76367,3.76367 -2.10236,0 -3.76367,-1.66132 -3.76367,-3.76367 0,-2.10236 1.66131,-3.76368 3.76367,-3.76367 z"
       id="path2696"
       inkscape:path-effect="#path-effect2723;#path-effect2725"
       inkscape:original-d="m 179.2676,114.00575 v 11.547"
       transform="matrix(1,0,0,-1,399.32739,409.69789)" />
  </g>
  <g
     inkscape:groupmode="layer"
     id="layer14"
     inkscape:label="Piece label"
     style="display:inline"
     transform="translate(-558.59499,-261.05102)">
    <path
       d="m 588.33451,286.14479 h -0.32246 q -0.11472,0 -0.17984,-0.003 -0.10231,-0.003 -0.12402,-0.003 l -0.21084,0.009 -0.0558,-0.006 q -0.0744,-0.009 -0.18293,-0.009 -0.10232,0 -0.35037,0.009 -0.11782,0.003 -0.14263,0.003 l -0.31316,-0.006 -0.50229,0.006 h -0.19844 v -0.21084 q 0.44028,-0.5581 0.66043,-0.77824 0.22324,-0.22325 0.63252,-0.73794 0.28525,-0.35347 0.39067,-0.63252 0.10852,-0.27905 0.10852,-0.48369 0,-0.22945 -0.0682,-0.41238 -0.0651,-0.18294 -0.23565,-0.28836 -0.16743,-0.10542 -0.36587,-0.10542 -0.20153,0 -0.36277,0.0992 -0.16123,0.0992 -0.23564,0.25115 -0.11472,0.22014 -0.13953,0.45889 h -0.22634 q -0.009,-0.13333 -0.009,-0.22325 0,-0.30075 0.23254,-0.5767 0.35967,-0.42788 1.01389,-0.42788 0.54571,0 0.85887,0.31005 0.31316,0.30696 0.31316,0.77515 0,0.18604 -0.0589,0.35037 -0.0837,0.22324 -0.20464,0.38757 -0.11783,0.16433 -0.65423,0.70073 -0.38757,0.38758 -0.97048,0.91778 l 0.34416,0.006 0.56431,-0.0124 0.32866,0.006 q 0.26045,0 0.34417,-0.0558 0.0868,-0.0558 0.15813,-0.26354 0.0155,-0.0496 0.0558,-0.14883 l 0.20464,-0.0124 0.0403,0.0124 q 0.0155,0.0248 0.0155,0.0465 0,0.0496 -0.0155,0.12402 -0.0155,0.0744 -0.0372,0.24495 -0.0186,0.17053 -0.0992,0.67902 z m 3.10369,-1.48828 v 0.5209 q -0.16744,0.009 -0.26355,0.009 -0.0899,0 -0.22945,-0.009 -0.009,0.0744 -0.009,0.0899 l 0.006,0.18603 -0.003,0.19844 0.006,0.13643 q 0,0.0372 -0.009,0.18603 -0.006,0.0837 -0.009,0.25115 l -0.26665,-0.003 h -0.16433 q -0.0651,0 -0.0992,-0.003 l -0.0527,-0.006 q -0.0217,0 -0.0682,0.0124 l 0.006,-0.60151 -0.0124,-0.38758 q 0,-0.0155 0.006,-0.0589 -0.14883,0.003 -0.44339,0.006 h -0.20464 q -0.26355,0 -0.58601,-0.009 -0.10232,-0.003 -0.13332,-0.003 -0.0465,0 -0.14263,0.006 l -0.006,-0.0403 0.009,-0.21394 -0.006,-0.0682 0.009,-0.12712 -0.006,-0.0248 q 0.14573,-0.27595 0.18604,-0.33486 l 0.71003,-1.09141 q 0.23875,-0.35347 0.37827,-0.5364 0.14263,-0.18603 0.19844,-0.27595 0.0868,-0.13953 0.15193,-0.22014 0.0961,-0.12093 0.12402,-0.17054 0.18294,-0.009 0.22944,-0.009 0.0589,0 0.22015,0.009 l 0.006,0.0372 -0.0124,0.22944 0.006,0.0806 -0.009,0.12712 0.006,0.12713 -0.006,0.30696 -0.003,0.13332 0.003,0.17363 -0.003,0.16123 0.003,0.22015 -0.003,0.21084 0.003,0.24494 -0.009,0.5302 q 0.10852,0 0.26975,0.006 h 0.0744 q 0.0496,0 0.14883,-0.006 z m -1.16272,-0.006 q 0.0186,-0.15503 0.0186,-0.23254 0,-0.031 -0.006,-0.11472 -0.003,-0.0868 -0.003,-0.11163 l 0.009,-0.24184 -0.006,-0.20774 0.009,-0.5364 -0.003,-0.24495 q 0,-0.031 0.006,-0.14573 -0.0248,0.0372 -0.0868,0.11163 -0.0434,0.0713 -0.0713,0.10542 -0.12092,0.14882 -0.26975,0.36897 l -0.27905,0.44648 q -0.0403,0.062 -0.0899,0.14573 -0.0837,0.13642 -0.20154,0.31316 -0.11472,0.17673 -0.19223,0.34416 0.093,-0.009 0.12712,-0.009 l 0.14883,0.003 h 0.29765 l 0.41548,0.006 z"
       id="text1005"
       style="font-weight:bold;font-size:6.35px;line-height:7.45115px;font-family:Garamond;-inkscape-font-specification:'Garamond Bold';text-align:center;letter-spacing:0px;word-spacing:0px;text-anchor:middle;stroke-width:0.176"
       aria-label="24" />
  </g>
</svg>
