<?xml version="1.0" encoding="UTF-8" standalone="no"?>
<!-- Created with Inkscape (http://www.inkscape.org/) -->

<svg
   width="2.3622031in"
   height="2.0457301in"
   viewBox="0 0 59.999959 51.961545"
   version="1.1"
   id="svg1"
   xmlns="http://www.w3.org/2000/svg"
   xmlns:svg="http://www.w3.org/2000/svg">
  <defs
     id="defs1" />
  <g
     id="layer11"
     style="display:inline"
     transform="translate(-555.63967,-260.2686)">
    <path
       style="fill:#ffbdcd;stroke:none;stroke-width:0.13338;stroke-linecap:butt"
       id="path1017"
       d="m 183.98627,124.22117 7.57842,13.12622 -15.15685,0 z"
       transform="matrix(-1.3195349,0,0,-1.3195349,828.41595,458.82379)" />
    <path
       style="fill:#ffbdcd;stroke:none;stroke-width:0.13338;stroke-linecap:butt"
       id="path910"
       d="m 183.98627,124.22117 7.57842,13.12622 -15.15685,0 z"
       transform="matrix(-1.3195349,0,0,-1.3195349,808.41595,458.82379)" />
    <path
       style="fill:#ffbdcd;stroke:none;stroke-width:0.13338;stroke-linecap:butt"
       id="path934"
       d="m 183.98627,124.22117 7.57842,13.12622 -15.15685,0 z"
       transform="matrix(-1.3195349,0,0,-1.3195349,848.41595,458.82379)" />
    <path
       style="fill:#ffbdcd;stroke:none;stroke-width:0.13338;stroke-linecap:butt"
       id="path937"
       d="m 183.98627,124.22117 7.57842,13.12622 -15.15685,0 z"
       transform="matrix(-1.3195349,0,0,-1.3195349,818.41595,476.1443)" />
    <path
       style="fill:#ffbdcd;stroke:none;stroke-width:0.13338;stroke-linecap:butt"
       id="path947"
       d="m 183.98627,124.22117 7.57842,13.12622 -15.15685,0 z"
       transform="matrix(-1.3195349,0,0,1.3195349,828.41595,96.354428)" />
    <path
       style="fill:#ffbdcd;stroke:none;stroke-width:0.13338;stroke-linecap:butt"
       id="path948"
       d="m 183.98627,124.22117 7.57842,13.12622 -15.15685,0 z"
       transform="matrix(-1.3195349,0,0,1.3195349,838.41595,113.67494)" />
    <path
       style="fill:#ffbdcd;stroke:none;stroke-width:0.13338;stroke-linecap:butt"
       id="path949"
       d="m 183.98627,124.22117 7.57842,13.12622 -15.15685,0 z"
       transform="matrix(-1.3195349,0,0,1.3195349,818.41595,113.67494)" />
  </g>
  <g
     id="layer12"
     style="display:inline"
     transform="translate(-555.63967,-260.2686)">
    <path
       style="fill:#c20030;stroke:none;stroke-width:0.13338;stroke-linecap:butt"
       id="path1023"
       d="m 183.98633,125.75586 6.24804,10.82422 h -12.49609 z"
       transform="matrix(-1.3195349,0,0,-1.3195349,828.41595,458.82379)" />
    <path
       style="fill:#c20030;stroke:none;stroke-width:0.13338;stroke-linecap:butt"
       id="path911"
       d="m 183.98633,125.75586 6.24804,10.82422 h -12.49609 z"
       transform="matrix(-1.3195349,0,0,-1.3195349,808.41595,458.82379)" />
    <path
       style="fill:#c20030;stroke:none;stroke-width:0.13338;stroke-linecap:butt"
       id="path935"
       d="m 183.98633,125.75586 6.24804,10.82422 h -12.49609 z"
       transform="matrix(-1.3195349,0,0,-1.3195349,848.41595,458.82379)" />
    <path
       style="fill:#c20030;stroke:none;stroke-width:0.13338;stroke-linecap:butt"
       id="path939"
       d="m 183.98633,125.75586 6.24804,10.82422 h -12.49609 z"
       transform="matrix(-1.3195349,0,0,-1.3195349,818.41595,476.1443)" />
    <path
       style="fill:#c20030;stroke:none;stroke-width:0.13338;stroke-linecap:butt"
       id="path954"
       d="m 183.98633,125.75586 6.24804,10.82422 h -12.49609 z"
       transform="matrix(-1.3195349,0,0,1.3195349,828.41595,96.354428)" />
    <path
       style="fill:#c20030;stroke:none;stroke-width:0.13338;stroke-linecap:butt"
       id="path955"
       d="m 183.98633,125.75586 6.24804,10.82422 h -12.49609 z"
       transform="matrix(-1.3195349,0,0,1.3195349,838.41595,113.67494)" />
    <path
       style="fill:#c20030;stroke:none;stroke-width:0.13338;stroke-linecap:butt"
       id="path956"
       d="m 183.98633,125.75586 6.24804,10.82422 h -12.49609 z"
       transform="matrix(-1.3195349,0,0,1.3195349,818.41595,113.67494)" />
  </g>
  <g
     id="layer13"
     style="display:inline"
     transform="translate(-555.63967,-260.2686)">
    <path
       style="fill:#ffbdcd;stroke:none;stroke-width:0.176;stroke-linecap:butt"
       d="m 179.26758,116.01563 c 2.10236,0 3.76367,1.66131 3.76367,3.76367 0,2.10235 -1.66131,3.76367 -3.76367,3.76367 -2.10236,0 -3.76367,-1.66132 -3.76367,-3.76367 0,-2.10236 1.66131,-3.76368 3.76367,-3.76367 z"
       id="path1029"
       transform="translate(406.37205,163.58327)" />
  </g>
  <g
     id="layer14"
     style="display:inline"
     transform="translate(-555.63967,-260.2686)">
    <path
       d="m 585.37913,285.36238 h -0.32246 q -0.11472,0 -0.17983,-0.003 -0.10232,-0.003 -0.12403,-0.003 l -0.21084,0.009 -0.0558,-0.006 q -0.0744,-0.009 -0.18293,-0.009 -0.10232,0 -0.35037,0.009 -0.11782,0.003 -0.14263,0.003 l -0.31316,-0.006 -0.50229,0.006 h -0.19844 v -0.21084 q 0.44029,-0.55811 0.66043,-0.77825 0.22324,-0.22324 0.63252,-0.73794 0.28525,-0.35346 0.39067,-0.63252 0.10852,-0.27905 0.10852,-0.48369 0,-0.22944 -0.0682,-0.41238 -0.0651,-0.18293 -0.23565,-0.28835 -0.16743,-0.10542 -0.36587,-0.10542 -0.20153,0 -0.36276,0.0992 -0.16123,0.0992 -0.23565,0.25115 -0.11472,0.22014 -0.13953,0.45888 h -0.22634 q -0.009,-0.13332 -0.009,-0.22324 0,-0.30076 0.23254,-0.57671 0.35967,-0.42788 1.0139,-0.42788 0.5457,0 0.85886,0.31006 0.31316,0.30696 0.31316,0.77515 0,0.18603 -0.0589,0.35036 -0.0837,0.22324 -0.20464,0.38757 -0.11783,0.16434 -0.65423,0.70074 -0.38757,0.38757 -0.97048,0.91777 l 0.34417,0.006 0.5643,-0.0124 0.32866,0.006 q 0.26045,0 0.34417,-0.0558 0.0868,-0.0558 0.15813,-0.26355 0.0155,-0.0496 0.0558,-0.14883 l 0.20464,-0.0124 0.0403,0.0124 q 0.0155,0.0248 0.0155,0.0465 0,0.0496 -0.0155,0.12402 -0.0155,0.0744 -0.0372,0.24495 -0.0186,0.17053 -0.0992,0.67903 z m 3.10369,-1.48828 v 0.5209 q -0.16744,0.009 -0.26355,0.009 -0.0899,0 -0.22945,-0.009 -0.009,0.0744 -0.009,0.0899 l 0.006,0.18604 -0.003,0.19844 0.006,0.13642 q 0,0.0372 -0.009,0.18604 -0.006,0.0837 -0.009,0.25114 l -0.26665,-0.003 h -0.16433 q -0.0651,0 -0.0992,-0.003 l -0.0527,-0.006 q -0.0217,0 -0.0682,0.0124 l 0.006,-0.60151 -0.0124,-0.38757 q 0,-0.0155 0.006,-0.0589 -0.14883,0.003 -0.44339,0.006 h -0.20464 q -0.26355,0 -0.58601,-0.009 -0.10232,-0.003 -0.13332,-0.003 -0.0465,0 -0.14263,0.006 l -0.006,-0.0403 0.009,-0.21394 -0.006,-0.0682 0.009,-0.12713 -0.006,-0.0248 q 0.14573,-0.27596 0.18604,-0.33487 l 0.71003,-1.0914 q 0.23875,-0.35347 0.37827,-0.5364 0.14263,-0.18604 0.19844,-0.27596 0.0868,-0.13952 0.15193,-0.22014 0.0961,-0.12092 0.12402,-0.17053 0.18294,-0.009 0.22945,-0.009 0.0589,0 0.22014,0.009 l 0.006,0.0372 -0.0124,0.22944 0.006,0.0806 -0.009,0.12712 0.006,0.12712 -0.006,0.30696 -0.003,0.13333 0.003,0.17363 -0.003,0.16123 0.003,0.22014 -0.003,0.21084 0.003,0.24495 -0.009,0.5302 q 0.10852,0 0.26975,0.006 h 0.0744 q 0.0496,0 0.14883,-0.006 z m -1.16272,-0.006 q 0.0186,-0.15503 0.0186,-0.23255 0,-0.031 -0.006,-0.11472 -0.003,-0.0868 -0.003,-0.11162 l 0.009,-0.24185 -0.006,-0.20774 0.009,-0.5364 -0.003,-0.24494 q 0,-0.031 0.006,-0.14573 -0.0248,0.0372 -0.0868,0.11162 -0.0434,0.0713 -0.0713,0.10542 -0.12092,0.14883 -0.26975,0.36897 l -0.27905,0.44648 q -0.0403,0.062 -0.0899,0.14573 -0.0837,0.13643 -0.20154,0.31316 -0.11472,0.17673 -0.19223,0.34417 0.093,-0.009 0.12712,-0.009 l 0.14883,0.003 h 0.29765 l 0.41548,0.006 z"
       id="text1034"
       style="font-weight:bold;font-size:6.35px;line-height:7.45115px;font-family:Garamond;-inkscape-font-specification:'Garamond Bold';text-align:center;letter-spacing:0px;word-spacing:0px;text-anchor:middle;stroke-width:0.176"
       aria-label="24" />
  </g>
</svg>
