<?xml version='1.0' encoding='UTF-8'?>
<!-- Created with Inkscape (http://www.inkscape.org/) and export_objects.py -->
<svg xmlns:cc="http://creativecommons.org/ns#" xmlns:dc="http://purl.org/dc/elements/1.1/" xmlns:inkscape="http://www.inkscape.org/namespaces/inkscape" xmlns:rdf="http://www.w3.org/1999/02/22-rdf-syntax-ns#" xmlns:sodipodi="http://sodipodi.sourceforge.net/DTD/sodipodi-0.dtd" xmlns:xlink="http://www.w3.org/1999/xlink" xmlns="http://www.w3.org/2000/svg" version="1.1" sodipodi:docname="blue-02.svg" inkscape:version="0.92.3 (2405546, 2018-03-11)" id="svg8" viewBox="0 0 19.0499989417 19.0499989417" height="53.999997pt" width="53.999997pt"><sodipodi:namedview inkscape:bbox-nodes="true" inkscape:snap-bbox="false" inkscape:lockguides="true" inkscape:snap-to-guides="true" inkscape:measure-end="-194.588,381.008" inkscape:measure-start="-144.62,344.012" inkscape:snap-nodes="false" inkscape:guide-bbox="true" showguides="true" inkscape:snap-text-baseline="true" inkscape:snap-midpoints="false" inkscape:object-paths="false" inkscape:snap-others="true" inkscape:object-nodes="true" inkscape:snap-intersection-paths="false" inkscape:snap-grids="true" inkscape:window-maximized="1" inkscape:window-y="43" inkscape:window-x="1909" inkscape:window-height="940" inkscape:window-width="1280" inkscape:snap-smooth-nodes="false" inkscape:snap-center="true" inkscape:snap-object-midpoints="true" units="pt" showgrid="true" inkscape:current-layer="layer3" inkscape:document-units="pt" inkscape:cy="540.00004" inkscape:cx="2787.866" inkscape:zoom="0.30373833" inkscape:pageshadow="2" inkscape:pageopacity="0.0" borderopacity="1.0" bordercolor="#666666" pagecolor="#ffffff" id="base">
    <inkscape:grid originy="0" originx="0" spacingy="1.5875" spacingx="1.5875" units="pt" id="grid10" type="xygrid" visible="true"/>
  </sodipodi:namedview>
  <metadata id="metadata5">
    <rdf:RDF>
      <cc:Work rdf:about="">
        <dc:format>image/svg+xml</dc:format>
        <dc:type rdf:resource="http://purl.org/dc/dcmitype/StillImage"/>
        <dc:title/>
      </cc:Work>
    </rdf:RDF>
  </metadata>
  <g inkscape:groupmode="layer" inkscape:label="blue-" transform="matrix(1.000000,0.000000,0.000000,1.000000,-76.200003,-76.200003)"><g id="g10708" inkscape:label="02">
      <rect y="76.200005" x="76.200005" height="19.049999" width="19.049999" id="rect2790" style="opacity:1;fill:#ffffff;fill-opacity:1;stroke:none;stroke-width:0.70555556;stroke-linecap:butt;stroke-linejoin:miter;stroke-miterlimit:47.14606857;stroke-dasharray:none;stroke-dashoffset:0;stroke-opacity:1;paint-order:markers fill stroke"/>
      <path inkscape:connector-curvature="0" id="path3128" d="m 20.637487,88.106247 a 3.9687495,3.9687495 0 0 0 -3.96875,3.96875 3.9687495,3.9687495 0 0 0 3.96875,3.968746 3.9687495,3.9687495 0 0 0 3.96875,-3.968746 3.9687495,3.9687495 0 0 0 -3.96875,-3.96875 z m -0.881944,1.32292 h 1.763889 v 1.76389 h 1.763888 v 1.76388 h -1.763888 v 1.76389 h -1.763889 v -1.76389 h -1.763889 v -1.76388 h 1.763889 z" style="display:inline;opacity:1;fill:#01298a;fill-opacity:1;stroke:none;stroke-width:0.1763889;stroke-linecap:butt;stroke-linejoin:miter;stroke-miterlimit:4;stroke-dasharray:none;stroke-dashoffset:0;stroke-opacity:1;paint-order:fill markers stroke" transform="translate(69.850014,-6.3499932)"/>
      <g id="text2852" style="font-style:normal;font-variant:normal;font-weight:normal;font-stretch:normal;font-size:12.70000076px;line-height:100%;font-family:'Stint Ultra Condensed';-inkscape-font-specification:'Stint Ultra Condensed, ';font-variant-ligatures:normal;font-variant-caps:normal;font-variant-numeric:normal;text-align:center;letter-spacing:0px;word-spacing:0px;writing-mode:lr-tb;text-anchor:middle;display:inline;fill:#01298a;fill-opacity:1;stroke:none;stroke-width:0.26458335" aria-label="2">
        <path id="path10351" style="font-style:normal;font-variant:normal;font-weight:normal;font-stretch:normal;font-size:14.11111164px;font-family:'Stint Ultra Condensed';-inkscape-font-specification:'Stint Ultra Condensed, ';text-align:center;text-anchor:middle;fill:#01298a;fill-opacity:1;stroke-width:0.26458335" d="m 79.813215,90.487503 v -0.578776 q 0.620117,-0.875054 1.10932,-1.674316 0.496094,-0.806153 0.840604,-1.591635 0.344509,-0.785481 0.523654,-1.591634 0.186035,-0.806152 0.186035,-1.688097 0,-0.344509 -0.04823,-0.661458 -0.04134,-0.316949 -0.137804,-0.558106 -0.09646,-0.248046 -0.261827,-0.39274 -0.165365,-0.151585 -0.399631,-0.151585 -0.434082,0 -0.654568,0.606337 -0.220486,0.606337 -0.220486,1.915473 h -0.875055 q 0,-0.895725 0.144694,-1.515842 0.144694,-0.627007 0.378961,-1.012858 0.241156,-0.392741 0.551215,-0.564996 0.316949,-0.179144 0.647678,-0.179144 0.427192,0 0.751031,0.192925 0.323839,0.192925 0.544325,0.537435 0.220486,0.344509 0.330729,0.819933 0.117133,0.475423 0.117133,1.033528 0,1.322917 -0.613227,2.893881 -0.606336,1.564073 -1.853461,3.369303 h 1.832791 v -1.887912 h 0.751031 v 2.680284 z"/>
      </g>
    </g>
    </g></svg>
