<?xml version='1.0' encoding='UTF-8'?>
<!-- Created with Inkscape (http://www.inkscape.org/) and export_objects.py -->
<svg xmlns:cc="http://creativecommons.org/ns#" xmlns:dc="http://purl.org/dc/elements/1.1/" xmlns:inkscape="http://www.inkscape.org/namespaces/inkscape" xmlns:rdf="http://www.w3.org/1999/02/22-rdf-syntax-ns#" xmlns:sodipodi="http://sodipodi.sourceforge.net/DTD/sodipodi-0.dtd" xmlns:xlink="http://www.w3.org/1999/xlink" xmlns="http://www.w3.org/2000/svg" version="1.1" sodipodi:docname="blue-13.svg" inkscape:version="0.92.3 (2405546, 2018-03-11)" id="svg8" viewBox="0 0 19.0499989417 19.0499989417" height="53.999997pt" width="53.999997pt"><sodipodi:namedview inkscape:bbox-nodes="true" inkscape:snap-bbox="false" inkscape:lockguides="true" inkscape:snap-to-guides="true" inkscape:measure-end="-194.588,381.008" inkscape:measure-start="-144.62,344.012" inkscape:snap-nodes="false" inkscape:guide-bbox="true" showguides="true" inkscape:snap-text-baseline="true" inkscape:snap-midpoints="false" inkscape:object-paths="false" inkscape:snap-others="true" inkscape:object-nodes="true" inkscape:snap-intersection-paths="false" inkscape:snap-grids="true" inkscape:window-maximized="1" inkscape:window-y="43" inkscape:window-x="1909" inkscape:window-height="940" inkscape:window-width="1280" inkscape:snap-smooth-nodes="false" inkscape:snap-center="true" inkscape:snap-object-midpoints="true" units="pt" showgrid="true" inkscape:current-layer="layer3" inkscape:document-units="pt" inkscape:cy="540.00004" inkscape:cx="2787.866" inkscape:zoom="0.30373833" inkscape:pageshadow="2" inkscape:pageopacity="0.0" borderopacity="1.0" bordercolor="#666666" pagecolor="#ffffff" id="base">
    <inkscape:grid originy="0" originx="0" spacingy="1.5875" spacingx="1.5875" units="pt" id="grid10" type="xygrid" visible="true"/>
  </sodipodi:namedview>
  <metadata id="metadata5">
    <rdf:RDF>
      <cc:Work rdf:about="">
        <dc:format>image/svg+xml</dc:format>
        <dc:type rdf:resource="http://purl.org/dc/dcmitype/StillImage"/>
        <dc:title/>
      </cc:Work>
    </rdf:RDF>
  </metadata>
  <g inkscape:groupmode="layer" inkscape:label="blue-" transform="matrix(1.000000,0.000000,0.000000,1.000000,-355.600000,-76.200003)"><g id="g11212" inkscape:label="13">
      <rect y="76.200005" x="355.60001" height="19.049999" width="19.049999" id="rect2812" style="opacity:1;fill:#ffffff;fill-opacity:1;stroke:none;stroke-width:0.70555556;stroke-linecap:butt;stroke-linejoin:miter;stroke-miterlimit:47.14606857;stroke-dasharray:none;stroke-dashoffset:0;stroke-opacity:1;paint-order:markers fill stroke"/>
      <path inkscape:connector-curvature="0" id="path3194" d="m 300.03749,88.106247 a 3.9687495,3.9687495 0 0 0 -3.96875,3.96875 3.9687495,3.9687495 0 0 0 3.96875,3.968746 3.9687495,3.9687495 0 0 0 3.96875,-3.968746 3.9687495,3.9687495 0 0 0 -3.96875,-3.96875 z m -0.88194,1.32292 h 1.76388 v 1.76389 h 1.76389 v 1.76388 h -1.76389 v 1.76389 h -1.76388 v -1.76389 h -1.76389 v -1.76388 h 1.76389 z" style="display:inline;opacity:1;fill:#01298a;fill-opacity:1;stroke:none;stroke-width:0.1763889;stroke-linecap:butt;stroke-linejoin:miter;stroke-miterlimit:4;stroke-dasharray:none;stroke-dashoffset:0;stroke-opacity:1;paint-order:fill markers stroke" transform="translate(69.850014,-6.3499932)"/>
      <g id="text2896" style="font-style:normal;font-variant:normal;font-weight:normal;font-stretch:normal;font-size:12.70000076px;line-height:100%;font-family:'Stint Ultra Condensed';-inkscape-font-specification:'Stint Ultra Condensed, ';font-variant-ligatures:normal;font-variant-caps:normal;font-variant-numeric:normal;text-align:center;letter-spacing:0px;word-spacing:0px;writing-mode:lr-tb;text-anchor:middle;display:inline;fill:#01298a;fill-opacity:1;stroke:none;stroke-width:0.26458335" aria-label="13">
        <path id="path10310" style="font-style:normal;font-variant:normal;font-weight:normal;font-stretch:normal;font-size:14.11111164px;font-family:'Stint Ultra Condensed';-inkscape-font-specification:'Stint Ultra Condensed, ';text-align:center;text-anchor:middle;fill:#01298a;fill-opacity:1;stroke-width:0.26458335" d="m 357.81451,89.708919 h 0.91639 v -7.93061 l -1.12999,0.70969 v -0.764812 l 1.12999,-0.702799 h 0.8475 v 8.688531 h 0.91639 v 0.778592 h -2.68028 z"/>
        <path id="path10312" style="font-style:normal;font-variant:normal;font-weight:normal;font-stretch:normal;font-size:14.11111164px;font-family:'Stint Ultra Condensed';-inkscape-font-specification:'Stint Ultra Condensed, ';text-align:center;text-anchor:middle;fill:#01298a;fill-opacity:1;stroke-width:0.26458335" d="m 362.83746,84.603287 q 0.55121,0.137804 0.87505,0.475424 0.33073,0.330729 0.49609,0.757921 0.17226,0.420301 0.22049,0.881944 0.0551,0.454753 0.0551,0.833713 0,0.744141 -0.13091,1.329807 -0.13091,0.578776 -0.37896,0.978407 -0.24805,0.399631 -0.59945,0.606337 -0.34451,0.206706 -0.77859,0.206706 -0.36518,0 -0.68902,-0.179145 -0.31695,-0.172255 -0.5581,-0.564996 -0.24116,-0.392741 -0.37897,-1.012858 -0.1378,-0.627007 -0.1378,-1.522732 h 0.84749 q 0,1.316026 0.23427,1.922363 0.23427,0.606337 0.72347,0.606337 0.26872,0 0.45475,-0.186035 0.18604,-0.192926 0.29628,-0.516765 0.11714,-0.323838 0.16537,-0.75103 0.0551,-0.427192 0.0551,-0.902615 0,-0.516765 -0.0827,-0.937066 -0.0827,-0.427192 -0.26872,-0.730361 -0.17915,-0.303168 -0.47542,-0.468533 -0.29628,-0.172254 -0.72348,-0.179145 v -0.74414 l 1.41249,-2.700955 h -1.70876 v 1.488281 h -0.75103 v -2.273763 h 3.43131 v 0.592556 z"/>
      </g>
    </g>
    </g></svg>
