<?xml version='1.0' encoding='UTF-8'?>
<!-- Created with Inkscape (http://www.inkscape.org/) and export_objects.py -->
<svg xmlns:cc="http://creativecommons.org/ns#" xmlns:dc="http://purl.org/dc/elements/1.1/" xmlns:inkscape="http://www.inkscape.org/namespaces/inkscape" xmlns:rdf="http://www.w3.org/1999/02/22-rdf-syntax-ns#" xmlns:sodipodi="http://sodipodi.sourceforge.net/DTD/sodipodi-0.dtd" xmlns:xlink="http://www.w3.org/1999/xlink" xmlns="http://www.w3.org/2000/svg" version="1.1" sodipodi:docname="blue-25.svg" inkscape:version="0.92.3 (2405546, 2018-03-11)" id="svg8" viewBox="0 0 19.0499989417 19.0499989417" height="53.999997pt" width="53.999997pt"><sodipodi:namedview inkscape:bbox-nodes="true" inkscape:snap-bbox="false" inkscape:lockguides="true" inkscape:snap-to-guides="true" inkscape:measure-end="-194.588,381.008" inkscape:measure-start="-144.62,344.012" inkscape:snap-nodes="false" inkscape:guide-bbox="true" showguides="true" inkscape:snap-text-baseline="true" inkscape:snap-midpoints="false" inkscape:object-paths="false" inkscape:snap-others="true" inkscape:object-nodes="true" inkscape:snap-intersection-paths="false" inkscape:snap-grids="true" inkscape:window-maximized="1" inkscape:window-y="43" inkscape:window-x="1909" inkscape:window-height="940" inkscape:window-width="1280" inkscape:snap-smooth-nodes="false" inkscape:snap-center="true" inkscape:snap-object-midpoints="true" units="pt" showgrid="true" inkscape:current-layer="layer3" inkscape:document-units="pt" inkscape:cy="540.00004" inkscape:cx="2787.866" inkscape:zoom="0.30373833" inkscape:pageshadow="2" inkscape:pageopacity="0.0" borderopacity="1.0" bordercolor="#666666" pagecolor="#ffffff" id="base">
    <inkscape:grid originy="0" originx="0" spacingy="1.5875" spacingx="1.5875" units="pt" id="grid10" type="xygrid" visible="true"/>
  </sodipodi:namedview>
  <metadata id="metadata5">
    <rdf:RDF>
      <cc:Work rdf:about="">
        <dc:format>image/svg+xml</dc:format>
        <dc:type rdf:resource="http://purl.org/dc/dcmitype/StillImage"/>
        <dc:title/>
      </cc:Work>
    </rdf:RDF>
  </metadata>
  <g inkscape:groupmode="layer" inkscape:label="blue-" transform="matrix(1.000000,0.000000,0.000000,1.000000,-660.399947,-76.200003)"><g id="g11933" inkscape:label="25">
      <rect y="76.200005" x="660.39996" height="19.049999" width="19.049999" id="rect2838" style="opacity:1;fill:#ffffff;fill-opacity:1;stroke:none;stroke-width:0.70555556;stroke-linecap:butt;stroke-linejoin:miter;stroke-miterlimit:47.14606857;stroke-dasharray:none;stroke-dashoffset:0;stroke-opacity:1;paint-order:markers fill stroke"/>
      <path inkscape:connector-curvature="0" id="path3272" d="m 604.83747,88.106247 a 3.9687495,3.9687495 0 0 0 -3.96875,3.96875 3.9687495,3.9687495 0 0 0 3.96875,3.968746 3.9687495,3.9687495 0 0 0 3.96875,-3.968746 3.9687495,3.9687495 0 0 0 -3.96875,-3.96875 z m -0.88194,1.32292 h 1.76388 v 1.76389 h 1.76389 v 1.76388 h -1.76389 v 1.76389 h -1.76388 v -1.76389 h -1.76389 v -1.76388 h 1.76389 z" style="display:inline;opacity:1;fill:#01298a;fill-opacity:1;stroke:none;stroke-width:0.1763889;stroke-linecap:butt;stroke-linejoin:miter;stroke-miterlimit:4;stroke-dasharray:none;stroke-dashoffset:0;stroke-opacity:1;paint-order:fill markers stroke" transform="translate(69.850014,-6.3499932)"/>
      <g id="text2948" style="font-style:normal;font-variant:normal;font-weight:normal;font-stretch:normal;font-size:12.70000076px;line-height:100%;font-family:'Stint Ultra Condensed';-inkscape-font-specification:'Stint Ultra Condensed, ';font-variant-ligatures:normal;font-variant-caps:normal;font-variant-numeric:normal;text-align:center;letter-spacing:0px;word-spacing:0px;writing-mode:lr-tb;text-anchor:middle;display:inline;fill:#01298a;fill-opacity:1;stroke:none;stroke-width:0.26458335" aria-label="25">
        <path id="path10250" style="font-style:normal;font-variant:normal;font-weight:normal;font-stretch:normal;font-size:14.11111164px;font-family:'Stint Ultra Condensed';-inkscape-font-specification:'Stint Ultra Condensed, ';text-align:center;text-anchor:middle;fill:#01298a;fill-opacity:1;stroke-width:0.26458335" d="m 661.87724,90.487503 v -0.578776 q 0.62012,-0.875054 1.10933,-1.674316 0.49609,-0.806153 0.8406,-1.591635 0.34451,-0.785481 0.52365,-1.591634 0.18604,-0.806152 0.18604,-1.688097 0,-0.344509 -0.0482,-0.661458 -0.0413,-0.316949 -0.13781,-0.558106 -0.0965,-0.248046 -0.26182,-0.39274 -0.16537,-0.151585 -0.39964,-0.151585 -0.43408,0 -0.65456,0.606337 -0.22049,0.606337 -0.22049,1.915473 h -0.87505 q 0,-0.895725 0.14469,-1.515842 0.14469,-0.627007 0.37896,-1.012858 0.24116,-0.392741 0.55122,-0.564996 0.31694,-0.179144 0.64767,-0.179144 0.4272,0 0.75103,0.192925 0.32384,0.192925 0.54433,0.537435 0.22049,0.344509 0.33073,0.819933 0.11713,0.475423 0.11713,1.033528 0,1.322917 -0.61322,2.893881 -0.60634,1.564073 -1.85347,3.369303 h 1.83279 v -1.887912 h 0.75104 v 2.680284 z"/>
        <path id="path10252" style="font-style:normal;font-variant:normal;font-weight:normal;font-stretch:normal;font-size:14.11111164px;font-family:'Stint Ultra Condensed';-inkscape-font-specification:'Stint Ultra Condensed, ';text-align:center;text-anchor:middle;fill:#01298a;fill-opacity:1;stroke-width:0.26458335" d="m 667.15513,84.741084 q 0.22049,-0.254938 0.46164,-0.33762 0.24805,-0.08268 0.51677,-0.08268 0.39274,0 0.7028,0.241157 0.31695,0.241156 0.53054,0.675238 0.22049,0.427192 0.33762,1.019749 0.11714,0.592556 0.11714,1.295356 0,0.647678 -0.10336,1.219563 -0.10335,0.564996 -0.32384,0.992188 -0.21359,0.420302 -0.5581,0.668349 -0.34451,0.241156 -0.81994,0.241156 -0.35139,0.01378 -0.68212,-0.158474 -0.32384,-0.172255 -0.58567,-0.544325 -0.25494,-0.378961 -0.41341,-0.978407 -0.15159,-0.599447 -0.15159,-1.44005 h 0.86128 q 0,1.205783 0.27561,1.798339 0.28249,0.585667 0.6959,0.585667 0.23427,0 0.40653,-0.172255 0.17225,-0.179145 0.28938,-0.496094 0.11714,-0.316949 0.17226,-0.751031 0.062,-0.440972 0.062,-0.964626 0,-1.212674 -0.24116,-1.853462 -0.24115,-0.640788 -0.7717,-0.640788 -0.31006,0 -0.53743,0.206706 -0.22049,0.199816 -0.33762,0.606337 h -0.7028 l 0.16536,-4.850695 h 2.99035 v 0.785482 h -2.23932 z"/>
      </g>
    </g>
    </g></svg>
