<?xml version='1.0' encoding='UTF-8'?>
<!-- Created with Inkscape (http://www.inkscape.org/) and export_objects.py -->
<svg xmlns:cc="http://creativecommons.org/ns#" xmlns:dc="http://purl.org/dc/elements/1.1/" xmlns:inkscape="http://www.inkscape.org/namespaces/inkscape" xmlns:rdf="http://www.w3.org/1999/02/22-rdf-syntax-ns#" xmlns:sodipodi="http://sodipodi.sourceforge.net/DTD/sodipodi-0.dtd" xmlns:xlink="http://www.w3.org/1999/xlink" xmlns="http://www.w3.org/2000/svg" version="1.1" sodipodi:docname="brown-15.svg" inkscape:version="0.92.3 (2405546, 2018-03-11)" id="svg8" viewBox="0 0 19.0499989417 19.0499989417" height="53.999997pt" width="53.999997pt"><sodipodi:namedview inkscape:bbox-nodes="true" inkscape:snap-bbox="false" inkscape:lockguides="true" inkscape:snap-to-guides="true" inkscape:measure-end="-194.588,381.008" inkscape:measure-start="-144.62,344.012" inkscape:snap-nodes="false" inkscape:guide-bbox="true" showguides="true" inkscape:snap-text-baseline="true" inkscape:snap-midpoints="false" inkscape:object-paths="false" inkscape:snap-others="true" inkscape:object-nodes="true" inkscape:snap-intersection-paths="false" inkscape:snap-grids="true" inkscape:window-maximized="1" inkscape:window-y="43" inkscape:window-x="1909" inkscape:window-height="940" inkscape:window-width="1280" inkscape:snap-smooth-nodes="false" inkscape:snap-center="true" inkscape:snap-object-midpoints="true" units="pt" showgrid="true" inkscape:current-layer="layer3" inkscape:document-units="pt" inkscape:cy="540.00004" inkscape:cx="1621.9732" inkscape:zoom="0.30373833" inkscape:pageshadow="2" inkscape:pageopacity="0.0" borderopacity="1.0" bordercolor="#666666" pagecolor="#ffffff" id="base">
    <inkscape:grid originy="0" originx="0" spacingy="1.5875" spacingx="1.5875" units="pt" id="grid10" type="xygrid" visible="true"/>
  </sodipodi:namedview>
  <metadata id="metadata5">
    <rdf:RDF>
      <cc:Work rdf:about="">
        <dc:format>image/svg+xml</dc:format>
        <dc:type rdf:resource="http://purl.org/dc/dcmitype/StillImage"/>
        <dc:title/>
      </cc:Work>
    </rdf:RDF>
  </metadata>
  <g inkscape:groupmode="layer" inkscape:label="brown-" transform="matrix(1.000000,0.000000,0.000000,1.000000,-406.400000,-126.999997)"><g id="g11402" inkscape:label="15">
      <rect style="opacity:1;fill:#ffffff;fill-opacity:1;stroke:none;stroke-width:0.70555556;stroke-linecap:butt;stroke-linejoin:miter;stroke-miterlimit:47.14606857;stroke-dasharray:none;stroke-dashoffset:0;stroke-opacity:1;paint-order:markers fill stroke" id="rect5053" width="19.049999" height="19.049999" x="406.39999" y="127"/>
      <path inkscape:tile-y0="132.99723" inkscape:tile-x0="36.159721" inkscape:tile-h="7.0555501" inkscape:tile-w="7.0555601" inkscape:tile-cy="136.525" inkscape:tile-cx="39.687501" inkscape:connector-curvature="0" id="path9540" d="m 347.30971,139.34722 v 7.05555 h 7.05556 v -7.05555 z m 0.44098,0.44097 h 6.17361 v 6.17362 h -6.17361 z m 3.0868,0.44098 -2.64583,2.64583 2.64583,2.64583 2.64583,-2.64583 z" style="display:inline;opacity:1;fill:#602400;fill-opacity:1;stroke:none;stroke-width:0.17638889;stroke-linecap:butt;stroke-linejoin:miter;stroke-miterlimit:4;stroke-dasharray:none;stroke-dashoffset:0;stroke-opacity:1;paint-order:fill markers stroke" transform="translate(69.850014,-6.3499932)"/>
      <g id="text5295" style="font-style:normal;font-variant:normal;font-weight:normal;font-stretch:normal;font-size:12.70000076px;line-height:100%;font-family:'Stint Ultra Condensed';-inkscape-font-specification:'Stint Ultra Condensed, ';font-variant-ligatures:normal;font-variant-caps:normal;font-variant-numeric:normal;text-align:center;letter-spacing:0px;word-spacing:0px;writing-mode:lr-tb;text-anchor:middle;display:inline;fill:#602400;fill-opacity:1;stroke:none;stroke-width:0.26458335" aria-label="15">
        <path id="path10070" style="font-style:normal;font-variant:normal;font-weight:normal;font-stretch:normal;font-size:14.11111164px;font-family:'Stint Ultra Condensed';-inkscape-font-specification:'Stint Ultra Condensed, ';text-align:center;text-anchor:middle;fill:#602400;fill-opacity:1;stroke-width:0.26458335" d="m 408.53181,140.5089 h 0.9164 v -7.93061 l -1.12999,0.70969 v -0.76481 l 1.12999,-0.7028 h 0.84749 v 8.68853 h 0.9164 v 0.77859 h -2.68029 z"/>
        <path id="path10072" style="font-style:normal;font-variant:normal;font-weight:normal;font-stretch:normal;font-size:14.11111164px;font-family:'Stint Ultra Condensed';-inkscape-font-specification:'Stint Ultra Condensed, ';text-align:center;text-anchor:middle;fill:#602400;fill-opacity:1;stroke-width:0.26458335" d="m 412.6866,135.54107 q 0.22048,-0.25494 0.46164,-0.33762 0.24805,-0.0827 0.51677,-0.0827 0.39274,0 0.70279,0.24116 0.31695,0.24115 0.53055,0.67524 0.22049,0.42719 0.33762,1.01974 0.11713,0.59256 0.11713,1.29536 0,0.64768 -0.10335,1.21956 -0.10335,0.565 -0.32384,0.99219 -0.2136,0.4203 -0.55811,0.66835 -0.3445,0.24116 -0.81993,0.24116 -0.3514,0.0138 -0.68213,-0.15848 -0.32384,-0.17225 -0.58566,-0.54432 -0.25494,-0.37896 -0.41341,-0.97841 -0.15159,-0.59945 -0.15159,-1.44005 h 0.86128 q 0,1.20578 0.2756,1.79834 0.2825,0.58567 0.69591,0.58567 0.23427,0 0.40652,-0.17226 0.17226,-0.17914 0.28939,-0.49609 0.11713,-0.31695 0.17226,-0.75103 0.062,-0.44098 0.062,-0.96463 0,-1.21267 -0.24116,-1.85346 -0.24116,-0.64079 -0.7717,-0.64079 -0.31006,0 -0.53744,0.20671 -0.22048,0.19981 -0.33761,0.60633 h -0.7028 l 0.16536,-4.85069 h 2.99034 v 0.78548 h -2.23931 z"/>
      </g>
    </g>
    </g></svg>
