<?xml version='1.0' encoding='UTF-8'?>
<!-- Created with Inkscape (http://www.inkscape.org/) and export_objects.py -->
<svg xmlns:cc="http://creativecommons.org/ns#" xmlns:dc="http://purl.org/dc/elements/1.1/" xmlns:inkscape="http://www.inkscape.org/namespaces/inkscape" xmlns:rdf="http://www.w3.org/1999/02/22-rdf-syntax-ns#" xmlns:sodipodi="http://sodipodi.sourceforge.net/DTD/sodipodi-0.dtd" xmlns:xlink="http://www.w3.org/1999/xlink" xmlns="http://www.w3.org/2000/svg" version="1.1" sodipodi:docname="brown-08.svg" inkscape:version="0.92.3 (2405546, 2018-03-11)" id="svg8" viewBox="0 0 19.0499989417 19.0499989417" height="53.999997pt" width="53.999997pt"><sodipodi:namedview inkscape:bbox-nodes="true" inkscape:snap-bbox="false" inkscape:lockguides="true" inkscape:snap-to-guides="true" inkscape:measure-end="-194.588,381.008" inkscape:measure-start="-144.62,344.012" inkscape:snap-nodes="false" inkscape:guide-bbox="true" showguides="true" inkscape:snap-text-baseline="true" inkscape:snap-midpoints="false" inkscape:object-paths="false" inkscape:snap-others="true" inkscape:object-nodes="true" inkscape:snap-intersection-paths="false" inkscape:snap-grids="true" inkscape:window-maximized="1" inkscape:window-y="43" inkscape:window-x="1909" inkscape:window-height="940" inkscape:window-width="1280" inkscape:snap-smooth-nodes="false" inkscape:snap-center="true" inkscape:snap-object-midpoints="true" units="pt" showgrid="true" inkscape:current-layer="layer3" inkscape:document-units="pt" inkscape:cy="540.00004" inkscape:cx="1621.9732" inkscape:zoom="0.30373833" inkscape:pageshadow="2" inkscape:pageopacity="0.0" borderopacity="1.0" bordercolor="#666666" pagecolor="#ffffff" id="base">
    <inkscape:grid originy="0" originx="0" spacingy="1.5875" spacingx="1.5875" units="pt" id="grid10" type="xygrid" visible="true"/>
  </sodipodi:namedview>
  <metadata id="metadata5">
    <rdf:RDF>
      <cc:Work rdf:about="">
        <dc:format>image/svg+xml</dc:format>
        <dc:type rdf:resource="http://purl.org/dc/dcmitype/StillImage"/>
        <dc:title/>
      </cc:Work>
    </rdf:RDF>
  </metadata>
  <g inkscape:groupmode="layer" inkscape:label="brown-" transform="matrix(1.000000,0.000000,0.000000,1.000000,-228.600003,-126.999997)"><g id="g11340" inkscape:label="08">
      <rect style="opacity:1;fill:#ffffff;fill-opacity:1;stroke:none;stroke-width:0.70555556;stroke-linecap:butt;stroke-linejoin:miter;stroke-miterlimit:47.14606857;stroke-dasharray:none;stroke-dashoffset:0;stroke-opacity:1;paint-order:markers fill stroke" id="rect5039" width="19.049999" height="19.049999" x="228.60001" y="127"/>
      <path style="display:inline;opacity:1;fill:#602400;fill-opacity:1;stroke:none;stroke-width:0.17638889;stroke-linecap:butt;stroke-linejoin:miter;stroke-miterlimit:4;stroke-dasharray:none;stroke-dashoffset:0;stroke-opacity:1;paint-order:fill markers stroke" d="m 169.50971,139.34722 v 7.05555 h 7.05556 v -7.05555 z m 0.44098,0.44097 h 6.17361 v 6.17362 h -6.17361 z m 3.0868,0.44098 -2.64583,2.64583 2.64583,2.64583 2.64583,-2.64583 z" id="path9484" inkscape:connector-curvature="0" inkscape:tile-cx="39.687501" inkscape:tile-cy="136.525" inkscape:tile-w="7.0555601" inkscape:tile-h="7.0555501" inkscape:tile-x0="36.159721" inkscape:tile-y0="132.99723" transform="translate(69.850014,-6.3499932)"/>
      <g id="text5267" style="font-style:normal;font-variant:normal;font-weight:normal;font-stretch:normal;font-size:12.70000076px;line-height:100%;font-family:'Stint Ultra Condensed';-inkscape-font-specification:'Stint Ultra Condensed, ';font-variant-ligatures:normal;font-variant-caps:normal;font-variant-numeric:normal;text-align:center;letter-spacing:0px;word-spacing:0px;writing-mode:lr-tb;text-anchor:middle;display:inline;fill:#602400;fill-opacity:1;stroke:none;stroke-width:0.26458335" aria-label="8">
        <path id="path10103" style="font-style:normal;font-variant:normal;font-weight:normal;font-stretch:normal;font-size:14.11111164px;font-family:'Stint Ultra Condensed';-inkscape-font-specification:'Stint Ultra Condensed, ';text-align:center;text-anchor:middle;fill:#602400;fill-opacity:1;stroke-width:0.26458335" d="m 234.83149,136.11985 q 0.62701,0.23426 0.93706,0.9095 0.31695,0.67524 0.31695,1.67432 0,0.61323 -0.13091,1.1231 -0.13091,0.50987 -0.37896,0.87505 -0.24805,0.36518 -0.60634,0.57189 -0.35829,0.19982 -0.81304,0.19982 -0.45475,0 -0.81304,-0.19982 -0.35829,-0.20671 -0.61323,-0.57189 -0.24805,-0.36518 -0.37896,-0.87505 -0.13091,-0.50987 -0.13091,-1.1231 0,-0.49609 0.0827,-0.92329 0.0827,-0.42719 0.24116,-0.75792 0.15847,-0.33762 0.39274,-0.57188 0.23426,-0.24116 0.53743,-0.35829 -0.24805,-0.1447 -0.43408,-0.37207 -0.17915,-0.23427 -0.30317,-0.50299 -0.11713,-0.27561 -0.17914,-0.57877 -0.0551,-0.30317 -0.0551,-0.59256 0,-0.53054 0.11714,-0.97152 0.11713,-0.44097 0.33073,-0.75792 0.22048,-0.31695 0.52365,-0.4892 0.30317,-0.17915 0.66835,-0.17915 0.36518,0 0.66835,0.17915 0.30317,0.17225 0.52365,0.4892 0.22049,0.31695 0.34451,0.75792 0.12403,0.44098 0.12403,0.97152 0,0.28939 -0.062,0.59945 -0.0551,0.30316 -0.17914,0.58566 -0.11713,0.27561 -0.30317,0.50988 -0.17914,0.23426 -0.42719,0.37896 z m 0.12402,-2.02572 q 0,-0.33762 -0.0482,-0.64768 -0.0413,-0.31006 -0.1378,-0.54432 -0.0896,-0.24116 -0.24805,-0.37896 -0.15158,-0.13781 -0.36518,-0.13781 -0.22049,0 -0.37896,0.13781 -0.15158,0.1378 -0.24805,0.37896 -0.0965,0.23426 -0.1378,0.54432 -0.0413,0.31006 -0.0413,0.64768 0,0.33762 0.0482,0.64768 0.0482,0.31006 0.14469,0.54432 0.10336,0.23427 0.25494,0.37207 0.15158,0.13781 0.35829,0.13781 0.20671,0 0.35829,-0.13781 0.15158,-0.1378 0.24805,-0.37207 0.0965,-0.23426 0.14469,-0.54432 0.0482,-0.31006 0.0482,-0.64768 z m -0.79926,2.39779 q -0.50298,0 -0.78548,0.5581 -0.27561,0.55811 -0.27561,1.55719 0,0.99218 0.26872,1.56407 0.26872,0.565 0.79237,0.565 0.51676,0 0.78548,-0.565 0.26872,-0.57189 0.26872,-1.56407 0,-0.4961 -0.0758,-0.88884 -0.0689,-0.39274 -0.20671,-0.66146 -0.1378,-0.2756 -0.33762,-0.4203 -0.19292,-0.14469 -0.43408,-0.14469 z"/>
      </g>
    </g>
    </g></svg>
