<?xml version='1.0' encoding='UTF-8'?>
<!-- Created with Inkscape (http://www.inkscape.org/) and export_objects.py -->
<svg xmlns:cc="http://creativecommons.org/ns#" xmlns:dc="http://purl.org/dc/elements/1.1/" xmlns:inkscape="http://www.inkscape.org/namespaces/inkscape" xmlns:rdf="http://www.w3.org/1999/02/22-rdf-syntax-ns#" xmlns:sodipodi="http://sodipodi.sourceforge.net/DTD/sodipodi-0.dtd" xmlns:xlink="http://www.w3.org/1999/xlink" xmlns="http://www.w3.org/2000/svg" version="1.1" sodipodi:docname="brown-22.svg" inkscape:version="0.92.3 (2405546, 2018-03-11)" id="svg8" viewBox="0 0 19.0499989417 19.0499989417" height="53.999997pt" width="53.999997pt"><sodipodi:namedview inkscape:bbox-nodes="true" inkscape:snap-bbox="false" inkscape:lockguides="true" inkscape:snap-to-guides="true" inkscape:measure-end="-194.588,381.008" inkscape:measure-start="-144.62,344.012" inkscape:snap-nodes="false" inkscape:guide-bbox="true" showguides="true" inkscape:snap-text-baseline="true" inkscape:snap-midpoints="false" inkscape:object-paths="false" inkscape:snap-others="true" inkscape:object-nodes="true" inkscape:snap-intersection-paths="false" inkscape:snap-grids="true" inkscape:window-maximized="1" inkscape:window-y="43" inkscape:window-x="1909" inkscape:window-height="940" inkscape:window-width="1280" inkscape:snap-smooth-nodes="false" inkscape:snap-center="true" inkscape:snap-object-midpoints="true" units="pt" showgrid="true" inkscape:current-layer="layer3" inkscape:document-units="pt" inkscape:cy="540.00004" inkscape:cx="1621.9732" inkscape:zoom="0.30373833" inkscape:pageshadow="2" inkscape:pageopacity="0.0" borderopacity="1.0" bordercolor="#666666" pagecolor="#ffffff" id="base">
    <inkscape:grid originy="0" originx="0" spacingy="1.5875" spacingx="1.5875" units="pt" id="grid10" type="xygrid" visible="true"/>
  </sodipodi:namedview>
  <metadata id="metadata5">
    <rdf:RDF>
      <cc:Work rdf:about="">
        <dc:format>image/svg+xml</dc:format>
        <dc:type rdf:resource="http://purl.org/dc/dcmitype/StillImage"/>
        <dc:title/>
      </cc:Work>
    </rdf:RDF>
  </metadata>
  <g inkscape:groupmode="layer" inkscape:label="brown-" transform="matrix(1.000000,0.000000,0.000000,1.000000,-584.200000,-126.999997)"><g id="g12086" inkscape:label="22">
      <rect y="127" x="584.20001" height="19.049999" width="19.049999" id="rect5067" style="opacity:1;fill:#ffffff;fill-opacity:1;stroke:none;stroke-width:0.70555556;stroke-linecap:butt;stroke-linejoin:miter;stroke-miterlimit:47.14606857;stroke-dasharray:none;stroke-dashoffset:0;stroke-opacity:1;paint-order:markers fill stroke"/>
      <path style="display:inline;opacity:1;fill:#602400;fill-opacity:1;stroke:none;stroke-width:0.17638889;stroke-linecap:butt;stroke-linejoin:miter;stroke-miterlimit:4;stroke-dasharray:none;stroke-dashoffset:0;stroke-opacity:1;paint-order:fill markers stroke" d="m 525.10971,139.34722 v 7.05555 h 7.05556 v -7.05555 z m 0.44098,0.44097 h 6.17361 v 6.17362 h -6.17361 z m 3.0868,0.44098 -2.64583,2.64583 2.64583,2.64583 2.64583,-2.64583 z" id="path9596" inkscape:connector-curvature="0" inkscape:tile-cx="39.687501" inkscape:tile-cy="136.525" inkscape:tile-w="7.0555601" inkscape:tile-h="7.0555501" inkscape:tile-x0="36.159721" inkscape:tile-y0="132.99723" transform="translate(69.850014,-6.3499932)"/>
      <g id="text5323" style="font-style:normal;font-variant:normal;font-weight:normal;font-stretch:normal;font-size:12.70000076px;line-height:100%;font-family:'Stint Ultra Condensed';-inkscape-font-specification:'Stint Ultra Condensed, ';font-variant-ligatures:normal;font-variant-caps:normal;font-variant-numeric:normal;text-align:center;letter-spacing:0px;word-spacing:0px;writing-mode:lr-tb;text-anchor:middle;display:inline;fill:#602400;fill-opacity:1;stroke:none;stroke-width:0.26458335" aria-label="22">
        <path id="path10035" style="font-style:normal;font-variant:normal;font-weight:normal;font-stretch:normal;font-size:14.11111164px;font-family:'Stint Ultra Condensed';-inkscape-font-specification:'Stint Ultra Condensed, ';text-align:center;text-anchor:middle;fill:#602400;fill-opacity:1;stroke-width:0.26458335" d="m 585.73241,141.28749 v -0.57878 q 0.62012,-0.87505 1.10933,-1.67431 0.49609,-0.80615 0.8406,-1.59164 0.34451,-0.78548 0.52365,-1.59163 0.18604,-0.80615 0.18604,-1.6881 0,-0.34451 -0.0482,-0.66146 -0.0413,-0.31694 -0.13781,-0.5581 -0.0965,-0.24805 -0.26182,-0.39274 -0.16537,-0.15159 -0.39963,-0.15159 -0.43409,0 -0.65457,0.60634 -0.22049,0.60634 -0.22049,1.91547 h -0.87505 q 0,-0.89572 0.14469,-1.51584 0.14469,-0.62701 0.37896,-1.01286 0.24116,-0.39274 0.55122,-0.56499 0.31695,-0.17915 0.64767,-0.17915 0.4272,0 0.75104,0.19293 0.32383,0.19292 0.54432,0.53743 0.22049,0.34451 0.33073,0.81994 0.11713,0.47542 0.11713,1.03353 0,1.32291 -0.61322,2.89388 -0.60634,1.56407 -1.85347,3.3693 h 1.8328 v -1.88791 h 0.75103 v 2.68028 z"/>
        <path id="path10037" style="font-style:normal;font-variant:normal;font-weight:normal;font-stretch:normal;font-size:14.11111164px;font-family:'Stint Ultra Condensed';-inkscape-font-specification:'Stint Ultra Condensed, ';text-align:center;text-anchor:middle;fill:#602400;fill-opacity:1;stroke-width:0.26458335" d="m 589.89409,141.28749 v -0.57878 q 0.62012,-0.87505 1.10932,-1.67431 0.49609,-0.80615 0.8406,-1.59164 0.34451,-0.78548 0.52366,-1.59163 0.18603,-0.80615 0.18603,-1.6881 0,-0.34451 -0.0482,-0.66146 -0.0413,-0.31694 -0.1378,-0.5581 -0.0965,-0.24805 -0.26183,-0.39274 -0.16536,-0.15159 -0.39963,-0.15159 -0.43408,0 -0.65457,0.60634 -0.22048,0.60634 -0.22048,1.91547 h -0.87506 q 0,-0.89572 0.1447,-1.51584 0.14469,-0.62701 0.37896,-1.01286 0.24115,-0.39274 0.55121,-0.56499 0.31695,-0.17915 0.64768,-0.17915 0.42719,0 0.75103,0.19293 0.32384,0.19292 0.54433,0.53743 0.22048,0.34451 0.33073,0.81994 0.11713,0.47542 0.11713,1.03353 0,1.32291 -0.61323,2.89388 -0.60634,1.56407 -1.85346,3.3693 h 1.83279 v -1.88791 h 0.75103 v 2.68028 z"/>
      </g>
    </g>
    </g></svg>
