<?xml version='1.0' encoding='UTF-8'?>
<!-- Created with Inkscape (http://www.inkscape.org/) and export_objects.py -->
<svg xmlns:cc="http://creativecommons.org/ns#" xmlns:dc="http://purl.org/dc/elements/1.1/" xmlns:inkscape="http://www.inkscape.org/namespaces/inkscape" xmlns:rdf="http://www.w3.org/1999/02/22-rdf-syntax-ns#" xmlns:sodipodi="http://sodipodi.sourceforge.net/DTD/sodipodi-0.dtd" xmlns:xlink="http://www.w3.org/1999/xlink" xmlns="http://www.w3.org/2000/svg" version="1.1" sodipodi:docname="brown-19.svg" inkscape:version="0.92.3 (2405546, 2018-03-11)" id="svg8" viewBox="0 0 19.0499989417 19.0499989417" height="53.999997pt" width="53.999997pt"><sodipodi:namedview inkscape:bbox-nodes="true" inkscape:snap-bbox="false" inkscape:lockguides="true" inkscape:snap-to-guides="true" inkscape:measure-end="-194.588,381.008" inkscape:measure-start="-144.62,344.012" inkscape:snap-nodes="false" inkscape:guide-bbox="true" showguides="true" inkscape:snap-text-baseline="true" inkscape:snap-midpoints="false" inkscape:object-paths="false" inkscape:snap-others="true" inkscape:object-nodes="true" inkscape:snap-intersection-paths="false" inkscape:snap-grids="true" inkscape:window-maximized="1" inkscape:window-y="43" inkscape:window-x="1909" inkscape:window-height="940" inkscape:window-width="1280" inkscape:snap-smooth-nodes="false" inkscape:snap-center="true" inkscape:snap-object-midpoints="true" units="pt" showgrid="true" inkscape:current-layer="layer3" inkscape:document-units="pt" inkscape:cy="540.00004" inkscape:cx="1621.9732" inkscape:zoom="0.30373833" inkscape:pageshadow="2" inkscape:pageopacity="0.0" borderopacity="1.0" bordercolor="#666666" pagecolor="#ffffff" id="base">
    <inkscape:grid originy="0" originx="0" spacingy="1.5875" spacingx="1.5875" units="pt" id="grid10" type="xygrid" visible="true"/>
  </sodipodi:namedview>
  <metadata id="metadata5">
    <rdf:RDF>
      <cc:Work rdf:about="">
        <dc:format>image/svg+xml</dc:format>
        <dc:type rdf:resource="http://purl.org/dc/dcmitype/StillImage"/>
        <dc:title/>
      </cc:Work>
    </rdf:RDF>
  </metadata>
  <g inkscape:groupmode="layer" inkscape:label="brown-" transform="matrix(1.000000,0.000000,0.000000,1.000000,-508.000000,-126.999997)"><g id="g12059" inkscape:label="19">
      <rect style="opacity:1;fill:#ffffff;fill-opacity:1;stroke:none;stroke-width:0.70555556;stroke-linecap:butt;stroke-linejoin:miter;stroke-miterlimit:47.14606857;stroke-dasharray:none;stroke-dashoffset:0;stroke-opacity:1;paint-order:markers fill stroke" id="rect5061" width="19.049999" height="19.049999" x="508" y="127"/>
      <path style="display:inline;opacity:1;fill:#602400;fill-opacity:1;stroke:none;stroke-width:0.17638889;stroke-linecap:butt;stroke-linejoin:miter;stroke-miterlimit:4;stroke-dasharray:none;stroke-dashoffset:0;stroke-opacity:1;paint-order:fill markers stroke" d="m 448.90971,139.34722 v 7.05555 h 7.05556 v -7.05555 z m 0.44098,0.44097 h 6.17361 v 6.17362 h -6.17361 z m 3.0868,0.44098 -2.64583,2.64583 2.64583,2.64583 2.64583,-2.64583 z" id="path9572" inkscape:connector-curvature="0" inkscape:tile-cx="39.687501" inkscape:tile-cy="136.525" inkscape:tile-w="7.0555601" inkscape:tile-h="7.0555501" inkscape:tile-x0="36.159721" inkscape:tile-y0="132.99723" transform="translate(69.850014,-6.3499932)"/>
      <g id="text5311" style="font-style:normal;font-variant:normal;font-weight:normal;font-stretch:normal;font-size:12.70000076px;line-height:100%;font-family:'Stint Ultra Condensed';-inkscape-font-specification:'Stint Ultra Condensed, ';font-variant-ligatures:normal;font-variant-caps:normal;font-variant-numeric:normal;text-align:center;letter-spacing:0px;word-spacing:0px;writing-mode:lr-tb;text-anchor:middle;display:inline;fill:#602400;fill-opacity:1;stroke:none;stroke-width:0.26458335" aria-label="19">
        <path id="path10050" style="font-style:normal;font-variant:normal;font-weight:normal;font-stretch:normal;font-size:14.11111164px;font-family:'Stint Ultra Condensed';-inkscape-font-specification:'Stint Ultra Condensed, ';text-align:center;text-anchor:middle;fill:#602400;fill-opacity:1;stroke-width:0.26458335" d="m 510.13179,140.5089 h 0.91639 v -7.93061 l -1.12999,0.70969 v -0.76481 l 1.12999,-0.7028 h 0.8475 v 8.68853 h 0.91639 v 0.77859 h -2.68028 z"/>
        <path id="path10052" style="font-style:normal;font-variant:normal;font-weight:normal;font-stretch:normal;font-size:14.11111164px;font-family:'Stint Ultra Condensed';-inkscape-font-specification:'Stint Ultra Condensed, ';text-align:center;text-anchor:middle;fill:#602400;fill-opacity:1;stroke-width:0.26458335" d="m 516.08491,136.74685 q -0.0482,0.12403 -0.14469,0.31695 -0.0896,0.19293 -0.24805,0.37207 -0.15158,0.17915 -0.37207,0.31006 -0.22048,0.12403 -0.52365,0.12403 -0.33762,0 -0.6339,-0.18604 -0.29628,-0.19292 -0.51676,-0.57878 -0.2136,-0.38585 -0.34451,-0.96462 -0.12403,-0.58567 -0.12403,-1.37115 0,-0.64768 0.11714,-1.21267 0.11713,-0.57189 0.34451,-0.99219 0.22737,-0.42719 0.5581,-0.66835 0.33073,-0.24805 0.75792,-0.24805 0.4203,0 0.77859,0.28939 0.36518,0.2825 0.6339,0.86128 0.26872,0.57188 0.4203,1.44005 0.15848,0.86816 0.15848,2.03949 0,1.1989 -0.11714,2.16352 -0.11713,0.95774 -0.36518,1.63298 -0.24115,0.67524 -0.62011,1.04042 -0.37207,0.35829 -0.88884,0.35829 -0.33073,0 -0.62701,-0.18604 -0.29627,-0.17914 -0.52365,-0.53743 -0.22049,-0.35829 -0.3514,-0.88884 -0.12402,-0.53743 -0.12402,-1.24023 h 0.84749 q 0,1.02664 0.19982,1.56407 0.2067,0.53744 0.62011,0.53744 0.28939,0 0.4961,-0.31695 0.2067,-0.32384 0.33762,-0.86817 0.13091,-0.54432 0.19292,-1.2609 0.062,-0.72347 0.062,-1.52963 z m -1.11621,0.37897 q 0.2136,0 0.38585,-0.19982 0.17226,-0.19982 0.30317,-0.4892 0.13781,-0.28939 0.22738,-0.62012 0.0896,-0.33073 0.13091,-0.59945 0.0138,-0.50987 -0.062,-1.01286 -0.0689,-0.50987 -0.2136,-0.9095 -0.1378,-0.39963 -0.34451,-0.64768 -0.19981,-0.24805 -0.44097,-0.24805 -0.22048,0 -0.39274,0.17226 -0.17225,0.16536 -0.28939,0.47542 -0.11713,0.31006 -0.17914,0.75103 -0.0551,0.43409 -0.0551,0.97152 0,0.55122 0.0551,0.99219 0.0551,0.43408 0.16536,0.73725 0.11714,0.30317 0.28939,0.46853 0.17915,0.15848 0.4203,0.15848 z"/>
      </g>
    </g>
    </g></svg>
