<?xml version='1.0' encoding='UTF-8'?>
<!-- Created with Inkscape (http://www.inkscape.org/) and export_objects.py -->
<svg xmlns:cc="http://creativecommons.org/ns#" xmlns:dc="http://purl.org/dc/elements/1.1/" xmlns:inkscape="http://www.inkscape.org/namespaces/inkscape" xmlns:rdf="http://www.w3.org/1999/02/22-rdf-syntax-ns#" xmlns:sodipodi="http://sodipodi.sourceforge.net/DTD/sodipodi-0.dtd" xmlns:xlink="http://www.w3.org/1999/xlink" xmlns="http://www.w3.org/2000/svg" version="1.1" sodipodi:docname="green-24.svg" inkscape:version="0.92.3 (2405546, 2018-03-11)" id="svg8" viewBox="0 0 19.0499989417 19.0499989417" height="53.999997pt" width="53.999997pt"><sodipodi:namedview inkscape:bbox-nodes="true" inkscape:snap-bbox="false" inkscape:lockguides="true" inkscape:snap-to-guides="true" inkscape:measure-end="-194.588,381.008" inkscape:measure-start="-144.62,344.012" inkscape:snap-nodes="false" inkscape:guide-bbox="true" showguides="true" inkscape:snap-text-baseline="true" inkscape:snap-midpoints="false" inkscape:object-paths="false" inkscape:snap-others="true" inkscape:object-nodes="true" inkscape:snap-intersection-paths="false" inkscape:snap-grids="true" inkscape:window-maximized="1" inkscape:window-y="43" inkscape:window-x="1909" inkscape:window-height="940" inkscape:window-width="1280" inkscape:snap-smooth-nodes="false" inkscape:snap-center="true" inkscape:snap-object-midpoints="true" units="pt" showgrid="true" inkscape:current-layer="layer3" inkscape:document-units="pt" inkscape:cy="540.00004" inkscape:cx="2550.8673" inkscape:zoom="0.30373833" inkscape:pageshadow="2" inkscape:pageopacity="0.0" borderopacity="1.0" bordercolor="#666666" pagecolor="#ffffff" id="base">
    <inkscape:grid originy="0" originx="0" spacingy="1.5875" spacingx="1.5875" units="pt" id="grid10" type="xygrid" visible="true"/>
  </sodipodi:namedview>
  <metadata id="metadata5">
    <rdf:RDF>
      <cc:Work rdf:about="">
        <dc:format>image/svg+xml</dc:format>
        <dc:type rdf:resource="http://purl.org/dc/dcmitype/StillImage"/>
        <dc:title/>
      </cc:Work>
    </rdf:RDF>
  </metadata>
  <g inkscape:groupmode="layer" inkscape:label="green-" transform="matrix(1.000000,0.000000,0.000000,1.000000,-635.000000,-203.199995)"><g id="g12374" inkscape:label="24">
      <rect style="opacity:1;fill:#ffffff;fill-opacity:1;stroke:none;stroke-width:0.70555556;stroke-linecap:butt;stroke-linejoin:miter;stroke-miterlimit:47.14606857;stroke-dasharray:none;stroke-dashoffset:0;stroke-opacity:1;paint-order:markers fill stroke" id="rect5227" width="19.049999" height="19.049999" x="635" y="203.2"/>
      <path inkscape:connector-curvature="0" id="path9608" d="m 579.43749,215.10625 a 3.9687499,3.9687499 0 0 0 -3.96875,3.96875 3.9687499,3.9687499 0 0 0 3.96875,3.96875 3.9687499,3.9687499 0 0 0 3.96875,-3.96875 3.9687499,3.9687499 0 0 0 -3.96875,-3.96875 z m 0,1.32292 2.64584,2.64583 -2.64584,2.64583 -2.64583,-2.64583 z" style="display:inline;opacity:1;fill:#2c6f00;fill-opacity:1;stroke:none;stroke-width:0.17638892;stroke-linecap:butt;stroke-linejoin:miter;stroke-miterlimit:4;stroke-dasharray:none;stroke-dashoffset:0;stroke-opacity:1;paint-order:fill markers stroke" transform="translate(69.850014,-6.3499932)"/>
      <g id="text5655" style="font-style:normal;font-variant:normal;font-weight:normal;font-stretch:normal;font-size:12.70000076px;line-height:100%;font-family:'Stint Ultra Condensed';-inkscape-font-specification:'Stint Ultra Condensed, ';font-variant-ligatures:normal;font-variant-caps:normal;font-variant-numeric:normal;text-align:center;letter-spacing:0px;word-spacing:0px;writing-mode:lr-tb;text-anchor:middle;display:inline;fill:#2c6f00;fill-opacity:1;stroke:none;stroke-width:0.26458335" aria-label="24">
        <path id="path9680" style="font-style:normal;font-variant:normal;font-weight:normal;font-stretch:normal;font-size:14.11111164px;font-family:'Stint Ultra Condensed';-inkscape-font-specification:'Stint Ultra Condensed, ';text-align:center;text-anchor:middle;fill:#2c6f00;fill-opacity:1;stroke-width:0.26458335" d="m 636.36704,217.48749 v -0.57878 q 0.62012,-0.87505 1.10932,-1.67431 0.49609,-0.80616 0.8406,-1.59164 0.34451,-0.78548 0.52366,-1.59163 0.18603,-0.80616 0.18603,-1.6881 0,-0.34451 -0.0482,-0.66146 -0.0413,-0.31695 -0.1378,-0.5581 -0.0965,-0.24805 -0.26183,-0.39274 -0.16537,-0.15159 -0.39963,-0.15159 -0.43408,0 -0.65457,0.60634 -0.22049,0.60633 -0.22049,1.91547 h -0.87505 q 0,-0.89572 0.14469,-1.51584 0.1447,-0.62701 0.37896,-1.01286 0.24116,-0.39274 0.55122,-0.56499 0.31695,-0.17915 0.64768,-0.17915 0.42719,0 0.75103,0.19293 0.32384,0.19292 0.54432,0.53743 0.22049,0.34451 0.33073,0.81993 0.11714,0.47543 0.11714,1.03353 0,1.32292 -0.61323,2.89388 -0.60634,1.56408 -1.85346,3.36931 h 1.83279 v -1.88792 h 0.75103 v 2.68029 z"/>
        <path id="path9682" style="font-style:normal;font-variant:normal;font-weight:normal;font-stretch:normal;font-size:14.11111164px;font-family:'Stint Ultra Condensed';-inkscape-font-specification:'Stint Ultra Condensed, ';text-align:center;text-anchor:middle;fill:#2c6f00;fill-opacity:1;stroke-width:0.26458335" d="m 642.04456,216.7089 h 0.8406 v -1.6881 h -2.322 v -0.72347 l 2.06017,-6.27696 h 1.09554 v 6.26318 h 0.97841 v 0.73725 h -0.97841 v 1.6881 h 0.8475 v 0.77859 h -2.52181 z m 0.8406,-7.33806 -1.59164,4.91271 h 1.59164 z"/>
      </g>
    </g>
    </g></svg>
