<?xml version='1.0' encoding='UTF-8'?>
<!-- Created with Inkscape (http://www.inkscape.org/) and export_objects.py -->
<svg xmlns:cc="http://creativecommons.org/ns#" xmlns:dc="http://purl.org/dc/elements/1.1/" xmlns:inkscape="http://www.inkscape.org/namespaces/inkscape" xmlns:rdf="http://www.w3.org/1999/02/22-rdf-syntax-ns#" xmlns:sodipodi="http://sodipodi.sourceforge.net/DTD/sodipodi-0.dtd" xmlns:xlink="http://www.w3.org/1999/xlink" xmlns="http://www.w3.org/2000/svg" version="1.1" sodipodi:docname="grey-08.svg" inkscape:version="0.92.3 (2405546, 2018-03-11)" id="svg8" viewBox="0 0 19.0499989417 19.0499989417" height="53.999997pt" width="53.999997pt"><sodipodi:namedview inkscape:bbox-nodes="true" inkscape:snap-bbox="false" inkscape:lockguides="true" inkscape:snap-to-guides="true" inkscape:measure-end="-194.588,381.008" inkscape:measure-start="-144.62,344.012" inkscape:snap-nodes="false" inkscape:guide-bbox="true" showguides="true" inkscape:snap-text-baseline="true" inkscape:snap-midpoints="false" inkscape:object-paths="false" inkscape:snap-others="true" inkscape:object-nodes="true" inkscape:snap-intersection-paths="false" inkscape:snap-grids="true" inkscape:window-maximized="1" inkscape:window-y="43" inkscape:window-x="1909" inkscape:window-height="940" inkscape:window-width="1280" inkscape:snap-smooth-nodes="false" inkscape:snap-center="true" inkscape:snap-object-midpoints="true" units="pt" showgrid="true" inkscape:current-layer="layer3" inkscape:document-units="pt" inkscape:cy="540.00004" inkscape:cx="1866.7038" inkscape:zoom="0.30373833" inkscape:pageshadow="2" inkscape:pageopacity="0.0" borderopacity="1.0" bordercolor="#666666" pagecolor="#ffffff" id="base">
    <inkscape:grid originy="0" originx="0" spacingy="1.5875" spacingx="1.5875" units="pt" id="grid10" type="xygrid" visible="true"/>
  </sodipodi:namedview>
  <metadata id="metadata5">
    <rdf:RDF>
      <cc:Work rdf:about="">
        <dc:format>image/svg+xml</dc:format>
        <dc:type rdf:resource="http://purl.org/dc/dcmitype/StillImage"/>
        <dc:title/>
      </cc:Work>
    </rdf:RDF>
  </metadata>
  <g inkscape:groupmode="layer" inkscape:label="grey-" transform="matrix(1.000000,0.000000,0.000000,1.000000,-228.600003,-101.599997)"><g id="g11254" inkscape:label="08">
      <rect style="opacity:1;fill:#ffffff;fill-opacity:1;stroke:none;stroke-width:0.70555556;stroke-linecap:butt;stroke-linejoin:miter;stroke-miterlimit:47.14606857;stroke-dasharray:none;stroke-dashoffset:0;stroke-opacity:1;paint-order:markers fill stroke" id="rect2970" width="19.049999" height="19.049999" x="228.60001" y="101.6"/>
      <path style="display:inline;opacity:1;fill:#666666;fill-opacity:1;stroke:none;stroke-width:0.17638889;stroke-linecap:butt;stroke-linejoin:miter;stroke-miterlimit:4;stroke-dasharray:none;stroke-dashoffset:0;stroke-opacity:1;paint-order:fill markers stroke" d="m 169.50971,113.94722 v 7.05555 h 7.05556 v -7.05555 z m 3.52778,0.88195 2.64583,2.64583 -2.64583,2.64584 -2.64583,-2.64584 z" id="path3168" inkscape:connector-curvature="0" transform="translate(69.850014,-6.3499932)"/>
      <g id="text3044" style="font-style:normal;font-variant:normal;font-weight:normal;font-stretch:normal;font-size:12.70000076px;line-height:100%;font-family:'Stint Ultra Condensed';-inkscape-font-specification:'Stint Ultra Condensed, ';font-variant-ligatures:normal;font-variant-caps:normal;font-variant-numeric:normal;text-align:center;letter-spacing:0px;word-spacing:0px;writing-mode:lr-tb;text-anchor:middle;display:inline;fill:#666666;fill-opacity:1;stroke:none;stroke-width:0.26458335" aria-label="8">
        <path id="path10218" style="font-style:normal;font-variant:normal;font-weight:normal;font-stretch:normal;font-size:14.11111164px;font-family:'Stint Ultra Condensed';-inkscape-font-specification:'Stint Ultra Condensed, ';text-align:center;text-anchor:middle;fill:#666666;fill-opacity:1;stroke-width:0.26458335" d="m 234.8315,110.71985 q 0.62701,0.23427 0.93707,0.90951 0.31695,0.67524 0.31695,1.67432 0,0.61322 -0.13091,1.1231 -0.13092,0.50987 -0.37897,0.87505 -0.24804,0.36518 -0.60633,0.57189 -0.35829,0.19981 -0.81304,0.19981 -0.45476,0 -0.81305,-0.19981 -0.35829,-0.20671 -0.61322,-0.57189 -0.24805,-0.36518 -0.37896,-0.87505 -0.13092,-0.50988 -0.13092,-1.1231 0,-0.4961 0.0827,-0.92329 0.0827,-0.42719 0.24116,-0.75792 0.15847,-0.33762 0.39274,-0.57189 0.23427,-0.24115 0.53744,-0.35829 -0.24805,-0.14469 -0.43409,-0.37207 -0.17914,-0.23426 -0.30316,-0.50298 -0.11714,-0.27561 -0.17915,-0.57878 -0.0551,-0.30317 -0.0551,-0.59255 0,-0.53055 0.11713,-0.97152 0.11714,-0.44097 0.33073,-0.75792 0.22049,-0.31695 0.52366,-0.48921 0.30316,-0.17914 0.66834,-0.17914 0.36519,0 0.66835,0.17914 0.30317,0.17226 0.52366,0.48921 0.22048,0.31695 0.34451,0.75792 0.12402,0.44097 0.12402,0.97152 0,0.28938 -0.062,0.59944 -0.0551,0.30317 -0.17915,0.58567 -0.11713,0.27561 -0.30316,0.50987 -0.17915,0.23427 -0.4272,0.37896 z m 0.12403,-2.02571 q 0,-0.33762 -0.0482,-0.64768 -0.0413,-0.31006 -0.13781,-0.54433 -0.0896,-0.24115 -0.24804,-0.37896 -0.15159,-0.1378 -0.36518,-0.1378 -0.22049,0 -0.37897,0.1378 -0.15158,0.13781 -0.24804,0.37896 -0.0965,0.23427 -0.13781,0.54433 -0.0413,0.31006 -0.0413,0.64768 0,0.33762 0.0482,0.64768 0.0482,0.31005 0.1447,0.54432 0.10335,0.23427 0.25494,0.37207 0.15158,0.1378 0.35829,0.1378 0.2067,0 0.35829,-0.1378 0.15158,-0.1378 0.24804,-0.37207 0.0965,-0.23427 0.1447,-0.54432 0.0482,-0.31006 0.0482,-0.64768 z m -0.79926,2.39778 q -0.50299,0 -0.78549,0.55811 -0.2756,0.5581 -0.2756,1.55718 0,0.99219 0.26871,1.56408 0.26872,0.56499 0.79238,0.56499 0.51676,0 0.78548,-0.56499 0.26871,-0.57189 0.26871,-1.56408 0,-0.49609 -0.0758,-0.88883 -0.0689,-0.39274 -0.2067,-0.66146 -0.13781,-0.27561 -0.33762,-0.4203 -0.19293,-0.1447 -0.43408,-0.1447 z"/>
      </g>
    </g>
    </g></svg>
