<?xml version='1.0' encoding='UTF-8'?>
<!-- Created with Inkscape (http://www.inkscape.org/) and export_objects.py -->
<svg xmlns:cc="http://creativecommons.org/ns#" xmlns:dc="http://purl.org/dc/elements/1.1/" xmlns:inkscape="http://www.inkscape.org/namespaces/inkscape" xmlns:rdf="http://www.w3.org/1999/02/22-rdf-syntax-ns#" xmlns:sodipodi="http://sodipodi.sourceforge.net/DTD/sodipodi-0.dtd" xmlns:xlink="http://www.w3.org/1999/xlink" xmlns="http://www.w3.org/2000/svg" version="1.1" sodipodi:docname="orange-06.svg" inkscape:version="0.92.3 (2405546, 2018-03-11)" id="svg8" viewBox="0 0 19.0499989417 19.0499989417" height="53.999997pt" width="53.999997pt"><sodipodi:namedview inkscape:bbox-nodes="true" inkscape:snap-bbox="false" inkscape:lockguides="true" inkscape:snap-to-guides="true" inkscape:measure-end="-194.588,381.008" inkscape:measure-start="-144.62,344.012" inkscape:snap-nodes="false" inkscape:guide-bbox="true" showguides="true" inkscape:snap-text-baseline="true" inkscape:snap-midpoints="false" inkscape:object-paths="false" inkscape:snap-others="true" inkscape:object-nodes="true" inkscape:snap-intersection-paths="false" inkscape:snap-grids="true" inkscape:window-maximized="1" inkscape:window-y="43" inkscape:window-x="1909" inkscape:window-height="940" inkscape:window-width="1280" inkscape:snap-smooth-nodes="false" inkscape:snap-center="true" inkscape:snap-object-midpoints="true" units="pt" showgrid="true" inkscape:current-layer="layer3" inkscape:document-units="pt" inkscape:cy="540.00004" inkscape:cx="2096.6909" inkscape:zoom="0.30373833" inkscape:pageshadow="2" inkscape:pageopacity="0.0" borderopacity="1.0" bordercolor="#666666" pagecolor="#ffffff" id="base">
    <inkscape:grid originy="0" originx="0" spacingy="1.5875" spacingx="1.5875" units="pt" id="grid10" type="xygrid" visible="true"/>
  </sodipodi:namedview>
  <metadata id="metadata5">
    <rdf:RDF>
      <cc:Work rdf:about="">
        <dc:format>image/svg+xml</dc:format>
        <dc:type rdf:resource="http://purl.org/dc/dcmitype/StillImage"/>
        <dc:title/>
      </cc:Work>
    </rdf:RDF>
  </metadata>
  <g inkscape:groupmode="layer" inkscape:label="orange-" transform="matrix(1.000000,0.000000,0.000000,1.000000,-177.800000,-152.400008)"><g id="g11410" inkscape:label="06">
      <rect style="opacity:1;fill:#ffffff;fill-opacity:1;stroke:none;stroke-width:0.70555556;stroke-linecap:butt;stroke-linejoin:miter;stroke-miterlimit:47.14606857;stroke-dasharray:none;stroke-dashoffset:0;stroke-opacity:1;paint-order:markers fill stroke" id="rect5087" width="19.049999" height="19.049999" x="177.8" y="152.40001"/>
      <path inkscape:connector-curvature="0" id="path9466" d="m 122.23749,164.30625 a 3.9687495,3.9687495 0 0 0 -3.96875,3.96875 3.9687495,3.9687495 0 0 0 3.96875,3.96875 3.9687495,3.9687495 0 0 0 3.96875,-3.96875 3.9687495,3.9687495 0 0 0 -3.96875,-3.96875 z m 0,0.44097 a 3.5277744,3.5277744 0 0 1 3.52778,3.52778 3.5277744,3.5277744 0 0 1 -3.52778,3.52778 3.5277744,3.5277744 0 0 1 -3.52778,-3.52778 3.5277744,3.5277744 0 0 1 3.52778,-3.52778 z m -0.88194,0.88195 v 1.76389 h -1.76389 v 1.76389 h 1.76389 v 1.76388 h 1.76389 v -1.76388 h 1.76388 v -1.76389 h -1.76388 v -1.76389 z" style="display:inline;opacity:1;fill:#f58231;fill-opacity:1;stroke:none;stroke-width:0.1763889;stroke-linecap:butt;stroke-linejoin:miter;stroke-miterlimit:4;stroke-dasharray:none;stroke-dashoffset:0;stroke-opacity:1;paint-order:fill markers stroke" transform="translate(69.850014,-6.3499932)"/>
      <g id="text5367" style="font-style:normal;font-variant:normal;font-weight:normal;font-stretch:normal;font-size:12.70000076px;line-height:100%;font-family:'Stint Ultra Condensed';-inkscape-font-specification:'Stint Ultra Condensed, ';font-variant-ligatures:normal;font-variant-caps:normal;font-variant-numeric:normal;text-align:center;letter-spacing:0px;word-spacing:0px;writing-mode:lr-tb;text-anchor:middle;display:inline;fill:#f58231;fill-opacity:1;stroke:none;stroke-width:0.26458335" aria-label="6">
        <path id="path9994" style="font-style:normal;font-variant:normal;font-weight:normal;font-stretch:normal;font-size:14.11111164px;font-family:'Stint Ultra Condensed';-inkscape-font-specification:'Stint Ultra Condensed, ';text-align:center;text-anchor:middle;fill:#f58231;fill-opacity:1;stroke-width:0.26458335" d="m 182.37786,161.77479 q 0.0482,-0.12402 0.1378,-0.31695 0.0965,-0.19292 0.24805,-0.37207 0.15847,-0.18603 0.37896,-0.31005 0.22048,-0.13092 0.52365,-0.13092 0.33762,0 0.6339,0.19293 0.29628,0.19292 0.50987,0.57877 0.22049,0.38585 0.34451,0.97152 0.13092,0.57878 0.13092,1.36426 0,0.64768 -0.12403,1.21956 -0.11713,0.565 -0.34451,0.99219 -0.22737,0.4203 -0.5581,0.66835 -0.33073,0.24116 -0.75103,0.24116 -0.42031,0 -0.78549,-0.2825 -0.35829,-0.28939 -0.627,-0.86128 -0.26872,-0.57877 -0.42719,-1.44694 -0.15159,-0.86816 -0.15159,-2.03949 0,-1.1989 0.11713,-2.15663 0.11714,-0.96463 0.35829,-1.63987 0.24805,-0.67524 0.62012,-1.03353 0.37896,-0.36518 0.89573,-0.36518 0.33073,0 0.627,0.18604 0.29628,0.17914 0.51677,0.53743 0.22737,0.35829 0.3514,0.89573 0.13091,0.53054 0.13091,1.23334 h -0.84749 q 0,-1.02664 -0.20671,-1.56407 -0.19981,-0.53744 -0.61322,-0.53744 -0.28939,0 -0.4961,0.32384 -0.2067,0.31695 -0.33762,0.86128 -0.13091,0.54432 -0.19292,1.26779 -0.062,0.71658 -0.062,1.52273 z m 1.11621,-0.37896 q -0.2136,0 -0.38585,0.19982 -0.17226,0.19981 -0.31006,0.4892 -0.13092,0.28939 -0.22049,0.62012 -0.0896,0.33073 -0.13091,0.59256 -0.0138,0.51676 0.0551,1.01974 0.0758,0.50299 0.21359,0.90951 0.1447,0.39963 0.34451,0.64768 0.20671,0.24804 0.44787,0.24804 0.22048,0 0.39274,-0.16536 0.17225,-0.17226 0.28939,-0.48231 0.11713,-0.31006 0.17225,-0.74414 0.062,-0.44098 0.062,-0.97841 0,-0.55122 -0.0551,-0.9853 -0.0551,-0.44097 -0.17225,-0.74414 -0.11025,-0.30317 -0.28939,-0.46164 -0.17226,-0.16537 -0.41341,-0.16537 z"/>
      </g>
    </g>
    </g></svg>
