<?xml version='1.0' encoding='UTF-8'?>
<!-- Created with Inkscape (http://www.inkscape.org/) and export_objects.py -->
<svg xmlns:cc="http://creativecommons.org/ns#" xmlns:dc="http://purl.org/dc/elements/1.1/" xmlns:inkscape="http://www.inkscape.org/namespaces/inkscape" xmlns:rdf="http://www.w3.org/1999/02/22-rdf-syntax-ns#" xmlns:sodipodi="http://sodipodi.sourceforge.net/DTD/sodipodi-0.dtd" xmlns:xlink="http://www.w3.org/1999/xlink" xmlns="http://www.w3.org/2000/svg" version="1.1" sodipodi:docname="orange-13.svg" inkscape:version="0.92.3 (2405546, 2018-03-11)" id="svg8" viewBox="0 0 19.0499989417 19.0499989417" height="53.999997pt" width="53.999997pt"><sodipodi:namedview inkscape:bbox-nodes="true" inkscape:snap-bbox="false" inkscape:lockguides="true" inkscape:snap-to-guides="true" inkscape:measure-end="-194.588,381.008" inkscape:measure-start="-144.62,344.012" inkscape:snap-nodes="false" inkscape:guide-bbox="true" showguides="true" inkscape:snap-text-baseline="true" inkscape:snap-midpoints="false" inkscape:object-paths="false" inkscape:snap-others="true" inkscape:object-nodes="true" inkscape:snap-intersection-paths="false" inkscape:snap-grids="true" inkscape:window-maximized="1" inkscape:window-y="43" inkscape:window-x="1909" inkscape:window-height="940" inkscape:window-width="1280" inkscape:snap-smooth-nodes="false" inkscape:snap-center="true" inkscape:snap-object-midpoints="true" units="pt" showgrid="true" inkscape:current-layer="layer3" inkscape:document-units="pt" inkscape:cy="540.00004" inkscape:cx="2096.6909" inkscape:zoom="0.30373833" inkscape:pageshadow="2" inkscape:pageopacity="0.0" borderopacity="1.0" bordercolor="#666666" pagecolor="#ffffff" id="base">
    <inkscape:grid originy="0" originx="0" spacingy="1.5875" spacingx="1.5875" units="pt" id="grid10" type="xygrid" visible="true"/>
  </sodipodi:namedview>
  <metadata id="metadata5">
    <rdf:RDF>
      <cc:Work rdf:about="">
        <dc:format>image/svg+xml</dc:format>
        <dc:type rdf:resource="http://purl.org/dc/dcmitype/StillImage"/>
        <dc:title/>
      </cc:Work>
    </rdf:RDF>
  </metadata>
  <g inkscape:groupmode="layer" inkscape:label="orange-" transform="matrix(1.000000,0.000000,0.000000,1.000000,-355.600000,-152.400008)"><g id="g11470" inkscape:label="13">
      <rect y="152.40001" x="355.60001" height="19.049999" width="19.049999" id="rect5101" style="opacity:1;fill:#ffffff;fill-opacity:1;stroke:none;stroke-width:0.70555556;stroke-linecap:butt;stroke-linejoin:miter;stroke-miterlimit:47.14606857;stroke-dasharray:none;stroke-dashoffset:0;stroke-opacity:1;paint-order:markers fill stroke"/>
      <path style="display:inline;opacity:1;fill:#f58231;fill-opacity:1;stroke:none;stroke-width:0.1763889;stroke-linecap:butt;stroke-linejoin:miter;stroke-miterlimit:4;stroke-dasharray:none;stroke-dashoffset:0;stroke-opacity:1;paint-order:fill markers stroke" d="m 300.03749,164.30625 a 3.9687495,3.9687495 0 0 0 -3.96875,3.96875 3.9687495,3.9687495 0 0 0 3.96875,3.96875 3.9687495,3.9687495 0 0 0 3.96875,-3.96875 3.9687495,3.9687495 0 0 0 -3.96875,-3.96875 z m 0,0.44097 a 3.5277744,3.5277744 0 0 1 3.52778,3.52778 3.5277744,3.5277744 0 0 1 -3.52778,3.52778 3.5277744,3.5277744 0 0 1 -3.52778,-3.52778 3.5277744,3.5277744 0 0 1 3.52778,-3.52778 z m -0.88194,0.88195 v 1.76389 h -1.76389 v 1.76389 h 1.76389 v 1.76388 h 1.76389 v -1.76388 h 1.76388 v -1.76389 h -1.76388 v -1.76389 z" id="path9522" inkscape:connector-curvature="0" transform="translate(69.850014,-6.3499932)"/>
      <g id="text5395" style="font-style:normal;font-variant:normal;font-weight:normal;font-stretch:normal;font-size:12.70000076px;line-height:100%;font-family:'Stint Ultra Condensed';-inkscape-font-specification:'Stint Ultra Condensed, ';font-variant-ligatures:normal;font-variant-caps:normal;font-variant-numeric:normal;text-align:center;letter-spacing:0px;word-spacing:0px;writing-mode:lr-tb;text-anchor:middle;display:inline;fill:#f58231;fill-opacity:1;stroke:none;stroke-width:0.26458335" aria-label="13">
        <path id="path9965" style="font-style:normal;font-variant:normal;font-weight:normal;font-stretch:normal;font-size:14.11111164px;font-family:'Stint Ultra Condensed';-inkscape-font-specification:'Stint Ultra Condensed, ';text-align:center;text-anchor:middle;fill:#f58231;fill-opacity:1;stroke-width:0.26458335" d="m 357.81451,165.90891 h 0.91639 v -7.93061 l -1.12999,0.70969 v -0.76481 l 1.12999,-0.7028 h 0.8475 v 8.68853 h 0.91639 v 0.77859 h -2.68028 z"/>
        <path id="path9967" style="font-style:normal;font-variant:normal;font-weight:normal;font-stretch:normal;font-size:14.11111164px;font-family:'Stint Ultra Condensed';-inkscape-font-specification:'Stint Ultra Condensed, ';text-align:center;text-anchor:middle;fill:#f58231;fill-opacity:1;stroke-width:0.26458335" d="m 362.83746,160.80328 q 0.55121,0.1378 0.87505,0.47542 0.33073,0.33073 0.49609,0.75792 0.17226,0.4203 0.22049,0.88195 0.0551,0.45475 0.0551,0.83371 0,0.74414 -0.13091,1.32981 -0.13091,0.57877 -0.37896,0.9784 -0.24805,0.39963 -0.59945,0.60634 -0.34451,0.20671 -0.77859,0.20671 -0.36518,0 -0.68902,-0.17915 -0.31695,-0.17225 -0.5581,-0.565 -0.24116,-0.39274 -0.37897,-1.01285 -0.1378,-0.62701 -0.1378,-1.52274 h 0.84749 q 0,1.31603 0.23427,1.92237 0.23427,0.60633 0.72347,0.60633 0.26872,0 0.45475,-0.18603 0.18604,-0.19293 0.29628,-0.51677 0.11714,-0.32383 0.16537,-0.75103 0.0551,-0.42719 0.0551,-0.90261 0,-0.51677 -0.0827,-0.93707 -0.0827,-0.42719 -0.26872,-0.73036 -0.17915,-0.30317 -0.47542,-0.46853 -0.29628,-0.17226 -0.72348,-0.17915 v -0.74414 l 1.41249,-2.70095 h -1.70876 v 1.48828 h -0.75103 v -2.27376 h 3.43131 v 0.59255 z"/>
      </g>
    </g>
    </g></svg>
