<?xml version='1.0' encoding='UTF-8'?>
<!-- Created with Inkscape (http://www.inkscape.org/) and export_objects.py -->
<svg xmlns:cc="http://creativecommons.org/ns#" xmlns:dc="http://purl.org/dc/elements/1.1/" xmlns:inkscape="http://www.inkscape.org/namespaces/inkscape" xmlns:rdf="http://www.w3.org/1999/02/22-rdf-syntax-ns#" xmlns:sodipodi="http://sodipodi.sourceforge.net/DTD/sodipodi-0.dtd" xmlns:xlink="http://www.w3.org/1999/xlink" xmlns="http://www.w3.org/2000/svg" version="1.1" sodipodi:docname="orange-00.svg" inkscape:version="0.92.3 (2405546, 2018-03-11)" id="svg8" viewBox="0 0 19.0499989417 19.0499989417" height="53.999997pt" width="53.999997pt"><sodipodi:namedview inkscape:bbox-nodes="true" inkscape:snap-bbox="false" inkscape:lockguides="true" inkscape:snap-to-guides="true" inkscape:measure-end="-194.588,381.008" inkscape:measure-start="-144.62,344.012" inkscape:snap-nodes="false" inkscape:guide-bbox="true" showguides="true" inkscape:snap-text-baseline="true" inkscape:snap-midpoints="false" inkscape:object-paths="false" inkscape:snap-others="true" inkscape:object-nodes="true" inkscape:snap-intersection-paths="false" inkscape:snap-grids="true" inkscape:window-maximized="1" inkscape:window-y="43" inkscape:window-x="1909" inkscape:window-height="940" inkscape:window-width="1280" inkscape:snap-smooth-nodes="false" inkscape:snap-center="true" inkscape:snap-object-midpoints="true" units="pt" showgrid="true" inkscape:current-layer="layer3" inkscape:document-units="pt" inkscape:cy="540.00004" inkscape:cx="2096.6909" inkscape:zoom="0.30373833" inkscape:pageshadow="2" inkscape:pageopacity="0.0" borderopacity="1.0" bordercolor="#666666" pagecolor="#ffffff" id="base">
    <inkscape:grid originy="0" originx="0" spacingy="1.5875" spacingx="1.5875" units="pt" id="grid10" type="xygrid" visible="true"/>
  </sodipodi:namedview>
  <metadata id="metadata5">
    <rdf:RDF>
      <cc:Work rdf:about="">
        <dc:format>image/svg+xml</dc:format>
        <dc:type rdf:resource="http://purl.org/dc/dcmitype/StillImage"/>
        <dc:title/>
      </cc:Work>
    </rdf:RDF>
  </metadata>
  <g inkscape:groupmode="layer" inkscape:label="orange-" transform="matrix(1.000000,0.000000,0.000000,1.000000,-25.400003,-152.399992)"><g id="g10836" inkscape:label="00">
      <rect style="opacity:1;fill:#ffffff;fill-opacity:1;stroke:none;stroke-width:0.70555556;stroke-linecap:butt;stroke-linejoin:miter;stroke-miterlimit:47.14606857;stroke-dasharray:none;stroke-dashoffset:0;stroke-opacity:1;paint-order:markers fill stroke" id="rect5019" width="19.049999" height="19.049999" x="25.400003" y="152.39999"/>
      <path inkscape:connector-curvature="0" id="circle6642" d="m -30.162514,164.30625 a 3.9687495,3.9687495 0 0 0 -3.96875,3.96875 3.9687495,3.9687495 0 0 0 3.96875,3.96875 3.9687495,3.9687495 0 0 0 3.96875,-3.96875 3.9687495,3.9687495 0 0 0 -3.96875,-3.96875 z m 0,0.44097 a 3.5277744,3.5277744 0 0 1 3.52778,3.52778 3.5277744,3.5277744 0 0 1 -3.52778,3.52778 3.5277744,3.5277744 0 0 1 -3.52778,-3.52778 3.5277744,3.5277744 0 0 1 3.52778,-3.52778 z m -0.88194,0.88195 v 1.76389 h -1.76389 v 1.76389 h 1.76389 v 1.76388 h 1.76389 v -1.76388 h 1.76388 v -1.76389 h -1.76388 v -1.76389 z" style="display:inline;opacity:1;fill:#f58231;fill-opacity:1;stroke:none;stroke-width:0.1763889;stroke-linecap:butt;stroke-linejoin:miter;stroke-miterlimit:4;stroke-dasharray:none;stroke-dashoffset:0;stroke-opacity:1;paint-order:fill markers stroke" transform="translate(69.850014,-6.3499932)"/>
      <g id="text5343" style="font-style:normal;font-variant:normal;font-weight:normal;font-stretch:normal;font-size:12.70000076px;line-height:100%;font-family:'Stint Ultra Condensed';-inkscape-font-specification:'Stint Ultra Condensed, ';font-variant-ligatures:normal;font-variant-caps:normal;font-variant-numeric:normal;text-align:center;letter-spacing:0px;word-spacing:0px;writing-mode:lr-tb;text-anchor:middle;display:inline;fill:#f58231;fill-opacity:1;stroke:none;stroke-width:0.26458335" aria-label="0">
        <path id="path10012" style="font-style:normal;font-variant:normal;font-weight:normal;font-stretch:normal;font-size:14.11111164px;font-family:'Stint Ultra Condensed';-inkscape-font-specification:'Stint Ultra Condensed, ';text-align:center;text-anchor:middle;fill:#f58231;fill-opacity:1;stroke-width:0.26458335" d="m 32.961297,161.96083 q 0,1.29535 -0.151584,2.22553 -0.151585,0.93018 -0.420302,1.52962 -0.268718,0.59256 -0.640788,0.87506 -0.36518,0.2825 -0.792372,0.2825 -0.434082,0 -0.806152,-0.2825 -0.36518,-0.2825 -0.640788,-0.87506 -0.268717,-0.59944 -0.420302,-1.52962 -0.151584,-0.93018 -0.151584,-2.22553 0,-1.28847 0.151584,-2.21864 0.151585,-0.93018 0.420302,-1.52963 0.275608,-0.59944 0.640788,-0.88194 0.37207,-0.2825 0.806152,-0.2825 0.427192,0 0.792372,0.2825 0.37207,0.2825 0.640788,0.88194 0.268717,0.59945 0.420302,1.52963 0.151584,0.93017 0.151584,2.21864 z m -0.875054,0 q 0,-1.10932 -0.08957,-1.8948 -0.08268,-0.79238 -0.234266,-1.29536 -0.151585,-0.50298 -0.35829,-0.73725 -0.206706,-0.23427 -0.447863,-0.23427 -0.241157,0 -0.454752,0.23427 -0.206706,0.23427 -0.365181,0.73725 -0.151584,0.50298 -0.241156,1.29536 -0.08268,0.78548 -0.08268,1.8948 0,1.10932 0.08268,1.90169 0.08957,0.78548 0.241156,1.28847 0.158475,0.50298 0.365181,0.73725 0.213595,0.23426 0.454752,0.23426 0.241157,0 0.447863,-0.23426 0.206705,-0.23427 0.35829,-0.73725 0.151584,-0.50988 0.234266,-1.29536 0.08957,-0.78548 0.08957,-1.8948 z"/>
      </g>
    </g>
    </g></svg>
