<?xml version='1.0' encoding='UTF-8'?>
<!-- Created with Inkscape (http://www.inkscape.org/) and export_objects.py -->
<svg xmlns:cc="http://creativecommons.org/ns#" xmlns:dc="http://purl.org/dc/elements/1.1/" xmlns:inkscape="http://www.inkscape.org/namespaces/inkscape" xmlns:rdf="http://www.w3.org/1999/02/22-rdf-syntax-ns#" xmlns:sodipodi="http://sodipodi.sourceforge.net/DTD/sodipodi-0.dtd" xmlns:xlink="http://www.w3.org/1999/xlink" xmlns="http://www.w3.org/2000/svg" version="1.1" sodipodi:docname="purple-03.svg" inkscape:version="0.92.3 (2405546, 2018-03-11)" id="svg8" viewBox="0 0 19.0499989417 19.0499989417" height="53.999997pt" width="53.999997pt"><sodipodi:namedview inkscape:bbox-nodes="true" inkscape:snap-bbox="false" inkscape:lockguides="true" inkscape:snap-to-guides="true" inkscape:measure-end="-194.588,381.008" inkscape:measure-start="-144.62,344.012" inkscape:snap-nodes="false" inkscape:guide-bbox="true" showguides="true" inkscape:snap-text-baseline="true" inkscape:snap-midpoints="false" inkscape:object-paths="false" inkscape:snap-others="true" inkscape:object-nodes="true" inkscape:snap-intersection-paths="false" inkscape:snap-grids="true" inkscape:window-maximized="1" inkscape:window-y="43" inkscape:window-x="1909" inkscape:window-height="940" inkscape:window-width="1280" inkscape:snap-smooth-nodes="false" inkscape:snap-center="true" inkscape:snap-object-midpoints="true" units="pt" showgrid="true" inkscape:current-layer="layer3" inkscape:document-units="pt" inkscape:cy="540.00004" inkscape:cx="1534.1159" inkscape:zoom="0.30373833" inkscape:pageshadow="2" inkscape:pageopacity="0.0" borderopacity="1.0" bordercolor="#666666" pagecolor="#ffffff" id="base">
    <inkscape:grid originy="0" originx="0" spacingy="1.5875" spacingx="1.5875" units="pt" id="grid10" type="xygrid" visible="true"/>
  </sodipodi:namedview>
  <metadata id="metadata5">
    <rdf:RDF>
      <cc:Work rdf:about="">
        <dc:format>image/svg+xml</dc:format>
        <dc:type rdf:resource="http://purl.org/dc/dcmitype/StillImage"/>
        <dc:title/>
      </cc:Work>
    </rdf:RDF>
  </metadata>
  <g inkscape:groupmode="layer" inkscape:label="purple-" transform="matrix(1.000000,0.000000,0.000000,1.000000,-101.599997,-177.800000)"><g id="g10908" inkscape:label="03">
      <rect y="177.8" x="101.6" height="19.049999" width="19.049999" id="rect5133" style="opacity:1;fill:#ffffff;fill-opacity:1;stroke:none;stroke-width:0.70555556;stroke-linecap:butt;stroke-linejoin:miter;stroke-miterlimit:47.14606857;stroke-dasharray:none;stroke-dashoffset:0;stroke-opacity:1;paint-order:markers fill stroke"/>
      <path style="display:inline;opacity:1;fill:#50056b;fill-opacity:1;stroke:none;stroke-width:0.1763889;stroke-linecap:butt;stroke-linejoin:miter;stroke-miterlimit:4;stroke-dasharray:none;stroke-dashoffset:0;stroke-opacity:1;paint-order:fill markers stroke" d="m 42.509706,190.14722 v 7.05556 h 7.05556 v -7.05556 z m 2.64583,0.88195 h 1.76389 v 1.76389 h 1.76389 v 1.76389 h -1.76389 v 1.76389 h -1.76389 v -1.76389 h -1.76388 v -1.76389 h 1.76388 z" id="path9438" inkscape:connector-curvature="0" transform="translate(69.850014,-6.3499932)"/>
      <g id="text5463" style="font-style:normal;font-variant:normal;font-weight:normal;font-stretch:normal;font-size:12.70000076px;line-height:100%;font-family:'Stint Ultra Condensed';-inkscape-font-specification:'Stint Ultra Condensed, ';font-variant-ligatures:normal;font-variant-caps:normal;font-variant-numeric:normal;text-align:center;letter-spacing:0px;word-spacing:0px;writing-mode:lr-tb;text-anchor:middle;display:inline;fill:#50056b;fill-opacity:1;stroke:none;stroke-width:0.26458335" aria-label="3">
        <path id="path9888" style="font-style:normal;font-variant:normal;font-weight:normal;font-stretch:normal;font-size:14.11111164px;font-family:'Stint Ultra Condensed';-inkscape-font-specification:'Stint Ultra Condensed, ';text-align:center;text-anchor:middle;fill:#50056b;fill-opacity:1;stroke-width:0.26458335" d="m 107.29405,186.20329 q 0.55122,0.1378 0.87506,0.47542 0.33073,0.33073 0.49609,0.75792 0.17226,0.4203 0.22049,0.88194 0.0551,0.45476 0.0551,0.83372 0,0.74414 -0.13091,1.3298 -0.13092,0.57878 -0.37896,0.97841 -0.24805,0.39963 -0.59945,0.60634 -0.34451,0.2067 -0.77859,0.2067 -0.36518,0 -0.68902,-0.17914 -0.31695,-0.17226 -0.55811,-0.565 -0.24115,-0.39274 -0.37896,-1.01285 -0.1378,-0.62701 -0.1378,-1.52274 h 0.84749 q 0,1.31603 0.23427,1.92237 0.23426,0.60633 0.72347,0.60633 0.26872,0 0.45475,-0.18603 0.18604,-0.19293 0.29628,-0.51677 0.11713,-0.32384 0.16536,-0.75103 0.0551,-0.42719 0.0551,-0.90261 0,-0.51677 -0.0827,-0.93707 -0.0827,-0.42719 -0.26871,-0.73036 -0.17915,-0.30317 -0.47543,-0.46853 -0.29628,-0.17226 -0.72347,-0.17915 v -0.74414 l 1.41249,-2.70095 h -1.70877 v 1.48828 h -0.75103 v -2.27376 h 3.43132 v 0.59255 z"/>
      </g>
    </g>
    </g></svg>
