<?xml version='1.0' encoding='UTF-8'?>
<!-- Created with Inkscape (http://www.inkscape.org/) and export_objects.py -->
<svg xmlns:cc="http://creativecommons.org/ns#" xmlns:dc="http://purl.org/dc/elements/1.1/" xmlns:inkscape="http://www.inkscape.org/namespaces/inkscape" xmlns:rdf="http://www.w3.org/1999/02/22-rdf-syntax-ns#" xmlns:sodipodi="http://sodipodi.sourceforge.net/DTD/sodipodi-0.dtd" xmlns:xlink="http://www.w3.org/1999/xlink" xmlns="http://www.w3.org/2000/svg" version="1.1" sodipodi:docname="purple-20.svg" inkscape:version="0.92.3 (2405546, 2018-03-11)" id="svg8" viewBox="0 0 19.0499989417 19.0499989417" height="53.999997pt" width="53.999997pt"><sodipodi:namedview inkscape:bbox-nodes="true" inkscape:snap-bbox="false" inkscape:lockguides="true" inkscape:snap-to-guides="true" inkscape:measure-end="-194.588,381.008" inkscape:measure-start="-144.62,344.012" inkscape:snap-nodes="false" inkscape:guide-bbox="true" showguides="true" inkscape:snap-text-baseline="true" inkscape:snap-midpoints="false" inkscape:object-paths="false" inkscape:snap-others="true" inkscape:object-nodes="true" inkscape:snap-intersection-paths="false" inkscape:snap-grids="true" inkscape:window-maximized="1" inkscape:window-y="43" inkscape:window-x="1909" inkscape:window-height="940" inkscape:window-width="1280" inkscape:snap-smooth-nodes="false" inkscape:snap-center="true" inkscape:snap-object-midpoints="true" units="pt" showgrid="true" inkscape:current-layer="layer3" inkscape:document-units="pt" inkscape:cy="540.00004" inkscape:cx="1534.1159" inkscape:zoom="0.30373833" inkscape:pageshadow="2" inkscape:pageopacity="0.0" borderopacity="1.0" bordercolor="#666666" pagecolor="#ffffff" id="base">
    <inkscape:grid originy="0" originx="0" spacingy="1.5875" spacingx="1.5875" units="pt" id="grid10" type="xygrid" visible="true"/>
  </sodipodi:namedview>
  <metadata id="metadata5">
    <rdf:RDF>
      <cc:Work rdf:about="">
        <dc:format>image/svg+xml</dc:format>
        <dc:type rdf:resource="http://purl.org/dc/dcmitype/StillImage"/>
        <dc:title/>
      </cc:Work>
    </rdf:RDF>
  </metadata>
  <g inkscape:groupmode="layer" inkscape:label="purple-" transform="matrix(1.000000,0.000000,0.000000,1.000000,-533.399947,-177.800000)"><g id="g12248" inkscape:label="20">
      <rect y="177.8" x="533.39996" height="19.049999" width="19.049999" id="rect5167" style="opacity:1;fill:#ffffff;fill-opacity:1;stroke:none;stroke-width:0.70555556;stroke-linecap:butt;stroke-linejoin:miter;stroke-miterlimit:47.14606857;stroke-dasharray:none;stroke-dashoffset:0;stroke-opacity:1;paint-order:markers fill stroke"/>
      <path style="display:inline;opacity:1;fill:#50056b;fill-opacity:1;stroke:none;stroke-width:0.1763889;stroke-linecap:butt;stroke-linejoin:miter;stroke-miterlimit:4;stroke-dasharray:none;stroke-dashoffset:0;stroke-opacity:1;paint-order:fill markers stroke" d="m 474.30971,190.14722 v 7.05556 h 7.05556 v -7.05556 z m 2.64583,0.88195 h 1.76389 v 1.76389 h 1.76389 v 1.76389 h -1.76389 v 1.76389 h -1.76389 v -1.76389 h -1.76388 v -1.76389 h 1.76388 z" id="path9574" inkscape:connector-curvature="0" transform="translate(69.850014,-6.3499932)"/>
      <g id="text5531" style="font-style:normal;font-variant:normal;font-weight:normal;font-stretch:normal;font-size:12.70000076px;line-height:100%;font-family:'Stint Ultra Condensed';-inkscape-font-specification:'Stint Ultra Condensed, ';font-variant-ligatures:normal;font-variant-caps:normal;font-variant-numeric:normal;text-align:center;letter-spacing:0px;word-spacing:0px;writing-mode:lr-tb;text-anchor:middle;display:inline;fill:#50056b;fill-opacity:1;stroke:none;stroke-width:0.26458335" aria-label="20">
        <path id="path9815" style="font-style:normal;font-variant:normal;font-weight:normal;font-stretch:normal;font-size:14.11111164px;font-family:'Stint Ultra Condensed';-inkscape-font-specification:'Stint Ultra Condensed, ';text-align:center;text-anchor:middle;fill:#50056b;fill-opacity:1;stroke-width:0.26458335" d="m 534.65676,192.08749 v -0.57877 q 0.62012,-0.87506 1.10932,-1.67432 0.49609,-0.80615 0.8406,-1.59163 0.34451,-0.78548 0.52366,-1.59164 0.18603,-0.80615 0.18603,-1.68809 0,-0.34451 -0.0482,-0.66146 -0.0413,-0.31695 -0.1378,-0.55811 -0.0965,-0.24804 -0.26183,-0.39274 -0.16536,-0.15158 -0.39963,-0.15158 -0.43408,0 -0.65457,0.60633 -0.22049,0.60634 -0.22049,1.91548 h -0.87505 q 0,-0.89573 0.14469,-1.51584 0.1447,-0.62701 0.37896,-1.01286 0.24116,-0.39274 0.55122,-0.565 0.31695,-0.17914 0.64768,-0.17914 0.42719,0 0.75103,0.19292 0.32384,0.19293 0.54432,0.53744 0.22049,0.34451 0.33073,0.81993 0.11714,0.47542 0.11714,1.03353 0,1.32291 -0.61323,2.89388 -0.60634,1.56407 -1.85346,3.3693 h 1.83279 v -1.88791 h 0.75103 v 2.68028 z"/>
        <path id="path9817" style="font-style:normal;font-variant:normal;font-weight:normal;font-stretch:normal;font-size:14.11111164px;font-family:'Stint Ultra Condensed';-inkscape-font-specification:'Stint Ultra Condensed, ';text-align:center;text-anchor:middle;fill:#50056b;fill-opacity:1;stroke-width:0.26458335" d="m 543.04212,187.36082 q 0,1.29536 -0.15158,2.22553 -0.15159,0.93018 -0.4203,1.52963 -0.26872,0.59255 -0.64079,0.87505 -0.36518,0.2825 -0.79237,0.2825 -0.43409,0 -0.80616,-0.2825 -0.36518,-0.2825 -0.64078,-0.87505 -0.26872,-0.59945 -0.42031,-1.52963 -0.15158,-0.93017 -0.15158,-2.22553 0,-1.28846 0.15158,-2.21864 0.15159,-0.93017 0.42031,-1.52962 0.2756,-0.59945 0.64078,-0.88195 0.37207,-0.28249 0.80616,-0.28249 0.42719,0 0.79237,0.28249 0.37207,0.2825 0.64079,0.88195 0.26871,0.59945 0.4203,1.52962 0.15158,0.93018 0.15158,2.21864 z m -0.87505,0 q 0,-1.10932 -0.0896,-1.8948 -0.0827,-0.79237 -0.23426,-1.29536 -0.15159,-0.50298 -0.35829,-0.73725 -0.20671,-0.23426 -0.44786,-0.23426 -0.24116,0 -0.45476,0.23426 -0.2067,0.23427 -0.36518,0.73725 -0.15158,0.50299 -0.24115,1.29536 -0.0827,0.78548 -0.0827,1.8948 0,1.10932 0.0827,1.9017 0.0896,0.78548 0.24115,1.28846 0.15848,0.50299 0.36518,0.73725 0.2136,0.23427 0.45476,0.23427 0.24115,0 0.44786,-0.23427 0.2067,-0.23426 0.35829,-0.73725 0.15158,-0.50987 0.23426,-1.29535 0.0896,-0.78549 0.0896,-1.89481 z"/>
      </g>
    </g>
    </g></svg>
