<?xml version='1.0' encoding='UTF-8'?>
<!-- Created with Inkscape (http://www.inkscape.org/) and export_objects.py -->
<svg xmlns:cc="http://creativecommons.org/ns#" xmlns:dc="http://purl.org/dc/elements/1.1/" xmlns:inkscape="http://www.inkscape.org/namespaces/inkscape" xmlns:rdf="http://www.w3.org/1999/02/22-rdf-syntax-ns#" xmlns:sodipodi="http://sodipodi.sourceforge.net/DTD/sodipodi-0.dtd" xmlns:xlink="http://www.w3.org/1999/xlink" xmlns="http://www.w3.org/2000/svg" version="1.1" sodipodi:docname="purple-00.svg" inkscape:version="0.92.3 (2405546, 2018-03-11)" id="svg8" viewBox="0 0 19.0499989417 19.0499989417" height="53.999997pt" width="53.999997pt"><sodipodi:namedview inkscape:bbox-nodes="true" inkscape:snap-bbox="false" inkscape:lockguides="true" inkscape:snap-to-guides="true" inkscape:measure-end="-194.588,381.008" inkscape:measure-start="-144.62,344.012" inkscape:snap-nodes="false" inkscape:guide-bbox="true" showguides="true" inkscape:snap-text-baseline="true" inkscape:snap-midpoints="false" inkscape:object-paths="false" inkscape:snap-others="true" inkscape:object-nodes="true" inkscape:snap-intersection-paths="false" inkscape:snap-grids="true" inkscape:window-maximized="1" inkscape:window-y="43" inkscape:window-x="1909" inkscape:window-height="940" inkscape:window-width="1280" inkscape:snap-smooth-nodes="false" inkscape:snap-center="true" inkscape:snap-object-midpoints="true" units="pt" showgrid="true" inkscape:current-layer="layer3" inkscape:document-units="pt" inkscape:cy="540.00004" inkscape:cx="1534.1159" inkscape:zoom="0.30373833" inkscape:pageshadow="2" inkscape:pageopacity="0.0" borderopacity="1.0" bordercolor="#666666" pagecolor="#ffffff" id="base">
    <inkscape:grid originy="0" originx="0" spacingy="1.5875" spacingx="1.5875" units="pt" id="grid10" type="xygrid" visible="true"/>
  </sodipodi:namedview>
  <metadata id="metadata5">
    <rdf:RDF>
      <cc:Work rdf:about="">
        <dc:format>image/svg+xml</dc:format>
        <dc:type rdf:resource="http://purl.org/dc/dcmitype/StillImage"/>
        <dc:title/>
      </cc:Work>
    </rdf:RDF>
  </metadata>
  <g inkscape:groupmode="layer" inkscape:label="purple-" transform="matrix(1.000000,0.000000,0.000000,1.000000,-25.399999,-177.800000)"><g id="g10884" inkscape:label="00">
      <rect y="177.8" x="25.4" height="19.049999" width="19.049999" id="rect5021" style="opacity:1;fill:#ffffff;fill-opacity:1;stroke:none;stroke-width:0.70555556;stroke-linecap:butt;stroke-linejoin:miter;stroke-miterlimit:47.14606857;stroke-dasharray:none;stroke-dashoffset:0;stroke-opacity:1;paint-order:markers fill stroke"/>
      <path style="display:inline;opacity:1;fill:#50056b;fill-opacity:1;stroke:none;stroke-width:0.1763889;stroke-linecap:butt;stroke-linejoin:miter;stroke-miterlimit:4;stroke-dasharray:none;stroke-dashoffset:0;stroke-opacity:1;paint-order:fill markers stroke" d="m -33.690294,190.14722 v 7.05556 h 7.05556 v -7.05556 z m 2.64583,0.88195 h 1.76389 v 1.76389 h 1.76389 v 1.76389 h -1.76389 v 1.76389 h -1.76389 v -1.76389 h -1.76388 v -1.76389 h 1.76388 z" id="path1488" inkscape:connector-curvature="0" transform="translate(69.850014,-6.3499932)"/>
      <g id="text5451" style="font-style:normal;font-variant:normal;font-weight:normal;font-stretch:normal;font-size:12.70000076px;line-height:100%;font-family:'Stint Ultra Condensed';-inkscape-font-specification:'Stint Ultra Condensed, ';font-variant-ligatures:normal;font-variant-caps:normal;font-variant-numeric:normal;text-align:center;letter-spacing:0px;word-spacing:0px;writing-mode:lr-tb;text-anchor:middle;display:inline;fill:#50056b;fill-opacity:1;stroke:none;stroke-width:0.26458335" aria-label="0">
        <path id="path9897" style="font-style:normal;font-variant:normal;font-weight:normal;font-stretch:normal;font-size:14.11111164px;font-family:'Stint Ultra Condensed';-inkscape-font-specification:'Stint Ultra Condensed, ';text-align:center;text-anchor:middle;fill:#50056b;fill-opacity:1;stroke-width:0.26458335" d="m 32.961297,187.36082 q 0,1.29536 -0.151584,2.22553 -0.151585,0.93018 -0.420302,1.52963 -0.268718,0.59255 -0.640788,0.87505 -0.36518,0.2825 -0.792372,0.2825 -0.434082,0 -0.806152,-0.2825 -0.36518,-0.2825 -0.640788,-0.87505 -0.268717,-0.59945 -0.420302,-1.52963 -0.151584,-0.93017 -0.151584,-2.22553 0,-1.28846 0.151584,-2.21864 0.151585,-0.93017 0.420302,-1.52962 0.275608,-0.59945 0.640788,-0.88195 0.37207,-0.28249 0.806152,-0.28249 0.427192,0 0.792372,0.28249 0.37207,0.2825 0.640788,0.88195 0.268717,0.59945 0.420302,1.52962 0.151584,0.93018 0.151584,2.21864 z m -0.875054,0 q 0,-1.10932 -0.08957,-1.8948 -0.08268,-0.79237 -0.234266,-1.29536 -0.151585,-0.50298 -0.35829,-0.73725 -0.206706,-0.23426 -0.447863,-0.23426 -0.241157,0 -0.454752,0.23426 -0.206706,0.23427 -0.365181,0.73725 -0.151584,0.50299 -0.241156,1.29536 -0.08268,0.78548 -0.08268,1.8948 0,1.10932 0.08268,1.9017 0.08957,0.78548 0.241156,1.28846 0.158475,0.50299 0.365181,0.73725 0.213595,0.23427 0.454752,0.23427 0.241157,0 0.447863,-0.23427 0.206705,-0.23426 0.35829,-0.73725 0.151584,-0.50987 0.234266,-1.29535 0.08957,-0.78549 0.08957,-1.89481 z"/>
      </g>
    </g>
    </g></svg>
