<?xml version='1.0' encoding='UTF-8'?>
<!-- Created with Inkscape (http://www.inkscape.org/) and export_objects.py -->
<svg xmlns:cc="http://creativecommons.org/ns#" xmlns:dc="http://purl.org/dc/elements/1.1/" xmlns:inkscape="http://www.inkscape.org/namespaces/inkscape" xmlns:rdf="http://www.w3.org/1999/02/22-rdf-syntax-ns#" xmlns:sodipodi="http://sodipodi.sourceforge.net/DTD/sodipodi-0.dtd" xmlns:xlink="http://www.w3.org/1999/xlink" xmlns="http://www.w3.org/2000/svg" version="1.1" sodipodi:docname="red-08.svg" inkscape:version="0.92.3 (2405546, 2018-03-11)" id="svg8" viewBox="0 0 19.0499989417 19.0499989417" height="53.999997pt" width="53.999997pt"><sodipodi:namedview inkscape:bbox-nodes="true" inkscape:snap-bbox="false" inkscape:lockguides="true" inkscape:snap-to-guides="true" inkscape:measure-end="-194.588,381.008" inkscape:measure-start="-144.62,344.012" inkscape:snap-nodes="false" inkscape:guide-bbox="true" showguides="true" inkscape:snap-text-baseline="true" inkscape:snap-midpoints="false" inkscape:object-paths="false" inkscape:snap-others="true" inkscape:object-nodes="true" inkscape:snap-intersection-paths="false" inkscape:snap-grids="true" inkscape:window-maximized="1" inkscape:window-y="43" inkscape:window-x="1909" inkscape:window-height="940" inkscape:window-width="1280" inkscape:snap-smooth-nodes="false" inkscape:snap-center="true" inkscape:snap-object-midpoints="true" units="pt" showgrid="true" inkscape:current-layer="layer3" inkscape:document-units="pt" inkscape:cy="540.00004" inkscape:cx="2631.4034" inkscape:zoom="0.30373833" inkscape:pageshadow="2" inkscape:pageopacity="0.0" borderopacity="1.0" bordercolor="#666666" pagecolor="#ffffff" id="base">
    <inkscape:grid originy="0" originx="0" spacingy="1.5875" spacingx="1.5875" units="pt" id="grid10" type="xygrid" visible="true"/>
  </sodipodi:namedview>
  <metadata id="metadata5">
    <rdf:RDF>
      <cc:Work rdf:about="">
        <dc:format>image/svg+xml</dc:format>
        <dc:type rdf:resource="http://purl.org/dc/dcmitype/StillImage"/>
        <dc:title/>
      </cc:Work>
    </rdf:RDF>
  </metadata>
  <g inkscape:groupmode="layer" inkscape:label="red-" transform="matrix(1.000000,0.000000,0.000000,1.000000,-228.600003,-50.800003)"><g id="g11082" inkscape:label="08">
      <rect style="opacity:1;fill:#ffffff;fill-opacity:1;stroke:none;stroke-width:0.70555556;stroke-linecap:butt;stroke-linejoin:miter;stroke-miterlimit:47.14606857;stroke-dasharray:none;stroke-dashoffset:0;stroke-opacity:1;paint-order:markers fill stroke" id="rect2634" width="19.049999" height="19.049999" x="228.60001" y="50.800003"/>
      <path style="display:inline;opacity:1;fill:#a5180e;fill-opacity:1;stroke:none;stroke-width:0.1763889;stroke-linecap:butt;stroke-linejoin:miter;stroke-miterlimit:4;stroke-dasharray:none;stroke-dashoffset:0;stroke-opacity:1;paint-order:fill markers stroke" d="m 169.50971,63.147211 v 7.05556 h 7.05556 v -7.05556 z m 0.44097,0.44098 h 6.17361 v 6.17361 h -6.17361 z m 2.20486,0.44097 v 1.76389 h -1.76388 v 1.76389 h 1.76388 v 1.76389 h 1.76389 v -1.76389 h 1.76389 v -1.76389 h -1.76389 v -1.76389 z" id="path3336" inkscape:connector-curvature="0" transform="translate(69.850014,-6.3499932)"/>
      <g id="text2708" style="font-style:normal;font-variant:normal;font-weight:normal;font-stretch:normal;font-size:12.70000076px;line-height:100%;font-family:'Stint Ultra Condensed';-inkscape-font-specification:'Stint Ultra Condensed, ';font-variant-ligatures:normal;font-variant-caps:normal;font-variant-numeric:normal;text-align:center;letter-spacing:0px;word-spacing:0px;writing-mode:lr-tb;text-anchor:middle;display:inline;fill:#a5180e;fill-opacity:1;stroke:none;stroke-width:0.26458335" aria-label="8">
        <path id="path10448" style="font-style:normal;font-variant:normal;font-weight:normal;font-stretch:normal;font-size:14.11111164px;font-family:'Stint Ultra Condensed';-inkscape-font-specification:'Stint Ultra Condensed, ';text-align:center;text-anchor:middle;fill:#a5180e;fill-opacity:1;stroke-width:0.26458335" d="m 234.8315,59.919858 q 0.62701,0.234267 0.93707,0.909505 0.31695,0.675239 0.31695,1.674317 0,0.613227 -0.13091,1.123101 -0.13092,0.509874 -0.37897,0.875054 -0.24804,0.36518 -0.60633,0.571886 -0.35829,0.199816 -0.81304,0.199816 -0.45476,0 -0.81305,-0.199816 -0.35829,-0.206706 -0.61322,-0.571886 -0.24805,-0.36518 -0.37896,-0.875054 -0.13092,-0.509874 -0.13092,-1.123101 0,-0.496094 0.0827,-0.923286 0.0827,-0.427192 0.24116,-0.757921 0.15847,-0.337619 0.39274,-0.571886 0.23427,-0.241156 0.53744,-0.35829 -0.24805,-0.144694 -0.43409,-0.37207 -0.17914,-0.234266 -0.30316,-0.502984 -0.11714,-0.275608 -0.17915,-0.578776 -0.0551,-0.303168 -0.0551,-0.592556 0,-0.530545 0.11713,-0.971517 0.11714,-0.440973 0.33073,-0.757921 0.22049,-0.316949 0.52366,-0.489204 0.30316,-0.179145 0.66834,-0.179145 0.36519,0 0.66835,0.179145 0.30317,0.172255 0.52366,0.489204 0.22048,0.316948 0.34451,0.757921 0.12402,0.440972 0.12402,0.971517 0,0.289388 -0.062,0.599446 -0.0551,0.303169 -0.17915,0.585666 -0.11713,0.275608 -0.30316,0.509875 -0.17915,0.234266 -0.4272,0.37896 z m 0.12403,-2.025716 q 0,-0.337619 -0.0482,-0.647678 -0.0413,-0.310059 -0.13781,-0.544325 -0.0896,-0.241157 -0.24804,-0.378961 -0.15159,-0.137804 -0.36518,-0.137804 -0.22049,0 -0.37897,0.137804 -0.15158,0.137804 -0.24804,0.378961 -0.0965,0.234266 -0.13781,0.544325 -0.0413,0.310059 -0.0413,0.647678 0,0.337619 0.0482,0.647678 0.0482,0.310058 0.1447,0.544325 0.10335,0.234266 0.25494,0.37207 0.15158,0.137804 0.35829,0.137804 0.2067,0 0.35829,-0.137804 0.15158,-0.137804 0.24804,-0.37207 0.0965,-0.234267 0.1447,-0.544325 0.0482,-0.310059 0.0482,-0.647678 z m -0.79926,2.397786 q -0.50299,0 -0.78549,0.558106 -0.2756,0.558105 -0.2756,1.557183 0,0.992188 0.26871,1.564074 0.26872,0.564995 0.79238,0.564995 0.51676,0 0.78548,-0.564995 0.26871,-0.571886 0.26871,-1.564074 0,-0.496094 -0.0758,-0.888835 -0.0689,-0.39274 -0.2067,-0.661458 -0.13781,-0.275608 -0.33762,-0.420302 -0.19293,-0.144694 -0.43408,-0.144694 z"/>
      </g>
    </g>
    </g></svg>
