<?xml version='1.0' encoding='UTF-8'?>
<!-- Created with Inkscape (http://www.inkscape.org/) and export_objects.py -->
<svg xmlns:cc="http://creativecommons.org/ns#" xmlns:dc="http://purl.org/dc/elements/1.1/" xmlns:inkscape="http://www.inkscape.org/namespaces/inkscape" xmlns:rdf="http://www.w3.org/1999/02/22-rdf-syntax-ns#" xmlns:sodipodi="http://sodipodi.sourceforge.net/DTD/sodipodi-0.dtd" xmlns:xlink="http://www.w3.org/1999/xlink" xmlns="http://www.w3.org/2000/svg" version="1.1" sodipodi:docname="red-06.svg" inkscape:version="0.92.3 (2405546, 2018-03-11)" id="svg8" viewBox="0 0 19.0499989417 19.0499989417" height="53.999997pt" width="53.999997pt"><sodipodi:namedview inkscape:bbox-nodes="true" inkscape:snap-bbox="false" inkscape:lockguides="true" inkscape:snap-to-guides="true" inkscape:measure-end="-194.588,381.008" inkscape:measure-start="-144.62,344.012" inkscape:snap-nodes="false" inkscape:guide-bbox="true" showguides="true" inkscape:snap-text-baseline="true" inkscape:snap-midpoints="false" inkscape:object-paths="false" inkscape:snap-others="true" inkscape:object-nodes="true" inkscape:snap-intersection-paths="false" inkscape:snap-grids="true" inkscape:window-maximized="1" inkscape:window-y="43" inkscape:window-x="1909" inkscape:window-height="940" inkscape:window-width="1280" inkscape:snap-smooth-nodes="false" inkscape:snap-center="true" inkscape:snap-object-midpoints="true" units="pt" showgrid="true" inkscape:current-layer="layer3" inkscape:document-units="pt" inkscape:cy="540.00004" inkscape:cx="2631.4034" inkscape:zoom="0.30373833" inkscape:pageshadow="2" inkscape:pageopacity="0.0" borderopacity="1.0" bordercolor="#666666" pagecolor="#ffffff" id="base">
    <inkscape:grid originy="0" originx="0" spacingy="1.5875" spacingx="1.5875" units="pt" id="grid10" type="xygrid" visible="true"/>
  </sodipodi:namedview>
  <metadata id="metadata5">
    <rdf:RDF>
      <cc:Work rdf:about="">
        <dc:format>image/svg+xml</dc:format>
        <dc:type rdf:resource="http://purl.org/dc/dcmitype/StillImage"/>
        <dc:title/>
      </cc:Work>
    </rdf:RDF>
  </metadata>
  <g inkscape:groupmode="layer" inkscape:label="red-" transform="matrix(1.000000,0.000000,0.000000,1.000000,-177.800000,-50.800005)"><g id="g11066" inkscape:label="06">
      <rect y="50.800007" x="177.8" height="19.049999" width="19.049999" id="rect2630" style="opacity:1;fill:#ffffff;fill-opacity:1;stroke:none;stroke-width:0.70555556;stroke-linecap:butt;stroke-linejoin:miter;stroke-miterlimit:47.14606857;stroke-dasharray:none;stroke-dashoffset:0;stroke-opacity:1;paint-order:markers fill stroke"/>
      <path inkscape:connector-curvature="0" id="path3328" d="m 118.7097,63.147213 v 7.05556 h 7.05556 v -7.05556 z m 0.44097,0.44098 h 6.17361 v 6.17361 h -6.17361 z m 2.20486,0.44097 v 1.76389 h -1.76388 v 1.76389 h 1.76388 v 1.76389 h 1.76389 v -1.76389 h 1.76389 v -1.76389 h -1.76389 v -1.76389 z" style="display:inline;opacity:1;fill:#a5180e;fill-opacity:1;stroke:none;stroke-width:0.1763889;stroke-linecap:butt;stroke-linejoin:miter;stroke-miterlimit:4;stroke-dasharray:none;stroke-dashoffset:0;stroke-opacity:1;paint-order:fill markers stroke" transform="translate(69.850014,-6.3499932)"/>
      <g id="text2700" style="font-style:normal;font-variant:normal;font-weight:normal;font-stretch:normal;font-size:12.70000076px;line-height:100%;font-family:'Stint Ultra Condensed';-inkscape-font-specification:'Stint Ultra Condensed, ';font-variant-ligatures:normal;font-variant-caps:normal;font-variant-numeric:normal;text-align:center;letter-spacing:0px;word-spacing:0px;writing-mode:lr-tb;text-anchor:middle;display:inline;fill:#a5180e;fill-opacity:1;stroke:none;stroke-width:0.26458335" aria-label="6">
        <path id="path10454" style="font-style:normal;font-variant:normal;font-weight:normal;font-stretch:normal;font-size:14.11111164px;font-family:'Stint Ultra Condensed';-inkscape-font-specification:'Stint Ultra Condensed, ';text-align:center;text-anchor:middle;fill:#a5180e;fill-opacity:1;stroke-width:0.26458335" d="m 182.37786,60.174795 q 0.0482,-0.124023 0.1378,-0.316949 0.0965,-0.192925 0.24805,-0.37207 0.15847,-0.186035 0.37896,-0.310059 0.22048,-0.130913 0.52365,-0.130913 0.33762,0 0.6339,0.192925 0.29628,0.192926 0.50987,0.578776 0.22049,0.385851 0.34451,0.971517 0.13092,0.578776 0.13092,1.364258 0,0.647678 -0.12403,1.219564 -0.11713,0.564996 -0.34451,0.992187 -0.22737,0.420302 -0.5581,0.668349 -0.33073,0.241157 -0.75103,0.241157 -0.42031,0 -0.78549,-0.282498 -0.35829,-0.289388 -0.627,-0.861274 -0.26872,-0.578776 -0.42719,-1.44694 -0.15159,-0.868164 -0.15159,-2.039497 0,-1.198893 0.11713,-2.15663 0.11714,-0.964626 0.35829,-1.639865 0.24805,-0.675239 0.62012,-1.033529 0.37896,-0.36518 0.89573,-0.36518 0.33073,0 0.627,0.186035 0.29628,0.179145 0.51677,0.537435 0.22737,0.35829 0.3514,0.895725 0.13091,0.530545 0.13091,1.233344 h -0.84749 q 0,-1.026638 -0.20671,-1.564073 -0.19981,-0.537435 -0.61322,-0.537435 -0.28939,0 -0.4961,0.323839 -0.2067,0.316949 -0.33762,0.861274 -0.13091,0.544325 -0.19292,1.267795 -0.062,0.71658 -0.062,1.522732 z m 1.11621,-0.37896 q -0.2136,0 -0.38585,0.199815 -0.17226,0.199816 -0.31006,0.489204 -0.13092,0.289388 -0.22049,0.620117 -0.0896,0.330729 -0.13091,0.592556 -0.0138,0.516765 0.0551,1.019749 0.0758,0.502984 0.21359,0.909505 0.1447,0.399631 0.34451,0.647678 0.20671,0.248047 0.44787,0.248047 0.22048,0 0.39274,-0.165365 0.17225,-0.172255 0.28939,-0.482313 0.11713,-0.310059 0.17225,-0.744141 0.062,-0.440972 0.062,-0.978407 0,-0.551215 -0.0551,-0.985297 -0.0551,-0.440973 -0.17225,-0.744141 -0.11025,-0.303168 -0.28939,-0.461643 -0.17226,-0.165364 -0.41341,-0.165364 z"/>
      </g>
    </g>
    </g></svg>
