<?xml version='1.0' encoding='UTF-8'?>
<!-- Created with Inkscape (http://www.inkscape.org/) and export_objects.py -->
<svg xmlns:cc="http://creativecommons.org/ns#" xmlns:dc="http://purl.org/dc/elements/1.1/" xmlns:inkscape="http://www.inkscape.org/namespaces/inkscape" xmlns:rdf="http://www.w3.org/1999/02/22-rdf-syntax-ns#" xmlns:sodipodi="http://sodipodi.sourceforge.net/DTD/sodipodi-0.dtd" xmlns:xlink="http://www.w3.org/1999/xlink" xmlns="http://www.w3.org/2000/svg" version="1.1" sodipodi:docname="red-10.svg" inkscape:version="0.92.3 (2405546, 2018-03-11)" id="svg8" viewBox="0 0 19.0499989417 19.0499989417" height="53.999997pt" width="53.999997pt"><sodipodi:namedview inkscape:bbox-nodes="true" inkscape:snap-bbox="false" inkscape:lockguides="true" inkscape:snap-to-guides="true" inkscape:measure-end="-194.588,381.008" inkscape:measure-start="-144.62,344.012" inkscape:snap-nodes="false" inkscape:guide-bbox="true" showguides="true" inkscape:snap-text-baseline="true" inkscape:snap-midpoints="false" inkscape:object-paths="false" inkscape:snap-others="true" inkscape:object-nodes="true" inkscape:snap-intersection-paths="false" inkscape:snap-grids="true" inkscape:window-maximized="1" inkscape:window-y="43" inkscape:window-x="1909" inkscape:window-height="940" inkscape:window-width="1280" inkscape:snap-smooth-nodes="false" inkscape:snap-center="true" inkscape:snap-object-midpoints="true" units="pt" showgrid="true" inkscape:current-layer="layer3" inkscape:document-units="pt" inkscape:cy="540.00004" inkscape:cx="2631.4034" inkscape:zoom="0.30373833" inkscape:pageshadow="2" inkscape:pageopacity="0.0" borderopacity="1.0" bordercolor="#666666" pagecolor="#ffffff" id="base">
    <inkscape:grid originy="0" originx="0" spacingy="1.5875" spacingx="1.5875" units="pt" id="grid10" type="xygrid" visible="true"/>
  </sodipodi:namedview>
  <metadata id="metadata5">
    <rdf:RDF>
      <cc:Work rdf:about="">
        <dc:format>image/svg+xml</dc:format>
        <dc:type rdf:resource="http://purl.org/dc/dcmitype/StillImage"/>
        <dc:title/>
      </cc:Work>
    </rdf:RDF>
  </metadata>
  <g inkscape:groupmode="layer" inkscape:label="red-" transform="matrix(1.000000,0.000000,0.000000,1.000000,-279.400000,-50.800005)"><g id="g11099" inkscape:label="10">
      <rect y="50.800007" x="279.39999" height="19.049999" width="19.049999" id="rect2638" style="opacity:1;fill:#ffffff;fill-opacity:1;stroke:none;stroke-width:0.70555556;stroke-linecap:butt;stroke-linejoin:miter;stroke-miterlimit:47.14606857;stroke-dasharray:none;stroke-dashoffset:0;stroke-opacity:1;paint-order:markers fill stroke"/>
      <path inkscape:connector-curvature="0" id="path3344" d="m 220.3097,63.147213 v 7.05556 h 7.05556 v -7.05556 z m 0.44097,0.44098 h 6.17361 v 6.17361 h -6.17361 z m 2.20486,0.44097 v 1.76389 h -1.76388 v 1.76389 h 1.76388 v 1.76389 h 1.76389 v -1.76389 h 1.76389 v -1.76389 h -1.76389 v -1.76389 z" style="display:inline;opacity:1;fill:#a5180e;fill-opacity:1;stroke:none;stroke-width:0.1763889;stroke-linecap:butt;stroke-linejoin:miter;stroke-miterlimit:4;stroke-dasharray:none;stroke-dashoffset:0;stroke-opacity:1;paint-order:fill markers stroke" transform="translate(69.850014,-6.3499932)"/>
      <g id="text2716" style="font-style:normal;font-variant:normal;font-weight:normal;font-stretch:normal;font-size:12.70000076px;line-height:100%;font-family:'Stint Ultra Condensed';-inkscape-font-specification:'Stint Ultra Condensed, ';font-variant-ligatures:normal;font-variant-caps:normal;font-variant-numeric:normal;text-align:center;letter-spacing:0px;word-spacing:0px;writing-mode:lr-tb;text-anchor:middle;display:inline;fill:#a5180e;fill-opacity:1;stroke:none;stroke-width:0.26458335" aria-label="10">
        <path id="path10440" style="font-style:normal;font-variant:normal;font-weight:normal;font-stretch:normal;font-size:14.11111164px;font-family:'Stint Ultra Condensed';-inkscape-font-specification:'Stint Ultra Condensed, ';text-align:center;text-anchor:middle;fill:#a5180e;fill-opacity:1;stroke-width:0.26458335" d="m 281.31136,64.30891 h 0.91639 V 56.3783 l -1.12999,0.70969 v -0.764812 l 1.12999,-0.702799 h 0.8475 v 8.688531 h 0.91639 v 0.778592 h -2.68028 z"/>
        <path id="path10442" style="font-style:normal;font-variant:normal;font-weight:normal;font-stretch:normal;font-size:14.11111164px;font-family:'Stint Ultra Condensed';-inkscape-font-specification:'Stint Ultra Condensed, ';text-align:center;text-anchor:middle;fill:#a5180e;fill-opacity:1;stroke-width:0.26458335" d="m 288.57362,60.36083 q 0,1.295356 -0.15159,2.225532 -0.15158,0.930176 -0.4203,1.529623 -0.26871,0.592556 -0.64078,0.875054 -0.36518,0.282498 -0.79238,0.282498 -0.43408,0 -0.80615,-0.282498 -0.36518,-0.282498 -0.64079,-0.875054 -0.26871,-0.599447 -0.4203,-1.529623 -0.15158,-0.930176 -0.15158,-2.225532 0,-1.288465 0.15158,-2.218641 0.15159,-0.930176 0.4203,-1.529623 0.27561,-0.599446 0.64079,-0.881944 0.37207,-0.282498 0.80615,-0.282498 0.4272,0 0.79238,0.282498 0.37207,0.282498 0.64078,0.881944 0.26872,0.599447 0.4203,1.529623 0.15159,0.930176 0.15159,2.218641 z m -0.87506,0 q 0,-1.10932 -0.0896,-1.894802 -0.0827,-0.792372 -0.23426,-1.295356 -0.15159,-0.502984 -0.35829,-0.737251 -0.20671,-0.234266 -0.44787,-0.234266 -0.24115,0 -0.45475,0.234266 -0.20671,0.234267 -0.36518,0.737251 -0.15158,0.502984 -0.24116,1.295356 -0.0827,0.785482 -0.0827,1.894802 0,1.109321 0.0827,1.901693 0.0896,0.785482 0.24116,1.288466 0.15847,0.502984 0.36518,0.73725 0.2136,0.234267 0.45475,0.234267 0.24116,0 0.44787,-0.234267 0.2067,-0.234266 0.35829,-0.73725 0.15158,-0.509874 0.23426,-1.295356 0.0896,-0.785482 0.0896,-1.894803 z"/>
      </g>
    </g>
    </g></svg>
