<?xml version='1.0' encoding='UTF-8'?>
<!-- Created with Inkscape (http://www.inkscape.org/) and export_objects.py -->
<svg xmlns:cc="http://creativecommons.org/ns#" xmlns:dc="http://purl.org/dc/elements/1.1/" xmlns:inkscape="http://www.inkscape.org/namespaces/inkscape" xmlns:rdf="http://www.w3.org/1999/02/22-rdf-syntax-ns#" xmlns:sodipodi="http://sodipodi.sourceforge.net/DTD/sodipodi-0.dtd" xmlns:xlink="http://www.w3.org/1999/xlink" xmlns="http://www.w3.org/2000/svg" version="1.1" sodipodi:docname="red-05.svg" inkscape:version="0.92.3 (2405546, 2018-03-11)" id="svg8" viewBox="0 0 19.0499989417 19.0499989417" height="53.999997pt" width="53.999997pt"><sodipodi:namedview inkscape:bbox-nodes="true" inkscape:snap-bbox="false" inkscape:lockguides="true" inkscape:snap-to-guides="true" inkscape:measure-end="-194.588,381.008" inkscape:measure-start="-144.62,344.012" inkscape:snap-nodes="false" inkscape:guide-bbox="true" showguides="true" inkscape:snap-text-baseline="true" inkscape:snap-midpoints="false" inkscape:object-paths="false" inkscape:snap-others="true" inkscape:object-nodes="true" inkscape:snap-intersection-paths="false" inkscape:snap-grids="true" inkscape:window-maximized="1" inkscape:window-y="43" inkscape:window-x="1909" inkscape:window-height="940" inkscape:window-width="1280" inkscape:snap-smooth-nodes="false" inkscape:snap-center="true" inkscape:snap-object-midpoints="true" units="pt" showgrid="true" inkscape:current-layer="layer3" inkscape:document-units="pt" inkscape:cy="540.00004" inkscape:cx="2631.4034" inkscape:zoom="0.30373833" inkscape:pageshadow="2" inkscape:pageopacity="0.0" borderopacity="1.0" bordercolor="#666666" pagecolor="#ffffff" id="base">
    <inkscape:grid originy="0" originx="0" spacingy="1.5875" spacingx="1.5875" units="pt" id="grid10" type="xygrid" visible="true"/>
  </sodipodi:namedview>
  <metadata id="metadata5">
    <rdf:RDF>
      <cc:Work rdf:about="">
        <dc:format>image/svg+xml</dc:format>
        <dc:type rdf:resource="http://purl.org/dc/dcmitype/StillImage"/>
        <dc:title/>
      </cc:Work>
    </rdf:RDF>
  </metadata>
  <g inkscape:groupmode="layer" inkscape:label="red-" transform="matrix(1.000000,0.000000,0.000000,1.000000,-152.399992,-50.800005)"><g id="g10644" inkscape:label="05">
      <rect y="50.800007" x="152.39999" height="19.049999" width="19.049999" id="rect2628" style="opacity:1;fill:#ffffff;fill-opacity:1;stroke:none;stroke-width:0.70555556;stroke-linecap:butt;stroke-linejoin:miter;stroke-miterlimit:47.14606857;stroke-dasharray:none;stroke-dashoffset:0;stroke-opacity:1;paint-order:markers fill stroke"/>
      <path inkscape:connector-curvature="0" id="path3324" d="m 93.309705,63.147217 v 7.05556 h 7.055555 v -7.05556 z m 0.44097,0.44098 h 6.17361 v 6.17361 h -6.17361 z m 2.20486,0.44097 v 1.76389 h -1.76388 v 1.76389 h 1.76388 v 1.76389 h 1.76389 v -1.76389 h 1.76389 v -1.76389 h -1.76389 v -1.76389 z" style="display:inline;opacity:1;fill:#a5180e;fill-opacity:1;stroke:none;stroke-width:0.1763889;stroke-linecap:butt;stroke-linejoin:miter;stroke-miterlimit:4;stroke-dasharray:none;stroke-dashoffset:0;stroke-opacity:1;paint-order:fill markers stroke" transform="translate(69.850014,-6.3499932)"/>
      <g id="text2696" style="font-style:normal;font-variant:normal;font-weight:normal;font-stretch:normal;font-size:12.70000076px;line-height:100%;font-family:'Stint Ultra Condensed';-inkscape-font-specification:'Stint Ultra Condensed, ';font-variant-ligatures:normal;font-variant-caps:normal;font-variant-numeric:normal;text-align:center;letter-spacing:0px;word-spacing:0px;writing-mode:lr-tb;text-anchor:middle;display:inline;fill:#a5180e;fill-opacity:1;stroke:none;stroke-width:0.26458335" aria-label="5">
        <path id="path10457" style="font-style:normal;font-variant:normal;font-weight:normal;font-stretch:normal;font-size:14.11111164px;font-family:'Stint Ultra Condensed';-inkscape-font-specification:'Stint Ultra Condensed, ';text-align:center;text-anchor:middle;fill:#a5180e;fill-opacity:1;stroke-width:0.26458335" d="m 157.07431,59.34109 q 0.22048,-0.254937 0.46164,-0.33762 0.24805,-0.08268 0.51677,-0.08268 0.39274,0 0.7028,0.241157 0.31694,0.241156 0.53054,0.675238 0.22049,0.427192 0.33762,1.019749 0.11713,0.592556 0.11713,1.295356 0,0.647678 -0.10335,1.219564 -0.10335,0.564995 -0.32384,0.992187 -0.2136,0.420302 -0.5581,0.668349 -0.34451,0.241156 -0.81994,0.241156 -0.3514,0.01378 -0.68213,-0.158474 -0.32384,-0.172255 -0.58566,-0.544325 -0.25494,-0.378961 -0.41341,-0.978407 -0.15159,-0.599447 -0.15159,-1.44005 h 0.86128 q 0,1.205783 0.2756,1.79834 0.2825,0.585666 0.69591,0.585666 0.23427,0 0.40652,-0.172255 0.17226,-0.179145 0.28939,-0.496094 0.11714,-0.316948 0.17226,-0.751031 0.062,-0.440972 0.062,-0.964626 0,-1.212674 -0.24116,-1.853462 -0.24116,-0.640788 -0.7717,-0.640788 -0.31006,0 -0.53743,0.206706 -0.22049,0.199816 -0.33762,0.606337 h -0.7028 l 0.16536,-4.850695 h 2.99034 v 0.785482 h -2.23931 z"/>
      </g>
    </g>
    </g></svg>
