<?xml version='1.0' encoding='UTF-8'?>
<!-- Created with Inkscape (http://www.inkscape.org/) and export_objects.py -->
<svg xmlns:cc="http://creativecommons.org/ns#" xmlns:dc="http://purl.org/dc/elements/1.1/" xmlns:inkscape="http://www.inkscape.org/namespaces/inkscape" xmlns:rdf="http://www.w3.org/1999/02/22-rdf-syntax-ns#" xmlns:sodipodi="http://sodipodi.sourceforge.net/DTD/sodipodi-0.dtd" xmlns:xlink="http://www.w3.org/1999/xlink" xmlns="http://www.w3.org/2000/svg" version="1.1" sodipodi:docname="yellow-05.svg" inkscape:version="0.92.3 (2405546, 2018-03-11)" id="svg8" viewBox="0 0 19.0499989417 19.0499989417" height="53.999997pt" width="53.999997pt"><sodipodi:namedview inkscape:bbox-nodes="true" inkscape:snap-bbox="false" inkscape:lockguides="true" inkscape:snap-to-guides="true" inkscape:measure-end="-194.588,381.008" inkscape:measure-start="-144.62,344.012" inkscape:snap-nodes="false" inkscape:guide-bbox="true" showguides="true" inkscape:snap-text-baseline="true" inkscape:snap-midpoints="false" inkscape:object-paths="false" inkscape:snap-others="true" inkscape:object-nodes="true" inkscape:snap-intersection-paths="false" inkscape:snap-grids="true" inkscape:window-maximized="1" inkscape:window-y="43" inkscape:window-x="1909" inkscape:window-height="940" inkscape:window-width="1280" inkscape:snap-smooth-nodes="false" inkscape:snap-center="true" inkscape:snap-object-midpoints="true" units="pt" showgrid="true" inkscape:current-layer="layer3" inkscape:document-units="pt" inkscape:cy="540.00004" inkscape:cx="1856.7649" inkscape:zoom="0.30373833" inkscape:pageshadow="2" inkscape:pageopacity="0.0" borderopacity="1.0" bordercolor="#666666" pagecolor="#ffffff" id="base">
    <inkscape:grid originy="0" originx="0" spacingy="1.5875" spacingx="1.5875" units="pt" id="grid10" type="xygrid" visible="true"/>
  </sodipodi:namedview>
  <metadata id="metadata5">
    <rdf:RDF>
      <cc:Work rdf:about="">
        <dc:format>image/svg+xml</dc:format>
        <dc:type rdf:resource="http://purl.org/dc/dcmitype/StillImage"/>
        <dc:title/>
      </cc:Work>
    </rdf:RDF>
  </metadata>
  <g inkscape:groupmode="layer" inkscape:label="yellow-" transform="matrix(1.000000,0.000000,0.000000,1.000000,-152.399992,-25.400003)"><g id="g10636" inkscape:label="05">
      <rect style="opacity:1;fill:#ffffff;fill-opacity:1;stroke:none;stroke-width:0.70555556;stroke-linecap:butt;stroke-linejoin:miter;stroke-miterlimit:47.14606857;stroke-dasharray:none;stroke-dashoffset:0;stroke-opacity:1;paint-order:markers fill stroke" id="rect1769" width="19.049999" height="19.049999" x="152.39999" y="25.400003"/>
      <path inkscape:connector-curvature="0" id="path3326" d="m 96.837483,37.306247 a 3.96875,3.96875 0 0 0 -3.968744,3.96875 3.96875,3.96875 0 0 0 3.968744,3.96875 3.96875,3.96875 0 0 0 3.968747,-3.96875 3.96875,3.96875 0 0 0 -3.968747,-3.96875 z m 0,0.44098 a 3.5277749,3.5277749 0 0 1 3.527777,3.52777 3.5277749,3.5277749 0 0 1 -3.527777,3.52778 3.5277749,3.5277749 0 0 1 -3.527775,-3.52778 3.5277749,3.5277749 0 0 1 3.527775,-3.52777 z m 0,0.88194 -2.645825,2.64583 2.645825,2.64584 2.64583,-2.64584 z" style="display:inline;opacity:1;fill:#827a00;fill-opacity:1;stroke:none;stroke-width:0.17638892;stroke-linecap:butt;stroke-linejoin:miter;stroke-miterlimit:4;stroke-dasharray:none;stroke-dashoffset:0;stroke-opacity:1;paint-order:fill markers stroke" transform="translate(69.850014,-6.3499932)"/>
      <g id="text1827" style="font-style:normal;font-variant:normal;font-weight:normal;font-stretch:normal;font-size:12.70000076px;line-height:100%;font-family:'Stint Ultra Condensed';-inkscape-font-specification:'Stint Ultra Condensed, ';font-variant-ligatures:normal;font-variant-caps:normal;font-variant-numeric:normal;text-align:center;letter-spacing:0px;word-spacing:0px;writing-mode:lr-tb;text-anchor:middle;display:inline;fill:#827a00;fill-opacity:1;stroke:none;stroke-width:0.26458335" transform="translate(69.850014,-6.3499932)" aria-label="5">
        <path id="path10572" style="font-style:normal;font-variant:normal;font-weight:normal;font-stretch:normal;font-size:14.11111164px;font-family:'Stint Ultra Condensed';-inkscape-font-specification:'Stint Ultra Condensed, ';text-align:center;text-anchor:middle;fill:#827a00;fill-opacity:1;stroke-width:0.26458335" d="m 87.224295,40.291079 q 0.220486,-0.254937 0.461643,-0.337619 0.248047,-0.08268 0.516764,-0.08268 0.392741,0 0.7028,0.241157 0.316948,0.241157 0.530544,0.675239 0.220486,0.427192 0.33762,1.019748 0.117133,0.592557 0.117133,1.295356 0,0.647678 -0.103353,1.219564 -0.103353,0.564996 -0.323839,0.992187 -0.213596,0.420302 -0.558105,0.668349 -0.34451,0.241157 -0.819933,0.241157 -0.3514,0.01378 -0.682129,-0.158475 -0.323839,-0.172255 -0.585666,-0.544325 -0.254938,-0.37896 -0.413412,-0.978407 -0.151584,-0.599447 -0.151584,-1.44005 h 0.861274 q 0,1.205783 0.275607,1.79834 0.282498,0.585666 0.69591,0.585666 0.234266,0 0.406521,-0.172255 0.172255,-0.179145 0.289388,-0.496093 0.117133,-0.316949 0.172255,-0.751031 0.06201,-0.440972 0.06201,-0.964627 0,-1.212674 -0.241157,-1.853461 -0.241157,-0.640788 -0.771702,-0.640788 -0.310058,0 -0.537434,0.206706 -0.220487,0.199815 -0.33762,0.606336 h -0.702799 l 0.165364,-4.850694 h 2.990343 v 0.785482 h -2.239312 z"/>
      </g>
    </g>
    </g></svg>
