<?xml version='1.0' encoding='UTF-8'?>
<!-- Created with Inkscape (http://www.inkscape.org/) and export_objects.py -->
<svg xmlns:cc="http://creativecommons.org/ns#" xmlns:dc="http://purl.org/dc/elements/1.1/" xmlns:inkscape="http://www.inkscape.org/namespaces/inkscape" xmlns:rdf="http://www.w3.org/1999/02/22-rdf-syntax-ns#" xmlns:sodipodi="http://sodipodi.sourceforge.net/DTD/sodipodi-0.dtd" xmlns:xlink="http://www.w3.org/1999/xlink" xmlns="http://www.w3.org/2000/svg" version="1.1" sodipodi:docname="yellow-03.svg" inkscape:version="0.92.3 (2405546, 2018-03-11)" id="svg8" viewBox="0 0 19.0499989417 19.0499989417" height="53.999997pt" width="53.999997pt"><sodipodi:namedview inkscape:bbox-nodes="true" inkscape:snap-bbox="false" inkscape:lockguides="true" inkscape:snap-to-guides="true" inkscape:measure-end="-194.588,381.008" inkscape:measure-start="-144.62,344.012" inkscape:snap-nodes="false" inkscape:guide-bbox="true" showguides="true" inkscape:snap-text-baseline="true" inkscape:snap-midpoints="false" inkscape:object-paths="false" inkscape:snap-others="true" inkscape:object-nodes="true" inkscape:snap-intersection-paths="false" inkscape:snap-grids="true" inkscape:window-maximized="1" inkscape:window-y="43" inkscape:window-x="1909" inkscape:window-height="940" inkscape:window-width="1280" inkscape:snap-smooth-nodes="false" inkscape:snap-center="true" inkscape:snap-object-midpoints="true" units="pt" showgrid="true" inkscape:current-layer="layer3" inkscape:document-units="pt" inkscape:cy="540.00004" inkscape:cx="1856.7649" inkscape:zoom="0.30373833" inkscape:pageshadow="2" inkscape:pageopacity="0.0" borderopacity="1.0" bordercolor="#666666" pagecolor="#ffffff" id="base">
    <inkscape:grid originy="0" originx="0" spacingy="1.5875" spacingx="1.5875" units="pt" id="grid10" type="xygrid" visible="true"/>
  </sodipodi:namedview>
  <metadata id="metadata5">
    <rdf:RDF>
      <cc:Work rdf:about="">
        <dc:format>image/svg+xml</dc:format>
        <dc:type rdf:resource="http://purl.org/dc/dcmitype/StillImage"/>
        <dc:title/>
      </cc:Work>
    </rdf:RDF>
  </metadata>
  <g inkscape:groupmode="layer" inkscape:label="yellow-" transform="matrix(1.000000,0.000000,0.000000,1.000000,-101.599997,-25.400003)"><g id="g10620" inkscape:label="03">
      <rect style="opacity:1;fill:#ffffff;fill-opacity:1;stroke:none;stroke-width:0.70555556;stroke-linecap:butt;stroke-linejoin:miter;stroke-miterlimit:47.14606857;stroke-dasharray:none;stroke-dashoffset:0;stroke-opacity:1;paint-order:markers fill stroke" id="rect1705" width="19.049999" height="19.049999" x="101.6" y="25.400003"/>
      <path inkscape:connector-curvature="0" id="path3318" d="m 46.037484,37.306247 a 3.96875,3.96875 0 0 0 -3.968745,3.96875 3.96875,3.96875 0 0 0 3.968745,3.96875 3.96875,3.96875 0 0 0 3.96875,-3.96875 3.96875,3.96875 0 0 0 -3.96875,-3.96875 z m 0,0.44098 a 3.5277749,3.5277749 0 0 1 3.52778,3.52777 3.5277749,3.5277749 0 0 1 -3.52778,3.52778 3.5277749,3.5277749 0 0 1 -3.527775,-3.52778 3.5277749,3.5277749 0 0 1 3.527775,-3.52777 z m 0,0.88194 -2.645825,2.64583 2.645825,2.64584 2.64583,-2.64584 z" style="display:inline;opacity:1;fill:#827a00;fill-opacity:1;stroke:none;stroke-width:0.17638892;stroke-linecap:butt;stroke-linejoin:miter;stroke-miterlimit:4;stroke-dasharray:none;stroke-dashoffset:0;stroke-opacity:1;paint-order:fill markers stroke" transform="translate(69.850014,-6.3499932)"/>
      <g id="text1747" style="font-style:normal;font-variant:normal;font-weight:normal;font-stretch:normal;font-size:12.70000076px;line-height:100%;font-family:'Stint Ultra Condensed';-inkscape-font-specification:'Stint Ultra Condensed, ';font-variant-ligatures:normal;font-variant-caps:normal;font-variant-numeric:normal;text-align:center;letter-spacing:0px;word-spacing:0px;writing-mode:lr-tb;text-anchor:middle;display:inline;fill:#827a00;fill-opacity:1;stroke:none;stroke-width:0.26458335" transform="translate(69.850014,-6.3499932)" aria-label="3">
        <path id="path10578" style="font-style:normal;font-variant:normal;font-weight:normal;font-stretch:normal;font-size:14.11111164px;font-family:'Stint Ultra Condensed';-inkscape-font-specification:'Stint Ultra Condensed, ';text-align:center;text-anchor:middle;fill:#827a00;fill-opacity:1;stroke-width:0.26458335" d="m 37.44404,40.153275 q 0.551215,0.137804 0.875054,0.475423 0.33073,0.33073 0.496094,0.757921 0.172255,0.420302 0.220486,0.881945 0.05512,0.454752 0.05512,0.833713 0,0.744141 -0.130914,1.329807 -0.130913,0.578776 -0.37896,0.978407 -0.248047,0.399631 -0.599447,0.606337 -0.34451,0.206706 -0.778592,0.206706 -0.36518,0 -0.689019,-0.179145 -0.316949,-0.172255 -0.558105,-0.564996 -0.241157,-0.392741 -0.378961,-1.012858 -0.137804,-0.627008 -0.137804,-1.522732 h 0.847494 q 0,1.316026 0.234266,1.922363 0.234267,0.606337 0.723471,0.606337 0.268717,0 0.454752,-0.186035 0.186035,-0.192926 0.296278,-0.516765 0.117134,-0.323839 0.165365,-0.751031 0.05512,-0.427191 0.05512,-0.902615 0,-0.516764 -0.08268,-0.937066 -0.08268,-0.427191 -0.268717,-0.73036 -0.179145,-0.303168 -0.475423,-0.468533 -0.296279,-0.172255 -0.723471,-0.179145 v -0.744141 l 1.41249,-2.700954 H 36.36917 v 1.488281 h -0.751031 v -2.273763 h 3.431316 v 0.592556 z"/>
      </g>
    </g>
    </g></svg>
