<?xml version='1.0' encoding='UTF-8'?>
<!-- Created with Inkscape (http://www.inkscape.org/) and export_objects.py -->
<svg xmlns:cc="http://creativecommons.org/ns#" xmlns:dc="http://purl.org/dc/elements/1.1/" xmlns:inkscape="http://www.inkscape.org/namespaces/inkscape" xmlns:rdf="http://www.w3.org/1999/02/22-rdf-syntax-ns#" xmlns:sodipodi="http://sodipodi.sourceforge.net/DTD/sodipodi-0.dtd" xmlns:xlink="http://www.w3.org/1999/xlink" xmlns="http://www.w3.org/2000/svg" version="1.1" sodipodi:docname="yellow-09.svg" inkscape:version="0.92.3 (2405546, 2018-03-11)" id="svg8" viewBox="0 0 19.0499989417 19.0499989417" height="53.999997pt" width="53.999997pt"><sodipodi:namedview inkscape:bbox-nodes="true" inkscape:snap-bbox="false" inkscape:lockguides="true" inkscape:snap-to-guides="true" inkscape:measure-end="-194.588,381.008" inkscape:measure-start="-144.62,344.012" inkscape:snap-nodes="false" inkscape:guide-bbox="true" showguides="true" inkscape:snap-text-baseline="true" inkscape:snap-midpoints="false" inkscape:object-paths="false" inkscape:snap-others="true" inkscape:object-nodes="true" inkscape:snap-intersection-paths="false" inkscape:snap-grids="true" inkscape:window-maximized="1" inkscape:window-y="43" inkscape:window-x="1909" inkscape:window-height="940" inkscape:window-width="1280" inkscape:snap-smooth-nodes="false" inkscape:snap-center="true" inkscape:snap-object-midpoints="true" units="pt" showgrid="true" inkscape:current-layer="layer3" inkscape:document-units="pt" inkscape:cy="540.00004" inkscape:cx="1856.7649" inkscape:zoom="0.30373833" inkscape:pageshadow="2" inkscape:pageopacity="0.0" borderopacity="1.0" bordercolor="#666666" pagecolor="#ffffff" id="base">
    <inkscape:grid originy="0" originx="0" spacingy="1.5875" spacingx="1.5875" units="pt" id="grid10" type="xygrid" visible="true"/>
  </sodipodi:namedview>
  <metadata id="metadata5">
    <rdf:RDF>
      <cc:Work rdf:about="">
        <dc:format>image/svg+xml</dc:format>
        <dc:type rdf:resource="http://purl.org/dc/dcmitype/StillImage"/>
        <dc:title/>
      </cc:Work>
    </rdf:RDF>
  </metadata>
  <g inkscape:groupmode="layer" inkscape:label="yellow-" transform="matrix(1.000000,0.000000,0.000000,1.000000,-253.999995,-25.400003)"><g id="g11004" inkscape:label="09">
      <rect style="opacity:1;fill:#ffffff;fill-opacity:1;stroke:none;stroke-width:0.70555556;stroke-linecap:butt;stroke-linejoin:miter;stroke-miterlimit:47.14606857;stroke-dasharray:none;stroke-dashoffset:0;stroke-opacity:1;paint-order:markers fill stroke" id="rect1897" width="19.049999" height="19.049999" x="254" y="25.400003"/>
      <path inkscape:connector-curvature="0" id="path3342" d="m 198.43748,37.306247 a 3.96875,3.96875 0 0 0 -3.96874,3.96875 3.96875,3.96875 0 0 0 3.96874,3.96875 3.96875,3.96875 0 0 0 3.96875,-3.96875 3.96875,3.96875 0 0 0 -3.96875,-3.96875 z m 0,0.44098 a 3.5277749,3.5277749 0 0 1 3.52778,3.52777 3.5277749,3.5277749 0 0 1 -3.52778,3.52778 3.5277749,3.5277749 0 0 1 -3.52777,-3.52778 3.5277749,3.5277749 0 0 1 3.52777,-3.52777 z m 0,0.88194 -2.64582,2.64583 2.64582,2.64584 2.64583,-2.64584 z" style="display:inline;opacity:1;fill:#827a00;fill-opacity:1;stroke:none;stroke-width:0.17638892;stroke-linecap:butt;stroke-linejoin:miter;stroke-miterlimit:4;stroke-dasharray:none;stroke-dashoffset:0;stroke-opacity:1;paint-order:fill markers stroke" transform="translate(69.850014,-6.3499932)"/>
      <g id="text1987" style="font-style:normal;font-variant:normal;font-weight:normal;font-stretch:normal;font-size:12.70000076px;line-height:100%;font-family:'Stint Ultra Condensed';-inkscape-font-specification:'Stint Ultra Condensed, ';font-variant-ligatures:normal;font-variant-caps:normal;font-variant-numeric:normal;text-align:center;letter-spacing:0px;word-spacing:0px;writing-mode:lr-tb;text-anchor:middle;display:inline;fill:#827a00;fill-opacity:1;stroke:none;stroke-width:0.26458335" transform="translate(69.850014,-6.3499932)" aria-label="9">
        <path id="path10560" style="font-style:normal;font-variant:normal;font-weight:normal;font-stretch:normal;font-size:14.11111164px;font-family:'Stint Ultra Condensed';-inkscape-font-specification:'Stint Ultra Condensed, ';text-align:center;text-anchor:middle;fill:#827a00;fill-opacity:1;stroke-width:0.26458335" d="m 190.69154,41.496862 q -0.0482,0.124024 -0.1447,0.316949 -0.0896,0.192926 -0.24805,0.372071 -0.15158,0.179145 -0.37207,0.310058 -0.22048,0.124024 -0.52365,0.124024 -0.33762,0 -0.6339,-0.186036 -0.29628,-0.192925 -0.51676,-0.578776 -0.2136,-0.38585 -0.34451,-0.964626 -0.12403,-0.585667 -0.12403,-1.371148 0,-0.647678 0.11714,-1.212674 0.11713,-0.571886 0.34451,-0.992188 0.22737,-0.427191 0.5581,-0.668348 0.33073,-0.248047 0.75792,-0.248047 0.42031,0 0.7786,0.289388 0.36518,0.282498 0.63389,0.861274 0.26872,0.571886 0.4203,1.44005 0.15848,0.868164 0.15848,2.039496 0,1.198894 -0.11713,2.16352 -0.11714,0.957737 -0.36518,1.632976 -0.24116,0.675239 -0.62012,1.040419 -0.37207,0.35829 -0.88884,0.35829 -0.33073,0 -0.627,-0.186036 -0.29628,-0.179144 -0.52366,-0.537434 -0.22048,-0.35829 -0.3514,-0.888835 -0.12402,-0.537435 -0.12402,-1.240235 h 0.84749 q 0,1.026639 0.19982,1.564074 0.2067,0.537435 0.62011,0.537435 0.28939,0 0.4961,-0.316949 0.2067,-0.323839 0.33762,-0.868164 0.13091,-0.544325 0.19292,-1.260905 0.062,-0.72347 0.062,-1.529623 z m -1.11622,0.378961 q 0.2136,0 0.38585,-0.199816 0.17226,-0.199815 0.30317,-0.489203 0.13781,-0.289388 0.22738,-0.620117 0.0896,-0.33073 0.13091,-0.599447 0.0138,-0.509874 -0.062,-1.012858 -0.0689,-0.509874 -0.21359,-0.909505 -0.13781,-0.399631 -0.34451,-0.647678 -0.19982,-0.248047 -0.44098,-0.248047 -0.22048,0 -0.39274,0.172255 -0.17225,0.165364 -0.28939,0.475423 -0.11713,0.310058 -0.17914,0.751031 -0.0551,0.434082 -0.0551,0.971517 0,0.551215 0.0551,0.992187 0.0551,0.434082 0.16536,0.737251 0.11714,0.303168 0.28939,0.468533 0.17915,0.158474 0.4203,0.158474 z"/>
      </g>
    </g>
    </g></svg>
