<?xml version='1.0' encoding='UTF-8'?>
<!-- Created with Inkscape (http://www.inkscape.org/) and export_objects.py -->
<svg xmlns:cc="http://creativecommons.org/ns#" xmlns:dc="http://purl.org/dc/elements/1.1/" xmlns:inkscape="http://www.inkscape.org/namespaces/inkscape" xmlns:rdf="http://www.w3.org/1999/02/22-rdf-syntax-ns#" xmlns:sodipodi="http://sodipodi.sourceforge.net/DTD/sodipodi-0.dtd" xmlns:xlink="http://www.w3.org/1999/xlink" xmlns="http://www.w3.org/2000/svg" version="1.1" id="svg5174" viewBox="0 0 19.0499992062 19.0499992062" height="19.0499992062mm" width="19.0499992062mm" inkscape:version="0.92.3 (2405546, 2018-03-11)" sodipodi:docname="tile-5.svg"><sodipodi:namedview inkscape:window-maximized="1" inkscape:window-y="43" inkscape:window-x="1909" inkscape:window-height="940" inkscape:window-width="1280" inkscape:snap-grids="true" inkscape:measure-end="72,552" inkscape:measure-start="72,612" showgrid="false" inkscape:current-layer="layer2" inkscape:document-units="mm" inkscape:cy="655.4366" inkscape:cx="413.74403" inkscape:zoom="1.7613639" inkscape:pageshadow="2" inkscape:pageopacity="0.0" borderopacity="1.0" bordercolor="#666666" pagecolor="#ffffff" id="base">
    <inkscape:grid spacingy="1.5875" spacingx="1.5875" units="pt" id="grid5337" type="xygrid"/>
  </sodipodi:namedview>
  <metadata id="metadata5171">
    <rdf:RDF>
      <cc:Work rdf:about="">
        <dc:format>image/svg+xml</dc:format>
        <dc:type rdf:resource="http://purl.org/dc/dcmitype/StillImage"/>
        <dc:title/>
      </cc:Work>
    </rdf:RDF>
  </metadata>
  <g inkscape:groupmode="layer" inkscape:label="tile-" transform="matrix(1.000000,0.000000,0.000000,1.000000,-127.000000,-74.750001)"><g id="g892" inkscape:label="5">
      <rect style="opacity:1;fill:#000000;fill-opacity:1;stroke:none;stroke-width:6.3499999;stroke-linecap:butt;stroke-linejoin:miter;stroke-miterlimit:47.14606857;stroke-dasharray:none;stroke-dashoffset:0;stroke-opacity:1;paint-order:markers fill stroke" id="rect885" width="19.049999" height="19.049999" x="127" y="74.75"/>
      <g transform="matrix(3.3391317,0,0,3.3391317,-339.65615,-266.37986)" id="text871" style="font-style:normal;font-variant:normal;font-weight:normal;font-stretch:normal;font-size:4.23333311px;line-height:100%;font-family:'Segoe UI Emoji';-inkscape-font-specification:'Segoe UI Emoji, Normal';font-variant-ligatures:normal;font-variant-caps:normal;font-variant-numeric:normal;text-align:start;letter-spacing:0px;word-spacing:0px;writing-mode:lr-tb;text-anchor:start;fill:#808080;fill-opacity:1;stroke:none;stroke-width:0.07923716" aria-label="🚉">
        <path inkscape:connector-curvature="0" id="path882" style="stroke-width:0.07923716;fill:#808080" d="m 144.68574,104.71613 h 0.29766 v 2.67477 h -0.71934 l -0.14883,-0.14883 h -3.0179 l -0.1509,0.14883 h -0.71727 v -0.56844 l 1.00459,-1.00252 q -0.11368,-0.24391 -0.11368,-0.5085 v -1.48621 q 0,-0.13643 0.0475,-0.26459 0.0475,-0.12815 0.12816,-0.23977 0.0806,-0.11163 0.1881,-0.19844 0.10955,-0.0868 0.23151,-0.13849 v -0.19844 h 0.44441 v -0.14883 h 0.89297 v 0.14883 h 0.44442 v 0.19844 q 0.0579,0.0207 0.10956,0.0413 0.0517,0.0207 0.0971,0.0496 0.0455,0.0269 0.0847,0.0661 0.0413,0.0372 0.0765,0.0909 h 0.96945 v 1.33532 h -0.14883 z m 0,2.37918 v -0.14883 l -0.97772,-0.97771 q -0.0682,0.0889 -0.1571,0.15916 -0.0889,0.0703 -0.19223,0.11989 -0.10129,0.0475 -0.21084,0.0744 -0.10956,0.0269 -0.22118,0.0289 h 0.71727 l 0.29766,0.29766 h -2.67064 l 0.29766,-0.29766 h 0.71727 q -0.11163,-0.002 -0.22325,-0.0289 -0.10955,-0.0269 -0.21084,-0.0744 -0.10128,-0.0496 -0.19017,-0.11989 -0.0889,-0.0703 -0.15709,-0.15916 l -0.97772,0.97771 v 0.14883 h 0.29766 l 0.14882,-0.15089 h 3.26595 l 0.14883,0.15089 z m -2.67477,-3.86333 q -0.12196,0 -0.23151,0.0475 -0.10749,0.0455 -0.18811,0.1261 -0.0806,0.0806 -0.12815,0.19016 -0.0455,0.10749 -0.0455,0.22945 v 1.25263 q 0.0661,0.0868 0.13849,0.1695 0.0724,0.0806 0.15917,0.14883 v -1.64951 q 0,-0.0393 0.004,-0.0785 0.004,-0.0393 0.0186,-0.0703 0.0165,-0.031 0.0455,-0.0496 0.031,-0.0207 0.0806,-0.0207 h 1.48414 q 0.062,0 0.10542,0.0434 0.0434,0.0434 0.0434,0.10542 v 1.71772 q 0.0848,-0.0641 0.15296,-0.14056 0.0703,-0.0785 0.1447,-0.15296 v -1.27537 q 0,-0.12403 -0.0476,-0.23151 -0.0455,-0.10749 -0.12609,-0.1881 -0.0806,-0.0806 -0.19016,-0.1261 -0.10749,-0.0475 -0.23152,-0.0475 z m -0.14676,0.59325 v 0.29765 q 0,0.15503 0.0579,0.28939 0.0579,0.13436 0.15917,0.23565 0.10128,0.10128 0.23564,0.15916 0.13436,0.0579 0.28939,0.0579 0.15503,0 0.28939,-0.0579 0.13436,-0.0579 0.23564,-0.15916 0.10129,-0.10129 0.15917,-0.23565 0.0579,-0.13436 0.0579,-0.28939 v -0.29765 z m 1.03973,2.37711 q 0.18396,0 0.34519,-0.0703 0.1633,-0.0703 0.28319,-0.19017 0.12196,-0.12195 0.19224,-0.28318 0.0703,-0.1633 0.0703,-0.34727 -0.0455,0.0455 -0.0889,0.0909 -0.0434,0.0455 -0.0909,0.0868 -0.0599,0.0537 -0.13849,0.10335 -0.0785,0.0475 -0.16536,0.0847 -0.0868,0.0351 -0.17777,0.0579 -0.0889,0.0207 -0.1695,0.0207 h -0.65526 q -0.26871,0 -0.49609,-0.11782 -0.22738,-0.11989 -0.39481,-0.3266 0,0.18397 0.0703,0.34727 0.0703,0.16123 0.19017,0.28318 0.12196,0.11989 0.28319,0.19017 0.1633,0.0703 0.34726,0.0703 z m 1.00459,-0.62631 0.77721,0.77514 v -1.33532 h -0.29766 v -0.74414 h 0.14883 v -0.29765 h -0.44442 v 0.29765 h 0.14883 v 0.74414 h -0.29765 v 0.18811 q 0,0.031 -0.002,0.0868 0,0.0538 -0.004,0.11162 -0.002,0.0579 -0.0103,0.10749 -0.006,0.0475 -0.0186,0.0662 z m 0.18396,-2.04639 v 0.29766 h 0.44442 v -0.29766 z m -2.08152,1.63297 q -0.0599,0 -0.10336,0.0455 -0.0434,0.0434 -0.0434,0.10335 0,0.06 0.0434,0.10542 0.0434,0.0434 0.10336,0.0434 0.0599,0 0.10335,-0.0434 0.0455,-0.0455 0.0455,-0.10542 0,-0.062 -0.0434,-0.10542 -0.0434,-0.0434 -0.10542,-0.0434 z m 1.18855,0.29766 q 0.0599,0 0.10336,-0.0434 0.0455,-0.0455 0.0455,-0.10542 0,-0.062 -0.0434,-0.10542 -0.0434,-0.0434 -0.10542,-0.0434 -0.0599,0 -0.10335,0.0455 -0.0434,0.0434 -0.0434,0.10335 0,0.06 0.0434,0.10542 0.0434,0.0434 0.10335,0.0434 z m -0.74207,-2.52594 v 0.14882 h 0.29766 v -0.14882 z"/>
      </g>
    </g>
    </g></svg>
