<?xml version='1.0' encoding='UTF-8'?>
<!-- Created with Inkscape (http://www.inkscape.org/) and export_objects.py -->
<svg xmlns:cc="http://creativecommons.org/ns#" xmlns:dc="http://purl.org/dc/elements/1.1/" xmlns:inkscape="http://www.inkscape.org/namespaces/inkscape" xmlns:rdf="http://www.w3.org/1999/02/22-rdf-syntax-ns#" xmlns:sodipodi="http://sodipodi.sourceforge.net/DTD/sodipodi-0.dtd" xmlns:xlink="http://www.w3.org/1999/xlink" xmlns="http://www.w3.org/2000/svg" version="1.1" id="svg5174" viewBox="0 0 19.0499992062 19.0499992062" height="19.0499992062mm" width="19.0499992062mm" inkscape:version="0.92.3 (2405546, 2018-03-11)" sodipodi:docname="tile-6.svg"><sodipodi:namedview inkscape:window-maximized="1" inkscape:window-y="43" inkscape:window-x="1909" inkscape:window-height="940" inkscape:window-width="1280" inkscape:snap-grids="true" inkscape:measure-end="72,552" inkscape:measure-start="72,612" showgrid="false" inkscape:current-layer="layer2" inkscape:document-units="mm" inkscape:cy="655.4366" inkscape:cx="413.74403" inkscape:zoom="1.7613639" inkscape:pageshadow="2" inkscape:pageopacity="0.0" borderopacity="1.0" bordercolor="#666666" pagecolor="#ffffff" id="base">
    <inkscape:grid spacingy="1.5875" spacingx="1.5875" units="pt" id="grid5337" type="xygrid"/>
  </sodipodi:namedview>
  <metadata id="metadata5171">
    <rdf:RDF>
      <cc:Work rdf:about="">
        <dc:format>image/svg+xml</dc:format>
        <dc:type rdf:resource="http://purl.org/dc/dcmitype/StillImage"/>
        <dc:title/>
      </cc:Work>
    </rdf:RDF>
  </metadata>
  <g inkscape:groupmode="layer" inkscape:label="tile-" transform="matrix(1.000000,0.000000,0.000000,1.000000,-127.000000,-100.150001)"><g id="g897" inkscape:label="6">
      <rect y="100.15" x="127" height="19.049999" width="19.049999" id="rect887" style="opacity:1;fill:#ececec;fill-opacity:1;stroke:none;stroke-width:6.3499999;stroke-linecap:butt;stroke-linejoin:miter;stroke-miterlimit:47.14606857;stroke-dasharray:none;stroke-dashoffset:0;stroke-opacity:1;paint-order:markers fill stroke"/>
      <g transform="matrix(3.3421053,0,0,3.3421053,-340.08017,-304.9668)" id="text875" style="font-style:normal;font-variant:normal;font-weight:normal;font-stretch:normal;font-size:4.23333311px;line-height:100%;font-family:'Segoe UI Emoji';-inkscape-font-specification:'Segoe UI Emoji, Normal';font-variant-ligatures:normal;font-variant-caps:normal;font-variant-numeric:normal;text-align:start;letter-spacing:0px;word-spacing:0px;writing-mode:lr-tb;text-anchor:start;fill:#999999;fill-opacity:1;stroke:none;stroke-width:0.07916667" aria-label="ðŸ›¤ï¸">
        <path inkscape:connector-curvature="0" id="path879" style="stroke-width:0.07916667;fill:#999999" d="m 143.6088,122.88143 q 0.0124,-0.002 0.0248,-0.002 0.0124,-0.002 0.0248,-0.002 0.11369,0 0.21291,0.0641 0.0992,0.0641 0.14883,0.16536 l 0.96325,1.9265 v 1.40766 h -4.75424 v -1.40766 l 0.6656,-1.33325 q 0.0579,-0.11783 0.16743,-0.17157 0.10955,-0.0537 0.23564,-0.0537 h 0.008 l 0.48162,-0.96325 q 0.0579,-0.11782 0.16537,-0.17157 0.10955,-0.0537 0.23564,-0.0537 h 0.008 l 0.18397,-0.36794 q 0.0537,-0.10542 0.1571,-0.16536 0.10335,-0.062 0.22117,-0.062 0.11782,0 0.21704,0.062 0.0992,0.0599 0.15296,0.16536 z m -0.11162,0.44029 q -0.10542,-0.20671 -0.2067,-0.41342 -0.10129,-0.20877 -0.20671,-0.41547 l -0.13849,-0.27492 q -0.0207,-0.0413 -0.0413,-0.0847 -0.0186,-0.0434 -0.0413,-0.0827 -0.0186,-0.0331 -0.0413,-0.0475 -0.0227,-0.0165 -0.062,-0.0165 -0.0248,0 -0.0434,0.008 l -0.66766,2.66444 h 0.11162 q -0.3762,0.37207 -0.74414,0.74207 -0.36793,0.37001 -0.74,0.74208 h 3.86126 l -1.63297,-1.63298 q 0.14882,-0.29972 0.29558,-0.59531 0.14677,-0.29559 0.29766,-0.59324 z m 0.96532,1.33738 -0.58705,-1.18029 q -0.031,-0.0599 -0.0599,-0.11989 -0.0289,-0.0599 -0.062,-0.11989 -0.0186,-0.0331 -0.0434,-0.0475 -0.0227,-0.0165 -0.06,-0.0165 -0.0248,0 -0.0434,0.008 l -0.37001,1.47588 z m -3.19361,1.03973 h 2.67478 v 0.14883 l 0.14882,0.14676 h -2.97242 l 0.14882,-0.14676 z m 0.44649,-0.44648 h 1.7818 v 0.14882 l 0.14883,0.14883 h -2.07946 l 0.14883,-0.14883 z m 0.0744,-0.59325 -0.37207,-0.74414 q -0.0124,-0.0248 -0.0248,-0.0496 -0.0103,-0.0269 -0.0269,-0.0475 -0.0165,-0.0207 -0.0393,-0.0331 -0.0227,-0.0145 -0.0558,-0.0145 -0.0124,0 -0.0331,0.004 -0.0434,0.22324 -0.0868,0.44442 -0.0434,0.21911 -0.0909,0.44028 z m 0.37,0.14676 h 0.89297 v 0.14883 l 0.14676,0.14883 h -1.18649 l 0.14676,-0.14883 z m 0.14883,-2.07946 q -0.0145,-0.0289 -0.0269,-0.0537 -0.0124,-0.0269 -0.0289,-0.0455 -0.0165,-0.0207 -0.0413,-0.031 -0.0227,-0.0124 -0.0599,-0.0124 -0.006,0 -0.0124,0.002 -0.004,0 -0.0103,0.002 l -0.16743,0.83302 z"/>
      </g>
    </g>
  </g></svg>
