<?xml version="1.0" encoding="UTF-8" standalone="no"?>
<!-- Created with Inkscape (http://www.inkscape.org/) -->

<svg
   width="0.7874015in"
   height="0.68191022in"
   viewBox="0 0 19.999998 17.32052"
   version="1.1"
   id="svg1"
   inkscape:version="1.4 (86a8ad7, 2024-10-11)"
   sodipodi:docname="triangle tiles.svg"
   xmlns:inkscape="http://www.inkscape.org/namespaces/inkscape"
   xmlns:sodipodi="http://sodipodi.sourceforge.net/DTD/sodipodi-0.dtd"
   xmlns="http://www.w3.org/2000/svg"
   xmlns:svg="http://www.w3.org/2000/svg">
  <sodipodi:namedview
     id="namedview1"
     pagecolor="#ffffff"
     bordercolor="#cccccc"
     borderopacity="1"
     inkscape:showpageshadow="0"
     inkscape:pageopacity="1"
     inkscape:pagecheckerboard="0"
     inkscape:deskcolor="#aad1d1"
     inkscape:document-units="mm"
     showgrid="false"
     inkscape:zoom="0.46342214"
     inkscape:cx="496.30776"
     inkscape:cy="-39.920406"
     inkscape:window-width="1707"
     inkscape:window-height="996"
     inkscape:window-x="-8"
     inkscape:window-y="1072"
     inkscape:window-maximized="1"
     inkscape:current-layer="layer15"
     showguides="true">
    <inkscape:grid
       id="grid1"
       units="mm"
       originx="-40.620656"
       originy="-336.70562"
       spacingx="1"
       spacingy="1"
       empcolor="#0099e5"
       empopacity="0.30196078"
       color="#0099e5"
       opacity="0.14901961"
       empspacing="4"
       enabled="true"
       visible="false" />
    <sodipodi:guide
       position="198.09568,204.45025"
       orientation="1,0"
       id="guide446"
       inkscape:locked="false" />
    <sodipodi:guide
       position="200.71257,203.78725"
       orientation="1,0"
       id="guide447"
       inkscape:locked="false" />
    <sodipodi:guide
       position="248.09257,220.44213"
       orientation="1,0"
       id="guide448"
       inkscape:locked="false" />
    <sodipodi:guide
       position="250.69707,220.06668"
       orientation="1,0"
       id="guide449"
       inkscape:locked="false" />
    <inkscape:page
       x="0"
       y="-2.2498164e-12"
       width="19.999998"
       height="17.320518"
       id="page2"
       margin="0"
       bleed="0" />
  </sodipodi:namedview>
  <defs
     id="defs1" />
  <g
     inkscape:groupmode="layer"
     id="layer15"
     inkscape:label="Card back"
     style="display:inline"
     transform="translate(-40.620656,-336.70565)">
    <path
       id="path2"
       style="display:inline;fill:#dbdbe3;stroke-width:0.244412"
       inkscape:transform-center-y="-2.8867509"
       transform="matrix(0.72168785,0,0,0.72168785,26.804955,307.11645)"
       d="M 33,41 46.856406,65 H 19.143593 Z" />
  </g>
  <g
     inkscape:groupmode="layer"
     id="layer3"
     inkscape:label="Text"
     style="display:inline"
     transform="translate(-40.620656,-336.70565)">
    <path
       d="m 51.524303,344.58556 q 0.366645,0.2074 0.544411,0.5259 0.177767,0.31479 0.177767,0.6481 0,0.58515 -0.474045,1.00365 -0.474045,0.41479 -1.151781,0.41479 -0.685143,0 -1.159188,-0.41109 -0.470342,-0.41479 -0.470342,-1.00735 0,-0.71477 0.688847,-1.174 -0.292575,-0.25554 -0.4259,-0.50367 -0.133325,-0.24813 -0.133325,-0.58145 0,-0.54441 0.440714,-0.94809 0.444417,-0.40368 1.04438,-0.40368 0.599963,0 1.044381,0.39998 0.444417,0.39998 0.444417,0.93698 0,0.62589 -0.570336,1.09993 z m -0.1074,-1.0703 q 0,-0.33332 -0.237023,-0.56663 -0.237022,-0.23703 -0.574039,-0.23703 -0.333313,0 -0.574039,0.23703 -0.237022,0.23331 -0.237022,0.56663 0,0.33331 0.237022,0.57033 0.240726,0.23332 0.574039,0.23332 0.337017,0 0.574039,-0.23332 0.237023,-0.23702 0.237023,-0.57033 z m 0.151842,2.22949 q 0,-0.35553 -0.288871,-0.61107 -0.285168,-0.25554 -0.688847,-0.25554 -0.392568,0 -0.659219,0.25554 -0.26665,0.25183 -0.26665,0.62588 0,0.36665 0.277761,0.61108 0.281464,0.24443 0.699957,0.24443 0.388865,0 0.655515,-0.25184 0.270354,-0.25184 0.270354,-0.61848 z"
       id="text155"
       style="font-size:7.58472px;line-height:8.89744px;font-family:'Tw Cen MT';-inkscape-font-specification:'Tw Cen MT';text-align:center;letter-spacing:0px;word-spacing:0px;text-anchor:middle;fill:#808080;stroke-width:0.176389"
       aria-label="8" />
  </g>
  <g
     inkscape:groupmode="layer"
     id="layer8"
     inkscape:label="Clubs"
     style="display:inline"
     transform="translate(-40.620656,-336.70565)">
    <path
       style="font-size:4.5861px;line-height:5.37985px;font-family:'Yu Gothic';-inkscape-font-specification:'Yu Gothic';text-align:center;letter-spacing:0px;word-spacing:0px;text-anchor:middle;fill:#808080;stroke-width:0.176389"
       d="m 50.45167,351.4489 q 0,-0.10997 -0.04829,-0.10997 -0.05634,0 -0.109977,0.0832 -0.453327,0.61963 -1.021998,0.61963 -0.469422,0 -0.772533,-0.35139 -0.260194,-0.30311 -0.260194,-0.71889 0,-0.48015 0.324571,-0.78594 0.287018,-0.26824 0.697427,-0.26824 0.203863,0 0.43455,0.11534 0.139485,0.0724 0.394314,0.24678 0.04829,0.0322 0.08584,0.0322 0.06706,0 0.06706,-0.0617 0,-0.051 -0.05634,-0.0805 -0.335302,-0.25215 -0.485516,-0.49893 -0.15558,-0.25751 -0.15558,-0.57403 0,-0.47211 0.354078,-0.794 0.305795,-0.27628 0.718885,-0.27628 0.474786,0 0.793994,0.35407 0.276287,0.3058 0.276287,0.71621 0,0.35676 -0.201181,0.64109 -0.144849,0.20655 -0.439914,0.43187 -0.05634,0.0295 -0.05634,0.0805 0,0.0617 0.06706,0.0617 0.03755,0 0.08584,-0.0322 0.2897,-0.20118 0.447962,-0.27092 0.198499,-0.0912 0.383585,-0.0912 0.474787,0 0.772534,0.34335 0.254829,0.29506 0.254829,0.71083 0,0.48015 -0.337984,0.794 -0.292382,0.27628 -0.700109,0.27628 -0.571352,0 -1.024679,-0.61963 -0.05365,-0.0832 -0.109977,-0.0832 -0.04829,0 -0.04829,0.10998 0,0.40504 0.09389,0.75375 0.123392,0.44797 0.372855,0.8235 -0.313842,-0.0671 -0.630366,-0.0671 -0.31116,0 -0.633048,0.0671 0.249464,-0.37553 0.372854,-0.8235 0.09389,-0.34871 0.09389,-0.75375 z"
       id="path318" />
  </g>
</svg>
