<?xml version="1.0" encoding="UTF-8" standalone="no"?>
<!-- Created with Inkscape (http://www.inkscape.org/) -->

<svg
   width="0.7874015in"
   height="0.68191022in"
   viewBox="0 0 19.999998 17.32052"
   version="1.1"
   id="svg1"
   inkscape:version="1.4 (86a8ad7, 2024-10-11)"
   sodipodi:docname="triangle tiles.svg"
   xmlns:inkscape="http://www.inkscape.org/namespaces/inkscape"
   xmlns:sodipodi="http://sodipodi.sourceforge.net/DTD/sodipodi-0.dtd"
   xmlns="http://www.w3.org/2000/svg"
   xmlns:svg="http://www.w3.org/2000/svg">
  <sodipodi:namedview
     id="namedview1"
     pagecolor="#ffffff"
     bordercolor="#cccccc"
     borderopacity="1"
     inkscape:showpageshadow="0"
     inkscape:pageopacity="1"
     inkscape:pagecheckerboard="0"
     inkscape:deskcolor="#aad1d1"
     inkscape:document-units="mm"
     showgrid="true"
     inkscape:zoom="0.46342214"
     inkscape:cx="496.30776"
     inkscape:cy="-39.920406"
     inkscape:window-width="1707"
     inkscape:window-height="996"
     inkscape:window-x="-8"
     inkscape:window-y="1072"
     inkscape:window-maximized="1"
     inkscape:current-layer="layer15"
     showguides="false">
    <inkscape:grid
       id="grid1"
       units="mm"
       originx="-59.999998"
       originy="-362.67946"
       spacingx="20"
       spacingy="20"
       empcolor="#0099e5"
       empopacity="0.30196078"
       color="#0099e5"
       opacity="0.14901961"
       empspacing="4"
       enabled="true"
       visible="true" />
    <sodipodi:guide
       position="178.71634,230.42409"
       orientation="1,0"
       id="guide446"
       inkscape:locked="false" />
    <sodipodi:guide
       position="181.33323,229.76109"
       orientation="1,0"
       id="guide447"
       inkscape:locked="false" />
    <sodipodi:guide
       position="228.71323,246.41597"
       orientation="1,0"
       id="guide448"
       inkscape:locked="false" />
    <sodipodi:guide
       position="231.31773,246.04052"
       orientation="1,0"
       id="guide449"
       inkscape:locked="false" />
    <inkscape:page
       x="0"
       y="-2.4233697e-12"
       width="19.999998"
       height="17.320518"
       id="page2"
       margin="0"
       bleed="0" />
  </sodipodi:namedview>
  <defs
     id="defs1" />
  <g
     inkscape:groupmode="layer"
     id="layer15"
     inkscape:label="Card back"
     style="display:inline"
     transform="translate(-59.999998,-362.67949)">
    <path
       id="path24"
       style="display:inline;fill:#dbdbe3;stroke-width:0.176389"
       inkscape:transform-center-y="-2.8867509"
       d="m 69.999997,362.67949 10,17.32051 h -20 z" />
  </g>
  <g
     inkscape:groupmode="layer"
     id="layer3"
     inkscape:label="Text"
     style="display:inline"
     transform="translate(-59.999998,-362.67949)">
    <path
       d="m 70.903646,370.5594 q 0.366644,0.2074 0.544411,0.5259 0.177767,0.31479 0.177767,0.64811 0,0.58515 -0.474045,1.00364 -0.474045,0.41479 -1.151782,0.41479 -0.685143,0 -1.159188,-0.41109 -0.470341,-0.41479 -0.470341,-1.00734 0,-0.71477 0.688846,-1.17401 -0.292574,-0.25554 -0.425899,-0.50367 -0.133326,-0.24813 -0.133326,-0.58144 0,-0.54442 0.440714,-0.94809 0.444417,-0.40368 1.04438,-0.40368 0.599964,0 1.044381,0.39997 0.444417,0.39998 0.444417,0.93698 0,0.62589 -0.570335,1.09993 z m -0.107401,-1.0703 q 0,-0.33331 -0.237023,-0.56663 -0.237022,-0.23702 -0.574039,-0.23702 -0.333312,0 -0.574038,0.23702 -0.237023,0.23332 -0.237023,0.56663 0,0.33331 0.237023,0.57033 0.240726,0.23332 0.574038,0.23332 0.337017,0 0.574039,-0.23332 0.237023,-0.23702 0.237023,-0.57033 z m 0.151842,2.22949 q 0,-0.35553 -0.288871,-0.61107 -0.285167,-0.25554 -0.688846,-0.25554 -0.392569,0 -0.659219,0.25554 -0.266651,0.25184 -0.266651,0.62589 0,0.36664 0.277761,0.61107 0.281464,0.24443 0.699957,0.24443 0.388865,0 0.655516,-0.25184 0.270353,-0.25183 0.270353,-0.61848 z"
       id="text168"
       style="font-size:7.58472px;line-height:8.89744px;font-family:'Tw Cen MT';-inkscape-font-specification:'Tw Cen MT';text-align:center;letter-spacing:0px;word-spacing:0px;text-anchor:middle;fill:#ff0000;stroke-width:0.176389"
       aria-label="8" />
  </g>
  <g
     inkscape:groupmode="layer"
     id="layer9"
     inkscape:label="Diamonds"
     style="display:inline"
     transform="translate(-59.999998,-362.67949)">
    <path
       style="font-size:4.5861px;line-height:5.37985px;font-family:'Yu Gothic';-inkscape-font-specification:'Yu Gothic';text-align:center;letter-spacing:0px;word-spacing:0px;text-anchor:middle;fill:#ff0000;stroke-width:0.176389"
       d="m 69.999995,374.00001 q 0.704225,1.30281 1.888833,2.45724 -1.172033,1.17958 -1.888833,2.54276 -0.711771,-1.35061 -1.89638,-2.54276 1.187124,-1.1494 1.89638,-2.45724 z"
       id="path332" />
  </g>
</svg>
