<?xml version='1.0' encoding='UTF-8'?>
<!-- Created with Inkscape (http://www.inkscape.org/) and export_objects.py -->
<svg xmlns:cc="http://creativecommons.org/ns#" xmlns:dc="http://purl.org/dc/elements/1.1/" xmlns:inkscape="http://www.inkscape.org/namespaces/inkscape" xmlns:rdf="http://www.w3.org/1999/02/22-rdf-syntax-ns#" xmlns:sodipodi="http://sodipodi.sourceforge.net/DTD/sodipodi-0.dtd" xmlns:xlink="http://www.w3.org/1999/xlink" xmlns="http://www.w3.org/2000/svg" version="1.1" sodipodi:docname="step02.svg" inkscape:version="0.92.3 (2405546, 2018-03-11)" width="44.45mm" height="44.45mm" viewBox="0 0 44.45 44.45" id="svg5174"><sodipodi:namedview inkscape:snap-others="false" inkscape:snap-nodes="true" inkscape:bbox-nodes="true" inkscape:snap-bbox="false" id="base" pagecolor="#ffffff" bordercolor="#666666" borderopacity="1.0" inkscape:pageopacity="0.0" inkscape:pageshadow="2" inkscape:zoom="0.17302633" inkscape:cx="2087.9998" inkscape:cy="216.00001" inkscape:document-units="mm" inkscape:current-layer="layer1" showgrid="false" inkscape:measure-start="72,612" inkscape:measure-end="72,552" inkscape:snap-grids="true" inkscape:window-width="1280" inkscape:window-height="945" inkscape:window-x="-9" inkscape:window-y="-9" inkscape:window-maximized="1" inkscape:object-nodes="true">
    <inkscape:grid type="xygrid" id="grid5337" units="pt" spacingx="3.175" spacingy="3.175"/>
  </sodipodi:namedview>
  <metadata id="metadata5171">
    <rdf:RDF>
      <cc:Work rdf:about="">
        <dc:format>image/svg+xml</dc:format>
        <dc:type rdf:resource="http://purl.org/dc/dcmitype/StillImage"/>
        <dc:title/>
      </cc:Work>
    </rdf:RDF>
  </metadata>
  <g inkscape:groupmode="layer" inkscape:label="step" transform="matrix(1.000000,0.000000,0.000000,1.000000,-342.899974,-17.600000)"><g id="g1818" inkscape:label="02">
      <rect y="17.6" x="342.89996" height="44.450001" width="44.450001" id="rect1125" style="opacity:1;fill:#ffffff;fill-opacity:0.90562289;stroke:none;stroke-width:0.35277778;stroke-linecap:butt;stroke-linejoin:miter;stroke-miterlimit:47.14606857;stroke-dasharray:none;stroke-dashoffset:0;stroke-opacity:1;paint-order:markers fill stroke"/>
      <g transform="translate(317.49996,3.1750024)" id="g5342">
        <g transform="translate(-38.099989,-88.899988)" id="g6955">
          <rect style="opacity:1;fill:#ff7f2a;fill-opacity:1;stroke:none;stroke-width:6.3499999;stroke-linecap:butt;stroke-linejoin:miter;stroke-miterlimit:47.14606857;stroke-dasharray:none;stroke-dashoffset:0;stroke-opacity:1;paint-order:markers fill stroke" id="rect5311" width="19.049999" height="19.049999" x="76.199989" y="125.54999"/>
          <path d="m 91.678117,132.5971 v 4.4657 q 0,0.82135 -0.213972,1.58059 -0.21396,0.75924 -0.600486,1.42186 -0.386516,0.66261 -0.931795,1.20098 -0.545269,0.54527 -1.207874,0.93179 -0.662606,0.38652 -1.421846,0.60049 -0.75924,0.21397 -1.580598,0.21397 -0.821359,0 -1.580599,-0.21397 -0.75924,-0.21397 -1.421845,-0.60049 -0.662606,-0.38652 -1.207886,-0.93179 -0.538367,-0.53837 -0.924883,-1.20098 -0.386526,-0.66262 -0.600486,-1.42186 -0.213971,-0.75924 -0.213971,-1.58059 0,-0.69022 0.138039,-1.36663 0.138051,-0.68331 0.400328,-1.31831 0.26919,-0.63501 0.648804,-1.20789 0.386526,-0.57977 0.876577,-1.06983 h -0.572883 v -1.98782 q 0,-0.28989 0.08281,-0.57288 0.08971,-0.28299 0.248475,-0.52457 0.158754,-0.24157 0.379615,-0.42793 0.220872,-0.19327 0.496962,-0.30371 0.255377,-0.10351 0.48315,-0.12423 0.234674,-0.0276 0.476249,-0.0276 h 0.310594 v -0.99392 h 0.600498 q 0.352011,0 0.69711,0.0207 0.34511,0.0138 0.69022,0.0828 0.724724,0.13805 1.359726,0.49006 0.641903,0.35201 1.145767,0.86276 0.510753,0.50387 0.862764,1.14577 0.352011,0.6419 0.496962,1.35973 0.06901,0.3244 0.08281,0.6557 0.0138,0.32441 0.0138,0.65571 v 0.3313 q 0.393427,-0.0897 0.779954,-0.11733 0.386515,-0.0276 0.779942,-0.0276 z m -0.993914,4.52782 v -3.54082 q -0.600487,0 -1.083636,0.26919 -0.48315,0.26228 -0.876577,0.69712 l -0.0207,0.0276 v -2.47788 q 0,-0.22087 -0.0276,-0.44174 -0.0276,-0.22086 -0.07591,-0.44173 -0.144951,-0.67642 -0.510764,-1.24239 -0.365813,-0.56598 -0.883478,-0.97321 -0.517665,-0.41413 -1.152656,-0.64191 -0.635002,-0.22777 -1.318321,-0.22777 v 0.069 q 0,0.55218 -0.117337,1.12506 -0.117337,0.56598 -0.34511,1.10434 -0.220861,0.53837 -0.538368,1.02843 -0.317495,0.48315 -0.710922,0.86968 -0.158754,0.15874 -0.324397,0.31059 -0.158753,0.14494 -0.310605,0.3106 -0.365813,0.41413 -0.669507,0.88348 -0.296793,0.46934 -0.510764,0.98701 -0.21396,0.51076 -0.331297,1.05603 -0.110414,0.53837 -0.110414,1.09744 0,1.23549 0.496951,2.27772 0.496963,1.03533 1.483965,1.78076 v -1.49087 q 0,-0.42103 0.110413,-0.72472 0.110414,-0.3037 0.276091,-0.54528 0.165654,-0.24848 0.358911,-0.46244 0.193258,-0.22087 0.358912,-0.46245 0.165654,-0.24847 0.276091,-0.55218 0.110413,-0.30369 0.110413,-0.72472 0.614289,0 1.152656,0.23467 0.54528,0.23468 0.945597,0.64191 0.407229,0.40032 0.641903,0.94559 0.234674,0.53837 0.234674,1.15267 0.317506,-0.25539 0.704022,-0.37272 0.386526,-0.12424 0.786854,-0.12424 v 2.48478 q 0.455535,-0.3382 0.821359,-0.77994 0.365813,-0.43483 0.621189,-0.9387 0.262289,-0.51077 0.400328,-1.06294 0.13804,-0.55216 0.13804,-1.12505 z m -4.962657,2.41576 q -0.310595,0 -0.579784,0.11734 -0.269179,0.11734 -0.469348,0.3244 -0.200159,0.20016 -0.317496,0.46935 -0.117337,0.26919 -0.117337,0.57978 v 0.75924 q 0.724725,0.22778 1.490866,0.22778 0.76614,0 1.483964,-0.22778 v -1.2562 l -1.490865,0.49696 z m -3.471792,-9.42836 v 0.9939 q 0.20707,0 0.386526,-0.0759 0.179456,-0.0828 0.310595,-0.21396 0.138039,-0.13805 0.21396,-0.3175 0.08281,-0.17946 0.08281,-0.38652 v -0.98701 h -0.103513 q -0.179456,0 -0.34511,0.0897 -0.158742,0.0897 -0.282991,0.23467 -0.117337,0.13804 -0.193258,0.3175 -0.06901,0.17255 -0.06901,0.34511 z" style="font-style:normal;font-variant:normal;font-weight:normal;font-stretch:normal;font-size:medium;line-height:100%;font-family:'Segoe UI Emoji';-inkscape-font-specification:'Segoe UI Emoji, Normal';font-variant-ligatures:normal;font-variant-caps:normal;font-variant-numeric:normal;font-feature-settings:normal;text-align:start;letter-spacing:0px;word-spacing:0px;writing-mode:lr-tb;text-anchor:start;fill:#ffb380;fill-opacity:1;stroke:none;stroke-width:0.26458332" id="path5242" inkscape:connector-curvature="0"/>
        </g>
        <g transform="translate(12.699998,-107.94999)" id="g4929">
          <rect y="125.54999" x="25.400002" height="19.049999" width="19.049999" id="rect4925" style="opacity:1;fill:#ffaaaa;fill-opacity:1;stroke:none;stroke-width:6.3499999;stroke-linecap:butt;stroke-linejoin:miter;stroke-miterlimit:47.14606857;stroke-dasharray:none;stroke-dashoffset:0;stroke-opacity:1;paint-order:markers fill stroke"/>
          <path d="m 36.167389,127.13755 h 0.248476 q 0.890391,0 1.71175,0.23467 0.821349,0.22776 1.539184,0.6488 0.717824,0.42104 1.30451,1.00772 0.586685,0.58669 1.007717,1.30451 0.421031,0.71783 0.648804,1.53918 0.234675,0.82136 0.234675,1.71174 v 1.49087 q 0,1.09745 -0.282992,2.11207 -0.282991,1.00771 -0.800646,1.89119 -0.517666,0.88348 -1.242402,1.60822 -0.724725,0.72472 -1.608204,1.24239 -0.883478,0.51765 -1.898096,0.80064 -1.014617,0.283 -2.105167,0.283 -1.097439,0 -2.112067,-0.283 -1.014618,-0.28299 -1.898096,-0.80064 -0.876578,-0.51767 -1.601303,-1.24239 -0.724725,-0.72474 -1.242391,-1.60132 -0.517665,-0.88347 -0.800657,-1.89809 -0.282991,-1.01462 -0.282991,-2.11207 v -6.94359 q 0.172555,0 0.331308,0 0.158754,-0.007 0.317496,-0.007 0.289893,0 0.559082,0.0207 0.269179,0.0207 0.524567,0.0966 0.255376,0.069 0.496951,0.21397 0.248476,0.14494 0.496963,0.38653 0.352012,-0.34511 0.800646,-0.52457 0.448646,-0.18637 0.938697,-0.18637 h 0.993915 v 1.2424 q 0.27609,-0.51766 0.669507,-0.93179 0.400328,-0.41413 0.876578,-0.70402 0.483161,-0.2899 1.035331,-0.44175 0.55217,-0.15874 1.138855,-0.15874 z m -6.205053,3.47179 v 0.17946 q 0.289893,-0.32441 0.669507,-0.49697 0.386527,-0.17945 0.82136,-0.17945 v -0.98702 q -0.310595,0 -0.579785,0.11734 -0.269178,0.11734 -0.476249,0.31751 -0.200158,0.20016 -0.317496,0.46935 -0.117337,0.26918 -0.117337,0.57978 z m -1.980928,-1.48398 v 0.98702 q 0.427943,0 0.814458,0.17945 0.386527,0.17256 0.669507,0.49697 v -0.17946 q 0,-0.3106 -0.117337,-0.57978 -0.117337,-0.26919 -0.317495,-0.46935 -0.200159,-0.20017 -0.469349,-0.31751 -0.269178,-0.11734 -0.579784,-0.11734 z m 0,1.48398 v 3.96875 h 3.471795 v -3.96875 q -0.310595,0 -0.579785,0.11734 -0.269178,0.11734 -0.476249,0.3244 -0.200158,0.20015 -0.317496,0.46934 -0.117337,0.26919 -0.117337,0.57979 v 0.76614 q 0,0.0966 -0.08281,0.16565 -0.07591,0.0621 -0.165654,0.0621 -0.103513,0 -0.165655,-0.0621 -0.06211,-0.0621 -0.07591,-0.15875 -0.0207,-0.12424 -0.0207,-0.28299 0,-0.12424 0.0067,-0.24848 0.0067,-0.13114 0.0067,-0.24157 0,-0.3106 -0.117338,-0.57979 -0.117337,-0.26919 -0.317495,-0.46934 -0.200159,-0.20706 -0.469349,-0.3244 -0.269178,-0.11734 -0.579784,-0.11734 z m 1.380441,8.62082 2.408861,-2.43647 q -0.317507,-0.57288 -0.317507,-1.22169 h -3.451082 q 0.06901,0.99392 0.40723,1.93261 0.345099,0.93179 0.952498,1.72555 z m 4.569235,2.71945 v -3.89973 q -0.414131,0 -0.793745,-0.13113 -0.379626,-0.13115 -0.710924,-0.37273 l -2.408861,2.44338 q 0.828261,0.80064 1.794561,1.2976 0.973212,0.50386 2.118969,0.66261 z m 0,-4.88674 q 0.310606,0 0.579784,-0.11734 0.26919,-0.11734 0.469349,-0.31749 0.20707,-0.20707 0.324407,-0.47625 0.117337,-0.26919 0.117337,-0.57979 v -0.069 q -0.476249,-0.0828 -0.917994,-0.26919 -0.434833,-0.19325 -0.821359,-0.46934 -0.379615,-0.283 -0.697122,-0.64191 -0.310595,-0.35891 -0.538368,-0.78684 v 2.2363 q 0,0.3106 0.117337,0.57979 0.117337,0.26918 0.317496,0.47625 0.20017,0.20016 0.469348,0.31749 0.26919,0.11734 0.579785,0.11734 z m 7.937505,-1.98783 v -1.49087 q 0,-0.75234 -0.193258,-1.44946 -0.193268,-0.69711 -0.552181,-1.29761 -0.352011,-0.60738 -0.855864,-1.10434 -0.496963,-0.50386 -1.104351,-0.85587 -0.600487,-0.35891 -1.297608,-0.55217 -0.697122,-0.19327 -1.449462,-0.19327 h -0.248476 q -0.669507,0 -1.256192,0.25539 -0.586686,0.24847 -1.028431,0.69022 -0.434832,0.43483 -0.690209,1.02152 -0.255388,0.58668 -0.255388,1.25619 0,0.55908 0.179456,1.06983 0.179467,0.50387 0.503864,0.9249 0.331308,0.41413 0.779943,0.71092 0.455547,0.2968 0.993915,0.42794 0.310595,-0.68331 0.731637,-1.29071 0.427932,-0.61429 0.945598,-1.15266 0.09661,-0.0966 0.186356,-0.19326 0.09661,-0.10351 0.200159,-0.18637 0.144952,-0.12423 0.33821,-0.12423 0.200158,0 0.34511,0.14495 0.151841,0.14494 0.151841,0.35201 0,0.11734 -0.04831,0.20016 -0.04141,0.0828 -0.117337,0.16565 -0.09661,0.0966 -0.193269,0.19326 -0.09661,0.0897 -0.193257,0.18636 -0.400329,0.41413 -0.731626,0.89039 -0.331309,0.46935 -0.593598,0.987 0,0.15875 0.0067,0.31751 0.0067,0.15874 0.0067,0.31749 0,0.20707 -0.0207,0.39343 1.23549,-0.36581 2.519297,-0.36581 0.207071,0 0.352011,0.14494 0.144952,0.14494 0.144952,0.35201 0,0.20016 -0.151853,0.35201 -0.14494,0.14494 -0.34511,0.14494 -0.738527,0 -1.463263,0.13805 -0.724725,0.13114 -1.414946,0.40723 -0.04831,0.0759 -0.103513,0.15184 -0.04831,0.0759 -0.110414,0.14495 0.110414,0.069 0.28298,0.19326 0.172555,0.12424 0.365824,0.28299 0.193258,0.15876 0.386516,0.33821 0.193258,0.17946 0.352011,0.35892 0.158754,0.17945 0.255388,0.35201 0.09661,0.16564 0.09661,0.29679 0,0.20706 -0.14494,0.35201 -0.144952,0.14494 -0.345111,0.14494 -0.138039,0 -0.227773,-0.0483 -0.08971,-0.0552 -0.179456,-0.15874 -0.06901,-0.0759 -0.131139,-0.16566 -0.06211,-0.0897 -0.13115,-0.16565 -0.303694,-0.35201 -0.662606,-0.635 -0.352011,-0.28299 -0.766142,-0.49005 l -0.06211,0.0276 v 4.17581 q 0.959399,0 1.842878,-0.24847 0.89039,-0.24848 1.663433,-0.70402 0.773042,-0.44865 1.401133,-1.07674 0.635002,-0.635 1.083648,-1.40805 0.455547,-0.77304 0.704022,-1.65652 0.248476,-0.89038 0.248476,-1.84979 z m -6.943591,-5.94968 q 0.20017,0 0.345111,0.14496 0.151852,0.14494 0.151852,0.34511 0,0.20706 -0.144951,0.35201 -0.144941,0.14494 -0.352012,0.14494 -0.207059,0 -0.352011,-0.14494 -0.14494,-0.14495 -0.14494,-0.35201 0,-0.20017 0.14494,-0.34511 0.151853,-0.14496 0.352011,-0.14496 z m 1.980929,0 q 0.200159,0 0.345111,0.14496 0.151841,0.14494 0.151841,0.34511 0,0.20706 -0.144941,0.35201 -0.144951,0.14494 -0.352011,0.14494 -0.20017,0 -0.34511,-0.14494 -0.144952,-0.15185 -0.144952,-0.35201 0,-0.20017 0.144952,-0.34511 0.14494,-0.14496 0.34511,-0.14496 z m -1.980929,1.98093 q 0.207071,0 0.352012,0.14494 0.144951,0.14496 0.144951,0.35202 0,0.20707 -0.144951,0.35201 -0.144941,0.14495 -0.352012,0.14495 -0.207059,0 -0.352011,-0.14495 -0.14494,-0.14494 -0.14494,-0.35201 0,-0.20706 0.14494,-0.35202 0.144952,-0.14494 0.352011,-0.14494 z" style="font-style:normal;font-variant:normal;font-weight:normal;font-stretch:normal;font-size:medium;line-height:100%;font-family:'Segoe UI Emoji';-inkscape-font-specification:'Segoe UI Emoji, Normal';font-variant-ligatures:normal;font-variant-caps:normal;font-variant-numeric:normal;font-feature-settings:normal;text-align:start;letter-spacing:0px;word-spacing:0px;writing-mode:lr-tb;text-anchor:start;fill:#ffd5d5;fill-opacity:1;stroke:none;stroke-width:0.26458332" id="path4927" inkscape:connector-curvature="0"/>
        </g>
      </g>
    </g>
    </g></svg>
