<?xml version='1.0' encoding='UTF-8'?>
<!-- Created with Inkscape (http://www.inkscape.org/) and export_objects.py -->
<svg xmlns:cc="http://creativecommons.org/ns#" xmlns:dc="http://purl.org/dc/elements/1.1/" xmlns:inkscape="http://www.inkscape.org/namespaces/inkscape" xmlns:rdf="http://www.w3.org/1999/02/22-rdf-syntax-ns#" xmlns:sodipodi="http://sodipodi.sourceforge.net/DTD/sodipodi-0.dtd" xmlns:xlink="http://www.w3.org/1999/xlink" xmlns="http://www.w3.org/2000/svg" version="1.1" sodipodi:docname="step03.svg" inkscape:version="0.92.3 (2405546, 2018-03-11)" width="44.45mm" height="44.45mm" viewBox="0 0 44.45 44.45" id="svg5174"><sodipodi:namedview inkscape:snap-others="false" inkscape:snap-nodes="true" inkscape:bbox-nodes="true" inkscape:snap-bbox="false" id="base" pagecolor="#ffffff" bordercolor="#666666" borderopacity="1.0" inkscape:pageopacity="0.0" inkscape:pageshadow="2" inkscape:zoom="0.88702143" inkscape:cx="4517.9849" inkscape:cy="-775.89744" inkscape:document-units="mm" inkscape:current-layer="layer1" showgrid="true" inkscape:measure-start="72,612" inkscape:measure-end="72,552" inkscape:snap-grids="true" inkscape:window-width="1280" inkscape:window-height="940" inkscape:window-x="1909" inkscape:window-y="43" inkscape:window-maximized="1" inkscape:object-nodes="true">
    <inkscape:grid type="xygrid" id="grid5337" units="pt" spacingx="3.175" spacingy="3.175"/>
  </sodipodi:namedview>
  <metadata id="metadata5171">
    <rdf:RDF>
      <cc:Work rdf:about="">
        <dc:format>image/svg+xml</dc:format>
        <dc:type rdf:resource="http://purl.org/dc/dcmitype/StillImage"/>
        <dc:title/>
      </cc:Work>
    </rdf:RDF>
  </metadata>
  <g inkscape:groupmode="layer" inkscape:label="step" transform="matrix(1.000000,0.000000,0.000000,1.000000,-1225.550053,-74.750001)"><g id="g1975" inkscape:label="03">
      <rect style="opacity:1;fill:#ffffff;fill-opacity:0.90562289;stroke:none;stroke-width:0.35277778;stroke-linecap:butt;stroke-linejoin:miter;stroke-miterlimit:47.14606857;stroke-dasharray:none;stroke-dashoffset:0;stroke-opacity:1;paint-order:markers fill stroke" id="rect1663" width="44.450001" height="44.450001" x="1225.55" y="74.75"/>
      <g id="g1690" transform="translate(1187.4501,-47.624985)">
        <rect y="125.54999" x="50.799995" height="19.049999" width="19.049999" id="rect1686" style="opacity:1;fill:#aa0000;fill-opacity:1;stroke:none;stroke-width:6.3499999;stroke-linecap:butt;stroke-linejoin:miter;stroke-miterlimit:47.14606857;stroke-dasharray:none;stroke-dashoffset:0;stroke-opacity:1;paint-order:markers fill stroke"/>
        <path inkscape:connector-curvature="0" id="path1688" style="font-style:normal;font-variant:normal;font-weight:normal;font-stretch:normal;font-size:medium;line-height:100%;font-family:'Segoe UI Emoji';-inkscape-font-specification:'Segoe UI Emoji, Normal';font-variant-ligatures:normal;font-variant-caps:normal;font-variant-numeric:normal;font-feature-settings:normal;text-align:start;letter-spacing:0px;word-spacing:0px;writing-mode:lr-tb;text-anchor:start;fill:#d35f5f;fill-opacity:1;stroke:none;stroke-width:0.26458332" d="m 60.777105,127.13749 q 0.07591,0 0.138051,0.0483 0.06901,0.0483 0.09661,0.12424 l 0.255376,0.75234 q 0.282992,0.82826 0.676419,1.5668 0.393417,0.73162 0.848963,1.42184 0.462448,0.69022 0.973212,1.35973 0.510754,0.66261 1.028419,1.34593 0.600487,0.79374 0.917994,1.67032 0.317495,0.87658 0.317495,1.87739 0,0.78685 -0.20707,1.51848 -0.200159,0.72473 -0.572872,1.35973 -0.372725,0.635 -0.897281,1.15266 -0.517665,0.52456 -1.152668,0.89729 -0.628101,0.37271 -1.359727,0.57287 -0.724725,0.20707 -1.51158,0.20707 -0.786844,0 -1.518481,-0.20707 -0.724725,-0.20016 -1.359727,-0.57287 -0.634992,-0.37273 -1.159558,-0.89729 -0.517665,-0.51766 -0.890379,-1.15266 -0.372725,-0.635 -0.579785,-1.35973 -0.200169,-0.73163 -0.200169,-1.51848 0,-1.01462 0.324407,-1.89119 0.324397,-0.87658 0.931796,-1.67724 0.517654,-0.68331 1.021518,-1.34591 0.503864,-0.66262 0.959399,-1.34593 0.462447,-0.69022 0.848974,-1.42184 0.393416,-0.73854 0.676408,-1.5599 l 0.255376,-0.75234 q 0.0276,-0.0759 0.08971,-0.12424 0.06901,-0.0483 0.144951,-0.0483 z m -0.448635,14.8811 q 0.648805,0 1.249292,-0.17256 0.607387,-0.16565 1.125053,-0.47625 0.524566,-0.30369 0.952498,-0.73163 0.434844,-0.42794 0.738538,-0.95251 0.303694,-0.52456 0.469348,-1.12505 0.172555,-0.60739 0.172555,-1.25619 0,-0.84898 -0.269189,-1.5599 -0.262278,-0.71092 -0.766142,-1.38733 -0.531467,-0.71092 -1.069835,-1.40804 -0.531467,-0.70403 -1.014617,-1.43565 -0.48315,-0.73164 -0.890379,-1.50468 -0.407229,-0.77304 -0.697122,-1.62892 -0.289892,0.85588 -0.704022,1.62892 -0.407229,0.77304 -0.890379,1.50468 -0.48315,0.73162 -1.021529,1.43565 -0.531468,0.69712 -1.062935,1.40804 -0.503852,0.67641 -0.773042,1.38733 -0.262278,0.71092 -0.262278,1.5599 0,0.6488 0.165655,1.25619 0.172544,0.60049 0.476249,1.12505 0.303694,0.52457 0.731626,0.95251 0.434832,0.43484 0.959399,0.73853 0.524566,0.3037 1.125053,0.46935 0.600498,0.17256 1.256203,0.17256 z"/>
      </g>
      <g id="g1740" transform="translate(1111.25,-53.975)">
        <rect y="150.95" x="127" height="19.049999" width="19.049999" id="rect1736" style="opacity:1;fill:#a05a2c;fill-opacity:1;stroke:none;stroke-width:6.3499999;stroke-linecap:butt;stroke-linejoin:miter;stroke-miterlimit:47.14606857;stroke-dasharray:none;stroke-dashoffset:0;stroke-opacity:1;paint-order:markers fill stroke"/>
        <path d="m 144.4625,155.01538 q 0,0.71093 -0.27609,1.35283 -0.26919,0.635 -0.76614,1.13195 0.49695,0.49697 0.76614,1.13196 0.27609,0.635 0.27609,1.34592 v 3.96876 h -1.49088 q -0.66951,0 -1.26309,-0.23467 -0.12424,0.33129 -0.3106,0.64189 -0.17945,0.3037 -0.40723,0.57289 0,0.44174 -0.15185,0.84897 -0.14494,0.40722 -0.41413,0.73163 -0.26228,0.3244 -0.635,0.55217 -0.36581,0.22777 -0.80065,0.3106 -0.49696,0.49695 -1.13196,0.76614 -0.62809,0.27608 -1.33212,0.27608 -0.70402,0 -1.33902,-0.27608 -0.635,-0.26919 -1.13196,-0.76614 -0.43483,-0.0897 -0.80755,-0.31751 -0.36582,-0.22086 -0.62809,-0.54526 -0.26229,-0.32441 -0.41413,-0.73163 -0.14496,-0.40033 -0.14496,-0.84897 -0.22777,-0.26919 -0.41413,-0.57289 -0.17945,-0.3106 -0.30369,-0.64189 -0.59359,0.23467 -1.2631,0.23467 h -1.49087 v -3.96876 q 0,-0.71092 0.26919,-1.34592 0.27608,-0.63499 0.77304,-1.13196 -0.49696,-0.49695 -0.77304,-1.13195 -0.26919,-0.6419 -0.26919,-1.35283 v -0.98701 q 0,-0.3106 0.11734,-0.57979 0.11733,-0.26917 0.3175,-0.46934 0.20706,-0.20706 0.47625,-0.3244 0.26918,-0.11734 0.57978,-0.11734 h 0.98701 v 1.49087 q 0,0.20017 0.14495,0.35201 0.15184,0.14495 0.35201,0.14495 h 9.92533 q 0.20017,0 0.34511,-0.14495 0.15185,-0.15184 0.15185,-0.35201 v -1.49087 h 0.987 q 0.31061,0 0.57979,0.11734 0.26919,0.11734 0.46934,0.3244 0.20707,0.20017 0.32441,0.46934 0.11734,0.26919 0.11734,0.57979 z m -0.99392,7.93751 v -2.97485 q 0,-0.50385 -0.20017,-0.95249 -0.19325,-0.45555 -0.53146,-0.79375 -0.3382,-0.33821 -0.79375,-0.53148 -0.44864,-0.20016 -0.9525,-0.20016 0,-0.40723 -0.15875,-0.76614 -0.15875,-0.36581 -0.42793,-0.635 -0.26919,-0.26918 -0.635,-0.42793 -0.35892,-0.15876 -0.76614,-0.15876 h -4.95577 q -0.40723,0 -0.77304,0.15876 -0.35891,0.15875 -0.6281,0.42793 -0.26919,0.26919 -0.42793,0.635 -0.15876,0.35891 -0.15876,0.76614 -0.46244,0 -0.91108,0.18636 -0.44174,0.17946 -0.79375,0.49696 -0.34511,0.3106 -0.55907,0.73853 -0.21398,0.42103 -0.21398,0.89728 v 3.1336 q 0.283,0 0.53837,-0.007 0.26229,-0.0138 0.50387,-0.0621 0.24157,-0.0483 0.46934,-0.14495 0.23468,-0.10352 0.47625,-0.283 0,-0.75232 -0.007,-1.48396 0,-0.73853 0,-1.49087 l 0.49698,-0.49694 v 2.98175 q 0,0.41413 0.0414,0.81445 0.0483,0.39343 0.24847,0.76615 l 0.20706,0.38651 q 0,-0.352 0.11734,-0.6626 0.11734,-0.3175 0.32441,-0.57288 0.21397,-0.25538 0.50386,-0.43484 0.28988,-0.17946 0.62809,-0.25538 0.19326,-0.35201 0.29679,-0.73854 0.11042,-0.39341 0.11042,-0.79374 v -2.47788 q 0,-0.39343 0.15185,-0.75924 0.15184,-0.36581 0.43483,-0.6488 0.27609,-0.2761 0.64191,-0.42794 0.36581,-0.15185 0.75924,-0.15185 0.40032,0 0.77304,0.15875 0.26919,0.11734 0.49005,0.3106 0.22777,0.18636 0.38652,0.42793 0.15876,0.24158 0.24158,0.52457 0.0897,0.27609 0.0897,0.56598 v 2.47788 q 0,0.38652 0.11733,0.78684 0.11733,0.40033 0.28989,0.74544 0.33821,0.0759 0.6281,0.25538 0.28989,0.17946 0.49696,0.43484 0.21396,0.25538 0.3313,0.57288 0.12424,0.3106 0.12424,0.6626 0.28989,-0.45553 0.39343,-0.9456 0.10351,-0.49005 0.10351,-1.02151 v -2.98175 l 0.49695,0.49697 q 0,0.42793 0,0.84896 0.007,0.42103 0.007,0.84897 0,0.3244 -0.007,0.64191 0,0.31059 -0.007,0.63499 0.23468,0.18636 0.46935,0.28989 0.23467,0.0966 0.47625,0.14495 0.24157,0.0483 0.49695,0.0552 0.25539,0.007 0.54528,0.007 z m -9.02805,-0.49007 q -0.28988,0 -0.54527,0.13115 -0.24848,0.12424 -0.43483,0.3382 -0.18636,0.20707 -0.2968,0.47625 -0.11041,0.26229 -0.11041,0.53838 v 0.99391 q 0,0.3106 0.11734,0.57978 0.11733,0.26919 0.31749,0.46935 0.20017,0.20707 0.46935,0.32441 0.26919,0.11734 0.57979,0.11734 h 3.96876 q 0.31059,0 0.57977,-0.11734 0.26919,-0.11734 0.46935,-0.32441 0.20707,-0.20016 0.32441,-0.46935 0.11733,-0.26918 0.11733,-0.57978 v -0.99391 q 0,-0.27609 -0.11041,-0.53838 -0.11042,-0.26918 -0.3037,-0.47625 -0.18635,-0.21396 -0.44174,-0.3382 -0.24848,-0.13115 -0.53147,-0.13115 z m 2.08446,-5.95657 q -0.31059,0 -0.57978,0.11734 -0.26919,0.11733 -0.47625,0.3244 -0.20016,0.20016 -0.3175,0.46935 -0.11733,0.26918 -0.11733,0.57979 v 2.47788 q 0,0.38651 -0.0897,0.76614 -0.0897,0.37271 -0.24158,0.72472 h 3.64435 q -0.15185,-0.35201 -0.24157,-0.72472 -0.0897,-0.37963 -0.0897,-0.76614 v -2.47788 q 0,-0.31061 -0.11734,-0.57979 -0.11734,-0.26919 -0.3244,-0.46935 -0.20017,-0.20707 -0.46934,-0.3244 -0.26919,-0.11734 -0.57979,-0.11734 z m 5.59767,0.71782 q 0.31059,-0.15874 0.55907,-0.39341 0.24849,-0.23468 0.42104,-0.51767 0.17946,-0.28989 0.26918,-0.6212 0.0966,-0.3313 0.0966,-0.67641 v -0.98701 q 0,-0.20706 -0.14495,-0.35201 -0.14494,-0.14494 -0.35201,-0.14494 v 0.49695 q 0,0.31059 -0.11734,0.57978 -0.11733,0.26919 -0.31749,0.46935 -0.20016,0.20016 -0.46935,0.3175 -0.26919,0.11733 -0.57979,0.11733 h -0.99391 q 0.17946,0.13115 0.33131,0.3037 0.15875,0.17255 0.28299,0.37272 0.12424,0.19326 0.20706,0.41413 0.0897,0.21396 0.12424,0.43484 0.35201,0.0552 0.68332,0.18635 z m -12.54126,-2.20869 q 0,0.34511 0.0897,0.67641 0.0966,0.33131 0.26918,0.6212 0.17946,0.28299 0.42793,0.51767 0.24849,0.23467 0.55909,0.39341 0.31749,-0.13114 0.6764,-0.18635 0.0897,-0.45555 0.33131,-0.85587 0.24848,-0.40033 0.62119,-0.66952 h -0.9939 q -0.31061,0 -0.57979,-0.11733 -0.26919,-0.11734 -0.46934,-0.3175 -0.20017,-0.20016 -0.31751,-0.46935 -0.11734,-0.26919 -0.11734,-0.57978 v -0.49695 q -0.20706,0 -0.35201,0.14494 -0.14494,0.14495 -0.14494,0.35201 z m 3.72027,2.98175 q 0.15186,0 0.283,0.0621 0.13804,0.0552 0.24157,0.15874 0.10351,0.0966 0.15875,0.23467 0.0621,0.13114 0.0621,0.28299 v 0.99392 q 0,0.15185 -0.0621,0.28989 -0.0552,0.13114 -0.15875,0.23467 -0.10351,0.10352 -0.24157,0.16566 -0.13114,0.0552 -0.283,0.0552 -0.15875,0 -0.29679,-0.0552 -0.13114,-0.0621 -0.23467,-0.15875 -0.0966,-0.10352 -0.15876,-0.23468 -0.0552,-0.13804 -0.0552,-0.29679 v -0.99392 q 0,-0.15185 0.0552,-0.28989 0.0621,-0.13804 0.16566,-0.23467 0.10351,-0.0966 0.23467,-0.15184 0.13805,-0.0621 0.28989,-0.0621 z m 6.44664,0 q 0.15185,0 0.28298,0.0621 0.13805,0.0552 0.24159,0.15184 0.10351,0.0966 0.15874,0.23467 0.0621,0.13804 0.0621,0.28989 v 0.99392 q 0,0.15875 -0.0621,0.29679 -0.0552,0.13114 -0.15874,0.23468 -0.0966,0.0966 -0.23467,0.15875 -0.13805,0.0552 -0.2899,0.0552 -0.15185,0 -0.28989,-0.0552 -0.13115,-0.0621 -0.23467,-0.16566 -0.10352,-0.10351 -0.16566,-0.23467 -0.0552,-0.13804 -0.0552,-0.28989 v -0.99392 q 0,-0.15185 0.0552,-0.28299 0.0621,-0.13804 0.16566,-0.23467 0.10351,-0.10351 0.23467,-0.15874 0.13804,-0.0621 0.28989,-0.0621 z m -1.39424,7.10923 q -0.13114,0 -0.24847,-0.0483 -0.11042,-0.0552 -0.22088,-0.11734 l -0.86277,-0.49695 0.97321,-0.55908 q 0.0828,-0.0483 0.17255,-0.0759 0.0966,-0.0276 0.19326,-0.0276 0.13804,0 0.25538,0.0552 0.11734,0.0483 0.20017,0.14495 0.0897,0.0897 0.13804,0.21396 0.0483,0.11733 0.0483,0.24848 0,0.2899 -0.17945,0.47626 -0.17946,0.18635 -0.46935,0.18635 z m -3.66505,0 q -0.13805,0 -0.25539,-0.0483 -0.11734,-0.0552 -0.20706,-0.14494 -0.0828,-0.0966 -0.13114,-0.21398 -0.0483,-0.11733 -0.0483,-0.25537 0,-0.13114 0.0483,-0.24848 0.0483,-0.12424 0.13114,-0.21397 0.0897,-0.0966 0.20706,-0.14494 0.11734,-0.0552 0.25539,-0.0552 0.0966,0 0.18635,0.0276 0.0966,0.0276 0.17946,0.0759 l 0.9732,0.55907 -0.86276,0.49697 q -0.11734,0.069 -0.22778,0.11732 -0.11041,0.0483 -0.24847,0.0483 z m 1.83597,2.31223 q 0.40033,0 0.77995,-0.13114 0.38653,-0.12424 0.71092,-0.36581 h -2.98173 q 0.32439,0.24157 0.70402,0.36581 0.38651,0.13114 0.78684,0.13114 z" style="font-style:normal;font-variant:normal;font-weight:normal;font-stretch:normal;font-size:medium;line-height:100%;font-family:'Segoe UI Emoji';-inkscape-font-specification:'Segoe UI Emoji, Normal';font-variant-ligatures:normal;font-variant-caps:normal;font-variant-numeric:normal;font-feature-settings:normal;text-align:start;letter-spacing:0px;word-spacing:0px;writing-mode:lr-tb;text-anchor:start;fill:#784421;fill-opacity:1;stroke:none;stroke-width:0.26458332" id="path1738" inkscape:connector-curvature="0"/>
      </g>
    </g>
    </g></svg>
