<?xml version='1.0' encoding='UTF-8'?>
<!-- Created with Inkscape (http://www.inkscape.org/) and export_objects.py -->
<svg xmlns:cc="http://creativecommons.org/ns#" xmlns:dc="http://purl.org/dc/elements/1.1/" xmlns:inkscape="http://www.inkscape.org/namespaces/inkscape" xmlns:rdf="http://www.w3.org/1999/02/22-rdf-syntax-ns#" xmlns:sodipodi="http://sodipodi.sourceforge.net/DTD/sodipodi-0.dtd" xmlns:xlink="http://www.w3.org/1999/xlink" xmlns="http://www.w3.org/2000/svg" version="1.1" sodipodi:docname="step19.svg" inkscape:version="0.92.3 (2405546, 2018-03-11)" width="44.45mm" height="44.45mm" viewBox="0 0 44.45 44.45" id="svg5174"><sodipodi:namedview inkscape:snap-others="false" inkscape:snap-nodes="true" inkscape:bbox-nodes="true" inkscape:snap-bbox="false" id="base" pagecolor="#ffffff" bordercolor="#666666" borderopacity="1.0" inkscape:pageopacity="0.0" inkscape:pageshadow="2" inkscape:zoom="0.17302633" inkscape:cx="2087.9998" inkscape:cy="216.00001" inkscape:document-units="mm" inkscape:current-layer="layer1" showgrid="false" inkscape:measure-start="72,612" inkscape:measure-end="72,552" inkscape:snap-grids="true" inkscape:window-width="1280" inkscape:window-height="945" inkscape:window-x="-9" inkscape:window-y="-9" inkscape:window-maximized="1" inkscape:object-nodes="true">
    <inkscape:grid type="xygrid" id="grid5337" units="pt" spacingx="3.175" spacingy="3.175"/>
  </sodipodi:namedview>
  <metadata id="metadata5171">
    <rdf:RDF>
      <cc:Work rdf:about="">
        <dc:format>image/svg+xml</dc:format>
        <dc:type rdf:resource="http://purl.org/dc/dcmitype/StillImage"/>
        <dc:title/>
      </cc:Work>
    </rdf:RDF>
  </metadata>
  <g inkscape:groupmode="layer" inkscape:label="step" transform="matrix(1.000000,0.000000,0.000000,1.000000,-628.649974,-131.899993)"><g id="g2019" inkscape:label="19">
      <rect style="opacity:1;fill:#ffffff;fill-opacity:0.90562289;stroke:none;stroke-width:0.35277778;stroke-linecap:butt;stroke-linejoin:miter;stroke-miterlimit:47.14606857;stroke-dasharray:none;stroke-dashoffset:0;stroke-opacity:1;paint-order:markers fill stroke" id="rect1161" width="44.450001" height="44.450001" x="628.64996" y="131.89999"/>
      <g transform="translate(444.49996,15.874996)" id="g5489">
        <g id="g5087" transform="translate(120.65001,-6.3499878)">
          <rect y="125.54999" x="76.199989" height="19.049999" width="19.049999" id="rect5083" style="opacity:1;fill:#ff7f2a;fill-opacity:1;stroke:none;stroke-width:6.3499999;stroke-linecap:butt;stroke-linejoin:miter;stroke-miterlimit:47.14606857;stroke-dasharray:none;stroke-dashoffset:0;stroke-opacity:1;paint-order:markers fill stroke"/>
          <path inkscape:connector-curvature="0" id="path5085" style="font-style:normal;font-variant:normal;font-weight:normal;font-stretch:normal;font-size:medium;line-height:100%;font-family:'Segoe UI Emoji';-inkscape-font-specification:'Segoe UI Emoji, Normal';font-variant-ligatures:normal;font-variant-caps:normal;font-variant-numeric:normal;font-feature-settings:normal;text-align:start;letter-spacing:0px;word-spacing:0px;writing-mode:lr-tb;text-anchor:start;fill:#ffb380;fill-opacity:1;stroke:none;stroke-width:0.26458332" d="m 91.678117,132.5971 v 4.4657 q 0,0.82135 -0.213972,1.58059 -0.21396,0.75924 -0.600486,1.42186 -0.386516,0.66261 -0.931795,1.20098 -0.545269,0.54527 -1.207874,0.93179 -0.662606,0.38652 -1.421846,0.60049 -0.75924,0.21397 -1.580598,0.21397 -0.821359,0 -1.580599,-0.21397 -0.75924,-0.21397 -1.421845,-0.60049 -0.662606,-0.38652 -1.207886,-0.93179 -0.538367,-0.53837 -0.924883,-1.20098 -0.386526,-0.66262 -0.600486,-1.42186 -0.213971,-0.75924 -0.213971,-1.58059 0,-0.69022 0.138039,-1.36663 0.138051,-0.68331 0.400328,-1.31831 0.26919,-0.63501 0.648804,-1.20789 0.386526,-0.57977 0.876577,-1.06983 h -0.572883 v -1.98782 q 0,-0.28989 0.08281,-0.57288 0.08971,-0.28299 0.248475,-0.52457 0.158754,-0.24157 0.379615,-0.42793 0.220872,-0.19327 0.496962,-0.30371 0.255377,-0.10351 0.48315,-0.12423 0.234674,-0.0276 0.476249,-0.0276 h 0.310594 v -0.99392 h 0.600498 q 0.352011,0 0.69711,0.0207 0.34511,0.0138 0.69022,0.0828 0.724724,0.13805 1.359726,0.49006 0.641903,0.35201 1.145767,0.86276 0.510753,0.50387 0.862764,1.14577 0.352011,0.6419 0.496962,1.35973 0.06901,0.3244 0.08281,0.6557 0.0138,0.32441 0.0138,0.65571 v 0.3313 q 0.393427,-0.0897 0.779954,-0.11733 0.386515,-0.0276 0.779942,-0.0276 z m -0.993914,4.52782 v -3.54082 q -0.600487,0 -1.083636,0.26919 -0.48315,0.26228 -0.876577,0.69712 l -0.0207,0.0276 v -2.47788 q 0,-0.22087 -0.0276,-0.44174 -0.0276,-0.22086 -0.07591,-0.44173 -0.144951,-0.67642 -0.510764,-1.24239 -0.365813,-0.56598 -0.883478,-0.97321 -0.517665,-0.41413 -1.152656,-0.64191 -0.635002,-0.22777 -1.318321,-0.22777 v 0.069 q 0,0.55218 -0.117337,1.12506 -0.117337,0.56598 -0.34511,1.10434 -0.220861,0.53837 -0.538368,1.02843 -0.317495,0.48315 -0.710922,0.86968 -0.158754,0.15874 -0.324397,0.31059 -0.158753,0.14494 -0.310605,0.3106 -0.365813,0.41413 -0.669507,0.88348 -0.296793,0.46934 -0.510764,0.98701 -0.21396,0.51076 -0.331297,1.05603 -0.110414,0.53837 -0.110414,1.09744 0,1.23549 0.496951,2.27772 0.496963,1.03533 1.483965,1.78076 v -1.49087 q 0,-0.42103 0.110413,-0.72472 0.110414,-0.3037 0.276091,-0.54528 0.165654,-0.24848 0.358911,-0.46244 0.193258,-0.22087 0.358912,-0.46245 0.165654,-0.24847 0.276091,-0.55218 0.110413,-0.30369 0.110413,-0.72472 0.614289,0 1.152656,0.23467 0.54528,0.23468 0.945597,0.64191 0.407229,0.40032 0.641903,0.94559 0.234674,0.53837 0.234674,1.15267 0.317506,-0.25539 0.704022,-0.37272 0.386526,-0.12424 0.786854,-0.12424 v 2.48478 q 0.455535,-0.3382 0.821359,-0.77994 0.365813,-0.43483 0.621189,-0.9387 0.262289,-0.51077 0.400328,-1.06294 0.13804,-0.55216 0.13804,-1.12505 z m -4.962657,2.41576 q -0.310595,0 -0.579784,0.11734 -0.269179,0.11734 -0.469348,0.3244 -0.200159,0.20016 -0.317496,0.46935 -0.117337,0.26919 -0.117337,0.57978 v 0.75924 q 0.724725,0.22778 1.490866,0.22778 0.76614,0 1.483964,-0.22778 v -1.2562 l -1.490865,0.49696 z m -3.471792,-9.42836 v 0.9939 q 0.20707,0 0.386526,-0.0759 0.179456,-0.0828 0.310595,-0.21396 0.138039,-0.13805 0.21396,-0.3175 0.08281,-0.17946 0.08281,-0.38652 v -0.98701 h -0.103513 q -0.179456,0 -0.34511,0.0897 -0.158742,0.0897 -0.282991,0.23467 -0.117337,0.13804 -0.193258,0.3175 -0.06901,0.17255 -0.06901,0.34511 z"/>
        </g>
        <g transform="translate(95.250002,-12.7)" id="g5111">
          <rect style="opacity:1;fill:#8800aa;fill-opacity:1;stroke:none;stroke-width:6.3499999;stroke-linecap:butt;stroke-linejoin:miter;stroke-miterlimit:47.14606857;stroke-dasharray:none;stroke-dashoffset:0;stroke-opacity:1;paint-order:markers fill stroke" id="rect5107" width="19.049999" height="19.049999" x="101.6" y="150.95"/>
          <path d="m 120.15527,167.81181 0.0947,0.0316 h -0.0947 v 0.56833 h -18.15524 v -3.10218 l 2.54174,-5.09135 q 0.0947,-0.18156 0.2368,-0.33943 0.14998,-0.15788 0.33153,-0.27628 0.18945,-0.11838 0.39468,-0.18944 0.20523,-0.071 0.41836,-0.071 0.0473,0 0.0947,0.008 0.0473,0 0.0947,0.008 l 1.8392,-3.67841 q 0.0868,-0.17367 0.23682,-0.33153 0.14997,-0.16576 0.33153,-0.28417 0.18945,-0.11838 0.39468,-0.18945 0.21312,-0.071 0.41836,-0.071 0.0473,0 0.0868,0.008 0.0473,0 0.0947,0.008 l 0.70253,-1.41295 q 0.20524,-0.40257 0.59992,-0.63148 0.39468,-0.23682 0.8446,-0.23682 0.44994,0 0.82884,0.23682 0.37888,0.22891 0.58411,0.63148 l 1.83131,3.67841 q 0.0473,-0.008 0.0947,-0.008 0.0474,-0.008 0.0947,-0.008 0.43416,0 0.81304,0.2447 0.3789,0.2447 0.56835,0.63149 l 3.6784,7.36471 z m -5.67548,-9.04605 q -0.41047,-0.81305 -0.81304,-1.61029 -0.40258,-0.79725 -0.80515,-1.61029 l -0.53676,-1.08142 q -0.0631,-0.13419 -0.12628,-0.27627 -0.0631,-0.1421 -0.14208,-0.26839 -0.071,-0.11838 -0.15787,-0.18155 -0.0789,-0.0631 -0.22892,-0.0631 -0.1026,0 -0.17365,0.0316 l -2.59699,10.35638 2.18653,0.7262 0.42624,-0.071 q 0.742,-1.49978 1.47611,-2.97588 0.74199,-1.48399 1.49188,-2.97588 z m -11.34308,6.81217 v 1.69712 h 13.61643 q -2.14706,-0.71043 -4.26253,-1.41295 -2.1076,-0.70254 -4.24675,-1.42085 z m 15.503,-0.76569 q -0.54466,-1.08142 -1.07353,-2.14706 -0.52887,-1.07351 -1.07353,-2.15495 l -0.72621,-1.43662 q -0.071,-0.14998 -0.14998,-0.30785 -0.071,-0.16577 -0.15786,-0.30785 -0.071,-0.11838 -0.15788,-0.18156 -0.0789,-0.0631 -0.22891,-0.0631 -0.1026,0 -0.17367,0.0316 -0.40257,1.53925 -0.78145,3.07061 -0.37101,1.52346 -0.75779,3.06271 0.7262,-0.12628 1.43663,-0.27628 0.71042,-0.14997 1.44452,-0.24469 0.2526,0.0789 0.48941,0.18154 0.2447,0.1026 0.4894,0.20524 z m 0.37889,2.46281 v -1.69712 l -2.8338,-1.13668 q -1.00248,0.18154 -1.98918,0.35521 -0.9867,0.17366 -1.98919,0.371 0.14999,0.0473 0.48941,0.15787 0.33942,0.11838 0.79726,0.27628 0.46571,0.15786 1.00247,0.33942 0.54466,0.18945 1.08932,0.37101 0.54466,0.18943 1.05774,0.3631 0.52098,0.17366 0.92355,0.30785 0.41046,0.13419 0.67095,0.21313 0.26839,0.0789 0.30786,0.0789 z m -11.04312,-3.35478 q -0.35522,-0.72621 -0.71832,-1.43663 -0.3631,-0.71832 -0.71832,-1.44453 -0.0552,-0.11049 -0.1026,-0.21313 -0.0473,-0.10259 -0.11049,-0.17365 -0.0552,-0.0789 -0.14997,-0.11838 -0.0868,-0.0473 -0.23682,-0.0473 -0.0237,0 -0.0473,0.008 -0.0158,0 -0.0395,0.008 l -0.071,0.34732 q -0.18945,0.93144 -0.3789,1.86287 -0.18154,0.92356 -0.3631,1.855 z m 1.9655,-7.41997 q -0.0552,-0.11049 -0.1026,-0.21312 -0.0395,-0.1026 -0.10259,-0.17367 -0.0631,-0.0789 -0.15788,-0.11838 -0.0868,-0.0473 -0.23681,-0.0473 -0.0237,0 -0.0473,0.008 -0.0158,0 -0.0395,0.008 l -0.63938,3.18111 z" style="font-style:normal;font-variant:normal;font-weight:normal;font-stretch:normal;font-size:medium;line-height:100%;font-family:'Segoe UI Emoji';-inkscape-font-specification:'Segoe UI Emoji, Normal';font-variant-ligatures:normal;font-variant-caps:normal;font-variant-numeric:normal;font-feature-settings:normal;text-align:start;letter-spacing:0px;word-spacing:0px;writing-mode:lr-tb;text-anchor:start;fill:#ccaaff;fill-opacity:1;stroke:none;stroke-width:0.26458329" id="path5109" inkscape:connector-curvature="0"/>
        </g>
      </g>
    </g>
    </g></svg>
