<?xml version='1.0' encoding='UTF-8'?>
<!-- Created with Inkscape (http://www.inkscape.org/) and export_objects.py -->
<svg xmlns:cc="http://creativecommons.org/ns#" xmlns:dc="http://purl.org/dc/elements/1.1/" xmlns:inkscape="http://www.inkscape.org/namespaces/inkscape" xmlns:rdf="http://www.w3.org/1999/02/22-rdf-syntax-ns#" xmlns:sodipodi="http://sodipodi.sourceforge.net/DTD/sodipodi-0.dtd" xmlns:xlink="http://www.w3.org/1999/xlink" xmlns="http://www.w3.org/2000/svg" version="1.1" sodipodi:docname="step23.svg" inkscape:version="0.92.3 (2405546, 2018-03-11)" width="44.45mm" height="44.45mm" viewBox="0 0 44.45 44.45" id="svg5174"><sodipodi:namedview inkscape:snap-others="false" inkscape:snap-nodes="true" inkscape:bbox-nodes="true" inkscape:snap-bbox="false" id="base" pagecolor="#ffffff" bordercolor="#666666" borderopacity="1.0" inkscape:pageopacity="0.0" inkscape:pageshadow="2" inkscape:zoom="0.17302633" inkscape:cx="2087.9998" inkscape:cy="216.00001" inkscape:document-units="mm" inkscape:current-layer="layer1" showgrid="false" inkscape:measure-start="72,612" inkscape:measure-end="72,552" inkscape:snap-grids="true" inkscape:window-width="1280" inkscape:window-height="945" inkscape:window-x="-9" inkscape:window-y="-9" inkscape:window-maximized="1" inkscape:object-nodes="true">
    <inkscape:grid type="xygrid" id="grid5337" units="pt" spacingx="3.175" spacingy="3.175"/>
  </sodipodi:namedview>
  <metadata id="metadata5171">
    <rdf:RDF>
      <cc:Work rdf:about="">
        <dc:format>image/svg+xml</dc:format>
        <dc:type rdf:resource="http://purl.org/dc/dcmitype/StillImage"/>
        <dc:title/>
      </cc:Work>
    </rdf:RDF>
  </metadata>
  <g inkscape:groupmode="layer" inkscape:label="step" transform="matrix(1.000000,0.000000,0.000000,1.000000,-457.200053,-189.050004)"><g id="g2041" inkscape:label="23">
      <rect style="opacity:1;fill:#ffffff;fill-opacity:0.90562289;stroke:none;stroke-width:0.35277778;stroke-linecap:butt;stroke-linejoin:miter;stroke-miterlimit:47.14606857;stroke-dasharray:none;stroke-dashoffset:0;stroke-opacity:1;paint-order:markers fill stroke" id="rect1165" width="44.450001" height="44.450001" x="457.20004" y="189.05"/>
      <g transform="translate(368.30004,22.225004)" id="g5505">
        <g transform="translate(9.1552734e-6,44.450012)" id="g5137">
          <rect y="125.54999" x="101.59999" height="19.049999" width="19.049999" id="rect5133" style="opacity:1;fill:#ffdd55;fill-opacity:1;stroke:none;stroke-width:6.3499999;stroke-linecap:butt;stroke-linejoin:miter;stroke-miterlimit:47.14606857;stroke-dasharray:none;stroke-dashoffset:0;stroke-opacity:1;paint-order:markers fill stroke"/>
          <path d="m 118.10501,137.03159 v 0.99218 q 0,0.82567 -0.31916,1.55421 -0.31224,0.72159 -0.85343,1.26278 -0.54119,0.54119 -1.26972,0.85342 -0.72159,0.31917 -1.54725,0.31917 h -1.58196 q -0.15958,0.45099 -0.54812,0.72159 -0.38162,0.27754 -0.86037,0.27754 -0.2359,0 -0.45792,-0.0763 -0.2151,-0.0694 -0.40243,-0.20122 -0.18734,-0.13182 -0.32611,-0.31916 -0.13876,-0.18039 -0.22203,-0.40243 h -1.58194 q -0.82567,0 -1.5542,-0.31916 -0.7216,-0.31224 -1.26279,-0.85343 -0.54119,-0.54119 -0.86035,-1.26278 -0.31224,-0.72853 -0.31224,-1.55419 v -0.99219 h 2.53945 q -0.27059,-0.0832 -0.54813,-0.15265 -0.2706,-0.0694 -0.54813,-0.1457 0.13183,-0.47875 0.24978,-0.95056 0.12489,-0.47181 0.34692,-0.92281 -0.4163,-0.27059 -0.76322,-0.61751 -0.33999,-0.35386 -0.69384,-0.70772 0.35385,-0.34692 0.69384,-0.69384 0.34692,-0.35385 0.76322,-0.62444 -0.22203,-0.451 -0.34692,-0.92281 -0.11795,-0.47875 -0.24978,-0.9575 0.47875,-0.12489 0.95056,-0.24978 0.47181,-0.13183 0.97137,-0.16652 0.0347,-0.49957 0.15958,-0.97138 0.13183,-0.47181 0.25672,-0.95056 0.47875,0.12489 0.95056,0.24979 0.47874,0.12489 0.92281,0.34691 0.27753,-0.4163 0.62444,-0.75627 0.34692,-0.34692 0.70078,-0.70078 0.35386,0.35386 0.70078,0.70078 0.34692,0.33997 0.62446,0.75627 0.45099,-0.22202 0.9228,-0.34691 0.47181,-0.1249 0.95055,-0.24979 0.12489,0.47875 0.25673,0.95056 0.13183,0.47181 0.16651,0.97138 0.49957,0.0347 0.97138,0.16652 0.47181,0.12489 0.95056,0.24978 -0.12489,0.47875 -0.25672,0.9575 -0.1249,0.47181 -0.34692,0.92281 0.4163,0.27059 0.75628,0.61751 0.34692,0.34692 0.70077,0.70077 -0.34692,0.35386 -0.69383,0.70772 -0.34692,0.34692 -0.76322,0.61751 0.22202,0.451 0.34692,0.92281 0.12489,0.47181 0.25672,0.95056 -0.27754,0.0763 -0.55507,0.15263 -0.2706,0.0694 -0.54814,0.14572 z m -6.98001,1.49175 q 0.32611,-0.32611 0.56895,-0.71465 0.24285,-0.38855 0.35386,-0.83954 0.3261,0.33303 0.72853,0.55507 0.40242,0.21509 0.84647,0.33304 0.0624,-0.24285 0.0971,-0.48569 0.0347,-0.24285 0.0347,-0.48569 0,-0.42324 -0.11795,-0.83954 0.20121,0.0624 0.4163,0.0902 0.21509,0.0277 0.43018,0.0277 0.24284,0 0.48568,-0.0347 0.24285,-0.0347 0.47875,-0.0971 -0.12489,-0.45794 -0.33997,-0.84648 -0.21509,-0.39549 -0.54814,-0.72854 0.451,-0.11099 0.83954,-0.3469 0.38855,-0.24286 0.71466,-0.57589 -0.32611,-0.31918 -0.71466,-0.56202 -0.38854,-0.24284 -0.83954,-0.35386 0.33305,-0.31916 0.54814,-0.72158 0.22202,-0.40937 0.33997,-0.85342 -0.24284,-0.0624 -0.48568,-0.0971 -0.24284,-0.0347 -0.49262,-0.0347 -0.20816,0 -0.42324,0.0277 -0.20816,0.0277 -0.40937,0.0832 0.0624,-0.20122 0.0902,-0.40937 0.0277,-0.21509 0.0277,-0.43017 0,-0.24286 -0.0347,-0.4857 -0.0347,-0.24284 -0.0971,-0.47874 -0.44405,0.11795 -0.85341,0.33998 -0.40243,0.21509 -0.72159,0.54813 -0.11796,-0.45099 -0.3608,-0.83954 -0.2359,-0.38855 -0.56201,-0.71466 -0.3261,0.32611 -0.56894,0.71466 -0.23591,0.38855 -0.34692,0.83954 -0.31917,-0.33304 -0.72854,-0.54813 -0.40242,-0.22203 -0.84648,-0.33998 -0.0624,0.24284 -0.10405,0.48568 -0.0347,0.24285 -0.0347,0.49263 0,0.40937 0.11795,0.82567 -0.20122,-0.0555 -0.4163,-0.0832 -0.20816,-0.0277 -0.41631,-0.0277 -0.24284,0 -0.49263,0.0347 -0.24284,0.0347 -0.47875,0.0971 0.11796,0.44405 0.33305,0.85342 0.22203,0.40242 0.55507,0.72158 -0.45099,0.111 -0.83955,0.35386 -0.38854,0.23591 -0.72159,0.56202 0.32611,0.32609 0.71466,0.56894 0.39549,0.24284 0.84648,0.35385 -0.33304,0.31918 -0.55507,0.72854 -0.21509,0.40242 -0.33305,0.84648 0.23591,0.0624 0.47181,0.0971 0.24285,0.0347 0.4857,0.0347 0.21508,0 0.42324,-0.0277 0.21508,-0.0277 0.42324,-0.0902 -0.11795,0.4163 -0.11795,0.83261 0,0.24977 0.0347,0.49262 0.0416,0.24284 0.10405,0.48569 0.44406,-0.11795 0.84648,-0.33304 0.40243,-0.22204 0.72854,-0.55507 0.11099,0.45099 0.34692,0.83954 0.24284,0.38854 0.56894,0.71465 z m 2.49781,-4.98869 q 0,0.52037 -0.2012,0.97831 -0.19428,0.451 -0.53426,0.79097 -0.33304,0.33305 -0.79097,0.53425 -0.451,0.19429 -0.97138,0.19429 -0.52038,0 -0.97137,-0.19429 -0.451,-0.2012 -0.79098,-0.54119 -0.33997,-0.33997 -0.53425,-0.79097 -0.19427,-0.45793 -0.19427,-0.97137 0,-0.51344 0.19427,-0.96444 0.19428,-0.45792 0.53425,-0.79097 0.33998,-0.33998 0.79098,-0.53426 0.45794,-0.2012 0.97137,-0.2012 0.51345,0 0.96444,0.19427 0.45793,0.19427 0.79791,0.53425 0.33998,0.33999 0.53426,0.79097 0.2012,0.451 0.2012,0.97138 z m -2.49781,1.99825 q 0.4163,0 0.7771,-0.15264 0.36774,-0.15959 0.63833,-0.43019 0.2706,-0.27059 0.42324,-0.63138 0.15959,-0.36773 0.15959,-0.78404 0,-0.40936 -0.15959,-0.77016 -0.15957,-0.36774 -0.43018,-0.63833 -0.2706,-0.2706 -0.63833,-0.42324 -0.36079,-0.15959 -0.77016,-0.15959 -0.40936,0 -0.7771,0.15959 -0.36079,0.15264 -0.63139,0.42324 -0.27059,0.27059 -0.43018,0.63833 -0.15264,0.3608 -0.15264,0.77016 0,0.41631 0.15264,0.78404 0.15959,0.36079 0.43018,0.63138 0.2706,0.2706 0.63139,0.43019 0.3608,0.15264 0.7771,0.15264 z m 2.99045,5.48826 q 0.62445,0 1.16564,-0.23591 0.54814,-0.2359 0.95055,-0.64527 0.40937,-0.40243 0.64527,-0.94362 0.23591,-0.54813 0.23591,-1.17259 h -1.49869 q -0.33304,0 -0.6522,0.0971 -0.31917,0.0902 -0.60364,0.25673 l -2.23416,1.34604 v 1.29748 z m -3.98958,0 v -1.29748 l -2.23415,-1.34605 q -0.28447,-0.17346 -0.60364,-0.26365 -0.31916,-0.0902 -0.65221,-0.0902 h -1.49175 q 0,0.61751 0.22897,1.16565 0.2359,0.54813 0.63833,0.95056 0.40937,0.40936 0.95056,0.64527 0.54813,0.2359 1.17259,0.2359 z m 1.4987,-2.29661 q -0.11795,0.13183 -0.24979,0.25673 -0.12489,0.12489 -0.24978,0.24978 -0.12489,-0.12489 -0.25671,-0.24978 -0.12489,-0.1249 -0.24285,-0.25673 v 2.78923 q 0,0.20816 0.1457,0.35386 0.14572,0.14571 0.35386,0.14571 0.20816,0 0.35386,-0.14571 0.14571,-0.1457 0.14571,-0.35386 z" style="font-style:normal;font-variant:normal;font-weight:normal;font-stretch:normal;font-size:medium;line-height:100%;font-family:'Segoe UI Emoji';-inkscape-font-specification:'Segoe UI Emoji, Normal';font-variant-ligatures:normal;font-variant-caps:normal;font-variant-numeric:normal;font-feature-settings:normal;text-align:start;letter-spacing:0px;word-spacing:0px;writing-mode:lr-tb;text-anchor:start;fill:#d4aa00;fill-opacity:1;stroke:none;stroke-width:0.26458332" id="path5135" inkscape:connector-curvature="0"/>
        </g>
        <g id="g5167" transform="translate(-25.399992,63.500013)">
          <rect y="125.54999" x="126.99999" height="19.049999" width="19.049999" id="rect5163" style="opacity:1;fill:#aad400;fill-opacity:1;stroke:none;stroke-width:6.3499999;stroke-linecap:butt;stroke-linejoin:miter;stroke-miterlimit:47.14606857;stroke-dasharray:none;stroke-dashoffset:0;stroke-opacity:1;paint-order:markers fill stroke"/>
          <path inkscape:connector-curvature="0" id="path5165" style="font-style:normal;font-variant:normal;font-weight:normal;font-stretch:normal;font-size:medium;line-height:100%;font-family:'Segoe UI Emoji';-inkscape-font-specification:'Segoe UI Emoji, Normal';font-variant-ligatures:normal;font-variant-caps:normal;font-variant-numeric:normal;font-feature-settings:normal;text-align:start;letter-spacing:0px;word-spacing:0px;writing-mode:lr-tb;text-anchor:start;fill:#dde9af;fill-opacity:1;stroke:none;stroke-width:0.26458332" d="m 140.75883,133.06483 q 0.92039,0.19145 1.69353,0.67006 0.78049,0.4786 1.3401,1.17073 0.56696,0.69214 0.88358,1.54627 0.31661,0.85413 0.31661,1.79661 v 3.70368 h -3.70368 q -0.90566,0 -1.75243,-0.28715 -0.8394,-0.28717 -1.54626,-0.8615 -0.5817,0.53016 -1.25174,0.94249 -0.67006,0.41234 -1.39901,0.69214 -0.72159,0.2798 -1.49472,0.42706 -0.76578,0.14726 -1.55363,0.14726 h -4.23383 v -4.23382 q 0,-1.16339 0.30189,-2.24577 0.30189,-1.08239 0.85413,-2.02487 0.55224,-0.94249 1.32537,-1.71562 0.77313,-0.77314 1.71562,-1.32537 0.94248,-0.55224 2.01751,-0.85413 1.08239,-0.3019 2.25313,-0.3019 h 1.98806 q 0.14726,-0.14725 0.26507,-0.33134 0.12518,-0.19144 0.20617,-0.3976 0.0883,-0.21354 0.13253,-0.43443 0.0515,-0.2209 0.0515,-0.42707 0,-0.32398 0.12518,-0.61114 0.13253,-0.28716 0.34607,-0.5007 0.22089,-0.22089 0.50806,-0.34606 0.28716,-0.12518 0.61115,-0.12518 0.31661,0 0.60377,0.12518 0.29453,0.12517 0.50806,0.34606 0.2209,0.21354 0.34607,0.5007 0.13254,0.28716 0.13254,0.61114 0,0.52278 -0.11043,1.05294 -0.10306,0.52278 -0.30925,1.02348 -0.20617,0.49333 -0.5007,0.94985 -0.29452,0.44915 -0.67004,0.80995 z m -1.0603,1.48 v -2.61392 l -2.24577,2.24577 v 3.01154 q 0,0.16934 -0.11779,0.28715 -0.11042,0.11043 -0.27979,0.11043 -0.16936,0 -0.28717,-0.11043 -0.11043,-0.11779 -0.11043,-0.28715 v -2.21633 l -1.85551,1.85553 v 3.01154 q 0,0.16198 -0.11779,0.27979 -0.11779,0.11779 -0.27981,0.11779 -0.16198,0 -0.27979,-0.11779 -0.11043,-0.11779 -0.11043,-0.27979 v -2.21633 l -2.50348,2.49612 q -0.11779,0.11779 -0.2798,0.11779 -0.16199,0 -0.27979,-0.11779 -0.11779,-0.11779 -0.11779,-0.27979 0,-0.162 0.11779,-0.27981 l 2.49611,-2.50348 h -2.21632 q -0.16199,0 -0.27979,-0.11043 -0.11779,-0.11779 -0.11779,-0.27979 0,-0.162 0.11779,-0.2798 0.11779,-0.11779 0.27979,-0.11779 h 3.01154 l 1.85552,-1.85552 h -2.21632 q -0.16935,0 -0.28715,-0.11043 -0.11043,-0.11779 -0.11043,-0.28717 0,-0.16934 0.11043,-0.27979 0.11779,-0.11779 0.28715,-0.11779 h 3.01154 l 2.24578,-2.24577 h -2.61394 q -1.02347,0 -1.97332,0.26507 -0.94249,0.26508 -1.76716,0.75104 -0.82468,0.47861 -1.50209,1.15603 -0.67005,0.67004 -1.15603,1.49471 -0.4786,0.82469 -0.74367,1.77454 -0.26508,0.94248 -0.26508,1.96596 v 3.17353 h 3.17353 q 1.02348,0 1.96597,-0.26507 0.94985,-0.26508 1.77452,-0.75105 0.82467,-0.4786 1.49473,-1.14866 0.67741,-0.67741 1.15602,-1.50208 0.48596,-0.82468 0.75105,-1.76716 0.26507,-0.94985 0.26507,-1.97333 z m 4.23382,6.35443 v -2.65076 q 0,-0.79521 -0.27979,-1.51681 -0.27981,-0.72159 -0.78051,-1.28119 -0.49333,-0.56696 -1.17073,-0.93512 -0.67742,-0.36816 -1.47264,-0.46388 0,0.6406 -0.0442,1.26647 -0.0442,0.62587 -0.21353,1.24438 l 0.63323,0.62587 h 2.00278 q 0.11043,0 0.18408,0.081 0.081,0.0736 0.081,0.18406 0,0.11043 -0.081,0.19146 -0.0736,0.0736 -0.18408,0.0736 h -1.47263 l 1.66408,1.66407 q 0.0736,0.0736 0.0736,0.19144 0,0.10307 -0.081,0.18408 -0.0736,0.081 -0.17672,0.081 -0.11043,0 -0.19144,-0.081 l -1.66408,-1.66407 v 1.47999 q 0,0.11043 -0.081,0.19144 -0.0736,0.0736 -0.18408,0.0736 -0.11042,0 -0.19144,-0.0736 -0.0736,-0.081 -0.0736,-0.19144 v -2.01015 l -0.43443,-0.42706 q -0.24298,0.70687 -0.61113,1.35483 -0.3608,0.64059 -0.84677,1.20019 0.59642,0.58169 1.35483,0.89094 0.76576,0.31663 1.5978,0.31663 z m -3.10725,-12.70149 q -0.23563,0 -0.41971,0.13255 -0.17671,0.13253 -0.17671,0.39024 0,0.57433 -0.21353,1.12657 -0.20618,0.54487 -0.5596,0.99403 h 0.0442 q 0.1988,0 0.3387,0.0294 0.1399,0.0294 0.22826,0.11043 0.0883,0.0736 0.12517,0.21352 0.0368,0.13254 0.0368,0.34607 v 0.0294 q 0.50806,-0.59642 0.78051,-1.33274 0.27979,-0.7363 0.27979,-1.51681 0,-0.0883 -0.0368,-0.18408 -0.0368,-0.0957 -0.10306,-0.16935 -0.0589,-0.0736 -0.14727,-0.11779 -0.081,-0.0515 -0.17671,-0.0515 z"/>
        </g>
      </g>
    </g>
    </g></svg>
