<?xml version='1.0' encoding='UTF-8'?>
<!-- Created with Inkscape (http://www.inkscape.org/) and export_objects.py -->
<svg xmlns:cc="http://creativecommons.org/ns#" xmlns:dc="http://purl.org/dc/elements/1.1/" xmlns:inkscape="http://www.inkscape.org/namespaces/inkscape" xmlns:rdf="http://www.w3.org/1999/02/22-rdf-syntax-ns#" xmlns:sodipodi="http://sodipodi.sourceforge.net/DTD/sodipodi-0.dtd" xmlns:xlink="http://www.w3.org/1999/xlink" xmlns="http://www.w3.org/2000/svg" version="1.1" sodipodi:docname="step25.svg" inkscape:version="0.92.3 (2405546, 2018-03-11)" width="44.45mm" height="44.45mm" viewBox="0 0 44.45 44.45" id="svg5174"><sodipodi:namedview inkscape:snap-others="false" inkscape:snap-nodes="true" inkscape:bbox-nodes="true" inkscape:snap-bbox="false" id="base" pagecolor="#ffffff" bordercolor="#666666" borderopacity="1.0" inkscape:pageopacity="0.0" inkscape:pageshadow="2" inkscape:zoom="0.17302633" inkscape:cx="2087.9998" inkscape:cy="216.00001" inkscape:document-units="mm" inkscape:current-layer="layer1" showgrid="false" inkscape:measure-start="72,612" inkscape:measure-end="72,552" inkscape:snap-grids="true" inkscape:window-width="1280" inkscape:window-height="945" inkscape:window-x="-9" inkscape:window-y="-9" inkscape:window-maximized="1" inkscape:object-nodes="true">
    <inkscape:grid type="xygrid" id="grid5337" units="pt" spacingx="3.175" spacingy="3.175"/>
  </sodipodi:namedview>
  <metadata id="metadata5171">
    <rdf:RDF>
      <cc:Work rdf:about="">
        <dc:format>image/svg+xml</dc:format>
        <dc:type rdf:resource="http://purl.org/dc/dcmitype/StillImage"/>
        <dc:title/>
      </cc:Work>
    </rdf:RDF>
  </metadata>
  <g inkscape:groupmode="layer" inkscape:label="step" transform="matrix(1.000000,0.000000,0.000000,1.000000,-514.349921,-189.050004)"><g id="g2053" inkscape:label="25">
      <rect y="189.05" x="514.34991" height="44.450001" width="44.450001" id="rect1167" style="opacity:1;fill:#ffffff;fill-opacity:0.90562289;stroke:none;stroke-width:0.35277778;stroke-linecap:butt;stroke-linejoin:miter;stroke-miterlimit:47.14606857;stroke-dasharray:none;stroke-dashoffset:0;stroke-opacity:1;paint-order:markers fill stroke"/>
      <g transform="translate(393.69991,22.225005)" id="g5514">
        <g id="g5143" transform="translate(31.750009,44.450012)">
          <rect style="opacity:1;fill:#ffdd55;fill-opacity:1;stroke:none;stroke-width:6.3499999;stroke-linecap:butt;stroke-linejoin:miter;stroke-miterlimit:47.14606857;stroke-dasharray:none;stroke-dashoffset:0;stroke-opacity:1;paint-order:markers fill stroke" id="rect5139" width="19.049999" height="19.049999" x="101.59999" y="125.54999"/>
          <path inkscape:connector-curvature="0" id="path5141" style="font-style:normal;font-variant:normal;font-weight:normal;font-stretch:normal;font-size:medium;line-height:100%;font-family:'Segoe UI Emoji';-inkscape-font-specification:'Segoe UI Emoji, Normal';font-variant-ligatures:normal;font-variant-caps:normal;font-variant-numeric:normal;font-feature-settings:normal;text-align:start;letter-spacing:0px;word-spacing:0px;writing-mode:lr-tb;text-anchor:start;fill:#d4aa00;fill-opacity:1;stroke:none;stroke-width:0.26458332" d="m 118.10501,137.03159 v 0.99218 q 0,0.82567 -0.31916,1.55421 -0.31224,0.72159 -0.85343,1.26278 -0.54119,0.54119 -1.26972,0.85342 -0.72159,0.31917 -1.54725,0.31917 h -1.58196 q -0.15958,0.45099 -0.54812,0.72159 -0.38162,0.27754 -0.86037,0.27754 -0.2359,0 -0.45792,-0.0763 -0.2151,-0.0694 -0.40243,-0.20122 -0.18734,-0.13182 -0.32611,-0.31916 -0.13876,-0.18039 -0.22203,-0.40243 h -1.58194 q -0.82567,0 -1.5542,-0.31916 -0.7216,-0.31224 -1.26279,-0.85343 -0.54119,-0.54119 -0.86035,-1.26278 -0.31224,-0.72853 -0.31224,-1.55419 v -0.99219 h 2.53945 q -0.27059,-0.0832 -0.54813,-0.15265 -0.2706,-0.0694 -0.54813,-0.1457 0.13183,-0.47875 0.24978,-0.95056 0.12489,-0.47181 0.34692,-0.92281 -0.4163,-0.27059 -0.76322,-0.61751 -0.33999,-0.35386 -0.69384,-0.70772 0.35385,-0.34692 0.69384,-0.69384 0.34692,-0.35385 0.76322,-0.62444 -0.22203,-0.451 -0.34692,-0.92281 -0.11795,-0.47875 -0.24978,-0.9575 0.47875,-0.12489 0.95056,-0.24978 0.47181,-0.13183 0.97137,-0.16652 0.0347,-0.49957 0.15958,-0.97138 0.13183,-0.47181 0.25672,-0.95056 0.47875,0.12489 0.95056,0.24979 0.47874,0.12489 0.92281,0.34691 0.27753,-0.4163 0.62444,-0.75627 0.34692,-0.34692 0.70078,-0.70078 0.35386,0.35386 0.70078,0.70078 0.34692,0.33997 0.62446,0.75627 0.45099,-0.22202 0.9228,-0.34691 0.47181,-0.1249 0.95055,-0.24979 0.12489,0.47875 0.25673,0.95056 0.13183,0.47181 0.16651,0.97138 0.49957,0.0347 0.97138,0.16652 0.47181,0.12489 0.95056,0.24978 -0.12489,0.47875 -0.25672,0.9575 -0.1249,0.47181 -0.34692,0.92281 0.4163,0.27059 0.75628,0.61751 0.34692,0.34692 0.70077,0.70077 -0.34692,0.35386 -0.69383,0.70772 -0.34692,0.34692 -0.76322,0.61751 0.22202,0.451 0.34692,0.92281 0.12489,0.47181 0.25672,0.95056 -0.27754,0.0763 -0.55507,0.15263 -0.2706,0.0694 -0.54814,0.14572 z m -6.98001,1.49175 q 0.32611,-0.32611 0.56895,-0.71465 0.24285,-0.38855 0.35386,-0.83954 0.3261,0.33303 0.72853,0.55507 0.40242,0.21509 0.84647,0.33304 0.0624,-0.24285 0.0971,-0.48569 0.0347,-0.24285 0.0347,-0.48569 0,-0.42324 -0.11795,-0.83954 0.20121,0.0624 0.4163,0.0902 0.21509,0.0277 0.43018,0.0277 0.24284,0 0.48568,-0.0347 0.24285,-0.0347 0.47875,-0.0971 -0.12489,-0.45794 -0.33997,-0.84648 -0.21509,-0.39549 -0.54814,-0.72854 0.451,-0.11099 0.83954,-0.3469 0.38855,-0.24286 0.71466,-0.57589 -0.32611,-0.31918 -0.71466,-0.56202 -0.38854,-0.24284 -0.83954,-0.35386 0.33305,-0.31916 0.54814,-0.72158 0.22202,-0.40937 0.33997,-0.85342 -0.24284,-0.0624 -0.48568,-0.0971 -0.24284,-0.0347 -0.49262,-0.0347 -0.20816,0 -0.42324,0.0277 -0.20816,0.0277 -0.40937,0.0832 0.0624,-0.20122 0.0902,-0.40937 0.0277,-0.21509 0.0277,-0.43017 0,-0.24286 -0.0347,-0.4857 -0.0347,-0.24284 -0.0971,-0.47874 -0.44405,0.11795 -0.85341,0.33998 -0.40243,0.21509 -0.72159,0.54813 -0.11796,-0.45099 -0.3608,-0.83954 -0.2359,-0.38855 -0.56201,-0.71466 -0.3261,0.32611 -0.56894,0.71466 -0.23591,0.38855 -0.34692,0.83954 -0.31917,-0.33304 -0.72854,-0.54813 -0.40242,-0.22203 -0.84648,-0.33998 -0.0624,0.24284 -0.10405,0.48568 -0.0347,0.24285 -0.0347,0.49263 0,0.40937 0.11795,0.82567 -0.20122,-0.0555 -0.4163,-0.0832 -0.20816,-0.0277 -0.41631,-0.0277 -0.24284,0 -0.49263,0.0347 -0.24284,0.0347 -0.47875,0.0971 0.11796,0.44405 0.33305,0.85342 0.22203,0.40242 0.55507,0.72158 -0.45099,0.111 -0.83955,0.35386 -0.38854,0.23591 -0.72159,0.56202 0.32611,0.32609 0.71466,0.56894 0.39549,0.24284 0.84648,0.35385 -0.33304,0.31918 -0.55507,0.72854 -0.21509,0.40242 -0.33305,0.84648 0.23591,0.0624 0.47181,0.0971 0.24285,0.0347 0.4857,0.0347 0.21508,0 0.42324,-0.0277 0.21508,-0.0277 0.42324,-0.0902 -0.11795,0.4163 -0.11795,0.83261 0,0.24977 0.0347,0.49262 0.0416,0.24284 0.10405,0.48569 0.44406,-0.11795 0.84648,-0.33304 0.40243,-0.22204 0.72854,-0.55507 0.11099,0.45099 0.34692,0.83954 0.24284,0.38854 0.56894,0.71465 z m 2.49781,-4.98869 q 0,0.52037 -0.2012,0.97831 -0.19428,0.451 -0.53426,0.79097 -0.33304,0.33305 -0.79097,0.53425 -0.451,0.19429 -0.97138,0.19429 -0.52038,0 -0.97137,-0.19429 -0.451,-0.2012 -0.79098,-0.54119 -0.33997,-0.33997 -0.53425,-0.79097 -0.19427,-0.45793 -0.19427,-0.97137 0,-0.51344 0.19427,-0.96444 0.19428,-0.45792 0.53425,-0.79097 0.33998,-0.33998 0.79098,-0.53426 0.45794,-0.2012 0.97137,-0.2012 0.51345,0 0.96444,0.19427 0.45793,0.19427 0.79791,0.53425 0.33998,0.33999 0.53426,0.79097 0.2012,0.451 0.2012,0.97138 z m -2.49781,1.99825 q 0.4163,0 0.7771,-0.15264 0.36774,-0.15959 0.63833,-0.43019 0.2706,-0.27059 0.42324,-0.63138 0.15959,-0.36773 0.15959,-0.78404 0,-0.40936 -0.15959,-0.77016 -0.15957,-0.36774 -0.43018,-0.63833 -0.2706,-0.2706 -0.63833,-0.42324 -0.36079,-0.15959 -0.77016,-0.15959 -0.40936,0 -0.7771,0.15959 -0.36079,0.15264 -0.63139,0.42324 -0.27059,0.27059 -0.43018,0.63833 -0.15264,0.3608 -0.15264,0.77016 0,0.41631 0.15264,0.78404 0.15959,0.36079 0.43018,0.63138 0.2706,0.2706 0.63139,0.43019 0.3608,0.15264 0.7771,0.15264 z m 2.99045,5.48826 q 0.62445,0 1.16564,-0.23591 0.54814,-0.2359 0.95055,-0.64527 0.40937,-0.40243 0.64527,-0.94362 0.23591,-0.54813 0.23591,-1.17259 h -1.49869 q -0.33304,0 -0.6522,0.0971 -0.31917,0.0902 -0.60364,0.25673 l -2.23416,1.34604 v 1.29748 z m -3.98958,0 v -1.29748 l -2.23415,-1.34605 q -0.28447,-0.17346 -0.60364,-0.26365 -0.31916,-0.0902 -0.65221,-0.0902 h -1.49175 q 0,0.61751 0.22897,1.16565 0.2359,0.54813 0.63833,0.95056 0.40937,0.40936 0.95056,0.64527 0.54813,0.2359 1.17259,0.2359 z m 1.4987,-2.29661 q -0.11795,0.13183 -0.24979,0.25673 -0.12489,0.12489 -0.24978,0.24978 -0.12489,-0.12489 -0.25671,-0.24978 -0.12489,-0.1249 -0.24285,-0.25673 v 2.78923 q 0,0.20816 0.1457,0.35386 0.14572,0.14571 0.35386,0.14571 0.20816,0 0.35386,-0.14571 0.14571,-0.1457 0.14571,-0.35386 z"/>
        </g>
        <g id="g5181" transform="translate(82.550002,38.100001)">
          <rect style="opacity:1;fill:#2ad4ff;fill-opacity:1;stroke:none;stroke-width:6.3499999;stroke-linecap:butt;stroke-linejoin:miter;stroke-miterlimit:47.14606857;stroke-dasharray:none;stroke-dashoffset:0;stroke-opacity:1;paint-order:markers fill stroke" id="rect5175" width="19.049999" height="19.049999" x="50.799999" y="150.95"/>
          <g aria-label="ðŸ¦" style="font-style:normal;font-variant:normal;font-weight:normal;font-stretch:normal;font-size:12.69999981px;line-height:100%;font-family:'Segoe UI Emoji';-inkscape-font-specification:'Segoe UI Emoji, Normal';font-variant-ligatures:normal;font-variant-caps:normal;font-variant-numeric:normal;font-feature-settings:normal;text-align:start;letter-spacing:0px;word-spacing:0px;writing-mode:lr-tb;text-anchor:start;fill:#aaeeff;fill-opacity:1;stroke:none;stroke-width:0.23771149" id="g5179" transform="matrix(1.1130439,0,0,1.1130439,-35.433102,-24.237262)">
            <path d="m 85.145863,163.35406 8.024317,7.9499 H 88.792152 L 87.899183,170.411 h -2.244824 l -0.341064,0.59531 q 0.235644,0.12402 0.378271,0.27905 0.142627,0.15503 0.223243,0.34107 0.08061,0.18603 0.105419,0.40307 0.02481,0.22324 0.02481,0.46509 0,0.14883 -0.0062,0.29145 0,0.14883 0,0.29766 h -6.238379 v -0.89297 q 0,-0.27905 0.10542,-0.5209 0.10542,-0.24184 0.285254,-0.42168 0.179834,-0.17983 0.42168,-0.28525 0.241845,-0.10542 0.520898,-0.10542 h 0.440283 l 0.303858,-0.5333 q -0.651123,-0.14263 -1.196826,-0.48989 -0.539502,-0.34727 -0.936377,-0.83716 -0.396875,-0.4961 -0.620118,-1.10381 -0.217041,-0.60772 -0.217041,-1.27124 0,-0.40308 0.08682,-0.83716 0.09302,-0.43408 0.279053,-0.78755 0.223242,-0.42788 0.440283,-0.85576 0.217041,-0.43408 0.434082,-0.86196 h -1.240235 q 0,-0.16123 -0.0062,-0.31626 -0.0062,-0.15503 -0.0062,-0.31626 0,-0.19844 0.0124,-0.36587 0.0186,-0.17363 0.06201,-0.32866 0.04961,-0.16123 0.130225,-0.31006 0.08061,-0.14883 0.21084,-0.30386 0.390673,-0.45889 0.79375,-0.89917 0.403076,-0.44648 0.818554,-0.88057 0.334864,-0.35346 0.744141,-0.5457 0.409277,-0.19223 0.905371,-0.19223 h 3.912939 v 0.89296 q 0,0.29766 -0.10542,0.55811 -0.10542,0.26045 -0.303857,0.48369 l -0.930176,1.0356 z m -5.34541,3.31763 q 0,0.40308 0.117822,0.78755 0.124024,0.38447 0.341065,0.71933 h 8.452197 l -4.458643,-4.45244 h -1.575097 q -0.5271,0 -1.054199,0.19844 -0.520899,0.19844 -0.89917,0.57671 -0.446485,0.45268 -0.68833,0.99219 -0.235645,0.5395 -0.235645,1.17822 z m 0,-4.28501 h 1.779736 l -0.706933,1.43247 q 0.824756,-0.5395 1.823144,-0.5395 h 1.556494 v -1.82935 q 0.05581,-0.062 0.167432,-0.17983 0.111621,-0.11782 0.241846,-0.26045 0.136426,-0.14883 0.279053,-0.30386 0.142627,-0.15503 0.260449,-0.29145 0.124023,-0.14263 0.21084,-0.24805 0.08682,-0.11162 0.111621,-0.16743 0.03101,-0.0744 0.04961,-0.14263 0.0186,-0.0744 0.0186,-0.14263 h -3.019971 q -0.260449,0 -0.458887,0.0806 -0.198437,0.0806 -0.365869,0.21704 -0.16123,0.13023 -0.310059,0.29766 -0.148828,0.16743 -0.303857,0.34106 l -1.159619,1.28984 q -0.173633,0.19224 -0.173633,0.44649 z m 8.4646,7.13135 0.892968,0.89297 h 1.785938 l -1.785938,-1.78594 h -8.551416 q 0.434083,0.42168 0.954981,0.65732 0.5271,0.23565 1.134814,0.23565 z m -6.684864,-7.13135 v -2.22622 H 82.6964 q 0.229444,0 0.434082,0.0868 0.204639,0.0868 0.353467,0.24185 0.155029,0.14883 0.241846,0.35347 0.08682,0.19843 0.08682,0.42788 0,0.23564 -0.08682,0.44028 -0.08682,0.19844 -0.241846,0.35347 -0.148828,0.14883 -0.353467,0.23564 -0.204638,0.0868 -0.434082,0.0868 z m -0.892968,9.80405 h 4.458642 q 0,-0.17983 -0.136426,-0.31626 -0.130224,-0.13022 -0.310058,-0.13022 h -0.837158 l 1.023193,-1.77974 h -0.514697 l -1.023194,1.77974 h -0.74414 l 1.023193,-1.77974 h -0.514697 l -1.023193,1.77974 h -0.954981 q -0.179834,0 -0.31626,0.13022 -0.130224,0.13643 -0.130224,0.31626 z m 1.339453,-11.1435 v 0.44648 q 0,0.18604 0.130224,0.31626 0.130225,0.13022 0.31626,0.13022 0.186035,0 0.31626,-0.13022 0.130225,-0.13022 0.130225,-0.31626 v -0.44648 q 0,-0.17984 -0.136426,-0.31006 -0.130225,-0.13023 -0.310059,-0.13023 -0.179834,0 -0.31626,0.13023 -0.130224,0.13022 -0.130224,0.31006 z" id="path5177" inkscape:connector-curvature="0" style="fill:#aaeeff;stroke-width:0.23771149"/>
          </g>
        </g>
      </g>
    </g>
    </g></svg>
