<?xml version='1.0' encoding='UTF-8'?>
<!-- Created with Inkscape (http://www.inkscape.org/) and export_objects.py -->
<svg xmlns:cc="http://creativecommons.org/ns#" xmlns:dc="http://purl.org/dc/elements/1.1/" xmlns:inkscape="http://www.inkscape.org/namespaces/inkscape" xmlns:rdf="http://www.w3.org/1999/02/22-rdf-syntax-ns#" xmlns:sodipodi="http://sodipodi.sourceforge.net/DTD/sodipodi-0.dtd" xmlns:xlink="http://www.w3.org/1999/xlink" xmlns="http://www.w3.org/2000/svg" version="1.1" sodipodi:docname="step05.svg" inkscape:version="0.92.3 (2405546, 2018-03-11)" width="44.45mm" height="44.45mm" viewBox="0 0 44.45 44.45" id="svg5174"><sodipodi:namedview inkscape:snap-others="false" inkscape:snap-nodes="true" inkscape:bbox-nodes="true" inkscape:snap-bbox="false" id="base" pagecolor="#ffffff" bordercolor="#666666" borderopacity="1.0" inkscape:pageopacity="0.0" inkscape:pageshadow="2" inkscape:zoom="0.88702143" inkscape:cx="4517.9849" inkscape:cy="-775.89744" inkscape:document-units="mm" inkscape:current-layer="layer1" showgrid="true" inkscape:measure-start="72,612" inkscape:measure-end="72,552" inkscape:snap-grids="true" inkscape:window-width="1280" inkscape:window-height="940" inkscape:window-x="1909" inkscape:window-y="43" inkscape:window-maximized="1" inkscape:object-nodes="true">
    <inkscape:grid type="xygrid" id="grid5337" units="pt" spacingx="3.175" spacingy="3.175"/>
  </sodipodi:namedview>
  <metadata id="metadata5171">
    <rdf:RDF>
      <cc:Work rdf:about="">
        <dc:format>image/svg+xml</dc:format>
        <dc:type rdf:resource="http://purl.org/dc/dcmitype/StillImage"/>
        <dc:title/>
      </cc:Work>
    </rdf:RDF>
  </metadata>
  <g inkscape:groupmode="layer" inkscape:label="step" transform="matrix(1.000000,0.000000,0.000000,1.000000,-1225.550053,-189.050004)"><g id="g1953" inkscape:label="05">
      <rect style="opacity:1;fill:#ffffff;fill-opacity:0.90562289;stroke:none;stroke-width:0.35277778;stroke-linecap:butt;stroke-linejoin:miter;stroke-miterlimit:47.14606857;stroke-dasharray:none;stroke-dashoffset:0;stroke-opacity:1;paint-order:markers fill stroke" id="rect1668" width="44.450001" height="44.450001" x="1225.55" y="189.05"/>
      <g id="g1702" transform="translate(1136.6501,66.675017)">
        <rect style="opacity:1;fill:#ffdd55;fill-opacity:1;stroke:none;stroke-width:6.3499999;stroke-linecap:butt;stroke-linejoin:miter;stroke-miterlimit:47.14606857;stroke-dasharray:none;stroke-dashoffset:0;stroke-opacity:1;paint-order:markers fill stroke" id="rect1698" width="19.049999" height="19.049999" x="101.59999" y="125.54999"/>
        <path inkscape:connector-curvature="0" id="path1700" style="font-style:normal;font-variant:normal;font-weight:normal;font-stretch:normal;font-size:medium;line-height:100%;font-family:'Segoe UI Emoji';-inkscape-font-specification:'Segoe UI Emoji, Normal';font-variant-ligatures:normal;font-variant-caps:normal;font-variant-numeric:normal;font-feature-settings:normal;text-align:start;letter-spacing:0px;word-spacing:0px;writing-mode:lr-tb;text-anchor:start;fill:#d4aa00;fill-opacity:1;stroke:none;stroke-width:0.26458332" d="m 118.10501,137.03159 v 0.99218 q 0,0.82567 -0.31916,1.55421 -0.31224,0.72159 -0.85343,1.26278 -0.54119,0.54119 -1.26972,0.85342 -0.72159,0.31917 -1.54725,0.31917 h -1.58196 q -0.15958,0.45099 -0.54812,0.72159 -0.38162,0.27754 -0.86037,0.27754 -0.2359,0 -0.45792,-0.0763 -0.2151,-0.0694 -0.40243,-0.20122 -0.18734,-0.13182 -0.32611,-0.31916 -0.13876,-0.18039 -0.22203,-0.40243 h -1.58194 q -0.82567,0 -1.5542,-0.31916 -0.7216,-0.31224 -1.26279,-0.85343 -0.54119,-0.54119 -0.86035,-1.26278 -0.31224,-0.72853 -0.31224,-1.55419 v -0.99219 h 2.53945 q -0.27059,-0.0832 -0.54813,-0.15265 -0.2706,-0.0694 -0.54813,-0.1457 0.13183,-0.47875 0.24978,-0.95056 0.12489,-0.47181 0.34692,-0.92281 -0.4163,-0.27059 -0.76322,-0.61751 -0.33999,-0.35386 -0.69384,-0.70772 0.35385,-0.34692 0.69384,-0.69384 0.34692,-0.35385 0.76322,-0.62444 -0.22203,-0.451 -0.34692,-0.92281 -0.11795,-0.47875 -0.24978,-0.9575 0.47875,-0.12489 0.95056,-0.24978 0.47181,-0.13183 0.97137,-0.16652 0.0347,-0.49957 0.15958,-0.97138 0.13183,-0.47181 0.25672,-0.95056 0.47875,0.12489 0.95056,0.24979 0.47874,0.12489 0.92281,0.34691 0.27753,-0.4163 0.62444,-0.75627 0.34692,-0.34692 0.70078,-0.70078 0.35386,0.35386 0.70078,0.70078 0.34692,0.33997 0.62446,0.75627 0.45099,-0.22202 0.9228,-0.34691 0.47181,-0.1249 0.95055,-0.24979 0.12489,0.47875 0.25673,0.95056 0.13183,0.47181 0.16651,0.97138 0.49957,0.0347 0.97138,0.16652 0.47181,0.12489 0.95056,0.24978 -0.12489,0.47875 -0.25672,0.9575 -0.1249,0.47181 -0.34692,0.92281 0.4163,0.27059 0.75628,0.61751 0.34692,0.34692 0.70077,0.70077 -0.34692,0.35386 -0.69383,0.70772 -0.34692,0.34692 -0.76322,0.61751 0.22202,0.451 0.34692,0.92281 0.12489,0.47181 0.25672,0.95056 -0.27754,0.0763 -0.55507,0.15263 -0.2706,0.0694 -0.54814,0.14572 z m -6.98001,1.49175 q 0.32611,-0.32611 0.56895,-0.71465 0.24285,-0.38855 0.35386,-0.83954 0.3261,0.33303 0.72853,0.55507 0.40242,0.21509 0.84647,0.33304 0.0624,-0.24285 0.0971,-0.48569 0.0347,-0.24285 0.0347,-0.48569 0,-0.42324 -0.11795,-0.83954 0.20121,0.0624 0.4163,0.0902 0.21509,0.0277 0.43018,0.0277 0.24284,0 0.48568,-0.0347 0.24285,-0.0347 0.47875,-0.0971 -0.12489,-0.45794 -0.33997,-0.84648 -0.21509,-0.39549 -0.54814,-0.72854 0.451,-0.11099 0.83954,-0.3469 0.38855,-0.24286 0.71466,-0.57589 -0.32611,-0.31918 -0.71466,-0.56202 -0.38854,-0.24284 -0.83954,-0.35386 0.33305,-0.31916 0.54814,-0.72158 0.22202,-0.40937 0.33997,-0.85342 -0.24284,-0.0624 -0.48568,-0.0971 -0.24284,-0.0347 -0.49262,-0.0347 -0.20816,0 -0.42324,0.0277 -0.20816,0.0277 -0.40937,0.0832 0.0624,-0.20122 0.0902,-0.40937 0.0277,-0.21509 0.0277,-0.43017 0,-0.24286 -0.0347,-0.4857 -0.0347,-0.24284 -0.0971,-0.47874 -0.44405,0.11795 -0.85341,0.33998 -0.40243,0.21509 -0.72159,0.54813 -0.11796,-0.45099 -0.3608,-0.83954 -0.2359,-0.38855 -0.56201,-0.71466 -0.3261,0.32611 -0.56894,0.71466 -0.23591,0.38855 -0.34692,0.83954 -0.31917,-0.33304 -0.72854,-0.54813 -0.40242,-0.22203 -0.84648,-0.33998 -0.0624,0.24284 -0.10405,0.48568 -0.0347,0.24285 -0.0347,0.49263 0,0.40937 0.11795,0.82567 -0.20122,-0.0555 -0.4163,-0.0832 -0.20816,-0.0277 -0.41631,-0.0277 -0.24284,0 -0.49263,0.0347 -0.24284,0.0347 -0.47875,0.0971 0.11796,0.44405 0.33305,0.85342 0.22203,0.40242 0.55507,0.72158 -0.45099,0.111 -0.83955,0.35386 -0.38854,0.23591 -0.72159,0.56202 0.32611,0.32609 0.71466,0.56894 0.39549,0.24284 0.84648,0.35385 -0.33304,0.31918 -0.55507,0.72854 -0.21509,0.40242 -0.33305,0.84648 0.23591,0.0624 0.47181,0.0971 0.24285,0.0347 0.4857,0.0347 0.21508,0 0.42324,-0.0277 0.21508,-0.0277 0.42324,-0.0902 -0.11795,0.4163 -0.11795,0.83261 0,0.24977 0.0347,0.49262 0.0416,0.24284 0.10405,0.48569 0.44406,-0.11795 0.84648,-0.33304 0.40243,-0.22204 0.72854,-0.55507 0.11099,0.45099 0.34692,0.83954 0.24284,0.38854 0.56894,0.71465 z m 2.49781,-4.98869 q 0,0.52037 -0.2012,0.97831 -0.19428,0.451 -0.53426,0.79097 -0.33304,0.33305 -0.79097,0.53425 -0.451,0.19429 -0.97138,0.19429 -0.52038,0 -0.97137,-0.19429 -0.451,-0.2012 -0.79098,-0.54119 -0.33997,-0.33997 -0.53425,-0.79097 -0.19427,-0.45793 -0.19427,-0.97137 0,-0.51344 0.19427,-0.96444 0.19428,-0.45792 0.53425,-0.79097 0.33998,-0.33998 0.79098,-0.53426 0.45794,-0.2012 0.97137,-0.2012 0.51345,0 0.96444,0.19427 0.45793,0.19427 0.79791,0.53425 0.33998,0.33999 0.53426,0.79097 0.2012,0.451 0.2012,0.97138 z m -2.49781,1.99825 q 0.4163,0 0.7771,-0.15264 0.36774,-0.15959 0.63833,-0.43019 0.2706,-0.27059 0.42324,-0.63138 0.15959,-0.36773 0.15959,-0.78404 0,-0.40936 -0.15959,-0.77016 -0.15957,-0.36774 -0.43018,-0.63833 -0.2706,-0.2706 -0.63833,-0.42324 -0.36079,-0.15959 -0.77016,-0.15959 -0.40936,0 -0.7771,0.15959 -0.36079,0.15264 -0.63139,0.42324 -0.27059,0.27059 -0.43018,0.63833 -0.15264,0.3608 -0.15264,0.77016 0,0.41631 0.15264,0.78404 0.15959,0.36079 0.43018,0.63138 0.2706,0.2706 0.63139,0.43019 0.3608,0.15264 0.7771,0.15264 z m 2.99045,5.48826 q 0.62445,0 1.16564,-0.23591 0.54814,-0.2359 0.95055,-0.64527 0.40937,-0.40243 0.64527,-0.94362 0.23591,-0.54813 0.23591,-1.17259 h -1.49869 q -0.33304,0 -0.6522,0.0971 -0.31917,0.0902 -0.60364,0.25673 l -2.23416,1.34604 v 1.29748 z m -3.98958,0 v -1.29748 l -2.23415,-1.34605 q -0.28447,-0.17346 -0.60364,-0.26365 -0.31916,-0.0902 -0.65221,-0.0902 h -1.49175 q 0,0.61751 0.22897,1.16565 0.2359,0.54813 0.63833,0.95056 0.40937,0.40936 0.95056,0.64527 0.54813,0.2359 1.17259,0.2359 z m 1.4987,-2.29661 q -0.11795,0.13183 -0.24979,0.25673 -0.12489,0.12489 -0.24978,0.24978 -0.12489,-0.12489 -0.25671,-0.24978 -0.12489,-0.1249 -0.24285,-0.25673 v 2.78923 q 0,0.20816 0.1457,0.35386 0.14572,0.14571 0.35386,0.14571 0.20816,0 0.35386,-0.14571 0.14571,-0.1457 0.14571,-0.35386 z"/>
      </g>
      <g id="g1752" transform="translate(1111.25,60.325)">
        <rect y="150.95" x="127" height="19.049999" width="19.049999" id="rect1748" style="opacity:1;fill:#a05a2c;fill-opacity:1;stroke:none;stroke-width:6.3499999;stroke-linecap:butt;stroke-linejoin:miter;stroke-miterlimit:47.14606857;stroke-dasharray:none;stroke-dashoffset:0;stroke-opacity:1;paint-order:markers fill stroke"/>
        <path d="m 144.4625,155.01538 q 0,0.71093 -0.27609,1.35283 -0.26919,0.635 -0.76614,1.13195 0.49695,0.49697 0.76614,1.13196 0.27609,0.635 0.27609,1.34592 v 3.96876 h -1.49088 q -0.66951,0 -1.26309,-0.23467 -0.12424,0.33129 -0.3106,0.64189 -0.17945,0.3037 -0.40723,0.57289 0,0.44174 -0.15185,0.84897 -0.14494,0.40722 -0.41413,0.73163 -0.26228,0.3244 -0.635,0.55217 -0.36581,0.22777 -0.80065,0.3106 -0.49696,0.49695 -1.13196,0.76614 -0.62809,0.27608 -1.33212,0.27608 -0.70402,0 -1.33902,-0.27608 -0.635,-0.26919 -1.13196,-0.76614 -0.43483,-0.0897 -0.80755,-0.31751 -0.36582,-0.22086 -0.62809,-0.54526 -0.26229,-0.32441 -0.41413,-0.73163 -0.14496,-0.40033 -0.14496,-0.84897 -0.22777,-0.26919 -0.41413,-0.57289 -0.17945,-0.3106 -0.30369,-0.64189 -0.59359,0.23467 -1.2631,0.23467 h -1.49087 v -3.96876 q 0,-0.71092 0.26919,-1.34592 0.27608,-0.63499 0.77304,-1.13196 -0.49696,-0.49695 -0.77304,-1.13195 -0.26919,-0.6419 -0.26919,-1.35283 v -0.98701 q 0,-0.3106 0.11734,-0.57979 0.11733,-0.26917 0.3175,-0.46934 0.20706,-0.20706 0.47625,-0.3244 0.26918,-0.11734 0.57978,-0.11734 h 0.98701 v 1.49087 q 0,0.20017 0.14495,0.35201 0.15184,0.14495 0.35201,0.14495 h 9.92533 q 0.20017,0 0.34511,-0.14495 0.15185,-0.15184 0.15185,-0.35201 v -1.49087 h 0.987 q 0.31061,0 0.57979,0.11734 0.26919,0.11734 0.46934,0.3244 0.20707,0.20017 0.32441,0.46934 0.11734,0.26919 0.11734,0.57979 z m -0.99392,7.93751 v -2.97485 q 0,-0.50385 -0.20017,-0.95249 -0.19325,-0.45555 -0.53146,-0.79375 -0.3382,-0.33821 -0.79375,-0.53148 -0.44864,-0.20016 -0.9525,-0.20016 0,-0.40723 -0.15875,-0.76614 -0.15875,-0.36581 -0.42793,-0.635 -0.26919,-0.26918 -0.635,-0.42793 -0.35892,-0.15876 -0.76614,-0.15876 h -4.95577 q -0.40723,0 -0.77304,0.15876 -0.35891,0.15875 -0.6281,0.42793 -0.26919,0.26919 -0.42793,0.635 -0.15876,0.35891 -0.15876,0.76614 -0.46244,0 -0.91108,0.18636 -0.44174,0.17946 -0.79375,0.49696 -0.34511,0.3106 -0.55907,0.73853 -0.21398,0.42103 -0.21398,0.89728 v 3.1336 q 0.283,0 0.53837,-0.007 0.26229,-0.0138 0.50387,-0.0621 0.24157,-0.0483 0.46934,-0.14495 0.23468,-0.10352 0.47625,-0.283 0,-0.75232 -0.007,-1.48396 0,-0.73853 0,-1.49087 l 0.49698,-0.49694 v 2.98175 q 0,0.41413 0.0414,0.81445 0.0483,0.39343 0.24847,0.76615 l 0.20706,0.38651 q 0,-0.352 0.11734,-0.6626 0.11734,-0.3175 0.32441,-0.57288 0.21397,-0.25538 0.50386,-0.43484 0.28988,-0.17946 0.62809,-0.25538 0.19326,-0.35201 0.29679,-0.73854 0.11042,-0.39341 0.11042,-0.79374 v -2.47788 q 0,-0.39343 0.15185,-0.75924 0.15184,-0.36581 0.43483,-0.6488 0.27609,-0.2761 0.64191,-0.42794 0.36581,-0.15185 0.75924,-0.15185 0.40032,0 0.77304,0.15875 0.26919,0.11734 0.49005,0.3106 0.22777,0.18636 0.38652,0.42793 0.15876,0.24158 0.24158,0.52457 0.0897,0.27609 0.0897,0.56598 v 2.47788 q 0,0.38652 0.11733,0.78684 0.11733,0.40033 0.28989,0.74544 0.33821,0.0759 0.6281,0.25538 0.28989,0.17946 0.49696,0.43484 0.21396,0.25538 0.3313,0.57288 0.12424,0.3106 0.12424,0.6626 0.28989,-0.45553 0.39343,-0.9456 0.10351,-0.49005 0.10351,-1.02151 v -2.98175 l 0.49695,0.49697 q 0,0.42793 0,0.84896 0.007,0.42103 0.007,0.84897 0,0.3244 -0.007,0.64191 0,0.31059 -0.007,0.63499 0.23468,0.18636 0.46935,0.28989 0.23467,0.0966 0.47625,0.14495 0.24157,0.0483 0.49695,0.0552 0.25539,0.007 0.54528,0.007 z m -9.02805,-0.49007 q -0.28988,0 -0.54527,0.13115 -0.24848,0.12424 -0.43483,0.3382 -0.18636,0.20707 -0.2968,0.47625 -0.11041,0.26229 -0.11041,0.53838 v 0.99391 q 0,0.3106 0.11734,0.57978 0.11733,0.26919 0.31749,0.46935 0.20017,0.20707 0.46935,0.32441 0.26919,0.11734 0.57979,0.11734 h 3.96876 q 0.31059,0 0.57977,-0.11734 0.26919,-0.11734 0.46935,-0.32441 0.20707,-0.20016 0.32441,-0.46935 0.11733,-0.26918 0.11733,-0.57978 v -0.99391 q 0,-0.27609 -0.11041,-0.53838 -0.11042,-0.26918 -0.3037,-0.47625 -0.18635,-0.21396 -0.44174,-0.3382 -0.24848,-0.13115 -0.53147,-0.13115 z m 2.08446,-5.95657 q -0.31059,0 -0.57978,0.11734 -0.26919,0.11733 -0.47625,0.3244 -0.20016,0.20016 -0.3175,0.46935 -0.11733,0.26918 -0.11733,0.57979 v 2.47788 q 0,0.38651 -0.0897,0.76614 -0.0897,0.37271 -0.24158,0.72472 h 3.64435 q -0.15185,-0.35201 -0.24157,-0.72472 -0.0897,-0.37963 -0.0897,-0.76614 v -2.47788 q 0,-0.31061 -0.11734,-0.57979 -0.11734,-0.26919 -0.3244,-0.46935 -0.20017,-0.20707 -0.46934,-0.3244 -0.26919,-0.11734 -0.57979,-0.11734 z m 5.59767,0.71782 q 0.31059,-0.15874 0.55907,-0.39341 0.24849,-0.23468 0.42104,-0.51767 0.17946,-0.28989 0.26918,-0.6212 0.0966,-0.3313 0.0966,-0.67641 v -0.98701 q 0,-0.20706 -0.14495,-0.35201 -0.14494,-0.14494 -0.35201,-0.14494 v 0.49695 q 0,0.31059 -0.11734,0.57978 -0.11733,0.26919 -0.31749,0.46935 -0.20016,0.20016 -0.46935,0.3175 -0.26919,0.11733 -0.57979,0.11733 h -0.99391 q 0.17946,0.13115 0.33131,0.3037 0.15875,0.17255 0.28299,0.37272 0.12424,0.19326 0.20706,0.41413 0.0897,0.21396 0.12424,0.43484 0.35201,0.0552 0.68332,0.18635 z m -12.54126,-2.20869 q 0,0.34511 0.0897,0.67641 0.0966,0.33131 0.26918,0.6212 0.17946,0.28299 0.42793,0.51767 0.24849,0.23467 0.55909,0.39341 0.31749,-0.13114 0.6764,-0.18635 0.0897,-0.45555 0.33131,-0.85587 0.24848,-0.40033 0.62119,-0.66952 h -0.9939 q -0.31061,0 -0.57979,-0.11733 -0.26919,-0.11734 -0.46934,-0.3175 -0.20017,-0.20016 -0.31751,-0.46935 -0.11734,-0.26919 -0.11734,-0.57978 v -0.49695 q -0.20706,0 -0.35201,0.14494 -0.14494,0.14495 -0.14494,0.35201 z m 3.72027,2.98175 q 0.15186,0 0.283,0.0621 0.13804,0.0552 0.24157,0.15874 0.10351,0.0966 0.15875,0.23467 0.0621,0.13114 0.0621,0.28299 v 0.99392 q 0,0.15185 -0.0621,0.28989 -0.0552,0.13114 -0.15875,0.23467 -0.10351,0.10352 -0.24157,0.16566 -0.13114,0.0552 -0.283,0.0552 -0.15875,0 -0.29679,-0.0552 -0.13114,-0.0621 -0.23467,-0.15875 -0.0966,-0.10352 -0.15876,-0.23468 -0.0552,-0.13804 -0.0552,-0.29679 v -0.99392 q 0,-0.15185 0.0552,-0.28989 0.0621,-0.13804 0.16566,-0.23467 0.10351,-0.0966 0.23467,-0.15184 0.13805,-0.0621 0.28989,-0.0621 z m 6.44664,0 q 0.15185,0 0.28298,0.0621 0.13805,0.0552 0.24159,0.15184 0.10351,0.0966 0.15874,0.23467 0.0621,0.13804 0.0621,0.28989 v 0.99392 q 0,0.15875 -0.0621,0.29679 -0.0552,0.13114 -0.15874,0.23468 -0.0966,0.0966 -0.23467,0.15875 -0.13805,0.0552 -0.2899,0.0552 -0.15185,0 -0.28989,-0.0552 -0.13115,-0.0621 -0.23467,-0.16566 -0.10352,-0.10351 -0.16566,-0.23467 -0.0552,-0.13804 -0.0552,-0.28989 v -0.99392 q 0,-0.15185 0.0552,-0.28299 0.0621,-0.13804 0.16566,-0.23467 0.10351,-0.10351 0.23467,-0.15874 0.13804,-0.0621 0.28989,-0.0621 z m -1.39424,7.10923 q -0.13114,0 -0.24847,-0.0483 -0.11042,-0.0552 -0.22088,-0.11734 l -0.86277,-0.49695 0.97321,-0.55908 q 0.0828,-0.0483 0.17255,-0.0759 0.0966,-0.0276 0.19326,-0.0276 0.13804,0 0.25538,0.0552 0.11734,0.0483 0.20017,0.14495 0.0897,0.0897 0.13804,0.21396 0.0483,0.11733 0.0483,0.24848 0,0.2899 -0.17945,0.47626 -0.17946,0.18635 -0.46935,0.18635 z m -3.66505,0 q -0.13805,0 -0.25539,-0.0483 -0.11734,-0.0552 -0.20706,-0.14494 -0.0828,-0.0966 -0.13114,-0.21398 -0.0483,-0.11733 -0.0483,-0.25537 0,-0.13114 0.0483,-0.24848 0.0483,-0.12424 0.13114,-0.21397 0.0897,-0.0966 0.20706,-0.14494 0.11734,-0.0552 0.25539,-0.0552 0.0966,0 0.18635,0.0276 0.0966,0.0276 0.17946,0.0759 l 0.9732,0.55907 -0.86276,0.49697 q -0.11734,0.069 -0.22778,0.11732 -0.11041,0.0483 -0.24847,0.0483 z m 1.83597,2.31223 q 0.40033,0 0.77995,-0.13114 0.38653,-0.12424 0.71092,-0.36581 h -2.98173 q 0.32439,0.24157 0.70402,0.36581 0.38651,0.13114 0.78684,0.13114 z" style="font-style:normal;font-variant:normal;font-weight:normal;font-stretch:normal;font-size:medium;line-height:100%;font-family:'Segoe UI Emoji';-inkscape-font-specification:'Segoe UI Emoji, Normal';font-variant-ligatures:normal;font-variant-caps:normal;font-variant-numeric:normal;font-feature-settings:normal;text-align:start;letter-spacing:0px;word-spacing:0px;writing-mode:lr-tb;text-anchor:start;fill:#784421;fill-opacity:1;stroke:none;stroke-width:0.26458332" id="path1750" inkscape:connector-curvature="0"/>
      </g>
    </g>
    </g></svg>
