<?xml version='1.0' encoding='UTF-8'?>
<!-- Created with Inkscape (http://www.inkscape.org/) and export_objects.py -->
<svg xmlns:cc="http://creativecommons.org/ns#" xmlns:dc="http://purl.org/dc/elements/1.1/" xmlns:inkscape="http://www.inkscape.org/namespaces/inkscape" xmlns:rdf="http://www.w3.org/1999/02/22-rdf-syntax-ns#" xmlns:sodipodi="http://sodipodi.sourceforge.net/DTD/sodipodi-0.dtd" xmlns:xlink="http://www.w3.org/1999/xlink" xmlns="http://www.w3.org/2000/svg" version="1.1" sodipodi:docname="step08.svg" inkscape:version="0.92.3 (2405546, 2018-03-11)" width="44.45mm" height="44.45mm" viewBox="0 0 44.45 44.45" id="svg5174"><sodipodi:namedview inkscape:snap-others="false" inkscape:snap-nodes="true" inkscape:bbox-nodes="true" inkscape:snap-bbox="false" id="base" pagecolor="#ffffff" bordercolor="#666666" borderopacity="1.0" inkscape:pageopacity="0.0" inkscape:pageshadow="2" inkscape:zoom="0.88702143" inkscape:cx="4517.9849" inkscape:cy="-775.89744" inkscape:document-units="mm" inkscape:current-layer="layer1" showgrid="true" inkscape:measure-start="72,612" inkscape:measure-end="72,552" inkscape:snap-grids="true" inkscape:window-width="1280" inkscape:window-height="940" inkscape:window-x="1909" inkscape:window-y="43" inkscape:window-maximized="1" inkscape:object-nodes="true">
    <inkscape:grid type="xygrid" id="grid5337" units="pt" spacingx="3.175" spacingy="3.175"/>
  </sodipodi:namedview>
  <metadata id="metadata5171">
    <rdf:RDF>
      <cc:Work rdf:about="">
        <dc:format>image/svg+xml</dc:format>
        <dc:type rdf:resource="http://purl.org/dc/dcmitype/StillImage"/>
        <dc:title/>
      </cc:Work>
    </rdf:RDF>
  </metadata>
  <g inkscape:groupmode="layer" inkscape:label="step" transform="matrix(1.000000,0.000000,0.000000,1.000000,-1225.550053,-360.500004)"><g id="g1919" inkscape:label="08">
      <rect y="360.5" x="1225.55" height="44.450001" width="44.450001" id="rect1674" style="opacity:1;fill:#ffffff;fill-opacity:0.90562289;stroke:none;stroke-width:0.35277778;stroke-linecap:butt;stroke-linejoin:miter;stroke-miterlimit:47.14606857;stroke-dasharray:none;stroke-dashoffset:0;stroke-opacity:1;paint-order:markers fill stroke"/>
      <g transform="translate(1162.0501,212.725)" id="g1722">
        <rect y="150.95" x="76.199997" height="19.049999" width="19.049999" id="rect1718" style="opacity:1;fill:#2c2ca0;fill-opacity:1;stroke:none;stroke-width:6.3499999;stroke-linecap:butt;stroke-linejoin:miter;stroke-miterlimit:47.14606857;stroke-dasharray:none;stroke-dashoffset:0;stroke-opacity:1;paint-order:markers fill stroke"/>
        <path d="m 85.725006,152.5375 q 1.097106,0 2.10586,0.28717 1.016115,0.2798 1.899695,0.79522 0.883579,0.51542 1.605176,1.24437 0.728946,0.7216 1.244377,1.60518 0.51542,0.88358 0.795215,1.89969 0.287169,1.00876 0.287169,2.10586 0,1.09712 -0.287169,2.11324 -0.279795,1.00875 -0.795215,1.89233 -0.515431,0.88358 -1.244377,1.60518 -0.721597,0.72895 -1.605176,1.24437 -0.88358,0.51543 -1.899695,0.79522 -1.008754,0.28717 -2.10586,0.28717 -1.097119,0 -2.113234,-0.28717 -1.008753,-0.27979 -1.892333,-0.79522 -0.883591,-0.51542 -1.612538,-1.24437 -0.721596,-0.7216 -1.237016,-1.60518 -0.515419,-0.88358 -0.802588,-1.89233 -0.279795,-1.01612 -0.279795,-2.11324 0,-1.0971 0.279795,-2.10586 0.287169,-1.01611 0.802588,-1.89969 0.51542,-0.88358 1.237016,-1.60518 0.728947,-0.72895 1.612538,-1.24437 0.88358,-0.51542 1.892333,-0.79522 1.016115,-0.28717 2.113234,-0.28717 z m 0,14.8147 q 0.949847,0 1.826065,-0.25034 0.883579,-0.24299 1.641985,-0.69214 0.765767,-0.44179 1.391637,-1.06766 0.633231,-0.63324 1.075021,-1.39164 0.449152,-0.76578 0.692138,-1.64199 0.250348,-0.88359 0.250348,-1.83344 0,-1.16337 -0.36816,-2.23839 -0.36816,-1.07502 -1.082383,-1.99542 h -0.662691 q -0.397607,0 -0.677402,-0.11779 -0.272445,-0.11779 -0.500696,-0.29453 -0.220901,-0.17671 -0.412343,-0.38289 -0.191441,-0.20616 -0.412342,-0.38288 -0.220889,-0.17672 -0.500684,-0.29452 -0.279807,-0.11779 -0.670053,-0.11779 h -0.176718 q -0.132536,0 -0.242986,0.0589 -0.110427,0.0515 -0.110427,0.20617 0,0.17672 0.125174,0.22826 0.132548,0.0442 0.287169,0.0442 0.06626,0 0.125174,0 0.06626,-0.007 0.117788,-0.007 0.07362,0 0.139898,0.007 0.07362,0.007 0.132536,0.0368 0.05889,0.0221 0.0957,0.081 0.03681,0.0515 0.03681,0.1399 0,0.10306 -0.04417,0.16199 -0.03681,0.0515 -0.103065,0.081 -0.06626,0.0221 -0.147259,0.0294 -0.07362,0 -0.147271,0 0.147271,0.0294 0.250348,0.11779 0.110426,0.081 0.213539,0.17671 0.103064,0.0883 0.213527,0.16199 0.117788,0.0663 0.287168,0.0663 h 0.265072 q 0.110427,0 0.18408,0.081 0.08098,0.0736 0.08098,0.18408 0,0.17672 -0.117788,0.2209 -0.110427,0.0442 -0.242986,0.0442 h -0.169345 q -0.103065,0 -0.18408,0.081 -0.07362,0.081 -0.07362,0.18408 0,0.11043 -0.05889,0.16199 -0.05889,0.0515 -0.147271,0.081 -0.08834,0.0294 -0.191442,0.0589 -0.103065,0.0221 -0.191442,0.0736 -0.08834,0.0515 -0.147259,0.14725 -0.05889,0.0957 -0.05889,0.27244 0,0.19144 -0.08834,0.30925 -0.08098,0.11779 -0.184069,0.2209 -0.0957,0.0957 -0.176718,0.21353 -0.08098,0.11779 -0.08098,0.30925 v 0.14726 q 0,0.0663 -0.0071,0.13991 -0.0071,0.0663 -0.03681,0.12518 -0.02208,0.0515 -0.08098,0.0883 -0.05153,0.0294 -0.139898,0.0294 -0.147259,0 -0.191441,-0.081 -0.04417,-0.081 -0.07362,-0.17672 -0.02945,-0.10307 -0.07362,-0.18408 -0.04417,-0.0883 -0.191442,-0.0883 h -0.795226 q -0.213539,0 -0.375522,0.16199 -0.154633,0.15462 -0.154633,0.36815 v 0.27981 q 0,0.14726 0.01472,0.28717 0.01472,0.1399 0.06626,0.25033 0.05889,0.11043 0.161994,0.17672 0.110427,0.0663 0.287169,0.0663 0.147259,0 0.191442,-0.081 0.04417,-0.081 0.07362,-0.17672 0.02945,-0.10306 0.07362,-0.18408 0.04417,-0.0883 0.191442,-0.0883 0.14726,0 0.191442,0.0883 0.04417,0.081 0.07362,0.18408 0.02945,0.0957 0.07362,0.17672 0.04417,0.081 0.191441,0.081 0.14726,0 0.191442,0.0883 0.05153,0.081 0.07362,0.18408 0.02208,0.0957 0.06626,0.17671 0.05153,0.081 0.198804,0.081 h 1.58309 q 0.220889,0 0.412331,0.0883 0.191442,0.081 0.331339,0.22826 0.147272,0.1399 0.228263,0.33134 0.08834,0.19144 0.08834,0.41234 0,0.21353 0.154633,0.37552 0.161995,0.15462 0.375522,0.15462 0.213527,0 0.36816,0.15464 0.161983,0.15462 0.161983,0.36815 0,0.34607 -0.147259,0.58906 -0.147259,0.23562 -0.382884,0.47123 l -1.59044,1.59046 q -0.154633,0.15462 -0.279807,0.25771 -0.125174,0.10306 -0.265072,0.16198 -0.132536,0.0589 -0.29453,0.081 -0.161983,0.0294 -0.382884,0.0294 -0.139897,0 -0.250348,-0.0515 -0.110427,-0.0442 -0.110427,-0.21353 0,-0.14727 0.08098,-0.19144 0.08098,-0.0442 0.176718,-0.0736 0.103065,-0.0294 0.184068,-0.0736 0.08834,-0.0442 0.08834,-0.19144 v -1.32537 q 0,-0.22089 -0.154633,-0.37552 -0.154621,-0.15462 -0.375522,-0.15462 -0.176706,0 -0.287157,-0.0663 -0.103065,-0.0663 -0.161995,-0.17672 -0.05153,-0.11043 -0.06626,-0.24299 -0.01472,-0.1399 -0.01472,-0.27243 0,-0.2209 0.01472,-0.40498 0.01472,-0.18408 0.06626,-0.34607 0.05889,-0.16199 0.161995,-0.30925 0.103065,-0.14726 0.287157,-0.29453 -0.338701,0 -0.589049,-0.14726 -0.250348,-0.14726 -0.471237,-0.38288 -0.18408,-0.19881 -0.338713,-0.3019 -0.154633,-0.11042 -0.316616,-0.15462 -0.161994,-0.0515 -0.338713,-0.0589 -0.176718,-0.0147 -0.397607,-0.0147 H 84.13484 q -0.213539,0 -0.368161,-0.15462 -0.154632,-0.16199 -0.154632,-0.37552 0,-0.25771 -0.08098,-0.44179 -0.07362,-0.19144 -0.191442,-0.33871 -0.117788,-0.14726 -0.25771,-0.2798 -0.139897,-0.13253 -0.257709,-0.27979 -0.117789,-0.14727 -0.198804,-0.33135 -0.07362,-0.18408 -0.07362,-0.44179 0,-0.33134 -0.125174,-0.61851 -0.125174,-0.28716 -0.346062,-0.5007 -0.21354,-0.22089 -0.500696,-0.34606 -0.287169,-0.12517 -0.618508,-0.12517 h -0.655329 q -0.714223,0.9204 -1.089745,1.99542 -0.36816,1.07502 -0.36816,2.23839 0,0.94985 0.242986,1.83344 0.250348,0.87621 0.692138,1.64199 0.449151,0.7584 1.075021,1.39163 0.633232,0.62587 1.391637,1.06767 0.765767,0.44915 1.641985,0.69214 0.88358,0.25034 1.833439,0.25034 z m 0,-13.7544 q -0.809962,0 -1.597815,0.18408 -0.780502,0.18408 -1.502087,0.55224 l 0.456513,0.31662 h 1.052936 q 0.154621,0 0.191442,0.0883 0.04417,0.081 0.05889,0.18408 0.02209,0.0957 0.06626,0.17672 0.05153,0.081 0.213527,0.081 0.110427,0 0.198816,-0.0736 0.0957,-0.0736 0.0957,-0.19145 0.02945,-0.13253 0.0957,-0.27243 0.06626,-0.13991 0.161983,-0.25035 0.0957,-0.11779 0.220901,-0.19144 0.132535,-0.0736 0.287168,-0.0736 h 2.650739 q -0.633226,-0.26507 -1.303278,-0.3976 -0.662691,-0.13254 -1.347455,-0.13254 z m 0.795214,1.58308 q -0.147259,0 -0.191442,0.0883 -0.04417,0.081 -0.07362,0.18407 -0.02945,0.0957 -0.07362,0.17672 -0.04417,0.081 -0.191442,0.081 -0.08834,0 -0.176718,-0.007 -0.08098,-0.007 -0.169357,-0.007 -0.07362,0 -0.154621,0.007 -0.07362,0.007 -0.139909,0.0368 -0.06626,0.0294 -0.110427,0.0883 -0.04417,0.0515 -0.04417,0.14727 0,0.0957 0.04417,0.15462 0.04417,0.0515 0.110427,0.081 0.06626,0.0294 0.139909,0.0368 0.08098,0.007 0.154621,0.007 0.08834,0 0.169357,-0.007 0.08834,-0.007 0.176718,-0.007 0.147259,0 0.191442,0.0883 0.04417,0.081 0.07362,0.18408 0.02945,0.0957 0.07362,0.17672 0.04417,0.081 0.191442,0.081 0.18408,0 0.220901,-0.11779 0.04417,-0.11779 0.04417,-0.25772 v -0.15462 q 0,-0.20617 0.132547,-0.35344 0.132536,-0.15462 0.338701,-0.17671 h -0.206165 q -0.147271,0 -0.191442,-0.081 -0.04417,-0.081 -0.07362,-0.17672 -0.02209,-0.10306 -0.07362,-0.18406 -0.04417,-0.0883 -0.191442,-0.0883 z m 0.839409,0.53015 q 0.01472,0.007 0.03681,0.007 z" style="font-style:normal;font-variant:normal;font-weight:normal;font-stretch:normal;font-size:medium;line-height:100%;font-family:'Segoe UI Emoji';-inkscape-font-specification:'Segoe UI Emoji, Normal';font-variant-ligatures:normal;font-variant-caps:normal;font-variant-numeric:normal;font-feature-settings:normal;text-align:start;letter-spacing:0px;word-spacing:0px;writing-mode:lr-tb;text-anchor:start;fill:#afafe9;fill-opacity:1;stroke:none;stroke-width:0.26458332" id="path1720" inkscape:connector-curvature="0"/>
      </g>
      <g transform="translate(1111.25,231.775)" id="g1770">
        <rect style="opacity:1;fill:#a05a2c;fill-opacity:1;stroke:none;stroke-width:6.3499999;stroke-linecap:butt;stroke-linejoin:miter;stroke-miterlimit:47.14606857;stroke-dasharray:none;stroke-dashoffset:0;stroke-opacity:1;paint-order:markers fill stroke" id="rect1766" width="19.049999" height="19.049999" x="127" y="150.95"/>
        <path inkscape:connector-curvature="0" id="path1768" style="font-style:normal;font-variant:normal;font-weight:normal;font-stretch:normal;font-size:medium;line-height:100%;font-family:'Segoe UI Emoji';-inkscape-font-specification:'Segoe UI Emoji, Normal';font-variant-ligatures:normal;font-variant-caps:normal;font-variant-numeric:normal;font-feature-settings:normal;text-align:start;letter-spacing:0px;word-spacing:0px;writing-mode:lr-tb;text-anchor:start;fill:#784421;fill-opacity:1;stroke:none;stroke-width:0.26458332" d="m 144.4625,155.01538 q 0,0.71093 -0.27609,1.35283 -0.26919,0.635 -0.76614,1.13195 0.49695,0.49697 0.76614,1.13196 0.27609,0.635 0.27609,1.34592 v 3.96876 h -1.49088 q -0.66951,0 -1.26309,-0.23467 -0.12424,0.33129 -0.3106,0.64189 -0.17945,0.3037 -0.40723,0.57289 0,0.44174 -0.15185,0.84897 -0.14494,0.40722 -0.41413,0.73163 -0.26228,0.3244 -0.635,0.55217 -0.36581,0.22777 -0.80065,0.3106 -0.49696,0.49695 -1.13196,0.76614 -0.62809,0.27608 -1.33212,0.27608 -0.70402,0 -1.33902,-0.27608 -0.635,-0.26919 -1.13196,-0.76614 -0.43483,-0.0897 -0.80755,-0.31751 -0.36582,-0.22086 -0.62809,-0.54526 -0.26229,-0.32441 -0.41413,-0.73163 -0.14496,-0.40033 -0.14496,-0.84897 -0.22777,-0.26919 -0.41413,-0.57289 -0.17945,-0.3106 -0.30369,-0.64189 -0.59359,0.23467 -1.2631,0.23467 h -1.49087 v -3.96876 q 0,-0.71092 0.26919,-1.34592 0.27608,-0.63499 0.77304,-1.13196 -0.49696,-0.49695 -0.77304,-1.13195 -0.26919,-0.6419 -0.26919,-1.35283 v -0.98701 q 0,-0.3106 0.11734,-0.57979 0.11733,-0.26917 0.3175,-0.46934 0.20706,-0.20706 0.47625,-0.3244 0.26918,-0.11734 0.57978,-0.11734 h 0.98701 v 1.49087 q 0,0.20017 0.14495,0.35201 0.15184,0.14495 0.35201,0.14495 h 9.92533 q 0.20017,0 0.34511,-0.14495 0.15185,-0.15184 0.15185,-0.35201 v -1.49087 h 0.987 q 0.31061,0 0.57979,0.11734 0.26919,0.11734 0.46934,0.3244 0.20707,0.20017 0.32441,0.46934 0.11734,0.26919 0.11734,0.57979 z m -0.99392,7.93751 v -2.97485 q 0,-0.50385 -0.20017,-0.95249 -0.19325,-0.45555 -0.53146,-0.79375 -0.3382,-0.33821 -0.79375,-0.53148 -0.44864,-0.20016 -0.9525,-0.20016 0,-0.40723 -0.15875,-0.76614 -0.15875,-0.36581 -0.42793,-0.635 -0.26919,-0.26918 -0.635,-0.42793 -0.35892,-0.15876 -0.76614,-0.15876 h -4.95577 q -0.40723,0 -0.77304,0.15876 -0.35891,0.15875 -0.6281,0.42793 -0.26919,0.26919 -0.42793,0.635 -0.15876,0.35891 -0.15876,0.76614 -0.46244,0 -0.91108,0.18636 -0.44174,0.17946 -0.79375,0.49696 -0.34511,0.3106 -0.55907,0.73853 -0.21398,0.42103 -0.21398,0.89728 v 3.1336 q 0.283,0 0.53837,-0.007 0.26229,-0.0138 0.50387,-0.0621 0.24157,-0.0483 0.46934,-0.14495 0.23468,-0.10352 0.47625,-0.283 0,-0.75232 -0.007,-1.48396 0,-0.73853 0,-1.49087 l 0.49698,-0.49694 v 2.98175 q 0,0.41413 0.0414,0.81445 0.0483,0.39343 0.24847,0.76615 l 0.20706,0.38651 q 0,-0.352 0.11734,-0.6626 0.11734,-0.3175 0.32441,-0.57288 0.21397,-0.25538 0.50386,-0.43484 0.28988,-0.17946 0.62809,-0.25538 0.19326,-0.35201 0.29679,-0.73854 0.11042,-0.39341 0.11042,-0.79374 v -2.47788 q 0,-0.39343 0.15185,-0.75924 0.15184,-0.36581 0.43483,-0.6488 0.27609,-0.2761 0.64191,-0.42794 0.36581,-0.15185 0.75924,-0.15185 0.40032,0 0.77304,0.15875 0.26919,0.11734 0.49005,0.3106 0.22777,0.18636 0.38652,0.42793 0.15876,0.24158 0.24158,0.52457 0.0897,0.27609 0.0897,0.56598 v 2.47788 q 0,0.38652 0.11733,0.78684 0.11733,0.40033 0.28989,0.74544 0.33821,0.0759 0.6281,0.25538 0.28989,0.17946 0.49696,0.43484 0.21396,0.25538 0.3313,0.57288 0.12424,0.3106 0.12424,0.6626 0.28989,-0.45553 0.39343,-0.9456 0.10351,-0.49005 0.10351,-1.02151 v -2.98175 l 0.49695,0.49697 q 0,0.42793 0,0.84896 0.007,0.42103 0.007,0.84897 0,0.3244 -0.007,0.64191 0,0.31059 -0.007,0.63499 0.23468,0.18636 0.46935,0.28989 0.23467,0.0966 0.47625,0.14495 0.24157,0.0483 0.49695,0.0552 0.25539,0.007 0.54528,0.007 z m -9.02805,-0.49007 q -0.28988,0 -0.54527,0.13115 -0.24848,0.12424 -0.43483,0.3382 -0.18636,0.20707 -0.2968,0.47625 -0.11041,0.26229 -0.11041,0.53838 v 0.99391 q 0,0.3106 0.11734,0.57978 0.11733,0.26919 0.31749,0.46935 0.20017,0.20707 0.46935,0.32441 0.26919,0.11734 0.57979,0.11734 h 3.96876 q 0.31059,0 0.57977,-0.11734 0.26919,-0.11734 0.46935,-0.32441 0.20707,-0.20016 0.32441,-0.46935 0.11733,-0.26918 0.11733,-0.57978 v -0.99391 q 0,-0.27609 -0.11041,-0.53838 -0.11042,-0.26918 -0.3037,-0.47625 -0.18635,-0.21396 -0.44174,-0.3382 -0.24848,-0.13115 -0.53147,-0.13115 z m 2.08446,-5.95657 q -0.31059,0 -0.57978,0.11734 -0.26919,0.11733 -0.47625,0.3244 -0.20016,0.20016 -0.3175,0.46935 -0.11733,0.26918 -0.11733,0.57979 v 2.47788 q 0,0.38651 -0.0897,0.76614 -0.0897,0.37271 -0.24158,0.72472 h 3.64435 q -0.15185,-0.35201 -0.24157,-0.72472 -0.0897,-0.37963 -0.0897,-0.76614 v -2.47788 q 0,-0.31061 -0.11734,-0.57979 -0.11734,-0.26919 -0.3244,-0.46935 -0.20017,-0.20707 -0.46934,-0.3244 -0.26919,-0.11734 -0.57979,-0.11734 z m 5.59767,0.71782 q 0.31059,-0.15874 0.55907,-0.39341 0.24849,-0.23468 0.42104,-0.51767 0.17946,-0.28989 0.26918,-0.6212 0.0966,-0.3313 0.0966,-0.67641 v -0.98701 q 0,-0.20706 -0.14495,-0.35201 -0.14494,-0.14494 -0.35201,-0.14494 v 0.49695 q 0,0.31059 -0.11734,0.57978 -0.11733,0.26919 -0.31749,0.46935 -0.20016,0.20016 -0.46935,0.3175 -0.26919,0.11733 -0.57979,0.11733 h -0.99391 q 0.17946,0.13115 0.33131,0.3037 0.15875,0.17255 0.28299,0.37272 0.12424,0.19326 0.20706,0.41413 0.0897,0.21396 0.12424,0.43484 0.35201,0.0552 0.68332,0.18635 z m -12.54126,-2.20869 q 0,0.34511 0.0897,0.67641 0.0966,0.33131 0.26918,0.6212 0.17946,0.28299 0.42793,0.51767 0.24849,0.23467 0.55909,0.39341 0.31749,-0.13114 0.6764,-0.18635 0.0897,-0.45555 0.33131,-0.85587 0.24848,-0.40033 0.62119,-0.66952 h -0.9939 q -0.31061,0 -0.57979,-0.11733 -0.26919,-0.11734 -0.46934,-0.3175 -0.20017,-0.20016 -0.31751,-0.46935 -0.11734,-0.26919 -0.11734,-0.57978 v -0.49695 q -0.20706,0 -0.35201,0.14494 -0.14494,0.14495 -0.14494,0.35201 z m 3.72027,2.98175 q 0.15186,0 0.283,0.0621 0.13804,0.0552 0.24157,0.15874 0.10351,0.0966 0.15875,0.23467 0.0621,0.13114 0.0621,0.28299 v 0.99392 q 0,0.15185 -0.0621,0.28989 -0.0552,0.13114 -0.15875,0.23467 -0.10351,0.10352 -0.24157,0.16566 -0.13114,0.0552 -0.283,0.0552 -0.15875,0 -0.29679,-0.0552 -0.13114,-0.0621 -0.23467,-0.15875 -0.0966,-0.10352 -0.15876,-0.23468 -0.0552,-0.13804 -0.0552,-0.29679 v -0.99392 q 0,-0.15185 0.0552,-0.28989 0.0621,-0.13804 0.16566,-0.23467 0.10351,-0.0966 0.23467,-0.15184 0.13805,-0.0621 0.28989,-0.0621 z m 6.44664,0 q 0.15185,0 0.28298,0.0621 0.13805,0.0552 0.24159,0.15184 0.10351,0.0966 0.15874,0.23467 0.0621,0.13804 0.0621,0.28989 v 0.99392 q 0,0.15875 -0.0621,0.29679 -0.0552,0.13114 -0.15874,0.23468 -0.0966,0.0966 -0.23467,0.15875 -0.13805,0.0552 -0.2899,0.0552 -0.15185,0 -0.28989,-0.0552 -0.13115,-0.0621 -0.23467,-0.16566 -0.10352,-0.10351 -0.16566,-0.23467 -0.0552,-0.13804 -0.0552,-0.28989 v -0.99392 q 0,-0.15185 0.0552,-0.28299 0.0621,-0.13804 0.16566,-0.23467 0.10351,-0.10351 0.23467,-0.15874 0.13804,-0.0621 0.28989,-0.0621 z m -1.39424,7.10923 q -0.13114,0 -0.24847,-0.0483 -0.11042,-0.0552 -0.22088,-0.11734 l -0.86277,-0.49695 0.97321,-0.55908 q 0.0828,-0.0483 0.17255,-0.0759 0.0966,-0.0276 0.19326,-0.0276 0.13804,0 0.25538,0.0552 0.11734,0.0483 0.20017,0.14495 0.0897,0.0897 0.13804,0.21396 0.0483,0.11733 0.0483,0.24848 0,0.2899 -0.17945,0.47626 -0.17946,0.18635 -0.46935,0.18635 z m -3.66505,0 q -0.13805,0 -0.25539,-0.0483 -0.11734,-0.0552 -0.20706,-0.14494 -0.0828,-0.0966 -0.13114,-0.21398 -0.0483,-0.11733 -0.0483,-0.25537 0,-0.13114 0.0483,-0.24848 0.0483,-0.12424 0.13114,-0.21397 0.0897,-0.0966 0.20706,-0.14494 0.11734,-0.0552 0.25539,-0.0552 0.0966,0 0.18635,0.0276 0.0966,0.0276 0.17946,0.0759 l 0.9732,0.55907 -0.86276,0.49697 q -0.11734,0.069 -0.22778,0.11732 -0.11041,0.0483 -0.24847,0.0483 z m 1.83597,2.31223 q 0.40033,0 0.77995,-0.13114 0.38653,-0.12424 0.71092,-0.36581 h -2.98173 q 0.32439,0.24157 0.70402,0.36581 0.38651,0.13114 0.78684,0.13114 z"/>
      </g>
    </g>
    </g></svg>
