<?xml version='1.0' encoding='UTF-8'?>
<!-- Created with Inkscape (http://www.inkscape.org/) and export_objects.py -->
<svg xmlns:cc="http://creativecommons.org/ns#" xmlns:dc="http://purl.org/dc/elements/1.1/" xmlns:inkscape="http://www.inkscape.org/namespaces/inkscape" xmlns:rdf="http://www.w3.org/1999/02/22-rdf-syntax-ns#" xmlns:sodipodi="http://sodipodi.sourceforge.net/DTD/sodipodi-0.dtd" xmlns:xlink="http://www.w3.org/1999/xlink" xmlns="http://www.w3.org/2000/svg" version="1.1" id="svg5174" viewBox="0 0 19.0499992062 19.0499992062" height="19.0499992062mm" width="19.0499992062mm" inkscape:version="0.92.3 (2405546, 2018-03-11)" sodipodi:docname="blue-1.svg"><sodipodi:namedview inkscape:window-maximized="1" inkscape:window-y="-11" inkscape:window-x="-11" inkscape:window-height="986" inkscape:window-width="1920" inkscape:snap-grids="true" inkscape:measure-end="72,552" inkscape:measure-start="72,612" showgrid="true" inkscape:current-layer="layer2" inkscape:document-units="mm" inkscape:cy="654.86991" inkscape:cx="275.14737" inkscape:zoom="1.7613639" inkscape:pageshadow="2" inkscape:pageopacity="0.0" borderopacity="1.0" bordercolor="#666666" pagecolor="#ffffff" id="base">
    <inkscape:grid spacingy="1.5875" spacingx="1.5875" units="pt" id="grid5337" type="xygrid"/>
  </sodipodi:namedview>
  <metadata id="metadata5171">
    <rdf:RDF>
      <cc:Work rdf:about="">
        <dc:format>image/svg+xml</dc:format>
        <dc:type rdf:resource="http://purl.org/dc/dcmitype/StillImage"/>
        <dc:title/>
      </cc:Work>
    </rdf:RDF>
  </metadata>
  <g inkscape:groupmode="layer" inkscape:label="blue-" transform="matrix(1.000000,0.000000,0.000000,1.000000,-50.800000,-150.949996)"><g id="g1187" inkscape:label="1">
      <rect y="150.95" x="50.799999" height="19.049999" width="19.049999" id="rect1120" style="opacity:1;fill:#2c2ca0;fill-opacity:1;stroke:none;stroke-width:6.3499999;stroke-linecap:butt;stroke-linejoin:miter;stroke-miterlimit:47.14606857;stroke-dasharray:none;stroke-dashoffset:0;stroke-opacity:1;paint-order:markers fill stroke"/>
      <path d="m 63.680739,154.11232 q 1.1543,0.0996 2.05207,0.52729 0.90488,0.42037 1.52479,1.11863 0.61988,0.69116 0.94052,1.63881 0.32781,0.94766 0.32781,2.09479 0,1.01181 -0.23508,2.05208 -0.23509,1.04028 -0.69113,1.99503 -0.44891,0.94766 -1.11866,1.75991 -0.66979,0.81229 -1.54616,1.36805 -0.12099,0.0782 -0.25646,0.1496 -0.12823,0.0714 -0.2637,0.12823 v 1.46781 q -0.32057,0 -0.63414,-0.0138 -0.31334,-0.007 -0.60565,-0.0714 -0.2923,-0.0641 -0.56286,-0.19958 -0.2637,-0.13547 -0.50588,-0.38476 -0.44177,0.0855 -0.89068,0.12099 -0.44173,0.0355 -0.89064,0.0355 -1.32527,0 -2.50805,-0.2637 -1.17567,-0.25646 -2.15894,-0.82653 -0.98329,-0.56999 -1.7528,-1.46777 -0.76952,-0.90491 -1.26827,-2.18744 -0.10685,-0.2637 -0.19958,-0.57 -0.0855,-0.30644 -0.15684,-0.61991 -0.0641,-0.31334 -0.10685,-0.62702 -0.0355,-0.32057 -0.0355,-0.60564 0,-0.1851 -0.007,-0.36338 -0.007,-0.17821 -0.007,-0.36339 0,-0.20647 0.0138,-0.40613 0.0207,-0.20682 0.0783,-0.39189 0.0569,-0.1851 0.15684,-0.34915 0.10686,-0.17097 0.27783,-0.31333 v -0.37048 q 0,-0.43464 0.15684,-0.81229 0.15684,-0.37763 0.4275,-0.64839 0.27093,-0.27783 0.64124,-0.43463 0.37766,-0.15684 0.81943,-0.15684 h 4.08985 q 0.2637,0 0.52012,0.0427 0.2637,0.0427 0.51302,0.14236 v -3.76921 h 1.01891 q 0.44887,0 0.86927,0.0927 0.42749,0.0855 0.79801,0.27783 0.37052,0.18545 0.66976,0.48451 0.30644,0.2992 0.50588,0.71963 z m 2.62207,9.69026 q 0.60564,-1.00463 0.89778,-2.13753 0.2992,-1.13293 0.2992,-2.30857 0,-1.06165 -0.34194,-1.85967 -0.33471,-0.79802 -0.94766,-1.33241 -0.61277,-0.53439 -1.46067,-0.79802 -0.8479,-0.27093 -1.85967,-0.27093 -0.0138,-0.41327 -0.20647,-0.69827 -0.18511,-0.2923 -0.47742,-0.47027 -0.28506,-0.18511 -0.64838,-0.27094 -0.35625,-0.0855 -0.7125,-0.0927 v 2.04494 l 0.51299,0.51299 -0.51299,0.51301 v 2.05208 q 0.2992,0 0.58424,-0.05 0.2923,-0.05 0.54152,-0.17097 0.25646,-0.12099 0.46314,-0.31333 0.20648,-0.19235 0.33471,-0.48452 0.12099,-0.25646 0.12099,-0.52015 0.71963,0 1.21128,0.3347 0.49879,0.33471 0.71253,1.03318 0.05,0.16373 0.0782,0.3347 0.0355,0.17098 0.0355,0.34195 0,0.73387 -0.33471,1.22552 -0.3347,0.48451 -1.04027,0.71253 -0.16374,0.0569 -0.33471,0.0855 -0.16408,0.0276 -0.34194,0.0276 -0.37766,0 -0.74104,-0.0641 -0.36339,-0.0714 -0.6769,-0.2282 -0.31333,-0.15684 -0.56999,-0.40612 -0.24957,-0.25646 -0.40613,-0.63415 -0.0713,-0.17097 -0.12099,-0.34915 -0.0427,-0.1851 -0.0427,-0.37049 v -0.50588 q 0,-0.34194 -0.1141,-0.61991 -0.10686,-0.28507 -0.31334,-0.48451 -0.19958,-0.20648 -0.48451,-0.32058 -0.27783,-0.11409 -0.61988,-0.11409 h -4.08985 q -0.22819,0 -0.41326,0.0782 -0.18545,0.0714 -0.32781,0.21372 -0.13547,0.13547 -0.21372,0.32781 -0.0713,0.18511 -0.0713,0.40613 h 0.51302 v 0.51302 h 0.51302 v -0.51302 h 0.51298 v 0.51302 h 0.51302 v -0.51302 h 0.51302 v 0.51302 h 0.51302 v -0.51302 h 0.51302 v 0.5985 q 0.14236,0.0569 0.27059,0.12099 0.12823,0.0569 0.24233,0.15684 v -0.74817 q 0.27093,0.13547 0.38479,0.37052 0.12099,0.22785 0.12099,0.52015 v 3.59107 q 0,0.47741 0.27059,0.74814 0.27783,0.27094 0.74814,0.27094 h 2.55796 v 2.05204 q 0,0.44891 0.14961,0.81943 0.15683,0.37762 0.42749,0.64838 0.27783,0.27783 0.64839,0.4275 0.37765,0.1496 0.82652,0.1496 v -2.04494 q 0,-0.38476 -0.11409,-0.73387 -0.1141,-0.35625 -0.38476,-0.64128 v -0.6769 z m -9.55485,-4.60997 h -3.08522 q -0.21372,0 -0.36339,0.1496 -0.14236,0.1496 -0.14236,0.36338 v 1.02604 q 0,0.24233 0.0276,0.51302 0.0355,0.2637 0.0855,0.53439 0.0569,0.2637 0.13547,0.52726 0.0782,0.25646 0.16373,0.47738 0.44177,1.11866 1.11866,1.90244 0.67689,0.77665 1.54616,1.26116 0.86927,0.49161 1.90241,0.7125 1.03318,0.22095 2.18031,0.22095 0.30644,0 0.60564,-0.0207 0.2992,-0.0207 0.59854,-0.0569 -0.0855,-0.22784 -0.13547,-0.47024 -0.0427,-0.23508 -0.0427,-0.47741 v -1.53902 h -2.04494 q -0.33471,0 -0.61988,-0.1141 -0.27783,-0.1141 -0.48451,-0.31368 -0.19958,-0.20648 -0.31334,-0.48451 -0.10685,-0.28507 -0.10685,-0.61991 v -2.56507 q 0,-0.20647 -0.0855,-0.39189 -0.0782,-0.19234 -0.22095,-0.32781 -0.13547,-0.14236 -0.32781,-0.22096 -0.18511,-0.0855 -0.3919,-0.0855 z m 9.21284,5.12299 h -2.0093 q 0.23509,0.31368 0.35628,0.69826 0.12099,0.38476 0.10686,0.77665 0.25646,-0.19958 0.46314,-0.35625 0.20682,-0.16373 0.38476,-0.32781 0.17821,-0.16374 0.34194,-0.34912 0.17097,-0.19234 0.35625,-0.44177 z m -6.66205,-4.09699 q 0.20648,0 0.35628,0.15684 0.15684,0.1496 0.15684,0.35625 v 0.51302 q 0,0.20648 -0.15684,0.36338 -0.1496,0.1496 -0.35628,0.1496 -0.21372,0 -0.36339,-0.1496 -0.1496,-0.1496 -0.1496,-0.36338 v -0.51302 q 0,-0.21372 0.1496,-0.36338 0.1496,-0.14961 0.36339,-0.14961 z" style="font-style:normal;font-variant:normal;font-weight:normal;font-stretch:normal;font-size:medium;line-height:100%;font-family:'Segoe UI Emoji';-inkscape-font-specification:'Segoe UI Emoji';font-variant-ligatures:normal;font-variant-caps:normal;font-variant-numeric:normal;text-align:start;letter-spacing:0px;word-spacing:0px;writing-mode:lr-tb;text-anchor:start;fill:#afafe9;fill-opacity:1;stroke:none;stroke-width:0.26458332" id="path1017" inkscape:connector-curvature="0"/>
    </g>
    </g></svg>
