<?xml version='1.0' encoding='UTF-8'?>
<!-- Created with Inkscape (http://www.inkscape.org/) and export_objects.py -->
<svg xmlns:cc="http://creativecommons.org/ns#" xmlns:dc="http://purl.org/dc/elements/1.1/" xmlns:inkscape="http://www.inkscape.org/namespaces/inkscape" xmlns:rdf="http://www.w3.org/1999/02/22-rdf-syntax-ns#" xmlns:sodipodi="http://sodipodi.sourceforge.net/DTD/sodipodi-0.dtd" xmlns:xlink="http://www.w3.org/1999/xlink" xmlns="http://www.w3.org/2000/svg" version="1.1" id="svg5174" viewBox="0 0 19.0499992062 19.0499992062" height="19.0499992062mm" width="19.0499992062mm" inkscape:version="0.92.3 (2405546, 2018-03-11)" sodipodi:docname="blue-2.svg"><sodipodi:namedview inkscape:window-maximized="1" inkscape:window-y="-11" inkscape:window-x="-11" inkscape:window-height="986" inkscape:window-width="1920" inkscape:snap-grids="true" inkscape:measure-end="72,552" inkscape:measure-start="72,612" showgrid="true" inkscape:current-layer="layer2" inkscape:document-units="mm" inkscape:cy="654.86991" inkscape:cx="275.14737" inkscape:zoom="1.7613639" inkscape:pageshadow="2" inkscape:pageopacity="0.0" borderopacity="1.0" bordercolor="#666666" pagecolor="#ffffff" id="base">
    <inkscape:grid spacingy="1.5875" spacingx="1.5875" units="pt" id="grid5337" type="xygrid"/>
  </sodipodi:namedview>
  <metadata id="metadata5171">
    <rdf:RDF>
      <cc:Work rdf:about="">
        <dc:format>image/svg+xml</dc:format>
        <dc:type rdf:resource="http://purl.org/dc/dcmitype/StillImage"/>
        <dc:title/>
      </cc:Work>
    </rdf:RDF>
  </metadata>
  <g inkscape:groupmode="layer" inkscape:label="blue-" transform="matrix(1.000000,0.000000,0.000000,1.000000,-76.199989,-150.949996)"><g id="g1182" inkscape:label="2">
      <rect style="opacity:1;fill:#2c2ca0;fill-opacity:1;stroke:none;stroke-width:6.3499999;stroke-linecap:butt;stroke-linejoin:miter;stroke-miterlimit:47.14606857;stroke-dasharray:none;stroke-dashoffset:0;stroke-opacity:1;paint-order:markers fill stroke" id="rect1101" width="19.049999" height="19.049999" x="76.199989" y="150.95"/>
      <path d="m 89.441179,153.03431 q 0.37271,0 0.75233,0.0691 0.38654,0.0691 0.75233,0.20702 0.36584,0.13123 0.69711,0.33124 0.33124,0.20035 0.60742,0.45556 0.41411,0.37962 0.41411,0.93177 0,0.25545 -0.0898,0.46935 -0.0828,0.21404 -0.23474,0.37271 -0.15193,0.15894 -0.35892,0.26212 -0.20702,0.10351 -0.45555,0.13123 -0.0134,0 -0.0267,0.007 -0.007,0 -0.02,0 -0.13791,0.02 -0.26245,0.0414 -0.12422,0.02 -0.26212,0.0691 0.36579,0.72472 0.54527,1.51154 0.18632,0.77995 0.18632,1.58748 0,1.02153 -0.26245,1.96713 -0.26245,0.93869 -0.73854,1.76692 -0.47623,0.82136 -1.14575,1.49776 -0.66949,0.67643 -1.48396,1.16648 -0.81444,0.49005 -1.76001,0.75921 -0.93869,0.26913 -1.95331,0.28316 -0.20001,0.34513 -0.48317,0.62121 -0.27614,0.27614 -0.61426,0.46934 -0.33124,0.19333 -0.71093,0.29685 -0.37271,0.10351 -0.77304,0.10351 h -0.99391 v -3.14046 l 0.33822,-0.33124 -0.33822,-0.33124 v -3.14046 h 0.99391 q 0.38651,0 0.75234,0.0965 0.3658,0.0965 0.69019,0.28282 0.33124,0.17931 0.60738,0.44173 0.27615,0.25544 0.48317,0.58668 0.31755,-0.0898 0.57977,-0.27614 0.26913,-0.18632 0.45555,-0.43482 0.19334,-0.25544 0.29685,-0.55907 0.10351,-0.30352 0.10351,-0.63499 v -0.24843 q -0.77303,-0.28984 -1.35283,-0.87655 -0.57286,-0.58668 -0.86276,-1.3528 h -2.74705 q -0.4072,0 -0.77304,-0.15895 -0.35888,-0.1586 -0.62808,-0.4279 -0.26913,-0.26913 -0.42794,-0.62812 -0.15193,-0.3658 -0.15193,-0.77304 0,-0.40032 0.15193,-0.75921 0.15193,-0.35892 0.41415,-0.62812 0.26913,-0.26913 0.62117,-0.4279 0.35201,-0.15894 0.75925,-0.16562 0.35201,-0.46935 0.80065,-0.83518 0.44861,-0.37271 0.96627,-0.62809 0.51766,-0.25544 1.08364,-0.3865 0.56598,-0.1379 1.15266,-0.1379 0.83514,0 1.6427,0.19333 0.80756,0.19334 1.55298,0.5798 0.3658,-0.1379 0.74543,-0.20702 0.37962,-0.0691 0.76612,-0.0691 z m -5.69424,1.98092 q 0,0.0691 0,0.14492 0.007,0.0691 0.007,0.14492 0,0.12421 -0.0134,0.24843 -0.0134,0.1172 -0.0621,0.21403 -0.0484,0.0965 -0.14491,0.16562 -0.0898,0.0621 -0.24142,0.0758 h 0.95248 q 0,0.20035 -0.007,0.40033 -0.007,0.20034 -0.007,0.40032 0,0.18632 0.007,0.37271 0.0134,0.18632 0.0414,0.36583 0.0621,0.39342 0.22072,0.74543 0.15861,0.352 0.39341,0.64878 0.24175,0.28984 0.55219,0.51767 0.31755,0.22071 0.69019,0.352 0.13791,0.0551 0.29685,0.10352 0.15861,0.0414 0.31054,0.0414 0.0758,0 0.14491,-0.0267 0.0691,-0.0267 0.0691,-0.1172 0,-0.0758 -0.0414,-0.14492 -0.0414,-0.0691 -0.0828,-0.13123 -0.25544,-0.37271 -0.40033,-0.78682 -0.1379,-0.42103 -0.1379,-0.87659 0,-0.44864 0.13122,-0.86275 0.13791,-0.42103 0.39342,-0.79374 0.42102,0.16562 0.76612,0.44864 0.35201,0.28282 0.60051,0.64879 0.24842,0.35892 0.37962,0.78682 0.1379,0.42794 0.1379,0.8835 v 1.49084 q 0,0.6143 -0.1586,1.18715 -0.15895,0.56598 -0.44865,1.06294 -0.28983,0.49696 -0.70401,0.90419 -0.40724,0.40721 -0.9042,0.70402 -0.49005,0.28984 -1.0629,0.44861 -0.56598,0.15894 -1.18028,0.15894 h -0.49695 v -0.49696 h 0.49695 q 0.82136,0 1.53916,-0.31053 0.72472,-0.31755 1.26309,-0.85585 0.53836,-0.53836 0.84896,-1.2562 0.31755,-0.72472 0.31755,-1.54608 v -1.49775 q 0,-0.31755 -0.0898,-0.62121 -0.0828,-0.31053 -0.24175,-0.58668 -0.15193,-0.27614 -0.37271,-0.50384 -0.22072,-0.22772 -0.49696,-0.39341 -0.22071,0.47622 -0.22071,0.99389 0,0.39344 0.11052,0.73163 0.1172,0.33124 0.33818,0.6557 0.0898,0.13122 0.15193,0.26913 0.0621,0.13122 0.0621,0.29684 0,0.15193 -0.0621,0.26914 -0.0621,0.1172 -0.16562,0.20001 -0.0965,0.0758 -0.22772,0.1172 -0.13123,0.0414 -0.27615,0.0414 v 0.52457 q 0,0.61429 -0.23474,1.15954 -0.23473,0.53839 -0.64187,0.9456 -0.40033,0.40032 -0.9456,0.63499 -0.53837,0.23474 -1.15266,0.23474 h -0.0621 q -0.0828,-0.33124 -0.26913,-0.60047 -0.18632,-0.27614 -0.44173,-0.46934 -0.25544,-0.20001 -0.56598,-0.30353 -0.31053,-0.11052 -0.64879,-0.11052 v 1.73243 l 0.74543,0.74545 -0.74543,0.74542 v 1.73243 q 0.33819,0 0.64879,-0.11052 0.31054,-0.10352 0.56598,-0.30353 0.25544,-0.19333 0.44173,-0.46934 0.18632,-0.26914 0.26913,-0.60051 h 0.55907 q 0.89037,0 1.71172,-0.23474 0.82827,-0.22772 1.53916,-0.64879 0.71784,-0.42102 1.30452,-1.0077 0.59356,-0.58668 1.00771,-1.30449 0.42103,-0.71784 0.64879,-1.53919 0.23474,-0.82827 0.23474,-1.71864 0,-0.94557 -0.28316,-1.80833 -0.27614,-0.86279 -0.81444,-1.63582 0.29685,-0.25544 0.64188,-0.42791 0.34513,-0.17263 0.71784,-0.26245 0.12421,-0.0267 0.25544,-0.0344 0.13123,-0.007 0.24843,-0.0344 0.0965,-0.0267 0.15894,-0.0828 0.0621,-0.0551 0.0621,-0.16562 0,-0.0621 -0.0267,-0.10351 -0.02,-0.0484 -0.0621,-0.0898 -0.20035,-0.19334 -0.45556,-0.34513 -0.25544,-0.15193 -0.53836,-0.25544 -0.28282,-0.10351 -0.57977,-0.15193 -0.29685,-0.0551 -0.57289,-0.0551 -0.4072,0 -0.80065,0.10352 -0.39341,0.0965 -0.7523,0.29684 -1.44947,-0.89728 -3.15428,-0.89728 -0.53146,0 -1.04224,0.1379 -0.51075,0.13123 -0.95939,0.38654 -0.44861,0.25544 -0.82823,0.62808 -0.37271,0.3658 -0.64191,0.82827 h -0.28983 q -0.15861,0 -0.31054,0.0134 -0.15193,0.0134 -0.28983,0.0691 -0.13123,0.0484 -0.24843,0.15193 -0.11721,0.0965 -0.21404,0.26212 h 3.2992 q -0.19333,-0.0134 -0.32423,-0.15861 -0.13122,-0.14491 -0.13122,-0.33818 0,-0.0621 -0.007,-0.13123 0,-0.0758 0,-0.15193 0,-0.13122 0.0134,-0.25544 0.02,-0.12421 0.0691,-0.22105 0.0551,-0.10351 0.15193,-0.16562 0.10352,-0.0621 0.26914,-0.0621 0.20034,0 0.34513,0.14491 0.15192,0.14492 0.15192,0.3451 z m 0.0267,2.48476 q -0.02,-0.13122 -0.0267,-0.26245 -0.007,-0.1379 -0.007,-0.27614 0,-0.11721 0,-0.22773 0.007,-0.11052 0.007,-0.22773 h -3.96873 q 0,0.20703 0.0758,0.38654 0.0758,0.17931 0.20702,0.31755 0.13791,0.13122 0.31755,0.21403 0.17931,0.0758 0.3865,0.0758 z" style="font-style:normal;font-variant:normal;font-weight:normal;font-stretch:normal;font-size:medium;line-height:100%;font-family:'Segoe UI Emoji';-inkscape-font-specification:'Segoe UI Emoji';font-variant-ligatures:normal;font-variant-caps:normal;font-variant-numeric:normal;text-align:start;letter-spacing:0px;word-spacing:0px;writing-mode:lr-tb;text-anchor:start;fill:#afafe9;fill-opacity:1;stroke:none;stroke-width:0.26458335" id="path1019" inkscape:connector-curvature="0"/>
    </g>
    </g></svg>
