<?xml version='1.0' encoding='UTF-8'?>
<!-- Created with Inkscape (http://www.inkscape.org/) and export_objects.py -->
<svg xmlns:cc="http://creativecommons.org/ns#" xmlns:dc="http://purl.org/dc/elements/1.1/" xmlns:inkscape="http://www.inkscape.org/namespaces/inkscape" xmlns:rdf="http://www.w3.org/1999/02/22-rdf-syntax-ns#" xmlns:sodipodi="http://sodipodi.sourceforge.net/DTD/sodipodi-0.dtd" xmlns:xlink="http://www.w3.org/1999/xlink" xmlns="http://www.w3.org/2000/svg" version="1.1" id="svg5174" viewBox="0 0 19.0499992062 19.0499992062" height="19.0499992062mm" width="19.0499992062mm" inkscape:version="0.92.3 (2405546, 2018-03-11)" sodipodi:docname="blue-3.svg"><sodipodi:namedview inkscape:window-maximized="1" inkscape:window-y="-11" inkscape:window-x="-11" inkscape:window-height="986" inkscape:window-width="1920" inkscape:snap-grids="true" inkscape:measure-end="72,552" inkscape:measure-start="72,612" showgrid="true" inkscape:current-layer="layer2" inkscape:document-units="mm" inkscape:cy="654.86991" inkscape:cx="275.14737" inkscape:zoom="1.7613639" inkscape:pageshadow="2" inkscape:pageopacity="0.0" borderopacity="1.0" bordercolor="#666666" pagecolor="#ffffff" id="base">
    <inkscape:grid spacingy="1.5875" spacingx="1.5875" units="pt" id="grid5337" type="xygrid"/>
  </sodipodi:namedview>
  <metadata id="metadata5171">
    <rdf:RDF>
      <cc:Work rdf:about="">
        <dc:format>image/svg+xml</dc:format>
        <dc:type rdf:resource="http://purl.org/dc/dcmitype/StillImage"/>
        <dc:title/>
      </cc:Work>
    </rdf:RDF>
  </metadata>
  <g inkscape:groupmode="layer" inkscape:label="blue-" transform="matrix(1.000000,0.000000,0.000000,1.000000,-25.400000,-150.949996)"><g id="g1194" inkscape:label="3">
      <rect y="150.95" x="25.4" height="19.049999" width="19.049999" id="rect1099" style="opacity:1;fill:#2c2ca0;fill-opacity:1;stroke:none;stroke-width:6.3499999;stroke-linecap:butt;stroke-linejoin:miter;stroke-miterlimit:47.14606857;stroke-dasharray:none;stroke-dashoffset:0;stroke-opacity:1;paint-order:markers fill stroke"/>
      <path d="m 40.906836,163.60333 q 0.4623,0.40019 0.71068,0.93148 0.24834,0.53127 0.24834,1.14534 0,0.38637 -0.12417,0.80037 -0.12417,0.42088 -0.3657,0.76586 -0.23466,0.34497 -0.57957,0.56577 -0.34497,0.22765 -0.77967,0.22765 -0.24167,0 -0.46918,-0.0758 -0.22064,-0.0691 -0.41397,-0.21396 -0.20695,0.31043 -0.53817,0.48296 -0.32411,0.17257 -0.69686,0.17257 h -0.99357 q -0.58647,0 -1.11086,-0.26903 -0.51748,-0.26236 -0.86936,-0.72447 -0.35188,0.46918 -0.87624,0.73138 -0.52439,0.26202 -1.11086,0.26202 -0.17257,0 -0.33806,0 -0.16557,0.007 -0.33113,0.007 -0.22764,0 -0.4416,-0.02 -0.21396,-0.02 -0.41397,-0.0898 -0.19327,-0.0691 -0.37258,-0.19994 -0.17257,-0.13118 -0.32411,-0.35188 -0.19327,0.14486 -0.42088,0.21396 -0.22064,0.0758 -0.46227,0.0758 -0.4347,0 -0.77968,-0.22765 -0.34497,-0.22064 -0.58647,-0.56578 -0.23465,-0.34497 -0.35879,-0.76585 -0.12417,-0.414 -0.12417,-0.80037 0,-0.62786 0.24834,-1.13846 0.24834,-0.51745 0.70377,-0.93836 -0.34498,-0.27605 -0.61408,-0.61405 -0.26904,-0.33809 -0.45539,-0.72446 -0.18626,-0.3864 -0.28273,-0.80728 -0.0965,-0.42778 -0.0965,-0.86245 v -0.12417 q 0,-0.30342 0.11716,-0.57265 0.11716,-0.27605 0.31744,-0.47609 0.19994,-0.20695 0.46917,-0.32411 0.27605,-0.11716 0.57957,-0.11716 0.24166,0 0.49678,0.0898 v -0.11049 q -0.26904,-0.0414 -0.49678,-0.17257 -0.22064,-0.13786 -0.38637,-0.33112 -0.16556,-0.19327 -0.26202,-0.44158 -0.0898,-0.24834 -0.0898,-0.51748 0,-0.31042 0.11716,-0.57956 0.11716,-0.26904 0.31743,-0.46918 0.19995,-0.20695 0.46918,-0.32444 0.26904,-0.11716 0.5796,-0.11716 0.47605,0 0.91763,0.15888 0.44848,0.15855 0.82106,0.46918 v -0.6279 q 0,-0.71755 0.26904,-1.34542 0.27604,-0.63477 0.74516,-1.10395 0.47608,-0.47608 1.10395,-0.74515 0.63477,-0.27605 1.35232,-0.27605 0.71759,0 1.34545,0.27605 0.63478,0.26903 1.10396,0.74515 0.47608,0.46918 0.74515,1.10395 0.27605,0.62787 0.27605,1.34542 v 0.6279 q 0.3657,-0.31043 0.81419,-0.46918 0.44845,-0.15888 0.92453,-0.15888 0.31043,0 0.57957,0.11716 0.26904,0.11716 0.46918,0.32444 0.19994,0.19994 0.31743,0.46918 0.11717,0.26904 0.11717,0.57956 0,0.26904 -0.0965,0.51748 -0.0898,0.24167 -0.25535,0.44158 -0.16556,0.19326 -0.39328,0.33112 -0.22063,0.13118 -0.48987,0.17257 v 0.23466 q 0.25535,-0.0898 0.48987,-0.0898 0.31043,0 0.57957,0.11716 0.26903,0.11716 0.46918,0.32444 0.20695,0.19994 0.32411,0.46918 0.11716,0.26904 0.11716,0.57957 0,0.44157 -0.10348,0.86245 -0.0965,0.42088 -0.28272,0.80728 -0.18625,0.38636 -0.45539,0.73133 -0.26904,0.3381 -0.61408,0.60717 z m -0.89006,3.44985 q 0.20695,0 0.36571,-0.15188 0.15855,-0.15187 0.26202,-0.3657 0.11049,-0.21396 0.16556,-0.45536 0.0621,-0.23466 0.0621,-0.40019 0,-0.35188 -0.13118,-0.66928 -0.13118,-0.31744 -0.37258,-0.55887 -0.17257,-0.17257 -0.35188,-0.26904 -0.17925,-0.10347 -0.37258,-0.15855 -0.19327,-0.0551 -0.39328,-0.0691 -0.19994,-0.02 -0.41397,-0.02 -0.16556,0 -0.33809,0.007 -0.17258,0 -0.35189,0 -0.45539,0 -0.85558,-0.22063 -0.40018,-0.22765 -0.63474,-0.62096 0.63474,0.34498 1.36612,0.34498 h 0.49678 q 0.58647,0 1.10395,-0.22064 0.52439,-0.22765 0.91075,-0.61408 0.3864,-0.3864 0.60717,-0.90387 0.22765,-0.51748 0.22765,-1.11083 0,-0.20695 -0.14487,-0.35189 -0.14486,-0.14486 -0.35188,-0.14486 -0.19994,0 -0.34501,0.15187 -0.14486,0.14487 -0.14486,0.34498 0,0.38636 -0.14487,0.72446 -0.14487,0.33807 -0.40018,0.59338 -0.25536,0.25536 -0.59339,0.40019 -0.33806,0.14486 -0.72446,0.14486 h -0.31043 q -0.17924,0 -0.35188,-0.007 -0.17257,-0.0134 -0.35188,-0.0691 0.414,-0.10347 0.75897,-0.33112 0.34498,-0.22764 0.59339,-0.54508 0.25535,-0.32411 0.39327,-0.71068 0.13786,-0.39327 0.13786,-0.82106 v -1.24194 q 0,-0.15188 0.0551,-0.28973 0.0621,-0.13786 0.16556,-0.23466 0.10348,-0.0965 0.23466,-0.15188 0.13785,-0.0621 0.28973,-0.0621 0.20028,0 0.34497,-0.14487 0.15188,-0.15187 0.15188,-0.35188 0,-0.20028 -0.15188,-0.34498 -0.14486,-0.15187 -0.34497,-0.15187 -0.35879,0 -0.67616,0.13785 -0.31043,0.13786 -0.55196,0.37258 -0.23466,0.23466 -0.37261,0.552 -0.13786,0.31042 -0.13786,0.66925 v 1.24194 q 0,0.31043 -0.11716,0.5796 -0.11716,0.26904 -0.32411,0.47605 -0.19995,0.20028 -0.46918,0.31744 -0.26904,0.11716 -0.57957,0.11716 h -0.48987 v -0.49678 q 0.20695,0 0.38636,-0.0758 0.17958,-0.0828 0.31043,-0.21396 0.13786,-0.13786 0.21396,-0.31744 0.0758,-0.17925 0.0758,-0.3864 v -0.13785 q 0,-0.19327 -0.0134,-0.37258 -0.007,-0.18626 -0.0621,-0.34498 -0.0484,-0.16556 -0.16556,-0.30375 -0.11717,-0.13786 -0.32412,-0.23466 0.27605,-0.33112 0.42088,-0.73828 0.14487,-0.40706 0.14487,-0.84176 v -0.99356 q 0,-0.51057 -0.19994,-0.95905 -0.19327,-0.45536 -0.53127,-0.78655 -0.33112,-0.3381 -0.78658,-0.53127 -0.44845,-0.20027 -0.95905,-0.20027 -0.51057,0 -0.96593,0.20027 -0.44848,0.19327 -0.78658,0.53127 -0.33807,0.33112 -0.53127,0.78655 -0.19326,0.44848 -0.19326,0.95905 0,0.17958 -0.007,0.35188 0,0.16556 0,0.32445 0,0.26203 0.0134,0.50366 0.02,0.24133 0.0758,0.47609 0.0621,0.22764 0.17257,0.45536 0.11717,0.22764 0.31043,0.4623 -0.26236,0.12417 -0.41397,0.36567 -0.15187,0.24166 -0.15187,0.53126 v 0.49678 q 0,0.20696 0.0758,0.3864 0.0758,0.17925 0.20695,0.31744 0.13786,0.13118 0.31744,0.21396 0.17924,0.0758 0.38639,0.0758 v 0.49678 h -0.49678 q -0.30342,0 -0.57956,-0.11716 -0.26904,-0.11716 -0.46918,-0.31743 -0.20028,-0.20695 -0.31744,-0.47606 -0.11716,-0.27604 -0.11716,-0.5796 v -1.24194 q 0,-0.35876 -0.13786,-0.66925 -0.13785,-0.31744 -0.37948,-0.55199 -0.23466,-0.23466 -0.55196,-0.37258 -0.31043,-0.13786 -0.66926,-0.13786 -0.20027,0 -0.35188,0.15188 -0.14487,0.14486 -0.14487,0.34497 0,0.19994 0.14487,0.35189 0.15187,0.14486 0.35188,0.14486 0.15188,0 0.28272,0.0621 0.13786,0.0551 0.24167,0.15187 0.10348,0.0965 0.15855,0.23466 0.0621,0.13785 0.0621,0.28973 v 1.24194 q 0,0.42779 0.13785,0.82106 0.13786,0.3864 0.38637,0.71068 0.25535,0.31744 0.60029,0.54508 0.34497,0.22765 0.75894,0.33113 -0.26202,0.0758 -0.51747,0.0758 h -0.49675 q -0.3864,0 -0.72447,-0.14487 -0.3381,-0.14486 -0.59338,-0.40018 -0.25535,-0.25535 -0.40018,-0.59338 -0.14487,-0.3381 -0.14487,-0.72447 0,-0.12417 -0.0267,-0.23465 -0.02,-0.11049 -0.0828,-0.19327 -0.0551,-0.0898 -0.15188,-0.13786 -0.0898,-0.0551 -0.23465,-0.0551 -0.19995,0 -0.34498,0.15187 -0.14487,0.14487 -0.14487,0.34498 v 0.12417 q 0,0.59335 0.22064,1.11083 0.22765,0.51748 0.61408,0.90387 0.38636,0.38637 0.90384,0.61408 0.51748,0.22064 1.11086,0.22064 h 0.0828 q 0.25536,0 0.47609,-0.007 0.22064,-0.007 0.43467,-0.0344 0.21396,-0.0344 0.42088,-0.10347 0.21396,-0.0758 0.44848,-0.19995 -0.17925,0.28273 -0.38637,0.4554 -0.20695,0.16556 -0.43469,0.25535 -0.22765,0.0898 -0.48297,0.11716 -0.24834,0.0267 -0.52439,0.0267 -0.18625,0 -0.37948,-0.007 -0.19327,-0.007 -0.40019,-0.007 -0.0344,0 -0.0691,0.007 -0.0344,0.007 -0.0691,0.0134 -0.32411,0.0621 -0.59335,0.21396 -0.26903,0.15188 -0.46918,0.37258 -0.19326,0.22064 -0.30375,0.51057 -0.11048,0.28272 -0.11048,0.62099 0,0.16556 0.0551,0.40018 0.0621,0.24166 0.17257,0.45536 0.11049,0.21396 0.26904,0.3657 0.15855,0.15188 0.3657,0.15188 0.20696,0 0.35189,-0.14487 0.14486,-0.14486 0.14486,-0.35188 0,-0.13786 -0.0621,-0.22765 -0.0551,-0.0898 -0.12417,-0.17257 -0.0621,-0.0828 -0.12417,-0.19327 -0.0551,-0.10347 -0.0551,-0.28272 0,-0.15187 0.0551,-0.28305 0.0621,-0.13786 0.16556,-0.24167 0.10347,-0.10348 0.23465,-0.15855 0.13786,-0.0621 0.28974,-0.0621 0.17257,0 0.33112,0.007 0.15855,0 0.31743,0 0.28273,0 0.54505,-0.0134 0.26904,-0.02 0.51748,-0.0828 0.25535,-0.0691 0.50369,-0.19327 0.25536,-0.12417 0.51057,-0.3381 v 1.61452 q 0,0.19995 -0.15187,0.34501 -0.14487,0.15188 -0.34498,0.15188 h -0.98665 q -0.19994,0 -0.35189,0.14486 -0.14486,0.14487 -0.14486,0.34498 0,0.20695 0.14486,0.35188 0.14487,0.14487 0.35189,0.14487 h 0.98665 q 0.29675,0 0.56578,-0.11716 0.27605,-0.11049 0.47609,-0.31043 0.20695,-0.19327 0.32411,-0.46227 0.12417,-0.26904 0.12417,-0.57269 v -1.51101 q 0,-0.20695 0.14487,-0.35188 0.14487,-0.14487 0.35188,-0.14487 0.20695,0 0.35189,0.14487 0.14486,0.14486 0.14486,0.35188 v 1.51101 q 0,0.30342 0.11716,0.56578 0.12417,0.26904 0.32412,0.46918 0.19994,0.19994 0.46918,0.31043 0.26903,0.11716 0.57268,0.11716 h 0.99357 q 0.20695,0 0.35188,-0.14487 0.14487,-0.14486 0.14487,-0.35188 0,-0.19994 -0.15188,-0.34498 -0.14486,-0.14486 -0.34497,-0.14486 h -0.99357 q -0.19994,0 -0.34497,-0.15188 -0.14487,-0.14486 -0.14487,-0.34501 v -1.62143 q 0.25535,0.21396 0.50366,0.34501 0.25535,0.12417 0.50369,0.19327 0.25536,0.0621 0.51748,0.0828 0.26904,0.0134 0.55887,0.0134 0.15855,0 0.31043,0 0.15855,-0.007 0.33112,-0.007 0.15188,0 0.28272,0.0621 0.13786,0.0551 0.24167,0.15855 0.10347,0.10348 0.15855,0.24167 0.0621,0.13118 0.0621,0.28305 0,0.17925 -0.0621,0.28272 -0.0551,0.11049 -0.12417,0.19327 -0.0621,0.0828 -0.12417,0.17257 -0.0551,0.0898 -0.0551,0.22765 0,0.20695 0.14487,0.35188 0.14486,0.14487 0.35188,0.14487 z m -6.58228,-8.07261 q 0.19994,0 0.34497,0.15188 0.15188,0.14487 0.15188,0.34497 v 0.49679 q 0,0.20695 -0.14487,0.35188 -0.14486,0.14487 -0.35188,0.14487 -0.20028,0 -0.35189,-0.14487 -0.14486,-0.15187 -0.14486,-0.35188 v -0.49679 q 0,-0.19994 0.14486,-0.34497 0.15188,-0.15188 0.35189,-0.15188 z m 3.47054,0.99354 q 0,0.20027 -0.14487,0.35188 -0.14487,0.14487 -0.34497,0.14487 -0.20695,0 -0.35189,-0.14487 -0.14486,-0.14486 -0.14486,-0.35188 v -0.49679 q 0,-0.19994 0.14486,-0.34497 0.15188,-0.15188 0.35189,-0.15188 0.19994,0 0.34497,0.15188 0.14487,0.14487 0.14487,0.34497 z m -1.48344,-5.45073 q 0.20027,0 0.34497,0.14486 0.15188,0.14487 0.15188,0.34498 0,0.20695 -0.14487,0.35188 -0.14487,0.14487 -0.35188,0.14487 -0.20695,0 -0.35189,-0.14487 -0.14486,-0.14486 -0.14486,-0.35188 0,-0.19994 0.14486,-0.34498 0.15188,-0.14486 0.35189,-0.14486 z m -1.24194,1.98019 q 0.10347,0 0.17257,0.0758 0.0758,0.0691 0.0758,0.17257 0,0.10347 -0.0758,0.17925 -0.0691,0.0691 -0.17257,0.0691 -0.10348,0 -0.17925,-0.0691 -0.0691,-0.0758 -0.0691,-0.17925 0,-0.10348 0.0691,-0.17257 0.0758,-0.0758 0.17925,-0.0758 z m -0.49679,-1.49032 q 0.10348,0 0.17257,0.0758 0.0758,0.0691 0.0758,0.17257 0,0.10348 -0.0758,0.17958 -0.0691,0.0691 -0.17257,0.0691 -0.10347,0 -0.17924,-0.0691 -0.0691,-0.0758 -0.0691,-0.17958 0,-0.10347 0.0691,-0.17257 0.0758,-0.0758 0.17924,-0.0758 z m 2.48388,1.49032 q -0.10347,0 -0.17924,-0.0691 -0.0691,-0.0758 -0.0691,-0.17924 0,-0.10348 0.0691,-0.17257 0.0758,-0.0758 0.17924,-0.0758 0.0965,0 0.17258,0.0758 0.0758,0.0758 0.0758,0.17257 0,0.0965 -0.0758,0.17257 -0.0758,0.0758 -0.17258,0.0758 z" style="font-style:normal;font-variant:normal;font-weight:normal;font-stretch:normal;font-size:medium;line-height:100%;font-family:'Segoe UI Emoji';-inkscape-font-specification:'Segoe UI Emoji';font-variant-ligatures:normal;font-variant-caps:normal;font-variant-numeric:normal;text-align:start;letter-spacing:0px;word-spacing:0px;writing-mode:lr-tb;text-anchor:start;fill:#afafe9;fill-opacity:1;stroke:none;stroke-width:0.26458332" id="path1021" inkscape:connector-curvature="0"/>
      <text id="text997" y="160.47499" x="34.924995" style="font-style:normal;font-variant:normal;font-weight:normal;font-stretch:normal;font-size:4.23333311px;line-height:100%;font-family:'Segoe UI Emoji';-inkscape-font-specification:'Segoe UI Emoji';font-variant-ligatures:normal;font-variant-caps:normal;font-variant-numeric:normal;text-align:start;letter-spacing:0px;word-spacing:0px;writing-mode:lr-tb;text-anchor:start;fill:#000000;fill-opacity:1;stroke:none;stroke-width:0.26458332" xml:space="preserve"><tspan style="stroke-width:0.26458332" y="160.47499" x="34.924995" id="tspan995" sodipodi:role="line"> </tspan></text>
    </g>
    </g></svg>
