<?xml version='1.0' encoding='UTF-8'?>
<!-- Created with Inkscape (http://www.inkscape.org/) and export_objects.py -->
<svg xmlns:cc="http://creativecommons.org/ns#" xmlns:dc="http://purl.org/dc/elements/1.1/" xmlns:inkscape="http://www.inkscape.org/namespaces/inkscape" xmlns:rdf="http://www.w3.org/1999/02/22-rdf-syntax-ns#" xmlns:sodipodi="http://sodipodi.sourceforge.net/DTD/sodipodi-0.dtd" xmlns:xlink="http://www.w3.org/1999/xlink" xmlns="http://www.w3.org/2000/svg" version="1.1" id="svg5174" viewBox="0 0 19.0499992062 19.0499992062" height="19.0499992062mm" width="19.0499992062mm" inkscape:version="0.92.3 (2405546, 2018-03-11)" sodipodi:docname="green-1.svg"><sodipodi:namedview inkscape:window-maximized="1" inkscape:window-y="-11" inkscape:window-x="-11" inkscape:window-height="986" inkscape:window-width="1920" inkscape:snap-grids="true" inkscape:measure-end="72,552" inkscape:measure-start="72,612" showgrid="true" inkscape:current-layer="layer2" inkscape:document-units="mm" inkscape:cy="654.86991" inkscape:cx="275.14737" inkscape:zoom="1.7613639" inkscape:pageshadow="2" inkscape:pageopacity="0.0" borderopacity="1.0" bordercolor="#666666" pagecolor="#ffffff" id="base">
    <inkscape:grid spacingy="1.5875" spacingx="1.5875" units="pt" id="grid5337" type="xygrid"/>
  </sodipodi:namedview>
  <metadata id="metadata5171">
    <rdf:RDF>
      <cc:Work rdf:about="">
        <dc:format>image/svg+xml</dc:format>
        <dc:type rdf:resource="http://purl.org/dc/dcmitype/StillImage"/>
        <dc:title/>
      </cc:Work>
    </rdf:RDF>
  </metadata>
  <g inkscape:groupmode="layer" inkscape:label="green-" transform="matrix(1.000000,0.000000,0.000000,1.000000,-76.199997,-125.550004)"><g id="g1177" inkscape:label="1">
      <rect style="opacity:1;fill:#aad400;fill-opacity:1;stroke:none;stroke-width:6.3499999;stroke-linecap:butt;stroke-linejoin:miter;stroke-miterlimit:47.14606857;stroke-dasharray:none;stroke-dashoffset:0;stroke-opacity:1;paint-order:markers fill stroke" id="rect1103" width="19.049999" height="19.049999" x="76.199997" y="125.55"/>
      <path d="m 92.710985,137.13913 q 0.19334,0.17931 0.36581,0.35202 0.17264,0.17263 0.30353,0.3658 0.13123,0.19334 0.20703,0.42108 0.0758,0.22773 0.0758,0.51764 v 2.23636 h -3.47186 v -0.46936 q -0.31755,0.15861 -0.6281,0.24844 -0.30353,0.0965 -0.6074,0.14492 -0.29685,0.0551 -0.60049,0.0691 -0.30386,0.0134 -0.62122,0.0134 -0.22072,0 -0.44174,-0.007 -0.22072,0 -0.45557,0 l -0.99391,1.98098 h -3.09226 q 0,-0.16563 -0.007,-0.33125 0,-0.16563 0,-0.33125 0,-0.26914 0.02,-0.51768 0.0267,-0.24843 0.0965,-0.47627 0.0758,-0.22773 0.20703,-0.43483 0.13791,-0.20001 0.35893,-0.38654 h -3.65822 q -0.40725,0 -0.76618,-0.15861 -0.3589,-0.15861 -0.6281,-0.42795 -0.26914,-0.27616 -0.42796,-0.63502 -0.15861,-0.3589 -0.15861,-0.76614 v -0.40725 l 0.76615,-0.76615 q -0.3589,-0.22072 -0.56596,-0.54529 -0.20035,-0.33125 -0.20035,-0.76614 0,-0.0551 0.007,-0.11721 0.0134,-0.0621 0.0134,-0.1172 0,-0.0621 -0.0134,-0.12422 -0.007,-0.0691 -0.007,-0.13123 0,-0.31055 0.1172,-0.57979 0.11721,-0.26914 0.31756,-0.46935 0.20002,-0.20036 0.46936,-0.31756 0.26914,-0.11721 0.57978,-0.11721 0.36581,0 0.66951,0.15861 0.31054,0.15194 0.5315,0.44178 0.28316,0.0898 0.55217,0.26213 -0.53838,-0.52456 -0.95942,-1.13887 -0.41413,-0.62122 -0.70404,-1.30452 -0.28316,-0.68333 -0.43483,-1.40807 -0.14492,-0.73165 -0.14492,-1.48401 v -2.47791 h 0.98704 q 0.02,0 0.0828,0.02 0.0621,0.0134 0.13123,0.0414 0.0758,0.0267 0.13791,0.0551 0.0691,0.02 0.0898,0.0267 0.51768,0.20703 0.85587,0.5522 0.34514,0.33819 0.57982,0.76614 0.23474,0.42104 0.40033,0.89731 0.17264,0.46936 0.34511,0.93872 0.13791,0.37272 0.36581,0.68333 0.23474,0.30353 0.53838,0.52455 0.30386,0.21405 0.66954,0.33823 0.36581,0.11721 0.76614,0.11721 h 3.47187 q 0.61431,0 1.18718,0.15861 0.57291,0.15861 1.06297,0.45556 0.49697,0.28985 0.90422,0.69713 0.40721,0.40725 0.69712,0.90419 0.29685,0.49009 0.45553,1.06296 0.15895,0.57291 0.15895,1.18722 0,0.13123 -0.007,0.25545 -0.007,0.12422 -0.02,0.25545 z m -0.0414,2.89895 v -1.24241 q 0,-0.13791 -0.0551,-0.27615 -0.0551,-0.14492 -0.15193,-0.24143 l -0.89728,-0.84899 q 0.11053,-0.41416 0.11053,-0.86278 0,-0.69715 -0.26213,-1.31835 -0.26246,-0.62122 -0.71782,-1.09058 -0.45557,-0.46935 -1.06988,-0.75235 -0.61428,-0.28316 -1.31144,-0.30387 0.39346,0.02 0.73165,0.18633 0.34511,0.15895 0.60052,0.42795 0.25545,0.26914 0.40031,0.62123 0.14492,0.3451 0.14492,0.73852 v 1.49092 q 0,0.40722 -0.15861,0.76615 -0.15862,0.35893 -0.43483,0.6281 -0.26914,0.26914 -0.63502,0.42795 -0.35893,0.15861 -0.75926,0.15861 h -3.47187 q -0.20703,0 -0.38651,-0.0758 -0.17931,-0.0758 -0.31756,-0.20703 -0.13123,-0.13791 -0.21404,-0.31755 -0.0758,-0.17965 -0.0758,-0.38655 v -0.49697 h -1.33214 l -1.90504,-1.27003 q -0.17931,-0.11721 -0.35202,-0.16563 -0.16562,-0.0484 -0.3796,-0.0484 0,-0.21405 -0.14492,-0.35893 -0.14492,-0.14493 -0.3451,-0.14493 -0.20703,0 -0.35202,0.14493 -0.14492,0.14492 -0.14492,0.35201 0,0.12422 0.0414,0.21405 0.0484,0.0828 0.11721,0.15193 0.0758,0.0621 0.15861,0.11721 0.0898,0.0484 0.17965,0.11052 l 2.47792,1.65654 v 0.22774 q 0,0.20703 -0.14493,0.35201 -0.14492,0.14493 -0.35201,0.14493 h -2.47792 q 0,0.20703 0.0758,0.38654 0.0758,0.17932 0.20703,0.31756 0.13791,0.13123 0.31756,0.21404 0.17931,0.0758 0.38654,0.0758 h 4.13446 l 0.82829,0.49694 v 0.99394 q -0.20703,0 -0.38651,0.0758 -0.17932,0.0758 -0.31756,0.20703 -0.13123,0.13791 -0.20703,0.31756 -0.0758,0.17932 -0.0758,0.38651 h 1.484 l 0.99391,-1.98097 h 1.98098 q 0.39343,0 0.76615,-0.0828 0.37963,-0.0898 0.72474,-0.24843 0.34513,-0.16563 0.64883,-0.40034 0.30354,-0.24176 0.55217,-0.54529 l 0.57982,0.57291 q -0.13824,0.13791 -0.21404,0.32423 -0.0758,0.17932 -0.0758,0.3796 z m -12.90041,-10.42246 q 0,0.8904 0.22773,1.71868 0.23474,0.82138 0.65572,1.53921 0.42103,0.71782 1.00773,1.30452 0.5867,0.5867 1.30452,1.00774 0.71786,0.42103 1.53924,0.65571 0.82825,0.22774 1.71865,0.22774 h 1.98098 q 0.20002,0 0.33822,0.13123 0.14493,0.12421 0.15862,0.32423 v -0.9525 q 0,-0.20703 -0.0828,-0.38655 -0.0758,-0.17931 -0.21404,-0.31054 -0.13123,-0.13791 -0.31054,-0.21405 -0.17932,-0.0828 -0.38655,-0.0828 h -2.26394 q -0.55908,0 -1.06988,-0.16562 -0.51076,-0.16563 -0.93871,-0.46936 -0.42104,-0.30353 -0.74544,-0.73162 -0.32424,-0.42795 -0.51768,-0.95254 -0.0484,-0.13123 -0.0898,-0.26246 -0.0414,-0.1379 -0.10352,-0.26212 -0.0484,-0.0965 -0.1172,-0.17965 -0.0691,-0.0898 -0.12422,-0.18633 -0.0898,-0.13791 -0.15861,-0.28984 -0.0621,-0.15193 -0.11721,-0.31055 -0.11721,-0.31054 -0.26246,-0.72473 -0.13791,-0.42104 -0.33823,-0.8145 -0.19334,-0.40034 -0.46244,-0.70404 -0.26246,-0.31054 -0.6281,-0.39342 z m 6.45362,3.47877 h -0.49694 v 0.987 q 0,0.10352 0.0691,0.17965 0.0758,0.0691 0.17931,0.0691 0.10352,0 0.17264,-0.0691 0.0758,-0.0758 0.0758,-0.17965 z m 0.99395,0 h -0.49697 v 0.987 q 0,0.10352 0.0691,0.17965 0.0758,0.0691 0.17965,0.0691 0.10351,0 0.17263,-0.0691 0.0758,-0.0758 0.0758,-0.17965 z m 0.49006,0 v 0.987 q 0,0.0965 0.0758,0.17264 0.0758,0.0758 0.17263,0.0758 0.10352,0 0.17264,-0.0691 0.0758,-0.0758 0.0758,-0.17965 v -0.987 z m -0.98703,3.9688 v 0.73857 q 0,0.10351 0.0691,0.17931 0.0758,0.0691 0.17965,0.0691 0.10351,0 0.17263,-0.0691 0.0758,-0.0758 0.0758,-0.17931 v -0.73857 z m -1.98786,0 v 0.73857 q 0,0.10351 0.0691,0.17931 0.0758,0.0691 0.17932,0.0691 0.10351,0 0.17263,-0.0691 0.0758,-0.0758 0.0758,-0.17931 v -0.73857 z m 0.99394,0 v 0.73857 q 0,0.10351 0.0691,0.17931 0.0758,0.0691 0.17931,0.0691 0.10352,0 0.17264,-0.0691 0.0758,-0.0758 0.0758,-0.17931 v -0.73857 z m 1.98095,0 v 0.73857 q 0,0.0965 0.0758,0.17263 0.0758,0.0758 0.17263,0.0758 0.10352,0 0.17264,-0.0691 0.0758,-0.0758 0.0758,-0.17931 v -0.73857 z m -4.70736,0.49006 q 0.0965,0 0.17263,0.0758 0.0758,0.0758 0.0758,0.17264 v 0.49697 q 0,0.10352 -0.0758,0.17932 -0.0691,0.0691 -0.17263,0.0691 -0.10352,0 -0.17932,-0.0691 -0.0691,-0.0758 -0.0691,-0.17932 v -0.49697 q 0,-0.0965 0.0758,-0.17264 0.0758,-0.0758 0.17264,-0.0758 z m 2.22944,-4.45886 h -0.49697 v 0.49006 q 0,0.10352 0.0691,0.17932 0.0758,0.0691 0.17932,0.0691 0.10351,0 0.17263,-0.0691 0.0758,-0.0758 0.0758,-0.17932 z m 4.21731,2.47792 q 0.10351,0 0.17263,-0.0691 0.0758,-0.0758 0.0758,-0.17965 0,-0.10351 -0.0758,-0.17264 -0.0691,-0.0758 -0.17263,-0.0758 -0.10352,0 -0.17932,0.0758 -0.0691,0.0691 -0.0691,0.17264 0,0.10352 0.0691,0.17965 0.0758,0.0691 0.17932,0.0691 z m 0.24843,0.74544 q 0,-0.10351 -0.0758,-0.17263 -0.0691,-0.0758 -0.17263,-0.0758 -0.10352,0 -0.17932,0.0758 -0.0691,0.0691 -0.0691,0.17263 0,0.10352 0.0691,0.17932 0.0758,0.0691 0.17932,0.0691 0.10351,0 0.17263,-0.0691 0.0758,-0.0758 0.0758,-0.17932 z m -0.74544,-1.73938 q 0.10351,0 0.17264,-0.0691 0.0758,-0.0758 0.0758,-0.17931 0,-0.10352 -0.0758,-0.17264 -0.0691,-0.0758 -0.17264,-0.0758 -0.10352,0 -0.17932,0.0758 -0.0691,0.0691 -0.0691,0.17264 0,0.10351 0.0691,0.17931 0.0758,0.0691 0.17932,0.0691 z m 0,2.48482 q -0.0965,0 -0.17264,0.0758 -0.0758,0.0691 -0.0758,0.16563 0,0.10351 0.0691,0.17931 0.0758,0.0691 0.17932,0.0691 0.10351,0 0.17264,-0.0691 0.0758,-0.0758 0.0758,-0.17931 0,-0.0965 -0.0758,-0.16563 -0.0758,-0.0758 -0.17264,-0.0758 z" style="font-style:normal;font-variant:normal;font-weight:normal;font-stretch:normal;font-size:medium;line-height:100%;font-family:'Segoe UI Emoji';-inkscape-font-specification:'Segoe UI Emoji';font-variant-ligatures:normal;font-variant-caps:normal;font-variant-numeric:normal;text-align:start;letter-spacing:0px;word-spacing:0px;writing-mode:lr-tb;text-anchor:start;fill:#dde9af;fill-opacity:1;stroke:none;stroke-width:0.26458335" id="path1011" inkscape:connector-curvature="0"/>
    </g>
    </g></svg>
