<?xml version='1.0' encoding='UTF-8'?>
<!-- Created with Inkscape (http://www.inkscape.org/) and export_objects.py -->
<svg xmlns:cc="http://creativecommons.org/ns#" xmlns:dc="http://purl.org/dc/elements/1.1/" xmlns:inkscape="http://www.inkscape.org/namespaces/inkscape" xmlns:rdf="http://www.w3.org/1999/02/22-rdf-syntax-ns#" xmlns:sodipodi="http://sodipodi.sourceforge.net/DTD/sodipodi-0.dtd" xmlns:xlink="http://www.w3.org/1999/xlink" xmlns="http://www.w3.org/2000/svg" version="1.1" id="svg5174" viewBox="0 0 19.0499992062 19.0499992062" height="19.0499992062mm" width="19.0499992062mm" inkscape:version="0.92.3 (2405546, 2018-03-11)" sodipodi:docname="green-3.svg"><sodipodi:namedview inkscape:window-maximized="1" inkscape:window-y="-11" inkscape:window-x="-11" inkscape:window-height="986" inkscape:window-width="1920" inkscape:snap-grids="true" inkscape:measure-end="72,552" inkscape:measure-start="72,612" showgrid="true" inkscape:current-layer="layer2" inkscape:document-units="mm" inkscape:cy="654.86991" inkscape:cx="275.14737" inkscape:zoom="1.7613639" inkscape:pageshadow="2" inkscape:pageopacity="0.0" borderopacity="1.0" bordercolor="#666666" pagecolor="#ffffff" id="base">
    <inkscape:grid spacingy="1.5875" spacingx="1.5875" units="pt" id="grid5337" type="xygrid"/>
  </sodipodi:namedview>
  <metadata id="metadata5171">
    <rdf:RDF>
      <cc:Work rdf:about="">
        <dc:format>image/svg+xml</dc:format>
        <dc:type rdf:resource="http://purl.org/dc/dcmitype/StillImage"/>
        <dc:title/>
      </cc:Work>
    </rdf:RDF>
  </metadata>
  <g inkscape:groupmode="layer" inkscape:label="green-" transform="matrix(1.000000,0.000000,0.000000,1.000000,-50.799995,-125.550004)"><g id="g1172" inkscape:label="3">
      <rect y="125.55" x="50.799995" height="19.049999" width="19.049999" id="rect1097" style="opacity:1;fill:#aad400;fill-opacity:1;stroke:none;stroke-width:6.3499999;stroke-linecap:butt;stroke-linejoin:miter;stroke-miterlimit:47.14606857;stroke-dasharray:none;stroke-dashoffset:0;stroke-opacity:1;paint-order:markers fill stroke"/>
      <path d="m 59.26522,130.3106 h 3.17358 q 0.87624,0 1.68618,0.22834 0.80997,0.22834 1.51686,0.64063 0.70689,0.41233 1.28856,0.99404 0.58171,0.58171 0.99408,1.2886 0.41232,0.70685 0.64059,1.51683 0.22834,0.80997 0.22834,1.68621 0,0.87623 -0.22834,1.68618 -0.22834,0.80997 -0.64059,1.51686 -0.41237,0.69951 -0.99408,1.28119 -0.58167,0.58171 -1.28856,0.99407 -0.70689,0.41233 -1.51686,0.6406 -0.80994,0.22833 -1.68618,0.22833 h -3.17358 q -0.83207,0 -1.58312,-0.3092 -0.74369,-0.3092 -1.31803,-0.84677 -0.56699,-0.5375 -0.92044,-1.26648 -0.35337,-0.7216 -0.40495,-1.55366 -0.16956,0.14 -0.3829,0.20625 -0.20626,0.0663 -0.41971,0.0663 -0.2725,0 -0.51545,-0.10295 -0.23546,-0.10295 -0.4197,-0.27963 -0.17669,-0.18417 -0.27999,-0.4197 -0.10295,-0.24295 -0.10295,-0.51542 0,-0.16208 0.0285,-0.28712 -0.23546,-0.0442 -0.43441,-0.16208 -0.19877,-0.11791 -0.34625,-0.28711 -0.14712,-0.17669 -0.22834,-0.39024 -0.0809,-0.22086 -0.0809,-0.46391 0,-0.24294 0.0809,-0.45654 0.0809,-0.22085 0.22834,-0.39024 0.14712,-0.17668 0.34625,-0.29459 0.19877,-0.11791 0.43441,-0.16208 -0.0285,-0.12504 -0.0285,-0.28712 0,-0.2579 0.0883,-0.48599 0.0958,-0.23547 0.2579,-0.41233 0.16208,-0.17669 0.38287,-0.28711 0.22834,-0.11043 0.48599,-0.13252 -0.11043,-0.37553 -0.13999,-0.75106 -0.0285,-0.37553 -0.0285,-0.75839 0,-0.18417 0,-0.36082 0.007,-0.18417 0.007,-0.36816 l -2.11325,-0.70688 v -1.29594 q 0,-0.43445 0.16208,-0.81732 0.16921,-0.39027 0.45654,-0.67742 0.28711,-0.28712 0.67005,-0.44916 0.39028,-0.16957 0.82469,-0.16957 h 2.12066 q 0.65531,0 1.22964,0.25043 0.58171,0.25042 1.00879,0.6848 0.43445,0.42707 0.6848,1.00879 0.25042,0.57433 0.25042,1.22964 z m 4.23388,1.16343 v 1.4874 q 0,0.21338 -0.16209,0.36816 -0.1546,0.1546 -0.36815,0.1546 -0.21373,0 -0.37553,-0.1546 -0.1546,-0.1546 -0.1546,-0.36816 v -1.5905 h -1.05296 v 1.5905 q 0,0.21338 -0.16208,0.36816 -0.1546,0.1546 -0.36815,0.1546 -0.21338,0 -0.37553,-0.1546 -0.1546,-0.1546 -0.1546,-0.36816 v -1.5905 h -1.0603 v 1.5905 q 0,0.21338 -0.16208,0.36816 -0.1546,0.1546 -0.36816,0.1546 -0.21373,0 -0.37552,-0.1546 -0.15461,-0.1546 -0.15461,-0.36816 v -2.76125 q 0,-0.39762 -0.17668,-0.75844 -0.17669,-0.36815 -0.46387,-0.64059 -0.28712,-0.27964 -0.66272,-0.44182 -0.36815,-0.16208 -0.75843,-0.16208 h -2.17217 q -0.22086,0 -0.41233,0.0809 -0.19165,0.0809 -0.33877,0.22834 -0.13999,0.13999 -0.22085,0.33128 -0.0809,0.19165 -0.0809,0.41237 v 0.53016 l 2.11329,0.70685 q 0.2946,0.10295 0.6038,0.22086 0.31668,0.11791 0.59642,0.28711 0.28711,0.16921 0.50808,0.40499 0.22086,0.22834 0.33129,0.55225 0.0367,0.0958 0.0588,0.20626 0.0214,0.10295 0.0214,0.20625 v 2.17954 l -1.4064,1.39903 q -0.14712,-0.13999 -0.31669,-0.31668 -0.16208,-0.17669 -0.33128,-0.35337 -0.16921,-0.17669 -0.33877,-0.33877 -0.16921,-0.16208 -0.31668,-0.28712 -0.0516,-0.0367 -0.10295,-0.0662 -0.0442,-0.0285 -0.11043,-0.0285 -0.10295,0 -0.18416,0.0809 -0.0737,0.0809 -0.0737,0.18417 0,0.10295 0.0809,0.18417 l 1.13396,1.13396 h -2.00282 q -0.10295,0 -0.18417,0.0809 -0.0809,0.0809 -0.0809,0.18417 0,0.10294 0.0809,0.18416 0.0809,0.0809 0.18417,0.0809 h 2.00282 l -1.13396,1.13392 q -0.0737,0.0663 -0.0737,0.17669 0,0.11791 0.0737,0.19129 0.0367,0.0367 0.0883,0.0588 0.0516,0.0214 0.11043,0.0214 0.0809,0 0.14,-0.0442 0.0442,-0.0367 0.16208,-0.14712 0.11791,-0.11791 0.27251,-0.27251 0.1546,-0.1546 0.3238,-0.33129 0.17669,-0.17668 0.33129,-0.33128 0.16208,-0.16209 0.27999,-0.28 0.12503,-0.12503 0.17669,-0.17668 h 0.68476 q 0.11043,0 0.19165,-0.0367 0.0809,-0.0442 0.16208,-0.11043 0.12503,-0.10295 0.24294,-0.22086 0.11791,-0.12503 0.23547,-0.24294 l 1.03087,-0.97933 h 1.98807 q -0.13999,0.22834 -0.13999,0.51542 0,0.22086 0.0809,0.41974 0.0809,0.19877 0.22086,0.34589 0.13999,0.13999 0.33128,0.22834 0.1913,0.0809 0.41971,0.0809 h 1.84818 q 0.11791,0 0.19129,0.0737 0.0737,0.0737 0.0737,0.19129 0,0.10295 -0.0809,0.18416 -0.0809,0.0809 -0.18417,0.0809 h -3.70375 q -0.10294,0 -0.18416,0.0737 -0.0809,0.0737 -0.0809,0.18417 0,0.11791 0.0737,0.19129 0.0737,0.0737 0.19129,0.0737 h 2.0102 l -1.66413,1.6715 q -0.0809,0.0809 -0.0809,0.17669 0,0.10295 0.0809,0.19129 0.0883,0.0809 0.19165,0.0809 0.0958,0 0.17669,-0.0809 l 1.67146,-1.66413 q 0,0.37553 0,0.75106 0.007,0.36819 0.007,0.74372 0,0.11043 0.0737,0.17669 0.0737,0.0662 0.17668,0.0662 0.11043,0 0.18417,-0.0662 0.0809,-0.0737 0.0809,-0.19165 v -1.85573 q 0.19129,0 0.3829,0.007 0.1913,0.007 0.38287,0.007 0.11043,0 0.22086,0 0.11791,-0.007 0.22834,-0.0214 0.19164,-0.0285 0.35337,-0.12503 0.16921,-0.0958 0.28711,-0.22834 0.12504,-0.13999 0.1913,-0.31668 0.0737,-0.17669 0.0737,-0.37553 0,-0.27251 -0.12503,-0.50808 -0.13251,-0.2579 -0.39024,-0.40499 -0.25791,-0.14712 -0.54491,-0.14712 h -1.0603 l 1.24439,-1.23705 q 0.19877,0.0958 0.3829,0.22086 0.18417,0.11791 0.35338,0.26503 0.57433,0.5007 0.88357,1.17813 0.31668,0.67005 0.31668,1.42849 0,0.70685 -0.27999,1.33273 -0.27963,0.62588 -0.75843,1.09716 -0.47125,0.46388 -1.1045,0.73632 -0.63322,0.27251 -1.33274,0.27251 h -3.46077 q -0.4197,0 -0.79523,-0.17669 -0.37553,-0.17669 -0.66271,-0.47125 -0.28712,-0.29459 -0.45654,-0.67742 -0.1692,-0.38287 -0.1692,-0.79523 0,-0.0663 0.007,-0.13252 0.0142,-0.0663 0.0142,-0.13251 0,-0.11043 -0.0809,-0.18417 -0.0737,-0.0809 -0.18417,-0.0809 -0.0883,0 -0.14712,0.0442 -0.0516,0.0367 -0.0809,0.0958 -0.0214,0.0588 -0.0285,0.14 -0.007,0.0737 -0.007,0.13999 0,0.67743 0.23546,1.27389 0.23582,0.59642 0.65534,1.04558 0.42708,0.44916 1.00879,0.70689 0.58167,0.25755 1.27385,0.25755 h 3.37976 q 0.67006,0 1.30331,-0.19877 0.6406,-0.1913 1.20756,-0.54488 0.567,-0.34589 1.03824,-0.83207 0.47125,-0.47862 0.80995,-1.04558 0.34624,-0.57434 0.53753,-1.21493 0.1913,-0.64063 0.1913,-1.30331 0,-0.96461 -0.30208,-1.84822 -0.2946,-0.89095 -0.84678,-1.59784 -0.55225,-0.71422 -1.33276,-1.20755 -0.78049,-0.50071 -1.75247,-0.6848 z m -6.87733,0.94986 q 0,-0.17668 -0.0737,-0.35337 -0.0737,-0.17669 -0.19877,-0.33129 -0.11791,-0.1546 -0.27251,-0.27251 -0.1546,-0.11791 -0.31669,-0.17668 l -0.72897,-0.24295 v 1.38432 q 0,0.33876 0.0883,0.66268 0.0884,0.3238 0.24295,0.61854 0.16208,0.28712 0.39024,0.5375 0.23546,0.24295 0.52279,0.41971 l 0.34589,-0.3459 z m -1.0603,-3.69637 q 0.21338,0 0.36816,0.1546 0.16208,0.1546 0.16208,0.36815 v 0.53017 q 0,0.22086 -0.1546,0.37553 -0.1546,0.1546 -0.37553,0.1546 -0.22086,0 -0.37553,-0.1546 -0.1546,-0.1546 -0.1546,-0.37553 v -0.53017 q 0,-0.21337 0.1546,-0.36815 0.16208,-0.1546 0.37553,-0.1546 z" style="font-style:normal;font-variant:normal;font-weight:normal;font-stretch:normal;font-size:medium;line-height:100%;font-family:'Segoe UI Emoji';-inkscape-font-specification:'Segoe UI Emoji';font-variant-ligatures:normal;font-variant-caps:normal;font-variant-numeric:normal;text-align:start;letter-spacing:0px;word-spacing:0px;writing-mode:lr-tb;text-anchor:start;fill:#dde9af;fill-opacity:1;stroke:none;stroke-width:0.26458332" id="path1015" inkscape:connector-curvature="0"/>
    </g>
    </g></svg>
