<?xml version='1.0' encoding='UTF-8'?>
<!-- Created with Inkscape (http://www.inkscape.org/) and export_objects.py -->
<svg xmlns:cc="http://creativecommons.org/ns#" xmlns:dc="http://purl.org/dc/elements/1.1/" xmlns:inkscape="http://www.inkscape.org/namespaces/inkscape" xmlns:rdf="http://www.w3.org/1999/02/22-rdf-syntax-ns#" xmlns:sodipodi="http://sodipodi.sourceforge.net/DTD/sodipodi-0.dtd" xmlns:xlink="http://www.w3.org/1999/xlink" xmlns="http://www.w3.org/2000/svg" version="1.1" id="svg5174" viewBox="0 0 19.0499992062 19.0499992062" height="19.0499992062mm" width="19.0499992062mm" inkscape:version="0.92.3 (2405546, 2018-03-11)" sodipodi:docname="red-2.svg"><sodipodi:namedview inkscape:window-maximized="1" inkscape:window-y="-11" inkscape:window-x="-11" inkscape:window-height="986" inkscape:window-width="1920" inkscape:snap-grids="true" inkscape:measure-end="72,552" inkscape:measure-start="72,612" showgrid="true" inkscape:current-layer="layer2" inkscape:document-units="mm" inkscape:cy="654.86991" inkscape:cx="275.14737" inkscape:zoom="1.7613639" inkscape:pageshadow="2" inkscape:pageopacity="0.0" borderopacity="1.0" bordercolor="#666666" pagecolor="#ffffff" id="base">
    <inkscape:grid spacingy="1.5875" spacingx="1.5875" units="pt" id="grid5337" type="xygrid"/>
  </sodipodi:namedview>
  <metadata id="metadata5171">
    <rdf:RDF>
      <cc:Work rdf:about="">
        <dc:format>image/svg+xml</dc:format>
        <dc:type rdf:resource="http://purl.org/dc/dcmitype/StillImage"/>
        <dc:title/>
      </cc:Work>
    </rdf:RDF>
  </metadata>
  <g inkscape:groupmode="layer" inkscape:label="red-" transform="matrix(1.000000,0.000000,0.000000,1.000000,-50.800000,-74.750001)"><g id="g1142" inkscape:label="2">
      <rect style="opacity:1;fill:#aa0000;fill-opacity:1;stroke:none;stroke-width:6.3499999;stroke-linecap:butt;stroke-linejoin:miter;stroke-miterlimit:47.14606857;stroke-dasharray:none;stroke-dashoffset:0;stroke-opacity:1;paint-order:markers fill stroke" id="rect1132" width="19.049999" height="19.049999" x="50.799999" y="74.75"/>
      <path d="m 68.262748,86.752763 h -1.12507 l 0.80067,1.49092 h -3.64444 q -0.22773,0 -0.3451,0.13123 -0.11053,0.12422 -0.15194,0.33125 v 0.0344 q 0,0.71092 -0.26914,1.35285 -0.20703,0.48315 -0.53838,0.8766 -0.32423,0.39343 -0.74544,0.66951 -0.41416,0.27616 -0.90422,0.42104 -0.49006,0.15194 -1.01462,0.15194 -0.5315,0 -1.02156,-0.15194 -0.48315,-0.14492 -0.90419,-0.42104 -0.41416,-0.27615 -0.74544,-0.66951 -0.32457,-0.38654 -0.5315,-0.8766 -0.26914,-0.64193 -0.26914,-1.35285 v -0.0344 q -0.0414,-0.20703 -0.15895,-0.33125 -0.11053,-0.13123 -0.33819,-0.13123 h -3.64444 l 0.80067,-1.49092 h -1.12508 l 1.98098,-4.01025 v -4.91444 q 0,-0.31054 0.11721,-0.57978 0.11721,-0.26914 0.31756,-0.46936 0.20703,-0.20703 0.47627,-0.32424 0.26914,-0.1172 0.57978,-0.1172 0.57291,0 1.00774,0.39342 l 2.83685,2.58147 h 1.22172 l 2.86447,-2.58838 q 0.42795,-0.38651 1.00082,-0.38651 0.31055,0 0.57982,0.1172 0.26914,0.11721 0.46936,0.32424 0.20002,0.20002 0.31756,0.46936 0.1172,0.26914 0.1172,0.57978 v 4.91444 z m -5.55636,-1.00774 h 0.34511 q 0.33124,0 0.71786,-0.13123 0.39342,-0.13123 0.73165,-0.36581 0.33819,-0.23475 0.55908,-0.5522 0.22774,-0.31756 0.22774,-0.69022 v -2.20874 l -2.09141,-1.1941 q -0.0965,-0.0551 -0.15862,-0.15895 -0.0551,-0.10351 -0.0551,-0.22072 0,-0.0758 0.0267,-0.15193 0.0267,-0.0828 0.0898,-0.13791 l 2.18113,-1.97407 q 0,-0.11721 -0.0267,-0.22774 -0.0267,-0.1172 -0.0828,-0.20001 -0.0551,-0.0898 -0.15193,-0.14493 -0.0965,-0.0551 -0.22773,-0.0551 -0.11053,0 -0.17932,0.0344 -0.0691,0.0267 -0.15193,0.0965 -0.26914,0.21405 -0.51768,0.45554 -0.24142,0.23474 -0.49694,0.46244 l -2.13281,1.92576 h -1.9879 q -0.53838,-0.47624 -1.06293,-0.95251 -0.52459,-0.48315 -1.05606,-0.96633 -0.24844,-0.22774 -0.49697,-0.46936 -0.24176,-0.24176 -0.51077,-0.44866 -0.0758,-0.0621 -0.15894,-0.0965 -0.0758,-0.0414 -0.17932,-0.0414 -0.28316,0 -0.39342,0.19334 -0.10352,0.18633 -0.10352,0.43483 l 2.18805,1.97407 q 0.0621,0.0551 0.0898,0.13791 0.0267,0.0758 0.0267,0.15194 0,0.1172 -0.0621,0.22072 -0.0621,0.10351 -0.15895,0.15894 l -2.0845,1.1941 v 2.20875 q 0,0.3589 0.13791,0.67642 0.13791,0.31055 0.37272,0.55217 0.24176,0.23475 0.55221,0.37273 0.31756,0.1379 0.67642,0.1379 h 0.83517 l 1.04226,-2.1052 q 0.20002,-0.39342 0.55217,-0.62119 0.35202,-0.23474 0.7938,-0.23474 0.47624,0 0.82138,0.24843 0.3451,0.24176 0.54525,0.65572 z m 0.0965,2.99563 q 0,-0.27615 -0.0691,-0.5315 -0.0621,-0.26213 -0.16562,-0.50385 -0.10352,-0.24844 -0.23475,-0.48318 -0.12422,-0.24143 -0.24176,-0.48315 l -1.30452,-2.6367 q -0.0691,-0.13791 -0.18633,-0.22774 -0.11721,-0.0965 -0.27615,-0.0965 -0.15895,0 -0.26914,0.0828 -0.11053,0.0758 -0.17932,0.21405 l -1.31835,2.66428 q -0.1172,0.23474 -0.24176,0.46936 -0.12422,0.22773 -0.22773,0.46935 -0.10352,0.23475 -0.17264,0.49007 -0.0691,0.24843 -0.0691,0.51767 0,0.52459 0.18633,0.98704 0.18633,0.46244 0.51768,0.80067 0.33124,0.34511 0.78688,0.54529 0.45553,0.20002 0.98703,0.20002 0.51077,0 0.95942,-0.20002 0.45554,-0.19334 0.78685,-0.5315 0.33823,-0.33125 0.5315,-0.78685 0.20002,-0.44865 0.20002,-0.95942 z m 0.24844,-6.44676 q 0.15193,0 0.28316,0.0621 0.13791,0.0551 0.24176,0.15193 0.10352,0.0965 0.15861,0.23475 0.0621,0.13791 0.0621,0.28984 v 0.99395 q 0,0.15193 -0.0621,0.28984 -0.0551,0.13123 -0.15861,0.23475 -0.10351,0.10351 -0.24176,0.16562 -0.13123,0.0551 -0.28316,0.0551 -0.15194,0 -0.28984,-0.0551 -0.13123,-0.0621 -0.23475,-0.16562 -0.10352,-0.10352 -0.16562,-0.23475 -0.0551,-0.13791 -0.0551,-0.28984 v -0.99395 q 0,-0.15193 0.0551,-0.28283 0.0621,-0.13791 0.16562,-0.23475 0.10352,-0.10351 0.23475,-0.15861 0.1379,-0.0621 0.28984,-0.0621 z m -5.45282,0 q 0.15194,0 0.28317,0.0621 0.13791,0.0551 0.23474,0.15861 0.10352,0.0965 0.15861,0.23475 0.0621,0.13123 0.0621,0.28283 v 0.99394 q 0,0.15194 -0.0621,0.28985 -0.0551,0.13123 -0.15861,0.23474 -0.0965,0.10352 -0.23474,0.16563 -0.13123,0.0551 -0.28317,0.0551 -0.15193,0 -0.28984,-0.0551 -0.13123,-0.0621 -0.23475,-0.16563 -0.10351,-0.10351 -0.16562,-0.23474 -0.0551,-0.13791 -0.0551,-0.28985 v -0.99394 q 0,-0.15194 0.0551,-0.28985 0.0621,-0.13791 0.16562,-0.23474 0.10352,-0.0965 0.23475,-0.15194 0.13791,-0.0621 0.28984,-0.0621 z m 8.67622,4.95584 q -0.11721,-0.13791 -0.22774,-0.32457 -0.10351,-0.18633 -0.20703,-0.38651 -0.0965,-0.20703 -0.19334,-0.40725 -0.0898,-0.20703 -0.17263,-0.37272 h 1.18718 l -0.51076,-1.03535 q -0.15194,0.42795 -0.46936,0.78684 -0.31055,0.35894 -0.71783,0.62814 -0.40034,0.26213 -0.86278,0.42104 -0.45557,0.15194 -0.89731,0.17264 l 0.34511,0.71786 q 0.3451,-0.20002 0.74544,-0.20002 z m -5.94979,1.98786 q -0.0965,0 -0.19334,-0.0344 -0.0898,-0.0344 -0.15862,-0.11053 l -1.1389,-1.34596 h 2.98181 l -1.13887,1.34596 q -0.0691,0.0758 -0.16562,0.11053 -0.0898,0.0344 -0.18633,0.0344 z m -3.2234,-1.78767 q 0.0758,-0.17965 0.16562,-0.35202 0.0898,-0.17932 0.17932,-0.35893 -0.36581,0 -0.67642,-0.0344 -0.31055,-0.0344 -0.59358,-0.13123 -0.27615,-0.0965 -0.53841,-0.26246 -0.26213,-0.17263 -0.52456,-0.43483 l -0.0551,0.11721 q -0.15861,0.32423 -0.32423,0.64189 -0.15861,0.31055 -0.35893,0.61431 h 1.98098 q 0.40034,0 0.74544,0.20002 z m -2.62288,-2.68502 -0.49006,0.99395 h 1.02153 q -0.20002,-0.23475 -0.31756,-0.46936 -0.1172,-0.23475 -0.21404,-0.52459 z" style="font-style:normal;font-variant:normal;font-weight:normal;font-stretch:normal;font-size:medium;line-height:100%;font-family:'Segoe UI Emoji';-inkscape-font-specification:'Segoe UI Emoji';font-variant-ligatures:normal;font-variant-caps:normal;font-variant-numeric:normal;text-align:start;letter-spacing:0px;word-spacing:0px;writing-mode:lr-tb;text-anchor:start;fill:#d35f5f;fill-opacity:1;stroke:none;stroke-width:0.26458329" id="path1001" inkscape:connector-curvature="0"/>
    </g>
    </g></svg>
