<?xml version='1.0' encoding='UTF-8'?>
<!-- Created with Inkscape (http://www.inkscape.org/) and export_objects.py -->
<svg xmlns:cc="http://creativecommons.org/ns#" xmlns:dc="http://purl.org/dc/elements/1.1/" xmlns:inkscape="http://www.inkscape.org/namespaces/inkscape" xmlns:rdf="http://www.w3.org/1999/02/22-rdf-syntax-ns#" xmlns:sodipodi="http://sodipodi.sourceforge.net/DTD/sodipodi-0.dtd" xmlns:xlink="http://www.w3.org/1999/xlink" xmlns="http://www.w3.org/2000/svg" version="1.1" id="svg5174" viewBox="0 0 19.0499992062 19.0499992062" height="19.0499992062mm" width="19.0499992062mm" inkscape:version="0.92.3 (2405546, 2018-03-11)" sodipodi:docname="red-3.svg"><sodipodi:namedview inkscape:window-maximized="1" inkscape:window-y="-11" inkscape:window-x="-11" inkscape:window-height="986" inkscape:window-width="1920" inkscape:snap-grids="true" inkscape:measure-end="72,552" inkscape:measure-start="72,612" showgrid="true" inkscape:current-layer="layer2" inkscape:document-units="mm" inkscape:cy="654.86991" inkscape:cx="275.14737" inkscape:zoom="1.7613639" inkscape:pageshadow="2" inkscape:pageopacity="0.0" borderopacity="1.0" bordercolor="#666666" pagecolor="#ffffff" id="base">
    <inkscape:grid spacingy="1.5875" spacingx="1.5875" units="pt" id="grid5337" type="xygrid"/>
  </sodipodi:namedview>
  <metadata id="metadata5171">
    <rdf:RDF>
      <cc:Work rdf:about="">
        <dc:format>image/svg+xml</dc:format>
        <dc:type rdf:resource="http://purl.org/dc/dcmitype/StillImage"/>
        <dc:title/>
      </cc:Work>
    </rdf:RDF>
  </metadata>
  <g inkscape:groupmode="layer" inkscape:label="red-" transform="matrix(1.000000,0.000000,0.000000,1.000000,-25.400000,-74.750001)"><g id="g1137" inkscape:label="3">
      <rect y="74.75" x="25.4" height="19.049999" width="19.049999" id="rect1130" style="opacity:1;fill:#aa0000;fill-opacity:1;stroke:none;stroke-width:6.3499999;stroke-linecap:butt;stroke-linejoin:miter;stroke-miterlimit:47.14606857;stroke-dasharray:none;stroke-dashoffset:0;stroke-opacity:1;paint-order:markers fill stroke"/>
      <path d="m 41.734955,86.75511 0.80032,1.49026 h -4.13959 q -0.19993,0 -0.35187,0.14486 -0.14486,0.14486 -0.14486,0.34499 v 0.49672 q 0,0.61404 -0.23464,1.15218 -0.23464,0.54506 -0.64161,0.95213 -0.40016,0.40703 -0.94521,0.64161 -0.53815,0.23464 -1.15219,0.23464 -0.61404,0 -1.15906,-0.23464 -0.53814,-0.23464 -0.94521,-0.64161 -0.40017,-0.40707 -0.63474,-0.95213 -0.23464,-0.53814 -0.23464,-1.15218 v -0.49672 q 0,-0.19993 -0.15187,-0.34499 -0.14486,-0.14486 -0.34496,-0.14486 h -4.13956 l 0.80033,-1.49026 h -1.12459 l 1.98699,-3.9671 v -4.96058 q 0,-0.31041 0.11716,-0.57953 0.11715,-0.26902 0.31741,-0.46915 0.19993,-0.20694 0.46916,-0.32409 0.26902,-0.11716 0.57956,-0.11716 0.28972,0 0.53814,0.10347 0.25534,0.10347 0.46916,0.29673 l 2.84248,2.58033 h 1.2143 l 2.87008,-2.58721 q 0.43468,-0.39325 0.99351,-0.39325 0.31041,0 0.57953,0.11715 0.26902,0.11716 0.46916,0.3241 0.20693,0.19993 0.32409,0.46915 0.11715,0.26902 0.11715,0.57953 v 4.96058 l 1.98011,3.96709 z m -11.77019,-2.47684 3.22886,1.98008 q 0.19325,0.11716 0.33808,0.22763 0.14485,0.10347 0.23464,0.23465 0.0898,0.12416 0.13117,0.28971 0.0484,0.16555 0.0484,0.40016 0,0.20694 -0.007,0.42086 -0.007,0.20694 -0.007,0.41398 h 1.98698 q 0,-0.13118 -0.007,-0.3034 -0.007,-0.17957 -0.007,-0.36568 0,-0.19993 0.0134,-0.37947 0.0134,-0.18625 0.0691,-0.3241 0.0828,-0.19993 0.27603,-0.34495 0.20026,-0.14486 0.37946,-0.25534 l 0.02,-0.0134 3.22198,-1.98008 v -2.48374 l -2.08361,-1.19357 q -0.0965,-0.0551 -0.15855,-0.15187 -0.0621,-0.10347 -0.0621,-0.22062 0,-0.0758 0.0267,-0.15888 0.0344,-0.0828 0.0898,-0.13785 l 2.18708,-1.9732 v -0.13117 q 0,-0.20694 -0.14485,-0.35187 -0.14486,-0.14485 -0.35187,-0.14485 -0.17957,0 -0.3311,0.13117 -0.79341,0.7106 -1.57304,1.42124 -0.77963,0.71064 -1.57304,1.42124 h -1.98699 l -3.12539,-2.84248 q -0.0621,-0.0551 -0.15854,-0.0898 -0.0965,-0.0414 -0.17924,-0.0414 -0.14485,0 -0.24165,0.0551 -0.0965,0.0551 -0.15187,0.14486 -0.0551,0.0828 -0.0828,0.19993 -0.02,0.11048 -0.02,0.23464 l 2.18018,1.96629 q 0.0551,0.0551 0.0828,0.13785 0.0344,0.0828 0.0344,0.15888 0,0.11048 -0.0621,0.21395 -0.0551,0.10347 -0.15187,0.15887 l -2.08358,1.18667 z m 10.11434,1.48336 h 1.29707 l -0.99351,-1.84904 v 0.64165 l -3.45652,2.12497 q -0.0828,0.0551 -0.17256,0.11048 -0.0898,0.0484 -0.16555,0.11715 -0.0758,0.0621 -0.12417,0.15187 -0.0484,0.0828 -0.0484,0.19325 v 1.48336 l -1.1384,1.34534 q -0.0551,0.0691 -0.15854,0.10347 -0.10347,0.0414 -0.19325,0.0414 -0.0898,0 -0.19326,-0.0414 -0.10347,-0.0344 -0.15854,-0.10347 l -1.13149,-1.34534 v -1.48336 q 0,-0.0965 -0.0414,-0.17256 -0.0414,-0.0828 -0.11048,-0.14486 -0.0621,-0.0691 -0.14486,-0.11715 -0.0828,-0.0551 -0.15854,-0.10347 l -0.37947,-0.24165 q -0.77962,-0.48985 -1.56613,-0.97279 -0.77963,-0.48297 -1.57304,-0.94521 v -0.64165 l -0.9866,1.84904 h 1.29017 l -0.79342,1.49023 h 2.47684 q 0.3034,0 0.57265,0.11716 0.26902,0.11715 0.46915,0.32409 0.20694,0.19993 0.3241,0.46915 0.12416,0.26903 0.12416,0.57266 v 0.49672 q 0,0.41398 0.15187,0.77275 0.15854,0.36565 0.42776,0.63471 0.26902,0.26902 0.62783,0.42089 0.35877,0.15854 0.77272,0.15854 0.41395,0 0.77272,-0.15854 0.36568,-0.15187 0.63474,-0.42089 0.26902,-0.26902 0.42085,-0.63471 0.15854,-0.35877 0.15854,-0.77275 v -0.49672 q 0,-0.3034 0.11716,-0.57266 0.11715,-0.26902 0.31742,-0.46915 0.20694,-0.20694 0.47606,-0.32409 0.26902,-0.11716 0.57262,-0.11716 h 2.48374 z m -7.87899,-3.47034 q 0.15186,0 0.28304,0.0621 0.13784,0.0551 0.24165,0.15854 0.10347,0.10347 0.15854,0.24165 0.0621,0.13118 0.0621,0.28271 v 0.9866 q 0,0.15187 -0.0621,0.28972 -0.0551,0.13117 -0.15854,0.23464 -0.10347,0.10347 -0.24165,0.16555 -0.13118,0.0551 -0.28304,0.0551 -0.15855,0 -0.29673,-0.0551 -0.13117,-0.0621 -0.23464,-0.15854 -0.0965,-0.10347 -0.15854,-0.23465 -0.0551,-0.13784 -0.0551,-0.29672 v -1.0349 q 0,-0.14486 0.0621,-0.26902 0.0691,-0.13117 0.17256,-0.22062 0.10347,-0.0965 0.23464,-0.15187 0.13785,-0.0551 0.27603,-0.0551 z m 5.45045,0 q 0.13785,0 0.26902,0.0551 0.13785,0.0551 0.24165,0.15187 0.10347,0.0898 0.16556,0.22062 0.0691,0.12416 0.0691,0.26902 v 1.0349 q 0,0.15854 -0.0621,0.29672 -0.0551,0.13118 -0.15854,0.23465 -0.0965,0.0965 -0.23464,0.15854 -0.13785,0.0551 -0.28972,0.0551 -0.15854,0 -0.29672,-0.0551 -0.13117,-0.0621 -0.22763,-0.16555 -0.0965,-0.10347 -0.15855,-0.23464 -0.0551,-0.13785 -0.0551,-0.28972 v -1.0349 q 0,-0.14486 0.0621,-0.26902 0.0621,-0.13117 0.16555,-0.22062 0.10347,-0.0965 0.23465,-0.15187 0.13785,-0.0551 0.27603,-0.0551 z" style="font-style:normal;font-variant:normal;font-weight:normal;font-stretch:normal;font-size:medium;line-height:100%;font-family:'Segoe UI Emoji';-inkscape-font-specification:'Segoe UI Emoji';font-variant-ligatures:normal;font-variant-caps:normal;font-variant-numeric:normal;text-align:start;letter-spacing:0px;word-spacing:0px;writing-mode:lr-tb;text-anchor:start;fill:#d35f5f;fill-opacity:1;stroke:none;stroke-width:0.26458332" id="path1003" inkscape:connector-curvature="0"/>
    </g>
    </g></svg>
