<?xml version='1.0' encoding='UTF-8'?>
<!-- Created with Inkscape (http://www.inkscape.org/) and export_objects.py -->
<svg xmlns:cc="http://creativecommons.org/ns#" xmlns:dc="http://purl.org/dc/elements/1.1/" xmlns:inkscape="http://www.inkscape.org/namespaces/inkscape" xmlns:rdf="http://www.w3.org/1999/02/22-rdf-syntax-ns#" xmlns:sodipodi="http://sodipodi.sourceforge.net/DTD/sodipodi-0.dtd" xmlns:xlink="http://www.w3.org/1999/xlink" xmlns="http://www.w3.org/2000/svg" version="1.1" id="svg5174" viewBox="0 0 19.0499992062 19.0499992062" height="19.0499992062mm" width="19.0499992062mm" inkscape:version="0.92.3 (2405546, 2018-03-11)" sodipodi:docname="red-1.svg"><sodipodi:namedview inkscape:window-maximized="1" inkscape:window-y="-11" inkscape:window-x="-11" inkscape:window-height="986" inkscape:window-width="1920" inkscape:snap-grids="true" inkscape:measure-end="72,552" inkscape:measure-start="72,612" showgrid="true" inkscape:current-layer="layer2" inkscape:document-units="mm" inkscape:cy="654.86991" inkscape:cx="275.14737" inkscape:zoom="1.7613639" inkscape:pageshadow="2" inkscape:pageopacity="0.0" borderopacity="1.0" bordercolor="#666666" pagecolor="#ffffff" id="base">
    <inkscape:grid spacingy="1.5875" spacingx="1.5875" units="pt" id="grid5337" type="xygrid"/>
  </sodipodi:namedview>
  <metadata id="metadata5171">
    <rdf:RDF>
      <cc:Work rdf:about="">
        <dc:format>image/svg+xml</dc:format>
        <dc:type rdf:resource="http://purl.org/dc/dcmitype/StillImage"/>
        <dc:title/>
      </cc:Work>
    </rdf:RDF>
  </metadata>
  <g inkscape:groupmode="layer" inkscape:label="red-" transform="matrix(1.000000,0.000000,0.000000,1.000000,-76.199997,-74.750007)"><g id="g1147" inkscape:label="1">
      <rect style="opacity:1;fill:#aa0000;fill-opacity:1;stroke:none;stroke-width:6.3499999;stroke-linecap:butt;stroke-linejoin:miter;stroke-miterlimit:47.14606857;stroke-dasharray:none;stroke-dashoffset:0;stroke-opacity:1;paint-order:markers fill stroke" id="rect1128" width="19.049999" height="19.049999" x="76.199997" y="74.750008"/>
      <path d="m 85.72509,76.337573 q 1.10434,0 2.12586,0.36579 1.02149,0.35892 1.85663,1.01462 0.83517,0.64878 1.42873,1.55294 0.59359,0.90419 0.84896,1.98091 0.24175,1.01461 0.45555,2.02231 0.21404,1.0077 0.43482,2.02232 0.17964,0.83514 0.36583,1.67027 0.19333,0.82826 0.35888,1.6634 0.0621,0.30352 0.0621,0.60738 0,0.61429 -0.23474,1.15265 -0.23474,0.54527 -0.6419,0.9456 -0.40033,0.40723 -0.9456,0.6419 -0.53836,0.23474 -1.15262,0.23474 -0.41414,0 -0.80755,-0.1172 -0.39342,-0.11053 -0.73854,-0.31755 -0.33819,-0.20702 -0.62117,-0.50383 -0.28316,-0.29685 -0.47626,-0.66261 -0.1379,0.35892 -0.3727,0.65569 -0.23474,0.29685 -0.53836,0.50384 -0.30353,0.21403 -0.66261,0.32456 -0.35889,0.1172 -0.74542,0.1172 -0.3865,0 -0.74542,-0.1172 -0.35891,-0.11053 -0.6626,-0.32456 -0.30386,-0.20703 -0.53836,-0.50384 -0.23474,-0.29684 -0.37271,-0.65569 -0.19333,0.36579 -0.47626,0.66261 -0.28315,0.29684 -0.62808,0.50383 -0.33818,0.20702 -0.73162,0.31755 -0.39341,0.1172 -0.80753,0.1172 -0.61429,0 -1.15956,-0.23474 -0.53836,-0.23474 -0.94559,-0.6419 -0.40029,-0.40033 -0.63496,-0.9456 -0.23474,-0.53836 -0.23474,-1.15265 0,-0.30352 0.0621,-0.59356 l 1.60817,-7.36451 q 0.0758,-0.35201 0.20035,-0.68331 0.12421,-0.33821 0.28282,-0.65569 0.40032,-0.82826 1.0077,-1.49087 0.61429,-0.66949 1.36662,-1.13883 0.75921,-0.46934 1.62196,-0.7178 0.86966,-0.25544 1.78764,-0.25544 z m 1.73242,12.89994 q 0.352,0 0.66952,-0.13123 0.32422,-0.1379 0.57285,-0.39341 0.49696,-0.51074 0.49696,-1.21476 v -2.72632 q 0,-0.13123 0.0414,-0.26913 0.0484,-0.13791 0.1172,-0.26913 0.0691,-0.13123 0.15894,-0.24843 0.0898,-0.1172 0.17931,-0.20702 h -1.73933 q -0.35891,0 -0.67639,-0.13791 -0.31054,-0.1379 -0.54528,-0.37271 -0.23473,-0.23473 -0.37271,-0.54527 -0.1379,-0.31755 -0.1379,-0.6764 v -4.6865 q -0.12421,-0.0134 -0.24843,-0.02 -0.12421,-0.007 -0.24843,-0.007 -0.6626,0 -1.30447,0.1586 -0.635,0.15895 -1.21476,0.46247 -0.57289,0.29684 -1.06984,0.73159 -0.49696,0.43485 -0.87655,0.98012 v 3.11974 q 0,0.30386 0.15193,0.53836 0.15861,0.23474 0.3451,0.45552 0.18632,0.22071 0.33821,0.45555 0.15861,0.23474 0.15861,0.53836 v 2.72633 q 0,0.35888 0.13122,0.67639 0.13791,0.31755 0.37271,0.55216 0.23474,0.23473 0.55215,0.3727 0.31755,0.13791 0.6764,0.13791 0.34513,0 0.6557,-0.13123 0.31053,-0.13122 0.54527,-0.352 0.23474,-0.22773 0.37962,-0.53145 0.14491,-0.30353 0.1586,-0.64882 0.0134,0.34513 0.15193,0.64882 0.14492,0.30385 0.37959,0.53145 0.23474,0.22071 0.54527,0.352 0.31054,0.13123 0.6557,0.13123 z m -0.24142,0.48316 q -0.46246,-0.0621 -0.82135,-0.26245 -0.35891,-0.20001 -0.66952,-0.55215 -0.31053,0.35201 -0.66948,0.55215 -0.35201,0.20035 -0.82135,0.26245 0,0.31054 0.1172,0.57977 0.1172,0.27614 0.31755,0.47625 0.20034,0.20703 0.46934,0.32423 0.27614,0.1172 0.58668,0.1172 0.31053,0 0.57976,-0.1172 0.27615,-0.1172 0.47626,-0.32423 0.20034,-0.20001 0.31754,-0.47625 0.1172,-0.26913 0.1172,-0.57977 z m 0.49005,-7.67511 q 0,0.15193 0.0551,0.28983 0.0621,0.13123 0.16562,0.23474 0.10351,0.0965 0.23474,0.15861 0.1379,0.0551 0.28983,0.0551 0.15193,0 0.28983,-0.0551 0.13791,-0.0621 0.23474,-0.15861 0.10351,-0.0965 0.15861,-0.22773 0.0621,-0.1379 0.0621,-0.29684 v -0.99388 q 0,-0.15193 -0.0621,-0.28983 -0.0551,-0.1379 -0.15861,-0.23474 -0.0965,-0.10351 -0.23474,-0.1586 -0.1379,-0.0621 -0.28983,-0.0621 -0.15193,0 -0.28983,0.0621 -0.13123,0.0551 -0.23474,0.1586 -0.10351,0.10351 -0.16562,0.24175 -0.0551,0.13123 -0.0551,0.28316 z m -4.70724,-1.73933 q 0.15193,0 0.28983,0.0621 0.1379,0.0551 0.23474,0.15861 0.0965,0.10351 0.15193,0.24174 0.0621,0.13123 0.0621,0.28316 v 0.99388 q 0,0.15193 -0.0621,0.28983 -0.0551,0.13123 -0.15894,0.23474 -0.0965,0.0965 -0.23474,0.1586 -0.13123,0.0551 -0.28282,0.0551 -0.15861,0 -0.29685,-0.0551 -0.13122,-0.0621 -0.23473,-0.1586 -0.0965,-0.0965 -0.15861,-0.22773 -0.0551,-0.1379 -0.0551,-0.29684 v -0.99388 q 0,-0.15193 0.0551,-0.28983 0.0621,-0.13791 0.15861,-0.23474 0.10351,-0.10351 0.23473,-0.15861 0.13791,-0.0621 0.29685,-0.0621 z m 2.72632,6.45345 q -0.0965,0 -0.19333,-0.0344 -0.0898,-0.0414 -0.1586,-0.1172 l -1.13883,-1.339 h 2.9817 l -1.13886,1.339 q -0.0691,0.0758 -0.16562,0.1172 -0.0898,0.0344 -0.18632,0.0344 z" style="font-style:normal;font-variant:normal;font-weight:normal;font-stretch:normal;font-size:medium;line-height:100%;font-family:'Segoe UI Emoji';-inkscape-font-specification:'Segoe UI Emoji';font-variant-ligatures:normal;font-variant-caps:normal;font-variant-numeric:normal;text-align:start;letter-spacing:0px;word-spacing:0px;writing-mode:lr-tb;text-anchor:start;fill:#d35f5f;fill-opacity:1;stroke:none;stroke-width:0.26458332" id="path999" inkscape:connector-curvature="0"/>
    </g>
    </g></svg>
