<?xml version='1.0' encoding='UTF-8'?>
<!-- Created with Inkscape (http://www.inkscape.org/) and export_objects.py -->
<svg xmlns:cc="http://creativecommons.org/ns#" xmlns:dc="http://purl.org/dc/elements/1.1/" xmlns:inkscape="http://www.inkscape.org/namespaces/inkscape" xmlns:rdf="http://www.w3.org/1999/02/22-rdf-syntax-ns#" xmlns:sodipodi="http://sodipodi.sourceforge.net/DTD/sodipodi-0.dtd" xmlns:xlink="http://www.w3.org/1999/xlink" xmlns="http://www.w3.org/2000/svg" version="1.1" id="svg5174" viewBox="0 0 19.0499992062 19.0499992062" height="19.0499992062mm" width="19.0499992062mm" inkscape:version="0.92.3 (2405546, 2018-03-11)" sodipodi:docname="yellow-3.svg"><sodipodi:namedview inkscape:window-maximized="1" inkscape:window-y="-11" inkscape:window-x="-11" inkscape:window-height="986" inkscape:window-width="1920" inkscape:snap-grids="true" inkscape:measure-end="72,552" inkscape:measure-start="72,612" showgrid="true" inkscape:current-layer="layer2" inkscape:document-units="mm" inkscape:cy="654.86991" inkscape:cx="275.14737" inkscape:zoom="1.7613639" inkscape:pageshadow="2" inkscape:pageopacity="0.0" borderopacity="1.0" bordercolor="#666666" pagecolor="#ffffff" id="base">
    <inkscape:grid spacingy="1.5875" spacingx="1.5875" units="pt" id="grid5337" type="xygrid"/>
  </sodipodi:namedview>
  <metadata id="metadata5171">
    <rdf:RDF>
      <cc:Work rdf:about="">
        <dc:format>image/svg+xml</dc:format>
        <dc:type rdf:resource="http://purl.org/dc/dcmitype/StillImage"/>
        <dc:title/>
      </cc:Work>
    </rdf:RDF>
  </metadata>
  <g inkscape:groupmode="layer" inkscape:label="yellow-" transform="matrix(1.000000,0.000000,0.000000,1.000000,-76.200005,-100.150001)"><g id="g1162" inkscape:label="3">
      <rect y="100.15" x="76.200005" height="19.049999" width="19.049999" id="rect1122" style="opacity:1;fill:#ffdd55;fill-opacity:1;stroke:none;stroke-width:6.3499999;stroke-linecap:butt;stroke-linejoin:miter;stroke-miterlimit:47.14606857;stroke-dasharray:none;stroke-dashoffset:0;stroke-opacity:1;paint-order:markers fill stroke"/>
      <path d="m 89.509401,115.12785 q 0.22773,0.20001 0.3658,0.41412 0.13791,0.21404 0.20703,0.44174 0.0758,0.22774 0.0965,0.46936 0.02,0.24176 0.02,0.49697 0,0.15861 -0.007,0.32424 0,0.16562 0,0.33822 h -8.93159 q 0,-0.16562 -0.007,-0.33124 0,-0.16563 0,-0.33125 0,-0.27615 0.0267,-0.52459 0.0267,-0.24843 0.10351,-0.47623 0.0758,-0.22072 0.20703,-0.42795 0.13791,-0.20002 0.35893,-0.39343 -0.0965,-0.36584 -0.14492,-0.73856 -0.0484,-0.37272 -0.0484,-0.74544 v -2.74711 l -2.97488,1.27693 v -2.00167 q 0,-0.55908 0.22105,-1.01465 0.22773,-0.45553 0.62119,-0.84207 l 3.12675,-3.03012 v -0.57287 h -2.47794 v -0.98703 q 0,-0.40725 0.15894,-0.76618 0.15861,-0.3658 0.42792,-0.63501 0.26914,-0.26914 0.62813,-0.42792 0.3589,-0.15861 0.76615,-0.15861 h 3.47185 q 0.67642,0 1.22171,0.25545 0.55217,0.24844 0.93871,0.6833 0.39342,0.43486 0.60049,1.01464 0.21404,0.57982 0.21404,1.22863 v 0.3658 l 3.12675,3.03012 q 0.39342,0.38654 0.61431,0.84207 0.22773,0.45557 0.22773,1.01465 v 2.00167 l -2.97488,-1.27693 v 2.74711 q 0,0.75927 -0.18633,1.484 z m -3.78247,-8.42771 q -0.40725,0 -0.77305,0.15861 -0.35893,0.15193 -0.62811,0.42104 -0.26913,0.26914 -0.42795,0.63501 -0.15193,0.35893 -0.15193,0.76614 v 6.74356 l 0.28984,-0.28984 h 0.0898 q 0.32423,0 0.6074,0.0965 0.28984,0.0965 0.50388,0.28283 0.21404,0.18633 0.3451,0.44865 0.13123,0.26914 0.14492,0.6074 0.0134,-0.30353 0.13123,-0.56599 0.12422,-0.26246 0.32457,-0.45553 0.20002,-0.19334 0.46245,-0.30353 0.26914,-0.11053 0.57287,-0.11053 h 0.20703 l 0.28984,0.28984 v -6.74356 q 0,-0.40721 -0.15861,-0.76614 -0.15861,-0.35893 -0.42795,-0.6281 -0.26914,-0.26914 -0.63502,-0.42795 -0.35889,-0.15861 -0.76614,-0.15861 z m -1.98097,-2.02929 q 0.007,-0.39343 0.15894,-0.73853 0.15194,-0.34511 0.40722,-0.6074 0.25545,-0.26246 0.5936,-0.42104 0.34511,-0.15861 0.73853,-0.17263 h -3.38901 q -0.20703,0 -0.38654,0.0828 -0.17931,0.0758 -0.31756,0.21404 -0.13123,0.13123 -0.21404,0.31054 -0.0758,0.17965 -0.0758,0.38655 h 1.49092 q 0.19333,0 0.37272,0.0758 0.17931,0.0691 0.31054,0.20001 0.13791,0.13124 0.22072,0.30354 0.0828,0.17263 0.0898,0.36581 z m 2.97491,-0.9456 q -0.20703,0 -0.38654,0.0758 -0.17931,0.0758 -0.31756,0.21405 -0.13123,0.13123 -0.21404,0.31054 -0.0758,0.17965 -0.0758,0.38655 v 0.9939 h 0.99394 q 0.20703,0 0.38651,-0.0758 0.17932,-0.0828 0.31055,-0.21404 0.13791,-0.13791 0.21404,-0.31755 0.0828,-0.17932 0.0828,-0.38651 0,-0.20703 -0.0828,-0.38655 -0.0758,-0.17931 -0.21404,-0.31054 -0.13123,-0.13791 -0.31055,-0.21405 -0.17931,-0.0758 -0.38651,-0.0758 z m 0.99391,12.39651 -0.49697,-0.49006 q -0.20703,0 -0.38651,0.0758 -0.17931,0.0758 -0.31756,0.20703 -0.13123,0.1379 -0.21404,0.31755 -0.0758,0.17932 -0.0758,0.38651 h 2.97489 q 0,-0.20703 -0.0758,-0.38651 -0.0758,-0.17931 -0.21405,-0.31755 -0.13123,-0.13123 -0.31054,-0.20703 -0.17965,-0.0758 -0.38655,-0.0758 z m -4.46576,-0.49006 q -0.20703,0 -0.38654,0.0758 -0.17932,0.0758 -0.31756,0.20703 -0.13123,0.1379 -0.21404,0.31755 -0.0758,0.17932 -0.0758,0.38651 h 2.97488 q 0,-0.20703 -0.0758,-0.38651 -0.0758,-0.17931 -0.21404,-0.31755 -0.13123,-0.13123 -0.31055,-0.20703 -0.17931,-0.0758 -0.38654,-0.0758 l -0.49697,0.49006 z m 1.48397,-11.65798 q 0,0.0965 0.0758,0.17264 0.0758,0.0691 0.17263,0.0691 0.0965,0 0.17264,-0.0691 0.0758,-0.0758 0.0758,-0.17264 v -0.49697 q 0,-0.10351 -0.0758,-0.17263 -0.0691,-0.0758 -0.17264,-0.0758 -0.0965,0 -0.17263,0.0758 -0.0758,0.0758 -0.0758,0.17263 z" style="font-style:normal;font-variant:normal;font-weight:normal;font-stretch:normal;font-size:medium;line-height:100%;font-family:'Segoe UI Emoji';-inkscape-font-specification:'Segoe UI Emoji';font-variant-ligatures:normal;font-variant-caps:normal;font-variant-numeric:normal;text-align:start;letter-spacing:0px;word-spacing:0px;writing-mode:lr-tb;text-anchor:start;fill:#d4aa00;fill-opacity:1;stroke:none;stroke-width:0.26458332" id="path1009" inkscape:connector-curvature="0"/>
    </g>
    </g></svg>
