<?xml version='1.0' encoding='UTF-8'?>
<!-- Created with Inkscape (http://www.inkscape.org/) and export_objects.py -->
<svg xmlns:cc="http://creativecommons.org/ns#" xmlns:dc="http://purl.org/dc/elements/1.1/" xmlns:inkscape="http://www.inkscape.org/namespaces/inkscape" xmlns:rdf="http://www.w3.org/1999/02/22-rdf-syntax-ns#" xmlns:sodipodi="http://sodipodi.sourceforge.net/DTD/sodipodi-0.dtd" xmlns:xlink="http://www.w3.org/1999/xlink" xmlns="http://www.w3.org/2000/svg" version="1.1" id="svg5174" viewBox="0 0 19.0499992062 19.0499992062" height="19.0499992062mm" width="19.0499992062mm" inkscape:version="0.92.3 (2405546, 2018-03-11)" sodipodi:docname="yellow-2.svg"><sodipodi:namedview inkscape:window-maximized="1" inkscape:window-y="-11" inkscape:window-x="-11" inkscape:window-height="986" inkscape:window-width="1920" inkscape:snap-grids="true" inkscape:measure-end="72,552" inkscape:measure-start="72,612" showgrid="true" inkscape:current-layer="layer2" inkscape:document-units="mm" inkscape:cy="654.86991" inkscape:cx="275.14737" inkscape:zoom="1.7613639" inkscape:pageshadow="2" inkscape:pageopacity="0.0" borderopacity="1.0" bordercolor="#666666" pagecolor="#ffffff" id="base">
    <inkscape:grid spacingy="1.5875" spacingx="1.5875" units="pt" id="grid5337" type="xygrid"/>
  </sodipodi:namedview>
  <metadata id="metadata5171">
    <rdf:RDF>
      <cc:Work rdf:about="">
        <dc:format>image/svg+xml</dc:format>
        <dc:type rdf:resource="http://purl.org/dc/dcmitype/StillImage"/>
        <dc:title/>
      </cc:Work>
    </rdf:RDF>
  </metadata>
  <g inkscape:groupmode="layer" inkscape:label="yellow-" transform="matrix(1.000000,0.000000,0.000000,1.000000,-50.800000,-100.150001)"><g id="g1157" inkscape:label="2">
      <rect style="opacity:1;fill:#ffdd55;fill-opacity:1;stroke:none;stroke-width:6.3499999;stroke-linecap:butt;stroke-linejoin:miter;stroke-miterlimit:47.14606857;stroke-dasharray:none;stroke-dashoffset:0;stroke-opacity:1;paint-order:markers fill stroke" id="rect1124" width="19.049999" height="19.049999" x="50.799999" y="100.15"/>
      <path d="m 67.165978,109.02684 q 0.30644,0.10686 0.55577,0.30644 0.24921,0.19234 0.42749,0.44887 0.17822,0.24956 0.27094,0.55576 0.0996,0.2992 0.0996,0.61991 0,0.42037 -0.16408,0.79802 -0.16373,0.37049 -0.44173,0.64839 -0.27783,0.27783 -0.65552,0.44177 -0.37052,0.15684 -0.79092,0.15684 h -2.08055 q 0.0276,0.22095 0.0276,0.43463 0.007,0.21372 0.007,0.43464 v 0.66975 h -3.39873 l -0.19958,0.59141 q 0.22785,0.0855 0.4204,0.22784 0.19234,0.14237 0.32781,0.33471 0.14236,0.19234 0.21371,0.42036 0.0782,0.2282 0.0782,0.47028 v 1.02604 h -6.66205 v -1.02604 q 0,-0.2992 0.10686,-0.57 0.11409,-0.2637 0.2992,-0.47028 0.19234,-0.20647 0.44887,-0.34194 0.25646,-0.12823 0.55576,-0.1496 l 0.47028,-1.41076 q -0.38476,-0.27783 -0.7054,-0.64128 h -2.20168 q -0.4204,0 -0.79802,-0.15684 -0.37052,-0.16408 -0.64838,-0.44177 -0.27783,-0.27783 -0.44177,-0.64839 -0.15684,-0.37765 -0.15684,-0.79802 0,-0.32057 0.0927,-0.61991 0.0996,-0.30644 0.27783,-0.55576 0.17821,-0.25646 0.42754,-0.44887 0.24922,-0.19958 0.55576,-0.30644 -0.39903,-0.28507 -0.61991,-0.72677 -0.22096,-0.44887 -0.22096,-0.94052 0,-0.44177 0.16408,-0.81226 0.17097,-0.37765 0.45601,-0.64841 0.29196,-0.27059 0.66975,-0.42037 0.38476,-0.15684 0.81939,-0.15684 -0.0641,-0.24232 -0.0641,-0.50588 0,-0.4275 0.15684,-0.79802 0.16408,-0.37762 0.44177,-0.65552 0.28507,-0.27783 0.65552,-0.43463 0.37762,-0.16374 0.80515,-0.16374 0.45601,0 0.85504,0.19235 0.39899,0.1851 0.69826,0.52725 0.05,-0.37762 0.22785,-0.69826 0.18545,-0.32057 0.456,-0.54863 0.27094,-0.23508 0.61278,-0.36338 0.34915,-0.13547 0.72677,-0.13547 0.37762,0 0.71963,0.13547 0.34915,0.12823 0.61991,0.36338 0.27094,0.22785 0.44887,0.54863 0.17821,0.32057 0.23509,0.69826 0.29196,-0.34194 0.69826,-0.52725 0.41327,-0.19235 0.86214,-0.19235 0.4275,0 0.79802,0.16374 0.37765,0.15683 0.65552,0.43463 0.27782,0.27783 0.43463,0.65552 0.16373,0.37052 0.16373,0.79802 0,0.2637 -0.0641,0.50588 h 0.0855 q 0.41327,0 0.78379,0.16408 0.37052,0.16373 0.64128,0.44174 0.27783,0.27783 0.43464,0.65552 0.16373,0.37052 0.16373,0.78378 0,0.49165 -0.22096,0.93338 -0.22095,0.43464 -0.61987,0.72677 z m -5.05888,1.98793 q -0.0355,-0.34911 -0.19234,-0.64125 -0.1496,-0.2992 -0.39186,-0.50588 -0.23508,-0.20683 -0.54866,-0.32058 -0.30644,-0.12099 -0.65552,-0.12099 -0.52725,0 -0.95475,0.27094 -0.42754,0.2637 -0.65552,0.741 0.05,0.007 0.0927,0.0138 0.05,0 0.10686,0 0.0713,0 0.13547,0 0.0713,-0.007 0.13547,-0.007 h 1.14716 q 0.47738,0 0.93342,0.14236 0.46311,0.14236 0.8479,0.4275 z m -3.83336,-3.89748 q 0,0.0996 0.0782,0.17822 0.0782,0.0713 0.17821,0.0713 0.10686,0 0.17821,-0.0713 0.0783,-0.0714 0.0783,-0.17822 0,-0.10685 -0.0783,-0.17821 -0.0713,-0.0782 -0.17821,-0.0782 -0.0996,0 -0.17821,0.0782 -0.0782,0.0782 -0.0782,0.17821 z m -1.53192,-3.32744 q -0.21371,0 -0.40613,0.0783 -0.1851,0.0782 -0.32781,0.22095 -0.13547,0.13547 -0.21371,0.32058 -0.0782,0.1851 -0.0782,0.39899 0,0.2637 0.13547,0.51302 l 1.11152,1.92381 q 0.1141,-0.1496 0.25646,-0.30644 0.14271,-0.15683 0.30644,-0.28506 0.17097,-0.13547 0.35625,-0.22096 0.19234,-0.0855 0.39189,-0.0855 0.39189,0 0.69113,0.26369 l -1.33951,-2.31567 q -0.14236,-0.23509 -0.37766,-0.37052 -0.23508,-0.13547 -0.50588,-0.13547 z m -2.05204,2.55793 q -0.20682,0 -0.39189,0.0855 -0.18511,0.0782 -0.32782,0.22095 -0.13546,0.13547 -0.22095,0.32058 -0.0782,0.1851 -0.0782,0.39189 0,0.27059 0.13547,0.51302 0.13547,0.24232 0.37052,0.37762 l 2.05204,1.18277 q 0,-1.09725 0.60565,-2.01643 l -1.63165,-0.94052 q -0.22785,-0.13547 -0.51302,-0.13547 z m -0.51302,5.62888 h 2.69332 q -0.32057,-0.44887 -0.48451,-0.96903 -0.15684,-0.52725 -0.15684,-1.07588 h -2.05204 q -0.21372,0 -0.39899,0.0855 -0.18511,0.0782 -0.32782,0.22095 -0.13546,0.13547 -0.21371,0.32057 -0.0782,0.18511 -0.0782,0.39903 0,0.21371 0.0782,0.39899 0.0783,0.18511 0.21371,0.32781 0.14237,0.13547 0.32782,0.21372 0.1851,0.0782 0.39899,0.0782 z m 6.66205,4.61001 q 0,-0.20648 -0.15684,-0.36339 -0.1496,-0.1496 -0.35625,-0.1496 h -0.89064 l 0.8479,-2.55793 h -0.53439 l -0.85504,2.55793 h -0.99753 l 0.89778,-2.70043 q -0.12099,-0.0355 -0.24233,-0.0782 -0.1141,-0.05 -0.23509,-0.10686 l -0.96189,2.8857 q -0.0782,0 -0.17821,-0.007 -0.0927,0 -0.19234,0 -0.13547,0 -0.27059,0.0138 -0.13547,0.0207 -0.24233,0.0713 -0.10685,0.0569 -0.17821,0.15684 -0.0641,0.10686 -0.0641,0.27783 z m 5.62888,-4.61001 q 0.21371,0 0.39902,-0.0782 0.18511,-0.0782 0.32058,-0.21371 0.14236,-0.14236 0.22095,-0.32781 0.0855,-0.18511 0.0855,-0.399 0,-0.21371 -0.0855,-0.39902 -0.0782,-0.18511 -0.22095,-0.32058 -0.13547,-0.14236 -0.32058,-0.22095 -0.1851,-0.0855 -0.39902,-0.0855 h -2.89281 l 2.89281,-1.67442 q 0.23508,-0.14236 0.37052,-0.37762 0.14236,-0.24233 0.14236,-0.51302 0,-0.21372 -0.0855,-0.39903 -0.0782,-0.1851 -0.22095,-0.32057 -0.13547,-0.14236 -0.32058,-0.22095 -0.1851,-0.0782 -0.39899,-0.0782 -0.25646,0 -0.50588,0.13547 l -1.98083,1.14003 1.33241,-2.30144 q 0.13547,-0.24922 0.13547,-0.51302 0,-0.21371 -0.0855,-0.39899 -0.0783,-0.1851 -0.22095,-0.32057 -0.13547,-0.14236 -0.32058,-0.22096 -0.18544,-0.0782 -0.39902,-0.0782 -0.27094,0 -0.50589,0.13547 -0.23508,0.13546 -0.37762,0.37052 l -1.67442,2.89994 v -3.41296 q 0,-0.21372 -0.0855,-0.39903 -0.0782,-0.18511 -0.22095,-0.32057 -0.13547,-0.14237 -0.32057,-0.22096 -0.18545,-0.0782 -0.39903,-0.0782 -0.21372,0 -0.39899,0.0782 -0.18545,0.0783 -0.32781,0.22096 -0.13547,0.13546 -0.22096,0.32057 -0.0782,0.18545 -0.0782,0.39903 v 3.41296 l -0.0207,-0.0355 0.0207,0.21372 q 0.05,0.05 0.17097,0.17097 0.12823,0.1141 0.25646,0.24956 0.13546,0.12823 0.23508,0.24957 0.10686,0.12099 0.10686,0.17097 0,0.0782 -0.05,0.12823 -0.05,0.05 -0.12823,0.05 h -1.61741 q -0.28507,0 -0.50589,-0.13547 v 1.16141 q 0,0.25646 0.12099,0.48451 0.12823,0.22819 0.33471,0.37052 0.13547,-0.31333 0.35625,-0.5629 0.22095,-0.25646 0.49878,-0.43463 0.27783,-0.17821 0.59137,-0.27094 0.32058,-0.0996 0.66266,-0.0996 0.47738,0 0.89777,0.18545 0.42037,0.17821 0.72677,0.49162 0.31334,0.31333 0.49162,0.7339 0.17821,0.4204 0.17821,0.89778 v 0.27059 q 0.0996,0.11409 0.19234,0.24232 0.0927,0.12099 0.17097,0.24922 z m -0.44174,-4.35348 q 0,0.21371 -0.1496,0.37052 -0.1496,0.1496 -0.35625,0.1496 -0.21371,0 -0.37052,-0.1496 -0.1496,-0.15684 -0.1496,-0.37052 0,-0.20648 0.1496,-0.35625 0.15684,-0.15684 0.36338,-0.15684 0.21372,0 0.36339,0.15684 0.1496,0.1496 0.1496,0.35625 z m -1.77418,1.02604 q 0,0.21371 -0.1496,0.36338 -0.1496,0.1496 -0.36339,0.1496 -0.20647,0 -0.36338,-0.1496 -0.1496,-0.15684 -0.1496,-0.36338 0,-0.20648 0.1496,-0.35625 0.15684,-0.15684 0.36338,-0.15684 0.22096,0 0.36339,0.1496 0.1496,0.1496 0.1496,0.36339 z m -0.59851,-2.87857 q -0.21371,0 -0.36338,-0.1496 -0.1496,-0.15684 -0.1496,-0.36339 0,-0.21371 0.1496,-0.36338 0.15684,-0.15684 0.37049,-0.15684 0.20647,0 0.35628,0.15684 0.1496,0.1496 0.1496,0.35625 0,0.21371 -0.1496,0.37052 -0.1496,0.1496 -0.36339,0.1496 z m -1.02604,0.741 q 0.21372,0 0.36339,0.15684 0.15684,0.1496 0.15684,0.36339 0,0.20647 -0.15684,0.36338 -0.15684,0.1496 -0.36339,0.1496 -0.21371,0 -0.36338,-0.1496 -0.1496,-0.15684 -0.1496,-0.37052 0,-0.20682 0.1496,-0.35625 0.15684,-0.15684 0.36338,-0.15684 z m 3.33458,3.93312 q 0.20682,0 0.35628,0.15684 0.14961,0.1496 0.14961,0.35628 0,0.20648 -0.14961,0.36339 -0.1496,0.1496 -0.35628,0.1496 -0.20648,0 -0.36338,-0.1496 -0.1496,-0.15684 -0.1496,-0.36339 0,-0.21371 0.1496,-0.36338 0.1496,-0.1496 0.36338,-0.1496 z m -2.05204,0 q 0.21371,0 0.36338,0.1496 0.1496,0.1496 0.1496,0.36339 0,0.20647 -0.15684,0.36338 -0.1496,0.1496 -0.35625,0.1496 -0.20647,0 -0.36338,-0.1496 -0.1496,-0.15684 -0.1496,-0.36338 0,-0.21372 0.1496,-0.36339 0.1496,-0.1496 0.36338,-0.1496 z m -8.77821,-2.30144 q -0.20648,0 -0.35629,-0.1496 -0.1496,-0.15684 -0.1496,-0.37052 0,-0.20647 0.1496,-0.35625 0.1496,-0.15684 0.36339,-0.15684 0.20682,0 0.35628,0.15684 0.15684,0.1496 0.15684,0.35625 0,0.21372 -0.15684,0.37052 -0.1496,0.1496 -0.36338,0.1496 z m 2.37978,-2.8857 q 0,0.20647 -0.15684,0.36338 -0.1496,0.1496 -0.35625,0.1496 -0.21371,0 -0.36338,-0.1496 -0.1496,-0.15684 -0.1496,-0.36338 0,-0.21372 0.1496,-0.36339 0.1496,-0.15684 0.35625,-0.15684 0.21371,0 0.36338,0.15684 0.15684,0.1496 0.15684,0.36339 z m 2.81446,-1.47491 q 0.20682,0 0.35625,0.15684 0.15684,0.1496 0.15684,0.35628 0,0.21372 -0.1496,0.36339 -0.1496,0.1496 -0.36339,0.1496 -0.21371,0 -0.36338,-0.1496 -0.1496,-0.1496 -0.1496,-0.36339 0,-0.20647 0.1496,-0.35628 0.15684,-0.15684 0.36338,-0.15684 z m 0,2.05204 q 0.21371,0 0.36338,0.1496 0.1496,0.1496 0.1496,0.36339 0,0.20647 -0.15684,0.36338 -0.1496,0.1496 -0.35624,0.1496 -0.20648,0 -0.36339,-0.1496 -0.1496,-0.15684 -0.1496,-0.36338 0,-0.21372 0.1496,-0.36339 0.1496,-0.1496 0.36339,-0.1496 z m -5.62888,4.61001 q 0.21372,0 0.35625,0.1496 0.1496,0.1496 0.1496,0.36339 0,0.20647 -0.15684,0.36338 -0.1496,0.1496 -0.35625,0.1496 -0.20682,0 -0.35625,-0.1496 -0.1496,-0.1496 -0.1496,-0.35628 0,-0.22096 0.14237,-0.37049 0.1496,-0.1496 0.37052,-0.1496 z" style="font-style:normal;font-variant:normal;font-weight:normal;font-stretch:normal;font-size:medium;line-height:100%;font-family:'Segoe UI Emoji';-inkscape-font-specification:'Segoe UI Emoji';font-variant-ligatures:normal;font-variant-caps:normal;font-variant-numeric:normal;text-align:start;letter-spacing:0px;word-spacing:0px;writing-mode:lr-tb;text-anchor:start;fill:#d4aa00;fill-opacity:1;stroke:none;stroke-width:0.26458332" id="path1007" inkscape:connector-curvature="0"/>
    </g>
    </g></svg>
