<?xml version='1.0' encoding='UTF-8'?>
<!-- Created with Inkscape (http://www.inkscape.org/) and export_objects.py -->
<svg xmlns:cc="http://creativecommons.org/ns#" xmlns:dc="http://purl.org/dc/elements/1.1/" xmlns:inkscape="http://www.inkscape.org/namespaces/inkscape" xmlns:rdf="http://www.w3.org/1999/02/22-rdf-syntax-ns#" xmlns:sodipodi="http://sodipodi.sourceforge.net/DTD/sodipodi-0.dtd" xmlns:xlink="http://www.w3.org/1999/xlink" xmlns="http://www.w3.org/2000/svg" version="1.1" id="svg5174" viewBox="0 0 19.0499992062 19.0499992062" height="19.0499992062mm" width="19.0499992062mm" inkscape:version="0.92.3 (2405546, 2018-03-11)" sodipodi:docname="yellow-1.svg"><sodipodi:namedview inkscape:window-maximized="1" inkscape:window-y="-11" inkscape:window-x="-11" inkscape:window-height="986" inkscape:window-width="1920" inkscape:snap-grids="true" inkscape:measure-end="72,552" inkscape:measure-start="72,612" showgrid="true" inkscape:current-layer="layer2" inkscape:document-units="mm" inkscape:cy="654.86991" inkscape:cx="275.14737" inkscape:zoom="1.7613639" inkscape:pageshadow="2" inkscape:pageopacity="0.0" borderopacity="1.0" bordercolor="#666666" pagecolor="#ffffff" id="base">
    <inkscape:grid spacingy="1.5875" spacingx="1.5875" units="pt" id="grid5337" type="xygrid"/>
  </sodipodi:namedview>
  <metadata id="metadata5171">
    <rdf:RDF>
      <cc:Work rdf:about="">
        <dc:format>image/svg+xml</dc:format>
        <dc:type rdf:resource="http://purl.org/dc/dcmitype/StillImage"/>
        <dc:title/>
      </cc:Work>
    </rdf:RDF>
  </metadata>
  <g inkscape:groupmode="layer" inkscape:label="yellow-" transform="matrix(1.000000,0.000000,0.000000,1.000000,-25.400000,-100.149985)"><g id="g1152" inkscape:label="1">
      <rect y="100.14999" x="25.4" height="19.049999" width="19.049999" id="rect1126" style="opacity:1;fill:#ffdd55;fill-opacity:1;stroke:none;stroke-width:6.3499999;stroke-linecap:butt;stroke-linejoin:miter;stroke-miterlimit:47.14606857;stroke-dasharray:none;stroke-dashoffset:0;stroke-opacity:1;paint-order:markers fill stroke"/>
      <path d="m 42.605886,114.54134 q 0.21372,0 0.36338,0.1496 0.1496,0.1496 0.1496,0.36335 0,0.20681 -0.15684,0.35627 -0.14959,0.15684 -0.35627,0.15684 h -4.29641 q -0.30643,0.30644 -0.74102,0.66265 -0.43463,0.35624 -0.93337,0.66264 -0.49164,0.30644 -1.00466,0.51298 -0.50587,0.20682 -0.96187,0.20682 -0.456,0 -0.96901,-0.20682 -0.50588,-0.20647 -1.00462,-0.51298 -0.49164,-0.30643 -0.92627,-0.66264 -0.43463,-0.35625 -0.74099,-0.66265 h -3.78343 q -0.20682,0 -0.36338,-0.15684 -0.14959,-0.14959 -0.14959,-0.35627 0,-0.21372 0.14959,-0.36335 0.1496,-0.1496 0.36338,-0.1496 h 2.88566 q -0.29195,-0.38475 -0.54151,-0.81227 -0.24233,-0.4275 -0.4275,-0.87639 -0.1782,-0.456 -0.28506,-0.92624 -0.0996,-0.4774 -0.0996,-0.96901 0,-0.88353 0.24232,-1.71004 0.24233,-0.82651 0.75523,-1.54614 -0.22784,-0.66261 -0.22784,-1.35376 0,-0.37761 0.0641,-0.74099 0.0714,-0.37052 0.19958,-0.72676 -0.36338,-0.2992 -0.57002,-0.71252 -0.20648,-0.42036 -0.20648,-0.89063 v -0.38475 q 0,-0.23508 0.0927,-0.44176 0.0927,-0.21371 0.24956,-0.37052 0.15684,-0.15683 0.36338,-0.24921 0.21371,-0.0927 0.44886,-0.0927 0.29196,0 0.54152,0.14236 0.25645,0.13547 0.42039,0.37048 h 1.16849 q 0.55575,-0.25645 1.14715,-0.38475 0.59849,-0.12822 1.20413,-0.12822 0.60563,0 1.19702,0.12822 0.5985,0.12823 1.15426,0.38475 h 1.17565 q 0.16373,-0.23508 0.41322,-0.37048 0.24956,-0.14236 0.54152,-0.14236 0.23509,0 0.44177,0.0927 0.21371,0.0927 0.37051,0.24921 0.15684,0.15684 0.24922,0.37052 0.0927,0.20682 0.0927,0.44176 0,0.31333 -0.0276,0.58426 -0.0207,0.27093 -0.0996,0.51301 -0.0782,0.24232 -0.23509,0.4631 -0.15683,0.22095 -0.41322,0.42753 0.12823,0.35624 0.19234,0.71962 0.0713,0.36338 0.0713,0.741 0,0.69828 -0.22784,1.36089 0.51301,0.71963 0.75526,1.54614 0.24233,0.82651 0.24233,1.71004 0,0.49161 -0.10686,0.96901 -0.0996,0.47024 -0.28506,0.92624 -0.17821,0.44889 -0.4275,0.87639 -0.24956,0.42752 -0.53438,0.81227 z m -12.80375,-3.58391 q 0,0.50588 0.13547,0.99752 0.14236,0.48447 0.37048,0.9405 0.23508,0.456 0.53438,0.87636 0.30643,0.41326 0.63414,0.76953 h 0.37761 q 0,-0.20647 0.0783,-0.39188 0.0782,-0.19234 0.22095,-0.3347 -0.38475,-0.64128 -0.5985,-1.37517 -0.21371,-0.73386 -0.21371,-1.48199 0,-0.52728 0.12099,-1.03316 0.12823,-0.51297 0.39899,-0.96901 0.59139,0.49164 1.31815,0.7339 0.72676,0.24232 1.48912,0.24232 0.7624,0 1.48916,-0.24232 0.72676,-0.24233 1.31812,-0.7339 0.27093,0.45604 0.39189,0.96901 0.12822,0.51302 0.12822,1.04026 0,0.68402 -0.1782,1.34666 -0.17821,0.66261 -0.49875,1.26825 0.27059,0.0996 0.44887,0.32056 0.18544,0.21372 0.22095,0.49878 0.30643,-0.34914 0.58426,-0.74816 0.28506,-0.40613 0.49874,-0.84075 0.21371,-0.44177 0.33505,-0.90487 0.12822,-0.47027 0.12822,-0.94764 0,-0.86215 -0.28506,-1.65302 -0.27783,-0.79801 -0.86926,-1.43928 0.1851,-0.34911 0.28507,-0.73386 0.0996,-0.38475 0.0996,-0.79091 0,-0.55575 -0.19234,-1.07587 -0.19234,-0.52724 -0.54152,-0.96901 h 0.22096 q 0.21371,0 0.39902,-0.0782 0.1851,-0.0782 0.32056,-0.21371 0.14236,-0.14236 0.22095,-0.32781 0.0855,-0.1851 0.0855,-0.39899 0,-0.0355 0,-0.0996 0.007,-0.0641 0.007,-0.13547 0,-0.10686 -0.0276,-0.19234 -0.0207,-0.0855 -0.10686,-0.0855 -0.0855,0 -0.11409,0.0855 -0.0207,0.0782 -0.05,0.17821 -0.0276,0.0927 -0.0996,0.17097 -0.0713,0.0782 -0.24956,0.0782 h -1.85964 q -0.49164,-0.25645 -1.02602,-0.38475 -0.52725,-0.12823 -1.07587,-0.12823 -0.55575,0 -1.09014,0.12823 -0.53438,0.12823 -1.02602,0.38475 h -1.85964 q -0.17821,0 -0.24956,-0.0782 -0.0713,-0.0782 -0.0996,-0.17097 -0.0276,-0.0996 -0.0569,-0.17821 -0.0207,-0.0855 -0.10686,-0.0855 -0.0569,0 -0.0927,0.0355 -0.0355,0.0355 -0.0355,0.0927 v 0.38475 q 0,0.21371 0.0782,0.39899 0.0855,0.1851 0.22095,0.3278 0.14236,0.13547 0.32781,0.21372 0.1851,0.0782 0.39898,0.0782 h 0.22095 q -0.3491,0.44177 -0.54151,0.96901 -0.19234,0.52012 -0.19234,1.07587 0,0.40616 0.0996,0.79091 0.0996,0.38475 0.28507,0.73386 -0.5914,0.64127 -0.87639,1.43928 -0.27783,0.79087 -0.27783,1.65302 z m 4.1468,-3.22767 q -0.27093,0.25645 -0.61276,0.39902 -0.34194,0.14236 -0.71963,0.14236 -0.39902,0 -0.74813,-0.1496 -0.34914,-0.15683 -0.61276,-0.41325 -0.25646,-0.2637 -0.40612,-0.61277 -0.1496,-0.34911 -0.1496,-0.74813 0,-0.39899 0.1496,-0.74813 0.14959,-0.34914 0.41325,-0.61277 0.26369,-0.26369 0.61277,-0.41325 0.34911,-0.1496 0.74813,-0.1496 0.39185,0 0.74099,0.15683 0.34915,0.1496 0.61277,0.41326 0.26369,0.25646 0.41326,0.61277 0.14959,0.34911 0.14959,0.74099 0,0.43463 -0.18544,0.82652 l 0.31333,-0.31333 0.31367,0.31333 q -0.1851,-0.39189 -0.1851,-0.82652 0,-0.39898 0.1496,-0.74813 0.1496,-0.34914 0.41325,-0.61276 0.2637,-0.2637 0.60564,-0.41326 0.3491,-0.1496 0.74813,-0.1496 0.39898,0 0.74812,0.1496 0.35625,0.1496 0.61277,0.41326 0.26369,0.26369 0.41322,0.61276 0.1496,0.34915 0.1496,0.74813 0,0.39902 -0.1496,0.74813 -0.14959,0.34915 -0.41322,0.61277 -0.25645,0.25645 -0.60563,0.41326 -0.34914,0.14959 -0.74816,0.14959 -0.37762,0 -0.71963,-0.14236 -0.34194,-0.1427 -0.61276,-0.39902 l -0.71963,1.43215 z m 3.32739,1.99504 q -0.58422,0.36337 -1.254,0.54148 -0.66261,0.17821 -1.35376,0.17821 -0.69112,0 -1.35376,-0.17821 -0.66265,-0.17821 -1.25401,-0.54148 -0.10686,0.29919 -0.15684,0.60563 -0.05,0.30643 -0.05,0.627 0,0.67688 0.19234,1.35376 0.19958,0.66975 0.54862,1.24687 0.13547,-0.0427 0.27783,-0.0427 h 0.51301 q 0.21371,0 0.39902,0.0855 0.1851,0.0782 0.32057,0.22096 0.14236,0.13546 0.22095,0.32056 0.0855,0.18545 0.0855,0.39902 h 1.02599 q 0,-0.21371 0.0782,-0.39902 0.0855,-0.1851 0.22095,-0.32056 0.14236,-0.14236 0.3278,-0.22096 0.18511,-0.0855 0.39899,-0.0855 h 0.2992 q 0.34194,-0.57713 0.52724,-1.23264 0.19235,-0.6555 0.19235,-1.32525 0,-0.31333 -0.05,-0.6199 -0.05,-0.31333 -0.15683,-0.61273 z m -4.65264,-4.91631 q -0.31368,0 -0.59853,0.12099 -0.27783,0.12099 -0.49161,0.32781 -0.20682,0.20647 -0.3347,0.4845 -0.12099,0.27783 -0.12099,0.5985 0,0.32057 0.12099,0.60563 0.12099,0.27783 0.32781,0.49164 0.21371,0.20647 0.49164,0.32781 0.28506,0.12099 0.60563,0.12099 0.31333,0 0.59136,-0.12099 0.27783,-0.12099 0.48451,-0.32781 0.21371,-0.21371 0.3347,-0.49164 0.12099,-0.28506 0.12099,-0.5985 0,-0.32056 -0.12099,-0.59849 -0.12099,-0.27783 -0.3347,-0.48451 -0.20648,-0.21371 -0.48451,-0.3347 -0.27782,-0.12099 -0.59136,-0.12099 z m 5.62879,1.539 q 0,-0.32057 -0.12099,-0.59849 -0.12099,-0.27783 -0.3347,-0.48451 -0.20647,-0.21371 -0.4845,-0.3347 -0.27783,-0.12099 -0.5914,-0.12099 -0.32057,0 -0.60563,0.12099 -0.27783,0.12099 -0.48451,0.32781 -0.20647,0.20647 -0.3278,0.49164 -0.12099,0.27782 -0.12099,0.59849 0,0.32057 0.12099,0.5985 0.12098,0.27783 0.3278,0.49164 0.21371,0.20647 0.49164,0.32781 0.27783,0.12099 0.5985,0.12099 0.32057,0 0.59853,-0.12099 0.27783,-0.12099 0.48451,-0.32781 0.20647,-0.21371 0.3278,-0.49164 0.12099,-0.28506 0.12099,-0.5985 z m -1.5319,0.89776 q -0.1851,0 -0.34911,-0.0713 -0.16373,-0.0713 -0.28506,-0.19234 -0.12099,-0.12099 -0.19234,-0.28506 -0.0714,-0.16408 -0.0714,-0.34915 0,-0.1851 0.0714,-0.3491 0.0714,-0.16408 0.19234,-0.28507 0.12099,-0.12099 0.28506,-0.19234 0.16373,-0.0713 0.34911,-0.0713 0.18545,0 0.34914,0.0713 0.16373,0.0713 0.28507,0.19234 0.12099,0.12099 0.18544,0.28507 0.0714,0.16373 0.0714,0.3491 0,0.18511 -0.0714,0.34915 -0.0713,0.16373 -0.19234,0.28506 -0.12099,0.12099 -0.28506,0.19234 -0.15684,0.0713 -0.34194,0.0713 z m -4.09689,0 q -0.18545,0 -0.34914,-0.0713 -0.16374,-0.0713 -0.28507,-0.19234 -0.12099,-0.12099 -0.19234,-0.28506 -0.0713,-0.16408 -0.0713,-0.34915 0,-0.1851 0.0713,-0.3491 0.0713,-0.16408 0.19234,-0.28507 0.12099,-0.12099 0.28507,-0.19234 0.16373,-0.0713 0.34914,-0.0713 0.1851,0 0.34911,0.0713 0.16373,0.0713 0.28506,0.19234 0.12099,0.12099 0.18545,0.28507 0.0713,0.16373 0.0713,0.3491 0,0.18511 -0.0713,0.34915 -0.0714,0.16373 -0.19234,0.28506 -0.12099,0.12099 -0.28507,0.19234 -0.15683,0.0713 -0.34194,0.0713 z m 1.27538,7.29609 q 0,-0.21371 -0.1496,-0.36338 -0.1496,-0.14959 -0.36338,-0.14959 h -0.51301 q -0.20648,0 -0.35625,0.15683 -0.1496,0.1496 -0.1496,0.35628 v 0.51298 q 0,0.20682 0.1496,0.35628 0.1496,0.15683 0.35625,0.15683 v -0.47023 q 0.0138,0.19234 0.16407,0.32781 0.1496,0.14236 0.34911,0.14236 v -0.47024 q 0.0138,0.19234 0.16373,0.32781 0.1496,0.14236 0.34914,0.14236 z m 3.58391,0 q 0,-0.19958 -0.12823,-0.3347 -0.12822,-0.13546 -0.31333,-0.17097 -0.0427,-0.0138 -0.0855,-0.0138 -0.0427,0 -0.0927,0 -0.0713,0 -0.14235,0.007 -0.0714,0 -0.13547,0 h -0.17097 q -0.12099,0 -0.20647,0.0569 -0.0855,0.05 -0.14236,0.13547 -0.0569,0.0855 -0.0855,0.19234 -0.0276,0.0996 -0.0276,0.19958 v 0.95474 q 0.19958,0 0.34914,-0.14236 0.1496,-0.13546 0.16373,-0.32781 v 0.47024 q 0.19958,0 0.34194,-0.14236 0.1496,-0.13547 0.16373,-0.32781 v 0.47024 q 0.20647,0 0.35624,-0.15684 0.15684,-0.1496 0.15684,-0.35628 z m -2.81441,2.04488 q 0.15683,0 0.3347,-0.05 0.18544,-0.05 0.36338,-0.12823 0.1782,-0.0713 0.34193,-0.16407 0.17097,-0.0855 0.30644,-0.16373 h -0.57716 v -0.51302 h -1.02599 v 0.51302 h -1.09014 q 0.13547,0.0782 0.2992,0.16373 0.17097,0.0927 0.34914,0.16407 0.17821,0.0782 0.35625,0.12823 0.17821,0.05 0.34194,0.05 z" style="font-style:normal;font-variant:normal;font-weight:normal;font-stretch:normal;font-size:medium;line-height:100%;font-family:'Segoe UI Emoji';-inkscape-font-specification:'Segoe UI Emoji';font-variant-ligatures:normal;font-variant-caps:normal;font-variant-numeric:normal;text-align:start;letter-spacing:0px;word-spacing:0px;writing-mode:lr-tb;text-anchor:start;fill:#d4aa00;fill-opacity:1;stroke:none;stroke-width:0.26458332" id="path1005" inkscape:connector-curvature="0"/>
    </g>
    </g></svg>
