<?xml version='1.0' encoding='UTF-8'?>
<!-- Created with Inkscape (http://www.inkscape.org/) and export_objects.py -->
<svg xmlns:cc="http://creativecommons.org/ns#" xmlns:dc="http://purl.org/dc/elements/1.1/" xmlns:inkscape="http://www.inkscape.org/namespaces/inkscape" xmlns:rdf="http://www.w3.org/1999/02/22-rdf-syntax-ns#" xmlns:sodipodi="http://sodipodi.sourceforge.net/DTD/sodipodi-0.dtd" xmlns:xlink="http://www.w3.org/1999/xlink" xmlns="http://www.w3.org/2000/svg" version="1.1" id="svg5174" viewBox="0 0 19.0499992062 19.0499992062" height="19.0499992062mm" width="19.0499992062mm" inkscape:version="0.92.3 (2405546, 2018-03-11)" sodipodi:docname="tile-02.svg"><sodipodi:namedview inkscape:window-maximized="1" inkscape:window-y="43" inkscape:window-x="1909" inkscape:window-height="940" inkscape:window-width="1280" inkscape:snap-grids="true" inkscape:measure-end="72,552" inkscape:measure-start="72,612" showgrid="false" inkscape:current-layer="layer10" inkscape:document-units="mm" inkscape:cy="516.00003" inkscape:cx="323.99999" inkscape:zoom="1.1676566" inkscape:pageshadow="2" inkscape:pageopacity="0.0" borderopacity="1.0" bordercolor="#666666" pagecolor="#ffffff" id="base">
    <inkscape:grid spacingy="1.5875" spacingx="1.5875" units="pt" id="grid5337" type="xygrid"/>
  </sodipodi:namedview>
  <metadata id="metadata5171">
    <rdf:RDF>
      <cc:Work rdf:about="">
        <dc:format>image/svg+xml</dc:format>
        <dc:type rdf:resource="http://purl.org/dc/dcmitype/StillImage"/>
        <dc:title/>
      </cc:Work>
    </rdf:RDF>
  </metadata>
  <g inkscape:groupmode="layer" inkscape:label="tile-" transform="matrix(1.000000,0.000000,0.000000,1.000000,-50.799995,-125.549988)"><g id="g5981" inkscape:label="02">
      <rect y="125.54999" x="50.799995" height="19.049999" width="19.049999" id="rect5309" style="opacity:1;fill:#aa0000;fill-opacity:1;stroke:none;stroke-width:6.3499999;stroke-linecap:butt;stroke-linejoin:miter;stroke-miterlimit:47.14606857;stroke-dasharray:none;stroke-dashoffset:0;stroke-opacity:1;paint-order:markers fill stroke"/>
      <path inkscape:connector-curvature="0" id="path5216" style="font-style:normal;font-variant:normal;font-weight:normal;font-stretch:normal;font-size:medium;line-height:100%;font-family:'Segoe UI Emoji';-inkscape-font-specification:'Segoe UI Emoji, Normal';font-variant-ligatures:normal;font-variant-caps:normal;font-variant-numeric:normal;font-feature-settings:normal;text-align:start;letter-spacing:0px;word-spacing:0px;writing-mode:lr-tb;text-anchor:start;fill:#ffffff;fill-opacity:1;stroke:none;stroke-width:0.26458332" d="m 60.777105,127.13749 q 0.07591,0 0.138051,0.0483 0.06901,0.0483 0.09661,0.12424 l 0.255376,0.75234 q 0.282992,0.82826 0.676419,1.5668 0.393417,0.73162 0.848963,1.42184 0.462448,0.69022 0.973212,1.35973 0.510754,0.66261 1.028419,1.34593 0.600487,0.79374 0.917994,1.67032 0.317495,0.87658 0.317495,1.87739 0,0.78685 -0.20707,1.51848 -0.200159,0.72473 -0.572872,1.35973 -0.372725,0.635 -0.897281,1.15266 -0.517665,0.52456 -1.152668,0.89729 -0.628101,0.37271 -1.359727,0.57287 -0.724725,0.20707 -1.51158,0.20707 -0.786844,0 -1.518481,-0.20707 -0.724725,-0.20016 -1.359727,-0.57287 -0.634992,-0.37273 -1.159558,-0.89729 -0.517665,-0.51766 -0.890379,-1.15266 -0.372725,-0.635 -0.579785,-1.35973 -0.200169,-0.73163 -0.200169,-1.51848 0,-1.01462 0.324407,-1.89119 0.324397,-0.87658 0.931796,-1.67724 0.517654,-0.68331 1.021518,-1.34591 0.503864,-0.66262 0.959399,-1.34593 0.462447,-0.69022 0.848974,-1.42184 0.393416,-0.73854 0.676408,-1.5599 l 0.255376,-0.75234 q 0.0276,-0.0759 0.08971,-0.12424 0.06901,-0.0483 0.144951,-0.0483 z m -0.448635,14.8811 q 0.648805,0 1.249292,-0.17256 0.607387,-0.16565 1.125053,-0.47625 0.524566,-0.30369 0.952498,-0.73163 0.434844,-0.42794 0.738538,-0.95251 0.303694,-0.52456 0.469348,-1.12505 0.172555,-0.60739 0.172555,-1.25619 0,-0.84898 -0.269189,-1.5599 -0.262278,-0.71092 -0.766142,-1.38733 -0.531467,-0.71092 -1.069835,-1.40804 -0.531467,-0.70403 -1.014617,-1.43565 -0.48315,-0.73164 -0.890379,-1.50468 -0.407229,-0.77304 -0.697122,-1.62892 -0.289892,0.85588 -0.704022,1.62892 -0.407229,0.77304 -0.890379,1.50468 -0.48315,0.73162 -1.021529,1.43565 -0.531468,0.69712 -1.062935,1.40804 -0.503852,0.67641 -0.773042,1.38733 -0.262278,0.71092 -0.262278,1.5599 0,0.6488 0.165655,1.25619 0.172544,0.60049 0.476249,1.12505 0.303694,0.52457 0.731626,0.95251 0.434832,0.43484 0.959399,0.73853 0.524566,0.3037 1.125053,0.46935 0.600498,0.17256 1.256203,0.17256 z"/>
    </g>
    </g></svg>
