<?xml version='1.0' encoding='UTF-8'?>
<!-- Created with Inkscape (http://www.inkscape.org/) and export_objects.py -->
<svg xmlns:cc="http://creativecommons.org/ns#" xmlns:dc="http://purl.org/dc/elements/1.1/" xmlns:inkscape="http://www.inkscape.org/namespaces/inkscape" xmlns:rdf="http://www.w3.org/1999/02/22-rdf-syntax-ns#" xmlns:sodipodi="http://sodipodi.sourceforge.net/DTD/sodipodi-0.dtd" xmlns:xlink="http://www.w3.org/1999/xlink" xmlns="http://www.w3.org/2000/svg" version="1.1" id="svg5174" viewBox="0 0 19.0499992062 19.0499992062" height="19.0499992062mm" width="19.0499992062mm" inkscape:version="0.92.3 (2405546, 2018-03-11)" sodipodi:docname="tile-14.svg"><sodipodi:namedview inkscape:window-maximized="1" inkscape:window-y="43" inkscape:window-x="1909" inkscape:window-height="940" inkscape:window-width="1280" inkscape:snap-grids="true" inkscape:measure-end="72,552" inkscape:measure-start="72,612" showgrid="false" inkscape:current-layer="layer10" inkscape:document-units="mm" inkscape:cy="516.00003" inkscape:cx="323.99999" inkscape:zoom="1.1676566" inkscape:pageshadow="2" inkscape:pageopacity="0.0" borderopacity="1.0" bordercolor="#666666" pagecolor="#ffffff" id="base">
    <inkscape:grid spacingy="1.5875" spacingx="1.5875" units="pt" id="grid5337" type="xygrid"/>
  </sodipodi:namedview>
  <metadata id="metadata5171">
    <rdf:RDF>
      <cc:Work rdf:about="">
        <dc:format>image/svg+xml</dc:format>
        <dc:type rdf:resource="http://purl.org/dc/dcmitype/StillImage"/>
        <dc:title/>
      </cc:Work>
    </rdf:RDF>
  </metadata>
  <g inkscape:groupmode="layer" inkscape:label="tile-" transform="matrix(1.000000,0.000000,0.000000,1.000000,-76.199997,-176.349991)"><g id="g6037" inkscape:label="14">
      <rect y="176.34999" x="76.199997" height="19.049999" width="19.049999" id="rect5327" style="opacity:1;fill:#000000;fill-opacity:1;stroke:none;stroke-width:6.3499999;stroke-linecap:butt;stroke-linejoin:miter;stroke-miterlimit:47.14606857;stroke-dasharray:none;stroke-dashoffset:0;stroke-opacity:1;paint-order:markers fill stroke"/>
      <path inkscape:connector-curvature="0" id="path5290" style="font-style:normal;font-variant:normal;font-weight:normal;font-stretch:normal;font-size:medium;line-height:100%;font-family:'Segoe UI Emoji';-inkscape-font-specification:'Segoe UI Emoji, Normal';font-variant-ligatures:normal;font-variant-caps:normal;font-variant-numeric:normal;font-feature-settings:normal;text-align:start;letter-spacing:0px;word-spacing:0px;writing-mode:lr-tb;text-anchor:start;fill:#ffffff;fill-opacity:1;stroke:none;stroke-width:0.26458332" d="m 93.165572,185.09503 q 0.24159,0.40033 0.36583,0.85588 0.13114,0.44863 0.13114,0.91798 v 3.13359 q 0,0.0345 -0.0828,0.29679 -0.0828,0.26229 -0.20707,0.6419 -0.12423,0.38653 -0.27609,0.83518 -0.15184,0.45553 -0.28989,0.86967 -0.13804,0.41412 -0.24847,0.73163 -0.10352,0.3175 -0.13804,0.43483 h -6.19815 v -0.99391 q 0,-0.2968 0.0828,-0.57979 0.0897,-0.27608 0.24847,-0.51765 0.15876,-0.23468 0.37963,-0.42795 0.22777,-0.18635 0.50385,-0.30369 0.0345,-0.10351 0.0828,-0.22087 0.0483,-0.11734 0.0897,-0.23468 0.0414,-0.11733 0.069,-0.23467 0.0276,-0.11734 0.0276,-0.22776 v -0.22778 h -2.78157 l -1.46326,3.96875 h -3.19572 v -0.99391 q 0,-0.53837 0.26229,-0.99392 0.26918,-0.45553 0.73163,-0.72472 v -2.5538 l -0.66951,-1.67724 h -1.06293 q -0.35892,0 -0.67642,-0.13804 -0.3175,-0.13804 -0.55217,-0.37271 -0.23468,-0.23468 -0.37272,-0.55218 -0.13805,-0.3175 -0.13805,-0.67641 v -1.15267 l 1.49088,-1.49086 v -0.82827 q 0,-0.25538 0.0966,-0.48315 0.0966,-0.22777 0.26229,-0.39342 0.17256,-0.17256 0.39342,-0.26919 0.22777,-0.0966 0.48316,-0.0966 0.28989,0 0.49695,0.10351 0.21397,0.10351 0.41413,0.29679 l 1.80147,1.71175 q -0.24157,-0.35892 -0.35891,-0.76614 -0.11734,-0.41414 -0.11734,-0.84897 0,-0.61429 0.23468,-1.15266 0.23467,-0.54528 0.63499,-0.94561 0.40723,-0.40722 0.9456,-0.64189 0.54528,-0.23467 1.15956,-0.23467 0.3106,0 0.57979,0.11733 0.26919,0.11734 0.46935,0.3244 0.20706,0.20016 0.32439,0.46935 0.11734,0.26919 0.11734,0.57978 0,0.2968 -0.11041,0.56599 -0.11042,0.26227 -0.30371,0.46933 -0.19326,0.20017 -0.45553,0.32441 -0.26229,0.11734 -0.55909,0.12424 h 3.90664 q 0.71783,0 1.34592,0.27609 0.635,0.26918 1.10435,0.74543 0.47625,0.46934 0.74544,1.10435 0.27608,0.6281 0.27608,1.34592 z m -0.49695,4.7487 v -2.97484 q 0,-0.40033 -0.13114,-0.77304 -0.12424,-0.37962 -0.36581,-0.70402 v -1.00772 q 0,-0.51076 -0.20017,-0.9594 -0.19326,-0.45554 -0.53147,-0.78685 -0.3313,-0.3382 -0.78684,-0.53147 -0.44865,-0.20016 -0.9594,-0.20016 h -2.47789 v 0.99392 h 2.47789 q 0.31059,0 0.57977,0.11733 0.26919,0.11734 0.46935,0.3175 0.20707,0.20017 0.32441,0.46935 0.11734,0.26919 0.11734,0.57978 v 0.21397 q -0.32441,-0.13805 -0.66261,-0.17945 -0.33821,-0.0414 -0.69022,-0.0414 -0.15875,0 -0.31751,0.007 -0.15874,0 -0.31749,0 v 1.49086 q 0,0.20707 -0.14494,0.35201 -0.14496,0.14496 -0.35202,0.14496 -0.20707,0 -0.35201,-0.14496 -0.14495,-0.14494 -0.14495,-0.35201 v -1.49086 h -0.98701 v 1.98783 q 0,0.20015 -0.15184,0.35201 -0.14496,0.14494 -0.34511,0.14494 -0.20706,0 -0.35202,-0.14494 -0.14494,-0.14496 -0.14494,-0.35201 v -1.98783 h -0.99391 v 1.49086 q 0,0.20707 -0.14495,0.35201 -0.14494,0.14496 -0.35201,0.14496 -0.20706,0 -0.35201,-0.14496 -0.14494,-0.14494 -0.14494,-0.35201 v -1.49086 h -0.49697 l -3.03005,-2.87821 q -0.0414,-0.0414 -0.0897,-0.069 -0.0414,-0.0276 -0.10351,-0.0276 -0.10351,0 -0.17946,0.0759 -0.069,0.069 -0.069,0.17255 v 1.24239 l -1.48396,1.48397 h 0.74544 l -0.74544,0.74544 q 0,0.15874 0.0552,0.29679 0.0621,0.13114 0.15875,0.23467 0.10351,0.0966 0.23467,0.15875 0.13804,0.0552 0.2968,0.0552 h 1.73244 l 0.99391,2.47788 v 2.48479 h 1.23549 l 0.74544,-1.98783 h 5.95658 l 0.99391,0.99391 v 0.99392 h 1.15266 q 0.0138,-0.0483 0.0621,-0.20707 0.0552,-0.16566 0.11042,-0.33131 0.0621,-0.17255 0.11041,-0.3106 0.0483,-0.13804 0.0483,-0.14494 z m -6.94359,-10.91234 q -0.40723,0 -0.76614,0.15875 -0.35891,0.15875 -0.635,0.42793 -0.26918,0.26919 -0.42793,0.63501 -0.15876,0.35891 -0.15876,0.75924 0,0.41413 0.15186,0.77994 0.15875,0.35891 0.42793,0.6281 0.26919,0.26919 0.6281,0.42793 0.36581,0.15186 0.77994,0.15186 h 0.99392 v -0.99392 h -0.99392 q -0.20706,0 -0.38651,-0.0759 -0.17946,-0.0828 -0.31751,-0.21397 -0.13114,-0.13804 -0.21396,-0.3175 -0.0759,-0.17945 -0.0759,-0.38652 0,-0.20706 0.0759,-0.38652 0.0828,-0.17947 0.21396,-0.31061 0.13805,-0.13803 0.31751,-0.21396 0.17945,-0.0759 0.38651,-0.0759 0.20017,0 0.34511,-0.14494 0.15185,-0.15185 0.15185,-0.35201 0,-0.20707 -0.14495,-0.35201 -0.14494,-0.14495 -0.35201,-0.14495 z m 4.7625,10.76049 -0.34511,-0.34511 h -1.44255 q 0,0.17256 0,0.33821 0.007,0.16566 0.007,0.33821 0,0.20706 -0.0414,0.42103 -0.0345,0.20706 -0.13114,0.39343 h 1.29761 z m -1.78766,3.12669 0.84897,-1.48397 h -1.18027 l -0.16566,0.49005 q -0.20706,0 -0.38651,0.0759 -0.17946,0.0828 -0.31751,0.21396 -0.13114,0.13805 -0.20706,0.31751 -0.0759,0.17946 -0.0759,0.38652 z m -5.94967,0 0.55907,-1.48397 h -1.05603 v 0.49005 q -0.20706,0 -0.38652,0.0759 -0.17945,0.0828 -0.31751,0.21396 -0.13113,0.13805 -0.21396,0.31751 -0.0759,0.17946 -0.0759,0.38652 z m 8.92451,0 0.49696,-1.48397 h -0.98701 v 0.49005 q -0.20708,0 -0.38653,0.0759 -0.17946,0.0828 -0.3175,0.21396 -0.13114,0.13805 -0.21397,0.31751 -0.0759,0.17946 -0.0759,0.38652 z m -11.16081,-9.42147 q 0.10351,0 0.17255,0.0759 0.0759,0.069 0.0759,0.17255 v 0.49005 q 0,0.10352 -0.0759,0.17946 -0.069,0.069 -0.17255,0.069 -0.10352,0 -0.17946,-0.069 -0.069,-0.0759 -0.069,-0.17946 v -0.49005 q 0,-0.10351 0.069,-0.17255 0.0759,-0.0759 0.17946,-0.0759 z"/>
    </g>
  </g></svg>
