<?xml version='1.0' encoding='UTF-8'?>
<!-- Created with Inkscape (http://www.inkscape.org/) and export_objects.py -->
<svg xmlns:cc="http://creativecommons.org/ns#" xmlns:dc="http://purl.org/dc/elements/1.1/" xmlns:inkscape="http://www.inkscape.org/namespaces/inkscape" xmlns:rdf="http://www.w3.org/1999/02/22-rdf-syntax-ns#" xmlns:sodipodi="http://sodipodi.sourceforge.net/DTD/sodipodi-0.dtd" xmlns:xlink="http://www.w3.org/1999/xlink" xmlns="http://www.w3.org/2000/svg" version="1.1" id="svg5174" viewBox="0 0 19.0499992062 19.0499992062" height="19.0499992062mm" width="19.0499992062mm" inkscape:version="0.92.3 (2405546, 2018-03-11)" sodipodi:docname="tile-13.svg"><sodipodi:namedview inkscape:window-maximized="1" inkscape:window-y="43" inkscape:window-x="1909" inkscape:window-height="940" inkscape:window-width="1280" inkscape:snap-grids="true" inkscape:measure-end="72,552" inkscape:measure-start="72,612" showgrid="false" inkscape:current-layer="layer10" inkscape:document-units="mm" inkscape:cy="516.00003" inkscape:cx="323.99999" inkscape:zoom="1.1676566" inkscape:pageshadow="2" inkscape:pageopacity="0.0" borderopacity="1.0" bordercolor="#666666" pagecolor="#ffffff" id="base">
    <inkscape:grid spacingy="1.5875" spacingx="1.5875" units="pt" id="grid5337" type="xygrid"/>
  </sodipodi:namedview>
  <metadata id="metadata5171">
    <rdf:RDF>
      <cc:Work rdf:about="">
        <dc:format>image/svg+xml</dc:format>
        <dc:type rdf:resource="http://purl.org/dc/dcmitype/StillImage"/>
        <dc:title/>
      </cc:Work>
    </rdf:RDF>
  </metadata>
  <g inkscape:groupmode="layer" inkscape:label="tile-" transform="matrix(1.000000,0.000000,0.000000,1.000000,-50.799995,-176.349991)"><g id="g6032" inkscape:label="13">
      <rect y="176.34999" x="50.799995" height="19.049999" width="19.049999" id="rect5325" style="opacity:1;fill:#999999;fill-opacity:1;stroke:none;stroke-width:6.3499999;stroke-linecap:butt;stroke-linejoin:miter;stroke-miterlimit:47.14606857;stroke-dasharray:none;stroke-dashoffset:0;stroke-opacity:1;paint-order:markers fill stroke"/>
      <path inkscape:connector-curvature="0" id="path5288" style="font-style:normal;font-variant:normal;font-weight:normal;font-stretch:normal;font-size:medium;line-height:100%;font-family:'Segoe UI Emoji';-inkscape-font-specification:'Segoe UI Emoji, Normal';font-variant-ligatures:normal;font-variant-caps:normal;font-variant-numeric:normal;font-feature-settings:normal;text-align:start;letter-spacing:0px;word-spacing:0px;writing-mode:lr-tb;text-anchor:start;fill:#ffffff;fill-opacity:1;stroke:none;stroke-width:0.26458332" d="m 63.680831,179.51218 q 1.15428,0.0997 2.05207,0.52727 0.9049,0.42039 1.5248,1.11867 0.61989,0.69114 0.94052,1.6388 0.32777,0.94765 0.32777,2.09482 0,1.01178 -0.23513,2.05207 -0.23514,1.04028 -0.69115,1.99506 -0.4489,0.94765 -1.11867,1.75992 -0.66977,0.81229 -1.54617,1.36806 -0.12113,0.0784 -0.2565,0.14962 -0.12827,0.0712 -0.26364,0.12827 v 1.46779 q -0.32064,0 -0.63415,-0.0143 -0.3135,-0.007 -0.60564,-0.0712 -0.29214,-0.0641 -0.56289,-0.19951 -0.26364,-0.13537 -0.5059,-0.38476 -0.44176,0.0855 -0.89065,0.12113 -0.44177,0.0356 -0.89066,0.0356 -1.32529,0 -2.50807,-0.26363 -1.17568,-0.2565 -2.15896,-0.82653 -0.98328,-0.57001 -1.75281,-1.4678 -0.76951,-0.9049 -1.26828,-2.18744 -0.10686,-0.26363 -0.19951,-0.57002 -0.0855,-0.30638 -0.15675,-0.61989 -0.0641,-0.31352 -0.10686,-0.62703 -0.0356,-0.32063 -0.0356,-0.60565 0,-0.18525 -0.007,-0.36338 -0.007,-0.17813 -0.007,-0.36339 0,-0.20663 0.0143,-0.40613 0.0214,-0.20664 0.0784,-0.39189 0.057,-0.18526 0.15675,-0.34913 0.10686,-0.17101 0.27789,-0.31352 v -0.37051 q 0,-0.43464 0.15675,-0.81228 0.15676,-0.37763 0.42751,-0.6484 0.27077,-0.27787 0.64128,-0.43463 0.37763,-0.15675 0.8194,-0.15675 h 4.08989 q 0.26363,0 0.52013,0.0427 0.26365,0.0427 0.51303,0.14251 v -3.76925 h 1.0189 q 0.44889,0 0.86928,0.0926 0.42752,0.0855 0.79803,0.27789 0.37051,0.18526 0.66977,0.48452 0.30638,0.29926 0.50589,0.71964 z m 2.62208,9.69032 q 0.60565,-1.00466 0.89778,-2.13757 0.29926,-1.13291 0.29926,-2.30857 0,-1.06167 -0.34201,-1.85969 -0.33488,-0.79803 -0.94765,-1.33242 -0.61277,-0.5344 -1.46067,-0.79803 -0.84791,-0.27075 -1.85969,-0.27075 -0.0143,-0.41327 -0.20663,-0.69828 -0.18526,-0.29214 -0.47739,-0.47027 -0.28502,-0.18525 -0.6484,-0.27075 -0.35627,-0.0855 -0.71252,-0.0926 v 2.04494 l 0.51301,0.51303 -0.51301,0.51301 v 2.05207 q 0.29925,0 0.58426,-0.0499 0.29214,-0.0499 0.54152,-0.17101 0.25651,-0.12113 0.46315,-0.31351 0.20662,-0.19238 0.33488,-0.48451 0.12113,-0.25651 0.12113,-0.52015 0.71965,0 1.21129,0.33489 0.49876,0.33488 0.71252,1.03316 0.0499,0.16388 0.0784,0.33488 0.0356,0.17101 0.0356,0.34202 0,0.73389 -0.3349,1.22553 -0.33488,0.48452 -1.04028,0.71253 -0.16388,0.057 -0.33488,0.0855 -0.16388,0.0285 -0.34201,0.0285 -0.37764,0 -0.74103,-0.0641 -0.36338,-0.0712 -0.67689,-0.22801 -0.31352,-0.15676 -0.57003,-0.40614 -0.24938,-0.25651 -0.40613,-0.63414 -0.0712,-0.17101 -0.12113,-0.34914 -0.0427,-0.18526 -0.0427,-0.37051 v -0.50589 q 0,-0.34202 -0.11398,-0.61989 -0.10686,-0.28502 -0.31351,-0.48452 -0.1995,-0.20664 -0.48452,-0.32064 -0.27789,-0.11399 -0.61989,-0.11399 h -4.08989 q -0.228,0 -0.41326,0.0784 -0.18525,0.0712 -0.32777,0.21376 -0.13537,0.13537 -0.21375,0.32776 -0.0712,0.18526 -0.0712,0.40613 h 0.51302 v 0.51303 h 0.51301 v -0.51303 h 0.51302 v 0.51303 h 0.51301 v -0.51303 h 0.51303 v 0.51303 h 0.51301 v -0.51303 h 0.51302 v 0.59853 q 0.1425,0.057 0.27076,0.12112 0.12825,0.057 0.24225,0.15676 v -0.74815 q 0.27076,0.13539 0.38476,0.37051 0.12113,0.22801 0.12113,0.52015 v 3.59111 q 0,0.47739 0.27077,0.74815 0.27787,0.27076 0.74814,0.27076 h 2.55796 v 2.05207 q 0,0.44889 0.14964,0.8194 0.15674,0.37764 0.42751,0.6484 0.27788,0.27788 0.64839,0.42752 0.37765,0.14962 0.82653,0.14962 v -2.04494 q 0,-0.38477 -0.11398,-0.73389 -0.11398,-0.35627 -0.38476,-0.64128 v -0.6769 z m -9.55493,-4.61003 h -3.08523 q -0.21375,0 -0.36339,0.14964 -0.1425,0.14963 -0.1425,0.36338 v 1.02603 q 0,0.24226 0.0285,0.51302 0.0356,0.26363 0.0855,0.5344 0.057,0.26363 0.13538,0.52726 0.0784,0.2565 0.16388,0.47739 0.44176,1.11866 1.11866,1.90244 0.67689,0.77665 1.54618,1.26117 0.86928,0.49164 1.90243,0.71252 1.03316,0.22088 2.18033,0.22088 0.30638,0 0.60564,-0.0214 0.29926,-0.0214 0.59852,-0.057 -0.0855,-0.22802 -0.13538,-0.47027 -0.0427,-0.23512 -0.0427,-0.47739 v -1.53905 h -2.04494 q -0.33488,0 -0.6199,-0.11399 -0.27789,-0.11398 -0.48451,-0.31351 -0.19951,-0.20662 -0.31351,-0.48451 -0.10686,-0.285 -0.10686,-0.61989 v -2.56509 q 0,-0.20662 -0.0855,-0.39189 -0.0784,-0.19238 -0.22088,-0.32776 -0.13538,-0.1425 -0.32776,-0.22088 -0.18525,-0.0855 -0.39189,-0.0855 z m 9.21293,5.12304 h -2.00932 q 0.23512,0.31351 0.35625,0.69828 0.12113,0.38476 0.10686,0.77666 0.25651,-0.19952 0.46315,-0.35627 0.20662,-0.16388 0.38476,-0.32777 0.17813,-0.16387 0.34201,-0.34912 0.17101,-0.19239 0.35626,-0.44178 z m -6.6621,-4.097 q 0.20663,0 0.35626,0.15675 0.15676,0.14963 0.15676,0.35626 v 0.51302 q 0,0.20663 -0.15676,0.36339 -0.14963,0.14963 -0.35626,0.14963 -0.21375,0 -0.36339,-0.14963 -0.14962,-0.14963 -0.14962,-0.36339 v -0.51302 q 0,-0.21375 0.14962,-0.36339 0.14964,-0.14962 0.36339,-0.14962 z"/>
    </g>
    </g></svg>
