<?xml version='1.0' encoding='UTF-8'?>
<!-- Created with Inkscape (http://www.inkscape.org/) and export_objects.py -->
<svg xmlns:cc="http://creativecommons.org/ns#" xmlns:dc="http://purl.org/dc/elements/1.1/" xmlns:inkscape="http://www.inkscape.org/namespaces/inkscape" xmlns:rdf="http://www.w3.org/1999/02/22-rdf-syntax-ns#" xmlns:sodipodi="http://sodipodi.sourceforge.net/DTD/sodipodi-0.dtd" xmlns:xlink="http://www.w3.org/1999/xlink" xmlns="http://www.w3.org/2000/svg" version="1.1" id="svg5174" viewBox="0 0 19.0499992062 19.0499992062" height="19.0499992062mm" width="19.0499992062mm" inkscape:version="0.92.3 (2405546, 2018-03-11)" sodipodi:docname="tile-10.svg"><sodipodi:namedview inkscape:window-maximized="1" inkscape:window-y="43" inkscape:window-x="1909" inkscape:window-height="940" inkscape:window-width="1280" inkscape:snap-grids="true" inkscape:measure-end="72,552" inkscape:measure-start="72,612" showgrid="false" inkscape:current-layer="layer10" inkscape:document-units="mm" inkscape:cy="516.00003" inkscape:cx="323.99999" inkscape:zoom="1.1676566" inkscape:pageshadow="2" inkscape:pageopacity="0.0" borderopacity="1.0" bordercolor="#666666" pagecolor="#ffffff" id="base">
    <inkscape:grid spacingy="1.5875" spacingx="1.5875" units="pt" id="grid5337" type="xygrid"/>
  </sodipodi:namedview>
  <metadata id="metadata5171">
    <rdf:RDF>
      <cc:Work rdf:about="">
        <dc:format>image/svg+xml</dc:format>
        <dc:type rdf:resource="http://purl.org/dc/dcmitype/StillImage"/>
        <dc:title/>
      </cc:Work>
    </rdf:RDF>
  </metadata>
  <g inkscape:groupmode="layer" inkscape:label="tile-" transform="matrix(1.000000,0.000000,0.000000,1.000000,-25.400003,-150.949996)"><g id="g6001" inkscape:label="10">
      <rect y="150.95" x="25.400003" height="19.049999" width="19.049999" id="rect5315" style="opacity:1;fill:#008033;fill-opacity:1;stroke:none;stroke-width:6.3499999;stroke-linecap:butt;stroke-linejoin:miter;stroke-miterlimit:47.14606857;stroke-dasharray:none;stroke-dashoffset:0;stroke-opacity:1;paint-order:markers fill stroke"/>
      <path inkscape:connector-curvature="0" id="path5278" style="font-style:normal;font-variant:normal;font-weight:normal;font-stretch:normal;font-size:medium;line-height:100%;font-family:'Segoe UI Emoji';-inkscape-font-specification:'Segoe UI Emoji, Normal';font-variant-ligatures:normal;font-variant-caps:normal;font-variant-numeric:normal;font-feature-settings:normal;text-align:start;letter-spacing:0px;word-spacing:0px;writing-mode:lr-tb;text-anchor:start;fill:#ffffff;fill-opacity:1;stroke:none;stroke-width:0.26458332" d="m 40.577893,163.85016 q 0.131139,0.18635 0.269179,0.36581 0.13805,0.17945 0.255387,0.37271 0.117337,0.18636 0.193258,0.40033 0.07591,0.20707 0.07591,0.44864 0,0.3106 -0.117337,0.57978 -0.117337,0.26919 -0.317495,0.46934 -0.20017,0.20017 -0.469348,0.31751 -0.269189,0.11734 -0.579783,0.11734 -0.255388,0 -0.476249,-0.0828 -0.213971,-0.0759 -0.407229,-0.20706 -0.193268,-0.12424 -0.379625,-0.27609 -0.179456,-0.15184 -0.365813,-0.29679 -0.08971,0.20017 -0.234673,0.35891 -0.13804,0.15875 -0.317496,0.26919 -0.172555,0.11041 -0.379625,0.17255 -0.200158,0.0621 -0.41413,0.0621 v 1.49087 h -3.968741 v -1.49087 q -0.434832,0 -0.807557,-0.23467 -0.365812,-0.22777 -0.545268,-0.6281 -0.186357,0.14495 -0.372714,0.29679 -0.179455,0.15185 -0.372724,0.27609 -0.193258,0.13114 -0.41413,0.20706 -0.21396,0.0828 -0.469347,0.0828 -0.310595,0 -0.579784,-0.11734 -0.269178,-0.11733 -0.469348,-0.3175 -0.200158,-0.20016 -0.317495,-0.46935 -0.117337,-0.26918 -0.117337,-0.57977 0,-0.24158 0.06901,-0.44865 0.07591,-0.21397 0.193257,-0.40033 0.117337,-0.19326 0.255388,-0.37271 0.138039,-0.18636 0.276079,-0.36581 -0.144941,-0.19327 -0.220861,-0.42103 -0.07591,-0.22778 -0.07591,-0.46935 0,-0.47626 0.276079,-0.86968 l 0.938696,-1.31832 q -0.227773,-0.35201 -0.227773,-0.79374 0,-0.24158 0.08281,-0.46245 0.08281,-0.22777 0.220872,-0.42103 l 0.779942,-1.09055 q -0.08971,-0.25537 -0.08971,-0.50385 0,-0.24847 0.07591,-0.46935 0.08281,-0.22087 0.227773,-0.42103 l 2.457175,-3.43728 q 0.21396,-0.2968 0.524566,-0.46244 0.310594,-0.17255 0.683307,-0.17255 0.372725,0 0.683319,0.17255 0.317496,0.17255 0.531467,0.46934 l 2.464075,3.45109 q 0.13804,0.19325 0.21396,0.41413 0.07591,0.21397 0.07591,0.45554 0,0.24848 -0.08971,0.50385 l 0.793755,1.10435 q 0.138039,0.20017 0.213971,0.41413 0.07591,0.21397 0.07591,0.45555 0,0.44173 -0.227773,0.79374 l 0.938696,1.31832 q 0.276079,0.39342 0.276079,0.86968 0,0.24157 -0.07591,0.46935 -0.07591,0.22776 -0.220861,0.42103 z m -8.627714,-6.35 q 0,0.15875 0.08971,0.28989 0.09661,0.12424 0.255387,0.17256 l -1.235488,1.72554 q -0.04831,0.069 -0.07591,0.13803 -0.0276,0.069 -0.0276,0.15186 0,0.15184 0.05521,0.24847 0.05521,0.0966 0.144941,0.15186 0.09661,0.0552 0.213971,0.0759 0.124238,0.0207 0.248475,0.0207 l -1.559884,2.19489 q -0.09661,0.13114 -0.09661,0.28989 0,0.20706 0.14494,0.35202 0.144941,0.13803 0.352011,0.13803 0.165654,0 0.269189,-0.0759 0.103513,-0.0759 0.220861,-0.17255 l 2.69875,-2.09826 0.814457,2.03614 q 0.05521,0.13804 0.179456,0.22776 0.131139,0.0828 0.282991,0.0828 0.151841,0 0.276079,-0.0828 0.13115,-0.0897 0.186368,-0.22776 l 0.814446,-2.03614 2.698749,2.09826 q 0.117337,0.0966 0.220872,0.17255 0.103513,0.0759 0.26919,0.0759 0.207059,0 0.35201,-0.13803 0.144941,-0.14496 0.144941,-0.35202 0,-0.15875 -0.09661,-0.28989 l -1.559884,-2.19489 q 0.124237,0 0.241574,-0.0207 0.124238,-0.0207 0.21396,-0.0759 0.09661,-0.0552 0.151853,-0.15186 0.05521,-0.0966 0.05521,-0.24847 0,-0.0828 -0.0276,-0.15186 -0.0276,-0.069 -0.07591,-0.13803 l -1.235488,-1.72554 q 0.158753,-0.0483 0.248475,-0.17256 0.09661,-0.13114 0.09661,-0.28989 0,-0.0828 -0.0276,-0.15185 -0.0276,-0.0759 -0.07591,-0.14494 l -2.470976,-3.45109 q -0.06901,-0.0966 -0.179456,-0.15874 -0.103513,-0.0621 -0.220872,-0.0621 -0.117337,0 -0.227773,0.0621 -0.103513,0.0621 -0.172544,0.15874 l -2.470976,3.45109 q -0.04831,0.069 -0.07591,0.14494 -0.0276,0.069 -0.0276,0.15185 z m 7.937495,8.43445 q 0.20707,0 0.35201,-0.14494 0.144952,-0.14496 0.144952,-0.35202 0,-0.15875 -0.09661,-0.28989 l -0.855874,-1.20098 q -0.172555,0 -0.34511,-0.0483 -0.165654,-0.0483 -0.303693,-0.15874 l -2.367441,-1.84289 -0.572883,1.42876 q -0.117337,0.28989 -0.365813,0.45553 -0.241575,0.16566 -0.552169,0.16566 -0.310606,0 -0.559081,-0.16566 -0.241575,-0.16564 -0.358912,-0.45553 l -0.572883,-1.42876 -2.367441,1.84289 q -0.138039,0.11041 -0.310594,0.15874 -0.165654,0.0483 -0.338209,0.0483 l -0.855874,1.20098 q -0.09661,0.13114 -0.09661,0.28989 0,0.20706 0.144951,0.35202 0.144941,0.14494 0.352011,0.14494 0.165654,0 0.303694,-0.10352 l 2.181084,-1.69793 v 1.30452 q 0,0.20706 0.144952,0.35201 0.14494,0.14494 0.351999,0.14494 0.220872,0 0.365824,-0.16566 l 1.615102,-1.81527 1.615114,1.81527 q 0.06901,0.0759 0.165643,0.11734 0.103512,0.0483 0.20707,0.0483 0.200158,0 0.34511,-0.15185 0.151841,-0.14494 0.151841,-0.3451 v -1.30452 l 2.174184,1.69794 q 0.131138,0.10351 0.303693,0.10351 z m -3.968742,-0.12424 -0.993913,-1.11125 -0.993914,1.11125 v 1.6082 h 1.987827 z"/>
    </g>
    </g></svg>
