<?xml version='1.0' encoding='UTF-8'?>
<!-- Created with Inkscape (http://www.inkscape.org/) and export_objects.py -->
<svg xmlns:cc="http://creativecommons.org/ns#" xmlns:dc="http://purl.org/dc/elements/1.1/" xmlns:inkscape="http://www.inkscape.org/namespaces/inkscape" xmlns:rdf="http://www.w3.org/1999/02/22-rdf-syntax-ns#" xmlns:sodipodi="http://sodipodi.sourceforge.net/DTD/sodipodi-0.dtd" xmlns:xlink="http://www.w3.org/1999/xlink" xmlns="http://www.w3.org/2000/svg" version="1.1" id="svg5174" viewBox="0 0 19.0499992062 19.0499992062" height="19.0499992062mm" width="19.0499992062mm" inkscape:version="0.92.3 (2405546, 2018-03-11)" sodipodi:docname="tile-08.svg"><sodipodi:namedview inkscape:window-maximized="1" inkscape:window-y="43" inkscape:window-x="1909" inkscape:window-height="940" inkscape:window-width="1280" inkscape:snap-grids="true" inkscape:measure-end="72,552" inkscape:measure-start="72,612" showgrid="false" inkscape:current-layer="layer10" inkscape:document-units="mm" inkscape:cy="516.00003" inkscape:cx="323.99999" inkscape:zoom="1.1676566" inkscape:pageshadow="2" inkscape:pageopacity="0.0" borderopacity="1.0" bordercolor="#666666" pagecolor="#ffffff" id="base">
    <inkscape:grid spacingy="1.5875" spacingx="1.5875" units="pt" id="grid5337" type="xygrid"/>
  </sodipodi:namedview>
  <metadata id="metadata5171">
    <rdf:RDF>
      <cc:Work rdf:about="">
        <dc:format>image/svg+xml</dc:format>
        <dc:type rdf:resource="http://purl.org/dc/dcmitype/StillImage"/>
        <dc:title/>
      </cc:Work>
    </rdf:RDF>
  </metadata>
  <g inkscape:groupmode="layer" inkscape:label="tile-" transform="matrix(1.000000,0.000000,0.000000,1.000000,-101.599997,-150.949996)"><g id="g6017" inkscape:label="08">
      <rect y="150.95" x="101.6" height="19.049999" width="19.049999" id="rect5321" style="opacity:1;fill:#8800aa;fill-opacity:1;stroke:none;stroke-width:6.3499999;stroke-linecap:butt;stroke-linejoin:miter;stroke-miterlimit:47.14606857;stroke-dasharray:none;stroke-dashoffset:0;stroke-opacity:1;paint-order:markers fill stroke"/>
      <path inkscape:connector-curvature="0" id="path5244" style="font-style:normal;font-variant:normal;font-weight:normal;font-stretch:normal;font-size:medium;line-height:100%;font-family:'Segoe UI Emoji';-inkscape-font-specification:'Segoe UI Emoji, Normal';font-variant-ligatures:normal;font-variant-caps:normal;font-variant-numeric:normal;font-feature-settings:normal;text-align:start;letter-spacing:0px;word-spacing:0px;writing-mode:lr-tb;text-anchor:start;fill:#ffffff;fill-opacity:1;stroke:none;stroke-width:0.26458329" d="m 120.15527,167.81181 0.0947,0.0316 h -0.0947 v 0.56833 h -18.15524 v -3.10218 l 2.54174,-5.09135 q 0.0947,-0.18156 0.2368,-0.33943 0.14998,-0.15788 0.33153,-0.27628 0.18945,-0.11838 0.39468,-0.18944 0.20523,-0.071 0.41836,-0.071 0.0473,0 0.0947,0.008 0.0473,0 0.0947,0.008 l 1.8392,-3.67841 q 0.0868,-0.17367 0.23682,-0.33153 0.14997,-0.16576 0.33153,-0.28417 0.18945,-0.11838 0.39468,-0.18945 0.21312,-0.071 0.41836,-0.071 0.0473,0 0.0868,0.008 0.0473,0 0.0947,0.008 l 0.70253,-1.41295 q 0.20524,-0.40257 0.59992,-0.63148 0.39468,-0.23682 0.8446,-0.23682 0.44994,0 0.82884,0.23682 0.37888,0.22891 0.58411,0.63148 l 1.83131,3.67841 q 0.0473,-0.008 0.0947,-0.008 0.0474,-0.008 0.0947,-0.008 0.43416,0 0.81304,0.2447 0.3789,0.2447 0.56835,0.63149 l 3.6784,7.36471 z m -5.67548,-9.04605 q -0.41047,-0.81305 -0.81304,-1.61029 -0.40258,-0.79725 -0.80515,-1.61029 l -0.53676,-1.08142 q -0.0631,-0.13419 -0.12628,-0.27627 -0.0631,-0.1421 -0.14208,-0.26839 -0.071,-0.11838 -0.15787,-0.18155 -0.0789,-0.0631 -0.22892,-0.0631 -0.1026,0 -0.17365,0.0316 l -2.59699,10.35638 2.18653,0.7262 0.42624,-0.071 q 0.742,-1.49978 1.47611,-2.97588 0.74199,-1.48399 1.49188,-2.97588 z m -11.34308,6.81217 v 1.69712 h 13.61643 q -2.14706,-0.71043 -4.26253,-1.41295 -2.1076,-0.70254 -4.24675,-1.42085 z m 15.503,-0.76569 q -0.54466,-1.08142 -1.07353,-2.14706 -0.52887,-1.07351 -1.07353,-2.15495 l -0.72621,-1.43662 q -0.071,-0.14998 -0.14998,-0.30785 -0.071,-0.16577 -0.15786,-0.30785 -0.071,-0.11838 -0.15788,-0.18156 -0.0789,-0.0631 -0.22891,-0.0631 -0.1026,0 -0.17367,0.0316 -0.40257,1.53925 -0.78145,3.07061 -0.37101,1.52346 -0.75779,3.06271 0.7262,-0.12628 1.43663,-0.27628 0.71042,-0.14997 1.44452,-0.24469 0.2526,0.0789 0.48941,0.18154 0.2447,0.1026 0.4894,0.20524 z m 0.37889,2.46281 v -1.69712 l -2.8338,-1.13668 q -1.00248,0.18154 -1.98918,0.35521 -0.9867,0.17366 -1.98919,0.371 0.14999,0.0473 0.48941,0.15787 0.33942,0.11838 0.79726,0.27628 0.46571,0.15786 1.00247,0.33942 0.54466,0.18945 1.08932,0.37101 0.54466,0.18943 1.05774,0.3631 0.52098,0.17366 0.92355,0.30785 0.41046,0.13419 0.67095,0.21313 0.26839,0.0789 0.30786,0.0789 z m -11.04312,-3.35478 q -0.35522,-0.72621 -0.71832,-1.43663 -0.3631,-0.71832 -0.71832,-1.44453 -0.0552,-0.11049 -0.1026,-0.21313 -0.0473,-0.10259 -0.11049,-0.17365 -0.0552,-0.0789 -0.14997,-0.11838 -0.0868,-0.0473 -0.23682,-0.0473 -0.0237,0 -0.0473,0.008 -0.0158,0 -0.0395,0.008 l -0.071,0.34732 q -0.18945,0.93144 -0.3789,1.86287 -0.18154,0.92356 -0.3631,1.855 z m 1.9655,-7.41997 q -0.0552,-0.11049 -0.1026,-0.21312 -0.0395,-0.1026 -0.10259,-0.17367 -0.0631,-0.0789 -0.15788,-0.11838 -0.0868,-0.0473 -0.23681,-0.0473 -0.0237,0 -0.0473,0.008 -0.0158,0 -0.0395,0.008 l -0.63938,3.18111 z"/>
    </g>
    </g></svg>
