<?xml version='1.0' encoding='UTF-8'?>
<!-- Created with Inkscape (http://www.inkscape.org/) and export_objects.py -->
<svg xmlns:cc="http://creativecommons.org/ns#" xmlns:dc="http://purl.org/dc/elements/1.1/" xmlns:inkscape="http://www.inkscape.org/namespaces/inkscape" xmlns:rdf="http://www.w3.org/1999/02/22-rdf-syntax-ns#" xmlns:sodipodi="http://sodipodi.sourceforge.net/DTD/sodipodi-0.dtd" xmlns:xlink="http://www.w3.org/1999/xlink" xmlns="http://www.w3.org/2000/svg" version="1.1" id="svg5174" viewBox="0 0 19.0499992062 19.0499992062" height="19.0499992062mm" width="19.0499992062mm" inkscape:version="0.92.3 (2405546, 2018-03-11)" sodipodi:docname="tile-05.svg"><sodipodi:namedview inkscape:window-maximized="1" inkscape:window-y="43" inkscape:window-x="1909" inkscape:window-height="940" inkscape:window-width="1280" inkscape:snap-grids="true" inkscape:measure-end="72,552" inkscape:measure-start="72,612" showgrid="false" inkscape:current-layer="layer10" inkscape:document-units="mm" inkscape:cy="516.00003" inkscape:cx="323.99999" inkscape:zoom="1.1676566" inkscape:pageshadow="2" inkscape:pageopacity="0.0" borderopacity="1.0" bordercolor="#666666" pagecolor="#ffffff" id="base">
    <inkscape:grid spacingy="1.5875" spacingx="1.5875" units="pt" id="grid5337" type="xygrid"/>
  </sodipodi:namedview>
  <metadata id="metadata5171">
    <rdf:RDF>
      <cc:Work rdf:about="">
        <dc:format>image/svg+xml</dc:format>
        <dc:type rdf:resource="http://purl.org/dc/dcmitype/StillImage"/>
        <dc:title/>
      </cc:Work>
    </rdf:RDF>
  </metadata>
  <g inkscape:groupmode="layer" inkscape:label="tile-" transform="matrix(1.000000,0.000000,0.000000,1.000000,-25.400000,-176.349991)"><g id="g6027" inkscape:label="05">
      <rect style="opacity:1;fill:#ffffff;fill-opacity:1;stroke:none;stroke-width:6.3499999;stroke-linecap:butt;stroke-linejoin:miter;stroke-miterlimit:47.14606857;stroke-dasharray:none;stroke-dashoffset:0;stroke-opacity:1;paint-order:markers fill stroke" id="rect5323" width="19.049999" height="19.049999" x="25.4" y="176.34999"/>
      <path inkscape:connector-curvature="0" id="path5230" style="font-style:normal;font-variant:normal;font-weight:normal;font-stretch:normal;font-size:medium;line-height:100%;font-family:'Segoe UI Emoji';-inkscape-font-specification:'Segoe UI Emoji, Normal';font-variant-ligatures:normal;font-variant-caps:normal;font-variant-numeric:normal;font-feature-settings:normal;text-align:start;letter-spacing:0px;word-spacing:0px;writing-mode:lr-tb;text-anchor:start;fill:#aaeeff;fill-opacity:1;stroke:none;stroke-width:0.26458332" d="m 42.110165,188.59445 -1.26999,2.18799 -2.36055,0.58669 -2.44337,2.44336 h -2.22251 l -2.44336,-2.44336 -2.38816,-0.63501 -1.24239,-2.14657 0.69022,-2.71257 -0.69022,-2.71255 1.23549,-2.14657 2.39506,-0.635 2.44336,-2.44337 h 2.22251 l 2.44337,2.44337 2.38815,0.635 1.24239,2.14657 -0.69021,2.71255 z m -1.22859,0.14494 -1.19407,-0.69022 1.19407,-0.29679 -0.24847,-0.9594 -2.18109,0.54527 -1.6082,-0.93179 q 0.0345,-0.13115 0.0552,-0.26229 0.0276,-0.13113 0.0276,-0.26919 0,-0.13804 -0.0276,-0.26917 -0.0207,-0.13114 -0.0552,-0.26229 l 1.6082,-0.93179 2.18109,0.55217 0.24847,-0.9663 -1.19407,-0.29679 1.19407,-0.69022 -0.49695,-0.85588 -1.21479,0.69713 0.2968,-1.19408 -0.9594,-0.24847 -0.53147,2.13277 -1.62201,0.93869 q -0.38652,-0.38652 -0.93179,-0.52456 v -1.84288 l 1.69104,-1.69794 -0.69713,-0.69712 -0.99391,0.99392 v -1.78076 h -0.99392 v 1.78076 l -0.98701,-0.99392 -0.70402,0.69712 1.69103,1.69794 v 1.84978 q -0.25537,0.0759 -0.49005,0.20707 -0.23467,0.13114 -0.41413,0.32439 l -1.64272,-0.95249 -0.53836,-2.13277 -0.95941,0.24847 0.29679,1.19408 -1.21478,-0.70403 -0.49696,0.86278 1.20099,0.69022 -1.19409,0.29679 0.24849,0.9663 2.18109,-0.55217 1.6289,0.9456 q -0.0759,0.26228 -0.0759,0.51765 0,0.25539 0.0759,0.51767 l -1.6289,0.9456 -2.18109,-0.54527 -0.24849,0.9594 1.19409,0.29679 -1.19409,0.69022 0.49696,0.86278 1.20788,-0.70403 -0.29679,1.19408 0.95941,0.24848 0.53836,-2.13278 1.64272,-0.95249 q 0.17946,0.19325 0.41413,0.32439 0.23468,0.13115 0.49005,0.20707 v 1.84979 l -1.69103,1.69793 0.70402,0.69712 0.98701,-0.98701 v 1.77386 h 0.99392 v -1.77386 l 0.99391,0.98701 0.69713,-0.69712 -1.69104,-1.69793 v -1.84289 q 0.54527,-0.13804 0.93179,-0.52456 l 1.62201,0.93869 0.53147,2.13278 0.9594,-0.24848 -0.2968,-1.19408 1.20789,0.69713 z m -5.93586,-3.85831 q 0.20706,0 0.38652,0.0828 0.17945,0.0759 0.3106,0.21396 0.13804,0.13114 0.21396,0.31061 0.0759,0.17945 0.0759,0.38651 0,0.20707 -0.0759,0.38653 -0.0759,0.17946 -0.21396,0.3175 -0.13115,0.13113 -0.3106,0.21397 -0.17946,0.0759 -0.38652,0.0759 -0.20707,0 -0.38653,-0.0759 -0.17945,-0.0828 -0.31749,-0.21397 -0.13114,-0.13804 -0.21397,-0.3175 -0.0759,-0.17946 -0.0759,-0.38653 0,-0.20706 0.0759,-0.38651 0.0828,-0.17947 0.21397,-0.31061 0.13804,-0.13804 0.31749,-0.21396 0.17946,-0.0828 0.38653,-0.0828 z"/>
    </g>
    </g></svg>
