<?xml version='1.0' encoding='UTF-8'?>
<!-- Created with Inkscape (http://www.inkscape.org/) and export_objects.py -->
<svg xmlns:cc="http://creativecommons.org/ns#" xmlns:dc="http://purl.org/dc/elements/1.1/" xmlns:inkscape="http://www.inkscape.org/namespaces/inkscape" xmlns:rdf="http://www.w3.org/1999/02/22-rdf-syntax-ns#" xmlns:sodipodi="http://sodipodi.sourceforge.net/DTD/sodipodi-0.dtd" xmlns:xlink="http://www.w3.org/1999/xlink" xmlns="http://www.w3.org/2000/svg" version="1.1" width="1.25in" height="1.61083979167in" viewBox="0 0 31.75 40.9153307083" id="svg2108" inkscape:version="0.92.3 (2405546, 2018-03-11)" sodipodi:docname="tile-08.svg"><sodipodi:namedview id="base" pagecolor="#ffffff" bordercolor="#666666" borderopacity="1.0" inkscape:pageopacity="0.0" inkscape:pageshadow="2" inkscape:zoom="0.75429812" inkscape:cx="420" inkscape:cy="359.3203" inkscape:document-units="pt" inkscape:current-layer="layer8" showgrid="true" units="in" inkscape:snap-grids="true" inkscape:snap-object-midpoints="true" inkscape:window-width="1920" inkscape:window-height="1006" inkscape:window-x="1909" inkscape:window-y="-11" inkscape:window-maximized="1">
    <inkscape:grid type="xygrid" id="grid2653" units="pt"/>
  </sodipodi:namedview>
  <metadata id="metadata2105">
    <rdf:RDF>
      <cc:Work rdf:about="">
        <dc:format>image/svg+xml</dc:format>
        <dc:type rdf:resource="http://purl.org/dc/dcmitype/StillImage"/>
        <dc:title/>
      </cc:Work>
    </rdf:RDF>
  </metadata>
  <g inkscape:groupmode="layer" inkscape:label="tile-" transform="matrix(1.000000,0.000000,0.000000,1.000000,-38.100000,-76.559669)"><path style="fill:#800000;stroke-width:0;stroke-linecap:round;stroke-miterlimit:44.95529938;paint-order:markers fill stroke" d="M 204 289.35938 L 144 324 L 144 444 L 264 444 L 264 324 L 204 289.35938 z M 168 336 A 12 12 0 0 1 180 348 A 12 12 0 0 1 168 360 A 12 12 0 0 1 156 348 A 12 12 0 0 1 168 336 z M 240 336 A 12 12 0 0 1 252 348 A 12 12 0 0 1 240 360 A 12 12 0 0 1 228 348 A 12 12 0 0 1 240 336 z M 204 372 A 12 12 0 0 1 216 384 A 12 12 0 0 1 204 396 A 12 12 0 0 1 192 384 A 12 12 0 0 1 204 372 z M 168 408 A 12 12 0 0 1 180 420 A 12 12 0 0 1 168 432 A 12 12 0 0 1 156 420 A 12 12 0 0 1 168 408 z M 240 408 A 12 12 0 0 1 252 420 A 12 12 0 0 1 240 432 A 12 12 0 0 1 228 420 A 12 12 0 0 1 240 408 z " transform="scale(0.26458334)" id="path2799" inkscape:label="08"/>
    </g></svg>
