<?xml version='1.0' encoding='UTF-8'?>
<!-- Created with Inkscape (http://www.inkscape.org/) and export_objects.py -->
<svg xmlns:cc="http://creativecommons.org/ns#" xmlns:dc="http://purl.org/dc/elements/1.1/" xmlns:inkscape="http://www.inkscape.org/namespaces/inkscape" xmlns:rdf="http://www.w3.org/1999/02/22-rdf-syntax-ns#" xmlns:sodipodi="http://sodipodi.sourceforge.net/DTD/sodipodi-0.dtd" xmlns:xlink="http://www.w3.org/1999/xlink" xmlns="http://www.w3.org/2000/svg" version="1.1" width="1.25in" height="1.61083979167in" viewBox="0 0 31.75 40.9153307083" id="svg2108" inkscape:version="0.92.3 (2405546, 2018-03-11)" sodipodi:docname="tile-07.svg"><sodipodi:namedview id="base" pagecolor="#ffffff" bordercolor="#666666" borderopacity="1.0" inkscape:pageopacity="0.0" inkscape:pageshadow="2" inkscape:zoom="0.75429812" inkscape:cx="420" inkscape:cy="359.3203" inkscape:document-units="pt" inkscape:current-layer="layer8" showgrid="true" units="in" inkscape:snap-grids="true" inkscape:snap-object-midpoints="true" inkscape:window-width="1920" inkscape:window-height="1006" inkscape:window-x="1909" inkscape:window-y="-11" inkscape:window-maximized="1">
    <inkscape:grid type="xygrid" id="grid2653" units="pt"/>
  </sodipodi:namedview>
  <metadata id="metadata2105">
    <rdf:RDF>
      <cc:Work rdf:about="">
        <dc:format>image/svg+xml</dc:format>
        <dc:type rdf:resource="http://purl.org/dc/dcmitype/StillImage"/>
        <dc:title/>
      </cc:Work>
    </rdf:RDF>
  </metadata>
  <g inkscape:groupmode="layer" inkscape:label="tile-" transform="matrix(1.000000,0.000000,0.000000,1.000000,-76.200000,-76.559669)"><path style="fill:#800000;stroke-width:0;stroke-linecap:round;stroke-miterlimit:44.95529938;paint-order:markers fill stroke" d="M 348 289.35938 L 288 324 L 288 444 L 408 444 L 408 324 L 348 289.35938 z M 312 336 A 12 12 0 0 1 324 348 A 12 12 0 0 1 312 360 A 12 12 0 0 1 300 348 A 12 12 0 0 1 312 336 z M 384 336 A 12 12 0 0 1 396 348 A 12 12 0 0 1 384 360 A 12 12 0 0 1 372 348 A 12 12 0 0 1 384 336 z M 312 372 A 12 12 0 0 1 324 384 A 12 12 0 0 1 312 396 A 12 12 0 0 1 300 384 A 12 12 0 0 1 312 372 z M 384 372 A 12 12 0 0 1 396 384 A 12 12 0 0 1 384 396 A 12 12 0 0 1 372 384 A 12 12 0 0 1 384 372 z M 312 408 A 12 12 0 0 1 324 420 A 12 12 0 0 1 312 432 A 12 12 0 0 1 300 420 A 12 12 0 0 1 312 408 z M 384 408 A 12 12 0 0 1 396 420 A 12 12 0 0 1 384 432 A 12 12 0 0 1 372 420 A 12 12 0 0 1 384 408 z " transform="scale(0.26458334)" id="path2779" inkscape:label="07"/>
    </g></svg>
