<?xml version="1.0" encoding="UTF-8" standalone="no"?>
<!-- Created with Inkscape (http://www.inkscape.org/) and export_objects.py -->

<svg
   xmlns:dc="http://purl.org/dc/elements/1.1/"
   xmlns:cc="http://creativecommons.org/ns#"
   xmlns:rdf="http://www.w3.org/1999/02/22-rdf-syntax-ns#"
   xmlns:svg="http://www.w3.org/2000/svg"
   xmlns="http://www.w3.org/2000/svg"
   xmlns:sodipodi="http://sodipodi.sourceforge.net/DTD/sodipodi-0.dtd"
   xmlns:inkscape="http://www.inkscape.org/namespaces/inkscape"
   version="1.1"
   id="Layer_1"
   x="0px"
   y="0px"
   width="2in"
   height="3in"
   viewBox="0 0 191.99999 288.00002"
   enable-background="new 0 0 1400 980"
   xml:space="preserve"
   sodipodi:docname="suit-cup.svg"
   inkscape:version="0.92.3 (2405546, 2018-03-11)"><defs
   id="defs19" /><sodipodi:namedview
   pagecolor="#ffffff"
   bordercolor="#666666"
   borderopacity="1"
   objecttolerance="10"
   gridtolerance="10"
   guidetolerance="10"
   inkscape:pageopacity="0"
   inkscape:pageshadow="2"
   inkscape:window-width="1280"
   inkscape:window-height="940"
   id="namedview349"
   showgrid="false"
   inkscape:zoom="1.9963411"
   inkscape:cx="51.463802"
   inkscape:cy="166.17471"
   inkscape:window-x="1909"
   inkscape:window-y="43"
   inkscape:window-maximized="1"
   inkscape:current-layer="g16"
   units="in"
   inkscape:snap-page="true"
   inkscape:snap-bbox="true"
   inkscape:snap-bbox-edge-midpoints="true" />
<metadata
   id="metadata353"><rdf:RDF><cc:Work
       rdf:about=""><dc:format>image/svg+xml</dc:format><dc:type
         rdf:resource="http://purl.org/dc/dcmitype/StillImage" /><dc:title></dc:title></cc:Work></rdf:RDF></metadata><g
   inkscape:groupmode="layer"
   inkscape:label="suit-"
   transform="translate(-416.467,-348.887)"
   id="g16"><path
     d="m 512.16594,416.13356 c -46.39266,0 -95.69893,-11.78369 -95.69893,-33.62452 0,-21.8396 49.30627,-33.62204 95.69893,-33.62204 46.39142,0 95.69769,11.78244 95.69769,33.62204 0,21.83959 -49.30627,33.62452 -95.69769,33.62452 z m 0,-57.93645 c -53.52254,0 -86.38758,14.15906 -86.38758,24.31193 0,10.15286 32.8638,24.31317 86.38758,24.31317 53.52254,0 86.38758,-14.16155 86.38758,-24.31317 0,-10.15162 -32.86504,-24.31193 -86.38758,-24.31193 z"
     id="path154"
     inkscape:connector-curvature="0"
     style="fill:#800000;fill-opacity:1;stroke-width:0.99999994" /><path
     d="m 512.16097,513.385 c -2.14418,0 -4.07333,-1.4916 -4.54443,-3.67183 -0.54443,-2.51212 1.05034,-4.98818 3.55997,-5.5351 v 0 c 0.24363,-0.0522 24.60528,-5.52516 47.42187,-23.26657 30.22366,-23.499 43.67297,-56.46721 39.97255,-97.98854 -0.22747,-2.56184 1.66189,-4.82162 4.22373,-5.05033 2.53697,-0.22001 4.82161,1.6619 5.05032,4.22373 4.99688,56.07567 -21.07141,88.80771 -43.81964,106.38877 -24.47476,18.91978 -49.8072,24.56177 -50.87494,24.79297 -0.33188,0.0721 -0.66376,0.1069 -0.98943,0.1069 z"
     id="path156"
     inkscape:connector-curvature="0"
     style="fill:#800000;fill-opacity:1;stroke-width:0.99999994" /><path
     d="m 512.15973,535.10651 c -2.33685,0 -4.35301,-1.75388 -4.6215,-4.13299 -0.28713,-2.55313 1.54754,-4.85642 4.09943,-5.14728 1.39465,-0.16408 32.55057,-4.17153 32.51576,-32.57046 -0.002,-2.57177 2.07955,-4.65878 4.65008,-4.66251 10e-4,0 0.004,0 0.006,0 2.56805,0 4.65257,2.08079 4.65505,4.65008 0.0361,29.44803 -26.65748,40.24228 -40.77801,41.83208 -0.17775,0.0236 -0.35301,0.0311 -0.52703,0.0311 z"
     id="path158"
     inkscape:connector-curvature="0"
     style="fill:#800000;fill-opacity:1;stroke-width:0.99999994" /><path
     d="m 512.78123,513.385 c -0.32567,0 -0.65755,-0.0348 -0.98943,-0.1069 -1.0665,-0.23244 -26.40018,-5.87444 -50.87494,-24.79297 -22.74948,-17.5823 -48.81653,-50.31434 -43.81965,-106.38877 0.22747,-2.56183 2.49844,-4.44374 5.05033,-4.22373 2.56183,0.22871 4.4512,2.48974 4.22373,5.05033 -3.71161,41.6506 9.82595,74.68718 40.23979,98.19737 22.82778,17.64321 46.90976,23.00553 47.1509,23.05649 2.51211,0.54568 4.10813,3.02423 3.56494,5.53635 -0.47235,2.18023 -2.40149,3.67183 -4.54567,3.67183 z"
     id="path160"
     inkscape:connector-curvature="0"
     style="fill:#800000;fill-opacity:1;stroke-width:0.99999994" /><path
     d="m 512.78247,535.10651 c -0.17402,0 -0.35053,-0.009 -0.52703,-0.0298 -14.12178,-1.58981 -40.81531,-12.38406 -40.77926,-41.83208 0.002,-2.56929 2.08701,-4.65008 4.6563,-4.65008 0.001,0 0.002,0 0.006,0 2.57054,0.004 4.65257,2.09073 4.65008,4.66251 -0.0348,28.56922 31.18078,32.4188 32.50955,32.57045 2.55562,0.28713 4.39402,2.59166 4.10564,5.14728 -0.26849,2.37538 -2.28464,4.13175 -4.62149,4.13175 z"
     id="path162"
     inkscape:connector-curvature="0"
     style="fill:#800000;fill-opacity:1;stroke-width:0.99999994" /><path
     d="m 512.47048,583.60234 c -5.16842,0 -17.64943,-0.69609 -21.9005,-7.13236 -0.50342,-0.76197 -0.77191,-1.6532 -0.77191,-2.56557 v -49.64436 c 0,-2.57178 2.08452,-4.6563 4.6563,-4.6563 2.57177,0 4.65629,2.08452 4.65629,4.6563 v 47.67793 c 1.81355,1.03418 6.39899,2.35549 13.36106,2.35549 6.9571,0 11.5413,-1.31882 13.3623,-2.35798 v -47.6742 c 0,-2.57177 2.08328,-4.65629 4.6563,-4.65629 2.57177,0 4.65505,2.08452 4.65505,4.65629 v 49.64437 c 0,0.91236 -0.26849,1.8036 -0.77191,2.56556 -4.25232,6.43503 -16.73333,7.13112 -21.90298,7.13112 z"
     id="path164"
     inkscape:connector-curvature="0"
     style="fill:#800000;fill-opacity:1;stroke-width:0.99999994" /><path
     d="m 512.77626,592.3966 c -13.77871,0 -28.09067,-5.83591 -30.6264,-12.49096 -1.30267,-3.41826 -1.20944,-6.60533 0.27719,-9.46797 3.07395,-5.91546 11.11246,-8.01489 11.45429,-8.1019 1.24673,-0.31697 2.51211,0.43754 2.82908,1.68303 0.31448,1.24425 -0.43629,2.50962 -1.6793,2.82659 v 0 c -0.0634,0.0174 -6.38034,1.688 -8.47729,5.7489 -0.85519,1.65319 -0.87259,3.50278 -0.0534,5.65318 1.45804,3.82224 13.13234,9.49283 26.27712,9.49283 13.25664,0 24.22616,-5.71409 25.66556,-9.49158 0.82038,-2.15537 0.80049,-4.00869 -0.0609,-5.66562 -2.087,-4.01863 -8.40271,-5.72031 -8.46735,-5.73522 -1.24549,-0.31697 -1.99999,-1.58359 -1.68302,-2.82908 0.31821,-1.24674 1.57985,-2 2.82907,-1.68303 0.34059,0.0858 8.38034,2.18644 11.45305,8.1019 1.48663,2.86264 1.5811,6.04971 0.27719,9.46797 -2.57675,6.77065 -16.32189,12.49096 -30.01483,12.49096 z"
     id="path166"
     inkscape:connector-curvature="0"
     style="fill:#800000;fill-opacity:1;stroke-width:0.99999994" /><path
     d="m 512.47669,612.5718 c -0.005,0 -0.002,0 -0.006,0 -29.88681,0 -60.09804,-10.89866 -67.34351,-24.29452 -2.98819,-5.52392 -2.74456,-11.73272 0.68365,-17.48535 7.11247,-11.93657 26.20627,-19.64693 48.64375,-19.64693 2.57177,0 4.65629,2.08576 4.65629,4.65505 0,2.56929 -2.08452,4.65505 -4.65629,4.65505 -21.86073,0 -36.16523,7.58606 -40.64501,15.10002 -1.73151,2.90491 -1.89683,5.69545 -0.49223,8.2896 4.38656,8.10688 29.01048,19.41449 59.15459,19.41449 10e-4,0 0.004,0 0.006,0 30.76561,0 55.84572,-11.41327 58.93583,-18.96328 1.0839,-2.64635 0.95338,-4.98072 -0.41144,-7.34615 -4.26599,-7.4021 -19.64941,-13.58605 -41.14718,-16.53818 -2.54692,-0.35053 -4.32814,-2.69857 -3.97761,-5.24672 0.34804,-2.54816 2.68116,-4.33188 5.24423,-3.97886 25.41821,3.4916 41.99864,10.79301 47.94767,21.11243 2.79924,4.85394 3.13112,10.22247 0.96084,15.52513 -5.49035,13.41575 -36.4275,24.74698 -67.55358,24.74822 z"
     id="path168"
     inkscape:connector-curvature="0"
     style="fill:#800000;fill-opacity:1;stroke-width:0.99999994" /><path
     d="m 425.74355,393.96581 c -0.70478,0 -1.39962,-0.31821 -1.85829,-0.92479 -0.77563,-1.02548 -0.57302,-2.48601 0.45245,-3.26041 15.19947,-11.48909 50.86997,-18.91107 90.87856,-18.91107 36.51824,0 69.78353,6.21254 86.8127,16.21375 1.10751,0.6501 1.47917,2.07582 0.82784,3.18582 -0.65134,1.11125 -2.07458,1.47794 -3.18582,0.82785 -16.35546,-9.60594 -48.71709,-15.57237 -84.45472,-15.57237 -38.4598,0 -73.85188,7.22186 -88.07185,17.97012 -0.41889,0.31821 -0.91112,0.4711 -1.40087,0.4711 z"
     id="path170"
     inkscape:connector-curvature="0"
     style="fill:#800000;fill-opacity:1;stroke-width:0.99999994" /><path
     d="m 515.21752,434.49647 c -44.49833,0 -83.60699,-9.3822 -95.10726,-22.81536 -0.83655,-0.97575 -0.72095,-2.44623 0.25481,-3.28277 0.98073,-0.83654 2.44748,-0.71846 3.28278,0.25481 10.50836,12.27716 49.02037,21.18826 91.56967,21.18826 36.6214,0 70.34288,-6.46362 85.91027,-16.46608 1.08017,-0.69608 2.52205,-0.38285 3.21565,0.69981 0.69608,1.08266 0.3816,2.52206 -0.69981,3.21565 -16.51581,10.61278 -50.39763,17.20568 -88.42611,17.20568 z"
     id="path172"
     inkscape:connector-curvature="0"
     style="fill:#800000;fill-opacity:1;stroke-width:0.99999994" /></g></svg>