<?xml version="1.0" encoding="UTF-8" standalone="no"?>
<!-- Created with Inkscape (http://www.inkscape.org/) -->

<svg
   width="0.7874012in"
   height="0.68190956in"
   viewBox="0 0 19.99999 17.320503"
   version="1.1"
   id="svg1"
   inkscape:version="1.4 (86a8ad7, 2024-10-11)"
   sodipodi:docname="heptiamonds-pieces-vector.svg"
   xmlns:inkscape="http://www.inkscape.org/namespaces/inkscape"
   xmlns:sodipodi="http://sodipodi.sourceforge.net/DTD/sodipodi-0.dtd"
   xmlns="http://www.w3.org/2000/svg"
   xmlns:svg="http://www.w3.org/2000/svg">
  <sodipodi:namedview
     id="namedview1"
     pagecolor="#ffffff"
     bordercolor="#cccccc"
     borderopacity="1"
     inkscape:showpageshadow="0"
     inkscape:pageopacity="1"
     inkscape:pagecheckerboard="0"
     inkscape:deskcolor="#d1d1d1"
     inkscape:document-units="mm"
     showgrid="true"
     inkscape:zoom="2.9656421"
     inkscape:cx="928.97253"
     inkscape:cy="586.0451"
     inkscape:window-width="2880"
     inkscape:window-height="1514"
     inkscape:window-x="-11"
     inkscape:window-y="-11"
     inkscape:window-maximized="1"
     inkscape:current-layer="layer3"
     showguides="true">
    <inkscape:grid
       id="grid1"
       units="mm"
       originx="-180.00002"
       originy="-121.67949"
       spacingx="1"
       spacingy="1"
       empcolor="#0099e5"
       empopacity="0.30196078"
       color="#0099e5"
       opacity="0.14901961"
       empspacing="4"
       enabled="true"
       visible="true" />
    <sodipodi:guide
       position="58.71633,-10.575918"
       orientation="1,0"
       id="guide446"
       inkscape:locked="false" />
    <sodipodi:guide
       position="61.33322,-11.238918"
       orientation="1,0"
       id="guide447"
       inkscape:locked="false" />
    <sodipodi:guide
       position="108.71322,5.4159618"
       orientation="1,0"
       id="guide448"
       inkscape:locked="false" />
    <sodipodi:guide
       position="111.31772,5.0405118"
       orientation="1,0"
       id="guide449"
       inkscape:locked="false" />
    <inkscape:page
       x="0"
       y="0"
       width="19.99999"
       height="17.320503"
       id="page2"
       margin="0"
       bleed="0" />
  </sodipodi:namedview>
  <defs
     id="defs1">
    <inkscape:path-effect
       effect="offset"
       id="path-effect103"
       is_visible="true"
       lpeversion="1.3"
       linejoin_type="miter"
       unit="mm"
       offset="-2"
       miter_limit="4"
       attempt_force_join="false"
       update_on_knot_move="true" />
    <inkscape:path-effect
       effect="pts2ellipse"
       id="path-effect102"
       is_visible="true"
       lpeversion="1"
       method="auto"
       gen_arc="false"
       arc_other="false"
       slice_arc="false"
       gen_isometric_frame="false"
       draw_axes="false"
       gen_perspective_frame="false"
       draw_perspective_axes="false"
       rot_axes="0"
       draw_ori_path="false" />
    <inkscape:path-effect
       effect="offset"
       id="path-effect98"
       is_visible="true"
       lpeversion="1.3"
       linejoin_type="miter"
       unit="mm"
       offset="-1"
       miter_limit="4"
       attempt_force_join="false"
       update_on_knot_move="true" />
  </defs>
  <g
     inkscape:groupmode="layer"
     id="layer11"
     inkscape:label="Generic triangle"
     style="display:inline"
     transform="translate(-180.00002,-121.67949)">
    <path
       sodipodi:type="star"
       style="fill:#ffbdbd;stroke:none;stroke-width:0.13338;stroke-linecap:butt"
       id="path66"
       inkscape:flatsided="true"
       sodipodi:sides="3"
       sodipodi:cx="183.98627"
       sodipodi:cy="132.97198"
       sodipodi:r1="8.7508144"
       sodipodi:r2="4.3754072"
       sodipodi:arg1="-1.5707963"
       sodipodi:arg2="-0.52359878"
       inkscape:rounded="0"
       inkscape:randomized="0"
       d="m 183.98627,124.22117 7.57842,13.12622 -15.15685,0 z"
       inkscape:transform-center-y="-2.8867563"
       transform="matrix(1.3195349,0,0,1.3195349,-52.776296,-42.234682)"
       inkscape:transform-center-x="6.4745395e-06" />
  </g>
  <g
     inkscape:groupmode="layer"
     id="layer12"
     inkscape:label="Top generic triangle"
     style="display:inline"
     transform="translate(-180.00002,-121.67949)">
    <path
       sodipodi:type="star"
       style="fill:#c20000;stroke:none;stroke-width:0.13338;stroke-linecap:butt"
       id="path98"
       inkscape:flatsided="true"
       sodipodi:sides="3"
       sodipodi:cx="183.98627"
       sodipodi:cy="132.97198"
       sodipodi:r1="8.7508144"
       sodipodi:r2="4.3754072"
       sodipodi:arg1="-1.5707963"
       sodipodi:arg2="-0.52359878"
       inkscape:rounded="0"
       inkscape:randomized="0"
       d="m 183.98633,125.75586 6.24804,10.82422 h -12.49609 z"
       inkscape:transform-center-y="-2.8867563"
       transform="matrix(1.3195349,0,0,1.3195349,-52.776296,-42.234681)"
       inkscape:transform-center-x="6.4745395e-06"
       inkscape:path-effect="#path-effect98" />
  </g>
  <g
     inkscape:groupmode="layer"
     id="layer13"
     inkscape:label="Circle"
     style="display:inline"
     transform="translate(-180.00002,-121.67949)">
    <path
       style="fill:#ffbdbd;stroke:none;stroke-width:0.176;stroke-linecap:butt"
       d="m 179.26758,116.01563 c 2.10236,0 3.76367,1.66131 3.76367,3.76367 0,2.10235 -1.66131,3.76367 -3.76367,3.76367 -2.10236,0 -3.76367,-1.66132 -3.76367,-3.76367 0,-2.10236 1.66131,-3.76368 3.76367,-3.76367 z"
       id="path102"
       inkscape:path-effect="#path-effect102;#path-effect103"
       inkscape:original-d="m 179.2676,114.00575 v 11.547"
       transform="translate(10.732407,13.447239)" />
  </g>
  <g
     inkscape:groupmode="layer"
     id="layer14"
     inkscape:label="Piece label"
     style="display:inline"
     transform="translate(-180.00002,-121.67949)">
    <path
       d="m 190.02944,131.1522 q 0.0155,0 0.21084,-0.006 l 0.0992,0.003 0.19534,0.003 q 0.0124,0.0992 0.0124,0.14572 0,0.0155 -0.003,0.0961 -0.003,0.0434 -0.006,0.33177 l -0.006,0.46818 0.003,0.29456 -0.0217,2.0929 v 0.17673 q 0,0.093 0.0434,0.13332 0.0434,0.0403 0.23255,0.0682 0.0744,0.009 0.29765,0.0496 0.006,0.031 0.006,0.0589 0,0.0341 -0.006,0.14883 h -0.13332 q -0.13643,0 -0.39688,-0.0124 -0.15813,-0.009 -0.21704,-0.009 -0.0744,0 -0.5488,0.0155 -0.0527,0.003 -0.0868,0.003 h -0.0558 l -0.0899,-0.006 -0.0837,0.006 -0.15503,-0.006 q -0.031,0 -0.12712,0.009 -0.006,-0.0682 -0.006,-0.10542 0,-0.0341 0.006,-0.10232 0.12402,-0.0341 0.28835,-0.0682 0.22634,-0.0465 0.27595,-0.0899 0.0527,-0.0465 0.0527,-0.12093 l -0.003,-0.21084 0.0124,-0.22944 -0.003,-0.47129 -0.003,-0.12092 q 0,-0.0248 0.006,-0.18604 0.006,-0.0837 0.006,-0.14882 0,-0.0403 -0.009,-0.25115 l 0.0124,-0.17674 q -0.0124,-0.20153 -0.0124,-0.23874 0,-0.0465 0.003,-0.093 l 0.006,-0.0775 -0.009,-0.21084 0.009,-0.0961 q 0.003,-0.0651 0.003,-0.17363 0,-0.10542 -0.003,-0.25735 -0.22014,0.16433 -0.50229,0.32866 -0.031,0.0186 -0.27905,0.12712 -0.0992,-0.14882 -0.12713,-0.22324 0.32867,-0.17053 0.44649,-0.25115 0.19533,-0.13642 0.42168,-0.34106 0.0961,-0.0899 0.24494,-0.27595 z"
       id="text103"
       style="font-weight:bold;font-size:6.35px;line-height:7.45115px;font-family:Garamond;-inkscape-font-specification:'Garamond Bold';text-align:center;letter-spacing:0px;word-spacing:0px;text-anchor:middle;stroke-width:0.176"
       aria-label="1" />
  </g>
</svg>
