<?xml version="1.0" encoding="UTF-8" standalone="no"?>
<!-- Created with Inkscape (http://www.inkscape.org/) -->

<svg
   width="0.7874012in"
   height="0.68190956in"
   viewBox="0 0 19.99999 17.320503"
   version="1.1"
   id="svg1"
   inkscape:version="1.4 (86a8ad7, 2024-10-11)"
   sodipodi:docname="heptiamonds-pieces-vector.svg"
   xmlns:inkscape="http://www.inkscape.org/namespaces/inkscape"
   xmlns:sodipodi="http://sodipodi.sourceforge.net/DTD/sodipodi-0.dtd"
   xmlns="http://www.w3.org/2000/svg"
   xmlns:svg="http://www.w3.org/2000/svg">
  <sodipodi:namedview
     id="namedview1"
     pagecolor="#ffffff"
     bordercolor="#cccccc"
     borderopacity="1"
     inkscape:showpageshadow="0"
     inkscape:pageopacity="1"
     inkscape:pagecheckerboard="0"
     inkscape:deskcolor="#d1d1d1"
     inkscape:document-units="mm"
     showgrid="true"
     inkscape:zoom="2.9656421"
     inkscape:cx="928.97253"
     inkscape:cy="586.0451"
     inkscape:window-width="2880"
     inkscape:window-height="1514"
     inkscape:window-x="-11"
     inkscape:window-y="-11"
     inkscape:window-maximized="1"
     inkscape:current-layer="layer3"
     showguides="true">
    <inkscape:grid
       id="grid1"
       units="mm"
       originx="-220.00002"
       originy="-121.67949"
       spacingx="1"
       spacingy="1"
       empcolor="#0099e5"
       empopacity="0.30196078"
       color="#0099e5"
       opacity="0.14901961"
       empspacing="4"
       enabled="true"
       visible="true" />
    <sodipodi:guide
       position="18.71633,-10.575918"
       orientation="1,0"
       id="guide446"
       inkscape:locked="false" />
    <sodipodi:guide
       position="21.33322,-11.238918"
       orientation="1,0"
       id="guide447"
       inkscape:locked="false" />
    <sodipodi:guide
       position="68.713219,5.4159618"
       orientation="1,0"
       id="guide448"
       inkscape:locked="false" />
    <sodipodi:guide
       position="71.317719,5.0405118"
       orientation="1,0"
       id="guide449"
       inkscape:locked="false" />
    <inkscape:page
       x="0"
       y="0"
       width="19.99999"
       height="17.320503"
       id="page2"
       margin="0"
       bleed="0" />
  </sodipodi:namedview>
  <defs
     id="defs1">
    <inkscape:path-effect
       effect="offset"
       id="path-effect173"
       is_visible="true"
       lpeversion="1.3"
       linejoin_type="miter"
       unit="mm"
       offset="-2"
       miter_limit="4"
       attempt_force_join="false"
       update_on_knot_move="true" />
    <inkscape:path-effect
       effect="pts2ellipse"
       id="path-effect171"
       is_visible="true"
       lpeversion="1"
       method="auto"
       gen_arc="false"
       arc_other="false"
       slice_arc="false"
       gen_isometric_frame="false"
       draw_axes="false"
       gen_perspective_frame="false"
       draw_perspective_axes="false"
       rot_axes="0"
       draw_ori_path="false" />
    <inkscape:path-effect
       effect="offset"
       id="path-effect167"
       is_visible="true"
       lpeversion="1.3"
       linejoin_type="miter"
       unit="mm"
       offset="-1"
       miter_limit="4"
       attempt_force_join="false"
       update_on_knot_move="true" />
  </defs>
  <g
     inkscape:groupmode="layer"
     id="layer11"
     inkscape:label="Generic triangle"
     style="display:inline"
     transform="translate(-220.00003,-121.67949)">
    <path
       sodipodi:type="star"
       style="fill:#ffdebd;stroke:none;stroke-width:0.13338;stroke-linecap:butt"
       id="path111"
       inkscape:flatsided="true"
       sodipodi:sides="3"
       sodipodi:cx="183.98627"
       sodipodi:cy="132.97198"
       sodipodi:r1="8.7508144"
       sodipodi:r2="4.3754072"
       sodipodi:arg1="-1.5707963"
       sodipodi:arg2="-0.52359878"
       inkscape:rounded="0"
       inkscape:randomized="0"
       d="m 183.98627,124.22117 7.57842,13.12622 -15.15685,0 z"
       inkscape:transform-center-y="-2.8867563"
       transform="matrix(1.3195349,0,0,1.3195349,-12.776298,-42.23468)"
       inkscape:transform-center-x="6.4745395e-06"
       inkscape:export-filename="t03.svg"
       inkscape:export-xdpi="96"
       inkscape:export-ydpi="96" />
  </g>
  <g
     inkscape:groupmode="layer"
     id="layer12"
     inkscape:label="Top generic triangle"
     style="display:inline"
     transform="translate(-220.00003,-121.67949)">
    <path
       sodipodi:type="star"
       style="fill:#c26100;stroke:none;stroke-width:0.13338;stroke-linecap:butt"
       id="path113"
       inkscape:flatsided="true"
       sodipodi:sides="3"
       sodipodi:cx="183.98627"
       sodipodi:cy="132.97198"
       sodipodi:r1="8.7508144"
       sodipodi:r2="4.3754072"
       sodipodi:arg1="-1.5707963"
       sodipodi:arg2="-0.52359878"
       inkscape:rounded="0"
       inkscape:randomized="0"
       d="m 183.98633,125.75586 6.24804,10.82422 h -12.49609 z"
       inkscape:transform-center-y="-2.8867563"
       transform="matrix(1.3195349,0,0,1.3195349,-12.776298,-42.234679)"
       inkscape:transform-center-x="6.4745395e-06"
       inkscape:path-effect="#path-effect167" />
  </g>
  <g
     inkscape:groupmode="layer"
     id="layer13"
     inkscape:label="Circle"
     style="display:inline"
     transform="translate(-220.00003,-121.67949)">
    <path
       style="fill:#ffdebd;stroke:none;stroke-width:0.176;stroke-linecap:butt"
       d="m 179.26758,116.01563 c 2.10236,0 3.76367,1.66131 3.76367,3.76367 0,2.10235 -1.66131,3.76367 -3.76367,3.76367 -2.10236,0 -3.76367,-1.66132 -3.76367,-3.76367 0,-2.10236 1.66131,-3.76368 3.76367,-3.76367 z"
       id="path115"
       inkscape:path-effect="#path-effect171;#path-effect173"
       inkscape:original-d="m 179.2676,114.00575 v 11.547"
       transform="translate(50.732405,13.447241)" />
  </g>
  <g
     inkscape:groupmode="layer"
     id="layer14"
     inkscape:label="Piece label"
     style="display:inline"
     transform="translate(-220.00003,-121.67949)">
    <path
       d="m 229.56281,133.35361 q -0.093,-0.11782 -0.15193,-0.18603 0.5643,-0.40928 0.75344,-0.66663 0.12402,-0.16433 0.12402,-0.35657 0,-0.19843 -0.14262,-0.34416 -0.14263,-0.14573 -0.32557,-0.14573 -0.37827,0 -0.68833,0.46199 l -0.19533,-0.10542 q 0.14882,-0.32556 0.29145,-0.48679 0.14573,-0.16433 0.41238,-0.27906 0.20154,-0.0868 0.50229,-0.0868 0.40618,0 0.62632,0.20464 0.22014,0.20154 0.22014,0.50849 0,0.24185 -0.15192,0.46509 -0.15193,0.22014 -0.53951,0.48369 h 0.0651 q 0.41547,0 0.67592,0.31936 0.26355,0.31936 0.26355,0.69763 0,0.31937 -0.14882,0.66663 -0.14573,0.34727 -0.53951,0.58601 -0.39377,0.23565 -0.96738,0.23565 -0.555,0 -0.84646,-0.19534 -0.18603,-0.12402 -0.18603,-0.29146 0,-0.11782 0.0899,-0.20463 0.0899,-0.0868 0.22945,-0.0868 0.11782,0 0.21704,0.062 0.0992,0.062 0.26975,0.27905 0.0868,0.11162 0.16743,0.14263 0.14263,0.0589 0.20774,0.0589 0.16433,0 0.34106,-0.11162 0.17984,-0.11162 0.28526,-0.36897 0.10542,-0.26045 0.10542,-0.60461 0,-0.36897 -0.18604,-0.57981 -0.18293,-0.21394 -0.40307,-0.21394 -0.16123,0 -0.37517,0.14262 z"
       id="text128"
       style="font-weight:bold;font-size:6.35px;line-height:7.45115px;font-family:Garamond;-inkscape-font-specification:'Garamond Bold';text-align:center;letter-spacing:0px;word-spacing:0px;text-anchor:middle;stroke-width:0.176"
       aria-label="3" />
  </g>
</svg>
