<?xml version="1.0" encoding="UTF-8" standalone="no"?>
<!-- Created with Inkscape (http://www.inkscape.org/) -->

<svg
   width="0.7874012in"
   height="0.68190956in"
   viewBox="0 0 19.99999 17.320503"
   version="1.1"
   id="svg1"
   inkscape:version="1.4 (86a8ad7, 2024-10-11)"
   sodipodi:docname="heptiamonds-pieces-vector.svg"
   xmlns:inkscape="http://www.inkscape.org/namespaces/inkscape"
   xmlns:sodipodi="http://sodipodi.sourceforge.net/DTD/sodipodi-0.dtd"
   xmlns="http://www.w3.org/2000/svg"
   xmlns:svg="http://www.w3.org/2000/svg">
  <sodipodi:namedview
     id="namedview1"
     pagecolor="#ffffff"
     bordercolor="#cccccc"
     borderopacity="1"
     inkscape:showpageshadow="0"
     inkscape:pageopacity="1"
     inkscape:pagecheckerboard="0"
     inkscape:deskcolor="#d1d1d1"
     inkscape:document-units="mm"
     showgrid="true"
     inkscape:zoom="2.9656421"
     inkscape:cx="928.97253"
     inkscape:cy="586.0451"
     inkscape:window-width="2880"
     inkscape:window-height="1514"
     inkscape:window-x="-11"
     inkscape:window-y="-11"
     inkscape:window-maximized="1"
     inkscape:current-layer="layer3"
     showguides="true">
    <inkscape:grid
       id="grid1"
       units="mm"
       originx="-210"
       originy="-138.99998"
       spacingx="1"
       spacingy="1"
       empcolor="#0099e5"
       empopacity="0.30196078"
       color="#0099e5"
       opacity="0.14901961"
       empspacing="4"
       enabled="true"
       visible="true" />
    <sodipodi:guide
       position="28.716345,6.7445716"
       orientation="1,0"
       id="guide446"
       inkscape:locked="false" />
    <sodipodi:guide
       position="31.333235,6.0815716"
       orientation="1,0"
       id="guide447"
       inkscape:locked="false" />
    <sodipodi:guide
       position="78.713235,22.736452"
       orientation="1,0"
       id="guide448"
       inkscape:locked="false" />
    <sodipodi:guide
       position="81.317735,22.361002"
       orientation="1,0"
       id="guide449"
       inkscape:locked="false" />
    <inkscape:page
       x="0"
       y="0"
       width="19.99999"
       height="17.320503"
       id="page2"
       margin="0"
       bleed="0" />
  </sodipodi:namedview>
  <defs
     id="defs1">
    <inkscape:path-effect
       effect="offset"
       id="path-effect310"
       is_visible="true"
       lpeversion="1.3"
       linejoin_type="miter"
       unit="mm"
       offset="-2"
       miter_limit="4"
       attempt_force_join="false"
       update_on_knot_move="true" />
    <inkscape:path-effect
       effect="pts2ellipse"
       id="path-effect308"
       is_visible="true"
       lpeversion="1"
       method="auto"
       gen_arc="false"
       arc_other="false"
       slice_arc="false"
       gen_isometric_frame="false"
       draw_axes="false"
       gen_perspective_frame="false"
       draw_perspective_axes="false"
       rot_axes="0"
       draw_ori_path="false" />
    <inkscape:path-effect
       effect="offset"
       id="path-effect294"
       is_visible="true"
       lpeversion="1.3"
       linejoin_type="miter"
       unit="mm"
       offset="-1"
       miter_limit="4"
       attempt_force_join="false"
       update_on_knot_move="true" />
  </defs>
  <g
     inkscape:groupmode="layer"
     id="layer11"
     inkscape:label="Generic triangle"
     style="display:inline"
     transform="translate(-210,-138.99998)">
    <path
       sodipodi:type="star"
       style="fill:#cdffbd;stroke:none;stroke-width:0.13338;stroke-linecap:butt"
       id="path197"
       inkscape:flatsided="true"
       sodipodi:sides="3"
       sodipodi:cx="183.98627"
       sodipodi:cy="132.97198"
       sodipodi:r1="8.7508144"
       sodipodi:r2="4.3754072"
       sodipodi:arg1="-1.5707963"
       sodipodi:arg2="-0.52359878"
       inkscape:rounded="0"
       inkscape:randomized="0"
       d="m 183.98627,124.22117 7.57842,13.12622 -15.15685,0 z"
       inkscape:transform-center-y="-2.8867563"
       transform="matrix(1.3195349,0,0,1.3195349,-22.776298,-24.914173)"
       inkscape:transform-center-x="6.4745395e-06" />
  </g>
  <g
     inkscape:groupmode="layer"
     id="layer12"
     inkscape:label="Top generic triangle"
     style="display:inline"
     transform="translate(-210,-138.99998)">
    <path
       sodipodi:type="star"
       style="fill:#30c200;stroke:none;stroke-width:0.13338;stroke-linecap:butt"
       id="path203"
       inkscape:flatsided="true"
       sodipodi:sides="3"
       sodipodi:cx="183.98627"
       sodipodi:cy="132.97198"
       sodipodi:r1="8.7508144"
       sodipodi:r2="4.3754072"
       sodipodi:arg1="-1.5707963"
       sodipodi:arg2="-0.52359878"
       inkscape:rounded="0"
       inkscape:randomized="0"
       d="m 183.98633,125.75586 6.24804,10.82422 h -12.49609 z"
       inkscape:transform-center-y="-2.8867563"
       transform="matrix(1.3195349,0,0,1.3195349,-22.776298,-24.914172)"
       inkscape:transform-center-x="6.4745395e-06"
       inkscape:path-effect="#path-effect294" />
  </g>
  <g
     inkscape:groupmode="layer"
     id="layer13"
     inkscape:label="Circle"
     style="display:inline"
     transform="translate(-210,-138.99998)">
    <path
       style="fill:#cdffbd;stroke:none;stroke-width:0.176;stroke-linecap:butt"
       d="m 179.26758,116.01563 c 2.10236,0 3.76367,1.66131 3.76367,3.76367 0,2.10235 -1.66131,3.76367 -3.76367,3.76367 -2.10236,0 -3.76367,-1.66132 -3.76367,-3.76367 0,-2.10236 1.66131,-3.76368 3.76367,-3.76367 z"
       id="path209"
       inkscape:path-effect="#path-effect308;#path-effect310"
       inkscape:original-d="m 179.2676,114.00575 v 11.547"
       transform="translate(40.732405,30.767748)" />
  </g>
  <g
     inkscape:groupmode="layer"
     id="layer14"
     inkscape:label="Piece label"
     style="display:inline"
     transform="translate(-210,-138.99998)">
    <path
       d="m 219.57521,150.62451 q -0.36277,-0.18913 -0.5333,-0.46508 -0.16743,-0.27906 -0.16743,-0.4961 0,-0.18293 0.0589,-0.40307 0.062,-0.22325 0.20774,-0.38758 0.14882,-0.16743 0.38447,-0.27595 0.23564,-0.11162 0.49609,-0.11162 0.48989,0 0.79685,0.27905 0.31006,0.27906 0.31006,0.69143 0,0.20154 -0.13332,0.41858 -0.13023,0.21394 -0.26976,0.28836 l -0.22634,0.13642 q 0,0.0155 0.16743,0.10852 0.17054,0.0899 0.37828,0.34727 0.14572,0.18603 0.18913,0.31316 0.0465,0.12712 0.0465,0.32556 0,0.29766 -0.0558,0.44338 -0.0341,0.0868 -0.14263,0.25425 -0.10542,0.16433 -0.18293,0.22945 -0.15813,0.13022 -0.44339,0.23564 -0.18603,0.0713 -0.41237,0.0713 -0.26665,0 -0.4992,-0.0558 -0.16743,-0.0403 -0.28525,-0.12712 -0.17984,-0.13333 -0.25735,-0.23565 -0.0775,-0.10232 -0.13333,-0.25114 -0.0744,-0.20464 -0.0744,-0.40618 0,-0.33486 0.26355,-0.60771 0.16433,-0.17364 0.5178,-0.31937 z m 0.21704,-0.73173 q 0.093,0.0651 0.48989,0.27285 l 0.062,-0.062 q 0.12403,-0.12403 0.17054,-0.24185 0.0682,-0.17363 0.0682,-0.41548 0,-0.32556 -0.16123,-0.49919 -0.16123,-0.17363 -0.40618,-0.17363 -0.24495,0 -0.41238,0.16433 -0.16743,0.16123 -0.16743,0.39377 0,0.16433 0.0837,0.29766 0.0837,0.13332 0.27285,0.26355 z m 0,0.87746 q -0.0496,0 -0.20154,0.17364 -0.20464,0.23874 -0.20464,0.58911 0,0.37827 0.19224,0.59221 0.19534,0.21084 0.47129,0.21084 0.29145,0 0.45578,-0.16433 0.16743,-0.16433 0.16743,-0.44959 0,-0.22944 -0.11162,-0.39377 -0.10852,-0.16433 -0.42478,-0.35967 -0.31316,-0.19844 -0.34416,-0.19844 z"
       id="text243"
       style="font-weight:bold;font-size:6.35px;line-height:7.45115px;font-family:Garamond;-inkscape-font-specification:'Garamond Bold';text-align:center;letter-spacing:0px;word-spacing:0px;text-anchor:middle;stroke-width:0.176"
       aria-label="8" />
  </g>
</svg>
