<?xml version="1.0" encoding="UTF-8" standalone="no"?>
<!-- Created with Inkscape (http://www.inkscape.org/) -->

<svg
   width="0.78740185in"
   height="0.68191022in"
   viewBox="0 0 20.000007 17.32052"
   version="1.1"
   id="svg1"
   inkscape:version="1.4 (86a8ad7, 2024-10-11)"
   sodipodi:docname="heptiamonds-pieces-vector.svg"
   xmlns:inkscape="http://www.inkscape.org/namespaces/inkscape"
   xmlns:sodipodi="http://sodipodi.sourceforge.net/DTD/sodipodi-0.dtd"
   xmlns="http://www.w3.org/2000/svg"
   xmlns:svg="http://www.w3.org/2000/svg">
  <sodipodi:namedview
     id="namedview1"
     pagecolor="#ffffff"
     bordercolor="#cccccc"
     borderopacity="1"
     inkscape:showpageshadow="0"
     inkscape:pageopacity="1"
     inkscape:pagecheckerboard="0"
     inkscape:deskcolor="#d1d1d1"
     inkscape:document-units="mm"
     showgrid="true"
     inkscape:zoom="2.9656421"
     inkscape:cx="928.97253"
     inkscape:cy="586.0451"
     inkscape:window-width="2880"
     inkscape:window-height="1514"
     inkscape:window-x="-11"
     inkscape:window-y="-11"
     inkscape:window-maximized="1"
     inkscape:current-layer="layer3"
     showguides="true">
    <inkscape:grid
       id="grid1"
       units="mm"
       originx="-230"
       originy="-138.99999"
       spacingx="1"
       spacingy="1"
       empcolor="#0099e5"
       empopacity="0.30196078"
       color="#0099e5"
       opacity="0.14901961"
       empspacing="4"
       enabled="true"
       visible="true" />
    <sodipodi:guide
       position="8.7163543,6.7445959"
       orientation="1,0"
       id="guide446"
       inkscape:locked="false" />
    <sodipodi:guide
       position="11.333244,6.0815959"
       orientation="1,0"
       id="guide447"
       inkscape:locked="false" />
    <sodipodi:guide
       position="58.713243,22.736476"
       orientation="1,0"
       id="guide448"
       inkscape:locked="false" />
    <sodipodi:guide
       position="61.317743,22.361026"
       orientation="1,0"
       id="guide449"
       inkscape:locked="false" />
    <inkscape:page
       x="0"
       y="-9.2877702e-13"
       width="20.000008"
       height="17.320518"
       id="page2"
       margin="0"
       bleed="0" />
  </sodipodi:namedview>
  <defs
     id="defs1">
    <inkscape:path-effect
       effect="offset"
       id="path-effect314"
       is_visible="true"
       lpeversion="1.3"
       linejoin_type="miter"
       unit="mm"
       offset="-2"
       miter_limit="4"
       attempt_force_join="false"
       update_on_knot_move="true" />
    <inkscape:path-effect
       effect="pts2ellipse"
       id="path-effect312"
       is_visible="true"
       lpeversion="1"
       method="auto"
       gen_arc="false"
       arc_other="false"
       slice_arc="false"
       gen_isometric_frame="false"
       draw_axes="false"
       gen_perspective_frame="false"
       draw_perspective_axes="false"
       rot_axes="0"
       draw_ori_path="false" />
    <inkscape:path-effect
       effect="offset"
       id="path-effect296"
       is_visible="true"
       lpeversion="1.3"
       linejoin_type="miter"
       unit="mm"
       offset="-1"
       miter_limit="4"
       attempt_force_join="false"
       update_on_knot_move="true" />
  </defs>
  <g
     inkscape:groupmode="layer"
     id="layer11"
     inkscape:label="Generic triangle"
     style="display:inline"
     transform="translate(-230,-138.99999)">
    <path
       sodipodi:type="star"
       style="fill:#bdffbd;stroke:none;stroke-width:0.13338;stroke-linecap:butt"
       id="path198"
       inkscape:flatsided="true"
       sodipodi:sides="3"
       sodipodi:cx="183.98627"
       sodipodi:cy="132.97198"
       sodipodi:r1="8.7508144"
       sodipodi:r2="4.3754072"
       sodipodi:arg1="-1.5707963"
       sodipodi:arg2="-0.52359878"
       inkscape:rounded="0"
       inkscape:randomized="0"
       d="m 183.98627,124.22117 7.57842,13.12622 -15.15685,0 z"
       inkscape:transform-center-y="-2.8867563"
       transform="matrix(1.3195349,0,0,1.3195349,-2.7762996,-24.914172)"
       inkscape:transform-center-x="6.4745395e-06" />
  </g>
  <g
     inkscape:groupmode="layer"
     id="layer12"
     inkscape:label="Top generic triangle"
     style="display:inline"
     transform="translate(-230,-138.99999)">
    <path
       sodipodi:type="star"
       style="fill:#00c200;stroke:none;stroke-width:0.13338;stroke-linecap:butt"
       id="path204"
       inkscape:flatsided="true"
       sodipodi:sides="3"
       sodipodi:cx="183.98627"
       sodipodi:cy="132.97198"
       sodipodi:r1="8.7508144"
       sodipodi:r2="4.3754072"
       sodipodi:arg1="-1.5707963"
       sodipodi:arg2="-0.52359878"
       inkscape:rounded="0"
       inkscape:randomized="0"
       d="m 183.98633,125.75586 6.24804,10.82422 h -12.49609 z"
       inkscape:transform-center-y="-2.8867563"
       transform="matrix(1.3195349,0,0,1.3195349,-2.7762996,-24.914171)"
       inkscape:transform-center-x="6.4745395e-06"
       inkscape:path-effect="#path-effect296" />
  </g>
  <g
     inkscape:groupmode="layer"
     id="layer13"
     inkscape:label="Circle"
     style="display:inline"
     transform="translate(-230,-138.99999)">
    <path
       style="fill:#bdffbd;stroke:none;stroke-width:0.176;stroke-linecap:butt"
       d="m 179.26758,116.01563 c 2.10236,0 3.76367,1.66131 3.76367,3.76367 0,2.10235 -1.66131,3.76367 -3.76367,3.76367 -2.10236,0 -3.76367,-1.66132 -3.76367,-3.76367 0,-2.10236 1.66131,-3.76368 3.76367,-3.76367 z"
       id="path210"
       inkscape:path-effect="#path-effect312;#path-effect314"
       inkscape:original-d="m 179.2676,114.00575 v 11.547"
       transform="translate(60.732404,30.767749)" />
  </g>
  <g
     inkscape:groupmode="layer"
     id="layer14"
     inkscape:label="Piece label"
     style="display:inline"
     transform="translate(-230,-138.99999)">
    <path
       style="display:inline;fill:#ffbf00;stroke:#000000;stroke-width:0.25;stroke-linecap:butt;stroke-dasharray:none"
       d="m 238.71636,153.3205 h 2.61689"
       id="path447"
       sodipodi:nodetypes="cc" />
    <path
       d="m 239.08531,152.6461 q -0.0496,-0.0589 -0.0496,-0.11472 0,-0.0527 0.031,-0.0837 0.0155,-0.0217 0.17984,-0.0837 0.32246,-0.12402 0.555,-0.29765 0.23254,-0.17674 0.39067,-0.42478 0.15813,-0.25115 0.22325,-0.5395 0.0682,-0.29146 0.0744,-0.45889 0.003,-0.0558 0.0279,-0.26975 0.0186,-0.15813 0.0186,-0.38137 0,-0.79065 -0.19224,-1.08521 -0.14572,-0.22014 -0.35967,-0.22014 -0.19843,0 -0.33796,0.18913 -0.18913,0.25735 -0.18913,0.73484 0,0.29456 0.0372,0.55191 0.0248,0.17053 0.11162,0.31316 0.0558,0.093 0.10542,0.12092 0.12093,0.0589 0.24185,0.0589 0.0775,0 0.16123,-0.0248 l 0.0465,-0.009 q 0.0372,0 0.0682,0.0372 0.031,0.0341 0.031,0.10232 0,0.11782 -0.093,0.15193 -0.19844,0.0744 -0.43098,0.0744 -0.14573,0 -0.18294,-0.0124 -0.29145,-0.10542 -0.36277,-0.15813 -0.17983,-0.13022 -0.27595,-0.26355 -0.093,-0.13642 -0.13952,-0.31006 -0.0589,-0.22944 -0.0589,-0.46198 0,-0.36897 0.16433,-0.68213 0.16743,-0.31626 0.45578,-0.47439 0.29146,-0.15813 0.62322,-0.15813 0.58911,0 0.97979,0.44958 0.39377,0.44959 0.39377,1.29915 0,0.41858 -0.16123,0.89297 -0.0403,0.11782 -0.22634,0.44338 -0.18604,0.32246 -0.5023,0.58911 -0.31626,0.26355 -0.66662,0.38757 -0.35037,0.12403 -0.57361,0.12403 -0.0403,0 -0.11783,-0.006 z"
       id="text244"
       style="font-weight:bold;font-size:6.35px;line-height:7.45115px;font-family:Garamond;-inkscape-font-specification:'Garamond Bold';text-align:center;letter-spacing:0px;word-spacing:0px;text-anchor:middle;stroke-width:0.176"
       aria-label="9" />
  </g>
</svg>
