<?xml version="1.0" encoding="UTF-8" standalone="no"?>
<!-- Created with Inkscape (http://www.inkscape.org/) -->

<svg
   width="0.78740185in"
   height="0.68191022in"
   viewBox="0 0 20.000007 17.32052"
   version="1.1"
   id="svg1"
   xmlns="http://www.w3.org/2000/svg"
   xmlns:svg="http://www.w3.org/2000/svg">
  <defs
     id="defs1" />
  <g
     id="layer11"
     style="display:inline"
     transform="translate(-200,-156.32051)">
    <path
       style="fill:#bdeeff;stroke:none;stroke-width:0.13338;stroke-linecap:butt"
       id="path331"
       d="m 183.98627,124.22117 7.57842,13.12622 -15.15685,0 z"
       transform="matrix(1.3195349,0,0,1.3195349,-32.776298,-7.593666)" />
  </g>
  <g
     id="layer12"
     style="display:inline"
     transform="translate(-200,-156.32051)">
    <path
       style="fill:#0091c2;stroke:none;stroke-width:0.13338;stroke-linecap:butt"
       id="path337"
       d="m 183.98633,125.75586 6.24804,10.82422 h -12.49609 z"
       transform="matrix(1.3195349,0,0,1.3195349,-32.776298,-7.593665)" />
  </g>
  <g
     id="layer13"
     style="display:inline"
     transform="translate(-200,-156.32051)">
    <path
       style="fill:#bdeeff;stroke:none;stroke-width:0.176;stroke-linecap:butt"
       d="m 179.26758,116.01563 c 2.10236,0 3.76367,1.66131 3.76367,3.76367 0,2.10235 -1.66131,3.76367 -3.76367,3.76367 -2.10236,0 -3.76367,-1.66132 -3.76367,-3.76367 0,-2.10236 1.66131,-3.76368 3.76367,-3.76367 z"
       id="path343"
       transform="translate(30.732405,48.088255)" />
  </g>
  <g
     id="layer14"
     style="display:inline"
     transform="translate(-200,-156.32051)">
    <path
       d="m 208.54116,165.79322 q 0.0155,0 0.21084,-0.006 l 0.0992,0.003 0.19534,0.003 q 0.0124,0.0992 0.0124,0.14573 0,0.0155 -0.003,0.0961 -0.003,0.0434 -0.006,0.33177 l -0.006,0.46819 0.003,0.29455 -0.0217,2.0929 v 0.17673 q 0,0.093 0.0434,0.13333 0.0434,0.0403 0.23255,0.0682 0.0744,0.009 0.29765,0.0496 0.006,0.031 0.006,0.0589 0,0.0341 -0.006,0.14883 h -0.13332 q -0.13643,0 -0.39688,-0.0124 -0.15813,-0.009 -0.21704,-0.009 -0.0744,0 -0.5488,0.0155 -0.0527,0.003 -0.0868,0.003 h -0.0558 l -0.0899,-0.006 -0.0837,0.006 -0.15503,-0.006 q -0.031,0 -0.12713,0.009 -0.006,-0.0682 -0.006,-0.10542 0,-0.0341 0.006,-0.10232 0.12403,-0.0341 0.28836,-0.0682 0.22634,-0.0465 0.27595,-0.0899 0.0527,-0.0465 0.0527,-0.12092 l -0.003,-0.21084 0.0124,-0.22945 -0.003,-0.47129 -0.003,-0.12092 q 0,-0.0248 0.006,-0.18604 0.006,-0.0837 0.006,-0.14882 0,-0.0403 -0.009,-0.25115 l 0.0124,-0.17673 q -0.0124,-0.20154 -0.0124,-0.23875 0,-0.0465 0.003,-0.093 l 0.006,-0.0775 -0.009,-0.21084 0.009,-0.0961 q 0.003,-0.0651 0.003,-0.17363 0,-0.10542 -0.003,-0.25735 -0.22014,0.16433 -0.50229,0.32866 -0.031,0.0186 -0.27905,0.12713 -0.0992,-0.14883 -0.12713,-0.22325 0.32866,-0.17053 0.44649,-0.25114 0.19533,-0.13643 0.42168,-0.34107 0.0961,-0.0899 0.24494,-0.27595 z m 4.07107,2.58589 v 0.5209 q -0.16743,0.009 -0.26355,0.009 -0.0899,0 -0.22944,-0.009 -0.009,0.0744 -0.009,0.0899 l 0.006,0.18604 -0.003,0.19844 0.006,0.13642 q 0,0.0372 -0.009,0.18604 -0.006,0.0837 -0.009,0.25114 l -0.26665,-0.003 h -0.16433 q -0.0651,0 -0.0992,-0.003 l -0.0527,-0.006 q -0.0217,0 -0.0682,0.0124 l 0.006,-0.60151 -0.0124,-0.38757 q 0,-0.0155 0.006,-0.0589 -0.14883,0.003 -0.44338,0.006 h -0.20464 q -0.26355,0 -0.58601,-0.009 -0.10232,-0.003 -0.13333,-0.003 -0.0465,0 -0.14262,0.006 l -0.006,-0.0403 0.009,-0.21394 -0.006,-0.0682 0.009,-0.12713 -0.006,-0.0248 q 0.14572,-0.27596 0.18603,-0.33487 l 0.71004,-1.0914 q 0.23874,-0.35347 0.37827,-0.5364 0.14262,-0.18604 0.19843,-0.27596 0.0868,-0.13952 0.15193,-0.22014 0.0961,-0.12092 0.12403,-0.17053 0.18293,-0.009 0.22944,-0.009 0.0589,0 0.22014,0.009 l 0.006,0.0372 -0.0124,0.22944 0.006,0.0806 -0.009,0.12712 0.006,0.12712 -0.006,0.30696 -0.003,0.13333 0.003,0.17363 -0.003,0.16123 0.003,0.22014 -0.003,0.21084 0.003,0.24495 -0.009,0.5302 q 0.10852,0 0.26975,0.006 h 0.0744 q 0.0496,0 0.14883,-0.006 z m -1.16272,-0.006 q 0.0186,-0.15503 0.0186,-0.23255 0,-0.031 -0.006,-0.11472 -0.003,-0.0868 -0.003,-0.11162 l 0.009,-0.24185 -0.006,-0.20774 0.009,-0.5364 -0.003,-0.24494 q 0,-0.031 0.006,-0.14573 -0.0248,0.0372 -0.0868,0.11162 -0.0434,0.0713 -0.0713,0.10542 -0.12093,0.14883 -0.26975,0.36897 l -0.27906,0.44648 q -0.0403,0.062 -0.0899,0.14573 -0.0837,0.13643 -0.20154,0.31316 -0.11472,0.17673 -0.19224,0.34417 0.093,-0.009 0.12713,-0.009 l 0.14882,0.003 h 0.29766 l 0.41548,0.006 z"
       id="text349"
       style="font-weight:bold;font-size:6.35px;line-height:7.45115px;font-family:Garamond;-inkscape-font-specification:'Garamond Bold';text-align:center;letter-spacing:0px;word-spacing:0px;text-anchor:middle;stroke-width:0.176"
       aria-label="14" />
  </g>
</svg>
