<?xml version="1.0" encoding="UTF-8" standalone="no"?>
<!-- Created with Inkscape (http://www.inkscape.org/) -->

<svg
   width="0.7874012in"
   height="0.68190956in"
   viewBox="0 0 19.99999 17.320503"
   version="1.1"
   id="svg1"
   xmlns="http://www.w3.org/2000/svg"
   xmlns:svg="http://www.w3.org/2000/svg">
  <defs
     id="defs1" />
  <g
     id="layer11"
     style="display:inline"
     transform="translate(-260.00001,-156.32051)">
    <path
       style="fill:#bdbdff;stroke:none;stroke-width:0.13338;stroke-linecap:butt"
       id="path334"
       d="m 183.98627,124.22117 7.57842,13.12622 -15.15685,0 z"
       transform="matrix(1.3195349,0,0,1.3195349,27.2237,-7.593663)" />
  </g>
  <g
     id="layer12"
     style="display:inline"
     transform="translate(-260.00001,-156.32051)">
    <path
       style="fill:#0000c2;stroke:none;stroke-width:0.13338;stroke-linecap:butt"
       id="path340"
       d="m 183.98633,125.75586 6.24804,10.82422 h -12.49609 z"
       transform="matrix(1.3195349,0,0,1.3195349,27.2237,-7.593662)" />
  </g>
  <g
     id="layer13"
     style="display:inline"
     transform="translate(-260.00001,-156.32051)">
    <path
       style="fill:#bdbdff;stroke:none;stroke-width:0.176;stroke-linecap:butt"
       d="m 179.26758,116.01563 c 2.10236,0 3.76367,1.66131 3.76367,3.76367 0,2.10235 -1.66131,3.76367 -3.76367,3.76367 -2.10236,0 -3.76367,-1.66132 -3.76367,-3.76367 0,-2.10236 1.66131,-3.76368 3.76367,-3.76367 z"
       id="path346"
       transform="translate(90.732407,48.088258)" />
  </g>
  <g
     id="layer14"
     style="display:inline"
     transform="translate(-260.00001,-156.32051)">
    <path
       d="m 268.54116,165.79322 q 0.0155,0 0.21084,-0.006 l 0.0992,0.003 0.19534,0.003 q 0.0124,0.0992 0.0124,0.14573 0,0.0155 -0.003,0.0961 -0.003,0.0434 -0.006,0.33177 l -0.006,0.46819 0.003,0.29455 -0.0217,2.0929 v 0.17673 q 0,0.093 0.0434,0.13333 0.0434,0.0403 0.23255,0.0682 0.0744,0.009 0.29765,0.0496 0.006,0.031 0.006,0.0589 0,0.0341 -0.006,0.14883 h -0.13332 q -0.13643,0 -0.39688,-0.0124 -0.15813,-0.009 -0.21704,-0.009 -0.0744,0 -0.5488,0.0155 -0.0527,0.003 -0.0868,0.003 h -0.0558 l -0.0899,-0.006 -0.0837,0.006 -0.15503,-0.006 q -0.031,0 -0.12713,0.009 -0.006,-0.0682 -0.006,-0.10542 0,-0.0341 0.006,-0.10232 0.12403,-0.0341 0.28836,-0.0682 0.22634,-0.0465 0.27595,-0.0899 0.0527,-0.0465 0.0527,-0.12092 l -0.003,-0.21084 0.0124,-0.22945 -0.003,-0.47129 -0.003,-0.12092 q 0,-0.0248 0.006,-0.18604 0.006,-0.0837 0.006,-0.14882 0,-0.0403 -0.009,-0.25115 l 0.0124,-0.17673 q -0.0124,-0.20154 -0.0124,-0.23875 0,-0.0465 0.003,-0.093 l 0.006,-0.0775 -0.009,-0.21084 0.009,-0.0961 q 0.003,-0.0651 0.003,-0.17363 0,-0.10542 -0.003,-0.25735 -0.22014,0.16433 -0.50229,0.32866 -0.031,0.0186 -0.27905,0.12713 -0.0992,-0.14883 -0.12713,-0.22325 0.32866,-0.17053 0.44649,-0.25114 0.19533,-0.13643 0.42168,-0.34107 0.0961,-0.0899 0.24494,-0.27595 z m 1.5627,0.10542 q 0.12402,0 0.38757,-0.009 l 0.75964,0.0155 0.64183,-0.009 0.36897,0.003 0.12712,-0.006 q 0.0403,0 0.11782,0.006 0.009,0.11472 0.009,0.18913 0,0.0899 -0.12712,0.43409 -0.0899,0.24184 -0.16433,0.46819 -0.0713,0.22634 -0.10852,0.32556 -0.0868,0.22324 -0.13643,0.38757 -0.0527,0.12712 -0.11782,0.31006 l -0.15193,0.42478 q -0.0372,0.11162 -0.14573,0.39687 l -0.24804,0.68833 q -0.031,0.0682 -0.031,0.10542 0,0.0496 0.0651,0.0992 0.0682,0.0465 0.0682,0.093 0,0.0589 -0.0527,0.12402 h -0.0806 l -0.23254,-0.003 q -0.0186,-0.003 -0.10852,0 -0.0899,0.006 -0.14263,0.006 -0.0403,0 -0.12402,-0.003 0.009,-0.093 0.12712,-0.33796 0.0682,-0.14573 0.30076,-0.75964 l 0.555,-1.44488 0.13953,-0.36897 q 0.0403,-0.0837 0.0899,-0.23254 0.0155,-0.0465 0.0589,-0.16123 -0.30386,-0.0155 -0.493,-0.0155 l -0.46198,0.006 -0.36897,-0.006 q -0.17364,0 -0.23565,0.0496 -0.062,0.0465 -0.0868,0.17053 -0.0248,0.12402 -0.0651,0.15813 -0.0372,0.031 -0.13022,0.031 -0.0527,0 -0.0806,-0.031 -0.0279,-0.031 -0.0279,-0.0899 0,-0.14883 0.0372,-0.45579 0.0217,-0.15502 0.0341,-0.30075 0.0155,-0.14883 0.0341,-0.25735 z"
       id="text352"
       style="font-weight:bold;font-size:6.35px;line-height:7.45115px;font-family:Garamond;-inkscape-font-specification:'Garamond Bold';text-align:center;letter-spacing:0px;word-spacing:0px;text-anchor:middle;stroke-width:0.176"
       aria-label="17" />
  </g>
</svg>
