<?xml version="1.0" encoding="UTF-8" standalone="no"?>
<!-- Created with Inkscape (http://www.inkscape.org/) -->

<svg
   width="0.78740185in"
   height="0.68190956in"
   viewBox="0 0 20.000007 17.320503"
   version="1.1"
   id="svg1"
   xmlns="http://www.w3.org/2000/svg"
   xmlns:svg="http://www.w3.org/2000/svg">
  <defs
     id="defs1" />
  <g
     id="layer11"
     style="display:inline"
     transform="translate(-279.99999,-156.32051)">
    <path
       style="fill:#cdbdff;stroke:none;stroke-width:0.13338;stroke-linecap:butt"
       id="path335"
       d="m 183.98627,124.22117 7.57842,13.12622 -15.15685,0 z"
       transform="matrix(1.3195349,0,0,1.3195349,47.223699,-7.593662)" />
  </g>
  <g
     id="layer12"
     style="display:inline"
     transform="translate(-279.99999,-156.32051)">
    <path
       style="fill:#3000c2;stroke:none;stroke-width:0.13338;stroke-linecap:butt"
       id="path341"
       d="m 183.98633,125.75586 6.24804,10.82422 h -12.49609 z"
       transform="matrix(1.3195349,0,0,1.3195349,47.223699,-7.593661)" />
  </g>
  <g
     id="layer13"
     style="display:inline"
     transform="translate(-279.99999,-156.32051)">
    <path
       style="fill:#cdbdff;stroke:none;stroke-width:0.176;stroke-linecap:butt"
       d="m 179.26758,116.01563 c 2.10236,0 3.76367,1.66131 3.76367,3.76367 0,2.10235 -1.66131,3.76367 -3.76367,3.76367 -2.10236,0 -3.76367,-1.66132 -3.76367,-3.76367 0,-2.10236 1.66131,-3.76368 3.76367,-3.76367 z"
       id="path347"
       transform="translate(110.73241,48.088259)" />
  </g>
  <g
     id="layer14"
     style="display:inline"
     transform="translate(-279.99999,-156.32051)">
    <path
       d="m 288.54116,165.79322 q 0.0155,0 0.21084,-0.006 l 0.0992,0.003 0.19534,0.003 q 0.0124,0.0992 0.0124,0.14573 0,0.0155 -0.003,0.0961 -0.003,0.0434 -0.006,0.33177 l -0.006,0.46819 0.003,0.29455 -0.0217,2.0929 v 0.17673 q 0,0.093 0.0434,0.13333 0.0434,0.0403 0.23255,0.0682 0.0744,0.009 0.29765,0.0496 0.006,0.031 0.006,0.0589 0,0.0341 -0.006,0.14883 h -0.13332 q -0.13643,0 -0.39688,-0.0124 -0.15813,-0.009 -0.21704,-0.009 -0.0744,0 -0.5488,0.0155 -0.0527,0.003 -0.0868,0.003 h -0.0558 l -0.0899,-0.006 -0.0837,0.006 -0.15503,-0.006 q -0.031,0 -0.12713,0.009 -0.006,-0.0682 -0.006,-0.10542 0,-0.0341 0.006,-0.10232 0.12403,-0.0341 0.28836,-0.0682 0.22634,-0.0465 0.27595,-0.0899 0.0527,-0.0465 0.0527,-0.12092 l -0.003,-0.21084 0.0124,-0.22945 -0.003,-0.47129 -0.003,-0.12092 q 0,-0.0248 0.006,-0.18604 0.006,-0.0837 0.006,-0.14882 0,-0.0403 -0.009,-0.25115 l 0.0124,-0.17673 q -0.0124,-0.20154 -0.0124,-0.23875 0,-0.0465 0.003,-0.093 l 0.006,-0.0775 -0.009,-0.21084 0.009,-0.0961 q 0.003,-0.0651 0.003,-0.17363 0,-0.10542 -0.003,-0.25735 -0.22014,0.16433 -0.50229,0.32866 -0.031,0.0186 -0.27905,0.12713 -0.0992,-0.14883 -0.12713,-0.22325 0.32866,-0.17053 0.44649,-0.25114 0.19533,-0.13643 0.42168,-0.34107 0.0961,-0.0899 0.24494,-0.27595 z m 2.29134,2.15181 q -0.36277,-0.18914 -0.53331,-0.46509 -0.16743,-0.27905 -0.16743,-0.4961 0,-0.18293 0.0589,-0.40307 0.062,-0.22324 0.20774,-0.38758 0.14883,-0.16743 0.38448,-0.27595 0.23564,-0.11162 0.49609,-0.11162 0.48989,0 0.79685,0.27905 0.31006,0.27906 0.31006,0.69143 0,0.20154 -0.13333,0.41858 -0.13022,0.21394 -0.26975,0.28836 l -0.22634,0.13642 q 0,0.0155 0.16743,0.10852 0.17053,0.0899 0.37827,0.34727 0.14573,0.18604 0.18914,0.31316 0.0465,0.12712 0.0465,0.32556 0,0.29766 -0.0558,0.44338 -0.0341,0.0868 -0.14263,0.25425 -0.10542,0.16433 -0.18293,0.22945 -0.15813,0.13022 -0.44339,0.23564 -0.18603,0.0713 -0.41238,0.0713 -0.26665,0 -0.49919,-0.0558 -0.16743,-0.0403 -0.28525,-0.12712 -0.17984,-0.13333 -0.25735,-0.23564 -0.0775,-0.10232 -0.13333,-0.25115 -0.0744,-0.20464 -0.0744,-0.40618 0,-0.33486 0.26355,-0.60771 0.16433,-0.17364 0.5178,-0.31936 z m 0.21704,-0.73174 q 0.093,0.0651 0.48989,0.27285 l 0.062,-0.062 q 0.12402,-0.12403 0.17053,-0.24185 0.0682,-0.17363 0.0682,-0.41548 0,-0.32556 -0.16123,-0.49919 -0.16124,-0.17363 -0.40618,-0.17363 -0.24495,0 -0.41238,0.16433 -0.16743,0.16123 -0.16743,0.39377 0,0.16433 0.0837,0.29766 0.0837,0.13332 0.27286,0.26355 z m 0,0.87746 q -0.0496,0 -0.20154,0.17364 -0.20464,0.23874 -0.20464,0.58911 0,0.37827 0.19224,0.59221 0.19533,0.21084 0.47128,0.21084 0.29146,0 0.45579,-0.16433 0.16743,-0.16433 0.16743,-0.44959 0,-0.22944 -0.11162,-0.39377 -0.10852,-0.16433 -0.42478,-0.35967 -0.31316,-0.19844 -0.34416,-0.19844 z"
       id="text353"
       style="font-weight:bold;font-size:6.35px;line-height:7.45115px;font-family:Garamond;-inkscape-font-specification:'Garamond Bold';text-align:center;letter-spacing:0px;word-spacing:0px;text-anchor:middle;stroke-width:0.176"
       aria-label="18" />
  </g>
</svg>
