<?xml version='1.0' encoding='UTF-8'?>
<!-- Created with Inkscape (http://www.inkscape.org/) and export_objects.py -->
<svg xmlns:cc="http://creativecommons.org/ns#" xmlns:dc="http://purl.org/dc/elements/1.1/" xmlns:inkscape="http://www.inkscape.org/namespaces/inkscape" xmlns:rdf="http://www.w3.org/1999/02/22-rdf-syntax-ns#" xmlns:sodipodi="http://sodipodi.sourceforge.net/DTD/sodipodi-0.dtd" xmlns:xlink="http://www.w3.org/1999/xlink" xmlns="http://www.w3.org/2000/svg" version="1.1" sodipodi:docname="step01.svg" inkscape:version="0.92.3 (2405546, 2018-03-11)" width="44.45mm" height="44.45mm" viewBox="0 0 44.45 44.45" id="svg5174"><sodipodi:namedview inkscape:snap-others="false" inkscape:snap-nodes="true" inkscape:bbox-nodes="true" inkscape:snap-bbox="false" id="base" pagecolor="#ffffff" bordercolor="#666666" borderopacity="1.0" inkscape:pageopacity="0.0" inkscape:pageshadow="2" inkscape:zoom="0.17302633" inkscape:cx="2323.3308" inkscape:cy="216.00001" inkscape:document-units="mm" inkscape:current-layer="layer1" showgrid="false" inkscape:measure-start="72,612" inkscape:measure-end="72,552" inkscape:snap-grids="true" inkscape:window-width="1280" inkscape:window-height="945" inkscape:window-x="-9" inkscape:window-y="-9" inkscape:window-maximized="1" inkscape:object-nodes="true">
    <inkscape:grid type="xygrid" id="grid5337" units="pt" spacingx="3.175" spacingy="3.175"/>
  </sodipodi:namedview>
  <metadata id="metadata5171">
    <rdf:RDF>
      <cc:Work rdf:about="">
        <dc:format>image/svg+xml</dc:format>
        <dc:type rdf:resource="http://purl.org/dc/dcmitype/StillImage"/>
        <dc:title/>
      </cc:Work>
    </rdf:RDF>
  </metadata>
  <g inkscape:groupmode="layer" inkscape:label="step" transform="matrix(1.000000,0.000000,0.000000,1.000000,-768.349974,-17.600000)"><g id="g2212" inkscape:label="01">
      <rect y="17.6" x="768.34998" height="44.450001" width="44.450001" id="rect1195" style="opacity:1;fill:#000000;fill-opacity:0.90562289;stroke:none;stroke-width:0.35277778;stroke-linecap:butt;stroke-linejoin:miter;stroke-miterlimit:47.14606857;stroke-dasharray:none;stroke-dashoffset:0;stroke-opacity:1;paint-order:markers fill stroke"/>
      <g id="g1277" transform="translate(774.69997,3.175003)">
        <g id="g1269" transform="translate(-44.449995,-88.899988)">
          <rect y="125.54999" x="50.799995" height="19.049999" width="19.049999" id="rect1265" style="opacity:1;fill:#aa0000;fill-opacity:1;stroke:none;stroke-width:6.3499999;stroke-linecap:butt;stroke-linejoin:miter;stroke-miterlimit:47.14606857;stroke-dasharray:none;stroke-dashoffset:0;stroke-opacity:1;paint-order:markers fill stroke"/>
          <path inkscape:connector-curvature="0" id="path1267" style="font-style:normal;font-variant:normal;font-weight:normal;font-stretch:normal;font-size:medium;line-height:100%;font-family:'Segoe UI Emoji';-inkscape-font-specification:'Segoe UI Emoji, Normal';font-variant-ligatures:normal;font-variant-caps:normal;font-variant-numeric:normal;font-feature-settings:normal;text-align:start;letter-spacing:0px;word-spacing:0px;writing-mode:lr-tb;text-anchor:start;fill:#d35f5f;fill-opacity:1;stroke:none;stroke-width:0.26458332" d="m 60.777105,127.13749 q 0.07591,0 0.138051,0.0483 0.06901,0.0483 0.09661,0.12424 l 0.255376,0.75234 q 0.282992,0.82826 0.676419,1.5668 0.393417,0.73162 0.848963,1.42184 0.462448,0.69022 0.973212,1.35973 0.510754,0.66261 1.028419,1.34593 0.600487,0.79374 0.917994,1.67032 0.317495,0.87658 0.317495,1.87739 0,0.78685 -0.20707,1.51848 -0.200159,0.72473 -0.572872,1.35973 -0.372725,0.635 -0.897281,1.15266 -0.517665,0.52456 -1.152668,0.89729 -0.628101,0.37271 -1.359727,0.57287 -0.724725,0.20707 -1.51158,0.20707 -0.786844,0 -1.518481,-0.20707 -0.724725,-0.20016 -1.359727,-0.57287 -0.634992,-0.37273 -1.159558,-0.89729 -0.517665,-0.51766 -0.890379,-1.15266 -0.372725,-0.635 -0.579785,-1.35973 -0.200169,-0.73163 -0.200169,-1.51848 0,-1.01462 0.324407,-1.89119 0.324397,-0.87658 0.931796,-1.67724 0.517654,-0.68331 1.021518,-1.34591 0.503864,-0.66262 0.959399,-1.34593 0.462447,-0.69022 0.848974,-1.42184 0.393416,-0.73854 0.676408,-1.5599 l 0.255376,-0.75234 q 0.0276,-0.0759 0.08971,-0.12424 0.06901,-0.0483 0.144951,-0.0483 z m -0.448635,14.8811 q 0.648805,0 1.249292,-0.17256 0.607387,-0.16565 1.125053,-0.47625 0.524566,-0.30369 0.952498,-0.73163 0.434844,-0.42794 0.738538,-0.95251 0.303694,-0.52456 0.469348,-1.12505 0.172555,-0.60739 0.172555,-1.25619 0,-0.84898 -0.269189,-1.5599 -0.262278,-0.71092 -0.766142,-1.38733 -0.531467,-0.71092 -1.069835,-1.40804 -0.531467,-0.70403 -1.014617,-1.43565 -0.48315,-0.73164 -0.890379,-1.50468 -0.407229,-0.77304 -0.697122,-1.62892 -0.289892,0.85588 -0.704022,1.62892 -0.407229,0.77304 -0.890379,1.50468 -0.48315,0.73162 -1.021529,1.43565 -0.531468,0.69712 -1.062935,1.40804 -0.503852,0.67641 -0.773042,1.38733 -0.262278,0.71092 -0.262278,1.5599 0,0.6488 0.165655,1.25619 0.172544,0.60049 0.476249,1.12505 0.303694,0.52457 0.731626,0.95251 0.434832,0.43484 0.959399,0.73853 0.524566,0.3037 1.125053,0.46935 0.600498,0.17256 1.256203,0.17256 z"/>
        </g>
        <g transform="translate(-19.050002,-107.94999)" id="g1275">
          <rect y="125.54999" x="25.400002" height="19.049999" width="19.049999" id="rect1271" style="opacity:1;fill:#ffaaaa;fill-opacity:1;stroke:none;stroke-width:6.3499999;stroke-linecap:butt;stroke-linejoin:miter;stroke-miterlimit:47.14606857;stroke-dasharray:none;stroke-dashoffset:0;stroke-opacity:1;paint-order:markers fill stroke"/>
          <path d="m 36.167389,127.13755 h 0.248476 q 0.890391,0 1.71175,0.23467 0.821349,0.22776 1.539184,0.6488 0.717824,0.42104 1.30451,1.00772 0.586685,0.58669 1.007717,1.30451 0.421031,0.71783 0.648804,1.53918 0.234675,0.82136 0.234675,1.71174 v 1.49087 q 0,1.09745 -0.282992,2.11207 -0.282991,1.00771 -0.800646,1.89119 -0.517666,0.88348 -1.242402,1.60822 -0.724725,0.72472 -1.608204,1.24239 -0.883478,0.51765 -1.898096,0.80064 -1.014617,0.283 -2.105167,0.283 -1.097439,0 -2.112067,-0.283 -1.014618,-0.28299 -1.898096,-0.80064 -0.876578,-0.51767 -1.601303,-1.24239 -0.724725,-0.72474 -1.242391,-1.60132 -0.517665,-0.88347 -0.800657,-1.89809 -0.282991,-1.01462 -0.282991,-2.11207 v -6.94359 q 0.172555,0 0.331308,0 0.158754,-0.007 0.317496,-0.007 0.289893,0 0.559082,0.0207 0.269179,0.0207 0.524567,0.0966 0.255376,0.069 0.496951,0.21397 0.248476,0.14494 0.496963,0.38653 0.352012,-0.34511 0.800646,-0.52457 0.448646,-0.18637 0.938697,-0.18637 h 0.993915 v 1.2424 q 0.27609,-0.51766 0.669507,-0.93179 0.400328,-0.41413 0.876578,-0.70402 0.483161,-0.2899 1.035331,-0.44175 0.55217,-0.15874 1.138855,-0.15874 z m -6.205053,3.47179 v 0.17946 q 0.289893,-0.32441 0.669507,-0.49697 0.386527,-0.17945 0.82136,-0.17945 v -0.98702 q -0.310595,0 -0.579785,0.11734 -0.269178,0.11734 -0.476249,0.31751 -0.200158,0.20016 -0.317496,0.46935 -0.117337,0.26918 -0.117337,0.57978 z m -1.980928,-1.48398 v 0.98702 q 0.427943,0 0.814458,0.17945 0.386527,0.17256 0.669507,0.49697 v -0.17946 q 0,-0.3106 -0.117337,-0.57978 -0.117337,-0.26919 -0.317495,-0.46935 -0.200159,-0.20017 -0.469349,-0.31751 -0.269178,-0.11734 -0.579784,-0.11734 z m 0,1.48398 v 3.96875 h 3.471795 v -3.96875 q -0.310595,0 -0.579785,0.11734 -0.269178,0.11734 -0.476249,0.3244 -0.200158,0.20015 -0.317496,0.46934 -0.117337,0.26919 -0.117337,0.57979 v 0.76614 q 0,0.0966 -0.08281,0.16565 -0.07591,0.0621 -0.165654,0.0621 -0.103513,0 -0.165655,-0.0621 -0.06211,-0.0621 -0.07591,-0.15875 -0.0207,-0.12424 -0.0207,-0.28299 0,-0.12424 0.0067,-0.24848 0.0067,-0.13114 0.0067,-0.24157 0,-0.3106 -0.117338,-0.57979 -0.117337,-0.26919 -0.317495,-0.46934 -0.200159,-0.20706 -0.469349,-0.3244 -0.269178,-0.11734 -0.579784,-0.11734 z m 1.380441,8.62082 2.408861,-2.43647 q -0.317507,-0.57288 -0.317507,-1.22169 h -3.451082 q 0.06901,0.99392 0.40723,1.93261 0.345099,0.93179 0.952498,1.72555 z m 4.569235,2.71945 v -3.89973 q -0.414131,0 -0.793745,-0.13113 -0.379626,-0.13115 -0.710924,-0.37273 l -2.408861,2.44338 q 0.828261,0.80064 1.794561,1.2976 0.973212,0.50386 2.118969,0.66261 z m 0,-4.88674 q 0.310606,0 0.579784,-0.11734 0.26919,-0.11734 0.469349,-0.31749 0.20707,-0.20707 0.324407,-0.47625 0.117337,-0.26919 0.117337,-0.57979 v -0.069 q -0.476249,-0.0828 -0.917994,-0.26919 -0.434833,-0.19325 -0.821359,-0.46934 -0.379615,-0.283 -0.697122,-0.64191 -0.310595,-0.35891 -0.538368,-0.78684 v 2.2363 q 0,0.3106 0.117337,0.57979 0.117337,0.26918 0.317496,0.47625 0.20017,0.20016 0.469348,0.31749 0.26919,0.11734 0.579785,0.11734 z m 7.937505,-1.98783 v -1.49087 q 0,-0.75234 -0.193258,-1.44946 -0.193268,-0.69711 -0.552181,-1.29761 -0.352011,-0.60738 -0.855864,-1.10434 -0.496963,-0.50386 -1.104351,-0.85587 -0.600487,-0.35891 -1.297608,-0.55217 -0.697122,-0.19327 -1.449462,-0.19327 h -0.248476 q -0.669507,0 -1.256192,0.25539 -0.586686,0.24847 -1.028431,0.69022 -0.434832,0.43483 -0.690209,1.02152 -0.255388,0.58668 -0.255388,1.25619 0,0.55908 0.179456,1.06983 0.179467,0.50387 0.503864,0.9249 0.331308,0.41413 0.779943,0.71092 0.455547,0.2968 0.993915,0.42794 0.310595,-0.68331 0.731637,-1.29071 0.427932,-0.61429 0.945598,-1.15266 0.09661,-0.0966 0.186356,-0.19326 0.09661,-0.10351 0.200159,-0.18637 0.144952,-0.12423 0.33821,-0.12423 0.200158,0 0.34511,0.14495 0.151841,0.14494 0.151841,0.35201 0,0.11734 -0.04831,0.20016 -0.04141,0.0828 -0.117337,0.16565 -0.09661,0.0966 -0.193269,0.19326 -0.09661,0.0897 -0.193257,0.18636 -0.400329,0.41413 -0.731626,0.89039 -0.331309,0.46935 -0.593598,0.987 0,0.15875 0.0067,0.31751 0.0067,0.15874 0.0067,0.31749 0,0.20707 -0.0207,0.39343 1.23549,-0.36581 2.519297,-0.36581 0.207071,0 0.352011,0.14494 0.144952,0.14494 0.144952,0.35201 0,0.20016 -0.151853,0.35201 -0.14494,0.14494 -0.34511,0.14494 -0.738527,0 -1.463263,0.13805 -0.724725,0.13114 -1.414946,0.40723 -0.04831,0.0759 -0.103513,0.15184 -0.04831,0.0759 -0.110414,0.14495 0.110414,0.069 0.28298,0.19326 0.172555,0.12424 0.365824,0.28299 0.193258,0.15876 0.386516,0.33821 0.193258,0.17946 0.352011,0.35892 0.158754,0.17945 0.255388,0.35201 0.09661,0.16564 0.09661,0.29679 0,0.20706 -0.14494,0.35201 -0.144952,0.14494 -0.345111,0.14494 -0.138039,0 -0.227773,-0.0483 -0.08971,-0.0552 -0.179456,-0.15874 -0.06901,-0.0759 -0.131139,-0.16566 -0.06211,-0.0897 -0.13115,-0.16565 -0.303694,-0.35201 -0.662606,-0.635 -0.352011,-0.28299 -0.766142,-0.49005 l -0.06211,0.0276 v 4.17581 q 0.959399,0 1.842878,-0.24847 0.89039,-0.24848 1.663433,-0.70402 0.773042,-0.44865 1.401133,-1.07674 0.635002,-0.635 1.083648,-1.40805 0.455547,-0.77304 0.704022,-1.65652 0.248476,-0.89038 0.248476,-1.84979 z m -6.943591,-5.94968 q 0.20017,0 0.345111,0.14496 0.151852,0.14494 0.151852,0.34511 0,0.20706 -0.144951,0.35201 -0.144941,0.14494 -0.352012,0.14494 -0.207059,0 -0.352011,-0.14494 -0.14494,-0.14495 -0.14494,-0.35201 0,-0.20017 0.14494,-0.34511 0.151853,-0.14496 0.352011,-0.14496 z m 1.980929,0 q 0.200159,0 0.345111,0.14496 0.151841,0.14494 0.151841,0.34511 0,0.20706 -0.144941,0.35201 -0.144951,0.14494 -0.352011,0.14494 -0.20017,0 -0.34511,-0.14494 -0.144952,-0.15185 -0.144952,-0.35201 0,-0.20017 0.144952,-0.34511 0.14494,-0.14496 0.34511,-0.14496 z m -1.980929,1.98093 q 0.207071,0 0.352012,0.14494 0.144951,0.14496 0.144951,0.35202 0,0.20707 -0.144951,0.35201 -0.144941,0.14495 -0.352012,0.14495 -0.207059,0 -0.352011,-0.14495 -0.14494,-0.14494 -0.14494,-0.35201 0,-0.20706 0.14494,-0.35202 0.144952,-0.14494 0.352011,-0.14494 z" style="font-style:normal;font-variant:normal;font-weight:normal;font-stretch:normal;font-size:medium;line-height:100%;font-family:'Segoe UI Emoji';-inkscape-font-specification:'Segoe UI Emoji, Normal';font-variant-ligatures:normal;font-variant-caps:normal;font-variant-numeric:normal;font-feature-settings:normal;text-align:start;letter-spacing:0px;word-spacing:0px;writing-mode:lr-tb;text-anchor:start;fill:#ffd5d5;fill-opacity:1;stroke:none;stroke-width:0.26458332" id="path1273" inkscape:connector-curvature="0"/>
        </g>
      </g>
    </g>
    </g></svg>
