<?xml version='1.0' encoding='UTF-8'?>
<!-- Created with Inkscape (http://www.inkscape.org/) and export_objects.py -->
<svg xmlns:cc="http://creativecommons.org/ns#" xmlns:dc="http://purl.org/dc/elements/1.1/" xmlns:inkscape="http://www.inkscape.org/namespaces/inkscape" xmlns:rdf="http://www.w3.org/1999/02/22-rdf-syntax-ns#" xmlns:sodipodi="http://sodipodi.sourceforge.net/DTD/sodipodi-0.dtd" xmlns:xlink="http://www.w3.org/1999/xlink" xmlns="http://www.w3.org/2000/svg" version="1.1" sodipodi:docname="step11.svg" inkscape:version="0.92.3 (2405546, 2018-03-11)" width="44.45mm" height="44.45mm" viewBox="0 0 44.45 44.45" id="svg5174"><sodipodi:namedview inkscape:snap-others="false" inkscape:snap-nodes="true" inkscape:bbox-nodes="true" inkscape:snap-bbox="false" id="base" pagecolor="#ffffff" bordercolor="#666666" borderopacity="1.0" inkscape:pageopacity="0.0" inkscape:pageshadow="2" inkscape:zoom="0.17302633" inkscape:cx="2323.3308" inkscape:cy="216.00001" inkscape:document-units="mm" inkscape:current-layer="layer1" showgrid="false" inkscape:measure-start="72,612" inkscape:measure-end="72,552" inkscape:snap-grids="true" inkscape:window-width="1280" inkscape:window-height="945" inkscape:window-x="-9" inkscape:window-y="-9" inkscape:window-maximized="1" inkscape:object-nodes="true">
    <inkscape:grid type="xygrid" id="grid5337" units="pt" spacingx="3.175" spacingy="3.175"/>
  </sodipodi:namedview>
  <metadata id="metadata5171">
    <rdf:RDF>
      <cc:Work rdf:about="">
        <dc:format>image/svg+xml</dc:format>
        <dc:type rdf:resource="http://purl.org/dc/dcmitype/StillImage"/>
        <dc:title/>
      </cc:Work>
    </rdf:RDF>
  </metadata>
  <g inkscape:groupmode="layer" inkscape:label="step" transform="matrix(1.000000,0.000000,0.000000,1.000000,-939.800053,-74.750001)"><g id="g2323" inkscape:label="11">
      <rect y="74.75" x="939.80005" height="44.450001" width="44.450001" id="rect1215" style="opacity:1;fill:#000000;fill-opacity:0.90562289;stroke:none;stroke-width:0.35277778;stroke-linecap:butt;stroke-linejoin:miter;stroke-miterlimit:47.14606857;stroke-dasharray:none;stroke-dashoffset:0;stroke-opacity:1;paint-order:markers fill stroke"/>
      <g id="g1419" transform="translate(850.90001,9.525001)">
        <g id="g1411" transform="translate(50.800005,-57.149988)">
          <rect y="125.54999" x="50.799995" height="19.049999" width="19.049999" id="rect1407" style="opacity:1;fill:#aa0000;fill-opacity:1;stroke:none;stroke-width:6.3499999;stroke-linecap:butt;stroke-linejoin:miter;stroke-miterlimit:47.14606857;stroke-dasharray:none;stroke-dashoffset:0;stroke-opacity:1;paint-order:markers fill stroke"/>
          <path inkscape:connector-curvature="0" id="path1409" style="font-style:normal;font-variant:normal;font-weight:normal;font-stretch:normal;font-size:medium;line-height:100%;font-family:'Segoe UI Emoji';-inkscape-font-specification:'Segoe UI Emoji, Normal';font-variant-ligatures:normal;font-variant-caps:normal;font-variant-numeric:normal;font-feature-settings:normal;text-align:start;letter-spacing:0px;word-spacing:0px;writing-mode:lr-tb;text-anchor:start;fill:#d35f5f;fill-opacity:1;stroke:none;stroke-width:0.26458332" d="m 60.777105,127.13749 q 0.07591,0 0.138051,0.0483 0.06901,0.0483 0.09661,0.12424 l 0.255376,0.75234 q 0.282992,0.82826 0.676419,1.5668 0.393417,0.73162 0.848963,1.42184 0.462448,0.69022 0.973212,1.35973 0.510754,0.66261 1.028419,1.34593 0.600487,0.79374 0.917994,1.67032 0.317495,0.87658 0.317495,1.87739 0,0.78685 -0.20707,1.51848 -0.200159,0.72473 -0.572872,1.35973 -0.372725,0.635 -0.897281,1.15266 -0.517665,0.52456 -1.152668,0.89729 -0.628101,0.37271 -1.359727,0.57287 -0.724725,0.20707 -1.51158,0.20707 -0.786844,0 -1.518481,-0.20707 -0.724725,-0.20016 -1.359727,-0.57287 -0.634992,-0.37273 -1.159558,-0.89729 -0.517665,-0.51766 -0.890379,-1.15266 -0.372725,-0.635 -0.579785,-1.35973 -0.200169,-0.73163 -0.200169,-1.51848 0,-1.01462 0.324407,-1.89119 0.324397,-0.87658 0.931796,-1.67724 0.517654,-0.68331 1.021518,-1.34591 0.503864,-0.66262 0.959399,-1.34593 0.462447,-0.69022 0.848974,-1.42184 0.393416,-0.73854 0.676408,-1.5599 l 0.255376,-0.75234 q 0.0276,-0.0759 0.08971,-0.12424 0.06901,-0.0483 0.144951,-0.0483 z m -0.448635,14.8811 q 0.648805,0 1.249292,-0.17256 0.607387,-0.16565 1.125053,-0.47625 0.524566,-0.30369 0.952498,-0.73163 0.434844,-0.42794 0.738538,-0.95251 0.303694,-0.52456 0.469348,-1.12505 0.172555,-0.60739 0.172555,-1.25619 0,-0.84898 -0.269189,-1.5599 -0.262278,-0.71092 -0.766142,-1.38733 -0.531467,-0.71092 -1.069835,-1.40804 -0.531467,-0.70403 -1.014617,-1.43565 -0.48315,-0.73164 -0.890379,-1.50468 -0.407229,-0.77304 -0.697122,-1.62892 -0.289892,0.85588 -0.704022,1.62892 -0.407229,0.77304 -0.890379,1.50468 -0.48315,0.73162 -1.021529,1.43565 -0.531468,0.69712 -1.062935,1.40804 -0.503852,0.67641 -0.773042,1.38733 -0.262278,0.71092 -0.262278,1.5599 0,0.6488 0.165655,1.25619 0.172544,0.60049 0.476249,1.12505 0.303694,0.52457 0.731626,0.95251 0.434832,0.43484 0.959399,0.73853 0.524566,0.3037 1.125053,0.46935 0.600498,0.17256 1.256203,0.17256 z"/>
        </g>
        <g transform="translate(-25.399992,-38.099988)" id="g1417">
          <rect style="opacity:1;fill:#aad400;fill-opacity:1;stroke:none;stroke-width:6.3499999;stroke-linecap:butt;stroke-linejoin:miter;stroke-miterlimit:47.14606857;stroke-dasharray:none;stroke-dashoffset:0;stroke-opacity:1;paint-order:markers fill stroke" id="rect1413" width="19.049999" height="19.049999" x="126.99999" y="125.54999"/>
          <path d="m 140.75883,133.06483 q 0.92039,0.19145 1.69353,0.67006 0.78049,0.4786 1.3401,1.17073 0.56696,0.69214 0.88358,1.54627 0.31661,0.85413 0.31661,1.79661 v 3.70368 h -3.70368 q -0.90566,0 -1.75243,-0.28715 -0.8394,-0.28717 -1.54626,-0.8615 -0.5817,0.53016 -1.25174,0.94249 -0.67006,0.41234 -1.39901,0.69214 -0.72159,0.2798 -1.49472,0.42706 -0.76578,0.14726 -1.55363,0.14726 h -4.23383 v -4.23382 q 0,-1.16339 0.30189,-2.24577 0.30189,-1.08239 0.85413,-2.02487 0.55224,-0.94249 1.32537,-1.71562 0.77313,-0.77314 1.71562,-1.32537 0.94248,-0.55224 2.01751,-0.85413 1.08239,-0.3019 2.25313,-0.3019 h 1.98806 q 0.14726,-0.14725 0.26507,-0.33134 0.12518,-0.19144 0.20617,-0.3976 0.0883,-0.21354 0.13253,-0.43443 0.0515,-0.2209 0.0515,-0.42707 0,-0.32398 0.12518,-0.61114 0.13253,-0.28716 0.34607,-0.5007 0.22089,-0.22089 0.50806,-0.34606 0.28716,-0.12518 0.61115,-0.12518 0.31661,0 0.60377,0.12518 0.29453,0.12517 0.50806,0.34606 0.2209,0.21354 0.34607,0.5007 0.13254,0.28716 0.13254,0.61114 0,0.52278 -0.11043,1.05294 -0.10306,0.52278 -0.30925,1.02348 -0.20617,0.49333 -0.5007,0.94985 -0.29452,0.44915 -0.67004,0.80995 z m -1.0603,1.48 v -2.61392 l -2.24577,2.24577 v 3.01154 q 0,0.16934 -0.11779,0.28715 -0.11042,0.11043 -0.27979,0.11043 -0.16936,0 -0.28717,-0.11043 -0.11043,-0.11779 -0.11043,-0.28715 v -2.21633 l -1.85551,1.85553 v 3.01154 q 0,0.16198 -0.11779,0.27979 -0.11779,0.11779 -0.27981,0.11779 -0.16198,0 -0.27979,-0.11779 -0.11043,-0.11779 -0.11043,-0.27979 v -2.21633 l -2.50348,2.49612 q -0.11779,0.11779 -0.2798,0.11779 -0.16199,0 -0.27979,-0.11779 -0.11779,-0.11779 -0.11779,-0.27979 0,-0.162 0.11779,-0.27981 l 2.49611,-2.50348 h -2.21632 q -0.16199,0 -0.27979,-0.11043 -0.11779,-0.11779 -0.11779,-0.27979 0,-0.162 0.11779,-0.2798 0.11779,-0.11779 0.27979,-0.11779 h 3.01154 l 1.85552,-1.85552 h -2.21632 q -0.16935,0 -0.28715,-0.11043 -0.11043,-0.11779 -0.11043,-0.28717 0,-0.16934 0.11043,-0.27979 0.11779,-0.11779 0.28715,-0.11779 h 3.01154 l 2.24578,-2.24577 h -2.61394 q -1.02347,0 -1.97332,0.26507 -0.94249,0.26508 -1.76716,0.75104 -0.82468,0.47861 -1.50209,1.15603 -0.67005,0.67004 -1.15603,1.49471 -0.4786,0.82469 -0.74367,1.77454 -0.26508,0.94248 -0.26508,1.96596 v 3.17353 h 3.17353 q 1.02348,0 1.96597,-0.26507 0.94985,-0.26508 1.77452,-0.75105 0.82467,-0.4786 1.49473,-1.14866 0.67741,-0.67741 1.15602,-1.50208 0.48596,-0.82468 0.75105,-1.76716 0.26507,-0.94985 0.26507,-1.97333 z m 4.23382,6.35443 v -2.65076 q 0,-0.79521 -0.27979,-1.51681 -0.27981,-0.72159 -0.78051,-1.28119 -0.49333,-0.56696 -1.17073,-0.93512 -0.67742,-0.36816 -1.47264,-0.46388 0,0.6406 -0.0442,1.26647 -0.0442,0.62587 -0.21353,1.24438 l 0.63323,0.62587 h 2.00278 q 0.11043,0 0.18408,0.081 0.081,0.0736 0.081,0.18406 0,0.11043 -0.081,0.19146 -0.0736,0.0736 -0.18408,0.0736 h -1.47263 l 1.66408,1.66407 q 0.0736,0.0736 0.0736,0.19144 0,0.10307 -0.081,0.18408 -0.0736,0.081 -0.17672,0.081 -0.11043,0 -0.19144,-0.081 l -1.66408,-1.66407 v 1.47999 q 0,0.11043 -0.081,0.19144 -0.0736,0.0736 -0.18408,0.0736 -0.11042,0 -0.19144,-0.0736 -0.0736,-0.081 -0.0736,-0.19144 v -2.01015 l -0.43443,-0.42706 q -0.24298,0.70687 -0.61113,1.35483 -0.3608,0.64059 -0.84677,1.20019 0.59642,0.58169 1.35483,0.89094 0.76576,0.31663 1.5978,0.31663 z m -3.10725,-12.70149 q -0.23563,0 -0.41971,0.13255 -0.17671,0.13253 -0.17671,0.39024 0,0.57433 -0.21353,1.12657 -0.20618,0.54487 -0.5596,0.99403 h 0.0442 q 0.1988,0 0.3387,0.0294 0.1399,0.0294 0.22826,0.11043 0.0883,0.0736 0.12517,0.21352 0.0368,0.13254 0.0368,0.34607 v 0.0294 q 0.50806,-0.59642 0.78051,-1.33274 0.27979,-0.7363 0.27979,-1.51681 0,-0.0883 -0.0368,-0.18408 -0.0368,-0.0957 -0.10306,-0.16935 -0.0589,-0.0736 -0.14727,-0.11779 -0.081,-0.0515 -0.17671,-0.0515 z" style="font-style:normal;font-variant:normal;font-weight:normal;font-stretch:normal;font-size:medium;line-height:100%;font-family:'Segoe UI Emoji';-inkscape-font-specification:'Segoe UI Emoji, Normal';font-variant-ligatures:normal;font-variant-caps:normal;font-variant-numeric:normal;font-feature-settings:normal;text-align:start;letter-spacing:0px;word-spacing:0px;writing-mode:lr-tb;text-anchor:start;fill:#dde9af;fill-opacity:1;stroke:none;stroke-width:0.26458332" id="path1415" inkscape:connector-curvature="0"/>
        </g>
      </g>
    </g>
    </g></svg>
