<?xml version='1.0' encoding='UTF-8'?>
<!-- Created with Inkscape (http://www.inkscape.org/) and export_objects.py -->
<svg xmlns:cc="http://creativecommons.org/ns#" xmlns:dc="http://purl.org/dc/elements/1.1/" xmlns:inkscape="http://www.inkscape.org/namespaces/inkscape" xmlns:rdf="http://www.w3.org/1999/02/22-rdf-syntax-ns#" xmlns:sodipodi="http://sodipodi.sourceforge.net/DTD/sodipodi-0.dtd" xmlns:xlink="http://www.w3.org/1999/xlink" xmlns="http://www.w3.org/2000/svg" version="1.1" sodipodi:docname="step13.svg" inkscape:version="0.92.3 (2405546, 2018-03-11)" width="44.45mm" height="44.45mm" viewBox="0 0 44.45 44.45" id="svg5174"><sodipodi:namedview inkscape:snap-others="false" inkscape:snap-nodes="true" inkscape:bbox-nodes="true" inkscape:snap-bbox="false" id="base" pagecolor="#ffffff" bordercolor="#666666" borderopacity="1.0" inkscape:pageopacity="0.0" inkscape:pageshadow="2" inkscape:zoom="0.17302633" inkscape:cx="2323.3308" inkscape:cy="216.00001" inkscape:document-units="mm" inkscape:current-layer="layer1" showgrid="false" inkscape:measure-start="72,612" inkscape:measure-end="72,552" inkscape:snap-grids="true" inkscape:window-width="1280" inkscape:window-height="945" inkscape:window-x="-9" inkscape:window-y="-9" inkscape:window-maximized="1" inkscape:object-nodes="true">
    <inkscape:grid type="xygrid" id="grid5337" units="pt" spacingx="3.175" spacingy="3.175"/>
  </sodipodi:namedview>
  <metadata id="metadata5171">
    <rdf:RDF>
      <cc:Work rdf:about="">
        <dc:format>image/svg+xml</dc:format>
        <dc:type rdf:resource="http://purl.org/dc/dcmitype/StillImage"/>
        <dc:title/>
      </cc:Work>
    </rdf:RDF>
  </metadata>
  <g inkscape:groupmode="layer" inkscape:label="step" transform="matrix(1.000000,0.000000,0.000000,1.000000,-1111.249868,-74.750001)"><g id="g2357" inkscape:label="13">
      <rect style="opacity:1;fill:#000000;fill-opacity:0.90562289;stroke:none;stroke-width:0.35277778;stroke-linecap:butt;stroke-linejoin:miter;stroke-miterlimit:47.14606857;stroke-dasharray:none;stroke-dashoffset:0;stroke-opacity:1;paint-order:markers fill stroke" id="rect1221" width="44.450001" height="44.450001" x="1111.2499" y="74.75"/>
      <g id="g1447" transform="translate(927.09993,9.525003)">
        <g transform="translate(146.05001,-57.149988)" id="g1439">
          <rect style="opacity:1;fill:#aa0000;fill-opacity:1;stroke:none;stroke-width:6.3499999;stroke-linecap:butt;stroke-linejoin:miter;stroke-miterlimit:47.14606857;stroke-dasharray:none;stroke-dashoffset:0;stroke-opacity:1;paint-order:markers fill stroke" id="rect1435" width="19.049999" height="19.049999" x="50.799995" y="125.54999"/>
          <path d="m 60.777105,127.13749 q 0.07591,0 0.138051,0.0483 0.06901,0.0483 0.09661,0.12424 l 0.255376,0.75234 q 0.282992,0.82826 0.676419,1.5668 0.393417,0.73162 0.848963,1.42184 0.462448,0.69022 0.973212,1.35973 0.510754,0.66261 1.028419,1.34593 0.600487,0.79374 0.917994,1.67032 0.317495,0.87658 0.317495,1.87739 0,0.78685 -0.20707,1.51848 -0.200159,0.72473 -0.572872,1.35973 -0.372725,0.635 -0.897281,1.15266 -0.517665,0.52456 -1.152668,0.89729 -0.628101,0.37271 -1.359727,0.57287 -0.724725,0.20707 -1.51158,0.20707 -0.786844,0 -1.518481,-0.20707 -0.724725,-0.20016 -1.359727,-0.57287 -0.634992,-0.37273 -1.159558,-0.89729 -0.517665,-0.51766 -0.890379,-1.15266 -0.372725,-0.635 -0.579785,-1.35973 -0.200169,-0.73163 -0.200169,-1.51848 0,-1.01462 0.324407,-1.89119 0.324397,-0.87658 0.931796,-1.67724 0.517654,-0.68331 1.021518,-1.34591 0.503864,-0.66262 0.959399,-1.34593 0.462447,-0.69022 0.848974,-1.42184 0.393416,-0.73854 0.676408,-1.5599 l 0.255376,-0.75234 q 0.0276,-0.0759 0.08971,-0.12424 0.06901,-0.0483 0.144951,-0.0483 z m -0.448635,14.8811 q 0.648805,0 1.249292,-0.17256 0.607387,-0.16565 1.125053,-0.47625 0.524566,-0.30369 0.952498,-0.73163 0.434844,-0.42794 0.738538,-0.95251 0.303694,-0.52456 0.469348,-1.12505 0.172555,-0.60739 0.172555,-1.25619 0,-0.84898 -0.269189,-1.5599 -0.262278,-0.71092 -0.766142,-1.38733 -0.531467,-0.71092 -1.069835,-1.40804 -0.531467,-0.70403 -1.014617,-1.43565 -0.48315,-0.73164 -0.890379,-1.50468 -0.407229,-0.77304 -0.697122,-1.62892 -0.289892,0.85588 -0.704022,1.62892 -0.407229,0.77304 -0.890379,1.50468 -0.48315,0.73162 -1.021529,1.43565 -0.531468,0.69712 -1.062935,1.40804 -0.503852,0.67641 -0.773042,1.38733 -0.262278,0.71092 -0.262278,1.5599 0,0.6488 0.165655,1.25619 0.172544,0.60049 0.476249,1.12505 0.303694,0.52457 0.731626,0.95251 0.434832,0.43484 0.959399,0.73853 0.524566,0.3037 1.125053,0.46935 0.600498,0.17256 1.256203,0.17256 z" style="font-style:normal;font-variant:normal;font-weight:normal;font-stretch:normal;font-size:medium;line-height:100%;font-family:'Segoe UI Emoji';-inkscape-font-specification:'Segoe UI Emoji, Normal';font-variant-ligatures:normal;font-variant-caps:normal;font-variant-numeric:normal;font-feature-settings:normal;text-align:start;letter-spacing:0px;word-spacing:0px;writing-mode:lr-tb;text-anchor:start;fill:#d35f5f;fill-opacity:1;stroke:none;stroke-width:0.26458332" id="path1437" inkscape:connector-curvature="0"/>
        </g>
        <g transform="translate(95.250002,-63.5)" id="g1445">
          <rect style="opacity:1;fill:#8800aa;fill-opacity:1;stroke:none;stroke-width:6.3499999;stroke-linecap:butt;stroke-linejoin:miter;stroke-miterlimit:47.14606857;stroke-dasharray:none;stroke-dashoffset:0;stroke-opacity:1;paint-order:markers fill stroke" id="rect1441" width="19.049999" height="19.049999" x="101.6" y="150.95"/>
          <path d="m 120.15527,167.81181 0.0947,0.0316 h -0.0947 v 0.56833 h -18.15524 v -3.10218 l 2.54174,-5.09135 q 0.0947,-0.18156 0.2368,-0.33943 0.14998,-0.15788 0.33153,-0.27628 0.18945,-0.11838 0.39468,-0.18944 0.20523,-0.071 0.41836,-0.071 0.0473,0 0.0947,0.008 0.0473,0 0.0947,0.008 l 1.8392,-3.67841 q 0.0868,-0.17367 0.23682,-0.33153 0.14997,-0.16576 0.33153,-0.28417 0.18945,-0.11838 0.39468,-0.18945 0.21312,-0.071 0.41836,-0.071 0.0473,0 0.0868,0.008 0.0473,0 0.0947,0.008 l 0.70253,-1.41295 q 0.20524,-0.40257 0.59992,-0.63148 0.39468,-0.23682 0.8446,-0.23682 0.44994,0 0.82884,0.23682 0.37888,0.22891 0.58411,0.63148 l 1.83131,3.67841 q 0.0473,-0.008 0.0947,-0.008 0.0474,-0.008 0.0947,-0.008 0.43416,0 0.81304,0.2447 0.3789,0.2447 0.56835,0.63149 l 3.6784,7.36471 z m -5.67548,-9.04605 q -0.41047,-0.81305 -0.81304,-1.61029 -0.40258,-0.79725 -0.80515,-1.61029 l -0.53676,-1.08142 q -0.0631,-0.13419 -0.12628,-0.27627 -0.0631,-0.1421 -0.14208,-0.26839 -0.071,-0.11838 -0.15787,-0.18155 -0.0789,-0.0631 -0.22892,-0.0631 -0.1026,0 -0.17365,0.0316 l -2.59699,10.35638 2.18653,0.7262 0.42624,-0.071 q 0.742,-1.49978 1.47611,-2.97588 0.74199,-1.48399 1.49188,-2.97588 z m -11.34308,6.81217 v 1.69712 h 13.61643 q -2.14706,-0.71043 -4.26253,-1.41295 -2.1076,-0.70254 -4.24675,-1.42085 z m 15.503,-0.76569 q -0.54466,-1.08142 -1.07353,-2.14706 -0.52887,-1.07351 -1.07353,-2.15495 l -0.72621,-1.43662 q -0.071,-0.14998 -0.14998,-0.30785 -0.071,-0.16577 -0.15786,-0.30785 -0.071,-0.11838 -0.15788,-0.18156 -0.0789,-0.0631 -0.22891,-0.0631 -0.1026,0 -0.17367,0.0316 -0.40257,1.53925 -0.78145,3.07061 -0.37101,1.52346 -0.75779,3.06271 0.7262,-0.12628 1.43663,-0.27628 0.71042,-0.14997 1.44452,-0.24469 0.2526,0.0789 0.48941,0.18154 0.2447,0.1026 0.4894,0.20524 z m 0.37889,2.46281 v -1.69712 l -2.8338,-1.13668 q -1.00248,0.18154 -1.98918,0.35521 -0.9867,0.17366 -1.98919,0.371 0.14999,0.0473 0.48941,0.15787 0.33942,0.11838 0.79726,0.27628 0.46571,0.15786 1.00247,0.33942 0.54466,0.18945 1.08932,0.37101 0.54466,0.18943 1.05774,0.3631 0.52098,0.17366 0.92355,0.30785 0.41046,0.13419 0.67095,0.21313 0.26839,0.0789 0.30786,0.0789 z m -11.04312,-3.35478 q -0.35522,-0.72621 -0.71832,-1.43663 -0.3631,-0.71832 -0.71832,-1.44453 -0.0552,-0.11049 -0.1026,-0.21313 -0.0473,-0.10259 -0.11049,-0.17365 -0.0552,-0.0789 -0.14997,-0.11838 -0.0868,-0.0473 -0.23682,-0.0473 -0.0237,0 -0.0473,0.008 -0.0158,0 -0.0395,0.008 l -0.071,0.34732 q -0.18945,0.93144 -0.3789,1.86287 -0.18154,0.92356 -0.3631,1.855 z m 1.9655,-7.41997 q -0.0552,-0.11049 -0.1026,-0.21312 -0.0395,-0.1026 -0.10259,-0.17367 -0.0631,-0.0789 -0.15788,-0.11838 -0.0868,-0.0473 -0.23681,-0.0473 -0.0237,0 -0.0473,0.008 -0.0158,0 -0.0395,0.008 l -0.63938,3.18111 z" style="font-style:normal;font-variant:normal;font-weight:normal;font-stretch:normal;font-size:medium;line-height:100%;font-family:'Segoe UI Emoji';-inkscape-font-specification:'Segoe UI Emoji, Normal';font-variant-ligatures:normal;font-variant-caps:normal;font-variant-numeric:normal;font-feature-settings:normal;text-align:start;letter-spacing:0px;word-spacing:0px;writing-mode:lr-tb;text-anchor:start;fill:#ccaaff;fill-opacity:1;stroke:none;stroke-width:0.26458329" id="path1443" inkscape:connector-curvature="0"/>
        </g>
      </g>
    </g>
    </g></svg>
