<?xml version='1.0' encoding='UTF-8'?>
<!-- Created with Inkscape (http://www.inkscape.org/) and export_objects.py -->
<svg xmlns:cc="http://creativecommons.org/ns#" xmlns:dc="http://purl.org/dc/elements/1.1/" xmlns:inkscape="http://www.inkscape.org/namespaces/inkscape" xmlns:rdf="http://www.w3.org/1999/02/22-rdf-syntax-ns#" xmlns:sodipodi="http://sodipodi.sourceforge.net/DTD/sodipodi-0.dtd" xmlns:xlink="http://www.w3.org/1999/xlink" xmlns="http://www.w3.org/2000/svg" version="1.1" sodipodi:docname="step26.svg" inkscape:version="0.92.3 (2405546, 2018-03-11)" width="44.45mm" height="44.45mm" viewBox="0 0 44.45 44.45" id="svg5174"><sodipodi:namedview inkscape:snap-others="false" inkscape:snap-nodes="true" inkscape:bbox-nodes="true" inkscape:snap-bbox="false" id="base" pagecolor="#ffffff" bordercolor="#666666" borderopacity="1.0" inkscape:pageopacity="0.0" inkscape:pageshadow="2" inkscape:zoom="0.17302633" inkscape:cx="2323.3308" inkscape:cy="216.00001" inkscape:document-units="mm" inkscape:current-layer="layer1" showgrid="false" inkscape:measure-start="72,612" inkscape:measure-end="72,552" inkscape:snap-grids="true" inkscape:window-width="1280" inkscape:window-height="945" inkscape:window-x="-9" inkscape:window-y="-9" inkscape:window-maximized="1" inkscape:object-nodes="true">
    <inkscape:grid type="xygrid" id="grid5337" units="pt" spacingx="3.175" spacingy="3.175"/>
  </sodipodi:namedview>
  <metadata id="metadata5171">
    <rdf:RDF>
      <cc:Work rdf:about="">
        <dc:format>image/svg+xml</dc:format>
        <dc:type rdf:resource="http://purl.org/dc/dcmitype/StillImage"/>
        <dc:title/>
      </cc:Work>
    </rdf:RDF>
  </metadata>
  <g inkscape:groupmode="layer" inkscape:label="step" transform="matrix(1.000000,0.000000,0.000000,1.000000,-1054.099841,-189.050004)"><g id="g2469" inkscape:label="26">
      <rect y="189.05" x="1054.0999" height="44.450001" width="44.450001" id="rect1241" style="opacity:1;fill:#000000;fill-opacity:0.90562289;stroke:none;stroke-width:0.35277778;stroke-linecap:butt;stroke-linejoin:miter;stroke-miterlimit:47.14606857;stroke-dasharray:none;stroke-dashoffset:0;stroke-opacity:1;paint-order:markers fill stroke"/>
      <g id="g1635" transform="translate(901.69991,22.225005)">
        <g id="g1627" transform="translate(63.500009,44.450012)">
          <rect style="opacity:1;fill:#ffdd55;fill-opacity:1;stroke:none;stroke-width:6.3499999;stroke-linecap:butt;stroke-linejoin:miter;stroke-miterlimit:47.14606857;stroke-dasharray:none;stroke-dashoffset:0;stroke-opacity:1;paint-order:markers fill stroke" id="rect1623" width="19.049999" height="19.049999" x="101.59999" y="125.54999"/>
          <path inkscape:connector-curvature="0" id="path1625" style="font-style:normal;font-variant:normal;font-weight:normal;font-stretch:normal;font-size:medium;line-height:100%;font-family:'Segoe UI Emoji';-inkscape-font-specification:'Segoe UI Emoji, Normal';font-variant-ligatures:normal;font-variant-caps:normal;font-variant-numeric:normal;font-feature-settings:normal;text-align:start;letter-spacing:0px;word-spacing:0px;writing-mode:lr-tb;text-anchor:start;fill:#d4aa00;fill-opacity:1;stroke:none;stroke-width:0.26458332" d="m 118.10501,137.03159 v 0.99218 q 0,0.82567 -0.31916,1.55421 -0.31224,0.72159 -0.85343,1.26278 -0.54119,0.54119 -1.26972,0.85342 -0.72159,0.31917 -1.54725,0.31917 h -1.58196 q -0.15958,0.45099 -0.54812,0.72159 -0.38162,0.27754 -0.86037,0.27754 -0.2359,0 -0.45792,-0.0763 -0.2151,-0.0694 -0.40243,-0.20122 -0.18734,-0.13182 -0.32611,-0.31916 -0.13876,-0.18039 -0.22203,-0.40243 h -1.58194 q -0.82567,0 -1.5542,-0.31916 -0.7216,-0.31224 -1.26279,-0.85343 -0.54119,-0.54119 -0.86035,-1.26278 -0.31224,-0.72853 -0.31224,-1.55419 v -0.99219 h 2.53945 q -0.27059,-0.0832 -0.54813,-0.15265 -0.2706,-0.0694 -0.54813,-0.1457 0.13183,-0.47875 0.24978,-0.95056 0.12489,-0.47181 0.34692,-0.92281 -0.4163,-0.27059 -0.76322,-0.61751 -0.33999,-0.35386 -0.69384,-0.70772 0.35385,-0.34692 0.69384,-0.69384 0.34692,-0.35385 0.76322,-0.62444 -0.22203,-0.451 -0.34692,-0.92281 -0.11795,-0.47875 -0.24978,-0.9575 0.47875,-0.12489 0.95056,-0.24978 0.47181,-0.13183 0.97137,-0.16652 0.0347,-0.49957 0.15958,-0.97138 0.13183,-0.47181 0.25672,-0.95056 0.47875,0.12489 0.95056,0.24979 0.47874,0.12489 0.92281,0.34691 0.27753,-0.4163 0.62444,-0.75627 0.34692,-0.34692 0.70078,-0.70078 0.35386,0.35386 0.70078,0.70078 0.34692,0.33997 0.62446,0.75627 0.45099,-0.22202 0.9228,-0.34691 0.47181,-0.1249 0.95055,-0.24979 0.12489,0.47875 0.25673,0.95056 0.13183,0.47181 0.16651,0.97138 0.49957,0.0347 0.97138,0.16652 0.47181,0.12489 0.95056,0.24978 -0.12489,0.47875 -0.25672,0.9575 -0.1249,0.47181 -0.34692,0.92281 0.4163,0.27059 0.75628,0.61751 0.34692,0.34692 0.70077,0.70077 -0.34692,0.35386 -0.69383,0.70772 -0.34692,0.34692 -0.76322,0.61751 0.22202,0.451 0.34692,0.92281 0.12489,0.47181 0.25672,0.95056 -0.27754,0.0763 -0.55507,0.15263 -0.2706,0.0694 -0.54814,0.14572 z m -6.98001,1.49175 q 0.32611,-0.32611 0.56895,-0.71465 0.24285,-0.38855 0.35386,-0.83954 0.3261,0.33303 0.72853,0.55507 0.40242,0.21509 0.84647,0.33304 0.0624,-0.24285 0.0971,-0.48569 0.0347,-0.24285 0.0347,-0.48569 0,-0.42324 -0.11795,-0.83954 0.20121,0.0624 0.4163,0.0902 0.21509,0.0277 0.43018,0.0277 0.24284,0 0.48568,-0.0347 0.24285,-0.0347 0.47875,-0.0971 -0.12489,-0.45794 -0.33997,-0.84648 -0.21509,-0.39549 -0.54814,-0.72854 0.451,-0.11099 0.83954,-0.3469 0.38855,-0.24286 0.71466,-0.57589 -0.32611,-0.31918 -0.71466,-0.56202 -0.38854,-0.24284 -0.83954,-0.35386 0.33305,-0.31916 0.54814,-0.72158 0.22202,-0.40937 0.33997,-0.85342 -0.24284,-0.0624 -0.48568,-0.0971 -0.24284,-0.0347 -0.49262,-0.0347 -0.20816,0 -0.42324,0.0277 -0.20816,0.0277 -0.40937,0.0832 0.0624,-0.20122 0.0902,-0.40937 0.0277,-0.21509 0.0277,-0.43017 0,-0.24286 -0.0347,-0.4857 -0.0347,-0.24284 -0.0971,-0.47874 -0.44405,0.11795 -0.85341,0.33998 -0.40243,0.21509 -0.72159,0.54813 -0.11796,-0.45099 -0.3608,-0.83954 -0.2359,-0.38855 -0.56201,-0.71466 -0.3261,0.32611 -0.56894,0.71466 -0.23591,0.38855 -0.34692,0.83954 -0.31917,-0.33304 -0.72854,-0.54813 -0.40242,-0.22203 -0.84648,-0.33998 -0.0624,0.24284 -0.10405,0.48568 -0.0347,0.24285 -0.0347,0.49263 0,0.40937 0.11795,0.82567 -0.20122,-0.0555 -0.4163,-0.0832 -0.20816,-0.0277 -0.41631,-0.0277 -0.24284,0 -0.49263,0.0347 -0.24284,0.0347 -0.47875,0.0971 0.11796,0.44405 0.33305,0.85342 0.22203,0.40242 0.55507,0.72158 -0.45099,0.111 -0.83955,0.35386 -0.38854,0.23591 -0.72159,0.56202 0.32611,0.32609 0.71466,0.56894 0.39549,0.24284 0.84648,0.35385 -0.33304,0.31918 -0.55507,0.72854 -0.21509,0.40242 -0.33305,0.84648 0.23591,0.0624 0.47181,0.0971 0.24285,0.0347 0.4857,0.0347 0.21508,0 0.42324,-0.0277 0.21508,-0.0277 0.42324,-0.0902 -0.11795,0.4163 -0.11795,0.83261 0,0.24977 0.0347,0.49262 0.0416,0.24284 0.10405,0.48569 0.44406,-0.11795 0.84648,-0.33304 0.40243,-0.22204 0.72854,-0.55507 0.11099,0.45099 0.34692,0.83954 0.24284,0.38854 0.56894,0.71465 z m 2.49781,-4.98869 q 0,0.52037 -0.2012,0.97831 -0.19428,0.451 -0.53426,0.79097 -0.33304,0.33305 -0.79097,0.53425 -0.451,0.19429 -0.97138,0.19429 -0.52038,0 -0.97137,-0.19429 -0.451,-0.2012 -0.79098,-0.54119 -0.33997,-0.33997 -0.53425,-0.79097 -0.19427,-0.45793 -0.19427,-0.97137 0,-0.51344 0.19427,-0.96444 0.19428,-0.45792 0.53425,-0.79097 0.33998,-0.33998 0.79098,-0.53426 0.45794,-0.2012 0.97137,-0.2012 0.51345,0 0.96444,0.19427 0.45793,0.19427 0.79791,0.53425 0.33998,0.33999 0.53426,0.79097 0.2012,0.451 0.2012,0.97138 z m -2.49781,1.99825 q 0.4163,0 0.7771,-0.15264 0.36774,-0.15959 0.63833,-0.43019 0.2706,-0.27059 0.42324,-0.63138 0.15959,-0.36773 0.15959,-0.78404 0,-0.40936 -0.15959,-0.77016 -0.15957,-0.36774 -0.43018,-0.63833 -0.2706,-0.2706 -0.63833,-0.42324 -0.36079,-0.15959 -0.77016,-0.15959 -0.40936,0 -0.7771,0.15959 -0.36079,0.15264 -0.63139,0.42324 -0.27059,0.27059 -0.43018,0.63833 -0.15264,0.3608 -0.15264,0.77016 0,0.41631 0.15264,0.78404 0.15959,0.36079 0.43018,0.63138 0.2706,0.2706 0.63139,0.43019 0.3608,0.15264 0.7771,0.15264 z m 2.99045,5.48826 q 0.62445,0 1.16564,-0.23591 0.54814,-0.2359 0.95055,-0.64527 0.40937,-0.40243 0.64527,-0.94362 0.23591,-0.54813 0.23591,-1.17259 h -1.49869 q -0.33304,0 -0.6522,0.0971 -0.31917,0.0902 -0.60364,0.25673 l -2.23416,1.34604 v 1.29748 z m -3.98958,0 v -1.29748 l -2.23415,-1.34605 q -0.28447,-0.17346 -0.60364,-0.26365 -0.31916,-0.0902 -0.65221,-0.0902 h -1.49175 q 0,0.61751 0.22897,1.16565 0.2359,0.54813 0.63833,0.95056 0.40937,0.40936 0.95056,0.64527 0.54813,0.2359 1.17259,0.2359 z m 1.4987,-2.29661 q -0.11795,0.13183 -0.24979,0.25673 -0.12489,0.12489 -0.24978,0.24978 -0.12489,-0.12489 -0.25671,-0.24978 -0.12489,-0.1249 -0.24285,-0.25673 v 2.78923 q 0,0.20816 0.1457,0.35386 0.14572,0.14571 0.35386,0.14571 0.20816,0 0.35386,-0.14571 0.14571,-0.1457 0.14571,-0.35386 z"/>
        </g>
        <g transform="translate(88.900003,38.100001)" id="g1633">
          <rect y="150.95" x="76.199997" height="19.049999" width="19.049999" id="rect1629" style="opacity:1;fill:#2c2ca0;fill-opacity:1;stroke:none;stroke-width:6.3499999;stroke-linecap:butt;stroke-linejoin:miter;stroke-miterlimit:47.14606857;stroke-dasharray:none;stroke-dashoffset:0;stroke-opacity:1;paint-order:markers fill stroke"/>
          <path d="m 85.725006,152.5375 q 1.097106,0 2.10586,0.28717 1.016115,0.2798 1.899695,0.79522 0.883579,0.51542 1.605176,1.24437 0.728946,0.7216 1.244377,1.60518 0.51542,0.88358 0.795215,1.89969 0.287169,1.00876 0.287169,2.10586 0,1.09712 -0.287169,2.11324 -0.279795,1.00875 -0.795215,1.89233 -0.515431,0.88358 -1.244377,1.60518 -0.721597,0.72895 -1.605176,1.24437 -0.88358,0.51543 -1.899695,0.79522 -1.008754,0.28717 -2.10586,0.28717 -1.097119,0 -2.113234,-0.28717 -1.008753,-0.27979 -1.892333,-0.79522 -0.883591,-0.51542 -1.612538,-1.24437 -0.721596,-0.7216 -1.237016,-1.60518 -0.515419,-0.88358 -0.802588,-1.89233 -0.279795,-1.01612 -0.279795,-2.11324 0,-1.0971 0.279795,-2.10586 0.287169,-1.01611 0.802588,-1.89969 0.51542,-0.88358 1.237016,-1.60518 0.728947,-0.72895 1.612538,-1.24437 0.88358,-0.51542 1.892333,-0.79522 1.016115,-0.28717 2.113234,-0.28717 z m 0,14.8147 q 0.949847,0 1.826065,-0.25034 0.883579,-0.24299 1.641985,-0.69214 0.765767,-0.44179 1.391637,-1.06766 0.633231,-0.63324 1.075021,-1.39164 0.449152,-0.76578 0.692138,-1.64199 0.250348,-0.88359 0.250348,-1.83344 0,-1.16337 -0.36816,-2.23839 -0.36816,-1.07502 -1.082383,-1.99542 h -0.662691 q -0.397607,0 -0.677402,-0.11779 -0.272445,-0.11779 -0.500696,-0.29453 -0.220901,-0.17671 -0.412343,-0.38289 -0.191441,-0.20616 -0.412342,-0.38288 -0.220889,-0.17672 -0.500684,-0.29452 -0.279807,-0.11779 -0.670053,-0.11779 h -0.176718 q -0.132536,0 -0.242986,0.0589 -0.110427,0.0515 -0.110427,0.20617 0,0.17672 0.125174,0.22826 0.132548,0.0442 0.287169,0.0442 0.06626,0 0.125174,0 0.06626,-0.007 0.117788,-0.007 0.07362,0 0.139898,0.007 0.07362,0.007 0.132536,0.0368 0.05889,0.0221 0.0957,0.081 0.03681,0.0515 0.03681,0.1399 0,0.10306 -0.04417,0.16199 -0.03681,0.0515 -0.103065,0.081 -0.06626,0.0221 -0.147259,0.0294 -0.07362,0 -0.147271,0 0.147271,0.0294 0.250348,0.11779 0.110426,0.081 0.213539,0.17671 0.103064,0.0883 0.213527,0.16199 0.117788,0.0663 0.287168,0.0663 h 0.265072 q 0.110427,0 0.18408,0.081 0.08098,0.0736 0.08098,0.18408 0,0.17672 -0.117788,0.2209 -0.110427,0.0442 -0.242986,0.0442 h -0.169345 q -0.103065,0 -0.18408,0.081 -0.07362,0.081 -0.07362,0.18408 0,0.11043 -0.05889,0.16199 -0.05889,0.0515 -0.147271,0.081 -0.08834,0.0294 -0.191442,0.0589 -0.103065,0.0221 -0.191442,0.0736 -0.08834,0.0515 -0.147259,0.14725 -0.05889,0.0957 -0.05889,0.27244 0,0.19144 -0.08834,0.30925 -0.08098,0.11779 -0.184069,0.2209 -0.0957,0.0957 -0.176718,0.21353 -0.08098,0.11779 -0.08098,0.30925 v 0.14726 q 0,0.0663 -0.0071,0.13991 -0.0071,0.0663 -0.03681,0.12518 -0.02208,0.0515 -0.08098,0.0883 -0.05153,0.0294 -0.139898,0.0294 -0.147259,0 -0.191441,-0.081 -0.04417,-0.081 -0.07362,-0.17672 -0.02945,-0.10307 -0.07362,-0.18408 -0.04417,-0.0883 -0.191442,-0.0883 h -0.795226 q -0.213539,0 -0.375522,0.16199 -0.154633,0.15462 -0.154633,0.36815 v 0.27981 q 0,0.14726 0.01472,0.28717 0.01472,0.1399 0.06626,0.25033 0.05889,0.11043 0.161994,0.17672 0.110427,0.0663 0.287169,0.0663 0.147259,0 0.191442,-0.081 0.04417,-0.081 0.07362,-0.17672 0.02945,-0.10306 0.07362,-0.18408 0.04417,-0.0883 0.191442,-0.0883 0.14726,0 0.191442,0.0883 0.04417,0.081 0.07362,0.18408 0.02945,0.0957 0.07362,0.17672 0.04417,0.081 0.191441,0.081 0.14726,0 0.191442,0.0883 0.05153,0.081 0.07362,0.18408 0.02208,0.0957 0.06626,0.17671 0.05153,0.081 0.198804,0.081 h 1.58309 q 0.220889,0 0.412331,0.0883 0.191442,0.081 0.331339,0.22826 0.147272,0.1399 0.228263,0.33134 0.08834,0.19144 0.08834,0.41234 0,0.21353 0.154633,0.37552 0.161995,0.15462 0.375522,0.15462 0.213527,0 0.36816,0.15464 0.161983,0.15462 0.161983,0.36815 0,0.34607 -0.147259,0.58906 -0.147259,0.23562 -0.382884,0.47123 l -1.59044,1.59046 q -0.154633,0.15462 -0.279807,0.25771 -0.125174,0.10306 -0.265072,0.16198 -0.132536,0.0589 -0.29453,0.081 -0.161983,0.0294 -0.382884,0.0294 -0.139897,0 -0.250348,-0.0515 -0.110427,-0.0442 -0.110427,-0.21353 0,-0.14727 0.08098,-0.19144 0.08098,-0.0442 0.176718,-0.0736 0.103065,-0.0294 0.184068,-0.0736 0.08834,-0.0442 0.08834,-0.19144 v -1.32537 q 0,-0.22089 -0.154633,-0.37552 -0.154621,-0.15462 -0.375522,-0.15462 -0.176706,0 -0.287157,-0.0663 -0.103065,-0.0663 -0.161995,-0.17672 -0.05153,-0.11043 -0.06626,-0.24299 -0.01472,-0.1399 -0.01472,-0.27243 0,-0.2209 0.01472,-0.40498 0.01472,-0.18408 0.06626,-0.34607 0.05889,-0.16199 0.161995,-0.30925 0.103065,-0.14726 0.287157,-0.29453 -0.338701,0 -0.589049,-0.14726 -0.250348,-0.14726 -0.471237,-0.38288 -0.18408,-0.19881 -0.338713,-0.3019 -0.154633,-0.11042 -0.316616,-0.15462 -0.161994,-0.0515 -0.338713,-0.0589 -0.176718,-0.0147 -0.397607,-0.0147 H 84.13484 q -0.213539,0 -0.368161,-0.15462 -0.154632,-0.16199 -0.154632,-0.37552 0,-0.25771 -0.08098,-0.44179 -0.07362,-0.19144 -0.191442,-0.33871 -0.117788,-0.14726 -0.25771,-0.2798 -0.139897,-0.13253 -0.257709,-0.27979 -0.117789,-0.14727 -0.198804,-0.33135 -0.07362,-0.18408 -0.07362,-0.44179 0,-0.33134 -0.125174,-0.61851 -0.125174,-0.28716 -0.346062,-0.5007 -0.21354,-0.22089 -0.500696,-0.34606 -0.287169,-0.12517 -0.618508,-0.12517 h -0.655329 q -0.714223,0.9204 -1.089745,1.99542 -0.36816,1.07502 -0.36816,2.23839 0,0.94985 0.242986,1.83344 0.250348,0.87621 0.692138,1.64199 0.449151,0.7584 1.075021,1.39163 0.633232,0.62587 1.391637,1.06767 0.765767,0.44915 1.641985,0.69214 0.88358,0.25034 1.833439,0.25034 z m 0,-13.7544 q -0.809962,0 -1.597815,0.18408 -0.780502,0.18408 -1.502087,0.55224 l 0.456513,0.31662 h 1.052936 q 0.154621,0 0.191442,0.0883 0.04417,0.081 0.05889,0.18408 0.02209,0.0957 0.06626,0.17672 0.05153,0.081 0.213527,0.081 0.110427,0 0.198816,-0.0736 0.0957,-0.0736 0.0957,-0.19145 0.02945,-0.13253 0.0957,-0.27243 0.06626,-0.13991 0.161983,-0.25035 0.0957,-0.11779 0.220901,-0.19144 0.132535,-0.0736 0.287168,-0.0736 h 2.650739 q -0.633226,-0.26507 -1.303278,-0.3976 -0.662691,-0.13254 -1.347455,-0.13254 z m 0.795214,1.58308 q -0.147259,0 -0.191442,0.0883 -0.04417,0.081 -0.07362,0.18407 -0.02945,0.0957 -0.07362,0.17672 -0.04417,0.081 -0.191442,0.081 -0.08834,0 -0.176718,-0.007 -0.08098,-0.007 -0.169357,-0.007 -0.07362,0 -0.154621,0.007 -0.07362,0.007 -0.139909,0.0368 -0.06626,0.0294 -0.110427,0.0883 -0.04417,0.0515 -0.04417,0.14727 0,0.0957 0.04417,0.15462 0.04417,0.0515 0.110427,0.081 0.06626,0.0294 0.139909,0.0368 0.08098,0.007 0.154621,0.007 0.08834,0 0.169357,-0.007 0.08834,-0.007 0.176718,-0.007 0.147259,0 0.191442,0.0883 0.04417,0.081 0.07362,0.18408 0.02945,0.0957 0.07362,0.17672 0.04417,0.081 0.191442,0.081 0.18408,0 0.220901,-0.11779 0.04417,-0.11779 0.04417,-0.25772 v -0.15462 q 0,-0.20617 0.132547,-0.35344 0.132536,-0.15462 0.338701,-0.17671 h -0.206165 q -0.147271,0 -0.191442,-0.081 -0.04417,-0.081 -0.07362,-0.17672 -0.02209,-0.10306 -0.07362,-0.18406 -0.04417,-0.0883 -0.191442,-0.0883 z m 0.839409,0.53015 q 0.01472,0.007 0.03681,0.007 z" style="font-style:normal;font-variant:normal;font-weight:normal;font-stretch:normal;font-size:medium;line-height:100%;font-family:'Segoe UI Emoji';-inkscape-font-specification:'Segoe UI Emoji, Normal';font-variant-ligatures:normal;font-variant-caps:normal;font-variant-numeric:normal;font-feature-settings:normal;text-align:start;letter-spacing:0px;word-spacing:0px;writing-mode:lr-tb;text-anchor:start;fill:#afafe9;fill-opacity:1;stroke:none;stroke-width:0.26458332" id="path1631" inkscape:connector-curvature="0"/>
        </g>
      </g>
    </g>
    </g></svg>
