<?xml version='1.0' encoding='UTF-8'?>
<!-- Created with Inkscape (http://www.inkscape.org/) and export_objects.py -->
<svg xmlns:cc="http://creativecommons.org/ns#" xmlns:dc="http://purl.org/dc/elements/1.1/" xmlns:inkscape="http://www.inkscape.org/namespaces/inkscape" xmlns:rdf="http://www.w3.org/1999/02/22-rdf-syntax-ns#" xmlns:sodipodi="http://sodipodi.sourceforge.net/DTD/sodipodi-0.dtd" xmlns:xlink="http://www.w3.org/1999/xlink" xmlns="http://www.w3.org/2000/svg" version="1.1" sodipodi:docname="step33.svg" inkscape:version="0.92.3 (2405546, 2018-03-11)" width="44.45mm" height="44.45mm" viewBox="0 0 44.45 44.45" id="svg5174"><sodipodi:namedview inkscape:snap-others="false" inkscape:snap-nodes="true" inkscape:bbox-nodes="true" inkscape:snap-bbox="false" id="base" pagecolor="#ffffff" bordercolor="#666666" borderopacity="1.0" inkscape:pageopacity="0.0" inkscape:pageshadow="2" inkscape:zoom="0.17302633" inkscape:cx="2323.3308" inkscape:cy="216.00001" inkscape:document-units="mm" inkscape:current-layer="layer1" showgrid="false" inkscape:measure-start="72,612" inkscape:measure-end="72,552" inkscape:snap-grids="true" inkscape:window-width="1280" inkscape:window-height="945" inkscape:window-x="-9" inkscape:window-y="-9" inkscape:window-maximized="1" inkscape:object-nodes="true">
    <inkscape:grid type="xygrid" id="grid5337" units="pt" spacingx="3.175" spacingy="3.175"/>
  </sodipodi:namedview>
  <metadata id="metadata5171">
    <rdf:RDF>
      <cc:Work rdf:about="">
        <dc:format>image/svg+xml</dc:format>
        <dc:type rdf:resource="http://purl.org/dc/dcmitype/StillImage"/>
        <dc:title/>
      </cc:Work>
    </rdf:RDF>
  </metadata>
  <g inkscape:groupmode="layer" inkscape:label="step" transform="matrix(1.000000,0.000000,0.000000,1.000000,-1054.099841,-303.349978)"><g id="g2550" inkscape:label="33">
      <rect y="303.34998" x="1054.0999" height="44.450001" width="44.450001" id="rect1255" style="opacity:1;fill:#000000;fill-opacity:0.90562289;stroke:none;stroke-width:0.35277778;stroke-linecap:butt;stroke-linejoin:miter;stroke-miterlimit:47.14606857;stroke-dasharray:none;stroke-dashoffset:0;stroke-opacity:1;paint-order:markers fill stroke"/>
      <g id="g1743" transform="translate(901.69991,34.924979)">
        <g transform="translate(114.3,120.65)" id="g1735">
          <rect y="150.95" x="50.799999" height="19.049999" width="19.049999" id="rect1729" style="opacity:1;fill:#2ad4ff;fill-opacity:1;stroke:none;stroke-width:6.3499999;stroke-linecap:butt;stroke-linejoin:miter;stroke-miterlimit:47.14606857;stroke-dasharray:none;stroke-dashoffset:0;stroke-opacity:1;paint-order:markers fill stroke"/>
          <g transform="matrix(1.1130439,0,0,1.1130439,-35.433102,-24.237262)" id="g1733" style="font-style:normal;font-variant:normal;font-weight:normal;font-stretch:normal;font-size:12.69999981px;line-height:100%;font-family:'Segoe UI Emoji';-inkscape-font-specification:'Segoe UI Emoji, Normal';font-variant-ligatures:normal;font-variant-caps:normal;font-variant-numeric:normal;font-feature-settings:normal;text-align:start;letter-spacing:0px;word-spacing:0px;writing-mode:lr-tb;text-anchor:start;fill:#aaeeff;fill-opacity:1;stroke:none;stroke-width:0.23771149" aria-label="ðŸ¦">
            <path style="fill:#aaeeff;stroke-width:0.23771149" inkscape:connector-curvature="0" id="path1731" d="m 85.145863,163.35406 8.024317,7.9499 H 88.792152 L 87.899183,170.411 h -2.244824 l -0.341064,0.59531 q 0.235644,0.12402 0.378271,0.27905 0.142627,0.15503 0.223243,0.34107 0.08061,0.18603 0.105419,0.40307 0.02481,0.22324 0.02481,0.46509 0,0.14883 -0.0062,0.29145 0,0.14883 0,0.29766 h -6.238379 v -0.89297 q 0,-0.27905 0.10542,-0.5209 0.10542,-0.24184 0.285254,-0.42168 0.179834,-0.17983 0.42168,-0.28525 0.241845,-0.10542 0.520898,-0.10542 h 0.440283 l 0.303858,-0.5333 q -0.651123,-0.14263 -1.196826,-0.48989 -0.539502,-0.34727 -0.936377,-0.83716 -0.396875,-0.4961 -0.620118,-1.10381 -0.217041,-0.60772 -0.217041,-1.27124 0,-0.40308 0.08682,-0.83716 0.09302,-0.43408 0.279053,-0.78755 0.223242,-0.42788 0.440283,-0.85576 0.217041,-0.43408 0.434082,-0.86196 h -1.240235 q 0,-0.16123 -0.0062,-0.31626 -0.0062,-0.15503 -0.0062,-0.31626 0,-0.19844 0.0124,-0.36587 0.0186,-0.17363 0.06201,-0.32866 0.04961,-0.16123 0.130225,-0.31006 0.08061,-0.14883 0.21084,-0.30386 0.390673,-0.45889 0.79375,-0.89917 0.403076,-0.44648 0.818554,-0.88057 0.334864,-0.35346 0.744141,-0.5457 0.409277,-0.19223 0.905371,-0.19223 h 3.912939 v 0.89296 q 0,0.29766 -0.10542,0.55811 -0.10542,0.26045 -0.303857,0.48369 l -0.930176,1.0356 z m -5.34541,3.31763 q 0,0.40308 0.117822,0.78755 0.124024,0.38447 0.341065,0.71933 h 8.452197 l -4.458643,-4.45244 h -1.575097 q -0.5271,0 -1.054199,0.19844 -0.520899,0.19844 -0.89917,0.57671 -0.446485,0.45268 -0.68833,0.99219 -0.235645,0.5395 -0.235645,1.17822 z m 0,-4.28501 h 1.779736 l -0.706933,1.43247 q 0.824756,-0.5395 1.823144,-0.5395 h 1.556494 v -1.82935 q 0.05581,-0.062 0.167432,-0.17983 0.111621,-0.11782 0.241846,-0.26045 0.136426,-0.14883 0.279053,-0.30386 0.142627,-0.15503 0.260449,-0.29145 0.124023,-0.14263 0.21084,-0.24805 0.08682,-0.11162 0.111621,-0.16743 0.03101,-0.0744 0.04961,-0.14263 0.0186,-0.0744 0.0186,-0.14263 h -3.019971 q -0.260449,0 -0.458887,0.0806 -0.198437,0.0806 -0.365869,0.21704 -0.16123,0.13023 -0.310059,0.29766 -0.148828,0.16743 -0.303857,0.34106 l -1.159619,1.28984 q -0.173633,0.19224 -0.173633,0.44649 z m 8.4646,7.13135 0.892968,0.89297 h 1.785938 l -1.785938,-1.78594 h -8.551416 q 0.434083,0.42168 0.954981,0.65732 0.5271,0.23565 1.134814,0.23565 z m -6.684864,-7.13135 v -2.22622 H 82.6964 q 0.229444,0 0.434082,0.0868 0.204639,0.0868 0.353467,0.24185 0.155029,0.14883 0.241846,0.35347 0.08682,0.19843 0.08682,0.42788 0,0.23564 -0.08682,0.44028 -0.08682,0.19844 -0.241846,0.35347 -0.148828,0.14883 -0.353467,0.23564 -0.204638,0.0868 -0.434082,0.0868 z m -0.892968,9.80405 h 4.458642 q 0,-0.17983 -0.136426,-0.31626 -0.130224,-0.13022 -0.310058,-0.13022 h -0.837158 l 1.023193,-1.77974 h -0.514697 l -1.023194,1.77974 h -0.74414 l 1.023193,-1.77974 h -0.514697 l -1.023193,1.77974 h -0.954981 q -0.179834,0 -0.31626,0.13022 -0.130224,0.13643 -0.130224,0.31626 z m 1.339453,-11.1435 v 0.44648 q 0,0.18604 0.130224,0.31626 0.130225,0.13022 0.31626,0.13022 0.186035,0 0.31626,-0.13022 0.130225,-0.13022 0.130225,-0.31626 v -0.44648 q 0,-0.17984 -0.136426,-0.31006 -0.130225,-0.13023 -0.310059,-0.13023 -0.179834,0 -0.31626,0.13023 -0.130224,0.13022 -0.130224,0.31006 z"/>
          </g>
        </g>
        <g transform="translate(88.900002,139.7)" id="g1741">
          <rect y="150.95" x="76.199997" height="19.049999" width="19.049999" id="rect1737" style="opacity:1;fill:#2c2ca0;fill-opacity:1;stroke:none;stroke-width:6.3499999;stroke-linecap:butt;stroke-linejoin:miter;stroke-miterlimit:47.14606857;stroke-dasharray:none;stroke-dashoffset:0;stroke-opacity:1;paint-order:markers fill stroke"/>
          <path d="m 85.725006,152.5375 q 1.097106,0 2.10586,0.28717 1.016115,0.2798 1.899695,0.79522 0.883579,0.51542 1.605176,1.24437 0.728946,0.7216 1.244377,1.60518 0.51542,0.88358 0.795215,1.89969 0.287169,1.00876 0.287169,2.10586 0,1.09712 -0.287169,2.11324 -0.279795,1.00875 -0.795215,1.89233 -0.515431,0.88358 -1.244377,1.60518 -0.721597,0.72895 -1.605176,1.24437 -0.88358,0.51543 -1.899695,0.79522 -1.008754,0.28717 -2.10586,0.28717 -1.097119,0 -2.113234,-0.28717 -1.008753,-0.27979 -1.892333,-0.79522 -0.883591,-0.51542 -1.612538,-1.24437 -0.721596,-0.7216 -1.237016,-1.60518 -0.515419,-0.88358 -0.802588,-1.89233 -0.279795,-1.01612 -0.279795,-2.11324 0,-1.0971 0.279795,-2.10586 0.287169,-1.01611 0.802588,-1.89969 0.51542,-0.88358 1.237016,-1.60518 0.728947,-0.72895 1.612538,-1.24437 0.88358,-0.51542 1.892333,-0.79522 1.016115,-0.28717 2.113234,-0.28717 z m 0,14.8147 q 0.949847,0 1.826065,-0.25034 0.883579,-0.24299 1.641985,-0.69214 0.765767,-0.44179 1.391637,-1.06766 0.633231,-0.63324 1.075021,-1.39164 0.449152,-0.76578 0.692138,-1.64199 0.250348,-0.88359 0.250348,-1.83344 0,-1.16337 -0.36816,-2.23839 -0.36816,-1.07502 -1.082383,-1.99542 h -0.662691 q -0.397607,0 -0.677402,-0.11779 -0.272445,-0.11779 -0.500696,-0.29453 -0.220901,-0.17671 -0.412343,-0.38289 -0.191441,-0.20616 -0.412342,-0.38288 -0.220889,-0.17672 -0.500684,-0.29452 -0.279807,-0.11779 -0.670053,-0.11779 h -0.176718 q -0.132536,0 -0.242986,0.0589 -0.110427,0.0515 -0.110427,0.20617 0,0.17672 0.125174,0.22826 0.132548,0.0442 0.287169,0.0442 0.06626,0 0.125174,0 0.06626,-0.007 0.117788,-0.007 0.07362,0 0.139898,0.007 0.07362,0.007 0.132536,0.0368 0.05889,0.0221 0.0957,0.081 0.03681,0.0515 0.03681,0.1399 0,0.10306 -0.04417,0.16199 -0.03681,0.0515 -0.103065,0.081 -0.06626,0.0221 -0.147259,0.0294 -0.07362,0 -0.147271,0 0.147271,0.0294 0.250348,0.11779 0.110426,0.081 0.213539,0.17671 0.103064,0.0883 0.213527,0.16199 0.117788,0.0663 0.287168,0.0663 h 0.265072 q 0.110427,0 0.18408,0.081 0.08098,0.0736 0.08098,0.18408 0,0.17672 -0.117788,0.2209 -0.110427,0.0442 -0.242986,0.0442 h -0.169345 q -0.103065,0 -0.18408,0.081 -0.07362,0.081 -0.07362,0.18408 0,0.11043 -0.05889,0.16199 -0.05889,0.0515 -0.147271,0.081 -0.08834,0.0294 -0.191442,0.0589 -0.103065,0.0221 -0.191442,0.0736 -0.08834,0.0515 -0.147259,0.14725 -0.05889,0.0957 -0.05889,0.27244 0,0.19144 -0.08834,0.30925 -0.08098,0.11779 -0.184069,0.2209 -0.0957,0.0957 -0.176718,0.21353 -0.08098,0.11779 -0.08098,0.30925 v 0.14726 q 0,0.0663 -0.0071,0.13991 -0.0071,0.0663 -0.03681,0.12518 -0.02208,0.0515 -0.08098,0.0883 -0.05153,0.0294 -0.139898,0.0294 -0.147259,0 -0.191441,-0.081 -0.04417,-0.081 -0.07362,-0.17672 -0.02945,-0.10307 -0.07362,-0.18408 -0.04417,-0.0883 -0.191442,-0.0883 h -0.795226 q -0.213539,0 -0.375522,0.16199 -0.154633,0.15462 -0.154633,0.36815 v 0.27981 q 0,0.14726 0.01472,0.28717 0.01472,0.1399 0.06626,0.25033 0.05889,0.11043 0.161994,0.17672 0.110427,0.0663 0.287169,0.0663 0.147259,0 0.191442,-0.081 0.04417,-0.081 0.07362,-0.17672 0.02945,-0.10306 0.07362,-0.18408 0.04417,-0.0883 0.191442,-0.0883 0.14726,0 0.191442,0.0883 0.04417,0.081 0.07362,0.18408 0.02945,0.0957 0.07362,0.17672 0.04417,0.081 0.191441,0.081 0.14726,0 0.191442,0.0883 0.05153,0.081 0.07362,0.18408 0.02208,0.0957 0.06626,0.17671 0.05153,0.081 0.198804,0.081 h 1.58309 q 0.220889,0 0.412331,0.0883 0.191442,0.081 0.331339,0.22826 0.147272,0.1399 0.228263,0.33134 0.08834,0.19144 0.08834,0.41234 0,0.21353 0.154633,0.37552 0.161995,0.15462 0.375522,0.15462 0.213527,0 0.36816,0.15464 0.161983,0.15462 0.161983,0.36815 0,0.34607 -0.147259,0.58906 -0.147259,0.23562 -0.382884,0.47123 l -1.59044,1.59046 q -0.154633,0.15462 -0.279807,0.25771 -0.125174,0.10306 -0.265072,0.16198 -0.132536,0.0589 -0.29453,0.081 -0.161983,0.0294 -0.382884,0.0294 -0.139897,0 -0.250348,-0.0515 -0.110427,-0.0442 -0.110427,-0.21353 0,-0.14727 0.08098,-0.19144 0.08098,-0.0442 0.176718,-0.0736 0.103065,-0.0294 0.184068,-0.0736 0.08834,-0.0442 0.08834,-0.19144 v -1.32537 q 0,-0.22089 -0.154633,-0.37552 -0.154621,-0.15462 -0.375522,-0.15462 -0.176706,0 -0.287157,-0.0663 -0.103065,-0.0663 -0.161995,-0.17672 -0.05153,-0.11043 -0.06626,-0.24299 -0.01472,-0.1399 -0.01472,-0.27243 0,-0.2209 0.01472,-0.40498 0.01472,-0.18408 0.06626,-0.34607 0.05889,-0.16199 0.161995,-0.30925 0.103065,-0.14726 0.287157,-0.29453 -0.338701,0 -0.589049,-0.14726 -0.250348,-0.14726 -0.471237,-0.38288 -0.18408,-0.19881 -0.338713,-0.3019 -0.154633,-0.11042 -0.316616,-0.15462 -0.161994,-0.0515 -0.338713,-0.0589 -0.176718,-0.0147 -0.397607,-0.0147 H 84.13484 q -0.213539,0 -0.368161,-0.15462 -0.154632,-0.16199 -0.154632,-0.37552 0,-0.25771 -0.08098,-0.44179 -0.07362,-0.19144 -0.191442,-0.33871 -0.117788,-0.14726 -0.25771,-0.2798 -0.139897,-0.13253 -0.257709,-0.27979 -0.117789,-0.14727 -0.198804,-0.33135 -0.07362,-0.18408 -0.07362,-0.44179 0,-0.33134 -0.125174,-0.61851 -0.125174,-0.28716 -0.346062,-0.5007 -0.21354,-0.22089 -0.500696,-0.34606 -0.287169,-0.12517 -0.618508,-0.12517 h -0.655329 q -0.714223,0.9204 -1.089745,1.99542 -0.36816,1.07502 -0.36816,2.23839 0,0.94985 0.242986,1.83344 0.250348,0.87621 0.692138,1.64199 0.449151,0.7584 1.075021,1.39163 0.633232,0.62587 1.391637,1.06767 0.765767,0.44915 1.641985,0.69214 0.88358,0.25034 1.833439,0.25034 z m 0,-13.7544 q -0.809962,0 -1.597815,0.18408 -0.780502,0.18408 -1.502087,0.55224 l 0.456513,0.31662 h 1.052936 q 0.154621,0 0.191442,0.0883 0.04417,0.081 0.05889,0.18408 0.02209,0.0957 0.06626,0.17672 0.05153,0.081 0.213527,0.081 0.110427,0 0.198816,-0.0736 0.0957,-0.0736 0.0957,-0.19145 0.02945,-0.13253 0.0957,-0.27243 0.06626,-0.13991 0.161983,-0.25035 0.0957,-0.11779 0.220901,-0.19144 0.132535,-0.0736 0.287168,-0.0736 h 2.650739 q -0.633226,-0.26507 -1.303278,-0.3976 -0.662691,-0.13254 -1.347455,-0.13254 z m 0.795214,1.58308 q -0.147259,0 -0.191442,0.0883 -0.04417,0.081 -0.07362,0.18407 -0.02945,0.0957 -0.07362,0.17672 -0.04417,0.081 -0.191442,0.081 -0.08834,0 -0.176718,-0.007 -0.08098,-0.007 -0.169357,-0.007 -0.07362,0 -0.154621,0.007 -0.07362,0.007 -0.139909,0.0368 -0.06626,0.0294 -0.110427,0.0883 -0.04417,0.0515 -0.04417,0.14727 0,0.0957 0.04417,0.15462 0.04417,0.0515 0.110427,0.081 0.06626,0.0294 0.139909,0.0368 0.08098,0.007 0.154621,0.007 0.08834,0 0.169357,-0.007 0.08834,-0.007 0.176718,-0.007 0.147259,0 0.191442,0.0883 0.04417,0.081 0.07362,0.18408 0.02945,0.0957 0.07362,0.17672 0.04417,0.081 0.191442,0.081 0.18408,0 0.220901,-0.11779 0.04417,-0.11779 0.04417,-0.25772 v -0.15462 q 0,-0.20617 0.132547,-0.35344 0.132536,-0.15462 0.338701,-0.17671 h -0.206165 q -0.147271,0 -0.191442,-0.081 -0.04417,-0.081 -0.07362,-0.17672 -0.02209,-0.10306 -0.07362,-0.18406 -0.04417,-0.0883 -0.191442,-0.0883 z m 0.839409,0.53015 q 0.01472,0.007 0.03681,0.007 z" style="font-style:normal;font-variant:normal;font-weight:normal;font-stretch:normal;font-size:medium;line-height:100%;font-family:'Segoe UI Emoji';-inkscape-font-specification:'Segoe UI Emoji, Normal';font-variant-ligatures:normal;font-variant-caps:normal;font-variant-numeric:normal;font-feature-settings:normal;text-align:start;letter-spacing:0px;word-spacing:0px;writing-mode:lr-tb;text-anchor:start;fill:#afafe9;fill-opacity:1;stroke:none;stroke-width:0.26458332" id="path1739" inkscape:connector-curvature="0"/>
        </g>
      </g>
    </g>
    </g></svg>
