<?xml version='1.0' encoding='UTF-8'?>
<!-- Created with Inkscape (http://www.inkscape.org/) and export_objects.py -->
<svg xmlns:cc="http://creativecommons.org/ns#" xmlns:dc="http://purl.org/dc/elements/1.1/" xmlns:inkscape="http://www.inkscape.org/namespaces/inkscape" xmlns:rdf="http://www.w3.org/1999/02/22-rdf-syntax-ns#" xmlns:sodipodi="http://sodipodi.sourceforge.net/DTD/sodipodi-0.dtd" xmlns:xlink="http://www.w3.org/1999/xlink" xmlns="http://www.w3.org/2000/svg" version="1.1" sodipodi:docname="step07.svg" inkscape:version="0.92.3 (2405546, 2018-03-11)" width="44.45mm" height="44.45mm" viewBox="0 0 44.45 44.45" id="svg5174"><sodipodi:namedview inkscape:snap-others="false" inkscape:snap-nodes="true" inkscape:bbox-nodes="true" inkscape:snap-bbox="false" id="base" pagecolor="#ffffff" bordercolor="#666666" borderopacity="1.0" inkscape:pageopacity="0.0" inkscape:pageshadow="2" inkscape:zoom="0.88702143" inkscape:cx="4517.9849" inkscape:cy="-935.6451" inkscape:document-units="mm" inkscape:current-layer="layer1" showgrid="true" inkscape:measure-start="72,612" inkscape:measure-end="72,552" inkscape:snap-grids="true" inkscape:window-width="1280" inkscape:window-height="940" inkscape:window-x="1909" inkscape:window-y="43" inkscape:window-maximized="1" inkscape:object-nodes="true">
    <inkscape:grid type="xygrid" id="grid5337" units="pt" spacingx="3.175" spacingy="3.175"/>
  </sodipodi:namedview>
  <metadata id="metadata5171">
    <rdf:RDF>
      <cc:Work rdf:about="">
        <dc:format>image/svg+xml</dc:format>
        <dc:type rdf:resource="http://purl.org/dc/dcmitype/StillImage"/>
        <dc:title/>
      </cc:Work>
    </rdf:RDF>
  </metadata>
  <g inkscape:groupmode="layer" inkscape:label="step" transform="matrix(1.000000,0.000000,0.000000,1.000000,-1168.400026,-303.349978)"><g id="g1855" inkscape:label="07">
      <rect y="303.34998" x="1168.4" height="44.450001" width="44.450001" id="rect1238" style="opacity:1;fill:#000000;fill-opacity:0.90562289;stroke:none;stroke-width:0.35277778;stroke-linecap:butt;stroke-linejoin:miter;stroke-miterlimit:47.14606857;stroke-dasharray:none;stroke-dashoffset:0;stroke-opacity:1;paint-order:markers fill stroke"/>
      <g id="g1246" transform="translate(1130.3001,155.57498)">
        <rect style="opacity:1;fill:#2ad4ff;fill-opacity:1;stroke:none;stroke-width:6.3499999;stroke-linecap:butt;stroke-linejoin:miter;stroke-miterlimit:47.14606857;stroke-dasharray:none;stroke-dashoffset:0;stroke-opacity:1;paint-order:markers fill stroke" id="rect1240" width="19.049999" height="19.049999" x="50.799999" y="150.95"/>
        <g aria-label="ðŸ¦" style="font-style:normal;font-variant:normal;font-weight:normal;font-stretch:normal;font-size:12.69999981px;line-height:100%;font-family:'Segoe UI Emoji';-inkscape-font-specification:'Segoe UI Emoji, Normal';font-variant-ligatures:normal;font-variant-caps:normal;font-variant-numeric:normal;font-feature-settings:normal;text-align:start;letter-spacing:0px;word-spacing:0px;writing-mode:lr-tb;text-anchor:start;fill:#aaeeff;fill-opacity:1;stroke:none;stroke-width:0.23771149" id="g1244" transform="matrix(1.1130439,0,0,1.1130439,-35.433102,-24.237262)">
          <path d="m 85.145863,163.35406 8.024317,7.9499 H 88.792152 L 87.899183,170.411 h -2.244824 l -0.341064,0.59531 q 0.235644,0.12402 0.378271,0.27905 0.142627,0.15503 0.223243,0.34107 0.08061,0.18603 0.105419,0.40307 0.02481,0.22324 0.02481,0.46509 0,0.14883 -0.0062,0.29145 0,0.14883 0,0.29766 h -6.238379 v -0.89297 q 0,-0.27905 0.10542,-0.5209 0.10542,-0.24184 0.285254,-0.42168 0.179834,-0.17983 0.42168,-0.28525 0.241845,-0.10542 0.520898,-0.10542 h 0.440283 l 0.303858,-0.5333 q -0.651123,-0.14263 -1.196826,-0.48989 -0.539502,-0.34727 -0.936377,-0.83716 -0.396875,-0.4961 -0.620118,-1.10381 -0.217041,-0.60772 -0.217041,-1.27124 0,-0.40308 0.08682,-0.83716 0.09302,-0.43408 0.279053,-0.78755 0.223242,-0.42788 0.440283,-0.85576 0.217041,-0.43408 0.434082,-0.86196 h -1.240235 q 0,-0.16123 -0.0062,-0.31626 -0.0062,-0.15503 -0.0062,-0.31626 0,-0.19844 0.0124,-0.36587 0.0186,-0.17363 0.06201,-0.32866 0.04961,-0.16123 0.130225,-0.31006 0.08061,-0.14883 0.21084,-0.30386 0.390673,-0.45889 0.79375,-0.89917 0.403076,-0.44648 0.818554,-0.88057 0.334864,-0.35346 0.744141,-0.5457 0.409277,-0.19223 0.905371,-0.19223 h 3.912939 v 0.89296 q 0,0.29766 -0.10542,0.55811 -0.10542,0.26045 -0.303857,0.48369 l -0.930176,1.0356 z m -5.34541,3.31763 q 0,0.40308 0.117822,0.78755 0.124024,0.38447 0.341065,0.71933 h 8.452197 l -4.458643,-4.45244 h -1.575097 q -0.5271,0 -1.054199,0.19844 -0.520899,0.19844 -0.89917,0.57671 -0.446485,0.45268 -0.68833,0.99219 -0.235645,0.5395 -0.235645,1.17822 z m 0,-4.28501 h 1.779736 l -0.706933,1.43247 q 0.824756,-0.5395 1.823144,-0.5395 h 1.556494 v -1.82935 q 0.05581,-0.062 0.167432,-0.17983 0.111621,-0.11782 0.241846,-0.26045 0.136426,-0.14883 0.279053,-0.30386 0.142627,-0.15503 0.260449,-0.29145 0.124023,-0.14263 0.21084,-0.24805 0.08682,-0.11162 0.111621,-0.16743 0.03101,-0.0744 0.04961,-0.14263 0.0186,-0.0744 0.0186,-0.14263 h -3.019971 q -0.260449,0 -0.458887,0.0806 -0.198437,0.0806 -0.365869,0.21704 -0.16123,0.13023 -0.310059,0.29766 -0.148828,0.16743 -0.303857,0.34106 l -1.159619,1.28984 q -0.173633,0.19224 -0.173633,0.44649 z m 8.4646,7.13135 0.892968,0.89297 h 1.785938 l -1.785938,-1.78594 h -8.551416 q 0.434083,0.42168 0.954981,0.65732 0.5271,0.23565 1.134814,0.23565 z m -6.684864,-7.13135 v -2.22622 H 82.6964 q 0.229444,0 0.434082,0.0868 0.204639,0.0868 0.353467,0.24185 0.155029,0.14883 0.241846,0.35347 0.08682,0.19843 0.08682,0.42788 0,0.23564 -0.08682,0.44028 -0.08682,0.19844 -0.241846,0.35347 -0.148828,0.14883 -0.353467,0.23564 -0.204638,0.0868 -0.434082,0.0868 z m -0.892968,9.80405 h 4.458642 q 0,-0.17983 -0.136426,-0.31626 -0.130224,-0.13022 -0.310058,-0.13022 h -0.837158 l 1.023193,-1.77974 h -0.514697 l -1.023194,1.77974 h -0.74414 l 1.023193,-1.77974 h -0.514697 l -1.023193,1.77974 h -0.954981 q -0.179834,0 -0.31626,0.13022 -0.130224,0.13643 -0.130224,0.31626 z m 1.339453,-11.1435 v 0.44648 q 0,0.18604 0.130224,0.31626 0.130225,0.13022 0.31626,0.13022 0.186035,0 0.31626,-0.13022 0.130225,-0.13022 0.130225,-0.31626 v -0.44648 q 0,-0.17984 -0.136426,-0.31006 -0.130225,-0.13023 -0.310059,-0.13023 -0.179834,0 -0.31626,0.13023 -0.130224,0.13022 -0.130224,0.31006 z" id="path1242" inkscape:connector-curvature="0" style="fill:#aaeeff;stroke-width:0.23771149"/>
        </g>
      </g>
      <g transform="translate(1054.1,174.625)" id="g1618">
        <rect style="opacity:1;fill:#a05a2c;fill-opacity:1;stroke:none;stroke-width:6.3499999;stroke-linecap:butt;stroke-linejoin:miter;stroke-miterlimit:47.14606857;stroke-dasharray:none;stroke-dashoffset:0;stroke-opacity:1;paint-order:markers fill stroke" id="rect1614" width="19.049999" height="19.049999" x="127" y="150.95"/>
        <path inkscape:connector-curvature="0" id="path1616" style="font-style:normal;font-variant:normal;font-weight:normal;font-stretch:normal;font-size:medium;line-height:100%;font-family:'Segoe UI Emoji';-inkscape-font-specification:'Segoe UI Emoji, Normal';font-variant-ligatures:normal;font-variant-caps:normal;font-variant-numeric:normal;font-feature-settings:normal;text-align:start;letter-spacing:0px;word-spacing:0px;writing-mode:lr-tb;text-anchor:start;fill:#784421;fill-opacity:1;stroke:none;stroke-width:0.26458332" d="m 144.4625,155.01538 q 0,0.71093 -0.27609,1.35283 -0.26919,0.635 -0.76614,1.13195 0.49695,0.49697 0.76614,1.13196 0.27609,0.635 0.27609,1.34592 v 3.96876 h -1.49088 q -0.66951,0 -1.26309,-0.23467 -0.12424,0.33129 -0.3106,0.64189 -0.17945,0.3037 -0.40723,0.57289 0,0.44174 -0.15185,0.84897 -0.14494,0.40722 -0.41413,0.73163 -0.26228,0.3244 -0.635,0.55217 -0.36581,0.22777 -0.80065,0.3106 -0.49696,0.49695 -1.13196,0.76614 -0.62809,0.27608 -1.33212,0.27608 -0.70402,0 -1.33902,-0.27608 -0.635,-0.26919 -1.13196,-0.76614 -0.43483,-0.0897 -0.80755,-0.31751 -0.36582,-0.22086 -0.62809,-0.54526 -0.26229,-0.32441 -0.41413,-0.73163 -0.14496,-0.40033 -0.14496,-0.84897 -0.22777,-0.26919 -0.41413,-0.57289 -0.17945,-0.3106 -0.30369,-0.64189 -0.59359,0.23467 -1.2631,0.23467 h -1.49087 v -3.96876 q 0,-0.71092 0.26919,-1.34592 0.27608,-0.63499 0.77304,-1.13196 -0.49696,-0.49695 -0.77304,-1.13195 -0.26919,-0.6419 -0.26919,-1.35283 v -0.98701 q 0,-0.3106 0.11734,-0.57979 0.11733,-0.26917 0.3175,-0.46934 0.20706,-0.20706 0.47625,-0.3244 0.26918,-0.11734 0.57978,-0.11734 h 0.98701 v 1.49087 q 0,0.20017 0.14495,0.35201 0.15184,0.14495 0.35201,0.14495 h 9.92533 q 0.20017,0 0.34511,-0.14495 0.15185,-0.15184 0.15185,-0.35201 v -1.49087 h 0.987 q 0.31061,0 0.57979,0.11734 0.26919,0.11734 0.46934,0.3244 0.20707,0.20017 0.32441,0.46934 0.11734,0.26919 0.11734,0.57979 z m -0.99392,7.93751 v -2.97485 q 0,-0.50385 -0.20017,-0.95249 -0.19325,-0.45555 -0.53146,-0.79375 -0.3382,-0.33821 -0.79375,-0.53148 -0.44864,-0.20016 -0.9525,-0.20016 0,-0.40723 -0.15875,-0.76614 -0.15875,-0.36581 -0.42793,-0.635 -0.26919,-0.26918 -0.635,-0.42793 -0.35892,-0.15876 -0.76614,-0.15876 h -4.95577 q -0.40723,0 -0.77304,0.15876 -0.35891,0.15875 -0.6281,0.42793 -0.26919,0.26919 -0.42793,0.635 -0.15876,0.35891 -0.15876,0.76614 -0.46244,0 -0.91108,0.18636 -0.44174,0.17946 -0.79375,0.49696 -0.34511,0.3106 -0.55907,0.73853 -0.21398,0.42103 -0.21398,0.89728 v 3.1336 q 0.283,0 0.53837,-0.007 0.26229,-0.0138 0.50387,-0.0621 0.24157,-0.0483 0.46934,-0.14495 0.23468,-0.10352 0.47625,-0.283 0,-0.75232 -0.007,-1.48396 0,-0.73853 0,-1.49087 l 0.49698,-0.49694 v 2.98175 q 0,0.41413 0.0414,0.81445 0.0483,0.39343 0.24847,0.76615 l 0.20706,0.38651 q 0,-0.352 0.11734,-0.6626 0.11734,-0.3175 0.32441,-0.57288 0.21397,-0.25538 0.50386,-0.43484 0.28988,-0.17946 0.62809,-0.25538 0.19326,-0.35201 0.29679,-0.73854 0.11042,-0.39341 0.11042,-0.79374 v -2.47788 q 0,-0.39343 0.15185,-0.75924 0.15184,-0.36581 0.43483,-0.6488 0.27609,-0.2761 0.64191,-0.42794 0.36581,-0.15185 0.75924,-0.15185 0.40032,0 0.77304,0.15875 0.26919,0.11734 0.49005,0.3106 0.22777,0.18636 0.38652,0.42793 0.15876,0.24158 0.24158,0.52457 0.0897,0.27609 0.0897,0.56598 v 2.47788 q 0,0.38652 0.11733,0.78684 0.11733,0.40033 0.28989,0.74544 0.33821,0.0759 0.6281,0.25538 0.28989,0.17946 0.49696,0.43484 0.21396,0.25538 0.3313,0.57288 0.12424,0.3106 0.12424,0.6626 0.28989,-0.45553 0.39343,-0.9456 0.10351,-0.49005 0.10351,-1.02151 v -2.98175 l 0.49695,0.49697 q 0,0.42793 0,0.84896 0.007,0.42103 0.007,0.84897 0,0.3244 -0.007,0.64191 0,0.31059 -0.007,0.63499 0.23468,0.18636 0.46935,0.28989 0.23467,0.0966 0.47625,0.14495 0.24157,0.0483 0.49695,0.0552 0.25539,0.007 0.54528,0.007 z m -9.02805,-0.49007 q -0.28988,0 -0.54527,0.13115 -0.24848,0.12424 -0.43483,0.3382 -0.18636,0.20707 -0.2968,0.47625 -0.11041,0.26229 -0.11041,0.53838 v 0.99391 q 0,0.3106 0.11734,0.57978 0.11733,0.26919 0.31749,0.46935 0.20017,0.20707 0.46935,0.32441 0.26919,0.11734 0.57979,0.11734 h 3.96876 q 0.31059,0 0.57977,-0.11734 0.26919,-0.11734 0.46935,-0.32441 0.20707,-0.20016 0.32441,-0.46935 0.11733,-0.26918 0.11733,-0.57978 v -0.99391 q 0,-0.27609 -0.11041,-0.53838 -0.11042,-0.26918 -0.3037,-0.47625 -0.18635,-0.21396 -0.44174,-0.3382 -0.24848,-0.13115 -0.53147,-0.13115 z m 2.08446,-5.95657 q -0.31059,0 -0.57978,0.11734 -0.26919,0.11733 -0.47625,0.3244 -0.20016,0.20016 -0.3175,0.46935 -0.11733,0.26918 -0.11733,0.57979 v 2.47788 q 0,0.38651 -0.0897,0.76614 -0.0897,0.37271 -0.24158,0.72472 h 3.64435 q -0.15185,-0.35201 -0.24157,-0.72472 -0.0897,-0.37963 -0.0897,-0.76614 v -2.47788 q 0,-0.31061 -0.11734,-0.57979 -0.11734,-0.26919 -0.3244,-0.46935 -0.20017,-0.20707 -0.46934,-0.3244 -0.26919,-0.11734 -0.57979,-0.11734 z m 5.59767,0.71782 q 0.31059,-0.15874 0.55907,-0.39341 0.24849,-0.23468 0.42104,-0.51767 0.17946,-0.28989 0.26918,-0.6212 0.0966,-0.3313 0.0966,-0.67641 v -0.98701 q 0,-0.20706 -0.14495,-0.35201 -0.14494,-0.14494 -0.35201,-0.14494 v 0.49695 q 0,0.31059 -0.11734,0.57978 -0.11733,0.26919 -0.31749,0.46935 -0.20016,0.20016 -0.46935,0.3175 -0.26919,0.11733 -0.57979,0.11733 h -0.99391 q 0.17946,0.13115 0.33131,0.3037 0.15875,0.17255 0.28299,0.37272 0.12424,0.19326 0.20706,0.41413 0.0897,0.21396 0.12424,0.43484 0.35201,0.0552 0.68332,0.18635 z m -12.54126,-2.20869 q 0,0.34511 0.0897,0.67641 0.0966,0.33131 0.26918,0.6212 0.17946,0.28299 0.42793,0.51767 0.24849,0.23467 0.55909,0.39341 0.31749,-0.13114 0.6764,-0.18635 0.0897,-0.45555 0.33131,-0.85587 0.24848,-0.40033 0.62119,-0.66952 h -0.9939 q -0.31061,0 -0.57979,-0.11733 -0.26919,-0.11734 -0.46934,-0.3175 -0.20017,-0.20016 -0.31751,-0.46935 -0.11734,-0.26919 -0.11734,-0.57978 v -0.49695 q -0.20706,0 -0.35201,0.14494 -0.14494,0.14495 -0.14494,0.35201 z m 3.72027,2.98175 q 0.15186,0 0.283,0.0621 0.13804,0.0552 0.24157,0.15874 0.10351,0.0966 0.15875,0.23467 0.0621,0.13114 0.0621,0.28299 v 0.99392 q 0,0.15185 -0.0621,0.28989 -0.0552,0.13114 -0.15875,0.23467 -0.10351,0.10352 -0.24157,0.16566 -0.13114,0.0552 -0.283,0.0552 -0.15875,0 -0.29679,-0.0552 -0.13114,-0.0621 -0.23467,-0.15875 -0.0966,-0.10352 -0.15876,-0.23468 -0.0552,-0.13804 -0.0552,-0.29679 v -0.99392 q 0,-0.15185 0.0552,-0.28989 0.0621,-0.13804 0.16566,-0.23467 0.10351,-0.0966 0.23467,-0.15184 0.13805,-0.0621 0.28989,-0.0621 z m 6.44664,0 q 0.15185,0 0.28298,0.0621 0.13805,0.0552 0.24159,0.15184 0.10351,0.0966 0.15874,0.23467 0.0621,0.13804 0.0621,0.28989 v 0.99392 q 0,0.15875 -0.0621,0.29679 -0.0552,0.13114 -0.15874,0.23468 -0.0966,0.0966 -0.23467,0.15875 -0.13805,0.0552 -0.2899,0.0552 -0.15185,0 -0.28989,-0.0552 -0.13115,-0.0621 -0.23467,-0.16566 -0.10352,-0.10351 -0.16566,-0.23467 -0.0552,-0.13804 -0.0552,-0.28989 v -0.99392 q 0,-0.15185 0.0552,-0.28299 0.0621,-0.13804 0.16566,-0.23467 0.10351,-0.10351 0.23467,-0.15874 0.13804,-0.0621 0.28989,-0.0621 z m -1.39424,7.10923 q -0.13114,0 -0.24847,-0.0483 -0.11042,-0.0552 -0.22088,-0.11734 l -0.86277,-0.49695 0.97321,-0.55908 q 0.0828,-0.0483 0.17255,-0.0759 0.0966,-0.0276 0.19326,-0.0276 0.13804,0 0.25538,0.0552 0.11734,0.0483 0.20017,0.14495 0.0897,0.0897 0.13804,0.21396 0.0483,0.11733 0.0483,0.24848 0,0.2899 -0.17945,0.47626 -0.17946,0.18635 -0.46935,0.18635 z m -3.66505,0 q -0.13805,0 -0.25539,-0.0483 -0.11734,-0.0552 -0.20706,-0.14494 -0.0828,-0.0966 -0.13114,-0.21398 -0.0483,-0.11733 -0.0483,-0.25537 0,-0.13114 0.0483,-0.24848 0.0483,-0.12424 0.13114,-0.21397 0.0897,-0.0966 0.20706,-0.14494 0.11734,-0.0552 0.25539,-0.0552 0.0966,0 0.18635,0.0276 0.0966,0.0276 0.17946,0.0759 l 0.9732,0.55907 -0.86276,0.49697 q -0.11734,0.069 -0.22778,0.11732 -0.11041,0.0483 -0.24847,0.0483 z m 1.83597,2.31223 q 0.40033,0 0.77995,-0.13114 0.38653,-0.12424 0.71092,-0.36581 h -2.98173 q 0.32439,0.24157 0.70402,0.36581 0.38651,0.13114 0.78684,0.13114 z"/>
      </g>
    </g>
    </g></svg>
