<?xml version='1.0' encoding='UTF-8'?>
<!-- Created with Inkscape (http://www.inkscape.org/) and export_objects.py -->
<svg xmlns:cc="http://creativecommons.org/ns#" xmlns:dc="http://purl.org/dc/elements/1.1/" xmlns:inkscape="http://www.inkscape.org/namespaces/inkscape" xmlns:rdf="http://www.w3.org/1999/02/22-rdf-syntax-ns#" xmlns:sodipodi="http://sodipodi.sourceforge.net/DTD/sodipodi-0.dtd" xmlns:xlink="http://www.w3.org/1999/xlink" xmlns="http://www.w3.org/2000/svg" version="1.1" width="0.75in" height="0.75in" viewBox="0 0 19.05 19.05" id="svg8" inkscape:version="0.92.3 (2405546, 2018-03-11)" sodipodi:docname="tile-94.svg"><sodipodi:namedview id="base" pagecolor="#ffffff" bordercolor="#666666" borderopacity="1.0" inkscape:pageopacity="0.0" inkscape:pageshadow="2" inkscape:zoom="1.372378" inkscape:cx="4212.1852" inkscape:cy="477.45784" inkscape:document-units="in" inkscape:current-layer="layer3" showgrid="true" units="in" inkscape:snap-others="true" inkscape:snap-grids="true" inkscape:window-width="1280" inkscape:window-height="940" inkscape:window-x="1909" inkscape:window-y="43" inkscape:window-maximized="1" inkscape:snap-midpoints="false" inkscape:object-nodes="true" inkscape:snap-text-baseline="true" inkscape:snap-smooth-nodes="false" showguides="false" inkscape:snap-object-midpoints="true" inkscape:snap-center="true" inkscape:snap-to-guides="false" inkscape:snap-nodes="true" inkscape:snap-intersection-paths="false">
    <inkscape:grid type="xygrid" id="grid10" units="pt" spacingx="3.1750001" spacingy="3.1750001"/>
    <sodipodi:guide position="380.20625,103.1875" orientation="0,1" id="guide9455" inkscape:locked="false"/>
  </sodipodi:namedview>
  <metadata id="metadata5">
    <rdf:RDF>
      <cc:Work rdf:about="">
        <dc:format>image/svg+xml</dc:format>
        <dc:type rdf:resource="http://purl.org/dc/dcmitype/StillImage"/>
        <dc:title/>
      </cc:Work>
    </rdf:RDF>
  </metadata>
  <g inkscape:groupmode="layer" inkscape:label="tile-" transform="matrix(1.000000,0.000000,0.000000,1.000000,-1060.450000,-47.625000)"><path style="display:inline;opacity:1;fill:#000000;fill-opacity:1;stroke:none;stroke-width:0.66666669;stroke-linecap:butt;stroke-linejoin:miter;stroke-miterlimit:47.14606857;stroke-dasharray:none;stroke-dashoffset:0;stroke-opacity:1;paint-order:markers fill stroke" d="M 4008 180 L 4008 252 L 4080 252 L 4080 180 L 4008 180 z M 4044 185.95703 A 30.02157 30.02157 0 0 1 4074.0215 215.97852 A 30.02157 30.02157 0 0 1 4044 246 A 30.02157 30.02157 0 0 1 4013.9785 215.97852 A 30.02157 30.02157 0 0 1 4044 185.95703 z M 4061.1738 199.85547 L 4041.7715 223.06641 L 4056.1875 223.06641 L 4056.1875 231 L 4061.4004 231 L 4061.4004 223.06641 L 4068.1543 223.06641 L 4068.1543 218.39648 L 4061.4004 218.39648 L 4061.4004 199.85547 L 4061.1738 199.85547 z M 4030.8672 201.26172 C 4027.9658 201.26172 4025.472 202.18379 4023.3867 204.02734 C 4021.3317 205.84069 4020.3047 208.10617 4020.3047 210.82617 C 4020.3047 213.33462 4021.21 215.46586 4023.0234 217.21875 C 4024.8668 218.97162 4027.1178 219.84766 4029.7773 219.84766 C 4030.9258 219.84766 4032.3632 219.48508 4034.0859 218.75977 C 4032.5446 222.74911 4028.8709 226.82934 4023.0684 231 L 4030.0508 231 C 4033.1334 228.88445 4035.6271 226.25443 4037.5312 223.11133 C 4039.5561 219.78688 4040.5684 216.40237 4040.5684 212.95703 C 4040.5684 209.9348 4039.7972 207.32145 4038.2559 205.11523 C 4036.4424 202.54634 4033.98 201.26172 4030.8672 201.26172 z M 4030.5488 205.92969 C 4032.0599 205.92969 4033.2839 206.67145 4034.2207 208.15234 C 4035.0063 209.4519 4035.4298 211.00697 4035.4902 212.82031 C 4034.4325 213.72697 4033.5416 214.33255 4032.8164 214.63477 C 4031.97 215.02766 4030.9561 215.22461 4029.7773 215.22461 C 4028.6289 215.22461 4027.6166 214.74054 4026.7402 213.77344 C 4025.8639 212.80633 4025.4258 211.68731 4025.4258 210.41797 C 4025.4258 209.11842 4025.9559 208.04545 4027.0137 207.19922 C 4028.0714 206.35301 4029.2492 205.92969 4030.5488 205.92969 z M 4056.0957 212.14062 L 4056.0957 218.39648 L 4050.8828 218.39648 L 4056.0957 212.14062 z " transform="scale(0.26458334)" id="rect2316" inkscape:label="94"/>
    </g></svg>
