<?xml version='1.0' encoding='UTF-8'?>
<!-- Created with Inkscape (http://www.inkscape.org/) and export_objects.py -->
<svg xmlns:cc="http://creativecommons.org/ns#" xmlns:dc="http://purl.org/dc/elements/1.1/" xmlns:inkscape="http://www.inkscape.org/namespaces/inkscape" xmlns:rdf="http://www.w3.org/1999/02/22-rdf-syntax-ns#" xmlns:sodipodi="http://sodipodi.sourceforge.net/DTD/sodipodi-0.dtd" xmlns:xlink="http://www.w3.org/1999/xlink" xmlns="http://www.w3.org/2000/svg" version="1.1" width="0.75in" height="0.75in" viewBox="0 0 19.05 19.05" id="svg8" inkscape:version="0.92.3 (2405546, 2018-03-11)" sodipodi:docname="tile-48.svg"><sodipodi:namedview id="base" pagecolor="#ffffff" bordercolor="#666666" borderopacity="1.0" inkscape:pageopacity="0.0" inkscape:pageshadow="2" inkscape:zoom="1.372378" inkscape:cx="4746.9979" inkscape:cy="477.45784" inkscape:document-units="in" inkscape:current-layer="layer3" showgrid="true" units="in" inkscape:snap-others="true" inkscape:snap-grids="true" inkscape:window-width="1280" inkscape:window-height="940" inkscape:window-x="1909" inkscape:window-y="43" inkscape:window-maximized="1" inkscape:snap-midpoints="false" inkscape:object-nodes="true" inkscape:snap-text-baseline="true" inkscape:snap-smooth-nodes="false" showguides="false" inkscape:snap-object-midpoints="true" inkscape:snap-center="true" inkscape:snap-to-guides="false" inkscape:snap-nodes="true" inkscape:snap-intersection-paths="false">
    <inkscape:grid type="xygrid" id="grid10" units="pt" spacingx="3.1750001" spacingy="3.1750001"/>
    <sodipodi:guide position="380.20625,103.1875" orientation="0,1" id="guide9455" inkscape:locked="false"/>
  </sodipodi:namedview>
  <metadata id="metadata5">
    <rdf:RDF>
      <cc:Work rdf:about="">
        <dc:format>image/svg+xml</dc:format>
        <dc:type rdf:resource="http://purl.org/dc/dcmitype/StillImage"/>
        <dc:title/>
      </cc:Work>
    </rdf:RDF>
  </metadata>
  <g inkscape:groupmode="layer" inkscape:label="tile-" transform="matrix(1.000000,0.000000,0.000000,1.000000,-1149.350000,-69.850000)"><path style="display:inline;opacity:1;fill:#000000;fill-opacity:1;stroke:none;stroke-width:0.66666663;stroke-linecap:butt;stroke-linejoin:miter;stroke-miterlimit:47.14606857;stroke-dasharray:none;stroke-dashoffset:0;stroke-opacity:1;paint-order:markers fill stroke" d="M 4344 264 L 4344 336 L 4416 336 L 4416 264 L 4344 264 z M 4380 269.95703 A 30.02157 30.02157 0 0 1 4410.0215 299.97852 A 30.02157 30.02157 0 0 1 4380 330 A 30.02157 30.02157 0 0 1 4349.9785 299.97852 A 30.02157 30.02157 0 0 1 4380 269.95703 z M 4374.9492 283.85547 L 4355.5469 307.06641 L 4369.9629 307.06641 L 4369.9629 315 L 4375.1758 315 L 4375.1758 307.06641 L 4381.9297 307.06641 L 4381.9297 302.39648 L 4375.1758 302.39648 L 4375.1758 283.85547 L 4374.9492 283.85547 z M 4393.3047 285.35156 C 4391.0682 285.35156 4389.1946 285.92577 4387.6836 287.07422 C 4386.0516 288.31333 4385.2344 289.97521 4385.2344 292.06055 C 4385.2344 294.56899 4386.4288 296.80704 4388.8164 298.77148 C 4385.5826 301.00793 4383.9648 303.74279 4383.9648 306.97656 C 4383.9648 309.6059 4384.8114 311.67639 4386.5039 313.1875 C 4388.2264 314.66839 4390.4793 315.4082 4393.2598 315.4082 C 4395.7986 315.4082 4397.9886 314.50083 4399.832 312.6875 C 4401.6757 310.87417 4402.5977 308.77427 4402.5977 306.38672 C 4402.5977 303.48538 4400.9652 300.97688 4397.7012 298.86133 C 4399.9981 296.9271 4401.1465 294.69101 4401.1465 292.15234 C 4401.1465 290.06701 4400.3922 288.38847 4398.8809 287.11914 C 4397.4 285.94047 4395.5412 285.35156 4393.3047 285.35156 z M 4393.3047 289.20508 C 4393.9999 289.20508 4394.6641 289.50688 4395.2988 290.11133 C 4395.9335 290.71577 4396.252 291.41149 4396.252 292.19727 C 4396.252 293.64793 4395.284 295.05406 4393.3496 296.41406 C 4391.2946 295.05406 4390.2676 293.52643 4390.2676 291.83398 C 4390.2676 291.04821 4390.5987 290.39854 4391.2637 289.88477 C 4391.8379 289.43143 4392.519 289.20508 4393.3047 289.20508 z M 4369.8711 296.14062 L 4369.8711 302.39648 L 4364.6582 302.39648 L 4369.8711 296.14062 z M 4392.9863 301.53516 C 4396.0387 303.34849 4397.5664 304.95158 4397.5664 306.3418 C 4397.5664 307.49024 4397.097 308.51716 4396.1602 309.42383 C 4395.2231 310.3305 4394.2257 310.7832 4393.168 310.7832 C 4392.1404 310.7832 4391.1888 310.39125 4390.3125 309.60547 C 4389.4661 308.78947 4389.043 307.838 4389.043 306.75 C 4389.043 304.93667 4390.3568 303.19738 4392.9863 301.53516 z " transform="scale(0.26458334)" id="rect1652" inkscape:label="48"/>
    </g></svg>
