<?xml version='1.0' encoding='UTF-8'?>
<!-- Created with Inkscape (http://www.inkscape.org/) and export_objects.py -->
<svg xmlns:cc="http://creativecommons.org/ns#" xmlns:dc="http://purl.org/dc/elements/1.1/" xmlns:inkscape="http://www.inkscape.org/namespaces/inkscape" xmlns:rdf="http://www.w3.org/1999/02/22-rdf-syntax-ns#" xmlns:sodipodi="http://sodipodi.sourceforge.net/DTD/sodipodi-0.dtd" xmlns:xlink="http://www.w3.org/1999/xlink" xmlns="http://www.w3.org/2000/svg" version="1.1" width="0.75in" height="0.75in" viewBox="0 0 19.05 19.05" id="svg8" inkscape:version="0.92.3 (2405546, 2018-03-11)" sodipodi:docname="tile-19.svg"><sodipodi:namedview id="base" pagecolor="#ffffff" bordercolor="#666666" borderopacity="1.0" inkscape:pageopacity="0.0" inkscape:pageshadow="2" inkscape:zoom="1.372378" inkscape:cx="4746.9979" inkscape:cy="477.45784" inkscape:document-units="in" inkscape:current-layer="layer3" showgrid="true" units="in" inkscape:snap-others="true" inkscape:snap-grids="true" inkscape:window-width="1280" inkscape:window-height="940" inkscape:window-x="1909" inkscape:window-y="43" inkscape:window-maximized="1" inkscape:snap-midpoints="false" inkscape:object-nodes="true" inkscape:snap-text-baseline="true" inkscape:snap-smooth-nodes="false" showguides="false" inkscape:snap-object-midpoints="true" inkscape:snap-center="true" inkscape:snap-to-guides="false" inkscape:snap-nodes="true" inkscape:snap-intersection-paths="false">
    <inkscape:grid type="xygrid" id="grid10" units="pt" spacingx="3.1750001" spacingy="3.1750001"/>
    <sodipodi:guide position="380.20625,103.1875" orientation="0,1" id="guide9455" inkscape:locked="false"/>
  </sodipodi:namedview>
  <metadata id="metadata5">
    <rdf:RDF>
      <cc:Work rdf:about="">
        <dc:format>image/svg+xml</dc:format>
        <dc:type rdf:resource="http://purl.org/dc/dcmitype/StillImage"/>
        <dc:title/>
      </cc:Work>
    </rdf:RDF>
  </metadata>
  <g inkscape:groupmode="layer" inkscape:label="tile-" transform="matrix(1.000000,0.000000,0.000000,1.000000,-504.825000,-69.850000)"><path style="display:inline;opacity:1;fill:#000000;fill-opacity:1;stroke:none;stroke-width:0.66666663;stroke-linecap:butt;stroke-linejoin:miter;stroke-miterlimit:47.14606857;stroke-dasharray:none;stroke-dashoffset:0;stroke-opacity:1;paint-order:markers fill stroke" d="M 1908 264 L 1908 336 L 1980 336 L 1980 264 L 1908 264 z M 1944 269.95703 A 30.02157 30.02157 0 0 1 1974.0215 299.97852 A 30.02157 30.02157 0 0 1 1944 330 A 30.02157 30.02157 0 0 1 1913.9785 299.97852 A 30.02157 30.02157 0 0 1 1944 269.95703 z M 1949.8145 285.26172 C 1946.9131 285.26172 1944.4193 286.18379 1942.334 288.02734 C 1940.2789 289.84068 1939.252 292.10617 1939.252 294.82617 C 1939.252 297.33462 1940.1574 299.46586 1941.9707 301.21875 C 1943.8143 302.97164 1946.067 303.84766 1948.7266 303.84766 C 1949.875 303.84766 1951.3105 303.4851 1953.0332 302.75977 C 1951.4919 306.7491 1947.8202 310.82933 1942.0176 315 L 1948.998 315 C 1952.0807 312.88444 1954.5745 310.25444 1956.4785 307.11133 C 1958.5034 303.78689 1959.5156 300.40237 1959.5156 296.95703 C 1959.5156 293.93481 1958.7445 291.32146 1957.2031 289.11523 C 1955.3898 286.54634 1952.9273 285.26172 1949.8145 285.26172 z M 1929.6387 285.66992 L 1929.6387 315 L 1934.8965 315 L 1934.8965 285.66992 L 1929.6387 285.66992 z M 1949.4961 289.93164 C 1951.0072 289.93164 1952.2311 290.67145 1953.168 292.15234 C 1953.9537 293.4519 1954.377 295.00893 1954.4375 296.82227 C 1953.3797 297.72893 1952.489 298.33254 1951.7637 298.63477 C 1950.9174 299.02766 1949.9052 299.22461 1948.7266 299.22461 C 1947.5781 299.22461 1946.5659 298.74055 1945.6895 297.77344 C 1944.813 296.80633 1944.375 295.6873 1944.375 294.41797 C 1944.375 293.11841 1944.9031 292.04544 1945.9609 291.19922 C 1947.0187 290.353 1948.1965 289.93164 1949.4961 289.93164 z " transform="scale(0.26458334)" id="rect1414" inkscape:label="19"/>
    </g></svg>
