<?xml version='1.0' encoding='UTF-8'?>
<!-- Created with Inkscape (http://www.inkscape.org/) and export_objects.py -->
<svg xmlns:cc="http://creativecommons.org/ns#" xmlns:dc="http://purl.org/dc/elements/1.1/" xmlns:inkscape="http://www.inkscape.org/namespaces/inkscape" xmlns:rdf="http://www.w3.org/1999/02/22-rdf-syntax-ns#" xmlns:sodipodi="http://sodipodi.sourceforge.net/DTD/sodipodi-0.dtd" xmlns:xlink="http://www.w3.org/1999/xlink" xmlns="http://www.w3.org/2000/svg" version="1.1" width="0.75in" height="0.75in" viewBox="0 0 19.05 19.05" id="svg8" inkscape:version="0.92.3 (2405546, 2018-03-11)" sodipodi:docname="tile-43.svg"><sodipodi:namedview id="base" pagecolor="#ffffff" bordercolor="#666666" borderopacity="1.0" inkscape:pageopacity="0.0" inkscape:pageshadow="2" inkscape:zoom="1.372378" inkscape:cx="4746.9979" inkscape:cy="477.45784" inkscape:document-units="in" inkscape:current-layer="layer3" showgrid="true" units="in" inkscape:snap-others="true" inkscape:snap-grids="true" inkscape:window-width="1280" inkscape:window-height="940" inkscape:window-x="1909" inkscape:window-y="43" inkscape:window-maximized="1" inkscape:snap-midpoints="false" inkscape:object-nodes="true" inkscape:snap-text-baseline="true" inkscape:snap-smooth-nodes="false" showguides="false" inkscape:snap-object-midpoints="true" inkscape:snap-center="true" inkscape:snap-to-guides="false" inkscape:snap-nodes="true" inkscape:snap-intersection-paths="false">
    <inkscape:grid type="xygrid" id="grid10" units="pt" spacingx="3.1750001" spacingy="3.1750001"/>
    <sodipodi:guide position="380.20625,103.1875" orientation="0,1" id="guide9455" inkscape:locked="false"/>
  </sodipodi:namedview>
  <metadata id="metadata5">
    <rdf:RDF>
      <cc:Work rdf:about="">
        <dc:format>image/svg+xml</dc:format>
        <dc:type rdf:resource="http://purl.org/dc/dcmitype/StillImage"/>
        <dc:title/>
      </cc:Work>
    </rdf:RDF>
  </metadata>
  <g inkscape:groupmode="layer" inkscape:label="tile-" transform="matrix(1.000000,0.000000,0.000000,1.000000,-1038.225000,-69.850000)"><path style="display:inline;opacity:1;fill:#000000;fill-opacity:1;stroke:none;stroke-width:0.66666663;stroke-linecap:butt;stroke-linejoin:miter;stroke-miterlimit:47.14606857;stroke-dasharray:none;stroke-dashoffset:0;stroke-opacity:1;paint-order:markers fill stroke" d="M 3924 264 L 3924 336 L 3996 336 L 3996 264 L 3924 264 z M 3960 269.95703 A 30.02157 30.02157 0 0 1 3990.0215 299.97852 A 30.02157 30.02157 0 0 1 3960 330 A 30.02157 30.02157 0 0 1 3929.9785 299.97852 A 30.02157 30.02157 0 0 1 3960 269.95703 z M 3953.666 283.85547 L 3934.2617 307.06641 L 3948.6797 307.06641 L 3948.6797 315 L 3953.8926 315 L 3953.8926 307.06641 L 3960.6465 307.06641 L 3960.6465 302.39648 L 3953.8926 302.39648 L 3953.8926 283.85547 L 3953.666 283.85547 z M 3963.9961 285.71484 L 3963.9961 290.33789 L 3975.375 290.33789 L 3969.4355 300.58398 C 3972.0651 300.58398 3974.016 300.96124 3975.2852 301.7168 C 3976.736 302.59324 3977.4609 304.07482 3977.4609 306.16016 C 3977.4609 307.33882 3977.0231 308.33634 3976.1465 309.15234 C 3975.2701 309.96834 3974.2578 310.37695 3973.1094 310.37695 C 3970.752 310.37695 3968.8011 308.89537 3967.2598 305.93359 L 3966.9883 305.93359 L 3963.5879 309.51562 C 3963.8298 310.66407 3964.6617 311.78114 3966.082 312.86914 C 3967.2003 313.74559 3968.378 314.39525 3969.6172 314.81836 C 3970.5842 315.1508 3971.6279 315.31641 3972.7461 315.31641 C 3975.587 315.31641 3978.0201 314.45509 3980.0449 312.73242 C 3982.0697 310.97953 3983.082 308.76009 3983.082 306.07031 C 3983.082 304.19653 3982.5832 302.42785 3981.5859 300.76562 C 3980.5282 298.92207 3979.1074 297.6835 3977.3242 297.04883 L 3983.8066 285.71484 L 3963.9961 285.71484 z M 3948.5879 296.14062 L 3948.5879 302.39648 L 3943.375 302.39648 L 3948.5879 296.14062 z " transform="scale(0.26458334)" id="rect1642" inkscape:label="43"/>
    </g></svg>
