<?xml version='1.0' encoding='UTF-8'?>
<!-- Created with Inkscape (http://www.inkscape.org/) and export_objects.py -->
<svg xmlns:cc="http://creativecommons.org/ns#" xmlns:dc="http://purl.org/dc/elements/1.1/" xmlns:inkscape="http://www.inkscape.org/namespaces/inkscape" xmlns:rdf="http://www.w3.org/1999/02/22-rdf-syntax-ns#" xmlns:sodipodi="http://sodipodi.sourceforge.net/DTD/sodipodi-0.dtd" xmlns:xlink="http://www.w3.org/1999/xlink" xmlns="http://www.w3.org/2000/svg" version="1.1" width="0.75in" height="0.75in" viewBox="0 0 19.05 19.05" id="svg8" inkscape:version="0.92.3 (2405546, 2018-03-11)" sodipodi:docname="tile-98.svg"><sodipodi:namedview id="base" pagecolor="#ffffff" bordercolor="#666666" borderopacity="1.0" inkscape:pageopacity="0.0" inkscape:pageshadow="2" inkscape:zoom="1.372378" inkscape:cx="4212.1852" inkscape:cy="477.45784" inkscape:document-units="in" inkscape:current-layer="layer3" showgrid="true" units="in" inkscape:snap-others="true" inkscape:snap-grids="true" inkscape:window-width="1280" inkscape:window-height="940" inkscape:window-x="1909" inkscape:window-y="43" inkscape:window-maximized="1" inkscape:snap-midpoints="false" inkscape:object-nodes="true" inkscape:snap-text-baseline="true" inkscape:snap-smooth-nodes="false" showguides="false" inkscape:snap-object-midpoints="true" inkscape:snap-center="true" inkscape:snap-to-guides="false" inkscape:snap-nodes="true" inkscape:snap-intersection-paths="false">
    <inkscape:grid type="xygrid" id="grid10" units="pt" spacingx="3.1750001" spacingy="3.1750001"/>
    <sodipodi:guide position="380.20625,103.1875" orientation="0,1" id="guide9455" inkscape:locked="false"/>
  </sodipodi:namedview>
  <metadata id="metadata5">
    <rdf:RDF>
      <cc:Work rdf:about="">
        <dc:format>image/svg+xml</dc:format>
        <dc:type rdf:resource="http://purl.org/dc/dcmitype/StillImage"/>
        <dc:title/>
      </cc:Work>
    </rdf:RDF>
  </metadata>
  <g inkscape:groupmode="layer" inkscape:label="tile-" transform="matrix(1.000000,0.000000,0.000000,1.000000,-1149.350000,-47.625000)"><path style="display:inline;opacity:1;fill:#000000;fill-opacity:1;stroke:none;stroke-width:0.66666669;stroke-linecap:butt;stroke-linejoin:miter;stroke-miterlimit:47.14606857;stroke-dasharray:none;stroke-dashoffset:0;stroke-opacity:1;paint-order:markers fill stroke" d="M 4344 180 L 4344 252 L 4416 252 L 4416 180 L 4344 180 z M 4380 185.95703 A 30.02157 30.02157 0 0 1 4410.0215 215.97852 A 30.02157 30.02157 0 0 1 4380 246 A 30.02157 30.02157 0 0 1 4349.9785 215.97852 A 30.02157 30.02157 0 0 1 4380 185.95703 z M 4369.7441 201.26172 C 4366.8427 201.26172 4364.349 202.18379 4362.2637 204.02734 C 4360.2086 205.84069 4359.1816 208.10617 4359.1816 210.82617 C 4359.1816 213.33462 4360.0872 215.46586 4361.9004 217.21875 C 4363.744 218.97162 4365.9967 219.84766 4368.6562 219.84766 C 4369.8047 219.84766 4371.2402 219.48508 4372.9629 218.75977 C 4371.4216 222.74911 4367.7501 226.82934 4361.9473 231 L 4368.9277 231 C 4372.0103 228.88445 4374.5041 226.25443 4376.4082 223.11133 C 4378.433 219.78688 4379.4453 216.40237 4379.4453 212.95703 C 4379.4453 209.9348 4378.6741 207.32145 4377.1328 205.11523 C 4375.3194 202.54634 4372.857 201.26172 4369.7441 201.26172 z M 4391.7559 201.35156 C 4389.5194 201.35156 4387.6441 201.92577 4386.1328 203.07422 C 4384.5008 204.31332 4383.6855 205.97521 4383.6855 208.06055 C 4383.6855 210.56899 4384.8799 212.80704 4387.2676 214.77148 C 4384.0338 217.00793 4382.416 219.7428 4382.416 222.97656 C 4382.416 225.6059 4383.2626 227.67639 4384.9551 229.1875 C 4386.6778 230.66839 4388.9285 231.4082 4391.709 231.4082 C 4394.2476 231.4082 4396.4395 230.50084 4398.2832 228.6875 C 4400.1266 226.87418 4401.0488 224.7743 4401.0488 222.38672 C 4401.0488 219.4854 4399.4163 216.97688 4396.1523 214.86133 C 4398.4493 212.92709 4399.5977 210.691 4399.5977 208.15234 C 4399.5977 206.067 4398.8411 204.38848 4397.3301 203.11914 C 4395.849 201.94048 4393.9921 201.35156 4391.7559 201.35156 z M 4391.7559 205.20508 C 4392.4508 205.20508 4393.1153 205.50688 4393.75 206.11133 C 4394.3847 206.71578 4394.7012 207.4115 4394.7012 208.19727 C 4394.7012 209.64795 4393.7351 211.05406 4391.8008 212.41406 C 4389.7457 211.05406 4388.7168 209.52643 4388.7168 207.83398 C 4388.7168 207.0482 4389.0499 206.39853 4389.7148 205.88477 C 4390.2891 205.43142 4390.97 205.20508 4391.7559 205.20508 z M 4369.4258 205.92969 C 4370.9368 205.92969 4372.1625 206.67145 4373.0996 208.15234 C 4373.8852 209.4519 4374.3067 211.00697 4374.3672 212.82031 C 4373.3094 213.72697 4372.4188 214.33255 4371.6934 214.63477 C 4370.8472 215.02766 4369.835 215.22461 4368.6562 215.22461 C 4367.5078 215.22461 4366.4955 214.74054 4365.6191 213.77344 C 4364.7425 212.80633 4364.3047 211.68731 4364.3047 210.41797 C 4364.3047 209.11842 4364.8329 208.04545 4365.8906 207.19922 C 4366.9484 206.35301 4368.1261 205.92969 4369.4258 205.92969 z M 4391.4375 217.53516 C 4394.4898 219.34847 4396.0156 220.95156 4396.0156 222.3418 C 4396.0156 223.49024 4395.5481 224.51717 4394.6113 225.42383 C 4393.6745 226.33051 4392.6769 226.7832 4391.6191 226.7832 C 4390.5916 226.7832 4389.6403 226.39126 4388.7637 225.60547 C 4387.9176 224.78947 4387.4941 223.838 4387.4941 222.75 C 4387.4941 220.93666 4388.8082 219.19737 4391.4375 217.53516 z " transform="scale(0.26458334)" id="rect2324" inkscape:label="98"/>
    </g></svg>
