<?xml version='1.0' encoding='UTF-8'?>
<!-- Created with Inkscape (http://www.inkscape.org/) and export_objects.py -->
<svg xmlns:cc="http://creativecommons.org/ns#" xmlns:dc="http://purl.org/dc/elements/1.1/" xmlns:inkscape="http://www.inkscape.org/namespaces/inkscape" xmlns:rdf="http://www.w3.org/1999/02/22-rdf-syntax-ns#" xmlns:sodipodi="http://sodipodi.sourceforge.net/DTD/sodipodi-0.dtd" xmlns:xlink="http://www.w3.org/1999/xlink" xmlns="http://www.w3.org/2000/svg" version="1.1" width="0.75in" height="0.75in" viewBox="0 0 19.05 19.05" id="svg8" inkscape:version="0.92.3 (2405546, 2018-03-11)" sodipodi:docname="tile-56.svg"><sodipodi:namedview id="base" pagecolor="#ffffff" bordercolor="#666666" borderopacity="1.0" inkscape:pageopacity="0.0" inkscape:pageshadow="2" inkscape:zoom="1.372378" inkscape:cx="4212.1852" inkscape:cy="477.45784" inkscape:document-units="in" inkscape:current-layer="layer3" showgrid="true" units="in" inkscape:snap-others="true" inkscape:snap-grids="true" inkscape:window-width="1280" inkscape:window-height="940" inkscape:window-x="1909" inkscape:window-y="43" inkscape:window-maximized="1" inkscape:snap-midpoints="false" inkscape:object-nodes="true" inkscape:snap-text-baseline="true" inkscape:snap-smooth-nodes="false" showguides="false" inkscape:snap-object-midpoints="true" inkscape:snap-center="true" inkscape:snap-to-guides="false" inkscape:snap-nodes="true" inkscape:snap-intersection-paths="false">
    <inkscape:grid type="xygrid" id="grid10" units="pt" spacingx="3.1750001" spacingy="3.1750001"/>
    <sodipodi:guide position="380.20625,103.1875" orientation="0,1" id="guide9455" inkscape:locked="false"/>
  </sodipodi:namedview>
  <metadata id="metadata5">
    <rdf:RDF>
      <cc:Work rdf:about="">
        <dc:format>image/svg+xml</dc:format>
        <dc:type rdf:resource="http://purl.org/dc/dcmitype/StillImage"/>
        <dc:title/>
      </cc:Work>
    </rdf:RDF>
  </metadata>
  <g inkscape:groupmode="layer" inkscape:label="tile-" transform="matrix(1.000000,0.000000,0.000000,1.000000,-215.900000,-47.625000)"><path style="display:inline;opacity:1;fill:#000000;fill-opacity:1;stroke:none;stroke-width:0.66666669;stroke-linecap:butt;stroke-linejoin:miter;stroke-miterlimit:47.14606857;stroke-dasharray:none;stroke-dashoffset:0;stroke-opacity:1;paint-order:markers fill stroke" d="M 816 180 L 816 252 L 888 252 L 888 180 L 816 180 z M 852 185.95703 A 30.02157 30.02157 0 0 1 882.02148 215.97852 A 30.02157 30.02157 0 0 1 852 246 A 30.02157 30.02157 0 0 1 821.97852 215.97852 A 30.02157 30.02157 0 0 1 852 185.95703 z M 862.66406 201.66992 C 859.8534 203.63437 857.51051 206.36922 855.63672 209.875 C 853.79317 213.38078 852.87109 216.7947 852.87109 220.11914 C 852.87109 223.23203 853.73239 225.84733 855.45508 227.96289 C 857.32884 230.29 859.89811 231.45312 863.16211 231.45312 C 866.03321 231.45312 868.43686 230.54576 870.37109 228.73242 C 872.33554 226.88887 873.31641 224.60867 873.31641 221.88867 C 873.31641 219.38023 872.42568 217.23428 870.64258 215.45117 C 868.85945 213.63784 866.63807 212.73047 863.97852 212.73047 C 862.28607 212.73047 860.77508 213.03227 859.44531 213.63672 C 861.86308 208.01538 865.42985 204.02726 870.14453 201.66992 L 862.66406 201.66992 z M 834.68359 201.71484 L 832.73438 217.30859 C 835.09169 216.61348 836.78297 216.26758 837.81055 216.26758 C 839.41231 216.26758 840.81845 216.74969 842.02734 217.7168 C 843.35711 218.77457 844.02148 220.09055 844.02148 221.66211 C 844.02148 222.99189 843.5521 224.15501 842.61523 225.15234 C 841.70855 226.11945 840.65223 226.60352 839.44336 226.60352 C 837.50912 226.60352 835.84724 225.40904 834.45703 223.02148 L 834.18359 223.02148 L 831.10156 226.96484 C 833.33801 229.92662 835.95136 231.4082 838.94336 231.4082 C 841.96557 231.4082 844.48878 230.48613 846.51367 228.64258 C 848.53857 226.7688 849.55273 224.4112 849.55273 221.57031 C 849.55273 218.60853 848.50917 216.20684 846.42383 214.36328 C 844.42917 212.64061 841.87461 211.70384 838.76172 211.55273 L 839.39648 206.20312 L 847.375 206.20312 L 849.59766 201.71484 L 834.68359 201.71484 z M 863.61523 217.49023 C 864.76368 217.49023 865.77592 217.9743 866.65234 218.94141 C 867.52879 219.8783 867.96875 220.96597 867.96875 222.20508 C 867.96875 223.47441 867.52879 224.56208 866.65234 225.46875 C 865.80613 226.34519 864.79389 226.7832 863.61523 226.7832 C 862.19479 226.7832 860.94152 226.3158 859.85352 225.37891 C 858.76552 224.4118 858.2207 223.20262 858.2207 221.75195 C 858.2207 220.60351 858.37162 219.83234 858.67383 219.43945 C 859.70138 218.1399 861.34855 217.49023 863.61523 217.49023 z " transform="scale(0.26458334)" id="rect2240" inkscape:label="56"/>
    </g></svg>
