<?xml version='1.0' encoding='UTF-8'?>
<!-- Created with Inkscape (http://www.inkscape.org/) and export_objects.py -->
<svg xmlns:cc="http://creativecommons.org/ns#" xmlns:dc="http://purl.org/dc/elements/1.1/" xmlns:inkscape="http://www.inkscape.org/namespaces/inkscape" xmlns:rdf="http://www.w3.org/1999/02/22-rdf-syntax-ns#" xmlns:sodipodi="http://sodipodi.sourceforge.net/DTD/sodipodi-0.dtd" xmlns:xlink="http://www.w3.org/1999/xlink" xmlns="http://www.w3.org/2000/svg" version="1.1" width="0.75in" height="0.75in" viewBox="0 0 19.05 19.05" id="svg8" inkscape:version="0.92.3 (2405546, 2018-03-11)" sodipodi:docname="tile-58.svg"><sodipodi:namedview id="base" pagecolor="#ffffff" bordercolor="#666666" borderopacity="1.0" inkscape:pageopacity="0.0" inkscape:pageshadow="2" inkscape:zoom="1.372378" inkscape:cx="4212.1852" inkscape:cy="477.45784" inkscape:document-units="in" inkscape:current-layer="layer3" showgrid="true" units="in" inkscape:snap-others="true" inkscape:snap-grids="true" inkscape:window-width="1280" inkscape:window-height="940" inkscape:window-x="1909" inkscape:window-y="43" inkscape:window-maximized="1" inkscape:snap-midpoints="false" inkscape:object-nodes="true" inkscape:snap-text-baseline="true" inkscape:snap-smooth-nodes="false" showguides="false" inkscape:snap-object-midpoints="true" inkscape:snap-center="true" inkscape:snap-to-guides="false" inkscape:snap-nodes="true" inkscape:snap-intersection-paths="false">
    <inkscape:grid type="xygrid" id="grid10" units="pt" spacingx="3.1750001" spacingy="3.1750001"/>
    <sodipodi:guide position="380.20625,103.1875" orientation="0,1" id="guide9455" inkscape:locked="false"/>
  </sodipodi:namedview>
  <metadata id="metadata5">
    <rdf:RDF>
      <cc:Work rdf:about="">
        <dc:format>image/svg+xml</dc:format>
        <dc:type rdf:resource="http://purl.org/dc/dcmitype/StillImage"/>
        <dc:title/>
      </cc:Work>
    </rdf:RDF>
  </metadata>
  <g inkscape:groupmode="layer" inkscape:label="tile-" transform="matrix(1.000000,0.000000,0.000000,1.000000,-260.350000,-47.625000)"><path style="display:inline;opacity:1;fill:#000000;fill-opacity:1;stroke:none;stroke-width:0.66666669;stroke-linecap:butt;stroke-linejoin:miter;stroke-miterlimit:47.14606857;stroke-dasharray:none;stroke-dashoffset:0;stroke-opacity:1;paint-order:markers fill stroke" d="M 984 180 L 984 252 L 1056 252 L 1056 180 L 984 180 z M 1020 185.95703 A 30.02157 30.02157 0 0 1 1050.0215 215.97852 A 30.02157 30.02157 0 0 1 1020 246 A 30.02157 30.02157 0 0 1 989.97852 215.97852 A 30.02157 30.02157 0 0 1 1020 185.95703 z M 1031.0898 201.35156 C 1028.8534 201.35156 1026.9799 201.92577 1025.4688 203.07422 C 1023.8368 204.31333 1023.0215 205.97521 1023.0215 208.06055 C 1023.0215 210.56899 1024.216 212.80704 1026.6035 214.77148 C 1023.3697 217.00793 1021.752 219.74278 1021.752 222.97656 C 1021.752 225.60589 1022.5986 227.67639 1024.291 229.1875 C 1026.0137 230.66839 1028.2645 231.4082 1031.0449 231.4082 C 1033.5836 231.4082 1035.7756 230.50083 1037.6191 228.6875 C 1039.4627 226.87417 1040.3848 224.77427 1040.3848 222.38672 C 1040.3848 219.48538 1038.7523 216.97688 1035.4883 214.86133 C 1037.7852 212.9271 1038.9336 210.69101 1038.9336 208.15234 C 1038.9336 206.06701 1038.1771 204.38847 1036.666 203.11914 C 1035.1851 201.94047 1033.3263 201.35156 1031.0898 201.35156 z M 1003.7891 201.71484 L 1001.8398 217.30859 C 1004.1972 216.61348 1005.8904 216.26758 1006.918 216.26758 C 1008.5197 216.26758 1009.9239 216.74969 1011.1328 217.7168 C 1012.4626 218.77457 1013.1289 220.09055 1013.1289 221.66211 C 1013.1289 222.99189 1012.6595 224.15501 1011.7227 225.15234 C 1010.816 226.11945 1009.7577 226.60352 1008.5488 226.60352 C 1006.6146 226.60352 1004.9527 225.40904 1003.5625 223.02148 L 1003.291 223.02148 L 1000.209 226.96484 C 1002.4454 229.92662 1005.0588 231.4082 1008.0508 231.4082 C 1011.073 231.4082 1013.5962 230.48613 1015.6211 228.64258 C 1017.646 226.7688 1018.6582 224.4112 1018.6582 221.57031 C 1018.6582 218.60853 1017.6166 216.20684 1015.5312 214.36328 C 1013.5366 212.64061 1010.982 211.70384 1007.8691 211.55273 L 1008.5039 206.20312 L 1016.4824 206.20312 L 1018.7031 201.71484 L 1003.7891 201.71484 z M 1031.0898 205.20508 C 1031.7849 205.20508 1032.4513 205.50688 1033.0859 206.11133 C 1033.7206 206.71577 1034.0371 207.41149 1034.0371 208.19727 C 1034.0371 209.64793 1033.071 211.05406 1031.1367 212.41406 C 1029.0816 211.05406 1028.0527 209.52643 1028.0527 207.83398 C 1028.0527 207.04821 1028.3859 206.39854 1029.0508 205.88477 C 1029.625 205.43143 1030.3041 205.20508 1031.0898 205.20508 z M 1030.7734 217.53516 C 1033.8259 219.34849 1035.3516 220.95158 1035.3516 222.3418 C 1035.3516 223.49024 1034.8841 224.51716 1033.9473 225.42383 C 1033.0104 226.33049 1032.0129 226.7832 1030.9551 226.7832 C 1029.9275 226.7832 1028.9761 226.39125 1028.0996 225.60547 C 1027.2534 224.78947 1026.8301 223.838 1026.8301 222.75 C 1026.8301 220.93667 1028.1441 219.19738 1030.7734 217.53516 z " transform="scale(0.26458334)" id="rect2244" inkscape:label="58"/>
    </g></svg>
