<?xml version='1.0' encoding='UTF-8'?>
<!-- Created with Inkscape (http://www.inkscape.org/) and export_objects.py -->
<svg xmlns:cc="http://creativecommons.org/ns#" xmlns:dc="http://purl.org/dc/elements/1.1/" xmlns:inkscape="http://www.inkscape.org/namespaces/inkscape" xmlns:rdf="http://www.w3.org/1999/02/22-rdf-syntax-ns#" xmlns:sodipodi="http://sodipodi.sourceforge.net/DTD/sodipodi-0.dtd" xmlns:xlink="http://www.w3.org/1999/xlink" xmlns="http://www.w3.org/2000/svg" version="1.1" width="0.75in" height="0.75in" viewBox="0 0 19.05 19.05" id="svg8" inkscape:version="0.92.3 (2405546, 2018-03-11)" sodipodi:docname="tile-08.svg"><sodipodi:namedview id="base" pagecolor="#ffffff" bordercolor="#666666" borderopacity="1.0" inkscape:pageopacity="0.0" inkscape:pageshadow="2" inkscape:zoom="1.372378" inkscape:cx="4746.9979" inkscape:cy="477.45784" inkscape:document-units="in" inkscape:current-layer="layer3" showgrid="true" units="in" inkscape:snap-others="true" inkscape:snap-grids="true" inkscape:window-width="1280" inkscape:window-height="940" inkscape:window-x="1909" inkscape:window-y="43" inkscape:window-maximized="1" inkscape:snap-midpoints="false" inkscape:object-nodes="true" inkscape:snap-text-baseline="true" inkscape:snap-smooth-nodes="false" showguides="false" inkscape:snap-object-midpoints="true" inkscape:snap-center="true" inkscape:snap-to-guides="false" inkscape:snap-nodes="true" inkscape:snap-intersection-paths="false">
    <inkscape:grid type="xygrid" id="grid10" units="pt" spacingx="3.1750001" spacingy="3.1750001"/>
    <sodipodi:guide position="380.20625,103.1875" orientation="0,1" id="guide9455" inkscape:locked="false"/>
  </sodipodi:namedview>
  <metadata id="metadata5">
    <rdf:RDF>
      <cc:Work rdf:about="">
        <dc:format>image/svg+xml</dc:format>
        <dc:type rdf:resource="http://purl.org/dc/dcmitype/StillImage"/>
        <dc:title/>
      </cc:Work>
    </rdf:RDF>
  </metadata>
  <g inkscape:groupmode="layer" inkscape:label="tile-" transform="matrix(1.000000,0.000000,0.000000,1.000000,-260.350000,-69.850000)"><path style="display:inline;opacity:1;fill:#000000;fill-opacity:1;stroke:none;stroke-width:0.66666663;stroke-linecap:butt;stroke-linejoin:miter;stroke-miterlimit:47.14606857;stroke-dasharray:none;stroke-dashoffset:0;stroke-opacity:1;paint-order:markers fill stroke" d="M 984 264 L 984 336 L 1056 336 L 1056 264 L 984 264 z M 1020 269.95703 A 30.02157 30.02157 0 0 1 1050.0215 299.97852 A 30.02157 30.02157 0 0 1 1020 330 A 30.02157 30.02157 0 0 1 989.97852 299.97852 A 30.02157 30.02157 0 0 1 1020 269.95703 z M 1019.9785 285.35156 C 1017.7421 285.35156 1015.8685 285.92577 1014.3574 287.07422 C 1012.7254 288.31333 1011.9082 289.97521 1011.9082 292.06055 C 1011.9082 294.56899 1013.1027 296.80704 1015.4902 298.77148 C 1012.2565 301.00793 1010.6406 303.74278 1010.6406 306.97656 C 1010.6406 309.6059 1011.4853 311.67639 1013.1777 313.1875 C 1014.9004 314.66839 1017.1531 315.4082 1019.9336 315.4082 C 1022.4723 315.4082 1024.6623 314.50083 1026.5059 312.6875 C 1028.3494 310.87417 1029.2715 308.77427 1029.2715 306.38672 C 1029.2715 303.48539 1027.639 300.97689 1024.375 298.86133 C 1026.6719 296.92711 1027.8203 294.69101 1027.8203 292.15234 C 1027.8203 290.06701 1027.0658 288.38847 1025.5547 287.11914 C 1024.0738 285.94047 1022.215 285.35156 1019.9785 285.35156 z M 1019.9785 289.20508 C 1020.6736 289.20508 1021.338 289.50688 1021.9727 290.11133 C 1022.6073 290.71577 1022.9258 291.41149 1022.9258 292.19727 C 1022.9258 293.64793 1021.9576 295.05406 1020.0234 296.41406 C 1017.9683 295.05406 1016.9414 293.52643 1016.9414 291.83398 C 1016.9414 291.04821 1017.2726 290.39854 1017.9375 289.88477 C 1018.5117 289.43143 1019.1928 289.20508 1019.9785 289.20508 z M 1019.6621 301.53516 C 1022.7146 303.34849 1024.2402 304.95157 1024.2402 306.3418 C 1024.2402 307.49024 1023.7709 308.51716 1022.834 309.42383 C 1021.8971 310.33049 1020.8996 310.7832 1019.8418 310.7832 C 1018.8142 310.7832 1017.8628 310.39125 1016.9863 309.60547 C 1016.1401 308.78947 1015.7168 307.838 1015.7168 306.75 C 1015.7168 304.93667 1017.0328 303.19738 1019.6621 301.53516 z " transform="scale(0.26458334)" id="rect1368" inkscape:label="08"/>
    </g></svg>
