<?xml version='1.0' encoding='UTF-8'?>
<!-- Created with Inkscape (http://www.inkscape.org/) and export_objects.py -->
<svg xmlns:cc="http://creativecommons.org/ns#" xmlns:dc="http://purl.org/dc/elements/1.1/" xmlns:inkscape="http://www.inkscape.org/namespaces/inkscape" xmlns:rdf="http://www.w3.org/1999/02/22-rdf-syntax-ns#" xmlns:sodipodi="http://sodipodi.sourceforge.net/DTD/sodipodi-0.dtd" xmlns:xlink="http://www.w3.org/1999/xlink" xmlns="http://www.w3.org/2000/svg" version="1.1" width="0.75in" height="0.75in" viewBox="0 0 19.05 19.05" id="svg8" inkscape:version="0.92.3 (2405546, 2018-03-11)" sodipodi:docname="tile-30.svg"><sodipodi:namedview id="base" pagecolor="#ffffff" bordercolor="#666666" borderopacity="1.0" inkscape:pageopacity="0.0" inkscape:pageshadow="2" inkscape:zoom="1.372378" inkscape:cx="4746.9979" inkscape:cy="477.45784" inkscape:document-units="in" inkscape:current-layer="layer3" showgrid="true" units="in" inkscape:snap-others="true" inkscape:snap-grids="true" inkscape:window-width="1280" inkscape:window-height="940" inkscape:window-x="1909" inkscape:window-y="43" inkscape:window-maximized="1" inkscape:snap-midpoints="false" inkscape:object-nodes="true" inkscape:snap-text-baseline="true" inkscape:snap-smooth-nodes="false" showguides="false" inkscape:snap-object-midpoints="true" inkscape:snap-center="true" inkscape:snap-to-guides="false" inkscape:snap-nodes="true" inkscape:snap-intersection-paths="false">
    <inkscape:grid type="xygrid" id="grid10" units="pt" spacingx="3.1750001" spacingy="3.1750001"/>
    <sodipodi:guide position="380.20625,103.1875" orientation="0,1" id="guide9455" inkscape:locked="false"/>
  </sodipodi:namedview>
  <metadata id="metadata5">
    <rdf:RDF>
      <cc:Work rdf:about="">
        <dc:format>image/svg+xml</dc:format>
        <dc:type rdf:resource="http://purl.org/dc/dcmitype/StillImage"/>
        <dc:title/>
      </cc:Work>
    </rdf:RDF>
  </metadata>
  <g inkscape:groupmode="layer" inkscape:label="tile-" transform="matrix(1.000000,0.000000,0.000000,1.000000,-727.075000,-69.850000)"><path style="display:inline;opacity:1;fill:#000000;fill-opacity:1;stroke:none;stroke-width:0.66666663;stroke-linecap:butt;stroke-linejoin:miter;stroke-miterlimit:47.14606857;stroke-dasharray:none;stroke-dashoffset:0;stroke-opacity:1;paint-order:markers fill stroke" d="M 2748 264 L 2748 336 L 2820 336 L 2820 264 L 2748 264 z M 2784 269.95703 A 30.02157 30.02157 0 0 1 2814.0215 299.97852 A 30.02157 30.02157 0 0 1 2784 330 A 30.02157 30.02157 0 0 1 2753.9785 299.97852 A 30.02157 30.02157 0 0 1 2784 269.95703 z M 2771.6016 285.03516 C 2768.8211 285.03516 2766.0089 286.09148 2763.168 288.20703 L 2763.168 295.32617 L 2763.3965 295.32617 C 2766.0258 291.75995 2768.7607 289.97656 2771.6016 289.97656 C 2772.5385 289.97656 2773.3684 290.26367 2774.0938 290.83789 C 2774.8493 291.41211 2775.2285 292.15193 2775.2285 293.05859 C 2775.2285 293.7537 2775.0315 294.66107 2774.6387 295.7793 C 2774.2458 296.8673 2773.8372 297.74332 2773.4141 298.4082 L 2762.625 315 L 2781.8926 315 L 2781.8906 310.60352 L 2771.6914 310.60352 C 2773.5652 307.88352 2775.4387 305.14671 2777.3125 302.39648 C 2779.6396 298.76982 2780.8027 295.80861 2780.8027 293.51172 C 2780.8027 290.82194 2779.9728 288.73675 2778.3105 287.25586 C 2776.6785 285.77497 2774.4425 285.03516 2771.6016 285.03516 z M 2796.0117 285.26172 C 2793.1104 285.26172 2790.6185 286.18379 2788.5332 288.02734 C 2786.4781 289.84068 2785.4492 292.10617 2785.4492 294.82617 C 2785.4492 297.33462 2786.3566 299.46586 2788.1699 301.21875 C 2790.0135 302.97164 2792.2643 303.84766 2794.9238 303.84766 C 2796.0723 303.84766 2797.5078 303.4851 2799.2305 302.75977 C 2797.6891 306.7491 2794.0175 310.82933 2788.2148 315 L 2795.1973 315 C 2798.2799 312.88444 2800.7718 310.25444 2802.6758 307.11133 C 2804.7007 303.78688 2805.7129 300.40237 2805.7129 296.95703 C 2805.7129 293.93481 2804.9437 291.32146 2803.4023 289.11523 C 2801.589 286.54634 2799.1246 285.26172 2796.0117 285.26172 z M 2795.6953 289.92969 C 2797.2064 289.92969 2798.4303 290.67145 2799.3672 292.15234 C 2800.1529 293.4519 2800.5762 295.00893 2800.6367 296.82227 C 2799.579 297.72893 2798.6863 298.33254 2797.9609 298.63477 C 2797.1147 299.02765 2796.1025 299.22461 2794.9238 299.22461 C 2793.7754 299.22461 2792.7631 298.74055 2791.8867 297.77344 C 2791.0103 296.80633 2790.5723 295.6873 2790.5723 294.41797 C 2790.5723 293.11841 2791.1004 292.04544 2792.1582 291.19922 C 2793.216 290.353 2794.3958 289.92969 2795.6953 289.92969 z " transform="scale(0.26458334)" id="rect1496" inkscape:label="30"/>
    </g></svg>
