<?xml version='1.0' encoding='UTF-8'?>
<!-- Created with Inkscape (http://www.inkscape.org/) and export_objects.py -->
<svg xmlns:cc="http://creativecommons.org/ns#" xmlns:dc="http://purl.org/dc/elements/1.1/" xmlns:inkscape="http://www.inkscape.org/namespaces/inkscape" xmlns:rdf="http://www.w3.org/1999/02/22-rdf-syntax-ns#" xmlns:sodipodi="http://sodipodi.sourceforge.net/DTD/sodipodi-0.dtd" xmlns:xlink="http://www.w3.org/1999/xlink" xmlns="http://www.w3.org/2000/svg" version="1.1" width="0.75in" height="0.75in" viewBox="0 0 19.05 19.05" id="svg8" inkscape:version="0.92.3 (2405546, 2018-03-11)" sodipodi:docname="tile-54.svg"><sodipodi:namedview id="base" pagecolor="#ffffff" bordercolor="#666666" borderopacity="1.0" inkscape:pageopacity="0.0" inkscape:pageshadow="2" inkscape:zoom="1.372378" inkscape:cx="4212.1852" inkscape:cy="477.45784" inkscape:document-units="in" inkscape:current-layer="layer3" showgrid="true" units="in" inkscape:snap-others="true" inkscape:snap-grids="true" inkscape:window-width="1280" inkscape:window-height="940" inkscape:window-x="1909" inkscape:window-y="43" inkscape:window-maximized="1" inkscape:snap-midpoints="false" inkscape:object-nodes="true" inkscape:snap-text-baseline="true" inkscape:snap-smooth-nodes="false" showguides="false" inkscape:snap-object-midpoints="true" inkscape:snap-center="true" inkscape:snap-to-guides="false" inkscape:snap-nodes="true" inkscape:snap-intersection-paths="false">
    <inkscape:grid type="xygrid" id="grid10" units="pt" spacingx="3.1750001" spacingy="3.1750001"/>
    <sodipodi:guide position="380.20625,103.1875" orientation="0,1" id="guide9455" inkscape:locked="false"/>
  </sodipodi:namedview>
  <metadata id="metadata5">
    <rdf:RDF>
      <cc:Work rdf:about="">
        <dc:format>image/svg+xml</dc:format>
        <dc:type rdf:resource="http://purl.org/dc/dcmitype/StillImage"/>
        <dc:title/>
      </cc:Work>
    </rdf:RDF>
  </metadata>
  <g inkscape:groupmode="layer" inkscape:label="tile-" transform="matrix(1.000000,0.000000,0.000000,1.000000,-171.450000,-47.625000)"><path style="display:inline;opacity:1;fill:#000000;fill-opacity:1;stroke:none;stroke-width:0.66666669;stroke-linecap:butt;stroke-linejoin:miter;stroke-miterlimit:47.14606857;stroke-dasharray:none;stroke-dashoffset:0;stroke-opacity:1;paint-order:markers fill stroke" d="M 648 180 L 648 252 L 720 252 L 720 180 L 648 180 z M 684 185.95703 A 30.02157 30.02157 0 0 1 714.02148 215.97852 A 30.02157 30.02157 0 0 1 684 246 A 30.02157 30.02157 0 0 1 653.97852 215.97852 A 30.02157 30.02157 0 0 1 684 185.95703 z M 700.50977 199.85547 L 681.10742 223.06641 L 695.52148 223.06641 L 695.52148 231 L 700.73633 231 L 700.73633 223.06641 L 707.49023 223.06641 L 707.49023 218.39648 L 700.73633 218.39648 L 700.73633 199.85547 L 700.50977 199.85547 z M 664.91211 201.71484 L 662.96289 217.30859 C 665.32021 216.61348 667.01148 216.26758 668.03906 216.26758 C 669.64083 216.26758 671.04696 216.74969 672.25586 217.7168 C 673.58562 218.77457 674.25 220.09055 674.25 221.66211 C 674.25 222.99189 673.78257 224.15501 672.8457 225.15234 C 671.93902 226.11945 670.88074 226.60352 669.67188 226.60352 C 667.73764 226.60352 666.07576 225.40904 664.68555 223.02148 L 664.41406 223.02148 L 661.33008 226.96484 C 663.56653 229.92662 666.18183 231.4082 669.17383 231.4082 C 672.19604 231.4082 674.71925 230.48613 676.74414 228.64258 C 678.76904 226.7688 679.78125 224.4112 679.78125 221.57031 C 679.78125 218.60853 678.73769 216.20684 676.65234 214.36328 C 674.65769 212.64061 672.10508 211.70384 668.99219 211.55273 L 669.62695 206.20312 L 677.60547 206.20312 L 679.82617 201.71484 L 664.91211 201.71484 z M 695.43164 212.14062 L 695.43164 218.39648 L 690.21875 218.39648 L 695.43164 212.14062 z " transform="scale(0.26458334)" id="rect2236" inkscape:label="54"/>
    </g></svg>
