<?xml version='1.0' encoding='UTF-8'?>
<!-- Created with Inkscape (http://www.inkscape.org/) and export_objects.py -->
<svg xmlns:cc="http://creativecommons.org/ns#" xmlns:dc="http://purl.org/dc/elements/1.1/" xmlns:inkscape="http://www.inkscape.org/namespaces/inkscape" xmlns:rdf="http://www.w3.org/1999/02/22-rdf-syntax-ns#" xmlns:sodipodi="http://sodipodi.sourceforge.net/DTD/sodipodi-0.dtd" xmlns:xlink="http://www.w3.org/1999/xlink" xmlns="http://www.w3.org/2000/svg" version="1.1" width="0.75in" height="0.75in" viewBox="0 0 19.05 19.05" id="svg8" inkscape:version="0.92.3 (2405546, 2018-03-11)" sodipodi:docname="tile-22.svg"><sodipodi:namedview id="base" pagecolor="#ffffff" bordercolor="#666666" borderopacity="1.0" inkscape:pageopacity="0.0" inkscape:pageshadow="2" inkscape:zoom="1.372378" inkscape:cx="4746.9979" inkscape:cy="477.45784" inkscape:document-units="in" inkscape:current-layer="layer3" showgrid="true" units="in" inkscape:snap-others="true" inkscape:snap-grids="true" inkscape:window-width="1280" inkscape:window-height="940" inkscape:window-x="1909" inkscape:window-y="43" inkscape:window-maximized="1" inkscape:snap-midpoints="false" inkscape:object-nodes="true" inkscape:snap-text-baseline="true" inkscape:snap-smooth-nodes="false" showguides="false" inkscape:snap-object-midpoints="true" inkscape:snap-center="true" inkscape:snap-to-guides="false" inkscape:snap-nodes="true" inkscape:snap-intersection-paths="false">
    <inkscape:grid type="xygrid" id="grid10" units="pt" spacingx="3.1750001" spacingy="3.1750001"/>
    <sodipodi:guide position="380.20625,103.1875" orientation="0,1" id="guide9455" inkscape:locked="false"/>
  </sodipodi:namedview>
  <metadata id="metadata5">
    <rdf:RDF>
      <cc:Work rdf:about="">
        <dc:format>image/svg+xml</dc:format>
        <dc:type rdf:resource="http://purl.org/dc/dcmitype/StillImage"/>
        <dc:title/>
      </cc:Work>
    </rdf:RDF>
  </metadata>
  <g inkscape:groupmode="layer" inkscape:label="tile-" transform="matrix(1.000000,0.000000,0.000000,1.000000,-549.275000,-69.850000)"><path style="display:inline;opacity:1;fill:#000000;fill-opacity:1;stroke:none;stroke-width:0.66666663;stroke-linecap:butt;stroke-linejoin:miter;stroke-miterlimit:47.14606857;stroke-dasharray:none;stroke-dashoffset:0;stroke-opacity:1;paint-order:markers fill stroke" d="M 2076 264 L 2076 336 L 2148 336 L 2148 264 L 2076 264 z M 2112 269.95703 A 30.02157 30.02157 0 0 1 2142.0215 299.97852 A 30.02157 30.02157 0 0 1 2112 330 A 30.02157 30.02157 0 0 1 2081.9785 299.97852 A 30.02157 30.02157 0 0 1 2112 269.95703 z M 2105.7539 285.03516 C 2102.9735 285.03516 2100.1632 286.09343 2097.3223 288.20898 L 2097.3223 295.32617 L 2097.5488 295.32617 C 2100.1782 291.75995 2102.913 289.97656 2105.7539 289.97656 C 2106.6908 289.97656 2107.5227 290.26367 2108.248 290.83789 C 2109.0036 291.41211 2109.3809 292.15193 2109.3809 293.05859 C 2109.3809 293.75371 2109.1839 294.66108 2108.791 295.7793 C 2108.3981 296.8673 2107.9915 297.74331 2107.5684 298.4082 L 2096.7793 315 L 2116.0449 315 L 2116.0449 310.60352 L 2105.8457 310.60352 C 2107.7195 307.88351 2109.593 305.14671 2111.4668 302.39648 C 2113.7939 298.76982 2114.957 295.80861 2114.957 293.51172 C 2114.957 290.82194 2114.1251 288.73675 2112.4629 287.25586 C 2110.8309 285.77497 2108.5948 285.03516 2105.7539 285.03516 z M 2121.2344 285.66992 L 2121.2344 315 L 2126.4941 315 L 2126.4941 285.66992 L 2121.2344 285.66992 z " transform="scale(0.26458334)" id="rect1480" inkscape:label="22"/>
    </g></svg>
