<?xml version='1.0' encoding='UTF-8'?>
<!-- Created with Inkscape (http://www.inkscape.org/) and export_objects.py -->
<svg xmlns:cc="http://creativecommons.org/ns#" xmlns:dc="http://purl.org/dc/elements/1.1/" xmlns:inkscape="http://www.inkscape.org/namespaces/inkscape" xmlns:rdf="http://www.w3.org/1999/02/22-rdf-syntax-ns#" xmlns:sodipodi="http://sodipodi.sourceforge.net/DTD/sodipodi-0.dtd" xmlns:xlink="http://www.w3.org/1999/xlink" xmlns="http://www.w3.org/2000/svg" version="1.1" width="0.75in" height="0.75in" viewBox="0 0 19.05 19.05" id="svg8" inkscape:version="0.92.3 (2405546, 2018-03-11)" sodipodi:docname="tile-66.svg"><sodipodi:namedview id="base" pagecolor="#ffffff" bordercolor="#666666" borderopacity="1.0" inkscape:pageopacity="0.0" inkscape:pageshadow="2" inkscape:zoom="1.372378" inkscape:cx="4212.1852" inkscape:cy="477.45784" inkscape:document-units="in" inkscape:current-layer="layer3" showgrid="true" units="in" inkscape:snap-others="true" inkscape:snap-grids="true" inkscape:window-width="1280" inkscape:window-height="940" inkscape:window-x="1909" inkscape:window-y="43" inkscape:window-maximized="1" inkscape:snap-midpoints="false" inkscape:object-nodes="true" inkscape:snap-text-baseline="true" inkscape:snap-smooth-nodes="false" showguides="false" inkscape:snap-object-midpoints="true" inkscape:snap-center="true" inkscape:snap-to-guides="false" inkscape:snap-nodes="true" inkscape:snap-intersection-paths="false">
    <inkscape:grid type="xygrid" id="grid10" units="pt" spacingx="3.1750001" spacingy="3.1750001"/>
    <sodipodi:guide position="380.20625,103.1875" orientation="0,1" id="guide9455" inkscape:locked="false"/>
  </sodipodi:namedview>
  <metadata id="metadata5">
    <rdf:RDF>
      <cc:Work rdf:about="">
        <dc:format>image/svg+xml</dc:format>
        <dc:type rdf:resource="http://purl.org/dc/dcmitype/StillImage"/>
        <dc:title/>
      </cc:Work>
    </rdf:RDF>
  </metadata>
  <g inkscape:groupmode="layer" inkscape:label="tile-" transform="matrix(1.000000,0.000000,0.000000,1.000000,-438.150000,-47.625000)"><path style="display:inline;opacity:1;fill:#000000;fill-opacity:1;stroke:none;stroke-width:0.66666669;stroke-linecap:butt;stroke-linejoin:miter;stroke-miterlimit:47.14606857;stroke-dasharray:none;stroke-dashoffset:0;stroke-opacity:1;paint-order:markers fill stroke" d="M 1656 180 L 1656 252 L 1728 252 L 1728 180 L 1656 180 z M 1692 185.95703 A 30.02157 30.02157 0 0 1 1722.0215 215.97852 A 30.02157 30.02157 0 0 1 1692 246 A 30.02157 30.02157 0 0 1 1661.9785 215.97852 A 30.02157 30.02157 0 0 1 1692 185.95703 z M 1679.998 201.66992 C 1677.1874 203.63436 1674.8445 206.36922 1672.9707 209.875 C 1671.1272 213.38078 1670.2051 216.7947 1670.2051 220.11914 C 1670.2051 223.23203 1671.0664 225.84734 1672.7891 227.96289 C 1674.6629 230.29 1677.2321 231.45312 1680.4961 231.45312 C 1683.3672 231.45312 1685.7689 230.54575 1687.7031 228.73242 C 1689.6675 226.88886 1690.6504 224.60867 1690.6504 221.88867 C 1690.6504 219.38023 1689.7597 217.23428 1687.9766 215.45117 C 1686.1935 213.63784 1683.9721 212.73047 1681.3125 212.73047 C 1679.6201 212.73047 1678.1091 213.03227 1676.7793 213.63672 C 1679.1971 208.01538 1682.7619 204.02725 1687.4766 201.66992 L 1679.998 201.66992 z M 1703.1074 201.66992 C 1700.2967 203.63436 1697.9538 206.36922 1696.0801 209.875 C 1694.2365 213.38078 1693.3145 216.7947 1693.3145 220.11914 C 1693.3145 223.23203 1694.1758 225.84734 1695.8984 227.96289 C 1697.7722 230.29 1700.3415 231.45312 1703.6055 231.45312 C 1706.4766 231.45312 1708.8783 230.54575 1710.8125 228.73242 C 1712.7769 226.88886 1713.7598 224.60867 1713.7598 221.88867 C 1713.7598 219.38023 1712.869 217.23428 1711.0859 215.45117 C 1709.3028 213.63784 1707.0815 212.73047 1704.4219 212.73047 C 1702.7295 212.73047 1701.2185 213.03227 1699.8887 213.63672 C 1702.3065 208.01538 1705.8713 204.02725 1710.5859 201.66992 L 1703.1074 201.66992 z M 1680.9492 217.49023 C 1682.0977 217.49023 1683.1099 217.9743 1683.9863 218.94141 C 1684.8628 219.8783 1685.3008 220.96597 1685.3008 222.20508 C 1685.3008 223.47441 1684.8628 224.56208 1683.9863 225.46875 C 1683.1401 226.34519 1682.1279 226.7832 1680.9492 226.7832 C 1679.5288 226.7832 1678.2755 226.31579 1677.1875 225.37891 C 1676.0995 224.41179 1675.5547 223.20262 1675.5547 221.75195 C 1675.5547 220.60351 1675.7056 219.83234 1676.0078 219.43945 C 1677.0354 218.1399 1678.6826 217.49023 1680.9492 217.49023 z M 1704.0586 217.49023 C 1705.207 217.49023 1706.2193 217.9743 1707.0957 218.94141 C 1707.9722 219.8783 1708.4102 220.96597 1708.4102 222.20508 C 1708.4102 223.47441 1707.9722 224.56208 1707.0957 225.46875 C 1706.2495 226.34519 1705.2373 226.7832 1704.0586 226.7832 C 1702.6381 226.7832 1701.3849 226.31579 1700.2969 225.37891 C 1699.2089 224.41179 1698.6641 223.20262 1698.6641 221.75195 C 1698.6641 220.60351 1698.815 219.83234 1699.1172 219.43945 C 1700.1448 218.1399 1701.7919 217.49023 1704.0586 217.49023 z " transform="scale(0.26458334)" id="rect2260" inkscape:label="66"/>
    </g></svg>
