<?xml version='1.0' encoding='UTF-8'?>
<!-- Created with Inkscape (http://www.inkscape.org/) and export_objects.py -->
<svg xmlns:cc="http://creativecommons.org/ns#" xmlns:dc="http://purl.org/dc/elements/1.1/" xmlns:inkscape="http://www.inkscape.org/namespaces/inkscape" xmlns:rdf="http://www.w3.org/1999/02/22-rdf-syntax-ns#" xmlns:sodipodi="http://sodipodi.sourceforge.net/DTD/sodipodi-0.dtd" xmlns:xlink="http://www.w3.org/1999/xlink" xmlns="http://www.w3.org/2000/svg" version="1.1" width="0.75in" height="0.75in" viewBox="0 0 19.05 19.05" id="svg8" inkscape:version="0.92.3 (2405546, 2018-03-11)" sodipodi:docname="tile-67.svg"><sodipodi:namedview id="base" pagecolor="#ffffff" bordercolor="#666666" borderopacity="1.0" inkscape:pageopacity="0.0" inkscape:pageshadow="2" inkscape:zoom="1.372378" inkscape:cx="4212.1852" inkscape:cy="477.45784" inkscape:document-units="in" inkscape:current-layer="layer3" showgrid="true" units="in" inkscape:snap-others="true" inkscape:snap-grids="true" inkscape:window-width="1280" inkscape:window-height="940" inkscape:window-x="1909" inkscape:window-y="43" inkscape:window-maximized="1" inkscape:snap-midpoints="false" inkscape:object-nodes="true" inkscape:snap-text-baseline="true" inkscape:snap-smooth-nodes="false" showguides="false" inkscape:snap-object-midpoints="true" inkscape:snap-center="true" inkscape:snap-to-guides="false" inkscape:snap-nodes="true" inkscape:snap-intersection-paths="false">
    <inkscape:grid type="xygrid" id="grid10" units="pt" spacingx="3.1750001" spacingy="3.1750001"/>
    <sodipodi:guide position="380.20625,103.1875" orientation="0,1" id="guide9455" inkscape:locked="false"/>
  </sodipodi:namedview>
  <metadata id="metadata5">
    <rdf:RDF>
      <cc:Work rdf:about="">
        <dc:format>image/svg+xml</dc:format>
        <dc:type rdf:resource="http://purl.org/dc/dcmitype/StillImage"/>
        <dc:title/>
      </cc:Work>
    </rdf:RDF>
  </metadata>
  <g inkscape:groupmode="layer" inkscape:label="tile-" transform="matrix(1.000000,0.000000,0.000000,1.000000,-460.375000,-47.625000)"><path style="display:inline;opacity:1;fill:#000000;fill-opacity:1;stroke:none;stroke-width:0.66666669;stroke-linecap:butt;stroke-linejoin:miter;stroke-miterlimit:47.14606857;stroke-dasharray:none;stroke-dashoffset:0;stroke-opacity:1;paint-order:markers fill stroke" d="M 1740 180 L 1740 252 L 1812 252 L 1812 180 L 1740 180 z M 1776 185.95703 A 30.02157 30.02157 0 0 1 1806.0215 215.97852 A 30.02157 30.02157 0 0 1 1776 246 A 30.02157 30.02157 0 0 1 1745.9785 215.97852 A 30.02157 30.02157 0 0 1 1776 185.95703 z M 1763.6426 201.66992 C 1760.8319 203.63436 1758.491 206.36922 1756.6172 209.875 C 1754.7736 213.38078 1753.8516 216.7947 1753.8516 220.11914 C 1753.8516 223.23203 1754.7129 225.84734 1756.4355 227.96289 C 1758.3093 230.29 1760.8786 231.45312 1764.1426 231.45312 C 1767.0137 231.45312 1769.4154 230.54575 1771.3496 228.73242 C 1773.3141 226.88886 1774.2969 224.60867 1774.2969 221.88867 C 1774.2969 219.38023 1773.4042 217.23428 1771.6211 215.45117 C 1769.838 213.63784 1767.6166 212.73047 1764.957 212.73047 C 1763.2646 212.73047 1761.7536 213.03227 1760.4238 213.63672 C 1762.8416 208.01538 1766.4084 204.02725 1771.123 201.66992 L 1763.6426 201.66992 z M 1778.0039 201.71484 L 1778.0039 206.42969 L 1790.0625 206.42969 L 1776.5078 231 L 1782.2188 231 L 1798.6309 201.71484 L 1778.0039 201.71484 z M 1764.5957 217.49023 C 1765.7442 217.49023 1766.7564 217.9743 1767.6328 218.94141 C 1768.5092 219.8783 1768.9473 220.96597 1768.9473 222.20508 C 1768.9473 223.47441 1768.5092 224.56208 1767.6328 225.46875 C 1766.7866 226.34519 1765.7744 226.7832 1764.5957 226.7832 C 1763.1753 226.7832 1761.92 226.31579 1760.832 225.37891 C 1759.744 224.41179 1759.2012 223.20262 1759.2012 221.75195 C 1759.2012 220.60351 1759.3521 219.83234 1759.6543 219.43945 C 1760.6818 218.1399 1762.329 217.49023 1764.5957 217.49023 z " transform="scale(0.26458334)" id="rect2262" inkscape:label="67"/>
    </g></svg>
