<?xml version='1.0' encoding='UTF-8'?>
<!-- Created with Inkscape (http://www.inkscape.org/) and export_objects.py -->
<svg xmlns:cc="http://creativecommons.org/ns#" xmlns:dc="http://purl.org/dc/elements/1.1/" xmlns:inkscape="http://www.inkscape.org/namespaces/inkscape" xmlns:rdf="http://www.w3.org/1999/02/22-rdf-syntax-ns#" xmlns:sodipodi="http://sodipodi.sourceforge.net/DTD/sodipodi-0.dtd" xmlns:xlink="http://www.w3.org/1999/xlink" xmlns="http://www.w3.org/2000/svg" version="1.1" width="0.75in" height="0.75in" viewBox="0 0 19.05 19.05" id="svg8" inkscape:version="0.92.3 (2405546, 2018-03-11)" sodipodi:docname="tile-24.svg"><sodipodi:namedview id="base" pagecolor="#ffffff" bordercolor="#666666" borderopacity="1.0" inkscape:pageopacity="0.0" inkscape:pageshadow="2" inkscape:zoom="1.372378" inkscape:cx="4746.9979" inkscape:cy="477.45784" inkscape:document-units="in" inkscape:current-layer="layer3" showgrid="true" units="in" inkscape:snap-others="true" inkscape:snap-grids="true" inkscape:window-width="1280" inkscape:window-height="940" inkscape:window-x="1909" inkscape:window-y="43" inkscape:window-maximized="1" inkscape:snap-midpoints="false" inkscape:object-nodes="true" inkscape:snap-text-baseline="true" inkscape:snap-smooth-nodes="false" showguides="false" inkscape:snap-object-midpoints="true" inkscape:snap-center="true" inkscape:snap-to-guides="false" inkscape:snap-nodes="true" inkscape:snap-intersection-paths="false">
    <inkscape:grid type="xygrid" id="grid10" units="pt" spacingx="3.1750001" spacingy="3.1750001"/>
    <sodipodi:guide position="380.20625,103.1875" orientation="0,1" id="guide9455" inkscape:locked="false"/>
  </sodipodi:namedview>
  <metadata id="metadata5">
    <rdf:RDF>
      <cc:Work rdf:about="">
        <dc:format>image/svg+xml</dc:format>
        <dc:type rdf:resource="http://purl.org/dc/dcmitype/StillImage"/>
        <dc:title/>
      </cc:Work>
    </rdf:RDF>
  </metadata>
  <g inkscape:groupmode="layer" inkscape:label="tile-" transform="matrix(1.000000,0.000000,0.000000,1.000000,-593.725000,-69.850000)"><path style="display:inline;opacity:1;fill:#000000;fill-opacity:1;stroke:none;stroke-width:0.66666663;stroke-linecap:butt;stroke-linejoin:miter;stroke-miterlimit:47.14606857;stroke-dasharray:none;stroke-dashoffset:0;stroke-opacity:1;paint-order:markers fill stroke" d="M 2244 264 L 2244 336 L 2316 336 L 2316 264 L 2244 264 z M 2280 269.95703 A 30.02157 30.02157 0 0 1 2310.0215 299.97852 A 30.02157 30.02157 0 0 1 2280 330 A 30.02157 30.02157 0 0 1 2249.9785 299.97852 A 30.02157 30.02157 0 0 1 2280 269.95703 z M 2267.6445 285.03516 C 2264.8641 285.03516 2262.0538 286.09148 2259.2129 288.20703 L 2259.2129 295.32617 L 2259.4395 295.32617 C 2262.0688 291.75995 2264.8036 289.97656 2267.6445 289.97656 C 2268.5814 289.97656 2269.4134 290.26367 2270.1387 290.83789 C 2270.8942 291.41211 2271.2715 292.15193 2271.2715 293.05859 C 2271.2715 293.7537 2271.0745 294.66108 2270.6816 295.7793 C 2270.2887 296.8673 2269.8821 297.74331 2269.459 298.4082 L 2258.6699 315 L 2277.9355 315 L 2277.9355 310.60352 L 2267.7363 310.60352 C 2269.6101 307.88352 2271.4836 305.14671 2273.3574 302.39648 C 2275.6845 298.76982 2276.8477 295.80861 2276.8477 293.51172 C 2276.8477 290.82194 2276.0157 288.73675 2274.3535 287.25586 C 2272.7215 285.77497 2270.4854 285.03516 2267.6445 285.03516 z M 2282.4922 285.71484 L 2282.4922 290.33789 L 2293.8691 290.33789 L 2287.9316 300.58398 C 2290.561 300.58398 2292.51 300.96124 2293.7793 301.7168 C 2295.23 302.59324 2295.9551 304.07482 2295.9551 306.16016 C 2295.9551 307.33882 2295.5171 308.33634 2294.6406 309.15234 C 2293.7642 309.96834 2292.7519 310.37695 2291.6035 310.37695 C 2289.2462 310.37695 2287.2972 308.89537 2285.7559 305.93359 L 2285.4824 305.93359 L 2282.084 309.51562 C 2282.3258 310.66407 2283.1557 311.78114 2284.5762 312.86914 C 2285.6944 313.74559 2286.8742 314.39525 2288.1133 314.81836 C 2289.0804 315.1508 2290.122 315.31641 2291.2402 315.31641 C 2294.0811 315.31641 2296.5142 314.45509 2298.5391 312.73242 C 2300.5639 310.97953 2301.5762 308.75814 2301.5762 306.06836 C 2301.5762 304.19458 2301.0774 302.42785 2300.0801 300.76562 C 2299.0223 298.92207 2297.6015 297.68349 2295.8184 297.04883 L 2302.3027 285.71484 L 2282.4922 285.71484 z " transform="scale(0.26458334)" id="rect1484" inkscape:label="24"/>
    </g></svg>
