<?xml version='1.0' encoding='UTF-8'?>
<!-- Created with Inkscape (http://www.inkscape.org/) and export_objects.py -->
<svg xmlns:cc="http://creativecommons.org/ns#" xmlns:dc="http://purl.org/dc/elements/1.1/" xmlns:inkscape="http://www.inkscape.org/namespaces/inkscape" xmlns:rdf="http://www.w3.org/1999/02/22-rdf-syntax-ns#" xmlns:sodipodi="http://sodipodi.sourceforge.net/DTD/sodipodi-0.dtd" xmlns:xlink="http://www.w3.org/1999/xlink" xmlns="http://www.w3.org/2000/svg" version="1.1" width="0.75in" height="0.75in" viewBox="0 0 19.05 19.05" id="svg8" inkscape:version="0.92.3 (2405546, 2018-03-11)" sodipodi:docname="tile-52.svg"><sodipodi:namedview id="base" pagecolor="#ffffff" bordercolor="#666666" borderopacity="1.0" inkscape:pageopacity="0.0" inkscape:pageshadow="2" inkscape:zoom="1.372378" inkscape:cx="4212.1852" inkscape:cy="477.45784" inkscape:document-units="in" inkscape:current-layer="layer3" showgrid="true" units="in" inkscape:snap-others="true" inkscape:snap-grids="true" inkscape:window-width="1280" inkscape:window-height="940" inkscape:window-x="1909" inkscape:window-y="43" inkscape:window-maximized="1" inkscape:snap-midpoints="false" inkscape:object-nodes="true" inkscape:snap-text-baseline="true" inkscape:snap-smooth-nodes="false" showguides="false" inkscape:snap-object-midpoints="true" inkscape:snap-center="true" inkscape:snap-to-guides="false" inkscape:snap-nodes="true" inkscape:snap-intersection-paths="false">
    <inkscape:grid type="xygrid" id="grid10" units="pt" spacingx="3.1750001" spacingy="3.1750001"/>
    <sodipodi:guide position="380.20625,103.1875" orientation="0,1" id="guide9455" inkscape:locked="false"/>
  </sodipodi:namedview>
  <metadata id="metadata5">
    <rdf:RDF>
      <cc:Work rdf:about="">
        <dc:format>image/svg+xml</dc:format>
        <dc:type rdf:resource="http://purl.org/dc/dcmitype/StillImage"/>
        <dc:title/>
      </cc:Work>
    </rdf:RDF>
  </metadata>
  <g inkscape:groupmode="layer" inkscape:label="tile-" transform="matrix(1.000000,0.000000,0.000000,1.000000,-127.000000,-47.625000)"><path style="display:inline;opacity:1;fill:#000000;fill-opacity:1;stroke:none;stroke-width:0.66666669;stroke-linecap:butt;stroke-linejoin:miter;stroke-miterlimit:47.14606857;stroke-dasharray:none;stroke-dashoffset:0;stroke-opacity:1;paint-order:markers fill stroke" d="M 480 180 L 480 252 L 552 252 L 552 180 L 480 180 z M 516 185.95703 A 30.02157 30.02157 0 0 1 546.02148 215.97852 A 30.02157 30.02157 0 0 1 516 246 A 30.02157 30.02157 0 0 1 485.97852 215.97852 A 30.02157 30.02157 0 0 1 516 185.95703 z M 526.48828 201.03516 C 523.70783 201.03516 520.89754 202.09343 518.05664 204.20898 L 518.05664 211.32617 L 518.2832 211.32617 C 520.91254 207.75995 523.64739 205.97656 526.48828 205.97656 C 527.42518 205.97656 528.25711 206.26367 528.98242 206.83789 C 529.73797 207.41211 530.11523 208.15193 530.11523 209.05859 C 530.11523 209.7537 529.91826 210.66108 529.52539 211.7793 C 529.1325 212.8673 528.72584 213.74331 528.30273 214.4082 L 517.51367 231 L 536.7793 231 L 536.7793 226.60352 L 526.58008 226.60352 C 528.45384 223.88352 530.32738 221.14671 532.20117 218.39648 C 534.52828 214.76982 535.69141 211.80861 535.69141 209.51172 C 535.69141 206.82194 534.85948 204.73675 533.19727 203.25586 C 531.56527 201.77497 529.32918 201.03516 526.48828 201.03516 z M 498.41797 201.71484 L 496.46875 217.30859 C 498.82609 216.61348 500.51737 216.26758 501.54492 216.26758 C 503.14671 216.26758 504.55282 216.74969 505.76172 217.7168 C 507.09148 218.77457 507.75586 220.09055 507.75586 221.66211 C 507.75586 222.99189 507.2865 224.15501 506.34961 225.15234 C 505.44295 226.11945 504.38663 226.60352 503.17773 226.60352 C 501.24352 226.60352 499.58164 225.40904 498.19141 223.02148 L 497.91797 223.02148 L 494.83594 226.96484 C 497.07238 229.92662 499.68573 231.4082 502.67773 231.4082 C 505.69997 231.4082 508.22511 230.48613 510.25 228.64258 C 512.27487 226.7688 513.28711 224.4112 513.28711 221.57031 C 513.28711 218.60853 512.24352 216.20684 510.1582 214.36328 C 508.16352 212.64061 505.60899 211.70384 502.49609 211.55273 L 503.13086 206.20312 L 511.11133 206.20312 L 513.33203 201.71484 L 498.41797 201.71484 z " transform="scale(0.26458334)" id="rect2232" inkscape:label="52"/>
    </g></svg>
