<?xml version='1.0' encoding='UTF-8'?>
<!-- Created with Inkscape (http://www.inkscape.org/) and export_objects.py -->
<svg xmlns:cc="http://creativecommons.org/ns#" xmlns:dc="http://purl.org/dc/elements/1.1/" xmlns:inkscape="http://www.inkscape.org/namespaces/inkscape" xmlns:rdf="http://www.w3.org/1999/02/22-rdf-syntax-ns#" xmlns:sodipodi="http://sodipodi.sourceforge.net/DTD/sodipodi-0.dtd" xmlns:xlink="http://www.w3.org/1999/xlink" xmlns="http://www.w3.org/2000/svg" version="1.1" width="0.75in" height="0.75in" viewBox="0 0 19.05 19.05" id="svg8" inkscape:version="0.92.3 (2405546, 2018-03-11)" sodipodi:docname="tile-77.svg"><sodipodi:namedview id="base" pagecolor="#ffffff" bordercolor="#666666" borderopacity="1.0" inkscape:pageopacity="0.0" inkscape:pageshadow="2" inkscape:zoom="1.372378" inkscape:cx="4212.1852" inkscape:cy="477.45784" inkscape:document-units="in" inkscape:current-layer="layer3" showgrid="true" units="in" inkscape:snap-others="true" inkscape:snap-grids="true" inkscape:window-width="1280" inkscape:window-height="940" inkscape:window-x="1909" inkscape:window-y="43" inkscape:window-maximized="1" inkscape:snap-midpoints="false" inkscape:object-nodes="true" inkscape:snap-text-baseline="true" inkscape:snap-smooth-nodes="false" showguides="false" inkscape:snap-object-midpoints="true" inkscape:snap-center="true" inkscape:snap-to-guides="false" inkscape:snap-nodes="true" inkscape:snap-intersection-paths="false">
    <inkscape:grid type="xygrid" id="grid10" units="pt" spacingx="3.1750001" spacingy="3.1750001"/>
    <sodipodi:guide position="380.20625,103.1875" orientation="0,1" id="guide9455" inkscape:locked="false"/>
  </sodipodi:namedview>
  <metadata id="metadata5">
    <rdf:RDF>
      <cc:Work rdf:about="">
        <dc:format>image/svg+xml</dc:format>
        <dc:type rdf:resource="http://purl.org/dc/dcmitype/StillImage"/>
        <dc:title/>
      </cc:Work>
    </rdf:RDF>
  </metadata>
  <g inkscape:groupmode="layer" inkscape:label="tile-" transform="matrix(1.000000,0.000000,0.000000,1.000000,-660.400000,-47.625000)"><path style="display:inline;opacity:1;fill:#000000;fill-opacity:1;stroke:none;stroke-width:0.66666669;stroke-linecap:butt;stroke-linejoin:miter;stroke-miterlimit:47.14606857;stroke-dasharray:none;stroke-dashoffset:0;stroke-opacity:1;paint-order:markers fill stroke" d="M 2496 180 L 2496 252 L 2568 252 L 2568 180 L 2496 180 z M 2532 185.95703 A 30.02157 30.02157 0 0 1 2562.0215 215.97852 A 30.02157 30.02157 0 0 1 2532 246 A 30.02157 30.02157 0 0 1 2501.9785 215.97852 A 30.02157 30.02157 0 0 1 2532 185.95703 z M 2543.4609 201.66992 C 2540.6503 203.63437 2538.3074 206.36924 2536.4336 209.875 C 2534.59 213.38079 2533.668 216.79469 2533.668 220.11914 C 2533.668 223.23201 2534.5293 225.84731 2536.252 227.96289 C 2538.1257 230.29 2540.695 231.45312 2543.959 231.45312 C 2546.8301 231.45313 2549.2337 230.54576 2551.168 228.73242 C 2553.1324 226.88887 2554.1133 224.60867 2554.1133 221.88867 C 2554.1133 219.38022 2553.2226 217.23428 2551.4395 215.45117 C 2549.6563 213.63783 2547.4349 212.73047 2544.7754 212.73047 C 2543.0829 212.73047 2541.572 213.03227 2540.2422 213.63672 C 2542.66 208.01538 2546.2267 204.02724 2550.9414 201.66992 L 2543.4609 201.66992 z M 2510.8945 201.71484 L 2510.8945 206.42969 L 2522.9531 206.42969 L 2509.3984 231 L 2515.1094 231 L 2531.5195 201.71484 L 2510.8945 201.71484 z M 2544.4121 217.49023 C 2545.5605 217.49023 2546.5728 217.9743 2547.4492 218.94141 C 2548.3257 219.8783 2548.7656 220.96597 2548.7656 222.20508 C 2548.7656 223.47442 2548.3257 224.56209 2547.4492 225.46875 C 2546.603 226.3452 2545.5908 226.78516 2544.4121 226.78516 C 2542.9917 226.78516 2541.7384 226.3158 2540.6504 225.37891 C 2539.5624 224.4118 2539.0176 223.20261 2539.0176 221.75195 C 2539.0176 220.60351 2539.1685 219.83235 2539.4707 219.43945 C 2540.4983 218.1399 2542.1454 217.49023 2544.4121 217.49023 z " transform="scale(0.26458334)" id="rect2282" inkscape:label="77"/>
    </g></svg>
