<?xml version='1.0' encoding='UTF-8'?>
<!-- Created with Inkscape (http://www.inkscape.org/) and export_objects.py -->
<svg xmlns:cc="http://creativecommons.org/ns#" xmlns:dc="http://purl.org/dc/elements/1.1/" xmlns:inkscape="http://www.inkscape.org/namespaces/inkscape" xmlns:rdf="http://www.w3.org/1999/02/22-rdf-syntax-ns#" xmlns:sodipodi="http://sodipodi.sourceforge.net/DTD/sodipodi-0.dtd" xmlns:xlink="http://www.w3.org/1999/xlink" xmlns="http://www.w3.org/2000/svg" version="1.1" width="0.75in" height="0.75in" viewBox="0 0 19.05 19.05" id="svg8" inkscape:version="0.92.3 (2405546, 2018-03-11)" sodipodi:docname="tile-84.svg"><sodipodi:namedview id="base" pagecolor="#ffffff" bordercolor="#666666" borderopacity="1.0" inkscape:pageopacity="0.0" inkscape:pageshadow="2" inkscape:zoom="1.372378" inkscape:cx="4212.1852" inkscape:cy="477.45784" inkscape:document-units="in" inkscape:current-layer="layer3" showgrid="true" units="in" inkscape:snap-others="true" inkscape:snap-grids="true" inkscape:window-width="1280" inkscape:window-height="940" inkscape:window-x="1909" inkscape:window-y="43" inkscape:window-maximized="1" inkscape:snap-midpoints="false" inkscape:object-nodes="true" inkscape:snap-text-baseline="true" inkscape:snap-smooth-nodes="false" showguides="false" inkscape:snap-object-midpoints="true" inkscape:snap-center="true" inkscape:snap-to-guides="false" inkscape:snap-nodes="true" inkscape:snap-intersection-paths="false">
    <inkscape:grid type="xygrid" id="grid10" units="pt" spacingx="3.1750001" spacingy="3.1750001"/>
    <sodipodi:guide position="380.20625,103.1875" orientation="0,1" id="guide9455" inkscape:locked="false"/>
  </sodipodi:namedview>
  <metadata id="metadata5">
    <rdf:RDF>
      <cc:Work rdf:about="">
        <dc:format>image/svg+xml</dc:format>
        <dc:type rdf:resource="http://purl.org/dc/dcmitype/StillImage"/>
        <dc:title/>
      </cc:Work>
    </rdf:RDF>
  </metadata>
  <g inkscape:groupmode="layer" inkscape:label="tile-" transform="matrix(1.000000,0.000000,0.000000,1.000000,-838.200000,-47.625000)"><path style="display:inline;opacity:1;fill:#000000;fill-opacity:1;stroke:none;stroke-width:0.66666669;stroke-linecap:butt;stroke-linejoin:miter;stroke-miterlimit:47.14606857;stroke-dasharray:none;stroke-dashoffset:0;stroke-opacity:1;paint-order:markers fill stroke" d="M 3168 180 L 3168 252 L 3240 252 L 3240 180 L 3168 180 z M 3204 185.95703 A 30.02157 30.02157 0 0 1 3234.0215 215.97852 A 30.02157 30.02157 0 0 1 3204 246 A 30.02157 30.02157 0 0 1 3173.9785 215.97852 A 30.02157 30.02157 0 0 1 3204 185.95703 z M 3219.8457 199.85547 L 3200.4434 223.06641 L 3214.8574 223.06641 L 3214.8574 231 L 3220.0723 231 L 3220.0723 223.06641 L 3226.8262 223.06641 L 3226.8262 218.39648 L 3220.0723 218.39648 L 3220.0723 199.85547 L 3219.8457 199.85547 z M 3190.6523 201.35156 C 3188.4159 201.35156 3186.5424 201.92577 3185.0312 203.07422 C 3183.3993 204.31332 3182.584 205.97521 3182.584 208.06055 C 3182.584 210.56899 3183.7785 212.80704 3186.166 214.77148 C 3182.9322 217.00793 3181.3145 219.7428 3181.3145 222.97656 C 3181.3145 225.6059 3182.1611 227.67639 3183.8535 229.1875 C 3185.5762 230.66839 3187.827 231.4082 3190.6074 231.4082 C 3193.1461 231.4082 3195.3381 230.50084 3197.1816 228.6875 C 3199.0252 226.87416 3199.9473 224.77427 3199.9473 222.38672 C 3199.9473 219.4854 3198.3148 216.97691 3195.0508 214.86133 C 3197.3477 212.92712 3198.4961 210.691 3198.4961 208.15234 C 3198.4961 206.067 3197.7396 204.38848 3196.2285 203.11914 C 3194.7476 201.94048 3192.8888 201.35156 3190.6523 201.35156 z M 3190.6523 205.20508 C 3191.3474 205.20508 3192.0138 205.50688 3192.6484 206.11133 C 3193.2831 206.71578 3193.5996 207.4115 3193.5996 208.19727 C 3193.5996 209.64792 3192.6335 211.05406 3190.6992 212.41406 C 3188.6441 211.05406 3187.6152 209.52641 3187.6152 207.83398 C 3187.6152 207.0482 3187.9484 206.39855 3188.6133 205.88477 C 3189.1875 205.43145 3189.8666 205.20508 3190.6523 205.20508 z M 3214.7676 212.14062 L 3214.7676 218.39648 L 3209.5547 218.39648 L 3214.7676 212.14062 z M 3190.3359 217.53516 C 3193.3884 219.34847 3194.9141 220.95156 3194.9141 222.3418 C 3194.9141 223.49024 3194.4466 224.51717 3193.5098 225.42383 C 3192.5729 226.33049 3191.5754 226.7832 3190.5176 226.7832 C 3189.49 226.7832 3188.5386 226.39123 3187.6621 225.60547 C 3186.8159 224.78947 3186.3926 223.838 3186.3926 222.75 C 3186.3926 220.93666 3187.7066 219.19737 3190.3359 217.53516 z " transform="scale(0.26458334)" id="rect2296" inkscape:label="84"/>
    </g></svg>
