<?xml version='1.0' encoding='UTF-8'?>
<!-- Created with Inkscape (http://www.inkscape.org/) and export_objects.py -->
<svg xmlns:cc="http://creativecommons.org/ns#" xmlns:dc="http://purl.org/dc/elements/1.1/" xmlns:inkscape="http://www.inkscape.org/namespaces/inkscape" xmlns:rdf="http://www.w3.org/1999/02/22-rdf-syntax-ns#" xmlns:sodipodi="http://sodipodi.sourceforge.net/DTD/sodipodi-0.dtd" xmlns:xlink="http://www.w3.org/1999/xlink" xmlns="http://www.w3.org/2000/svg" version="1.1" width="0.75in" height="0.75in" viewBox="0 0 19.05 19.05" id="svg8" inkscape:version="0.92.3 (2405546, 2018-03-11)" sodipodi:docname="tile-80.svg"><sodipodi:namedview id="base" pagecolor="#ffffff" bordercolor="#666666" borderopacity="1.0" inkscape:pageopacity="0.0" inkscape:pageshadow="2" inkscape:zoom="1.372378" inkscape:cx="4212.1852" inkscape:cy="477.45784" inkscape:document-units="in" inkscape:current-layer="layer3" showgrid="true" units="in" inkscape:snap-others="true" inkscape:snap-grids="true" inkscape:window-width="1280" inkscape:window-height="940" inkscape:window-x="1909" inkscape:window-y="43" inkscape:window-maximized="1" inkscape:snap-midpoints="false" inkscape:object-nodes="true" inkscape:snap-text-baseline="true" inkscape:snap-smooth-nodes="false" showguides="false" inkscape:snap-object-midpoints="true" inkscape:snap-center="true" inkscape:snap-to-guides="false" inkscape:snap-nodes="true" inkscape:snap-intersection-paths="false">
    <inkscape:grid type="xygrid" id="grid10" units="pt" spacingx="3.1750001" spacingy="3.1750001"/>
    <sodipodi:guide position="380.20625,103.1875" orientation="0,1" id="guide9455" inkscape:locked="false"/>
  </sodipodi:namedview>
  <metadata id="metadata5">
    <rdf:RDF>
      <cc:Work rdf:about="">
        <dc:format>image/svg+xml</dc:format>
        <dc:type rdf:resource="http://purl.org/dc/dcmitype/StillImage"/>
        <dc:title/>
      </cc:Work>
    </rdf:RDF>
  </metadata>
  <g inkscape:groupmode="layer" inkscape:label="tile-" transform="matrix(1.000000,0.000000,0.000000,1.000000,-727.075000,-47.625000)"><path style="display:inline;opacity:1;fill:#000000;fill-opacity:1;stroke:none;stroke-width:0.66666669;stroke-linecap:butt;stroke-linejoin:miter;stroke-miterlimit:47.14606857;stroke-dasharray:none;stroke-dashoffset:0;stroke-opacity:1;paint-order:markers fill stroke" d="M 2748 180 L 2748 252 L 2820 252 L 2820 180 L 2748 180 z M 2784 185.95703 A 30.02157 30.02157 0 0 1 2814.0215 215.97852 A 30.02157 30.02157 0 0 1 2784 246 A 30.02157 30.02157 0 0 1 2753.9785 215.97852 A 30.02157 30.02157 0 0 1 2784 185.95703 z M 2796.1016 201.26172 C 2793.2002 201.26172 2790.7064 202.18379 2788.6211 204.02734 C 2786.566 205.84069 2785.5391 208.10617 2785.5391 210.82617 C 2785.5391 213.33459 2786.4445 215.46586 2788.2578 217.21875 C 2790.1014 218.97164 2792.3541 219.84766 2795.0137 219.84766 C 2796.1621 219.84766 2797.5977 219.48511 2799.3203 218.75977 C 2797.779 222.74911 2794.1054 226.82934 2788.3027 231 L 2795.2852 231 C 2798.3678 228.88445 2800.8616 226.25443 2802.7656 223.11133 C 2804.7905 219.78688 2805.8027 216.40237 2805.8027 212.95703 C 2805.8027 209.93482 2805.0316 207.32145 2803.4902 205.11523 C 2801.6769 202.54634 2799.2145 201.26172 2796.1016 201.26172 z M 2762.6719 201.71484 L 2762.6719 206.42969 L 2774.7305 206.42969 L 2761.1758 231 L 2766.8887 231 L 2783.2988 201.71484 L 2762.6719 201.71484 z M 2795.7832 205.92969 C 2797.2943 205.92969 2798.5182 206.67147 2799.4551 208.15234 C 2800.2408 209.4519 2800.6641 211.00892 2800.7246 212.82227 C 2799.6668 213.72892 2798.7761 214.33253 2798.0508 214.63477 C 2797.2046 215.02766 2796.1923 215.22461 2795.0137 215.22461 C 2793.8652 215.22461 2792.8511 214.74057 2791.9746 213.77344 C 2791.0982 212.80633 2790.6602 211.68729 2790.6602 210.41797 C 2790.6602 209.11839 2791.1903 208.04543 2792.248 207.19922 C 2793.3058 206.35301 2794.4837 205.92969 2795.7832 205.92969 z " transform="scale(0.26458334)" id="rect2288" inkscape:label="80"/>
    </g></svg>
