<?xml version='1.0' encoding='UTF-8'?>
<!-- Created with Inkscape (http://www.inkscape.org/) and export_objects.py -->
<svg xmlns:cc="http://creativecommons.org/ns#" xmlns:dc="http://purl.org/dc/elements/1.1/" xmlns:inkscape="http://www.inkscape.org/namespaces/inkscape" xmlns:rdf="http://www.w3.org/1999/02/22-rdf-syntax-ns#" xmlns:sodipodi="http://sodipodi.sourceforge.net/DTD/sodipodi-0.dtd" xmlns:xlink="http://www.w3.org/1999/xlink" xmlns="http://www.w3.org/2000/svg" version="1.1" width="0.75in" height="0.75in" viewBox="0 0 19.05 19.05" id="svg8" inkscape:version="0.92.3 (2405546, 2018-03-11)" sodipodi:docname="tile-35.svg"><sodipodi:namedview id="base" pagecolor="#ffffff" bordercolor="#666666" borderopacity="1.0" inkscape:pageopacity="0.0" inkscape:pageshadow="2" inkscape:zoom="1.372378" inkscape:cx="4746.9979" inkscape:cy="477.45784" inkscape:document-units="in" inkscape:current-layer="layer3" showgrid="true" units="in" inkscape:snap-others="true" inkscape:snap-grids="true" inkscape:window-width="1280" inkscape:window-height="940" inkscape:window-x="1909" inkscape:window-y="43" inkscape:window-maximized="1" inkscape:snap-midpoints="false" inkscape:object-nodes="true" inkscape:snap-text-baseline="true" inkscape:snap-smooth-nodes="false" showguides="false" inkscape:snap-object-midpoints="true" inkscape:snap-center="true" inkscape:snap-to-guides="false" inkscape:snap-nodes="true" inkscape:snap-intersection-paths="false">
    <inkscape:grid type="xygrid" id="grid10" units="pt" spacingx="3.1750001" spacingy="3.1750001"/>
    <sodipodi:guide position="380.20625,103.1875" orientation="0,1" id="guide9455" inkscape:locked="false"/>
  </sodipodi:namedview>
  <metadata id="metadata5">
    <rdf:RDF>
      <cc:Work rdf:about="">
        <dc:format>image/svg+xml</dc:format>
        <dc:type rdf:resource="http://purl.org/dc/dcmitype/StillImage"/>
        <dc:title/>
      </cc:Work>
    </rdf:RDF>
  </metadata>
  <g inkscape:groupmode="layer" inkscape:label="tile-" transform="matrix(1.000000,0.000000,0.000000,1.000000,-860.425000,-69.850000)"><path style="display:inline;opacity:1;fill:#000000;fill-opacity:1;stroke:none;stroke-width:0.66666663;stroke-linecap:butt;stroke-linejoin:miter;stroke-miterlimit:47.14606857;stroke-dasharray:none;stroke-dashoffset:0;stroke-opacity:1;paint-order:markers fill stroke" d="M 3252 264 L 3252 336 L 3324 336 L 3324 264 L 3252 264 z M 3288 269.95703 A 30.02157 30.02157 0 0 1 3318.0215 299.97852 A 30.02157 30.02157 0 0 1 3288 330 A 30.02157 30.02157 0 0 1 3257.9785 299.97852 A 30.02157 30.02157 0 0 1 3288 269.95703 z M 3267.5586 285.71484 L 3267.5586 290.33789 L 3278.9375 290.33789 L 3272.998 300.58398 C 3275.6274 300.58398 3277.5783 300.96124 3278.8477 301.7168 C 3280.2983 302.59324 3281.0234 304.07482 3281.0234 306.16016 C 3281.0234 307.33882 3280.5854 308.33634 3279.709 309.15234 C 3278.8325 309.96834 3277.8203 310.375 3276.6719 310.375 C 3274.3145 310.375 3272.3636 308.89537 3270.8223 305.93359 L 3270.5508 305.93359 L 3267.1504 309.51367 C 3267.3922 310.66212 3268.2241 311.78114 3269.6445 312.86914 C 3270.7628 313.74559 3271.9406 314.39525 3273.1797 314.81836 C 3274.1468 315.1508 3275.1904 315.31641 3276.3086 315.31641 C 3279.1495 315.31641 3281.5825 314.45509 3283.6074 312.73242 C 3285.6323 310.97953 3286.6445 308.75814 3286.6445 306.06836 C 3286.6445 304.19458 3286.1458 302.42785 3285.1484 300.76562 C 3284.0907 298.92207 3282.6698 297.6835 3280.8867 297.04883 L 3287.3691 285.71484 L 3267.5586 285.71484 z M 3293.9688 285.71484 L 3292.0195 301.30859 C 3294.3768 300.61348 3296.0701 300.26562 3297.0977 300.26562 C 3298.6994 300.26562 3300.1036 300.74969 3301.3125 301.7168 C 3302.6423 302.77458 3303.3086 304.09055 3303.3086 305.66211 C 3303.3086 306.99189 3302.8392 308.15501 3301.9023 309.15234 C 3300.9957 310.11945 3299.9374 310.60156 3298.7285 310.60156 C 3296.7943 310.60156 3295.1324 309.40904 3293.7422 307.02148 L 3293.4707 307.02148 L 3290.3867 310.96484 C 3292.6232 313.92662 3295.2385 315.4082 3298.2305 315.4082 C 3301.2527 315.4082 3303.7759 314.48614 3305.8008 312.64258 C 3307.8257 310.7688 3308.8379 308.4112 3308.8379 305.57031 C 3308.8379 302.60853 3307.7963 300.20684 3305.7109 298.36328 C 3303.7163 296.64061 3301.1617 295.70384 3298.0488 295.55273 L 3298.6836 290.20312 L 3306.6621 290.20312 L 3308.8828 285.71484 L 3293.9688 285.71484 z " transform="scale(0.26458334)" id="rect1566" inkscape:label="35"/>
    </g></svg>
