<?xml version='1.0' encoding='UTF-8'?>
<!-- Created with Inkscape (http://www.inkscape.org/) and export_objects.py -->
<svg xmlns:cc="http://creativecommons.org/ns#" xmlns:dc="http://purl.org/dc/elements/1.1/" xmlns:inkscape="http://www.inkscape.org/namespaces/inkscape" xmlns:rdf="http://www.w3.org/1999/02/22-rdf-syntax-ns#" xmlns:sodipodi="http://sodipodi.sourceforge.net/DTD/sodipodi-0.dtd" xmlns:xlink="http://www.w3.org/1999/xlink" xmlns="http://www.w3.org/2000/svg" version="1.1" width="0.75in" height="0.75in" viewBox="0 0 19.05 19.05" id="svg8" inkscape:version="0.92.3 (2405546, 2018-03-11)" sodipodi:docname="tile-55.svg"><sodipodi:namedview id="base" pagecolor="#ffffff" bordercolor="#666666" borderopacity="1.0" inkscape:pageopacity="0.0" inkscape:pageshadow="2" inkscape:zoom="1.372378" inkscape:cx="4212.1852" inkscape:cy="477.45784" inkscape:document-units="in" inkscape:current-layer="layer3" showgrid="true" units="in" inkscape:snap-others="true" inkscape:snap-grids="true" inkscape:window-width="1280" inkscape:window-height="940" inkscape:window-x="1909" inkscape:window-y="43" inkscape:window-maximized="1" inkscape:snap-midpoints="false" inkscape:object-nodes="true" inkscape:snap-text-baseline="true" inkscape:snap-smooth-nodes="false" showguides="false" inkscape:snap-object-midpoints="true" inkscape:snap-center="true" inkscape:snap-to-guides="false" inkscape:snap-nodes="true" inkscape:snap-intersection-paths="false">
    <inkscape:grid type="xygrid" id="grid10" units="pt" spacingx="3.1750001" spacingy="3.1750001"/>
    <sodipodi:guide position="380.20625,103.1875" orientation="0,1" id="guide9455" inkscape:locked="false"/>
  </sodipodi:namedview>
  <metadata id="metadata5">
    <rdf:RDF>
      <cc:Work rdf:about="">
        <dc:format>image/svg+xml</dc:format>
        <dc:type rdf:resource="http://purl.org/dc/dcmitype/StillImage"/>
        <dc:title/>
      </cc:Work>
    </rdf:RDF>
  </metadata>
  <g inkscape:groupmode="layer" inkscape:label="tile-" transform="matrix(1.000000,0.000000,0.000000,1.000000,-193.675000,-47.625000)"><path style="display:inline;opacity:1;fill:#000000;fill-opacity:1;stroke:none;stroke-width:0.66666669;stroke-linecap:butt;stroke-linejoin:miter;stroke-miterlimit:47.14606857;stroke-dasharray:none;stroke-dashoffset:0;stroke-opacity:1;paint-order:markers fill stroke" d="M 732 180 L 732 252 L 804 252 L 804 180 L 732 180 z M 768 185.95703 A 30.02157 30.02157 0 0 1 798.02148 215.97852 A 30.02157 30.02157 0 0 1 768 246 A 30.02157 30.02157 0 0 1 737.97852 215.97852 A 30.02157 30.02157 0 0 1 768 185.95703 z M 751.125 201.71484 L 749.17578 217.30859 C 751.53312 216.61348 753.22635 216.26758 754.25391 216.26758 C 755.85567 216.26758 757.25986 216.74969 758.46875 217.7168 C 759.79854 218.77457 760.46484 220.09055 760.46484 221.66211 C 760.46484 222.99189 759.99549 224.15501 759.05859 225.15234 C 758.15194 226.11945 757.09366 226.60352 755.88477 226.60352 C 753.95053 226.60352 752.28865 225.40904 750.89844 223.02148 L 750.62695 223.02148 L 747.54492 226.96484 C 749.78137 229.92662 752.39472 231.4082 755.38672 231.4082 C 758.40893 231.4082 760.93214 230.48613 762.95703 228.64258 C 764.98193 226.7688 765.99414 224.4112 765.99414 221.57031 C 765.99414 218.60853 764.95253 216.20684 762.86719 214.36328 C 760.87253 212.64061 758.31797 211.70384 755.20508 211.55273 L 755.83984 206.20312 L 763.81836 206.20312 L 766.03906 201.71484 L 751.125 201.71484 z M 773.34961 201.71484 L 771.40039 217.30859 C 773.75773 216.61348 775.44901 216.26758 776.47656 216.26758 C 778.07833 216.26758 779.48446 216.74969 780.69336 217.7168 C 782.02315 218.77457 782.6875 220.09055 782.6875 221.66211 C 782.6875 222.99189 782.2201 224.15501 781.2832 225.15234 C 780.37654 226.11945 779.31827 226.60352 778.10938 226.60352 C 776.17514 226.60352 774.51326 225.40904 773.12305 223.02148 L 772.85156 223.02148 L 769.76758 226.96484 C 772.00403 229.92662 774.61933 231.4082 777.61133 231.4082 C 780.63354 231.4082 783.15675 230.48613 785.18164 228.64258 C 787.20654 226.7688 788.21875 224.4112 788.21875 221.57031 C 788.21875 218.60853 787.17519 216.20684 785.08984 214.36328 C 783.09519 212.64061 780.54258 211.70384 777.42969 211.55273 L 778.06445 206.20312 L 786.04297 206.20312 L 788.26367 201.71484 L 773.34961 201.71484 z " transform="scale(0.26458334)" id="rect2238" inkscape:label="55"/>
    </g></svg>
