<?xml version='1.0' encoding='UTF-8'?>
<!-- Created with Inkscape (http://www.inkscape.org/) and export_objects.py -->
<svg xmlns:cc="http://creativecommons.org/ns#" xmlns:dc="http://purl.org/dc/elements/1.1/" xmlns:inkscape="http://www.inkscape.org/namespaces/inkscape" xmlns:rdf="http://www.w3.org/1999/02/22-rdf-syntax-ns#" xmlns:sodipodi="http://sodipodi.sourceforge.net/DTD/sodipodi-0.dtd" xmlns:xlink="http://www.w3.org/1999/xlink" xmlns="http://www.w3.org/2000/svg" version="1.1" width="0.75in" height="0.75in" viewBox="0 0 19.05 19.05" id="svg8" inkscape:version="0.92.3 (2405546, 2018-03-11)" sodipodi:docname="tile-20.svg"><sodipodi:namedview id="base" pagecolor="#ffffff" bordercolor="#666666" borderopacity="1.0" inkscape:pageopacity="0.0" inkscape:pageshadow="2" inkscape:zoom="1.372378" inkscape:cx="4746.9979" inkscape:cy="477.45784" inkscape:document-units="in" inkscape:current-layer="layer3" showgrid="true" units="in" inkscape:snap-others="true" inkscape:snap-grids="true" inkscape:window-width="1280" inkscape:window-height="940" inkscape:window-x="1909" inkscape:window-y="43" inkscape:window-maximized="1" inkscape:snap-midpoints="false" inkscape:object-nodes="true" inkscape:snap-text-baseline="true" inkscape:snap-smooth-nodes="false" showguides="false" inkscape:snap-object-midpoints="true" inkscape:snap-center="true" inkscape:snap-to-guides="false" inkscape:snap-nodes="true" inkscape:snap-intersection-paths="false">
    <inkscape:grid type="xygrid" id="grid10" units="pt" spacingx="3.1750001" spacingy="3.1750001"/>
    <sodipodi:guide position="380.20625,103.1875" orientation="0,1" id="guide9455" inkscape:locked="false"/>
  </sodipodi:namedview>
  <metadata id="metadata5">
    <rdf:RDF>
      <cc:Work rdf:about="">
        <dc:format>image/svg+xml</dc:format>
        <dc:type rdf:resource="http://purl.org/dc/dcmitype/StillImage"/>
        <dc:title/>
      </cc:Work>
    </rdf:RDF>
  </metadata>
  <g inkscape:groupmode="layer" inkscape:label="tile-" transform="matrix(1.000000,0.000000,0.000000,1.000000,-527.050000,-69.850000)"><path style="display:inline;opacity:1;fill:#000000;fill-opacity:1;stroke:none;stroke-width:0.66666663;stroke-linecap:butt;stroke-linejoin:miter;stroke-miterlimit:47.14606857;stroke-dasharray:none;stroke-dashoffset:0;stroke-opacity:1;paint-order:markers fill stroke" d="M 1992 264 L 1992 336 L 2064 336 L 2064 264 L 1992 264 z M 2028 269.95703 A 30.02157 30.02157 0 0 1 2058.0215 299.97852 A 30.02157 30.02157 0 0 1 2028 330 A 30.02157 30.02157 0 0 1 1997.9785 299.97852 A 30.02157 30.02157 0 0 1 2028 269.95703 z M 2015.8223 285.03516 C 2013.0418 285.03516 2010.2315 286.09343 2007.3906 288.20898 L 2007.3906 295.32617 L 2007.6172 295.32617 C 2010.2465 291.75995 2012.9814 289.97656 2015.8223 289.97656 C 2016.7592 289.97656 2017.5911 290.26367 2018.3164 290.83789 C 2019.072 291.41211 2019.4492 292.15193 2019.4492 293.05859 C 2019.4492 293.7537 2019.2523 294.66107 2018.8594 295.7793 C 2018.4665 296.8673 2018.0598 297.74331 2017.6367 298.4082 L 2006.8477 315 L 2026.1133 315 L 2026.1133 310.60352 L 2015.9141 310.60352 C 2017.7879 307.88352 2019.6614 305.14671 2021.5352 302.39648 C 2023.8623 298.76982 2025.0254 295.80861 2025.0254 293.51172 C 2025.0254 290.82194 2024.1935 288.73675 2022.5312 287.25586 C 2020.8993 285.77497 2018.6632 285.03516 2015.8223 285.03516 z M 2039.7344 285.39648 C 2036.3192 285.39648 2033.7059 287.19652 2031.8926 290.79297 C 2030.5023 293.57341 2029.8066 296.74628 2029.8066 300.3125 C 2029.8066 303.87872 2030.5023 307.05159 2031.8926 309.83203 C 2033.7059 313.42848 2036.3192 315.22656 2039.7344 315.22656 C 2043.1797 315.22656 2045.8097 313.42848 2047.623 309.83203 C 2049.0133 307.05159 2049.709 303.87872 2049.709 300.3125 C 2049.709 296.71606 2049.0133 293.52654 2047.623 290.74609 C 2045.8399 287.17987 2043.2099 285.39648 2039.7344 285.39648 z M 2039.8262 289.97656 C 2041.5186 289.97656 2042.8032 291.33664 2043.6797 294.05664 C 2044.3144 296.02109 2044.6309 298.10628 2044.6309 300.3125 C 2044.6309 302.57917 2044.3291 304.66436 2043.7246 306.56836 C 2042.8784 309.25814 2041.5791 310.60352 2039.8262 310.60352 C 2038.1035 310.60352 2036.8189 309.25814 2035.9727 306.56836 C 2035.3682 304.66436 2035.0664 302.57917 2035.0664 300.3125 C 2035.0664 298.92228 2035.2026 297.5475 2035.4746 296.1875 C 2035.7768 294.64617 2036.2756 293.30079 2036.9707 292.15234 C 2037.8169 290.70168 2038.7684 289.97656 2039.8262 289.97656 z " transform="scale(0.26458334)" id="rect1416" inkscape:label="20"/>
    </g></svg>
