<?xml version='1.0' encoding='UTF-8'?>
<!-- Created with Inkscape (http://www.inkscape.org/) and export_objects.py -->
<svg xmlns:cc="http://creativecommons.org/ns#" xmlns:dc="http://purl.org/dc/elements/1.1/" xmlns:inkscape="http://www.inkscape.org/namespaces/inkscape" xmlns:rdf="http://www.w3.org/1999/02/22-rdf-syntax-ns#" xmlns:sodipodi="http://sodipodi.sourceforge.net/DTD/sodipodi-0.dtd" xmlns:xlink="http://www.w3.org/1999/xlink" xmlns="http://www.w3.org/2000/svg" version="1.1" width="0.75in" height="0.75in" viewBox="0 0 19.05 19.05" id="svg8" inkscape:version="0.92.3 (2405546, 2018-03-11)" sodipodi:docname="tile-90.svg"><sodipodi:namedview id="base" pagecolor="#ffffff" bordercolor="#666666" borderopacity="1.0" inkscape:pageopacity="0.0" inkscape:pageshadow="2" inkscape:zoom="1.372378" inkscape:cx="4212.1852" inkscape:cy="477.45784" inkscape:document-units="in" inkscape:current-layer="layer3" showgrid="true" units="in" inkscape:snap-others="true" inkscape:snap-grids="true" inkscape:window-width="1280" inkscape:window-height="940" inkscape:window-x="1909" inkscape:window-y="43" inkscape:window-maximized="1" inkscape:snap-midpoints="false" inkscape:object-nodes="true" inkscape:snap-text-baseline="true" inkscape:snap-smooth-nodes="false" showguides="false" inkscape:snap-object-midpoints="true" inkscape:snap-center="true" inkscape:snap-to-guides="false" inkscape:snap-nodes="true" inkscape:snap-intersection-paths="false">
    <inkscape:grid type="xygrid" id="grid10" units="pt" spacingx="3.1750001" spacingy="3.1750001"/>
    <sodipodi:guide position="380.20625,103.1875" orientation="0,1" id="guide9455" inkscape:locked="false"/>
  </sodipodi:namedview>
  <metadata id="metadata5">
    <rdf:RDF>
      <cc:Work rdf:about="">
        <dc:format>image/svg+xml</dc:format>
        <dc:type rdf:resource="http://purl.org/dc/dcmitype/StillImage"/>
        <dc:title/>
      </cc:Work>
    </rdf:RDF>
  </metadata>
  <g inkscape:groupmode="layer" inkscape:label="tile-" transform="matrix(1.000000,0.000000,0.000000,1.000000,-971.550000,-47.625000)"><path style="display:inline;opacity:1;fill:#000000;fill-opacity:1;stroke:none;stroke-width:0.66666669;stroke-linecap:butt;stroke-linejoin:miter;stroke-miterlimit:47.14606857;stroke-dasharray:none;stroke-dashoffset:0;stroke-opacity:1;paint-order:markers fill stroke" d="M 3672 180 L 3672 252 L 3744 252 L 3744 180 L 3672 180 z M 3708 185.95703 A 30.02157 30.02157 0 0 1 3738.0215 215.97852 A 30.02157 30.02157 0 0 1 3708 246 A 30.02157 30.02157 0 0 1 3677.9785 215.97852 A 30.02157 30.02157 0 0 1 3708 185.95703 z M 3696.6367 201.26172 C 3693.7354 201.26172 3691.2435 202.18379 3689.1582 204.02734 C 3687.1031 205.84069 3686.0742 208.10617 3686.0742 210.82617 C 3686.0742 213.33462 3686.9816 215.46586 3688.7949 217.21875 C 3690.6385 218.97162 3692.8893 219.84766 3695.5488 219.84766 C 3696.6973 219.84766 3698.1328 219.48508 3699.8555 218.75977 C 3698.3142 222.74908 3694.6425 226.82932 3688.8398 231 L 3695.8223 231 C 3698.9049 228.88445 3701.3968 226.25446 3703.3008 223.11133 C 3705.3257 219.78691 3706.3379 216.40237 3706.3379 212.95703 C 3706.3379 209.9348 3705.5687 207.32145 3704.0273 205.11523 C 3702.214 202.54634 3699.7496 201.26172 3696.6367 201.26172 z M 3719.6914 201.39648 C 3716.2763 201.39648 3713.661 203.19652 3711.8477 206.79297 C 3710.4574 209.57342 3709.7617 212.74626 3709.7617 216.3125 C 3709.7617 219.87871 3710.4574 223.05158 3711.8477 225.83203 C 3713.661 229.42848 3716.2763 231.22656 3719.6914 231.22656 C 3723.1367 231.22656 3725.7648 229.42848 3727.5781 225.83203 C 3728.9684 223.05158 3729.6641 219.87871 3729.6641 216.3125 C 3729.6641 212.71605 3728.9684 209.52654 3727.5781 206.74609 C 3725.795 203.17986 3723.167 201.39648 3719.6914 201.39648 z M 3696.3203 205.93164 C 3697.8314 205.93164 3699.0553 206.67145 3699.9922 208.15234 C 3700.7779 209.4519 3701.2012 211.00895 3701.2617 212.82227 C 3700.2039 213.72895 3699.3113 214.33255 3698.5859 214.63477 C 3697.7397 215.02766 3696.7275 215.22461 3695.5488 215.22461 C 3694.4004 215.22461 3693.3882 214.74054 3692.5117 213.77344 C 3691.6353 212.80633 3691.1973 211.68731 3691.1973 210.41797 C 3691.1973 209.11842 3691.7254 208.04545 3692.7832 207.19922 C 3693.841 206.35301 3695.0207 205.93164 3696.3203 205.93164 z M 3719.7812 205.97656 C 3721.4737 205.97656 3722.7583 207.33664 3723.6348 210.05664 C 3724.2694 212.02109 3724.5859 214.10626 3724.5859 216.3125 C 3724.5859 218.57916 3724.2841 220.66436 3723.6797 222.56836 C 3722.8335 225.25815 3721.5341 226.60352 3719.7812 226.60352 C 3718.0586 226.60352 3716.7739 225.25815 3715.9277 222.56836 C 3715.3233 220.66436 3715.0215 218.57916 3715.0215 216.3125 C 3715.0215 214.92226 3715.1577 213.5475 3715.4297 212.1875 C 3715.7319 210.64618 3716.2307 209.30079 3716.9258 208.15234 C 3717.772 206.70166 3718.7235 205.97656 3719.7812 205.97656 z " transform="scale(0.26458334)" id="rect2308" inkscape:label="90"/>
    </g></svg>
