<?xml version='1.0' encoding='UTF-8'?>
<!-- Created with Inkscape (http://www.inkscape.org/) and export_objects.py -->
<svg xmlns:cc="http://creativecommons.org/ns#" xmlns:dc="http://purl.org/dc/elements/1.1/" xmlns:inkscape="http://www.inkscape.org/namespaces/inkscape" xmlns:rdf="http://www.w3.org/1999/02/22-rdf-syntax-ns#" xmlns:sodipodi="http://sodipodi.sourceforge.net/DTD/sodipodi-0.dtd" xmlns:xlink="http://www.w3.org/1999/xlink" xmlns="http://www.w3.org/2000/svg" version="1.1" width="0.75in" height="0.75in" viewBox="0 0 19.05 19.05" id="svg8" inkscape:version="0.92.3 (2405546, 2018-03-11)" sodipodi:docname="tile-96.svg"><sodipodi:namedview id="base" pagecolor="#ffffff" bordercolor="#666666" borderopacity="1.0" inkscape:pageopacity="0.0" inkscape:pageshadow="2" inkscape:zoom="1.372378" inkscape:cx="4212.1852" inkscape:cy="477.45784" inkscape:document-units="in" inkscape:current-layer="layer3" showgrid="true" units="in" inkscape:snap-others="true" inkscape:snap-grids="true" inkscape:window-width="1280" inkscape:window-height="940" inkscape:window-x="1909" inkscape:window-y="43" inkscape:window-maximized="1" inkscape:snap-midpoints="false" inkscape:object-nodes="true" inkscape:snap-text-baseline="true" inkscape:snap-smooth-nodes="false" showguides="false" inkscape:snap-object-midpoints="true" inkscape:snap-center="true" inkscape:snap-to-guides="false" inkscape:snap-nodes="true" inkscape:snap-intersection-paths="false">
    <inkscape:grid type="xygrid" id="grid10" units="pt" spacingx="3.1750001" spacingy="3.1750001"/>
    <sodipodi:guide position="380.20625,103.1875" orientation="0,1" id="guide9455" inkscape:locked="false"/>
  </sodipodi:namedview>
  <metadata id="metadata5">
    <rdf:RDF>
      <cc:Work rdf:about="">
        <dc:format>image/svg+xml</dc:format>
        <dc:type rdf:resource="http://purl.org/dc/dcmitype/StillImage"/>
        <dc:title/>
      </cc:Work>
    </rdf:RDF>
  </metadata>
  <g inkscape:groupmode="layer" inkscape:label="tile-" transform="matrix(1.000000,0.000000,0.000000,1.000000,-1104.900000,-47.625000)"><path style="display:inline;opacity:1;fill:#000000;fill-opacity:1;stroke:none;stroke-width:0.66666669;stroke-linecap:butt;stroke-linejoin:miter;stroke-miterlimit:47.14606857;stroke-dasharray:none;stroke-dashoffset:0;stroke-opacity:1;paint-order:markers fill stroke" d="M 4176 180 L 4176 252 L 4248 252 L 4248 180 L 4176 180 z M 4212 185.95703 A 30.02157 30.02157 0 0 1 4242.0215 215.97852 A 30.02157 30.02157 0 0 1 4212 246 A 30.02157 30.02157 0 0 1 4181.9785 215.97852 A 30.02157 30.02157 0 0 1 4212 185.95703 z M 4200.6367 201.26172 C 4197.7356 201.26172 4195.2435 202.18379 4193.1582 204.02734 C 4191.1029 205.84069 4190.0742 208.10617 4190.0742 210.82617 C 4190.0742 213.33462 4190.9815 215.46586 4192.7949 217.21875 C 4194.6386 218.97162 4196.8893 219.84766 4199.5488 219.84766 C 4200.6973 219.84766 4202.133 219.48508 4203.8555 218.75977 C 4202.3142 222.74911 4198.6424 226.82934 4192.8398 231 L 4199.8203 231 C 4202.9031 228.88445 4205.3969 226.25443 4207.3008 223.11133 C 4209.3259 219.78688 4210.3379 216.40237 4210.3379 212.95703 C 4210.3379 209.9348 4209.5689 207.32145 4208.0273 205.11523 C 4206.2142 202.54634 4203.7498 201.26172 4200.6367 201.26172 z M 4223.3281 201.66992 C 4220.5177 203.63437 4218.1747 206.36921 4216.3008 209.875 C 4214.4571 213.38076 4213.5352 216.79469 4213.5352 220.11914 C 4213.5352 223.23204 4214.3964 225.84734 4216.1191 227.96289 C 4217.993 230.29 4220.5622 231.45312 4223.8262 231.45312 C 4226.6971 231.45313 4229.1008 230.54574 4231.0352 228.73242 C 4232.9995 226.88887 4233.9805 224.60867 4233.9805 221.88867 C 4233.9805 219.38022 4233.0896 217.2343 4231.3066 215.45117 C 4229.5235 213.63786 4227.3021 212.73047 4224.6426 212.73047 C 4222.9501 212.73047 4221.4393 213.03227 4220.1094 213.63672 C 4222.5273 208.01538 4226.094 204.02726 4230.8086 201.66992 L 4223.3281 201.66992 z M 4200.3203 205.92969 C 4201.8314 205.92969 4203.0554 206.67145 4203.9922 208.15234 C 4204.7781 209.4519 4205.2012 211.00697 4205.2617 212.82031 C 4204.204 213.72697 4203.3114 214.33255 4202.5859 214.63477 C 4201.7398 215.02766 4200.7275 215.22461 4199.5488 215.22461 C 4198.4004 215.22461 4197.3883 214.74054 4196.5117 213.77344 C 4195.6354 212.80633 4195.1973 211.68731 4195.1973 210.41797 C 4195.1973 209.11842 4195.7254 208.04545 4196.7832 207.19922 C 4197.841 206.35301 4199.0207 205.92969 4200.3203 205.92969 z M 4224.2793 217.49023 C 4225.4278 217.49023 4226.4401 217.97428 4227.3164 218.94141 C 4228.193 219.87828 4228.6328 220.96595 4228.6328 222.20508 C 4228.6328 223.47439 4228.193 224.56207 4227.3164 225.46875 C 4226.4703 226.3452 4225.458 226.7832 4224.2793 226.7832 C 4222.859 226.7832 4221.6056 226.3158 4220.5176 225.37891 C 4219.4296 224.4118 4218.8848 223.20264 4218.8848 221.75195 C 4218.8848 220.60351 4219.0358 219.83235 4219.3379 219.43945 C 4220.3654 218.1399 4222.0126 217.49023 4224.2793 217.49023 z " transform="scale(0.26458334)" id="rect2320" inkscape:label="96"/>
    </g></svg>
