<?xml version='1.0' encoding='UTF-8'?>
<!-- Created with Inkscape (http://www.inkscape.org/) and export_objects.py -->
<svg xmlns:cc="http://creativecommons.org/ns#" xmlns:dc="http://purl.org/dc/elements/1.1/" xmlns:inkscape="http://www.inkscape.org/namespaces/inkscape" xmlns:rdf="http://www.w3.org/1999/02/22-rdf-syntax-ns#" xmlns:sodipodi="http://sodipodi.sourceforge.net/DTD/sodipodi-0.dtd" xmlns:xlink="http://www.w3.org/1999/xlink" xmlns="http://www.w3.org/2000/svg" version="1.1" width="0.75in" height="0.75in" viewBox="0 0 19.05 19.05" id="svg8" inkscape:version="0.92.3 (2405546, 2018-03-11)" sodipodi:docname="tile-68.svg"><sodipodi:namedview id="base" pagecolor="#ffffff" bordercolor="#666666" borderopacity="1.0" inkscape:pageopacity="0.0" inkscape:pageshadow="2" inkscape:zoom="1.372378" inkscape:cx="4212.1852" inkscape:cy="477.45784" inkscape:document-units="in" inkscape:current-layer="layer3" showgrid="true" units="in" inkscape:snap-others="true" inkscape:snap-grids="true" inkscape:window-width="1280" inkscape:window-height="940" inkscape:window-x="1909" inkscape:window-y="43" inkscape:window-maximized="1" inkscape:snap-midpoints="false" inkscape:object-nodes="true" inkscape:snap-text-baseline="true" inkscape:snap-smooth-nodes="false" showguides="false" inkscape:snap-object-midpoints="true" inkscape:snap-center="true" inkscape:snap-to-guides="false" inkscape:snap-nodes="true" inkscape:snap-intersection-paths="false">
    <inkscape:grid type="xygrid" id="grid10" units="pt" spacingx="3.1750001" spacingy="3.1750001"/>
    <sodipodi:guide position="380.20625,103.1875" orientation="0,1" id="guide9455" inkscape:locked="false"/>
  </sodipodi:namedview>
  <metadata id="metadata5">
    <rdf:RDF>
      <cc:Work rdf:about="">
        <dc:format>image/svg+xml</dc:format>
        <dc:type rdf:resource="http://purl.org/dc/dcmitype/StillImage"/>
        <dc:title/>
      </cc:Work>
    </rdf:RDF>
  </metadata>
  <g inkscape:groupmode="layer" inkscape:label="tile-" transform="matrix(1.000000,0.000000,0.000000,1.000000,-482.600000,-47.625000)"><path style="display:inline;opacity:1;fill:#000000;fill-opacity:1;stroke:none;stroke-width:0.66666669;stroke-linecap:butt;stroke-linejoin:miter;stroke-miterlimit:47.14606857;stroke-dasharray:none;stroke-dashoffset:0;stroke-opacity:1;paint-order:markers fill stroke" d="M 1824 180 L 1824 252 L 1896 252 L 1896 180 L 1824 180 z M 1860 185.95703 A 30.02157 30.02157 0 0 1 1890.0215 215.97852 A 30.02157 30.02157 0 0 1 1860 246 A 30.02157 30.02157 0 0 1 1829.9785 215.97852 A 30.02157 30.02157 0 0 1 1860 185.95703 z M 1871.5332 201.35156 C 1869.2968 201.35156 1867.4232 201.92577 1865.9121 203.07422 C 1864.2801 204.31333 1863.4648 205.97522 1863.4648 208.06055 C 1863.4648 210.56899 1864.6574 212.80704 1867.0449 214.77148 C 1863.8111 217.00793 1862.1953 219.74278 1862.1953 222.97656 C 1862.1953 225.6059 1863.0419 227.67639 1864.7344 229.1875 C 1866.4571 230.66839 1868.7078 231.4082 1871.4883 231.4082 C 1874.0269 231.4082 1876.217 230.50083 1878.0605 228.6875 C 1879.9041 226.87417 1880.8262 224.77427 1880.8262 222.38672 C 1880.8262 219.48538 1879.1956 216.97688 1875.9316 214.86133 C 1878.2285 212.92711 1879.377 210.69101 1879.377 208.15234 C 1879.377 206.06701 1878.6205 204.38847 1877.1094 203.11914 C 1875.6285 201.94047 1873.7697 201.35156 1871.5332 201.35156 z M 1849.1035 201.66992 C 1846.2929 203.63436 1843.9519 206.36922 1842.0781 209.875 C 1840.2346 213.38078 1839.3125 216.7947 1839.3125 220.11914 C 1839.3125 223.23203 1840.1738 225.84734 1841.8965 227.96289 C 1843.7703 230.29 1846.3395 231.45312 1849.6035 231.45312 C 1852.4746 231.45312 1854.8763 230.54575 1856.8105 228.73242 C 1858.775 226.88886 1859.7578 224.60867 1859.7578 221.88867 C 1859.7578 219.38023 1858.8651 217.23428 1857.082 215.45117 C 1855.2989 213.63784 1853.0775 212.73047 1850.418 212.73047 C 1848.7255 212.73047 1847.2146 213.03227 1845.8848 213.63672 C 1848.3026 208.01538 1851.8693 204.02725 1856.584 201.66992 L 1849.1035 201.66992 z M 1871.5332 205.20508 C 1872.2283 205.20508 1872.8927 205.50688 1873.5273 206.11133 C 1874.162 206.71577 1874.4805 207.41149 1874.4805 208.19727 C 1874.4805 209.64793 1873.5124 211.05406 1871.5781 212.41406 C 1869.523 211.05406 1868.4961 209.52643 1868.4961 207.83398 C 1868.4961 207.04821 1868.8292 206.39854 1869.4941 205.88477 C 1870.0684 205.43143 1870.7474 205.20508 1871.5332 205.20508 z M 1850.0566 217.49023 C 1851.2051 217.49023 1852.2173 217.9743 1853.0938 218.94141 C 1853.9702 219.8783 1854.4082 220.96597 1854.4082 222.20508 C 1854.4082 223.47441 1853.9702 224.56208 1853.0938 225.46875 C 1852.2475 226.34519 1851.2353 226.7832 1850.0566 226.7832 C 1848.6362 226.7832 1847.381 226.31579 1846.293 225.37891 C 1845.205 224.41179 1844.6621 223.20262 1844.6621 221.75195 C 1844.6621 220.60351 1844.813 219.83234 1845.1152 219.43945 C 1846.1428 218.1399 1847.79 217.49023 1850.0566 217.49023 z M 1871.2168 217.53516 C 1874.2692 219.34849 1875.7949 220.95157 1875.7949 222.3418 C 1875.7949 223.49024 1875.3256 224.51716 1874.3887 225.42383 C 1873.4518 226.33049 1872.4542 226.7832 1871.3965 226.7832 C 1870.3689 226.7832 1869.4174 226.39125 1868.541 225.60547 C 1867.6948 224.78947 1867.2715 223.838 1867.2715 222.75 C 1867.2715 220.93667 1868.5875 219.19738 1871.2168 217.53516 z " transform="scale(0.26458334)" id="rect2264" inkscape:label="68"/>
    </g></svg>
