<?xml version='1.0' encoding='UTF-8'?>
<!-- Created with Inkscape (http://www.inkscape.org/) and export_objects.py -->
<svg xmlns:cc="http://creativecommons.org/ns#" xmlns:dc="http://purl.org/dc/elements/1.1/" xmlns:inkscape="http://www.inkscape.org/namespaces/inkscape" xmlns:rdf="http://www.w3.org/1999/02/22-rdf-syntax-ns#" xmlns:sodipodi="http://sodipodi.sourceforge.net/DTD/sodipodi-0.dtd" xmlns:xlink="http://www.w3.org/1999/xlink" xmlns="http://www.w3.org/2000/svg" version="1.1" width="0.75in" height="0.75in" viewBox="0 0 19.05 19.05" id="svg8" inkscape:version="0.92.3 (2405546, 2018-03-11)" sodipodi:docname="tile-39.svg"><sodipodi:namedview id="base" pagecolor="#ffffff" bordercolor="#666666" borderopacity="1.0" inkscape:pageopacity="0.0" inkscape:pageshadow="2" inkscape:zoom="1.372378" inkscape:cx="4746.9979" inkscape:cy="477.45784" inkscape:document-units="in" inkscape:current-layer="layer3" showgrid="true" units="in" inkscape:snap-others="true" inkscape:snap-grids="true" inkscape:window-width="1280" inkscape:window-height="940" inkscape:window-x="1909" inkscape:window-y="43" inkscape:window-maximized="1" inkscape:snap-midpoints="false" inkscape:object-nodes="true" inkscape:snap-text-baseline="true" inkscape:snap-smooth-nodes="false" showguides="false" inkscape:snap-object-midpoints="true" inkscape:snap-center="true" inkscape:snap-to-guides="false" inkscape:snap-nodes="true" inkscape:snap-intersection-paths="false">
    <inkscape:grid type="xygrid" id="grid10" units="pt" spacingx="3.1750001" spacingy="3.1750001"/>
    <sodipodi:guide position="380.20625,103.1875" orientation="0,1" id="guide9455" inkscape:locked="false"/>
  </sodipodi:namedview>
  <metadata id="metadata5">
    <rdf:RDF>
      <cc:Work rdf:about="">
        <dc:format>image/svg+xml</dc:format>
        <dc:type rdf:resource="http://purl.org/dc/dcmitype/StillImage"/>
        <dc:title/>
      </cc:Work>
    </rdf:RDF>
  </metadata>
  <g inkscape:groupmode="layer" inkscape:label="tile-" transform="matrix(1.000000,0.000000,0.000000,1.000000,-949.325000,-69.850000)"><path style="display:inline;opacity:1;fill:#000000;fill-opacity:1;stroke:none;stroke-width:0.66666663;stroke-linecap:butt;stroke-linejoin:miter;stroke-miterlimit:47.14606857;stroke-dasharray:none;stroke-dashoffset:0;stroke-opacity:1;paint-order:markers fill stroke" d="M 3588 264 L 3588 336 L 3660 336 L 3660 264 L 3588 264 z M 3624 269.95703 A 30.02157 30.02157 0 0 1 3654.0215 299.97852 A 30.02157 30.02157 0 0 1 3624 330 A 30.02157 30.02157 0 0 1 3593.9785 299.97852 A 30.02157 30.02157 0 0 1 3624 269.95703 z M 3635.9238 285.26172 C 3633.0225 285.26172 3630.5287 286.18379 3628.4434 288.02734 C 3626.3883 289.84068 3625.3613 292.10617 3625.3613 294.82617 C 3625.3613 297.33462 3626.2668 299.46586 3628.0801 301.21875 C 3629.9237 302.97164 3632.1764 303.84766 3634.8359 303.84766 C 3635.9844 303.84766 3637.4199 303.4851 3639.1426 302.75977 C 3637.6012 306.7491 3633.9296 310.82933 3628.127 315 L 3635.1074 315 C 3638.1901 312.88444 3640.6839 310.25444 3642.5879 307.11133 C 3644.6128 303.78688 3645.625 300.40237 3645.625 296.95703 C 3645.625 293.93481 3644.8538 291.32146 3643.3125 289.11523 C 3641.4992 286.54635 3639.0367 285.26172 3635.9238 285.26172 z M 3602.8945 285.71484 L 3602.8945 290.33789 L 3614.2734 290.33789 L 3608.334 300.58398 C 3610.9633 300.58398 3612.9143 300.96124 3614.1836 301.7168 C 3615.6343 302.59324 3616.3594 304.07482 3616.3594 306.16016 C 3616.3594 307.33882 3615.9214 308.33634 3615.0449 309.15234 C 3614.1685 309.96834 3613.1563 310.375 3612.0078 310.375 C 3609.6505 310.375 3607.6995 308.89537 3606.1582 305.93359 L 3605.8867 305.93359 L 3602.4863 309.51367 C 3602.7281 310.66211 3603.56 311.78114 3604.9805 312.86914 C 3606.0987 313.74559 3607.2765 314.39525 3608.5156 314.81836 C 3609.4828 315.1508 3610.5263 315.31641 3611.6445 315.31641 C 3614.4854 315.31641 3616.9185 314.45509 3618.9434 312.73242 C 3620.9682 310.97953 3621.9805 308.75814 3621.9805 306.06836 C 3621.9805 304.19458 3621.4817 302.42785 3620.4844 300.76562 C 3619.4266 298.92207 3618.0058 297.68154 3616.2227 297.04688 L 3622.7051 285.71484 L 3602.8945 285.71484 z M 3635.6055 289.92969 C 3637.1166 289.92969 3638.3404 290.67145 3639.2773 292.15234 C 3640.0631 293.4519 3640.4864 295.00698 3640.5469 296.82031 C 3639.4891 297.72698 3638.5984 298.33254 3637.873 298.63477 C 3637.0268 299.02766 3636.0146 299.22461 3634.8359 299.22461 C 3633.6875 299.22461 3632.6753 298.74055 3631.7988 297.77344 C 3630.9224 296.80633 3630.4844 295.6873 3630.4844 294.41797 C 3630.4844 293.11841 3631.0125 292.04544 3632.0703 291.19922 C 3633.1281 290.353 3634.3059 289.92969 3635.6055 289.92969 z " transform="scale(0.26458334)" id="rect1574" inkscape:label="39"/>
    </g></svg>
