<?xml version='1.0' encoding='UTF-8'?>
<!-- Created with Inkscape (http://www.inkscape.org/) and export_objects.py -->
<svg xmlns:cc="http://creativecommons.org/ns#" xmlns:dc="http://purl.org/dc/elements/1.1/" xmlns:inkscape="http://www.inkscape.org/namespaces/inkscape" xmlns:rdf="http://www.w3.org/1999/02/22-rdf-syntax-ns#" xmlns:sodipodi="http://sodipodi.sourceforge.net/DTD/sodipodi-0.dtd" xmlns:xlink="http://www.w3.org/1999/xlink" xmlns="http://www.w3.org/2000/svg" version="1.1" width="0.75in" height="0.75in" viewBox="0 0 19.05 19.05" id="svg8" inkscape:version="0.92.3 (2405546, 2018-03-11)" sodipodi:docname="tile-57.svg"><sodipodi:namedview id="base" pagecolor="#ffffff" bordercolor="#666666" borderopacity="1.0" inkscape:pageopacity="0.0" inkscape:pageshadow="2" inkscape:zoom="1.372378" inkscape:cx="4212.1852" inkscape:cy="477.45784" inkscape:document-units="in" inkscape:current-layer="layer3" showgrid="true" units="in" inkscape:snap-others="true" inkscape:snap-grids="true" inkscape:window-width="1280" inkscape:window-height="940" inkscape:window-x="1909" inkscape:window-y="43" inkscape:window-maximized="1" inkscape:snap-midpoints="false" inkscape:object-nodes="true" inkscape:snap-text-baseline="true" inkscape:snap-smooth-nodes="false" showguides="false" inkscape:snap-object-midpoints="true" inkscape:snap-center="true" inkscape:snap-to-guides="false" inkscape:snap-nodes="true" inkscape:snap-intersection-paths="false">
    <inkscape:grid type="xygrid" id="grid10" units="pt" spacingx="3.1750001" spacingy="3.1750001"/>
    <sodipodi:guide position="380.20625,103.1875" orientation="0,1" id="guide9455" inkscape:locked="false"/>
  </sodipodi:namedview>
  <metadata id="metadata5">
    <rdf:RDF>
      <cc:Work rdf:about="">
        <dc:format>image/svg+xml</dc:format>
        <dc:type rdf:resource="http://purl.org/dc/dcmitype/StillImage"/>
        <dc:title/>
      </cc:Work>
    </rdf:RDF>
  </metadata>
  <g inkscape:groupmode="layer" inkscape:label="tile-" transform="matrix(1.000000,0.000000,0.000000,1.000000,-238.125000,-47.625000)"><path style="display:inline;opacity:1;fill:#000000;fill-opacity:1;stroke:none;stroke-width:0.66666669;stroke-linecap:butt;stroke-linejoin:miter;stroke-miterlimit:47.14606857;stroke-dasharray:none;stroke-dashoffset:0;stroke-opacity:1;paint-order:markers fill stroke" d="M 900 180 L 900 252 L 972 252 L 972 180 L 900 180 z M 936 185.95703 A 30.02157 30.02157 0 0 1 966.02148 215.97852 A 30.02157 30.02157 0 0 1 936 246 A 30.02157 30.02157 0 0 1 905.97852 215.97852 A 30.02157 30.02157 0 0 1 936 185.95703 z M 918.32812 201.71484 L 916.37891 217.30859 C 918.73625 216.61348 920.42948 216.26758 921.45703 216.26758 C 923.05882 216.26758 924.46301 216.74969 925.67188 217.7168 C 927.00166 218.77457 927.66797 220.09055 927.66797 221.66211 C 927.66797 222.99189 927.19861 224.15501 926.26172 225.15234 C 925.35506 226.11945 924.29679 226.60352 923.08789 226.60352 C 921.15368 226.60352 919.4918 225.40904 918.10156 223.02148 L 917.83008 223.02148 L 914.74805 226.96484 C 916.98449 229.92662 919.59784 231.4082 922.58984 231.4082 C 925.61208 231.4082 928.13529 230.48613 930.16016 228.64258 C 932.18505 226.7688 933.19727 224.4112 933.19727 221.57031 C 933.19727 218.60853 932.15565 216.20684 930.07031 214.36328 C 928.07565 212.64061 925.5211 211.70384 922.4082 211.55273 L 923.04297 206.20312 L 931.02148 206.20312 L 933.24414 201.71484 L 918.32812 201.71484 z M 937.56055 201.71484 L 937.56055 206.42969 L 949.61914 206.42969 L 936.06445 231 L 941.77734 231 L 958.1875 201.71484 L 937.56055 201.71484 z " transform="scale(0.26458334)" id="rect2242" inkscape:label="57"/>
    </g></svg>
