<?xml version='1.0' encoding='UTF-8'?>
<!-- Created with Inkscape (http://www.inkscape.org/) and export_objects.py -->
<svg xmlns:cc="http://creativecommons.org/ns#" xmlns:dc="http://purl.org/dc/elements/1.1/" xmlns:inkscape="http://www.inkscape.org/namespaces/inkscape" xmlns:rdf="http://www.w3.org/1999/02/22-rdf-syntax-ns#" xmlns:sodipodi="http://sodipodi.sourceforge.net/DTD/sodipodi-0.dtd" xmlns:xlink="http://www.w3.org/1999/xlink" xmlns="http://www.w3.org/2000/svg" version="1.1" width="0.75in" height="0.75in" viewBox="0 0 19.05 19.05" id="svg8" inkscape:version="0.92.3 (2405546, 2018-03-11)" sodipodi:docname="tile-09.svg"><sodipodi:namedview id="base" pagecolor="#ffffff" bordercolor="#666666" borderopacity="1.0" inkscape:pageopacity="0.0" inkscape:pageshadow="2" inkscape:zoom="1.372378" inkscape:cx="4746.9979" inkscape:cy="477.45784" inkscape:document-units="in" inkscape:current-layer="layer3" showgrid="true" units="in" inkscape:snap-others="true" inkscape:snap-grids="true" inkscape:window-width="1280" inkscape:window-height="940" inkscape:window-x="1909" inkscape:window-y="43" inkscape:window-maximized="1" inkscape:snap-midpoints="false" inkscape:object-nodes="true" inkscape:snap-text-baseline="true" inkscape:snap-smooth-nodes="false" showguides="false" inkscape:snap-object-midpoints="true" inkscape:snap-center="true" inkscape:snap-to-guides="false" inkscape:snap-nodes="true" inkscape:snap-intersection-paths="false">
    <inkscape:grid type="xygrid" id="grid10" units="pt" spacingx="3.1750001" spacingy="3.1750001"/>
    <sodipodi:guide position="380.20625,103.1875" orientation="0,1" id="guide9455" inkscape:locked="false"/>
  </sodipodi:namedview>
  <metadata id="metadata5">
    <rdf:RDF>
      <cc:Work rdf:about="">
        <dc:format>image/svg+xml</dc:format>
        <dc:type rdf:resource="http://purl.org/dc/dcmitype/StillImage"/>
        <dc:title/>
      </cc:Work>
    </rdf:RDF>
  </metadata>
  <g inkscape:groupmode="layer" inkscape:label="tile-" transform="matrix(1.000000,0.000000,0.000000,1.000000,-282.575000,-69.850000)"><path style="display:inline;opacity:1;fill:#000000;fill-opacity:1;stroke:none;stroke-width:0.66666663;stroke-linecap:butt;stroke-linejoin:miter;stroke-miterlimit:47.14606857;stroke-dasharray:none;stroke-dashoffset:0;stroke-opacity:1;paint-order:markers fill stroke" d="M 1068 264 L 1068 336 L 1140 336 L 1140 264 L 1068 264 z M 1104 269.95703 A 30.02157 30.02157 0 0 1 1134.0215 299.97852 A 30.02157 30.02157 0 0 1 1104 330 A 30.02157 30.02157 0 0 1 1073.9785 299.97852 A 30.02157 30.02157 0 0 1 1104 269.95703 z M 1104.1914 285.26172 C 1101.2901 285.26172 1098.7963 286.18379 1096.7109 288.02734 C 1094.6558 289.84068 1093.6289 292.10617 1093.6289 294.82617 C 1093.6289 297.33462 1094.5363 299.46586 1096.3496 301.21875 C 1098.1932 302.97164 1100.444 303.84766 1103.1035 303.84766 C 1104.252 303.84766 1105.6875 303.4851 1107.4102 302.75977 C 1105.8688 306.7491 1102.1972 310.82933 1096.3945 315 L 1103.375 315 C 1106.4577 312.88444 1108.9515 310.25444 1110.8555 307.11133 C 1112.8804 303.78688 1113.8926 300.40236 1113.8926 296.95703 C 1113.8926 293.93481 1113.1214 291.32146 1111.5801 289.11523 C 1109.7667 286.54634 1107.3043 285.26172 1104.1914 285.26172 z M 1103.875 289.92969 C 1105.3861 289.92969 1106.61 290.67145 1107.5469 292.15234 C 1108.3326 293.4519 1108.7559 295.00893 1108.8164 296.82227 C 1107.7586 297.72893 1106.866 298.33254 1106.1406 298.63477 C 1105.2944 299.02766 1104.2822 299.22461 1103.1035 299.22461 C 1101.9551 299.22461 1100.9429 298.74055 1100.0664 297.77344 C 1099.19 296.80632 1098.752 295.6873 1098.752 294.41797 C 1098.752 293.11841 1099.2801 292.04544 1100.3379 291.19922 C 1101.3957 290.353 1102.5754 289.92969 1103.875 289.92969 z " transform="scale(0.26458334)" id="rect1370" inkscape:label="09"/>
    </g></svg>
