<?xml version='1.0' encoding='UTF-8'?>
<!-- Created with Inkscape (http://www.inkscape.org/) and export_objects.py -->
<svg xmlns:cc="http://creativecommons.org/ns#" xmlns:dc="http://purl.org/dc/elements/1.1/" xmlns:inkscape="http://www.inkscape.org/namespaces/inkscape" xmlns:rdf="http://www.w3.org/1999/02/22-rdf-syntax-ns#" xmlns:sodipodi="http://sodipodi.sourceforge.net/DTD/sodipodi-0.dtd" xmlns:xlink="http://www.w3.org/1999/xlink" xmlns="http://www.w3.org/2000/svg" version="1.1" width="0.75in" height="0.75in" viewBox="0 0 19.05 19.05" id="svg8" inkscape:version="0.92.3 (2405546, 2018-03-11)" sodipodi:docname="tile-15.svg"><sodipodi:namedview id="base" pagecolor="#ffffff" bordercolor="#666666" borderopacity="1.0" inkscape:pageopacity="0.0" inkscape:pageshadow="2" inkscape:zoom="1.372378" inkscape:cx="4746.9979" inkscape:cy="477.45784" inkscape:document-units="in" inkscape:current-layer="layer3" showgrid="true" units="in" inkscape:snap-others="true" inkscape:snap-grids="true" inkscape:window-width="1280" inkscape:window-height="940" inkscape:window-x="1909" inkscape:window-y="43" inkscape:window-maximized="1" inkscape:snap-midpoints="false" inkscape:object-nodes="true" inkscape:snap-text-baseline="true" inkscape:snap-smooth-nodes="false" showguides="false" inkscape:snap-object-midpoints="true" inkscape:snap-center="true" inkscape:snap-to-guides="false" inkscape:snap-nodes="true" inkscape:snap-intersection-paths="false">
    <inkscape:grid type="xygrid" id="grid10" units="pt" spacingx="3.1750001" spacingy="3.1750001"/>
    <sodipodi:guide position="380.20625,103.1875" orientation="0,1" id="guide9455" inkscape:locked="false"/>
  </sodipodi:namedview>
  <metadata id="metadata5">
    <rdf:RDF>
      <cc:Work rdf:about="">
        <dc:format>image/svg+xml</dc:format>
        <dc:type rdf:resource="http://purl.org/dc/dcmitype/StillImage"/>
        <dc:title/>
      </cc:Work>
    </rdf:RDF>
  </metadata>
  <g inkscape:groupmode="layer" inkscape:label="tile-" transform="matrix(1.000000,0.000000,0.000000,1.000000,-415.925000,-69.850000)"><path style="display:inline;opacity:1;fill:#000000;fill-opacity:1;stroke:none;stroke-width:0.66666663;stroke-linecap:butt;stroke-linejoin:miter;stroke-miterlimit:47.14606857;stroke-dasharray:none;stroke-dashoffset:0;stroke-opacity:1;paint-order:markers fill stroke" d="M 1572 264 L 1572 336 L 1644 336 L 1644 264 L 1572 264 z M 1608 269.95703 A 30.02157 30.02157 0 0 1 1638.0215 299.97852 A 30.02157 30.02157 0 0 1 1608 330 A 30.02157 30.02157 0 0 1 1577.9785 299.97852 A 30.02157 30.02157 0 0 1 1608 269.95703 z M 1594.3027 285.66992 L 1594.3027 315 L 1599.5605 315 L 1599.5605 285.66992 L 1594.3027 285.66992 z M 1607.8594 285.71484 L 1605.9102 301.30859 C 1608.2675 300.61348 1609.9607 300.26758 1610.9883 300.26758 C 1612.59 300.26758 1613.9942 300.74968 1615.2031 301.7168 C 1616.5329 302.77457 1617.1992 304.09055 1617.1992 305.66211 C 1617.1992 306.99189 1616.7298 308.15501 1615.793 309.15234 C 1614.8863 310.11945 1613.828 310.60352 1612.6191 310.60352 C 1610.6849 310.60352 1609.023 309.40904 1607.6328 307.02148 L 1607.3613 307.02148 L 1604.2773 310.96484 C 1606.5138 313.92662 1609.1291 315.4082 1612.1211 315.4082 C 1615.1433 315.4082 1617.6665 314.48613 1619.6914 312.64258 C 1621.7163 310.7688 1622.7285 308.4112 1622.7285 305.57031 C 1622.7285 302.60854 1621.6869 300.20684 1619.6016 298.36328 C 1617.6069 296.64061 1615.0523 295.70384 1611.9395 295.55273 L 1612.5742 290.20312 L 1620.5527 290.20312 L 1622.7734 285.71484 L 1607.8594 285.71484 z " transform="scale(0.26458334)" id="rect1406" inkscape:label="15"/>
    </g></svg>
