<?xml version='1.0' encoding='UTF-8'?>
<!-- Created with Inkscape (http://www.inkscape.org/) and export_objects.py -->
<svg xmlns:cc="http://creativecommons.org/ns#" xmlns:dc="http://purl.org/dc/elements/1.1/" xmlns:inkscape="http://www.inkscape.org/namespaces/inkscape" xmlns:rdf="http://www.w3.org/1999/02/22-rdf-syntax-ns#" xmlns:sodipodi="http://sodipodi.sourceforge.net/DTD/sodipodi-0.dtd" xmlns:xlink="http://www.w3.org/1999/xlink" xmlns="http://www.w3.org/2000/svg" version="1.1" width="0.75in" height="0.75in" viewBox="0 0 19.05 19.05" id="svg8" inkscape:version="0.92.3 (2405546, 2018-03-11)" sodipodi:docname="tile-29.svg"><sodipodi:namedview id="base" pagecolor="#ffffff" bordercolor="#666666" borderopacity="1.0" inkscape:pageopacity="0.0" inkscape:pageshadow="2" inkscape:zoom="1.372378" inkscape:cx="4746.9979" inkscape:cy="477.45784" inkscape:document-units="in" inkscape:current-layer="layer3" showgrid="true" units="in" inkscape:snap-others="true" inkscape:snap-grids="true" inkscape:window-width="1280" inkscape:window-height="940" inkscape:window-x="1909" inkscape:window-y="43" inkscape:window-maximized="1" inkscape:snap-midpoints="false" inkscape:object-nodes="true" inkscape:snap-text-baseline="true" inkscape:snap-smooth-nodes="false" showguides="false" inkscape:snap-object-midpoints="true" inkscape:snap-center="true" inkscape:snap-to-guides="false" inkscape:snap-nodes="true" inkscape:snap-intersection-paths="false">
    <inkscape:grid type="xygrid" id="grid10" units="pt" spacingx="3.1750001" spacingy="3.1750001"/>
    <sodipodi:guide position="380.20625,103.1875" orientation="0,1" id="guide9455" inkscape:locked="false"/>
  </sodipodi:namedview>
  <metadata id="metadata5">
    <rdf:RDF>
      <cc:Work rdf:about="">
        <dc:format>image/svg+xml</dc:format>
        <dc:type rdf:resource="http://purl.org/dc/dcmitype/StillImage"/>
        <dc:title/>
      </cc:Work>
    </rdf:RDF>
  </metadata>
  <g inkscape:groupmode="layer" inkscape:label="tile-" transform="matrix(1.000000,0.000000,0.000000,1.000000,-704.850000,-69.850000)"><path style="display:inline;opacity:1;fill:#000000;fill-opacity:1;stroke:none;stroke-width:0.66666663;stroke-linecap:butt;stroke-linejoin:miter;stroke-miterlimit:47.14606857;stroke-dasharray:none;stroke-dashoffset:0;stroke-opacity:1;paint-order:markers fill stroke" d="M 2664 264 L 2664 336 L 2736 336 L 2736 264 L 2664 264 z M 2700 269.95703 A 30.02157 30.02157 0 0 1 2730.0215 299.97852 A 30.02157 30.02157 0 0 1 2700 330 A 30.02157 30.02157 0 0 1 2669.9785 299.97852 A 30.02157 30.02157 0 0 1 2700 269.95703 z M 2688.9297 285.03516 C 2686.1492 285.03516 2683.337 286.09148 2680.4961 288.20703 L 2680.4961 295.32617 L 2680.7246 295.32617 C 2683.3539 291.75995 2686.0888 289.97656 2688.9297 289.97656 C 2689.8666 289.97656 2690.6965 290.26367 2691.4219 290.83789 C 2692.1774 291.41211 2692.5566 292.15193 2692.5566 293.05859 C 2692.5566 293.7537 2692.3597 294.66108 2691.9668 295.7793 C 2691.5739 296.8673 2691.1653 297.74331 2690.7422 298.4082 L 2679.9531 315 L 2699.2188 315 L 2699.2188 310.60352 L 2689.0195 310.60352 C 2690.8933 307.88352 2692.7669 305.14671 2694.6406 302.39648 C 2696.9677 298.76982 2698.1309 295.80861 2698.1309 293.51172 C 2698.1309 290.82194 2697.3009 288.73675 2695.6387 287.25586 C 2694.0067 285.77497 2691.7706 285.03516 2688.9297 285.03516 z M 2711.7988 285.35156 C 2709.5624 285.35156 2707.6888 285.92577 2706.1777 287.07422 C 2704.5457 288.31333 2703.7305 289.97521 2703.7305 292.06055 C 2703.7305 294.56899 2704.923 296.80704 2707.3105 298.77148 C 2704.0768 301.00793 2702.4609 303.74279 2702.4609 306.97656 C 2702.4609 309.6059 2703.3056 311.67639 2704.998 313.1875 C 2706.7207 314.66839 2708.9735 315.4082 2711.7539 315.4082 C 2714.2926 315.4082 2716.4826 314.50083 2718.3262 312.6875 C 2720.1697 310.87417 2721.0918 308.77428 2721.0918 306.38672 C 2721.0918 303.48539 2719.4593 300.97688 2716.1953 298.86133 C 2718.4922 296.9271 2719.6426 294.69101 2719.6426 292.15234 C 2719.6426 290.06701 2718.8861 288.38847 2717.375 287.11914 C 2715.8941 285.94047 2714.0353 285.35156 2711.7988 285.35156 z M 2711.7988 289.20508 C 2712.4939 289.20508 2713.1583 289.50688 2713.793 290.11133 C 2714.4276 290.71577 2714.7461 291.41149 2714.7461 292.19727 C 2714.7461 293.64793 2713.778 295.05406 2711.8438 296.41406 C 2709.7886 295.05406 2708.7617 293.52643 2708.7617 291.83398 C 2708.7617 291.04821 2709.0949 290.39854 2709.7598 289.88477 C 2710.334 289.43143 2711.0131 289.20508 2711.7988 289.20508 z M 2711.4824 301.53516 C 2714.5349 303.34849 2716.0605 304.95158 2716.0605 306.3418 C 2716.0605 307.49024 2715.5912 308.51716 2714.6543 309.42383 C 2713.7174 310.3305 2712.7199 310.7832 2711.6621 310.7832 C 2710.6346 310.7832 2709.6831 310.39125 2708.8066 309.60547 C 2707.9604 308.78947 2707.5371 307.838 2707.5371 306.75 C 2707.5371 304.93667 2708.8531 303.19738 2711.4824 301.53516 z " transform="scale(0.26458334)" id="rect1494" inkscape:label="29"/>
    </g></svg>
