<?xml version='1.0' encoding='UTF-8'?>
<!-- Created with Inkscape (http://www.inkscape.org/) and export_objects.py -->
<svg xmlns:cc="http://creativecommons.org/ns#" xmlns:dc="http://purl.org/dc/elements/1.1/" xmlns:inkscape="http://www.inkscape.org/namespaces/inkscape" xmlns:rdf="http://www.w3.org/1999/02/22-rdf-syntax-ns#" xmlns:sodipodi="http://sodipodi.sourceforge.net/DTD/sodipodi-0.dtd" xmlns:xlink="http://www.w3.org/1999/xlink" xmlns="http://www.w3.org/2000/svg" version="1.1" width="0.75in" height="0.75in" viewBox="0 0 19.05 19.05" id="svg8" inkscape:version="0.92.3 (2405546, 2018-03-11)" sodipodi:docname="tile-79.svg"><sodipodi:namedview id="base" pagecolor="#ffffff" bordercolor="#666666" borderopacity="1.0" inkscape:pageopacity="0.0" inkscape:pageshadow="2" inkscape:zoom="1.372378" inkscape:cx="4212.1852" inkscape:cy="477.45784" inkscape:document-units="in" inkscape:current-layer="layer3" showgrid="true" units="in" inkscape:snap-others="true" inkscape:snap-grids="true" inkscape:window-width="1280" inkscape:window-height="940" inkscape:window-x="1909" inkscape:window-y="43" inkscape:window-maximized="1" inkscape:snap-midpoints="false" inkscape:object-nodes="true" inkscape:snap-text-baseline="true" inkscape:snap-smooth-nodes="false" showguides="false" inkscape:snap-object-midpoints="true" inkscape:snap-center="true" inkscape:snap-to-guides="false" inkscape:snap-nodes="true" inkscape:snap-intersection-paths="false">
    <inkscape:grid type="xygrid" id="grid10" units="pt" spacingx="3.1750001" spacingy="3.1750001"/>
    <sodipodi:guide position="380.20625,103.1875" orientation="0,1" id="guide9455" inkscape:locked="false"/>
  </sodipodi:namedview>
  <metadata id="metadata5">
    <rdf:RDF>
      <cc:Work rdf:about="">
        <dc:format>image/svg+xml</dc:format>
        <dc:type rdf:resource="http://purl.org/dc/dcmitype/StillImage"/>
        <dc:title/>
      </cc:Work>
    </rdf:RDF>
  </metadata>
  <g inkscape:groupmode="layer" inkscape:label="tile-" transform="matrix(1.000000,0.000000,0.000000,1.000000,-704.850000,-47.625000)"><path style="display:inline;opacity:1;fill:#000000;fill-opacity:1;stroke:none;stroke-width:0.66666669;stroke-linecap:butt;stroke-linejoin:miter;stroke-miterlimit:47.14606857;stroke-dasharray:none;stroke-dashoffset:0;stroke-opacity:1;paint-order:markers fill stroke" d="M 2664 180 L 2664 252 L 2736 252 L 2736 180 L 2664 180 z M 2700 185.95703 A 30.02157 30.02157 0 0 1 2730.0215 215.97852 A 30.02157 30.02157 0 0 1 2700 246 A 30.02157 30.02157 0 0 1 2669.9785 215.97852 A 30.02157 30.02157 0 0 1 2700 185.95703 z M 2711.8867 201.35156 C 2709.6503 201.35156 2707.7768 201.92577 2706.2656 203.07422 C 2704.6336 204.31332 2703.8184 205.97523 2703.8184 208.06055 C 2703.8184 210.56899 2705.0128 212.80704 2707.4004 214.77148 C 2704.1666 217.00793 2702.5488 219.74277 2702.5488 222.97656 C 2702.5488 225.60588 2703.3954 227.67637 2705.0879 229.1875 C 2706.8105 230.66837 2709.0613 231.4082 2711.8418 231.4082 C 2714.3805 231.4082 2716.5725 230.50082 2718.416 228.6875 C 2720.2596 226.87416 2721.1816 224.77427 2721.1816 222.38672 C 2721.1816 219.48538 2719.5492 216.97688 2716.2852 214.86133 C 2718.5821 212.92712 2719.7305 210.69103 2719.7305 208.15234 C 2719.7305 206.06703 2718.974 204.38848 2717.4629 203.11914 C 2715.982 201.94048 2714.1232 201.35156 2711.8867 201.35156 z M 2680 201.71484 L 2680 206.42969 L 2692.0586 206.42969 L 2678.5039 231 L 2684.2168 231 L 2700.627 201.71484 L 2680 201.71484 z M 2711.8867 205.20508 C 2712.5818 205.20508 2713.2482 205.50688 2713.8828 206.11133 C 2714.5175 206.71578 2714.834 207.41148 2714.834 208.19727 C 2714.834 209.64792 2713.8678 211.05406 2711.9336 212.41406 C 2709.8785 211.05406 2708.8496 209.52643 2708.8496 207.83398 C 2708.8496 207.04822 2709.1828 206.39855 2709.8477 205.88477 C 2710.4219 205.43142 2711.1009 205.20508 2711.8867 205.20508 z M 2711.5703 217.53516 C 2714.6228 219.3485 2716.1484 220.95159 2716.1484 222.3418 C 2716.1484 223.49024 2715.681 224.51714 2714.7441 225.42383 C 2713.8072 226.33049 2712.8097 226.7832 2711.752 226.7832 C 2710.7244 226.7832 2709.7729 226.39126 2708.8965 225.60547 C 2708.0503 224.78947 2707.627 223.838 2707.627 222.75 C 2707.627 220.93668 2708.941 219.19739 2711.5703 217.53516 z " transform="scale(0.26458334)" id="rect2286" inkscape:label="79"/>
    </g></svg>
