<?xml version='1.0' encoding='UTF-8'?>
<!-- Created with Inkscape (http://www.inkscape.org/) and export_objects.py -->
<svg xmlns:cc="http://creativecommons.org/ns#" xmlns:dc="http://purl.org/dc/elements/1.1/" xmlns:inkscape="http://www.inkscape.org/namespaces/inkscape" xmlns:rdf="http://www.w3.org/1999/02/22-rdf-syntax-ns#" xmlns:sodipodi="http://sodipodi.sourceforge.net/DTD/sodipodi-0.dtd" xmlns:xlink="http://www.w3.org/1999/xlink" xmlns="http://www.w3.org/2000/svg" version="1.1" width="0.75in" height="0.75in" viewBox="0 0 19.05 19.05" id="svg8" inkscape:version="0.92.3 (2405546, 2018-03-11)" sodipodi:docname="tile-86.svg"><sodipodi:namedview id="base" pagecolor="#ffffff" bordercolor="#666666" borderopacity="1.0" inkscape:pageopacity="0.0" inkscape:pageshadow="2" inkscape:zoom="1.372378" inkscape:cx="4212.1852" inkscape:cy="477.45784" inkscape:document-units="in" inkscape:current-layer="layer3" showgrid="true" units="in" inkscape:snap-others="true" inkscape:snap-grids="true" inkscape:window-width="1280" inkscape:window-height="940" inkscape:window-x="1909" inkscape:window-y="43" inkscape:window-maximized="1" inkscape:snap-midpoints="false" inkscape:object-nodes="true" inkscape:snap-text-baseline="true" inkscape:snap-smooth-nodes="false" showguides="false" inkscape:snap-object-midpoints="true" inkscape:snap-center="true" inkscape:snap-to-guides="false" inkscape:snap-nodes="true" inkscape:snap-intersection-paths="false">
    <inkscape:grid type="xygrid" id="grid10" units="pt" spacingx="3.1750001" spacingy="3.1750001"/>
    <sodipodi:guide position="380.20625,103.1875" orientation="0,1" id="guide9455" inkscape:locked="false"/>
  </sodipodi:namedview>
  <metadata id="metadata5">
    <rdf:RDF>
      <cc:Work rdf:about="">
        <dc:format>image/svg+xml</dc:format>
        <dc:type rdf:resource="http://purl.org/dc/dcmitype/StillImage"/>
        <dc:title/>
      </cc:Work>
    </rdf:RDF>
  </metadata>
  <g inkscape:groupmode="layer" inkscape:label="tile-" transform="matrix(1.000000,0.000000,0.000000,1.000000,-882.650000,-47.625000)"><path style="display:inline;opacity:1;fill:#000000;fill-opacity:1;stroke:none;stroke-width:0.66666669;stroke-linecap:butt;stroke-linejoin:miter;stroke-miterlimit:47.14606857;stroke-dasharray:none;stroke-dashoffset:0;stroke-opacity:1;paint-order:markers fill stroke" d="M 3336 180 L 3336 252 L 3408 252 L 3408 180 L 3336 180 z M 3372 185.95703 A 30.02157 30.02157 0 0 1 3402.0215 215.97852 A 30.02157 30.02157 0 0 1 3372 246 A 30.02157 30.02157 0 0 1 3341.9785 215.97852 A 30.02157 30.02157 0 0 1 3372 185.95703 z M 3360.4238 201.35156 C 3358.1874 201.35156 3356.3138 201.92577 3354.8027 203.07422 C 3353.1707 204.31332 3352.3555 205.97521 3352.3555 208.06055 C 3352.3555 210.56899 3353.548 212.80704 3355.9355 214.77148 C 3352.7018 217.00793 3351.0859 219.7428 3351.0859 222.97656 C 3351.0859 225.6059 3351.9326 227.67639 3353.625 229.1875 C 3355.3477 230.66839 3357.5985 231.4082 3360.3789 231.4082 C 3362.9176 231.4082 3365.1076 230.50084 3366.9512 228.6875 C 3368.7947 226.87416 3369.7168 224.77427 3369.7168 222.38672 C 3369.7168 219.4854 3368.0863 216.97691 3364.8223 214.86133 C 3367.1192 212.92712 3368.2676 210.691 3368.2676 208.15234 C 3368.2676 206.067 3367.5111 204.38848 3366 203.11914 C 3364.5191 201.94048 3362.6603 201.35156 3360.4238 201.35156 z M 3382 201.66992 C 3379.1893 203.63437 3376.8464 206.36921 3374.9727 209.875 C 3373.1291 213.38076 3372.207 216.79469 3372.207 220.11914 C 3372.207 223.23204 3373.0683 225.84734 3374.791 227.96289 C 3376.6648 230.29 3379.234 231.45312 3382.498 231.45312 C 3385.3692 231.45312 3387.7728 230.54769 3389.707 228.73438 C 3391.6715 226.8908 3392.6523 224.60867 3392.6523 221.88867 C 3392.6523 219.38025 3391.7616 217.2343 3389.9785 215.45117 C 3388.1954 213.63786 3385.974 212.73047 3383.3145 212.73047 C 3381.622 212.73047 3380.111 213.0323 3378.7812 213.63672 C 3381.199 208.0154 3384.7658 204.02726 3389.4805 201.66992 L 3382 201.66992 z M 3360.4238 205.20508 C 3361.1189 205.20508 3361.7833 205.50688 3362.418 206.11133 C 3363.0527 206.71578 3363.3711 207.4115 3363.3711 208.19727 C 3363.3711 209.64792 3362.403 211.05406 3360.4688 212.41406 C 3358.4136 211.05406 3357.3867 209.52641 3357.3867 207.83398 C 3357.3867 207.0482 3357.7199 206.39855 3358.3848 205.88477 C 3358.959 205.43145 3359.638 205.20508 3360.4238 205.20508 z M 3382.9512 217.49023 C 3384.0996 217.49023 3385.1119 217.97428 3385.9883 218.94141 C 3386.8647 219.87828 3387.3047 220.96595 3387.3047 222.20508 C 3387.3047 223.47439 3386.8647 224.56207 3385.9883 225.46875 C 3385.1421 226.34517 3384.1298 226.7832 3382.9512 226.7832 C 3381.5307 226.7832 3380.2775 226.31578 3379.1895 225.37891 C 3378.1015 224.41178 3377.5566 223.20261 3377.5566 221.75195 C 3377.5566 220.60351 3377.7076 219.83235 3378.0098 219.43945 C 3379.0373 218.1399 3380.6845 217.49023 3382.9512 217.49023 z M 3360.1074 217.53516 C 3363.1598 219.34847 3364.6855 220.95156 3364.6855 222.3418 C 3364.6855 223.49024 3364.2162 224.51717 3363.2793 225.42383 C 3362.3424 226.33049 3361.3449 226.7832 3360.2871 226.7832 C 3359.2596 226.7832 3358.3081 226.39123 3357.4316 225.60547 C 3356.5854 224.78947 3356.1621 223.838 3356.1621 222.75 C 3356.1621 220.93666 3357.4781 219.19737 3360.1074 217.53516 z " transform="scale(0.26458334)" id="rect2300" inkscape:label="86"/>
    </g></svg>
