<?xml version='1.0' encoding='UTF-8'?>
<!-- Created with Inkscape (http://www.inkscape.org/) and export_objects.py -->
<svg xmlns:cc="http://creativecommons.org/ns#" xmlns:dc="http://purl.org/dc/elements/1.1/" xmlns:inkscape="http://www.inkscape.org/namespaces/inkscape" xmlns:rdf="http://www.w3.org/1999/02/22-rdf-syntax-ns#" xmlns:sodipodi="http://sodipodi.sourceforge.net/DTD/sodipodi-0.dtd" xmlns:xlink="http://www.w3.org/1999/xlink" xmlns="http://www.w3.org/2000/svg" version="1.1" width="0.75in" height="0.75in" viewBox="0 0 19.05 19.05" id="svg8" inkscape:version="0.92.3 (2405546, 2018-03-11)" sodipodi:docname="tile-70.svg"><sodipodi:namedview id="base" pagecolor="#ffffff" bordercolor="#666666" borderopacity="1.0" inkscape:pageopacity="0.0" inkscape:pageshadow="2" inkscape:zoom="1.372378" inkscape:cx="4212.1852" inkscape:cy="477.45784" inkscape:document-units="in" inkscape:current-layer="layer3" showgrid="true" units="in" inkscape:snap-others="true" inkscape:snap-grids="true" inkscape:window-width="1280" inkscape:window-height="940" inkscape:window-x="1909" inkscape:window-y="43" inkscape:window-maximized="1" inkscape:snap-midpoints="false" inkscape:object-nodes="true" inkscape:snap-text-baseline="true" inkscape:snap-smooth-nodes="false" showguides="false" inkscape:snap-object-midpoints="true" inkscape:snap-center="true" inkscape:snap-to-guides="false" inkscape:snap-nodes="true" inkscape:snap-intersection-paths="false">
    <inkscape:grid type="xygrid" id="grid10" units="pt" spacingx="3.1750001" spacingy="3.1750001"/>
    <sodipodi:guide position="380.20625,103.1875" orientation="0,1" id="guide9455" inkscape:locked="false"/>
  </sodipodi:namedview>
  <metadata id="metadata5">
    <rdf:RDF>
      <cc:Work rdf:about="">
        <dc:format>image/svg+xml</dc:format>
        <dc:type rdf:resource="http://purl.org/dc/dcmitype/StillImage"/>
        <dc:title/>
      </cc:Work>
    </rdf:RDF>
  </metadata>
  <g inkscape:groupmode="layer" inkscape:label="tile-" transform="matrix(1.000000,0.000000,0.000000,1.000000,-527.050000,-47.625000)"><path style="display:inline;opacity:1;fill:#000000;fill-opacity:1;stroke:none;stroke-width:0.66666669;stroke-linecap:butt;stroke-linejoin:miter;stroke-miterlimit:47.14606857;stroke-dasharray:none;stroke-dashoffset:0;stroke-opacity:1;paint-order:markers fill stroke" d="M 1992 180 L 1992 252 L 2064 252 L 2064 180 L 1992 180 z M 2028 185.95703 A 30.02157 30.02157 0 0 1 2058.0215 215.97852 A 30.02157 30.02157 0 0 1 2028 246 A 30.02157 30.02157 0 0 1 1997.9785 215.97852 A 30.02157 30.02157 0 0 1 2028 185.95703 z M 2039.8242 201.39648 C 2036.4091 201.39648 2033.7938 203.19457 2031.9805 206.79102 C 2030.5902 209.57146 2029.8945 212.74628 2029.8945 216.3125 C 2029.8945 219.87872 2030.5902 223.05159 2031.9805 225.83203 C 2033.7938 229.42848 2036.4091 231.22656 2039.8242 231.22656 C 2043.2695 231.22656 2045.8976 229.42848 2047.7109 225.83203 C 2049.1012 223.05159 2049.7969 219.87872 2049.7969 216.3125 C 2049.7969 212.71605 2049.1012 209.52654 2047.7109 206.74609 C 2045.9278 203.17987 2043.2998 201.39648 2039.8242 201.39648 z M 2006.8945 201.71484 L 2006.8945 206.42969 L 2018.9531 206.42969 L 2005.3984 231 L 2011.1094 231 L 2027.5195 201.71484 L 2006.8945 201.71484 z M 2039.9141 205.97656 C 2041.6065 205.97656 2042.8912 207.33664 2043.7676 210.05664 C 2044.4023 212.02109 2044.7188 214.10628 2044.7188 216.3125 C 2044.7187 218.57917 2044.4169 220.66436 2043.8125 222.56836 C 2042.9663 225.25814 2041.6669 226.60352 2039.9141 226.60352 C 2038.1914 226.60352 2036.9068 225.25814 2036.0605 222.56836 C 2035.4561 220.66436 2035.1543 218.57917 2035.1543 216.3125 C 2035.1543 214.92228 2035.2905 213.5475 2035.5625 212.1875 C 2035.8647 210.64617 2036.3635 209.30079 2037.0586 208.15234 C 2037.9048 206.70168 2038.8563 205.97656 2039.9141 205.97656 z " transform="scale(0.26458334)" id="rect2268" inkscape:label="70"/>
    </g></svg>
