<?xml version='1.0' encoding='UTF-8'?>
<!-- Created with Inkscape (http://www.inkscape.org/) and export_objects.py -->
<svg xmlns:cc="http://creativecommons.org/ns#" xmlns:dc="http://purl.org/dc/elements/1.1/" xmlns:inkscape="http://www.inkscape.org/namespaces/inkscape" xmlns:rdf="http://www.w3.org/1999/02/22-rdf-syntax-ns#" xmlns:sodipodi="http://sodipodi.sourceforge.net/DTD/sodipodi-0.dtd" xmlns:xlink="http://www.w3.org/1999/xlink" xmlns="http://www.w3.org/2000/svg" version="1.1" width="0.75in" height="0.75in" viewBox="0 0 19.05 19.05" id="svg8" inkscape:version="0.92.3 (2405546, 2018-03-11)" sodipodi:docname="tile-89.svg"><sodipodi:namedview id="base" pagecolor="#ffffff" bordercolor="#666666" borderopacity="1.0" inkscape:pageopacity="0.0" inkscape:pageshadow="2" inkscape:zoom="1.372378" inkscape:cx="4212.1852" inkscape:cy="477.45784" inkscape:document-units="in" inkscape:current-layer="layer3" showgrid="true" units="in" inkscape:snap-others="true" inkscape:snap-grids="true" inkscape:window-width="1280" inkscape:window-height="940" inkscape:window-x="1909" inkscape:window-y="43" inkscape:window-maximized="1" inkscape:snap-midpoints="false" inkscape:object-nodes="true" inkscape:snap-text-baseline="true" inkscape:snap-smooth-nodes="false" showguides="false" inkscape:snap-object-midpoints="true" inkscape:snap-center="true" inkscape:snap-to-guides="false" inkscape:snap-nodes="true" inkscape:snap-intersection-paths="false">
    <inkscape:grid type="xygrid" id="grid10" units="pt" spacingx="3.1750001" spacingy="3.1750001"/>
    <sodipodi:guide position="380.20625,103.1875" orientation="0,1" id="guide9455" inkscape:locked="false"/>
  </sodipodi:namedview>
  <metadata id="metadata5">
    <rdf:RDF>
      <cc:Work rdf:about="">
        <dc:format>image/svg+xml</dc:format>
        <dc:type rdf:resource="http://purl.org/dc/dcmitype/StillImage"/>
        <dc:title/>
      </cc:Work>
    </rdf:RDF>
  </metadata>
  <g inkscape:groupmode="layer" inkscape:label="tile-" transform="matrix(1.000000,0.000000,0.000000,1.000000,-949.325000,-47.625000)"><path style="display:inline;opacity:1;fill:#000000;fill-opacity:1;stroke:none;stroke-width:0.66666669;stroke-linecap:butt;stroke-linejoin:miter;stroke-miterlimit:47.14606857;stroke-dasharray:none;stroke-dashoffset:0;stroke-opacity:1;paint-order:markers fill stroke" d="M 3588 180 L 3588 252 L 3660 252 L 3660 180 L 3588 180 z M 3624 185.95703 A 30.02157 30.02157 0 0 1 3654.0215 215.97852 A 30.02157 30.02157 0 0 1 3624 246 A 30.02157 30.02157 0 0 1 3593.9785 215.97852 A 30.02157 30.02157 0 0 1 3624 185.95703 z M 3634.6406 201.26172 C 3631.7393 201.26172 3629.2455 202.18379 3627.1602 204.02734 C 3625.1051 205.84069 3624.0781 208.10617 3624.0781 210.82617 C 3624.0781 213.33462 3624.9836 215.46586 3626.7969 217.21875 C 3628.6405 218.97162 3630.8932 219.84766 3633.5527 219.84766 C 3634.7012 219.84766 3636.1367 219.48508 3637.8594 218.75977 C 3636.318 222.74908 3632.6445 226.82932 3626.8418 231 L 3633.8242 231 C 3636.9069 228.88445 3639.4007 226.25446 3641.3047 223.11133 C 3643.3296 219.78691 3644.3418 216.40237 3644.3418 212.95703 C 3644.3418 209.9348 3643.5706 207.32145 3642.0293 205.11523 C 3640.216 202.54634 3637.7535 201.26172 3634.6406 201.26172 z M 3612.2031 201.35156 C 3609.9667 201.35156 3608.0931 201.92577 3606.582 203.07422 C 3604.95 204.31332 3604.1328 205.97521 3604.1328 208.06055 C 3604.1328 210.56899 3605.3273 212.80704 3607.7148 214.77148 C 3604.4811 217.00793 3602.8633 219.7428 3602.8633 222.97656 C 3602.8633 225.6059 3603.7099 227.67639 3605.4023 229.1875 C 3607.125 230.66839 3609.3778 231.4082 3612.1582 231.4082 C 3614.6969 231.4082 3616.8869 230.50084 3618.7305 228.6875 C 3620.574 226.87416 3621.4961 224.77427 3621.4961 222.38672 C 3621.4961 219.4854 3619.8636 216.97691 3616.5996 214.86133 C 3618.8965 212.92712 3620.0449 210.691 3620.0449 208.15234 C 3620.0449 206.067 3619.2904 204.38848 3617.7793 203.11914 C 3616.2984 201.94048 3614.4396 201.35156 3612.2031 201.35156 z M 3612.2031 205.20508 C 3612.8983 205.20508 3613.5626 205.50688 3614.1973 206.11133 C 3614.8319 206.71578 3615.1484 207.4115 3615.1484 208.19727 C 3615.1484 209.64792 3614.1823 211.05406 3612.248 212.41406 C 3610.1929 211.05406 3609.166 209.52641 3609.166 207.83398 C 3609.166 207.0482 3609.4972 206.39855 3610.1621 205.88477 C 3610.7363 205.43145 3611.4174 205.20508 3612.2031 205.20508 z M 3634.3223 205.93164 C 3635.8334 205.93164 3637.0573 206.67145 3637.9941 208.15234 C 3638.7799 209.4519 3639.2032 211.00895 3639.2637 212.82227 C 3638.2059 213.72895 3637.3152 214.33255 3636.5898 214.63477 C 3635.7436 215.02766 3634.7314 215.22461 3633.5527 215.22461 C 3632.4043 215.22461 3631.3901 214.74054 3630.5137 213.77344 C 3629.6372 212.80633 3629.1992 211.68731 3629.1992 210.41797 C 3629.1992 209.11842 3629.7293 208.04545 3630.7871 207.19922 C 3631.8449 206.35301 3633.0227 205.93164 3634.3223 205.93164 z M 3611.8848 217.53516 C 3614.9372 219.34847 3616.4648 220.95156 3616.4648 222.3418 C 3616.4648 223.49024 3615.9955 224.51717 3615.0586 225.42383 C 3614.1217 226.33049 3613.1242 226.7832 3612.0664 226.7832 C 3611.0389 226.7832 3610.0874 226.39123 3609.2109 225.60547 C 3608.3647 224.78947 3607.9414 223.838 3607.9414 222.75 C 3607.9414 220.93666 3609.2554 219.19737 3611.8848 217.53516 z " transform="scale(0.26458334)" id="rect2306" inkscape:label="89"/>
    </g></svg>
