<?xml version='1.0' encoding='UTF-8'?>
<!-- Created with Inkscape (http://www.inkscape.org/) and export_objects.py -->
<svg xmlns:cc="http://creativecommons.org/ns#" xmlns:dc="http://purl.org/dc/elements/1.1/" xmlns:inkscape="http://www.inkscape.org/namespaces/inkscape" xmlns:rdf="http://www.w3.org/1999/02/22-rdf-syntax-ns#" xmlns:sodipodi="http://sodipodi.sourceforge.net/DTD/sodipodi-0.dtd" xmlns:xlink="http://www.w3.org/1999/xlink" xmlns="http://www.w3.org/2000/svg" version="1.1" width="0.75in" height="0.75in" viewBox="0 0 19.05 19.05" id="svg8" inkscape:version="0.92.3 (2405546, 2018-03-11)" sodipodi:docname="tile-95.svg"><sodipodi:namedview id="base" pagecolor="#ffffff" bordercolor="#666666" borderopacity="1.0" inkscape:pageopacity="0.0" inkscape:pageshadow="2" inkscape:zoom="1.372378" inkscape:cx="4212.1852" inkscape:cy="477.45784" inkscape:document-units="in" inkscape:current-layer="layer3" showgrid="true" units="in" inkscape:snap-others="true" inkscape:snap-grids="true" inkscape:window-width="1280" inkscape:window-height="940" inkscape:window-x="1909" inkscape:window-y="43" inkscape:window-maximized="1" inkscape:snap-midpoints="false" inkscape:object-nodes="true" inkscape:snap-text-baseline="true" inkscape:snap-smooth-nodes="false" showguides="false" inkscape:snap-object-midpoints="true" inkscape:snap-center="true" inkscape:snap-to-guides="false" inkscape:snap-nodes="true" inkscape:snap-intersection-paths="false">
    <inkscape:grid type="xygrid" id="grid10" units="pt" spacingx="3.1750001" spacingy="3.1750001"/>
    <sodipodi:guide position="380.20625,103.1875" orientation="0,1" id="guide9455" inkscape:locked="false"/>
  </sodipodi:namedview>
  <metadata id="metadata5">
    <rdf:RDF>
      <cc:Work rdf:about="">
        <dc:format>image/svg+xml</dc:format>
        <dc:type rdf:resource="http://purl.org/dc/dcmitype/StillImage"/>
        <dc:title/>
      </cc:Work>
    </rdf:RDF>
  </metadata>
  <g inkscape:groupmode="layer" inkscape:label="tile-" transform="matrix(1.000000,0.000000,0.000000,1.000000,-1082.675000,-47.625000)"><path style="display:inline;opacity:1;fill:#000000;fill-opacity:1;stroke:none;stroke-width:0.66666669;stroke-linecap:butt;stroke-linejoin:miter;stroke-miterlimit:47.14606857;stroke-dasharray:none;stroke-dashoffset:0;stroke-opacity:1;paint-order:markers fill stroke" d="M 4092 180 L 4092 252 L 4164 252 L 4164 180 L 4092 180 z M 4128 185.95703 A 30.02157 30.02157 0 0 1 4158.0215 215.97852 A 30.02157 30.02157 0 0 1 4128 246 A 30.02157 30.02157 0 0 1 4097.9785 215.97852 A 30.02157 30.02157 0 0 1 4128 185.95703 z M 4117.0801 201.26172 C 4114.1787 201.26172 4111.6849 202.18379 4109.5996 204.02734 C 4107.5446 205.84069 4106.5176 208.10617 4106.5176 210.82617 C 4106.5176 213.33462 4107.4232 215.46586 4109.2363 217.21875 C 4111.08 218.97162 4113.3327 219.84766 4115.9922 219.84766 C 4117.1407 219.84766 4118.5761 219.48508 4120.2988 218.75977 C 4118.7575 222.74911 4115.086 226.82934 4109.2832 231 L 4116.2637 231 C 4119.3463 228.88445 4121.84 226.25443 4123.7441 223.11133 C 4125.769 219.78688 4126.7812 216.40237 4126.7812 212.95703 C 4126.7812 209.9348 4126.01 207.32145 4124.4688 205.11523 C 4122.6553 202.54634 4120.1929 201.26172 4117.0801 201.26172 z M 4134.0137 201.71484 L 4132.0645 217.30859 C 4134.4219 216.61346 4136.1131 216.26758 4137.1406 216.26758 C 4138.7424 216.26758 4140.1485 216.74967 4141.3574 217.7168 C 4142.6873 218.77456 4143.3516 220.09056 4143.3516 221.66211 C 4143.3516 222.9919 4142.8843 224.155 4141.9473 225.15234 C 4141.0407 226.11945 4139.9824 226.60352 4138.7734 226.60352 C 4136.8393 226.60352 4135.1775 225.40904 4133.7871 223.02148 L 4133.5137 223.02148 L 4130.4316 226.96484 C 4132.6681 229.92663 4135.2833 231.4082 4138.2754 231.4082 C 4141.2975 231.4082 4143.8209 230.48613 4145.8457 228.64258 C 4147.8708 226.76879 4148.8828 224.41121 4148.8828 221.57031 C 4148.8828 218.60855 4147.8394 216.20683 4145.7539 214.36328 C 4143.7593 212.64067 4141.2066 211.70392 4138.0938 211.55273 L 4138.7285 206.20312 L 4146.707 206.20312 L 4148.9277 201.71484 L 4134.0137 201.71484 z M 4116.7617 205.92969 C 4118.2728 205.92969 4119.4985 206.67145 4120.4355 208.15234 C 4121.2212 209.4519 4121.6427 211.00697 4121.7031 212.82031 C 4120.6454 213.72697 4119.7547 214.33255 4119.0293 214.63477 C 4118.1832 215.02766 4117.1709 215.22461 4115.9922 215.22461 C 4114.8437 215.22461 4113.8314 214.74054 4112.9551 213.77344 C 4112.0785 212.80633 4111.6406 211.68731 4111.6406 210.41797 C 4111.6406 209.11842 4112.1685 208.04545 4113.2266 207.19922 C 4114.2843 206.35301 4115.4623 205.92969 4116.7617 205.92969 z " transform="scale(0.26458334)" id="rect2318" inkscape:label="95"/>
    </g></svg>
