<?xml version='1.0' encoding='UTF-8'?>
<!-- Created with Inkscape (http://www.inkscape.org/) and export_objects.py -->
<svg xmlns:cc="http://creativecommons.org/ns#" xmlns:dc="http://purl.org/dc/elements/1.1/" xmlns:inkscape="http://www.inkscape.org/namespaces/inkscape" xmlns:rdf="http://www.w3.org/1999/02/22-rdf-syntax-ns#" xmlns:sodipodi="http://sodipodi.sourceforge.net/DTD/sodipodi-0.dtd" xmlns:xlink="http://www.w3.org/1999/xlink" xmlns="http://www.w3.org/2000/svg" version="1.1" width="0.75in" height="0.75in" viewBox="0 0 19.05 19.05" id="svg8" inkscape:version="0.92.3 (2405546, 2018-03-11)" sodipodi:docname="tile-53.svg"><sodipodi:namedview id="base" pagecolor="#ffffff" bordercolor="#666666" borderopacity="1.0" inkscape:pageopacity="0.0" inkscape:pageshadow="2" inkscape:zoom="1.372378" inkscape:cx="4212.1852" inkscape:cy="477.45784" inkscape:document-units="in" inkscape:current-layer="layer3" showgrid="true" units="in" inkscape:snap-others="true" inkscape:snap-grids="true" inkscape:window-width="1280" inkscape:window-height="940" inkscape:window-x="1909" inkscape:window-y="43" inkscape:window-maximized="1" inkscape:snap-midpoints="false" inkscape:object-nodes="true" inkscape:snap-text-baseline="true" inkscape:snap-smooth-nodes="false" showguides="false" inkscape:snap-object-midpoints="true" inkscape:snap-center="true" inkscape:snap-to-guides="false" inkscape:snap-nodes="true" inkscape:snap-intersection-paths="false">
    <inkscape:grid type="xygrid" id="grid10" units="pt" spacingx="3.1750001" spacingy="3.1750001"/>
    <sodipodi:guide position="380.20625,103.1875" orientation="0,1" id="guide9455" inkscape:locked="false"/>
  </sodipodi:namedview>
  <metadata id="metadata5">
    <rdf:RDF>
      <cc:Work rdf:about="">
        <dc:format>image/svg+xml</dc:format>
        <dc:type rdf:resource="http://purl.org/dc/dcmitype/StillImage"/>
        <dc:title/>
      </cc:Work>
    </rdf:RDF>
  </metadata>
  <g inkscape:groupmode="layer" inkscape:label="tile-" transform="matrix(1.000000,0.000000,0.000000,1.000000,-149.225000,-47.625000)"><path style="display:inline;opacity:1;fill:#000000;fill-opacity:1;stroke:none;stroke-width:0.66666669;stroke-linecap:butt;stroke-linejoin:miter;stroke-miterlimit:47.14606857;stroke-dasharray:none;stroke-dashoffset:0;stroke-opacity:1;paint-order:markers fill stroke" d="M 564 180 L 564 252 L 636 252 L 636 180 L 564 180 z M 600 185.95703 A 30.02157 30.02157 0 0 1 630.02148 215.97852 A 30.02157 30.02157 0 0 1 600 246 A 30.02157 30.02157 0 0 1 569.97852 215.97852 A 30.02157 30.02157 0 0 1 600 185.95703 z M 582.50586 201.71484 L 580.55664 217.30859 C 582.91396 216.61348 584.60526 216.26758 585.63281 216.26758 C 587.2346 216.26758 588.64071 216.74969 589.84961 217.7168 C 591.17937 218.77457 591.84375 220.09055 591.84375 221.66211 C 591.84375 222.99189 591.37632 224.15501 590.43945 225.15234 C 589.53277 226.11945 588.47452 226.60352 587.26562 226.60352 C 585.33141 226.60352 583.66953 225.40904 582.2793 223.02148 L 582.00586 223.02148 L 578.92383 226.96484 C 581.16025 229.92662 583.77558 231.4082 586.76758 231.4082 C 589.78981 231.4082 592.313 230.48613 594.33789 228.64258 C 596.36279 226.7688 597.375 224.4112 597.375 221.57031 C 597.375 218.60853 596.33144 216.20684 594.24609 214.36328 C 592.25144 212.64061 589.69883 211.70384 586.58594 211.55273 L 587.2207 206.20312 L 595.19922 206.20312 L 597.41992 201.71484 L 582.50586 201.71484 z M 601.7832 201.71484 L 601.7832 206.33789 L 613.16211 206.33789 L 607.22266 216.58398 C 609.852 216.58398 611.801 216.96124 613.07031 217.7168 C 614.521 218.59324 615.24609 220.07482 615.24609 222.16016 C 615.24609 223.33882 614.80809 224.33634 613.93164 225.15234 C 613.05519 225.96834 612.04298 226.37695 610.89453 226.37695 C 608.53719 226.37695 606.58819 224.89537 605.04688 221.93359 L 604.77539 221.93359 L 601.375 225.51562 C 601.61676 226.66407 602.44674 227.78114 603.86719 228.86914 C 604.98542 229.74559 606.16519 230.39525 607.4043 230.81836 C 608.3714 231.1508 609.41301 231.31641 610.53125 231.31641 C 613.37212 231.31641 615.80518 230.45509 617.83008 228.73242 C 619.85497 226.97953 620.86719 224.76009 620.86719 222.07031 C 620.86719 220.19653 620.37039 218.42785 619.37305 216.76562 C 618.31528 214.92207 616.89446 213.68349 615.11133 213.04883 L 621.59375 201.71484 L 601.7832 201.71484 z " transform="scale(0.26458334)" id="rect2234" inkscape:label="53"/>
    </g></svg>
