<?xml version='1.0' encoding='UTF-8'?>
<!-- Created with Inkscape (http://www.inkscape.org/) and export_objects.py -->
<svg xmlns:cc="http://creativecommons.org/ns#" xmlns:dc="http://purl.org/dc/elements/1.1/" xmlns:inkscape="http://www.inkscape.org/namespaces/inkscape" xmlns:rdf="http://www.w3.org/1999/02/22-rdf-syntax-ns#" xmlns:sodipodi="http://sodipodi.sourceforge.net/DTD/sodipodi-0.dtd" xmlns:xlink="http://www.w3.org/1999/xlink" xmlns="http://www.w3.org/2000/svg" version="1.1" width="0.75in" height="0.75in" viewBox="0 0 19.05 19.05" id="svg8" inkscape:version="0.92.3 (2405546, 2018-03-11)" sodipodi:docname="tile-83.svg"><sodipodi:namedview id="base" pagecolor="#ffffff" bordercolor="#666666" borderopacity="1.0" inkscape:pageopacity="0.0" inkscape:pageshadow="2" inkscape:zoom="1.372378" inkscape:cx="4212.1852" inkscape:cy="477.45784" inkscape:document-units="in" inkscape:current-layer="layer3" showgrid="true" units="in" inkscape:snap-others="true" inkscape:snap-grids="true" inkscape:window-width="1280" inkscape:window-height="940" inkscape:window-x="1909" inkscape:window-y="43" inkscape:window-maximized="1" inkscape:snap-midpoints="false" inkscape:object-nodes="true" inkscape:snap-text-baseline="true" inkscape:snap-smooth-nodes="false" showguides="false" inkscape:snap-object-midpoints="true" inkscape:snap-center="true" inkscape:snap-to-guides="false" inkscape:snap-nodes="true" inkscape:snap-intersection-paths="false">
    <inkscape:grid type="xygrid" id="grid10" units="pt" spacingx="3.1750001" spacingy="3.1750001"/>
    <sodipodi:guide position="380.20625,103.1875" orientation="0,1" id="guide9455" inkscape:locked="false"/>
  </sodipodi:namedview>
  <metadata id="metadata5">
    <rdf:RDF>
      <cc:Work rdf:about="">
        <dc:format>image/svg+xml</dc:format>
        <dc:type rdf:resource="http://purl.org/dc/dcmitype/StillImage"/>
        <dc:title/>
      </cc:Work>
    </rdf:RDF>
  </metadata>
  <g inkscape:groupmode="layer" inkscape:label="tile-" transform="matrix(1.000000,0.000000,0.000000,1.000000,-815.975000,-47.625000)"><path style="display:inline;opacity:1;fill:#000000;fill-opacity:1;stroke:none;stroke-width:0.66666669;stroke-linecap:butt;stroke-linejoin:miter;stroke-miterlimit:47.14606857;stroke-dasharray:none;stroke-dashoffset:0;stroke-opacity:1;paint-order:markers fill stroke" d="M 3084 180 L 3084 252 L 3156 252 L 3156 180 L 3084 180 z M 3120 185.95703 A 30.02157 30.02157 0 0 1 3150.0215 215.97852 A 30.02157 30.02157 0 0 1 3120 246 A 30.02157 30.02157 0 0 1 3089.9785 215.97852 A 30.02157 30.02157 0 0 1 3120 185.95703 z M 3108.2461 201.35156 C 3106.0097 201.35156 3104.1361 201.92577 3102.625 203.07422 C 3100.993 204.31332 3100.1777 205.97521 3100.1777 208.06055 C 3100.1777 210.56899 3101.3722 212.80704 3103.7598 214.77148 C 3100.526 217.00793 3098.9082 219.7428 3098.9082 222.97656 C 3098.9082 225.6059 3099.7548 227.67639 3101.4473 229.1875 C 3103.1699 230.66839 3105.4207 231.4082 3108.2012 231.4082 C 3110.7398 231.4082 3112.9318 230.50084 3114.7754 228.6875 C 3116.6189 226.87416 3117.541 224.77427 3117.541 222.38672 C 3117.541 219.4854 3115.9085 216.97691 3112.6445 214.86133 C 3114.9414 212.92712 3116.0898 210.691 3116.0898 208.15234 C 3116.0898 206.067 3115.3334 204.38848 3113.8223 203.11914 C 3112.3414 201.94048 3110.4825 201.35156 3108.2461 201.35156 z M 3121.1191 201.71484 L 3121.1191 206.33789 L 3132.498 206.33789 L 3126.5586 216.58398 C 3129.1879 216.58398 3131.1369 216.96122 3132.4062 217.7168 C 3133.8569 218.59322 3134.582 220.07481 3134.582 222.16016 C 3134.582 223.33881 3134.144 224.33634 3133.2676 225.15234 C 3132.3911 225.96834 3131.3789 226.37695 3130.2305 226.37695 C 3127.8731 226.37695 3125.9241 224.89536 3124.3828 221.93359 L 3124.1113 221.93359 L 3120.7109 225.51562 C 3120.9527 226.66407 3121.7827 227.78114 3123.2031 228.86914 C 3124.3214 229.74559 3125.5011 230.39525 3126.7402 230.81836 C 3127.7073 231.15081 3128.749 231.31836 3129.8672 231.31836 C 3132.7081 231.31836 3135.1411 230.45703 3137.166 228.73438 C 3139.1909 226.98148 3140.2031 224.7601 3140.2031 222.07031 C 3140.2031 220.19655 3139.7063 218.42786 3138.709 216.76562 C 3137.6512 214.92207 3136.2304 213.68349 3134.4473 213.04883 L 3140.9297 201.71484 L 3121.1191 201.71484 z M 3108.2461 205.20508 C 3108.9412 205.20508 3109.6075 205.50688 3110.2422 206.11133 C 3110.8768 206.71578 3111.1934 207.4115 3111.1934 208.19727 C 3111.1934 209.64792 3110.2272 211.05406 3108.293 212.41406 C 3106.2379 211.05406 3105.209 209.52641 3105.209 207.83398 C 3105.209 207.0482 3105.5422 206.39855 3106.207 205.88477 C 3106.7813 205.43145 3107.4603 205.20508 3108.2461 205.20508 z M 3107.9297 217.53516 C 3110.9821 219.34847 3112.5078 220.95156 3112.5078 222.3418 C 3112.5078 223.49024 3112.0404 224.51717 3111.1035 225.42383 C 3110.1666 226.33049 3109.1691 226.7832 3108.1113 226.7832 C 3107.0838 226.7832 3106.1323 226.39123 3105.2559 225.60547 C 3104.4096 224.78947 3103.9863 223.838 3103.9863 222.75 C 3103.9863 220.93666 3105.3004 219.19737 3107.9297 217.53516 z " transform="scale(0.26458334)" id="rect2294" inkscape:label="83"/>
    </g></svg>
