<?xml version='1.0' encoding='UTF-8'?>
<!-- Created with Inkscape (http://www.inkscape.org/) and export_objects.py -->
<svg xmlns:cc="http://creativecommons.org/ns#" xmlns:dc="http://purl.org/dc/elements/1.1/" xmlns:inkscape="http://www.inkscape.org/namespaces/inkscape" xmlns:rdf="http://www.w3.org/1999/02/22-rdf-syntax-ns#" xmlns:sodipodi="http://sodipodi.sourceforge.net/DTD/sodipodi-0.dtd" xmlns:xlink="http://www.w3.org/1999/xlink" xmlns="http://www.w3.org/2000/svg" version="1.1" width="0.75in" height="0.75in" viewBox="0 0 19.05 19.05" id="svg8" inkscape:version="0.92.3 (2405546, 2018-03-11)" sodipodi:docname="tile-18.svg"><sodipodi:namedview id="base" pagecolor="#ffffff" bordercolor="#666666" borderopacity="1.0" inkscape:pageopacity="0.0" inkscape:pageshadow="2" inkscape:zoom="1.372378" inkscape:cx="4746.9979" inkscape:cy="477.45784" inkscape:document-units="in" inkscape:current-layer="layer3" showgrid="true" units="in" inkscape:snap-others="true" inkscape:snap-grids="true" inkscape:window-width="1280" inkscape:window-height="940" inkscape:window-x="1909" inkscape:window-y="43" inkscape:window-maximized="1" inkscape:snap-midpoints="false" inkscape:object-nodes="true" inkscape:snap-text-baseline="true" inkscape:snap-smooth-nodes="false" showguides="false" inkscape:snap-object-midpoints="true" inkscape:snap-center="true" inkscape:snap-to-guides="false" inkscape:snap-nodes="true" inkscape:snap-intersection-paths="false">
    <inkscape:grid type="xygrid" id="grid10" units="pt" spacingx="3.1750001" spacingy="3.1750001"/>
    <sodipodi:guide position="380.20625,103.1875" orientation="0,1" id="guide9455" inkscape:locked="false"/>
  </sodipodi:namedview>
  <metadata id="metadata5">
    <rdf:RDF>
      <cc:Work rdf:about="">
        <dc:format>image/svg+xml</dc:format>
        <dc:type rdf:resource="http://purl.org/dc/dcmitype/StillImage"/>
        <dc:title/>
      </cc:Work>
    </rdf:RDF>
  </metadata>
  <g inkscape:groupmode="layer" inkscape:label="tile-" transform="matrix(1.000000,0.000000,0.000000,1.000000,-482.600000,-69.850000)"><path style="display:inline;opacity:1;fill:#000000;fill-opacity:1;stroke:none;stroke-width:0.66666663;stroke-linecap:butt;stroke-linejoin:miter;stroke-miterlimit:47.14606857;stroke-dasharray:none;stroke-dashoffset:0;stroke-opacity:1;paint-order:markers fill stroke" d="M 1824 264 L 1824 336 L 1896 336 L 1896 264 L 1824 264 z M 1860 269.95703 A 30.02157 30.02157 0 0 1 1890.0215 299.97852 A 30.02157 30.02157 0 0 1 1860 330 A 30.02157 30.02157 0 0 1 1829.9785 299.97852 A 30.02157 30.02157 0 0 1 1860 269.95703 z M 1865.6016 285.35156 C 1863.3651 285.35156 1861.4916 285.92577 1859.9805 287.07422 C 1858.3485 288.31333 1857.5312 289.97521 1857.5312 292.06055 C 1857.5313 294.56899 1858.7257 296.80704 1861.1133 298.77148 C 1857.8795 301.00793 1856.2617 303.74279 1856.2617 306.97656 C 1856.2617 309.6059 1857.1083 311.67639 1858.8008 313.1875 C 1860.5234 314.66839 1862.7762 315.4082 1865.5566 315.4082 C 1868.0953 315.4082 1870.2854 314.50083 1872.1289 312.6875 C 1873.9725 310.87417 1874.8945 308.77428 1874.8945 306.38672 C 1874.8945 303.48539 1873.262 300.97688 1869.998 298.86133 C 1872.2949 296.9271 1873.4434 294.69101 1873.4434 292.15234 C 1873.4434 290.06701 1872.6889 288.38847 1871.1777 287.11914 C 1869.6969 285.94047 1867.838 285.35156 1865.6016 285.35156 z M 1846.9668 285.66992 L 1846.9668 315 L 1852.2266 315 L 1852.2266 285.66992 L 1846.9668 285.66992 z M 1865.6016 289.20508 C 1866.2967 289.20508 1866.961 289.50688 1867.5957 290.11133 C 1868.2304 290.71577 1868.5469 291.41149 1868.5469 292.19727 C 1868.5469 293.64793 1867.5807 295.05406 1865.6465 296.41406 C 1863.5914 295.05406 1862.5645 293.52643 1862.5645 291.83398 C 1862.5645 291.04821 1862.8957 290.39854 1863.5605 289.88477 C 1864.1348 289.43143 1864.8158 289.20508 1865.6016 289.20508 z M 1865.2832 301.53516 C 1868.3357 303.34849 1869.8633 304.95157 1869.8633 306.3418 C 1869.8633 307.49024 1869.3939 308.51716 1868.457 309.42383 C 1867.5201 310.3305 1866.5226 310.7832 1865.4648 310.7832 C 1864.4373 310.7832 1863.4858 310.39125 1862.6094 309.60547 C 1861.7632 308.78947 1861.3398 307.838 1861.3398 306.75 C 1861.3398 304.93667 1862.6539 303.19738 1865.2832 301.53516 z " transform="scale(0.26458334)" id="rect1412" inkscape:label="18"/>
    </g></svg>
