<?xml version='1.0' encoding='UTF-8'?>
<!-- Created with Inkscape (http://www.inkscape.org/) and export_objects.py -->
<svg xmlns:cc="http://creativecommons.org/ns#" xmlns:dc="http://purl.org/dc/elements/1.1/" xmlns:inkscape="http://www.inkscape.org/namespaces/inkscape" xmlns:rdf="http://www.w3.org/1999/02/22-rdf-syntax-ns#" xmlns:sodipodi="http://sodipodi.sourceforge.net/DTD/sodipodi-0.dtd" xmlns:xlink="http://www.w3.org/1999/xlink" xmlns="http://www.w3.org/2000/svg" version="1.1" width="0.75in" height="0.75in" viewBox="0 0 19.05 19.05" id="svg8" inkscape:version="0.92.3 (2405546, 2018-03-11)" sodipodi:docname="tile-99.svg"><sodipodi:namedview id="base" pagecolor="#ffffff" bordercolor="#666666" borderopacity="1.0" inkscape:pageopacity="0.0" inkscape:pageshadow="2" inkscape:zoom="1.372378" inkscape:cx="4212.1852" inkscape:cy="477.45784" inkscape:document-units="in" inkscape:current-layer="layer3" showgrid="true" units="in" inkscape:snap-others="true" inkscape:snap-grids="true" inkscape:window-width="1280" inkscape:window-height="940" inkscape:window-x="1909" inkscape:window-y="43" inkscape:window-maximized="1" inkscape:snap-midpoints="false" inkscape:object-nodes="true" inkscape:snap-text-baseline="true" inkscape:snap-smooth-nodes="false" showguides="false" inkscape:snap-object-midpoints="true" inkscape:snap-center="true" inkscape:snap-to-guides="false" inkscape:snap-nodes="true" inkscape:snap-intersection-paths="false">
    <inkscape:grid type="xygrid" id="grid10" units="pt" spacingx="3.1750001" spacingy="3.1750001"/>
    <sodipodi:guide position="380.20625,103.1875" orientation="0,1" id="guide9455" inkscape:locked="false"/>
  </sodipodi:namedview>
  <metadata id="metadata5">
    <rdf:RDF>
      <cc:Work rdf:about="">
        <dc:format>image/svg+xml</dc:format>
        <dc:type rdf:resource="http://purl.org/dc/dcmitype/StillImage"/>
        <dc:title/>
      </cc:Work>
    </rdf:RDF>
  </metadata>
  <g inkscape:groupmode="layer" inkscape:label="tile-" transform="matrix(1.000000,0.000000,0.000000,1.000000,-1171.575000,-47.625000)"><path style="display:inline;opacity:1;fill:#000000;fill-opacity:1;stroke:none;stroke-width:0.66666669;stroke-linecap:butt;stroke-linejoin:miter;stroke-miterlimit:47.14606857;stroke-dasharray:none;stroke-dashoffset:0;stroke-opacity:1;paint-order:markers fill stroke" d="M 4428 180 L 4428 252 L 4500 252 L 4500 180 L 4428 180 z M 4464 185.95703 A 30.02157 30.02157 0 0 1 4494.0215 215.97852 A 30.02157 30.02157 0 0 1 4464 246 A 30.02157 30.02157 0 0 1 4433.9785 215.97852 A 30.02157 30.02157 0 0 1 4464 185.95703 z M 4452.416 201.26172 C 4449.5146 201.26172 4447.0208 202.18379 4444.9355 204.02734 C 4442.8805 205.84069 4441.8535 208.10617 4441.8535 210.82617 C 4441.8535 213.33462 4442.7591 215.46586 4444.5723 217.21875 C 4446.4159 218.97162 4448.6686 219.84766 4451.3281 219.84766 C 4452.4766 219.84766 4453.9121 219.48508 4455.6348 218.75977 C 4454.0935 222.74911 4450.422 226.82934 4444.6191 231 L 4451.5996 231 C 4454.6822 228.88445 4457.176 226.25443 4459.0801 223.11133 C 4461.1049 219.78688 4462.1172 216.40237 4462.1172 212.95703 C 4462.1172 209.9348 4461.346 207.32145 4459.8047 205.11523 C 4457.9913 202.54634 4455.5288 201.26172 4452.416 201.26172 z M 4475.9688 201.26172 C 4473.0673 201.26172 4470.5736 202.18379 4468.4883 204.02734 C 4466.4332 205.84069 4465.4062 208.10617 4465.4062 210.82617 C 4465.4062 213.33462 4466.3118 215.46586 4468.125 217.21875 C 4469.9687 218.97162 4472.2213 219.84766 4474.8809 219.84766 C 4476.0293 219.84766 4477.4648 219.48508 4479.1875 218.75977 C 4477.646 222.74911 4473.9725 226.82934 4468.1699 231 L 4475.1523 231 C 4478.2349 228.88445 4480.7287 226.25443 4482.6328 223.11133 C 4484.6576 219.78688 4485.6699 216.40237 4485.6699 212.95703 C 4485.6699 209.9348 4484.8987 207.32145 4483.3574 205.11523 C 4481.544 202.54634 4479.0816 201.26172 4475.9688 201.26172 z M 4452.0977 205.92969 C 4453.6087 205.92969 4454.8344 206.67145 4455.7715 208.15234 C 4456.5571 209.4519 4456.9786 211.00697 4457.0391 212.82031 C 4455.9813 213.72697 4455.0907 214.33255 4454.3652 214.63477 C 4453.5191 215.02766 4452.5068 215.22461 4451.3281 215.22461 C 4450.1797 215.22461 4449.1674 214.74054 4448.291 213.77344 C 4447.4144 212.80633 4446.9766 211.68731 4446.9766 210.41797 C 4446.9766 209.11842 4447.5045 208.04545 4448.5625 207.19922 C 4449.6203 206.35301 4450.7983 205.92969 4452.0977 205.92969 z M 4475.6504 205.92969 C 4477.1614 205.92969 4478.3854 206.67145 4479.3223 208.15234 C 4480.1082 209.4519 4480.5313 211.00697 4480.5918 212.82031 C 4479.534 213.72697 4478.6434 214.33255 4477.918 214.63477 C 4477.0719 215.02766 4476.0596 215.22461 4474.8809 215.22461 C 4473.7324 215.22461 4472.7201 214.74054 4471.8438 213.77344 C 4470.9672 212.80633 4470.5273 211.68731 4470.5273 210.41797 C 4470.5273 209.11842 4471.0575 208.04545 4472.1152 207.19922 C 4473.173 206.35301 4474.3507 205.92969 4475.6504 205.92969 z " transform="scale(0.26458334)" id="rect2326" inkscape:label="99"/>
    </g></svg>
