<?xml version='1.0' encoding='UTF-8'?>
<!-- Created with Inkscape (http://www.inkscape.org/) and export_objects.py -->
<svg xmlns:cc="http://creativecommons.org/ns#" xmlns:dc="http://purl.org/dc/elements/1.1/" xmlns:inkscape="http://www.inkscape.org/namespaces/inkscape" xmlns:rdf="http://www.w3.org/1999/02/22-rdf-syntax-ns#" xmlns:sodipodi="http://sodipodi.sourceforge.net/DTD/sodipodi-0.dtd" xmlns:xlink="http://www.w3.org/1999/xlink" xmlns="http://www.w3.org/2000/svg" version="1.1" width="0.75in" height="0.75in" viewBox="0 0 19.05 19.05" id="svg8" inkscape:version="0.92.3 (2405546, 2018-03-11)" sodipodi:docname="tile-88.svg"><sodipodi:namedview id="base" pagecolor="#ffffff" bordercolor="#666666" borderopacity="1.0" inkscape:pageopacity="0.0" inkscape:pageshadow="2" inkscape:zoom="1.372378" inkscape:cx="4212.1852" inkscape:cy="477.45784" inkscape:document-units="in" inkscape:current-layer="layer3" showgrid="true" units="in" inkscape:snap-others="true" inkscape:snap-grids="true" inkscape:window-width="1280" inkscape:window-height="940" inkscape:window-x="1909" inkscape:window-y="43" inkscape:window-maximized="1" inkscape:snap-midpoints="false" inkscape:object-nodes="true" inkscape:snap-text-baseline="true" inkscape:snap-smooth-nodes="false" showguides="false" inkscape:snap-object-midpoints="true" inkscape:snap-center="true" inkscape:snap-to-guides="false" inkscape:snap-nodes="true" inkscape:snap-intersection-paths="false">
    <inkscape:grid type="xygrid" id="grid10" units="pt" spacingx="3.1750001" spacingy="3.1750001"/>
    <sodipodi:guide position="380.20625,103.1875" orientation="0,1" id="guide9455" inkscape:locked="false"/>
  </sodipodi:namedview>
  <metadata id="metadata5">
    <rdf:RDF>
      <cc:Work rdf:about="">
        <dc:format>image/svg+xml</dc:format>
        <dc:type rdf:resource="http://purl.org/dc/dcmitype/StillImage"/>
        <dc:title/>
      </cc:Work>
    </rdf:RDF>
  </metadata>
  <g inkscape:groupmode="layer" inkscape:label="tile-" transform="matrix(1.000000,0.000000,0.000000,1.000000,-927.100000,-47.625000)"><path style="display:inline;opacity:1;fill:#000000;fill-opacity:1;stroke:none;stroke-width:0.66666669;stroke-linecap:butt;stroke-linejoin:miter;stroke-miterlimit:47.14606857;stroke-dasharray:none;stroke-dashoffset:0;stroke-opacity:1;paint-order:markers fill stroke" d="M 3504 180 L 3504 252 L 3576 252 L 3576 180 L 3504 180 z M 3540 185.95703 A 30.02157 30.02157 0 0 1 3570.0215 215.97852 A 30.02157 30.02157 0 0 1 3540 246 A 30.02157 30.02157 0 0 1 3509.9785 215.97852 A 30.02157 30.02157 0 0 1 3540 185.95703 z M 3529.5312 201.35156 C 3527.2948 201.35156 3525.4213 201.92577 3523.9102 203.07422 C 3522.2782 204.31332 3521.4609 205.97521 3521.4609 208.06055 C 3521.4609 210.56899 3522.6554 212.80704 3525.043 214.77148 C 3521.8092 217.00793 3520.1914 219.7428 3520.1914 222.97656 C 3520.1914 225.6059 3521.038 227.67639 3522.7305 229.1875 C 3524.4531 230.66839 3526.7059 231.4082 3529.4863 231.4082 C 3532.025 231.4082 3534.215 230.50084 3536.0586 228.6875 C 3537.9021 226.87416 3538.8242 224.77427 3538.8242 222.38672 C 3538.8242 219.4854 3537.1917 216.97691 3533.9277 214.86133 C 3536.2246 212.92712 3537.373 210.691 3537.373 208.15234 C 3537.373 206.067 3536.6186 204.38848 3535.1074 203.11914 C 3533.6266 201.94048 3531.7677 201.35156 3529.5312 201.35156 z M 3550.4258 201.35156 C 3548.1893 201.35156 3546.3158 201.92577 3544.8047 203.07422 C 3543.1727 204.31332 3542.3574 205.97521 3542.3574 208.06055 C 3542.3574 210.56899 3543.5519 212.80704 3545.9395 214.77148 C 3542.7057 217.00793 3541.0879 219.7428 3541.0879 222.97656 C 3541.0879 225.6059 3541.9345 227.67639 3543.627 229.1875 C 3545.3496 230.66839 3547.6004 231.4082 3550.3809 231.4082 C 3552.9195 231.4082 3555.1115 230.50084 3556.9551 228.6875 C 3558.7986 226.87416 3559.7207 224.77427 3559.7207 222.38672 C 3559.7207 219.4854 3558.0882 216.97691 3554.8242 214.86133 C 3557.1211 212.92712 3558.2695 210.691 3558.2695 208.15234 C 3558.2695 206.067 3557.5131 204.38848 3556.002 203.11914 C 3554.5211 201.94048 3552.6622 201.35156 3550.4258 201.35156 z M 3529.5312 205.20508 C 3530.2264 205.20508 3530.8907 205.50688 3531.5254 206.11133 C 3532.1601 206.71578 3532.4766 207.4115 3532.4766 208.19727 C 3532.4766 209.64792 3531.5104 211.05406 3529.5762 212.41406 C 3527.5211 211.05406 3526.4941 209.52641 3526.4941 207.83398 C 3526.4941 207.0482 3526.8253 206.39855 3527.4902 205.88477 C 3528.0644 205.43145 3528.7455 205.20508 3529.5312 205.20508 z M 3550.4258 205.20508 C 3551.1209 205.20508 3551.7872 205.50688 3552.4219 206.11133 C 3553.0566 206.71578 3553.373 207.4115 3553.373 208.19727 C 3553.373 209.64792 3552.4069 211.05406 3550.4727 212.41406 C 3548.4176 211.05406 3547.3887 209.52641 3547.3887 207.83398 C 3547.3887 207.0482 3547.7218 206.39855 3548.3867 205.88477 C 3548.9609 205.43145 3549.64 205.20508 3550.4258 205.20508 z M 3529.2129 217.53516 C 3532.2653 219.34847 3533.793 220.95156 3533.793 222.3418 C 3533.793 223.49024 3533.3236 224.51717 3532.3867 225.42383 C 3531.4498 226.33049 3530.4523 226.7832 3529.3945 226.7832 C 3528.367 226.7832 3527.4155 226.39123 3526.5391 225.60547 C 3525.6929 224.78947 3525.2695 223.838 3525.2695 222.75 C 3525.2695 220.93666 3526.5835 219.19737 3529.2129 217.53516 z M 3550.1094 217.53516 C 3553.1618 219.34847 3554.6875 220.95156 3554.6875 222.3418 C 3554.6875 223.49024 3554.2201 224.51717 3553.2832 225.42383 C 3552.3463 226.33049 3551.3488 226.7832 3550.291 226.7832 C 3549.2635 226.7832 3548.312 226.39123 3547.4355 225.60547 C 3546.5893 224.78947 3546.166 223.838 3546.166 222.75 C 3546.166 220.93666 3547.48 219.19737 3550.1094 217.53516 z " transform="scale(0.26458334)" id="rect2304" inkscape:label="88"/>
    </g></svg>
