<?xml version='1.0' encoding='UTF-8'?>
<!-- Created with Inkscape (http://www.inkscape.org/) and export_objects.py -->
<svg xmlns:cc="http://creativecommons.org/ns#" xmlns:dc="http://purl.org/dc/elements/1.1/" xmlns:inkscape="http://www.inkscape.org/namespaces/inkscape" xmlns:rdf="http://www.w3.org/1999/02/22-rdf-syntax-ns#" xmlns:sodipodi="http://sodipodi.sourceforge.net/DTD/sodipodi-0.dtd" xmlns:xlink="http://www.w3.org/1999/xlink" xmlns="http://www.w3.org/2000/svg" version="1.1" width="0.75in" height="0.75in" viewBox="0 0 19.05 19.05" id="svg8" inkscape:version="0.92.3 (2405546, 2018-03-11)" sodipodi:docname="tile-37.svg"><sodipodi:namedview id="base" pagecolor="#ffffff" bordercolor="#666666" borderopacity="1.0" inkscape:pageopacity="0.0" inkscape:pageshadow="2" inkscape:zoom="1.372378" inkscape:cx="4746.9979" inkscape:cy="477.45784" inkscape:document-units="in" inkscape:current-layer="layer3" showgrid="true" units="in" inkscape:snap-others="true" inkscape:snap-grids="true" inkscape:window-width="1280" inkscape:window-height="940" inkscape:window-x="1909" inkscape:window-y="43" inkscape:window-maximized="1" inkscape:snap-midpoints="false" inkscape:object-nodes="true" inkscape:snap-text-baseline="true" inkscape:snap-smooth-nodes="false" showguides="false" inkscape:snap-object-midpoints="true" inkscape:snap-center="true" inkscape:snap-to-guides="false" inkscape:snap-nodes="true" inkscape:snap-intersection-paths="false">
    <inkscape:grid type="xygrid" id="grid10" units="pt" spacingx="3.1750001" spacingy="3.1750001"/>
    <sodipodi:guide position="380.20625,103.1875" orientation="0,1" id="guide9455" inkscape:locked="false"/>
  </sodipodi:namedview>
  <metadata id="metadata5">
    <rdf:RDF>
      <cc:Work rdf:about="">
        <dc:format>image/svg+xml</dc:format>
        <dc:type rdf:resource="http://purl.org/dc/dcmitype/StillImage"/>
        <dc:title/>
      </cc:Work>
    </rdf:RDF>
  </metadata>
  <g inkscape:groupmode="layer" inkscape:label="tile-" transform="matrix(1.000000,0.000000,0.000000,1.000000,-904.875000,-69.850000)"><path style="display:inline;opacity:1;fill:#000000;fill-opacity:1;stroke:none;stroke-width:0.66666663;stroke-linecap:butt;stroke-linejoin:miter;stroke-miterlimit:47.14606857;stroke-dasharray:none;stroke-dashoffset:0;stroke-opacity:1;paint-order:markers fill stroke" d="M 3420 264 L 3420 336 L 3492 336 L 3492 264 L 3420 264 z M 3456 269.95703 A 30.02157 30.02157 0 0 1 3486.0215 299.97852 A 30.02157 30.02157 0 0 1 3456 330 A 30.02157 30.02157 0 0 1 3425.9785 299.97852 A 30.02157 30.02157 0 0 1 3456 269.95703 z M 3434.7617 285.71484 L 3434.7617 290.33789 L 3446.1406 290.33789 L 3440.2012 300.58398 C 3442.8305 300.58398 3444.7814 300.96124 3446.0508 301.7168 C 3447.5014 302.59324 3448.2266 304.07482 3448.2266 306.16016 C 3448.2266 307.33882 3447.7886 308.33634 3446.9121 309.15234 C 3446.0357 309.96834 3445.0234 310.375 3443.875 310.375 C 3441.5177 310.375 3439.5667 308.89537 3438.0254 305.93359 L 3437.7539 305.93359 L 3434.3535 309.51367 C 3434.5953 310.66212 3435.4272 311.78114 3436.8477 312.86914 C 3437.9659 313.74559 3439.1437 314.39525 3440.3828 314.81836 C 3441.3499 315.1508 3442.3935 315.31641 3443.5117 315.31641 C 3446.3526 315.31641 3448.7857 314.45509 3450.8105 312.73242 C 3452.8354 310.97953 3453.8477 308.75814 3453.8477 306.06836 C 3453.8477 304.19458 3453.3489 302.42785 3452.3516 300.76562 C 3451.2938 298.92207 3449.8729 297.68154 3448.0898 297.04688 L 3454.5723 285.71484 L 3434.7617 285.71484 z M 3458.1797 285.71484 L 3458.1797 290.42969 L 3470.2383 290.42969 L 3456.6836 315 L 3462.3965 315 L 3478.8066 285.71484 L 3458.1797 285.71484 z " transform="scale(0.26458334)" id="rect1570" inkscape:label="37"/>
    </g></svg>
