<?xml version='1.0' encoding='UTF-8'?>
<!-- Created with Inkscape (http://www.inkscape.org/) and export_objects.py -->
<svg xmlns:cc="http://creativecommons.org/ns#" xmlns:dc="http://purl.org/dc/elements/1.1/" xmlns:inkscape="http://www.inkscape.org/namespaces/inkscape" xmlns:rdf="http://www.w3.org/1999/02/22-rdf-syntax-ns#" xmlns:sodipodi="http://sodipodi.sourceforge.net/DTD/sodipodi-0.dtd" xmlns:xlink="http://www.w3.org/1999/xlink" xmlns="http://www.w3.org/2000/svg" version="1.1" width="0.75in" height="0.75in" viewBox="0 0 19.05 19.05" id="svg8" inkscape:version="0.92.3 (2405546, 2018-03-11)" sodipodi:docname="tile-51.svg"><sodipodi:namedview id="base" pagecolor="#ffffff" bordercolor="#666666" borderopacity="1.0" inkscape:pageopacity="0.0" inkscape:pageshadow="2" inkscape:zoom="1.372378" inkscape:cx="4212.1852" inkscape:cy="477.45784" inkscape:document-units="in" inkscape:current-layer="layer3" showgrid="true" units="in" inkscape:snap-others="true" inkscape:snap-grids="true" inkscape:window-width="1280" inkscape:window-height="940" inkscape:window-x="1909" inkscape:window-y="43" inkscape:window-maximized="1" inkscape:snap-midpoints="false" inkscape:object-nodes="true" inkscape:snap-text-baseline="true" inkscape:snap-smooth-nodes="false" showguides="false" inkscape:snap-object-midpoints="true" inkscape:snap-center="true" inkscape:snap-to-guides="false" inkscape:snap-nodes="true" inkscape:snap-intersection-paths="false">
    <inkscape:grid type="xygrid" id="grid10" units="pt" spacingx="3.1750001" spacingy="3.1750001"/>
    <sodipodi:guide position="380.20625,103.1875" orientation="0,1" id="guide9455" inkscape:locked="false"/>
  </sodipodi:namedview>
  <metadata id="metadata5">
    <rdf:RDF>
      <cc:Work rdf:about="">
        <dc:format>image/svg+xml</dc:format>
        <dc:type rdf:resource="http://purl.org/dc/dcmitype/StillImage"/>
        <dc:title/>
      </cc:Work>
    </rdf:RDF>
  </metadata>
  <g inkscape:groupmode="layer" inkscape:label="tile-" transform="matrix(1.000000,0.000000,0.000000,1.000000,-104.775000,-47.625000)"><path style="display:inline;opacity:1;fill:#000000;fill-opacity:1;stroke:none;stroke-width:0.66666669;stroke-linecap:butt;stroke-linejoin:miter;stroke-miterlimit:47.14606857;stroke-dasharray:none;stroke-dashoffset:0;stroke-opacity:1;paint-order:markers fill stroke" d="M 396 180 L 396 252 L 468 252 L 468 180 L 396 180 z M 432 185.95703 A 30.02157 30.02157 0 0 1 462.02148 215.97852 A 30.02157 30.02157 0 0 1 432 246 A 30.02157 30.02157 0 0 1 401.97852 215.97852 A 30.02157 30.02157 0 0 1 432 185.95703 z M 440.52734 201.66992 L 440.52734 231 L 445.78516 231 L 445.78516 201.66992 L 440.52734 201.66992 z M 420.61523 201.71484 L 418.66602 217.30859 C 421.02336 216.61348 422.71463 216.26758 423.74219 216.26758 C 425.34398 216.26758 426.75012 216.74969 427.95898 217.7168 C 429.28877 218.77457 429.95313 220.09055 429.95312 221.66211 C 429.95312 222.99189 429.48572 224.15501 428.54883 225.15234 C 427.64217 226.11945 426.58389 226.60352 425.375 226.60352 C 423.44079 226.60352 421.77891 225.40904 420.38867 223.02148 L 420.11719 223.02148 L 417.0332 226.96484 C 419.26965 229.92662 421.88495 231.4082 424.87695 231.4082 C 427.89919 231.4082 430.4224 230.48613 432.44727 228.64258 C 434.47216 226.7688 435.48438 224.4112 435.48438 221.57031 C 435.48437 218.60853 434.44079 216.20684 432.35547 214.36328 C 430.36079 212.64061 427.80821 211.70384 424.69531 211.55273 L 425.33008 206.20312 L 433.30859 206.20312 L 435.5293 201.71484 L 420.61523 201.71484 z " transform="scale(0.26458334)" id="rect2230" inkscape:label="51"/>
    </g></svg>
