<?xml version='1.0' encoding='UTF-8'?>
<!-- Created with Inkscape (http://www.inkscape.org/) and export_objects.py -->
<svg xmlns:cc="http://creativecommons.org/ns#" xmlns:dc="http://purl.org/dc/elements/1.1/" xmlns:inkscape="http://www.inkscape.org/namespaces/inkscape" xmlns:rdf="http://www.w3.org/1999/02/22-rdf-syntax-ns#" xmlns:sodipodi="http://sodipodi.sourceforge.net/DTD/sodipodi-0.dtd" xmlns:xlink="http://www.w3.org/1999/xlink" xmlns="http://www.w3.org/2000/svg" version="1.1" width="0.75in" height="0.75in" viewBox="0 0 19.05 19.05" id="svg8" inkscape:version="0.92.3 (2405546, 2018-03-11)" sodipodi:docname="tile-03.svg"><sodipodi:namedview id="base" pagecolor="#ffffff" bordercolor="#666666" borderopacity="1.0" inkscape:pageopacity="0.0" inkscape:pageshadow="2" inkscape:zoom="1.372378" inkscape:cx="4746.9979" inkscape:cy="477.45784" inkscape:document-units="in" inkscape:current-layer="layer3" showgrid="true" units="in" inkscape:snap-others="true" inkscape:snap-grids="true" inkscape:window-width="1280" inkscape:window-height="940" inkscape:window-x="1909" inkscape:window-y="43" inkscape:window-maximized="1" inkscape:snap-midpoints="false" inkscape:object-nodes="true" inkscape:snap-text-baseline="true" inkscape:snap-smooth-nodes="false" showguides="false" inkscape:snap-object-midpoints="true" inkscape:snap-center="true" inkscape:snap-to-guides="false" inkscape:snap-nodes="true" inkscape:snap-intersection-paths="false">
    <inkscape:grid type="xygrid" id="grid10" units="pt" spacingx="3.1750001" spacingy="3.1750001"/>
    <sodipodi:guide position="380.20625,103.1875" orientation="0,1" id="guide9455" inkscape:locked="false"/>
  </sodipodi:namedview>
  <metadata id="metadata5">
    <rdf:RDF>
      <cc:Work rdf:about="">
        <dc:format>image/svg+xml</dc:format>
        <dc:type rdf:resource="http://purl.org/dc/dcmitype/StillImage"/>
        <dc:title/>
      </cc:Work>
    </rdf:RDF>
  </metadata>
  <g inkscape:groupmode="layer" inkscape:label="tile-" transform="matrix(1.000000,0.000000,0.000000,1.000000,-149.225000,-69.850000)"><path style="display:inline;opacity:1;fill:#000000;fill-opacity:1;stroke:none;stroke-width:0.66666663;stroke-linecap:butt;stroke-linejoin:miter;stroke-miterlimit:47.14606857;stroke-dasharray:none;stroke-dashoffset:0;stroke-opacity:1;paint-order:markers fill stroke" d="M 564 264 L 564 336 L 636 336 L 636 264 L 564 264 z M 600 269.95703 A 30.02157 30.02157 0 0 1 630.02148 299.97852 A 30.02157 30.02157 0 0 1 600 330 A 30.02157 30.02157 0 0 1 569.97852 299.97852 A 30.02157 30.02157 0 0 1 600 269.95703 z M 590.66992 285.71484 L 590.66992 290.33789 L 602.04883 290.33789 L 596.11133 300.58398 C 598.74064 300.58398 600.68964 300.96124 601.95898 301.7168 C 603.40964 302.59324 604.13477 304.07482 604.13477 306.16016 C 604.13477 307.33882 603.69676 308.33634 602.82031 309.15234 C 601.94387 309.96834 600.93163 310.375 599.7832 310.375 C 597.42586 310.375 595.47494 308.89537 593.93359 305.93359 L 593.66211 305.93359 L 590.26172 309.51367 C 590.50351 310.66212 591.33541 311.78114 592.75586 312.86914 C 593.87407 313.74559 595.05191 314.39525 596.29102 314.81836 C 597.25815 315.1508 598.30171 315.31641 599.41992 315.31641 C 602.26082 315.31641 604.69386 314.45509 606.71875 312.73242 C 608.74362 310.97953 609.75586 308.75814 609.75586 306.06836 C 609.75586 304.19458 609.25708 302.42785 608.25977 300.76562 C 607.20198 298.92207 605.78115 297.68349 603.99805 297.04883 L 610.48047 285.71484 L 590.66992 285.71484 z " transform="scale(0.26458334)" id="rect1334" inkscape:label="03"/>
    </g></svg>
