<?xml version='1.0' encoding='UTF-8'?>
<!-- Created with Inkscape (http://www.inkscape.org/) and export_objects.py -->
<svg xmlns:cc="http://creativecommons.org/ns#" xmlns:dc="http://purl.org/dc/elements/1.1/" xmlns:inkscape="http://www.inkscape.org/namespaces/inkscape" xmlns:rdf="http://www.w3.org/1999/02/22-rdf-syntax-ns#" xmlns:sodipodi="http://sodipodi.sourceforge.net/DTD/sodipodi-0.dtd" xmlns:xlink="http://www.w3.org/1999/xlink" xmlns="http://www.w3.org/2000/svg" version="1.1" width="0.75in" height="0.75in" viewBox="0 0 19.05 19.05" id="svg8" inkscape:version="0.92.3 (2405546, 2018-03-11)" sodipodi:docname="tile-97.svg"><sodipodi:namedview id="base" pagecolor="#ffffff" bordercolor="#666666" borderopacity="1.0" inkscape:pageopacity="0.0" inkscape:pageshadow="2" inkscape:zoom="1.372378" inkscape:cx="4212.1852" inkscape:cy="477.45784" inkscape:document-units="in" inkscape:current-layer="layer3" showgrid="true" units="in" inkscape:snap-others="true" inkscape:snap-grids="true" inkscape:window-width="1280" inkscape:window-height="940" inkscape:window-x="1909" inkscape:window-y="43" inkscape:window-maximized="1" inkscape:snap-midpoints="false" inkscape:object-nodes="true" inkscape:snap-text-baseline="true" inkscape:snap-smooth-nodes="false" showguides="false" inkscape:snap-object-midpoints="true" inkscape:snap-center="true" inkscape:snap-to-guides="false" inkscape:snap-nodes="true" inkscape:snap-intersection-paths="false">
    <inkscape:grid type="xygrid" id="grid10" units="pt" spacingx="3.1750001" spacingy="3.1750001"/>
    <sodipodi:guide position="380.20625,103.1875" orientation="0,1" id="guide9455" inkscape:locked="false"/>
  </sodipodi:namedview>
  <metadata id="metadata5">
    <rdf:RDF>
      <cc:Work rdf:about="">
        <dc:format>image/svg+xml</dc:format>
        <dc:type rdf:resource="http://purl.org/dc/dcmitype/StillImage"/>
        <dc:title/>
      </cc:Work>
    </rdf:RDF>
  </metadata>
  <g inkscape:groupmode="layer" inkscape:label="tile-" transform="matrix(1.000000,0.000000,0.000000,1.000000,-1127.125000,-47.625000)"><path style="display:inline;opacity:1;fill:#000000;fill-opacity:1;stroke:none;stroke-width:0.66666669;stroke-linecap:butt;stroke-linejoin:miter;stroke-miterlimit:47.14606857;stroke-dasharray:none;stroke-dashoffset:0;stroke-opacity:1;paint-order:markers fill stroke" d="M 4260 180 L 4260 252 L 4332 252 L 4332 180 L 4260 180 z M 4296 185.95703 A 30.02157 30.02157 0 0 1 4326.0215 215.97852 A 30.02157 30.02157 0 0 1 4296 246 A 30.02157 30.02157 0 0 1 4265.9785 215.97852 A 30.02157 30.02157 0 0 1 4296 185.95703 z M 4284.2832 201.26172 C 4281.382 201.26172 4278.888 202.18379 4276.8027 204.02734 C 4274.7477 205.84069 4273.7207 208.10617 4273.7207 210.82617 C 4273.7207 213.33462 4274.6282 215.46586 4276.4414 217.21875 C 4278.2851 218.97162 4280.5358 219.84766 4283.1953 219.84766 C 4284.3438 219.84766 4285.7792 219.48508 4287.502 218.75977 C 4285.9604 222.74911 4282.2889 226.82934 4276.4863 231 L 4283.4668 231 C 4286.5494 228.88445 4289.0434 226.25443 4290.9473 223.11133 C 4292.9723 219.78688 4293.9844 216.40237 4293.9844 212.95703 C 4293.9844 209.9348 4293.2132 207.32145 4291.6719 205.11523 C 4289.8585 202.54634 4287.3963 201.26172 4284.2832 201.26172 z M 4298.2246 201.71484 L 4298.2246 206.42969 L 4310.2832 206.42969 L 4296.7285 231 L 4302.4414 231 L 4318.8516 201.71484 L 4298.2246 201.71484 z M 4283.9668 205.92969 C 4285.4779 205.92969 4286.7019 206.67145 4287.6387 208.15234 C 4288.4246 209.4519 4288.8477 211.00697 4288.9082 212.82031 C 4287.8504 213.72697 4286.9578 214.33255 4286.2324 214.63477 C 4285.3863 215.02766 4284.374 215.22461 4283.1953 215.22461 C 4282.0468 215.22461 4281.0345 214.74054 4280.1582 213.77344 C 4279.2816 212.80633 4278.8438 211.68731 4278.8438 210.41797 C 4278.8438 209.11842 4279.3719 208.04545 4280.4297 207.19922 C 4281.4875 206.35301 4282.6671 205.92969 4283.9668 205.92969 z " transform="scale(0.26458334)" id="rect2322" inkscape:label="97"/>
    </g></svg>
