<?xml version='1.0' encoding='UTF-8'?>
<!-- Created with Inkscape (http://www.inkscape.org/) and export_objects.py -->
<svg xmlns:cc="http://creativecommons.org/ns#" xmlns:dc="http://purl.org/dc/elements/1.1/" xmlns:inkscape="http://www.inkscape.org/namespaces/inkscape" xmlns:rdf="http://www.w3.org/1999/02/22-rdf-syntax-ns#" xmlns:sodipodi="http://sodipodi.sourceforge.net/DTD/sodipodi-0.dtd" xmlns:xlink="http://www.w3.org/1999/xlink" xmlns="http://www.w3.org/2000/svg" version="1.1" width="0.75in" height="0.75in" viewBox="0 0 19.05 19.05" id="svg8" inkscape:version="0.92.3 (2405546, 2018-03-11)" sodipodi:docname="tile-32.svg"><sodipodi:namedview id="base" pagecolor="#ffffff" bordercolor="#666666" borderopacity="1.0" inkscape:pageopacity="0.0" inkscape:pageshadow="2" inkscape:zoom="1.372378" inkscape:cx="4746.9979" inkscape:cy="477.45784" inkscape:document-units="in" inkscape:current-layer="layer3" showgrid="true" units="in" inkscape:snap-others="true" inkscape:snap-grids="true" inkscape:window-width="1280" inkscape:window-height="940" inkscape:window-x="1909" inkscape:window-y="43" inkscape:window-maximized="1" inkscape:snap-midpoints="false" inkscape:object-nodes="true" inkscape:snap-text-baseline="true" inkscape:snap-smooth-nodes="false" showguides="false" inkscape:snap-object-midpoints="true" inkscape:snap-center="true" inkscape:snap-to-guides="false" inkscape:snap-nodes="true" inkscape:snap-intersection-paths="false">
    <inkscape:grid type="xygrid" id="grid10" units="pt" spacingx="3.1750001" spacingy="3.1750001"/>
    <sodipodi:guide position="380.20625,103.1875" orientation="0,1" id="guide9455" inkscape:locked="false"/>
  </sodipodi:namedview>
  <metadata id="metadata5">
    <rdf:RDF>
      <cc:Work rdf:about="">
        <dc:format>image/svg+xml</dc:format>
        <dc:type rdf:resource="http://purl.org/dc/dcmitype/StillImage"/>
        <dc:title/>
      </cc:Work>
    </rdf:RDF>
  </metadata>
  <g inkscape:groupmode="layer" inkscape:label="tile-" transform="matrix(1.000000,0.000000,0.000000,1.000000,-793.750000,-69.850000)"><path style="display:inline;opacity:1;fill:#000000;fill-opacity:1;stroke:none;stroke-width:0.66666663;stroke-linecap:butt;stroke-linejoin:miter;stroke-miterlimit:47.14606857;stroke-dasharray:none;stroke-dashoffset:0;stroke-opacity:1;paint-order:markers fill stroke" d="M 3000 264 L 3000 336 L 3072 336 L 3072 264 L 3000 264 z M 3036 269.95703 A 30.02157 30.02157 0 0 1 3066.0215 299.97852 A 30.02157 30.02157 0 0 1 3036 330 A 30.02157 30.02157 0 0 1 3005.9785 299.97852 A 30.02157 30.02157 0 0 1 3036 269.95703 z M 3047.1094 285.03516 C 3044.3289 285.03516 3041.5167 286.09148 3038.6758 288.20703 L 3038.6758 295.32617 L 3038.9023 295.32617 C 3041.5317 291.75995 3044.2685 289.97656 3047.1094 289.97656 C 3048.0463 289.97656 3048.8762 290.26367 3049.6016 290.83789 C 3050.3571 291.41211 3050.7344 292.15193 3050.7344 293.05859 C 3050.7344 293.7537 3050.5394 294.66108 3050.1465 295.7793 C 3049.7536 296.8673 3049.345 297.74331 3048.9219 298.4082 L 3038.1328 315 L 3057.3984 315 L 3057.3984 310.60352 L 3047.1992 310.60352 C 3049.073 307.88352 3050.9465 305.14671 3052.8203 302.39648 C 3055.1474 298.76982 3056.3105 295.80861 3056.3105 293.51172 C 3056.3105 290.82194 3055.4806 288.73675 3053.8184 287.25586 C 3052.1864 285.77497 3049.9503 285.03516 3047.1094 285.03516 z M 3014.8496 285.71484 L 3014.8496 290.33789 L 3026.2285 290.33789 L 3020.291 300.58398 C 3022.9203 300.58398 3024.8693 300.96124 3026.1387 301.7168 C 3027.5893 302.59324 3028.3145 304.07482 3028.3145 306.16016 C 3028.3145 307.33882 3027.8764 308.33634 3027 309.15234 C 3026.1236 309.96834 3025.1113 310.375 3023.9629 310.375 C 3021.6055 310.375 3019.6566 308.89537 3018.1152 305.93359 L 3017.8418 305.93359 L 3014.4414 309.51367 C 3014.6832 310.66212 3015.5151 311.78114 3016.9355 312.86914 C 3018.0538 313.74559 3019.2335 314.39525 3020.4727 314.81836 C 3021.4398 315.1508 3022.4814 315.31641 3023.5996 315.31641 C 3026.4405 315.31641 3028.8735 314.45509 3030.8984 312.73242 C 3032.9233 310.97953 3033.9355 308.75814 3033.9355 306.06836 C 3033.9355 304.19458 3033.4368 302.42785 3032.4395 300.76562 C 3031.3817 298.92207 3029.9608 297.68349 3028.1777 297.04883 L 3034.6602 285.71484 L 3014.8496 285.71484 z " transform="scale(0.26458334)" id="rect1560" inkscape:label="32"/>
    </g></svg>
