<?xml version='1.0' encoding='UTF-8'?>
<!-- Created with Inkscape (http://www.inkscape.org/) and export_objects.py -->
<svg xmlns:cc="http://creativecommons.org/ns#" xmlns:dc="http://purl.org/dc/elements/1.1/" xmlns:inkscape="http://www.inkscape.org/namespaces/inkscape" xmlns:rdf="http://www.w3.org/1999/02/22-rdf-syntax-ns#" xmlns:sodipodi="http://sodipodi.sourceforge.net/DTD/sodipodi-0.dtd" xmlns:xlink="http://www.w3.org/1999/xlink" xmlns="http://www.w3.org/2000/svg" version="1.1" width="0.75in" height="0.75in" viewBox="0 0 19.05 19.05" id="svg8" inkscape:version="0.92.3 (2405546, 2018-03-11)" sodipodi:docname="tile-40.svg"><sodipodi:namedview id="base" pagecolor="#ffffff" bordercolor="#666666" borderopacity="1.0" inkscape:pageopacity="0.0" inkscape:pageshadow="2" inkscape:zoom="1.372378" inkscape:cx="4746.9979" inkscape:cy="477.45784" inkscape:document-units="in" inkscape:current-layer="layer3" showgrid="true" units="in" inkscape:snap-others="true" inkscape:snap-grids="true" inkscape:window-width="1280" inkscape:window-height="940" inkscape:window-x="1909" inkscape:window-y="43" inkscape:window-maximized="1" inkscape:snap-midpoints="false" inkscape:object-nodes="true" inkscape:snap-text-baseline="true" inkscape:snap-smooth-nodes="false" showguides="false" inkscape:snap-object-midpoints="true" inkscape:snap-center="true" inkscape:snap-to-guides="false" inkscape:snap-nodes="true" inkscape:snap-intersection-paths="false">
    <inkscape:grid type="xygrid" id="grid10" units="pt" spacingx="3.1750001" spacingy="3.1750001"/>
    <sodipodi:guide position="380.20625,103.1875" orientation="0,1" id="guide9455" inkscape:locked="false"/>
  </sodipodi:namedview>
  <metadata id="metadata5">
    <rdf:RDF>
      <cc:Work rdf:about="">
        <dc:format>image/svg+xml</dc:format>
        <dc:type rdf:resource="http://purl.org/dc/dcmitype/StillImage"/>
        <dc:title/>
      </cc:Work>
    </rdf:RDF>
  </metadata>
  <g inkscape:groupmode="layer" inkscape:label="tile-" transform="matrix(1.000000,0.000000,0.000000,1.000000,-971.550000,-69.850000)"><path style="display:inline;opacity:1;fill:#000000;fill-opacity:1;stroke:none;stroke-width:0.66666663;stroke-linecap:butt;stroke-linejoin:miter;stroke-miterlimit:47.14606857;stroke-dasharray:none;stroke-dashoffset:0;stroke-opacity:1;paint-order:markers fill stroke" d="M 3672 264 L 3672 336 L 3744 336 L 3744 264 L 3672 264 z M 3708 269.95703 A 30.02157 30.02157 0 0 1 3738.0215 299.97852 A 30.02157 30.02157 0 0 1 3708 330 A 30.02157 30.02157 0 0 1 3677.9785 299.97852 A 30.02157 30.02157 0 0 1 3708 269.95703 z M 3701.8438 283.85547 L 3682.4395 307.06641 L 3696.8555 307.06641 L 3696.8555 315 L 3702.0703 315 L 3702.0703 307.06641 L 3708.8242 307.06641 L 3708.8242 302.39648 L 3702.0703 302.39648 L 3702.0703 283.85547 L 3701.8438 283.85547 z M 3721.2402 285.39648 C 3717.8251 285.39648 3715.2118 287.19457 3713.3984 290.79102 C 3712.0082 293.57146 3711.3125 296.74628 3711.3125 300.3125 C 3711.3125 303.87872 3712.0082 307.05159 3713.3984 309.83203 C 3715.2118 313.42848 3717.8251 315.22656 3721.2402 315.22656 C 3724.6856 315.22656 3727.3156 313.42848 3729.1289 309.83203 C 3730.5191 307.05159 3731.2148 303.87872 3731.2148 300.3125 C 3731.2148 296.71606 3730.5191 293.52654 3729.1289 290.74609 C 3727.3458 287.17987 3724.7158 285.39648 3721.2402 285.39648 z M 3721.332 289.97656 C 3723.0245 289.97656 3724.3071 291.33664 3725.1836 294.05664 C 3725.8183 296.02109 3726.1367 298.10628 3726.1367 300.3125 C 3726.1367 302.57917 3725.8349 304.66436 3725.2305 306.56836 C 3724.3843 309.25814 3723.0849 310.60352 3721.332 310.60352 C 3719.6093 310.60352 3718.3247 309.25814 3717.4785 306.56836 C 3716.8741 304.66436 3716.5703 302.57917 3716.5703 300.3125 C 3716.5703 298.92228 3716.7065 297.5475 3716.9785 296.1875 C 3717.2808 294.64617 3717.7795 293.30079 3718.4746 292.15234 C 3719.3208 290.70168 3720.2742 289.97656 3721.332 289.97656 z M 3696.7656 296.14062 L 3696.7656 302.39648 L 3691.5527 302.39648 L 3696.7656 296.14062 z " transform="scale(0.26458334)" id="rect1576" inkscape:label="40"/>
    </g></svg>
