<?xml version='1.0' encoding='UTF-8'?>
<!-- Created with Inkscape (http://www.inkscape.org/) and export_objects.py -->
<svg xmlns:cc="http://creativecommons.org/ns#" xmlns:dc="http://purl.org/dc/elements/1.1/" xmlns:inkscape="http://www.inkscape.org/namespaces/inkscape" xmlns:rdf="http://www.w3.org/1999/02/22-rdf-syntax-ns#" xmlns:sodipodi="http://sodipodi.sourceforge.net/DTD/sodipodi-0.dtd" xmlns:xlink="http://www.w3.org/1999/xlink" xmlns="http://www.w3.org/2000/svg" version="1.1" width="0.75in" height="0.75in" viewBox="0 0 19.05 19.05" id="svg8" inkscape:version="0.92.3 (2405546, 2018-03-11)" sodipodi:docname="tile-63.svg"><sodipodi:namedview id="base" pagecolor="#ffffff" bordercolor="#666666" borderopacity="1.0" inkscape:pageopacity="0.0" inkscape:pageshadow="2" inkscape:zoom="1.372378" inkscape:cx="4212.1852" inkscape:cy="477.45784" inkscape:document-units="in" inkscape:current-layer="layer3" showgrid="true" units="in" inkscape:snap-others="true" inkscape:snap-grids="true" inkscape:window-width="1280" inkscape:window-height="940" inkscape:window-x="1909" inkscape:window-y="43" inkscape:window-maximized="1" inkscape:snap-midpoints="false" inkscape:object-nodes="true" inkscape:snap-text-baseline="true" inkscape:snap-smooth-nodes="false" showguides="false" inkscape:snap-object-midpoints="true" inkscape:snap-center="true" inkscape:snap-to-guides="false" inkscape:snap-nodes="true" inkscape:snap-intersection-paths="false">
    <inkscape:grid type="xygrid" id="grid10" units="pt" spacingx="3.1750001" spacingy="3.1750001"/>
    <sodipodi:guide position="380.20625,103.1875" orientation="0,1" id="guide9455" inkscape:locked="false"/>
  </sodipodi:namedview>
  <metadata id="metadata5">
    <rdf:RDF>
      <cc:Work rdf:about="">
        <dc:format>image/svg+xml</dc:format>
        <dc:type rdf:resource="http://purl.org/dc/dcmitype/StillImage"/>
        <dc:title/>
      </cc:Work>
    </rdf:RDF>
  </metadata>
  <g inkscape:groupmode="layer" inkscape:label="tile-" transform="matrix(1.000000,0.000000,0.000000,1.000000,-371.475000,-47.625000)"><path style="display:inline;opacity:1;fill:#000000;fill-opacity:1;stroke:none;stroke-width:0.66666669;stroke-linecap:butt;stroke-linejoin:miter;stroke-miterlimit:47.14606857;stroke-dasharray:none;stroke-dashoffset:0;stroke-opacity:1;paint-order:markers fill stroke" d="M 1404 180 L 1404 252 L 1476 252 L 1476 180 L 1404 180 z M 1440 185.95703 A 30.02157 30.02157 0 0 1 1470.0215 215.97852 A 30.02157 30.02157 0 0 1 1440 246 A 30.02157 30.02157 0 0 1 1409.9785 215.97852 A 30.02157 30.02157 0 0 1 1440 185.95703 z M 1427.8203 201.66992 C 1425.0096 203.63436 1422.6667 206.36922 1420.793 209.875 C 1418.9494 213.38078 1418.0273 216.7947 1418.0273 220.11914 C 1418.0273 223.23203 1418.8887 225.84734 1420.6113 227.96289 C 1422.4851 230.29 1425.0544 231.45312 1428.3184 231.45312 C 1431.1895 231.45312 1433.5931 230.54575 1435.5273 228.73242 C 1437.4918 226.88886 1438.4727 224.60867 1438.4727 221.88867 C 1438.4727 219.38023 1437.5819 217.23428 1435.7988 215.45117 C 1434.0157 213.63784 1431.7943 212.73047 1429.1348 212.73047 C 1427.4423 212.73047 1425.9314 213.03227 1424.6016 213.63672 C 1427.0194 208.01538 1430.5861 204.02725 1435.3008 201.66992 L 1427.8203 201.66992 z M 1442.2266 201.71484 L 1442.2266 206.33789 L 1453.6035 206.33789 L 1447.666 216.58398 C 1450.2954 216.58398 1452.2443 216.96124 1453.5137 217.7168 C 1454.9643 218.59324 1455.6895 220.07482 1455.6895 222.16016 C 1455.6895 223.33882 1455.2514 224.33634 1454.375 225.15234 C 1453.4986 225.96834 1452.4863 226.37695 1451.3379 226.37695 C 1448.9806 226.37695 1447.0316 224.89537 1445.4902 221.93359 L 1445.2168 221.93359 L 1441.8184 225.51562 C 1442.0601 226.66407 1442.8901 227.78114 1444.3105 228.86914 C 1445.4288 229.74559 1446.6086 230.39525 1447.8477 230.81836 C 1448.8148 231.1508 1449.8564 231.31641 1450.9746 231.31641 C 1453.8155 231.31641 1456.2486 230.45509 1458.2734 228.73242 C 1460.2983 226.97953 1461.3105 224.75814 1461.3105 222.06836 C 1461.3105 220.19458 1460.8118 218.42785 1459.8145 216.76562 C 1458.7567 214.92207 1457.3358 213.6835 1455.5527 213.04883 L 1462.0371 201.71484 L 1442.2266 201.71484 z M 1428.7715 217.49023 C 1429.9199 217.49023 1430.9321 217.9743 1431.8086 218.94141 C 1432.685 219.8783 1433.125 220.96597 1433.125 222.20508 C 1433.125 223.47441 1432.685 224.56208 1431.8086 225.46875 C 1430.9624 226.34519 1429.9502 226.7832 1428.7715 226.7832 C 1427.351 226.7832 1426.0978 226.31579 1425.0098 225.37891 C 1423.9218 224.41179 1423.377 223.20262 1423.377 221.75195 C 1423.377 220.60351 1423.5278 219.83234 1423.8301 219.43945 C 1424.8576 218.1399 1426.5048 217.49023 1428.7715 217.49023 z " transform="scale(0.26458334)" id="rect2254" inkscape:label="63"/>
    </g></svg>
