<?xml version='1.0' encoding='UTF-8'?>
<!-- Created with Inkscape (http://www.inkscape.org/) and export_objects.py -->
<svg xmlns:cc="http://creativecommons.org/ns#" xmlns:dc="http://purl.org/dc/elements/1.1/" xmlns:inkscape="http://www.inkscape.org/namespaces/inkscape" xmlns:rdf="http://www.w3.org/1999/02/22-rdf-syntax-ns#" xmlns:sodipodi="http://sodipodi.sourceforge.net/DTD/sodipodi-0.dtd" xmlns:xlink="http://www.w3.org/1999/xlink" xmlns="http://www.w3.org/2000/svg" version="1.1" width="0.75in" height="0.75in" viewBox="0 0 19.05 19.05" id="svg8" inkscape:version="0.92.3 (2405546, 2018-03-11)" sodipodi:docname="tile-27.svg"><sodipodi:namedview id="base" pagecolor="#ffffff" bordercolor="#666666" borderopacity="1.0" inkscape:pageopacity="0.0" inkscape:pageshadow="2" inkscape:zoom="1.372378" inkscape:cx="4746.9979" inkscape:cy="477.45784" inkscape:document-units="in" inkscape:current-layer="layer3" showgrid="true" units="in" inkscape:snap-others="true" inkscape:snap-grids="true" inkscape:window-width="1280" inkscape:window-height="940" inkscape:window-x="1909" inkscape:window-y="43" inkscape:window-maximized="1" inkscape:snap-midpoints="false" inkscape:object-nodes="true" inkscape:snap-text-baseline="true" inkscape:snap-smooth-nodes="false" showguides="false" inkscape:snap-object-midpoints="true" inkscape:snap-center="true" inkscape:snap-to-guides="false" inkscape:snap-nodes="true" inkscape:snap-intersection-paths="false">
    <inkscape:grid type="xygrid" id="grid10" units="pt" spacingx="3.1750001" spacingy="3.1750001"/>
    <sodipodi:guide position="380.20625,103.1875" orientation="0,1" id="guide9455" inkscape:locked="false"/>
  </sodipodi:namedview>
  <metadata id="metadata5">
    <rdf:RDF>
      <cc:Work rdf:about="">
        <dc:format>image/svg+xml</dc:format>
        <dc:type rdf:resource="http://purl.org/dc/dcmitype/StillImage"/>
        <dc:title/>
      </cc:Work>
    </rdf:RDF>
  </metadata>
  <g inkscape:groupmode="layer" inkscape:label="tile-" transform="matrix(1.000000,0.000000,0.000000,1.000000,-660.400000,-69.850000)"><path style="display:inline;opacity:1;fill:#000000;fill-opacity:1;stroke:none;stroke-width:0.66666663;stroke-linecap:butt;stroke-linejoin:miter;stroke-miterlimit:47.14606857;stroke-dasharray:none;stroke-dashoffset:0;stroke-opacity:1;paint-order:markers fill stroke" d="M 2496 264 L 2496 336 L 2568 336 L 2568 264 L 2496 264 z M 2532 269.95703 A 30.02157 30.02157 0 0 1 2562.0215 299.97852 A 30.02157 30.02157 0 0 1 2532 330 A 30.02157 30.02157 0 0 1 2501.9785 299.97852 A 30.02157 30.02157 0 0 1 2532 269.95703 z M 2519.8223 285.03516 C 2517.0418 285.03516 2514.2315 286.09148 2511.3906 288.20703 L 2511.3906 295.32617 L 2511.6172 295.32617 C 2514.2465 291.75995 2516.9814 289.97656 2519.8223 289.97656 C 2520.7592 289.97656 2521.5911 290.26367 2522.3164 290.83789 C 2523.072 291.41211 2523.4492 292.15193 2523.4492 293.05859 C 2523.4492 293.75371 2523.2523 294.66108 2522.8594 295.7793 C 2522.4665 296.8673 2522.0579 297.74331 2521.6348 298.4082 L 2510.8457 315 L 2530.1133 315 L 2530.1133 310.60352 L 2519.9121 310.60352 C 2521.7859 307.88352 2523.6594 305.14671 2525.5332 302.39648 C 2527.8603 298.76982 2529.0254 295.80861 2529.0254 293.51172 C 2529.0254 290.82194 2528.1935 288.73675 2526.5312 287.25586 C 2524.8993 285.77497 2522.6632 285.03516 2519.8223 285.03516 z M 2543.373 285.66992 C 2540.5624 287.63437 2538.2195 290.36922 2536.3457 293.875 C 2534.5022 297.38078 2533.5801 300.7947 2533.5801 304.11914 C 2533.5801 307.23203 2534.4414 309.84734 2536.1641 311.96289 C 2538.0379 314.29 2540.6071 315.45312 2543.8711 315.45312 C 2546.7422 315.45313 2549.1439 314.54576 2551.0781 312.73242 C 2553.0426 310.88887 2554.0254 308.60867 2554.0254 305.88867 C 2554.0254 303.38023 2553.1347 301.23428 2551.3516 299.45117 C 2549.5685 297.63784 2547.3471 296.73047 2544.6875 296.73047 C 2542.9951 296.73047 2541.4841 297.03227 2540.1543 297.63672 C 2542.5721 292.01538 2546.1369 288.02725 2550.8516 285.66992 L 2543.373 285.66992 z M 2544.3242 301.49023 C 2545.4727 301.49023 2546.4849 301.9743 2547.3613 302.94141 C 2548.2378 303.8783 2548.6758 304.96597 2548.6758 306.20508 C 2548.6758 307.47441 2548.2378 308.56208 2547.3613 309.46875 C 2546.5151 310.34519 2545.5029 310.7832 2544.3242 310.7832 C 2542.9038 310.7832 2541.6505 310.3158 2540.5625 309.37891 C 2539.4745 308.4118 2538.9297 307.20262 2538.9297 305.75195 C 2538.9297 304.60351 2539.0806 303.83234 2539.3828 303.43945 C 2540.4104 302.1399 2542.0576 301.49023 2544.3242 301.49023 z " transform="scale(0.26458334)" id="rect1490" inkscape:label="27"/>
    </g></svg>
