<?xml version='1.0' encoding='UTF-8'?>
<!-- Created with Inkscape (http://www.inkscape.org/) and export_objects.py -->
<svg xmlns:cc="http://creativecommons.org/ns#" xmlns:dc="http://purl.org/dc/elements/1.1/" xmlns:inkscape="http://www.inkscape.org/namespaces/inkscape" xmlns:rdf="http://www.w3.org/1999/02/22-rdf-syntax-ns#" xmlns:sodipodi="http://sodipodi.sourceforge.net/DTD/sodipodi-0.dtd" xmlns:xlink="http://www.w3.org/1999/xlink" xmlns="http://www.w3.org/2000/svg" version="1.1" width="0.75in" height="0.75in" viewBox="0 0 19.05 19.05" id="svg8" inkscape:version="0.92.3 (2405546, 2018-03-11)" sodipodi:docname="tile-91.svg"><sodipodi:namedview id="base" pagecolor="#ffffff" bordercolor="#666666" borderopacity="1.0" inkscape:pageopacity="0.0" inkscape:pageshadow="2" inkscape:zoom="1.372378" inkscape:cx="4212.1852" inkscape:cy="477.45784" inkscape:document-units="in" inkscape:current-layer="layer3" showgrid="true" units="in" inkscape:snap-others="true" inkscape:snap-grids="true" inkscape:window-width="1280" inkscape:window-height="940" inkscape:window-x="1909" inkscape:window-y="43" inkscape:window-maximized="1" inkscape:snap-midpoints="false" inkscape:object-nodes="true" inkscape:snap-text-baseline="true" inkscape:snap-smooth-nodes="false" showguides="false" inkscape:snap-object-midpoints="true" inkscape:snap-center="true" inkscape:snap-to-guides="false" inkscape:snap-nodes="true" inkscape:snap-intersection-paths="false">
    <inkscape:grid type="xygrid" id="grid10" units="pt" spacingx="3.1750001" spacingy="3.1750001"/>
    <sodipodi:guide position="380.20625,103.1875" orientation="0,1" id="guide9455" inkscape:locked="false"/>
  </sodipodi:namedview>
  <metadata id="metadata5">
    <rdf:RDF>
      <cc:Work rdf:about="">
        <dc:format>image/svg+xml</dc:format>
        <dc:type rdf:resource="http://purl.org/dc/dcmitype/StillImage"/>
        <dc:title/>
      </cc:Work>
    </rdf:RDF>
  </metadata>
  <g inkscape:groupmode="layer" inkscape:label="tile-" transform="matrix(1.000000,0.000000,0.000000,1.000000,-993.775000,-47.625000)"><path style="display:inline;opacity:1;fill:#000000;fill-opacity:1;stroke:none;stroke-width:0.66666669;stroke-linecap:butt;stroke-linejoin:miter;stroke-miterlimit:47.14606857;stroke-dasharray:none;stroke-dashoffset:0;stroke-opacity:1;paint-order:markers fill stroke" d="M 3756 180 L 3756 252 L 3828 252 L 3828 180 L 3756 180 z M 3792 185.95703 A 30.02157 30.02157 0 0 1 3822.0215 215.97852 A 30.02157 30.02157 0 0 1 3792 246 A 30.02157 30.02157 0 0 1 3761.9785 215.97852 A 30.02157 30.02157 0 0 1 3792 185.95703 z M 3786.5703 201.26172 C 3783.6691 201.26172 3781.1753 202.18379 3779.0898 204.02734 C 3777.0347 205.84069 3776.0078 208.10617 3776.0078 210.82617 C 3776.0078 213.33462 3776.9132 215.46586 3778.7266 217.21875 C 3780.57 218.97162 3782.8226 219.84766 3785.4824 219.84766 C 3786.6306 219.84766 3788.0664 219.48508 3789.7891 218.75977 C 3788.2478 222.74911 3784.5741 226.82934 3778.7715 231 L 3785.7539 231 C 3788.8367 228.88445 3791.3305 226.25443 3793.2344 223.11133 C 3795.2592 219.78688 3796.2715 216.40237 3796.2715 212.95703 C 3796.2715 209.9348 3795.5003 207.32145 3793.959 205.11523 C 3792.1456 202.54634 3789.6831 201.26172 3786.5703 201.26172 z M 3801.1914 201.66992 L 3801.1914 231 L 3806.4492 231 L 3806.4492 201.66992 L 3801.1914 201.66992 z M 3786.252 205.92969 C 3787.763 205.92969 3788.987 206.67145 3789.9238 208.15234 C 3790.7097 209.4519 3791.1329 211.00697 3791.1934 212.82031 C 3790.1353 213.72697 3789.2447 214.33255 3788.5195 214.63477 C 3787.6732 215.02766 3786.6609 215.22461 3785.4824 215.22461 C 3784.3339 215.22461 3783.32 214.74054 3782.4434 213.77344 C 3781.567 212.80633 3781.1289 211.68731 3781.1289 210.41797 C 3781.1289 209.11842 3781.659 208.04545 3782.7168 207.19922 C 3783.7746 206.35301 3784.9523 205.92969 3786.252 205.92969 z " transform="scale(0.26458334)" id="rect2310" inkscape:label="91"/>
    </g></svg>
