<?xml version='1.0' encoding='UTF-8'?>
<!-- Created with Inkscape (http://www.inkscape.org/) and export_objects.py -->
<svg xmlns:cc="http://creativecommons.org/ns#" xmlns:dc="http://purl.org/dc/elements/1.1/" xmlns:inkscape="http://www.inkscape.org/namespaces/inkscape" xmlns:rdf="http://www.w3.org/1999/02/22-rdf-syntax-ns#" xmlns:sodipodi="http://sodipodi.sourceforge.net/DTD/sodipodi-0.dtd" xmlns:xlink="http://www.w3.org/1999/xlink" xmlns="http://www.w3.org/2000/svg" version="1.1" width="0.75in" height="0.75in" viewBox="0 0 19.05 19.05" id="svg8" inkscape:version="0.92.3 (2405546, 2018-03-11)" sodipodi:docname="tile-71.svg"><sodipodi:namedview id="base" pagecolor="#ffffff" bordercolor="#666666" borderopacity="1.0" inkscape:pageopacity="0.0" inkscape:pageshadow="2" inkscape:zoom="1.372378" inkscape:cx="4212.1852" inkscape:cy="477.45784" inkscape:document-units="in" inkscape:current-layer="layer3" showgrid="true" units="in" inkscape:snap-others="true" inkscape:snap-grids="true" inkscape:window-width="1280" inkscape:window-height="940" inkscape:window-x="1909" inkscape:window-y="43" inkscape:window-maximized="1" inkscape:snap-midpoints="false" inkscape:object-nodes="true" inkscape:snap-text-baseline="true" inkscape:snap-smooth-nodes="false" showguides="false" inkscape:snap-object-midpoints="true" inkscape:snap-center="true" inkscape:snap-to-guides="false" inkscape:snap-nodes="true" inkscape:snap-intersection-paths="false">
    <inkscape:grid type="xygrid" id="grid10" units="pt" spacingx="3.1750001" spacingy="3.1750001"/>
    <sodipodi:guide position="380.20625,103.1875" orientation="0,1" id="guide9455" inkscape:locked="false"/>
  </sodipodi:namedview>
  <metadata id="metadata5">
    <rdf:RDF>
      <cc:Work rdf:about="">
        <dc:format>image/svg+xml</dc:format>
        <dc:type rdf:resource="http://purl.org/dc/dcmitype/StillImage"/>
        <dc:title/>
      </cc:Work>
    </rdf:RDF>
  </metadata>
  <g inkscape:groupmode="layer" inkscape:label="tile-" transform="matrix(1.000000,0.000000,0.000000,1.000000,-749.300000,-47.625000)"><path style="display:inline;opacity:1;fill:#000000;fill-opacity:1;stroke:none;stroke-width:0.66666669;stroke-linecap:butt;stroke-linejoin:miter;stroke-miterlimit:47.14606857;stroke-dasharray:none;stroke-dashoffset:0;stroke-opacity:1;paint-order:markers fill stroke" d="M 2832 180 L 2832 252 L 2904 252 L 2904 180 L 2832 180 z M 2868 185.95703 A 30.02157 30.02157 0 0 1 2898.0215 215.97852 A 30.02157 30.02157 0 0 1 2868 246 A 30.02157 30.02157 0 0 1 2837.9785 215.97852 A 30.02157 30.02157 0 0 1 2868 185.95703 z M 2856.4238 201.35156 C 2854.1874 201.35156 2852.3139 201.92577 2850.8027 203.07422 C 2849.1707 204.31332 2848.3555 205.97523 2848.3555 208.06055 C 2848.3555 210.56899 2849.548 212.80704 2851.9355 214.77148 C 2848.7018 217.00793 2847.0859 219.74277 2847.0859 222.97656 C 2847.0859 225.60588 2847.9326 227.67637 2849.625 229.1875 C 2851.3477 230.66837 2853.5985 231.4082 2856.3789 231.4082 C 2858.9176 231.4082 2861.1076 230.50082 2862.9512 228.6875 C 2864.7947 226.87416 2865.7168 224.77427 2865.7168 222.38672 C 2865.7168 219.48538 2864.0863 216.97688 2860.8223 214.86133 C 2863.1191 212.92712 2864.2676 210.69103 2864.2676 208.15234 C 2864.2676 206.06703 2863.5111 204.38848 2862 203.11914 C 2860.5191 201.94048 2858.6603 201.35156 2856.4238 201.35156 z M 2878.3633 201.39648 C 2874.9482 201.39648 2872.3329 203.19652 2870.5195 206.79297 C 2869.1293 209.57342 2868.4355 212.74629 2868.4355 216.3125 C 2868.4355 219.87874 2869.1293 223.05158 2870.5195 225.83203 C 2872.3329 229.42848 2874.9482 231.22656 2878.3633 231.22656 C 2881.8086 231.22656 2884.4367 229.42848 2886.25 225.83203 C 2887.6402 223.05158 2888.3359 219.87874 2888.3359 216.3125 C 2888.3359 212.71605 2887.6402 209.52652 2886.25 206.74609 C 2884.4669 203.17986 2881.8388 201.39648 2878.3633 201.39648 z M 2856.4238 205.20508 C 2857.1189 205.20508 2857.7833 205.50688 2858.418 206.11133 C 2859.0526 206.71578 2859.3711 207.41148 2859.3711 208.19727 C 2859.3711 209.64792 2858.403 211.05406 2856.4688 212.41406 C 2854.4136 211.05406 2853.3867 209.52643 2853.3867 207.83398 C 2853.3867 207.04822 2853.7199 206.39855 2854.3848 205.88477 C 2854.959 205.43142 2855.638 205.20508 2856.4238 205.20508 z M 2878.4531 205.97656 C 2880.1456 205.97656 2881.4302 207.33664 2882.3066 210.05664 C 2882.9413 212.02109 2883.2578 214.10629 2883.2578 216.3125 C 2883.2578 218.57918 2882.956 220.66436 2882.3516 222.56836 C 2881.5053 225.25812 2880.206 226.60352 2878.4531 226.60352 C 2876.7304 226.60352 2875.4458 225.25812 2874.5996 222.56836 C 2873.9952 220.66436 2873.6934 218.57918 2873.6934 216.3125 C 2873.6934 214.92229 2873.8296 213.5475 2874.1016 212.1875 C 2874.4038 210.64616 2874.9025 209.30079 2875.5977 208.15234 C 2876.4439 206.70169 2877.3953 205.97656 2878.4531 205.97656 z M 2856.1074 217.53516 C 2859.1599 219.3485 2860.6855 220.95159 2860.6855 222.3418 C 2860.6855 223.49024 2860.2162 224.51714 2859.2793 225.42383 C 2858.3424 226.33049 2857.3449 226.7832 2856.2871 226.7832 C 2855.2596 226.7832 2854.3081 226.39126 2853.4316 225.60547 C 2852.5854 224.78947 2852.1621 223.838 2852.1621 222.75 C 2852.1621 220.93668 2853.4781 219.19739 2856.1074 217.53516 z " transform="scale(0.26458334)" id="rect2270" inkscape:label="71"/>
    </g></svg>
