<?xml version='1.0' encoding='UTF-8'?>
<!-- Created with Inkscape (http://www.inkscape.org/) and export_objects.py -->
<svg xmlns:cc="http://creativecommons.org/ns#" xmlns:dc="http://purl.org/dc/elements/1.1/" xmlns:inkscape="http://www.inkscape.org/namespaces/inkscape" xmlns:rdf="http://www.w3.org/1999/02/22-rdf-syntax-ns#" xmlns:sodipodi="http://sodipodi.sourceforge.net/DTD/sodipodi-0.dtd" xmlns:xlink="http://www.w3.org/1999/xlink" xmlns="http://www.w3.org/2000/svg" version="1.1" width="0.75in" height="0.75in" viewBox="0 0 19.05 19.05" id="svg8" inkscape:version="0.92.3 (2405546, 2018-03-11)" sodipodi:docname="tile-62.svg"><sodipodi:namedview id="base" pagecolor="#ffffff" bordercolor="#666666" borderopacity="1.0" inkscape:pageopacity="0.0" inkscape:pageshadow="2" inkscape:zoom="1.372378" inkscape:cx="4212.1852" inkscape:cy="477.45784" inkscape:document-units="in" inkscape:current-layer="layer3" showgrid="true" units="in" inkscape:snap-others="true" inkscape:snap-grids="true" inkscape:window-width="1280" inkscape:window-height="940" inkscape:window-x="1909" inkscape:window-y="43" inkscape:window-maximized="1" inkscape:snap-midpoints="false" inkscape:object-nodes="true" inkscape:snap-text-baseline="true" inkscape:snap-smooth-nodes="false" showguides="false" inkscape:snap-object-midpoints="true" inkscape:snap-center="true" inkscape:snap-to-guides="false" inkscape:snap-nodes="true" inkscape:snap-intersection-paths="false">
    <inkscape:grid type="xygrid" id="grid10" units="pt" spacingx="3.1750001" spacingy="3.1750001"/>
    <sodipodi:guide position="380.20625,103.1875" orientation="0,1" id="guide9455" inkscape:locked="false"/>
  </sodipodi:namedview>
  <metadata id="metadata5">
    <rdf:RDF>
      <cc:Work rdf:about="">
        <dc:format>image/svg+xml</dc:format>
        <dc:type rdf:resource="http://purl.org/dc/dcmitype/StillImage"/>
        <dc:title/>
      </cc:Work>
    </rdf:RDF>
  </metadata>
  <g inkscape:groupmode="layer" inkscape:label="tile-" transform="matrix(1.000000,0.000000,0.000000,1.000000,-349.250000,-47.625000)"><path style="display:inline;opacity:1;fill:#000000;fill-opacity:1;stroke:none;stroke-width:0.66666669;stroke-linecap:butt;stroke-linejoin:miter;stroke-miterlimit:47.14606857;stroke-dasharray:none;stroke-dashoffset:0;stroke-opacity:1;paint-order:markers fill stroke" d="M 1320 180 L 1320 252 L 1392 252 L 1392 180 L 1320 180 z M 1356 185.95703 A 30.02157 30.02157 0 0 1 1386.0215 215.97852 A 30.02157 30.02157 0 0 1 1356 246 A 30.02157 30.02157 0 0 1 1325.9785 215.97852 A 30.02157 30.02157 0 0 1 1356 185.95703 z M 1366.9316 201.03516 C 1364.1512 201.03516 1361.3409 202.09148 1358.5 204.20703 L 1358.5 211.32617 L 1358.7266 211.32617 C 1361.3559 207.75995 1364.0907 205.97656 1366.9316 205.97656 C 1367.8685 205.97656 1368.7004 206.26367 1369.4258 206.83789 C 1370.1813 207.41211 1370.5586 208.15193 1370.5586 209.05859 C 1370.5586 209.7537 1370.3616 210.66107 1369.9688 211.7793 C 1369.5759 212.8673 1369.1672 213.74331 1368.7441 214.4082 L 1357.9551 231 L 1377.2227 231 L 1377.2227 226.60352 L 1367.0215 226.60352 C 1368.8953 223.88352 1370.7708 221.14671 1372.6445 218.39648 C 1374.9716 214.76982 1376.1348 211.80861 1376.1348 209.51172 C 1376.1348 206.82194 1375.3028 204.73675 1373.6406 203.25586 C 1372.0086 201.77497 1369.7725 201.03516 1366.9316 201.03516 z M 1343.7324 201.66992 C 1340.9217 203.63436 1338.5788 206.36922 1336.7051 209.875 C 1334.8615 213.38078 1333.9395 216.7947 1333.9395 220.11914 C 1333.9395 223.23203 1334.8008 225.84734 1336.5234 227.96289 C 1338.3972 230.29 1340.9664 231.45312 1344.2305 231.45312 C 1347.1016 231.45312 1349.5033 230.54575 1351.4375 228.73242 C 1353.4019 226.88886 1354.3848 224.60867 1354.3848 221.88867 C 1354.3848 219.38023 1353.494 217.23428 1351.7109 215.45117 C 1349.9278 213.63784 1347.7064 212.73047 1345.0469 212.73047 C 1343.3544 212.73047 1341.8435 213.03227 1340.5137 213.63672 C 1342.9315 208.01538 1346.4963 204.02725 1351.2109 201.66992 L 1343.7324 201.66992 z M 1344.6836 217.49023 C 1345.832 217.49023 1346.8443 217.9743 1347.7207 218.94141 C 1348.5972 219.8783 1349.0352 220.96597 1349.0352 222.20508 C 1349.0352 223.47441 1348.5972 224.56208 1347.7207 225.46875 C 1346.8745 226.34519 1345.8623 226.7832 1344.6836 226.7832 C 1343.2631 226.7832 1342.0099 226.31579 1340.9219 225.37891 C 1339.8339 224.41179 1339.2891 223.20262 1339.2891 221.75195 C 1339.2891 220.60351 1339.44 219.83234 1339.7422 219.43945 C 1340.7698 218.1399 1342.4169 217.49023 1344.6836 217.49023 z " transform="scale(0.26458334)" id="rect2252" inkscape:label="62"/>
    </g></svg>
