<?xml version='1.0' encoding='UTF-8'?>
<!-- Created with Inkscape (http://www.inkscape.org/) and export_objects.py -->
<svg xmlns:cc="http://creativecommons.org/ns#" xmlns:dc="http://purl.org/dc/elements/1.1/" xmlns:inkscape="http://www.inkscape.org/namespaces/inkscape" xmlns:rdf="http://www.w3.org/1999/02/22-rdf-syntax-ns#" xmlns:sodipodi="http://sodipodi.sourceforge.net/DTD/sodipodi-0.dtd" xmlns:xlink="http://www.w3.org/1999/xlink" xmlns="http://www.w3.org/2000/svg" version="1.1" width="0.75in" height="0.75in" viewBox="0 0 19.05 19.05" id="svg8" inkscape:version="0.92.3 (2405546, 2018-03-11)" sodipodi:docname="tile-33.svg"><sodipodi:namedview id="base" pagecolor="#ffffff" bordercolor="#666666" borderopacity="1.0" inkscape:pageopacity="0.0" inkscape:pageshadow="2" inkscape:zoom="1.372378" inkscape:cx="4746.9979" inkscape:cy="477.45784" inkscape:document-units="in" inkscape:current-layer="layer3" showgrid="true" units="in" inkscape:snap-others="true" inkscape:snap-grids="true" inkscape:window-width="1280" inkscape:window-height="940" inkscape:window-x="1909" inkscape:window-y="43" inkscape:window-maximized="1" inkscape:snap-midpoints="false" inkscape:object-nodes="true" inkscape:snap-text-baseline="true" inkscape:snap-smooth-nodes="false" showguides="false" inkscape:snap-object-midpoints="true" inkscape:snap-center="true" inkscape:snap-to-guides="false" inkscape:snap-nodes="true" inkscape:snap-intersection-paths="false">
    <inkscape:grid type="xygrid" id="grid10" units="pt" spacingx="3.1750001" spacingy="3.1750001"/>
    <sodipodi:guide position="380.20625,103.1875" orientation="0,1" id="guide9455" inkscape:locked="false"/>
  </sodipodi:namedview>
  <metadata id="metadata5">
    <rdf:RDF>
      <cc:Work rdf:about="">
        <dc:format>image/svg+xml</dc:format>
        <dc:type rdf:resource="http://purl.org/dc/dcmitype/StillImage"/>
        <dc:title/>
      </cc:Work>
    </rdf:RDF>
  </metadata>
  <g inkscape:groupmode="layer" inkscape:label="tile-" transform="matrix(1.000000,0.000000,0.000000,1.000000,-815.975000,-69.850000)"><path style="display:inline;opacity:1;fill:#000000;fill-opacity:1;stroke:none;stroke-width:0.66666663;stroke-linecap:butt;stroke-linejoin:miter;stroke-miterlimit:47.14606857;stroke-dasharray:none;stroke-dashoffset:0;stroke-opacity:1;paint-order:markers fill stroke" d="M 3084 264 L 3084 336 L 3156 336 L 3156 264 L 3084 264 z M 3120 269.95703 A 30.02157 30.02157 0 0 1 3150.0215 299.97852 A 30.02157 30.02157 0 0 1 3120 330 A 30.02157 30.02157 0 0 1 3089.9785 299.97852 A 30.02157 30.02157 0 0 1 3120 269.95703 z M 3098.9395 285.71484 L 3098.9395 290.33789 L 3110.3184 290.33789 L 3104.3789 300.58398 C 3107.0082 300.58398 3108.9572 300.96124 3110.2266 301.7168 C 3111.6772 302.59324 3112.4023 304.07482 3112.4023 306.16016 C 3112.4023 307.33882 3111.9643 308.33634 3111.0879 309.15234 C 3110.2114 309.96834 3109.1992 310.375 3108.0508 310.375 C 3105.6934 310.375 3103.7444 308.89537 3102.2031 305.93359 L 3101.9316 305.93359 L 3098.5312 309.51367 C 3098.773 310.66212 3099.603 311.78114 3101.0234 312.86914 C 3102.1417 313.74559 3103.3214 314.39525 3104.5605 314.81836 C 3105.5277 315.1508 3106.5693 315.31641 3107.6875 315.31641 C 3110.5284 315.31641 3112.9614 314.45509 3114.9863 312.73242 C 3117.0112 310.97953 3118.0234 308.75814 3118.0234 306.06836 C 3118.0234 304.19458 3117.5247 302.42785 3116.5273 300.76562 C 3115.4696 298.92207 3114.0507 297.68349 3112.2676 297.04883 L 3118.75 285.71484 L 3098.9395 285.71484 z M 3122.4023 285.71484 L 3122.4023 290.33789 L 3133.7812 290.33789 L 3127.8418 300.58398 C 3130.4711 300.58398 3132.4221 300.96124 3133.6914 301.7168 C 3135.1421 302.59324 3135.8672 304.07482 3135.8672 306.16016 C 3135.8672 307.33882 3135.4292 308.33634 3134.5527 309.15234 C 3133.6763 309.96834 3132.6621 310.375 3131.5137 310.375 C 3129.1564 310.375 3127.2074 308.89537 3125.666 305.93359 L 3125.3945 305.93359 L 3121.9941 309.51367 C 3122.2359 310.66212 3123.0679 311.78114 3124.4883 312.86914 C 3125.6065 313.74559 3126.7843 314.39525 3128.0234 314.81836 C 3128.9905 315.1508 3130.0341 315.31641 3131.1523 315.31641 C 3133.9932 315.31641 3136.4263 314.45509 3138.4512 312.73242 C 3140.4761 310.97953 3141.4883 308.75814 3141.4883 306.06836 C 3141.4883 304.19458 3140.9895 302.42785 3139.9922 300.76562 C 3138.9344 298.92207 3137.5136 297.68349 3135.7305 297.04883 L 3142.2129 285.71484 L 3122.4023 285.71484 z " transform="scale(0.26458334)" id="rect1562" inkscape:label="33"/>
    </g></svg>
