<?xml version='1.0' encoding='UTF-8'?>
<!-- Created with Inkscape (http://www.inkscape.org/) and export_objects.py -->
<svg xmlns:cc="http://creativecommons.org/ns#" xmlns:dc="http://purl.org/dc/elements/1.1/" xmlns:inkscape="http://www.inkscape.org/namespaces/inkscape" xmlns:rdf="http://www.w3.org/1999/02/22-rdf-syntax-ns#" xmlns:sodipodi="http://sodipodi.sourceforge.net/DTD/sodipodi-0.dtd" xmlns:xlink="http://www.w3.org/1999/xlink" xmlns="http://www.w3.org/2000/svg" version="1.1" width="0.75in" height="0.75in" viewBox="0 0 19.05 19.05" id="svg8" inkscape:version="0.92.3 (2405546, 2018-03-11)" sodipodi:docname="tile-10.svg"><sodipodi:namedview id="base" pagecolor="#ffffff" bordercolor="#666666" borderopacity="1.0" inkscape:pageopacity="0.0" inkscape:pageshadow="2" inkscape:zoom="1.372378" inkscape:cx="4746.9979" inkscape:cy="477.45784" inkscape:document-units="in" inkscape:current-layer="layer3" showgrid="true" units="in" inkscape:snap-others="true" inkscape:snap-grids="true" inkscape:window-width="1280" inkscape:window-height="940" inkscape:window-x="1909" inkscape:window-y="43" inkscape:window-maximized="1" inkscape:snap-midpoints="false" inkscape:object-nodes="true" inkscape:snap-text-baseline="true" inkscape:snap-smooth-nodes="false" showguides="false" inkscape:snap-object-midpoints="true" inkscape:snap-center="true" inkscape:snap-to-guides="false" inkscape:snap-nodes="true" inkscape:snap-intersection-paths="false">
    <inkscape:grid type="xygrid" id="grid10" units="pt" spacingx="3.1750001" spacingy="3.1750001"/>
    <sodipodi:guide position="380.20625,103.1875" orientation="0,1" id="guide9455" inkscape:locked="false"/>
  </sodipodi:namedview>
  <metadata id="metadata5">
    <rdf:RDF>
      <cc:Work rdf:about="">
        <dc:format>image/svg+xml</dc:format>
        <dc:type rdf:resource="http://purl.org/dc/dcmitype/StillImage"/>
        <dc:title/>
      </cc:Work>
    </rdf:RDF>
  </metadata>
  <g inkscape:groupmode="layer" inkscape:label="tile-" transform="matrix(1.000000,0.000000,0.000000,1.000000,-304.800000,-69.850000)"><path style="display:inline;opacity:1;fill:#000000;fill-opacity:1;stroke:none;stroke-width:0.66666663;stroke-linecap:butt;stroke-linejoin:miter;stroke-miterlimit:47.14606857;stroke-dasharray:none;stroke-dashoffset:0;stroke-opacity:1;paint-order:markers fill stroke" d="M 1152 264 L 1152 336 L 1224 336 L 1224 264 L 1152 264 z M 1188 269.95703 A 30.02157 30.02157 0 0 1 1218.0215 299.97852 A 30.02157 30.02157 0 0 1 1188 330 A 30.02157 30.02157 0 0 1 1157.9785 299.97852 A 30.02157 30.02157 0 0 1 1188 269.95703 z M 1193.5371 285.39648 C 1190.122 285.39648 1187.5087 287.19652 1185.6953 290.79297 C 1184.3051 293.57341 1183.6094 296.74628 1183.6094 300.3125 C 1183.6094 303.87872 1184.3051 307.05159 1185.6953 309.83203 C 1187.5087 313.42848 1190.122 315.22656 1193.5371 315.22656 C 1196.9825 315.22656 1199.6125 313.42848 1201.4258 309.83203 C 1202.816 307.05159 1203.5098 303.87872 1203.5098 300.3125 C 1203.5098 296.71606 1202.816 293.52654 1201.4258 290.74609 C 1199.6427 287.17987 1197.0127 285.39648 1193.5371 285.39648 z M 1173.8613 285.66992 L 1173.8613 315 L 1179.1191 315 L 1179.1191 285.66992 L 1173.8613 285.66992 z M 1193.627 289.97656 C 1195.3194 289.97656 1196.604 291.33664 1197.4805 294.05664 C 1198.1151 296.02109 1198.4336 298.10628 1198.4336 300.3125 C 1198.4336 302.57917 1198.1318 304.66436 1197.5273 306.56836 C 1196.6811 309.25814 1195.3798 310.60352 1193.627 310.60352 C 1191.9043 310.60352 1190.6216 309.25814 1189.7754 306.56836 C 1189.1709 304.66436 1188.8672 302.57917 1188.8672 300.3125 C 1188.8672 298.92228 1189.0034 297.5475 1189.2754 296.1875 C 1189.5776 294.64617 1190.0764 293.30079 1190.7715 292.15234 C 1191.6177 290.70168 1192.5692 289.97656 1193.627 289.97656 z " transform="scale(0.26458334)" id="rect1390" inkscape:label="10"/>
    </g></svg>
