<?xml version='1.0' encoding='UTF-8'?>
<!-- Created with Inkscape (http://www.inkscape.org/) and export_objects.py -->
<svg xmlns:cc="http://creativecommons.org/ns#" xmlns:dc="http://purl.org/dc/elements/1.1/" xmlns:inkscape="http://www.inkscape.org/namespaces/inkscape" xmlns:rdf="http://www.w3.org/1999/02/22-rdf-syntax-ns#" xmlns:sodipodi="http://sodipodi.sourceforge.net/DTD/sodipodi-0.dtd" xmlns:xlink="http://www.w3.org/1999/xlink" xmlns="http://www.w3.org/2000/svg" version="1.1" width="0.75in" height="0.75in" viewBox="0 0 19.05 19.05" id="svg8" inkscape:version="0.92.3 (2405546, 2018-03-11)" sodipodi:docname="tile-23.svg"><sodipodi:namedview id="base" pagecolor="#ffffff" bordercolor="#666666" borderopacity="1.0" inkscape:pageopacity="0.0" inkscape:pageshadow="2" inkscape:zoom="1.372378" inkscape:cx="4746.9979" inkscape:cy="477.45784" inkscape:document-units="in" inkscape:current-layer="layer3" showgrid="true" units="in" inkscape:snap-others="true" inkscape:snap-grids="true" inkscape:window-width="1280" inkscape:window-height="940" inkscape:window-x="1909" inkscape:window-y="43" inkscape:window-maximized="1" inkscape:snap-midpoints="false" inkscape:object-nodes="true" inkscape:snap-text-baseline="true" inkscape:snap-smooth-nodes="false" showguides="false" inkscape:snap-object-midpoints="true" inkscape:snap-center="true" inkscape:snap-to-guides="false" inkscape:snap-nodes="true" inkscape:snap-intersection-paths="false">
    <inkscape:grid type="xygrid" id="grid10" units="pt" spacingx="3.1750001" spacingy="3.1750001"/>
    <sodipodi:guide position="380.20625,103.1875" orientation="0,1" id="guide9455" inkscape:locked="false"/>
  </sodipodi:namedview>
  <metadata id="metadata5">
    <rdf:RDF>
      <cc:Work rdf:about="">
        <dc:format>image/svg+xml</dc:format>
        <dc:type rdf:resource="http://purl.org/dc/dcmitype/StillImage"/>
        <dc:title/>
      </cc:Work>
    </rdf:RDF>
  </metadata>
  <g inkscape:groupmode="layer" inkscape:label="tile-" transform="matrix(1.000000,0.000000,0.000000,1.000000,-571.500000,-69.850000)"><path style="display:inline;opacity:1;fill:#000000;fill-opacity:1;stroke:none;stroke-width:0.66666663;stroke-linecap:butt;stroke-linejoin:miter;stroke-miterlimit:47.14606857;stroke-dasharray:none;stroke-dashoffset:0;stroke-opacity:1;paint-order:markers fill stroke" d="M 2160 264 L 2160 336 L 2232 336 L 2232 264 L 2160 264 z M 2196 269.95703 A 30.02157 30.02157 0 0 1 2226.0215 299.97852 A 30.02157 30.02157 0 0 1 2196 330 A 30.02157 30.02157 0 0 1 2165.9785 299.97852 A 30.02157 30.02157 0 0 1 2196 269.95703 z M 2183.5566 285.03516 C 2180.7762 285.03516 2177.9659 286.09343 2175.125 288.20898 L 2175.125 295.32617 L 2175.3516 295.32617 C 2177.9809 291.75995 2180.7157 289.97656 2183.5566 289.97656 C 2184.4935 289.97656 2185.3255 290.26367 2186.0508 290.83789 C 2186.8064 291.41211 2187.1836 292.15193 2187.1836 293.05859 C 2187.1836 293.7537 2186.9866 294.66108 2186.5938 295.7793 C 2186.2009 296.8673 2185.7922 297.74331 2185.3691 298.4082 L 2174.5801 315 L 2193.8477 315 L 2193.8477 310.60352 L 2183.6465 310.60352 C 2185.5202 307.88352 2187.3938 305.14671 2189.2676 302.39648 C 2191.5947 298.76982 2192.7598 295.80861 2192.7598 293.51172 C 2192.7598 290.82194 2191.9278 288.73675 2190.2656 287.25586 C 2188.6336 285.77497 2186.3975 285.03516 2183.5566 285.03516 z M 2207.1973 285.03516 C 2204.4168 285.03516 2201.6065 286.09343 2198.7656 288.20898 L 2198.7656 295.32617 L 2198.9922 295.32617 C 2201.6215 291.75995 2204.3564 289.97656 2207.1973 289.97656 C 2208.1341 289.97656 2208.9661 290.26367 2209.6914 290.83789 C 2210.447 291.41211 2210.8242 292.15193 2210.8242 293.05859 C 2210.8242 293.7537 2210.6273 294.66108 2210.2344 295.7793 C 2209.8415 296.8673 2209.4329 297.74331 2209.0098 298.4082 L 2198.2207 315 L 2217.4883 315 L 2217.4883 310.60352 L 2207.2871 310.60352 C 2209.1609 307.88352 2211.0344 305.14671 2212.9082 302.39648 C 2215.2353 298.76982 2216.4004 295.80861 2216.4004 293.51172 C 2216.4004 290.82194 2215.5685 288.73675 2213.9062 287.25586 C 2212.2743 285.77497 2210.0381 285.03516 2207.1973 285.03516 z " transform="scale(0.26458334)" id="rect1482" inkscape:label="23"/>
    </g></svg>
