<?xml version='1.0' encoding='UTF-8'?>
<!-- Created with Inkscape (http://www.inkscape.org/) and export_objects.py -->
<svg xmlns:cc="http://creativecommons.org/ns#" xmlns:dc="http://purl.org/dc/elements/1.1/" xmlns:inkscape="http://www.inkscape.org/namespaces/inkscape" xmlns:rdf="http://www.w3.org/1999/02/22-rdf-syntax-ns#" xmlns:sodipodi="http://sodipodi.sourceforge.net/DTD/sodipodi-0.dtd" xmlns:xlink="http://www.w3.org/1999/xlink" xmlns="http://www.w3.org/2000/svg" version="1.1" width="0.75in" height="0.75in" viewBox="0 0 19.05 19.05" id="svg8" inkscape:version="0.92.3 (2405546, 2018-03-11)" sodipodi:docname="tile-93.svg"><sodipodi:namedview id="base" pagecolor="#ffffff" bordercolor="#666666" borderopacity="1.0" inkscape:pageopacity="0.0" inkscape:pageshadow="2" inkscape:zoom="1.372378" inkscape:cx="4212.1852" inkscape:cy="477.45784" inkscape:document-units="in" inkscape:current-layer="layer3" showgrid="true" units="in" inkscape:snap-others="true" inkscape:snap-grids="true" inkscape:window-width="1280" inkscape:window-height="940" inkscape:window-x="1909" inkscape:window-y="43" inkscape:window-maximized="1" inkscape:snap-midpoints="false" inkscape:object-nodes="true" inkscape:snap-text-baseline="true" inkscape:snap-smooth-nodes="false" showguides="false" inkscape:snap-object-midpoints="true" inkscape:snap-center="true" inkscape:snap-to-guides="false" inkscape:snap-nodes="true" inkscape:snap-intersection-paths="false">
    <inkscape:grid type="xygrid" id="grid10" units="pt" spacingx="3.1750001" spacingy="3.1750001"/>
    <sodipodi:guide position="380.20625,103.1875" orientation="0,1" id="guide9455" inkscape:locked="false"/>
  </sodipodi:namedview>
  <metadata id="metadata5">
    <rdf:RDF>
      <cc:Work rdf:about="">
        <dc:format>image/svg+xml</dc:format>
        <dc:type rdf:resource="http://purl.org/dc/dcmitype/StillImage"/>
        <dc:title/>
      </cc:Work>
    </rdf:RDF>
  </metadata>
  <g inkscape:groupmode="layer" inkscape:label="tile-" transform="matrix(1.000000,0.000000,0.000000,1.000000,-1038.225000,-47.625000)"><path style="display:inline;opacity:1;fill:#000000;fill-opacity:1;stroke:none;stroke-width:0.66666669;stroke-linecap:butt;stroke-linejoin:miter;stroke-miterlimit:47.14606857;stroke-dasharray:none;stroke-dashoffset:0;stroke-opacity:1;paint-order:markers fill stroke" d="M 3924 180 L 3924 252 L 3996 252 L 3996 180 L 3924 180 z M 3960 185.95703 A 30.02157 30.02157 0 0 1 3990.0215 215.97852 A 30.02157 30.02157 0 0 1 3960 246 A 30.02157 30.02157 0 0 1 3929.9785 215.97852 A 30.02157 30.02157 0 0 1 3960 185.95703 z M 3948.4609 201.26172 C 3945.5595 201.26172 3943.0658 202.18379 3940.9805 204.02734 C 3938.9254 205.84069 3937.8984 208.10617 3937.8984 210.82617 C 3937.8984 213.33462 3938.804 215.46586 3940.6172 217.21875 C 3942.4608 218.97162 3944.7135 219.84766 3947.373 219.84766 C 3948.5215 219.84766 3949.957 219.48508 3951.6797 218.75977 C 3950.1384 222.74911 3946.4649 226.82934 3940.6621 231 L 3947.6445 231 C 3950.7271 228.88445 3953.2209 226.25443 3955.125 223.11133 C 3957.1498 219.78688 3958.1621 216.40237 3958.1621 212.95703 C 3958.1621 209.9348 3957.3909 207.32145 3955.8496 205.11523 C 3954.0362 202.54634 3951.5738 201.26172 3948.4609 201.26172 z M 3962.4473 201.71484 L 3962.4473 206.33789 L 3973.8262 206.33789 L 3967.8867 216.58398 C 3970.516 216.58398 3972.465 216.96122 3973.7344 217.7168 C 3975.185 218.59322 3975.9102 220.07481 3975.9102 222.16016 C 3975.9102 223.33884 3975.472 224.33634 3974.5957 225.15234 C 3973.7191 225.96834 3972.7071 226.375 3971.5586 226.375 C 3969.2014 226.375 3967.2522 224.89538 3965.7109 221.93359 L 3965.4395 221.93359 L 3962.0391 225.51367 C 3962.2807 226.66212 3963.1126 227.78114 3964.5332 228.86914 C 3965.6514 229.74559 3966.8294 230.39525 3968.0684 230.81836 C 3969.0357 231.15081 3970.079 231.31641 3971.1973 231.31641 C 3974.038 231.31641 3976.4691 230.45508 3978.4941 228.73242 C 3980.519 226.97953 3981.5332 224.75815 3981.5332 222.06836 C 3981.5332 220.1946 3981.0344 218.42786 3980.0371 216.76562 C 3978.9793 214.92207 3977.5586 213.68349 3975.7754 213.04883 L 3982.2578 201.71484 L 3962.4473 201.71484 z M 3948.1426 205.92969 C 3949.6536 205.92969 3950.8774 206.67145 3951.8145 208.15234 C 3952.6001 209.4519 3953.0235 211.00697 3953.084 212.82031 C 3952.0262 213.72697 3951.1356 214.33255 3950.4102 214.63477 C 3949.564 215.02766 3948.5518 215.22461 3947.373 215.22461 C 3946.2246 215.22461 3945.2103 214.74054 3944.334 213.77344 C 3943.4574 212.80633 3943.0195 211.68731 3943.0195 210.41797 C 3943.0195 209.11842 3943.5497 208.04545 3944.6074 207.19922 C 3945.6652 206.35301 3946.8429 205.92969 3948.1426 205.92969 z " transform="scale(0.26458334)" id="rect2314" inkscape:label="93"/>
    </g></svg>
