<?xml version='1.0' encoding='UTF-8'?>
<!-- Created with Inkscape (http://www.inkscape.org/) and export_objects.py -->
<svg xmlns:cc="http://creativecommons.org/ns#" xmlns:dc="http://purl.org/dc/elements/1.1/" xmlns:inkscape="http://www.inkscape.org/namespaces/inkscape" xmlns:rdf="http://www.w3.org/1999/02/22-rdf-syntax-ns#" xmlns:sodipodi="http://sodipodi.sourceforge.net/DTD/sodipodi-0.dtd" xmlns:xlink="http://www.w3.org/1999/xlink" xmlns="http://www.w3.org/2000/svg" version="1.1" width="0.75in" height="0.75in" viewBox="0 0 19.05 19.05" id="svg8" inkscape:version="0.92.3 (2405546, 2018-03-11)" sodipodi:docname="tile-06.svg"><sodipodi:namedview id="base" pagecolor="#ffffff" bordercolor="#666666" borderopacity="1.0" inkscape:pageopacity="0.0" inkscape:pageshadow="2" inkscape:zoom="1.372378" inkscape:cx="4746.9979" inkscape:cy="477.45784" inkscape:document-units="in" inkscape:current-layer="layer3" showgrid="true" units="in" inkscape:snap-others="true" inkscape:snap-grids="true" inkscape:window-width="1280" inkscape:window-height="940" inkscape:window-x="1909" inkscape:window-y="43" inkscape:window-maximized="1" inkscape:snap-midpoints="false" inkscape:object-nodes="true" inkscape:snap-text-baseline="true" inkscape:snap-smooth-nodes="false" showguides="false" inkscape:snap-object-midpoints="true" inkscape:snap-center="true" inkscape:snap-to-guides="false" inkscape:snap-nodes="true" inkscape:snap-intersection-paths="false">
    <inkscape:grid type="xygrid" id="grid10" units="pt" spacingx="3.1750001" spacingy="3.1750001"/>
    <sodipodi:guide position="380.20625,103.1875" orientation="0,1" id="guide9455" inkscape:locked="false"/>
  </sodipodi:namedview>
  <metadata id="metadata5">
    <rdf:RDF>
      <cc:Work rdf:about="">
        <dc:format>image/svg+xml</dc:format>
        <dc:type rdf:resource="http://purl.org/dc/dcmitype/StillImage"/>
        <dc:title/>
      </cc:Work>
    </rdf:RDF>
  </metadata>
  <g inkscape:groupmode="layer" inkscape:label="tile-" transform="matrix(1.000000,0.000000,0.000000,1.000000,-215.900000,-69.850000)"><path style="display:inline;opacity:1;fill:#000000;fill-opacity:1;stroke:none;stroke-width:0.66666663;stroke-linecap:butt;stroke-linejoin:miter;stroke-miterlimit:47.14606857;stroke-dasharray:none;stroke-dashoffset:0;stroke-opacity:1;paint-order:markers fill stroke" d="M 816 264 L 816 336 L 888 336 L 888 264 L 816 264 z M 852 269.95703 A 30.02157 30.02157 0 0 1 882.02148 299.97852 A 30.02157 30.02157 0 0 1 852 330 A 30.02157 30.02157 0 0 1 821.97852 299.97852 A 30.02157 30.02157 0 0 1 852 269.95703 z M 851.55078 285.66992 C 848.74012 287.63437 846.39918 290.36922 844.52539 293.875 C 842.68184 297.38078 841.75977 300.7947 841.75977 304.11914 C 841.75977 307.23203 842.62107 309.84734 844.34375 311.96289 C 846.21751 314.29 848.78678 315.45312 852.05078 315.45312 C 854.92189 315.45312 857.32358 314.54576 859.25781 312.73242 C 861.22226 310.88887 862.20508 308.60867 862.20508 305.88867 C 862.20508 303.38023 861.31243 301.23428 859.5293 299.45117 C 857.74619 297.63784 855.52479 296.73047 852.86523 296.73047 C 851.17279 296.73047 849.66179 297.03227 848.33203 297.63672 C 850.74979 292.01539 854.31657 288.02726 859.03125 285.66992 L 851.55078 285.66992 z M 852.50391 301.49023 C 853.65233 301.49023 854.66457 301.9743 855.54102 302.94141 C 856.41746 303.8783 856.85547 304.96597 856.85547 306.20508 C 856.85547 307.47441 856.41746 308.56208 855.54102 309.46875 C 854.6948 310.34519 853.68256 310.7832 852.50391 310.7832 C 851.08346 310.7832 849.82823 310.31579 848.74023 309.37891 C 847.65223 308.41179 847.10938 307.20262 847.10938 305.75195 C 847.10938 304.60351 847.26029 303.83234 847.5625 303.43945 C 848.59005 302.1399 850.23722 301.49023 852.50391 301.49023 z " transform="scale(0.26458334)" id="rect1346" inkscape:label="06"/>
    </g></svg>
