<?xml version='1.0' encoding='UTF-8'?>
<!-- Created with Inkscape (http://www.inkscape.org/) and export_objects.py -->
<svg xmlns:cc="http://creativecommons.org/ns#" xmlns:dc="http://purl.org/dc/elements/1.1/" xmlns:inkscape="http://www.inkscape.org/namespaces/inkscape" xmlns:rdf="http://www.w3.org/1999/02/22-rdf-syntax-ns#" xmlns:sodipodi="http://sodipodi.sourceforge.net/DTD/sodipodi-0.dtd" xmlns:xlink="http://www.w3.org/1999/xlink" xmlns="http://www.w3.org/2000/svg" version="1.1" width="0.75in" height="0.75in" viewBox="0 0 19.05 19.05" id="svg8" inkscape:version="0.92.3 (2405546, 2018-03-11)" sodipodi:docname="tile-26.svg"><sodipodi:namedview id="base" pagecolor="#ffffff" bordercolor="#666666" borderopacity="1.0" inkscape:pageopacity="0.0" inkscape:pageshadow="2" inkscape:zoom="1.372378" inkscape:cx="4746.9979" inkscape:cy="477.45784" inkscape:document-units="in" inkscape:current-layer="layer3" showgrid="true" units="in" inkscape:snap-others="true" inkscape:snap-grids="true" inkscape:window-width="1280" inkscape:window-height="940" inkscape:window-x="1909" inkscape:window-y="43" inkscape:window-maximized="1" inkscape:snap-midpoints="false" inkscape:object-nodes="true" inkscape:snap-text-baseline="true" inkscape:snap-smooth-nodes="false" showguides="false" inkscape:snap-object-midpoints="true" inkscape:snap-center="true" inkscape:snap-to-guides="false" inkscape:snap-nodes="true" inkscape:snap-intersection-paths="false">
    <inkscape:grid type="xygrid" id="grid10" units="pt" spacingx="3.1750001" spacingy="3.1750001"/>
    <sodipodi:guide position="380.20625,103.1875" orientation="0,1" id="guide9455" inkscape:locked="false"/>
  </sodipodi:namedview>
  <metadata id="metadata5">
    <rdf:RDF>
      <cc:Work rdf:about="">
        <dc:format>image/svg+xml</dc:format>
        <dc:type rdf:resource="http://purl.org/dc/dcmitype/StillImage"/>
        <dc:title/>
      </cc:Work>
    </rdf:RDF>
  </metadata>
  <g inkscape:groupmode="layer" inkscape:label="tile-" transform="matrix(1.000000,0.000000,0.000000,1.000000,-638.175000,-69.850000)"><path style="display:inline;opacity:1;fill:#000000;fill-opacity:1;stroke:none;stroke-width:0.66666663;stroke-linecap:butt;stroke-linejoin:miter;stroke-miterlimit:47.14606857;stroke-dasharray:none;stroke-dashoffset:0;stroke-opacity:1;paint-order:markers fill stroke" d="M 2412 264 L 2412 336 L 2484 336 L 2484 264 L 2412 264 z M 2448 269.95703 A 30.02157 30.02157 0 0 1 2478.0215 299.97852 A 30.02157 30.02157 0 0 1 2448 330 A 30.02157 30.02157 0 0 1 2417.9785 299.97852 A 30.02157 30.02157 0 0 1 2448 269.95703 z M 2436.2656 285.03516 C 2433.4852 285.03516 2430.6729 286.09147 2427.832 288.20703 L 2427.832 295.32617 L 2428.0586 295.32617 C 2430.6879 291.75995 2433.4247 289.97656 2436.2656 289.97656 C 2437.2025 289.97656 2438.0325 290.26367 2438.7578 290.83789 C 2439.5134 291.41211 2439.8906 292.15193 2439.8906 293.05859 C 2439.8906 293.7537 2439.6956 294.66107 2439.3027 295.7793 C 2438.9099 296.8673 2438.5013 297.74331 2438.0781 298.4082 L 2427.2891 315 L 2446.5547 315 L 2446.5547 310.60352 L 2436.3555 310.60352 C 2438.2292 307.88352 2440.1028 305.14671 2441.9766 302.39648 C 2444.3037 298.76982 2445.4668 295.80861 2445.4668 293.51172 C 2445.4668 290.82194 2444.6368 288.73675 2442.9746 287.25586 C 2441.3426 285.77497 2439.1065 285.03516 2436.2656 285.03516 z M 2454.0586 285.71484 L 2452.1074 301.30859 C 2454.4647 300.61348 2456.158 300.26758 2457.1855 300.26758 C 2458.7873 300.26758 2460.1934 300.74969 2461.4023 301.7168 C 2462.7321 302.77458 2463.3965 304.09055 2463.3965 305.66211 C 2463.3965 306.99189 2462.9271 308.15501 2461.9902 309.15234 C 2461.0836 310.11945 2460.0272 310.60352 2458.8184 310.60352 C 2456.8841 310.60352 2455.2203 309.40904 2453.8301 307.02148 L 2453.5586 307.02148 L 2450.4766 310.96484 C 2452.713 313.92662 2455.3264 315.4082 2458.3184 315.4082 C 2461.3406 315.4082 2463.8638 314.48613 2465.8887 312.64258 C 2467.9136 310.7688 2468.9277 308.4112 2468.9277 305.57031 C 2468.9277 302.60853 2467.8842 300.20684 2465.7988 298.36328 C 2463.8042 296.64061 2461.2496 295.70384 2458.1367 295.55273 L 2458.7715 290.20312 L 2466.75 290.20312 L 2468.9727 285.71484 L 2454.0586 285.71484 z " transform="scale(0.26458334)" id="rect1488" inkscape:label="26"/>
    </g></svg>
