<?xml version='1.0' encoding='UTF-8'?>
<!-- Created with Inkscape (http://www.inkscape.org/) and export_objects.py -->
<svg xmlns:cc="http://creativecommons.org/ns#" xmlns:dc="http://purl.org/dc/elements/1.1/" xmlns:inkscape="http://www.inkscape.org/namespaces/inkscape" xmlns:rdf="http://www.w3.org/1999/02/22-rdf-syntax-ns#" xmlns:sodipodi="http://sodipodi.sourceforge.net/DTD/sodipodi-0.dtd" xmlns:xlink="http://www.w3.org/1999/xlink" xmlns="http://www.w3.org/2000/svg" version="1.1" width="0.75in" height="0.75in" viewBox="0 0 19.05 19.05" id="svg8" inkscape:version="0.92.3 (2405546, 2018-03-11)" sodipodi:docname="tile-65.svg"><sodipodi:namedview id="base" pagecolor="#ffffff" bordercolor="#666666" borderopacity="1.0" inkscape:pageopacity="0.0" inkscape:pageshadow="2" inkscape:zoom="1.372378" inkscape:cx="4212.1852" inkscape:cy="477.45784" inkscape:document-units="in" inkscape:current-layer="layer3" showgrid="true" units="in" inkscape:snap-others="true" inkscape:snap-grids="true" inkscape:window-width="1280" inkscape:window-height="940" inkscape:window-x="1909" inkscape:window-y="43" inkscape:window-maximized="1" inkscape:snap-midpoints="false" inkscape:object-nodes="true" inkscape:snap-text-baseline="true" inkscape:snap-smooth-nodes="false" showguides="false" inkscape:snap-object-midpoints="true" inkscape:snap-center="true" inkscape:snap-to-guides="false" inkscape:snap-nodes="true" inkscape:snap-intersection-paths="false">
    <inkscape:grid type="xygrid" id="grid10" units="pt" spacingx="3.1750001" spacingy="3.1750001"/>
    <sodipodi:guide position="380.20625,103.1875" orientation="0,1" id="guide9455" inkscape:locked="false"/>
  </sodipodi:namedview>
  <metadata id="metadata5">
    <rdf:RDF>
      <cc:Work rdf:about="">
        <dc:format>image/svg+xml</dc:format>
        <dc:type rdf:resource="http://purl.org/dc/dcmitype/StillImage"/>
        <dc:title/>
      </cc:Work>
    </rdf:RDF>
  </metadata>
  <g inkscape:groupmode="layer" inkscape:label="tile-" transform="matrix(1.000000,0.000000,0.000000,1.000000,-415.925000,-47.625000)"><path style="display:inline;opacity:1;fill:#000000;fill-opacity:1;stroke:none;stroke-width:0.66666669;stroke-linecap:butt;stroke-linejoin:miter;stroke-miterlimit:47.14606857;stroke-dasharray:none;stroke-dashoffset:0;stroke-opacity:1;paint-order:markers fill stroke" d="M 1572 180 L 1572 252 L 1644 252 L 1644 180 L 1572 180 z M 1608 185.95703 A 30.02157 30.02157 0 0 1 1638.0215 215.97852 A 30.02157 30.02157 0 0 1 1608 246 A 30.02157 30.02157 0 0 1 1577.9785 215.97852 A 30.02157 30.02157 0 0 1 1608 185.95703 z M 1596.4395 201.66992 C 1593.6288 203.63436 1591.2879 206.36922 1589.4141 209.875 C 1587.5705 213.38078 1586.6484 216.7947 1586.6484 220.11914 C 1586.6484 223.23203 1587.5097 225.84734 1589.2324 227.96289 C 1591.1062 230.29 1593.6755 231.45312 1596.9395 231.45312 C 1599.8106 231.45312 1602.2122 230.54575 1604.1465 228.73242 C 1606.1109 226.88886 1607.0938 224.60867 1607.0938 221.88867 C 1607.0938 219.38023 1606.2011 217.23428 1604.418 215.45117 C 1602.6349 213.63784 1600.4135 212.73047 1597.7539 212.73047 C 1596.0615 212.73047 1594.5505 213.03227 1593.2207 213.63672 C 1595.6385 208.01538 1599.2052 204.02725 1603.9199 201.66992 L 1596.4395 201.66992 z M 1613.793 201.71484 L 1611.8438 217.30859 C 1614.2011 216.61348 1615.8924 216.26758 1616.9199 216.26758 C 1618.5217 216.26758 1619.9278 216.74969 1621.1367 217.7168 C 1622.4665 218.77458 1623.1309 220.09055 1623.1309 221.66211 C 1623.1309 222.99189 1622.6615 224.15501 1621.7246 225.15234 C 1620.818 226.11946 1619.7616 226.60352 1618.5527 226.60352 C 1616.6185 226.60352 1614.9566 225.40904 1613.5664 223.02148 L 1613.293 223.02148 L 1610.2109 226.96484 C 1612.4474 229.92662 1615.0607 231.4082 1618.0527 231.4082 C 1621.075 231.4082 1623.6001 230.48613 1625.625 228.64258 C 1627.6499 226.7688 1628.6621 224.4112 1628.6621 221.57031 C 1628.6621 218.60854 1627.6185 216.20684 1625.5332 214.36328 C 1623.5385 212.64061 1620.984 211.70384 1617.8711 211.55273 L 1618.5059 206.20312 L 1626.4863 206.20312 L 1628.707 201.71484 L 1613.793 201.71484 z M 1597.3926 217.49023 C 1598.541 217.49023 1599.5532 217.9743 1600.4297 218.94141 C 1601.3061 219.8783 1601.7441 220.96597 1601.7441 222.20508 C 1601.7441 223.47441 1601.3061 224.56208 1600.4297 225.46875 C 1599.5835 226.34519 1598.5712 226.7832 1597.3926 226.7832 C 1595.9721 226.7832 1594.7169 226.31579 1593.6289 225.37891 C 1592.5409 224.41179 1591.998 223.20262 1591.998 221.75195 C 1591.998 220.60351 1592.149 219.83234 1592.4512 219.43945 C 1593.4787 218.1399 1595.1259 217.49023 1597.3926 217.49023 z " transform="scale(0.26458334)" id="rect2258" inkscape:label="65"/>
    </g></svg>
