<?xml version='1.0' encoding='UTF-8'?>
<!-- Created with Inkscape (http://www.inkscape.org/) and export_objects.py -->
<svg xmlns:cc="http://creativecommons.org/ns#" xmlns:dc="http://purl.org/dc/elements/1.1/" xmlns:inkscape="http://www.inkscape.org/namespaces/inkscape" xmlns:rdf="http://www.w3.org/1999/02/22-rdf-syntax-ns#" xmlns:sodipodi="http://sodipodi.sourceforge.net/DTD/sodipodi-0.dtd" xmlns:xlink="http://www.w3.org/1999/xlink" xmlns="http://www.w3.org/2000/svg" version="1.1" width="0.75in" height="0.75in" viewBox="0 0 19.05 19.05" id="svg8" inkscape:version="0.92.3 (2405546, 2018-03-11)" sodipodi:docname="tile-50.svg"><sodipodi:namedview id="base" pagecolor="#ffffff" bordercolor="#666666" borderopacity="1.0" inkscape:pageopacity="0.0" inkscape:pageshadow="2" inkscape:zoom="1.372378" inkscape:cx="4746.9979" inkscape:cy="477.45784" inkscape:document-units="in" inkscape:current-layer="layer3" showgrid="true" units="in" inkscape:snap-others="true" inkscape:snap-grids="true" inkscape:window-width="1280" inkscape:window-height="940" inkscape:window-x="1909" inkscape:window-y="43" inkscape:window-maximized="1" inkscape:snap-midpoints="false" inkscape:object-nodes="true" inkscape:snap-text-baseline="true" inkscape:snap-smooth-nodes="false" showguides="false" inkscape:snap-object-midpoints="true" inkscape:snap-center="true" inkscape:snap-to-guides="false" inkscape:snap-nodes="true" inkscape:snap-intersection-paths="false">
    <inkscape:grid type="xygrid" id="grid10" units="pt" spacingx="3.1750001" spacingy="3.1750001"/>
    <sodipodi:guide position="380.20625,103.1875" orientation="0,1" id="guide9455" inkscape:locked="false"/>
  </sodipodi:namedview>
  <metadata id="metadata5">
    <rdf:RDF>
      <cc:Work rdf:about="">
        <dc:format>image/svg+xml</dc:format>
        <dc:type rdf:resource="http://purl.org/dc/dcmitype/StillImage"/>
        <dc:title/>
      </cc:Work>
    </rdf:RDF>
  </metadata>
  <g inkscape:groupmode="layer" inkscape:label="tile-" transform="matrix(1.000000,0.000000,0.000000,1.000000,-1193.800000,-69.850000)"><path style="display:inline;opacity:1;fill:#000000;fill-opacity:1;stroke:none;stroke-width:0.66666663;stroke-linecap:butt;stroke-linejoin:miter;stroke-miterlimit:47.14606857;stroke-dasharray:none;stroke-dashoffset:0;stroke-opacity:1;paint-order:markers fill stroke" d="M 4512 264 L 4512 336 L 4584 336 L 4584 264 L 4512 264 z M 4548 269.95703 A 30.02157 30.02157 0 0 1 4578.0215 299.97852 A 30.02157 30.02157 0 0 1 4548 330 A 30.02157 30.02157 0 0 1 4517.9785 299.97852 A 30.02157 30.02157 0 0 1 4548 269.95703 z M 4559.0273 285.39648 C 4555.6122 285.39648 4552.9968 287.19652 4551.1836 290.79297 C 4549.7932 293.57341 4549.0996 296.74628 4549.0996 300.3125 C 4549.0996 303.87872 4549.7932 307.05159 4551.1836 309.83203 C 4552.9968 313.42848 4555.6122 315.22656 4559.0273 315.22656 C 4562.4728 315.22656 4565.1009 313.42848 4566.9141 309.83203 C 4568.3044 307.05159 4569 303.87872 4569 300.3125 C 4569 296.71606 4568.3044 293.52654 4566.9141 290.74609 C 4565.1311 287.17987 4562.503 285.39648 4559.0273 285.39648 z M 4530.6836 285.71484 L 4528.7344 301.30859 C 4531.0918 300.61348 4532.783 300.26758 4533.8105 300.26758 C 4535.4123 300.26758 4536.8184 300.74969 4538.0273 301.7168 C 4539.357 302.77457 4540.0215 304.09055 4540.0215 305.66211 C 4540.0215 306.99189 4539.554 308.15501 4538.6172 309.15234 C 4537.7106 310.11945 4536.6523 310.60352 4535.4434 310.60352 C 4533.5092 310.60352 4531.8474 309.40904 4530.457 307.02148 L 4530.1836 307.02148 L 4527.1016 310.96484 C 4529.338 313.92662 4531.9515 315.4082 4534.9434 315.4082 C 4537.9657 315.4082 4540.4908 314.48613 4542.5156 312.64258 C 4544.5404 310.7688 4545.5527 308.4112 4545.5527 305.57031 C 4545.5527 302.60853 4544.5091 300.20684 4542.4238 298.36328 C 4540.4292 296.64061 4537.8767 295.70384 4534.7637 295.55273 L 4535.3984 290.20312 L 4543.377 290.20312 L 4545.5977 285.71484 L 4530.6836 285.71484 z M 4559.1172 289.97656 C 4560.8097 289.97656 4562.0944 291.33664 4562.9707 294.05664 C 4563.6054 296.02109 4563.9238 298.10628 4563.9238 300.3125 C 4563.9238 302.57917 4563.6201 304.66436 4563.0156 306.56836 C 4562.1695 309.25814 4560.8701 310.60352 4559.1172 310.60352 C 4557.3945 310.60352 4556.1098 309.25814 4555.2637 306.56836 C 4554.6592 304.66436 4554.3574 302.57917 4554.3574 300.3125 C 4554.3574 298.92228 4554.4938 297.5475 4554.7656 296.1875 C 4555.068 294.64617 4555.5668 293.30079 4556.2617 292.15234 C 4557.1081 290.70168 4558.0594 289.97656 4559.1172 289.97656 z " transform="scale(0.26458334)" id="rect1656" inkscape:label="50"/>
    </g></svg>
