<?xml version='1.0' encoding='UTF-8'?>
<!-- Created with Inkscape (http://www.inkscape.org/) and export_objects.py -->
<svg xmlns:cc="http://creativecommons.org/ns#" xmlns:dc="http://purl.org/dc/elements/1.1/" xmlns:inkscape="http://www.inkscape.org/namespaces/inkscape" xmlns:rdf="http://www.w3.org/1999/02/22-rdf-syntax-ns#" xmlns:sodipodi="http://sodipodi.sourceforge.net/DTD/sodipodi-0.dtd" xmlns:xlink="http://www.w3.org/1999/xlink" xmlns="http://www.w3.org/2000/svg" version="1.1" width="0.75in" height="0.75in" viewBox="0 0 19.05 19.05" id="svg8" inkscape:version="0.92.3 (2405546, 2018-03-11)" sodipodi:docname="tile-73.svg"><sodipodi:namedview id="base" pagecolor="#ffffff" bordercolor="#666666" borderopacity="1.0" inkscape:pageopacity="0.0" inkscape:pageshadow="2" inkscape:zoom="1.372378" inkscape:cx="4212.1852" inkscape:cy="477.45784" inkscape:document-units="in" inkscape:current-layer="layer3" showgrid="true" units="in" inkscape:snap-others="true" inkscape:snap-grids="true" inkscape:window-width="1280" inkscape:window-height="940" inkscape:window-x="1909" inkscape:window-y="43" inkscape:window-maximized="1" inkscape:snap-midpoints="false" inkscape:object-nodes="true" inkscape:snap-text-baseline="true" inkscape:snap-smooth-nodes="false" showguides="false" inkscape:snap-object-midpoints="true" inkscape:snap-center="true" inkscape:snap-to-guides="false" inkscape:snap-nodes="true" inkscape:snap-intersection-paths="false">
    <inkscape:grid type="xygrid" id="grid10" units="pt" spacingx="3.1750001" spacingy="3.1750001"/>
    <sodipodi:guide position="380.20625,103.1875" orientation="0,1" id="guide9455" inkscape:locked="false"/>
  </sodipodi:namedview>
  <metadata id="metadata5">
    <rdf:RDF>
      <cc:Work rdf:about="">
        <dc:format>image/svg+xml</dc:format>
        <dc:type rdf:resource="http://purl.org/dc/dcmitype/StillImage"/>
        <dc:title/>
      </cc:Work>
    </rdf:RDF>
  </metadata>
  <g inkscape:groupmode="layer" inkscape:label="tile-" transform="matrix(1.000000,0.000000,0.000000,1.000000,-571.500000,-47.625000)"><path style="display:inline;opacity:1;fill:#000000;fill-opacity:1;stroke:none;stroke-width:0.66666669;stroke-linecap:butt;stroke-linejoin:miter;stroke-miterlimit:47.14606857;stroke-dasharray:none;stroke-dashoffset:0;stroke-opacity:1;paint-order:markers fill stroke" d="M 2160 180 L 2160 252 L 2232 252 L 2232 180 L 2160 180 z M 2196 185.95703 A 30.02157 30.02157 0 0 1 2226.0215 215.97852 A 30.02157 30.02157 0 0 1 2196 246 A 30.02157 30.02157 0 0 1 2165.9785 215.97852 A 30.02157 30.02157 0 0 1 2196 185.95703 z M 2207.2852 201.03516 C 2204.5047 201.03516 2201.6944 202.09343 2198.8535 204.20898 L 2198.8535 211.32617 L 2199.0801 211.32617 C 2201.7094 207.75996 2204.4443 205.97656 2207.2852 205.97656 C 2208.2221 205.97656 2209.054 206.26368 2209.7793 206.83789 C 2210.5348 207.41213 2210.9121 208.15194 2210.9121 209.05859 C 2210.9121 209.7537 2210.7171 210.66106 2210.3242 211.7793 C 2209.9313 212.8673 2209.5227 213.74331 2209.0996 214.4082 L 2198.3105 231 L 2217.5762 231 L 2217.5762 226.60352 L 2207.377 226.60352 C 2209.2507 223.88352 2211.1243 221.1467 2212.998 218.39648 C 2215.3252 214.7698 2216.4883 211.80859 2216.4883 209.51172 C 2216.4883 206.82193 2215.6583 204.73675 2213.9961 203.25586 C 2212.3641 201.77499 2210.1261 201.03516 2207.2852 201.03516 z M 2174.6289 201.71484 L 2174.6289 206.42969 L 2186.6875 206.42969 L 2173.1328 231 L 2178.8438 231 L 2195.2539 201.71484 L 2174.6289 201.71484 z " transform="scale(0.26458334)" id="rect2274" inkscape:label="73"/>
    </g></svg>
