<?xml version='1.0' encoding='UTF-8'?>
<!-- Created with Inkscape (http://www.inkscape.org/) and export_objects.py -->
<svg xmlns:cc="http://creativecommons.org/ns#" xmlns:dc="http://purl.org/dc/elements/1.1/" xmlns:inkscape="http://www.inkscape.org/namespaces/inkscape" xmlns:rdf="http://www.w3.org/1999/02/22-rdf-syntax-ns#" xmlns:sodipodi="http://sodipodi.sourceforge.net/DTD/sodipodi-0.dtd" xmlns:xlink="http://www.w3.org/1999/xlink" xmlns="http://www.w3.org/2000/svg" version="1.1" width="0.75in" height="0.75in" viewBox="0 0 19.05 19.05" id="svg8" inkscape:version="0.92.3 (2405546, 2018-03-11)" sodipodi:docname="tile-81.svg"><sodipodi:namedview id="base" pagecolor="#ffffff" bordercolor="#666666" borderopacity="1.0" inkscape:pageopacity="0.0" inkscape:pageshadow="2" inkscape:zoom="1.372378" inkscape:cx="4212.1852" inkscape:cy="477.45784" inkscape:document-units="in" inkscape:current-layer="layer3" showgrid="true" units="in" inkscape:snap-others="true" inkscape:snap-grids="true" inkscape:window-width="1280" inkscape:window-height="940" inkscape:window-x="1909" inkscape:window-y="43" inkscape:window-maximized="1" inkscape:snap-midpoints="false" inkscape:object-nodes="true" inkscape:snap-text-baseline="true" inkscape:snap-smooth-nodes="false" showguides="false" inkscape:snap-object-midpoints="true" inkscape:snap-center="true" inkscape:snap-to-guides="false" inkscape:snap-nodes="true" inkscape:snap-intersection-paths="false">
    <inkscape:grid type="xygrid" id="grid10" units="pt" spacingx="3.1750001" spacingy="3.1750001"/>
    <sodipodi:guide position="380.20625,103.1875" orientation="0,1" id="guide9455" inkscape:locked="false"/>
  </sodipodi:namedview>
  <metadata id="metadata5">
    <rdf:RDF>
      <cc:Work rdf:about="">
        <dc:format>image/svg+xml</dc:format>
        <dc:type rdf:resource="http://purl.org/dc/dcmitype/StillImage"/>
        <dc:title/>
      </cc:Work>
    </rdf:RDF>
  </metadata>
  <g inkscape:groupmode="layer" inkscape:label="tile-" transform="matrix(1.000000,0.000000,0.000000,1.000000,-771.525000,-47.625000)"><path style="display:inline;opacity:1;fill:#000000;fill-opacity:1;stroke:none;stroke-width:0.66666669;stroke-linecap:butt;stroke-linejoin:miter;stroke-miterlimit:47.14606857;stroke-dasharray:none;stroke-dashoffset:0;stroke-opacity:1;paint-order:markers fill stroke" d="M 2916 180 L 2916 252 L 2988 252 L 2988 180 L 2916 180 z M 2952 185.95703 A 30.02157 30.02157 0 0 1 2982.0215 215.97852 A 30.02157 30.02157 0 0 1 2952 246 A 30.02157 30.02157 0 0 1 2921.9785 215.97852 A 30.02157 30.02157 0 0 1 2952 185.95703 z M 2946.3555 201.35156 C 2944.119 201.35156 2942.2455 201.92577 2940.7344 203.07422 C 2939.1024 204.31332 2938.2871 205.97521 2938.2871 208.06055 C 2938.2871 210.56899 2939.4816 212.80704 2941.8691 214.77148 C 2938.6354 217.00793 2937.0176 219.7428 2937.0176 222.97656 C 2937.0176 225.6059 2937.8642 227.67639 2939.5566 229.1875 C 2941.2793 230.66839 2943.5301 231.4082 2946.3105 231.4082 C 2948.8492 231.4082 2951.0412 230.50084 2952.8848 228.6875 C 2954.7283 226.87416 2955.6504 224.77427 2955.6504 222.38672 C 2955.6504 219.4854 2954.0179 216.97691 2950.7539 214.86133 C 2953.0508 212.92712 2954.1992 210.691 2954.1992 208.15234 C 2954.1992 206.067 2953.4427 204.38848 2951.9316 203.11914 C 2950.4507 201.94048 2948.5919 201.35156 2946.3555 201.35156 z M 2959.8633 201.66992 L 2959.8633 231 L 2965.1211 231 L 2965.1211 201.66992 L 2959.8633 201.66992 z M 2946.3555 205.20508 C 2947.0506 205.20508 2947.7169 205.50688 2948.3516 206.11133 C 2948.9862 206.71578 2949.3027 207.4115 2949.3027 208.19727 C 2949.3027 209.64792 2948.3366 211.05406 2946.4023 212.41406 C 2944.3472 211.05406 2943.3184 209.52641 2943.3184 207.83398 C 2943.3184 207.0482 2943.6515 206.39855 2944.3164 205.88477 C 2944.8906 205.43145 2945.5697 205.20508 2946.3555 205.20508 z M 2946.0391 217.53516 C 2949.0915 219.34847 2950.6172 220.95156 2950.6172 222.3418 C 2950.6172 223.49024 2950.1498 224.51717 2949.2129 225.42383 C 2948.276 226.33049 2947.2785 226.7832 2946.2207 226.7832 C 2945.1932 226.7832 2944.2417 226.39123 2943.3652 225.60547 C 2942.519 224.78947 2942.0957 223.838 2942.0957 222.75 C 2942.0957 220.93666 2943.4097 219.19737 2946.0391 217.53516 z " transform="scale(0.26458334)" id="rect2290" inkscape:label="81"/>
    </g></svg>
