<?xml version='1.0' encoding='UTF-8'?>
<!-- Created with Inkscape (http://www.inkscape.org/) and export_objects.py -->
<svg xmlns:cc="http://creativecommons.org/ns#" xmlns:dc="http://purl.org/dc/elements/1.1/" xmlns:inkscape="http://www.inkscape.org/namespaces/inkscape" xmlns:rdf="http://www.w3.org/1999/02/22-rdf-syntax-ns#" xmlns:sodipodi="http://sodipodi.sourceforge.net/DTD/sodipodi-0.dtd" xmlns:xlink="http://www.w3.org/1999/xlink" xmlns="http://www.w3.org/2000/svg" version="1.1" width="0.75in" height="0.75in" viewBox="0 0 19.05 19.05" id="svg8" inkscape:version="0.92.3 (2405546, 2018-03-11)" sodipodi:docname="tile-82.svg"><sodipodi:namedview id="base" pagecolor="#ffffff" bordercolor="#666666" borderopacity="1.0" inkscape:pageopacity="0.0" inkscape:pageshadow="2" inkscape:zoom="1.372378" inkscape:cx="4212.1852" inkscape:cy="477.45784" inkscape:document-units="in" inkscape:current-layer="layer3" showgrid="true" units="in" inkscape:snap-others="true" inkscape:snap-grids="true" inkscape:window-width="1280" inkscape:window-height="940" inkscape:window-x="1909" inkscape:window-y="43" inkscape:window-maximized="1" inkscape:snap-midpoints="false" inkscape:object-nodes="true" inkscape:snap-text-baseline="true" inkscape:snap-smooth-nodes="false" showguides="false" inkscape:snap-object-midpoints="true" inkscape:snap-center="true" inkscape:snap-to-guides="false" inkscape:snap-nodes="true" inkscape:snap-intersection-paths="false">
    <inkscape:grid type="xygrid" id="grid10" units="pt" spacingx="3.1750001" spacingy="3.1750001"/>
    <sodipodi:guide position="380.20625,103.1875" orientation="0,1" id="guide9455" inkscape:locked="false"/>
  </sodipodi:namedview>
  <metadata id="metadata5">
    <rdf:RDF>
      <cc:Work rdf:about="">
        <dc:format>image/svg+xml</dc:format>
        <dc:type rdf:resource="http://purl.org/dc/dcmitype/StillImage"/>
        <dc:title/>
      </cc:Work>
    </rdf:RDF>
  </metadata>
  <g inkscape:groupmode="layer" inkscape:label="tile-" transform="matrix(1.000000,0.000000,0.000000,1.000000,-793.750000,-47.625000)"><path style="display:inline;opacity:1;fill:#000000;fill-opacity:1;stroke:none;stroke-width:0.66666669;stroke-linecap:butt;stroke-linejoin:miter;stroke-miterlimit:47.14606857;stroke-dasharray:none;stroke-dashoffset:0;stroke-opacity:1;paint-order:markers fill stroke" d="M 3000 180 L 3000 252 L 3072 252 L 3072 180 L 3000 180 z M 3036 185.95703 A 30.02157 30.02157 0 0 1 3066.0215 215.97852 A 30.02157 30.02157 0 0 1 3036 246 A 30.02157 30.02157 0 0 1 3005.9785 215.97852 A 30.02157 30.02157 0 0 1 3036 185.95703 z M 3045.8242 201.03516 C 3043.0438 201.03516 3040.2335 202.09343 3037.3926 204.20898 L 3037.3926 211.32617 L 3037.6191 211.32617 C 3040.2485 207.75994 3042.9833 205.97656 3045.8242 205.97656 C 3046.7611 205.97656 3047.593 206.26365 3048.3184 206.83789 C 3049.0739 207.4121 3049.4512 208.15191 3049.4512 209.05859 C 3049.4512 209.7537 3049.2542 210.66109 3048.8613 211.7793 C 3048.4684 212.8673 3048.0618 213.74331 3047.6387 214.4082 L 3036.8496 231 L 3056.1152 231 L 3056.1152 226.60352 L 3045.916 226.60352 C 3047.7898 223.88352 3049.6633 221.14672 3051.5371 218.39648 C 3053.8642 214.76983 3055.0273 211.80861 3055.0273 209.51172 C 3055.0273 206.82193 3054.1974 204.73673 3052.5352 203.25586 C 3050.9032 201.77496 3048.6651 201.03516 3045.8242 201.03516 z M 3024.1582 201.35156 C 3021.9218 201.35156 3020.0482 201.92577 3018.5371 203.07422 C 3016.9051 204.31332 3016.0898 205.97521 3016.0898 208.06055 C 3016.0898 210.56899 3017.2824 212.80704 3019.6699 214.77148 C 3016.4362 217.00793 3014.8203 219.7428 3014.8203 222.97656 C 3014.8203 225.6059 3015.6669 227.67639 3017.3594 229.1875 C 3019.082 230.66839 3021.3328 231.4082 3024.1133 231.4082 C 3026.6519 231.4082 3028.842 230.50084 3030.6855 228.6875 C 3032.5291 226.87416 3033.4512 224.77427 3033.4512 222.38672 C 3033.4512 219.4854 3031.8206 216.97691 3028.5566 214.86133 C 3030.8535 212.92712 3032.002 210.691 3032.002 208.15234 C 3032.002 206.067 3031.2455 204.38848 3029.7344 203.11914 C 3028.2535 201.94048 3026.3947 201.35156 3024.1582 201.35156 z M 3024.1582 205.20508 C 3024.8533 205.20508 3025.5177 205.50688 3026.1523 206.11133 C 3026.787 206.71578 3027.1055 207.4115 3027.1055 208.19727 C 3027.1055 209.64792 3026.1373 211.05406 3024.2031 212.41406 C 3022.148 211.05406 3021.1211 209.52641 3021.1211 207.83398 C 3021.1211 207.0482 3021.4542 206.39855 3022.1191 205.88477 C 3022.6934 205.43145 3023.3724 205.20508 3024.1582 205.20508 z M 3023.8418 217.53516 C 3026.8942 219.34847 3028.4199 220.95156 3028.4199 222.3418 C 3028.4199 223.49024 3027.9506 224.51717 3027.0137 225.42383 C 3026.0768 226.33049 3025.0792 226.7832 3024.0215 226.7832 C 3022.9939 226.7832 3022.0425 226.39123 3021.166 225.60547 C 3020.3198 224.78947 3019.8965 223.838 3019.8965 222.75 C 3019.8965 220.93666 3021.2125 219.19737 3023.8418 217.53516 z " transform="scale(0.26458334)" id="rect2292" inkscape:label="82"/>
    </g></svg>
