<?xml version='1.0' encoding='UTF-8'?>
<!-- Created with Inkscape (http://www.inkscape.org/) and export_objects.py -->
<svg xmlns:cc="http://creativecommons.org/ns#" xmlns:dc="http://purl.org/dc/elements/1.1/" xmlns:inkscape="http://www.inkscape.org/namespaces/inkscape" xmlns:rdf="http://www.w3.org/1999/02/22-rdf-syntax-ns#" xmlns:sodipodi="http://sodipodi.sourceforge.net/DTD/sodipodi-0.dtd" xmlns:xlink="http://www.w3.org/1999/xlink" xmlns="http://www.w3.org/2000/svg" version="1.1" width="0.75in" height="0.75in" viewBox="0 0 19.05 19.05" id="svg8" inkscape:version="0.92.3 (2405546, 2018-03-11)" sodipodi:docname="tile-100.svg"><sodipodi:namedview id="base" pagecolor="#ffffff" bordercolor="#666666" borderopacity="1.0" inkscape:pageopacity="0.0" inkscape:pageshadow="2" inkscape:zoom="1.372378" inkscape:cx="4546.5962" inkscape:cy="477.45784" inkscape:document-units="in" inkscape:current-layer="layer3" showgrid="true" units="in" inkscape:snap-others="true" inkscape:snap-grids="true" inkscape:window-width="1280" inkscape:window-height="940" inkscape:window-x="1909" inkscape:window-y="43" inkscape:window-maximized="1" inkscape:snap-midpoints="false" inkscape:object-nodes="true" inkscape:snap-text-baseline="true" inkscape:snap-smooth-nodes="false" showguides="false" inkscape:snap-object-midpoints="true" inkscape:snap-center="true" inkscape:snap-to-guides="false" inkscape:snap-nodes="true" inkscape:snap-intersection-paths="false">
    <inkscape:grid type="xygrid" id="grid10" units="pt" spacingx="3.1750001" spacingy="3.1750001"/>
    <sodipodi:guide position="380.20625,103.1875" orientation="0,1" id="guide9455" inkscape:locked="false"/>
  </sodipodi:namedview>
  <metadata id="metadata5">
    <rdf:RDF>
      <cc:Work rdf:about="">
        <dc:format>image/svg+xml</dc:format>
        <dc:type rdf:resource="http://purl.org/dc/dcmitype/StillImage"/>
        <dc:title/>
      </cc:Work>
    </rdf:RDF>
  </metadata>
  <g inkscape:groupmode="layer" inkscape:label="tile-" transform="matrix(1.000000,0.000000,0.000000,1.000000,-1193.800000,-47.625000)"><path style="display:inline;opacity:1;fill:#000000;fill-opacity:1;stroke:none;stroke-width:0.66666669;stroke-linecap:butt;stroke-linejoin:miter;stroke-miterlimit:47.14606857;stroke-dasharray:none;stroke-dashoffset:0;stroke-opacity:1;paint-order:markers fill stroke" d="M 4512 180 L 4512 252 L 4584 252 L 4584 180 L 4512 180 z M 4548 185.95703 A 30.02157 30.02157 0 0 1 4578.0215 215.97852 A 30.02157 30.02157 0 0 1 4548 246 A 30.02157 30.02157 0 0 1 4517.9785 215.97852 A 30.02157 30.02157 0 0 1 4548 185.95703 z M 4541.9824 201.39648 C 4538.5672 201.39648 4535.9521 203.19459 4534.1387 206.79102 C 4532.7486 209.57146 4532.0547 212.74626 4532.0547 216.3125 C 4532.0547 219.87871 4532.7486 223.05158 4534.1387 225.83203 C 4535.9521 229.42848 4538.5672 231.22656 4541.9824 231.22656 C 4545.4276 231.22656 4548.0577 229.42848 4549.8711 225.83203 C 4551.2615 223.05158 4551.9551 219.87871 4551.9551 216.3125 C 4551.9551 212.71605 4551.2615 209.52654 4549.8711 206.74609 C 4548.0879 203.17988 4545.4578 201.39648 4541.9824 201.39648 z M 4565.0918 201.39648 C 4561.6766 201.39648 4559.0632 203.19459 4557.25 206.79102 C 4555.8596 209.57146 4555.1641 212.74626 4555.1641 216.3125 C 4555.1641 219.87871 4555.8596 223.05158 4557.25 225.83203 C 4559.0632 229.42848 4561.6766 231.22656 4565.0918 231.22656 C 4568.5372 231.22656 4571.1671 229.42848 4572.9805 225.83203 C 4574.3706 223.05158 4575.0645 219.87871 4575.0645 216.3125 C 4575.0645 212.71605 4574.3706 209.52654 4572.9805 206.74609 C 4571.1973 203.17988 4568.5675 201.39648 4565.0918 201.39648 z M 4522.3047 201.66992 L 4522.3047 231 L 4527.5645 231 L 4527.5645 201.66992 L 4522.3047 201.66992 z M 4542.0723 205.97656 C 4543.7645 205.97656 4545.0492 207.33664 4545.9258 210.05664 C 4546.5605 212.02109 4546.8789 214.10626 4546.8789 216.3125 C 4546.8789 218.57916 4546.5771 220.66436 4545.9727 222.56836 C 4545.1263 225.25815 4543.825 226.60352 4542.0723 226.60352 C 4540.3496 226.60352 4539.0651 225.25815 4538.2188 222.56836 C 4537.6143 220.66436 4537.3125 218.57916 4537.3125 216.3125 C 4537.3125 214.92226 4537.4486 213.5475 4537.7207 212.1875 C 4538.0228 210.64618 4538.5216 209.30079 4539.2168 208.15234 C 4540.0629 206.70166 4541.0142 205.97656 4542.0723 205.97656 z M 4565.1816 205.97656 C 4566.8741 205.97656 4568.1588 207.33664 4569.0352 210.05664 C 4569.6699 212.02109 4569.9883 214.10626 4569.9883 216.3125 C 4569.9883 218.57916 4569.6846 220.66436 4569.0801 222.56836 C 4568.234 225.25815 4566.9346 226.60352 4565.1816 226.60352 C 4563.4589 226.60352 4562.1762 225.25815 4561.3301 222.56836 C 4560.7256 220.66436 4560.4219 218.57916 4560.4219 216.3125 C 4560.4219 214.92226 4560.5582 213.5475 4560.8301 212.1875 C 4561.1324 210.64618 4561.631 209.30079 4562.3262 208.15234 C 4563.1723 206.70166 4564.1239 205.97656 4565.1816 205.97656 z " transform="scale(0.26458334)" id="rect2328" inkscape:label="100"/>
    </g></svg>
