<?xml version='1.0' encoding='UTF-8'?>
<!-- Created with Inkscape (http://www.inkscape.org/) and export_objects.py -->
<svg xmlns:cc="http://creativecommons.org/ns#" xmlns:dc="http://purl.org/dc/elements/1.1/" xmlns:inkscape="http://www.inkscape.org/namespaces/inkscape" xmlns:rdf="http://www.w3.org/1999/02/22-rdf-syntax-ns#" xmlns:sodipodi="http://sodipodi.sourceforge.net/DTD/sodipodi-0.dtd" xmlns:xlink="http://www.w3.org/1999/xlink" xmlns="http://www.w3.org/2000/svg" version="1.1" width="0.75in" height="0.75in" viewBox="0 0 19.05 19.05" id="svg8" inkscape:version="0.92.3 (2405546, 2018-03-11)" sodipodi:docname="tile-25.svg"><sodipodi:namedview id="base" pagecolor="#ffffff" bordercolor="#666666" borderopacity="1.0" inkscape:pageopacity="0.0" inkscape:pageshadow="2" inkscape:zoom="1.372378" inkscape:cx="4746.9979" inkscape:cy="477.45784" inkscape:document-units="in" inkscape:current-layer="layer3" showgrid="true" units="in" inkscape:snap-others="true" inkscape:snap-grids="true" inkscape:window-width="1280" inkscape:window-height="940" inkscape:window-x="1909" inkscape:window-y="43" inkscape:window-maximized="1" inkscape:snap-midpoints="false" inkscape:object-nodes="true" inkscape:snap-text-baseline="true" inkscape:snap-smooth-nodes="false" showguides="false" inkscape:snap-object-midpoints="true" inkscape:snap-center="true" inkscape:snap-to-guides="false" inkscape:snap-nodes="true" inkscape:snap-intersection-paths="false">
    <inkscape:grid type="xygrid" id="grid10" units="pt" spacingx="3.1750001" spacingy="3.1750001"/>
    <sodipodi:guide position="380.20625,103.1875" orientation="0,1" id="guide9455" inkscape:locked="false"/>
  </sodipodi:namedview>
  <metadata id="metadata5">
    <rdf:RDF>
      <cc:Work rdf:about="">
        <dc:format>image/svg+xml</dc:format>
        <dc:type rdf:resource="http://purl.org/dc/dcmitype/StillImage"/>
        <dc:title/>
      </cc:Work>
    </rdf:RDF>
  </metadata>
  <g inkscape:groupmode="layer" inkscape:label="tile-" transform="matrix(1.000000,0.000000,0.000000,1.000000,-615.950000,-69.850000)"><path style="display:inline;opacity:1;fill:#000000;fill-opacity:1;stroke:none;stroke-width:0.66666663;stroke-linecap:butt;stroke-linejoin:miter;stroke-miterlimit:47.14606857;stroke-dasharray:none;stroke-dashoffset:0;stroke-opacity:1;paint-order:markers fill stroke" d="M 2328 264 L 2328 336 L 2400 336 L 2400 264 L 2328 264 z M 2364 269.95703 A 30.02157 30.02157 0 0 1 2394.0215 299.97852 A 30.02157 30.02157 0 0 1 2364 330 A 30.02157 30.02157 0 0 1 2333.9785 299.97852 A 30.02157 30.02157 0 0 1 2364 269.95703 z M 2381.2168 283.85547 L 2361.8145 307.06641 L 2376.2305 307.06641 L 2376.2305 315 L 2381.4434 315 L 2381.4434 307.06641 L 2388.1992 307.06641 L 2388.1992 302.39648 L 2381.4434 302.39648 L 2381.4434 283.85547 L 2381.2168 283.85547 z M 2350.0508 285.03516 C 2347.2704 285.03516 2344.46 286.09148 2341.6191 288.20703 L 2341.6191 295.32617 L 2341.8457 295.32617 C 2344.475 291.75995 2347.2099 289.97656 2350.0508 289.97656 C 2350.9877 289.97656 2351.8196 290.26367 2352.5449 290.83789 C 2353.3005 291.41211 2353.6777 292.15193 2353.6777 293.05859 C 2353.6777 293.7537 2353.4808 294.66107 2353.0879 295.7793 C 2352.695 296.8673 2352.2883 297.74332 2351.8652 298.4082 L 2341.0762 315 L 2360.3418 315 L 2360.3418 310.60352 L 2350.1426 310.60352 C 2352.0164 307.88352 2353.8899 305.14671 2355.7637 302.39648 C 2358.0908 298.76982 2359.2539 295.80861 2359.2539 293.51172 C 2359.2539 290.82194 2358.422 288.73675 2356.7598 287.25586 C 2355.1278 285.77497 2352.8917 285.03516 2350.0508 285.03516 z M 2376.1406 296.14062 L 2376.1406 302.39648 L 2370.9258 302.39648 L 2376.1406 296.14062 z " transform="scale(0.26458334)" id="rect1486" inkscape:label="25"/>
    </g></svg>
