<?xml version='1.0' encoding='UTF-8'?>
<!-- Created with Inkscape (http://www.inkscape.org/) and export_objects.py -->
<svg xmlns:cc="http://creativecommons.org/ns#" xmlns:dc="http://purl.org/dc/elements/1.1/" xmlns:inkscape="http://www.inkscape.org/namespaces/inkscape" xmlns:rdf="http://www.w3.org/1999/02/22-rdf-syntax-ns#" xmlns:sodipodi="http://sodipodi.sourceforge.net/DTD/sodipodi-0.dtd" xmlns:xlink="http://www.w3.org/1999/xlink" xmlns="http://www.w3.org/2000/svg" version="1.1" width="0.75in" height="0.75in" viewBox="0 0 19.05 19.05" id="svg8" inkscape:version="0.92.3 (2405546, 2018-03-11)" sodipodi:docname="tile-87.svg"><sodipodi:namedview id="base" pagecolor="#ffffff" bordercolor="#666666" borderopacity="1.0" inkscape:pageopacity="0.0" inkscape:pageshadow="2" inkscape:zoom="1.372378" inkscape:cx="4212.1852" inkscape:cy="477.45784" inkscape:document-units="in" inkscape:current-layer="layer3" showgrid="true" units="in" inkscape:snap-others="true" inkscape:snap-grids="true" inkscape:window-width="1280" inkscape:window-height="940" inkscape:window-x="1909" inkscape:window-y="43" inkscape:window-maximized="1" inkscape:snap-midpoints="false" inkscape:object-nodes="true" inkscape:snap-text-baseline="true" inkscape:snap-smooth-nodes="false" showguides="false" inkscape:snap-object-midpoints="true" inkscape:snap-center="true" inkscape:snap-to-guides="false" inkscape:snap-nodes="true" inkscape:snap-intersection-paths="false">
    <inkscape:grid type="xygrid" id="grid10" units="pt" spacingx="3.1750001" spacingy="3.1750001"/>
    <sodipodi:guide position="380.20625,103.1875" orientation="0,1" id="guide9455" inkscape:locked="false"/>
  </sodipodi:namedview>
  <metadata id="metadata5">
    <rdf:RDF>
      <cc:Work rdf:about="">
        <dc:format>image/svg+xml</dc:format>
        <dc:type rdf:resource="http://purl.org/dc/dcmitype/StillImage"/>
        <dc:title/>
      </cc:Work>
    </rdf:RDF>
  </metadata>
  <g inkscape:groupmode="layer" inkscape:label="tile-" transform="matrix(1.000000,0.000000,0.000000,1.000000,-904.875000,-47.625000)"><path style="display:inline;opacity:1;fill:#000000;fill-opacity:1;stroke:none;stroke-width:0.66666669;stroke-linecap:butt;stroke-linejoin:miter;stroke-miterlimit:47.14606857;stroke-dasharray:none;stroke-dashoffset:0;stroke-opacity:1;paint-order:markers fill stroke" d="M 3420 180 L 3420 252 L 3492 252 L 3492 180 L 3420 180 z M 3456 185.95703 A 30.02157 30.02157 0 0 1 3486.0215 215.97852 A 30.02157 30.02157 0 0 1 3456 246 A 30.02157 30.02157 0 0 1 3425.9785 215.97852 A 30.02157 30.02157 0 0 1 3456 185.95703 z M 3444.0703 201.35156 C 3441.8339 201.35156 3439.9603 201.92577 3438.4492 203.07422 C 3436.8172 204.31332 3436 205.97521 3436 208.06055 C 3436 210.56899 3437.1945 212.80704 3439.582 214.77148 C 3436.3483 217.00793 3434.7305 219.7428 3434.7305 222.97656 C 3434.7305 225.6059 3435.5771 227.67639 3437.2695 229.1875 C 3438.9922 230.66839 3441.2449 231.4082 3444.0254 231.4082 C 3446.564 231.4082 3448.7541 230.50084 3450.5977 228.6875 C 3452.4412 226.87416 3453.3633 224.77427 3453.3633 222.38672 C 3453.3633 219.4854 3451.7308 216.97691 3448.4668 214.86133 C 3450.7637 212.92712 3451.9121 210.691 3451.9121 208.15234 C 3451.9121 206.067 3451.1576 204.38848 3449.6465 203.11914 C 3448.1656 201.94048 3446.3068 201.35156 3444.0703 201.35156 z M 3456.8965 201.71484 L 3456.8965 206.42969 L 3468.9551 206.42969 L 3455.4004 231 L 3461.1133 231 L 3477.5234 201.71484 L 3456.8965 201.71484 z M 3444.0703 205.20508 C 3444.7654 205.20508 3445.4298 205.50688 3446.0645 206.11133 C 3446.6991 206.71578 3447.0176 207.4115 3447.0176 208.19727 C 3447.0176 209.64792 3446.0494 211.05406 3444.1152 212.41406 C 3442.0601 211.05406 3441.0332 209.52641 3441.0332 207.83398 C 3441.0332 207.0482 3441.3644 206.39855 3442.0293 205.88477 C 3442.6035 205.43145 3443.2845 205.20508 3444.0703 205.20508 z M 3443.752 217.53516 C 3446.8044 219.34847 3448.332 220.95156 3448.332 222.3418 C 3448.332 223.49024 3447.8627 224.51717 3446.9258 225.42383 C 3445.9889 226.33049 3444.9914 226.7832 3443.9336 226.7832 C 3442.906 226.7832 3441.9546 226.39123 3441.0781 225.60547 C 3440.2319 224.78947 3439.8086 223.838 3439.8086 222.75 C 3439.8086 220.93666 3441.1226 219.19737 3443.752 217.53516 z " transform="scale(0.26458334)" id="rect2302" inkscape:label="87"/>
    </g></svg>
