<?xml version='1.0' encoding='UTF-8'?>
<!-- Created with Inkscape (http://www.inkscape.org/) and export_objects.py -->
<svg xmlns:cc="http://creativecommons.org/ns#" xmlns:dc="http://purl.org/dc/elements/1.1/" xmlns:inkscape="http://www.inkscape.org/namespaces/inkscape" xmlns:rdf="http://www.w3.org/1999/02/22-rdf-syntax-ns#" xmlns:sodipodi="http://sodipodi.sourceforge.net/DTD/sodipodi-0.dtd" xmlns:xlink="http://www.w3.org/1999/xlink" xmlns="http://www.w3.org/2000/svg" version="1.1" width="0.75in" height="0.75in" viewBox="0 0 19.05 19.05" id="svg8" inkscape:version="0.92.3 (2405546, 2018-03-11)" sodipodi:docname="tile-61.svg"><sodipodi:namedview id="base" pagecolor="#ffffff" bordercolor="#666666" borderopacity="1.0" inkscape:pageopacity="0.0" inkscape:pageshadow="2" inkscape:zoom="1.372378" inkscape:cx="4212.1852" inkscape:cy="477.45784" inkscape:document-units="in" inkscape:current-layer="layer3" showgrid="true" units="in" inkscape:snap-others="true" inkscape:snap-grids="true" inkscape:window-width="1280" inkscape:window-height="940" inkscape:window-x="1909" inkscape:window-y="43" inkscape:window-maximized="1" inkscape:snap-midpoints="false" inkscape:object-nodes="true" inkscape:snap-text-baseline="true" inkscape:snap-smooth-nodes="false" showguides="false" inkscape:snap-object-midpoints="true" inkscape:snap-center="true" inkscape:snap-to-guides="false" inkscape:snap-nodes="true" inkscape:snap-intersection-paths="false">
    <inkscape:grid type="xygrid" id="grid10" units="pt" spacingx="3.1750001" spacingy="3.1750001"/>
    <sodipodi:guide position="380.20625,103.1875" orientation="0,1" id="guide9455" inkscape:locked="false"/>
  </sodipodi:namedview>
  <metadata id="metadata5">
    <rdf:RDF>
      <cc:Work rdf:about="">
        <dc:format>image/svg+xml</dc:format>
        <dc:type rdf:resource="http://purl.org/dc/dcmitype/StillImage"/>
        <dc:title/>
      </cc:Work>
    </rdf:RDF>
  </metadata>
  <g inkscape:groupmode="layer" inkscape:label="tile-" transform="matrix(1.000000,0.000000,0.000000,1.000000,-327.025000,-47.625000)"><path style="display:inline;opacity:1;fill:#000000;fill-opacity:1;stroke:none;stroke-width:0.66666669;stroke-linecap:butt;stroke-linejoin:miter;stroke-miterlimit:47.14606857;stroke-dasharray:none;stroke-dashoffset:0;stroke-opacity:1;paint-order:markers fill stroke" d="M 1236 180 L 1236 252 L 1308 252 L 1308 180 L 1236 180 z M 1272 185.95703 A 30.02157 30.02157 0 0 1 1302.0215 215.97852 A 30.02157 30.02157 0 0 1 1272 246 A 30.02157 30.02157 0 0 1 1241.9785 215.97852 A 30.02157 30.02157 0 0 1 1272 185.95703 z M 1265.9297 201.66992 C 1263.119 203.63436 1260.7761 206.36922 1258.9023 209.875 C 1257.0588 213.38078 1256.1367 216.7947 1256.1367 220.11914 C 1256.1367 223.23203 1256.998 225.84734 1258.7207 227.96289 C 1260.5945 230.29 1263.1637 231.45312 1266.4277 231.45312 C 1269.2989 231.45312 1271.7025 230.54575 1273.6367 228.73242 C 1275.6012 226.88886 1276.582 224.60867 1276.582 221.88867 C 1276.582 219.38023 1275.6913 217.23428 1273.9082 215.45117 C 1272.1251 213.63784 1269.9037 212.73047 1267.2441 212.73047 C 1265.5517 212.73047 1264.0407 213.03227 1262.7109 213.63672 C 1265.1287 208.01538 1268.6955 204.02725 1273.4102 201.66992 L 1265.9297 201.66992 z M 1280.9688 201.66992 L 1280.9688 231 L 1286.2285 231 L 1286.2285 201.66992 L 1280.9688 201.66992 z M 1266.8809 217.49023 C 1268.0293 217.49023 1269.0415 217.9743 1269.918 218.94141 C 1270.7944 219.8783 1271.2344 220.96597 1271.2344 222.20508 C 1271.2344 223.47441 1270.7944 224.56208 1269.918 225.46875 C 1269.0717 226.34519 1268.0595 226.7832 1266.8809 226.7832 C 1265.4604 226.7832 1264.2071 226.31579 1263.1191 225.37891 C 1262.0311 224.41179 1261.4863 223.20262 1261.4863 221.75195 C 1261.4863 220.60351 1261.6372 219.83234 1261.9395 219.43945 C 1262.967 218.1399 1264.6142 217.49023 1266.8809 217.49023 z " transform="scale(0.26458334)" id="rect2250" inkscape:label="61"/>
    </g></svg>
