<?xml version='1.0' encoding='UTF-8'?>
<!-- Created with Inkscape (http://www.inkscape.org/) and export_objects.py -->
<svg xmlns:cc="http://creativecommons.org/ns#" xmlns:dc="http://purl.org/dc/elements/1.1/" xmlns:inkscape="http://www.inkscape.org/namespaces/inkscape" xmlns:rdf="http://www.w3.org/1999/02/22-rdf-syntax-ns#" xmlns:sodipodi="http://sodipodi.sourceforge.net/DTD/sodipodi-0.dtd" xmlns:xlink="http://www.w3.org/1999/xlink" xmlns="http://www.w3.org/2000/svg" version="1.1" width="0.75in" height="0.75in" viewBox="0 0 19.05 19.05" id="svg8" inkscape:version="0.92.3 (2405546, 2018-03-11)" sodipodi:docname="tile-59.svg"><sodipodi:namedview id="base" pagecolor="#ffffff" bordercolor="#666666" borderopacity="1.0" inkscape:pageopacity="0.0" inkscape:pageshadow="2" inkscape:zoom="1.372378" inkscape:cx="4212.1852" inkscape:cy="477.45784" inkscape:document-units="in" inkscape:current-layer="layer3" showgrid="true" units="in" inkscape:snap-others="true" inkscape:snap-grids="true" inkscape:window-width="1280" inkscape:window-height="940" inkscape:window-x="1909" inkscape:window-y="43" inkscape:window-maximized="1" inkscape:snap-midpoints="false" inkscape:object-nodes="true" inkscape:snap-text-baseline="true" inkscape:snap-smooth-nodes="false" showguides="false" inkscape:snap-object-midpoints="true" inkscape:snap-center="true" inkscape:snap-to-guides="false" inkscape:snap-nodes="true" inkscape:snap-intersection-paths="false">
    <inkscape:grid type="xygrid" id="grid10" units="pt" spacingx="3.1750001" spacingy="3.1750001"/>
    <sodipodi:guide position="380.20625,103.1875" orientation="0,1" id="guide9455" inkscape:locked="false"/>
  </sodipodi:namedview>
  <metadata id="metadata5">
    <rdf:RDF>
      <cc:Work rdf:about="">
        <dc:format>image/svg+xml</dc:format>
        <dc:type rdf:resource="http://purl.org/dc/dcmitype/StillImage"/>
        <dc:title/>
      </cc:Work>
    </rdf:RDF>
  </metadata>
  <g inkscape:groupmode="layer" inkscape:label="tile-" transform="matrix(1.000000,0.000000,0.000000,1.000000,-282.575000,-47.625000)"><path style="display:inline;opacity:1;fill:#000000;fill-opacity:1;stroke:none;stroke-width:0.66666669;stroke-linecap:butt;stroke-linejoin:miter;stroke-miterlimit:47.14606857;stroke-dasharray:none;stroke-dashoffset:0;stroke-opacity:1;paint-order:markers fill stroke" d="M 1068 180 L 1068 252 L 1140 252 L 1140 180 L 1068 180 z M 1104 185.95703 A 30.02157 30.02157 0 0 1 1134.0215 215.97852 A 30.02157 30.02157 0 0 1 1104 246 A 30.02157 30.02157 0 0 1 1073.9785 215.97852 A 30.02157 30.02157 0 0 1 1104 185.95703 z M 1115.3047 201.26172 C 1112.4034 201.26172 1109.9096 202.18379 1107.8242 204.02734 C 1105.7691 205.84068 1104.7422 208.10617 1104.7422 210.82617 C 1104.7422 213.33462 1105.6476 215.46586 1107.4609 217.21875 C 1109.3045 218.97164 1111.5572 219.84766 1114.2168 219.84766 C 1115.3652 219.84766 1116.8008 219.4851 1118.5234 218.75977 C 1116.9821 222.7491 1113.3085 226.82933 1107.5059 231 L 1114.4883 231 C 1117.571 228.88444 1120.0648 226.25444 1121.9688 223.11133 C 1123.9936 219.78688 1125.0059 216.40237 1125.0059 212.95703 C 1125.0059 209.93481 1124.2347 207.32146 1122.6934 205.11523 C 1120.88 202.54634 1118.4176 201.26172 1115.3047 201.26172 z M 1086.4609 201.71484 L 1084.5117 217.30859 C 1086.8691 216.61348 1088.5623 216.26758 1089.5898 216.26758 C 1091.1916 216.26758 1092.5958 216.74969 1093.8047 217.7168 C 1095.1345 218.77457 1095.8008 220.09055 1095.8008 221.66211 C 1095.8008 222.99189 1095.3314 224.15501 1094.3945 225.15234 C 1093.4879 226.11945 1092.4296 226.60352 1091.2207 226.60352 C 1089.2865 226.60352 1087.6246 225.40904 1086.2344 223.02148 L 1085.9629 223.02148 L 1082.8809 226.96484 C 1085.1173 229.92662 1087.7307 231.4082 1090.7227 231.4082 C 1093.7449 231.4082 1096.2681 230.48613 1098.293 228.64258 C 1100.3178 226.7688 1101.3301 224.4112 1101.3301 221.57031 C 1101.3301 218.60853 1100.2884 216.20684 1098.2031 214.36328 C 1096.2084 212.64061 1093.6539 211.70384 1090.541 211.55273 L 1091.1758 206.20312 L 1099.1543 206.20312 L 1101.375 201.71484 L 1086.4609 201.71484 z M 1114.9863 205.93164 C 1116.4975 205.93164 1117.7213 206.67145 1118.6582 208.15234 C 1119.444 209.4519 1119.8673 211.00893 1119.9277 212.82227 C 1118.8699 213.72893 1117.9792 214.33254 1117.2539 214.63477 C 1116.4077 215.02766 1115.3955 215.22461 1114.2168 215.22461 C 1113.0683 215.22461 1112.0542 214.74055 1111.1777 213.77344 C 1110.3013 212.80633 1109.8633 211.6873 1109.8633 210.41797 C 1109.8633 209.11841 1110.3934 208.04544 1111.4512 207.19922 C 1112.5089 206.353 1113.6868 205.93164 1114.9863 205.93164 z " transform="scale(0.26458334)" id="rect2246" inkscape:label="59"/>
    </g></svg>
