<?xml version='1.0' encoding='UTF-8'?>
<!-- Created with Inkscape (http://www.inkscape.org/) and export_objects.py -->
<svg xmlns:cc="http://creativecommons.org/ns#" xmlns:dc="http://purl.org/dc/elements/1.1/" xmlns:inkscape="http://www.inkscape.org/namespaces/inkscape" xmlns:rdf="http://www.w3.org/1999/02/22-rdf-syntax-ns#" xmlns:sodipodi="http://sodipodi.sourceforge.net/DTD/sodipodi-0.dtd" xmlns:xlink="http://www.w3.org/1999/xlink" xmlns="http://www.w3.org/2000/svg" version="1.1" width="0.75in" height="0.75in" viewBox="0 0 19.05 19.05" id="svg8" inkscape:version="0.92.3 (2405546, 2018-03-11)" sodipodi:docname="tile-92.svg"><sodipodi:namedview id="base" pagecolor="#ffffff" bordercolor="#666666" borderopacity="1.0" inkscape:pageopacity="0.0" inkscape:pageshadow="2" inkscape:zoom="1.372378" inkscape:cx="4212.1852" inkscape:cy="477.45784" inkscape:document-units="in" inkscape:current-layer="layer3" showgrid="true" units="in" inkscape:snap-others="true" inkscape:snap-grids="true" inkscape:window-width="1280" inkscape:window-height="940" inkscape:window-x="1909" inkscape:window-y="43" inkscape:window-maximized="1" inkscape:snap-midpoints="false" inkscape:object-nodes="true" inkscape:snap-text-baseline="true" inkscape:snap-smooth-nodes="false" showguides="false" inkscape:snap-object-midpoints="true" inkscape:snap-center="true" inkscape:snap-to-guides="false" inkscape:snap-nodes="true" inkscape:snap-intersection-paths="false">
    <inkscape:grid type="xygrid" id="grid10" units="pt" spacingx="3.1750001" spacingy="3.1750001"/>
    <sodipodi:guide position="380.20625,103.1875" orientation="0,1" id="guide9455" inkscape:locked="false"/>
  </sodipodi:namedview>
  <metadata id="metadata5">
    <rdf:RDF>
      <cc:Work rdf:about="">
        <dc:format>image/svg+xml</dc:format>
        <dc:type rdf:resource="http://purl.org/dc/dcmitype/StillImage"/>
        <dc:title/>
      </cc:Work>
    </rdf:RDF>
  </metadata>
  <g inkscape:groupmode="layer" inkscape:label="tile-" transform="matrix(1.000000,0.000000,0.000000,1.000000,-1016.000000,-47.625000)"><path style="display:inline;opacity:1;fill:#000000;fill-opacity:1;stroke:none;stroke-width:0.66666669;stroke-linecap:butt;stroke-linejoin:miter;stroke-miterlimit:47.14606857;stroke-dasharray:none;stroke-dashoffset:0;stroke-opacity:1;paint-order:markers fill stroke" d="M 3840 180 L 3840 252 L 3912 252 L 3912 180 L 3840 180 z M 3876 185.95703 A 30.02157 30.02157 0 0 1 3906.0215 215.97852 A 30.02157 30.02157 0 0 1 3876 246 A 30.02157 30.02157 0 0 1 3845.9785 215.97852 A 30.02157 30.02157 0 0 1 3876 185.95703 z M 3887.1523 201.03516 C 3884.3719 201.03516 3881.5614 202.09148 3878.7207 204.20703 L 3878.7207 211.32617 L 3878.9473 211.32617 C 3881.5766 207.75994 3884.3114 205.97656 3887.1523 205.97656 C 3888.0892 205.97656 3888.9213 206.26365 3889.6465 206.83789 C 3890.4021 207.4121 3890.7793 208.15191 3890.7793 209.05859 C 3890.7793 209.7537 3890.5842 210.66109 3890.1914 211.7793 C 3889.7986 212.8673 3889.3901 213.74331 3888.9668 214.4082 L 3878.1777 231 L 3897.4434 231 L 3897.4434 226.60352 L 3887.2441 226.60352 C 3889.118 223.88352 3890.9916 221.14672 3892.8652 218.39648 C 3895.1924 214.76983 3896.3555 211.80861 3896.3555 209.51172 C 3896.3555 206.82196 3895.5255 204.73675 3893.8633 203.25586 C 3892.2313 201.77496 3889.9933 201.03516 3887.1523 201.03516 z M 3864.3711 201.26172 C 3861.4697 201.26172 3858.9779 202.18379 3856.8926 204.02734 C 3854.8375 205.84069 3853.8086 208.10617 3853.8086 210.82617 C 3853.8086 213.33462 3854.7161 215.46586 3856.5293 217.21875 C 3858.373 218.97162 3860.6237 219.84766 3863.2832 219.84766 C 3864.4317 219.84766 3865.8671 219.48508 3867.5898 218.75977 C 3866.0483 222.74911 3862.3768 226.82934 3856.5742 231 L 3863.5566 231 C 3866.6392 228.88445 3869.131 226.25443 3871.0352 223.11133 C 3873.06 219.78688 3874.0723 216.40237 3874.0723 212.95703 C 3874.0723 209.9348 3873.303 207.32145 3871.7617 205.11523 C 3869.9483 202.54634 3867.4839 201.26172 3864.3711 201.26172 z M 3864.0547 205.92969 C 3865.5657 205.92969 3866.7897 206.67145 3867.7266 208.15234 C 3868.5125 209.4519 3868.9356 211.00697 3868.9961 212.82031 C 3867.9383 213.72697 3867.0457 214.33255 3866.3203 214.63477 C 3865.4742 215.02766 3864.4619 215.22461 3863.2832 215.22461 C 3862.1347 215.22461 3861.1224 214.74054 3860.2461 213.77344 C 3859.3695 212.80633 3858.9316 211.68731 3858.9316 210.41797 C 3858.9316 209.11842 3859.4598 208.04545 3860.5176 207.19922 C 3861.5753 206.35301 3862.755 205.92969 3864.0547 205.92969 z " transform="scale(0.26458334)" id="rect2312" inkscape:label="92"/>
    </g></svg>
