<?xml version='1.0' encoding='UTF-8'?>
<!-- Created with Inkscape (http://www.inkscape.org/) and export_objects.py -->
<svg xmlns:cc="http://creativecommons.org/ns#" xmlns:dc="http://purl.org/dc/elements/1.1/" xmlns:inkscape="http://www.inkscape.org/namespaces/inkscape" xmlns:rdf="http://www.w3.org/1999/02/22-rdf-syntax-ns#" xmlns:sodipodi="http://sodipodi.sourceforge.net/DTD/sodipodi-0.dtd" xmlns:xlink="http://www.w3.org/1999/xlink" xmlns="http://www.w3.org/2000/svg" version="1.1" width="0.75in" height="0.75in" viewBox="0 0 19.05 19.05" id="svg8" inkscape:version="0.92.3 (2405546, 2018-03-11)" sodipodi:docname="tile-74.svg"><sodipodi:namedview id="base" pagecolor="#ffffff" bordercolor="#666666" borderopacity="1.0" inkscape:pageopacity="0.0" inkscape:pageshadow="2" inkscape:zoom="1.372378" inkscape:cx="4212.1852" inkscape:cy="477.45784" inkscape:document-units="in" inkscape:current-layer="layer3" showgrid="true" units="in" inkscape:snap-others="true" inkscape:snap-grids="true" inkscape:window-width="1280" inkscape:window-height="940" inkscape:window-x="1909" inkscape:window-y="43" inkscape:window-maximized="1" inkscape:snap-midpoints="false" inkscape:object-nodes="true" inkscape:snap-text-baseline="true" inkscape:snap-smooth-nodes="false" showguides="false" inkscape:snap-object-midpoints="true" inkscape:snap-center="true" inkscape:snap-to-guides="false" inkscape:snap-nodes="true" inkscape:snap-intersection-paths="false">
    <inkscape:grid type="xygrid" id="grid10" units="pt" spacingx="3.1750001" spacingy="3.1750001"/>
    <sodipodi:guide position="380.20625,103.1875" orientation="0,1" id="guide9455" inkscape:locked="false"/>
  </sodipodi:namedview>
  <metadata id="metadata5">
    <rdf:RDF>
      <cc:Work rdf:about="">
        <dc:format>image/svg+xml</dc:format>
        <dc:type rdf:resource="http://purl.org/dc/dcmitype/StillImage"/>
        <dc:title/>
      </cc:Work>
    </rdf:RDF>
  </metadata>
  <g inkscape:groupmode="layer" inkscape:label="tile-" transform="matrix(1.000000,0.000000,0.000000,1.000000,-593.725000,-47.625000)"><path style="display:inline;opacity:1;fill:#000000;fill-opacity:1;stroke:none;stroke-width:0.66666669;stroke-linecap:butt;stroke-linejoin:miter;stroke-miterlimit:47.14606857;stroke-dasharray:none;stroke-dashoffset:0;stroke-opacity:1;paint-order:markers fill stroke" d="M 2244 180 L 2244 252 L 2316 252 L 2316 180 L 2244 180 z M 2280 185.95703 A 30.02157 30.02157 0 0 1 2310.0215 215.97852 A 30.02157 30.02157 0 0 1 2280 246 A 30.02157 30.02157 0 0 1 2249.9785 215.97852 A 30.02157 30.02157 0 0 1 2280 185.95703 z M 2258.7168 201.71484 L 2258.7168 206.42969 L 2270.7754 206.42969 L 2257.2207 231 L 2262.9336 231 L 2279.3438 201.71484 L 2258.7168 201.71484 z M 2282.5801 201.71484 L 2282.5801 206.33789 L 2293.959 206.33789 L 2288.0195 216.58398 C 2290.6488 216.58398 2292.5978 216.96124 2293.8672 217.7168 C 2295.3178 218.59324 2296.043 220.07481 2296.043 222.16016 C 2296.043 223.33881 2295.605 224.33634 2294.7285 225.15234 C 2293.8521 225.96834 2292.8399 226.37695 2291.6914 226.37695 C 2289.3341 226.37695 2287.3851 224.89538 2285.8438 221.93359 L 2285.5723 221.93359 L 2282.1719 225.51562 C 2282.4137 226.66405 2283.2456 227.78114 2284.666 228.86914 C 2285.7842 229.74559 2286.9621 230.39523 2288.2012 230.81836 C 2289.1683 231.15078 2290.2099 231.31641 2291.3281 231.31641 C 2294.169 231.31641 2296.6021 230.45508 2298.627 228.73242 C 2300.6518 226.97953 2301.666 224.76008 2301.666 222.07031 C 2301.666 220.19652 2301.1672 218.42784 2300.1699 216.76562 C 2299.1121 214.92207 2297.6913 213.68351 2295.9082 213.04883 L 2302.3906 201.71484 L 2282.5801 201.71484 z " transform="scale(0.26458334)" id="rect2276" inkscape:label="74"/>
    </g></svg>
