<?xml version='1.0' encoding='UTF-8'?>
<!-- Created with Inkscape (http://www.inkscape.org/) and export_objects.py -->
<svg xmlns:cc="http://creativecommons.org/ns#" xmlns:dc="http://purl.org/dc/elements/1.1/" xmlns:inkscape="http://www.inkscape.org/namespaces/inkscape" xmlns:rdf="http://www.w3.org/1999/02/22-rdf-syntax-ns#" xmlns:sodipodi="http://sodipodi.sourceforge.net/DTD/sodipodi-0.dtd" xmlns:xlink="http://www.w3.org/1999/xlink" xmlns="http://www.w3.org/2000/svg" version="1.1" width="0.75in" height="0.75in" viewBox="0 0 19.05 19.05" id="svg8" inkscape:version="0.92.3 (2405546, 2018-03-11)" sodipodi:docname="tile-31.svg"><sodipodi:namedview id="base" pagecolor="#ffffff" bordercolor="#666666" borderopacity="1.0" inkscape:pageopacity="0.0" inkscape:pageshadow="2" inkscape:zoom="1.372378" inkscape:cx="4746.9979" inkscape:cy="477.45784" inkscape:document-units="in" inkscape:current-layer="layer3" showgrid="true" units="in" inkscape:snap-others="true" inkscape:snap-grids="true" inkscape:window-width="1280" inkscape:window-height="940" inkscape:window-x="1909" inkscape:window-y="43" inkscape:window-maximized="1" inkscape:snap-midpoints="false" inkscape:object-nodes="true" inkscape:snap-text-baseline="true" inkscape:snap-smooth-nodes="false" showguides="false" inkscape:snap-object-midpoints="true" inkscape:snap-center="true" inkscape:snap-to-guides="false" inkscape:snap-nodes="true" inkscape:snap-intersection-paths="false">
    <inkscape:grid type="xygrid" id="grid10" units="pt" spacingx="3.1750001" spacingy="3.1750001"/>
    <sodipodi:guide position="380.20625,103.1875" orientation="0,1" id="guide9455" inkscape:locked="false"/>
  </sodipodi:namedview>
  <metadata id="metadata5">
    <rdf:RDF>
      <cc:Work rdf:about="">
        <dc:format>image/svg+xml</dc:format>
        <dc:type rdf:resource="http://purl.org/dc/dcmitype/StillImage"/>
        <dc:title/>
      </cc:Work>
    </rdf:RDF>
  </metadata>
  <g inkscape:groupmode="layer" inkscape:label="tile-" transform="matrix(1.000000,0.000000,0.000000,1.000000,-771.525000,-69.850000)"><path style="display:inline;opacity:1;fill:#000000;fill-opacity:1;stroke:none;stroke-width:0.66666663;stroke-linecap:butt;stroke-linejoin:miter;stroke-miterlimit:47.14606857;stroke-dasharray:none;stroke-dashoffset:0;stroke-opacity:1;paint-order:markers fill stroke" d="M 2916 264 L 2916 336 L 2988 336 L 2988 264 L 2916 264 z M 2952 269.95703 A 30.02157 30.02157 0 0 1 2982.0215 299.97852 A 30.02157 30.02157 0 0 1 2952 330 A 30.02157 30.02157 0 0 1 2921.9785 299.97852 A 30.02157 30.02157 0 0 1 2952 269.95703 z M 2961.1465 285.66992 L 2961.1465 315 L 2966.4062 315 L 2966.4062 285.66992 L 2961.1465 285.66992 z M 2937.0488 285.71484 L 2937.0488 290.33789 L 2948.4277 290.33789 L 2942.4883 300.58398 C 2945.1176 300.58398 2947.0666 300.96124 2948.3359 301.7168 C 2949.7866 302.59324 2950.5117 304.07482 2950.5117 306.16016 C 2950.5117 307.33882 2950.0737 308.33634 2949.1973 309.15234 C 2948.3208 309.96835 2947.3086 310.375 2946.1602 310.375 C 2943.8028 310.375 2941.8538 308.89537 2940.3125 305.93359 L 2940.041 305.93359 L 2936.6406 309.51367 C 2936.8824 310.66212 2937.7124 311.78114 2939.1328 312.86914 C 2940.251 313.74559 2941.4308 314.39525 2942.6699 314.81836 C 2943.6371 315.1508 2944.6787 315.31641 2945.7969 315.31641 C 2948.6378 315.31641 2951.0708 314.45509 2953.0957 312.73242 C 2955.1206 310.97953 2956.1328 308.75814 2956.1328 306.06836 C 2956.1328 304.19458 2955.636 302.42785 2954.6387 300.76562 C 2953.5809 298.92207 2952.1601 297.68349 2950.377 297.04883 L 2956.8594 285.71484 L 2937.0488 285.71484 z " transform="scale(0.26458334)" id="rect1558" inkscape:label="31"/>
    </g></svg>
