<?xml version='1.0' encoding='UTF-8'?>
<!-- Created with Inkscape (http://www.inkscape.org/) and export_objects.py -->
<svg xmlns:cc="http://creativecommons.org/ns#" xmlns:dc="http://purl.org/dc/elements/1.1/" xmlns:inkscape="http://www.inkscape.org/namespaces/inkscape" xmlns:rdf="http://www.w3.org/1999/02/22-rdf-syntax-ns#" xmlns:sodipodi="http://sodipodi.sourceforge.net/DTD/sodipodi-0.dtd" xmlns:xlink="http://www.w3.org/1999/xlink" xmlns="http://www.w3.org/2000/svg" version="1.1" width="0.75in" height="0.75in" viewBox="0 0 19.05 19.05" id="svg8" inkscape:version="0.92.3 (2405546, 2018-03-11)" sodipodi:docname="tile-42.svg"><sodipodi:namedview id="base" pagecolor="#ffffff" bordercolor="#666666" borderopacity="1.0" inkscape:pageopacity="0.0" inkscape:pageshadow="2" inkscape:zoom="1.372378" inkscape:cx="4746.9979" inkscape:cy="477.45784" inkscape:document-units="in" inkscape:current-layer="layer3" showgrid="true" units="in" inkscape:snap-others="true" inkscape:snap-grids="true" inkscape:window-width="1280" inkscape:window-height="940" inkscape:window-x="1909" inkscape:window-y="43" inkscape:window-maximized="1" inkscape:snap-midpoints="false" inkscape:object-nodes="true" inkscape:snap-text-baseline="true" inkscape:snap-smooth-nodes="false" showguides="false" inkscape:snap-object-midpoints="true" inkscape:snap-center="true" inkscape:snap-to-guides="false" inkscape:snap-nodes="true" inkscape:snap-intersection-paths="false">
    <inkscape:grid type="xygrid" id="grid10" units="pt" spacingx="3.1750001" spacingy="3.1750001"/>
    <sodipodi:guide position="380.20625,103.1875" orientation="0,1" id="guide9455" inkscape:locked="false"/>
  </sodipodi:namedview>
  <metadata id="metadata5">
    <rdf:RDF>
      <cc:Work rdf:about="">
        <dc:format>image/svg+xml</dc:format>
        <dc:type rdf:resource="http://purl.org/dc/dcmitype/StillImage"/>
        <dc:title/>
      </cc:Work>
    </rdf:RDF>
  </metadata>
  <g inkscape:groupmode="layer" inkscape:label="tile-" transform="matrix(1.000000,0.000000,0.000000,1.000000,-1016.000000,-69.850000)"><path style="display:inline;opacity:1;fill:#000000;fill-opacity:1;stroke:none;stroke-width:0.66666663;stroke-linecap:butt;stroke-linejoin:miter;stroke-miterlimit:47.14606857;stroke-dasharray:none;stroke-dashoffset:0;stroke-opacity:1;paint-order:markers fill stroke" d="M 3840 264 L 3840 336 L 3912 336 L 3912 264 L 3840 264 z M 3876 269.95703 A 30.02157 30.02157 0 0 1 3906.0215 299.97852 A 30.02157 30.02157 0 0 1 3876 330 A 30.02157 30.02157 0 0 1 3845.9785 299.97852 A 30.02157 30.02157 0 0 1 3876 269.95703 z M 3869.5762 283.85547 L 3850.1738 307.06641 L 3864.5898 307.06641 L 3864.5898 315 L 3869.8027 315 L 3869.8027 307.06641 L 3876.5586 307.06641 L 3876.5586 302.39648 L 3869.8027 302.39648 L 3869.8027 283.85547 L 3869.5762 283.85547 z M 3888.7012 285.03516 C 3885.9207 285.03516 3883.1102 286.09343 3880.2695 288.20898 L 3880.2695 295.32617 L 3880.498 295.32617 C 3883.1273 291.75995 3885.8622 289.97656 3888.7031 289.97656 C 3889.6399 289.97656 3890.4699 290.26367 3891.1953 290.83789 C 3891.9507 291.41211 3892.3281 292.15193 3892.3281 293.05859 C 3892.3281 293.7537 3892.1331 294.66107 3891.7402 295.7793 C 3891.3474 296.8673 3890.9389 297.74331 3890.5156 298.4082 L 3879.7266 315 L 3898.9922 315 L 3898.9922 310.60352 L 3888.793 310.60352 C 3890.6669 307.88352 3892.5404 305.14671 3894.4141 302.39648 C 3896.7412 298.76982 3897.9043 295.80861 3897.9043 293.51172 C 3897.9043 290.82194 3897.0743 288.73675 3895.4121 287.25586 C 3893.7801 285.77497 3891.5421 285.03516 3888.7012 285.03516 z M 3864.5 296.14062 L 3864.5 302.39648 L 3859.2852 302.39648 L 3864.5 296.14062 z " transform="scale(0.26458334)" id="rect1640" inkscape:label="42"/>
    </g></svg>
