<?xml version='1.0' encoding='UTF-8'?>
<!-- Created with Inkscape (http://www.inkscape.org/) and export_objects.py -->
<svg xmlns:cc="http://creativecommons.org/ns#" xmlns:dc="http://purl.org/dc/elements/1.1/" xmlns:inkscape="http://www.inkscape.org/namespaces/inkscape" xmlns:rdf="http://www.w3.org/1999/02/22-rdf-syntax-ns#" xmlns:sodipodi="http://sodipodi.sourceforge.net/DTD/sodipodi-0.dtd" xmlns:xlink="http://www.w3.org/1999/xlink" xmlns="http://www.w3.org/2000/svg" version="1.1" width="0.75in" height="0.75in" viewBox="0 0 19.05 19.05" id="svg8" inkscape:version="0.92.3 (2405546, 2018-03-11)" sodipodi:docname="tile-21.svg"><sodipodi:namedview id="base" pagecolor="#ffffff" bordercolor="#666666" borderopacity="1.0" inkscape:pageopacity="0.0" inkscape:pageshadow="2" inkscape:zoom="1.372378" inkscape:cx="4746.9979" inkscape:cy="477.45784" inkscape:document-units="in" inkscape:current-layer="layer3" showgrid="true" units="in" inkscape:snap-others="true" inkscape:snap-grids="true" inkscape:window-width="1280" inkscape:window-height="940" inkscape:window-x="1909" inkscape:window-y="43" inkscape:window-maximized="1" inkscape:snap-midpoints="false" inkscape:object-nodes="true" inkscape:snap-text-baseline="true" inkscape:snap-smooth-nodes="false" showguides="false" inkscape:snap-object-midpoints="true" inkscape:snap-center="true" inkscape:snap-to-guides="false" inkscape:snap-nodes="true" inkscape:snap-intersection-paths="false">
    <inkscape:grid type="xygrid" id="grid10" units="pt" spacingx="3.1750001" spacingy="3.1750001"/>
    <sodipodi:guide position="380.20625,103.1875" orientation="0,1" id="guide9455" inkscape:locked="false"/>
  </sodipodi:namedview>
  <metadata id="metadata5">
    <rdf:RDF>
      <cc:Work rdf:about="">
        <dc:format>image/svg+xml</dc:format>
        <dc:type rdf:resource="http://purl.org/dc/dcmitype/StillImage"/>
        <dc:title/>
      </cc:Work>
    </rdf:RDF>
  </metadata>
  <g inkscape:groupmode="layer" inkscape:label="tile-" transform="matrix(1.000000,0.000000,0.000000,1.000000,-749.300000,-69.850000)"><path style="display:inline;opacity:1;fill:#000000;fill-opacity:1;stroke:none;stroke-width:0.66666663;stroke-linecap:butt;stroke-linejoin:miter;stroke-miterlimit:47.14606857;stroke-dasharray:none;stroke-dashoffset:0;stroke-opacity:1;paint-order:markers fill stroke" d="M 2832 264 L 2832 336 L 2904 336 L 2904 264 L 2832 264 z M 2868 269.95703 A 30.02157 30.02157 0 0 1 2898.0215 299.97852 A 30.02157 30.02157 0 0 1 2868 330 A 30.02157 30.02157 0 0 1 2837.9785 299.97852 A 30.02157 30.02157 0 0 1 2868 269.95703 z M 2879.6465 285.39648 C 2876.2314 285.39648 2873.618 287.19652 2871.8047 290.79297 C 2870.4145 293.57341 2869.7187 296.74628 2869.7188 300.3125 C 2869.7188 303.87872 2870.4145 307.05159 2871.8047 309.83203 C 2873.618 313.42847 2876.2314 315.22656 2879.6465 315.22656 C 2883.0918 315.22656 2885.7218 313.42847 2887.5352 309.83203 C 2888.9254 307.05159 2889.6211 303.87872 2889.6211 300.3125 C 2889.6211 296.71606 2888.9254 293.52654 2887.5352 290.74609 C 2885.7521 287.17987 2883.122 285.39648 2879.6465 285.39648 z M 2847.1172 285.71484 L 2847.1172 290.33789 L 2858.4961 290.33789 L 2852.5566 300.58398 C 2855.186 300.58398 2857.135 300.96124 2858.4043 301.7168 C 2859.855 302.59324 2860.5801 304.07482 2860.5801 306.16016 C 2860.5801 307.33882 2860.1421 308.33634 2859.2656 309.15234 C 2858.3892 309.96834 2857.377 310.37695 2856.2285 310.37695 C 2853.8712 310.37695 2851.9222 308.89537 2850.3809 305.93359 L 2850.1094 305.93359 L 2846.709 309.51562 C 2846.9507 310.66407 2847.7807 311.78114 2849.2012 312.86914 C 2850.3194 313.74559 2851.4992 314.39525 2852.7383 314.81836 C 2853.7054 315.1508 2854.747 315.31641 2855.8652 315.31641 C 2858.7061 315.31641 2861.1392 314.45509 2863.1641 312.73242 C 2865.189 310.97953 2866.2012 308.76009 2866.2012 306.07031 C 2866.2012 304.19653 2865.7024 302.42785 2864.7051 300.76562 C 2863.6473 298.92207 2862.2284 297.68349 2860.4453 297.04883 L 2866.9277 285.71484 L 2847.1172 285.71484 z M 2879.7383 289.97656 C 2881.4307 289.97656 2882.7153 291.33664 2883.5918 294.05664 C 2884.2265 296.02109 2884.543 298.10628 2884.543 300.3125 C 2884.543 302.57917 2884.2412 304.66436 2883.6367 306.56836 C 2882.7905 309.25814 2881.4912 310.60352 2879.7383 310.60352 C 2878.0156 310.60352 2876.731 309.25814 2875.8848 306.56836 C 2875.2803 304.66436 2874.9766 302.57917 2874.9766 300.3125 C 2874.9766 298.92228 2875.1128 297.5475 2875.3848 296.1875 C 2875.687 294.64617 2876.1858 293.30079 2876.8809 292.15234 C 2877.7271 290.70168 2878.6805 289.97656 2879.7383 289.97656 z " transform="scale(0.26458334)" id="rect1478" inkscape:label="21"/>
    </g></svg>
