<?xml version='1.0' encoding='UTF-8'?>
<!-- Created with Inkscape (http://www.inkscape.org/) and export_objects.py -->
<svg xmlns:cc="http://creativecommons.org/ns#" xmlns:dc="http://purl.org/dc/elements/1.1/" xmlns:inkscape="http://www.inkscape.org/namespaces/inkscape" xmlns:rdf="http://www.w3.org/1999/02/22-rdf-syntax-ns#" xmlns:sodipodi="http://sodipodi.sourceforge.net/DTD/sodipodi-0.dtd" xmlns:xlink="http://www.w3.org/1999/xlink" xmlns="http://www.w3.org/2000/svg" version="1.1" width="0.75in" height="0.75in" viewBox="0 0 19.05 19.05" id="svg8" inkscape:version="0.92.3 (2405546, 2018-03-11)" sodipodi:docname="tile-46.svg"><sodipodi:namedview id="base" pagecolor="#ffffff" bordercolor="#666666" borderopacity="1.0" inkscape:pageopacity="0.0" inkscape:pageshadow="2" inkscape:zoom="1.372378" inkscape:cx="4746.9979" inkscape:cy="477.45784" inkscape:document-units="in" inkscape:current-layer="layer3" showgrid="true" units="in" inkscape:snap-others="true" inkscape:snap-grids="true" inkscape:window-width="1280" inkscape:window-height="940" inkscape:window-x="1909" inkscape:window-y="43" inkscape:window-maximized="1" inkscape:snap-midpoints="false" inkscape:object-nodes="true" inkscape:snap-text-baseline="true" inkscape:snap-smooth-nodes="false" showguides="false" inkscape:snap-object-midpoints="true" inkscape:snap-center="true" inkscape:snap-to-guides="false" inkscape:snap-nodes="true" inkscape:snap-intersection-paths="false">
    <inkscape:grid type="xygrid" id="grid10" units="pt" spacingx="3.1750001" spacingy="3.1750001"/>
    <sodipodi:guide position="380.20625,103.1875" orientation="0,1" id="guide9455" inkscape:locked="false"/>
  </sodipodi:namedview>
  <metadata id="metadata5">
    <rdf:RDF>
      <cc:Work rdf:about="">
        <dc:format>image/svg+xml</dc:format>
        <dc:type rdf:resource="http://purl.org/dc/dcmitype/StillImage"/>
        <dc:title/>
      </cc:Work>
    </rdf:RDF>
  </metadata>
  <g inkscape:groupmode="layer" inkscape:label="tile-" transform="matrix(1.000000,0.000000,0.000000,1.000000,-1104.900000,-69.850000)"><path style="display:inline;opacity:1;fill:#000000;fill-opacity:1;stroke:none;stroke-width:0.66666663;stroke-linecap:butt;stroke-linejoin:miter;stroke-miterlimit:47.14606857;stroke-dasharray:none;stroke-dashoffset:0;stroke-opacity:1;paint-order:markers fill stroke" d="M 4176 264 L 4176 336 L 4248 336 L 4248 264 L 4176 264 z M 4212 269.95703 A 30.02157 30.02157 0 0 1 4242.0215 299.97852 A 30.02157 30.02157 0 0 1 4212 330 A 30.02157 30.02157 0 0 1 4181.9785 299.97852 A 30.02157 30.02157 0 0 1 4212 269.95703 z M 4205.8418 283.85547 L 4186.4395 307.06641 L 4200.8555 307.06641 L 4200.8555 315 L 4206.0684 315 L 4206.0684 307.06641 L 4212.8242 307.06641 L 4212.8242 302.39648 L 4206.0684 302.39648 L 4206.0684 283.85547 L 4205.8418 283.85547 z M 4224.877 285.66992 C 4222.0662 287.63437 4219.7255 290.36922 4217.8516 293.875 C 4216.0082 297.38078 4215.0859 300.7947 4215.0859 304.11914 C 4215.0859 307.23203 4215.9475 309.84734 4217.6699 311.96289 C 4219.5438 314.29 4222.113 315.45312 4225.377 315.45312 C 4228.2481 315.45313 4230.6499 314.54575 4232.584 312.73242 C 4234.5486 310.88887 4235.5313 308.60867 4235.5312 305.88867 C 4235.5313 303.38023 4234.6386 301.23428 4232.8555 299.45117 C 4231.0723 297.63784 4228.8509 296.73047 4226.1914 296.73047 C 4224.4989 296.73047 4222.9878 297.03227 4221.6582 297.63672 C 4224.0758 292.01538 4227.6428 288.02726 4232.3574 285.66992 L 4224.877 285.66992 z M 4200.7656 296.14062 L 4200.7656 302.39648 L 4195.5527 302.39648 L 4200.7656 296.14062 z M 4225.8301 301.49023 C 4226.9786 301.49023 4227.9906 301.9743 4228.8672 302.94141 C 4229.7435 303.8783 4230.1816 304.96597 4230.1816 306.20508 C 4230.1816 307.47441 4229.7435 308.56208 4228.8672 309.46875 C 4228.0208 310.34519 4227.0088 310.7832 4225.8301 310.7832 C 4224.4097 310.7832 4223.1544 310.31579 4222.0664 309.37891 C 4220.9784 308.41179 4220.4355 307.20262 4220.4355 305.75195 C 4220.4355 304.60351 4220.5863 303.83234 4220.8887 303.43945 C 4221.9162 302.1399 4223.5636 301.49023 4225.8301 301.49023 z " transform="scale(0.26458334)" id="rect1648" inkscape:label="46"/>
    </g></svg>
