<?xml version='1.0' encoding='UTF-8'?>
<!-- Created with Inkscape (http://www.inkscape.org/) and export_objects.py -->
<svg xmlns:cc="http://creativecommons.org/ns#" xmlns:dc="http://purl.org/dc/elements/1.1/" xmlns:inkscape="http://www.inkscape.org/namespaces/inkscape" xmlns:rdf="http://www.w3.org/1999/02/22-rdf-syntax-ns#" xmlns:sodipodi="http://sodipodi.sourceforge.net/DTD/sodipodi-0.dtd" xmlns:xlink="http://www.w3.org/1999/xlink" xmlns="http://www.w3.org/2000/svg" version="1.1" width="0.75in" height="0.75in" viewBox="0 0 19.05 19.05" id="svg8" inkscape:version="0.92.3 (2405546, 2018-03-11)" sodipodi:docname="tile-36.svg"><sodipodi:namedview id="base" pagecolor="#ffffff" bordercolor="#666666" borderopacity="1.0" inkscape:pageopacity="0.0" inkscape:pageshadow="2" inkscape:zoom="1.372378" inkscape:cx="4746.9979" inkscape:cy="477.45784" inkscape:document-units="in" inkscape:current-layer="layer3" showgrid="true" units="in" inkscape:snap-others="true" inkscape:snap-grids="true" inkscape:window-width="1280" inkscape:window-height="940" inkscape:window-x="1909" inkscape:window-y="43" inkscape:window-maximized="1" inkscape:snap-midpoints="false" inkscape:object-nodes="true" inkscape:snap-text-baseline="true" inkscape:snap-smooth-nodes="false" showguides="false" inkscape:snap-object-midpoints="true" inkscape:snap-center="true" inkscape:snap-to-guides="false" inkscape:snap-nodes="true" inkscape:snap-intersection-paths="false">
    <inkscape:grid type="xygrid" id="grid10" units="pt" spacingx="3.1750001" spacingy="3.1750001"/>
    <sodipodi:guide position="380.20625,103.1875" orientation="0,1" id="guide9455" inkscape:locked="false"/>
  </sodipodi:namedview>
  <metadata id="metadata5">
    <rdf:RDF>
      <cc:Work rdf:about="">
        <dc:format>image/svg+xml</dc:format>
        <dc:type rdf:resource="http://purl.org/dc/dcmitype/StillImage"/>
        <dc:title/>
      </cc:Work>
    </rdf:RDF>
  </metadata>
  <g inkscape:groupmode="layer" inkscape:label="tile-" transform="matrix(1.000000,0.000000,0.000000,1.000000,-882.650000,-69.850000)"><path style="display:inline;opacity:1;fill:#000000;fill-opacity:1;stroke:none;stroke-width:0.66666663;stroke-linecap:butt;stroke-linejoin:miter;stroke-miterlimit:47.14606857;stroke-dasharray:none;stroke-dashoffset:0;stroke-opacity:1;paint-order:markers fill stroke" d="M 3336 264 L 3336 336 L 3408 336 L 3408 264 L 3336 264 z M 3372 269.95703 A 30.02157 30.02157 0 0 1 3402.0215 299.97852 A 30.02157 30.02157 0 0 1 3372 330 A 30.02157 30.02157 0 0 1 3341.9785 299.97852 A 30.02157 30.02157 0 0 1 3372 269.95703 z M 3383.2832 285.66992 C 3380.4725 287.63437 3378.1316 290.36922 3376.2578 293.875 C 3374.4143 297.38078 3373.4922 300.7947 3373.4922 304.11914 C 3373.4922 307.23203 3374.3535 309.84734 3376.0762 311.96289 C 3377.95 314.29 3380.5192 315.45312 3383.7832 315.45312 C 3386.6543 315.45312 3389.056 314.54575 3390.9902 312.73242 C 3392.9547 310.88886 3393.9375 308.60867 3393.9375 305.88867 C 3393.9375 303.38023 3393.0448 301.23428 3391.2617 299.45117 C 3389.4786 297.63784 3387.2572 296.73047 3384.5977 296.73047 C 3382.9052 296.73047 3381.3942 297.03228 3380.0645 297.63672 C 3382.4822 292.01539 3386.049 288.02726 3390.7637 285.66992 L 3383.2832 285.66992 z M 3351.1152 285.71484 L 3351.1152 290.33789 L 3362.4941 290.33789 L 3356.5566 300.58398 C 3359.186 300.58398 3361.135 300.96124 3362.4043 301.7168 C 3363.855 302.59324 3364.5801 304.07482 3364.5801 306.16016 C 3364.5801 307.33882 3364.142 308.33634 3363.2656 309.15234 C 3362.3892 309.96834 3361.377 310.375 3360.2285 310.375 C 3357.8712 310.375 3355.9222 308.89537 3354.3809 305.93359 L 3354.1074 305.93359 L 3350.709 309.51367 C 3350.9508 310.66212 3351.7807 311.78114 3353.2012 312.86914 C 3354.3194 313.74559 3355.4992 314.39525 3356.7383 314.81836 C 3357.7054 315.1508 3358.747 315.31641 3359.8652 315.31641 C 3362.7061 315.31641 3365.1392 314.45509 3367.1641 312.73242 C 3369.189 310.97953 3370.2012 308.75814 3370.2012 306.06836 C 3370.2012 304.19458 3369.7024 302.42785 3368.7051 300.76562 C 3367.6473 298.92207 3366.2265 297.68349 3364.4434 297.04883 L 3370.9258 285.71484 L 3351.1152 285.71484 z M 3384.2363 301.49023 C 3385.3848 301.49023 3386.397 301.9743 3387.2734 302.94141 C 3388.1499 303.8783 3388.5879 304.96597 3388.5879 306.20508 C 3388.5879 307.47441 3388.1499 308.56208 3387.2734 309.46875 C 3386.4272 310.34519 3385.415 310.7832 3384.2363 310.7832 C 3382.8159 310.7832 3381.5607 310.31579 3380.4727 309.37891 C 3379.3847 308.41179 3378.8418 307.20262 3378.8418 305.75195 C 3378.8418 304.60351 3378.9927 303.83234 3379.2949 303.43945 C 3380.3225 302.1399 3381.9697 301.49023 3384.2363 301.49023 z " transform="scale(0.26458334)" id="rect1568" inkscape:label="36"/>
    </g></svg>
