<?xml version='1.0' encoding='UTF-8'?>
<!-- Created with Inkscape (http://www.inkscape.org/) and export_objects.py -->
<svg xmlns:cc="http://creativecommons.org/ns#" xmlns:dc="http://purl.org/dc/elements/1.1/" xmlns:inkscape="http://www.inkscape.org/namespaces/inkscape" xmlns:rdf="http://www.w3.org/1999/02/22-rdf-syntax-ns#" xmlns:sodipodi="http://sodipodi.sourceforge.net/DTD/sodipodi-0.dtd" xmlns:xlink="http://www.w3.org/1999/xlink" xmlns="http://www.w3.org/2000/svg" version="1.1" width="0.75in" height="0.75in" viewBox="0 0 19.05 19.05" id="svg8" inkscape:version="0.92.3 (2405546, 2018-03-11)" sodipodi:docname="tile-49.svg"><sodipodi:namedview id="base" pagecolor="#ffffff" bordercolor="#666666" borderopacity="1.0" inkscape:pageopacity="0.0" inkscape:pageshadow="2" inkscape:zoom="1.372378" inkscape:cx="4746.9979" inkscape:cy="477.45784" inkscape:document-units="in" inkscape:current-layer="layer3" showgrid="true" units="in" inkscape:snap-others="true" inkscape:snap-grids="true" inkscape:window-width="1280" inkscape:window-height="940" inkscape:window-x="1909" inkscape:window-y="43" inkscape:window-maximized="1" inkscape:snap-midpoints="false" inkscape:object-nodes="true" inkscape:snap-text-baseline="true" inkscape:snap-smooth-nodes="false" showguides="false" inkscape:snap-object-midpoints="true" inkscape:snap-center="true" inkscape:snap-to-guides="false" inkscape:snap-nodes="true" inkscape:snap-intersection-paths="false">
    <inkscape:grid type="xygrid" id="grid10" units="pt" spacingx="3.1750001" spacingy="3.1750001"/>
    <sodipodi:guide position="380.20625,103.1875" orientation="0,1" id="guide9455" inkscape:locked="false"/>
  </sodipodi:namedview>
  <metadata id="metadata5">
    <rdf:RDF>
      <cc:Work rdf:about="">
        <dc:format>image/svg+xml</dc:format>
        <dc:type rdf:resource="http://purl.org/dc/dcmitype/StillImage"/>
        <dc:title/>
      </cc:Work>
    </rdf:RDF>
  </metadata>
  <g inkscape:groupmode="layer" inkscape:label="tile-" transform="matrix(1.000000,0.000000,0.000000,1.000000,-1171.575000,-69.850000)"><path style="display:inline;opacity:1;fill:#000000;fill-opacity:1;stroke:none;stroke-width:0.66666663;stroke-linecap:butt;stroke-linejoin:miter;stroke-miterlimit:47.14606857;stroke-dasharray:none;stroke-dashoffset:0;stroke-opacity:1;paint-order:markers fill stroke" d="M 4428 264 L 4428 336 L 4500 336 L 4500 264 L 4428 264 z M 4464 269.95703 A 30.02157 30.02157 0 0 1 4494.0215 299.97852 A 30.02157 30.02157 0 0 1 4464 330 A 30.02157 30.02157 0 0 1 4433.9785 299.97852 A 30.02157 30.02157 0 0 1 4464 269.95703 z M 4457.6211 283.85547 L 4438.2188 307.06641 L 4452.6348 307.06641 L 4452.6348 315 L 4457.8477 315 L 4457.8477 307.06641 L 4464.6016 307.06641 L 4464.6016 302.39648 L 4457.8477 302.39648 L 4457.8477 283.85547 L 4457.6211 283.85547 z M 4477.5176 285.26172 C 4474.6162 285.26172 4472.1224 286.18379 4470.0371 288.02734 C 4467.9821 289.84068 4466.9551 292.10617 4466.9551 294.82617 C 4466.9551 297.33462 4467.8624 299.46586 4469.6758 301.21875 C 4471.5192 302.97164 4473.7702 303.84766 4476.4297 303.84766 C 4477.5782 303.84766 4479.0136 303.4851 4480.7363 302.75977 C 4479.195 306.7491 4475.5233 310.82933 4469.7207 315 L 4476.7012 315 C 4479.7838 312.88444 4482.2775 310.25444 4484.1816 307.11133 C 4486.2065 303.78688 4487.2188 300.40237 4487.2188 296.95703 C 4487.2187 293.93481 4486.4475 291.32146 4484.9062 289.11523 C 4483.0928 286.54634 4480.6304 285.26172 4477.5176 285.26172 z M 4477.1992 289.93164 C 4478.7105 289.93164 4479.9362 290.67145 4480.873 292.15234 C 4481.6587 293.4519 4482.0802 295.00893 4482.1406 296.82227 C 4481.0829 297.72893 4480.192 298.33254 4479.4668 298.63477 C 4478.6204 299.02765 4477.6084 299.22461 4476.4297 299.22461 C 4475.2815 299.22461 4474.2692 298.74055 4473.3926 297.77344 C 4472.5162 296.80633 4472.0781 295.6873 4472.0781 294.41797 C 4472.0781 293.11841 4472.6063 292.04544 4473.6641 291.19922 C 4474.7218 290.353 4475.8998 289.93164 4477.1992 289.93164 z M 4452.543 296.14062 L 4452.543 302.39648 L 4447.3301 302.39648 L 4452.543 296.14062 z " transform="scale(0.26458334)" id="rect1654" inkscape:label="49"/>
    </g></svg>
