<?xml version='1.0' encoding='UTF-8'?>
<!-- Created with Inkscape (http://www.inkscape.org/) and export_objects.py -->
<svg xmlns:cc="http://creativecommons.org/ns#" xmlns:dc="http://purl.org/dc/elements/1.1/" xmlns:inkscape="http://www.inkscape.org/namespaces/inkscape" xmlns:rdf="http://www.w3.org/1999/02/22-rdf-syntax-ns#" xmlns:sodipodi="http://sodipodi.sourceforge.net/DTD/sodipodi-0.dtd" xmlns:xlink="http://www.w3.org/1999/xlink" xmlns="http://www.w3.org/2000/svg" version="1.1" width="0.75in" height="0.75in" viewBox="0 0 19.05 19.05" id="svg8" inkscape:version="0.92.3 (2405546, 2018-03-11)" sodipodi:docname="tile-60.svg"><sodipodi:namedview id="base" pagecolor="#ffffff" bordercolor="#666666" borderopacity="1.0" inkscape:pageopacity="0.0" inkscape:pageshadow="2" inkscape:zoom="1.372378" inkscape:cx="4212.1852" inkscape:cy="477.45784" inkscape:document-units="in" inkscape:current-layer="layer3" showgrid="true" units="in" inkscape:snap-others="true" inkscape:snap-grids="true" inkscape:window-width="1280" inkscape:window-height="940" inkscape:window-x="1909" inkscape:window-y="43" inkscape:window-maximized="1" inkscape:snap-midpoints="false" inkscape:object-nodes="true" inkscape:snap-text-baseline="true" inkscape:snap-smooth-nodes="false" showguides="false" inkscape:snap-object-midpoints="true" inkscape:snap-center="true" inkscape:snap-to-guides="false" inkscape:snap-nodes="true" inkscape:snap-intersection-paths="false">
    <inkscape:grid type="xygrid" id="grid10" units="pt" spacingx="3.1750001" spacingy="3.1750001"/>
    <sodipodi:guide position="380.20625,103.1875" orientation="0,1" id="guide9455" inkscape:locked="false"/>
  </sodipodi:namedview>
  <metadata id="metadata5">
    <rdf:RDF>
      <cc:Work rdf:about="">
        <dc:format>image/svg+xml</dc:format>
        <dc:type rdf:resource="http://purl.org/dc/dcmitype/StillImage"/>
        <dc:title/>
      </cc:Work>
    </rdf:RDF>
  </metadata>
  <g inkscape:groupmode="layer" inkscape:label="tile-" transform="matrix(1.000000,0.000000,0.000000,1.000000,-304.800000,-47.625000)"><path style="display:inline;opacity:1;fill:#000000;fill-opacity:1;stroke:none;stroke-width:0.66666669;stroke-linecap:butt;stroke-linejoin:miter;stroke-miterlimit:47.14606857;stroke-dasharray:none;stroke-dashoffset:0;stroke-opacity:1;paint-order:markers fill stroke" d="M 1152 180 L 1152 252 L 1224 252 L 1224 180 L 1152 180 z M 1188 185.95703 A 30.02157 30.02157 0 0 1 1218.0215 215.97852 A 30.02157 30.02157 0 0 1 1188 246 A 30.02157 30.02157 0 0 1 1157.9785 215.97852 A 30.02157 30.02157 0 0 1 1188 185.95703 z M 1199.4688 201.39648 C 1196.0536 201.39648 1193.4403 203.19652 1191.627 206.79297 C 1190.2367 209.57341 1189.541 212.74628 1189.541 216.3125 C 1189.541 219.87872 1190.2367 223.05159 1191.627 225.83203 C 1193.4403 229.42848 1196.0536 231.22656 1199.4688 231.22656 C 1202.9141 231.22656 1205.5441 229.42848 1207.3574 225.83203 C 1208.7477 223.05159 1209.4434 219.87872 1209.4434 216.3125 C 1209.4434 212.71606 1208.7477 209.52654 1207.3574 206.74609 C 1205.5743 203.17987 1202.9443 201.39648 1199.4688 201.39648 z M 1175.998 201.66992 C 1173.1874 203.63437 1170.8445 206.36922 1168.9707 209.875 C 1167.1272 213.38078 1166.2051 216.7947 1166.2051 220.11914 C 1166.2051 223.23203 1167.0664 225.84733 1168.7891 227.96289 C 1170.6629 230.29 1173.2321 231.45312 1176.4961 231.45312 C 1179.3672 231.45312 1181.7689 230.54576 1183.7031 228.73242 C 1185.6676 226.88887 1186.6504 224.60867 1186.6504 221.88867 C 1186.6504 219.38023 1185.7597 217.23428 1183.9766 215.45117 C 1182.1935 213.63784 1179.9721 212.73047 1177.3125 212.73047 C 1175.6201 212.73047 1174.1091 213.03227 1172.7793 213.63672 C 1175.1971 208.01538 1178.7619 204.02726 1183.4766 201.66992 L 1175.998 201.66992 z M 1199.5605 205.97656 C 1201.253 205.97656 1202.5376 207.33664 1203.4141 210.05664 C 1204.0487 212.02109 1204.3652 214.10628 1204.3652 216.3125 C 1204.3652 218.57917 1204.0634 220.66436 1203.459 222.56836 C 1202.6128 225.25814 1201.3134 226.60352 1199.5605 226.60352 C 1197.8379 226.60352 1196.5533 225.25814 1195.707 222.56836 C 1195.1026 220.66436 1194.8008 218.57917 1194.8008 216.3125 C 1194.8008 214.92228 1194.935 213.5475 1195.207 212.1875 C 1195.5093 210.64617 1196.008 209.30079 1196.7031 208.15234 C 1197.5493 206.70168 1198.5028 205.97656 1199.5605 205.97656 z M 1176.9492 217.49023 C 1178.0977 217.49023 1179.1099 217.9743 1179.9863 218.94141 C 1180.8628 219.8783 1181.3008 220.96597 1181.3008 222.20508 C 1181.3008 223.47441 1180.8628 224.56208 1179.9863 225.46875 C 1179.1401 226.34519 1178.1279 226.7832 1176.9492 226.7832 C 1175.5288 226.7832 1174.2755 226.3158 1173.1875 225.37891 C 1172.0995 224.4118 1171.5547 223.20262 1171.5547 221.75195 C 1171.5547 220.60351 1171.7056 219.83234 1172.0078 219.43945 C 1173.0354 218.1399 1174.6826 217.49023 1176.9492 217.49023 z " transform="scale(0.26458334)" id="rect2248" inkscape:label="60"/>
    </g></svg>
