<?xml version='1.0' encoding='UTF-8'?>
<!-- Created with Inkscape (http://www.inkscape.org/) and export_objects.py -->
<svg xmlns:cc="http://creativecommons.org/ns#" xmlns:dc="http://purl.org/dc/elements/1.1/" xmlns:inkscape="http://www.inkscape.org/namespaces/inkscape" xmlns:rdf="http://www.w3.org/1999/02/22-rdf-syntax-ns#" xmlns:sodipodi="http://sodipodi.sourceforge.net/DTD/sodipodi-0.dtd" xmlns:xlink="http://www.w3.org/1999/xlink" xmlns="http://www.w3.org/2000/svg" version="1.1" width="0.75in" height="0.75in" viewBox="0 0 19.05 19.05" id="svg8" inkscape:version="0.92.3 (2405546, 2018-03-11)" sodipodi:docname="tile-76.svg"><sodipodi:namedview id="base" pagecolor="#ffffff" bordercolor="#666666" borderopacity="1.0" inkscape:pageopacity="0.0" inkscape:pageshadow="2" inkscape:zoom="1.372378" inkscape:cx="4212.1852" inkscape:cy="477.45784" inkscape:document-units="in" inkscape:current-layer="layer3" showgrid="true" units="in" inkscape:snap-others="true" inkscape:snap-grids="true" inkscape:window-width="1280" inkscape:window-height="940" inkscape:window-x="1909" inkscape:window-y="43" inkscape:window-maximized="1" inkscape:snap-midpoints="false" inkscape:object-nodes="true" inkscape:snap-text-baseline="true" inkscape:snap-smooth-nodes="false" showguides="false" inkscape:snap-object-midpoints="true" inkscape:snap-center="true" inkscape:snap-to-guides="false" inkscape:snap-nodes="true" inkscape:snap-intersection-paths="false">
    <inkscape:grid type="xygrid" id="grid10" units="pt" spacingx="3.1750001" spacingy="3.1750001"/>
    <sodipodi:guide position="380.20625,103.1875" orientation="0,1" id="guide9455" inkscape:locked="false"/>
  </sodipodi:namedview>
  <metadata id="metadata5">
    <rdf:RDF>
      <cc:Work rdf:about="">
        <dc:format>image/svg+xml</dc:format>
        <dc:type rdf:resource="http://purl.org/dc/dcmitype/StillImage"/>
        <dc:title/>
      </cc:Work>
    </rdf:RDF>
  </metadata>
  <g inkscape:groupmode="layer" inkscape:label="tile-" transform="matrix(1.000000,0.000000,0.000000,1.000000,-638.175000,-47.625000)"><path style="display:inline;opacity:1;fill:#000000;fill-opacity:1;stroke:none;stroke-width:0.66666669;stroke-linecap:butt;stroke-linejoin:miter;stroke-miterlimit:47.14606857;stroke-dasharray:none;stroke-dashoffset:0;stroke-opacity:1;paint-order:markers fill stroke" d="M 2412 180 L 2412 252 L 2484 252 L 2484 180 L 2412 180 z M 2448 185.95703 A 30.02157 30.02157 0 0 1 2478.0215 215.97852 A 30.02157 30.02157 0 0 1 2448 246 A 30.02157 30.02157 0 0 1 2417.9785 215.97852 A 30.02157 30.02157 0 0 1 2448 185.95703 z M 2427.3359 201.71484 L 2427.3359 206.42969 L 2439.3945 206.42969 L 2425.8398 231 L 2431.5527 231 L 2447.9629 201.71484 L 2427.3359 201.71484 z M 2454.1465 201.71484 L 2452.1973 217.30859 C 2454.5546 216.61349 2456.2459 216.26758 2457.2734 216.26758 C 2458.8752 216.26758 2460.2813 216.74969 2461.4902 217.7168 C 2462.82 218.77459 2463.4844 220.09056 2463.4844 221.66211 C 2463.4844 222.99187 2463.017 224.155 2462.0801 225.15234 C 2461.1734 226.11945 2460.1151 226.60352 2458.9062 226.60352 C 2456.972 226.60352 2455.3102 225.40904 2453.9199 223.02148 L 2453.6484 223.02148 L 2450.5645 226.96484 C 2452.8009 229.92661 2455.4162 231.4082 2458.4082 231.4082 C 2461.4304 231.4082 2463.9536 230.48613 2465.9785 228.64258 C 2468.0034 226.76881 2469.0156 224.41121 2469.0156 221.57031 C 2469.0156 218.60852 2467.972 216.20683 2465.8867 214.36328 C 2463.892 212.6407 2461.3394 211.70392 2458.2266 211.55273 L 2458.8613 206.20312 L 2466.8398 206.20312 L 2469.0605 201.71484 L 2454.1465 201.71484 z " transform="scale(0.26458334)" id="rect2280" inkscape:label="76"/>
    </g></svg>
