<?xml version='1.0' encoding='UTF-8'?>
<!-- Created with Inkscape (http://www.inkscape.org/) and export_objects.py -->
<svg xmlns:cc="http://creativecommons.org/ns#" xmlns:dc="http://purl.org/dc/elements/1.1/" xmlns:inkscape="http://www.inkscape.org/namespaces/inkscape" xmlns:rdf="http://www.w3.org/1999/02/22-rdf-syntax-ns#" xmlns:sodipodi="http://sodipodi.sourceforge.net/DTD/sodipodi-0.dtd" xmlns:xlink="http://www.w3.org/1999/xlink" xmlns="http://www.w3.org/2000/svg" version="1.1" width="0.75in" height="0.75in" viewBox="0 0 19.05 19.05" id="svg8" inkscape:version="0.92.3 (2405546, 2018-03-11)" sodipodi:docname="tile-38.svg"><sodipodi:namedview id="base" pagecolor="#ffffff" bordercolor="#666666" borderopacity="1.0" inkscape:pageopacity="0.0" inkscape:pageshadow="2" inkscape:zoom="1.372378" inkscape:cx="4746.9979" inkscape:cy="477.45784" inkscape:document-units="in" inkscape:current-layer="layer3" showgrid="true" units="in" inkscape:snap-others="true" inkscape:snap-grids="true" inkscape:window-width="1280" inkscape:window-height="940" inkscape:window-x="1909" inkscape:window-y="43" inkscape:window-maximized="1" inkscape:snap-midpoints="false" inkscape:object-nodes="true" inkscape:snap-text-baseline="true" inkscape:snap-smooth-nodes="false" showguides="false" inkscape:snap-object-midpoints="true" inkscape:snap-center="true" inkscape:snap-to-guides="false" inkscape:snap-nodes="true" inkscape:snap-intersection-paths="false">
    <inkscape:grid type="xygrid" id="grid10" units="pt" spacingx="3.1750001" spacingy="3.1750001"/>
    <sodipodi:guide position="380.20625,103.1875" orientation="0,1" id="guide9455" inkscape:locked="false"/>
  </sodipodi:namedview>
  <metadata id="metadata5">
    <rdf:RDF>
      <cc:Work rdf:about="">
        <dc:format>image/svg+xml</dc:format>
        <dc:type rdf:resource="http://purl.org/dc/dcmitype/StillImage"/>
        <dc:title/>
      </cc:Work>
    </rdf:RDF>
  </metadata>
  <g inkscape:groupmode="layer" inkscape:label="tile-" transform="matrix(1.000000,0.000000,0.000000,1.000000,-927.100000,-69.850000)"><path style="display:inline;opacity:1;fill:#000000;fill-opacity:1;stroke:none;stroke-width:0.66666663;stroke-linecap:butt;stroke-linejoin:miter;stroke-miterlimit:47.14606857;stroke-dasharray:none;stroke-dashoffset:0;stroke-opacity:1;paint-order:markers fill stroke" d="M 3504 264 L 3504 336 L 3576 336 L 3576 264 L 3504 264 z M 3540 269.95703 A 30.02157 30.02157 0 0 1 3570.0215 299.97852 A 30.02157 30.02157 0 0 1 3540 330 A 30.02157 30.02157 0 0 1 3509.9785 299.97852 A 30.02157 30.02157 0 0 1 3540 269.95703 z M 3551.7109 285.35156 C 3549.4745 285.35156 3547.601 285.92577 3546.0898 287.07422 C 3544.4578 288.31333 3543.6406 289.97521 3543.6406 292.06055 C 3543.6406 294.56899 3544.8351 296.80704 3547.2227 298.77148 C 3543.9889 301.00793 3542.3711 303.74279 3542.3711 306.97656 C 3542.3711 309.6059 3543.2177 311.67639 3544.9102 313.1875 C 3546.6328 314.66839 3548.8856 315.4082 3551.666 315.4082 C 3554.2047 315.4082 3556.3947 314.50083 3558.2383 312.6875 C 3560.0818 310.87417 3561.0039 308.77427 3561.0039 306.38672 C 3561.0039 303.48538 3559.3714 300.97688 3556.1074 298.86133 C 3558.4043 296.9271 3559.5527 294.69101 3559.5527 292.15234 C 3559.5527 290.06701 3558.7982 288.38847 3557.2871 287.11914 C 3555.8062 285.94047 3553.9474 285.35156 3551.7109 285.35156 z M 3520.2227 285.71484 L 3520.2227 290.33789 L 3531.6016 290.33789 L 3525.6621 300.58398 C 3528.2915 300.58398 3530.2424 300.96124 3531.5117 301.7168 C 3532.9624 302.59324 3533.6875 304.07482 3533.6875 306.16016 C 3533.6875 307.33882 3533.2495 308.33634 3532.373 309.15234 C 3531.4966 309.96834 3530.4844 310.375 3529.3359 310.375 C 3526.9786 310.375 3525.0276 308.89537 3523.4863 305.93359 L 3523.2148 305.93359 L 3519.8145 309.51367 C 3520.0562 310.66212 3520.8881 311.78114 3522.3086 312.86914 C 3523.4268 313.74559 3524.6046 314.39525 3525.8438 314.81836 C 3526.8109 315.1508 3527.8544 315.31641 3528.9727 315.31641 C 3531.8136 315.31641 3534.2466 314.45509 3536.2715 312.73242 C 3538.2964 310.97953 3539.3086 308.75814 3539.3086 306.06836 C 3539.3086 304.19458 3538.8098 302.42785 3537.8125 300.76562 C 3536.7547 298.92207 3535.3339 297.68349 3533.5508 297.04883 L 3540.0332 285.71484 L 3520.2227 285.71484 z M 3551.7109 289.20508 C 3552.406 289.20508 3553.0704 289.50688 3553.7051 290.11133 C 3554.3397 290.71577 3554.6563 291.41149 3554.6562 292.19727 C 3554.6563 293.64793 3553.6901 295.05406 3551.7559 296.41406 C 3549.7008 295.05406 3548.6738 293.52643 3548.6738 291.83398 C 3548.6738 291.04821 3549.005 290.39854 3549.6699 289.88477 C 3550.2441 289.43143 3550.9251 289.20508 3551.7109 289.20508 z M 3551.3926 301.53516 C 3554.445 303.34849 3555.9727 304.95158 3555.9727 306.3418 C 3555.9727 307.49024 3555.5033 308.51716 3554.5664 309.42383 C 3553.6295 310.3305 3552.632 310.7832 3551.5742 310.7832 C 3550.5467 310.7832 3549.5952 310.39125 3548.7188 309.60547 C 3547.8725 308.78947 3547.4492 307.838 3547.4492 306.75 C 3547.4492 304.93667 3548.7633 303.19738 3551.3926 301.53516 z " transform="scale(0.26458334)" id="rect1572" inkscape:label="38"/>
    </g></svg>
