<?xml version='1.0' encoding='UTF-8'?>
<!-- Created with Inkscape (http://www.inkscape.org/) and export_objects.py -->
<svg xmlns:cc="http://creativecommons.org/ns#" xmlns:dc="http://purl.org/dc/elements/1.1/" xmlns:inkscape="http://www.inkscape.org/namespaces/inkscape" xmlns:rdf="http://www.w3.org/1999/02/22-rdf-syntax-ns#" xmlns:sodipodi="http://sodipodi.sourceforge.net/DTD/sodipodi-0.dtd" xmlns:xlink="http://www.w3.org/1999/xlink" xmlns="http://www.w3.org/2000/svg" version="1.1" width="0.75in" height="0.75in" viewBox="0 0 19.05 19.05" id="svg8" inkscape:version="0.92.3 (2405546, 2018-03-11)" sodipodi:docname="tile-44.svg"><sodipodi:namedview id="base" pagecolor="#ffffff" bordercolor="#666666" borderopacity="1.0" inkscape:pageopacity="0.0" inkscape:pageshadow="2" inkscape:zoom="1.372378" inkscape:cx="4746.9979" inkscape:cy="477.45784" inkscape:document-units="in" inkscape:current-layer="layer3" showgrid="true" units="in" inkscape:snap-others="true" inkscape:snap-grids="true" inkscape:window-width="1280" inkscape:window-height="940" inkscape:window-x="1909" inkscape:window-y="43" inkscape:window-maximized="1" inkscape:snap-midpoints="false" inkscape:object-nodes="true" inkscape:snap-text-baseline="true" inkscape:snap-smooth-nodes="false" showguides="false" inkscape:snap-object-midpoints="true" inkscape:snap-center="true" inkscape:snap-to-guides="false" inkscape:snap-nodes="true" inkscape:snap-intersection-paths="false">
    <inkscape:grid type="xygrid" id="grid10" units="pt" spacingx="3.1750001" spacingy="3.1750001"/>
    <sodipodi:guide position="380.20625,103.1875" orientation="0,1" id="guide9455" inkscape:locked="false"/>
  </sodipodi:namedview>
  <metadata id="metadata5">
    <rdf:RDF>
      <cc:Work rdf:about="">
        <dc:format>image/svg+xml</dc:format>
        <dc:type rdf:resource="http://purl.org/dc/dcmitype/StillImage"/>
        <dc:title/>
      </cc:Work>
    </rdf:RDF>
  </metadata>
  <g inkscape:groupmode="layer" inkscape:label="tile-" transform="matrix(1.000000,0.000000,0.000000,1.000000,-1060.450000,-69.850000)"><path style="display:inline;opacity:1;fill:#000000;fill-opacity:1;stroke:none;stroke-width:0.66666663;stroke-linecap:butt;stroke-linejoin:miter;stroke-miterlimit:47.14606857;stroke-dasharray:none;stroke-dashoffset:0;stroke-opacity:1;paint-order:markers fill stroke" d="M 4008 264 L 4008 336 L 4080 336 L 4080 264 L 4008 264 z M 4044 269.95703 A 30.02157 30.02157 0 0 1 4074.0215 299.97852 A 30.02157 30.02157 0 0 1 4044 330 A 30.02157 30.02157 0 0 1 4013.9785 299.97852 A 30.02157 30.02157 0 0 1 4044 269.95703 z M 4036.0723 283.85547 L 4016.6699 307.06641 L 4031.084 307.06641 L 4031.084 315 L 4036.2988 315 L 4036.2988 307.06641 L 4043.0527 307.06641 L 4043.0527 302.39648 L 4036.2988 302.39648 L 4036.2988 283.85547 L 4036.0723 283.85547 z M 4062.7227 283.85547 L 4043.3203 307.06641 L 4057.7363 307.06641 L 4057.7363 315 L 4062.9492 315 L 4062.9492 307.06641 L 4069.7031 307.06641 L 4069.7031 302.39648 L 4062.9492 302.39648 L 4062.9492 283.85547 L 4062.7227 283.85547 z M 4030.9941 296.14062 L 4030.9941 302.39648 L 4025.7812 302.39648 L 4030.9941 296.14062 z M 4057.6445 296.14062 L 4057.6445 302.39648 L 4052.4316 302.39648 L 4057.6445 296.14062 z " transform="scale(0.26458334)" id="rect1644" inkscape:label="44"/>
    </g></svg>
