<?xml version='1.0' encoding='UTF-8'?>
<!-- Created with Inkscape (http://www.inkscape.org/) and export_objects.py -->
<svg xmlns:cc="http://creativecommons.org/ns#" xmlns:dc="http://purl.org/dc/elements/1.1/" xmlns:inkscape="http://www.inkscape.org/namespaces/inkscape" xmlns:rdf="http://www.w3.org/1999/02/22-rdf-syntax-ns#" xmlns:sodipodi="http://sodipodi.sourceforge.net/DTD/sodipodi-0.dtd" xmlns:xlink="http://www.w3.org/1999/xlink" xmlns="http://www.w3.org/2000/svg" version="1.1" width="0.75in" height="0.75in" viewBox="0 0 19.05 19.05" id="svg8" inkscape:version="0.92.3 (2405546, 2018-03-11)" sodipodi:docname="tile-64.svg"><sodipodi:namedview id="base" pagecolor="#ffffff" bordercolor="#666666" borderopacity="1.0" inkscape:pageopacity="0.0" inkscape:pageshadow="2" inkscape:zoom="1.372378" inkscape:cx="4212.1852" inkscape:cy="477.45784" inkscape:document-units="in" inkscape:current-layer="layer3" showgrid="true" units="in" inkscape:snap-others="true" inkscape:snap-grids="true" inkscape:window-width="1280" inkscape:window-height="940" inkscape:window-x="1909" inkscape:window-y="43" inkscape:window-maximized="1" inkscape:snap-midpoints="false" inkscape:object-nodes="true" inkscape:snap-text-baseline="true" inkscape:snap-smooth-nodes="false" showguides="false" inkscape:snap-object-midpoints="true" inkscape:snap-center="true" inkscape:snap-to-guides="false" inkscape:snap-nodes="true" inkscape:snap-intersection-paths="false">
    <inkscape:grid type="xygrid" id="grid10" units="pt" spacingx="3.1750001" spacingy="3.1750001"/>
    <sodipodi:guide position="380.20625,103.1875" orientation="0,1" id="guide9455" inkscape:locked="false"/>
  </sodipodi:namedview>
  <metadata id="metadata5">
    <rdf:RDF>
      <cc:Work rdf:about="">
        <dc:format>image/svg+xml</dc:format>
        <dc:type rdf:resource="http://purl.org/dc/dcmitype/StillImage"/>
        <dc:title/>
      </cc:Work>
    </rdf:RDF>
  </metadata>
  <g inkscape:groupmode="layer" inkscape:label="tile-" transform="matrix(1.000000,0.000000,0.000000,1.000000,-393.700000,-47.625000)"><path style="display:inline;opacity:1;fill:#000000;fill-opacity:1;stroke:none;stroke-width:0.66666669;stroke-linecap:butt;stroke-linejoin:miter;stroke-miterlimit:47.14606857;stroke-dasharray:none;stroke-dashoffset:0;stroke-opacity:1;paint-order:markers fill stroke" d="M 1488 180 L 1488 252 L 1560 252 L 1560 180 L 1488 180 z M 1524 185.95703 A 30.02157 30.02157 0 0 1 1554.0215 215.97852 A 30.02157 30.02157 0 0 1 1524 246 A 30.02157 30.02157 0 0 1 1493.9785 215.97852 A 30.02157 30.02157 0 0 1 1524 185.95703 z M 1540.9512 199.85547 L 1521.5488 223.06641 L 1535.9648 223.06641 L 1535.9648 231 L 1541.1777 231 L 1541.1777 223.06641 L 1547.9336 223.06641 L 1547.9336 218.39648 L 1541.1777 218.39648 L 1541.1777 199.85547 L 1540.9512 199.85547 z M 1510.2266 201.66992 C 1507.4159 203.63436 1505.073 206.36922 1503.1992 209.875 C 1501.3557 213.38078 1500.4336 216.7947 1500.4336 220.11914 C 1500.4336 223.23203 1501.2949 225.84734 1503.0176 227.96289 C 1504.8914 230.29 1507.4606 231.45312 1510.7246 231.45312 C 1513.5957 231.45312 1515.9994 230.54575 1517.9336 228.73242 C 1519.898 226.88886 1520.8789 224.60867 1520.8789 221.88867 C 1520.8789 219.38023 1519.9882 217.23428 1518.2051 215.45117 C 1516.422 213.63784 1514.2006 212.73047 1511.541 212.73047 C 1509.8486 212.73047 1508.3376 213.03227 1507.0078 213.63672 C 1509.4256 208.01538 1512.9924 204.02725 1517.707 201.66992 L 1510.2266 201.66992 z M 1535.875 212.14062 L 1535.875 218.39648 L 1530.6621 218.39648 L 1535.875 212.14062 z M 1511.1777 217.49023 C 1512.3262 217.49023 1513.3384 217.9743 1514.2148 218.94141 C 1515.0913 219.8783 1515.5312 220.96597 1515.5312 222.20508 C 1515.5313 223.47441 1515.0913 224.56208 1514.2148 225.46875 C 1513.3686 226.34519 1512.3564 226.7832 1511.1777 226.7832 C 1509.7573 226.7832 1508.504 226.31579 1507.416 225.37891 C 1506.328 224.41179 1505.7832 223.20262 1505.7832 221.75195 C 1505.7832 220.60351 1505.9341 219.83234 1506.2363 219.43945 C 1507.2639 218.1399 1508.9111 217.49023 1511.1777 217.49023 z " transform="scale(0.26458334)" id="rect2256" inkscape:label="64"/>
    </g></svg>
