<?xml version='1.0' encoding='UTF-8'?>
<!-- Created with Inkscape (http://www.inkscape.org/) and export_objects.py -->
<svg xmlns:cc="http://creativecommons.org/ns#" xmlns:dc="http://purl.org/dc/elements/1.1/" xmlns:inkscape="http://www.inkscape.org/namespaces/inkscape" xmlns:rdf="http://www.w3.org/1999/02/22-rdf-syntax-ns#" xmlns:sodipodi="http://sodipodi.sourceforge.net/DTD/sodipodi-0.dtd" xmlns:xlink="http://www.w3.org/1999/xlink" xmlns="http://www.w3.org/2000/svg" version="1.1" width="0.75in" height="0.75in" viewBox="0 0 19.05 19.05" id="svg8" inkscape:version="0.92.3 (2405546, 2018-03-11)" sodipodi:docname="tile-34.svg"><sodipodi:namedview id="base" pagecolor="#ffffff" bordercolor="#666666" borderopacity="1.0" inkscape:pageopacity="0.0" inkscape:pageshadow="2" inkscape:zoom="1.372378" inkscape:cx="4746.9979" inkscape:cy="477.45784" inkscape:document-units="in" inkscape:current-layer="layer3" showgrid="true" units="in" inkscape:snap-others="true" inkscape:snap-grids="true" inkscape:window-width="1280" inkscape:window-height="940" inkscape:window-x="1909" inkscape:window-y="43" inkscape:window-maximized="1" inkscape:snap-midpoints="false" inkscape:object-nodes="true" inkscape:snap-text-baseline="true" inkscape:snap-smooth-nodes="false" showguides="false" inkscape:snap-object-midpoints="true" inkscape:snap-center="true" inkscape:snap-to-guides="false" inkscape:snap-nodes="true" inkscape:snap-intersection-paths="false">
    <inkscape:grid type="xygrid" id="grid10" units="pt" spacingx="3.1750001" spacingy="3.1750001"/>
    <sodipodi:guide position="380.20625,103.1875" orientation="0,1" id="guide9455" inkscape:locked="false"/>
  </sodipodi:namedview>
  <metadata id="metadata5">
    <rdf:RDF>
      <cc:Work rdf:about="">
        <dc:format>image/svg+xml</dc:format>
        <dc:type rdf:resource="http://purl.org/dc/dcmitype/StillImage"/>
        <dc:title/>
      </cc:Work>
    </rdf:RDF>
  </metadata>
  <g inkscape:groupmode="layer" inkscape:label="tile-" transform="matrix(1.000000,0.000000,0.000000,1.000000,-838.200000,-69.850000)"><path style="display:inline;opacity:1;fill:#000000;fill-opacity:1;stroke:none;stroke-width:0.66666663;stroke-linecap:butt;stroke-linejoin:miter;stroke-miterlimit:47.14606857;stroke-dasharray:none;stroke-dashoffset:0;stroke-opacity:1;paint-order:markers fill stroke" d="M 3168 264 L 3168 336 L 3240 336 L 3240 264 L 3168 264 z M 3204 269.95703 A 30.02157 30.02157 0 0 1 3234.0215 299.97852 A 30.02157 30.02157 0 0 1 3204 330 A 30.02157 30.02157 0 0 1 3173.9785 299.97852 A 30.02157 30.02157 0 0 1 3204 269.95703 z M 3221.1289 283.85547 L 3201.7266 307.06641 L 3216.1426 307.06641 L 3216.1426 315 L 3221.3555 315 L 3221.3555 307.06641 L 3228.1094 307.06641 L 3228.1094 302.39648 L 3221.3555 302.39648 L 3221.3555 283.85547 L 3221.1289 283.85547 z M 3181.3457 285.71484 L 3181.3457 290.33789 L 3192.7246 290.33789 L 3186.7852 300.58398 C 3189.4145 300.58398 3191.3635 300.96124 3192.6328 301.7168 C 3194.0835 302.59324 3194.8086 304.07482 3194.8086 306.16016 C 3194.8086 307.33882 3194.3706 308.33634 3193.4941 309.15234 C 3192.6177 309.96834 3191.6055 310.375 3190.457 310.375 C 3188.0997 310.375 3186.1507 308.89537 3184.6094 305.93359 L 3184.3379 305.93359 L 3180.9375 309.51367 C 3181.1793 310.66212 3182.0092 311.78114 3183.4297 312.86914 C 3184.5479 313.74558 3185.7277 314.39525 3186.9668 314.81836 C 3187.9339 315.1508 3188.9755 315.31641 3190.0938 315.31641 C 3192.9346 315.31641 3195.3677 314.45509 3197.3926 312.73242 C 3199.4175 310.97953 3200.4297 308.75814 3200.4297 306.06836 C 3200.4297 304.19458 3199.9309 302.42785 3198.9336 300.76562 C 3197.8758 298.92207 3196.4569 297.6835 3194.6738 297.04883 L 3201.1562 285.71484 L 3181.3457 285.71484 z M 3216.0508 296.14062 L 3216.0508 302.39648 L 3210.8379 302.39648 L 3216.0508 296.14062 z " transform="scale(0.26458334)" id="rect1564" inkscape:label="34"/>
    </g></svg>
