<?xml version='1.0' encoding='UTF-8'?>
<!-- Created with Inkscape (http://www.inkscape.org/) and export_objects.py -->
<svg xmlns:cc="http://creativecommons.org/ns#" xmlns:dc="http://purl.org/dc/elements/1.1/" xmlns:inkscape="http://www.inkscape.org/namespaces/inkscape" xmlns:rdf="http://www.w3.org/1999/02/22-rdf-syntax-ns#" xmlns:sodipodi="http://sodipodi.sourceforge.net/DTD/sodipodi-0.dtd" xmlns:xlink="http://www.w3.org/1999/xlink" xmlns="http://www.w3.org/2000/svg" version="1.1" width="0.75in" height="0.75in" viewBox="0 0 19.05 19.05" id="svg8" inkscape:version="0.92.3 (2405546, 2018-03-11)" sodipodi:docname="tile-85.svg"><sodipodi:namedview id="base" pagecolor="#ffffff" bordercolor="#666666" borderopacity="1.0" inkscape:pageopacity="0.0" inkscape:pageshadow="2" inkscape:zoom="1.372378" inkscape:cx="4212.1852" inkscape:cy="477.45784" inkscape:document-units="in" inkscape:current-layer="layer3" showgrid="true" units="in" inkscape:snap-others="true" inkscape:snap-grids="true" inkscape:window-width="1280" inkscape:window-height="940" inkscape:window-x="1909" inkscape:window-y="43" inkscape:window-maximized="1" inkscape:snap-midpoints="false" inkscape:object-nodes="true" inkscape:snap-text-baseline="true" inkscape:snap-smooth-nodes="false" showguides="false" inkscape:snap-object-midpoints="true" inkscape:snap-center="true" inkscape:snap-to-guides="false" inkscape:snap-nodes="true" inkscape:snap-intersection-paths="false">
    <inkscape:grid type="xygrid" id="grid10" units="pt" spacingx="3.1750001" spacingy="3.1750001"/>
    <sodipodi:guide position="380.20625,103.1875" orientation="0,1" id="guide9455" inkscape:locked="false"/>
  </sodipodi:namedview>
  <metadata id="metadata5">
    <rdf:RDF>
      <cc:Work rdf:about="">
        <dc:format>image/svg+xml</dc:format>
        <dc:type rdf:resource="http://purl.org/dc/dcmitype/StillImage"/>
        <dc:title/>
      </cc:Work>
    </rdf:RDF>
  </metadata>
  <g inkscape:groupmode="layer" inkscape:label="tile-" transform="matrix(1.000000,0.000000,0.000000,1.000000,-860.425000,-47.625000)"><path style="display:inline;opacity:1;fill:#000000;fill-opacity:1;stroke:none;stroke-width:0.66666669;stroke-linecap:butt;stroke-linejoin:miter;stroke-miterlimit:47.14606857;stroke-dasharray:none;stroke-dashoffset:0;stroke-opacity:1;paint-order:markers fill stroke" d="M 3252 180 L 3252 252 L 3324 252 L 3324 180 L 3252 180 z M 3288 185.95703 A 30.02157 30.02157 0 0 1 3318.0215 215.97852 A 30.02157 30.02157 0 0 1 3288 246 A 30.02157 30.02157 0 0 1 3257.9785 215.97852 A 30.02157 30.02157 0 0 1 3288 185.95703 z M 3276.8672 201.35156 C 3274.6307 201.35156 3272.7572 201.92577 3271.2461 203.07422 C 3269.6141 204.31332 3268.7969 205.97521 3268.7969 208.06055 C 3268.7969 210.56899 3269.9914 212.80704 3272.3789 214.77148 C 3269.1451 217.00793 3267.5273 219.7428 3267.5273 222.97656 C 3267.5273 225.6059 3268.374 227.67639 3270.0664 229.1875 C 3271.7891 230.66839 3274.0418 231.4082 3276.8223 231.4082 C 3279.3609 231.4082 3281.551 230.50084 3283.3945 228.6875 C 3285.2381 226.87416 3286.1602 224.77427 3286.1602 222.38672 C 3286.1602 219.4854 3284.5277 216.97691 3281.2637 214.86133 C 3283.5606 212.92712 3284.709 210.691 3284.709 208.15234 C 3284.709 206.067 3283.9545 204.38848 3282.4434 203.11914 C 3280.9625 201.94048 3279.1036 201.35156 3276.8672 201.35156 z M 3292.6855 201.71484 L 3290.7363 217.30859 C 3293.0937 216.61349 3294.7849 216.26758 3295.8125 216.26758 C 3297.4143 216.26758 3298.8204 216.74967 3300.0293 217.7168 C 3301.3591 218.77456 3302.0234 220.09056 3302.0234 221.66211 C 3302.0234 222.9919 3301.556 224.15503 3300.6191 225.15234 C 3299.7125 226.11947 3298.6542 226.60352 3297.4453 226.60352 C 3295.5111 226.60352 3293.8492 225.40904 3292.459 223.02148 L 3292.1875 223.02148 L 3289.1035 226.96484 C 3291.34 229.92663 3293.9553 231.4082 3296.9473 231.4082 C 3299.9695 231.4082 3302.4927 230.48613 3304.5176 228.64258 C 3306.5425 226.76879 3307.5547 224.41121 3307.5547 221.57031 C 3307.5547 218.60855 3306.5111 216.20683 3304.4258 214.36328 C 3302.4311 212.64067 3299.8785 211.70392 3296.7656 211.55273 L 3297.4004 206.20312 L 3305.3789 206.20312 L 3307.5996 201.71484 L 3292.6855 201.71484 z M 3276.8672 205.20508 C 3277.5623 205.20508 3278.2267 205.50688 3278.8613 206.11133 C 3279.496 206.71578 3279.8125 207.4115 3279.8125 208.19727 C 3279.8125 209.64792 3278.8463 211.05406 3276.9121 212.41406 C 3274.857 211.05406 3273.8301 209.52641 3273.8301 207.83398 C 3273.8301 207.0482 3274.1613 206.39855 3274.8262 205.88477 C 3275.4004 205.43145 3276.0814 205.20508 3276.8672 205.20508 z M 3276.5488 217.53516 C 3279.6013 219.34847 3281.1289 220.95156 3281.1289 222.3418 C 3281.1289 223.49024 3280.6596 224.51717 3279.7227 225.42383 C 3278.7858 226.33049 3277.7882 226.7832 3276.7305 226.7832 C 3275.7029 226.7832 3274.7514 226.39123 3273.875 225.60547 C 3273.0288 224.78947 3272.6055 223.838 3272.6055 222.75 C 3272.6055 220.93666 3273.9195 219.19737 3276.5488 217.53516 z " transform="scale(0.26458334)" id="rect2298" inkscape:label="85"/>
    </g></svg>
