<?xml version='1.0' encoding='UTF-8'?>
<!-- Created with Inkscape (http://www.inkscape.org/) and export_objects.py -->
<svg xmlns:cc="http://creativecommons.org/ns#" xmlns:dc="http://purl.org/dc/elements/1.1/" xmlns:inkscape="http://www.inkscape.org/namespaces/inkscape" xmlns:rdf="http://www.w3.org/1999/02/22-rdf-syntax-ns#" xmlns:sodipodi="http://sodipodi.sourceforge.net/DTD/sodipodi-0.dtd" xmlns:xlink="http://www.w3.org/1999/xlink" xmlns="http://www.w3.org/2000/svg" version="1.1" width="0.75in" height="0.75in" viewBox="0 0 19.05 19.05" id="svg8" inkscape:version="0.92.3 (2405546, 2018-03-11)" sodipodi:docname="tile-69.svg"><sodipodi:namedview id="base" pagecolor="#ffffff" bordercolor="#666666" borderopacity="1.0" inkscape:pageopacity="0.0" inkscape:pageshadow="2" inkscape:zoom="1.372378" inkscape:cx="4212.1852" inkscape:cy="477.45784" inkscape:document-units="in" inkscape:current-layer="layer3" showgrid="true" units="in" inkscape:snap-others="true" inkscape:snap-grids="true" inkscape:window-width="1280" inkscape:window-height="940" inkscape:window-x="1909" inkscape:window-y="43" inkscape:window-maximized="1" inkscape:snap-midpoints="false" inkscape:object-nodes="true" inkscape:snap-text-baseline="true" inkscape:snap-smooth-nodes="false" showguides="false" inkscape:snap-object-midpoints="true" inkscape:snap-center="true" inkscape:snap-to-guides="false" inkscape:snap-nodes="true" inkscape:snap-intersection-paths="false">
    <inkscape:grid type="xygrid" id="grid10" units="pt" spacingx="3.1750001" spacingy="3.1750001"/>
    <sodipodi:guide position="380.20625,103.1875" orientation="0,1" id="guide9455" inkscape:locked="false"/>
  </sodipodi:namedview>
  <metadata id="metadata5">
    <rdf:RDF>
      <cc:Work rdf:about="">
        <dc:format>image/svg+xml</dc:format>
        <dc:type rdf:resource="http://purl.org/dc/dcmitype/StillImage"/>
        <dc:title/>
      </cc:Work>
    </rdf:RDF>
  </metadata>
  <g inkscape:groupmode="layer" inkscape:label="tile-" transform="matrix(1.000000,0.000000,0.000000,1.000000,-504.825000,-47.625000)"><path style="display:inline;opacity:1;fill:#000000;fill-opacity:1;stroke:none;stroke-width:0.66666669;stroke-linecap:butt;stroke-linejoin:miter;stroke-miterlimit:47.14606857;stroke-dasharray:none;stroke-dashoffset:0;stroke-opacity:1;paint-order:markers fill stroke" d="M 1908 180 L 1908 252 L 1980 252 L 1980 180 L 1908 180 z M 1944 185.95703 A 30.02157 30.02157 0 0 1 1974.0215 215.97852 A 30.02157 30.02157 0 0 1 1944 246 A 30.02157 30.02157 0 0 1 1913.9785 215.97852 A 30.02157 30.02157 0 0 1 1944 185.95703 z M 1955.7461 201.26172 C 1952.8448 201.26172 1950.3529 202.18379 1948.2676 204.02734 C 1946.2125 205.84068 1945.1836 208.10617 1945.1836 210.82617 C 1945.1836 213.33462 1946.091 215.46586 1947.9043 217.21875 C 1949.7478 218.97164 1951.9987 219.84766 1954.6582 219.84766 C 1955.8067 219.84766 1957.2422 219.4851 1958.9648 218.75977 C 1957.4235 222.7491 1953.7519 226.82933 1947.9492 231 L 1954.9297 231 C 1958.0123 228.88444 1960.5062 226.25444 1962.4102 223.11133 C 1964.4351 219.78688 1965.4473 216.40236 1965.4473 212.95703 C 1965.4473 209.93481 1964.6781 207.32146 1963.1367 205.11523 C 1961.3234 202.54635 1958.859 201.26172 1955.7461 201.26172 z M 1931.7754 201.66992 C 1928.9647 203.63436 1926.6238 206.36922 1924.75 209.875 C 1922.9064 213.38078 1921.9844 216.7947 1921.9844 220.11914 C 1921.9844 223.23203 1922.8457 225.84734 1924.5684 227.96289 C 1926.4421 230.29 1929.0114 231.45312 1932.2754 231.45312 C 1935.1465 231.45312 1937.5482 230.54575 1939.4824 228.73242 C 1941.4469 226.88886 1942.4297 224.60867 1942.4297 221.88867 C 1942.4297 219.38023 1941.537 217.23428 1939.7539 215.45117 C 1937.9708 213.63784 1935.7494 212.73047 1933.0898 212.73047 C 1931.3974 212.73047 1929.8864 213.03227 1928.5566 213.63672 C 1930.9744 208.01538 1934.5412 204.02725 1939.2559 201.66992 L 1931.7754 201.66992 z M 1955.4297 205.92969 C 1956.9408 205.92969 1958.1647 206.67145 1959.1016 208.15234 C 1959.8873 209.4519 1960.3106 211.00893 1960.3711 212.82227 C 1959.3133 213.72893 1958.4206 214.33254 1957.6953 214.63477 C 1956.8491 215.02766 1955.8369 215.22461 1954.6582 215.22461 C 1953.5098 215.22461 1952.4975 214.74055 1951.6211 213.77344 C 1950.7446 212.80632 1950.3066 211.6873 1950.3066 210.41797 C 1950.3066 209.11841 1950.8348 208.04544 1951.8926 207.19922 C 1952.9503 206.353 1954.1301 205.92969 1955.4297 205.92969 z M 1932.7285 217.49023 C 1933.877 217.49023 1934.8892 217.9743 1935.7656 218.94141 C 1936.6421 219.8783 1937.0801 220.96597 1937.0801 222.20508 C 1937.0801 223.47441 1936.6421 224.56208 1935.7656 225.46875 C 1934.9194 226.34519 1933.9072 226.7832 1932.7285 226.7832 C 1931.3081 226.7832 1930.0528 226.31579 1928.9648 225.37891 C 1927.8768 224.41179 1927.334 223.20262 1927.334 221.75195 C 1927.334 220.60351 1927.4849 219.83234 1927.7871 219.43945 C 1928.8147 218.1399 1930.4619 217.49023 1932.7285 217.49023 z " transform="scale(0.26458334)" id="rect2266" inkscape:label="69"/>
    </g></svg>
