<?xml version='1.0' encoding='UTF-8'?>
<!-- Created with Inkscape (http://www.inkscape.org/) and export_objects.py -->
<svg xmlns:cc="http://creativecommons.org/ns#" xmlns:dc="http://purl.org/dc/elements/1.1/" xmlns:inkscape="http://www.inkscape.org/namespaces/inkscape" xmlns:rdf="http://www.w3.org/1999/02/22-rdf-syntax-ns#" xmlns:sodipodi="http://sodipodi.sourceforge.net/DTD/sodipodi-0.dtd" xmlns:xlink="http://www.w3.org/1999/xlink" xmlns="http://www.w3.org/2000/svg" version="1.1" width="0.75000003125in" height="0.75000003125in" viewBox="0 0 19.0500007937 19.0500007937" id="svg8" inkscape:version="0.92.3 (2405546, 2018-03-11)" sodipodi:docname="club07.svg"><sodipodi:namedview id="base" pagecolor="#ffffff" bordercolor="#666666" borderopacity="1.0" inkscape:pageopacity="0.0" inkscape:pageshadow="2" inkscape:zoom="1.9659447" inkscape:cx="1004.8388" inkscape:cy="218.36255" inkscape:document-units="in" inkscape:current-layer="layer3" showgrid="true" units="in" inkscape:snap-others="true" inkscape:snap-grids="true" inkscape:window-width="1280" inkscape:window-height="940" inkscape:window-x="1909" inkscape:window-y="43" inkscape:window-maximized="1" inkscape:snap-midpoints="true" inkscape:object-nodes="true" inkscape:snap-text-baseline="true" inkscape:snap-smooth-nodes="false" showguides="false" inkscape:snap-object-midpoints="true" inkscape:snap-center="true" inkscape:snap-to-guides="false" inkscape:snap-nodes="true" inkscape:snap-intersection-paths="true">
    <inkscape:grid type="xygrid" id="grid10" units="pt" spacingx="3.1750001" spacingy="3.1750001"/>
    <sodipodi:guide position="380.20625,103.1875" orientation="0,1" id="guide9455" inkscape:locked="false"/>
  </sodipodi:namedview>
  <metadata id="metadata5">
    <rdf:RDF>
      <cc:Work rdf:about="">
        <dc:format>image/svg+xml</dc:format>
        <dc:type rdf:resource="http://purl.org/dc/dcmitype/StillImage"/>
        <dc:title/>
      </cc:Work>
    </rdf:RDF>
  </metadata>
  <g inkscape:groupmode="layer" inkscape:label="club" transform="matrix(1.000000,0.000000,0.000000,1.000000,-149.225003,-180.975016)"><g id="g2405" inkscape:label="07">
      <rect y="180.97502" x="149.22501" height="19.050001" width="19.050001" id="rect15181" style="display:inline;opacity:1;fill:none;fill-opacity:1;stroke:none;stroke-width:0.17638889;stroke-linecap:butt;stroke-linejoin:miter;stroke-miterlimit:47.14606857;stroke-dasharray:none;stroke-dashoffset:0;stroke-opacity:1;paint-order:markers fill stroke"/>
      <path inkscape:export-ydpi="96" inkscape:export-xdpi="96" inkscape:export-filename="C:\mine\Vira\Vira table excerpts\Tourne.png" id="path15239" d="m 161.92501,185.73747 c -0.91105,0 -1.70845,0.61189 -1.94425,1.49188 -0.23578,0.88002 0.14888,1.80863 0.9378,2.26414 -0.78898,-0.45551 -1.78556,-0.32426 -2.42975,0.31993 -0.6442,0.6442 -0.77535,1.64076 -0.31984,2.42974 0.45553,0.78898 1.38416,1.1736 2.26415,0.93782 0.52969,-0.14195 0.96197,-0.4875 1.22241,-0.93872 l -0.80919,3.02021 h 2.15733 l -0.80928,-3.02045 c 0.26042,0.45133 0.6927,0.79698 1.2225,0.93896 0.87999,0.23578 1.8087,-0.14888 2.26423,-0.93782 0.45551,-0.78898 0.32428,-1.78554 -0.31993,-2.42974 -0.6442,-0.64421 -1.64078,-0.77544 -2.42976,-0.31993 0.78898,-0.45551 1.17368,-1.38414 0.93789,-2.26414 -0.23579,-0.87999 -1.03329,-1.49188 -1.94431,-1.49188 z" style="opacity:1;fill:#000000;fill-opacity:1;stroke:none;stroke-width:0.07055556;stroke-linecap:butt;stroke-linejoin:miter;stroke-miterlimit:4;stroke-dasharray:none;stroke-dashoffset:0;paint-order:normal" inkscape:connector-curvature="0"/>
      <g id="text15261" style="font-style:normal;font-variant:normal;font-weight:normal;font-stretch:normal;font-size:14.11111164px;line-height:125%;font-family:'Stint Ultra Condensed';-inkscape-font-specification:'Stint Ultra Condensed, ';font-variant-ligatures:normal;font-variant-caps:normal;font-variant-numeric:normal;text-align:end;letter-spacing:0px;word-spacing:0px;writing-mode:lr-tb;text-anchor:end;fill:#000000;fill-opacity:1;stroke:none;stroke-width:0.26458335" aria-label="8">
        <path inkscape:connector-curvature="0" id="path1837" style="font-style:normal;font-variant:normal;font-weight:normal;font-stretch:normal;font-size:14.11111164px;font-family:'Stint Ultra Condensed';-inkscape-font-specification:'Stint Ultra Condensed, ';text-align:end;text-anchor:end;stroke-width:0.26458335" d="m 154.96108,190.09487 q 0.627,0.23427 0.93706,0.9095 0.31695,0.67524 0.31695,1.67432 0,0.61323 -0.13091,1.1231 -0.13092,0.50988 -0.37896,0.87506 -0.24805,0.36518 -0.60634,0.57188 -0.35829,0.19982 -0.81304,0.19982 -0.45475,0 -0.81304,-0.19982 -0.35829,-0.2067 -0.61323,-0.57188 -0.24805,-0.36518 -0.37896,-0.87506 -0.13092,-0.50987 -0.13092,-1.1231 0,-0.49609 0.0827,-0.92329 0.0827,-0.42719 0.24115,-0.75792 0.15848,-0.33762 0.39274,-0.57188 0.23427,-0.24116 0.53744,-0.35829 -0.24805,-0.1447 -0.43408,-0.37207 -0.17915,-0.23427 -0.30317,-0.50299 -0.11713,-0.2756 -0.17915,-0.57877 -0.0551,-0.30317 -0.0551,-0.59256 0,-0.53054 0.11714,-0.97152 0.11713,-0.44097 0.33072,-0.75792 0.22049,-0.31695 0.52366,-0.4892 0.30317,-0.17915 0.66835,-0.17915 0.36518,0 0.66835,0.17915 0.30316,0.17225 0.52365,0.4892 0.22049,0.31695 0.34451,0.75792 0.12402,0.44098 0.12402,0.97152 0,0.28939 -0.062,0.59945 -0.0551,0.30317 -0.17914,0.58566 -0.11714,0.27561 -0.30317,0.50988 -0.17915,0.23426 -0.42719,0.37896 z m 0.12402,-2.02572 q 0,-0.33762 -0.0482,-0.64768 -0.0413,-0.31005 -0.13781,-0.54432 -0.0896,-0.24116 -0.24804,-0.37896 -0.15159,-0.1378 -0.36518,-0.1378 -0.22049,0 -0.37896,0.1378 -0.15159,0.1378 -0.24805,0.37896 -0.0965,0.23427 -0.1378,0.54432 -0.0413,0.31006 -0.0413,0.64768 0,0.33762 0.0482,0.64768 0.0482,0.31006 0.14469,0.54433 0.10335,0.23426 0.25494,0.37207 0.15158,0.1378 0.35829,0.1378 0.2067,0 0.35829,-0.1378 0.15158,-0.13781 0.24804,-0.37207 0.0965,-0.23427 0.1447,-0.54433 0.0482,-0.31006 0.0482,-0.64768 z m -0.79926,2.39779 q -0.50299,0 -0.78548,0.5581 -0.27561,0.55811 -0.27561,1.55719 0,0.99219 0.26872,1.56407 0.26871,0.565 0.79237,0.565 0.51676,0 0.78548,-0.565 0.26872,-0.57188 0.26872,-1.56407 0,-0.4961 -0.0758,-0.88884 -0.0689,-0.39274 -0.2067,-0.66146 -0.1378,-0.2756 -0.33762,-0.4203 -0.19293,-0.14469 -0.43408,-0.14469 z"/>
      </g>
    </g>
    </g></svg>
