<?xml version='1.0' encoding='UTF-8'?>
<!-- Created with Inkscape (http://www.inkscape.org/) and export_objects.py -->
<svg xmlns:cc="http://creativecommons.org/ns#" xmlns:dc="http://purl.org/dc/elements/1.1/" xmlns:inkscape="http://www.inkscape.org/namespaces/inkscape" xmlns:rdf="http://www.w3.org/1999/02/22-rdf-syntax-ns#" xmlns:sodipodi="http://sodipodi.sourceforge.net/DTD/sodipodi-0.dtd" xmlns:xlink="http://www.w3.org/1999/xlink" xmlns="http://www.w3.org/2000/svg" version="1.1" width="0.75000003125in" height="0.75000003125in" viewBox="0 0 19.0500007937 19.0500007937" id="svg8" inkscape:version="0.92.3 (2405546, 2018-03-11)" sodipodi:docname="club09.svg"><sodipodi:namedview id="base" pagecolor="#ffffff" bordercolor="#666666" borderopacity="1.0" inkscape:pageopacity="0.0" inkscape:pageshadow="2" inkscape:zoom="1.9659447" inkscape:cx="1004.8388" inkscape:cy="218.36255" inkscape:document-units="in" inkscape:current-layer="layer3" showgrid="true" units="in" inkscape:snap-others="true" inkscape:snap-grids="true" inkscape:window-width="1280" inkscape:window-height="940" inkscape:window-x="1909" inkscape:window-y="43" inkscape:window-maximized="1" inkscape:snap-midpoints="true" inkscape:object-nodes="true" inkscape:snap-text-baseline="true" inkscape:snap-smooth-nodes="false" showguides="false" inkscape:snap-object-midpoints="true" inkscape:snap-center="true" inkscape:snap-to-guides="false" inkscape:snap-nodes="true" inkscape:snap-intersection-paths="true">
    <inkscape:grid type="xygrid" id="grid10" units="pt" spacingx="3.1750001" spacingy="3.1750001"/>
    <sodipodi:guide position="380.20625,103.1875" orientation="0,1" id="guide9455" inkscape:locked="false"/>
  </sodipodi:namedview>
  <metadata id="metadata5">
    <rdf:RDF>
      <cc:Work rdf:about="">
        <dc:format>image/svg+xml</dc:format>
        <dc:type rdf:resource="http://purl.org/dc/dcmitype/StillImage"/>
        <dc:title/>
      </cc:Work>
    </rdf:RDF>
  </metadata>
  <g inkscape:groupmode="layer" inkscape:label="club" transform="matrix(1.000000,0.000000,0.000000,1.000000,-193.674997,-180.975016)"><g id="g2453" inkscape:label="09">
      <rect y="180.97502" x="193.675" height="19.050001" width="19.050001" id="rect15293" style="display:inline;opacity:1;fill:none;fill-opacity:1;stroke:none;stroke-width:0.17638889;stroke-linecap:butt;stroke-linejoin:miter;stroke-miterlimit:47.14606857;stroke-dasharray:none;stroke-dashoffset:0;stroke-opacity:1;paint-order:markers fill stroke"/>
      <path inkscape:export-ydpi="96" inkscape:export-xdpi="96" inkscape:export-filename="C:\mine\Vira\Vira table excerpts\Tourne.png" id="path15319" d="m 206.37502,185.73747 c -0.91104,0 -1.70844,0.61189 -1.94424,1.49188 -0.23578,0.88001 0.14888,1.80863 0.9378,2.26414 -0.78898,-0.45551 -1.78556,-0.32426 -2.42976,0.31993 -0.64419,0.6442 -0.77535,1.64076 -0.31983,2.42974 0.45553,0.78898 1.38416,1.1736 2.26415,0.93782 0.52969,-0.14195 0.96197,-0.4875 1.22241,-0.93872 l -0.80919,3.02021 h 2.15733 l -0.80928,-3.02045 c 0.26041,0.45133 0.6927,0.79698 1.2225,0.93896 0.87999,0.23578 1.8087,-0.14888 2.26423,-0.93782 0.45551,-0.78898 0.32428,-1.78554 -0.31993,-2.42974 -0.6442,-0.64421 -1.64078,-0.77544 -2.42976,-0.31993 0.78898,-0.45551 1.17367,-1.38414 0.93789,-2.26414 -0.2358,-0.87999 -1.03329,-1.49188 -1.94432,-1.49188 z" style="opacity:1;fill:#000000;fill-opacity:1;stroke:none;stroke-width:0.07055556;stroke-linecap:butt;stroke-linejoin:miter;stroke-miterlimit:4;stroke-dasharray:none;stroke-dashoffset:0;paint-order:normal" inkscape:connector-curvature="0"/>
      <g id="text15341" style="font-style:normal;font-variant:normal;font-weight:normal;font-stretch:normal;font-size:14.11111164px;line-height:125%;font-family:'Stint Ultra Condensed';-inkscape-font-specification:'Stint Ultra Condensed, ';font-variant-ligatures:normal;font-variant-caps:normal;font-variant-numeric:normal;text-align:end;letter-spacing:0px;word-spacing:0px;writing-mode:lr-tb;text-anchor:end;fill:#000000;fill-opacity:1;stroke:none;stroke-width:0.26458335" aria-label="6">
        <path inkscape:connector-curvature="0" id="path1813" style="font-style:normal;font-variant:normal;font-weight:normal;font-stretch:normal;font-size:14.11111164px;font-family:'Stint Ultra Condensed';-inkscape-font-specification:'Stint Ultra Condensed, ';text-align:end;text-anchor:end;stroke-width:0.26458335" d="m 197.77811,190.34981 q 0.0482,-0.12403 0.13781,-0.31695 0.0965,-0.19293 0.24804,-0.37207 0.15848,-0.18604 0.37896,-0.31006 0.22049,-0.13092 0.52366,-0.13092 0.33762,0 0.6339,0.19293 0.29627,0.19293 0.50987,0.57878 0.22049,0.38585 0.34451,0.97151 0.13091,0.57878 0.13091,1.36426 0,0.64768 -0.12402,1.21956 -0.11713,0.565 -0.34451,0.99219 -0.22738,0.4203 -0.55811,0.66835 -0.33073,0.24116 -0.75103,0.24116 -0.4203,0 -0.78548,-0.2825 -0.35829,-0.28939 -0.62701,-0.86127 -0.26871,-0.57878 -0.42719,-1.44694 -0.15158,-0.86817 -0.15158,-2.0395 0,-1.19889 0.11713,-2.15663 0.11713,-0.96463 0.35829,-1.63987 0.24805,-0.67524 0.62012,-1.03353 0.37896,-0.36518 0.89572,-0.36518 0.33073,0 0.62701,0.18604 0.29628,0.17914 0.51676,0.53743 0.22738,0.35829 0.3514,0.89573 0.13092,0.53054 0.13092,1.23334 h -0.8475 q 0,-1.02663 -0.2067,-1.56407 -0.19982,-0.53743 -0.61323,-0.53743 -0.28939,0 -0.49609,0.32383 -0.20671,0.31695 -0.33762,0.86128 -0.13091,0.54432 -0.19293,1.26779 -0.062,0.71658 -0.062,1.52274 z m 1.11621,-0.37896 q -0.21359,0 -0.38585,0.19981 -0.17225,0.19982 -0.31006,0.4892 -0.13091,0.28939 -0.22048,0.62012 -0.0896,0.33073 -0.13092,0.59256 -0.0138,0.51676 0.0551,1.01975 0.0758,0.50298 0.21359,0.9095 0.1447,0.39963 0.34451,0.64768 0.20671,0.24805 0.44786,0.24805 0.22049,0 0.39274,-0.16537 0.17226,-0.17225 0.28939,-0.48231 0.11714,-0.31006 0.17226,-0.74414 0.062,-0.44097 0.062,-0.97841 0,-0.55121 -0.0551,-0.9853 -0.0551,-0.44097 -0.17226,-0.74414 -0.11024,-0.30317 -0.28939,-0.46164 -0.17225,-0.16536 -0.41341,-0.16536 z"/>
      </g>
    </g>
    </g></svg>
