<?xml version='1.0' encoding='UTF-8'?>
<!-- Created with Inkscape (http://www.inkscape.org/) and export_objects.py -->
<svg xmlns:cc="http://creativecommons.org/ns#" xmlns:dc="http://purl.org/dc/elements/1.1/" xmlns:inkscape="http://www.inkscape.org/namespaces/inkscape" xmlns:rdf="http://www.w3.org/1999/02/22-rdf-syntax-ns#" xmlns:sodipodi="http://sodipodi.sourceforge.net/DTD/sodipodi-0.dtd" xmlns:xlink="http://www.w3.org/1999/xlink" xmlns="http://www.w3.org/2000/svg" version="1.1" width="0.75000003125in" height="0.75000003125in" viewBox="0 0 19.0500007937 19.0500007937" id="svg8" inkscape:version="0.92.3 (2405546, 2018-03-11)" sodipodi:docname="club03.svg"><sodipodi:namedview id="base" pagecolor="#ffffff" bordercolor="#666666" borderopacity="1.0" inkscape:pageopacity="0.0" inkscape:pageshadow="2" inkscape:zoom="1.9659447" inkscape:cx="1004.8388" inkscape:cy="218.36255" inkscape:document-units="in" inkscape:current-layer="layer3" showgrid="true" units="in" inkscape:snap-others="true" inkscape:snap-grids="true" inkscape:window-width="1280" inkscape:window-height="940" inkscape:window-x="1909" inkscape:window-y="43" inkscape:window-maximized="1" inkscape:snap-midpoints="true" inkscape:object-nodes="true" inkscape:snap-text-baseline="true" inkscape:snap-smooth-nodes="false" showguides="false" inkscape:snap-object-midpoints="true" inkscape:snap-center="true" inkscape:snap-to-guides="false" inkscape:snap-nodes="true" inkscape:snap-intersection-paths="true">
    <inkscape:grid type="xygrid" id="grid10" units="pt" spacingx="3.1750001" spacingy="3.1750001"/>
    <sodipodi:guide position="380.20625,103.1875" orientation="0,1" id="guide9455" inkscape:locked="false"/>
  </sodipodi:namedview>
  <metadata id="metadata5">
    <rdf:RDF>
      <cc:Work rdf:about="">
        <dc:format>image/svg+xml</dc:format>
        <dc:type rdf:resource="http://purl.org/dc/dcmitype/StillImage"/>
        <dc:title/>
      </cc:Work>
    </rdf:RDF>
  </metadata>
  <g inkscape:groupmode="layer" inkscape:label="club" transform="matrix(1.000000,0.000000,0.000000,1.000000,-60.325000,-180.975016)"><g id="g2305" inkscape:label="03">
      <rect style="display:inline;opacity:1;fill:none;fill-opacity:1;stroke:none;stroke-width:0.17638889;stroke-linecap:butt;stroke-linejoin:miter;stroke-miterlimit:47.14606857;stroke-dasharray:none;stroke-dashoffset:0;stroke-opacity:1;paint-order:markers fill stroke" id="rect15101" width="19.050001" height="19.050001" x="60.325001" y="180.97502"/>
      <path inkscape:connector-curvature="0" style="opacity:1;fill:#000000;fill-opacity:1;stroke:none;stroke-width:0.07055556;stroke-linecap:butt;stroke-linejoin:miter;stroke-miterlimit:4;stroke-dasharray:none;stroke-dashoffset:0;paint-order:normal" d="m 73.024999,185.73748 c -0.911043,0 -1.708443,0.61189 -1.944243,1.49189 -0.235782,0.88001 0.148875,1.80862 0.9378,2.26413 -0.78898,-0.45551 -1.785563,-0.32426 -2.429757,0.31994 -0.644193,0.64419 -0.775349,1.64075 -0.319837,2.42973 0.455531,0.78898 1.384163,1.1736 2.264156,0.93782 0.529688,-0.14194 0.96197,-0.4875 1.222407,-0.93872 l -0.809194,3.02021 h 2.157337 l -0.809287,-3.02045 c 0.260419,0.45133 0.692701,0.79699 1.2225,0.93896 0.879994,0.23578 1.8087,-0.14887 2.264232,-0.93782 0.455512,-0.78898 0.324282,-1.78554 -0.319932,-2.42973 -0.644193,-0.64422 -1.640774,-0.77545 -2.429756,-0.31994 0.788982,-0.45551 1.173674,-1.38414 0.937893,-2.26413 -0.235799,-0.88 -1.033293,-1.49189 -1.944319,-1.49189 z" id="path15111" inkscape:export-filename="C:\mine\Vira\Vira table excerpts\Tourne.png" inkscape:export-xdpi="96" inkscape:export-ydpi="96"/>
      <g id="text15133" style="font-style:normal;font-variant:normal;font-weight:normal;font-stretch:normal;font-size:14.11111164px;line-height:125%;font-family:'Stint Ultra Condensed';-inkscape-font-specification:'Stint Ultra Condensed, ';font-variant-ligatures:normal;font-variant-caps:normal;font-variant-numeric:normal;text-align:end;letter-spacing:0px;word-spacing:0px;writing-mode:lr-tb;text-anchor:end;fill:#000000;fill-opacity:1;stroke:none;stroke-width:0.26458335" aria-label="Q">
        <path inkscape:connector-curvature="0" id="path1893" style="font-style:normal;font-variant:normal;font-weight:normal;font-stretch:normal;font-size:14.11111164px;font-family:'Stint Ultra Condensed';-inkscape-font-specification:'Stint Ultra Condensed, ';text-align:end;text-anchor:end;stroke-width:0.26458335" d="m 68.186714,190.53586 q 0,1.21267 -0.172255,2.1015 -0.165364,0.88884 -0.461642,1.49518 0.351399,0.21359 0.73036,0.36518 0.37896,0.15158 0.751031,0.21359 l -0.34451,0.86128 q -0.392741,-0.13781 -0.778591,-0.3514 -0.378961,-0.2136 -0.744141,-0.46854 -0.289388,0.3514 -0.640788,0.52366 -0.344509,0.17225 -0.73725,0.17225 -0.516765,0 -0.957737,-0.28939 -0.440972,-0.28938 -0.764811,-0.88883 -0.323839,-0.60634 -0.509874,-1.52962 -0.186036,-0.93018 -0.186036,-2.20486 0,-1.2678 0.186036,-2.19108 0.186035,-0.93018 0.509874,-1.53652 0.330729,-0.60633 0.771701,-0.89572 0.440972,-0.28939 0.950847,-0.28939 0.502984,0 0.943956,0.28939 0.440972,0.28939 0.757921,0.89572 0.323839,0.59945 0.509874,1.52963 0.186035,0.92328 0.186035,2.19797 z m -0.950846,0 q 0,-2.01194 -0.36518,-3.06614 -0.365181,-1.0542 -1.08176,-1.0542 -0.737251,0 -1.102431,1.06798 -0.36518,1.06109 -0.36518,3.05236 0,2.01193 0.36518,3.06613 0.36518,1.0542 1.102431,1.0542 0.434082,0 0.757921,-0.42719 -0.33762,-0.31006 -0.606337,-0.66146 l 0.3514,-0.55121 q 0.227376,0.33072 0.564995,0.62011 0.378961,-1.04731 0.378961,-3.10058 z"/>
      </g>
    </g>
    </g></svg>
