<?xml version='1.0' encoding='UTF-8'?>
<!-- Created with Inkscape (http://www.inkscape.org/) and export_objects.py -->
<svg xmlns:cc="http://creativecommons.org/ns#" xmlns:dc="http://purl.org/dc/elements/1.1/" xmlns:inkscape="http://www.inkscape.org/namespaces/inkscape" xmlns:rdf="http://www.w3.org/1999/02/22-rdf-syntax-ns#" xmlns:sodipodi="http://sodipodi.sourceforge.net/DTD/sodipodi-0.dtd" xmlns:xlink="http://www.w3.org/1999/xlink" xmlns="http://www.w3.org/2000/svg" version="1.1" width="0.75000003125in" height="0.75000003125in" viewBox="0 0 19.0500007937 19.0500007937" id="svg8" inkscape:version="0.92.3 (2405546, 2018-03-11)" sodipodi:docname="club10.svg"><sodipodi:namedview id="base" pagecolor="#ffffff" bordercolor="#666666" borderopacity="1.0" inkscape:pageopacity="0.0" inkscape:pageshadow="2" inkscape:zoom="1.9659447" inkscape:cx="1004.8388" inkscape:cy="218.36255" inkscape:document-units="in" inkscape:current-layer="layer3" showgrid="true" units="in" inkscape:snap-others="true" inkscape:snap-grids="true" inkscape:window-width="1280" inkscape:window-height="940" inkscape:window-x="1909" inkscape:window-y="43" inkscape:window-maximized="1" inkscape:snap-midpoints="true" inkscape:object-nodes="true" inkscape:snap-text-baseline="true" inkscape:snap-smooth-nodes="false" showguides="false" inkscape:snap-object-midpoints="true" inkscape:snap-center="true" inkscape:snap-to-guides="false" inkscape:snap-nodes="true" inkscape:snap-intersection-paths="true">
    <inkscape:grid type="xygrid" id="grid10" units="pt" spacingx="3.1750001" spacingy="3.1750001"/>
    <sodipodi:guide position="380.20625,103.1875" orientation="0,1" id="guide9455" inkscape:locked="false"/>
  </sodipodi:namedview>
  <metadata id="metadata5">
    <rdf:RDF>
      <cc:Work rdf:about="">
        <dc:format>image/svg+xml</dc:format>
        <dc:type rdf:resource="http://purl.org/dc/dcmitype/StillImage"/>
        <dc:title/>
      </cc:Work>
    </rdf:RDF>
  </metadata>
  <g inkscape:groupmode="layer" inkscape:label="club" transform="matrix(1.000000,0.000000,0.000000,1.000000,-215.900005,-180.975016)"><g id="g2477" inkscape:label="10">
      <rect style="display:inline;opacity:1;fill:none;fill-opacity:1;stroke:none;stroke-width:0.17638889;stroke-linecap:butt;stroke-linejoin:miter;stroke-miterlimit:47.14606857;stroke-dasharray:none;stroke-dashoffset:0;stroke-opacity:1;paint-order:markers fill stroke" id="rect15301" width="19.050001" height="19.050001" x="215.90001" y="180.97502"/>
      <path inkscape:connector-curvature="0" style="opacity:1;fill:#000000;fill-opacity:1;stroke:none;stroke-width:0.07055556;stroke-linecap:butt;stroke-linejoin:miter;stroke-miterlimit:4;stroke-dasharray:none;stroke-dashoffset:0;paint-order:normal" d="m 228.60003,185.73747 c -0.91105,0 -1.70845,0.61189 -1.94425,1.49188 -0.23578,0.88001 0.14888,1.80862 0.9378,2.26414 -0.78898,-0.45552 -1.78556,-0.32427 -2.42975,0.31993 -0.6442,0.64419 -0.77535,1.64076 -0.31984,2.42974 0.45553,0.78898 1.38416,1.1736 2.26415,0.93782 0.52969,-0.14195 0.96197,-0.48751 1.22241,-0.93872 l -0.80919,3.02021 h 2.15733 l -0.80928,-3.02046 c 0.26042,0.45133 0.6927,0.79699 1.2225,0.93897 0.87999,0.23578 1.8087,-0.14888 2.26423,-0.93782 0.45551,-0.78898 0.32428,-1.78555 -0.31993,-2.42974 -0.6442,-0.64421 -1.64078,-0.77545 -2.42976,-0.31993 0.78898,-0.45552 1.17368,-1.38415 0.93789,-2.26414 -0.23579,-0.87999 -1.03329,-1.49188 -1.94431,-1.49188 z" id="path15343" inkscape:export-filename="C:\mine\Vira\Vira table excerpts\Tourne.png" inkscape:export-xdpi="96" inkscape:export-ydpi="96"/>
      <g id="text15365" style="font-style:normal;font-variant:normal;font-weight:normal;font-stretch:normal;font-size:14.11111164px;line-height:125%;font-family:'Stint Ultra Condensed';-inkscape-font-specification:'Stint Ultra Condensed, ';font-variant-ligatures:normal;font-variant-caps:normal;font-variant-numeric:normal;text-align:end;letter-spacing:0px;word-spacing:0px;writing-mode:lr-tb;text-anchor:end;fill:#000000;fill-opacity:1;stroke:none;stroke-width:0.26458335" aria-label="5">
        <path inkscape:connector-curvature="0" id="path1801" style="font-style:normal;font-variant:normal;font-weight:normal;font-stretch:normal;font-size:14.11111164px;font-family:'Stint Ultra Condensed';-inkscape-font-specification:'Stint Ultra Condensed, ';text-align:end;text-anchor:end;stroke-width:0.26458335" d="m 220.10302,189.51611 q 0.22049,-0.25494 0.46164,-0.33762 0.24805,-0.0827 0.51677,-0.0827 0.39274,0 0.7028,0.24115 0.31695,0.24116 0.53054,0.67524 0.22049,0.42719 0.33762,1.01975 0.11714,0.59256 0.11714,1.29536 0,0.64767 -0.10336,1.21956 -0.10335,0.565 -0.32384,0.99219 -0.21359,0.4203 -0.5581,0.66835 -0.34451,0.24115 -0.81993,0.24115 -0.3514,0.0138 -0.68213,-0.15847 -0.32384,-0.17226 -0.58567,-0.54433 -0.25494,-0.37896 -0.41341,-0.9784 -0.15158,-0.59945 -0.15158,-1.44005 h 0.86127 q 0,1.20578 0.27561,1.79834 0.28249,0.58566 0.69591,0.58566 0.23426,0 0.40652,-0.17225 0.17225,-0.17915 0.28939,-0.4961 0.11713,-0.31695 0.17225,-0.75103 0.062,-0.44097 0.062,-0.96462 0,-1.21268 -0.24115,-1.85347 -0.24116,-0.64078 -0.77171,-0.64078 -0.31005,0 -0.53743,0.2067 -0.22049,0.19982 -0.33762,0.60634 h -0.7028 l 0.16536,-4.8507 h 2.99035 v 0.78549 h -2.23931 z"/>
      </g>
    </g>
    </g></svg>
