<?xml version='1.0' encoding='UTF-8'?>
<!-- Created with Inkscape (http://www.inkscape.org/) and export_objects.py -->
<svg xmlns:cc="http://creativecommons.org/ns#" xmlns:dc="http://purl.org/dc/elements/1.1/" xmlns:inkscape="http://www.inkscape.org/namespaces/inkscape" xmlns:rdf="http://www.w3.org/1999/02/22-rdf-syntax-ns#" xmlns:sodipodi="http://sodipodi.sourceforge.net/DTD/sodipodi-0.dtd" xmlns:xlink="http://www.w3.org/1999/xlink" xmlns="http://www.w3.org/2000/svg" version="1.1" width="3.25in" height="3.25in" viewBox="0 0 82.55 82.55" id="svg8" inkscape:version="0.92.3 (2405546, 2018-03-11)" sodipodi:docname="king-10.svg"><sodipodi:namedview id="base" pagecolor="#ffffff" bordercolor="#666666" borderopacity="1.0" inkscape:pageopacity="0.0" inkscape:pageshadow="2" inkscape:zoom="0.30867644" inkscape:cx="5049.3502" inkscape:cy="639.89493" inkscape:document-units="in" inkscape:current-layer="layer13" showgrid="false" units="in" inkscape:snap-smooth-nodes="false" inkscape:snap-midpoints="false" inkscape:snap-grids="true" showguides="false" inkscape:guide-bbox="true" inkscape:snap-center="true" inkscape:snap-object-midpoints="true" inkscape:snap-nodes="false" inkscape:object-nodes="true" inkscape:window-width="1280" inkscape:window-height="940" inkscape:window-x="1909" inkscape:window-y="43" inkscape:window-maximized="1">
    <inkscape:grid type="xygrid" id="grid815" units="pt" spacingx="1.5875" spacingy="1.5875"/>
    <sodipodi:guide position="37.170066,138.77007" orientation="0,1" id="guide1100" inkscape:locked="false"/>
    <sodipodi:guide position="11.544427,113.14443" orientation="1,0" id="guide1102" inkscape:locked="false"/>
    <sodipodi:guide position="37.170062,87.5188" orientation="0,1" id="guide1104" inkscape:locked="false"/>
    <sodipodi:guide position="62.7957,113.14443" orientation="1,0" id="guide1106" inkscape:locked="false"/>
    <sodipodi:guide position="33.995066,135.59507" orientation="1,0" id="guide1108" inkscape:locked="false"/>
    <sodipodi:guide position="40.345066,135.59507" orientation="-0.99993226,-0.011639107" id="guide1110" inkscape:locked="false"/>
    <sodipodi:guide position="14.719427,116.31943" orientation="0,1" id="guide1112" inkscape:locked="false"/>
    <sodipodi:guide position="14.719427,109.96943" orientation="0,1" id="guide1114" inkscape:locked="false"/>
    <sodipodi:guide position="-6.3499999,209.55" orientation="1,0" id="guide4095" inkscape:locked="false"/>
  </sodipodi:namedview>
  <metadata id="metadata5">
    <rdf:RDF>
      <cc:Work rdf:about="">
        <dc:format>image/svg+xml</dc:format>
        <dc:type rdf:resource="http://purl.org/dc/dcmitype/StillImage"/>
        <dc:title/>
      </cc:Work>
    </rdf:RDF>
  </metadata>
  <g inkscape:groupmode="layer" inkscape:label="king-" transform="matrix(1.000000,0.000000,0.000000,1.000000,-1212.849947,-146.049968)"><g id="g7421" inkscape:label="10">
      <rect y="227.14996" x="1212.85" height="82.550003" width="82.550003" id="rect5379" style="display:inline;opacity:1;fill:none;fill-opacity:1;stroke:none;stroke-width:0.35277781;stroke-linecap:butt;stroke-linejoin:round;stroke-miterlimit:47.14606857;stroke-dasharray:none;stroke-dashoffset:0;stroke-opacity:1;paint-order:markers fill stroke" transform="translate(0,-81.099993)"/>
      <path inkscape:connector-curvature="0" id="path5615" d="m 1250.95,184.14994 v -15.87501 h 6.35 v 15.87501 h 15.875 v 6.35 H 1257.3 v 15.87499 h -6.35 v -15.87499 h -15.875 v -6.35 z" style="display:inline;opacity:1;fill:#ffffff;fill-opacity:1;stroke:#000000;stroke-width:0.35277778;stroke-linecap:butt;stroke-linejoin:miter;stroke-miterlimit:47.14606857;stroke-dasharray:none;stroke-dashoffset:0;stroke-opacity:1;paint-order:markers fill stroke"/>
      <path inkscape:connector-curvature="0" id="path5641" d="m 1238.25,171.44993 31.75,31.75" style="display:inline;opacity:1;fill:none;fill-opacity:1;stroke:#000000;stroke-width:1.41111112;stroke-linecap:butt;stroke-linejoin:round;stroke-miterlimit:47.14606857;stroke-dasharray:none;stroke-dashoffset:0;stroke-opacity:1;paint-order:markers fill stroke"/>
      <path inkscape:connector-curvature="0" id="path5643" d="m 1270,171.44993 -31.75,31.75" style="display:inline;opacity:1;fill:none;fill-opacity:1;stroke:#000000;stroke-width:1.41111112;stroke-linecap:butt;stroke-linejoin:round;stroke-miterlimit:47.14606857;stroke-dasharray:none;stroke-dashoffset:0;stroke-opacity:1;paint-order:markers fill stroke"/>
      <g aria-label="l" style="font-style:normal;font-variant:normal;font-weight:normal;font-stretch:normal;font-size:6.35000038px;line-height:100%;font-family:'Chess Merida';-inkscape-font-specification:'Chess Merida';font-variant-ligatures:normal;font-variant-caps:normal;font-variant-numeric:normal;text-align:start;letter-spacing:0px;word-spacing:0px;writing-mode:lr-tb;text-anchor:start;fill:#c48800;fill-opacity:1;stroke:none;stroke-width:0.11018605" id="g5751" transform="matrix(2.4012419,0,0,2.4012419,-1294.8305,653.6403)">
        <path d="m 1075.0761,-180.48199 q 0,-0.0899 0.019,-0.25425 0.022,-0.16743 0.065,-0.26045 0.1147,-0.25115 0.3287,-0.46509 0.062,-0.062 0.2666,-0.16743 0.2015,-0.0992 0.431,-0.0992 0.1736,0 0.3441,0.062 0.1737,0.0589 0.2605,0.18294 0.077,0.10542 0.077,0.34106 0,0.18604 -0.1519,0.34727 -0.099,0.10232 -0.214,0.20774 -0.1147,0.10231 -0.2201,0.24184 -0.1798,-0.062 -0.5023,-0.0961 -0.3194,-0.0341 -0.7038,-0.0403 z m -0.2264,0.24184 q 0.5333,0.009 0.8744,0.0527 0.3411,0.0434 0.6139,0.10232 0.1705,-0.16743 0.3783,-0.31936 0.2077,-0.15193 0.2914,-0.26045 0.1489,-0.20154 0.1489,-0.50229 0,-0.27596 -0.1334,-0.46199 -0.2387,-0.35037 -0.7286,-0.35037 -0.2852,0 -0.5953,0.12403 -0.2822,0.11162 -0.4093,0.24184 -0.2635,0.25425 -0.3845,0.66973 -0.047,0.14262 -0.053,0.36277 0,0.22014 0,0.34106 z m 1.4201,0.5364 q -0.5705,-0.15813 -1.5193,-0.15813 -0.955,0 -1.5379,0.16123 l 0.046,0.31316 q 0.586,-0.15193 1.4914,-0.15193 0.9023,0 1.4697,0.14883 z m 0.081,0.92708 -0.093,-0.36587 q -0.6046,-0.13953 -1.5193,-0.13953 -0.9054,0 -1.5131,0.13953 l -0.099,0.36897 q 0.5891,-0.17984 1.6154,-0.17984 0.493,0 0.9147,0.0496 0.4217,0.0496 0.6945,0.12713 z m -3.3517,-0.64182 -0.1023,-0.57981 q 0,0 -0.01,-0.0124 -0.015,-0.0217 -0.09,-0.0558 -0.071,-0.0372 -0.1674,-0.12402 -0.1364,-0.11472 -0.2139,-0.18603 -0.074,-0.0713 -0.1365,-0.15503 -0.1891,-0.26045 -0.2108,-0.62942 -0.031,-0.35657 0.2884,-0.71004 0.3224,-0.35346 0.8712,-0.33176 0.2047,0.0124 0.4806,0.0992 0.09,0.0372 0.183,0.0744 0.096,0.0341 0.1891,0.0713 0.05,0.0248 0.087,0.0496 -0.015,-0.0651 -0.015,-0.13023 0,-0.24184 0.1705,-0.41238 0.1737,-0.17053 0.4155,-0.17363 0.2419,0 0.4124,0.17363 0.1705,0.17054 0.1705,0.40928 0,0.0496 -0.012,0.13023 0.043,-0.0279 0.084,-0.0465 0.1427,-0.062 0.3752,-0.14573 0.2667,-0.0899 0.4806,-0.10232 0.5488,-0.0248 0.8682,0.33176 0.3131,0.35347 0.2914,0.71004 -0.025,0.36897 -0.2139,0.62942 -0.062,0.0837 -0.1396,0.15813 -0.078,0.0713 -0.2077,0.18293 -0.1023,0.0868 -0.1736,0.12402 -0.071,0.0341 -0.084,0.0558 0,0.006 -0.01,0.009 0,0.003 0,0.006 l -0.099,0.58291 0.2047,0.76584 q -0.1551,0.13953 -0.6946,0.22944 -0.5395,0.0899 -1.2464,0.0899 -0.7193,0 -1.265,-0.093 -0.5457,-0.0961 -0.6853,-0.23874 z m 1.6278,-0.82476 q 0,-0.12402 -0.01,-0.34106 -0.01,-0.22015 -0.047,-0.36587 -0.1271,-0.41548 -0.3845,-0.66973 -0.1333,-0.13022 -0.4093,-0.24185 -0.3162,-0.12402 -0.5984,-0.12402 -0.4899,0 -0.7255,0.35037 -0.1333,0.18603 -0.1333,0.46509 0,0.30385 0.1488,0.49919 0.077,0.11162 0.2976,0.27595 0.2202,0.16433 0.3721,0.30386 0.2698,-0.0589 0.6077,-0.10232 0.3411,-0.0434 0.8775,-0.0496 z m 0.1116,-0.77825 q 0.022,-0.0868 0.037,-0.12092 0.031,-0.12092 0.071,-0.20464 0.019,-0.0527 0.053,-0.12092 0.037,-0.0713 0.078,-0.16123 0.025,-0.0527 0.053,-0.12713 0.028,-0.0775 0.056,-0.15192 0.025,-0.062 0.025,-0.13333 0,-0.15193 -0.1085,-0.25735 -0.1086,-0.10852 -0.2636,-0.10852 -0.369,0 -0.369,0.36897 0,0.0713 0.025,0.13333 0.068,0.20153 0.1055,0.27905 0.04,0.0899 0.074,0.16123 0.034,0.0682 0.059,0.12092 0.04,0.10232 0.068,0.20464 0.01,0.0186 0.037,0.11782 z m 0.1085,-1.6123 h -0.2201 v -0.40618 h -0.2574 q -0.1054,0 -0.1054,-0.10232 v -0.003 q 0,-0.10232 0.1054,-0.10232 h 0.2574 v -0.26355 q 0,-0.10852 0.1116,-0.10852 v 0 q 0.1085,0 0.1085,0.10852 v 0.26355 h 0.2667 q 0.1023,0 0.1023,0.10232 v 0.003 q 0,0.10232 -0.1023,0.10232 l -0.2636,0.003 z m -0.4558,2.15181 q -0.3875,0.006 -0.71,0.0403 -0.3193,0.0341 -0.4961,0.0961 -0.093,-0.11472 -0.217,-0.22944 -0.1209,-0.11782 -0.214,-0.22014 -0.155,-0.15813 -0.155,-0.34727 0,-0.23254 0.078,-0.34106 0.084,-0.12403 0.2574,-0.18294 0.1736,-0.062 0.3503,-0.062 0.2233,0 0.4279,0.0992 0.2016,0.10542 0.2667,0.16743 0.2108,0.21394 0.3286,0.46509 0.04,0.093 0.059,0.26045 0.022,0.16433 0.025,0.25425 z m 0.3473,-1.06971 q -0.01,-0.031 -0.015,-0.0527 -0.019,-0.062 -0.031,-0.0899 -0.01,-0.0217 -0.025,-0.0527 -0.015,-0.0341 -0.031,-0.0713 -0.01,-0.0217 -0.025,-0.0558 -0.012,-0.0372 -0.022,-0.0682 -0.01,-0.0279 -0.01,-0.0589 0,-0.16433 0.1581,-0.16433 0.1643,0 0.1643,0.16123 0,0.0403 -0.012,0.0589 -0.043,0.11782 -0.047,0.12712 -0.046,0.093 -0.059,0.12093 -0.022,0.0496 -0.028,0.0899 -0.01,0.0186 -0.012,0.0341 0,0.0124 -0.01,0.0217 z" style="fill:#c48800;stroke-width:0.11018605" id="path5749" inkscape:connector-curvature="0"/>
      </g>
    </g>
    </g></svg>
