<?xml version='1.0' encoding='UTF-8'?>
<!-- Created with Inkscape (http://www.inkscape.org/) and export_objects.py -->
<svg xmlns:cc="http://creativecommons.org/ns#" xmlns:dc="http://purl.org/dc/elements/1.1/" xmlns:inkscape="http://www.inkscape.org/namespaces/inkscape" xmlns:rdf="http://www.w3.org/1999/02/22-rdf-syntax-ns#" xmlns:sodipodi="http://sodipodi.sourceforge.net/DTD/sodipodi-0.dtd" xmlns:xlink="http://www.w3.org/1999/xlink" xmlns="http://www.w3.org/2000/svg" version="1.1" width="0.75000003125in" height="0.75000003125in" viewBox="0 0 19.0500007937 19.0500007937" id="svg2869" sodipodi:docname="tile-07.svg"><sodipodi:namedview id="base" pagecolor="#ffffff" bordercolor="#666666" borderopacity="1.0" inkscape:pageopacity="0.0" inkscape:pageshadow="2" inkscape:zoom="0.4019953" inkscape:cx="689.25027" inkscape:cy="540" inkscape:document-units="in" inkscape:current-layer="layer1" showgrid="true" units="in" inkscape:window-width="1280" inkscape:window-height="940" inkscape:window-x="1909" inkscape:window-y="43" inkscape:window-maximized="1">
    <inkscape:grid type="xygrid" id="grid3414" units="pt"/>
  </sodipodi:namedview>
  <metadata id="metadata2866">
    <rdf:RDF>
      <cc:Work rdf:about="">
        <dc:format>image/svg+xml</dc:format>
        <dc:type rdf:resource="http://purl.org/dc/dcmitype/StillImage"/>
        <dc:title/>
      </cc:Work>
    </rdf:RDF>
  </metadata>
  <g inkscape:groupmode="layer" inkscape:label="tile-" transform="matrix(1.000000,0.000000,0.000000,1.000000,-330.200000,-144.599992)"><g id="g3652" transform="translate(171.45001,-114.3)" inkscape:label="07">
      <rect style="display:inline;opacity:1;fill:none;fill-opacity:1;stroke:none;stroke-width:0.17638889;stroke-linecap:butt;stroke-linejoin:miter;stroke-miterlimit:47.14606857;stroke-dasharray:none;stroke-dashoffset:0;stroke-opacity:1;paint-order:markers fill stroke" id="rect3588" width="19.050001" height="19.050001" x="158.75" y="258.89999"/>
      <path id="path1707" d="m 165.78887,262.07499 c -1.54091,5e-5 -2.79661,1.25579 -2.79661,2.79672 a 0.31078914,0.31078914 0 0 0 0,5.9e-4 c 9.7e-4,0.49086 0.13067,0.97302 0.37691,1.39773 0.70927,1.25411 1.43344,2.50228 2.15882,3.74963 l -5.9e-4,5.9e-4 0.15639,0.26837 0.15599,0.26878 h 1e-4 c 0.72603,1.24802 1.45188,2.49565 2.16499,3.7469 l 0.26837,0.47069 0.2707,-0.46917 c 0.77274,-1.33844 1.54752,-2.67898 2.32118,-4.01902 l 0.15517,-0.26878 h -1.9e-4 c 0.72159,-1.25002 1.44244,-2.49977 2.16033,-3.74751 v -5.8e-4 c 0.24613,-0.42463 0.37644,-0.90658 0.37732,-1.3974 a 0.31078914,0.31078914 0 0 0 0,-5.9e-4 c 0,-1.54096 -1.25576,-2.79672 -2.79672,-2.79672 -1.08833,0 -2.02435,0.63259 -2.48626,1.54347 -0.46193,-0.91079 -1.39763,-1.54344 -2.48587,-1.54347 z m 1.1e-4,0.62131 c 1.20507,0 2.175,0.97034 2.175,2.17541 a 0.31086,0.31086 0 0 0 0.62172,0 c 0,-1.20507 0.97034,-2.17541 2.17541,-2.17541 1.20494,0 2.17489,0.97012 2.1751,2.175 -7.8e-4,0.38172 -0.10178,0.7568 -0.29326,1.08705 a 0.31078914,0.31078914 0 0 0 -7.8e-4,7.9e-4 c -0.76932,1.3371 -1.54173,2.67689 -2.31531,4.01679 l -0.15568,0.26917 h 1.9e-4 c -0.63212,1.09472 -1.26472,2.18935 -1.89641,3.2833 -0.62828,-1.09702 -1.26268,-2.19121 -1.89793,-3.2838 l -0.15599,-0.26878 c -0.77795,-1.3374 -1.55405,-2.67402 -2.31239,-4.01492 a 0.31078914,0.31078914 0 0 0 -0.002,-0.003 c -0.19141,-0.33013 -0.29283,-0.70504 -0.29366,-1.08664 v -5.9e-4 -5.9e-4 c 5.8e-4,-1.20471 0.9707,-2.1747 2.17551,-2.1747 z" style="color:#000000;font-style:normal;font-variant:normal;font-weight:normal;font-stretch:normal;font-size:medium;line-height:normal;font-family:sans-serif;font-variant-ligatures:normal;font-variant-position:normal;font-variant-caps:normal;font-variant-numeric:normal;font-variant-alternates:normal;font-feature-settings:normal;text-indent:0;text-align:start;text-decoration:none;text-decoration-line:none;text-decoration-style:solid;text-decoration-color:#000000;letter-spacing:normal;word-spacing:normal;text-transform:none;writing-mode:lr-tb;direction:ltr;text-orientation:mixed;dominant-baseline:auto;baseline-shift:baseline;text-anchor:start;white-space:normal;shape-padding:0;clip-rule:nonzero;display:inline;overflow:visible;visibility:visible;opacity:1;isolation:auto;mix-blend-mode:normal;color-interpolation:sRGB;color-interpolation-filters:linearRGB;solid-color:#000000;solid-opacity:1;vector-effect:none;fill:#800000;fill-opacity:1;fill-rule:nonzero;stroke:none;stroke-width:3.17500019;stroke-linecap:square;stroke-linejoin:round;stroke-miterlimit:4;stroke-dasharray:none;stroke-dashoffset:0;stroke-opacity:1;paint-order:normal;color-rendering:auto;image-rendering:auto;shape-rendering:auto;text-rendering:auto;enable-background:accumulate" inkscape:connector-curvature="0"/>
    </g>
    </g></svg>
