<?xml version='1.0' encoding='UTF-8'?>
<!-- Created with Inkscape (http://www.inkscape.org/) and export_objects.py -->
<svg xmlns:cc="http://creativecommons.org/ns#" xmlns:dc="http://purl.org/dc/elements/1.1/" xmlns:inkscape="http://www.inkscape.org/namespaces/inkscape" xmlns:rdf="http://www.w3.org/1999/02/22-rdf-syntax-ns#" xmlns:sodipodi="http://sodipodi.sourceforge.net/DTD/sodipodi-0.dtd" xmlns:xlink="http://www.w3.org/1999/xlink" xmlns="http://www.w3.org/2000/svg" version="1.1" width="0.75000003125in" height="0.75000003125in" viewBox="0 0 19.0500007937 19.0500007937" id="svg2869" sodipodi:docname="tile-06.svg"><sodipodi:namedview id="base" pagecolor="#ffffff" bordercolor="#666666" borderopacity="1.0" inkscape:pageopacity="0.0" inkscape:pageshadow="2" inkscape:zoom="0.4019953" inkscape:cx="689.25027" inkscape:cy="540" inkscape:document-units="in" inkscape:current-layer="layer1" showgrid="true" units="in" inkscape:window-width="1280" inkscape:window-height="940" inkscape:window-x="1909" inkscape:window-y="43" inkscape:window-maximized="1">
    <inkscape:grid type="xygrid" id="grid3414" units="pt"/>
  </sodipodi:namedview>
  <metadata id="metadata2866">
    <rdf:RDF>
      <cc:Work rdf:about="">
        <dc:format>image/svg+xml</dc:format>
        <dc:type rdf:resource="http://purl.org/dc/dcmitype/StillImage"/>
        <dc:title/>
      </cc:Work>
    </rdf:RDF>
  </metadata>
  <g inkscape:groupmode="layer" inkscape:label="tile-" transform="matrix(1.000000,0.000000,0.000000,1.000000,-304.800000,-144.599992)"><g id="g3648" transform="translate(168.27501,-114.3)" inkscape:label="06">
      <rect y="258.89999" x="136.52499" height="19.050001" width="19.050001" id="rect3586" style="display:inline;opacity:1;fill:none;fill-opacity:1;stroke:none;stroke-width:0.17638889;stroke-linecap:butt;stroke-linejoin:miter;stroke-miterlimit:47.14606857;stroke-dasharray:none;stroke-dashoffset:0;stroke-opacity:1;paint-order:markers fill stroke"/>
      <path id="path1681" d="m 146.0496,262.07499 -0.24003,0.28454 c -0.73788,0.87475 -1.47778,1.7487 -2.21757,2.62283 l -0.20309,0.23993 h 2e-4 c -0.67206,0.79419 -1.34408,1.5885 -2.01407,2.38373 -0.43143,0.51042 -0.66831,1.15736 -0.66842,1.8257 0,1.55858 1.27022,2.82879 2.82879,2.82879 a 0.31434169,0.31434169 0 0 0 4e-4,0 c 0.56533,-7.9e-4 1.10344,-0.17558 1.55886,-0.47832 l -0.18897,0.70536 -0.0813,0.30367 -0.53152,1.98378 h 3.51409 l -0.53101,-1.98184 -0.0813,-0.30367 -0.0813,-0.30356 -0.10794,-0.40271 c 0.45552,0.30238 0.99359,0.47675 1.55876,0.47729 a 0.31434169,0.31434169 0 0 0 3.9e-4,0 c 1.55858,0 2.8288,-1.27021 2.8288,-2.82879 -1.1e-4,-0.66849 -0.23701,-1.31553 -0.66863,-1.82601 h -1e-4 c -0.67087,-0.79404 -1.34247,-1.58842 -2.01407,-2.3829 -0.0676,-0.08 -0.13514,-0.16002 -0.20278,-0.24003 l -0.203,-0.24004 c -0.67167,-0.79454 -1.34345,-1.58914 -2.01488,-2.38341 z m 1.9e-4,0.97404 c 0.59152,0.69973 1.18321,1.39961 1.77485,2.09949 l 0.20289,0.24004 0.20289,0.24003 c 0.67159,0.79449 1.34304,1.589 2.01386,2.383 a 0.31434169,0.31434169 0 0 0 1e-4,0 c 0.33583,0.39714 0.52008,0.90021 0.52017,1.42033 -5e-5,1.21869 -0.9812,2.1999 -2.19986,2.20007 -0.78864,-7.9e-4 -1.5154,-0.42253 -1.90725,-1.10694 a 0.31434169,0.31434169 0 0 0 -0.57633,0.23747 l 0.42501,1.58618 0.0813,0.30367 0.40036,1.4941 h -1.87584 l 0.40087,-1.49604 0.50687,-1.8918 a 0.31434169,0.31434169 0 0 0 -0.57665,-0.23706 c -0.39107,0.68588 -1.11814,1.10913 -1.90765,1.11042 -1.21885,0 -2.20018,-0.98132 -2.20018,-2.20017 1.1e-4,-0.52011 0.18434,-1.02309 0.52017,-1.42023 a 0.31434169,0.31434169 0 0 0 4e-4,-5.9e-4 c 0.7369,-0.87465 1.47631,-1.74848 2.21603,-2.62253 3e-5,-3e-5 5e-5,0 1e-4,0 l 0.203,-0.23993 h -1.1e-4 c 0.59192,-0.6995 1.18385,-1.39916 1.77495,-2.09939 z" style="color:#000000;font-style:normal;font-variant:normal;font-weight:normal;font-stretch:normal;font-size:medium;line-height:normal;font-family:sans-serif;font-variant-ligatures:normal;font-variant-position:normal;font-variant-caps:normal;font-variant-numeric:normal;font-variant-alternates:normal;font-feature-settings:normal;text-indent:0;text-align:start;text-decoration:none;text-decoration-line:none;text-decoration-style:solid;text-decoration-color:#000000;letter-spacing:normal;word-spacing:normal;text-transform:none;writing-mode:lr-tb;direction:ltr;text-orientation:mixed;dominant-baseline:auto;baseline-shift:baseline;text-anchor:start;white-space:normal;shape-padding:0;clip-rule:nonzero;display:inline;overflow:visible;visibility:visible;opacity:1;isolation:auto;mix-blend-mode:normal;color-interpolation:sRGB;color-interpolation-filters:linearRGB;solid-color:#000000;solid-opacity:1;vector-effect:none;fill:#000000;fill-opacity:1;fill-rule:nonzero;stroke:none;stroke-width:3.17499995;stroke-linecap:square;stroke-linejoin:round;stroke-miterlimit:4;stroke-dasharray:none;stroke-dashoffset:0;stroke-opacity:1;paint-order:normal;color-rendering:auto;image-rendering:auto;shape-rendering:auto;text-rendering:auto;enable-background:accumulate" inkscape:connector-curvature="0"/>
    </g>
    </g></svg>
