<?xml version='1.0' encoding='UTF-8'?>
<!-- Created with Inkscape (http://www.inkscape.org/) and export_objects.py -->
<svg xmlns:cc="http://creativecommons.org/ns#" xmlns:dc="http://purl.org/dc/elements/1.1/" xmlns:inkscape="http://www.inkscape.org/namespaces/inkscape" xmlns:rdf="http://www.w3.org/1999/02/22-rdf-syntax-ns#" xmlns:sodipodi="http://sodipodi.sourceforge.net/DTD/sodipodi-0.dtd" xmlns:xlink="http://www.w3.org/1999/xlink" xmlns="http://www.w3.org/2000/svg" version="1.1" width="0.75000003125in" height="0.75000003125in" viewBox="0 0 19.0500007937 19.0500007937" id="svg2869" sodipodi:docname="tile-05.svg"><sodipodi:namedview id="base" pagecolor="#ffffff" bordercolor="#666666" borderopacity="1.0" inkscape:pageopacity="0.0" inkscape:pageshadow="2" inkscape:zoom="0.4019953" inkscape:cx="689.25027" inkscape:cy="540" inkscape:document-units="in" inkscape:current-layer="layer1" showgrid="true" units="in" inkscape:window-width="1280" inkscape:window-height="940" inkscape:window-x="1909" inkscape:window-y="43" inkscape:window-maximized="1">
    <inkscape:grid type="xygrid" id="grid3414" units="pt"/>
  </sodipodi:namedview>
  <metadata id="metadata2866">
    <rdf:RDF>
      <cc:Work rdf:about="">
        <dc:format>image/svg+xml</dc:format>
        <dc:type rdf:resource="http://purl.org/dc/dcmitype/StillImage"/>
        <dc:title/>
      </cc:Work>
    </rdf:RDF>
  </metadata>
  <g inkscape:groupmode="layer" inkscape:label="tile-" transform="matrix(1.000000,0.000000,0.000000,1.000000,-279.400000,-144.599989)"><g id="g6900" inkscape:label="05">
      <rect y="144.59999" x="279.39999" height="19.050001" width="19.050001" id="rect3592" style="display:inline;opacity:1;fill:none;fill-opacity:1;stroke:none;stroke-width:0.17638889;stroke-linecap:butt;stroke-linejoin:miter;stroke-miterlimit:47.14606857;stroke-dasharray:none;stroke-dashoffset:0;stroke-opacity:1;paint-order:markers fill stroke"/>
      <path id="path1694" d="m 288.92501,147.77482 a 0.31866883,0.31866883 0 0 0 -0.0325,0.002 c -1.56499,0.0177 -2.83526,1.29702 -2.83526,2.86609 a 0.31866883,0.31866883 0 0 0 0,6.1e-4 c 6e-4,0.56332 0.17146,1.10023 0.46852,1.55719 -0.0499,-0.003 -0.0992,-0.01 -0.14926,-0.0101 a 0.31866883,0.31866883 0 0 0 -6e-4,0 c -1.58004,0 -2.86774,1.28771 -2.86774,2.86774 0,1.58003 1.2877,2.86773 2.86774,2.86773 a 0.31866883,0.31866883 0 0 0 4e-4,0 c 0.5731,-8e-4 1.11863,-0.17802 1.58032,-0.48491 l -0.10912,0.40733 -0.0825,0.30774 -0.0824,0.30785 -0.53885,2.01108 h 3.56247 l -0.53832,-2.00901 -0.0825,-0.30785 v 0 l -0.0825,-0.30774 -0.10943,-0.40826 c 0.4618,0.30657 1.00727,0.48342 1.58022,0.48398 a 0.31866883,0.31866883 0 0 0 4e-4,0 c 1.58003,0 2.86774,-1.28771 2.86774,-2.86774 0,-1.58003 -1.28771,-2.86773 -2.86774,-2.86773 a 0.31866883,0.31866883 0 0 0 -8e-4,0 c -0.0503,0 -0.0999,0.007 -0.14998,0.0102 0.29735,-0.45689 0.46864,-0.99377 0.46945,-1.5572 a 0.31866883,0.31866883 0 0 0 0,-6e-4 c 0,-1.58003 -1.28771,-2.86773 -2.86774,-2.86773 z m 0,0.63738 c 1.23555,0 2.23034,0.99473 2.23046,2.23026 -10e-4,0.79667 -0.42634,1.53107 -1.11658,1.92893 a 0.31866883,0.31866883 0 0 0 -0.11586,0.43709 l 0.003,0.005 a 0.31866883,0.31866883 0 0 0 0.43492,0.11461 c 0.33828,-0.19628 0.72217,-0.30014 1.11325,-0.30121 1.23548,0 2.23015,0.99494 2.23015,2.23046 0,1.23552 -0.99467,2.23029 -2.23015,2.23046 -0.79949,-8e-4 -1.53625,-0.42846 -1.9335,-1.12229 a 0.31866883,0.31866883 0 0 0 -0.58427,0.24085 l 0.43087,1.60791 0.0825,0.30775 v 0 l 0.0825,0.30786 0.32341,1.20681 h -1.90166 l 0.32393,-1.20889 0.0825,-0.30785 0.0825,-0.30775 0.43138,-1.60999 a 0.31866883,0.31866883 0 0 0 -0.58458,-0.24032 c -0.39646,0.69532 -1.13354,1.12439 -1.93392,1.12571 -1.23562,0 -2.23046,-0.99484 -2.23046,-2.23046 0,-1.23556 0.99473,-2.23035 2.23025,-2.23046 0.39123,8e-4 0.77538,0.10443 1.11389,0.30059 a 0.31866883,0.31866883 0 0 0 0.43522,-0.11566 l 0.002,-0.004 a 0.31866883,0.31866883 0 0 0 -0.11628,-0.43605 c -0.69032,-0.39808 -1.11535,-1.1328 -1.11626,-1.92967 v 0 0 c 1.6e-4,-1.23547 0.99494,-2.23014 2.23046,-2.23014 z" style="color:#000000;font-style:normal;font-variant:normal;font-weight:normal;font-stretch:normal;font-size:medium;line-height:normal;font-family:sans-serif;font-variant-ligatures:normal;font-variant-position:normal;font-variant-caps:normal;font-variant-numeric:normal;font-variant-alternates:normal;font-feature-settings:normal;text-indent:0;text-align:start;text-decoration:none;text-decoration-line:none;text-decoration-style:solid;text-decoration-color:#000000;letter-spacing:normal;word-spacing:normal;text-transform:none;writing-mode:lr-tb;direction:ltr;text-orientation:mixed;dominant-baseline:auto;baseline-shift:baseline;text-anchor:start;white-space:normal;shape-padding:0;clip-rule:nonzero;display:inline;overflow:visible;visibility:visible;opacity:1;isolation:auto;mix-blend-mode:normal;color-interpolation:sRGB;color-interpolation-filters:linearRGB;solid-color:#000000;solid-opacity:1;vector-effect:none;fill:#000000;fill-opacity:1;fill-rule:nonzero;stroke:none;stroke-width:3.17499995;stroke-linecap:square;stroke-linejoin:miter;stroke-miterlimit:4;stroke-dasharray:none;stroke-dashoffset:0;stroke-opacity:1;paint-order:normal;color-rendering:auto;image-rendering:auto;shape-rendering:auto;text-rendering:auto;enable-background:accumulate" inkscape:connector-curvature="0"/>
    </g>
    </g></svg>
