<?xml version='1.0' encoding='UTF-8'?>
<!-- Created with Inkscape (http://www.inkscape.org/) and export_objects.py -->
<svg xmlns:cc="http://creativecommons.org/ns#" xmlns:dc="http://purl.org/dc/elements/1.1/" xmlns:inkscape="http://www.inkscape.org/namespaces/inkscape" xmlns:rdf="http://www.w3.org/1999/02/22-rdf-syntax-ns#" xmlns:sodipodi="http://sodipodi.sourceforge.net/DTD/sodipodi-0.dtd" xmlns:xlink="http://www.w3.org/1999/xlink" xmlns="http://www.w3.org/2000/svg" version="1.1" width="0.75000003125in" height="0.75000003125in" viewBox="0 0 19.0500007937 19.0500007937" id="svg2869" sodipodi:docname="tile-04.svg"><sodipodi:namedview id="base" pagecolor="#ffffff" bordercolor="#666666" borderopacity="1.0" inkscape:pageopacity="0.0" inkscape:pageshadow="2" inkscape:zoom="0.4019953" inkscape:cx="689.25027" inkscape:cy="540" inkscape:document-units="in" inkscape:current-layer="layer1" showgrid="true" units="in" inkscape:window-width="1280" inkscape:window-height="940" inkscape:window-x="1909" inkscape:window-y="43" inkscape:window-maximized="1">
    <inkscape:grid type="xygrid" id="grid3414" units="pt"/>
  </sodipodi:namedview>
  <metadata id="metadata2866">
    <rdf:RDF>
      <cc:Work rdf:about="">
        <dc:format>image/svg+xml</dc:format>
        <dc:type rdf:resource="http://purl.org/dc/dcmitype/StillImage"/>
        <dc:title/>
      </cc:Work>
    </rdf:RDF>
  </metadata>
  <g inkscape:groupmode="layer" inkscape:label="tile-" transform="matrix(1.000000,0.000000,0.000000,1.000000,-279.400000,-119.200000)"><g id="g3628" transform="translate(165.1,-114.3)" inkscape:label="04">
      <rect style="display:inline;opacity:1;fill:none;fill-opacity:1;stroke:none;stroke-width:0.17638889;stroke-linecap:butt;stroke-linejoin:miter;stroke-miterlimit:47.14606857;stroke-dasharray:none;stroke-dashoffset:0;stroke-opacity:1;paint-order:markers fill stroke" id="rect1119" width="19.050001" height="19.050001" x="114.3" y="233.5"/>
      <path inkscape:connector-curvature="0" style="opacity:1;fill:#000000;fill-opacity:1;stroke:none;stroke-width:0.07055556;stroke-linecap:butt;stroke-linejoin:miter;stroke-miterlimit:4;stroke-dasharray:none;stroke-dashoffset:0;paint-order:normal" d="m 123.82497,236.675 c -1.21473,0 -2.27793,0.81585 -2.59233,1.98917 -0.31437,1.17335 0.1985,2.4115 1.2504,3.01886 -1.05197,-0.60736 -2.38075,-0.43236 -3.23967,0.42657 -0.85893,0.85892 -1.0338,2.18768 -0.42645,3.23966 0.60737,1.05197 1.84555,1.5648 3.01887,1.25043 0.70625,-0.18927 1.28263,-0.65002 1.62988,-1.25163 l -1.07893,4.02694 h 2.87645 l -1.07905,-4.02727 c 0.34723,0.60177 0.92361,1.06265 1.63001,1.25196 1.17332,0.31437 2.4116,-0.19851 3.01897,-1.25043 0.60735,-1.05198 0.43238,-2.38074 -0.42657,-3.23966 -0.85893,-0.85894 -2.1877,-1.03393 -3.23968,-0.42657 1.05198,-0.60736 1.5649,-1.84553 1.25053,-3.01886 -0.3144,-1.17332 -1.37773,-1.98917 -2.59243,-1.98917 z" id="path1131" inkscape:export-filename="C:\mine\Vira\Vira table excerpts\Tourne.png" inkscape:export-xdpi="96" inkscape:export-ydpi="96"/>
    </g>
    </g></svg>
