<?xml version='1.0' encoding='UTF-8'?>
<!-- Created with Inkscape (http://www.inkscape.org/) and export_objects.py -->
<svg xmlns:cc="http://creativecommons.org/ns#" xmlns:dc="http://purl.org/dc/elements/1.1/" xmlns:inkscape="http://www.inkscape.org/namespaces/inkscape" xmlns:rdf="http://www.w3.org/1999/02/22-rdf-syntax-ns#" xmlns:sodipodi="http://sodipodi.sourceforge.net/DTD/sodipodi-0.dtd" xmlns:xlink="http://www.w3.org/1999/xlink" xmlns="http://www.w3.org/2000/svg" version="1.1" width="0.75000003125in" height="0.75000003125in" viewBox="0 0 19.0500007937 19.0500007937" id="svg2869" sodipodi:docname="tile-23.svg"><sodipodi:namedview id="base" pagecolor="#ffffff" bordercolor="#666666" borderopacity="1.0" inkscape:pageopacity="0.0" inkscape:pageshadow="2" inkscape:zoom="0.4019953" inkscape:cx="689.25027" inkscape:cy="540" inkscape:document-units="in" inkscape:current-layer="layer1" showgrid="true" units="in" inkscape:window-width="1280" inkscape:window-height="940" inkscape:window-x="1909" inkscape:window-y="43" inkscape:window-maximized="1">
    <inkscape:grid type="xygrid" id="grid3414" units="pt"/>
  </sodipodi:namedview>
  <metadata id="metadata2866">
    <rdf:RDF>
      <cc:Work rdf:about="">
        <dc:format>image/svg+xml</dc:format>
        <dc:type rdf:resource="http://purl.org/dc/dcmitype/StillImage"/>
        <dc:title/>
      </cc:Work>
    </rdf:RDF>
  </metadata>
  <g inkscape:groupmode="layer" inkscape:label="tile-" transform="matrix(1.000000,0.000000,0.000000,1.000000,-279.400000,-170.000000)"><g id="g6904" inkscape:label="23">
      <path d="m 285.20322,182.80885 q 1.41459,-0.35738 3.75242,-0.35738 2.29314,0 3.70029,0.34249 l 0.18609,-1.09446 q -1.49647,-0.39459 -3.91618,-0.39459 -2.4346,0 -3.90877,0.40206 z m -0.45415,0.45417 -0.24569,-1.39226 q -0.007,0 -0.0216,-0.0298 -0.0372,-0.0521 -0.21588,-0.13399 -0.17121,-0.0893 -0.40204,-0.29782 -0.3276,-0.27547 -0.51372,-0.44671 -0.17865,-0.1712 -0.3276,-0.37226 -0.45415,-0.6254 -0.50628,-1.51139 -0.0744,-0.85621 0.69242,-1.70498 0.77431,-0.84874 2.09211,-0.79663 0.49139,0.0298 1.15401,0.2382 0.21588,0.0893 0.43929,0.17865 0.23076,0.0819 0.45414,0.17121 0.11911,0.0596 0.20843,0.1191 -0.0372,-0.15632 -0.0372,-0.31271 0,-0.58072 0.40949,-0.99023 0.41692,-0.40948 0.99766,-0.41692 0.58072,0 0.9902,0.41692 0.40951,0.40951 0.40951,0.98278 0,0.11911 -0.0298,0.31272 0.10421,-0.067 0.20098,-0.11166 0.34249,-0.14888 0.90087,-0.34993 0.6403,-0.21587 1.15402,-0.2457 1.31782,-0.0596 2.08468,0.79664 0.75198,0.84877 0.69985,1.70498 -0.0596,0.88598 -0.51373,1.51139 -0.14887,0.20098 -0.33504,0.3797 -0.1861,0.17121 -0.49881,0.43926 -0.2457,0.20843 -0.41695,0.29781 -0.17121,0.0819 -0.20099,0.13398 -0.007,0.0144 -0.0144,0.0216 -0.007,0.007 -0.007,0.0144 l -0.2382,1.39971 0.49136,1.83897 q -0.37224,0.33504 -1.66773,0.55096 -1.29547,0.21587 -2.99298,0.21587 -1.72731,0 -3.03767,-0.22331 -1.31035,-0.23076 -1.6454,-0.5733 z m 8.04832,0.8711 -0.22332,-0.85621 q -1.47415,-0.3276 -3.64816,-0.3276 -2.16657,0 -3.64074,0.3276 l -0.2382,0.86365 q 1.42204,-0.41695 3.88643,-0.41695 2.44949,0 3.86408,0.40951 z m 0.19354,0.69984 q -1.43696,-0.58071 -4.03534,-0.58071 -2.69518,0 -4.08,0.5956 1.31036,0.52117 4.05767,0.52117 1.31036,0 2.38993,-0.14144 1.07955,-0.14887 1.66774,-0.39459 z m -4.3257,-4.03533 q -0.007,-0.29036 -0.0216,-0.57327 -0.0144,-0.29036 -0.11166,-0.6403 -0.30527,-0.99766 -0.92323,-1.60818 -0.32013,-0.31269 -0.98275,-0.58072 -0.75942,-0.29782 -1.43695,-0.29782 -1.17635,0 -1.74218,0.84132 -0.32015,0.4467 -0.32015,1.11679 0,0.72962 0.35737,1.19868 0.21587,0.27547 0.55094,0.55094 0.33505,0.2755 0.62541,0.49884 1.30291,-0.46904 4.00556,-0.50628 z m 0.26059,-1.38482 q 0.0521,-0.20843 0.0893,-0.29036 0.0744,-0.29036 0.17121,-0.49139 0.0447,-0.12655 0.12655,-0.29036 0.0893,-0.17121 0.18609,-0.38715 0.0596,-0.12655 0.12655,-0.30525 0.067,-0.18609 0.13399,-0.36482 0.0596,-0.14887 0.0596,-0.32016 0,-0.36482 -0.26059,-0.61796 -0.26058,-0.26058 -0.63284,-0.26058 -0.88599,0 -0.88599,0.88599 0,0.17121 0.0596,0.32016 0.16377,0.48394 0.25314,0.67006 0.0968,0.21587 0.17865,0.38715 0.0819,0.16377 0.14144,0.29036 0.0968,0.2457 0.16376,0.49139 0.0144,0.0447 0.0893,0.28292 z m 0.25313,1.38482 q 1.28059,0.0144 2.34525,0.15632 1.06469,0.13399 1.66773,0.34246 0.28292,-0.22331 0.61796,-0.49139 0.33505,-0.27547 0.55841,-0.55838 0.35736,-0.45417 0.35736,-1.19868 0,-0.67009 -0.32014,-1.11679 -0.5733,-0.83388 -1.7422,-0.83388 -0.69984,0 -1.43692,0.29038 -0.64774,0.26058 -0.98278,0.58072 -0.62541,0.6254 -0.92321,1.60818 -0.10421,0.34994 -0.12654,0.64029 -0.0144,0.28292 -0.0144,0.58072 z m 0.007,-5.25634 h -0.52861 v -0.97534 h -0.61796 q -0.25314,0 -0.25314,-0.2457 v -0.007 q 0,-0.2457 0.25314,-0.2457 h 0.61796 v -0.63284 q 0,-0.26059 0.26803,-0.26059 v 0 q 0.26058,0 0.26058,0.26059 v 0.63284 h 0.64029 q 0.24569,0 0.24569,0.2457 v 0.007 q 0,0.2457 -0.24569,0.2457 l -0.63285,0.007 z" style="font-style:normal;font-variant:normal;font-weight:normal;font-stretch:normal;font-size:medium;line-height:100%;font-family:'Chess Merida';-inkscape-font-specification:'Chess Merida';font-variant-ligatures:normal;font-variant-caps:normal;font-variant-numeric:normal;text-align:start;letter-spacing:0px;word-spacing:0px;writing-mode:lr-tb;text-anchor:start;fill:#c48800;fill-opacity:1;stroke:none;stroke-width:0.26458335" id="path3951" inkscape:connector-curvature="0"/>
      <rect style="display:inline;opacity:1;fill:none;fill-opacity:1;stroke:none;stroke-width:0.17638889;stroke-linecap:butt;stroke-linejoin:miter;stroke-miterlimit:47.14606857;stroke-dasharray:none;stroke-dashoffset:0;stroke-opacity:1;paint-order:markers fill stroke" id="rect6894" width="19.050001" height="19.050001" x="279.39999" y="170"/>
    </g>
    </g></svg>
