<?xml version='1.0' encoding='UTF-8'?>
<!-- Created with Inkscape (http://www.inkscape.org/) and export_objects.py -->
<svg xmlns:cc="http://creativecommons.org/ns#" xmlns:dc="http://purl.org/dc/elements/1.1/" xmlns:inkscape="http://www.inkscape.org/namespaces/inkscape" xmlns:rdf="http://www.w3.org/1999/02/22-rdf-syntax-ns#" xmlns:sodipodi="http://sodipodi.sourceforge.net/DTD/sodipodi-0.dtd" xmlns:xlink="http://www.w3.org/1999/xlink" xmlns="http://www.w3.org/2000/svg" version="1.1" width="0.75000003125in" height="0.75000003125in" viewBox="0 0 19.0500007937 19.0500007937" id="svg2869" sodipodi:docname="tile-14.svg"><sodipodi:namedview id="base" pagecolor="#ffffff" bordercolor="#666666" borderopacity="1.0" inkscape:pageopacity="0.0" inkscape:pageshadow="2" inkscape:zoom="0.4019953" inkscape:cx="689.25027" inkscape:cy="540" inkscape:document-units="in" inkscape:current-layer="layer1" showgrid="true" units="in" inkscape:window-width="1280" inkscape:window-height="940" inkscape:window-x="1909" inkscape:window-y="43" inkscape:window-maximized="1">
    <inkscape:grid type="xygrid" id="grid3414" units="pt"/>
  </sodipodi:namedview>
  <metadata id="metadata2866">
    <rdf:RDF>
      <cc:Work rdf:about="">
        <dc:format>image/svg+xml</dc:format>
        <dc:type rdf:resource="http://purl.org/dc/dcmitype/StillImage"/>
        <dc:title/>
      </cc:Work>
    </rdf:RDF>
  </metadata>
  <g inkscape:groupmode="layer" inkscape:label="tile-" transform="matrix(1.000000,0.000000,0.000000,1.000000,-76.200000,-119.199997)"><g id="g3898" transform="translate(38.100003,-28.574981)" inkscape:label="14">
      <rect y="147.77498" x="38.099998" height="19.050001" width="19.050001" id="rect1045" style="display:inline;opacity:1;fill:none;fill-opacity:1;stroke:none;stroke-width:0.17638889;stroke-linecap:butt;stroke-linejoin:miter;stroke-miterlimit:47.14606857;stroke-dasharray:none;stroke-dashoffset:0;stroke-opacity:1;paint-order:markers fill stroke"/>
      <g transform="translate(-88.900002,55.699995)" id="text1083" style="font-style:normal;font-variant:normal;font-weight:normal;font-stretch:ultra-condensed;font-size:19.05000114px;line-height:125%;font-family:'Stint Ultra Condensed';-inkscape-font-specification:'Stint Ultra Condensed, Ultra-Condensed';font-variant-ligatures:normal;font-variant-caps:normal;font-variant-numeric:normal;font-feature-settings:normal;text-align:center;letter-spacing:0px;word-spacing:0px;writing-mode:lr-tb;text-anchor:middle;fill:#3771c8;fill-opacity:1;stroke:none;stroke-width:0.26458335" aria-label="9">
        <path inkscape:connector-curvature="0" id="path1745" style="font-style:normal;font-variant:normal;font-weight:normal;font-stretch:ultra-condensed;font-size:19.05000114px;font-family:'Stint Ultra Condensed';-inkscape-font-specification:'Stint Ultra Condensed, Ultra-Condensed';font-variant-ligatures:normal;font-variant-caps:normal;font-variant-numeric:normal;font-feature-settings:normal;text-align:center;writing-mode:lr-tb;text-anchor:middle;fill:#3771c8;stroke-width:0.26458335" d="m 137.85515,101.82009 q -0.0651,0.16743 -0.19534,0.42788 -0.12092,0.26045 -0.33486,0.5023 -0.20464,0.24184 -0.5023,0.41858 -0.29766,0.16743 -0.70693,0.16743 -0.45579,0 -0.85577,-0.25115 -0.39997,-0.26045 -0.69763,-0.78135 -0.28835,-0.52089 -0.46509,-1.30224 -0.16743,-0.79065 -0.16743,-1.851052 0,-0.874366 0.15813,-1.63711 0.15813,-0.772046 0.46509,-1.339453 0.30696,-0.576709 0.75344,-0.90227 0.44649,-0.334864 1.0232,-0.334864 0.5674,0 1.0511,0.390674 0.49299,0.381372 0.85576,1.16272 0.36277,0.772046 0.5674,1.944067 0.21395,1.172022 0.21395,2.753318 0,1.61851 -0.15813,2.92075 -0.15813,1.29295 -0.493,2.20452 -0.32556,0.91157 -0.83716,1.40457 -0.50229,0.48369 -1.19992,0.48369 -0.44649,0 -0.84646,-0.25115 -0.39998,-0.24184 -0.70694,-0.72554 -0.29765,-0.48369 -0.47439,-1.19992 -0.16743,-0.72554 -0.16743,-1.67432 h 1.14412 q 0,1.38596 0.26975,2.1115 0.27905,0.72554 0.83716,0.72554 0.39067,0 0.66972,-0.42788 0.27906,-0.43719 0.45579,-1.17203 0.17673,-0.73483 0.26045,-1.70222 0.0837,-0.97668 0.0837,-2.06499 z m -1.50689,0.5116 q 0.28835,0 0.5209,-0.26975 0.23254,-0.26975 0.40928,-0.66043 0.18603,-0.39067 0.30695,-0.83715 0.12093,-0.44649 0.17674,-0.809258 0.0186,-0.68833 -0.0837,-1.367358 -0.093,-0.688331 -0.28835,-1.227833 -0.18604,-0.539502 -0.46509,-0.874365 -0.26975,-0.334863 -0.59531,-0.334863 -0.29766,0 -0.5302,0.232544 -0.23255,0.223242 -0.39068,0.641821 -0.15813,0.418579 -0.24184,1.013892 -0.0744,0.586011 -0.0744,1.311548 0,0.74414 0.0744,1.339452 0.0744,0.58601 0.22324,0.99529 0.15813,0.40928 0.39067,0.63252 0.24185,0.21394 0.56741,0.21394 z"/>
      </g>
    </g>
    </g></svg>
