<?xml version='1.0' encoding='UTF-8'?>
<!-- Created with Inkscape (http://www.inkscape.org/) and export_objects.py -->
<svg xmlns:cc="http://creativecommons.org/ns#" xmlns:dc="http://purl.org/dc/elements/1.1/" xmlns:inkscape="http://www.inkscape.org/namespaces/inkscape" xmlns:rdf="http://www.w3.org/1999/02/22-rdf-syntax-ns#" xmlns:sodipodi="http://sodipodi.sourceforge.net/DTD/sodipodi-0.dtd" xmlns:xlink="http://www.w3.org/1999/xlink" xmlns="http://www.w3.org/2000/svg" version="1.1" width="0.75000003125in" height="0.75000003125in" viewBox="0 0 19.0500007937 19.0500007937" id="svg2869" sodipodi:docname="tile-18.svg"><sodipodi:namedview id="base" pagecolor="#ffffff" bordercolor="#666666" borderopacity="1.0" inkscape:pageopacity="0.0" inkscape:pageshadow="2" inkscape:zoom="0.4019953" inkscape:cx="689.25027" inkscape:cy="540" inkscape:document-units="in" inkscape:current-layer="layer1" showgrid="true" units="in" inkscape:window-width="1280" inkscape:window-height="940" inkscape:window-x="1909" inkscape:window-y="43" inkscape:window-maximized="1">
    <inkscape:grid type="xygrid" id="grid3414" units="pt"/>
  </sodipodi:namedview>
  <metadata id="metadata2866">
    <rdf:RDF>
      <cc:Work rdf:about="">
        <dc:format>image/svg+xml</dc:format>
        <dc:type rdf:resource="http://purl.org/dc/dcmitype/StillImage"/>
        <dc:title/>
      </cc:Work>
    </rdf:RDF>
  </metadata>
  <g inkscape:groupmode="layer" inkscape:label="tile-" transform="matrix(1.000000,0.000000,0.000000,1.000000,-177.800000,-119.199997)"><g id="g3918" transform="translate(50.800011,-28.574981)" inkscape:label="18">
      <rect style="display:inline;opacity:1;fill:none;fill-opacity:1;stroke:none;stroke-width:0.17638889;stroke-linecap:butt;stroke-linejoin:miter;stroke-miterlimit:47.14606857;stroke-dasharray:none;stroke-dashoffset:0;stroke-opacity:1;paint-order:markers fill stroke" id="rect1053" width="19.050001" height="19.050001" x="126.99999" y="147.77498"/>
      <g transform="translate(-88.900002,55.699995)" id="text1099" style="font-style:normal;font-variant:normal;font-weight:normal;font-stretch:ultra-condensed;font-size:19.05000114px;line-height:125%;font-family:'Stint Ultra Condensed';-inkscape-font-specification:'Stint Ultra Condensed, Ultra-Condensed';font-variant-ligatures:normal;font-variant-caps:normal;font-variant-numeric:normal;font-feature-settings:normal;text-align:center;letter-spacing:0px;word-spacing:0px;writing-mode:lr-tb;text-anchor:middle;fill:#3771c8;fill-opacity:1;stroke:none;stroke-width:0.26458335" aria-label="5">
        <path inkscape:connector-curvature="0" id="path1733" style="font-style:normal;font-variant:normal;font-weight:normal;font-stretch:ultra-condensed;font-size:19.05000114px;font-family:'Stint Ultra Condensed';-inkscape-font-specification:'Stint Ultra Condensed, Ultra-Condensed';font-variant-ligatures:normal;font-variant-caps:normal;font-variant-numeric:normal;font-feature-settings:normal;text-align:center;writing-mode:lr-tb;text-anchor:middle;fill:#3771c8;stroke-width:0.26458335" d="m 224.23436,100.19228 q 0.29766,-0.34416 0.62322,-0.455781 0.33486,-0.111622 0.69763,-0.111622 0.5302,0 0.94878,0.325562 0.42788,0.325561 0.71624,0.911571 0.29765,0.57671 0.45578,1.37666 0.15813,0.79995 0.15813,1.74873 0,0.87437 -0.13952,1.64641 -0.13953,0.76275 -0.43719,1.33946 -0.28835,0.5674 -0.75344,0.90227 -0.46509,0.32556 -1.10691,0.32556 -0.47439,0.0186 -0.92087,-0.21394 -0.43718,-0.23255 -0.79065,-0.73484 -0.34417,-0.5116 -0.55811,-1.32085 -0.20464,-0.80925 -0.20464,-1.94407 h 1.16272 q 0,1.62781 0.37207,2.42776 0.38138,0.79065 0.93948,0.79065 0.31626,0 0.54881,-0.23254 0.23254,-0.24185 0.39067,-0.66973 0.15813,-0.42788 0.23254,-1.01389 0.0837,-0.59531 0.0837,-1.30225 0,-1.63711 -0.32556,-2.50217 -0.32556,-0.86506 -1.0418,-0.86506 -0.41858,0 -0.72554,0.27905 -0.29765,0.26975 -0.45578,0.81855 h -0.94878 l 0.22324,-6.548435 h 4.03696 v 1.060401 h -3.02307 z"/>
      </g>
    </g>
    </g></svg>
