<?xml version='1.0' encoding='UTF-8'?>
<!-- Created with Inkscape (http://www.inkscape.org/) and export_objects.py -->
<svg xmlns:cc="http://creativecommons.org/ns#" xmlns:dc="http://purl.org/dc/elements/1.1/" xmlns:inkscape="http://www.inkscape.org/namespaces/inkscape" xmlns:rdf="http://www.w3.org/1999/02/22-rdf-syntax-ns#" xmlns:sodipodi="http://sodipodi.sourceforge.net/DTD/sodipodi-0.dtd" xmlns:xlink="http://www.w3.org/1999/xlink" xmlns="http://www.w3.org/2000/svg" version="1.1" width="0.75in" height="0.75in" viewBox="0 0 19.05 19.05" id="svg8" inkscape:version="0.92.3 (2405546, 2018-03-11)" sodipodi:docname="tile-04.svg"><sodipodi:namedview id="base" pagecolor="#ffffff" bordercolor="#666666" borderopacity="1.0" inkscape:pageopacity="0.0" inkscape:pageshadow="2" inkscape:zoom="0.7644654" inkscape:cx="1735.089" inkscape:cy="1075.3584" inkscape:document-units="in" inkscape:current-layer="layer3" showgrid="true" units="in" inkscape:snap-others="true" inkscape:snap-grids="true" inkscape:window-width="1280" inkscape:window-height="940" inkscape:window-x="1909" inkscape:window-y="43" inkscape:window-maximized="1" inkscape:snap-midpoints="false" inkscape:object-nodes="true" inkscape:snap-text-baseline="true" inkscape:snap-smooth-nodes="false" showguides="false" inkscape:snap-object-midpoints="true" inkscape:snap-center="true" inkscape:snap-to-guides="false" inkscape:snap-nodes="true" inkscape:snap-intersection-paths="false">
    <inkscape:grid type="xygrid" id="grid10" units="pt" spacingx="3.1750001" spacingy="3.1750001"/>
    <sodipodi:guide position="380.20625,103.1875" orientation="0,1" id="guide9455" inkscape:locked="false"/>
  </sodipodi:namedview>
  <metadata id="metadata5">
    <rdf:RDF>
      <cc:Work rdf:about="">
        <dc:format>image/svg+xml</dc:format>
        <dc:type rdf:resource="http://purl.org/dc/dcmitype/StillImage"/>
        <dc:title/>
      </cc:Work>
    </rdf:RDF>
  </metadata>
  <g inkscape:groupmode="layer" inkscape:label="tile-" transform="matrix(1.000000,0.000000,0.000000,1.000000,-482.600000,-25.400000)"><path style="display:inline;opacity:1;fill:#000000;fill-opacity:1;stroke:none;stroke-width:0.66666669;stroke-linecap:butt;stroke-linejoin:miter;stroke-miterlimit:47.14606857;stroke-dasharray:none;stroke-dashoffset:0;stroke-opacity:1;paint-order:markers fill stroke" d="M 1824 96 L 1824 168 L 1896 168 L 1896 96 L 1824 96 z M 1833 105 L 1887 105 L 1887 159 L 1833 159 L 1833 105 z M 1865.6016 117.35156 C 1863.3651 117.35156 1861.4916 117.92577 1859.9805 119.07422 C 1858.3485 120.31333 1857.5312 121.97521 1857.5312 124.06055 C 1857.5313 126.56899 1858.7257 128.80704 1861.1133 130.77148 C 1857.8795 133.00793 1856.2617 135.74278 1856.2617 138.97656 C 1856.2617 141.6059 1857.1083 143.67639 1858.8008 145.1875 C 1860.5235 146.66839 1862.7762 147.4082 1865.5566 147.4082 C 1868.0953 147.4082 1870.2854 146.50083 1872.1289 144.6875 C 1873.9725 142.87417 1874.8945 140.77427 1874.8945 138.38672 C 1874.8945 135.48538 1873.262 132.97688 1869.998 130.86133 C 1872.2949 128.9271 1873.4434 126.69101 1873.4434 124.15234 C 1873.4434 122.06701 1872.6888 120.38847 1871.1777 119.11914 C 1869.6968 117.94047 1867.838 117.35156 1865.6016 117.35156 z M 1846.9668 117.66992 L 1846.9668 147 L 1852.2246 147 L 1852.2246 117.66992 L 1846.9668 117.66992 z M 1865.6016 121.20508 C 1866.2967 121.20508 1866.961 121.50688 1867.5957 122.11133 C 1868.2304 122.71577 1868.5469 123.41149 1868.5469 124.19727 C 1868.5469 125.64793 1867.5807 127.05406 1865.6465 128.41406 C 1863.5914 127.05406 1862.5645 125.52643 1862.5645 123.83398 C 1862.5645 123.04821 1862.8957 122.39854 1863.5605 121.88477 C 1864.1348 121.43143 1864.8158 121.20508 1865.6016 121.20508 z M 1865.2832 133.53516 C 1868.3357 135.34849 1869.8633 136.95157 1869.8633 138.3418 C 1869.8633 139.49024 1869.3939 140.51716 1868.457 141.42383 C 1867.5201 142.33049 1866.5226 142.7832 1865.4648 142.7832 C 1864.4373 142.7832 1863.4858 142.39125 1862.6094 141.60547 C 1861.7631 140.78947 1861.3398 139.838 1861.3398 138.75 C 1861.3398 136.93667 1862.6539 135.19738 1865.2832 133.53516 z " transform="scale(0.26458334)" id="rect8679" inkscape:label="04"/>
    </g></svg>
