<?xml version='1.0' encoding='UTF-8'?>
<!-- Created with Inkscape (http://www.inkscape.org/) and export_objects.py -->
<svg xmlns:cc="http://creativecommons.org/ns#" xmlns:dc="http://purl.org/dc/elements/1.1/" xmlns:inkscape="http://www.inkscape.org/namespaces/inkscape" xmlns:rdf="http://www.w3.org/1999/02/22-rdf-syntax-ns#" xmlns:sodipodi="http://sodipodi.sourceforge.net/DTD/sodipodi-0.dtd" xmlns:xlink="http://www.w3.org/1999/xlink" xmlns="http://www.w3.org/2000/svg" version="1.1" width="0.75in" height="0.75in" viewBox="0 0 19.05 19.05" id="svg8" inkscape:version="0.92.3 (2405546, 2018-03-11)" sodipodi:docname="tile-05.svg"><sodipodi:namedview id="base" pagecolor="#ffffff" bordercolor="#666666" borderopacity="1.0" inkscape:pageopacity="0.0" inkscape:pageshadow="2" inkscape:zoom="0.7644654" inkscape:cx="1735.089" inkscape:cy="1075.3584" inkscape:document-units="in" inkscape:current-layer="layer3" showgrid="true" units="in" inkscape:snap-others="true" inkscape:snap-grids="true" inkscape:window-width="1280" inkscape:window-height="940" inkscape:window-x="1909" inkscape:window-y="43" inkscape:window-maximized="1" inkscape:snap-midpoints="false" inkscape:object-nodes="true" inkscape:snap-text-baseline="true" inkscape:snap-smooth-nodes="false" showguides="false" inkscape:snap-object-midpoints="true" inkscape:snap-center="true" inkscape:snap-to-guides="false" inkscape:snap-nodes="true" inkscape:snap-intersection-paths="false">
    <inkscape:grid type="xygrid" id="grid10" units="pt" spacingx="3.1750001" spacingy="3.1750001"/>
    <sodipodi:guide position="380.20625,103.1875" orientation="0,1" id="guide9455" inkscape:locked="false"/>
  </sodipodi:namedview>
  <metadata id="metadata5">
    <rdf:RDF>
      <cc:Work rdf:about="">
        <dc:format>image/svg+xml</dc:format>
        <dc:type rdf:resource="http://purl.org/dc/dcmitype/StillImage"/>
        <dc:title/>
      </cc:Work>
    </rdf:RDF>
  </metadata>
  <g inkscape:groupmode="layer" inkscape:label="tile-" transform="matrix(1.000000,0.000000,0.000000,1.000000,-260.350000,-25.400000)"><path style="display:inline;opacity:1;fill:#000000;fill-opacity:1;stroke:none;stroke-width:0.66666669;stroke-linecap:butt;stroke-linejoin:miter;stroke-miterlimit:47.14606857;stroke-dasharray:none;stroke-dashoffset:0;stroke-opacity:1;paint-order:markers fill stroke" d="M 984 96 L 984 168 L 1056 168 L 1056 96 L 984 96 z M 993 105 L 1047 105 L 1047 159 L 993 159 L 993 105 z M 1019.9785 117.35156 C 1017.7421 117.35156 1015.8685 117.92577 1014.3574 119.07422 C 1012.7254 120.31333 1011.9102 121.97522 1011.9102 124.06055 C 1011.9102 126.56899 1013.1027 128.80704 1015.4902 130.77148 C 1012.2564 133.00793 1010.6406 135.74278 1010.6406 138.97656 C 1010.6406 141.6059 1011.4853 143.67639 1013.1777 145.1875 C 1014.9004 146.66839 1017.1531 147.4082 1019.9336 147.4082 C 1022.4723 147.4082 1024.6623 146.50083 1026.5059 144.6875 C 1028.3494 142.87417 1029.2715 140.77427 1029.2715 138.38672 C 1029.2715 135.48538 1027.639 132.97688 1024.375 130.86133 C 1026.6719 128.92711 1027.8223 126.69101 1027.8223 124.15234 C 1027.8223 122.06701 1027.0658 120.38847 1025.5547 119.11914 C 1024.0738 117.94047 1022.215 117.35156 1019.9785 117.35156 z M 1019.9785 121.20508 C 1020.6736 121.20508 1021.338 121.50688 1021.9727 122.11133 C 1022.6073 122.71577 1022.9258 123.41149 1022.9258 124.19727 C 1022.9258 125.64793 1021.9577 127.05406 1020.0234 128.41406 C 1017.9683 127.05406 1016.9414 125.52643 1016.9414 123.83398 C 1016.9414 123.04821 1017.2746 122.39854 1017.9395 121.88477 C 1018.5137 121.43143 1019.1927 121.20508 1019.9785 121.20508 z M 1019.6621 133.53516 C 1022.7145 135.34849 1024.2402 136.95157 1024.2402 138.3418 C 1024.2402 139.49024 1023.7709 140.51716 1022.834 141.42383 C 1021.8971 142.33049 1020.8996 142.7832 1019.8418 142.7832 C 1018.8142 142.7832 1017.8628 142.39125 1016.9863 141.60547 C 1016.1401 140.78947 1015.7168 139.838 1015.7168 138.75 C 1015.7168 136.93667 1017.0328 135.19738 1019.6621 133.53516 z " transform="scale(0.26458334)" id="rect8681" inkscape:label="05"/>
    </g></svg>
