<?xml version='1.0' encoding='UTF-8'?>
<!-- Created with Inkscape (http://www.inkscape.org/) and export_objects.py -->
<svg xmlns:cc="http://creativecommons.org/ns#" xmlns:dc="http://purl.org/dc/elements/1.1/" xmlns:inkscape="http://www.inkscape.org/namespaces/inkscape" xmlns:rdf="http://www.w3.org/1999/02/22-rdf-syntax-ns#" xmlns:sodipodi="http://sodipodi.sourceforge.net/DTD/sodipodi-0.dtd" xmlns:xlink="http://www.w3.org/1999/xlink" xmlns="http://www.w3.org/2000/svg" version="1.1" width="0.75in" height="0.75in" viewBox="0 0 19.05 19.05" id="svg8" inkscape:version="0.92.3 (2405546, 2018-03-11)" sodipodi:docname="tile-03.svg"><sodipodi:namedview id="base" pagecolor="#ffffff" bordercolor="#666666" borderopacity="1.0" inkscape:pageopacity="0.0" inkscape:pageshadow="2" inkscape:zoom="0.7644654" inkscape:cx="1735.089" inkscape:cy="1075.3584" inkscape:document-units="in" inkscape:current-layer="layer3" showgrid="true" units="in" inkscape:snap-others="true" inkscape:snap-grids="true" inkscape:window-width="1280" inkscape:window-height="940" inkscape:window-x="1909" inkscape:window-y="43" inkscape:window-maximized="1" inkscape:snap-midpoints="false" inkscape:object-nodes="true" inkscape:snap-text-baseline="true" inkscape:snap-smooth-nodes="false" showguides="false" inkscape:snap-object-midpoints="true" inkscape:snap-center="true" inkscape:snap-to-guides="false" inkscape:snap-nodes="true" inkscape:snap-intersection-paths="false">
    <inkscape:grid type="xygrid" id="grid10" units="pt" spacingx="3.1750001" spacingy="3.1750001"/>
    <sodipodi:guide position="380.20625,103.1875" orientation="0,1" id="guide9455" inkscape:locked="false"/>
  </sodipodi:namedview>
  <metadata id="metadata5">
    <rdf:RDF>
      <cc:Work rdf:about="">
        <dc:format>image/svg+xml</dc:format>
        <dc:type rdf:resource="http://purl.org/dc/dcmitype/StillImage"/>
        <dc:title/>
      </cc:Work>
    </rdf:RDF>
  </metadata>
  <g inkscape:groupmode="layer" inkscape:label="tile-" transform="matrix(1.000000,0.000000,0.000000,1.000000,-282.575000,-25.400000)"><path style="display:inline;opacity:1;fill:#000000;fill-opacity:1;stroke:none;stroke-width:0.66666669;stroke-linecap:butt;stroke-linejoin:miter;stroke-miterlimit:47.14606857;stroke-dasharray:none;stroke-dashoffset:0;stroke-opacity:1;paint-order:markers fill stroke" d="M 1068 96 L 1068 168 L 1140 168 L 1140 96 L 1068 96 z M 1077 105 L 1131 105 L 1131 159 L 1077 159 L 1077 105 z M 1104.1914 117.26172 C 1101.2901 117.26172 1098.7963 118.18379 1096.7109 120.02734 C 1094.6558 121.84068 1093.6289 124.10617 1093.6289 126.82617 C 1093.6289 129.33462 1094.5363 131.46586 1096.3496 133.21875 C 1098.1932 134.97164 1100.444 135.84766 1103.1035 135.84766 C 1104.252 135.84766 1105.6875 135.4851 1107.4102 134.75977 C 1105.8688 138.7491 1102.1972 142.82933 1096.3945 147 L 1103.375 147 C 1106.4577 144.88444 1108.9515 142.25444 1110.8555 139.11133 C 1112.8804 135.78688 1113.8926 132.40237 1113.8926 128.95703 C 1113.8926 125.93481 1113.1234 123.32146 1111.582 121.11523 C 1109.7687 118.54634 1107.3043 117.26172 1104.1914 117.26172 z M 1103.875 121.93164 C 1105.3861 121.93164 1106.61 122.67145 1107.5469 124.15234 C 1108.3326 125.4519 1108.7559 127.00893 1108.8164 128.82227 C 1107.7586 129.72893 1106.8659 130.33254 1106.1406 130.63477 C 1105.2944 131.02766 1104.2822 131.22461 1103.1035 131.22461 C 1101.9551 131.22461 1100.9429 130.74055 1100.0664 129.77344 C 1099.19 128.80633 1098.752 127.6873 1098.752 126.41797 C 1098.752 125.11841 1099.2801 124.04544 1100.3379 123.19922 C 1101.3957 122.353 1102.5754 121.93164 1103.875 121.93164 z " transform="scale(0.26458334)" id="rect8673" inkscape:label="03"/>
    </g></svg>
