<?xml version='1.0' encoding='UTF-8'?>
<!-- Created with Inkscape (http://www.inkscape.org/) and export_objects.py -->
<svg xmlns:cc="http://creativecommons.org/ns#" xmlns:dc="http://purl.org/dc/elements/1.1/" xmlns:inkscape="http://www.inkscape.org/namespaces/inkscape" xmlns:rdf="http://www.w3.org/1999/02/22-rdf-syntax-ns#" xmlns:sodipodi="http://sodipodi.sourceforge.net/DTD/sodipodi-0.dtd" xmlns:xlink="http://www.w3.org/1999/xlink" xmlns="http://www.w3.org/2000/svg" version="1.1" width="0.75in" height="0.75in" viewBox="0 0 19.05 19.05" id="svg8" inkscape:version="0.92.3 (2405546, 2018-03-11)" sodipodi:docname="tile-09.svg"><sodipodi:namedview id="base" pagecolor="#ffffff" bordercolor="#666666" borderopacity="1.0" inkscape:pageopacity="0.0" inkscape:pageshadow="2" inkscape:zoom="0.7644654" inkscape:cx="1735.089" inkscape:cy="1075.3584" inkscape:document-units="in" inkscape:current-layer="layer3" showgrid="true" units="in" inkscape:snap-others="true" inkscape:snap-grids="true" inkscape:window-width="1280" inkscape:window-height="940" inkscape:window-x="1909" inkscape:window-y="43" inkscape:window-maximized="1" inkscape:snap-midpoints="false" inkscape:object-nodes="true" inkscape:snap-text-baseline="true" inkscape:snap-smooth-nodes="false" showguides="false" inkscape:snap-object-midpoints="true" inkscape:snap-center="true" inkscape:snap-to-guides="false" inkscape:snap-nodes="true" inkscape:snap-intersection-paths="false">
    <inkscape:grid type="xygrid" id="grid10" units="pt" spacingx="3.1750001" spacingy="3.1750001"/>
    <sodipodi:guide position="380.20625,103.1875" orientation="0,1" id="guide9455" inkscape:locked="false"/>
  </sodipodi:namedview>
  <metadata id="metadata5">
    <rdf:RDF>
      <cc:Work rdf:about="">
        <dc:format>image/svg+xml</dc:format>
        <dc:type rdf:resource="http://purl.org/dc/dcmitype/StillImage"/>
        <dc:title/>
      </cc:Work>
    </rdf:RDF>
  </metadata>
  <g inkscape:groupmode="layer" inkscape:label="tile-" transform="matrix(1.000000,0.000000,0.000000,1.000000,-215.900000,-25.400000)"><path style="display:inline;opacity:1;fill:#000000;fill-opacity:1;stroke:none;stroke-width:0.66666669;stroke-linecap:butt;stroke-linejoin:miter;stroke-miterlimit:47.14606857;stroke-dasharray:none;stroke-dashoffset:0;stroke-opacity:1;paint-order:markers fill stroke" d="M 816 96 L 816 168 L 888 168 L 888 96 L 816 96 z M 825 105 L 879 105 L 879 159 L 825 159 L 825 105 z M 851.55273 117.66992 C 848.74208 119.63437 846.39915 122.36922 844.52539 125.875 C 842.68181 129.38078 841.75977 132.7947 841.75977 136.11914 C 841.75977 139.23203 842.62107 141.84734 844.34375 143.96289 C 846.21751 146.29 848.78678 147.45312 852.05078 147.45312 C 854.92191 147.45312 857.3236 146.54771 859.25781 144.73438 C 861.22226 142.89082 862.20508 140.60867 862.20508 137.88867 C 862.20508 135.38023 861.31436 133.23428 859.53125 131.45117 C 857.74812 129.63784 855.52674 128.73047 852.86719 128.73047 C 851.17474 128.73047 849.66375 129.03227 848.33398 129.63672 C 850.75175 124.01538 854.31657 120.02725 859.03125 117.66992 L 851.55273 117.66992 z M 852.50391 133.49023 C 853.65235 133.49023 854.66457 133.97429 855.54102 134.94141 C 856.41744 135.87829 856.85547 136.96597 856.85547 138.20508 C 856.85547 139.47441 856.41744 140.56208 855.54102 141.46875 C 854.69478 142.34519 853.68256 142.7832 852.50391 142.7832 C 851.08346 142.7832 849.83019 142.3158 848.74219 141.37891 C 847.65419 140.4118 847.10938 139.20262 847.10938 137.75195 C 847.10937 136.60351 847.26029 135.83234 847.5625 135.43945 C 848.59005 134.1399 850.23722 133.49023 852.50391 133.49023 z " transform="scale(0.26458334)" id="rect8697" inkscape:label="09"/>
    </g></svg>
