<?xml version='1.0' encoding='UTF-8'?>
<!-- Created with Inkscape (http://www.inkscape.org/) and export_objects.py -->
<svg xmlns:cc="http://creativecommons.org/ns#" xmlns:dc="http://purl.org/dc/elements/1.1/" xmlns:inkscape="http://www.inkscape.org/namespaces/inkscape" xmlns:rdf="http://www.w3.org/1999/02/22-rdf-syntax-ns#" xmlns:sodipodi="http://sodipodi.sourceforge.net/DTD/sodipodi-0.dtd" xmlns:xlink="http://www.w3.org/1999/xlink" xmlns="http://www.w3.org/2000/svg" version="1.1" width="0.75in" height="0.75in" viewBox="0 0 19.05 19.05" id="svg8" inkscape:version="0.92.3 (2405546, 2018-03-11)" sodipodi:docname="tile-02.svg"><sodipodi:namedview id="base" pagecolor="#ffffff" bordercolor="#666666" borderopacity="1.0" inkscape:pageopacity="0.0" inkscape:pageshadow="2" inkscape:zoom="0.7644654" inkscape:cx="1735.089" inkscape:cy="1075.3584" inkscape:document-units="in" inkscape:current-layer="layer3" showgrid="true" units="in" inkscape:snap-others="true" inkscape:snap-grids="true" inkscape:window-width="1280" inkscape:window-height="940" inkscape:window-x="1909" inkscape:window-y="43" inkscape:window-maximized="1" inkscape:snap-midpoints="false" inkscape:object-nodes="true" inkscape:snap-text-baseline="true" inkscape:snap-smooth-nodes="false" showguides="false" inkscape:snap-object-midpoints="true" inkscape:snap-center="true" inkscape:snap-to-guides="false" inkscape:snap-nodes="true" inkscape:snap-intersection-paths="false">
    <inkscape:grid type="xygrid" id="grid10" units="pt" spacingx="3.1750001" spacingy="3.1750001"/>
    <sodipodi:guide position="380.20625,103.1875" orientation="0,1" id="guide9455" inkscape:locked="false"/>
  </sodipodi:namedview>
  <metadata id="metadata5">
    <rdf:RDF>
      <cc:Work rdf:about="">
        <dc:format>image/svg+xml</dc:format>
        <dc:type rdf:resource="http://purl.org/dc/dcmitype/StillImage"/>
        <dc:title/>
      </cc:Work>
    </rdf:RDF>
  </metadata>
  <g inkscape:groupmode="layer" inkscape:label="tile-" transform="matrix(1.000000,0.000000,0.000000,1.000000,-504.825000,-25.400000)"><path style="display:inline;opacity:1;fill:#000000;fill-opacity:1;stroke:none;stroke-width:0.66666669;stroke-linecap:butt;stroke-linejoin:miter;stroke-miterlimit:47.14606857;stroke-dasharray:none;stroke-dashoffset:0;stroke-opacity:1;paint-order:markers fill stroke" d="M 1908 96 L 1908 168 L 1980 168 L 1980 96 L 1908 96 z M 1917 105 L 1971 105 L 1971 159 L 1917 159 L 1917 105 z M 1949.8145 117.26172 C 1946.9131 117.26172 1944.4193 118.18379 1942.334 120.02734 C 1940.2789 121.84068 1939.252 124.10617 1939.252 126.82617 C 1939.252 129.33462 1940.1574 131.46586 1941.9707 133.21875 C 1943.8143 134.97164 1946.067 135.84766 1948.7266 135.84766 C 1949.875 135.84766 1951.3105 135.4851 1953.0332 134.75977 C 1951.4919 138.7491 1947.8203 142.82933 1942.0176 147 L 1948.998 147 C 1952.0807 144.88444 1954.5745 142.25444 1956.4785 139.11133 C 1958.5034 135.78688 1959.5156 132.40237 1959.5156 128.95703 C 1959.5156 125.93481 1958.7445 123.32146 1957.2031 121.11523 C 1955.3898 118.54634 1952.9273 117.26172 1949.8145 117.26172 z M 1929.6387 117.66992 L 1929.6387 147 L 1934.8965 147 L 1934.8965 117.66992 L 1929.6387 117.66992 z M 1949.4961 121.93164 C 1951.0072 121.93164 1952.2311 122.67145 1953.168 124.15234 C 1953.9537 125.4519 1954.377 127.00893 1954.4375 128.82227 C 1953.3797 129.72893 1952.489 130.33254 1951.7637 130.63477 C 1950.9174 131.02765 1949.9052 131.22461 1948.7266 131.22461 C 1947.5781 131.22461 1946.5659 130.74055 1945.6895 129.77344 C 1944.813 128.80633 1944.375 127.6873 1944.375 126.41797 C 1944.375 125.11841 1944.9031 124.04544 1945.9609 123.19922 C 1947.0187 122.353 1948.1965 121.93164 1949.4961 121.93164 z " transform="scale(0.26458334)" id="rect8671" inkscape:label="02"/>
    </g></svg>
