<?xml version='1.0' encoding='UTF-8'?>
<!-- Created with Inkscape (http://www.inkscape.org/) and export_objects.py -->
<svg xmlns:cc="http://creativecommons.org/ns#" xmlns:dc="http://purl.org/dc/elements/1.1/" xmlns:inkscape="http://www.inkscape.org/namespaces/inkscape" xmlns:rdf="http://www.w3.org/1999/02/22-rdf-syntax-ns#" xmlns:sodipodi="http://sodipodi.sourceforge.net/DTD/sodipodi-0.dtd" xmlns:xlink="http://www.w3.org/1999/xlink" xmlns="http://www.w3.org/2000/svg" version="1.1" width="0.75in" height="0.75in" viewBox="0 0 19.05 19.05" id="svg8" inkscape:version="0.92.3 (2405546, 2018-03-11)" sodipodi:docname="tile-14.svg"><sodipodi:namedview id="base" pagecolor="#ffffff" bordercolor="#666666" borderopacity="1.0" inkscape:pageopacity="0.0" inkscape:pageshadow="2" inkscape:zoom="0.7644654" inkscape:cx="1735.089" inkscape:cy="1075.3584" inkscape:document-units="in" inkscape:current-layer="layer3" showgrid="true" units="in" inkscape:snap-others="true" inkscape:snap-grids="true" inkscape:window-width="1280" inkscape:window-height="940" inkscape:window-x="1909" inkscape:window-y="43" inkscape:window-maximized="1" inkscape:snap-midpoints="false" inkscape:object-nodes="true" inkscape:snap-text-baseline="true" inkscape:snap-smooth-nodes="false" showguides="false" inkscape:snap-object-midpoints="true" inkscape:snap-center="true" inkscape:snap-to-guides="false" inkscape:snap-nodes="true" inkscape:snap-intersection-paths="false">
    <inkscape:grid type="xygrid" id="grid10" units="pt" spacingx="3.1750001" spacingy="3.1750001"/>
    <sodipodi:guide position="380.20625,103.1875" orientation="0,1" id="guide9455" inkscape:locked="false"/>
  </sodipodi:namedview>
  <metadata id="metadata5">
    <rdf:RDF>
      <cc:Work rdf:about="">
        <dc:format>image/svg+xml</dc:format>
        <dc:type rdf:resource="http://purl.org/dc/dcmitype/StillImage"/>
        <dc:title/>
      </cc:Work>
    </rdf:RDF>
  </metadata>
  <g inkscape:groupmode="layer" inkscape:label="tile-" transform="matrix(1.000000,0.000000,0.000000,1.000000,-371.475000,-25.400000)"><path style="display:inline;opacity:1;fill:#000000;fill-opacity:1;stroke:none;stroke-width:0.66666669;stroke-linecap:butt;stroke-linejoin:miter;stroke-miterlimit:47.14606857;stroke-dasharray:none;stroke-dashoffset:0;stroke-opacity:1;paint-order:markers fill stroke" d="M 1404 96 L 1404 168 L 1476 168 L 1476 96 L 1404 96 z M 1413 105 L 1467 105 L 1467 159 L 1413 159 L 1413 105 z M 1425.6836 117.66992 L 1425.6836 147 L 1430.9414 147 L 1430.9414 117.66992 L 1425.6836 117.66992 z M 1436.293 117.71484 L 1436.293 122.33789 L 1447.6719 122.33789 L 1441.7324 132.58398 C 1444.3618 132.58398 1446.3127 132.96124 1447.582 133.7168 C 1449.0327 134.59324 1449.7578 136.07482 1449.7578 138.16016 C 1449.7578 139.33882 1449.3198 140.33634 1448.4434 141.15234 C 1447.5669 141.96834 1446.5547 142.37695 1445.4062 142.37695 C 1443.0489 142.37695 1441.098 140.89537 1439.5566 137.93359 L 1439.2852 137.93359 L 1435.8848 141.51562 C 1436.1265 142.66407 1436.9585 143.78114 1438.3789 144.86914 C 1439.4971 145.74559 1440.675 146.39525 1441.9141 146.81836 C 1442.8812 147.1508 1443.9248 147.31641 1445.043 147.31641 C 1447.8839 147.31641 1450.3169 146.45509 1452.3418 144.73242 C 1454.3667 142.97953 1455.3789 140.76009 1455.3789 138.07031 C 1455.3789 136.19653 1454.8802 134.42785 1453.8828 132.76562 C 1452.825 130.92207 1451.4042 129.6835 1449.6211 129.04883 L 1456.1035 117.71484 L 1436.293 117.71484 z " transform="scale(0.26458334)" id="rect8707" inkscape:label="14"/>
    </g></svg>
