<?xml version='1.0' encoding='UTF-8'?>
<!-- Created with Inkscape (http://www.inkscape.org/) and export_objects.py -->
<svg xmlns:cc="http://creativecommons.org/ns#" xmlns:dc="http://purl.org/dc/elements/1.1/" xmlns:inkscape="http://www.inkscape.org/namespaces/inkscape" xmlns:rdf="http://www.w3.org/1999/02/22-rdf-syntax-ns#" xmlns:sodipodi="http://sodipodi.sourceforge.net/DTD/sodipodi-0.dtd" xmlns:xlink="http://www.w3.org/1999/xlink" xmlns="http://www.w3.org/2000/svg" version="1.1" width="0.75in" height="0.75in" viewBox="0 0 19.05 19.05" id="svg8" inkscape:version="0.92.3 (2405546, 2018-03-11)" sodipodi:docname="tile-20.svg"><sodipodi:namedview id="base" pagecolor="#ffffff" bordercolor="#666666" borderopacity="1.0" inkscape:pageopacity="0.0" inkscape:pageshadow="2" inkscape:zoom="0.7644654" inkscape:cx="1735.089" inkscape:cy="1075.3584" inkscape:document-units="in" inkscape:current-layer="layer3" showgrid="true" units="in" inkscape:snap-others="true" inkscape:snap-grids="true" inkscape:window-width="1280" inkscape:window-height="940" inkscape:window-x="1909" inkscape:window-y="43" inkscape:window-maximized="1" inkscape:snap-midpoints="false" inkscape:object-nodes="true" inkscape:snap-text-baseline="true" inkscape:snap-smooth-nodes="false" showguides="false" inkscape:snap-object-midpoints="true" inkscape:snap-center="true" inkscape:snap-to-guides="false" inkscape:snap-nodes="true" inkscape:snap-intersection-paths="false">
    <inkscape:grid type="xygrid" id="grid10" units="pt" spacingx="3.1750001" spacingy="3.1750001"/>
    <sodipodi:guide position="380.20625,103.1875" orientation="0,1" id="guide9455" inkscape:locked="false"/>
  </sodipodi:namedview>
  <metadata id="metadata5">
    <rdf:RDF>
      <cc:Work rdf:about="">
        <dc:format>image/svg+xml</dc:format>
        <dc:type rdf:resource="http://purl.org/dc/dcmitype/StillImage"/>
        <dc:title/>
      </cc:Work>
    </rdf:RDF>
  </metadata>
  <g inkscape:groupmode="layer" inkscape:label="tile-" transform="matrix(1.000000,0.000000,0.000000,1.000000,-82.550000,-25.400000)"><path style="display:inline;opacity:1;fill:#000000;fill-opacity:1;stroke:none;stroke-width:0.66666669;stroke-linecap:butt;stroke-linejoin:miter;stroke-miterlimit:47.14606857;stroke-dasharray:none;stroke-dashoffset:0;stroke-opacity:1;paint-order:markers fill stroke" d="M 312 96 L 312 168 L 384 168 L 384 96 L 312 96 z M 321 105 L 375 105 L 375 159 L 321 159 L 321 105 z M 347.91406 117.39648 C 344.49895 117.39648 341.8856 119.19652 340.07227 122.79297 C 338.68204 125.57341 337.98633 128.74628 337.98633 132.3125 C 337.98633 135.87872 338.68204 139.05159 340.07227 141.83203 C 341.8856 145.42848 344.49895 147.22656 347.91406 147.22656 C 351.3594 147.22656 353.9894 145.42848 355.80273 141.83203 C 357.19296 139.05159 357.88867 135.87872 357.88867 132.3125 C 357.88867 128.71605 357.19296 125.52654 355.80273 122.74609 C 354.01962 119.17987 351.38962 117.39648 347.91406 117.39648 z M 348.00586 121.97656 C 349.6983 121.97656 350.98293 123.33664 351.85938 126.05664 C 352.49404 128.02109 352.81055 130.10628 352.81055 132.3125 C 352.81055 134.57917 352.50874 136.66436 351.9043 138.56836 C 351.05808 141.25814 349.75875 142.60352 348.00586 142.60352 C 346.28319 142.60352 344.99857 141.25814 344.15234 138.56836 C 343.5479 136.66436 343.24609 134.57917 343.24609 132.3125 C 343.24609 130.92228 343.38034 129.5475 343.65234 128.1875 C 343.95457 126.64617 344.45333 125.30079 345.14844 124.15234 C 345.99466 122.70168 346.94808 121.97656 348.00586 121.97656 z " transform="scale(0.26458334)" id="rect8747" inkscape:label="20"/>
    </g></svg>
