<?xml version='1.0' encoding='UTF-8'?>
<!-- Created with Inkscape (http://www.inkscape.org/) and export_objects.py -->
<svg xmlns:cc="http://creativecommons.org/ns#" xmlns:dc="http://purl.org/dc/elements/1.1/" xmlns:inkscape="http://www.inkscape.org/namespaces/inkscape" xmlns:rdf="http://www.w3.org/1999/02/22-rdf-syntax-ns#" xmlns:sodipodi="http://sodipodi.sourceforge.net/DTD/sodipodi-0.dtd" xmlns:xlink="http://www.w3.org/1999/xlink" xmlns="http://www.w3.org/2000/svg" version="1.1" width="0.75in" height="0.75in" viewBox="0 0 19.05 19.05" id="svg8" inkscape:version="0.92.3 (2405546, 2018-03-11)" sodipodi:docname="tile-01.svg"><sodipodi:namedview id="base" pagecolor="#ffffff" bordercolor="#666666" borderopacity="1.0" inkscape:pageopacity="0.0" inkscape:pageshadow="2" inkscape:zoom="0.7644654" inkscape:cx="1735.089" inkscape:cy="1075.3584" inkscape:document-units="in" inkscape:current-layer="layer3" showgrid="true" units="in" inkscape:snap-others="true" inkscape:snap-grids="true" inkscape:window-width="1280" inkscape:window-height="940" inkscape:window-x="1909" inkscape:window-y="43" inkscape:window-maximized="1" inkscape:snap-midpoints="false" inkscape:object-nodes="true" inkscape:snap-text-baseline="true" inkscape:snap-smooth-nodes="false" showguides="false" inkscape:snap-object-midpoints="true" inkscape:snap-center="true" inkscape:snap-to-guides="false" inkscape:snap-nodes="true" inkscape:snap-intersection-paths="false">
    <inkscape:grid type="xygrid" id="grid10" units="pt" spacingx="3.1750001" spacingy="3.1750001"/>
    <sodipodi:guide position="380.20625,103.1875" orientation="0,1" id="guide9455" inkscape:locked="false"/>
  </sodipodi:namedview>
  <metadata id="metadata5">
    <rdf:RDF>
      <cc:Work rdf:about="">
        <dc:format>image/svg+xml</dc:format>
        <dc:type rdf:resource="http://purl.org/dc/dcmitype/StillImage"/>
        <dc:title/>
      </cc:Work>
    </rdf:RDF>
  </metadata>
  <g inkscape:groupmode="layer" inkscape:label="tile-" transform="matrix(1.000000,0.000000,0.000000,1.000000,-304.800000,-25.400000)"><path style="display:inline;opacity:1;fill:#000000;fill-opacity:1;stroke:none;stroke-width:0.66666669;stroke-linecap:butt;stroke-linejoin:miter;stroke-miterlimit:47.14606857;stroke-dasharray:none;stroke-dashoffset:0;stroke-opacity:1;paint-order:markers fill stroke" d="M 1152 96 L 1152 168 L 1224 168 L 1224 96 L 1152 96 z M 1161 105 L 1215 105 L 1215 159 L 1161 159 L 1161 105 z M 1193.5371 117.39648 C 1190.122 117.39648 1187.5087 119.19652 1185.6953 122.79297 C 1184.3051 125.57341 1183.6094 128.74628 1183.6094 132.3125 C 1183.6094 135.87872 1184.3051 139.05159 1185.6953 141.83203 C 1187.5087 145.42848 1190.122 147.22656 1193.5371 147.22656 C 1196.9825 147.22656 1199.6124 145.42848 1201.4258 141.83203 C 1202.816 139.05159 1203.5098 135.87872 1203.5098 132.3125 C 1203.5098 128.71606 1202.816 125.52654 1201.4258 122.74609 C 1199.6427 119.17987 1197.0127 117.39648 1193.5371 117.39648 z M 1173.8594 117.66992 L 1173.8594 147 L 1179.1191 147 L 1179.1191 117.66992 L 1173.8594 117.66992 z M 1193.627 121.97656 C 1195.3194 121.97656 1196.604 123.33664 1197.4805 126.05664 C 1198.1151 128.02109 1198.4336 130.10628 1198.4336 132.3125 C 1198.4336 134.57917 1198.1318 136.66436 1197.5273 138.56836 C 1196.6811 141.25814 1195.3798 142.60352 1193.627 142.60352 C 1191.9043 142.60352 1190.6197 141.25814 1189.7734 138.56836 C 1189.169 136.66436 1188.8672 134.57917 1188.8672 132.3125 C 1188.8672 130.92228 1189.0034 129.5475 1189.2754 128.1875 C 1189.5776 126.64617 1190.0764 125.30079 1190.7715 124.15234 C 1191.6177 122.70168 1192.5692 121.97656 1193.627 121.97656 z " transform="scale(0.26458334)" id="rect8667" inkscape:label="01"/>
    </g></svg>
