<?xml version='1.0' encoding='UTF-8'?>
<!-- Created with Inkscape (http://www.inkscape.org/) and export_objects.py -->
<svg xmlns:cc="http://creativecommons.org/ns#" xmlns:dc="http://purl.org/dc/elements/1.1/" xmlns:inkscape="http://www.inkscape.org/namespaces/inkscape" xmlns:rdf="http://www.w3.org/1999/02/22-rdf-syntax-ns#" xmlns:sodipodi="http://sodipodi.sourceforge.net/DTD/sodipodi-0.dtd" xmlns:xlink="http://www.w3.org/1999/xlink" xmlns="http://www.w3.org/2000/svg" version="1.1" width="0.75in" height="0.75in" viewBox="0 0 19.05 19.05" id="svg8" inkscape:version="0.92.3 (2405546, 2018-03-11)" sodipodi:docname="tile-00.svg"><sodipodi:namedview id="base" pagecolor="#ffffff" bordercolor="#666666" borderopacity="1.0" inkscape:pageopacity="0.0" inkscape:pageshadow="2" inkscape:zoom="0.7644654" inkscape:cx="1735.089" inkscape:cy="1075.3584" inkscape:document-units="in" inkscape:current-layer="layer3" showgrid="true" units="in" inkscape:snap-others="true" inkscape:snap-grids="true" inkscape:window-width="1280" inkscape:window-height="940" inkscape:window-x="1909" inkscape:window-y="43" inkscape:window-maximized="1" inkscape:snap-midpoints="false" inkscape:object-nodes="true" inkscape:snap-text-baseline="true" inkscape:snap-smooth-nodes="false" showguides="false" inkscape:snap-object-midpoints="true" inkscape:snap-center="true" inkscape:snap-to-guides="false" inkscape:snap-nodes="true" inkscape:snap-intersection-paths="false">
    <inkscape:grid type="xygrid" id="grid10" units="pt" spacingx="3.1750001" spacingy="3.1750001"/>
    <sodipodi:guide position="380.20625,103.1875" orientation="0,1" id="guide9455" inkscape:locked="false"/>
  </sodipodi:namedview>
  <metadata id="metadata5">
    <rdf:RDF>
      <cc:Work rdf:about="">
        <dc:format>image/svg+xml</dc:format>
        <dc:type rdf:resource="http://purl.org/dc/dcmitype/StillImage"/>
        <dc:title/>
      </cc:Work>
    </rdf:RDF>
  </metadata>
  <g inkscape:groupmode="layer" inkscape:label="tile-" transform="matrix(1.000000,0.000000,0.000000,1.000000,-527.050000,-25.400000)"><path style="display:inline;opacity:1;fill:#000000;fill-opacity:1;stroke:none;stroke-width:0.66666669;stroke-linecap:butt;stroke-linejoin:miter;stroke-miterlimit:47.14606857;stroke-dasharray:none;stroke-dashoffset:0;stroke-opacity:1;paint-order:markers fill stroke" d="M 1992 96 L 1992 168 L 2064 168 L 2064 96 L 1992 96 z M 2001 105 L 2055 105 L 2055 159 L 2001 159 L 2001 105 z M 2015.8223 117.03516 C 2013.0418 117.03516 2010.2315 118.09343 2007.3906 120.20898 L 2007.3906 127.32617 L 2007.6172 127.32617 C 2010.2465 123.75995 2012.9814 121.97656 2015.8223 121.97656 C 2016.7592 121.97656 2017.5911 122.26367 2018.3164 122.83789 C 2019.072 123.41211 2019.4492 124.15193 2019.4492 125.05859 C 2019.4492 125.7537 2019.2523 126.66107 2018.8594 127.7793 C 2018.4665 128.8673 2018.0579 129.74331 2017.6348 130.4082 L 2006.8457 147 L 2026.1133 147 L 2026.1133 142.60352 L 2015.9121 142.60352 C 2017.7859 139.88352 2019.6614 137.14671 2021.5352 134.39648 C 2023.8623 130.76982 2025.0254 127.80861 2025.0254 125.51172 C 2025.0254 122.82194 2024.1935 120.73675 2022.5312 119.25586 C 2020.8993 117.77497 2018.6632 117.03516 2015.8223 117.03516 z M 2039.7344 117.39648 C 2036.3192 117.39648 2033.7059 119.19652 2031.8926 122.79297 C 2030.5023 125.57341 2029.8066 128.74628 2029.8066 132.3125 C 2029.8066 135.87872 2030.5023 139.05159 2031.8926 141.83203 C 2033.7059 145.42848 2036.3192 147.22656 2039.7344 147.22656 C 2043.1797 147.22656 2045.8097 145.42848 2047.623 141.83203 C 2049.0133 139.05159 2049.709 135.87872 2049.709 132.3125 C 2049.709 128.71606 2049.0133 125.52654 2047.623 122.74609 C 2045.8399 119.17987 2043.2099 117.39648 2039.7344 117.39648 z M 2039.8262 121.97656 C 2041.5186 121.97656 2042.8032 123.33664 2043.6797 126.05664 C 2044.3144 128.02109 2044.6309 130.10628 2044.6309 132.3125 C 2044.6309 134.57917 2044.3291 136.66436 2043.7246 138.56836 C 2042.8784 141.25814 2041.579 142.60352 2039.8262 142.60352 C 2038.1035 142.60352 2036.8189 141.25814 2035.9727 138.56836 C 2035.3682 136.66436 2035.0664 134.57917 2035.0664 132.3125 C 2035.0664 130.92228 2035.2007 129.5475 2035.4727 128.1875 C 2035.7749 126.64617 2036.2736 125.30079 2036.9688 124.15234 C 2037.815 122.70168 2038.7684 121.97656 2039.8262 121.97656 z " transform="scale(0.26458334)" id="rect8541" inkscape:label="00"/>
    </g></svg>
