<?xml version='1.0' encoding='UTF-8'?>
<!-- Created with Inkscape (http://www.inkscape.org/) and export_objects.py -->
<svg xmlns:cc="http://creativecommons.org/ns#" xmlns:dc="http://purl.org/dc/elements/1.1/" xmlns:inkscape="http://www.inkscape.org/namespaces/inkscape" xmlns:rdf="http://www.w3.org/1999/02/22-rdf-syntax-ns#" xmlns:sodipodi="http://sodipodi.sourceforge.net/DTD/sodipodi-0.dtd" xmlns:xlink="http://www.w3.org/1999/xlink" xmlns="http://www.w3.org/2000/svg" version="1.1" width="0.75in" height="0.75in" viewBox="0 0 19.05 19.05" id="svg8" inkscape:version="0.92.3 (2405546, 2018-03-11)" sodipodi:docname="tile-08.svg"><sodipodi:namedview id="base" pagecolor="#ffffff" bordercolor="#666666" borderopacity="1.0" inkscape:pageopacity="0.0" inkscape:pageshadow="2" inkscape:zoom="0.7644654" inkscape:cx="1735.089" inkscape:cy="1075.3584" inkscape:document-units="in" inkscape:current-layer="layer3" showgrid="true" units="in" inkscape:snap-others="true" inkscape:snap-grids="true" inkscape:window-width="1280" inkscape:window-height="940" inkscape:window-x="1909" inkscape:window-y="43" inkscape:window-maximized="1" inkscape:snap-midpoints="false" inkscape:object-nodes="true" inkscape:snap-text-baseline="true" inkscape:snap-smooth-nodes="false" showguides="false" inkscape:snap-object-midpoints="true" inkscape:snap-center="true" inkscape:snap-to-guides="false" inkscape:snap-nodes="true" inkscape:snap-intersection-paths="false">
    <inkscape:grid type="xygrid" id="grid10" units="pt" spacingx="3.1750001" spacingy="3.1750001"/>
    <sodipodi:guide position="380.20625,103.1875" orientation="0,1" id="guide9455" inkscape:locked="false"/>
  </sodipodi:namedview>
  <metadata id="metadata5">
    <rdf:RDF>
      <cc:Work rdf:about="">
        <dc:format>image/svg+xml</dc:format>
        <dc:type rdf:resource="http://purl.org/dc/dcmitype/StillImage"/>
        <dc:title/>
      </cc:Work>
    </rdf:RDF>
  </metadata>
  <g inkscape:groupmode="layer" inkscape:label="tile-" transform="matrix(1.000000,0.000000,0.000000,1.000000,-438.150000,-25.400000)"><path style="display:inline;opacity:1;fill:#000000;fill-opacity:1;stroke:none;stroke-width:0.66666669;stroke-linecap:butt;stroke-linejoin:miter;stroke-miterlimit:47.14606857;stroke-dasharray:none;stroke-dashoffset:0;stroke-opacity:1;paint-order:markers fill stroke" d="M 1656 96 L 1656 168 L 1728 168 L 1728 96 L 1656 96 z M 1665 105 L 1719 105 L 1719 159 L 1665 159 L 1665 105 z M 1677.8594 117.66992 L 1677.8594 147 L 1683.1191 147 L 1683.1191 117.66992 L 1677.8594 117.66992 z M 1697.1738 117.66992 C 1694.3632 119.63437 1692.0222 122.36922 1690.1484 125.875 C 1688.3049 129.38078 1687.3828 132.7947 1687.3828 136.11914 C 1687.3828 139.23203 1688.2441 141.84734 1689.9668 143.96289 C 1691.8406 146.29 1694.4098 147.45312 1697.6738 147.45312 C 1700.5449 147.45312 1702.9466 146.54576 1704.8809 144.73242 C 1706.8453 142.88887 1707.8281 140.60867 1707.8281 137.88867 C 1707.8281 135.38023 1706.9355 133.23428 1705.1523 131.45117 C 1703.3692 129.63784 1701.1478 128.73047 1698.4883 128.73047 C 1696.7958 128.73047 1695.2848 129.03227 1693.9551 129.63672 C 1696.3728 124.01538 1699.9396 120.02726 1704.6543 117.66992 L 1697.1738 117.66992 z M 1698.127 133.49023 C 1699.2754 133.49023 1700.2876 133.9743 1701.1641 134.94141 C 1702.0405 135.8783 1702.4785 136.96597 1702.4785 138.20508 C 1702.4785 139.47441 1702.0405 140.56208 1701.1641 141.46875 C 1700.3179 142.34519 1699.3056 142.7832 1698.127 142.7832 C 1696.7065 142.7832 1695.4513 142.3158 1694.3633 141.37891 C 1693.2753 140.4118 1692.7324 139.20262 1692.7324 137.75195 C 1692.7324 136.60351 1692.8833 135.83234 1693.1855 135.43945 C 1694.2131 134.1399 1695.8603 133.49023 1698.127 133.49023 z " transform="scale(0.26458334)" id="rect8695" inkscape:label="08"/>
    </g></svg>
