<?xml version='1.0' encoding='UTF-8'?>
<!-- Created with Inkscape (http://www.inkscape.org/) and export_objects.py -->
<svg xmlns:cc="http://creativecommons.org/ns#" xmlns:dc="http://purl.org/dc/elements/1.1/" xmlns:inkscape="http://www.inkscape.org/namespaces/inkscape" xmlns:rdf="http://www.w3.org/1999/02/22-rdf-syntax-ns#" xmlns:sodipodi="http://sodipodi.sourceforge.net/DTD/sodipodi-0.dtd" xmlns:xlink="http://www.w3.org/1999/xlink" xmlns="http://www.w3.org/2000/svg" version="1.1" id="svg5174" viewBox="0 0 19.0499994708 38.1" height="38.1mm" width="19.0499994708mm" inkscape:version="0.92.3 (2405546, 2018-03-11)" sodipodi:docname="domino-03.svg"><sodipodi:namedview inkscape:window-maximized="1" inkscape:window-y="-11" inkscape:window-x="-11" inkscape:window-height="986" inkscape:window-width="1920" inkscape:snap-grids="true" inkscape:measure-end="72,552" inkscape:measure-start="72,612" showgrid="true" inkscape:current-layer="layer1" inkscape:document-units="mm" inkscape:cy="139.89159" inkscape:cx="396.85039" inkscape:zoom="0.45417822" inkscape:pageshadow="2" inkscape:pageopacity="0.0" borderopacity="1.0" bordercolor="#666666" pagecolor="#ffffff" id="base" inkscape:snap-bbox="true" inkscape:bbox-nodes="true" inkscape:snap-nodes="false" inkscape:snap-others="false">
    <inkscape:grid spacingy="6.35" spacingx="6.35" units="in" id="grid5337" type="xygrid"/>
  </sodipodi:namedview>
  <metadata id="metadata5171">
    <rdf:RDF>
      <cc:Work rdf:about="">
        <dc:format>image/svg+xml</dc:format>
        <dc:type rdf:resource="http://purl.org/dc/dcmitype/StillImage"/>
        <dc:title/>
      </cc:Work>
    </rdf:RDF>
  </metadata>
  <g inkscape:groupmode="layer" inkscape:label="domino-" transform="matrix(1.000000,0.000000,0.000000,1.000000,-69.850000,-17.599998)"><g id="g5350" inkscape:label="03">
      <g transform="translate(-31.749991,-88.899988)" id="g6959">
        <rect y="125.54999" x="101.59999" height="19.049999" width="19.049999" id="rect5313" style="opacity:1;fill:#ffdd55;fill-opacity:1;stroke:none;stroke-width:6.3499999;stroke-linecap:butt;stroke-linejoin:miter;stroke-miterlimit:47.14606857;stroke-dasharray:none;stroke-dashoffset:0;stroke-opacity:1;paint-order:markers fill stroke"/>
        <path d="m 118.10501,137.03159 v 0.99218 q 0,0.82567 -0.31916,1.55421 -0.31224,0.72159 -0.85343,1.26278 -0.54119,0.54119 -1.26972,0.85342 -0.72159,0.31917 -1.54725,0.31917 h -1.58196 q -0.15958,0.45099 -0.54812,0.72159 -0.38162,0.27754 -0.86037,0.27754 -0.2359,0 -0.45792,-0.0763 -0.2151,-0.0694 -0.40243,-0.20122 -0.18734,-0.13182 -0.32611,-0.31916 -0.13876,-0.18039 -0.22203,-0.40243 h -1.58194 q -0.82567,0 -1.5542,-0.31916 -0.7216,-0.31224 -1.26279,-0.85343 -0.54119,-0.54119 -0.86035,-1.26278 -0.31224,-0.72853 -0.31224,-1.55419 v -0.99219 h 2.53945 q -0.27059,-0.0832 -0.54813,-0.15265 -0.2706,-0.0694 -0.54813,-0.1457 0.13183,-0.47875 0.24978,-0.95056 0.12489,-0.47181 0.34692,-0.92281 -0.4163,-0.27059 -0.76322,-0.61751 -0.33999,-0.35386 -0.69384,-0.70772 0.35385,-0.34692 0.69384,-0.69384 0.34692,-0.35385 0.76322,-0.62444 -0.22203,-0.451 -0.34692,-0.92281 -0.11795,-0.47875 -0.24978,-0.9575 0.47875,-0.12489 0.95056,-0.24978 0.47181,-0.13183 0.97137,-0.16652 0.0347,-0.49957 0.15958,-0.97138 0.13183,-0.47181 0.25672,-0.95056 0.47875,0.12489 0.95056,0.24979 0.47874,0.12489 0.92281,0.34691 0.27753,-0.4163 0.62444,-0.75627 0.34692,-0.34692 0.70078,-0.70078 0.35386,0.35386 0.70078,0.70078 0.34692,0.33997 0.62446,0.75627 0.45099,-0.22202 0.9228,-0.34691 0.47181,-0.1249 0.95055,-0.24979 0.12489,0.47875 0.25673,0.95056 0.13183,0.47181 0.16651,0.97138 0.49957,0.0347 0.97138,0.16652 0.47181,0.12489 0.95056,0.24978 -0.12489,0.47875 -0.25672,0.9575 -0.1249,0.47181 -0.34692,0.92281 0.4163,0.27059 0.75628,0.61751 0.34692,0.34692 0.70077,0.70077 -0.34692,0.35386 -0.69383,0.70772 -0.34692,0.34692 -0.76322,0.61751 0.22202,0.451 0.34692,0.92281 0.12489,0.47181 0.25672,0.95056 -0.27754,0.0763 -0.55507,0.15263 -0.2706,0.0694 -0.54814,0.14572 z m -6.98001,1.49175 q 0.32611,-0.32611 0.56895,-0.71465 0.24285,-0.38855 0.35386,-0.83954 0.3261,0.33303 0.72853,0.55507 0.40242,0.21509 0.84647,0.33304 0.0624,-0.24285 0.0971,-0.48569 0.0347,-0.24285 0.0347,-0.48569 0,-0.42324 -0.11795,-0.83954 0.20121,0.0624 0.4163,0.0902 0.21509,0.0277 0.43018,0.0277 0.24284,0 0.48568,-0.0347 0.24285,-0.0347 0.47875,-0.0971 -0.12489,-0.45794 -0.33997,-0.84648 -0.21509,-0.39549 -0.54814,-0.72854 0.451,-0.11099 0.83954,-0.3469 0.38855,-0.24286 0.71466,-0.57589 -0.32611,-0.31918 -0.71466,-0.56202 -0.38854,-0.24284 -0.83954,-0.35386 0.33305,-0.31916 0.54814,-0.72158 0.22202,-0.40937 0.33997,-0.85342 -0.24284,-0.0624 -0.48568,-0.0971 -0.24284,-0.0347 -0.49262,-0.0347 -0.20816,0 -0.42324,0.0277 -0.20816,0.0277 -0.40937,0.0832 0.0624,-0.20122 0.0902,-0.40937 0.0277,-0.21509 0.0277,-0.43017 0,-0.24286 -0.0347,-0.4857 -0.0347,-0.24284 -0.0971,-0.47874 -0.44405,0.11795 -0.85341,0.33998 -0.40243,0.21509 -0.72159,0.54813 -0.11796,-0.45099 -0.3608,-0.83954 -0.2359,-0.38855 -0.56201,-0.71466 -0.3261,0.32611 -0.56894,0.71466 -0.23591,0.38855 -0.34692,0.83954 -0.31917,-0.33304 -0.72854,-0.54813 -0.40242,-0.22203 -0.84648,-0.33998 -0.0624,0.24284 -0.10405,0.48568 -0.0347,0.24285 -0.0347,0.49263 0,0.40937 0.11795,0.82567 -0.20122,-0.0555 -0.4163,-0.0832 -0.20816,-0.0277 -0.41631,-0.0277 -0.24284,0 -0.49263,0.0347 -0.24284,0.0347 -0.47875,0.0971 0.11796,0.44405 0.33305,0.85342 0.22203,0.40242 0.55507,0.72158 -0.45099,0.111 -0.83955,0.35386 -0.38854,0.23591 -0.72159,0.56202 0.32611,0.32609 0.71466,0.56894 0.39549,0.24284 0.84648,0.35385 -0.33304,0.31918 -0.55507,0.72854 -0.21509,0.40242 -0.33305,0.84648 0.23591,0.0624 0.47181,0.0971 0.24285,0.0347 0.4857,0.0347 0.21508,0 0.42324,-0.0277 0.21508,-0.0277 0.42324,-0.0902 -0.11795,0.4163 -0.11795,0.83261 0,0.24977 0.0347,0.49262 0.0416,0.24284 0.10405,0.48569 0.44406,-0.11795 0.84648,-0.33304 0.40243,-0.22204 0.72854,-0.55507 0.11099,0.45099 0.34692,0.83954 0.24284,0.38854 0.56894,0.71465 z m 2.49781,-4.98869 q 0,0.52037 -0.2012,0.97831 -0.19428,0.451 -0.53426,0.79097 -0.33304,0.33305 -0.79097,0.53425 -0.451,0.19429 -0.97138,0.19429 -0.52038,0 -0.97137,-0.19429 -0.451,-0.2012 -0.79098,-0.54119 -0.33997,-0.33997 -0.53425,-0.79097 -0.19427,-0.45793 -0.19427,-0.97137 0,-0.51344 0.19427,-0.96444 0.19428,-0.45792 0.53425,-0.79097 0.33998,-0.33998 0.79098,-0.53426 0.45794,-0.2012 0.97137,-0.2012 0.51345,0 0.96444,0.19427 0.45793,0.19427 0.79791,0.53425 0.33998,0.33999 0.53426,0.79097 0.2012,0.451 0.2012,0.97138 z m -2.49781,1.99825 q 0.4163,0 0.7771,-0.15264 0.36774,-0.15959 0.63833,-0.43019 0.2706,-0.27059 0.42324,-0.63138 0.15959,-0.36773 0.15959,-0.78404 0,-0.40936 -0.15959,-0.77016 -0.15957,-0.36774 -0.43018,-0.63833 -0.2706,-0.2706 -0.63833,-0.42324 -0.36079,-0.15959 -0.77016,-0.15959 -0.40936,0 -0.7771,0.15959 -0.36079,0.15264 -0.63139,0.42324 -0.27059,0.27059 -0.43018,0.63833 -0.15264,0.3608 -0.15264,0.77016 0,0.41631 0.15264,0.78404 0.15959,0.36079 0.43018,0.63138 0.2706,0.2706 0.63139,0.43019 0.3608,0.15264 0.7771,0.15264 z m 2.99045,5.48826 q 0.62445,0 1.16564,-0.23591 0.54814,-0.2359 0.95055,-0.64527 0.40937,-0.40243 0.64527,-0.94362 0.23591,-0.54813 0.23591,-1.17259 h -1.49869 q -0.33304,0 -0.6522,0.0971 -0.31917,0.0902 -0.60364,0.25673 l -2.23416,1.34604 v 1.29748 z m -3.98958,0 v -1.29748 l -2.23415,-1.34605 q -0.28447,-0.17346 -0.60364,-0.26365 -0.31916,-0.0902 -0.65221,-0.0902 h -1.49175 q 0,0.61751 0.22897,1.16565 0.2359,0.54813 0.63833,0.95056 0.40937,0.40936 0.95056,0.64527 0.54813,0.2359 1.17259,0.2359 z m 1.4987,-2.29661 q -0.11795,0.13183 -0.24979,0.25673 -0.12489,0.12489 -0.24978,0.24978 -0.12489,-0.12489 -0.25671,-0.24978 -0.12489,-0.1249 -0.24285,-0.25673 v 2.78923 q 0,0.20816 0.1457,0.35386 0.14572,0.14571 0.35386,0.14571 0.20816,0 0.35386,-0.14571 0.14571,-0.1457 0.14571,-0.35386 z" style="font-style:normal;font-variant:normal;font-weight:normal;font-stretch:normal;font-size:medium;line-height:100%;font-family:'Segoe UI Emoji';-inkscape-font-specification:'Segoe UI Emoji, Normal';font-variant-ligatures:normal;font-variant-caps:normal;font-variant-numeric:normal;font-feature-settings:normal;text-align:start;letter-spacing:0px;word-spacing:0px;writing-mode:lr-tb;text-anchor:start;fill:#d4aa00;fill-opacity:1;stroke:none;stroke-width:0.26458332" id="path5218" inkscape:connector-curvature="0"/>
      </g>
      <g id="g4935" transform="translate(44.449998,-107.94999)">
        <rect style="opacity:1;fill:#ffaaaa;fill-opacity:1;stroke:none;stroke-width:6.3499999;stroke-linecap:butt;stroke-linejoin:miter;stroke-miterlimit:47.14606857;stroke-dasharray:none;stroke-dashoffset:0;stroke-opacity:1;paint-order:markers fill stroke" id="rect4931" width="19.049999" height="19.049999" x="25.400002" y="125.54999"/>
        <path inkscape:connector-curvature="0" id="path4933" style="font-style:normal;font-variant:normal;font-weight:normal;font-stretch:normal;font-size:medium;line-height:100%;font-family:'Segoe UI Emoji';-inkscape-font-specification:'Segoe UI Emoji, Normal';font-variant-ligatures:normal;font-variant-caps:normal;font-variant-numeric:normal;font-feature-settings:normal;text-align:start;letter-spacing:0px;word-spacing:0px;writing-mode:lr-tb;text-anchor:start;fill:#ffd5d5;fill-opacity:1;stroke:none;stroke-width:0.26458332" d="m 36.167389,127.13755 h 0.248476 q 0.890391,0 1.71175,0.23467 0.821349,0.22776 1.539184,0.6488 0.717824,0.42104 1.30451,1.00772 0.586685,0.58669 1.007717,1.30451 0.421031,0.71783 0.648804,1.53918 0.234675,0.82136 0.234675,1.71174 v 1.49087 q 0,1.09745 -0.282992,2.11207 -0.282991,1.00771 -0.800646,1.89119 -0.517666,0.88348 -1.242402,1.60822 -0.724725,0.72472 -1.608204,1.24239 -0.883478,0.51765 -1.898096,0.80064 -1.014617,0.283 -2.105167,0.283 -1.097439,0 -2.112067,-0.283 -1.014618,-0.28299 -1.898096,-0.80064 -0.876578,-0.51767 -1.601303,-1.24239 -0.724725,-0.72474 -1.242391,-1.60132 -0.517665,-0.88347 -0.800657,-1.89809 -0.282991,-1.01462 -0.282991,-2.11207 v -6.94359 q 0.172555,0 0.331308,0 0.158754,-0.007 0.317496,-0.007 0.289893,0 0.559082,0.0207 0.269179,0.0207 0.524567,0.0966 0.255376,0.069 0.496951,0.21397 0.248476,0.14494 0.496963,0.38653 0.352012,-0.34511 0.800646,-0.52457 0.448646,-0.18637 0.938697,-0.18637 h 0.993915 v 1.2424 q 0.27609,-0.51766 0.669507,-0.93179 0.400328,-0.41413 0.876578,-0.70402 0.483161,-0.2899 1.035331,-0.44175 0.55217,-0.15874 1.138855,-0.15874 z m -6.205053,3.47179 v 0.17946 q 0.289893,-0.32441 0.669507,-0.49697 0.386527,-0.17945 0.82136,-0.17945 v -0.98702 q -0.310595,0 -0.579785,0.11734 -0.269178,0.11734 -0.476249,0.31751 -0.200158,0.20016 -0.317496,0.46935 -0.117337,0.26918 -0.117337,0.57978 z m -1.980928,-1.48398 v 0.98702 q 0.427943,0 0.814458,0.17945 0.386527,0.17256 0.669507,0.49697 v -0.17946 q 0,-0.3106 -0.117337,-0.57978 -0.117337,-0.26919 -0.317495,-0.46935 -0.200159,-0.20017 -0.469349,-0.31751 -0.269178,-0.11734 -0.579784,-0.11734 z m 0,1.48398 v 3.96875 h 3.471795 v -3.96875 q -0.310595,0 -0.579785,0.11734 -0.269178,0.11734 -0.476249,0.3244 -0.200158,0.20015 -0.317496,0.46934 -0.117337,0.26919 -0.117337,0.57979 v 0.76614 q 0,0.0966 -0.08281,0.16565 -0.07591,0.0621 -0.165654,0.0621 -0.103513,0 -0.165655,-0.0621 -0.06211,-0.0621 -0.07591,-0.15875 -0.0207,-0.12424 -0.0207,-0.28299 0,-0.12424 0.0067,-0.24848 0.0067,-0.13114 0.0067,-0.24157 0,-0.3106 -0.117338,-0.57979 -0.117337,-0.26919 -0.317495,-0.46934 -0.200159,-0.20706 -0.469349,-0.3244 -0.269178,-0.11734 -0.579784,-0.11734 z m 1.380441,8.62082 2.408861,-2.43647 q -0.317507,-0.57288 -0.317507,-1.22169 h -3.451082 q 0.06901,0.99392 0.40723,1.93261 0.345099,0.93179 0.952498,1.72555 z m 4.569235,2.71945 v -3.89973 q -0.414131,0 -0.793745,-0.13113 -0.379626,-0.13115 -0.710924,-0.37273 l -2.408861,2.44338 q 0.828261,0.80064 1.794561,1.2976 0.973212,0.50386 2.118969,0.66261 z m 0,-4.88674 q 0.310606,0 0.579784,-0.11734 0.26919,-0.11734 0.469349,-0.31749 0.20707,-0.20707 0.324407,-0.47625 0.117337,-0.26919 0.117337,-0.57979 v -0.069 q -0.476249,-0.0828 -0.917994,-0.26919 -0.434833,-0.19325 -0.821359,-0.46934 -0.379615,-0.283 -0.697122,-0.64191 -0.310595,-0.35891 -0.538368,-0.78684 v 2.2363 q 0,0.3106 0.117337,0.57979 0.117337,0.26918 0.317496,0.47625 0.20017,0.20016 0.469348,0.31749 0.26919,0.11734 0.579785,0.11734 z m 7.937505,-1.98783 v -1.49087 q 0,-0.75234 -0.193258,-1.44946 -0.193268,-0.69711 -0.552181,-1.29761 -0.352011,-0.60738 -0.855864,-1.10434 -0.496963,-0.50386 -1.104351,-0.85587 -0.600487,-0.35891 -1.297608,-0.55217 -0.697122,-0.19327 -1.449462,-0.19327 h -0.248476 q -0.669507,0 -1.256192,0.25539 -0.586686,0.24847 -1.028431,0.69022 -0.434832,0.43483 -0.690209,1.02152 -0.255388,0.58668 -0.255388,1.25619 0,0.55908 0.179456,1.06983 0.179467,0.50387 0.503864,0.9249 0.331308,0.41413 0.779943,0.71092 0.455547,0.2968 0.993915,0.42794 0.310595,-0.68331 0.731637,-1.29071 0.427932,-0.61429 0.945598,-1.15266 0.09661,-0.0966 0.186356,-0.19326 0.09661,-0.10351 0.200159,-0.18637 0.144952,-0.12423 0.33821,-0.12423 0.200158,0 0.34511,0.14495 0.151841,0.14494 0.151841,0.35201 0,0.11734 -0.04831,0.20016 -0.04141,0.0828 -0.117337,0.16565 -0.09661,0.0966 -0.193269,0.19326 -0.09661,0.0897 -0.193257,0.18636 -0.400329,0.41413 -0.731626,0.89039 -0.331309,0.46935 -0.593598,0.987 0,0.15875 0.0067,0.31751 0.0067,0.15874 0.0067,0.31749 0,0.20707 -0.0207,0.39343 1.23549,-0.36581 2.519297,-0.36581 0.207071,0 0.352011,0.14494 0.144952,0.14494 0.144952,0.35201 0,0.20016 -0.151853,0.35201 -0.14494,0.14494 -0.34511,0.14494 -0.738527,0 -1.463263,0.13805 -0.724725,0.13114 -1.414946,0.40723 -0.04831,0.0759 -0.103513,0.15184 -0.04831,0.0759 -0.110414,0.14495 0.110414,0.069 0.28298,0.19326 0.172555,0.12424 0.365824,0.28299 0.193258,0.15876 0.386516,0.33821 0.193258,0.17946 0.352011,0.35892 0.158754,0.17945 0.255388,0.35201 0.09661,0.16564 0.09661,0.29679 0,0.20706 -0.14494,0.35201 -0.144952,0.14494 -0.345111,0.14494 -0.138039,0 -0.227773,-0.0483 -0.08971,-0.0552 -0.179456,-0.15874 -0.06901,-0.0759 -0.131139,-0.16566 -0.06211,-0.0897 -0.13115,-0.16565 -0.303694,-0.35201 -0.662606,-0.635 -0.352011,-0.28299 -0.766142,-0.49005 l -0.06211,0.0276 v 4.17581 q 0.959399,0 1.842878,-0.24847 0.89039,-0.24848 1.663433,-0.70402 0.773042,-0.44865 1.401133,-1.07674 0.635002,-0.635 1.083648,-1.40805 0.455547,-0.77304 0.704022,-1.65652 0.248476,-0.89038 0.248476,-1.84979 z m -6.943591,-5.94968 q 0.20017,0 0.345111,0.14496 0.151852,0.14494 0.151852,0.34511 0,0.20706 -0.144951,0.35201 -0.144941,0.14494 -0.352012,0.14494 -0.207059,0 -0.352011,-0.14494 -0.14494,-0.14495 -0.14494,-0.35201 0,-0.20017 0.14494,-0.34511 0.151853,-0.14496 0.352011,-0.14496 z m 1.980929,0 q 0.200159,0 0.345111,0.14496 0.151841,0.14494 0.151841,0.34511 0,0.20706 -0.144941,0.35201 -0.144951,0.14494 -0.352011,0.14494 -0.20017,0 -0.34511,-0.14494 -0.144952,-0.15185 -0.144952,-0.35201 0,-0.20017 0.144952,-0.34511 0.14494,-0.14496 0.34511,-0.14496 z m -1.980929,1.98093 q 0.207071,0 0.352012,0.14494 0.144951,0.14496 0.144951,0.35202 0,0.20707 -0.144951,0.35201 -0.144941,0.14495 -0.352012,0.14495 -0.207059,0 -0.352011,-0.14495 -0.14494,-0.14494 -0.14494,-0.35201 0,-0.20706 0.14494,-0.35202 0.144952,-0.14494 0.352011,-0.14494 z"/>
      </g>
    </g>
    </g></svg>
