<?xml version='1.0' encoding='UTF-8'?>
<!-- Created with Inkscape (http://www.inkscape.org/) and export_objects.py -->
<svg xmlns:cc="http://creativecommons.org/ns#" xmlns:dc="http://purl.org/dc/elements/1.1/" xmlns:inkscape="http://www.inkscape.org/namespaces/inkscape" xmlns:rdf="http://www.w3.org/1999/02/22-rdf-syntax-ns#" xmlns:sodipodi="http://sodipodi.sourceforge.net/DTD/sodipodi-0.dtd" xmlns:xlink="http://www.w3.org/1999/xlink" xmlns="http://www.w3.org/2000/svg" version="1.1" id="svg5174" viewBox="0 0 19.0499994708 38.0999973542" height="38.0999973542mm" width="19.0499994708mm" inkscape:version="0.92.3 (2405546, 2018-03-11)" sodipodi:docname="domino-05.svg"><sodipodi:namedview inkscape:window-maximized="1" inkscape:window-y="-11" inkscape:window-x="-11" inkscape:window-height="986" inkscape:window-width="1920" inkscape:snap-grids="true" inkscape:measure-end="72,552" inkscape:measure-start="72,612" showgrid="true" inkscape:current-layer="layer1" inkscape:document-units="mm" inkscape:cy="139.89159" inkscape:cx="396.85039" inkscape:zoom="0.45417822" inkscape:pageshadow="2" inkscape:pageopacity="0.0" borderopacity="1.0" bordercolor="#666666" pagecolor="#ffffff" id="base" inkscape:snap-bbox="true" inkscape:bbox-nodes="true" inkscape:snap-nodes="false" inkscape:snap-others="false">
    <inkscape:grid spacingy="6.35" spacingx="6.35" units="in" id="grid5337" type="xygrid"/>
  </sodipodi:namedview>
  <metadata id="metadata5171">
    <rdf:RDF>
      <cc:Work rdf:about="">
        <dc:format>image/svg+xml</dc:format>
        <dc:type rdf:resource="http://purl.org/dc/dcmitype/StillImage"/>
        <dc:title/>
      </cc:Work>
    </rdf:RDF>
  </metadata>
  <g inkscape:groupmode="layer" inkscape:label="domino-" transform="matrix(1.000000,0.000000,0.000000,1.000000,-133.350000,-17.599998)"><g id="g5367" inkscape:label="05">
      <g transform="translate(82.550002,-114.3)" id="g6972">
        <rect y="150.95" x="50.799999" height="19.049999" width="19.049999" id="rect5317" style="opacity:1;fill:#2ad4ff;fill-opacity:1;stroke:none;stroke-width:6.3499999;stroke-linecap:butt;stroke-linejoin:miter;stroke-miterlimit:47.14606857;stroke-dasharray:none;stroke-dashoffset:0;stroke-opacity:1;paint-order:markers fill stroke"/>
        <g transform="matrix(1.1130439,0,0,1.1130439,-35.433102,-24.237262)" id="text5182" style="font-style:normal;font-variant:normal;font-weight:normal;font-stretch:normal;font-size:12.69999981px;line-height:100%;font-family:'Segoe UI Emoji';-inkscape-font-specification:'Segoe UI Emoji, Normal';font-variant-ligatures:normal;font-variant-caps:normal;font-variant-numeric:normal;font-feature-settings:normal;text-align:start;letter-spacing:0px;word-spacing:0px;writing-mode:lr-tb;text-anchor:start;fill:#aaeeff;fill-opacity:1;stroke:none;stroke-width:0.23771149" aria-label="ðŸ¦">
          <path style="fill:#aaeeff;stroke-width:0.23771149" inkscape:connector-curvature="0" id="path5303" d="m 85.145863,163.35406 8.024317,7.9499 H 88.792152 L 87.899183,170.411 h -2.244824 l -0.341064,0.59531 q 0.235644,0.12402 0.378271,0.27905 0.142627,0.15503 0.223243,0.34107 0.08061,0.18603 0.105419,0.40307 0.02481,0.22324 0.02481,0.46509 0,0.14883 -0.0062,0.29145 0,0.14883 0,0.29766 h -6.238379 v -0.89297 q 0,-0.27905 0.10542,-0.5209 0.10542,-0.24184 0.285254,-0.42168 0.179834,-0.17983 0.42168,-0.28525 0.241845,-0.10542 0.520898,-0.10542 h 0.440283 l 0.303858,-0.5333 q -0.651123,-0.14263 -1.196826,-0.48989 -0.539502,-0.34727 -0.936377,-0.83716 -0.396875,-0.4961 -0.620118,-1.10381 -0.217041,-0.60772 -0.217041,-1.27124 0,-0.40308 0.08682,-0.83716 0.09302,-0.43408 0.279053,-0.78755 0.223242,-0.42788 0.440283,-0.85576 0.217041,-0.43408 0.434082,-0.86196 h -1.240235 q 0,-0.16123 -0.0062,-0.31626 -0.0062,-0.15503 -0.0062,-0.31626 0,-0.19844 0.0124,-0.36587 0.0186,-0.17363 0.06201,-0.32866 0.04961,-0.16123 0.130225,-0.31006 0.08061,-0.14883 0.21084,-0.30386 0.390673,-0.45889 0.79375,-0.89917 0.403076,-0.44648 0.818554,-0.88057 0.334864,-0.35346 0.744141,-0.5457 0.409277,-0.19223 0.905371,-0.19223 h 3.912939 v 0.89296 q 0,0.29766 -0.10542,0.55811 -0.10542,0.26045 -0.303857,0.48369 l -0.930176,1.0356 z m -5.34541,3.31763 q 0,0.40308 0.117822,0.78755 0.124024,0.38447 0.341065,0.71933 h 8.452197 l -4.458643,-4.45244 h -1.575097 q -0.5271,0 -1.054199,0.19844 -0.520899,0.19844 -0.89917,0.57671 -0.446485,0.45268 -0.68833,0.99219 -0.235645,0.5395 -0.235645,1.17822 z m 0,-4.28501 h 1.779736 l -0.706933,1.43247 q 0.824756,-0.5395 1.823144,-0.5395 h 1.556494 v -1.82935 q 0.05581,-0.062 0.167432,-0.17983 0.111621,-0.11782 0.241846,-0.26045 0.136426,-0.14883 0.279053,-0.30386 0.142627,-0.15503 0.260449,-0.29145 0.124023,-0.14263 0.21084,-0.24805 0.08682,-0.11162 0.111621,-0.16743 0.03101,-0.0744 0.04961,-0.14263 0.0186,-0.0744 0.0186,-0.14263 h -3.019971 q -0.260449,0 -0.458887,0.0806 -0.198437,0.0806 -0.365869,0.21704 -0.16123,0.13023 -0.310059,0.29766 -0.148828,0.16743 -0.303857,0.34106 l -1.159619,1.28984 q -0.173633,0.19224 -0.173633,0.44649 z m 8.4646,7.13135 0.892968,0.89297 h 1.785938 l -1.785938,-1.78594 h -8.551416 q 0.434083,0.42168 0.954981,0.65732 0.5271,0.23565 1.134814,0.23565 z m -6.684864,-7.13135 v -2.22622 H 82.6964 q 0.229444,0 0.434082,0.0868 0.204639,0.0868 0.353467,0.24185 0.155029,0.14883 0.241846,0.35347 0.08682,0.19843 0.08682,0.42788 0,0.23564 -0.08682,0.44028 -0.08682,0.19844 -0.241846,0.35347 -0.148828,0.14883 -0.353467,0.23564 -0.204638,0.0868 -0.434082,0.0868 z m -0.892968,9.80405 h 4.458642 q 0,-0.17983 -0.136426,-0.31626 -0.130224,-0.13022 -0.310058,-0.13022 h -0.837158 l 1.023193,-1.77974 h -0.514697 l -1.023194,1.77974 h -0.74414 l 1.023193,-1.77974 h -0.514697 l -1.023193,1.77974 h -0.954981 q -0.179834,0 -0.31626,0.13022 -0.130224,0.13643 -0.130224,0.31626 z m 1.339453,-11.1435 v 0.44648 q 0,0.18604 0.130224,0.31626 0.130225,0.13022 0.31626,0.13022 0.186035,0 0.31626,-0.13022 0.130225,-0.13022 0.130225,-0.31626 v -0.44648 q 0,-0.17984 -0.136426,-0.31006 -0.130225,-0.13023 -0.310059,-0.13023 -0.179834,0 -0.31626,0.13023 -0.130224,0.13022 -0.130224,0.31006 z"/>
        </g>
      </g>
      <g id="g4947" transform="translate(107.95,-107.94999)">
        <rect style="opacity:1;fill:#ffaaaa;fill-opacity:1;stroke:none;stroke-width:6.3499999;stroke-linecap:butt;stroke-linejoin:miter;stroke-miterlimit:47.14606857;stroke-dasharray:none;stroke-dashoffset:0;stroke-opacity:1;paint-order:markers fill stroke" id="rect4943" width="19.049999" height="19.049999" x="25.400002" y="125.54999"/>
        <path inkscape:connector-curvature="0" id="path4945" style="font-style:normal;font-variant:normal;font-weight:normal;font-stretch:normal;font-size:medium;line-height:100%;font-family:'Segoe UI Emoji';-inkscape-font-specification:'Segoe UI Emoji, Normal';font-variant-ligatures:normal;font-variant-caps:normal;font-variant-numeric:normal;font-feature-settings:normal;text-align:start;letter-spacing:0px;word-spacing:0px;writing-mode:lr-tb;text-anchor:start;fill:#ffd5d5;fill-opacity:1;stroke:none;stroke-width:0.26458332" d="m 36.167389,127.13755 h 0.248476 q 0.890391,0 1.71175,0.23467 0.821349,0.22776 1.539184,0.6488 0.717824,0.42104 1.30451,1.00772 0.586685,0.58669 1.007717,1.30451 0.421031,0.71783 0.648804,1.53918 0.234675,0.82136 0.234675,1.71174 v 1.49087 q 0,1.09745 -0.282992,2.11207 -0.282991,1.00771 -0.800646,1.89119 -0.517666,0.88348 -1.242402,1.60822 -0.724725,0.72472 -1.608204,1.24239 -0.883478,0.51765 -1.898096,0.80064 -1.014617,0.283 -2.105167,0.283 -1.097439,0 -2.112067,-0.283 -1.014618,-0.28299 -1.898096,-0.80064 -0.876578,-0.51767 -1.601303,-1.24239 -0.724725,-0.72474 -1.242391,-1.60132 -0.517665,-0.88347 -0.800657,-1.89809 -0.282991,-1.01462 -0.282991,-2.11207 v -6.94359 q 0.172555,0 0.331308,0 0.158754,-0.007 0.317496,-0.007 0.289893,0 0.559082,0.0207 0.269179,0.0207 0.524567,0.0966 0.255376,0.069 0.496951,0.21397 0.248476,0.14494 0.496963,0.38653 0.352012,-0.34511 0.800646,-0.52457 0.448646,-0.18637 0.938697,-0.18637 h 0.993915 v 1.2424 q 0.27609,-0.51766 0.669507,-0.93179 0.400328,-0.41413 0.876578,-0.70402 0.483161,-0.2899 1.035331,-0.44175 0.55217,-0.15874 1.138855,-0.15874 z m -6.205053,3.47179 v 0.17946 q 0.289893,-0.32441 0.669507,-0.49697 0.386527,-0.17945 0.82136,-0.17945 v -0.98702 q -0.310595,0 -0.579785,0.11734 -0.269178,0.11734 -0.476249,0.31751 -0.200158,0.20016 -0.317496,0.46935 -0.117337,0.26918 -0.117337,0.57978 z m -1.980928,-1.48398 v 0.98702 q 0.427943,0 0.814458,0.17945 0.386527,0.17256 0.669507,0.49697 v -0.17946 q 0,-0.3106 -0.117337,-0.57978 -0.117337,-0.26919 -0.317495,-0.46935 -0.200159,-0.20017 -0.469349,-0.31751 -0.269178,-0.11734 -0.579784,-0.11734 z m 0,1.48398 v 3.96875 h 3.471795 v -3.96875 q -0.310595,0 -0.579785,0.11734 -0.269178,0.11734 -0.476249,0.3244 -0.200158,0.20015 -0.317496,0.46934 -0.117337,0.26919 -0.117337,0.57979 v 0.76614 q 0,0.0966 -0.08281,0.16565 -0.07591,0.0621 -0.165654,0.0621 -0.103513,0 -0.165655,-0.0621 -0.06211,-0.0621 -0.07591,-0.15875 -0.0207,-0.12424 -0.0207,-0.28299 0,-0.12424 0.0067,-0.24848 0.0067,-0.13114 0.0067,-0.24157 0,-0.3106 -0.117338,-0.57979 -0.117337,-0.26919 -0.317495,-0.46934 -0.200159,-0.20706 -0.469349,-0.3244 -0.269178,-0.11734 -0.579784,-0.11734 z m 1.380441,8.62082 2.408861,-2.43647 q -0.317507,-0.57288 -0.317507,-1.22169 h -3.451082 q 0.06901,0.99392 0.40723,1.93261 0.345099,0.93179 0.952498,1.72555 z m 4.569235,2.71945 v -3.89973 q -0.414131,0 -0.793745,-0.13113 -0.379626,-0.13115 -0.710924,-0.37273 l -2.408861,2.44338 q 0.828261,0.80064 1.794561,1.2976 0.973212,0.50386 2.118969,0.66261 z m 0,-4.88674 q 0.310606,0 0.579784,-0.11734 0.26919,-0.11734 0.469349,-0.31749 0.20707,-0.20707 0.324407,-0.47625 0.117337,-0.26919 0.117337,-0.57979 v -0.069 q -0.476249,-0.0828 -0.917994,-0.26919 -0.434833,-0.19325 -0.821359,-0.46934 -0.379615,-0.283 -0.697122,-0.64191 -0.310595,-0.35891 -0.538368,-0.78684 v 2.2363 q 0,0.3106 0.117337,0.57979 0.117337,0.26918 0.317496,0.47625 0.20017,0.20016 0.469348,0.31749 0.26919,0.11734 0.579785,0.11734 z m 7.937505,-1.98783 v -1.49087 q 0,-0.75234 -0.193258,-1.44946 -0.193268,-0.69711 -0.552181,-1.29761 -0.352011,-0.60738 -0.855864,-1.10434 -0.496963,-0.50386 -1.104351,-0.85587 -0.600487,-0.35891 -1.297608,-0.55217 -0.697122,-0.19327 -1.449462,-0.19327 h -0.248476 q -0.669507,0 -1.256192,0.25539 -0.586686,0.24847 -1.028431,0.69022 -0.434832,0.43483 -0.690209,1.02152 -0.255388,0.58668 -0.255388,1.25619 0,0.55908 0.179456,1.06983 0.179467,0.50387 0.503864,0.9249 0.331308,0.41413 0.779943,0.71092 0.455547,0.2968 0.993915,0.42794 0.310595,-0.68331 0.731637,-1.29071 0.427932,-0.61429 0.945598,-1.15266 0.09661,-0.0966 0.186356,-0.19326 0.09661,-0.10351 0.200159,-0.18637 0.144952,-0.12423 0.33821,-0.12423 0.200158,0 0.34511,0.14495 0.151841,0.14494 0.151841,0.35201 0,0.11734 -0.04831,0.20016 -0.04141,0.0828 -0.117337,0.16565 -0.09661,0.0966 -0.193269,0.19326 -0.09661,0.0897 -0.193257,0.18636 -0.400329,0.41413 -0.731626,0.89039 -0.331309,0.46935 -0.593598,0.987 0,0.15875 0.0067,0.31751 0.0067,0.15874 0.0067,0.31749 0,0.20707 -0.0207,0.39343 1.23549,-0.36581 2.519297,-0.36581 0.207071,0 0.352011,0.14494 0.144952,0.14494 0.144952,0.35201 0,0.20016 -0.151853,0.35201 -0.14494,0.14494 -0.34511,0.14494 -0.738527,0 -1.463263,0.13805 -0.724725,0.13114 -1.414946,0.40723 -0.04831,0.0759 -0.103513,0.15184 -0.04831,0.0759 -0.110414,0.14495 0.110414,0.069 0.28298,0.19326 0.172555,0.12424 0.365824,0.28299 0.193258,0.15876 0.386516,0.33821 0.193258,0.17946 0.352011,0.35892 0.158754,0.17945 0.255388,0.35201 0.09661,0.16564 0.09661,0.29679 0,0.20706 -0.14494,0.35201 -0.144952,0.14494 -0.345111,0.14494 -0.138039,0 -0.227773,-0.0483 -0.08971,-0.0552 -0.179456,-0.15874 -0.06901,-0.0759 -0.131139,-0.16566 -0.06211,-0.0897 -0.13115,-0.16565 -0.303694,-0.35201 -0.662606,-0.635 -0.352011,-0.28299 -0.766142,-0.49005 l -0.06211,0.0276 v 4.17581 q 0.959399,0 1.842878,-0.24847 0.89039,-0.24848 1.663433,-0.70402 0.773042,-0.44865 1.401133,-1.07674 0.635002,-0.635 1.083648,-1.40805 0.455547,-0.77304 0.704022,-1.65652 0.248476,-0.89038 0.248476,-1.84979 z m -6.943591,-5.94968 q 0.20017,0 0.345111,0.14496 0.151852,0.14494 0.151852,0.34511 0,0.20706 -0.144951,0.35201 -0.144941,0.14494 -0.352012,0.14494 -0.207059,0 -0.352011,-0.14494 -0.14494,-0.14495 -0.14494,-0.35201 0,-0.20017 0.14494,-0.34511 0.151853,-0.14496 0.352011,-0.14496 z m 1.980929,0 q 0.200159,0 0.345111,0.14496 0.151841,0.14494 0.151841,0.34511 0,0.20706 -0.144941,0.35201 -0.144951,0.14494 -0.352011,0.14494 -0.20017,0 -0.34511,-0.14494 -0.144952,-0.15185 -0.144952,-0.35201 0,-0.20017 0.144952,-0.34511 0.14494,-0.14496 0.34511,-0.14496 z m -1.980929,1.98093 q 0.207071,0 0.352012,0.14494 0.144951,0.14496 0.144951,0.35202 0,0.20707 -0.144951,0.35201 -0.144941,0.14495 -0.352012,0.14495 -0.207059,0 -0.352011,-0.14495 -0.14494,-0.14494 -0.14494,-0.35201 0,-0.20706 0.14494,-0.35202 0.144952,-0.14494 0.352011,-0.14494 z"/>
      </g>
    </g>
    </g></svg>
