<?xml version='1.0' encoding='UTF-8'?>
<!-- Created with Inkscape (http://www.inkscape.org/) and export_objects.py -->
<svg xmlns:cc="http://creativecommons.org/ns#" xmlns:dc="http://purl.org/dc/elements/1.1/" xmlns:inkscape="http://www.inkscape.org/namespaces/inkscape" xmlns:rdf="http://www.w3.org/1999/02/22-rdf-syntax-ns#" xmlns:sodipodi="http://sodipodi.sourceforge.net/DTD/sodipodi-0.dtd" xmlns:xlink="http://www.w3.org/1999/xlink" xmlns="http://www.w3.org/2000/svg" version="1.1" id="svg5174" viewBox="0 0 19.05 38.1" height="38.1mm" width="19.05mm" inkscape:version="0.92.3 (2405546, 2018-03-11)" sodipodi:docname="domino-16.svg"><sodipodi:namedview inkscape:window-maximized="1" inkscape:window-y="-11" inkscape:window-x="-11" inkscape:window-height="986" inkscape:window-width="1920" inkscape:snap-grids="true" inkscape:measure-end="72,552" inkscape:measure-start="72,612" showgrid="true" inkscape:current-layer="layer1" inkscape:document-units="mm" inkscape:cy="139.89159" inkscape:cx="396.85039" inkscape:zoom="0.45417822" inkscape:pageshadow="2" inkscape:pageopacity="0.0" borderopacity="1.0" bordercolor="#666666" pagecolor="#ffffff" id="base" inkscape:snap-bbox="true" inkscape:bbox-nodes="true" inkscape:snap-nodes="false" inkscape:snap-others="false">
    <inkscape:grid spacingy="6.35" spacingx="6.35" units="in" id="grid5337" type="xygrid"/>
  </sodipodi:namedview>
  <metadata id="metadata5171">
    <rdf:RDF>
      <cc:Work rdf:about="">
        <dc:format>image/svg+xml</dc:format>
        <dc:type rdf:resource="http://purl.org/dc/dcmitype/StillImage"/>
        <dc:title/>
      </cc:Work>
    </rdf:RDF>
  </metadata>
  <g inkscape:groupmode="layer" inkscape:label="domino-" transform="matrix(1.000000,0.000000,0.000000,1.000000,-69.850000,-119.200001)"><g id="g5456" inkscape:label="16">
      <g id="g5063" transform="translate(-6.3499886,-6.3499878)">
        <rect y="125.54999" x="76.199989" height="19.049999" width="19.049999" id="rect5059" style="opacity:1;fill:#ff7f2a;fill-opacity:1;stroke:none;stroke-width:6.3499999;stroke-linecap:butt;stroke-linejoin:miter;stroke-miterlimit:47.14606857;stroke-dasharray:none;stroke-dashoffset:0;stroke-opacity:1;paint-order:markers fill stroke"/>
        <path inkscape:connector-curvature="0" id="path5061" style="font-style:normal;font-variant:normal;font-weight:normal;font-stretch:normal;font-size:medium;line-height:100%;font-family:'Segoe UI Emoji';-inkscape-font-specification:'Segoe UI Emoji, Normal';font-variant-ligatures:normal;font-variant-caps:normal;font-variant-numeric:normal;font-feature-settings:normal;text-align:start;letter-spacing:0px;word-spacing:0px;writing-mode:lr-tb;text-anchor:start;fill:#ffb380;fill-opacity:1;stroke:none;stroke-width:0.26458332" d="m 91.678117,132.5971 v 4.4657 q 0,0.82135 -0.213972,1.58059 -0.21396,0.75924 -0.600486,1.42186 -0.386516,0.66261 -0.931795,1.20098 -0.545269,0.54527 -1.207874,0.93179 -0.662606,0.38652 -1.421846,0.60049 -0.75924,0.21397 -1.580598,0.21397 -0.821359,0 -1.580599,-0.21397 -0.75924,-0.21397 -1.421845,-0.60049 -0.662606,-0.38652 -1.207886,-0.93179 -0.538367,-0.53837 -0.924883,-1.20098 -0.386526,-0.66262 -0.600486,-1.42186 -0.213971,-0.75924 -0.213971,-1.58059 0,-0.69022 0.138039,-1.36663 0.138051,-0.68331 0.400328,-1.31831 0.26919,-0.63501 0.648804,-1.20789 0.386526,-0.57977 0.876577,-1.06983 h -0.572883 v -1.98782 q 0,-0.28989 0.08281,-0.57288 0.08971,-0.28299 0.248475,-0.52457 0.158754,-0.24157 0.379615,-0.42793 0.220872,-0.19327 0.496962,-0.30371 0.255377,-0.10351 0.48315,-0.12423 0.234674,-0.0276 0.476249,-0.0276 h 0.310594 v -0.99392 h 0.600498 q 0.352011,0 0.69711,0.0207 0.34511,0.0138 0.69022,0.0828 0.724724,0.13805 1.359726,0.49006 0.641903,0.35201 1.145767,0.86276 0.510753,0.50387 0.862764,1.14577 0.352011,0.6419 0.496962,1.35973 0.06901,0.3244 0.08281,0.6557 0.0138,0.32441 0.0138,0.65571 v 0.3313 q 0.393427,-0.0897 0.779954,-0.11733 0.386515,-0.0276 0.779942,-0.0276 z m -0.993914,4.52782 v -3.54082 q -0.600487,0 -1.083636,0.26919 -0.48315,0.26228 -0.876577,0.69712 l -0.0207,0.0276 v -2.47788 q 0,-0.22087 -0.0276,-0.44174 -0.0276,-0.22086 -0.07591,-0.44173 -0.144951,-0.67642 -0.510764,-1.24239 -0.365813,-0.56598 -0.883478,-0.97321 -0.517665,-0.41413 -1.152656,-0.64191 -0.635002,-0.22777 -1.318321,-0.22777 v 0.069 q 0,0.55218 -0.117337,1.12506 -0.117337,0.56598 -0.34511,1.10434 -0.220861,0.53837 -0.538368,1.02843 -0.317495,0.48315 -0.710922,0.86968 -0.158754,0.15874 -0.324397,0.31059 -0.158753,0.14494 -0.310605,0.3106 -0.365813,0.41413 -0.669507,0.88348 -0.296793,0.46934 -0.510764,0.98701 -0.21396,0.51076 -0.331297,1.05603 -0.110414,0.53837 -0.110414,1.09744 0,1.23549 0.496951,2.27772 0.496963,1.03533 1.483965,1.78076 v -1.49087 q 0,-0.42103 0.110413,-0.72472 0.110414,-0.3037 0.276091,-0.54528 0.165654,-0.24848 0.358911,-0.46244 0.193258,-0.22087 0.358912,-0.46245 0.165654,-0.24847 0.276091,-0.55218 0.110413,-0.30369 0.110413,-0.72472 0.614289,0 1.152656,0.23467 0.54528,0.23468 0.945597,0.64191 0.407229,0.40032 0.641903,0.94559 0.234674,0.53837 0.234674,1.15267 0.317506,-0.25539 0.704022,-0.37272 0.386526,-0.12424 0.786854,-0.12424 v 2.48478 q 0.455535,-0.3382 0.821359,-0.77994 0.365813,-0.43483 0.621189,-0.9387 0.262289,-0.51077 0.400328,-1.06294 0.13804,-0.55216 0.13804,-1.12505 z m -4.962657,2.41576 q -0.310595,0 -0.579784,0.11734 -0.269179,0.11734 -0.469348,0.3244 -0.200159,0.20016 -0.317496,0.46935 -0.117337,0.26919 -0.117337,0.57978 v 0.75924 q 0.724725,0.22778 1.490866,0.22778 0.76614,0 1.483964,-0.22778 v -1.2562 l -1.490865,0.49696 z m -3.471792,-9.42836 v 0.9939 q 0.20707,0 0.386526,-0.0759 0.179456,-0.0828 0.310595,-0.21396 0.138039,-0.13805 0.21396,-0.3175 0.08281,-0.17946 0.08281,-0.38652 v -0.98701 h -0.103513 q -0.179456,0 -0.34511,0.0897 -0.158742,0.0897 -0.282991,0.23467 -0.117337,0.13804 -0.193258,0.3175 -0.06901,0.17255 -0.06901,0.34511 z"/>
      </g>
      <g transform="translate(-31.749991,12.700012)" id="g5093">
        <rect y="125.54999" x="101.59999" height="19.049999" width="19.049999" id="rect5089" style="opacity:1;fill:#ffdd55;fill-opacity:1;stroke:none;stroke-width:6.3499999;stroke-linecap:butt;stroke-linejoin:miter;stroke-miterlimit:47.14606857;stroke-dasharray:none;stroke-dashoffset:0;stroke-opacity:1;paint-order:markers fill stroke"/>
        <path d="m 118.10501,137.03159 v 0.99218 q 0,0.82567 -0.31916,1.55421 -0.31224,0.72159 -0.85343,1.26278 -0.54119,0.54119 -1.26972,0.85342 -0.72159,0.31917 -1.54725,0.31917 h -1.58196 q -0.15958,0.45099 -0.54812,0.72159 -0.38162,0.27754 -0.86037,0.27754 -0.2359,0 -0.45792,-0.0763 -0.2151,-0.0694 -0.40243,-0.20122 -0.18734,-0.13182 -0.32611,-0.31916 -0.13876,-0.18039 -0.22203,-0.40243 h -1.58194 q -0.82567,0 -1.5542,-0.31916 -0.7216,-0.31224 -1.26279,-0.85343 -0.54119,-0.54119 -0.86035,-1.26278 -0.31224,-0.72853 -0.31224,-1.55419 v -0.99219 h 2.53945 q -0.27059,-0.0832 -0.54813,-0.15265 -0.2706,-0.0694 -0.54813,-0.1457 0.13183,-0.47875 0.24978,-0.95056 0.12489,-0.47181 0.34692,-0.92281 -0.4163,-0.27059 -0.76322,-0.61751 -0.33999,-0.35386 -0.69384,-0.70772 0.35385,-0.34692 0.69384,-0.69384 0.34692,-0.35385 0.76322,-0.62444 -0.22203,-0.451 -0.34692,-0.92281 -0.11795,-0.47875 -0.24978,-0.9575 0.47875,-0.12489 0.95056,-0.24978 0.47181,-0.13183 0.97137,-0.16652 0.0347,-0.49957 0.15958,-0.97138 0.13183,-0.47181 0.25672,-0.95056 0.47875,0.12489 0.95056,0.24979 0.47874,0.12489 0.92281,0.34691 0.27753,-0.4163 0.62444,-0.75627 0.34692,-0.34692 0.70078,-0.70078 0.35386,0.35386 0.70078,0.70078 0.34692,0.33997 0.62446,0.75627 0.45099,-0.22202 0.9228,-0.34691 0.47181,-0.1249 0.95055,-0.24979 0.12489,0.47875 0.25673,0.95056 0.13183,0.47181 0.16651,0.97138 0.49957,0.0347 0.97138,0.16652 0.47181,0.12489 0.95056,0.24978 -0.12489,0.47875 -0.25672,0.9575 -0.1249,0.47181 -0.34692,0.92281 0.4163,0.27059 0.75628,0.61751 0.34692,0.34692 0.70077,0.70077 -0.34692,0.35386 -0.69383,0.70772 -0.34692,0.34692 -0.76322,0.61751 0.22202,0.451 0.34692,0.92281 0.12489,0.47181 0.25672,0.95056 -0.27754,0.0763 -0.55507,0.15263 -0.2706,0.0694 -0.54814,0.14572 z m -6.98001,1.49175 q 0.32611,-0.32611 0.56895,-0.71465 0.24285,-0.38855 0.35386,-0.83954 0.3261,0.33303 0.72853,0.55507 0.40242,0.21509 0.84647,0.33304 0.0624,-0.24285 0.0971,-0.48569 0.0347,-0.24285 0.0347,-0.48569 0,-0.42324 -0.11795,-0.83954 0.20121,0.0624 0.4163,0.0902 0.21509,0.0277 0.43018,0.0277 0.24284,0 0.48568,-0.0347 0.24285,-0.0347 0.47875,-0.0971 -0.12489,-0.45794 -0.33997,-0.84648 -0.21509,-0.39549 -0.54814,-0.72854 0.451,-0.11099 0.83954,-0.3469 0.38855,-0.24286 0.71466,-0.57589 -0.32611,-0.31918 -0.71466,-0.56202 -0.38854,-0.24284 -0.83954,-0.35386 0.33305,-0.31916 0.54814,-0.72158 0.22202,-0.40937 0.33997,-0.85342 -0.24284,-0.0624 -0.48568,-0.0971 -0.24284,-0.0347 -0.49262,-0.0347 -0.20816,0 -0.42324,0.0277 -0.20816,0.0277 -0.40937,0.0832 0.0624,-0.20122 0.0902,-0.40937 0.0277,-0.21509 0.0277,-0.43017 0,-0.24286 -0.0347,-0.4857 -0.0347,-0.24284 -0.0971,-0.47874 -0.44405,0.11795 -0.85341,0.33998 -0.40243,0.21509 -0.72159,0.54813 -0.11796,-0.45099 -0.3608,-0.83954 -0.2359,-0.38855 -0.56201,-0.71466 -0.3261,0.32611 -0.56894,0.71466 -0.23591,0.38855 -0.34692,0.83954 -0.31917,-0.33304 -0.72854,-0.54813 -0.40242,-0.22203 -0.84648,-0.33998 -0.0624,0.24284 -0.10405,0.48568 -0.0347,0.24285 -0.0347,0.49263 0,0.40937 0.11795,0.82567 -0.20122,-0.0555 -0.4163,-0.0832 -0.20816,-0.0277 -0.41631,-0.0277 -0.24284,0 -0.49263,0.0347 -0.24284,0.0347 -0.47875,0.0971 0.11796,0.44405 0.33305,0.85342 0.22203,0.40242 0.55507,0.72158 -0.45099,0.111 -0.83955,0.35386 -0.38854,0.23591 -0.72159,0.56202 0.32611,0.32609 0.71466,0.56894 0.39549,0.24284 0.84648,0.35385 -0.33304,0.31918 -0.55507,0.72854 -0.21509,0.40242 -0.33305,0.84648 0.23591,0.0624 0.47181,0.0971 0.24285,0.0347 0.4857,0.0347 0.21508,0 0.42324,-0.0277 0.21508,-0.0277 0.42324,-0.0902 -0.11795,0.4163 -0.11795,0.83261 0,0.24977 0.0347,0.49262 0.0416,0.24284 0.10405,0.48569 0.44406,-0.11795 0.84648,-0.33304 0.40243,-0.22204 0.72854,-0.55507 0.11099,0.45099 0.34692,0.83954 0.24284,0.38854 0.56894,0.71465 z m 2.49781,-4.98869 q 0,0.52037 -0.2012,0.97831 -0.19428,0.451 -0.53426,0.79097 -0.33304,0.33305 -0.79097,0.53425 -0.451,0.19429 -0.97138,0.19429 -0.52038,0 -0.97137,-0.19429 -0.451,-0.2012 -0.79098,-0.54119 -0.33997,-0.33997 -0.53425,-0.79097 -0.19427,-0.45793 -0.19427,-0.97137 0,-0.51344 0.19427,-0.96444 0.19428,-0.45792 0.53425,-0.79097 0.33998,-0.33998 0.79098,-0.53426 0.45794,-0.2012 0.97137,-0.2012 0.51345,0 0.96444,0.19427 0.45793,0.19427 0.79791,0.53425 0.33998,0.33999 0.53426,0.79097 0.2012,0.451 0.2012,0.97138 z m -2.49781,1.99825 q 0.4163,0 0.7771,-0.15264 0.36774,-0.15959 0.63833,-0.43019 0.2706,-0.27059 0.42324,-0.63138 0.15959,-0.36773 0.15959,-0.78404 0,-0.40936 -0.15959,-0.77016 -0.15957,-0.36774 -0.43018,-0.63833 -0.2706,-0.2706 -0.63833,-0.42324 -0.36079,-0.15959 -0.77016,-0.15959 -0.40936,0 -0.7771,0.15959 -0.36079,0.15264 -0.63139,0.42324 -0.27059,0.27059 -0.43018,0.63833 -0.15264,0.3608 -0.15264,0.77016 0,0.41631 0.15264,0.78404 0.15959,0.36079 0.43018,0.63138 0.2706,0.2706 0.63139,0.43019 0.3608,0.15264 0.7771,0.15264 z m 2.99045,5.48826 q 0.62445,0 1.16564,-0.23591 0.54814,-0.2359 0.95055,-0.64527 0.40937,-0.40243 0.64527,-0.94362 0.23591,-0.54813 0.23591,-1.17259 h -1.49869 q -0.33304,0 -0.6522,0.0971 -0.31917,0.0902 -0.60364,0.25673 l -2.23416,1.34604 v 1.29748 z m -3.98958,0 v -1.29748 l -2.23415,-1.34605 q -0.28447,-0.17346 -0.60364,-0.26365 -0.31916,-0.0902 -0.65221,-0.0902 h -1.49175 q 0,0.61751 0.22897,1.16565 0.2359,0.54813 0.63833,0.95056 0.40937,0.40936 0.95056,0.64527 0.54813,0.2359 1.17259,0.2359 z m 1.4987,-2.29661 q -0.11795,0.13183 -0.24979,0.25673 -0.12489,0.12489 -0.24978,0.24978 -0.12489,-0.12489 -0.25671,-0.24978 -0.12489,-0.1249 -0.24285,-0.25673 v 2.78923 q 0,0.20816 0.1457,0.35386 0.14572,0.14571 0.35386,0.14571 0.20816,0 0.35386,-0.14571 0.14571,-0.1457 0.14571,-0.35386 z" style="font-style:normal;font-variant:normal;font-weight:normal;font-stretch:normal;font-size:medium;line-height:100%;font-family:'Segoe UI Emoji';-inkscape-font-specification:'Segoe UI Emoji, Normal';font-variant-ligatures:normal;font-variant-caps:normal;font-variant-numeric:normal;font-feature-settings:normal;text-align:start;letter-spacing:0px;word-spacing:0px;writing-mode:lr-tb;text-anchor:start;fill:#d4aa00;fill-opacity:1;stroke:none;stroke-width:0.26458332" id="path5091" inkscape:connector-curvature="0"/>
      </g>
    </g>
    </g></svg>
