<?xml version='1.0' encoding='UTF-8'?>
<!-- Created with Inkscape (http://www.inkscape.org/) and export_objects.py -->
<svg xmlns:cc="http://creativecommons.org/ns#" xmlns:dc="http://purl.org/dc/elements/1.1/" xmlns:inkscape="http://www.inkscape.org/namespaces/inkscape" xmlns:rdf="http://www.w3.org/1999/02/22-rdf-syntax-ns#" xmlns:sodipodi="http://sodipodi.sourceforge.net/DTD/sodipodi-0.dtd" xmlns:xlink="http://www.w3.org/1999/xlink" xmlns="http://www.w3.org/2000/svg" version="1.1" id="svg5174" viewBox="0 0 19.0499997354 38.0999973542" height="38.0999973542mm" width="19.0499997354mm" inkscape:version="0.92.3 (2405546, 2018-03-11)" sodipodi:docname="domino-21.svg"><sodipodi:namedview inkscape:window-maximized="1" inkscape:window-y="-11" inkscape:window-x="-11" inkscape:window-height="986" inkscape:window-width="1920" inkscape:snap-grids="true" inkscape:measure-end="72,552" inkscape:measure-start="72,612" showgrid="true" inkscape:current-layer="layer1" inkscape:document-units="mm" inkscape:cy="139.89159" inkscape:cx="396.85039" inkscape:zoom="0.45417822" inkscape:pageshadow="2" inkscape:pageopacity="0.0" borderopacity="1.0" bordercolor="#666666" pagecolor="#ffffff" id="base" inkscape:snap-bbox="true" inkscape:bbox-nodes="true" inkscape:snap-nodes="false" inkscape:snap-others="false">
    <inkscape:grid spacingy="6.35" spacingx="6.35" units="in" id="grid5337" type="xygrid"/>
  </sodipodi:namedview>
  <metadata id="metadata5171">
    <rdf:RDF>
      <cc:Work rdf:about="">
        <dc:format>image/svg+xml</dc:format>
        <dc:type rdf:resource="http://purl.org/dc/dcmitype/StillImage"/>
        <dc:title/>
      </cc:Work>
    </rdf:RDF>
  </metadata>
  <g inkscape:groupmode="layer" inkscape:label="domino-" transform="matrix(1.000000,0.000000,0.000000,1.000000,-165.100000,-119.200001)"><g id="g5481" inkscape:label="21">
      <g transform="translate(88.900011,-6.3499878)" id="g5081">
        <rect style="opacity:1;fill:#ff7f2a;fill-opacity:1;stroke:none;stroke-width:6.3499999;stroke-linecap:butt;stroke-linejoin:miter;stroke-miterlimit:47.14606857;stroke-dasharray:none;stroke-dashoffset:0;stroke-opacity:1;paint-order:markers fill stroke" id="rect5077" width="19.049999" height="19.049999" x="76.199989" y="125.54999"/>
        <path d="m 91.678117,132.5971 v 4.4657 q 0,0.82135 -0.213972,1.58059 -0.21396,0.75924 -0.600486,1.42186 -0.386516,0.66261 -0.931795,1.20098 -0.545269,0.54527 -1.207874,0.93179 -0.662606,0.38652 -1.421846,0.60049 -0.75924,0.21397 -1.580598,0.21397 -0.821359,0 -1.580599,-0.21397 -0.75924,-0.21397 -1.421845,-0.60049 -0.662606,-0.38652 -1.207886,-0.93179 -0.538367,-0.53837 -0.924883,-1.20098 -0.386526,-0.66262 -0.600486,-1.42186 -0.213971,-0.75924 -0.213971,-1.58059 0,-0.69022 0.138039,-1.36663 0.138051,-0.68331 0.400328,-1.31831 0.26919,-0.63501 0.648804,-1.20789 0.386526,-0.57977 0.876577,-1.06983 h -0.572883 v -1.98782 q 0,-0.28989 0.08281,-0.57288 0.08971,-0.28299 0.248475,-0.52457 0.158754,-0.24157 0.379615,-0.42793 0.220872,-0.19327 0.496962,-0.30371 0.255377,-0.10351 0.48315,-0.12423 0.234674,-0.0276 0.476249,-0.0276 h 0.310594 v -0.99392 h 0.600498 q 0.352011,0 0.69711,0.0207 0.34511,0.0138 0.69022,0.0828 0.724724,0.13805 1.359726,0.49006 0.641903,0.35201 1.145767,0.86276 0.510753,0.50387 0.862764,1.14577 0.352011,0.6419 0.496962,1.35973 0.06901,0.3244 0.08281,0.6557 0.0138,0.32441 0.0138,0.65571 v 0.3313 q 0.393427,-0.0897 0.779954,-0.11733 0.386515,-0.0276 0.779942,-0.0276 z m -0.993914,4.52782 v -3.54082 q -0.600487,0 -1.083636,0.26919 -0.48315,0.26228 -0.876577,0.69712 l -0.0207,0.0276 v -2.47788 q 0,-0.22087 -0.0276,-0.44174 -0.0276,-0.22086 -0.07591,-0.44173 -0.144951,-0.67642 -0.510764,-1.24239 -0.365813,-0.56598 -0.883478,-0.97321 -0.517665,-0.41413 -1.152656,-0.64191 -0.635002,-0.22777 -1.318321,-0.22777 v 0.069 q 0,0.55218 -0.117337,1.12506 -0.117337,0.56598 -0.34511,1.10434 -0.220861,0.53837 -0.538368,1.02843 -0.317495,0.48315 -0.710922,0.86968 -0.158754,0.15874 -0.324397,0.31059 -0.158753,0.14494 -0.310605,0.3106 -0.365813,0.41413 -0.669507,0.88348 -0.296793,0.46934 -0.510764,0.98701 -0.21396,0.51076 -0.331297,1.05603 -0.110414,0.53837 -0.110414,1.09744 0,1.23549 0.496951,2.27772 0.496963,1.03533 1.483965,1.78076 v -1.49087 q 0,-0.42103 0.110413,-0.72472 0.110414,-0.3037 0.276091,-0.54528 0.165654,-0.24848 0.358911,-0.46244 0.193258,-0.22087 0.358912,-0.46245 0.165654,-0.24847 0.276091,-0.55218 0.110413,-0.30369 0.110413,-0.72472 0.614289,0 1.152656,0.23467 0.54528,0.23468 0.945597,0.64191 0.407229,0.40032 0.641903,0.94559 0.234674,0.53837 0.234674,1.15267 0.317506,-0.25539 0.704022,-0.37272 0.386526,-0.12424 0.786854,-0.12424 v 2.48478 q 0.455535,-0.3382 0.821359,-0.77994 0.365813,-0.43483 0.621189,-0.9387 0.262289,-0.51077 0.400328,-1.06294 0.13804,-0.55216 0.13804,-1.12505 z m -4.962657,2.41576 q -0.310595,0 -0.579784,0.11734 -0.269179,0.11734 -0.469348,0.3244 -0.200159,0.20016 -0.317496,0.46935 -0.117337,0.26919 -0.117337,0.57978 v 0.75924 q 0.724725,0.22778 1.490866,0.22778 0.76614,0 1.483964,-0.22778 v -1.2562 l -1.490865,0.49696 z m -3.471792,-9.42836 v 0.9939 q 0.20707,0 0.386526,-0.0759 0.179456,-0.0828 0.310595,-0.21396 0.138039,-0.13805 0.21396,-0.3175 0.08281,-0.17946 0.08281,-0.38652 v -0.98701 h -0.103513 q -0.179456,0 -0.34511,0.0897 -0.158742,0.0897 -0.282991,0.23467 -0.117337,0.13804 -0.193258,0.3175 -0.06901,0.17255 -0.06901,0.34511 z" style="font-style:normal;font-variant:normal;font-weight:normal;font-stretch:normal;font-size:medium;line-height:100%;font-family:'Segoe UI Emoji';-inkscape-font-specification:'Segoe UI Emoji, Normal';font-variant-ligatures:normal;font-variant-caps:normal;font-variant-numeric:normal;font-feature-settings:normal;text-align:start;letter-spacing:0px;word-spacing:0px;writing-mode:lr-tb;text-anchor:start;fill:#ffb380;fill-opacity:1;stroke:none;stroke-width:0.26458332" id="path5079" inkscape:connector-curvature="0"/>
      </g>
      <g transform="translate(88.900003,-12.7)" id="g5125">
        <rect y="150.95" x="76.199997" height="19.049999" width="19.049999" id="rect5121" style="opacity:1;fill:#2c2ca0;fill-opacity:1;stroke:none;stroke-width:6.3499999;stroke-linecap:butt;stroke-linejoin:miter;stroke-miterlimit:47.14606857;stroke-dasharray:none;stroke-dashoffset:0;stroke-opacity:1;paint-order:markers fill stroke"/>
        <path d="m 85.725006,152.5375 q 1.097106,0 2.10586,0.28717 1.016115,0.2798 1.899695,0.79522 0.883579,0.51542 1.605176,1.24437 0.728946,0.7216 1.244377,1.60518 0.51542,0.88358 0.795215,1.89969 0.287169,1.00876 0.287169,2.10586 0,1.09712 -0.287169,2.11324 -0.279795,1.00875 -0.795215,1.89233 -0.515431,0.88358 -1.244377,1.60518 -0.721597,0.72895 -1.605176,1.24437 -0.88358,0.51543 -1.899695,0.79522 -1.008754,0.28717 -2.10586,0.28717 -1.097119,0 -2.113234,-0.28717 -1.008753,-0.27979 -1.892333,-0.79522 -0.883591,-0.51542 -1.612538,-1.24437 -0.721596,-0.7216 -1.237016,-1.60518 -0.515419,-0.88358 -0.802588,-1.89233 -0.279795,-1.01612 -0.279795,-2.11324 0,-1.0971 0.279795,-2.10586 0.287169,-1.01611 0.802588,-1.89969 0.51542,-0.88358 1.237016,-1.60518 0.728947,-0.72895 1.612538,-1.24437 0.88358,-0.51542 1.892333,-0.79522 1.016115,-0.28717 2.113234,-0.28717 z m 0,14.8147 q 0.949847,0 1.826065,-0.25034 0.883579,-0.24299 1.641985,-0.69214 0.765767,-0.44179 1.391637,-1.06766 0.633231,-0.63324 1.075021,-1.39164 0.449152,-0.76578 0.692138,-1.64199 0.250348,-0.88359 0.250348,-1.83344 0,-1.16337 -0.36816,-2.23839 -0.36816,-1.07502 -1.082383,-1.99542 h -0.662691 q -0.397607,0 -0.677402,-0.11779 -0.272445,-0.11779 -0.500696,-0.29453 -0.220901,-0.17671 -0.412343,-0.38289 -0.191441,-0.20616 -0.412342,-0.38288 -0.220889,-0.17672 -0.500684,-0.29452 -0.279807,-0.11779 -0.670053,-0.11779 h -0.176718 q -0.132536,0 -0.242986,0.0589 -0.110427,0.0515 -0.110427,0.20617 0,0.17672 0.125174,0.22826 0.132548,0.0442 0.287169,0.0442 0.06626,0 0.125174,0 0.06626,-0.007 0.117788,-0.007 0.07362,0 0.139898,0.007 0.07362,0.007 0.132536,0.0368 0.05889,0.0221 0.0957,0.081 0.03681,0.0515 0.03681,0.1399 0,0.10306 -0.04417,0.16199 -0.03681,0.0515 -0.103065,0.081 -0.06626,0.0221 -0.147259,0.0294 -0.07362,0 -0.147271,0 0.147271,0.0294 0.250348,0.11779 0.110426,0.081 0.213539,0.17671 0.103064,0.0883 0.213527,0.16199 0.117788,0.0663 0.287168,0.0663 h 0.265072 q 0.110427,0 0.18408,0.081 0.08098,0.0736 0.08098,0.18408 0,0.17672 -0.117788,0.2209 -0.110427,0.0442 -0.242986,0.0442 h -0.169345 q -0.103065,0 -0.18408,0.081 -0.07362,0.081 -0.07362,0.18408 0,0.11043 -0.05889,0.16199 -0.05889,0.0515 -0.147271,0.081 -0.08834,0.0294 -0.191442,0.0589 -0.103065,0.0221 -0.191442,0.0736 -0.08834,0.0515 -0.147259,0.14725 -0.05889,0.0957 -0.05889,0.27244 0,0.19144 -0.08834,0.30925 -0.08098,0.11779 -0.184069,0.2209 -0.0957,0.0957 -0.176718,0.21353 -0.08098,0.11779 -0.08098,0.30925 v 0.14726 q 0,0.0663 -0.0071,0.13991 -0.0071,0.0663 -0.03681,0.12518 -0.02208,0.0515 -0.08098,0.0883 -0.05153,0.0294 -0.139898,0.0294 -0.147259,0 -0.191441,-0.081 -0.04417,-0.081 -0.07362,-0.17672 -0.02945,-0.10307 -0.07362,-0.18408 -0.04417,-0.0883 -0.191442,-0.0883 h -0.795226 q -0.213539,0 -0.375522,0.16199 -0.154633,0.15462 -0.154633,0.36815 v 0.27981 q 0,0.14726 0.01472,0.28717 0.01472,0.1399 0.06626,0.25033 0.05889,0.11043 0.161994,0.17672 0.110427,0.0663 0.287169,0.0663 0.147259,0 0.191442,-0.081 0.04417,-0.081 0.07362,-0.17672 0.02945,-0.10306 0.07362,-0.18408 0.04417,-0.0883 0.191442,-0.0883 0.14726,0 0.191442,0.0883 0.04417,0.081 0.07362,0.18408 0.02945,0.0957 0.07362,0.17672 0.04417,0.081 0.191441,0.081 0.14726,0 0.191442,0.0883 0.05153,0.081 0.07362,0.18408 0.02208,0.0957 0.06626,0.17671 0.05153,0.081 0.198804,0.081 h 1.58309 q 0.220889,0 0.412331,0.0883 0.191442,0.081 0.331339,0.22826 0.147272,0.1399 0.228263,0.33134 0.08834,0.19144 0.08834,0.41234 0,0.21353 0.154633,0.37552 0.161995,0.15462 0.375522,0.15462 0.213527,0 0.36816,0.15464 0.161983,0.15462 0.161983,0.36815 0,0.34607 -0.147259,0.58906 -0.147259,0.23562 -0.382884,0.47123 l -1.59044,1.59046 q -0.154633,0.15462 -0.279807,0.25771 -0.125174,0.10306 -0.265072,0.16198 -0.132536,0.0589 -0.29453,0.081 -0.161983,0.0294 -0.382884,0.0294 -0.139897,0 -0.250348,-0.0515 -0.110427,-0.0442 -0.110427,-0.21353 0,-0.14727 0.08098,-0.19144 0.08098,-0.0442 0.176718,-0.0736 0.103065,-0.0294 0.184068,-0.0736 0.08834,-0.0442 0.08834,-0.19144 v -1.32537 q 0,-0.22089 -0.154633,-0.37552 -0.154621,-0.15462 -0.375522,-0.15462 -0.176706,0 -0.287157,-0.0663 -0.103065,-0.0663 -0.161995,-0.17672 -0.05153,-0.11043 -0.06626,-0.24299 -0.01472,-0.1399 -0.01472,-0.27243 0,-0.2209 0.01472,-0.40498 0.01472,-0.18408 0.06626,-0.34607 0.05889,-0.16199 0.161995,-0.30925 0.103065,-0.14726 0.287157,-0.29453 -0.338701,0 -0.589049,-0.14726 -0.250348,-0.14726 -0.471237,-0.38288 -0.18408,-0.19881 -0.338713,-0.3019 -0.154633,-0.11042 -0.316616,-0.15462 -0.161994,-0.0515 -0.338713,-0.0589 -0.176718,-0.0147 -0.397607,-0.0147 H 84.13484 q -0.213539,0 -0.368161,-0.15462 -0.154632,-0.16199 -0.154632,-0.37552 0,-0.25771 -0.08098,-0.44179 -0.07362,-0.19144 -0.191442,-0.33871 -0.117788,-0.14726 -0.25771,-0.2798 -0.139897,-0.13253 -0.257709,-0.27979 -0.117789,-0.14727 -0.198804,-0.33135 -0.07362,-0.18408 -0.07362,-0.44179 0,-0.33134 -0.125174,-0.61851 -0.125174,-0.28716 -0.346062,-0.5007 -0.21354,-0.22089 -0.500696,-0.34606 -0.287169,-0.12517 -0.618508,-0.12517 h -0.655329 q -0.714223,0.9204 -1.089745,1.99542 -0.36816,1.07502 -0.36816,2.23839 0,0.94985 0.242986,1.83344 0.250348,0.87621 0.692138,1.64199 0.449151,0.7584 1.075021,1.39163 0.633232,0.62587 1.391637,1.06767 0.765767,0.44915 1.641985,0.69214 0.88358,0.25034 1.833439,0.25034 z m 0,-13.7544 q -0.809962,0 -1.597815,0.18408 -0.780502,0.18408 -1.502087,0.55224 l 0.456513,0.31662 h 1.052936 q 0.154621,0 0.191442,0.0883 0.04417,0.081 0.05889,0.18408 0.02209,0.0957 0.06626,0.17672 0.05153,0.081 0.213527,0.081 0.110427,0 0.198816,-0.0736 0.0957,-0.0736 0.0957,-0.19145 0.02945,-0.13253 0.0957,-0.27243 0.06626,-0.13991 0.161983,-0.25035 0.0957,-0.11779 0.220901,-0.19144 0.132535,-0.0736 0.287168,-0.0736 h 2.650739 q -0.633226,-0.26507 -1.303278,-0.3976 -0.662691,-0.13254 -1.347455,-0.13254 z m 0.795214,1.58308 q -0.147259,0 -0.191442,0.0883 -0.04417,0.081 -0.07362,0.18407 -0.02945,0.0957 -0.07362,0.17672 -0.04417,0.081 -0.191442,0.081 -0.08834,0 -0.176718,-0.007 -0.08098,-0.007 -0.169357,-0.007 -0.07362,0 -0.154621,0.007 -0.07362,0.007 -0.139909,0.0368 -0.06626,0.0294 -0.110427,0.0883 -0.04417,0.0515 -0.04417,0.14727 0,0.0957 0.04417,0.15462 0.04417,0.0515 0.110427,0.081 0.06626,0.0294 0.139909,0.0368 0.08098,0.007 0.154621,0.007 0.08834,0 0.169357,-0.007 0.08834,-0.007 0.176718,-0.007 0.147259,0 0.191442,0.0883 0.04417,0.081 0.07362,0.18408 0.02945,0.0957 0.07362,0.17672 0.04417,0.081 0.191442,0.081 0.18408,0 0.220901,-0.11779 0.04417,-0.11779 0.04417,-0.25772 v -0.15462 q 0,-0.20617 0.132547,-0.35344 0.132536,-0.15462 0.338701,-0.17671 h -0.206165 q -0.147271,0 -0.191442,-0.081 -0.04417,-0.081 -0.07362,-0.17672 -0.02209,-0.10306 -0.07362,-0.18406 -0.04417,-0.0883 -0.191442,-0.0883 z m 0.839409,0.53015 q 0.01472,0.007 0.03681,0.007 z" style="font-style:normal;font-variant:normal;font-weight:normal;font-stretch:normal;font-size:medium;line-height:100%;font-family:'Segoe UI Emoji';-inkscape-font-specification:'Segoe UI Emoji, Normal';font-variant-ligatures:normal;font-variant-caps:normal;font-variant-numeric:normal;font-feature-settings:normal;text-align:start;letter-spacing:0px;word-spacing:0px;writing-mode:lr-tb;text-anchor:start;fill:#afafe9;fill-opacity:1;stroke:none;stroke-width:0.26458332" id="path5123" inkscape:connector-curvature="0"/>
      </g>
    </g>
    </g></svg>
