<?xml version='1.0' encoding='UTF-8'?>
<!-- Created with Inkscape (http://www.inkscape.org/) and export_objects.py -->
<svg xmlns:cc="http://creativecommons.org/ns#" xmlns:dc="http://purl.org/dc/elements/1.1/" xmlns:inkscape="http://www.inkscape.org/namespaces/inkscape" xmlns:rdf="http://www.w3.org/1999/02/22-rdf-syntax-ns#" xmlns:sodipodi="http://sodipodi.sourceforge.net/DTD/sodipodi-0.dtd" xmlns:xlink="http://www.w3.org/1999/xlink" xmlns="http://www.w3.org/2000/svg" version="1.1" id="svg5174" viewBox="0 0 19.0499997354 38.0999973542" height="38.0999973542mm" width="19.0499997354mm" inkscape:version="0.92.3 (2405546, 2018-03-11)" sodipodi:docname="domino-29.svg"><sodipodi:namedview inkscape:window-maximized="1" inkscape:window-y="-11" inkscape:window-x="-11" inkscape:window-height="986" inkscape:window-width="1920" inkscape:snap-grids="true" inkscape:measure-end="72,552" inkscape:measure-start="72,612" showgrid="true" inkscape:current-layer="layer1" inkscape:document-units="mm" inkscape:cy="139.89159" inkscape:cx="396.85039" inkscape:zoom="0.45417822" inkscape:pageshadow="2" inkscape:pageopacity="0.0" borderopacity="1.0" bordercolor="#666666" pagecolor="#ffffff" id="base" inkscape:snap-bbox="true" inkscape:bbox-nodes="true" inkscape:snap-nodes="false" inkscape:snap-others="false">
    <inkscape:grid spacingy="6.35" spacingx="6.35" units="in" id="grid5337" type="xygrid"/>
  </sodipodi:namedview>
  <metadata id="metadata5171">
    <rdf:RDF>
      <cc:Work rdf:about="">
        <dc:format>image/svg+xml</dc:format>
        <dc:type rdf:resource="http://purl.org/dc/dcmitype/StillImage"/>
        <dc:title/>
      </cc:Work>
    </rdf:RDF>
  </metadata>
  <g inkscape:groupmode="layer" inkscape:label="domino-" transform="matrix(1.000000,0.000000,0.000000,1.000000,-133.350000,-220.800001)"><g id="g5547" inkscape:label="29">
      <g transform="translate(6.3500084,95.250013)" id="g5199">
        <rect style="opacity:1;fill:#aad400;fill-opacity:1;stroke:none;stroke-width:6.3499999;stroke-linecap:butt;stroke-linejoin:miter;stroke-miterlimit:47.14606857;stroke-dasharray:none;stroke-dashoffset:0;stroke-opacity:1;paint-order:markers fill stroke" id="rect5195" width="19.049999" height="19.049999" x="126.99999" y="125.54999"/>
        <path d="m 140.75883,133.06483 q 0.92039,0.19145 1.69353,0.67006 0.78049,0.4786 1.3401,1.17073 0.56696,0.69214 0.88358,1.54627 0.31661,0.85413 0.31661,1.79661 v 3.70368 h -3.70368 q -0.90566,0 -1.75243,-0.28715 -0.8394,-0.28717 -1.54626,-0.8615 -0.5817,0.53016 -1.25174,0.94249 -0.67006,0.41234 -1.39901,0.69214 -0.72159,0.2798 -1.49472,0.42706 -0.76578,0.14726 -1.55363,0.14726 h -4.23383 v -4.23382 q 0,-1.16339 0.30189,-2.24577 0.30189,-1.08239 0.85413,-2.02487 0.55224,-0.94249 1.32537,-1.71562 0.77313,-0.77314 1.71562,-1.32537 0.94248,-0.55224 2.01751,-0.85413 1.08239,-0.3019 2.25313,-0.3019 h 1.98806 q 0.14726,-0.14725 0.26507,-0.33134 0.12518,-0.19144 0.20617,-0.3976 0.0883,-0.21354 0.13253,-0.43443 0.0515,-0.2209 0.0515,-0.42707 0,-0.32398 0.12518,-0.61114 0.13253,-0.28716 0.34607,-0.5007 0.22089,-0.22089 0.50806,-0.34606 0.28716,-0.12518 0.61115,-0.12518 0.31661,0 0.60377,0.12518 0.29453,0.12517 0.50806,0.34606 0.2209,0.21354 0.34607,0.5007 0.13254,0.28716 0.13254,0.61114 0,0.52278 -0.11043,1.05294 -0.10306,0.52278 -0.30925,1.02348 -0.20617,0.49333 -0.5007,0.94985 -0.29452,0.44915 -0.67004,0.80995 z m -1.0603,1.48 v -2.61392 l -2.24577,2.24577 v 3.01154 q 0,0.16934 -0.11779,0.28715 -0.11042,0.11043 -0.27979,0.11043 -0.16936,0 -0.28717,-0.11043 -0.11043,-0.11779 -0.11043,-0.28715 v -2.21633 l -1.85551,1.85553 v 3.01154 q 0,0.16198 -0.11779,0.27979 -0.11779,0.11779 -0.27981,0.11779 -0.16198,0 -0.27979,-0.11779 -0.11043,-0.11779 -0.11043,-0.27979 v -2.21633 l -2.50348,2.49612 q -0.11779,0.11779 -0.2798,0.11779 -0.16199,0 -0.27979,-0.11779 -0.11779,-0.11779 -0.11779,-0.27979 0,-0.162 0.11779,-0.27981 l 2.49611,-2.50348 h -2.21632 q -0.16199,0 -0.27979,-0.11043 -0.11779,-0.11779 -0.11779,-0.27979 0,-0.162 0.11779,-0.2798 0.11779,-0.11779 0.27979,-0.11779 h 3.01154 l 1.85552,-1.85552 h -2.21632 q -0.16935,0 -0.28715,-0.11043 -0.11043,-0.11779 -0.11043,-0.28717 0,-0.16934 0.11043,-0.27979 0.11779,-0.11779 0.28715,-0.11779 h 3.01154 l 2.24578,-2.24577 h -2.61394 q -1.02347,0 -1.97332,0.26507 -0.94249,0.26508 -1.76716,0.75104 -0.82468,0.47861 -1.50209,1.15603 -0.67005,0.67004 -1.15603,1.49471 -0.4786,0.82469 -0.74367,1.77454 -0.26508,0.94248 -0.26508,1.96596 v 3.17353 h 3.17353 q 1.02348,0 1.96597,-0.26507 0.94985,-0.26508 1.77452,-0.75105 0.82467,-0.4786 1.49473,-1.14866 0.67741,-0.67741 1.15602,-1.50208 0.48596,-0.82468 0.75105,-1.76716 0.26507,-0.94985 0.26507,-1.97333 z m 4.23382,6.35443 v -2.65076 q 0,-0.79521 -0.27979,-1.51681 -0.27981,-0.72159 -0.78051,-1.28119 -0.49333,-0.56696 -1.17073,-0.93512 -0.67742,-0.36816 -1.47264,-0.46388 0,0.6406 -0.0442,1.26647 -0.0442,0.62587 -0.21353,1.24438 l 0.63323,0.62587 h 2.00278 q 0.11043,0 0.18408,0.081 0.081,0.0736 0.081,0.18406 0,0.11043 -0.081,0.19146 -0.0736,0.0736 -0.18408,0.0736 h -1.47263 l 1.66408,1.66407 q 0.0736,0.0736 0.0736,0.19144 0,0.10307 -0.081,0.18408 -0.0736,0.081 -0.17672,0.081 -0.11043,0 -0.19144,-0.081 l -1.66408,-1.66407 v 1.47999 q 0,0.11043 -0.081,0.19144 -0.0736,0.0736 -0.18408,0.0736 -0.11042,0 -0.19144,-0.0736 -0.0736,-0.081 -0.0736,-0.19144 v -2.01015 l -0.43443,-0.42706 q -0.24298,0.70687 -0.61113,1.35483 -0.3608,0.64059 -0.84677,1.20019 0.59642,0.58169 1.35483,0.89094 0.76576,0.31663 1.5978,0.31663 z m -3.10725,-12.70149 q -0.23563,0 -0.41971,0.13255 -0.17671,0.13253 -0.17671,0.39024 0,0.57433 -0.21353,1.12657 -0.20618,0.54487 -0.5596,0.99403 h 0.0442 q 0.1988,0 0.3387,0.0294 0.1399,0.0294 0.22826,0.11043 0.0883,0.0736 0.12517,0.21352 0.0368,0.13254 0.0368,0.34607 v 0.0294 q 0.50806,-0.59642 0.78051,-1.33274 0.27979,-0.7363 0.27979,-1.51681 0,-0.0883 -0.0368,-0.18408 -0.0368,-0.0957 -0.10306,-0.16935 -0.0589,-0.0736 -0.14727,-0.11779 -0.081,-0.0515 -0.17671,-0.0515 z" style="font-style:normal;font-variant:normal;font-weight:normal;font-stretch:normal;font-size:medium;line-height:100%;font-family:'Segoe UI Emoji';-inkscape-font-specification:'Segoe UI Emoji, Normal';font-variant-ligatures:normal;font-variant-caps:normal;font-variant-numeric:normal;font-feature-settings:normal;text-align:start;letter-spacing:0px;word-spacing:0px;writing-mode:lr-tb;text-anchor:start;fill:#dde9af;fill-opacity:1;stroke:none;stroke-width:0.26458332" id="path5197" inkscape:connector-curvature="0"/>
      </g>
      <g transform="translate(82.550002,88.900001)" id="g5231">
        <rect y="150.95" x="50.799999" height="19.049999" width="19.049999" id="rect5225" style="opacity:1;fill:#2ad4ff;fill-opacity:1;stroke:none;stroke-width:6.3499999;stroke-linecap:butt;stroke-linejoin:miter;stroke-miterlimit:47.14606857;stroke-dasharray:none;stroke-dashoffset:0;stroke-opacity:1;paint-order:markers fill stroke"/>
        <g transform="matrix(1.1130439,0,0,1.1130439,-35.433102,-24.237262)" id="g5229" style="font-style:normal;font-variant:normal;font-weight:normal;font-stretch:normal;font-size:12.69999981px;line-height:100%;font-family:'Segoe UI Emoji';-inkscape-font-specification:'Segoe UI Emoji, Normal';font-variant-ligatures:normal;font-variant-caps:normal;font-variant-numeric:normal;font-feature-settings:normal;text-align:start;letter-spacing:0px;word-spacing:0px;writing-mode:lr-tb;text-anchor:start;fill:#aaeeff;fill-opacity:1;stroke:none;stroke-width:0.23771149" aria-label="ðŸ¦">
          <path style="fill:#aaeeff;stroke-width:0.23771149" inkscape:connector-curvature="0" id="path5227" d="m 85.145863,163.35406 8.024317,7.9499 H 88.792152 L 87.899183,170.411 h -2.244824 l -0.341064,0.59531 q 0.235644,0.12402 0.378271,0.27905 0.142627,0.15503 0.223243,0.34107 0.08061,0.18603 0.105419,0.40307 0.02481,0.22324 0.02481,0.46509 0,0.14883 -0.0062,0.29145 0,0.14883 0,0.29766 h -6.238379 v -0.89297 q 0,-0.27905 0.10542,-0.5209 0.10542,-0.24184 0.285254,-0.42168 0.179834,-0.17983 0.42168,-0.28525 0.241845,-0.10542 0.520898,-0.10542 h 0.440283 l 0.303858,-0.5333 q -0.651123,-0.14263 -1.196826,-0.48989 -0.539502,-0.34727 -0.936377,-0.83716 -0.396875,-0.4961 -0.620118,-1.10381 -0.217041,-0.60772 -0.217041,-1.27124 0,-0.40308 0.08682,-0.83716 0.09302,-0.43408 0.279053,-0.78755 0.223242,-0.42788 0.440283,-0.85576 0.217041,-0.43408 0.434082,-0.86196 h -1.240235 q 0,-0.16123 -0.0062,-0.31626 -0.0062,-0.15503 -0.0062,-0.31626 0,-0.19844 0.0124,-0.36587 0.0186,-0.17363 0.06201,-0.32866 0.04961,-0.16123 0.130225,-0.31006 0.08061,-0.14883 0.21084,-0.30386 0.390673,-0.45889 0.79375,-0.89917 0.403076,-0.44648 0.818554,-0.88057 0.334864,-0.35346 0.744141,-0.5457 0.409277,-0.19223 0.905371,-0.19223 h 3.912939 v 0.89296 q 0,0.29766 -0.10542,0.55811 -0.10542,0.26045 -0.303857,0.48369 l -0.930176,1.0356 z m -5.34541,3.31763 q 0,0.40308 0.117822,0.78755 0.124024,0.38447 0.341065,0.71933 h 8.452197 l -4.458643,-4.45244 h -1.575097 q -0.5271,0 -1.054199,0.19844 -0.520899,0.19844 -0.89917,0.57671 -0.446485,0.45268 -0.68833,0.99219 -0.235645,0.5395 -0.235645,1.17822 z m 0,-4.28501 h 1.779736 l -0.706933,1.43247 q 0.824756,-0.5395 1.823144,-0.5395 h 1.556494 v -1.82935 q 0.05581,-0.062 0.167432,-0.17983 0.111621,-0.11782 0.241846,-0.26045 0.136426,-0.14883 0.279053,-0.30386 0.142627,-0.15503 0.260449,-0.29145 0.124023,-0.14263 0.21084,-0.24805 0.08682,-0.11162 0.111621,-0.16743 0.03101,-0.0744 0.04961,-0.14263 0.0186,-0.0744 0.0186,-0.14263 h -3.019971 q -0.260449,0 -0.458887,0.0806 -0.198437,0.0806 -0.365869,0.21704 -0.16123,0.13023 -0.310059,0.29766 -0.148828,0.16743 -0.303857,0.34106 l -1.159619,1.28984 q -0.173633,0.19224 -0.173633,0.44649 z m 8.4646,7.13135 0.892968,0.89297 h 1.785938 l -1.785938,-1.78594 h -8.551416 q 0.434083,0.42168 0.954981,0.65732 0.5271,0.23565 1.134814,0.23565 z m -6.684864,-7.13135 v -2.22622 H 82.6964 q 0.229444,0 0.434082,0.0868 0.204639,0.0868 0.353467,0.24185 0.155029,0.14883 0.241846,0.35347 0.08682,0.19843 0.08682,0.42788 0,0.23564 -0.08682,0.44028 -0.08682,0.19844 -0.241846,0.35347 -0.148828,0.14883 -0.353467,0.23564 -0.204638,0.0868 -0.434082,0.0868 z m -0.892968,9.80405 h 4.458642 q 0,-0.17983 -0.136426,-0.31626 -0.130224,-0.13022 -0.310058,-0.13022 h -0.837158 l 1.023193,-1.77974 h -0.514697 l -1.023194,1.77974 h -0.74414 l 1.023193,-1.77974 h -0.514697 l -1.023193,1.77974 h -0.954981 q -0.179834,0 -0.31626,0.13022 -0.130224,0.13643 -0.130224,0.31626 z m 1.339453,-11.1435 v 0.44648 q 0,0.18604 0.130224,0.31626 0.130225,0.13022 0.31626,0.13022 0.186035,0 0.31626,-0.13022 0.130225,-0.13022 0.130225,-0.31626 v -0.44648 q 0,-0.17984 -0.136426,-0.31006 -0.130225,-0.13023 -0.310059,-0.13023 -0.179834,0 -0.31626,0.13023 -0.130224,0.13022 -0.130224,0.31006 z"/>
        </g>
      </g>
    </g>
    </g></svg>
