<?xml version='1.0' encoding='UTF-8'?>
<!-- Created with Inkscape (http://www.inkscape.org/) and export_objects.py -->
<svg xmlns:cc="http://creativecommons.org/ns#" xmlns:dc="http://purl.org/dc/elements/1.1/" xmlns:inkscape="http://www.inkscape.org/namespaces/inkscape" xmlns:rdf="http://www.w3.org/1999/02/22-rdf-syntax-ns#" xmlns:sodipodi="http://sodipodi.sourceforge.net/DTD/sodipodi-0.dtd" xmlns:xlink="http://www.w3.org/1999/xlink" xmlns="http://www.w3.org/2000/svg" version="1.1" id="svg5174" viewBox="0 0 19.0499997354 38.0999973542" height="38.0999973542mm" width="19.0499997354mm" inkscape:version="0.92.3 (2405546, 2018-03-11)" sodipodi:docname="domino-30.svg"><sodipodi:namedview inkscape:window-maximized="1" inkscape:window-y="-11" inkscape:window-x="-11" inkscape:window-height="986" inkscape:window-width="1920" inkscape:snap-grids="true" inkscape:measure-end="72,552" inkscape:measure-start="72,612" showgrid="true" inkscape:current-layer="layer1" inkscape:document-units="mm" inkscape:cy="139.89159" inkscape:cx="396.85039" inkscape:zoom="0.45417822" inkscape:pageshadow="2" inkscape:pageopacity="0.0" borderopacity="1.0" bordercolor="#666666" pagecolor="#ffffff" id="base" inkscape:snap-bbox="true" inkscape:bbox-nodes="true" inkscape:snap-nodes="false" inkscape:snap-others="false">
    <inkscape:grid spacingy="6.35" spacingx="6.35" units="in" id="grid5337" type="xygrid"/>
  </sodipodi:namedview>
  <metadata id="metadata5171">
    <rdf:RDF>
      <cc:Work rdf:about="">
        <dc:format>image/svg+xml</dc:format>
        <dc:type rdf:resource="http://purl.org/dc/dcmitype/StillImage"/>
        <dc:title/>
      </cc:Work>
    </rdf:RDF>
  </metadata>
  <g inkscape:groupmode="layer" inkscape:label="domino-" transform="matrix(1.000000,0.000000,0.000000,1.000000,-165.100000,-220.800001)"><g id="g5555" inkscape:label="30">
      <g transform="translate(38.100008,95.250013)" id="g5205">
        <rect style="opacity:1;fill:#aad400;fill-opacity:1;stroke:none;stroke-width:6.3499999;stroke-linecap:butt;stroke-linejoin:miter;stroke-miterlimit:47.14606857;stroke-dasharray:none;stroke-dashoffset:0;stroke-opacity:1;paint-order:markers fill stroke" id="rect5201" width="19.049999" height="19.049999" x="126.99999" y="125.54999"/>
        <path d="m 140.75883,133.06483 q 0.92039,0.19145 1.69353,0.67006 0.78049,0.4786 1.3401,1.17073 0.56696,0.69214 0.88358,1.54627 0.31661,0.85413 0.31661,1.79661 v 3.70368 h -3.70368 q -0.90566,0 -1.75243,-0.28715 -0.8394,-0.28717 -1.54626,-0.8615 -0.5817,0.53016 -1.25174,0.94249 -0.67006,0.41234 -1.39901,0.69214 -0.72159,0.2798 -1.49472,0.42706 -0.76578,0.14726 -1.55363,0.14726 h -4.23383 v -4.23382 q 0,-1.16339 0.30189,-2.24577 0.30189,-1.08239 0.85413,-2.02487 0.55224,-0.94249 1.32537,-1.71562 0.77313,-0.77314 1.71562,-1.32537 0.94248,-0.55224 2.01751,-0.85413 1.08239,-0.3019 2.25313,-0.3019 h 1.98806 q 0.14726,-0.14725 0.26507,-0.33134 0.12518,-0.19144 0.20617,-0.3976 0.0883,-0.21354 0.13253,-0.43443 0.0515,-0.2209 0.0515,-0.42707 0,-0.32398 0.12518,-0.61114 0.13253,-0.28716 0.34607,-0.5007 0.22089,-0.22089 0.50806,-0.34606 0.28716,-0.12518 0.61115,-0.12518 0.31661,0 0.60377,0.12518 0.29453,0.12517 0.50806,0.34606 0.2209,0.21354 0.34607,0.5007 0.13254,0.28716 0.13254,0.61114 0,0.52278 -0.11043,1.05294 -0.10306,0.52278 -0.30925,1.02348 -0.20617,0.49333 -0.5007,0.94985 -0.29452,0.44915 -0.67004,0.80995 z m -1.0603,1.48 v -2.61392 l -2.24577,2.24577 v 3.01154 q 0,0.16934 -0.11779,0.28715 -0.11042,0.11043 -0.27979,0.11043 -0.16936,0 -0.28717,-0.11043 -0.11043,-0.11779 -0.11043,-0.28715 v -2.21633 l -1.85551,1.85553 v 3.01154 q 0,0.16198 -0.11779,0.27979 -0.11779,0.11779 -0.27981,0.11779 -0.16198,0 -0.27979,-0.11779 -0.11043,-0.11779 -0.11043,-0.27979 v -2.21633 l -2.50348,2.49612 q -0.11779,0.11779 -0.2798,0.11779 -0.16199,0 -0.27979,-0.11779 -0.11779,-0.11779 -0.11779,-0.27979 0,-0.162 0.11779,-0.27981 l 2.49611,-2.50348 h -2.21632 q -0.16199,0 -0.27979,-0.11043 -0.11779,-0.11779 -0.11779,-0.27979 0,-0.162 0.11779,-0.2798 0.11779,-0.11779 0.27979,-0.11779 h 3.01154 l 1.85552,-1.85552 h -2.21632 q -0.16935,0 -0.28715,-0.11043 -0.11043,-0.11779 -0.11043,-0.28717 0,-0.16934 0.11043,-0.27979 0.11779,-0.11779 0.28715,-0.11779 h 3.01154 l 2.24578,-2.24577 h -2.61394 q -1.02347,0 -1.97332,0.26507 -0.94249,0.26508 -1.76716,0.75104 -0.82468,0.47861 -1.50209,1.15603 -0.67005,0.67004 -1.15603,1.49471 -0.4786,0.82469 -0.74367,1.77454 -0.26508,0.94248 -0.26508,1.96596 v 3.17353 h 3.17353 q 1.02348,0 1.96597,-0.26507 0.94985,-0.26508 1.77452,-0.75105 0.82467,-0.4786 1.49473,-1.14866 0.67741,-0.67741 1.15602,-1.50208 0.48596,-0.82468 0.75105,-1.76716 0.26507,-0.94985 0.26507,-1.97333 z m 4.23382,6.35443 v -2.65076 q 0,-0.79521 -0.27979,-1.51681 -0.27981,-0.72159 -0.78051,-1.28119 -0.49333,-0.56696 -1.17073,-0.93512 -0.67742,-0.36816 -1.47264,-0.46388 0,0.6406 -0.0442,1.26647 -0.0442,0.62587 -0.21353,1.24438 l 0.63323,0.62587 h 2.00278 q 0.11043,0 0.18408,0.081 0.081,0.0736 0.081,0.18406 0,0.11043 -0.081,0.19146 -0.0736,0.0736 -0.18408,0.0736 h -1.47263 l 1.66408,1.66407 q 0.0736,0.0736 0.0736,0.19144 0,0.10307 -0.081,0.18408 -0.0736,0.081 -0.17672,0.081 -0.11043,0 -0.19144,-0.081 l -1.66408,-1.66407 v 1.47999 q 0,0.11043 -0.081,0.19144 -0.0736,0.0736 -0.18408,0.0736 -0.11042,0 -0.19144,-0.0736 -0.0736,-0.081 -0.0736,-0.19144 v -2.01015 l -0.43443,-0.42706 q -0.24298,0.70687 -0.61113,1.35483 -0.3608,0.64059 -0.84677,1.20019 0.59642,0.58169 1.35483,0.89094 0.76576,0.31663 1.5978,0.31663 z m -3.10725,-12.70149 q -0.23563,0 -0.41971,0.13255 -0.17671,0.13253 -0.17671,0.39024 0,0.57433 -0.21353,1.12657 -0.20618,0.54487 -0.5596,0.99403 h 0.0442 q 0.1988,0 0.3387,0.0294 0.1399,0.0294 0.22826,0.11043 0.0883,0.0736 0.12517,0.21352 0.0368,0.13254 0.0368,0.34607 v 0.0294 q 0.50806,-0.59642 0.78051,-1.33274 0.27979,-0.7363 0.27979,-1.51681 0,-0.0883 -0.0368,-0.18408 -0.0368,-0.0957 -0.10306,-0.16935 -0.0589,-0.0736 -0.14727,-0.11779 -0.081,-0.0515 -0.17671,-0.0515 z" style="font-style:normal;font-variant:normal;font-weight:normal;font-stretch:normal;font-size:medium;line-height:100%;font-family:'Segoe UI Emoji';-inkscape-font-specification:'Segoe UI Emoji, Normal';font-variant-ligatures:normal;font-variant-caps:normal;font-variant-numeric:normal;font-feature-settings:normal;text-align:start;letter-spacing:0px;word-spacing:0px;writing-mode:lr-tb;text-anchor:start;fill:#dde9af;fill-opacity:1;stroke:none;stroke-width:0.26458332" id="path5203" inkscape:connector-curvature="0"/>
      </g>
      <g transform="translate(88.900003,88.900001)" id="g5237">
        <rect y="150.95" x="76.199997" height="19.049999" width="19.049999" id="rect5233" style="opacity:1;fill:#2c2ca0;fill-opacity:1;stroke:none;stroke-width:6.3499999;stroke-linecap:butt;stroke-linejoin:miter;stroke-miterlimit:47.14606857;stroke-dasharray:none;stroke-dashoffset:0;stroke-opacity:1;paint-order:markers fill stroke"/>
        <path d="m 85.725006,152.5375 q 1.097106,0 2.10586,0.28717 1.016115,0.2798 1.899695,0.79522 0.883579,0.51542 1.605176,1.24437 0.728946,0.7216 1.244377,1.60518 0.51542,0.88358 0.795215,1.89969 0.287169,1.00876 0.287169,2.10586 0,1.09712 -0.287169,2.11324 -0.279795,1.00875 -0.795215,1.89233 -0.515431,0.88358 -1.244377,1.60518 -0.721597,0.72895 -1.605176,1.24437 -0.88358,0.51543 -1.899695,0.79522 -1.008754,0.28717 -2.10586,0.28717 -1.097119,0 -2.113234,-0.28717 -1.008753,-0.27979 -1.892333,-0.79522 -0.883591,-0.51542 -1.612538,-1.24437 -0.721596,-0.7216 -1.237016,-1.60518 -0.515419,-0.88358 -0.802588,-1.89233 -0.279795,-1.01612 -0.279795,-2.11324 0,-1.0971 0.279795,-2.10586 0.287169,-1.01611 0.802588,-1.89969 0.51542,-0.88358 1.237016,-1.60518 0.728947,-0.72895 1.612538,-1.24437 0.88358,-0.51542 1.892333,-0.79522 1.016115,-0.28717 2.113234,-0.28717 z m 0,14.8147 q 0.949847,0 1.826065,-0.25034 0.883579,-0.24299 1.641985,-0.69214 0.765767,-0.44179 1.391637,-1.06766 0.633231,-0.63324 1.075021,-1.39164 0.449152,-0.76578 0.692138,-1.64199 0.250348,-0.88359 0.250348,-1.83344 0,-1.16337 -0.36816,-2.23839 -0.36816,-1.07502 -1.082383,-1.99542 h -0.662691 q -0.397607,0 -0.677402,-0.11779 -0.272445,-0.11779 -0.500696,-0.29453 -0.220901,-0.17671 -0.412343,-0.38289 -0.191441,-0.20616 -0.412342,-0.38288 -0.220889,-0.17672 -0.500684,-0.29452 -0.279807,-0.11779 -0.670053,-0.11779 h -0.176718 q -0.132536,0 -0.242986,0.0589 -0.110427,0.0515 -0.110427,0.20617 0,0.17672 0.125174,0.22826 0.132548,0.0442 0.287169,0.0442 0.06626,0 0.125174,0 0.06626,-0.007 0.117788,-0.007 0.07362,0 0.139898,0.007 0.07362,0.007 0.132536,0.0368 0.05889,0.0221 0.0957,0.081 0.03681,0.0515 0.03681,0.1399 0,0.10306 -0.04417,0.16199 -0.03681,0.0515 -0.103065,0.081 -0.06626,0.0221 -0.147259,0.0294 -0.07362,0 -0.147271,0 0.147271,0.0294 0.250348,0.11779 0.110426,0.081 0.213539,0.17671 0.103064,0.0883 0.213527,0.16199 0.117788,0.0663 0.287168,0.0663 h 0.265072 q 0.110427,0 0.18408,0.081 0.08098,0.0736 0.08098,0.18408 0,0.17672 -0.117788,0.2209 -0.110427,0.0442 -0.242986,0.0442 h -0.169345 q -0.103065,0 -0.18408,0.081 -0.07362,0.081 -0.07362,0.18408 0,0.11043 -0.05889,0.16199 -0.05889,0.0515 -0.147271,0.081 -0.08834,0.0294 -0.191442,0.0589 -0.103065,0.0221 -0.191442,0.0736 -0.08834,0.0515 -0.147259,0.14725 -0.05889,0.0957 -0.05889,0.27244 0,0.19144 -0.08834,0.30925 -0.08098,0.11779 -0.184069,0.2209 -0.0957,0.0957 -0.176718,0.21353 -0.08098,0.11779 -0.08098,0.30925 v 0.14726 q 0,0.0663 -0.0071,0.13991 -0.0071,0.0663 -0.03681,0.12518 -0.02208,0.0515 -0.08098,0.0883 -0.05153,0.0294 -0.139898,0.0294 -0.147259,0 -0.191441,-0.081 -0.04417,-0.081 -0.07362,-0.17672 -0.02945,-0.10307 -0.07362,-0.18408 -0.04417,-0.0883 -0.191442,-0.0883 h -0.795226 q -0.213539,0 -0.375522,0.16199 -0.154633,0.15462 -0.154633,0.36815 v 0.27981 q 0,0.14726 0.01472,0.28717 0.01472,0.1399 0.06626,0.25033 0.05889,0.11043 0.161994,0.17672 0.110427,0.0663 0.287169,0.0663 0.147259,0 0.191442,-0.081 0.04417,-0.081 0.07362,-0.17672 0.02945,-0.10306 0.07362,-0.18408 0.04417,-0.0883 0.191442,-0.0883 0.14726,0 0.191442,0.0883 0.04417,0.081 0.07362,0.18408 0.02945,0.0957 0.07362,0.17672 0.04417,0.081 0.191441,0.081 0.14726,0 0.191442,0.0883 0.05153,0.081 0.07362,0.18408 0.02208,0.0957 0.06626,0.17671 0.05153,0.081 0.198804,0.081 h 1.58309 q 0.220889,0 0.412331,0.0883 0.191442,0.081 0.331339,0.22826 0.147272,0.1399 0.228263,0.33134 0.08834,0.19144 0.08834,0.41234 0,0.21353 0.154633,0.37552 0.161995,0.15462 0.375522,0.15462 0.213527,0 0.36816,0.15464 0.161983,0.15462 0.161983,0.36815 0,0.34607 -0.147259,0.58906 -0.147259,0.23562 -0.382884,0.47123 l -1.59044,1.59046 q -0.154633,0.15462 -0.279807,0.25771 -0.125174,0.10306 -0.265072,0.16198 -0.132536,0.0589 -0.29453,0.081 -0.161983,0.0294 -0.382884,0.0294 -0.139897,0 -0.250348,-0.0515 -0.110427,-0.0442 -0.110427,-0.21353 0,-0.14727 0.08098,-0.19144 0.08098,-0.0442 0.176718,-0.0736 0.103065,-0.0294 0.184068,-0.0736 0.08834,-0.0442 0.08834,-0.19144 v -1.32537 q 0,-0.22089 -0.154633,-0.37552 -0.154621,-0.15462 -0.375522,-0.15462 -0.176706,0 -0.287157,-0.0663 -0.103065,-0.0663 -0.161995,-0.17672 -0.05153,-0.11043 -0.06626,-0.24299 -0.01472,-0.1399 -0.01472,-0.27243 0,-0.2209 0.01472,-0.40498 0.01472,-0.18408 0.06626,-0.34607 0.05889,-0.16199 0.161995,-0.30925 0.103065,-0.14726 0.287157,-0.29453 -0.338701,0 -0.589049,-0.14726 -0.250348,-0.14726 -0.471237,-0.38288 -0.18408,-0.19881 -0.338713,-0.3019 -0.154633,-0.11042 -0.316616,-0.15462 -0.161994,-0.0515 -0.338713,-0.0589 -0.176718,-0.0147 -0.397607,-0.0147 H 84.13484 q -0.213539,0 -0.368161,-0.15462 -0.154632,-0.16199 -0.154632,-0.37552 0,-0.25771 -0.08098,-0.44179 -0.07362,-0.19144 -0.191442,-0.33871 -0.117788,-0.14726 -0.25771,-0.2798 -0.139897,-0.13253 -0.257709,-0.27979 -0.117789,-0.14727 -0.198804,-0.33135 -0.07362,-0.18408 -0.07362,-0.44179 0,-0.33134 -0.125174,-0.61851 -0.125174,-0.28716 -0.346062,-0.5007 -0.21354,-0.22089 -0.500696,-0.34606 -0.287169,-0.12517 -0.618508,-0.12517 h -0.655329 q -0.714223,0.9204 -1.089745,1.99542 -0.36816,1.07502 -0.36816,2.23839 0,0.94985 0.242986,1.83344 0.250348,0.87621 0.692138,1.64199 0.449151,0.7584 1.075021,1.39163 0.633232,0.62587 1.391637,1.06767 0.765767,0.44915 1.641985,0.69214 0.88358,0.25034 1.833439,0.25034 z m 0,-13.7544 q -0.809962,0 -1.597815,0.18408 -0.780502,0.18408 -1.502087,0.55224 l 0.456513,0.31662 h 1.052936 q 0.154621,0 0.191442,0.0883 0.04417,0.081 0.05889,0.18408 0.02209,0.0957 0.06626,0.17672 0.05153,0.081 0.213527,0.081 0.110427,0 0.198816,-0.0736 0.0957,-0.0736 0.0957,-0.19145 0.02945,-0.13253 0.0957,-0.27243 0.06626,-0.13991 0.161983,-0.25035 0.0957,-0.11779 0.220901,-0.19144 0.132535,-0.0736 0.287168,-0.0736 h 2.650739 q -0.633226,-0.26507 -1.303278,-0.3976 -0.662691,-0.13254 -1.347455,-0.13254 z m 0.795214,1.58308 q -0.147259,0 -0.191442,0.0883 -0.04417,0.081 -0.07362,0.18407 -0.02945,0.0957 -0.07362,0.17672 -0.04417,0.081 -0.191442,0.081 -0.08834,0 -0.176718,-0.007 -0.08098,-0.007 -0.169357,-0.007 -0.07362,0 -0.154621,0.007 -0.07362,0.007 -0.139909,0.0368 -0.06626,0.0294 -0.110427,0.0883 -0.04417,0.0515 -0.04417,0.14727 0,0.0957 0.04417,0.15462 0.04417,0.0515 0.110427,0.081 0.06626,0.0294 0.139909,0.0368 0.08098,0.007 0.154621,0.007 0.08834,0 0.169357,-0.007 0.08834,-0.007 0.176718,-0.007 0.147259,0 0.191442,0.0883 0.04417,0.081 0.07362,0.18408 0.02945,0.0957 0.07362,0.17672 0.04417,0.081 0.191442,0.081 0.18408,0 0.220901,-0.11779 0.04417,-0.11779 0.04417,-0.25772 v -0.15462 q 0,-0.20617 0.132547,-0.35344 0.132536,-0.15462 0.338701,-0.17671 h -0.206165 q -0.147271,0 -0.191442,-0.081 -0.04417,-0.081 -0.07362,-0.17672 -0.02209,-0.10306 -0.07362,-0.18406 -0.04417,-0.0883 -0.191442,-0.0883 z m 0.839409,0.53015 q 0.01472,0.007 0.03681,0.007 z" style="font-style:normal;font-variant:normal;font-weight:normal;font-stretch:normal;font-size:medium;line-height:100%;font-family:'Segoe UI Emoji';-inkscape-font-specification:'Segoe UI Emoji, Normal';font-variant-ligatures:normal;font-variant-caps:normal;font-variant-numeric:normal;font-feature-settings:normal;text-align:start;letter-spacing:0px;word-spacing:0px;writing-mode:lr-tb;text-anchor:start;fill:#afafe9;fill-opacity:1;stroke:none;stroke-width:0.26458332" id="path5235" inkscape:connector-curvature="0"/>
      </g>
    </g>
    </g></svg>
